<svg width="296" height="137" viewBox="0 0 296 137" fill="none" xmlns="http://www.w3.org/2000/svg">
<path d="M16.5696 136.6C14.5611 136.6 12.6961 135.841 10.9746 134.324C9.32486 132.807 7.89026 130.764 6.67086 128.196C5.59491 125.745 4.62656 122.652 3.76581 118.917C2.90505 115.066 2.25948 111.097 1.82911 107.012C0.96835 100.126 0.394513 91.08 0.107594 79.8751C0.0358648 77.1906 0 72.5802 0 66.044V55.0142C0.0717295 51.8628 0.107594 48.5947 0.107594 45.2099C0.107594 38.3235 0.358648 32.8961 0.860756 28.9277C0.645567 27.177 0.537972 25.3678 0.537972 23.5003C0.537972 16.4973 2.15189 10.8364 5.37972 6.51788C8.60756 2.19932 12.6962 0.0400391 17.6455 0.0400391C19.5105 0.0400391 21.232 0.857065 22.81 2.49112C24.3881 4.12517 25.1771 6.16773 25.1771 8.61881C25.1771 9.78599 24.8902 10.7197 24.3164 11.42C23.7425 12.1204 23.0252 12.4705 22.1645 12.4705C21.4472 12.4705 20.6581 12.2954 19.7974 11.9453C19.0084 11.5951 18.5063 11.0699 18.2911 10.3696H16.8923V10.0194C14.2383 10.0194 12.0147 10.9532 10.2215 12.8207C8.93034 14.338 7.92613 16.8474 7.20883 20.349C6.92191 21.6329 6.70672 23.2669 6.56326 25.2511C6.4198 27.2353 6.34808 29.0444 6.34808 30.6785C6.27635 31.6122 6.24048 33.4797 6.24048 36.281L6.45567 42.4087L6.56326 48.3613C6.56326 50.112 6.4198 52.1546 6.13289 54.489C5.77424 57.4069 5.59491 59.4495 5.59491 60.6167V64.8185C5.59491 69.3705 5.70251 75.6149 5.9177 83.5517C5.98943 90.2047 6.45567 96.8576 7.31643 103.51C7.96199 109.697 9.1814 114.949 10.9746 119.267C12.6961 123.703 15.0274 125.92 17.9683 125.92C19.1877 125.92 20.694 124.87 22.4873 122.769C24.4239 120.668 25.7868 119.618 26.5758 119.618C27.5801 119.618 28.6201 120.493 29.6961 122.244C29.6961 126.562 28.6919 129.889 26.6834 132.223C24.8185 134.324 22.5948 135.666 20.0126 136.25C18.578 136.483 17.4303 136.6 16.5696 136.6Z" fill="#B83A48"/>
<path d="M59.2753 135.374C57.6255 135.374 56.4061 134.966 55.6171 134.149C54.8281 133.332 54.4336 131.815 54.4336 129.597C54.4336 126.095 54.0749 120.143 53.3576 111.739L52.9272 108.062L42.2754 105.436C41.845 108.121 41.2353 113.548 40.4463 121.718C40.0159 127.438 39.3345 131.231 38.402 133.098C37.8999 134.149 37.1826 134.674 36.2501 134.674C35.3893 134.674 34.6003 134.266 33.883 133.449C33.1657 132.515 32.8071 131.406 32.8071 130.122L33.0223 129.247L33.1299 128.547C37.864 98.55 41.4505 68.962 43.8893 39.7825C43.8893 39.3156 43.9252 38.557 43.9969 37.5065C44.0686 36.3393 44.1404 34.7053 44.2121 32.6044C44.4273 28.2858 44.6425 24.8426 44.8577 22.2748C45.1446 19.707 45.575 17.7812 46.1488 16.4973H49.807C50.8112 16.4973 51.672 16.9058 52.3893 17.7228C53.1066 18.4231 53.4652 19.4736 53.4652 20.8742C53.4652 29.7448 54.2184 42.9339 55.7247 60.4416C57.1593 78.4161 57.8766 91.0217 57.8766 98.2582C57.8766 98.9585 58.0559 100.768 58.4146 103.686C58.7732 106.37 58.9525 108.121 58.9525 108.938C58.9525 109.755 59.3112 113.256 60.0285 119.442C60.674 125.045 60.9968 128.663 60.9968 130.297V130.472C60.9968 133.04 60.423 134.674 59.2753 135.374ZM52.1741 101.76C51.9589 100.009 51.8513 97.8497 51.8513 95.2819C51.8513 84.7773 51.2775 71.3547 50.1298 55.0142L49.0538 36.8062C45.9695 64.2349 43.8534 84.9523 42.7058 98.9585C43.7817 100.126 46.9378 101.059 52.1741 101.76Z" fill="#B83A48"/>
<path d="M99.6048 134.324C98.744 134.324 98.0984 133.974 97.6681 133.274C97.2377 132.457 96.9149 131.114 96.6997 129.247L96.0541 125.92V125.045C96.0541 121.193 93.5795 108.062 88.6301 85.6527C83.7525 63.2428 79.915 46.6689 77.1175 35.9308V123.994L77.5479 125.22C77.6196 125.453 77.7631 125.862 77.9783 126.446C78.1935 127.029 78.301 127.613 78.301 128.196C78.301 129.714 77.9783 130.998 77.3327 132.048C76.6871 133.099 75.8981 133.624 74.9656 133.624C72.6703 133.624 71.5226 130.064 71.5226 122.944L71.415 93.0059C71.3433 84.0186 71.3074 73.9809 71.3074 62.8926C71.3074 59.1577 71.415 53.7303 71.6302 46.6105C71.8454 39.2573 71.953 33.8299 71.953 30.3283C71.953 24.8426 73.2441 20.524 75.8264 17.3727V18.4231C76.2568 18.1897 76.5437 18.073 76.6871 18.073C78.3369 18.073 80.4171 22.7417 82.9276 32.0791C84.936 39.5491 86.7293 47.4275 88.3073 55.7145C89.9571 64.0015 92.109 75.79 94.763 91.08L95.839 97.3828C97.4887 106.837 98.744 113.607 99.6048 117.692C101.039 92.5974 101.757 62.951 101.757 28.7527V26.4767C101.685 25.7763 101.649 25.0177 101.649 24.2007C101.649 20.6991 102.51 18.9484 104.231 18.9484C105.236 18.9484 105.989 19.5903 106.491 20.8742C107.065 22.1581 107.352 23.7921 107.352 25.7763V38.9071C107.208 56.8817 106.778 76.3736 106.06 97.3828C105.343 118.392 104.482 130.239 103.478 132.923C101.398 133.857 100.107 134.324 99.6048 134.324Z" fill="#B83A48"/>
<path d="M136.135 136.25C134.557 136.25 132.871 135.841 131.078 135.024C129.356 134.324 128.029 133.507 127.097 132.573C122.291 127.554 119.888 113.84 119.888 91.4302V77.0739C119.888 72.4052 119.924 68.2617 119.996 64.6434C120.067 60.9085 120.211 56.8817 120.426 52.5631C120.641 48.0111 120.964 44.3345 121.394 41.5333C121.825 38.6153 122.542 35.3472 123.546 31.729C124.407 28.3441 125.447 25.718 126.666 23.8505C127.958 21.983 129.607 20.4073 131.616 19.1234C133.409 17.8395 135.633 17.1976 138.287 17.1976C139.363 17.1976 140.187 17.6061 140.761 18.4231C141.335 19.2401 141.622 20.2906 141.622 21.5745C141.622 22.7417 141.371 23.7921 140.869 24.7259C140.439 25.6596 139.901 26.1849 139.255 26.3016H134.198C132.763 26.3016 131.508 27.7606 130.432 30.6785C129.356 33.5965 128.603 37.3898 128.173 42.0585C127.24 50.6956 126.774 57.6987 126.774 63.0677V63.9431L126.559 80.7505C126.415 85.7694 126.344 91.4302 126.344 97.733C126.344 102.168 126.451 105.786 126.666 108.588C127.025 112.79 127.635 116.291 128.496 119.092C129.356 122.244 130.827 124.52 132.907 125.92C133.983 126.621 135.166 126.971 136.458 126.971C137.247 126.971 138.036 126.504 138.825 125.57C139.757 125.57 140.51 125.92 141.084 126.621C141.73 127.204 142.052 128.138 142.052 129.422C142.052 133.974 140.08 136.25 136.135 136.25Z" fill="#B83A48"/>
<path d="M156.717 136.075C155.785 136.075 154.924 135.55 154.135 134.499C153.418 133.449 153.023 132.165 152.951 130.647V122.594C152.88 121.543 152.844 120.318 152.844 118.917C152.844 116.466 152.736 112.731 152.521 107.712L152.306 96.5074C152.306 90.7882 152.413 82.2678 152.629 70.9462C152.916 60.7917 153.059 52.2713 153.059 45.385C153.059 43.7509 152.951 41.2998 152.736 38.0317C152.521 34.6469 152.413 32.1958 152.413 30.6785C152.413 22.3915 153.92 18.248 156.932 18.248C159.3 18.248 162.025 19.0067 165.11 20.524C168.266 22.0414 169.844 23.8505 169.844 25.9514C169.844 27.1186 169.521 28.2274 168.875 29.2779C168.302 30.2116 167.584 30.9703 166.724 31.5539C163.711 29.8031 160.985 28.6359 158.546 28.0523C158.618 29.8031 158.654 32.3126 158.654 35.5807C158.654 40.2494 158.618 44.4512 158.546 48.1862C158.331 53.7887 158.224 57.9905 158.224 60.7917L158.546 63.593L160.268 63.4179C160.842 63.3012 161.559 63.2428 162.42 63.2428C165.863 63.2428 167.584 64.8769 167.584 68.145C167.584 69.4289 167.262 70.5377 166.616 71.4714C165.97 72.2885 165.145 72.697 164.141 72.697C162.85 72.697 161.846 72.5802 161.129 72.3468H158.439C158.582 75.3815 158.654 79.8168 158.654 85.6527C158.654 91.4885 158.618 96.7409 158.546 101.41C158.331 108.529 158.224 113.84 158.224 117.342C158.224 123.878 158.295 127.146 158.439 127.146L161.989 126.971C163.209 126.854 164.679 126.796 166.401 126.796C169.126 126.796 170.489 128.196 170.489 130.998C170.489 132.632 170.023 133.857 169.091 134.674C168.23 135.608 167.154 136.075 165.863 136.075H156.717Z" fill="#B83A48"/>
<path d="M198.914 136.6C196.331 135.199 193.139 134.499 189.338 134.499C188.19 135.666 186.971 136.25 185.68 136.25C184.819 136.25 184.066 135.608 183.42 134.324C182.846 133.157 182.559 131.873 182.559 130.472C182.559 120.668 182.81 107.596 183.312 91.2551C183.743 73.8641 183.958 60.8501 183.958 52.213V50.9874C183.528 43.6342 183.312 38.1485 183.312 34.5302C183.312 23.442 184.568 17.8979 187.078 17.8979C187.796 17.8979 188.405 18.3648 188.907 19.2985C189.481 20.1155 189.768 21.1076 189.768 22.2748C189.768 23.6754 189.661 25.8931 189.445 28.9277C189.23 31.8457 189.123 34.0633 189.123 35.5807C189.123 43.4008 189.158 50.4622 189.23 56.765C189.302 62.951 189.338 69.9541 189.338 77.7742C188.979 79.525 188.8 81.976 188.8 85.1274V87.2283L188.585 101.059C188.441 105.145 188.369 109.813 188.369 115.066C188.369 123.119 189.553 127.146 191.92 127.146C192.063 127.146 192.279 127.146 192.566 127.146C192.924 127.029 193.39 126.971 193.964 126.971C194.61 126.854 195.435 126.796 196.439 126.796C200.312 126.796 202.249 128.547 202.249 132.048C202.249 133.215 201.926 134.207 201.281 135.024C200.635 135.841 199.846 136.367 198.914 136.6Z" fill="#B83A48"/>
<path d="M227.704 136.6C225.121 135.199 221.929 134.499 218.128 134.499C216.98 135.666 215.761 136.25 214.469 136.25C213.609 136.25 212.856 135.608 212.21 134.324C211.636 133.157 211.349 131.873 211.349 130.472C211.349 120.668 211.6 107.596 212.102 91.2551C212.533 73.8641 212.748 60.8501 212.748 52.213V50.9874C212.318 43.6342 212.102 38.1485 212.102 34.5302C212.102 23.442 213.358 17.8979 215.868 17.8979C216.585 17.8979 217.195 18.3648 217.697 19.2985C218.271 20.1155 218.558 21.1076 218.558 22.2748C218.558 23.6754 218.45 25.8931 218.235 28.9277C218.02 31.8457 217.912 34.0633 217.912 35.5807C217.912 43.4008 217.948 50.4622 218.02 56.765C218.092 62.951 218.128 69.9541 218.128 77.7742C217.769 79.525 217.59 81.976 217.59 85.1274V87.2283L217.374 101.059C217.231 105.145 217.159 109.813 217.159 115.066C217.159 123.119 218.343 127.146 220.71 127.146C220.853 127.146 221.069 127.146 221.355 127.146C221.714 127.029 222.18 126.971 222.754 126.971C223.4 126.854 224.225 126.796 225.229 126.796C229.102 126.796 231.039 128.547 231.039 132.048C231.039 133.215 230.716 134.207 230.071 135.024C229.425 135.841 228.636 136.367 227.704 136.6Z" fill="#B83A48"/>
<path d="M244.873 136.075C243.941 136.075 243.08 135.55 242.291 134.499C241.574 133.449 241.179 132.165 241.107 130.647V122.594C241.036 121.543 241 120.318 241 118.917C241 116.466 240.892 112.731 240.677 107.712L240.462 96.5074C240.462 90.7882 240.57 82.2678 240.785 70.9462C241.072 60.7917 241.215 52.2713 241.215 45.385C241.215 43.7509 241.107 41.2998 240.892 38.0317C240.677 34.6469 240.57 32.1958 240.57 30.6785C240.57 22.3915 242.076 18.248 245.088 18.248C247.456 18.248 250.181 19.0067 253.266 20.524C256.422 22.0414 258 23.8505 258 25.9514C258 27.1186 257.677 28.2274 257.031 29.2779C256.458 30.2116 255.74 30.9703 254.88 31.5539C251.867 29.8031 249.141 28.6359 246.702 28.0523C246.774 29.8031 246.81 32.3126 246.81 35.5807C246.81 40.2494 246.774 44.4512 246.702 48.1862C246.487 53.7887 246.38 57.9905 246.38 60.7917L246.702 63.593L248.424 63.4179C248.998 63.3012 249.715 63.2428 250.576 63.2428C254.019 63.2428 255.74 64.8769 255.74 68.145C255.74 69.4289 255.418 70.5377 254.772 71.4714C254.126 72.2885 253.302 72.697 252.297 72.697C251.006 72.697 250.002 72.5802 249.285 72.3468H246.595C246.738 75.3815 246.81 79.8168 246.81 85.6527C246.81 91.4885 246.774 96.7409 246.702 101.41C246.487 108.529 246.38 113.84 246.38 117.342C246.38 123.878 246.451 127.146 246.595 127.146L250.145 126.971C251.365 126.854 252.835 126.796 254.557 126.796C257.283 126.796 258.645 128.196 258.645 130.998C258.645 132.632 258.179 133.857 257.247 134.674C256.386 135.608 255.31 136.075 254.019 136.075H244.873Z" fill="#B83A48"/>
<path d="M273.943 134.849C272.078 134.849 271.146 127.204 271.146 111.914L271.361 84.252C271.433 76.0818 271.468 66.9194 271.468 56.765C271.468 53.03 271.253 47.2524 270.823 39.4323C270.464 30.9119 270.285 25.718 270.285 23.8505C270.285 22.3332 270.679 20.9909 271.468 19.8237C272.257 18.6566 273.118 18.073 274.051 18.073C276.561 18.073 278.964 19.0067 281.26 20.8742C283.627 22.625 285.707 25.1344 287.5 28.4025C291.302 35.5223 293.812 43.3424 295.032 51.8628C295.677 56.1814 296 60.4416 296 64.6434C296 66.1608 295.964 67.5614 295.892 68.8453L295.785 73.5723V83.2016C295.785 90.6715 295.641 96.5658 295.354 100.884C294.924 106.72 294.099 111.914 292.88 116.466C291.445 121.368 289.365 125.745 286.639 129.597C285.348 131.348 283.698 133.098 281.69 134.849H273.943ZM278.677 125.92C280.112 125.92 281.439 125.337 282.658 124.17C283.878 122.886 284.918 121.193 285.779 119.092C286.496 117.225 287.141 114.891 287.715 112.089C288.361 109.171 288.827 106.37 289.114 103.686C289.76 98.4333 290.154 93.0642 290.298 87.5785C290.369 86.1779 290.405 84.1353 290.405 81.4508C290.405 46.202 286.209 27.8189 277.817 26.3016C277.314 31.5539 277.063 37.6232 277.063 44.5096C277.063 51.8628 277.35 64.7018 277.924 83.0265C278.426 99.2503 278.677 112.148 278.677 121.718V125.92Z" fill="#B83A48"/>
</svg>
