<svg width="888" height="411" viewBox="0 0 888 411" fill="none" xmlns="http://www.w3.org/2000/svg">
<path d="M49.7088 409.8C43.6833 409.8 38.0883 407.523 32.9238 402.972C27.9746 398.421 23.6708 392.292 20.0126 384.588C16.7847 377.235 13.8797 367.956 11.2974 356.751C8.71515 345.198 6.77844 333.291 5.48733 321.036C2.90505 300.378 1.18354 273.24 0.322782 239.625C0.107594 231.572 0 217.741 0 198.132V165.043C0.215189 155.588 0.322782 145.784 0.322782 135.63C0.322782 114.97 1.07594 98.6883 2.58227 86.7831C1.9367 81.531 1.61392 76.1034 1.61392 70.5009C1.61392 49.4919 6.45567 32.5092 16.1392 19.5536C25.8227 6.59796 38.0886 0.120117 52.9365 0.120117C58.5315 0.120117 63.696 2.5712 68.43 7.47336C73.1643 12.3755 75.5313 18.5032 75.5313 25.8564C75.5313 29.358 74.6706 32.1591 72.9492 34.26C71.2275 36.3612 69.0756 37.4115 66.4935 37.4115C64.3416 37.4115 61.9743 36.8862 59.3922 35.8359C57.0252 34.7853 55.5189 33.2097 54.8733 31.1088H50.6769V30.0582C42.7149 30.0582 36.0441 32.8596 30.6645 38.4621C26.791 43.014 23.7784 50.5422 21.6265 61.047C20.7657 64.8987 20.1202 69.8007 19.6898 75.7533C19.2594 81.7059 19.0442 87.1332 19.0442 92.0355C18.8291 94.8366 18.7214 100.439 18.7214 108.843L19.367 127.226L19.6898 145.084C19.6898 150.336 19.2594 156.464 18.3987 163.467C17.3227 172.221 16.7847 178.348 16.7847 181.85V194.455C16.7847 208.111 17.1075 226.845 17.7531 250.655C17.9683 270.614 19.367 290.573 21.9493 310.53C23.886 329.091 27.5442 344.847 32.9238 357.801C38.0883 371.109 45.0822 377.76 53.9049 377.76C57.5631 377.76 62.082 374.61 67.4619 368.307C73.2717 362.004 77.3604 358.854 79.7274 358.854C82.7403 358.854 85.8603 361.479 89.0883 366.732C89.0883 379.686 86.0757 389.667 80.0502 396.669C74.4555 402.972 67.7844 406.998 60.0378 408.75C55.734 409.449 52.2909 409.8 49.7088 409.8Z" fill="#B83A48"/>
<path d="M177.825 406.121C172.875 406.121 169.217 404.897 166.85 402.446C164.483 399.995 163.299 395.444 163.299 388.79C163.299 378.284 162.223 360.428 160.071 335.216L158.78 324.185L126.825 316.307C125.534 324.362 123.705 340.643 121.338 365.153C120.046 382.313 118.002 393.692 115.205 399.293C113.698 402.446 111.546 404.021 108.749 404.021C106.167 404.021 103.8 402.797 101.648 400.346C99.4957 397.544 98.4199 394.217 98.4199 390.365L99.0655 387.74L99.3883 385.64C113.591 295.649 124.35 206.885 131.667 119.347C131.667 117.946 131.774 115.67 131.989 112.519C132.204 109.017 132.42 104.115 132.635 97.8125C133.281 84.8567 133.926 74.5271 134.572 66.8237C135.432 59.1203 136.724 53.3429 138.445 49.4912H149.42C152.432 49.4912 155.015 50.7167 157.167 53.1677C159.318 55.2686 160.394 58.4201 160.394 62.6219C160.394 89.2337 162.654 128.801 167.173 181.324C171.477 235.248 173.628 273.064 173.628 294.774C173.628 296.875 174.166 302.303 175.242 311.057C176.318 319.109 176.856 324.362 176.856 326.813C176.856 329.264 177.932 339.767 180.084 358.325C182.021 375.134 182.989 385.988 182.989 390.89V391.415C182.989 399.119 181.268 404.021 177.825 406.121ZM156.521 305.279C155.875 300.026 155.553 293.548 155.553 285.845C155.553 254.331 153.831 214.063 150.388 165.042L147.16 110.418C137.907 192.704 131.559 254.856 128.116 296.875C131.344 300.377 140.812 303.176 156.521 305.279Z" fill="#B83A48"/>
<path d="M298.812 402.973C296.23 402.973 294.293 401.923 293.002 399.823C291.711 397.372 290.742 393.343 290.097 387.742L288.16 377.761V375.136C288.16 363.58 280.736 324.187 265.888 256.959C251.255 189.729 239.743 140.008 231.35 107.793V371.983L232.641 375.661C232.857 376.36 233.287 377.587 233.933 379.339C234.578 381.088 234.901 382.84 234.901 384.589C234.901 389.143 233.933 392.995 231.996 396.145C230.059 399.298 227.692 400.873 224.895 400.873C218.009 400.873 214.566 390.193 214.566 368.833L214.243 279.019C214.028 252.057 213.92 221.944 213.92 188.679C213.92 177.474 214.243 161.192 214.888 139.833C215.534 117.773 215.857 101.491 215.857 90.9859C215.857 74.5288 219.73 61.573 227.477 52.1191V55.2703C228.768 54.5701 229.629 54.22 230.059 54.22C235.008 54.22 241.249 68.2261 248.781 96.2383C254.806 118.648 260.186 142.284 264.92 167.145C269.869 192.006 276.325 227.371 284.287 273.241L287.515 292.149C292.464 320.512 296.23 340.822 298.812 353.077C303.115 277.793 305.269 188.854 305.269 86.2591V79.4311C305.053 77.3299 304.945 75.0541 304.945 72.6031C304.945 62.0983 307.528 56.8462 312.691 56.8462C315.706 56.8462 317.965 58.7719 319.471 62.6236C321.193 66.4753 322.054 71.3773 322.054 77.3299V116.722C321.622 170.646 320.332 229.122 318.178 292.149C316.027 355.177 313.444 390.718 310.432 398.77C304.192 401.572 300.319 402.973 298.812 402.973Z" fill="#B83A48"/>
<path d="M408.407 408.749C403.673 408.749 398.615 407.522 393.236 405.071C388.07 402.971 384.089 400.52 381.293 397.718C366.875 382.661 359.666 341.519 359.666 274.29V231.221C359.666 217.215 359.774 204.784 359.99 193.929C360.203 182.725 360.635 170.644 361.28 157.688C361.925 144.032 362.894 133.002 364.184 124.599C365.477 115.845 367.628 106.041 370.64 95.186C373.223 85.0313 376.343 77.153 380 71.5505C383.876 65.948 388.823 61.2209 394.85 57.3692C400.229 53.5175 406.901 51.5918 414.863 51.5918C418.091 51.5918 420.563 52.8173 422.285 55.2683C424.007 57.7193 424.868 60.8708 424.868 64.7225C424.868 68.2241 424.115 71.3753 422.609 74.1767C421.319 76.9778 419.705 78.5537 417.767 78.9038H402.596C398.291 78.9038 394.526 83.2808 391.298 92.0345C388.07 100.788 385.811 112.168 384.521 126.174C381.722 152.086 380.324 173.095 380.324 189.202V191.828L379.679 242.251C379.247 257.307 379.034 274.29 379.034 293.198C379.034 306.503 379.355 317.357 380 325.763C381.077 338.369 382.907 348.872 385.49 357.275C388.07 366.731 392.483 373.559 398.723 377.759C401.951 379.862 405.5 380.912 409.376 380.912C411.743 380.912 414.11 379.511 416.477 376.709C419.273 376.709 421.532 377.759 423.254 379.862C425.192 381.611 426.158 384.413 426.158 388.265C426.158 401.921 420.242 408.749 408.407 408.749Z" fill="#B83A48"/>
<path d="M470.153 408.225C467.357 408.225 464.774 406.65 462.407 403.497C460.256 400.347 459.071 396.495 458.855 391.941V367.782C458.642 364.629 458.534 360.954 458.534 356.751C458.534 349.398 458.21 338.193 457.565 323.136L456.92 289.522C456.92 272.365 457.241 246.804 457.889 212.839C458.75 182.375 459.179 156.814 459.179 136.155C459.179 131.253 458.855 123.9 458.21 114.095C457.565 103.941 457.241 96.5875 457.241 92.0356C457.241 67.1746 461.762 54.7441 470.798 54.7441C477.902 54.7441 486.077 57.0202 495.332 61.5721C504.8 66.1243 509.534 71.5516 509.534 77.8543C509.534 81.3559 508.565 84.6823 506.627 87.8338C504.908 90.6349 502.754 92.911 500.174 94.6618C491.135 89.4094 482.957 85.9078 475.64 84.157C475.856 89.4094 475.964 96.9379 475.964 106.742C475.964 120.748 475.856 133.354 475.64 144.559C474.995 161.366 474.674 173.972 474.674 182.375L475.64 190.779L480.806 190.254C482.528 189.904 484.679 189.729 487.262 189.729C497.591 189.729 502.754 194.631 502.754 204.435C502.754 208.287 501.788 211.613 499.85 214.414C497.912 216.866 495.437 218.091 492.425 218.091C488.552 218.091 485.54 217.741 483.389 217.041H475.319C475.748 226.145 475.964 239.451 475.964 256.958C475.964 274.466 475.856 290.223 475.64 304.23C474.995 325.587 474.674 341.52 474.674 352.026C474.674 371.634 474.887 381.438 475.319 381.438L485.969 380.913C489.629 380.562 494.039 380.388 499.205 380.388C507.38 380.388 511.469 384.588 511.469 392.994C511.469 397.896 510.071 401.571 507.275 404.022C504.692 406.824 501.464 408.225 497.591 408.225H470.153Z" fill="#B83A48"/>
<path d="M596.741 409.799C588.992 405.596 579.416 403.496 568.013 403.496C564.569 406.997 560.912 408.749 557.039 408.749C554.456 408.749 552.197 406.823 550.259 402.971C548.537 399.47 547.676 395.618 547.676 391.415C547.676 362.003 548.429 322.787 549.935 273.764C551.228 221.591 551.873 182.549 551.873 156.638V152.961C550.583 130.901 549.935 114.444 549.935 103.589C549.935 70.3247 553.703 53.6924 561.233 53.6924C563.387 53.6924 565.214 55.0931 566.72 57.8942C568.442 60.3452 569.303 63.3215 569.303 66.8231C569.303 71.0249 568.982 77.678 568.334 86.7818C567.689 95.5358 567.368 102.189 567.368 106.741C567.368 130.201 567.473 151.385 567.689 170.294C567.905 188.852 568.013 209.861 568.013 233.321C566.936 238.574 566.399 245.927 566.399 255.381V261.684L565.754 303.176C565.322 315.434 565.106 329.438 565.106 345.197C565.106 369.356 568.658 381.437 575.759 381.437C576.188 381.437 576.836 381.437 577.697 381.437C578.771 381.086 580.169 380.912 581.891 380.912C583.829 380.561 586.304 380.387 589.316 380.387C600.935 380.387 606.746 385.64 606.746 396.143C606.746 399.644 605.777 402.62 603.842 405.071C601.904 407.522 599.537 409.1 596.741 409.799Z" fill="#B83A48"/>
<path d="M683.114 409.799C675.365 405.596 665.789 403.496 654.386 403.496C650.942 406.997 647.285 408.749 643.409 408.749C640.829 408.749 638.57 406.823 636.632 402.971C634.91 399.47 634.049 395.618 634.049 391.415C634.049 362.003 634.802 322.787 636.308 273.764C637.601 221.591 638.246 182.549 638.246 156.638V152.961C636.956 130.901 636.308 114.444 636.308 103.589C636.308 70.3247 640.076 53.6924 647.606 53.6924C649.757 53.6924 651.587 55.0931 653.093 57.8942C654.815 60.3452 655.676 63.3215 655.676 66.8231C655.676 71.0249 655.352 77.678 654.707 86.7818C654.062 95.5358 653.738 102.189 653.738 106.741C653.738 130.201 653.846 151.385 654.062 170.294C654.278 188.852 654.386 209.861 654.386 233.321C653.309 238.574 652.772 245.927 652.772 255.381V261.684L652.124 303.176C651.695 315.434 651.479 329.438 651.479 345.197C651.479 369.356 655.031 381.437 662.132 381.437C662.561 381.437 663.209 381.437 664.067 381.437C665.144 381.086 666.542 380.912 668.264 380.912C670.202 380.561 672.677 380.387 675.689 380.387C687.308 380.387 693.119 385.64 693.119 396.143C693.119 399.644 692.15 402.62 690.215 405.071C688.277 407.522 685.91 409.1 683.114 409.799Z" fill="#B83A48"/>
<path d="M734.622 408.225C731.826 408.225 729.243 406.65 726.876 403.497C724.725 400.347 723.54 396.495 723.324 391.941V367.782C723.111 364.629 723.003 360.954 723.003 356.751C723.003 349.398 722.679 338.193 722.034 323.136L721.389 289.522C721.389 272.365 721.713 246.804 722.358 212.839C723.219 182.375 723.648 156.814 723.648 136.155C723.648 131.253 723.324 123.9 722.679 114.095C722.034 103.941 721.713 96.5875 721.713 92.0356C721.713 67.1746 726.231 54.7441 735.267 54.7441C742.371 54.7441 750.546 57.0202 759.801 61.5721C769.269 66.1243 774.003 71.5516 774.003 77.8543C774.003 81.3559 773.034 84.6823 771.096 87.8338C769.377 90.6349 767.223 92.911 764.643 94.6618C755.604 89.4094 747.426 85.9078 740.109 84.157C740.325 89.4094 740.433 96.9379 740.433 106.742C740.433 120.748 740.325 133.354 740.109 144.559C739.464 161.366 739.143 173.972 739.143 182.375L740.109 190.779L745.275 190.254C746.997 189.904 749.148 189.729 751.731 189.729C762.06 189.729 767.223 194.631 767.223 204.435C767.223 208.287 766.257 211.613 764.319 214.414C762.381 216.866 759.909 218.091 756.894 218.091C753.021 218.091 750.009 217.741 747.858 217.041H739.788C740.217 226.145 740.433 239.451 740.433 256.958C740.433 274.466 740.325 290.223 740.109 304.23C739.464 325.587 739.143 341.52 739.143 352.026C739.143 371.634 739.356 381.438 739.788 381.438L750.438 380.913C754.098 380.562 758.508 380.388 763.674 380.388C771.852 380.388 775.938 384.588 775.938 392.994C775.938 397.896 774.54 401.571 771.744 404.022C769.161 406.824 765.933 408.225 762.06 408.225H734.622Z" fill="#B83A48"/>
<path d="M821.829 404.547C816.234 404.547 813.438 381.612 813.438 335.742L814.083 252.756C814.299 228.245 814.404 200.758 814.404 170.295C814.404 159.09 813.759 141.757 812.469 118.297C811.392 92.7355 810.855 77.1537 810.855 71.5513C810.855 66.9994 812.037 62.9725 814.404 59.4708C816.771 55.9696 819.354 54.2188 822.153 54.2188C829.683 54.2188 836.892 57.0199 843.78 62.6224C850.881 67.8748 857.121 75.403 862.5 85.2073C873.906 106.567 881.436 130.027 885.096 155.588C887.031 168.544 888 181.325 888 193.93C888 198.482 887.892 202.684 887.676 206.536L887.355 220.717V249.605C887.355 272.014 886.923 289.697 886.062 302.652C884.772 320.16 882.297 335.742 878.64 349.398C874.335 364.104 868.095 377.235 859.917 388.791C856.044 394.044 851.094 399.294 845.07 404.547H821.829ZM836.031 377.76C840.336 377.76 844.317 376.011 847.974 372.51C851.634 368.658 854.754 363.579 857.337 357.276C859.488 351.675 861.423 344.673 863.145 336.267C865.083 327.513 866.481 319.11 867.342 311.058C869.28 295.3 870.462 279.192 870.894 262.735C871.107 258.533 871.215 252.406 871.215 244.352C871.215 138.606 858.627 83.4564 833.451 78.9045C831.942 94.6614 831.189 112.869 831.189 133.529C831.189 155.588 832.05 194.105 833.772 249.079C835.278 297.751 836.031 336.444 836.031 365.154V377.76Z" fill="#B83A48"/>
</svg>
