<svg width="280" height="281" viewBox="0 0 280 281" fill="none" xmlns="http://www.w3.org/2000/svg">
<path d="M0 140.054C0 62.7338 62.6801 0.0537109 140 0.0537109V0.0537109C217.32 0.0537109 280 62.7338 280 140.054V140.054C280 217.374 217.32 280.054 140 280.054H9.33334C4.17868 280.054 0 275.875 0 270.72V140.054Z" fill="#F4ABAB"/>
<path d="M140 278.187H9.33334C5.20961 278.187 1.86667 274.844 1.86667 270.72V140.054C1.86667 63.7648 63.7111 1.92038 140 1.92038C216.289 1.92038 278.133 63.7648 278.133 140.054C278.133 216.343 216.289 278.187 140 278.187Z" stroke="black" stroke-opacity="0.1" stroke-width="3.73333"/>
</svg>
