<svg width="320" height="158" viewBox="0 0 320 158" fill="none" xmlns="http://www.w3.org/2000/svg">
<path d="M304.079 2.29503C303.992 1.41568 303.284 0.697266 302.4 0.697266H17.6C16.7163 0.697266 16.0084 1.41568 15.9212 2.29502C15.1716 9.85589 9.15863 15.8689 1.59776 16.6185C0.718416 16.7057 0 17.4136 0 18.2973V139.897C0 140.781 0.718416 141.489 1.59776 141.576C9.15863 142.326 15.1716 148.339 15.9212 155.9C16.0084 156.779 16.7163 157.497 17.6 157.497H302.4C303.284 157.497 303.992 156.779 304.079 155.9C304.828 148.339 310.841 142.326 318.402 141.576C319.282 141.489 320 140.781 320 139.897V18.2973C320 17.4136 319.282 16.7057 318.402 16.6185C310.841 15.8689 304.828 9.85589 304.079 2.29503Z" fill="#76DC9F"/>
<path d="M21.9208 6.19707H298.081C298.561 6.19707 299.009 6.59879 299.072 7.17036C299.878 14.5515 305.942 20.3841 313.534 21.1355C314.099 21.1914 314.501 21.6361 314.501 22.1175V136.077C314.501 136.558 314.099 137.003 313.534 137.059C305.942 137.81 299.878 143.643 299.072 151.024C299.009 151.595 298.561 151.997 298.081 151.997H21.9208C21.4408 151.997 20.9924 151.595 20.9299 151.024C20.1238 143.643 14.0593 137.81 6.46735 137.059C5.90235 137.003 5.50078 136.558 5.50078 136.077V22.1175C5.50078 21.6361 5.90235 21.1914 6.46735 21.1355C14.0593 20.3841 20.1238 14.5515 20.9299 7.17036C20.9924 6.59878 21.4408 6.19707 21.9208 6.19707Z" fill="#76DC9F"/>
<path d="M21.9208 6.19707H298.081C298.561 6.19707 299.009 6.59879 299.072 7.17036C299.878 14.5515 305.942 20.3841 313.534 21.1355C314.099 21.1914 314.501 21.6361 314.501 22.1175V136.077C314.501 136.558 314.099 137.003 313.534 137.059C305.942 137.81 299.878 143.643 299.072 151.024C299.009 151.595 298.561 151.997 298.081 151.997H21.9208C21.4408 151.997 20.9924 151.595 20.9299 151.024C20.1238 143.643 14.0593 137.81 6.46735 137.059C5.90235 137.003 5.50078 136.558 5.50078 136.077V22.1175C5.50078 21.6361 5.90235 21.1914 6.46735 21.1355C14.0593 20.3841 20.1238 14.5515 20.9299 7.17036C20.9924 6.59878 21.4408 6.19707 21.9208 6.19707Z" stroke="#76DC9F" stroke-width="1.4"/>
<path d="M21.9208 6.19707H298.081C298.561 6.19707 299.009 6.59879 299.072 7.17036C299.878 14.5515 305.942 20.3841 313.534 21.1355C314.099 21.1914 314.501 21.6361 314.501 22.1175V136.077C314.501 136.558 314.099 137.003 313.534 137.059C305.942 137.81 299.878 143.643 299.072 151.024C299.009 151.595 298.561 151.997 298.081 151.997H21.9208C21.4408 151.997 20.9924 151.595 20.9299 151.024C20.1238 143.643 14.0593 137.81 6.46735 137.059C5.90235 137.003 5.50078 136.558 5.50078 136.077V22.1175C5.50078 21.6361 5.90235 21.1914 6.46735 21.1355C14.0593 20.3841 20.1238 14.5515 20.9299 7.17036C20.9924 6.59878 21.4408 6.19707 21.9208 6.19707Z" stroke="white" stroke-opacity="0.5" stroke-width="1.4"/>
</svg>
