<svg width="312" height="76" viewBox="0 0 312 76" fill="none" xmlns="http://www.w3.org/2000/svg">
<path d="M0.471569 1.23076C0.267718 0.912757 0.496077 0.495117 0.873812 0.495117H311.126C311.504 0.495117 311.732 0.912754 311.528 1.23076L288.276 37.5053C288.175 37.6624 288.175 37.8638 288.276 38.021L311.528 74.2955C311.732 74.6135 311.504 75.0311 311.126 75.0311H0.873819C0.496084 75.0311 0.267716 74.6135 0.471567 74.2955L23.7245 38.021C23.8252 37.8638 23.8252 37.6624 23.7245 37.5053L0.471569 1.23076Z" fill="#9AE6EA"/>
<path d="M281.136 38.4928L282.158 40.0674L282.997 39.523L285.04 42.6722L284.202 43.2166L286.245 46.3658L287.084 45.8214L289.128 48.9706L288.289 49.515L290.333 52.6642L291.172 52.1198L293.215 55.269L292.376 55.8134L294.42 58.9626L295.259 58.4182L297.303 61.5674L296.464 62.1118L298.507 65.261L299.346 64.7166L301.39 67.8658L300.551 68.4102L301.05 69.1783H300.089V70.1783H296.246V69.1783H292.403V70.1783H288.56V69.1783H284.717V70.1783H280.873V69.1783H277.03V70.1783H273.187V69.1783H269.344V70.1783H265.5V69.1783H261.657V70.1783H257.814V69.1783H253.971V70.1783H250.128V69.1783H246.284V70.1783H242.441V69.1783H238.598V70.1783H234.755V69.1783H230.912V70.1783H227.068V69.1783H223.225V70.1783H219.382V69.1783H215.539V70.1783H211.695V69.1783H207.852V70.1783H204.009V69.1783H200.166V70.1783H196.323V69.1783H192.479V70.1783H188.636V69.1783H184.793V70.1783H180.95V69.1783H177.107V70.1783H173.263V69.1783H169.42V70.1783H165.577V69.1783H161.734V70.1783H157.89V69.1783H154.047V70.1783H150.204V69.1783H146.361V70.1783H142.518V69.1783H138.674V70.1783H134.831V69.1783H130.988V70.1783H127.145V69.1783H123.301V70.1783H119.458V69.1783H115.615V70.1783H111.772V69.1783H107.929V70.1783H104.085V69.1783H100.242V70.1783H96.399V69.1783H92.5558V70.1783H88.7125V69.1783H84.8693V70.1783H81.0261V69.1783H77.1829V70.1783H73.3397V69.1783H69.4965V70.1783H65.6533V69.1783H61.81V70.1783H57.9668V69.1783H54.1236V70.1783H50.2804V69.1783H46.4372V70.1783H42.5939V69.1783H38.7507V70.1783H34.9075V69.1783H31.0642V70.1783H27.221V69.1783H23.3778V70.1783H19.5345V69.1783H15.6913V70.1783H11.8481V69.1783H10.8879L11.3864 68.4102L10.5476 67.8658L12.5913 64.7166L13.4301 65.261L15.4738 62.1118L14.635 61.5674L16.6786 58.4182L17.5175 58.9626L19.5612 55.8134L18.7223 55.269L20.766 52.1198L21.6049 52.6642L23.6486 49.515L22.8097 48.9706L24.8534 45.8214L25.6922 46.3658L27.7359 43.2166L26.8971 42.6722L28.9408 39.523L29.7796 40.0674L30.8015 38.4928C31.119 38.0034 31.119 37.3731 30.8015 36.8838L29.7796 35.3092L28.9408 35.8536L26.8971 32.7044L27.7359 32.16L25.6923 29.0108L24.8534 29.5552L22.8097 26.406L23.6486 25.8616L21.6049 22.7124L20.766 23.2568L18.7223 20.1076L19.5612 19.5632L17.5175 16.414L16.6786 16.9584L14.635 13.8091L15.4738 13.2648L13.4301 10.1156L12.5913 10.6599L10.5476 7.51074L11.3864 6.96637L10.8879 6.19824H11.8481V5.19824H15.6914V6.19824H19.5346V5.19824H23.3778V6.19824H27.221V5.19824H31.0642V6.19824H34.9074V5.19824H38.7507V6.19824H42.5939V5.19824H46.4371V6.19824H50.2803V5.19824H54.1235V6.19824H57.9667V5.19824H61.81V6.19824H65.6532V5.19824H69.4964V6.19824H73.3396V5.19824H77.1828V6.19824H81.026V5.19824H84.8693V6.19824H88.7125V5.19824H92.5557V6.19824H96.3989V5.19824H100.242V6.19824H104.085V5.19824H107.929V6.19824H111.772V5.19824H115.615V6.19824H119.458V5.19824H123.301V6.19824H127.145V5.19824H130.988V6.19824H134.831V5.19824H138.674V6.19824H142.518V5.19824H146.361V6.19824H150.204V5.19824H154.047V6.19824H157.89V5.19824H161.734V6.19824H165.577V5.19824H169.42V6.19824H173.263V5.19824H177.106V6.19824H180.95V5.19824H184.793V6.19824H188.636V5.19824H192.479V6.19824H196.323V5.19824H200.166V6.19824H204.009V5.19824H207.852V6.19824H211.695V5.19824H215.539V6.19824H219.382V5.19824H223.225V6.19824H227.068V5.19824H230.911V6.19824H234.755V5.19824H238.598V6.19824H242.441V5.19824H246.284V6.19824H250.128V5.19824H253.971V6.19824H257.814V5.19824H261.657V6.19824H265.5V5.19824H269.344V6.19824H273.187V5.19824H277.03V6.19824H280.873V5.19824H284.717V6.19824H288.56V5.19824H292.403V6.19824H296.246V5.19824H300.09V6.19824H301.05L300.551 6.96637L301.39 7.51074L299.346 10.6599L298.507 10.1156L296.464 13.2648L297.303 13.8091L295.259 16.9584L294.42 16.414L292.376 19.5632L293.215 20.1076L291.172 23.2568L290.333 22.7124L288.289 25.8616L289.128 26.406L287.084 29.5552L286.245 29.0108L284.202 32.16L285.04 32.7044L282.997 35.8536L282.158 35.3092L281.136 36.8838C280.819 37.3731 280.819 38.0035 281.136 38.4928Z" stroke="white" stroke-width="2" stroke-dasharray="3.82 3.82"/>
</svg>
