<svg width="180" height="226" viewBox="0 0 180 226" fill="none" xmlns="http://www.w3.org/2000/svg">
<path d="M0 3.82979C0 1.71466 1.71465 0 3.82979 0H176.17C178.285 0 180 1.71465 180 3.82979V219.702C180 222.563 176.977 224.414 174.429 223.112L91.7417 180.889C90.6478 180.331 89.3523 180.331 88.2583 180.889L5.57148 223.112C3.02329 224.414 0 222.563 0 219.702V3.82979Z" fill="#9AE6EA"/>
<path d="M91.5101 170.994C90.569 170.514 89.455 170.514 88.5139 170.994L85.7571 172.4L86.2114 173.291L80.6979 176.102L80.2436 175.211L74.7301 178.023L75.1844 178.913L69.6709 181.725L69.2166 180.834L63.7031 183.645L64.1574 184.536L58.6439 187.348L58.1897 186.457L52.6762 189.268L53.1304 190.159L47.6169 192.97L47.1627 192.079L41.6492 194.891L42.1034 195.782L36.5899 198.593L36.1357 197.702L30.6222 200.514L31.0764 201.404L25.5629 204.216L25.1087 203.325L19.5952 206.136L20.0494 207.027L14.5359 209.838L14.0817 208.948L11.3249 210.353C10.4614 210.794 9.4375 210.166 9.4375 209.197V206.096H8.4375V199.894H9.4375V193.692H8.4375V187.49H9.4375V181.288H8.4375V175.086H9.4375V168.885H8.4375V162.683H9.4375V156.481H8.4375V150.279H9.4375V144.077H8.4375V137.875H9.4375V131.673H8.4375V125.471H9.4375V119.269H8.4375V113.067H9.4375V106.865H8.4375V100.663H9.4375V94.4614H8.4375V88.2595H9.4375V82.0575H8.4375V75.8556H9.4375V69.6537H8.4375V63.4517H9.4375V57.2498H8.4375V51.0479H9.4375V44.8459H8.4375V38.644H9.4375V32.4421H8.4375V26.2401H9.4375V20.0382H8.4375V13.8363H9.4375V10.7354C9.4375 10.0186 10.0186 9.4375 10.7354 9.4375H13.7845V8.4375H19.8827V9.4375H25.9809V8.4375H32.0791V9.4375H38.1773V8.4375H44.2755V9.4375H50.3737V8.4375H56.4719V9.4375H62.5701V8.4375H68.6683V9.4375H74.7665V8.4375H80.8647V9.4375H86.9629V8.4375H93.0611V9.4375H99.1593V8.4375H105.257V9.4375H111.356V8.4375H117.454V9.4375H123.552V8.4375H129.65V9.4375H135.748V8.4375H141.847V9.4375H147.945V8.4375H154.043V9.4375H160.141V8.4375H166.239V9.4375H169.289C170.005 9.4375 170.586 10.0186 170.586 10.7354V13.8363H171.586V20.0383H170.586V26.2402H171.586V32.4421H170.586V38.644H171.586V44.846H170.586V51.0479H171.586V57.2498H170.586V63.4518H171.586V69.6537H170.586V75.8556H171.586V82.0575H170.586V88.2595H171.586V94.4614H170.586V100.663H171.586V106.865H170.586V113.067H171.586V119.269H170.586V125.471H171.586V131.673H170.586V137.875H171.586V144.077H170.586V150.279H171.586V156.481H170.586V162.683H171.586V168.885H170.586V175.086H171.586V181.288H170.586V187.49H171.586V193.692H170.586V199.894H171.586V206.096H170.586V209.197C170.586 210.166 169.563 210.794 168.699 210.353L165.942 208.948L165.488 209.838L159.974 207.027L160.429 206.136L154.915 203.325L154.461 204.216L148.947 201.404L149.402 200.513L143.888 197.702L143.434 198.593L137.921 195.782L138.375 194.891L132.861 192.079L132.407 192.97L126.894 190.159L127.348 189.268L121.834 186.457L121.38 187.348L115.867 184.536L116.321 183.645L110.807 180.834L110.353 181.725L104.84 178.913L105.294 178.023L99.7803 175.211L99.326 176.102L93.8126 173.291L94.2668 172.4L91.5101 170.994Z" stroke="white" stroke-width="2" stroke-dasharray="6.13 6.13"/>
</svg>
