<svg width="888" height="411" viewBox="0 0 888 411" fill="none" xmlns="http://www.w3.org/2000/svg">
<g clip-path="url(#clip0_1105_2125)">
<path d="M108.104 410.88C103.147 410.88 99.3336 409.113 96.6642 405.573C94.3764 402.39 93.2325 398.322 93.2325 393.369C93.2325 319.428 91.707 256.986 88.6566 206.041C79.5048 204.626 73.0224 203.918 69.2094 203.918C53.5752 203.918 42.3264 205.157 35.4627 207.633C35.4627 227.445 37.1787 257.34 40.6104 297.317C43.6611 339.771 45.1863 369.843 45.1863 387.531C45.1863 391.068 44.0424 394.431 41.7543 397.614C39.4665 400.446 36.6066 401.859 33.1746 401.859C28.2176 401.859 23.6417 393.723 19.4473 377.448C13.3462 353.391 8.38902 302.979 4.57581 226.207C1.90659 174.201 0.571977 118.303 0.571977 58.5138C0.190659 47.5467 0 31.9803 0 11.8146C0 5.44656 3.2412 2.2625 9.72363 2.2625C13.5368 2.2625 17.35 3.14697 21.1632 4.91586C25.3577 6.68478 28.4082 8.63058 30.3147 10.7533C28.7896 22.0743 28.0269 35.3412 28.0269 50.5539C28.0269 65.4126 28.7896 83.4555 30.3147 104.683C31.4589 129.094 32.0307 147.49 32.0307 159.873V169.425C31.6494 172.255 31.4589 175.616 31.4589 179.507C31.4589 183.045 31.8402 187.645 32.6028 193.305C34.8906 193.305 38.7039 193.128 44.0424 192.774C49.3809 192.421 54.7191 191.89 60.0576 191.182C72.6411 190.121 81.9834 189.59 88.0845 189.59C88.0845 158.811 87.7032 130.332 86.9406 104.152L85.7967 15.5293V1.20117C90.7539 1.20117 95.139 2.08563 98.9523 3.85455C102.765 5.26968 105.625 7.21548 107.532 9.69192C110.964 13.5835 113.061 20.3054 113.824 29.8576V42.063C113.824 72.4884 115.73 130.685 119.543 216.655C122.975 294.487 124.691 352.86 124.691 391.776C124.691 396.729 122.975 401.151 119.543 405.045C116.493 408.936 112.68 410.88 108.104 410.88Z" fill="#6B488B"/>
<path d="M310.054 407.697C301.285 407.697 294.802 406.458 290.607 403.983C286.412 401.505 284.315 396.906 284.315 390.186C284.315 379.572 282.409 361.53 278.596 336.057L276.308 324.912L219.682 316.953C217.394 325.089 214.153 341.541 209.958 366.306C207.67 383.64 204.048 395.139 199.091 400.797C196.421 403.983 192.608 405.573 187.651 405.573C183.075 405.573 178.881 404.337 175.067 401.859C171.254 399.03 169.348 395.67 169.348 391.776L170.492 389.124L171.064 387C196.231 296.079 215.297 206.395 228.262 117.95C228.262 116.535 228.452 114.235 228.833 111.051C229.215 107.513 229.596 102.56 229.977 96.1921C231.121 83.1022 232.265 72.6655 233.409 64.8823C234.935 57.0991 237.222 51.2617 240.273 47.3701H259.72C265.059 47.3701 269.635 48.6085 273.448 51.085C277.261 53.2075 279.167 56.3917 279.167 60.637C279.167 87.5245 283.171 127.502 291.179 180.569C298.805 235.052 302.62 273.26 302.62 295.195C302.62 297.318 303.571 302.802 305.479 311.646C307.384 319.782 308.338 325.089 308.338 327.564C308.338 330.042 310.246 340.656 314.059 359.406C317.491 376.386 319.207 387.354 319.207 392.307V392.838C319.207 400.62 316.156 405.573 310.054 407.697ZM272.304 305.808C271.16 300.501 270.588 293.957 270.588 286.173C270.588 254.333 267.537 213.648 261.436 164.118L255.716 108.928C239.32 192.067 228.071 254.864 221.97 297.318C227.69 300.855 244.468 303.684 272.304 305.808Z" fill="#6B488B"/>
<path d="M384.887 408.228C376.496 408.228 371.351 404.868 369.443 398.145C367.919 393.9 367.154 387.885 367.154 380.103C367.154 364.89 367.919 346.14 369.443 323.85C371.351 302.625 372.302 283.697 372.302 267.069C372.302 248.318 372.875 220.193 374.018 182.692L375.164 98.8455C375.164 95.6613 374.591 90.8853 373.448 84.5172L371.732 71.2503V68.5971C371.732 60.4599 373.067 54.4458 375.734 50.5542C378.404 46.6626 383.36 44.7168 390.605 44.7168C400.52 44.7168 411.389 47.37 423.209 52.6767C435.029 57.9834 443.609 64.7055 448.949 72.8424C460.007 89.8239 465.536 111.051 465.536 136.523C465.536 155.627 463.82 171.724 460.388 184.814C456.956 197.551 451.046 209.402 442.655 220.37C452.951 229.568 459.815 241.42 463.247 255.925C467.06 270.076 468.968 287.942 468.968 309.522C468.968 331.104 464.963 349.854 456.956 365.775C447.803 383.817 434.459 396.198 416.918 402.921C406.241 406.458 395.564 408.228 384.887 408.228ZM403.19 204.98C423.017 204.626 432.932 183.223 432.932 140.769C432.932 95.1306 425.117 71.2503 409.481 69.1278C405.287 77.2647 403.19 96.369 403.19 126.44V204.98ZM399.758 381.162C411.959 378.687 421.493 371.964 428.357 360.999C435.221 350.031 438.653 337.47 438.653 323.319C438.653 308.46 437.699 295.372 435.791 284.051C434.267 275.206 432.17 267.953 429.5 262.293C427.214 256.279 423.971 250.795 419.777 245.842C415.202 240.535 409.862 237.351 403.763 236.29C402.236 256.456 401.474 283.166 401.474 316.422C401.474 318.543 401.093 325.266 400.331 336.588L399.185 354.63C399.185 355.338 399.377 355.869 399.758 356.223V381.162Z" fill="#6B488B"/>
<path d="M560.001 402.389C526.827 402.389 510.24 397.082 510.24 386.468C510.24 377.978 516.15 373.733 527.97 373.733H534.264L539.982 374.264C543.033 374.264 545.13 373.379 546.276 371.609C547.419 369.842 547.989 366.656 547.989 362.057C547.989 356.045 547.608 346.67 546.846 333.932C545.703 325.442 544.368 310.229 542.844 288.294C539.412 234.166 537.696 193.304 537.696 165.709C537.696 155.803 537.885 146.781 538.266 138.644L538.839 111.58C538.839 99.9053 538.266 90.176 537.123 82.3928C531.021 83.8082 526.638 84.5156 523.968 84.5156C514.815 84.5156 510.24 80.2703 510.24 71.7794C510.24 67.5341 513.099 63.8192 518.82 60.6353C524.538 57.4514 531.783 55.1516 540.555 53.7365C555.807 50.9063 569.343 49.4912 581.166 49.4912C585.741 49.4912 589.554 51.0833 592.605 54.2672C596.037 57.0974 597.753 60.4583 597.753 64.3499C597.753 68.2415 596.418 71.6027 593.748 74.4329C591.462 77.2631 588.411 78.6782 584.598 78.6782C582.309 78.6782 580.404 78.5012 578.877 78.1475H574.302C570.489 78.1475 567.627 79.0319 565.722 80.801C564.198 82.2161 563.433 85.0463 563.433 89.2916C563.433 123.609 565.722 175.261 570.297 244.248C571.059 256.984 572.586 275.735 574.872 300.5C576.78 316.775 577.734 333.401 577.734 350.384V370.55C580.02 370.196 583.833 370.019 589.173 370.019C605.187 370.019 613.197 376.208 613.197 388.592V391.775L598.896 400.796C598.515 400.796 597.18 400.973 594.894 401.327C592.986 401.327 589.173 401.327 583.452 401.327C571.251 402.035 563.433 402.389 560.001 402.389Z" fill="#6B488B"/>
<path d="M692.464 394.432L691.894 373.735C691.513 367.72 691.321 361 691.321 353.569L691.894 335.527C690.748 331.636 687.889 292.896 683.314 219.309C678.739 145.722 676.069 98.492 675.307 77.6189C653.188 76.9115 639.079 74.7887 632.98 71.2508C628.786 68.4206 626.689 65.2367 626.689 61.6988C626.689 58.8686 628.594 56.3921 632.407 54.2693C636.601 51.7928 640.795 50.5547 644.992 50.5547C655.669 50.5547 668.632 51.2621 683.884 52.6772C698.374 54.4463 711.34 55.3307 722.779 55.3307H731.932C743.752 55.3307 749.662 59.576 749.662 68.0669C749.662 72.3122 747.757 75.8501 743.944 78.6803C740.131 81.1568 735.745 82.3949 730.789 82.3949C727.357 82.3949 722.398 81.8642 715.915 80.8031L704.476 78.6803L703.333 83.987C703.333 115.474 706.573 165.711 713.056 234.698C719.158 299.44 722.209 349.678 722.209 385.411C722.209 389.656 720.112 393.37 715.915 396.553C712.102 399.739 707.719 401.329 702.76 401.329L692.464 394.432Z" fill="#6B488B"/>
<path d="M817.075 410.351C810.211 409.289 804.301 406.988 799.345 403.451C794.77 399.914 792.1 395.315 791.338 389.654L797.629 380.633C799.915 380.633 803.539 381.338 808.495 382.754C814.216 383.816 818.602 384.347 821.653 384.347C828.514 384.347 834.616 381.515 839.956 375.857C845.674 370.196 849.868 362.765 852.538 353.567C857.497 336.587 859.975 321.374 859.975 307.931C859.975 284.58 851.965 259.992 835.951 234.166L829.66 224.083C822.415 212.408 816.313 201.971 811.357 192.773C806.398 183.575 802.204 173.669 798.772 163.055C794.197 149.258 791.908 135.461 791.908 121.663C791.908 106.097 795.721 89.8225 803.347 72.841C807.163 64.7041 812.5 58.159 819.364 53.206C826.609 47.8993 834.616 45.2461 843.388 45.2461C850.249 45.2461 856.543 47.3686 862.261 51.6139C868.363 55.5058 871.414 60.2818 871.414 65.9422C871.414 69.1264 870.079 71.6029 867.409 73.3717C864.742 75.1405 861.499 76.0249 857.686 76.0249C853.492 76.0249 849.487 74.9638 845.674 72.841C837.286 73.1947 830.614 80.0935 825.655 93.5374C821.461 105.92 819.364 116.179 819.364 124.316C819.364 134.576 821.08 145.013 824.512 155.626C827.944 165.886 832.327 175.261 837.667 183.752L850.252 204.979L870.271 240.003C875.608 249.909 879.802 261.407 882.853 274.497C886.285 287.587 888.001 300.854 888.001 314.297C888.001 335.879 882.664 356.399 871.987 375.857C866.647 385.763 859.021 393.722 849.106 399.737C839.575 405.749 828.898 408.758 817.075 408.758V410.351Z" fill="#6B488B"/>
</g>
<defs>
<clipPath id="clip0_1105_2125">
<rect width="888" height="411" fill="white"/>
</clipPath>
</defs>
</svg>
