<svg width="296" height="137" viewBox="0 0 296 137" fill="none" xmlns="http://www.w3.org/2000/svg">
<path d="M36.0346 136.96C34.3822 136.96 33.1112 136.371 32.2214 135.191C31.4588 134.13 31.0775 132.774 31.0775 131.123C31.0775 106.476 30.569 85.6619 29.5522 68.6804C26.5016 68.2087 24.3408 67.9728 23.0698 67.9728C17.8584 67.9728 14.1088 68.3856 11.8209 69.2111C11.8209 75.815 12.3929 85.7799 13.5368 99.1057C14.5537 113.257 15.0621 123.281 15.0621 129.177C15.0621 130.356 14.6808 131.477 13.9181 132.538C13.1555 133.482 12.2022 133.953 11.0582 133.953C9.40586 133.953 7.88058 131.241 6.48242 125.816C4.44872 117.797 2.79634 100.993 1.52527 75.4023C0.635531 58.0669 0.190659 39.4344 0.190659 19.5046C0.063553 15.8489 0 10.6601 0 3.93821C0 1.81552 1.0804 0.754168 3.24121 0.754168C4.51227 0.754168 5.78333 1.04899 7.05439 1.63862C8.45256 2.22826 9.46941 2.87686 10.1049 3.58443C9.59652 7.35811 9.3423 11.7804 9.3423 16.8513C9.3423 21.8042 9.59652 27.8185 10.1049 34.8942C10.4863 43.0312 10.6769 49.1634 10.6769 53.2909V56.4749C10.5498 57.4183 10.4863 58.5386 10.4863 59.8358C10.4863 61.0151 10.6134 62.5482 10.8676 64.435C11.6302 64.435 12.9013 64.376 14.6808 64.2581C16.4603 64.1402 18.2397 63.9633 20.0192 63.7274C24.2137 63.3737 27.3278 63.1968 29.3615 63.1968C29.3615 52.9371 29.2344 43.4439 28.9802 34.7173L28.5989 5.17645V0.400391C30.2513 0.400391 31.713 0.695209 32.9841 1.28485C34.2551 1.75656 35.2084 2.40516 35.8439 3.23064C36.9879 4.52785 37.687 6.76848 37.9412 9.95252V14.021C37.9412 24.1628 38.5767 43.5618 39.8478 72.2182C40.9917 98.1623 41.5637 117.62 41.5637 130.592C41.5637 132.243 40.9917 133.717 39.8478 135.015C38.8309 136.312 37.5599 136.96 36.0346 136.96Z" fill="#6B488B"/>
<path d="M103.352 135.899C100.429 135.899 98.268 135.486 96.8698 134.661C95.4716 133.835 94.7726 132.302 94.7726 130.062C94.7726 126.524 94.137 120.51 92.866 112.019L92.1033 108.304L73.2281 105.651C72.4654 108.363 71.385 113.847 69.9868 122.102C69.2242 127.88 68.0167 131.713 66.3643 133.599C65.4746 134.661 64.2035 135.191 62.5511 135.191C61.0259 135.191 59.6277 134.779 58.3566 133.953C57.0856 133.01 56.45 131.89 56.45 130.592L56.8314 129.708L57.022 129C65.411 98.6929 71.7663 68.7983 76.088 39.3165C76.088 38.8447 76.1515 38.0782 76.2786 37.0169C76.4057 35.8376 76.5328 34.1866 76.6599 32.0639C77.0412 27.7006 77.4226 24.2217 77.8039 21.6273C78.3123 19.0329 79.0749 17.0871 80.0918 15.7899H86.5742C88.3537 15.7899 89.879 16.2027 91.15 17.0282C92.4211 17.7357 93.0566 18.7971 93.0566 20.2122C93.0566 29.1747 94.3912 42.5005 97.0605 60.1896C99.6026 78.3504 100.874 91.0866 100.874 98.3981C100.874 99.1057 101.191 100.934 101.827 103.882C102.462 106.594 102.78 108.363 102.78 109.188C102.78 110.014 103.416 113.552 104.687 119.802C105.831 125.462 106.403 129.118 106.403 130.769V130.946C106.403 133.54 105.386 135.191 103.352 135.899ZM90.7687 101.936C90.3874 100.167 90.1967 97.9854 90.1967 95.391C90.1967 84.7775 89.1799 71.2158 87.1462 54.706L85.2396 36.3093C79.774 64.0223 76.0244 84.9544 73.9907 99.1057C75.8973 100.285 81.49 101.228 90.7687 101.936Z" fill="#6B488B"/>
<path d="M128.296 136.076C125.499 136.076 123.784 134.956 123.148 132.715C122.64 131.3 122.385 129.295 122.385 126.701C122.385 121.63 122.64 115.38 123.148 107.95C123.784 100.875 124.101 94.5655 124.101 89.0229C124.101 82.7727 124.292 73.3975 124.673 60.8972L125.055 32.9484C125.055 31.887 124.864 30.295 124.483 28.1723L123.911 23.75V22.8656C123.911 20.1532 124.356 18.1485 125.245 16.8513C126.135 15.5541 127.787 14.9055 130.202 14.9055C133.507 14.9055 137.13 15.7899 141.07 17.5588C145.01 19.3277 147.87 21.5684 149.65 24.2807C153.336 29.9412 155.179 37.0169 155.179 45.5076C155.179 51.8757 154.607 57.2414 153.463 61.6047C152.319 65.8501 150.349 69.8007 147.552 73.4565C150.984 76.5226 153.272 80.4731 154.416 85.3082C155.687 90.0253 156.323 95.9806 156.323 103.174C156.323 110.368 154.988 116.618 152.319 121.925C149.268 127.939 144.82 132.066 138.973 134.307C135.414 135.486 131.855 136.076 128.296 136.076ZM134.397 68.3266C141.006 68.2087 144.311 61.0741 144.311 46.9228C144.311 31.7101 141.706 23.75 136.494 23.0425C135.096 25.7548 134.397 32.1229 134.397 42.1467V68.3266ZM133.253 127.054C137.32 126.229 140.498 123.988 142.786 120.333C145.074 116.677 146.218 112.49 146.218 107.773C146.218 102.82 145.9 98.4571 145.264 94.6834C144.756 91.7352 144.057 89.3177 143.167 87.4309C142.405 85.4261 141.324 83.5982 139.926 81.9472C138.401 80.1783 136.621 79.117 134.588 78.7632C134.079 85.4851 133.825 94.3886 133.825 105.474C133.825 106.181 133.698 108.422 133.444 112.196L133.062 118.21C133.062 118.446 133.126 118.623 133.253 118.741V127.054Z" fill="#6B488B"/>
<path d="M186.667 134.13C175.609 134.13 170.08 132.361 170.08 128.823C170.08 125.993 172.05 124.578 175.99 124.578H178.088L179.994 124.755C181.011 124.755 181.71 124.46 182.092 123.87C182.473 123.281 182.663 122.219 182.663 120.686C182.663 118.682 182.536 115.557 182.282 111.311C181.901 108.481 181.456 103.41 180.948 96.0985C179.804 78.0556 179.232 64.435 179.232 55.2367C179.232 51.9347 179.295 48.9275 179.422 46.2152L179.613 37.1938C179.613 33.3022 179.422 30.0591 179.041 27.4647C177.007 27.9365 175.546 28.1723 174.656 28.1723C171.605 28.1723 170.08 26.7572 170.08 23.9269C170.08 22.5118 171.033 21.2735 172.94 20.2122C174.846 19.1509 177.261 18.3843 180.185 17.9126C185.269 16.9692 189.781 16.4975 193.722 16.4975C195.247 16.4975 196.518 17.0282 197.535 18.0895C198.679 19.0329 199.251 20.1532 199.251 21.4504C199.251 22.7476 198.806 23.868 197.916 24.8114C197.154 25.7548 196.137 26.2265 194.866 26.2265C194.103 26.2265 193.468 26.1675 192.959 26.0496H191.434C190.163 26.0496 189.209 26.3444 188.574 26.9341C188.066 27.4058 187.811 28.3492 187.811 29.7643C187.811 41.2033 188.574 58.4207 190.099 81.4165C190.353 85.6619 190.862 91.9121 191.624 100.167C192.26 105.592 192.578 111.134 192.578 116.795V123.517C193.34 123.399 194.611 123.34 196.391 123.34C201.729 123.34 204.399 125.403 204.399 129.531V130.592L199.632 133.599C199.505 133.599 199.06 133.658 198.298 133.776C197.662 133.776 196.391 133.776 194.484 133.776C190.417 134.012 187.811 134.13 186.667 134.13Z" fill="#6B488B"/>
<path d="M230.821 131.477L230.631 124.578C230.504 122.573 230.44 120.333 230.44 117.856L230.631 111.842C230.249 110.545 229.296 97.6316 227.771 73.1027C226.246 48.5738 225.356 32.8304 225.102 25.8727C217.729 25.6369 213.026 24.9293 210.993 23.75C209.595 22.8066 208.896 21.7453 208.896 20.566C208.896 19.6226 209.531 18.7971 210.802 18.0895C212.2 17.264 213.598 16.8513 214.997 16.8513C218.556 16.8513 222.877 17.0871 227.961 17.5588C232.791 18.1485 237.113 18.4433 240.926 18.4433H243.977C247.917 18.4433 249.887 19.8584 249.887 22.6887C249.887 24.1038 249.252 25.2831 247.981 26.2265C246.71 27.052 245.248 27.4647 243.596 27.4647C242.452 27.4647 240.799 27.2878 238.638 26.9341L234.825 26.2265L234.444 27.9954C234.444 38.491 235.524 55.2367 237.685 78.2325C239.719 99.8132 240.736 116.559 240.736 128.47C240.736 129.885 240.037 131.123 238.638 132.184C237.367 133.246 235.906 133.776 234.253 133.776L230.821 131.477Z" fill="#6B488B"/>
<path d="M272.358 136.784C270.07 136.43 268.1 135.663 266.448 134.484C264.923 133.305 264.033 131.772 263.779 129.885L265.876 126.878C266.638 126.878 267.846 127.113 269.498 127.585C271.405 127.939 272.867 128.116 273.884 128.116C276.171 128.116 278.205 127.172 279.985 125.286C281.891 123.399 283.289 120.922 284.179 117.856C285.832 112.196 286.658 107.125 286.658 102.644C286.658 94.8603 283.988 86.6643 278.65 78.0556L276.553 74.6947C274.138 70.8031 272.104 67.3242 270.452 64.2581C268.799 61.192 267.401 57.89 266.257 54.3522C264.732 49.753 263.969 45.1539 263.969 40.5547C263.969 35.3659 265.24 29.9412 267.782 24.2807C269.054 21.5684 270.833 19.3867 273.121 17.7357C275.536 15.9668 278.205 15.0824 281.129 15.0824C283.416 15.0824 285.514 15.7899 287.42 17.205C289.454 18.5023 290.471 20.0943 290.471 21.9811C290.471 23.0425 290.026 23.868 289.136 24.4576C288.247 25.0472 287.166 25.342 285.895 25.342C284.497 25.342 283.162 24.9883 281.891 24.2807C279.095 24.3986 276.871 26.6982 275.218 31.1795C273.82 35.3069 273.121 38.7268 273.121 41.4391C273.121 44.859 273.693 48.3379 274.837 51.8757C275.981 55.2956 277.442 58.4207 279.222 61.251L283.417 68.3266L290.09 80.0014C291.869 83.3034 293.267 87.136 294.284 91.4994C295.428 95.8627 296 100.285 296 104.766C296 111.96 294.221 118.8 290.662 125.286C288.882 128.588 286.34 131.241 283.035 133.246C279.858 135.25 276.299 136.253 272.358 136.253V136.784Z" fill="#6B488B"/>
</svg>
