<svg width="888" height="183" viewBox="0 0 888 183" fill="none" xmlns="http://www.w3.org/2000/svg">
<g clip-path="url(#clip0_1105_1800)">
<path d="M39.2763 181.154C31.0938 181.154 24.3246 178.7 18.9687 173.79C14.6542 170.219 10.7117 164.12 7.14117 155.491C4.90953 149.837 3.12426 141.878 1.78529 131.613C0.743871 123.281 0.223161 115.396 0.223161 107.957C0.0743868 106.024 0 102.676 0 97.9153V81.4015C0 75.0043 0.223161 67.3423 0.669483 58.4158C1.26458 50.8285 2.45477 43.0921 4.24005 35.2072C6.17412 27.4708 9.00084 20.9248 12.7202 15.5689C16.4395 9.91547 21.4235 5.89856 27.672 3.51818C31.3914 2.47676 34.8876 1.95605 38.1606 1.95605C44.409 1.95605 47.5332 4.03889 47.5332 8.20457C47.5332 9.84107 46.9383 11.18 45.7479 12.2215C44.7066 13.1141 43.2933 13.5604 41.508 13.5604C40.9128 13.5604 39.8715 13.3373 38.3838 12.8909L35.2596 12.4446C32.4327 12.4446 29.9036 13.3373 27.672 15.1225C25.4404 16.7591 23.5807 19.2139 22.093 22.4869C18.6712 29.628 16.3652 37.4386 15.175 45.9187C13.5384 56.3329 12.6458 65.4082 12.497 73.1446C12.1995 79.8394 12.0507 86.9062 12.0507 94.3447V100.37C11.9019 102.453 11.8275 105.056 11.8275 108.181C11.8275 115.768 12.1995 123.207 12.9433 130.497C13.5384 139.126 15.175 146.564 17.8529 152.813C20.2333 159.805 24.1014 164.715 29.4573 167.542C31.9863 169.029 35.1108 169.773 38.8299 169.773C45.3762 169.773 50.8806 166.649 55.344 160.4C55.1952 155.193 54.8232 150.135 54.2283 145.226C53.6331 140.167 52.7403 136.745 51.5502 134.96C51.4014 134.96 51.0294 135.035 50.4345 135.183C49.9881 135.183 49.2441 135.258 48.2028 135.407L42.8469 135.853C37.7886 135.853 35.2596 133.696 35.2596 129.381C35.2596 128.042 36.0033 126.852 37.491 125.81C38.9787 124.769 40.9872 124.025 43.5165 123.579C47.682 122.537 51.4014 122.017 54.6744 122.017C57.6501 122.017 59.9559 123.133 61.5924 125.364C63.2289 127.596 64.0473 130.422 64.0473 133.844C64.0473 138.754 64.791 145.449 66.279 153.929C67.7667 162.26 68.5104 168.881 68.5104 173.79C68.5104 175.427 67.9899 176.84 66.9483 178.03C65.907 179.22 64.6422 179.816 63.1545 179.816C59.4354 179.816 56.9061 178.253 55.5672 175.129V174.906L50.6577 177.361C46.1943 179.89 42.4005 181.154 39.2763 181.154Z" fill="#A11275"/>
<path d="M96.8733 178.254C94.9392 178.254 93.1539 177.584 91.5174 176.245C90.0294 174.907 89.2113 173.27 89.0625 171.336V161.071C88.9137 159.731 88.8393 158.169 88.8393 156.384C88.8393 153.26 88.6161 148.499 88.17 142.102L87.7236 127.819C87.7236 120.529 87.9468 109.669 88.3929 95.238C88.9881 82.2945 89.2857 71.4342 89.2857 62.6565C89.2857 60.5736 89.0625 57.4494 88.6161 53.2836C88.17 48.9693 87.9468 45.8448 87.9468 43.911C87.9468 33.348 91.071 28.0664 97.3194 28.0664C102.229 28.0664 107.882 29.0335 114.28 30.9675C120.826 32.9016 124.099 35.2077 124.099 37.8855C124.099 39.3732 123.429 40.7865 122.09 42.1257C120.9 43.3158 119.412 44.2827 117.627 45.0267C111.379 42.795 105.725 41.3073 100.667 40.5636C100.816 42.795 100.89 45.9936 100.89 50.1594C100.89 56.1105 100.816 61.4661 100.667 66.2271C100.221 73.3683 99.9975 78.7239 99.9975 82.2945L100.667 85.8651L104.237 85.6419C105.428 85.4931 106.916 85.419 108.701 85.419C115.842 85.419 119.412 87.5016 119.412 91.6674C119.412 93.3039 118.743 94.7172 117.404 95.9073C116.065 96.9489 114.354 97.4697 112.271 97.4697C109.593 97.4697 107.51 97.3209 106.023 97.0233H100.444C100.741 100.891 100.89 106.545 100.89 113.983C100.89 121.422 100.816 128.117 100.667 134.068C100.221 143.143 99.9975 149.912 99.9975 154.376C99.9975 162.707 100.146 166.873 100.444 166.873L107.808 166.649C110.337 166.501 113.387 166.426 116.958 166.426C122.611 166.426 125.438 168.211 125.438 171.782C125.438 173.865 124.471 175.427 122.537 176.469C120.752 177.659 118.52 178.254 115.842 178.254H96.8733Z" fill="#A11275"/>
<path d="M162.521 171.781L162.298 163.078C162.149 160.549 162.075 157.722 162.075 154.598L162.298 147.01C161.851 145.374 160.736 129.083 158.95 98.1381C157.165 67.1931 156.124 47.3319 155.826 38.5542C147.197 38.2566 141.693 37.3638 139.312 35.8761C137.676 34.686 136.857 33.3471 136.857 31.8594C136.857 30.669 137.601 29.6276 139.089 28.735C140.726 27.6936 142.362 27.1729 143.999 27.1729C148.164 27.1729 153.222 27.4704 159.174 28.0655C164.827 28.8094 169.885 29.1813 174.348 29.1813H177.919C182.531 29.1813 184.837 30.9666 184.837 34.5372C184.837 36.3225 184.093 37.8102 182.605 39.0003C181.118 40.0419 179.407 40.5627 177.473 40.5627C176.134 40.5627 174.2 40.3395 171.671 39.8931L167.207 39.0003L166.761 41.232C166.761 54.4731 168.026 75.5988 170.555 104.61C172.935 131.836 174.125 152.961 174.125 167.988C174.125 169.773 173.307 171.335 171.671 172.674C170.183 174.013 168.472 174.682 166.538 174.682L162.521 171.781Z" fill="#A11275"/>
<path d="M269.969 178.476C264.465 178.476 261.713 172.823 261.713 161.516C261.713 154.375 258.588 128.86 252.34 84.9721C246.24 40.9348 242.372 16.9078 240.735 12.8909C242.669 9.32036 245.273 7.53506 248.546 7.53506C251.968 7.53506 255.167 15.2713 258.142 30.7438C260.969 47.1091 263.349 65.8546 265.283 86.9806L266.845 105.056C267.738 115.173 268.259 120.306 268.407 120.455L270.639 101.709L271.978 90.1048C273.912 73.1446 275.177 61.1683 275.772 54.1759C276.515 44.9518 276.887 38.629 276.887 35.2072V30.967C276.887 29.3305 277.483 27.7684 278.673 26.2806C279.863 24.7929 281.202 24.049 282.69 24.049C288.046 24.049 290.723 26.2806 290.723 30.7438V34.0912C290.723 42.5713 291.542 51.721 293.178 61.54C294.964 71.2105 297.493 82.8148 300.765 96.3532C302.847 104.238 304.932 113.834 307.014 125.141C307.461 120.231 308.874 108.329 311.253 89.4352C313.635 72.1774 315.345 57.5233 316.386 45.4726C317.577 33.2731 318.171 21.8918 318.171 11.3288C318.171 7.907 318.693 5.52662 319.734 4.18766C320.925 2.69992 323.082 1.95605 326.205 1.95605C327.99 1.95605 329.553 2.55115 330.891 3.74132C332.379 4.78274 333.123 6.19611 333.123 7.9814C333.123 9.6179 332.379 11.3288 330.891 13.1141C330.891 23.8258 330.075 36.3973 328.437 50.8285C326.802 65.1106 324.792 78.7234 322.413 91.6669C320.031 104.313 318.024 117.926 316.386 132.505C314.751 146.936 313.932 159.656 313.932 170.666C313.932 173.046 313.338 174.906 312.147 176.245C311.106 177.733 309.468 178.476 307.236 178.476C305.601 178.476 303.666 175.427 301.434 169.327C298.609 160.847 295.112 143.961 290.947 118.669L286.93 92.5594L284.921 78.0541C282.987 91.5925 281.5 102.527 280.458 110.859C279.566 119.041 278.673 128.786 277.78 140.093C276.739 150.953 276.218 161.665 276.218 172.228C276.218 173.716 275.549 175.129 274.21 176.468C273.019 177.807 271.606 178.476 269.969 178.476Z" fill="#A11275"/>
<path d="M368.415 178.254C366.48 178.254 364.695 177.584 363.06 176.245C361.572 174.907 360.753 173.27 360.603 171.336V161.071C360.456 159.731 360.381 158.169 360.381 156.384C360.381 153.26 360.159 148.499 359.712 142.102L359.265 127.819C359.265 120.529 359.487 109.669 359.934 95.238C360.531 82.2945 360.828 71.4342 360.828 62.6565C360.828 60.5736 360.603 57.4494 360.159 53.2836C359.712 48.9693 359.487 45.8448 359.487 43.911C359.487 33.348 362.613 28.0664 368.862 28.0664C373.77 28.0664 379.425 29.0335 385.821 30.9675C392.367 32.9016 395.64 35.2077 395.64 37.8855C395.64 39.3732 394.971 40.7865 393.633 42.1257C392.442 43.3158 390.954 44.2827 389.169 45.0267C382.92 42.795 377.268 41.3073 372.207 40.5636C372.357 42.795 372.432 45.9936 372.432 50.1594C372.432 56.1105 372.357 61.4661 372.207 66.2271C371.763 73.3683 371.538 78.7239 371.538 82.2945L372.207 85.8651L375.78 85.6419C376.968 85.4931 378.456 85.419 380.241 85.419C387.384 85.419 390.954 87.5016 390.954 91.6674C390.954 93.3039 390.285 94.7172 388.944 95.9073C387.606 96.9489 385.896 97.4697 383.814 97.4697C381.135 97.4697 379.053 97.3209 377.565 97.0233H371.985C372.282 100.891 372.432 106.545 372.432 113.983C372.432 121.422 372.357 128.117 372.207 134.068C371.763 143.143 371.538 149.912 371.538 154.376C371.538 162.707 371.688 166.873 371.985 166.873L379.35 166.649C381.879 166.501 384.93 166.426 388.5 166.426C394.152 166.426 396.978 168.211 396.978 171.782C396.978 173.865 396.012 175.427 394.077 176.469C392.292 177.659 390.06 178.254 387.384 178.254H368.415Z" fill="#A11275"/>
<path d="M455.934 178.924C450.579 177.139 443.958 176.246 436.074 176.246C433.692 177.734 431.163 178.478 428.484 178.478C426.699 178.478 425.139 177.66 423.798 176.023C422.607 174.536 422.013 172.899 422.013 171.114C422.013 158.617 422.535 141.954 423.576 121.126C424.467 98.9584 424.914 82.3699 424.914 71.3608V69.7987C424.023 60.4258 423.576 53.4334 423.576 48.8215C423.576 34.6879 426.18 27.6211 431.385 27.6211C432.873 27.6211 434.139 28.2162 435.18 29.4064C436.371 30.4477 436.965 31.7125 436.965 33.2002C436.965 34.9855 436.743 37.8121 436.296 41.6803C435.849 45.3997 435.627 48.2263 435.627 50.1604C435.627 60.1282 435.702 69.1291 435.849 77.1628C435.999 85.048 436.074 93.9745 436.074 103.942C435.33 106.174 434.958 109.298 434.958 113.315V115.993L434.511 133.623C434.214 138.83 434.064 144.781 434.064 151.475C434.064 161.741 436.518 166.874 441.429 166.874C441.726 166.874 442.173 166.874 442.767 166.874C443.511 166.725 444.477 166.65 445.668 166.65C447.006 166.502 448.719 166.427 450.801 166.427C458.835 166.427 462.852 168.659 462.852 173.122C462.852 174.61 462.183 175.874 460.842 176.916C459.504 177.957 457.869 178.627 455.934 178.924Z" fill="#A11275"/>
<path d="M515.647 178.924C510.292 177.139 503.671 176.246 495.787 176.246C493.405 177.734 490.876 178.478 488.2 178.478C486.415 178.478 484.852 177.66 483.514 176.023C482.323 174.536 481.726 172.899 481.726 171.114C481.726 158.617 482.248 141.954 483.289 121.126C484.183 98.9584 484.63 82.3699 484.63 71.3608V69.7987C483.736 60.4258 483.289 53.4334 483.289 48.8215C483.289 34.6879 485.893 27.6211 491.101 27.6211C492.589 27.6211 493.852 28.2162 494.893 29.4064C496.084 30.4477 496.678 31.7125 496.678 33.2002C496.678 34.9855 496.456 37.8121 496.009 41.6803C495.562 45.3997 495.34 48.2263 495.34 50.1604C495.34 60.1282 495.415 69.1291 495.562 77.1628C495.712 85.048 495.787 93.9745 495.787 103.942C495.043 106.174 494.671 109.298 494.671 113.315V115.993L494.224 133.623C493.927 138.83 493.777 144.781 493.777 151.475C493.777 161.741 496.234 166.874 501.142 166.874C501.439 166.874 501.886 166.874 502.48 166.874C503.224 166.725 504.193 166.65 505.381 166.65C506.722 166.502 508.432 166.427 510.514 166.427C518.548 166.427 522.565 168.659 522.565 173.122C522.565 174.61 521.896 175.874 520.558 176.916C519.22 177.957 517.582 178.627 515.647 178.924Z" fill="#A11275"/>
<path d="M594.244 180.262C588.889 180.262 584.275 179.295 580.408 177.361C578.029 176.022 576.838 174.46 576.838 172.674C576.838 170.889 577.285 169.476 578.176 168.434C579.07 167.244 580.333 166.649 581.971 166.649C583.459 166.649 585.616 167.244 588.442 168.434C591.565 169.624 593.5 170.219 594.244 170.219C597.07 170.219 599.599 169.029 601.831 166.649C604.213 164.12 606.073 160.847 607.411 156.83C610.09 149.391 611.428 142.696 611.428 136.745C611.428 130.348 610.387 123.653 608.302 116.661C606.37 109.52 603.691 102.602 600.271 95.9066L596.698 88.7657C592.981 81.3269 590.08 75.4502 587.995 71.1359C586.063 66.8213 584.35 62.135 582.862 57.0767C580.63 49.9355 579.517 43.0175 579.517 36.3227C579.517 30.9668 580.408 25.9086 582.193 21.1478C584.128 16.387 586.954 12.3701 590.674 9.09708C594.394 5.52651 599.005 3.74121 604.51 3.74121C607.189 3.74121 609.79 4.55949 612.319 6.19599C614.848 7.68375 616.636 9.61779 617.677 11.9982L613.882 16.6846C610.015 16.6846 607.114 15.9407 605.179 14.453C602.5 14.7505 600.121 16.0895 598.039 18.4699C596.104 20.7015 594.616 23.305 593.575 26.2805C592.681 29.1072 592.237 31.934 592.237 34.7606C592.237 40.4141 592.981 46.2161 594.466 52.1672C596.104 57.9692 598.186 63.4739 600.715 68.681L616.336 99.9236C618.865 105.28 620.875 111.305 622.363 118C623.851 124.695 624.595 131.389 624.595 138.084C624.595 147.903 622.213 157.127 617.452 165.756C614.923 170.219 611.65 173.716 607.633 176.245C603.616 178.923 599.155 180.262 594.244 180.262Z" fill="#A11275"/>
<path d="M676.287 179.594C672.417 179.594 668.847 178.329 665.574 175.8C662.301 173.419 659.625 170.146 657.54 165.981C653.226 156.905 650.547 147.012 649.506 136.3C648.168 126.184 647.499 116.439 647.499 107.066C647.499 105.281 647.574 103.793 647.721 102.603V98.5861C647.721 97.8421 647.646 97.4704 647.499 97.4704V93.4534L647.721 77.8321C647.871 73.0714 648.465 65.4838 649.506 55.0696C650.25 47.9284 651.963 41.0104 654.639 34.3156C655.68 31.3402 657.021 29.1085 658.656 27.6208C660.294 25.9843 662.154 25.166 664.236 25.166C670.188 25.166 675.543 26.2818 680.304 28.5134C685.065 30.5962 689.082 33.5719 692.355 37.4398C695.328 41.1592 697.86 45.7714 699.942 51.2758C702.024 56.6317 703.512 62.3596 704.406 68.4592C705.297 74.7079 705.744 81.3283 705.744 88.3207V90.106C705.744 94.7179 705.819 98.8837 705.966 102.603L706.191 115.323C706.191 158.17 696.222 179.594 676.287 179.594ZM675.393 170.221C678.072 170.221 680.526 169.179 682.758 167.096C684.99 164.865 686.7 161.889 687.891 158.17C690.717 150.583 692.427 142.4 693.024 133.622C693.768 126.035 694.14 119.489 694.14 113.984C694.14 107.289 693.618 98.5117 692.577 87.6511C691.683 76.1956 691.239 67.6411 691.239 61.9876V57.9706C690.942 52.3174 689.007 47.4079 685.437 43.2421C682.014 39.0763 677.775 36.9937 672.717 36.9937C667.656 36.9937 664.311 39.8947 662.673 45.697C661.185 50.3089 660.441 56.2597 660.441 63.5497C660.441 66.3766 660.516 68.7568 660.666 70.6909V76.7164L660.219 86.9818C659.922 90.106 659.772 93.5278 659.772 97.2472C659.772 105.281 659.997 113.24 660.441 121.125C661.038 132.283 662.526 143.144 664.905 153.707C667.284 164.716 670.782 170.221 675.393 170.221Z" fill="#A11275"/>
<path d="M756.701 179.594C752.834 179.594 749.264 178.329 745.991 175.8C742.718 173.419 740.039 170.146 737.957 165.981C733.643 156.905 730.964 147.012 729.923 136.3C728.582 126.184 727.913 116.439 727.913 107.066C727.913 105.281 727.988 103.793 728.138 102.603V98.5861C728.138 97.8421 728.063 97.4704 727.913 97.4704V93.4534L728.138 77.8321C728.285 73.0714 728.882 65.4838 729.923 55.0696C730.667 47.9284 732.377 41.0104 735.056 34.3156C736.097 31.3402 737.435 29.1085 739.073 27.6208C740.708 25.9843 742.568 25.166 744.65 25.166C750.602 25.166 755.957 26.2818 760.718 28.5134C765.479 30.5962 769.496 33.5719 772.769 37.4398C775.745 41.1592 778.274 45.7714 780.356 51.2758C782.441 56.6317 783.926 62.3596 784.82 68.4592C785.714 74.7079 786.158 81.3283 786.158 88.3207V90.106C786.158 94.7179 786.233 98.8837 786.383 102.603L786.605 115.323C786.605 158.17 776.636 179.594 756.701 179.594ZM755.81 170.221C758.486 170.221 760.943 169.179 763.172 167.096C765.404 164.865 767.117 161.889 768.305 158.17C771.134 150.583 772.844 142.4 773.438 133.622C774.182 126.035 774.554 119.489 774.554 113.984C774.554 107.289 774.035 98.5117 772.994 87.6511C772.1 76.1956 771.653 67.6411 771.653 61.9876V57.9706C771.356 52.3174 769.421 47.4079 765.851 43.2421C762.431 39.0763 758.189 36.9937 753.131 36.9937C748.073 36.9937 744.725 39.8947 743.09 45.697C741.602 50.3089 740.858 56.2597 740.858 63.5497C740.858 66.3766 740.933 68.7568 741.08 70.6909V76.7164L740.633 86.9818C740.336 90.106 740.189 93.5278 740.189 97.2472C740.189 105.281 740.411 113.24 740.858 121.125C741.452 132.283 742.94 143.144 745.322 153.707C747.701 164.716 751.196 170.221 755.81 170.221Z" fill="#A11275"/>
<path d="M871.932 176.022C870.147 176.022 868.809 175.575 867.915 174.683C867.024 173.641 866.352 171.93 865.908 169.55L864.567 165.31V164.194C864.567 159.285 859.434 142.548 849.171 113.983C839.052 85.4185 831.093 64.2925 825.291 50.6053V162.855L826.185 164.418C826.332 164.715 826.632 165.236 827.076 165.98C827.523 166.723 827.745 167.467 827.745 168.211C827.745 170.145 827.076 171.782 825.738 173.121C824.4 174.46 822.762 175.129 820.827 175.129C816.069 175.129 813.687 170.592 813.687 161.516L813.465 123.356C813.315 111.9 813.24 99.1058 813.24 84.9721C813.24 80.2114 813.465 73.2934 813.909 64.2181C814.356 54.8452 814.581 47.9272 814.581 43.4641C814.581 36.4717 817.257 30.967 822.615 26.9502V28.2892C823.506 27.9916 824.1 27.8428 824.4 27.8428C827.82 27.8428 832.134 33.7939 837.342 45.6958C841.509 55.2172 845.226 65.2594 848.499 75.8224C851.922 86.3854 856.386 101.412 861.891 120.901L864.123 128.935C867.543 140.985 870.147 149.614 871.932 154.821C874.908 122.835 876.396 85.0465 876.396 41.4556V38.5546C876.246 37.6618 876.171 36.6949 876.171 35.6533C876.171 31.1902 877.959 28.9586 881.529 28.9586C883.611 28.9586 885.174 29.7769 886.215 31.4134C887.406 33.0499 888 35.1328 888 37.6618V54.3991C887.703 77.3101 886.809 102.156 885.321 128.935C883.833 155.714 882.048 170.815 879.966 174.237C875.652 175.427 872.973 176.022 871.932 176.022Z" fill="#A11275"/>
</g>
<defs>
<clipPath id="clip0_1105_1800">
<rect width="888" height="183" fill="white"/>
</clipPath>
</defs>
</svg>
