<svg width="296" height="61" viewBox="0 0 296 61" fill="none" xmlns="http://www.w3.org/2000/svg">
<path d="M13.0921 60.3849C10.3646 60.3849 8.10819 59.5666 6.3229 57.9301C4.88475 56.7399 3.57058 54.7067 2.38039 51.8304C1.63651 49.9459 1.04142 47.2928 0.595096 43.871C0.247957 41.0939 0.0743869 38.4655 0.0743869 35.9859C0.0247956 35.3413 0 34.2255 0 32.6385V27.1339C0 25.0015 0.074387 22.4475 0.223161 19.472C0.421527 16.9429 0.818257 14.3641 1.41335 11.7358C2.05804 9.15702 3.00028 6.975 4.24006 5.18971C5.47985 3.30524 7.14116 1.96627 9.22399 1.17281C10.4638 0.825669 11.6292 0.6521 12.7202 0.6521C14.803 0.6521 15.8444 1.34638 15.8444 2.73494C15.8444 3.28044 15.6461 3.72676 15.2493 4.0739C14.9022 4.37145 14.4311 4.52023 13.836 4.52023C13.6376 4.52023 13.2905 4.44584 12.7946 4.29706L11.7532 4.14829C10.8109 4.14829 9.96786 4.44584 9.22399 5.04093C8.48012 5.58644 7.86023 6.4047 7.36432 7.4957C6.22372 9.87609 5.45505 12.4796 5.05832 15.3063C4.51281 18.7777 4.21527 21.8028 4.16567 24.3816C4.06649 26.6132 4.0169 28.9688 4.0169 31.4483V33.4568C3.96731 34.1511 3.94251 35.0189 3.94251 36.0603C3.94251 38.5895 4.06649 41.0691 4.31445 43.499C4.51281 46.3753 5.05832 48.8549 5.95096 50.9377C6.74443 53.2685 8.0338 54.9051 9.81909 55.8473C10.6621 56.3432 11.7036 56.5912 12.9433 56.5912C15.1254 56.5912 16.9602 55.5497 18.448 53.4669C18.3984 51.7312 18.2744 50.0451 18.0761 48.4086C17.8777 46.7225 17.5801 45.5819 17.1834 44.9868C17.1338 44.9868 17.0098 45.0116 16.8115 45.0612C16.6627 45.0612 16.4147 45.086 16.0676 45.1356L14.2823 45.2843C12.5962 45.2843 11.7532 44.5653 11.7532 43.1271C11.7532 42.6808 12.0011 42.284 12.497 41.9369C12.9929 41.5898 13.6624 41.3418 14.5055 41.193C15.894 40.8459 17.1338 40.6723 18.2248 40.6723C19.2167 40.6723 19.9853 41.0443 20.5308 41.7881C21.0763 42.532 21.3491 43.4742 21.3491 44.6148C21.3491 46.2514 21.597 48.483 22.093 51.3097C22.5889 54.0868 22.8368 56.2936 22.8368 57.9301C22.8368 58.4756 22.6633 58.9467 22.3161 59.3435C21.969 59.7402 21.5474 59.9386 21.0515 59.9386C19.8118 59.9386 18.9687 59.4179 18.5224 58.3764V58.3021L16.8859 59.1203C15.3981 59.9634 14.1335 60.3849 13.0921 60.3849Z" fill="#A11275"/>
<path d="M32.291 59.4179C31.6463 59.4179 31.0512 59.1947 30.5057 58.7484C30.0097 58.3021 29.737 57.7566 29.6874 57.1119V53.6901C29.6378 53.2437 29.613 52.723 29.613 52.1279C29.613 51.0865 29.5386 49.4996 29.3899 47.3672L29.2411 42.6064C29.2411 40.1764 29.3155 36.5562 29.4642 31.7459C29.6626 27.4314 29.7618 23.8113 29.7618 20.8854C29.7618 20.1911 29.6874 19.1497 29.5386 17.7611C29.3899 16.323 29.3155 15.2815 29.3155 14.6369C29.3155 11.1159 30.3569 9.35538 32.4397 9.35538C34.0762 9.35538 35.9607 9.67773 38.0931 10.3224C40.2752 10.9671 41.3662 11.7358 41.3662 12.6284C41.3662 13.1243 41.143 13.5954 40.6967 14.0418C40.3 14.4385 39.804 14.7608 39.2089 15.0088C37.1261 14.2649 35.2416 13.769 33.5555 13.5211C33.6051 14.2649 33.6299 15.3311 33.6299 16.7197C33.6299 18.7034 33.6051 20.4886 33.5555 22.0756C33.4068 24.456 33.3324 26.2412 33.3324 27.4314L33.5555 28.6216L34.7457 28.5472C35.1425 28.4976 35.6384 28.4729 36.2335 28.4729C38.6139 28.4729 39.804 29.1671 39.804 30.5557C39.804 31.1012 39.5809 31.5723 39.1346 31.969C38.6882 32.3162 38.1179 32.4898 37.4237 32.4898C36.531 32.4898 35.8367 32.4402 35.3408 32.341H33.4811C33.5803 33.6304 33.6299 35.5148 33.6299 37.9944C33.6299 40.474 33.6051 42.7056 33.5555 44.6892C33.4068 47.7143 33.3324 49.9707 33.3324 51.4585C33.3324 54.2356 33.382 55.6241 33.4811 55.6241L35.9359 55.5497C36.779 55.5001 37.7956 55.4753 38.9858 55.4753C40.8703 55.4753 41.8125 56.0704 41.8125 57.2606C41.8125 57.9549 41.4902 58.4756 40.8455 58.8228C40.2504 59.2195 39.5065 59.4179 38.6138 59.4179H32.291Z" fill="#A11275"/>
<path d="M54.1741 57.2606L54.0997 54.3595C54.0501 53.5165 54.0253 52.5743 54.0253 51.5328L54.0997 49.0037C53.9509 48.4582 53.579 43.0279 52.9839 32.7129C52.3888 22.3979 52.0417 15.7775 51.9425 12.8516C49.0662 12.7524 47.2313 12.4548 46.4379 11.9589C45.8923 11.5622 45.6196 11.1159 45.6196 10.62C45.6196 10.2232 45.8676 9.87609 46.3635 9.57854C46.909 9.2314 47.4545 9.05783 48 9.05783C49.3885 9.05783 51.0746 9.15702 53.0583 9.35538C54.9428 9.60334 56.6289 9.72732 58.1166 9.72732H59.3068C60.8441 9.72732 61.6128 10.3224 61.6128 11.5126C61.6128 12.1077 61.3649 12.6036 60.8689 13.0003C60.373 13.3475 59.8027 13.5211 59.158 13.5211C58.7117 13.5211 58.067 13.4467 57.224 13.2979L55.7362 13.0003L55.5875 13.7442C55.5875 18.1579 56.009 25.1998 56.852 34.8701C57.6455 43.9454 58.0422 50.9873 58.0422 55.9961C58.0422 56.5912 57.7695 57.1119 57.224 57.5582C56.7281 58.0045 56.1578 58.2277 55.5131 58.2277L54.1741 57.2606Z" fill="#A11275"/>
<path d="M89.9897 59.4922C88.1548 59.4922 87.2374 57.6078 87.2374 53.8388C87.2374 51.4585 86.196 42.9535 84.1131 28.3241C82.0799 13.645 80.7905 5.63603 80.245 4.29706C80.8897 3.10687 81.7576 2.51177 82.8486 2.51177C83.9892 2.51177 85.0554 5.09053 86.0472 10.248C86.9895 15.7031 87.7829 21.9516 88.4276 28.9936L88.9483 35.0189C89.2459 38.3911 89.4194 40.102 89.469 40.1516L90.2129 33.9031L90.6592 30.035C91.3039 24.3816 91.7254 20.3895 91.9238 18.0587C92.1717 14.984 92.2957 12.8764 92.2957 11.7358V10.3224C92.2957 9.77691 92.4941 9.2562 92.8908 8.76029C93.2876 8.26437 93.7339 8.01642 94.2298 8.01642C96.0151 8.01642 96.9077 8.76029 96.9077 10.248V11.3638C96.9077 14.1905 97.1805 17.2404 97.726 20.5134C98.3211 23.7369 99.1641 27.605 100.255 32.1178C100.949 34.7462 101.644 37.9448 102.338 41.7137C102.487 40.0772 102.958 36.1099 103.751 29.8118C104.545 24.0592 105.115 19.1745 105.462 15.1576C105.859 11.0911 106.057 7.29734 106.057 3.77636C106.057 2.63575 106.231 1.84229 106.578 1.39597C106.975 0.900056 107.694 0.6521 108.735 0.6521C109.33 0.6521 109.851 0.850464 110.297 1.24719C110.793 1.59433 111.041 2.06545 111.041 2.66055C111.041 3.20605 110.793 3.77635 110.297 4.37145C110.297 7.94203 110.025 12.1325 109.479 16.9429C108.934 21.7036 108.264 26.2412 107.471 30.5557C106.677 34.771 106.008 39.3086 105.462 44.1685C104.917 48.9789 104.644 53.2189 104.644 56.8887C104.644 57.6822 104.446 58.3021 104.049 58.7484C103.702 59.2443 103.156 59.4922 102.412 59.4922C101.867 59.4922 101.222 58.4756 100.478 56.4424C99.5361 53.6157 98.3707 47.9871 96.9821 39.5565L95.6431 30.8532L94.9737 26.0181C94.329 30.5309 93.8331 34.1759 93.4859 36.953C93.1884 39.6805 92.8908 42.9287 92.5933 46.6977C92.2461 50.3179 92.0726 53.8884 92.0726 57.4094C92.0726 57.9053 91.8494 58.3765 91.4031 58.8228C91.0063 59.2691 90.5352 59.4922 89.9897 59.4922Z" fill="#A11275"/>
<path d="M122.805 59.4179C122.16 59.4179 121.565 59.1947 121.02 58.7484C120.524 58.3021 120.251 57.7566 120.201 57.1119V53.6901C120.152 53.2437 120.127 52.723 120.127 52.1279C120.127 51.0865 120.053 49.4996 119.904 47.3672L119.755 42.6064C119.755 40.1764 119.829 36.5562 119.978 31.7459C120.177 27.4314 120.276 23.8113 120.276 20.8854C120.276 20.1911 120.201 19.1497 120.053 17.7611C119.904 16.323 119.829 15.2815 119.829 14.6369C119.829 11.1159 120.871 9.35538 122.954 9.35538C124.59 9.35538 126.475 9.67773 128.607 10.3224C130.789 10.9671 131.88 11.7358 131.88 12.6284C131.88 13.1243 131.657 13.5954 131.211 14.0418C130.814 14.4385 130.318 14.7608 129.723 15.0088C127.64 14.2649 125.756 13.769 124.069 13.5211C124.119 14.2649 124.144 15.3311 124.144 16.7197C124.144 18.7034 124.119 20.4886 124.069 22.0756C123.921 24.456 123.846 26.2412 123.846 27.4314L124.069 28.6216L125.26 28.5472C125.656 28.4976 126.152 28.4729 126.747 28.4729C129.128 28.4729 130.318 29.1671 130.318 30.5557C130.318 31.1012 130.095 31.5723 129.648 31.969C129.202 32.3162 128.632 32.4898 127.938 32.4898C127.045 32.4898 126.351 32.4402 125.855 32.341H123.995C124.094 33.6304 124.144 35.5148 124.144 37.9944C124.144 40.474 124.119 42.7056 124.069 44.6892C123.921 47.7143 123.846 49.9707 123.846 51.4585C123.846 54.2356 123.896 55.6241 123.995 55.6241L126.45 55.5497C127.293 55.5001 128.31 55.4753 129.5 55.4753C131.384 55.4753 132.326 56.0704 132.326 57.2606C132.326 57.9549 132.004 58.4756 131.359 58.8228C130.764 59.2195 130.02 59.4179 129.128 59.4179H122.805Z" fill="#A11275"/>
<path d="M151.978 59.641C150.193 59.0459 147.986 58.7484 145.358 58.7484C144.564 59.2443 143.721 59.4922 142.828 59.4922C142.233 59.4922 141.713 59.2195 141.266 58.674C140.869 58.1781 140.671 57.6326 140.671 57.0375C140.671 52.8718 140.845 47.3176 141.192 40.3748C141.489 32.9857 141.638 27.4562 141.638 23.7865V23.2658C141.341 20.1415 141.192 17.8107 141.192 16.2734C141.192 11.5622 142.06 9.20661 143.795 9.20661C144.291 9.20661 144.713 9.40497 145.06 9.8017C145.457 10.1488 145.655 10.5704 145.655 11.0663C145.655 11.6614 145.581 12.6036 145.432 13.893C145.283 15.1328 145.209 16.075 145.209 16.7197C145.209 20.0423 145.234 23.0426 145.283 25.7205C145.333 28.3489 145.358 31.3244 145.358 34.647C145.11 35.3908 144.986 36.4323 144.986 37.7712V38.6639L144.837 44.5405C144.738 46.2762 144.688 48.2598 144.688 50.4914C144.688 53.9132 145.506 55.6241 147.143 55.6241C147.242 55.6241 147.391 55.6241 147.589 55.6241C147.837 55.5745 148.159 55.5497 148.556 55.5497C149.002 55.5001 149.573 55.4753 150.267 55.4753C152.945 55.4753 154.284 56.2192 154.284 57.707C154.284 58.2029 154.061 58.6244 153.614 58.9715C153.168 59.3187 152.623 59.5418 151.978 59.641Z" fill="#A11275"/>
<path d="M171.882 59.641C170.097 59.0459 167.89 58.7484 165.262 58.7484C164.468 59.2443 163.625 59.4922 162.733 59.4922C162.138 59.4922 161.617 59.2195 161.171 58.674C160.774 58.1781 160.575 57.6326 160.575 57.0375C160.575 52.8718 160.749 47.3176 161.096 40.3748C161.394 32.9857 161.543 27.4562 161.543 23.7865V23.2658C161.245 20.1415 161.096 17.8107 161.096 16.2734C161.096 11.5622 161.964 9.20661 163.7 9.20661C164.196 9.20661 164.617 9.40497 164.964 9.8017C165.361 10.1488 165.559 10.5704 165.559 11.0663C165.559 11.6614 165.485 12.6036 165.336 13.893C165.187 15.1328 165.113 16.075 165.113 16.7197C165.113 20.0423 165.138 23.0426 165.187 25.7205C165.237 28.3489 165.262 31.3244 165.262 34.647C165.014 35.3908 164.89 36.4323 164.89 37.7712V38.6639L164.741 44.5405C164.642 46.2762 164.592 48.2598 164.592 50.4914C164.592 53.9132 165.411 55.6241 167.047 55.6241C167.146 55.6241 167.295 55.6241 167.493 55.6241C167.741 55.5745 168.064 55.5497 168.46 55.5497C168.907 55.5001 169.477 55.4753 170.171 55.4753C172.849 55.4753 174.188 56.2192 174.188 57.707C174.188 58.2029 173.965 58.6244 173.519 58.9715C173.073 59.3187 172.527 59.5418 171.882 59.641Z" fill="#A11275"/>
<path d="M198.081 60.0873C196.296 60.0873 194.758 59.765 193.469 59.1203C192.676 58.674 192.279 58.1533 192.279 57.5582C192.279 56.9631 192.428 56.492 192.725 56.1448C193.023 55.7481 193.444 55.5497 193.99 55.5497C194.486 55.5497 195.205 55.7481 196.147 56.1448C197.188 56.5416 197.833 56.7399 198.081 56.7399C199.023 56.7399 199.866 56.3432 200.61 55.5497C201.404 54.7067 202.024 53.6157 202.47 52.2767C203.363 49.7971 203.809 47.5655 203.809 45.5819C203.809 43.4494 203.462 41.2178 202.767 38.887C202.123 36.5067 201.23 34.2007 200.09 31.969L198.899 29.5887C197.66 27.1091 196.693 25.1502 195.998 23.7121C195.354 22.2739 194.783 20.7118 194.287 19.0257C193.543 16.6453 193.172 14.3393 193.172 12.1077C193.172 10.3224 193.469 8.63631 194.064 7.04938C194.709 5.46246 195.651 4.12349 196.891 3.03248C198.131 1.84229 199.668 1.24719 201.503 1.24719C202.396 1.24719 203.263 1.51995 204.106 2.06545C204.949 2.56137 205.545 3.20605 205.892 3.99951L204.627 5.56164C203.338 5.56164 202.371 5.31369 201.726 4.81777C200.833 4.91696 200.04 5.36328 199.346 6.15674C198.701 6.90061 198.205 7.76846 197.858 8.76029C197.56 9.70252 197.412 10.6448 197.412 11.587C197.412 13.4715 197.66 15.4055 198.155 17.3892C198.701 19.3232 199.395 21.1581 200.238 22.8938L205.445 33.308C206.288 35.0933 206.958 37.1018 207.454 39.3334C207.95 41.565 208.198 43.7966 208.198 46.0282C208.198 49.3012 207.404 52.3759 205.817 55.2522C204.974 56.7399 203.883 57.9053 202.544 58.7484C201.205 59.641 199.718 60.0873 198.081 60.0873Z" fill="#A11275"/>
<path d="M225.429 59.8642C224.139 59.8642 222.949 59.4427 221.858 58.5996C220.767 57.8061 219.875 56.7151 219.18 55.3266C217.742 52.3015 216.849 49.0037 216.502 45.4331C216.056 42.0609 215.833 38.8127 215.833 35.6884C215.833 35.0933 215.858 34.5974 215.907 34.2007V32.8617C215.907 32.6137 215.882 32.4898 215.833 32.4898V31.1508L215.907 25.9437C215.957 24.3568 216.155 21.8276 216.502 18.3562C216.75 15.9758 217.321 13.6698 218.213 11.4382C218.56 10.4464 219.007 9.70252 219.552 9.20661C220.098 8.6611 220.718 8.38835 221.412 8.38835C223.396 8.38835 225.181 8.76029 226.768 9.50416C228.355 10.1984 229.694 11.1903 230.785 12.4796C231.776 13.7194 232.62 15.2568 233.314 17.0916C234.008 18.8769 234.504 20.7862 234.802 22.8194C235.099 24.9023 235.248 27.1091 235.248 29.4399V30.035C235.248 31.5723 235.273 32.9609 235.322 34.2007L235.397 38.4407C235.397 52.723 232.074 59.8642 225.429 59.8642ZM225.131 56.7399C226.024 56.7399 226.842 56.3928 227.586 55.6985C228.33 54.9546 228.9 53.9628 229.297 52.723C230.239 50.1939 230.809 47.4663 231.008 44.5405C231.256 42.0113 231.38 39.8293 231.38 37.9944C231.38 35.7628 231.206 32.8369 230.859 29.2167C230.561 25.3982 230.413 22.5467 230.413 20.6622V19.3232C230.314 17.4388 229.669 15.8023 228.479 14.4137C227.338 13.0251 225.925 12.3309 224.239 12.3309C222.552 12.3309 221.437 13.2979 220.891 15.232C220.395 16.7693 220.147 18.7529 220.147 21.1829C220.147 22.1252 220.172 22.9186 220.222 23.5633V25.5718L220.073 28.9936C219.974 30.035 219.924 31.1756 219.924 32.4154C219.924 35.0933 219.999 37.7464 220.147 40.3748C220.346 44.0941 220.842 47.7143 221.635 51.2353C222.428 54.9051 223.594 56.7399 225.131 56.7399Z" fill="#A11275"/>
<path d="M252.234 59.8642C250.945 59.8642 249.755 59.4427 248.664 58.5996C247.573 57.8061 246.68 56.7151 245.986 55.3266C244.548 52.3015 243.655 49.0037 243.308 45.4331C242.861 42.0609 242.638 38.8127 242.638 35.6884C242.638 35.0933 242.663 34.5974 242.713 34.2007V32.8617C242.713 32.6137 242.688 32.4898 242.638 32.4898V31.1508L242.713 25.9437C242.762 24.3568 242.961 21.8276 243.308 18.3562C243.556 15.9758 244.126 13.6698 245.019 11.4382C245.366 10.4464 245.812 9.70252 246.358 9.20661C246.903 8.6611 247.523 8.38835 248.217 8.38835C250.201 8.38835 251.986 8.76029 253.573 9.50416C255.16 10.1984 256.499 11.1903 257.59 12.4796C258.582 13.7194 259.425 15.2568 260.119 17.0916C260.814 18.8769 261.309 20.7862 261.607 22.8194C261.905 24.9023 262.053 27.1091 262.053 29.4399V30.035C262.053 31.5723 262.078 32.9609 262.128 34.2007L262.202 38.4407C262.202 52.723 258.879 59.8642 252.234 59.8642ZM251.937 56.7399C252.829 56.7399 253.648 56.3928 254.391 55.6985C255.135 54.9546 255.706 53.9628 256.102 52.723C257.045 50.1939 257.615 47.4663 257.813 44.5405C258.061 42.0113 258.185 39.8293 258.185 37.9944C258.185 35.7628 258.012 32.8369 257.665 29.2167C257.367 25.3982 257.218 22.5467 257.218 20.6622V19.3232C257.119 17.4388 256.474 15.8023 255.284 14.4137C254.144 13.0251 252.73 12.3309 251.044 12.3309C249.358 12.3309 248.242 13.2979 247.697 15.232C247.201 16.7693 246.953 18.7529 246.953 21.1829C246.953 22.1252 246.978 22.9186 247.027 23.5633V25.5718L246.878 28.9936C246.779 30.035 246.73 31.1756 246.73 32.4154C246.73 35.0933 246.804 37.7464 246.953 40.3748C247.151 44.0941 247.647 47.7143 248.441 51.2353C249.234 54.9051 250.399 56.7399 251.937 56.7399Z" fill="#A11275"/>
<path d="M290.644 58.674C290.049 58.674 289.603 58.5252 289.305 58.2277C289.008 57.8805 288.784 57.3102 288.636 56.5168L288.189 55.1034V54.7315C288.189 53.095 286.478 47.5159 283.057 37.9944C279.684 28.4729 277.031 21.4309 275.097 16.8685V54.2852L275.395 54.8059C275.444 54.9051 275.544 55.0786 275.692 55.3266C275.841 55.5745 275.915 55.8225 275.915 56.0704C275.915 56.7151 275.692 57.2606 275.246 57.707C274.8 58.1533 274.254 58.3764 273.609 58.3764C272.023 58.3764 271.229 56.8639 271.229 53.8388L271.155 41.1187C271.105 37.3001 271.08 33.0353 271.08 28.3241C271.08 26.7372 271.155 24.4312 271.303 21.4061C271.452 18.2818 271.527 15.9758 271.527 14.4881C271.527 12.1573 272.419 10.3224 274.205 8.98345V9.42977C274.502 9.33059 274.7 9.281 274.8 9.281C275.94 9.281 277.378 11.2647 279.114 15.232C280.503 18.4058 281.742 21.7532 282.833 25.2742C283.974 28.7952 285.462 33.8039 287.297 40.3004L288.041 42.9783C289.181 46.9952 290.049 49.8715 290.644 51.6072C291.636 40.9451 292.132 28.3489 292.132 13.8186V12.8516C292.082 12.554 292.057 12.2317 292.057 11.8845C292.057 10.3968 292.653 9.65293 293.843 9.65293C294.537 9.65293 295.058 9.92568 295.405 10.4712C295.802 11.0167 296 11.711 296 12.554V18.1331C295.901 25.7701 295.603 34.0519 295.107 42.9783C294.611 51.9048 294.016 56.9383 293.322 58.0789C291.884 58.4756 290.991 58.674 290.644 58.674Z" fill="#A11275"/>
</svg>
