<svg width="13" height="80" viewBox="0 0 13 80" fill="none" xmlns="http://www.w3.org/2000/svg">
<rect width="13" height="79.3" rx="1.08333" fill="#BABFFC"/>
<path d="M6.6016 6.12051C6.6016 6.12051 7.11979 4.36719 8.63618 4.36719C10.1526 4.36719 10.6501 6.19989 10.271 7.42303C9.6076 9.32745 6.6016 11.0962 6.6016 11.0962V6.12051Z" fill="white" fill-opacity="0.4"/>
<path d="M6.60938 6.12051C6.60938 6.12051 6.09119 4.36719 4.5748 4.36719C3.05841 4.36719 2.56086 6.19989 2.93994 7.42303C3.60338 9.32745 6.60938 11.0962 6.60938 11.0962V6.12051Z" fill="white" fill-opacity="0.4"/>
<path d="M6.6016 16.7533C6.6016 16.7533 7.11979 15 8.63618 15C10.1526 15 10.6501 16.8327 10.271 18.0558C9.6076 19.9603 6.6016 21.729 6.6016 21.729V16.7533Z" fill="white" fill-opacity="0.4"/>
<path d="M6.60938 16.7533C6.60938 16.7533 6.09119 15 4.5748 15C3.05841 15 2.56086 16.8327 2.93994 18.0558C3.60338 19.9603 6.60938 21.729 6.60938 21.729V16.7533Z" fill="white" fill-opacity="0.4"/>
<path d="M6.6016 27.3783C6.6016 27.3783 7.11979 25.625 8.63618 25.625C10.1526 25.625 10.6501 27.4577 10.271 28.6808C9.6076 30.5853 6.6016 32.354 6.6016 32.354V27.3783Z" fill="white" fill-opacity="0.4"/>
<path d="M6.60938 27.3783C6.60938 27.3783 6.09119 25.625 4.5748 25.625C3.05841 25.625 2.56086 27.4577 2.93994 28.6808C3.60338 30.5853 6.60938 32.354 6.60938 32.354V27.3783Z" fill="white" fill-opacity="0.4"/>
<path d="M6.6016 38.0111C6.6016 38.0111 7.11979 36.2578 8.63618 36.2578C10.1526 36.2578 10.6501 38.0905 10.271 39.3137C9.6076 41.2181 6.6016 42.9868 6.6016 42.9868V38.0111Z" fill="white" fill-opacity="0.4"/>
<path d="M6.60938 38.0111C6.60938 38.0111 6.09119 36.2578 4.5748 36.2578C3.05841 36.2578 2.56086 38.0905 2.93994 39.3137C3.60338 41.2181 6.60938 42.9868 6.60938 42.9868V38.0111Z" fill="white" fill-opacity="0.4"/>
<path d="M6.6016 48.6361C6.6016 48.6361 7.11979 46.8828 8.63618 46.8828C10.1526 46.8828 10.6501 48.7155 10.271 49.9387C9.6076 51.8431 6.6016 53.6118 6.6016 53.6118V48.6361Z" fill="white" fill-opacity="0.4"/>
<path d="M6.60938 48.6361C6.60938 48.6361 6.09119 46.8828 4.5748 46.8828C3.05841 46.8828 2.56086 48.7155 2.93994 49.9387C3.60338 51.8431 6.60938 53.6118 6.60938 53.6118V48.6361Z" fill="white" fill-opacity="0.4"/>
<path d="M6.6016 59.269C6.6016 59.269 7.11979 57.5156 8.63618 57.5156C10.1526 57.5156 10.6501 59.3483 10.271 60.5715C9.6076 62.4759 6.6016 64.2446 6.6016 64.2446V59.269Z" fill="white" fill-opacity="0.4"/>
<path d="M6.60938 59.269C6.60938 59.269 6.09119 57.5156 4.5748 57.5156C3.05841 57.5156 2.56086 59.3483 2.93994 60.5715C3.60338 62.4759 6.60938 64.2446 6.60938 64.2446V59.269Z" fill="white" fill-opacity="0.4"/>
<path d="M6.6016 69.894C6.6016 69.894 7.11979 68.1406 8.63618 68.1406C10.1526 68.1406 10.6501 69.9733 10.271 71.1965C9.6076 73.1009 6.6016 74.8696 6.6016 74.8696V69.894Z" fill="white" fill-opacity="0.4"/>
<path d="M6.60938 69.894C6.60938 69.894 6.09119 68.1406 4.5748 68.1406C3.05841 68.1406 2.56086 69.9733 2.93994 71.1965C3.60338 73.1009 6.60938 74.8696 6.60938 74.8696V69.894Z" fill="white" fill-opacity="0.4"/>
</svg>
