<svg width="52" height="318" viewBox="0 0 52 318" fill="none" xmlns="http://www.w3.org/2000/svg">
<rect width="52" height="317.2" rx="4.33333" fill="#BABFFC"/>
<path d="M26.4064 24.4821C26.4064 24.4821 28.4791 17.4688 34.5447 17.4688C40.6103 17.4688 42.6005 24.7996 41.0841 29.6921C38.4304 37.3098 26.4064 44.3847 26.4064 44.3847V24.4821Z" fill="white" fill-opacity="0.4"/>
<path d="M26.4375 24.4821C26.4375 24.4821 24.3648 17.4688 18.2992 17.4688C12.2336 17.4688 10.2434 24.7996 11.7598 29.6921C14.4135 37.3098 26.4375 44.3847 26.4375 44.3847V24.4821Z" fill="white" fill-opacity="0.4"/>
<path d="M26.4062 66.9982C26.4062 66.9982 28.4789 59.9849 34.5445 59.9849C40.61 59.9849 42.6002 67.3157 41.0839 72.2082C38.4301 79.8259 26.4062 86.9008 26.4062 86.9008V66.9982Z" fill="white" fill-opacity="0.4"/>
<path d="M26.4373 66.9982C26.4373 66.9982 24.3645 59.9849 18.299 59.9849C12.2334 59.9849 10.2432 67.3157 11.7595 72.2082C14.4133 79.8259 26.4373 86.9008 26.4373 86.9008V66.9982Z" fill="white" fill-opacity="0.4"/>
<path d="M26.4062 109.514C26.4062 109.514 28.4789 102.5 34.5445 102.5C40.61 102.5 42.6002 109.831 41.0839 114.724C38.4301 122.342 26.4062 129.416 26.4062 129.416V109.514Z" fill="white" fill-opacity="0.4"/>
<path d="M26.4373 109.514C26.4373 109.514 24.3645 102.5 18.299 102.5C12.2334 102.5 10.2432 109.831 11.7595 114.724C14.4133 122.342 26.4373 129.416 26.4373 129.416V109.514Z" fill="white" fill-opacity="0.4"/>
<path d="M26.4062 152.03C26.4062 152.03 28.4789 145.017 34.5445 145.017C40.61 145.017 42.6002 152.347 41.0839 157.24C38.4301 164.858 26.4062 171.933 26.4062 171.933V152.03Z" fill="white" fill-opacity="0.4"/>
<path d="M26.4373 152.03C26.4373 152.03 24.3645 145.017 18.299 145.017C12.2334 145.017 10.2432 152.347 11.7595 157.24C14.4133 164.858 26.4373 171.933 26.4373 171.933V152.03Z" fill="white" fill-opacity="0.4"/>
<path d="M26.4062 194.546C26.4062 194.546 28.4789 187.533 34.5445 187.533C40.61 187.533 42.6002 194.864 41.0839 199.756C38.4301 207.374 26.4062 214.449 26.4062 214.449V194.546Z" fill="white" fill-opacity="0.4"/>
<path d="M26.4373 194.546C26.4373 194.546 24.3645 187.533 18.299 187.533C12.2334 187.533 10.2432 194.864 11.7595 199.756C14.4133 207.374 26.4373 214.449 26.4373 214.449V194.546Z" fill="white" fill-opacity="0.4"/>
<path d="M26.4062 237.062C26.4062 237.062 28.4789 230.048 34.5445 230.048C40.61 230.048 42.6002 237.379 41.0839 242.272C38.4301 249.889 26.4062 256.964 26.4062 256.964V237.062Z" fill="white" fill-opacity="0.4"/>
<path d="M26.4373 237.062C26.4373 237.062 24.3645 230.048 18.299 230.048C12.2334 230.048 10.2432 237.379 11.7595 242.272C14.4133 249.889 26.4373 256.964 26.4373 256.964V237.062Z" fill="white" fill-opacity="0.4"/>
<path d="M26.4064 279.578C26.4064 279.578 28.4791 272.564 34.5447 272.564C40.6103 272.564 42.6005 279.895 41.0841 284.788C38.4304 292.405 26.4064 299.48 26.4064 299.48V279.578Z" fill="white" fill-opacity="0.4"/>
<path d="M26.4375 279.578C26.4375 279.578 24.3648 272.564 18.2992 272.564C12.2336 272.564 10.2434 279.895 11.7598 284.788C14.4135 292.405 26.4375 299.48 26.4375 299.48V279.578Z" fill="white" fill-opacity="0.4"/>
</svg>
