<svg width="888" height="414" viewBox="0 0 888 414" fill="none" xmlns="http://www.w3.org/2000/svg">
<path d="M23.3846 404.669C18.5877 404.669 14.3905 403.082 10.7929 399.905C7.43508 396.728 5.75619 392.318 5.75619 386.672C11.0327 378.911 13.671 358.268 13.671 324.743C13.671 304.631 12.5917 275.343 10.4331 236.88C8.03469 200.182 6.83547 171.247 6.83547 150.075L7.55502 120.963C7.79484 112.494 7.91478 102.79 7.91478 91.8515C7.91478 81.9713 6.71556 69.4445 4.31715 54.2711C1.43905 38.3921 0 27.2766 0 20.925C0 8.57459 9.23391 2.39941 27.7017 2.39941H33.0981C46.0497 2.39941 57.3222 8.22173 66.9159 19.8664C74.5908 29.7467 81.0663 44.0378 86.343 62.7398C89.9406 75.443 93.0585 93.0866 95.6967 115.67C97.1358 135.431 97.8552 150.957 97.8552 162.249V204.063C97.3755 205.475 97.1358 206.886 97.1358 208.298C97.1358 211.121 97.2558 213.238 97.4955 214.65C97.7355 216.061 97.8552 217.825 97.8552 219.943C97.8552 231.234 96.6561 244.82 94.2576 260.699C92.0991 276.225 88.8612 292.104 84.5442 308.336C73.7514 347.15 61.6392 374.675 48.2082 390.908C40.2933 400.082 32.0187 404.669 23.3846 404.669ZM30.9396 373.97C39.8136 365.852 47.6085 354.209 54.324 339.035C61.0398 323.51 66.1962 306.395 69.7938 287.693C76.2696 253.112 79.5075 218.178 79.5075 182.892C79.5075 163.836 78.3084 143.017 75.9099 120.434C73.2717 98.5559 67.6353 78.7955 59.001 61.1519C54.9237 52.6832 49.767 46.1552 43.5312 41.5679C37.2954 36.6278 30.2199 34.1576 22.3053 34.1576V34.6868C22.3053 66.4451 23.7443 114.435 26.6224 178.657C29.5005 242.526 30.9396 290.869 30.9396 323.687V373.97Z" fill="#A11275"/>
<path d="M158.264 410.494C155.146 410.494 152.268 408.904 149.63 405.73C147.231 402.553 145.912 398.671 145.672 394.084V369.736C145.432 366.562 145.312 362.857 145.312 358.621C145.312 351.211 144.953 339.919 144.233 324.745L143.514 290.87C143.514 273.58 143.874 247.821 144.593 213.593C145.552 182.893 146.032 157.133 146.032 136.314C146.032 131.374 145.672 123.964 144.953 114.083C144.233 103.85 143.874 96.4402 143.874 91.8529C143.874 66.7993 148.91 54.2725 158.983 54.2725C166.898 54.2725 176.012 56.566 186.325 61.1533C196.879 65.7406 202.155 71.2102 202.155 77.5618C202.155 81.0904 201.076 84.4426 198.917 87.6184C196.999 90.4414 194.6 92.7352 191.722 94.4995C181.648 89.2063 172.534 85.6777 164.38 83.9134C164.62 89.2063 164.74 96.793 164.74 106.673C164.74 120.788 164.62 133.491 164.38 144.783C163.66 161.721 163.301 174.424 163.301 182.893L164.38 191.362L170.136 190.832C172.055 190.48 174.453 190.303 177.331 190.303C188.844 190.303 194.6 195.243 194.6 205.124C194.6 209.005 193.521 212.357 191.362 215.18C189.204 217.65 186.445 218.885 183.088 218.885C178.771 218.885 175.413 218.533 173.014 217.827H164.02C164.5 227.001 164.74 240.41 164.74 258.054C164.74 275.697 164.62 291.576 164.38 305.692C163.66 327.217 163.301 343.273 163.301 353.857C163.301 373.618 163.54 383.5 164.02 383.5L175.892 382.969C179.97 382.618 184.886 382.441 190.643 382.441C199.756 382.441 204.313 386.674 204.313 395.143C204.313 400.084 202.755 403.789 199.637 406.258C196.759 409.081 193.161 410.494 188.844 410.494H158.264Z" fill="#A11275"/>
<path d="M314.826 408.375C309.309 408.375 305.232 407.139 302.595 404.67C299.955 402.201 298.636 397.614 298.636 390.909C298.636 380.322 297.437 362.325 295.039 336.918L293.6 325.803L257.983 317.865C256.544 325.98 254.505 342.39 251.867 367.089C250.428 384.381 248.15 395.847 245.032 401.493C243.353 404.67 240.954 406.257 237.836 406.257C234.959 406.257 232.32 405.024 229.922 402.552C227.523 399.729 226.324 396.378 226.324 392.496L227.044 389.85L227.403 387.732C243.233 297.045 255.225 207.593 263.38 119.376C263.38 117.964 263.5 115.671 263.739 112.495C263.979 108.966 264.219 104.026 264.459 97.6745C265.178 84.6182 265.898 74.2088 266.618 66.4457C267.577 58.6826 269.016 52.8602 270.935 48.9785H283.166C286.524 48.9785 289.403 50.2136 291.801 52.6838C294.199 54.8009 295.398 57.9767 295.398 62.2112C295.398 89.0291 297.917 128.903 302.955 181.833C307.752 236.175 310.149 274.285 310.149 296.163C310.149 298.28 310.749 303.75 311.949 312.57C313.146 320.688 313.746 325.98 313.746 328.449C313.746 330.921 314.946 341.505 317.343 360.207C319.503 377.145 320.583 388.086 320.583 393.024V393.555C320.583 401.319 318.663 406.257 314.826 408.375ZM291.081 306.75C290.362 301.455 290.002 294.928 290.002 287.165C290.002 255.406 288.083 214.827 284.246 165.425L280.648 110.378C270.335 193.302 263.26 255.936 259.422 298.28C263.02 301.809 273.573 304.632 291.081 306.75Z" fill="#A11275"/>
<path d="M362.97 406.788C356.733 406.788 353.616 383.673 353.616 337.449L354.336 253.818C354.576 229.118 354.696 201.417 354.696 170.718C354.696 159.426 353.976 141.959 352.536 118.317C351.336 92.5577 350.736 76.8548 350.736 71.2091C350.736 66.6218 352.056 62.5637 354.696 59.0351C357.333 55.5065 360.21 53.7422 363.33 53.7422C371.724 53.7422 379.758 56.5649 387.432 62.2109C395.349 67.5038 402.303 75.0905 408.3 84.971C421.011 106.496 429.405 130.138 433.482 155.897C435.642 168.954 436.719 181.833 436.719 194.536C436.719 199.124 436.599 203.358 436.362 207.24L436.002 221.531V250.642C436.002 273.226 435.522 291.046 434.562 304.101C433.122 321.747 430.365 337.449 426.288 351.21C421.491 366.03 414.534 379.263 405.42 390.909C401.103 396.201 395.589 401.493 388.872 406.788H362.97ZM378.798 379.794C383.595 379.794 388.032 378.027 392.109 374.499C396.186 370.617 399.666 365.502 402.543 359.151C404.94 353.505 407.1 346.446 409.02 337.977C411.177 329.157 412.737 320.688 413.697 312.57C415.854 296.692 417.174 280.46 417.654 263.875C417.894 259.641 418.014 253.465 418.014 245.349C418.014 138.783 403.983 83.2067 375.921 78.6194C374.241 94.4984 373.401 112.848 373.401 133.667C373.401 155.897 374.361 194.713 376.281 250.113C377.958 299.162 378.798 338.154 378.798 367.089V379.794Z" fill="#A11275"/>
<path d="M531.233 412.079C522.599 407.846 511.925 405.728 499.214 405.728C495.377 409.256 491.3 411.02 486.983 411.02C484.103 411.02 481.586 409.079 479.426 405.197C477.509 401.669 476.549 397.787 476.549 393.554C476.549 363.914 477.389 324.392 479.069 274.99C480.506 222.412 481.226 183.068 481.226 156.955V153.25C479.786 131.019 479.069 114.435 479.069 103.496C479.069 69.9732 483.266 53.2119 491.66 53.2119C494.057 53.2119 496.097 54.6234 497.774 57.4464C499.694 59.9166 500.654 62.9157 500.654 66.4446C500.654 70.6788 500.294 77.3835 499.574 86.5581C498.854 95.3796 498.494 102.084 498.494 106.672C498.494 130.314 498.614 151.662 498.854 170.717C499.094 189.419 499.214 210.591 499.214 234.233C498.014 239.526 497.414 246.937 497.414 256.464V262.816L496.697 304.631C496.217 316.982 495.977 331.097 495.977 346.976C495.977 371.324 499.934 383.498 507.848 383.498C508.328 383.498 509.048 383.498 510.008 383.498C511.205 383.144 512.765 382.967 514.685 382.967C516.842 382.616 519.602 382.439 522.959 382.439C535.91 382.439 542.387 387.731 542.387 398.318C542.387 401.846 541.307 404.846 539.147 407.315C536.99 409.784 534.35 411.374 531.233 412.079Z" fill="#A11275"/>
<path d="M590.078 403.083C569.213 403.083 558.779 397.788 558.779 387.204C558.779 378.735 562.499 374.499 569.933 374.499H573.89L577.487 375.03C579.407 375.03 580.727 374.148 581.444 372.381C582.164 370.617 582.524 367.443 582.524 362.856C582.524 356.856 582.284 347.505 581.804 334.803C581.084 326.334 580.247 311.16 579.287 289.282C577.127 235.293 576.05 194.537 576.05 167.013C576.05 157.133 576.17 148.134 576.407 140.018L576.767 113.024C576.767 101.379 576.407 91.6755 575.69 83.9124C571.85 85.3239 569.093 86.0295 567.413 86.0295C561.659 86.0295 558.779 81.7953 558.779 73.3263C558.779 69.0918 560.579 65.3868 564.176 62.211C567.773 59.0352 572.33 56.7414 577.847 55.3302C587.441 52.5072 595.955 51.0957 603.392 51.0957C606.269 51.0957 608.666 52.6836 610.586 55.8594C612.743 58.6824 613.823 62.0346 613.823 65.916C613.823 69.7977 612.983 73.1499 611.306 75.9729C609.866 78.7959 607.949 80.2074 605.549 80.2074C604.109 80.2074 602.912 80.0307 601.952 79.6779H599.072C596.675 79.6779 594.875 80.5602 593.678 82.3245C592.718 83.736 592.238 86.559 592.238 90.7932C592.238 125.021 593.678 176.54 596.555 245.35C597.035 258.053 597.995 276.755 599.432 301.455C600.632 317.688 601.232 334.272 601.232 351.21V371.325C602.672 370.971 605.069 370.794 608.426 370.794C618.5 370.794 623.537 376.971 623.537 389.319V392.496L614.543 401.493C614.303 401.493 613.463 401.67 612.026 402.024C610.826 402.024 608.426 402.024 604.829 402.024C597.155 402.729 592.238 403.083 590.078 403.083Z" fill="#A11275"/>
<path d="M751.465 405.197C748.588 405.197 746.428 404.141 744.991 402.023C743.551 399.551 742.471 395.495 741.751 389.849L739.594 379.793V377.144C739.594 365.501 731.32 325.802 714.769 258.052C698.461 190.301 685.63 140.194 676.276 107.73V373.97L677.713 377.675C677.953 378.38 678.433 379.616 679.153 381.38C679.873 383.144 680.233 384.908 680.233 386.672C680.233 391.259 679.153 395.141 676.996 398.318C674.836 401.492 672.199 403.082 669.079 403.082C661.405 403.082 657.568 392.318 657.568 370.793L657.208 280.283C656.968 253.112 656.848 222.765 656.848 189.243C656.848 177.951 657.208 161.543 657.928 140.018C658.648 117.787 659.008 101.378 659.008 90.7923C659.008 74.2077 663.325 61.1514 671.959 51.624V54.7998C673.396 54.0942 674.356 53.7414 674.836 53.7414C680.353 53.7414 687.307 67.8561 695.701 96.0855C702.418 118.669 708.415 142.488 713.692 167.541C719.206 192.595 726.403 228.235 735.277 274.46L738.874 293.515C744.391 322.097 748.588 342.563 751.465 354.914C756.262 279.048 758.662 189.419 758.662 86.0286V79.1478C758.422 77.0307 758.302 74.7369 758.302 72.2667C758.302 61.6809 761.179 56.3877 766.936 56.3877C770.293 56.3877 772.81 58.3284 774.49 62.2101C776.41 66.0918 777.367 71.0319 777.367 77.0307V116.728C776.89 171.07 775.45 229.999 773.05 293.515C770.653 357.032 767.776 392.849 764.416 400.964C757.462 403.787 753.145 405.197 751.465 405.197Z" fill="#A11275"/>
<path d="M841.948 410.494C838.831 410.494 835.951 408.904 833.314 405.73C830.917 402.553 829.597 398.671 829.357 394.084V369.736C829.117 366.562 828.997 362.857 828.997 358.621C828.997 351.211 828.637 339.919 827.917 324.745L827.197 290.87C827.197 273.58 827.557 247.821 828.277 213.593C829.237 182.893 829.717 157.133 829.717 136.314C829.717 131.374 829.357 123.964 828.637 114.083C827.917 103.85 827.557 96.4402 827.557 91.8529C827.557 66.7993 832.594 54.2725 842.668 54.2725C850.582 54.2725 859.696 56.566 870.01 61.1533C880.564 65.7406 885.838 71.2102 885.838 77.5618C885.838 81.0904 884.761 84.4426 882.601 87.6184C880.684 90.4414 878.284 92.7352 875.407 94.4995C865.333 89.2063 856.219 85.6777 848.065 83.9134C848.305 89.2063 848.425 96.793 848.425 106.673C848.425 120.788 848.305 133.491 848.065 144.783C847.345 161.721 846.985 174.424 846.985 182.893L848.065 191.362L853.822 190.832C855.739 190.48 858.139 190.303 861.016 190.303C872.527 190.303 878.284 195.243 878.284 205.124C878.284 209.005 877.204 212.357 875.047 215.18C872.887 217.65 870.13 218.885 866.773 218.885C862.456 218.885 859.096 218.533 856.699 217.827H847.705C848.185 227.001 848.425 240.41 848.425 258.054C848.425 275.697 848.305 291.576 848.065 305.692C847.345 327.217 846.985 343.273 846.985 353.857C846.985 373.618 847.225 383.5 847.705 383.5L859.576 382.969C863.653 382.618 868.57 382.441 874.327 382.441C883.441 382.441 887.998 386.674 887.998 395.143C887.998 400.084 886.438 403.789 883.321 406.258C880.444 409.081 876.844 410.494 872.527 410.494H841.948Z" fill="#A11275"/>
</svg>
