<svg width="296" height="138" viewBox="0 0 296 138" fill="none" xmlns="http://www.w3.org/2000/svg">
<path d="M7.79485 134.89C6.19591 134.89 4.79683 134.361 3.59762 133.302C2.47836 132.243 1.91873 130.773 1.91873 128.891C3.67757 126.304 4.55699 119.423 4.55699 108.248C4.55699 101.544 4.19723 91.7812 3.4777 78.9604C2.67823 66.7276 2.27849 57.0825 2.27849 50.0252L2.51834 40.3213C2.59828 37.4983 2.63826 34.2637 2.63826 30.6174C2.63826 27.324 2.23852 23.1484 1.43905 18.0906C0.479683 12.7976 0 9.09245 0 6.97524C0 2.85844 3.07797 0.800049 9.2339 0.800049H11.0327C15.3499 0.800049 19.1074 2.74082 22.3053 6.62237C24.8636 9.91581 27.0221 14.6795 28.781 20.9135C29.9802 25.1479 31.0195 31.0291 31.8989 38.5569C32.3786 45.1438 32.6184 50.3192 32.6184 54.0831V68.0214C32.4585 68.4919 32.3786 68.9624 32.3786 69.4329C32.3786 70.3739 32.4186 71.0796 32.4985 71.5501C32.5785 72.0206 32.6184 72.6087 32.6184 73.3145C32.6184 77.0784 32.2187 81.6069 31.4192 86.8999C30.6997 92.0753 29.6204 97.3683 28.1814 102.779C24.5838 115.717 20.5464 124.892 16.0694 130.303C13.4311 133.361 10.6729 134.89 7.79485 134.89ZM10.3132 124.657C13.2712 121.951 15.8695 118.07 18.108 113.012C20.3466 107.837 22.0654 102.132 23.2646 95.898C25.4232 84.371 26.5025 72.7264 26.5025 60.9641C26.5025 54.6124 26.1028 47.6727 25.3033 40.1449C24.4239 32.8522 22.5451 26.2654 19.667 20.3842C18.3079 17.5613 16.589 15.3853 14.5104 13.8562C12.4318 12.2095 10.0733 11.3861 7.43509 11.3861V11.5625C7.43509 22.1486 7.91477 38.1453 8.87414 59.5526C9.8335 80.8423 10.3132 96.9566 10.3132 107.896V124.657Z" fill="#A11275"/>
<path d="M52.7539 136.831C51.7146 136.831 50.7552 136.301 49.8758 135.243C49.0763 134.184 48.6366 132.89 48.5567 131.361V123.245C48.4767 122.187 48.4367 120.952 48.4367 119.54C48.4367 117.07 48.3168 113.306 48.077 108.248L47.8371 96.9566C47.8371 91.1931 47.9571 82.6067 48.1969 71.1973C48.5167 60.9641 48.6766 52.3776 48.6766 45.4379C48.6766 43.7912 48.5567 41.3211 48.3168 38.0276C48.077 34.6166 47.9571 32.1465 47.9571 30.6174C47.9571 22.2662 49.6359 18.0906 52.9937 18.0906C55.632 18.0906 58.67 18.8551 62.1077 20.3842C65.6254 21.9133 67.3842 23.7365 67.3842 25.8537C67.3842 27.0299 67.0245 28.1473 66.3049 29.2059C65.6654 30.1469 64.8659 30.9115 63.9065 31.4996C60.5487 29.7352 57.5107 28.559 54.7925 27.9709C54.8725 29.7352 54.9125 32.2641 54.9125 35.5576C54.9125 40.2625 54.8725 44.4969 54.7925 48.2608C54.5527 53.9067 54.4328 58.1411 54.4328 60.9641L54.7925 63.787L56.7113 63.6106C57.3508 63.493 58.1503 63.4342 59.1097 63.4342C62.9471 63.4342 64.8659 65.0809 64.8659 68.3743C64.8659 69.6682 64.5061 70.7856 63.7866 71.7266C63.0671 72.5499 62.1477 72.9616 61.0284 72.9616C59.5894 72.9616 58.4701 72.844 57.6706 72.6087H54.6726C54.8325 75.6669 54.9125 80.1366 54.9125 86.0177C54.9125 91.8989 54.8725 97.1919 54.7925 101.897C54.5527 109.072 54.4328 114.424 54.4328 117.952C54.4328 124.539 54.5127 127.833 54.6726 127.833L58.63 127.656C59.9891 127.539 61.628 127.48 63.5468 127.48C66.5847 127.48 68.1037 128.891 68.1037 131.714C68.1037 133.361 67.5841 134.596 66.5448 135.419C65.5854 136.36 64.3862 136.831 62.9471 136.831H52.7539Z" fill="#A11275"/>
<path d="M104.941 136.125C103.102 136.125 101.743 135.713 100.864 134.89C99.9842 134.067 99.5445 132.538 99.5445 130.303C99.5445 126.774 99.1448 120.775 98.3453 112.306L97.8656 108.601L85.9935 105.955C85.5138 108.66 84.8342 114.13 83.9548 122.363C83.4751 128.127 82.7156 131.949 81.6763 133.831C81.1167 134.89 80.3172 135.419 79.2779 135.419C78.3186 135.419 77.4391 135.008 76.6397 134.184C75.8402 133.243 75.4405 132.126 75.4405 130.832L75.6803 129.95L75.8002 129.244C81.0767 99.015 85.0741 69.1977 87.7923 39.792C87.7923 39.3215 87.8323 38.5569 87.9122 37.4983C87.9922 36.3221 88.0721 34.6754 88.152 32.5582C88.3919 28.2061 88.6317 24.7363 88.8716 22.1486C89.1914 19.5609 89.671 17.6201 90.3106 16.3262H94.3879C95.5072 16.3262 96.4666 16.7379 97.266 17.5613C98.0655 18.267 98.4652 19.3256 98.4652 20.7371C98.4652 29.6764 99.3047 42.9678 100.984 60.6112C102.583 78.7251 103.382 91.4284 103.382 98.721C103.382 99.4267 103.582 101.25 103.982 104.19C104.381 106.896 104.581 108.66 104.581 109.483C104.581 110.307 104.981 113.835 105.78 120.069C106.5 125.715 106.86 129.362 106.86 131.008V131.185C106.86 133.773 106.22 135.419 104.941 136.125ZM97.0262 102.25C96.7863 100.485 96.6664 98.3093 96.6664 95.7216C96.6664 85.1355 96.0268 71.6089 94.7477 55.1418L93.5485 36.7926C90.1108 64.4339 87.7523 85.312 86.4732 99.4267C87.6724 100.603 91.19 101.544 97.0262 102.25Z" fill="#A11275"/>
<path d="M120.99 135.596C118.911 135.596 117.872 127.891 117.872 112.483L118.112 84.6062C118.192 76.3727 118.232 67.1393 118.232 56.9061C118.232 53.1422 117.992 47.3198 117.512 39.4391C117.112 30.8527 116.912 25.6184 116.912 23.7365C116.912 22.2074 117.352 20.8547 118.232 19.6785C119.111 18.5023 120.07 17.9142 121.11 17.9142C123.908 17.9142 126.586 18.8551 129.144 20.7371C131.783 22.5014 134.101 25.0303 136.1 28.3238C140.337 35.4988 143.135 43.3795 144.494 51.9659C145.214 56.318 145.573 60.6112 145.573 64.8456C145.573 66.3747 145.533 67.7862 145.454 69.08L145.334 73.8438V83.5476C145.334 91.0755 145.174 97.0154 144.854 101.367C144.374 107.249 143.455 112.483 142.096 117.07C140.497 122.01 138.178 126.421 135.14 130.303C133.701 132.067 131.863 133.831 129.624 135.596H120.99ZM126.266 126.598C127.865 126.598 129.344 126.009 130.703 124.833C132.062 123.539 133.222 121.834 134.181 119.717C134.98 117.835 135.7 115.482 136.34 112.659C137.059 109.719 137.579 106.896 137.899 104.19C138.618 98.8974 139.058 93.4868 139.218 87.9585C139.298 86.547 139.338 84.4886 139.338 81.7833C139.338 46.2612 134.661 27.7357 125.307 26.2066C124.747 31.4996 124.467 37.616 124.467 44.5557C124.467 51.9659 124.787 64.9044 125.427 83.3712C125.986 99.7208 126.266 112.718 126.266 122.363V126.598Z" fill="#A11275"/>
<path d="M177.077 137.36C174.199 135.949 170.641 135.243 166.404 135.243C165.125 136.419 163.766 137.007 162.327 137.007C161.367 137.007 160.528 136.36 159.808 135.066C159.169 133.89 158.849 132.596 158.849 131.185C158.849 121.305 159.129 108.131 159.689 91.6636C160.168 74.1378 160.408 61.0229 160.408 52.3188V51.0838C159.928 43.6735 159.689 38.1453 159.689 34.499C159.689 23.3248 161.088 17.7377 163.886 17.7377C164.685 17.7377 165.365 18.2082 165.924 19.1492C166.564 19.9726 166.884 20.9723 166.884 22.1486C166.884 23.56 166.764 25.7949 166.524 28.8531C166.284 31.7936 166.164 34.0285 166.164 35.5576C166.164 43.4383 166.204 50.5545 166.284 56.9061C166.364 63.1401 166.404 70.1975 166.404 78.0782C166.004 79.8425 165.804 82.3126 165.804 85.4884V87.6056L165.565 101.544C165.405 105.661 165.325 110.366 165.325 115.659C165.325 123.775 166.644 127.833 169.282 127.833C169.442 127.833 169.682 127.833 170.002 127.833C170.401 127.715 170.921 127.656 171.561 127.656C172.28 127.539 173.2 127.48 174.319 127.48C178.636 127.48 180.795 129.244 180.795 132.773C180.795 133.949 180.435 134.949 179.715 135.772C178.996 136.595 178.116 137.125 177.077 137.36Z" fill="#A11275"/>
<path d="M196.693 134.361C189.738 134.361 186.26 132.596 186.26 129.068C186.26 126.245 187.5 124.833 189.978 124.833H191.297L192.496 125.01C193.136 125.01 193.576 124.716 193.815 124.127C194.055 123.539 194.175 122.481 194.175 120.952C194.175 118.952 194.095 115.835 193.935 111.601C193.695 108.778 193.416 103.72 193.096 96.4273C192.376 78.4311 192.017 64.8456 192.017 55.6711C192.017 52.3776 192.057 49.3782 192.136 46.6729L192.256 37.6748C192.256 33.7932 192.136 30.5586 191.897 27.9709C190.617 28.4414 189.698 28.6766 189.138 28.6766C187.22 28.6766 186.26 27.2652 186.26 24.4422C186.26 23.0307 186.86 21.7957 188.059 20.7371C189.258 19.6785 190.777 18.9139 192.616 18.4435C195.814 17.5025 198.652 17.032 201.131 17.032C202.09 17.032 202.889 17.5613 203.529 18.6199C204.248 19.5609 204.608 20.6783 204.608 21.9721C204.608 23.266 204.328 24.3834 203.769 25.3244C203.289 26.2654 202.65 26.7359 201.85 26.7359C201.37 26.7359 200.971 26.677 200.651 26.5594H199.691C198.892 26.5594 198.292 26.8535 197.893 27.4416C197.573 27.9121 197.413 28.8531 197.413 30.2645C197.413 41.6739 197.893 58.8469 198.852 81.7833C199.012 86.0177 199.332 92.2517 199.811 100.485C200.211 105.896 200.411 111.424 200.411 117.07V123.775C200.891 123.657 201.69 123.598 202.809 123.598C206.167 123.598 207.846 125.657 207.846 129.773V130.832L204.848 133.831C204.768 133.831 204.488 133.89 204.009 134.008C203.609 134.008 202.809 134.008 201.61 134.008C199.052 134.243 197.413 134.361 196.693 134.361Z" fill="#A11275"/>
<path d="M250.488 135.066C249.529 135.066 248.809 134.714 248.33 134.008C247.85 133.184 247.49 131.832 247.25 129.95L246.531 126.598V125.715C246.531 121.834 243.773 108.601 238.256 86.0177C232.82 63.4342 228.543 46.7317 225.425 35.9104V124.657L225.904 125.892C225.984 126.127 226.144 126.539 226.384 127.127C226.624 127.715 226.744 128.303 226.744 128.891C226.744 130.42 226.384 131.714 225.665 132.773C224.945 133.831 224.066 134.361 223.026 134.361C220.468 134.361 219.189 130.773 219.189 123.598L219.069 93.428C218.989 84.371 218.949 74.2554 218.949 63.0813C218.949 59.3174 219.069 53.8479 219.309 46.6729C219.549 39.2627 219.669 33.7932 219.669 30.2645C219.669 24.7363 221.108 20.3842 223.986 17.2084V18.267C224.465 18.0318 224.785 17.9142 224.945 17.9142C226.784 17.9142 229.102 22.6191 231.9 32.0289C234.139 39.5567 236.138 47.4963 237.897 55.8475C239.735 64.1987 242.134 76.0786 245.092 91.4872L246.291 97.8388C248.13 107.366 249.529 114.188 250.488 118.305C252.087 93.0163 252.887 63.1401 252.887 28.6766V26.383C252.807 25.6773 252.767 24.9127 252.767 24.0893C252.767 20.5607 253.726 18.7963 255.645 18.7963C256.764 18.7963 257.603 19.4432 258.163 20.7371C258.803 22.031 259.122 23.6777 259.122 25.6773V38.9098C258.963 57.0237 258.483 76.6667 257.683 97.8388C256.884 119.011 255.925 130.95 254.805 133.655C252.487 134.596 251.048 135.066 250.488 135.066Z" fill="#A11275"/>
<path d="M280.65 136.831C279.611 136.831 278.651 136.301 277.772 135.243C276.973 134.184 276.533 132.89 276.453 131.361V123.245C276.373 122.187 276.333 120.952 276.333 119.54C276.333 117.07 276.213 113.306 275.973 108.248L275.733 96.9566C275.733 91.1931 275.853 82.6067 276.093 71.1973C276.413 60.9641 276.573 52.3776 276.573 45.4379C276.573 43.7912 276.453 41.3211 276.213 38.0276C275.973 34.6166 275.853 32.1465 275.853 30.6174C275.853 22.2662 277.532 18.0906 280.89 18.0906C283.528 18.0906 286.566 18.8551 290.004 20.3842C293.522 21.9133 295.28 23.7365 295.28 25.8537C295.28 27.0299 294.921 28.1473 294.201 29.2059C293.562 30.1469 292.762 30.9115 291.803 31.4996C288.445 29.7352 285.407 28.559 282.689 27.9709C282.769 29.7352 282.809 32.2641 282.809 35.5576C282.809 40.2625 282.769 44.4969 282.689 48.2608C282.449 53.9067 282.329 58.1411 282.329 60.9641L282.689 63.787L284.608 63.6106C285.247 63.493 286.047 63.4342 287.006 63.4342C290.843 63.4342 292.762 65.0809 292.762 68.3743C292.762 69.6682 292.402 70.7856 291.683 71.7266C290.963 72.5499 290.044 72.9616 288.925 72.9616C287.486 72.9616 286.366 72.844 285.567 72.6087H282.569C282.729 75.6669 282.809 80.1366 282.809 86.0177C282.809 91.8989 282.769 97.1919 282.689 101.897C282.449 109.072 282.329 114.424 282.329 117.952C282.329 124.539 282.409 127.833 282.569 127.833L286.526 127.656C287.885 127.539 289.524 127.48 291.443 127.48C294.481 127.48 296 128.891 296 131.714C296 133.361 295.48 134.596 294.441 135.419C293.482 136.36 292.282 136.831 290.843 136.831H280.65Z" fill="#A11275"/>
</svg>
