<svg width="296" height="249" viewBox="0 0 296 249" fill="none" xmlns="http://www.w3.org/2000/svg">
<path d="M61.5361 40.011C44.1355 33.3421 40.2444 46.2746 40.4644 53.9416C40.47 54.1358 40.335 54.2985 40.1421 54.3221C27.6467 55.8522 2.69161 65.6178 0.203498 92.987C-2.28649 120.377 18.6842 135.282 29.7437 139.436C29.9062 139.497 29.9977 139.666 29.9757 139.839C27.6961 157.66 40.7363 161.034 47.9369 160.491C48.1483 160.475 48.3285 160.635 48.3474 160.846C48.7429 165.267 52.9397 175.468 67.1507 183.994C81.5127 192.611 97.3838 187.848 103.911 184.208C104.111 184.097 104.363 184.2 104.446 184.413C110.648 200.274 123.456 195.009 129.515 190.08C129.713 189.919 130.009 189.996 130.107 190.232C134.562 201.007 150.075 210.169 169.142 211.715C184.45 212.956 199.314 201.686 205.039 195.703C205.155 195.581 205.338 195.56 205.486 195.639C218.85 202.775 227.033 195.113 229.65 190.073C229.744 189.893 229.954 189.815 230.139 189.9C238.037 193.498 257.684 196.536 275.84 180.856C294.126 165.063 290.534 137.299 286.385 125.137C286.334 124.987 286.391 124.823 286.516 124.725C298.449 115.403 292.873 105.047 288.253 100.661C288.068 100.486 288.102 100.18 288.318 100.044C293.372 96.8627 300.585 85.751 292.054 64.2203C283.378 42.3238 261.07 40.0417 250.607 41.6659C250.391 41.6994 250.199 41.5379 250.181 41.3199C249.577 33.7458 246.444 29.8822 242.163 27.6082C238.134 25.4679 231.382 26.6415 228.085 27.5097C227.884 27.5626 227.682 27.4524 227.623 27.2531C226.671 24.0078 220.454 7.48544 198.431 1.97971C180.327 -2.5464 165.459 7.05552 159.996 12.6814C159.847 12.8352 159.605 12.8306 159.454 12.6784C157.158 10.3636 151.505 6.52867 145.082 7.73303C138.856 8.90037 135.767 13.4752 134.804 16.0733C134.709 16.3272 134.386 16.422 134.172 16.2564C129.193 12.4075 110.414 4.25656 90.164 9.82517C73.68 14.3583 64.6376 31.4396 62.0365 39.7831C61.972 39.9898 61.7383 40.0885 61.5361 40.011Z" fill="#FFBBA6"/>
<path d="M103.192 182.918L103.911 184.208L103.192 182.918C96.9059 186.424 81.638 190.965 67.9104 182.728C54.0174 174.392 50.1633 164.572 49.8182 160.715C49.7309 159.739 48.8816 158.939 47.8259 159.019C44.4529 159.273 39.799 158.592 36.3058 155.884C32.9234 153.263 30.3532 148.526 31.4404 140.026C31.5404 139.244 31.1297 138.379 30.263 138.054C19.504 134.012 -0.729459 119.56 1.67409 93.1207C2.87417 79.9198 9.47009 70.9942 17.3033 65.1483C25.1758 59.2729 34.2846 56.5271 40.3215 55.7878C41.2985 55.6682 41.9671 54.8276 41.9404 53.8992C41.8355 50.2416 42.7333 45.5551 45.4743 42.6055C46.8106 41.1674 48.6151 40.1041 51.0772 39.7583C53.5672 39.4086 56.814 39.7826 61.0076 41.3898L61.5361 40.011L61.0076 41.3898C61.9168 41.7383 63.1004 41.3316 63.4462 40.2225C64.698 36.2072 67.5288 30.0159 72.0528 24.2907C76.5748 18.5681 82.711 13.4062 90.5556 11.249C100.39 8.54448 109.891 9.16638 117.56 10.9476C125.264 12.7368 130.992 15.6642 133.269 17.4247C134.283 18.2084 135.753 17.761 136.188 16.5866C137.027 14.323 139.78 10.2297 145.354 9.1844C151.079 8.11103 156.262 11.5572 158.406 13.7183C159.109 14.4274 160.302 14.4865 161.055 13.7101C166.299 8.31069 180.655 -0.942172 198.073 3.41228C219.382 8.73954 225.33 24.6829 226.207 27.6691C226.497 28.6598 227.512 29.1876 228.461 28.9377C230.043 28.5212 232.451 28.0332 234.925 27.9054C237.442 27.7755 239.812 28.0313 241.47 28.9123C243.428 29.952 245.071 31.3244 246.304 33.2676C247.541 35.2182 248.421 37.8327 248.709 41.4374C248.791 42.455 249.714 43.2988 250.833 43.125C255.85 42.3463 263.775 42.5032 271.465 45.4988C279.109 48.4767 286.515 54.2514 290.681 64.7643C299.036 85.8507 291.806 96.1037 287.531 98.7948C286.525 99.4281 286.331 100.874 287.236 101.733L288.253 100.661L287.236 101.733C289.385 103.772 291.695 107.157 292.124 111.006C292.539 114.726 291.231 119.168 285.607 123.561C285.038 124.006 284.712 124.808 284.987 125.614L286.385 125.137L284.987 125.614C287.007 131.533 288.904 141.309 288.054 151.512C287.205 161.705 283.633 172.175 274.875 179.739C257.242 194.967 238.237 191.966 230.751 188.556C229.821 188.132 228.78 188.544 228.339 189.393L229.65 190.073L228.339 189.393C227.157 191.67 224.695 194.561 221.039 196.055C217.453 197.522 212.527 197.724 206.182 194.336C205.504 193.974 204.587 194.039 203.972 194.682C201.208 197.571 196.183 201.786 189.985 205.117C183.779 208.452 176.528 210.832 169.261 210.243C159.922 209.486 151.486 206.865 144.868 203.147C138.229 199.417 133.532 194.65 131.471 189.668C131.002 188.532 129.559 188.14 128.583 188.935C125.685 191.292 121.298 193.611 117.05 193.566C114.968 193.544 112.914 192.957 111.025 191.51C109.124 190.054 107.301 187.658 105.821 183.875L104.446 184.413L105.821 183.875C105.444 182.909 104.247 182.33 103.192 182.918Z" stroke="black" stroke-opacity="0.1" stroke-width="2.95332"/>
<ellipse cx="103.456" cy="205.736" rx="16.737" ry="11.5067" fill="#FFBBA6"/>
<path d="M118.716 205.736C118.716 208.287 117.213 210.758 114.454 212.655C111.701 214.548 107.817 215.766 103.456 215.766C99.0941 215.766 95.2102 214.548 92.4575 212.655C89.6982 210.758 88.1954 208.287 88.1954 205.736C88.1954 203.184 89.6982 200.713 92.4575 198.816C95.2102 196.924 99.0941 195.706 103.456 195.706C107.817 195.706 111.701 196.924 114.454 198.816C117.213 200.713 118.716 203.184 118.716 205.736Z" stroke="black" stroke-opacity="0.1" stroke-width="2.95332"/>
<ellipse cx="89.5034" cy="225.668" rx="12.2076" ry="8.87351" transform="rotate(7.86546 89.5034 225.668)" fill="#FFBBA6"/>
<path d="M100.133 227.137C99.8787 228.98 98.6052 230.636 96.499 231.763C94.3945 232.889 91.5551 233.419 88.4912 232.995C85.4273 232.572 82.8379 231.292 81.1174 229.638C79.3956 227.982 78.6188 226.043 78.8734 224.2C79.1281 222.356 80.4016 220.7 82.5078 219.573C84.6124 218.447 87.4517 217.918 90.5157 218.341C93.5796 218.764 96.1689 220.044 97.8894 221.698C99.6112 223.354 100.388 225.293 100.133 227.137Z" stroke="black" stroke-opacity="0.1" stroke-width="2.95332"/>
<ellipse cx="75.5176" cy="240.339" rx="9.86073" ry="7.16762" transform="rotate(7.86546 75.5176 240.339)" fill="#FFBBA6"/>
<path d="M83.8227 241.486C83.6325 242.863 82.6776 244.132 81.0344 245.012C79.3928 245.89 77.1607 246.311 74.7388 245.976C72.3168 245.642 70.2825 244.631 68.9405 243.341C67.5972 242.049 67.0221 240.568 67.2124 239.191C67.4026 237.814 68.3575 236.545 70.0007 235.666C71.6424 234.788 73.8744 234.367 76.2963 234.701C78.7183 235.036 80.7526 236.046 82.0946 237.337C83.4379 238.628 84.013 240.109 83.8227 241.486Z" stroke="black" stroke-opacity="0.1" stroke-width="2.95332"/>
</svg>
