<svg width="888" height="348" viewBox="0 0 888 348" fill="none" xmlns="http://www.w3.org/2000/svg">
<path d="M843.6 0.583008H44.4C19.8786 0.583008 0 20.4616 0 44.983V302.503C0 327.024 19.8786 346.903 44.4 346.903H843.6C868.121 346.903 888 327.024 888 302.503V44.983C888 20.4616 868.121 0.583008 843.6 0.583008Z" fill="#E09787"/>
<path d="M843.6 0.583008H44.4C19.8786 0.583008 0 20.4616 0 44.983V302.503C0 327.024 19.8786 346.903 44.4 346.903H843.6C868.121 346.903 888 327.024 888 302.503V44.983C888 20.4616 868.121 0.583008 843.6 0.583008Z" fill="black" fill-opacity="0.05"/>
<path d="M821.396 44.9824H66.5965C54.3358 44.9824 44.3965 54.9217 44.3965 67.1824V155.982C44.3965 168.243 54.3358 178.182 66.5965 178.182H821.396C833.657 178.182 843.596 168.243 843.596 155.982V67.1824C843.596 54.9217 833.657 44.9824 821.396 44.9824Z" fill="white" fill-opacity="0.4"/>
<path d="M88.7965 302.503C113.318 302.503 133.196 282.625 133.196 258.103C133.196 233.582 113.318 213.703 88.7965 213.703C64.275 213.703 44.3965 233.582 44.3965 258.103C44.3965 282.625 64.275 302.503 88.7965 302.503Z" fill="white" fill-opacity="0.4"/>
<path d="M207.197 302.503C231.718 302.503 251.597 282.625 251.597 258.103C251.597 233.582 231.718 213.703 207.197 213.703C182.675 213.703 162.797 233.582 162.797 258.103C162.797 282.625 182.675 302.503 207.197 302.503Z" fill="white" fill-opacity="0.4"/>
<path d="M325.597 302.503C350.119 302.503 369.997 282.625 369.997 258.103C369.997 233.582 350.119 213.703 325.597 213.703C301.076 213.703 281.197 233.582 281.197 258.103C281.197 282.625 301.076 302.503 325.597 302.503Z" fill="white" fill-opacity="0.4"/>
<path d="M443.998 302.503C468.519 302.503 488.398 282.625 488.398 258.103C488.398 233.582 468.519 213.703 443.998 213.703C419.476 213.703 399.598 233.582 399.598 258.103C399.598 282.625 419.476 302.503 443.998 302.503Z" fill="white" fill-opacity="0.4"/>
<path d="M562.404 302.503C586.925 302.503 606.804 282.625 606.804 258.103C606.804 233.582 586.925 213.703 562.404 213.703C537.882 213.703 518.004 233.582 518.004 258.103C518.004 282.625 537.882 302.503 562.404 302.503Z" fill="white" fill-opacity="0.4"/>
<path d="M680.799 302.503C705.321 302.503 725.199 282.625 725.199 258.103C725.199 233.582 705.321 213.703 680.799 213.703C656.278 213.703 636.399 233.582 636.399 258.103C636.399 282.625 656.278 302.503 680.799 302.503Z" fill="white" fill-opacity="0.4"/>
<path d="M799.199 302.503C823.72 302.503 843.599 282.625 843.599 258.103C843.599 233.582 823.72 213.703 799.199 213.703C774.677 213.703 754.799 233.582 754.799 258.103C754.799 282.625 774.677 302.503 799.199 302.503Z" fill="white" fill-opacity="0.4"/>
</svg>
