<svg width="879" height="741" viewBox="0 0 879 741" fill="none" xmlns="http://www.w3.org/2000/svg">
<g clip-path="url(#clip0_1105_2334)">
<path d="M4.94622 26.1295L65.9378 118.392C67.5254 120.794 66.3014 124.045 63.5246 124.803L12.0459 138.866C8.77557 139.76 7.83348 143.945 10.4056 146.154L72.0521 199.081C74.2472 200.966 73.9436 204.449 71.4557 205.926L2.65324 246.765C0.00691348 248.336 -0.128702 252.117 2.3983 253.874L65.7419 297.9C67.6376 299.217 68.1263 301.812 66.8396 303.729L16.1464 379.242C14.2606 382.053 16.2738 385.83 19.6573 385.83H63.3707C66.2342 385.83 68.2697 388.614 67.3994 391.341L26.5569 519.351C25.4194 522.918 29.1328 526.095 32.4788 524.418L142.808 469.161C145.123 468.003 147.927 469.176 148.724 471.639L163.256 516.522C164.089 519.096 167.092 520.236 169.423 518.862L248.458 472.368C251.76 470.427 255.736 473.523 254.661 477.201L216.533 607.575C215.742 610.284 217.771 612.99 220.592 612.99H274.305C277.064 612.99 279.084 615.591 278.403 618.264L248.858 734.271C247.69 738.858 253.787 741.606 256.451 737.697L367.718 574.317C369.689 571.425 367.493 567.528 364.001 567.714L323.903 569.826C320.648 570 318.431 566.574 319.919 563.673L367.037 471.906C368.312 469.419 371.609 468.834 373.664 470.727L458.18 548.664C460.262 550.584 463.601 549.957 464.846 547.413L495.344 485.04C496.544 482.589 499.721 481.899 501.83 483.633L592.067 557.832C594.227 559.608 597.485 558.837 598.619 556.281L623.807 499.509C624.86 497.133 627.788 496.263 629.969 497.673L716.609 553.749C719.033 555.318 722.279 554.049 723.002 551.253L732.158 515.706C732.782 513.294 735.341 511.938 737.687 512.781L872.834 561.411C876.68 562.794 880.058 558.459 877.772 555.069L811.046 456.099C809.642 454.02 810.35 451.182 812.564 450.003L851.024 429.537C853.37 428.289 853.997 425.214 852.326 423.147L783.413 337.875C781.829 335.916 782.3 333.012 784.424 331.656L843.785 293.702C846.458 291.992 846.368 288.057 843.617 286.474L784.487 252.45C782.321 251.203 781.703 248.358 783.158 246.324L840.053 166.803C841.814 164.342 840.497 160.881 837.542 160.217L776.966 146.595C774.257 145.987 772.862 142.98 774.143 140.518L838.343 17.1538C840.17 13.6385 836.594 9.76384 832.943 11.3068L690.836 71.3794C687.662 72.7198 684.305 69.9106 685.064 66.5521L698.777 5.88196C699.593 2.27807 695.717 -0.563823 692.525 1.29557L579.857 66.9097C577.223 68.4436 573.878 66.7711 573.527 63.7432L567.713 13.6546C567.347 10.5021 563.768 8.86135 561.14 10.6416L469.439 72.7771C467.864 73.8457 465.767 73.7278 464.318 72.4897L399.602 17.1187C397.712 15.502 394.844 15.857 393.404 17.8852L358.52 67.0618C357.272 68.8246 354.893 69.3607 353.006 68.3053L260.425 16.4821C258.184 15.2277 255.351 16.244 254.419 18.6368L234.415 69.9817C233.473 72.4006 230.593 73.4071 228.349 72.1018L146.767 24.6525C144.167 23.1408 140.865 24.7486 140.452 27.7271L134.724 69.0349C134.338 71.8174 131.397 73.4572 128.828 72.3226L10.1819 19.9294C6.32025 18.2241 2.61829 22.608 4.94622 26.1295Z" fill="#FFBBA6"/>
<path d="M361.972 69.5099L358.522 67.0634M361.972 69.5099L396.856 20.3332L461.572 75.7043M361.972 69.5099C359.47 73.0352 354.715 74.1077 350.944 71.9966L258.361 20.1734L238.357 71.5181C236.472 76.3562 230.713 78.3692 226.225 75.7586L144.642 28.3094L138.915 69.6173C138.143 75.182 132.26 78.4616 127.121 76.1924L8.47555 23.7992L69.467 116.062C72.6419 120.864 70.1945 127.367 64.6409 128.884L13.1621 142.947L74.8082 195.874C79.1987 199.644 78.5918 206.61 73.616 209.563L4.81348 250.403L68.1572 294.429C71.9486 297.064 72.9257 302.252 70.352 306.086L19.6592 381.602H63.3725C69.0992 381.602 73.1702 387.173 71.4296 392.63L30.5873 520.64L140.916 465.383C145.546 463.064 151.154 465.413 152.749 470.339L167.281 515.222L246.316 468.725C252.919 464.843 260.872 471.038 258.721 478.391L220.594 608.765H274.307C279.824 608.765 283.864 613.964 282.502 619.31L252.958 735.317L364.225 571.937L324.13 574.052C317.614 574.394 313.18 567.545 316.159 561.743L363.277 469.976C365.83 465.002 372.421 463.832 376.534 467.621L461.05 545.558L491.548 483.185C493.948 478.28 500.299 476.9 504.517 480.368L594.754 554.567L619.945 497.795C622.051 493.046 627.907 491.303 632.269 494.126L718.909 550.202L728.065 514.652C729.31 509.828 734.431 507.119 739.12 508.805L874.267 557.435L807.541 458.465C804.736 454.304 806.152 448.628 810.58 446.27L849.04 425.807L780.124 340.535C776.956 336.614 777.901 330.809 782.146 328.094L841.51 290.14L782.38 256.116C778.048 253.623 776.812 247.932 779.722 243.865L836.617 164.344L776.038 150.723C770.626 149.505 767.83 143.49 770.392 138.567L834.592 15.2032L692.482 75.2759C686.14 77.957 679.423 72.3386 680.941 65.6213L694.654 4.95117L581.986 70.5653M461.572 75.7043L464.32 72.4913M461.572 75.7043C464.467 78.1808 468.661 78.4163 471.814 76.2794L563.515 14.1438L569.329 64.2323C570.031 70.2884 576.718 73.6334 581.986 70.5653M581.986 70.5653L579.859 66.9113" stroke="black" stroke-opacity="0.1" stroke-width="8.45715"/>
</g>
<defs>
<clipPath id="clip0_1105_2334">
<rect width="879" height="741" fill="white"/>
</clipPath>
</defs>
</svg>
