<svg width="293" height="247" viewBox="0 0 293 247" fill="none" xmlns="http://www.w3.org/2000/svg">
<path d="M1.64897 8.71069L21.9795 39.465C22.5087 40.2654 22.1007 41.3491 21.1751 41.602L4.01553 46.2896C2.92542 46.5874 2.61139 47.9826 3.46878 48.7188L24.0176 66.3612C24.7493 66.9895 24.6481 68.1505 23.8188 68.6428L0.884644 82.256C0.00253558 82.7796 -0.0426697 84.04 0.799663 84.6255L21.9142 99.3007C22.5461 99.7399 22.709 100.605 22.2801 101.244L5.38238 126.415C4.75378 127.352 5.42484 128.611 6.55267 128.611H21.1238C22.0783 128.611 22.7568 129.539 22.4667 130.448L8.85253 173.118C8.47335 174.307 9.71117 175.366 10.8265 174.807L47.6028 156.388C48.3745 156.002 49.3091 156.393 49.575 157.214L54.419 172.175C54.6967 173.033 55.6974 173.413 56.4746 172.955L82.8196 157.457C83.9201 156.81 85.2455 157.842 84.8871 159.068L72.178 202.526C71.9141 203.429 72.5907 204.331 73.5308 204.331H91.4353C92.3548 204.331 93.0281 205.198 92.8012 206.089L82.9529 244.758C82.5636 246.287 84.5959 247.203 85.4838 245.9L122.573 191.44C123.23 190.476 122.498 189.177 121.334 189.239L107.968 189.943C106.883 190.001 106.144 188.859 106.64 187.892L122.346 157.303C122.771 156.474 123.87 156.279 124.555 156.91L152.727 182.889C153.421 183.529 154.534 183.32 154.949 182.472L165.115 161.681C165.515 160.864 166.574 160.634 167.277 161.212L197.356 185.945C198.076 186.537 199.162 186.28 199.54 185.428L207.936 166.504C208.287 165.712 209.263 165.422 209.99 165.892L238.87 184.584C239.678 185.107 240.76 184.684 241.001 183.752L244.053 171.903C244.261 171.099 245.114 170.647 245.896 170.928L290.945 187.138C292.227 187.599 293.353 186.154 292.591 185.024L270.349 152.034C269.881 151.341 270.117 150.395 270.855 150.002L283.675 143.18C284.457 142.764 284.666 141.739 284.109 141.05L261.138 112.626C260.61 111.973 260.767 111.005 261.475 110.553L281.262 97.9014C282.153 97.3316 282.123 96.0197 281.206 95.4921L261.496 84.1508C260.774 83.7352 260.568 82.7868 261.053 82.109L280.018 55.602C280.605 54.7815 280.166 53.6279 279.181 53.4066L258.989 48.866C258.086 48.6631 257.621 47.6607 258.048 46.8402L279.448 5.71878C280.057 4.54702 278.865 3.25547 277.648 3.76979L230.279 23.794C229.221 24.2408 228.102 23.3044 228.355 22.1849L232.926 1.96151C233.198 0.760215 231.906 -0.187084 230.842 0.432713L193.286 22.3041C192.408 22.8154 191.293 22.2579 191.176 21.2486L189.238 4.5524C189.116 3.50157 187.923 2.95464 187.047 3.54806L156.48 24.2599C155.955 24.6161 155.256 24.5768 154.773 24.1641L133.201 5.70708C132.571 5.1682 131.615 5.28651 131.135 5.96258L119.507 22.3548C119.091 22.9424 118.298 23.1211 117.669 22.7693L86.8084 5.49488C86.0614 5.07677 85.1173 5.41553 84.8066 6.21314L78.1386 23.3281C77.8245 24.1344 76.8647 24.4699 76.1166 24.0348L48.9224 8.21837C48.056 7.71445 46.9552 8.25039 46.8176 9.24321L44.9083 23.0125C44.7797 23.94 43.7993 24.4866 42.9428 24.1084L3.39419 6.644C2.10698 6.07557 0.872995 7.53686 1.64897 8.71069Z" fill="#FFBBA6"/>
<path d="M120.657 23.1703L119.507 22.3548L120.657 23.1703L132.285 6.77809L153.857 25.2351L154.773 24.1641L153.857 25.2351C154.822 26.0606 156.22 26.1391 157.271 25.4268L187.838 4.71494L189.776 21.4111C190.01 23.4298 192.239 24.5448 193.995 23.5221L193.286 22.3041L193.995 23.5221L231.551 1.65074L226.98 21.8741C226.474 24.1132 228.713 25.986 230.827 25.0923L278.197 5.06808L256.797 46.1895C255.943 47.8305 256.875 49.8354 258.679 50.2412L278.872 54.7818L259.907 81.2888C258.937 82.6445 259.349 84.5412 260.793 85.3725L280.503 96.7138L260.715 109.365C259.3 110.27 258.985 112.205 260.041 113.512L283.013 141.936L270.193 148.757C268.717 149.543 268.245 151.435 269.18 152.822L291.422 185.812L246.373 169.602C244.81 169.04 243.103 169.943 242.688 171.551L239.636 183.401L210.756 164.709C209.302 163.768 207.35 164.349 206.648 165.932L198.251 184.856L168.172 160.123C166.766 158.967 164.649 159.427 163.849 161.062L153.683 181.853L125.511 155.874C124.14 154.611 121.943 155.001 121.092 156.659L105.386 187.248C104.393 189.182 105.871 191.465 108.043 191.351L121.408 190.646L84.3188 245.106L94.1671 206.437C94.621 204.655 93.2744 202.922 91.4353 202.922L73.5309 202.922L86.24 159.464C86.9568 157.013 84.3059 154.948 82.1049 156.242L55.7599 171.741L50.916 156.78C50.3843 155.138 48.515 154.355 46.9716 155.128L10.1954 173.547L23.8095 130.877C24.3897 129.058 23.0327 127.201 21.1238 127.201H6.55267L23.4503 102.029C24.3082 100.751 23.9825 99.0217 22.7187 98.1433L1.60411 83.468L24.5383 69.8548C26.1969 68.8703 26.3992 66.5483 24.9357 65.2918L4.38697 47.6493L21.5466 42.9617C23.3978 42.4559 24.2136 40.2885 23.1553 38.6877L2.8248 7.9334L42.3734 25.3978C44.0864 26.1542 46.0473 25.061 46.3045 23.2061L48.2137 9.4368L75.408 25.2532C76.9041 26.1234 78.8237 25.4524 79.452 23.8397L86.1199 6.72483L116.981 23.9992C118.238 24.7029 119.823 24.3454 120.657 23.1703Z" stroke="black" stroke-opacity="0.1" stroke-width="2.81905"/>
</svg>
