<svg width="296" height="62" viewBox="0 0 296 62" fill="none" xmlns="http://www.w3.org/2000/svg">
<path d="M4.06524 61.9348C6.51393 61.9348 8.5817 60.1936 9.88767 57.2551C11.4657 53.827 13.5335 47.7869 14.8939 43.1072C15.1659 42.1822 15.6557 41.4748 16.3631 40.9306L19.628 38.2643C20.4442 37.5569 26.8108 32.7139 27.3549 32.1698C28.0623 31.4624 28.1712 30.7006 27.7358 29.9932C27.2461 29.2313 26.3755 28.9593 25.4504 29.2858C24.5798 29.6122 24.09 30.1564 20.4442 32.9316C17.7234 34.9993 19.3559 33.8022 17.3425 35.2714C17.3425 34.7817 18.3764 31.7889 18.8118 30.3741C20.0089 26.6194 20.4442 25.259 21.206 22.4839C21.4781 21.3956 20.9884 20.3617 20.1177 19.9808C19.3015 19.5999 18.4308 19.8719 17.7234 20.6882C17.2337 21.2323 15.7645 23.3001 14.1865 25.5855L9.94208 31.6256C8.5817 33.4757 5.75211 36.7951 4.44615 37.5024C4.17407 37.6657 4.01083 37.5569 4.01083 37.2304C4.01083 33.639 5.64328 29.7211 7.38457 25.3679C8.41846 22.7015 8.63612 22.375 8.63612 21.8309C8.63612 20.9602 8.25521 20.3617 7.54781 20.0352C6.45951 19.5454 5.48004 20.4705 4.93589 21.7221C3.1946 26.0753 2.26954 28.143 1.67098 29.9932C0.63709 33.2036 -0.179137 37.5024 0.854751 39.6791C1.61656 41.3659 3.14019 41.9101 4.82706 41.3659C7.60223 40.4409 10.4862 37.1215 13.6967 32.7139C14.0232 32.2786 14.2953 31.8977 14.6218 31.5168C14.3497 32.333 14.132 33.1492 13.86 34.0199C13.4247 35.4891 12.9349 36.9583 12.4996 38.4275C12.2275 39.2981 11.8466 39.9511 11.0848 40.6041C9.23468 42.2366 7.38457 43.869 5.75211 45.4471C1.83422 49.2017 -0.505628 52.9019 0.0929385 57.6361C0.419429 60.0303 1.83422 61.9348 4.06524 61.9348ZM4.55498 58.1258C3.1946 58.6699 3.41226 54.6432 4.6094 52.6299C5.48004 51.1606 9.2891 46.5354 9.9965 46.5354C8.90819 50.0179 7.81989 53.3917 6.13302 56.6022C5.6977 57.4184 5.20796 57.8537 4.55498 58.1258Z" fill="#B83A48"/>
<path d="M29.3696 41.6924C31.8182 41.6924 34.7567 39.7879 36.5524 37.3392C39.1099 33.8022 39.9805 30.3196 39.1643 26.7282C38.729 24.8237 37.9672 22.3206 35.3552 21.45C35.192 21.3956 35.0287 21.2867 34.9199 21.1235C32.9066 19.1101 30.2402 20.7426 28.0636 23.4089C25.6149 26.4018 24.2001 29.9932 24.2001 35.3803C24.2001 38.4819 26.0502 41.6924 29.3696 41.6924ZM29.6416 37.9922C28.3901 38.1554 27.8459 37.0127 27.8459 35.87C27.8459 31.7889 30.349 24.0619 32.9066 24.0619C34.4302 24.0619 35.7906 27.2724 35.7906 29.8843C35.7906 33.3669 32.5801 37.6657 29.6416 37.9922Z" fill="#B83A48"/>
<path d="M52.5377 42.4542C53.7348 42.4542 54.279 41.6924 54.279 40.2232C54.279 37.8834 54.8231 35.5435 55.4761 33.2036C56.4011 29.9387 57.7071 26.7827 59.0675 23.3545C59.7205 21.7765 60.2646 20.0896 58.741 19.3822C57.9792 19.0013 57.0541 19.219 56.4556 19.9264C55.4761 21.0691 53.2995 24.8781 51.2861 28.3607C49.0007 32.2242 45.5181 37.9378 43.9401 37.9378C43.1783 37.9378 45.5181 29.3402 46.6608 26.4562C47.0962 25.2046 48.6198 22.103 48.5109 21.0147C48.4021 19.491 46.6064 18.9469 45.6814 19.8719C44.3754 21.1779 42.4164 27.0547 41.4914 30.4285C40.2943 34.9994 39.1515 40.06 42.09 41.7468C43.8857 42.6719 45.7358 41.8012 47.4226 40.2232C48.4021 39.3526 49.1639 38.1554 50.3066 36.6862L51.1229 35.6523L50.9596 37.1215C50.742 38.9717 50.5243 40.7674 51.1229 41.5836C51.5038 42.1277 51.9935 42.4542 52.5377 42.4542Z" fill="#B83A48"/>
<path d="M92.0392 42.5631C94.2703 42.5631 96.6645 40.1688 98.4058 37.6113C99.1132 36.5774 98.7323 37.1215 101.453 32.333C102.106 31.1903 102.052 29.9932 101.018 29.3946C99.4941 28.4695 98.6235 29.9932 97.5352 32.0609C96.6645 33.6934 93.5085 38.5907 92.4202 38.5907C91.9304 38.5907 91.7128 36.0332 91.876 34.8361C92.2569 32.333 92.6378 29.7211 93.2908 27.1636C94.1614 23.9531 91.9304 20.5793 88.8832 19.8719C86.3257 19.2734 83.5505 21.3956 81.4827 24.334C79.3605 27.3268 78.109 30.9726 77.2927 34.9449C76.8574 37.0127 77.1839 40.0055 79.1429 40.985C80.1223 41.4748 81.265 41.4203 82.4622 40.7674C85.5638 39.0805 87.6316 34.3464 88.2302 34.0199C88.2302 34.0199 88.1758 36.8495 88.339 38.5363C88.5567 40.985 89.8082 42.5631 92.0392 42.5631ZM80.993 37.2848C80.5032 37.2848 81.1018 34.0199 81.646 32.333C82.4622 29.6122 83.6593 27.3812 85.1829 25.4767C86.3801 24.0075 87.7949 22.8648 88.8832 23.9531C89.3185 24.3884 89.4273 24.6061 89.1008 25.1502C88.339 26.4018 87.6316 27.6533 86.9242 28.9049C85.6727 31.1359 84.6388 32.7139 83.9314 33.911C83.5505 34.6184 81.7548 37.2848 80.993 37.2848Z" fill="#B83A48"/>
<path d="M104.796 47.0251C105.83 47.0251 106.809 46.0456 106.428 44.6852C106.102 43.5425 106.32 42.4542 106.592 41.4203C107.789 36.8495 108.768 36.4686 110.129 32.4418C110.346 31.7889 110.727 30.9726 110.727 30.102C110.727 28.2519 109.258 26.8371 107.408 27.1636C107.245 27.1636 105.884 27.4901 105.884 27.4901C105.884 27.4356 107.462 25.0414 107.843 23.0824C108.224 21.1779 108.605 19.1101 106.864 17.913C106.102 17.4233 105.231 17.3144 104.252 17.5865C101.694 18.2939 98.8647 22.1574 97.9397 25.4767C97.2867 27.7077 97.2323 29.8299 98.7015 31.2991C100.824 33.4213 102.728 32.5507 106.32 31.2447C106.537 31.1359 106.646 31.3535 106.592 31.5712C106.646 31.2991 103.871 37.8289 103.544 38.8084C102.783 41.1483 102.021 44.1411 103.055 45.8824C103.49 46.5898 104.089 47.0251 104.796 47.0251ZM101.368 27.0547C101.803 24.987 102.347 23.7354 104.143 21.9397C104.361 21.7221 104.361 21.7765 104.306 22.0485C103.762 24.334 102.783 26.0209 101.368 27.0547Z" fill="#B83A48"/>
<path d="M119.276 42.1277C122.432 42.1277 127.711 38.4275 127.983 35.8156C127.983 34.9449 127.602 34.1287 126.405 34.1287C124.337 34.1831 121.888 38.5907 119.439 38.5363C117.753 38.5363 116.882 36.5774 117.1 34.292C117.154 33.7478 117.372 33.5301 117.861 33.3669C120.909 32.333 123.575 30.6461 126.132 27.4356C126.949 26.4018 127.547 25.259 127.819 24.0619C128.527 21.1779 126.459 18.7292 123.521 18.838C118.079 19.1101 113.29 28.9593 113.454 35.9788C113.563 39.0805 115.848 42.1277 119.276 42.1277ZM118.732 29.1225C118.623 29.1769 118.406 29.2313 118.514 28.9593C119.657 26.6738 120.582 24.8781 121.943 23.5178C122.976 22.4839 124.228 22.1574 124.228 23.0824C124.228 24.8237 121.235 27.871 118.732 29.1225Z" fill="#B83A48"/>
<path d="M154.642 41.8557C156.873 41.8557 157.091 41.4203 163.457 39.407C167.212 38.2643 171.892 35.9788 174.613 33.2581C175.646 32.2242 176.68 31.0815 175.701 29.8843C174.83 28.8504 173.579 29.1225 172.164 30.5373C170.695 32.0065 169.008 33.2581 166.994 34.0743C166.722 34.1831 166.396 34.3464 165.906 34.5096C166.124 34.0743 166.287 33.6934 166.505 33.3125L167.484 31.3535C168.355 29.6122 168.736 28.0342 168.736 25.8032C168.736 23.9531 168.246 22.3206 166.831 21.45C165.09 20.3617 162.913 21.0691 161.063 22.3206C161.063 22.2662 162.26 20.4161 162.75 19.7087C164.818 16.607 166.178 13.2333 166.886 9.80513C167.647 6.05049 165.471 2.45909 161.825 4.20037C159.485 5.23426 156.873 8.71683 155.35 12.0906C153.391 16.335 152.139 21.0147 151.323 26.4018C150.888 29.3402 150.507 32.4963 149.69 39.0805C149.69 40.6041 150.017 41.5836 151.976 41.5836C152.248 41.5836 152.466 41.5836 152.683 41.638C153.336 41.8012 153.989 41.8557 154.642 41.8557ZM155.622 23.1913C154.969 23.1913 158.56 13.6142 159.812 11.4376C160.682 10.0228 162.532 7.73736 163.185 7.73736C163.403 7.73736 163.349 8.98891 163.077 10.0228C162.369 12.4715 161.444 14.9746 159.92 17.4233C158.887 19.0557 155.894 23.1913 155.622 23.1913ZM154.044 37.6657C154.044 35.5979 158.723 29.449 161.39 26.7827C162.206 25.9664 164.002 24.7149 164.655 24.7149C165.09 24.7149 165.144 25.6399 165.144 26.0753C165.144 26.565 164.981 27.4356 164.818 28.0886C164.002 30.9726 162.532 33.3669 160.628 35.3258C159.104 36.9039 156.003 37.9378 154.044 37.6657Z" fill="#B83A48"/>
<path d="M178.065 42.1277C181.221 42.1277 186.499 38.4275 186.771 35.8156C186.771 34.9449 186.39 34.1287 185.193 34.1287C183.125 34.1831 180.677 38.5907 178.228 38.5363C176.541 38.5363 175.67 36.5774 175.888 34.292C175.943 33.7478 176.16 33.5301 176.65 33.3669C179.697 32.333 182.364 30.6461 184.921 27.4356C185.737 26.4018 186.336 25.259 186.608 24.0619C187.315 21.1779 185.248 18.7292 182.309 18.838C176.868 19.1101 172.079 28.9593 172.242 35.9788C172.351 39.0805 174.637 42.1277 178.065 42.1277ZM177.521 29.1225C177.412 29.1769 177.194 29.2313 177.303 28.9593C178.446 26.6738 179.371 24.8781 180.731 23.5178C181.765 22.4839 183.016 22.1574 183.016 23.0824C183.016 24.8237 180.024 27.871 177.521 29.1225Z" fill="#B83A48"/>
<path d="M203.016 42.6719C204.159 42.6719 204.812 42.0189 204.485 39.7879C203.724 34.5096 204.485 30.9182 205.9 25.1502C206.444 23.028 204.975 20.7426 202.472 20.3617C196.051 19.4366 190.229 28.0886 188.977 36.0332C188.596 38.3731 189.358 41.2571 191.371 42.0189C193.167 42.7263 194.854 41.4203 196.323 39.9511C198.119 38.1554 199.969 34.7817 200.676 33.911L200.622 37.0671C200.622 38.3187 200.622 39.407 200.948 41.0394C201.166 42.3454 201.928 42.6719 203.016 42.6719ZM192.677 38.0466C192.405 38.0466 192.514 36.523 192.677 35.8156C193.657 31.68 195.289 28.143 198.173 25.5311C199.316 24.4972 200.513 24.0075 201.819 24.0075C202.146 24.0075 202.418 24.2796 202.146 24.5516C199.86 26.8371 194.364 38.0466 192.677 38.0466Z" fill="#B83A48"/>
<path d="M219.646 42.4542C220.844 42.4542 221.388 41.6924 221.388 40.2232C221.388 37.8834 221.932 35.5435 222.585 33.2036C223.51 29.9387 224.816 26.7827 226.176 23.3545C226.829 21.7765 227.373 20.0896 225.85 19.3822C225.088 19.0013 224.163 19.219 223.564 19.9264C222.585 21.0691 220.408 24.8781 218.395 28.3607C216.109 32.2242 212.627 37.9378 211.049 37.9378C210.287 37.9378 212.627 29.3402 213.77 26.4562C214.205 25.2046 215.728 22.103 215.62 21.0147C215.511 19.491 213.715 18.9469 212.79 19.8719C211.484 21.1779 209.525 27.0547 208.6 30.4285C207.403 34.9994 206.26 40.06 209.199 41.7468C210.994 42.6719 212.845 41.8012 214.531 40.2232C215.511 39.3526 216.273 38.1554 217.415 36.6862L218.232 35.6523L218.068 37.1215C217.851 38.9717 217.633 40.7674 218.232 41.5836C218.613 42.1277 219.102 42.4542 219.646 42.4542Z" fill="#B83A48"/>
<path d="M229.035 44.7397C230.45 44.7397 231.593 43.2705 230.504 41.9101C229.634 40.7674 229.525 39.4614 229.579 38.1554C229.688 36.0877 229.96 33.8566 230.178 31.1903C230.232 30.5373 230.559 30.1564 231.048 29.8299C232.735 28.7416 234.205 27.4901 235.402 26.3473C238.177 23.681 240.299 20.8514 241.932 17.8042C242.312 17.0968 242.857 16.8247 243.673 16.8247C245.088 16.8247 246.502 16.7703 247.863 16.7703C250.039 16.7703 251.182 16.3894 251.182 14.9202C251.182 13.07 249.06 13.1789 246.883 13.1789H244.652C244.163 13.1789 244.163 13.0156 244.217 12.6891C244.924 9.42423 245.196 8.71683 244.543 7.08438C243.836 5.23426 242.149 4.41803 240.245 5.07102C237.687 5.94165 234.912 9.42423 232.899 12.6347C232.681 13.0156 232.409 13.2333 231.974 13.2333H224.083C222.396 13.2333 221.091 13.7774 221.199 15.1922C221.308 16.4438 222.451 16.9335 223.757 16.9335H229.416C230.776 16.9335 230.559 16.8791 230.123 18.0218C228.491 22.0485 227.239 26.2385 226.586 30.9182C225.933 35.5979 225.498 39.8967 226.859 43.1072C227.185 43.869 227.838 44.7397 229.035 44.7397ZM237.361 13.1789C237.089 13.1789 237.034 13.1245 237.143 12.9068C238.014 11.2199 239.265 9.85955 240.68 8.93449C240.843 8.82566 241.17 8.71683 241.17 9.20657C241.17 10.4037 240.734 11.492 240.299 12.7436C240.19 13.07 239.973 13.1789 239.701 13.1789H237.361ZM231.593 24.8237C231.865 23.681 233.552 19.219 234.15 18.0218C234.531 17.2056 234.966 16.8791 235.619 16.8791C237.306 16.8247 238.558 16.8791 237.742 17.8586C236.544 19.3278 234.531 22.7559 231.593 24.8237Z" fill="#B83A48"/>
<path d="M244.737 14.1039C245.662 14.1039 246.478 13.2877 246.478 12.3082C246.478 11.4376 245.662 10.6758 244.737 10.6758C243.812 10.6758 243.05 11.492 243.05 12.4171C243.05 13.3421 243.812 14.1039 244.737 14.1039ZM237.989 42.3998C239.241 42.3998 239.513 41.2571 239.785 40.06C240.656 36.1421 241.526 32.2242 242.723 28.5784C243.267 26.8915 244.301 23.1368 244.301 22.375C244.301 21.3411 243.594 20.5793 242.669 20.4161C240.873 20.1984 240.71 21.8853 240.111 24.0075L239.132 27.5989C238.152 31.1903 236.901 34.8361 236.302 38.4819C235.976 40.4953 235.921 42.3998 237.989 42.3998Z" fill="#B83A48"/>
<path d="M244.644 58.1258C249.106 58.1258 251.555 49.6914 250.358 43.9779C249.977 42.1822 249.106 40.5497 247.637 39.0805C247.147 38.5907 246.984 38.2098 247.147 37.6113C248.018 34.5096 248.997 31.4624 249.977 28.5239C250.086 28.1975 250.303 27.9254 250.684 27.6533C254.221 25.1502 257.649 22.375 260.86 18.7292C263.69 15.5731 266.737 10.9479 267.716 7.02996C268.26 4.85335 268.478 1.86052 266.519 0.881047C264.669 -0.0984265 263.091 1.26195 260.751 3.32973C251.99 11.4376 246.168 26.0208 242.849 39.9511C240.835 48.3311 239.42 58.1258 244.644 58.1258ZM253.079 21.1235C256.398 14.0495 259.282 9.6963 264.125 5.17985C264.342 4.96219 264.342 5.12543 264.342 5.23426C264.342 7.13879 262.384 10.7302 260.316 13.5598C258.955 15.4643 254.004 20.6337 253.079 21.1235ZM245.025 53.9358C244.699 53.9358 244.644 52.7931 244.699 52.1945C244.862 49.9091 245.624 42.9984 245.95 42.9984C246.385 42.9984 247.147 46.3721 247.093 47.4604C246.984 49.6914 245.515 53.9358 245.025 53.9358Z" fill="#B83A48"/>
<path d="M269.247 42.4542C270.444 42.4542 270.988 41.6924 270.988 40.2232C270.988 37.8834 271.533 35.5435 272.186 33.2036C273.111 29.9387 274.417 26.7827 275.777 23.3545C276.43 21.7765 276.974 20.0896 275.45 19.3822C274.689 19.0013 273.764 19.219 273.165 19.9264C272.186 21.0691 270.009 24.8781 267.996 28.3607C265.71 32.2242 262.228 37.9378 260.649 37.9378C259.888 37.9378 262.228 29.3402 263.37 26.4562C263.806 25.2046 265.329 22.103 265.22 21.0147C265.112 19.491 263.316 18.9469 262.391 19.8719C261.085 21.1779 259.126 27.0547 258.201 30.4285C257.004 34.9994 255.861 40.06 258.799 41.7468C260.595 42.6719 262.445 41.8012 264.132 40.2232C265.112 39.3526 265.873 38.1554 267.016 36.6862L267.832 35.6523L267.669 37.1215C267.451 38.9717 267.234 40.7674 267.832 41.5836C268.213 42.1277 268.703 42.4542 269.247 42.4542Z" fill="#B83A48"/>
<path d="M278.037 43.4337C278.636 43.2705 278.962 42.6719 279.071 41.9645C279.18 41.2027 278.69 40.1688 278.69 39.1893C278.69 36.6862 279.017 34.1287 279.615 31.6256C279.724 31.1903 279.887 31.027 280.377 31.027C281.411 31.027 282.336 30.102 285.057 27.7621C289.519 23.8987 292.348 18.7292 294.96 12.6891C296.049 10.0772 296.702 6.32256 294.743 5.07102C292.675 3.65622 289.464 5.724 287.288 7.9006C282.826 12.3626 280.105 17.4777 277.983 23.8987C276.568 28.1975 275.262 32.8772 275.099 37.8289C274.99 40.8762 275.371 44.0323 278.037 43.4337ZM281.085 26.3473C282.935 20.144 285.329 15.5187 288.92 11.4376C289.628 10.6758 291.641 8.77124 292.131 8.77124C292.24 8.77124 292.403 8.88007 291.587 11.2743C289.573 17.3144 286.689 20.8514 281.465 26.0753C281.248 26.2929 281.139 26.3473 281.085 26.3473Z" fill="#B83A48"/>
</svg>
