<svg width="888" height="186" viewBox="0 0 888 186" fill="none" xmlns="http://www.w3.org/2000/svg">
<g clip-path="url(#clip0_1105_1937)">
<path d="M12.1957 185.804C19.5418 185.804 25.7451 180.58 29.663 171.765C34.3971 161.481 40.6005 143.36 44.6817 129.321C45.4977 126.546 46.9671 124.424 49.0893 122.791L58.884 114.792C61.3326 112.67 80.4324 98.1413 82.0647 96.509C84.1869 94.3868 84.5136 92.1014 83.2074 89.9792C81.7383 87.6935 79.1265 86.8775 76.3512 87.857C73.7394 88.8362 72.27 90.4688 61.3326 98.7944C53.1702 104.997 58.0677 101.406 52.0275 105.814C52.0275 104.345 55.1292 95.3663 56.4354 91.1219C60.0267 79.8578 61.3326 75.7766 63.618 67.4513C64.4343 64.1864 62.9652 61.0847 60.3531 59.942C57.9045 58.7993 55.2924 59.6153 53.1702 62.0642C51.7011 63.6965 47.2935 69.8999 42.5595 76.7561L29.8262 94.8764C25.7451 100.427 17.2563 110.385 13.3384 112.507C12.5222 112.997 12.0325 112.67 12.0325 111.691C12.0325 100.917 16.9298 89.1629 22.1537 76.1033C25.2554 68.1041 25.9084 67.1246 25.9084 65.4923C25.9084 62.8802 24.7656 61.0847 22.6434 60.1052C19.3785 58.6358 16.4401 61.4111 14.8077 65.1659C9.5838 78.2255 6.80862 84.4286 5.01294 89.9792C1.91127 99.6104 -0.537411 112.507 2.56425 119.037C4.84968 124.097 9.42057 125.73 14.4812 124.097C22.8067 121.322 31.4586 111.364 41.0901 98.1413C42.0696 96.8354 42.8859 95.6927 43.8654 94.55C43.0491 96.9986 42.396 99.4472 41.58 102.059C40.2741 106.467 38.8047 110.874 37.4988 115.282C36.6825 117.894 35.5398 119.853 33.2544 121.812C27.704 126.709 22.1537 131.607 17.2563 136.341C5.50266 147.605 -1.51688 158.705 0.278815 172.908C1.25829 180.09 5.50266 185.804 12.1957 185.804ZM13.6649 174.377C9.5838 176.009 10.2368 163.929 13.8282 157.889C16.4401 153.481 27.8673 139.606 29.9895 139.606C26.7246 150.053 23.4597 160.175 18.3991 169.806C17.0931 172.255 15.6239 173.561 13.6649 174.377Z" fill="#B83A48"/>
<path d="M88.1091 125.078C95.4549 125.078 104.27 119.365 109.657 112.018C117.33 101.407 119.942 90.9596 117.493 80.1854C116.187 74.4719 113.902 66.9626 106.066 64.3508C105.576 64.1876 105.086 63.8609 104.76 63.3713C98.7201 57.3311 90.7209 62.2286 84.1911 70.2275C76.845 79.2062 72.6006 89.9804 72.6006 106.142C72.6006 115.447 78.1509 125.078 88.1091 125.078ZM88.9251 113.977C85.1706 114.467 83.538 111.039 83.538 107.611C83.538 95.3675 91.0473 72.1865 98.7201 72.1865C103.291 72.1865 107.372 81.818 107.372 89.6537C107.372 100.102 97.7406 112.998 88.9251 113.977Z" fill="#B83A48"/>
<path d="M157.613 127.361C161.205 127.361 162.837 125.076 162.837 120.668C162.837 113.649 164.47 106.629 166.429 99.6094C169.204 89.8147 173.122 80.3467 177.203 70.0621C179.162 65.3281 180.794 60.2674 176.223 58.1452C173.938 57.0025 171.163 57.6556 169.367 59.7778C166.429 63.2059 159.899 74.6329 153.859 85.0807C147.002 96.6712 136.555 113.812 131.821 113.812C129.535 113.812 136.555 88.0192 139.983 79.3672C141.289 75.6124 145.86 66.3076 145.533 63.0427C145.207 58.4716 139.82 56.8393 137.045 59.6143C133.127 63.5323 127.25 81.1627 124.475 91.2841C120.883 104.997 117.455 120.179 126.27 125.239C131.657 128.014 137.208 125.402 142.268 120.668C145.207 118.056 147.492 114.465 150.92 110.057L153.369 106.956L152.879 111.363C152.226 116.914 151.573 122.301 153.369 124.749C154.512 126.382 155.981 127.361 157.613 127.361Z" fill="#B83A48"/>
<path d="M276.119 127.689C282.812 127.689 289.995 120.507 295.219 112.834C297.341 109.732 296.198 111.365 304.36 96.9991C306.319 93.571 306.157 89.9797 303.055 88.1839C298.483 85.4086 295.872 89.9797 292.607 96.1828C289.995 101.08 280.527 115.772 277.262 115.772C275.792 115.772 275.14 108.1 275.629 104.508C276.772 96.9991 277.915 89.1634 279.874 81.4909C282.485 71.8594 275.792 61.738 266.651 59.6158C258.978 57.8203 250.653 64.1869 244.449 73.0021C238.083 81.9805 234.328 92.9179 231.879 104.835C230.573 111.038 231.553 120.017 237.43 122.955C240.368 124.425 243.796 124.261 247.388 122.302C256.693 117.242 262.896 103.039 264.692 102.06C264.692 102.06 264.529 110.549 265.018 115.609C265.671 122.955 269.426 127.689 276.119 127.689ZM242.98 111.855C241.511 111.855 243.307 102.06 244.939 96.9991C247.388 88.8367 250.979 82.1437 255.55 76.4302C259.141 72.0226 263.386 68.5945 266.651 71.8594C267.957 73.1653 268.283 73.8184 267.304 75.4507C265.018 79.2055 262.896 82.96 260.774 86.7148C257.019 93.4078 253.918 98.1418 251.795 101.733C250.653 103.855 245.266 111.855 242.98 111.855Z" fill="#B83A48"/>
<path d="M314.388 141.074C317.49 141.074 320.427 138.136 319.284 134.055C318.306 130.627 318.96 127.362 319.776 124.26C323.367 110.548 326.304 109.405 330.387 97.3245C331.038 95.3657 332.181 92.9169 332.181 90.305C332.181 84.7547 327.774 80.5104 322.224 81.4899C321.735 81.4899 317.652 82.4694 317.652 82.4694C317.652 82.3059 322.386 75.1233 323.529 69.2463C324.672 63.5327 325.815 57.3294 320.592 53.7381C318.306 52.269 315.693 51.9423 312.756 52.7586C305.082 54.8808 296.594 66.4713 293.819 76.4292C291.86 83.1222 291.696 89.4888 296.104 93.8964C302.472 100.263 308.184 97.6512 318.96 93.7332C319.611 93.4068 319.938 94.0596 319.776 94.7127C319.938 93.8964 311.613 113.486 310.632 116.424C308.349 123.444 306.063 132.422 309.165 137.646C310.47 139.768 312.267 141.074 314.388 141.074ZM304.104 81.1632C305.409 74.9601 307.041 71.2052 312.429 65.8181C313.083 65.1653 313.083 65.3286 312.918 66.1446C311.286 73.0011 308.349 78.0618 304.104 81.1632Z" fill="#B83A48"/>
<path d="M357.829 126.384C367.297 126.384 383.134 115.284 383.95 107.448C383.95 104.836 382.807 102.387 379.216 102.387C373.012 102.551 365.665 115.773 358.318 115.61C353.26 115.61 350.647 109.734 351.301 102.877C351.463 101.245 352.117 100.592 353.584 100.102C362.728 97.0004 370.726 91.9397 378.397 82.3082C380.848 79.2068 382.642 75.7784 383.458 72.1871C385.582 63.5351 379.378 56.189 370.564 56.5154C354.238 57.3317 339.871 86.8793 340.363 107.938C340.69 117.243 347.545 126.384 357.829 126.384ZM356.197 87.3689C355.87 87.5321 355.219 87.6953 355.543 86.8793C358.972 80.0228 361.747 74.6357 365.83 70.5548C368.929 67.4531 372.685 66.4736 372.685 69.2486C372.685 74.4725 363.706 83.6144 356.197 87.3689Z" fill="#B83A48"/>
<path d="M463.927 125.567C470.62 125.567 471.274 124.26 490.372 118.22C501.637 114.792 515.677 107.936 523.84 99.7737C526.939 96.672 530.041 93.2439 527.104 89.6523C524.491 86.5506 520.738 87.3669 516.493 91.6113C512.086 96.0189 507.025 99.7737 500.983 102.222C500.167 102.549 499.189 103.039 497.719 103.528C498.373 102.222 498.862 101.08 499.516 99.9369L502.453 94.0599C505.066 88.836 506.209 84.102 506.209 77.409C506.209 71.8587 504.739 66.9612 500.494 64.3494C495.271 61.0845 488.74 63.2067 483.19 66.9612C483.19 66.798 486.781 61.2477 488.251 59.1255C494.455 49.8204 498.535 39.6993 500.659 29.4148C502.942 18.1509 496.414 7.37667 485.476 12.6005C478.456 15.7022 470.62 26.1499 466.051 36.2712C460.174 49.0044 456.418 63.0435 453.97 79.2048C452.665 88.02 451.522 97.4883 449.071 117.241C449.071 121.812 450.052 124.75 455.929 124.75C456.745 124.75 457.399 124.75 458.05 124.913C460.009 125.403 461.968 125.567 463.927 125.567ZM466.867 69.5733C464.908 69.5733 475.681 40.842 479.437 34.3122C482.047 30.0678 487.597 23.2115 489.556 23.2115C490.21 23.2115 490.048 26.9661 489.232 30.0678C487.108 37.4139 484.333 44.9232 479.761 52.2693C476.662 57.1665 467.683 69.5733 466.867 69.5733ZM462.133 112.997C462.133 106.793 476.17 88.3464 484.171 80.3475C486.619 77.8986 492.007 74.1441 493.966 74.1441C495.271 74.1441 495.433 76.9191 495.433 78.2253C495.433 79.6944 494.944 82.3062 494.455 84.2652C492.007 92.9172 487.597 100.1 481.885 105.977C477.313 110.711 468.01 113.813 462.133 112.997Z" fill="#B83A48"/>
<path d="M534.196 126.384C543.664 126.384 559.498 115.284 560.314 107.448C560.314 104.836 559.171 102.387 555.58 102.387C549.376 102.551 542.032 115.773 534.685 115.61C529.624 115.61 527.011 109.734 527.665 102.877C527.83 101.245 528.481 100.592 529.951 100.102C539.092 97.0004 547.093 91.9397 554.764 82.3082C557.212 79.2068 559.009 75.7784 559.825 72.1871C561.946 63.5351 555.745 56.189 546.928 56.5154C530.605 57.3317 516.238 86.8793 516.727 107.938C517.054 117.243 523.912 126.384 534.196 126.384ZM532.564 87.3689C532.237 87.5321 531.583 87.6953 531.91 86.8793C535.339 80.0228 538.114 74.6357 542.194 70.5548C545.296 67.4531 549.049 66.4736 549.049 69.2486C549.049 74.4725 540.073 83.6144 532.564 87.3689Z" fill="#B83A48"/>
<path d="M609.047 128.017C612.476 128.017 614.435 126.058 613.454 119.365C611.171 103.53 613.454 92.756 617.699 75.452C619.331 69.0854 614.924 62.2292 607.415 61.0865C588.152 58.3112 570.686 84.2672 566.93 108.101C565.787 115.121 568.073 123.773 574.112 126.058C579.5 128.18 584.561 124.262 588.968 119.855C594.356 114.468 599.906 104.347 602.027 101.734L601.865 111.203C601.865 114.958 601.865 118.222 602.843 123.12C603.497 127.038 605.783 128.017 609.047 128.017ZM578.03 114.141C577.214 114.141 577.541 109.57 578.03 107.448C580.97 95.0414 585.866 84.4304 594.518 76.5947C597.947 73.493 601.538 72.0239 605.456 72.0239C606.437 72.0239 607.253 72.8402 606.437 73.6562C599.579 80.5127 583.091 114.141 578.03 114.141Z" fill="#B83A48"/>
<path d="M658.938 127.361C662.532 127.361 664.164 125.076 664.164 120.668C664.164 113.649 665.796 106.629 667.755 99.6094C670.53 89.8147 674.448 80.3467 678.528 70.0621C680.487 65.3281 682.119 60.2674 677.55 58.1452C675.264 57.0025 672.489 57.6556 670.692 59.7778C667.755 63.2059 661.224 74.6329 655.185 85.0807C648.327 96.6712 637.881 113.812 633.147 113.812C630.861 113.812 637.881 88.0192 641.31 79.3672C642.615 75.6124 647.184 66.3076 646.86 63.0427C646.533 58.4716 641.145 56.8393 638.37 59.6143C634.452 63.5323 628.575 81.1627 625.8 91.2841C622.209 104.997 618.78 120.179 627.597 125.239C632.982 128.014 638.535 125.402 643.593 120.668C646.533 118.056 648.819 114.465 652.245 110.057L654.696 106.956L654.204 111.363C653.553 116.914 652.899 122.301 654.696 124.749C655.839 126.382 657.306 127.361 658.938 127.361Z" fill="#B83A48"/>
<path d="M687.104 134.22C691.349 134.22 694.778 129.812 691.511 125.731C688.901 122.303 688.574 118.385 688.736 114.467C689.063 108.264 689.879 101.571 690.533 93.5718C690.695 91.6128 691.676 90.4701 693.143 89.4906C698.204 86.2257 702.614 82.4712 706.205 79.0428C714.53 71.0439 720.896 62.5551 725.795 53.4135C726.935 51.2913 728.57 50.475 731.018 50.475C735.263 50.475 739.505 50.3118 743.588 50.3118C750.116 50.3118 753.545 49.1691 753.545 44.7615C753.545 39.2109 747.179 39.5376 740.648 39.5376H733.955C732.488 39.5376 732.488 39.0477 732.65 38.0682C734.771 28.2736 735.587 26.1514 733.628 21.2541C731.507 15.7037 726.446 13.255 720.734 15.214C713.06 17.8259 704.735 28.2736 698.696 37.905C698.042 39.0477 697.226 39.7008 695.921 39.7008H672.248C667.187 39.7008 663.272 41.3331 663.596 45.5775C663.923 49.3323 667.352 50.8014 671.27 50.8014H688.247C692.327 50.8014 691.676 50.6382 690.368 54.0663C685.472 66.1464 681.716 78.7164 679.757 92.7555C677.798 106.795 676.493 119.691 680.576 129.323C681.554 131.608 683.513 134.22 687.104 134.22ZM712.082 39.5376C711.266 39.5376 711.101 39.3744 711.428 38.7213C714.041 33.6606 717.794 29.5796 722.039 26.8044C722.528 26.4779 723.509 26.1514 723.509 27.6206C723.509 31.212 722.201 34.4769 720.896 38.2317C720.569 39.2109 719.918 39.5376 719.102 39.5376H712.082ZM694.778 74.472C695.594 71.0439 700.655 57.6579 702.449 54.0663C703.592 51.6177 704.897 50.6382 706.856 50.6382C711.917 50.475 715.673 50.6382 713.225 53.5767C709.631 57.9843 703.592 68.2686 694.778 74.472Z" fill="#B83A48"/>
<path d="M734.211 42.3116C736.986 42.3116 739.434 39.863 739.434 36.9245C739.434 34.3127 736.986 32.0273 734.211 32.0273C731.436 32.0273 729.15 34.4759 729.15 37.2512C729.15 40.0262 731.436 42.3116 734.211 42.3116ZM713.967 127.199C717.723 127.199 718.539 123.771 719.355 120.18C721.968 108.426 724.578 96.6725 728.169 85.7351C729.801 80.6744 732.903 69.4103 732.903 67.1249C732.903 64.0232 730.782 61.7378 728.007 61.2482C722.619 60.5951 722.13 65.6558 720.333 72.0224L717.396 82.7966C714.456 93.5708 710.703 104.508 708.906 115.446C707.928 121.486 707.763 127.199 713.967 127.199Z" fill="#B83A48"/>
<path d="M733.932 174.377C747.318 174.377 754.665 149.074 751.074 131.934C749.931 126.547 747.318 121.649 742.911 117.242C741.441 115.772 740.952 114.629 741.441 112.834C744.054 103.529 746.991 94.3872 749.931 85.5717C750.258 84.5925 750.909 83.7762 752.052 82.9599C762.663 75.4506 772.947 67.125 782.58 56.1876C791.07 46.7193 800.211 32.8437 803.148 21.0899C804.78 14.5601 805.434 5.58156 799.557 2.64314C794.007 -0.295279 789.273 3.78585 782.253 9.98919C755.97 34.3128 738.504 78.0624 728.547 119.853C722.505 144.993 718.26 174.377 733.932 174.377ZM759.237 63.3705C769.194 42.1485 777.846 29.0889 792.375 15.5396C793.026 14.8866 793.026 15.3763 793.026 15.7028C793.026 21.4164 787.152 32.1906 780.948 40.6794C776.865 46.3929 762.012 61.9011 759.237 63.3705ZM735.075 161.807C734.097 161.807 733.932 158.379 734.097 156.584C734.586 149.727 736.872 128.995 737.85 128.995C739.155 128.995 741.441 139.116 741.279 142.381C740.952 149.074 736.545 161.807 735.075 161.807Z" fill="#B83A48"/>
<path d="M807.74 127.361C811.331 127.361 812.963 125.076 812.963 120.668C812.963 113.649 814.598 106.629 816.557 99.6094C819.332 89.8147 823.25 80.3467 827.33 70.0621C829.289 65.3281 830.921 60.2674 826.349 58.1452C824.066 57.0025 821.291 57.6556 819.494 59.7778C816.557 63.2059 810.026 74.6329 803.987 85.0807C797.129 96.6712 786.683 113.812 781.946 113.812C779.663 113.812 786.683 88.0192 790.109 79.3672C791.417 75.6124 795.986 66.3076 795.659 63.0427C795.335 58.4716 789.947 56.8393 787.172 59.6143C783.254 63.5323 777.377 81.1627 774.602 91.2841C771.011 104.997 767.582 120.179 776.396 125.239C781.784 128.014 787.334 125.402 792.395 120.668C795.335 118.056 797.618 114.465 801.047 110.057L803.495 106.956L803.006 111.363C802.352 116.914 801.701 122.301 803.495 124.749C804.638 126.382 806.108 127.361 807.74 127.361Z" fill="#B83A48"/>
<path d="M834.112 130.301C835.909 129.812 836.887 128.016 837.214 125.894C837.541 123.608 836.071 120.506 836.071 117.568C836.071 110.059 837.052 102.386 838.846 94.8769C839.173 93.571 839.662 93.0811 841.132 93.0811C844.234 93.0811 847.009 90.3061 855.172 83.2864C868.558 71.6962 877.045 56.1877 884.881 38.0674C888.148 30.2317 890.107 18.9677 884.23 15.2131C878.026 10.9687 868.393 17.1721 861.865 23.7019C848.479 37.0879 840.316 52.4332 833.95 71.6962C829.705 84.5926 825.787 98.6317 825.298 113.487C824.971 122.629 826.114 132.097 834.112 130.301ZM843.256 79.042C848.806 60.4321 855.988 46.5562 866.761 34.3129C868.885 32.0275 874.924 26.3138 876.394 26.3138C876.721 26.3138 877.21 26.6403 874.762 33.823C868.72 51.9433 860.068 62.5543 844.396 78.226C843.745 78.8788 843.418 79.042 843.256 79.042Z" fill="#B83A48"/>
</g>
<defs>
<clipPath id="clip0_1105_1937">
<rect width="888" height="186" fill="white"/>
</clipPath>
</defs>
</svg>
