<svg width="241" height="295" viewBox="0 0 241 295" fill="none" xmlns="http://www.w3.org/2000/svg">
<rect y="0.36377" width="240.04" height="294.389" rx="16.984" fill="#E09787"/>
<rect y="0.36377" width="240.04" height="294.389" rx="16.984" fill="black" fill-opacity="0.03"/>
<line x1="12.1695" y1="56.0868" x2="227.866" y2="56.0868" stroke="white" stroke-opacity="0.5" stroke-width="1.6984" stroke-linecap="round"/>
<path d="M97.9655 37.4301C97.7617 37.3395 97.5805 37.1583 97.5126 36.9319C97.422 36.7054 97.4673 36.3884 97.4446 36.1393C97.4446 35.007 97.4673 33.8748 97.4673 32.7425C97.4899 31.3838 97.5126 30.0251 97.5352 28.6437C97.6032 24.1373 97.6711 20.3329 97.6937 20.1744L97.739 19.9026L97.105 19.9479C95.4519 20.0385 93.21 20.0385 92.9609 19.9479C92.6438 19.8573 92.3495 19.4497 92.3495 19.1327C92.3495 18.7024 92.5986 18.408 93.1194 18.2495C93.4138 18.1816 103.197 18.0004 103.717 18.0684C104.238 18.1589 104.804 18.5666 104.691 19.178C104.601 19.6988 104.148 19.812 103.695 19.8573C103.083 19.9026 102.449 19.88 101.838 19.9026L99.5507 19.9479L99.5054 21.1255C99.4827 21.7822 99.4148 25.5866 99.3695 29.5495C99.3016 35.1203 99.2563 36.8413 99.1657 37.0225C98.9619 37.5207 98.3957 37.6339 97.9655 37.4301ZM111.085 24.1826C112.874 25.8357 113.666 29.006 113.055 32.0405C113.055 32.0858 113.032 32.1084 113.032 32.1537C112.489 34.7353 110.496 37.9283 107.394 37.2263C106.397 36.9998 105.605 36.3657 105.016 35.5732C102.615 32.3802 103.091 26.5377 105.967 24.1147C107.575 22.7559 109.545 22.7786 111.085 24.1826ZM111.311 31.3838C111.47 30.4553 111.424 28.9381 111.198 28.0323C110.858 26.7189 110.111 25.5639 109.296 25.179C107.779 24.409 106.125 25.9263 105.491 28.6437C105.038 30.6365 105.22 33.4898 106.895 34.8938C109.318 36.9319 110.971 33.3086 111.311 31.3838ZM123.458 16.8002C123.481 16.9135 123.458 17.8419 123.413 18.8836C123.254 23.5259 123.254 25.3149 123.3 30.6365C123.39 36.8187 123.39 36.6375 122.96 36.9092C122.507 37.181 121.941 37.0225 121.692 36.5696C121.578 36.3884 121.533 36.094 121.511 34.6674L121.465 32.9916L121.058 33.8068C120.265 35.3694 119.45 36.3431 118.521 36.7734C117.57 37.2263 116.529 37.0904 115.781 36.3431C115.17 35.709 114.853 34.8259 114.649 33.9653C114.377 32.7425 114.377 31.4291 114.536 30.1836C114.853 27.7605 115.917 24.3637 118.499 23.4579C119.291 23.1862 120.582 23.2994 121.239 23.7297L121.397 23.8429L121.443 22.9371C121.465 22.4389 121.533 20.8764 121.556 19.4724C121.624 17.2305 121.646 16.8682 121.76 16.6417C121.941 16.2794 122.371 16.0529 122.733 16.1209C123.028 16.1888 123.39 16.5285 123.458 16.8002ZM120.333 30.8177C121.035 28.9381 121.42 27.6473 121.42 27.1491C121.42 26.6283 121.171 25.9942 120.854 25.7225C119.971 24.9299 118.974 24.9752 118.227 25.813C117.276 26.9227 116.687 28.372 116.37 30.4327C116.189 31.7008 116.28 33.0142 116.642 34.2597C116.8 34.8712 117.185 35.4146 117.865 35.0297C118.544 34.6221 118.952 33.8748 119.291 33.1954C119.699 32.4255 120.016 31.6329 120.333 30.8177ZM134.269 31.3158C134.337 35.8902 134.314 36.3657 134.201 36.5922C133.884 37.2036 133.001 37.181 132.638 36.5696C132.525 36.3884 132.503 36.094 132.457 34.6674L132.435 32.9916L132.027 33.8068C131.234 35.3694 130.419 36.3431 129.468 36.7734C126.751 38.0641 125.618 34.8032 125.415 32.7425C125.188 30.2289 125.981 27.0132 127.294 25.2469C128.313 23.8656 129.219 23.3221 130.51 23.3221C131.28 23.3221 131.823 23.4806 132.503 23.9335C133.68 24.7034 134.224 26.0395 134.246 27.3982C134.246 27.9643 134.246 28.5305 134.246 29.0966C134.269 29.8213 134.269 30.5686 134.269 31.3158ZM131.28 30.8177C132.004 28.8702 132.367 27.6473 132.367 27.1038C132.367 25.6998 130.872 24.7034 129.762 25.3601C128.291 26.2207 127.136 29.391 127.249 32.199C127.271 32.8104 127.407 35.075 128.291 35.1655C128.472 35.1882 128.675 35.1203 128.834 35.007C130.147 34.1918 130.782 32.1764 131.28 30.8177ZM139.379 44.971C138.519 44.7671 136.888 44.1784 137.047 43.114C137.115 42.6838 137.477 42.3667 137.908 42.3894C138.564 42.3894 139.085 42.9555 139.696 43.1367C140.761 43.4764 142.006 43.3405 142.822 42.5479C143.365 42.0271 143.75 40.9854 143.931 39.5361C144.044 38.7435 144.248 32.0858 144.18 31.9952C144.158 31.9952 144.022 32.3122 143.863 32.7425C143.456 33.8295 142.776 35.2108 142.369 35.777C141.395 37.0678 139.674 37.6112 138.338 36.4563C137.545 35.7543 137.138 34.7126 136.911 33.671C136.458 31.6102 136.504 29.5042 136.594 27.3982C136.639 26.5151 136.685 25.6319 136.753 24.7487C136.775 24.409 136.798 24.0467 136.934 23.7297C137.092 23.4126 137.409 23.1409 137.749 23.1636C138.111 23.1862 138.406 23.5032 138.519 23.8429C138.632 24.1826 138.61 24.5676 138.587 24.9299C138.383 27.3982 138.179 30.0024 138.564 32.4708C138.677 33.1954 138.972 35.0523 139.855 35.2561C140.67 35.4599 141.236 34.1239 141.508 33.5804C142.233 32.1084 142.708 30.5686 143.184 28.2814C143.773 25.4281 144.135 23.8882 144.248 23.6617C144.429 23.3674 144.837 23.1636 145.154 23.2088C145.471 23.2541 145.811 23.5712 145.901 23.9108C146.015 24.3637 146.082 30.9988 145.992 34.8485C145.901 39.4682 145.743 40.8042 145.222 42.1176C144.701 43.3631 144.067 44.1104 143.003 44.6313C141.916 45.1748 140.648 45.288 139.47 44.9936C139.447 44.9936 139.402 44.9936 139.379 44.971Z" fill="white"/>
</svg>
