<svg width="723" height="885" viewBox="0 0 723 885" fill="none" xmlns="http://www.w3.org/2000/svg">
<path d="M669.168 1.09277H50.952C22.812 1.09277 0 23.9048 0 52.0448V833.308C0 861.448 22.812 884.26 50.952 884.26H669.168C697.308 884.26 720.12 861.448 720.12 833.308V52.0448C720.12 23.9048 697.308 1.09277 669.168 1.09277Z" fill="#E09787"/>
<path d="M669.168 1.09277H50.952C22.812 1.09277 0 23.9048 0 52.0448V833.308C0 861.448 22.812 884.26 50.952 884.26H669.168C697.308 884.26 720.12 861.448 720.12 833.308V52.0448C720.12 23.9048 697.308 1.09277 669.168 1.09277Z" fill="black" fill-opacity="0.03"/>
<path d="M36.5098 168.261H683.599" stroke="white" stroke-opacity="0.5" stroke-width="5.0952" stroke-linecap="round"/>
<path d="M293.897 112.289C293.285 112.017 292.742 111.473 292.538 110.794C292.266 110.115 292.402 109.164 292.334 108.416C292.334 105.02 292.402 101.623 292.402 98.2261C292.47 94.15 292.538 90.0739 292.606 85.9297C292.81 72.4105 293.014 60.9973 293.081 60.5218L293.217 59.7064L291.315 59.8423C286.356 60.1141 279.63 60.1141 278.883 59.8423C277.932 59.5705 277.049 58.3477 277.049 57.3967C277.049 56.1058 277.796 55.2226 279.359 54.7471C280.242 54.5434 309.591 53.9998 311.151 54.2038C312.714 54.4753 314.412 55.6984 314.073 57.5326C313.803 59.095 312.444 59.4346 311.085 59.5705C309.249 59.7064 307.347 59.6386 305.514 59.7064L298.652 59.8423L298.517 63.3751C298.448 65.3452 298.245 76.7584 298.109 88.6471C297.905 105.359 297.769 110.522 297.497 111.066C296.886 112.561 295.187 112.9 293.897 112.289ZM333.255 72.5464C338.622 77.5057 340.998 87.0166 339.165 96.1201C339.165 96.256 339.096 96.3238 339.096 96.4597C337.467 104.204 331.488 113.783 322.182 111.677C319.191 110.998 316.815 109.096 315.048 106.718C307.845 97.1392 309.273 79.6117 317.901 72.3427C322.725 68.2663 328.635 68.3344 333.255 72.5464ZM333.933 94.15C334.41 91.3645 334.272 86.8129 333.594 84.0955C332.574 80.1553 330.333 76.6903 327.888 75.5356C323.337 73.2256 318.375 77.7775 316.473 85.9297C315.114 91.9081 315.66 100.468 320.685 104.68C327.954 110.794 332.913 99.9244 333.933 94.15ZM370.374 50.3992C370.443 50.7391 370.374 53.5243 370.239 56.6494C369.762 70.5763 369.762 75.9433 369.9 91.9081C370.17 110.455 370.17 109.911 368.88 110.726C367.521 111.542 365.823 111.066 365.076 109.707C364.734 109.164 364.599 108.281 364.533 104.001L364.395 98.9734L363.174 101.419C360.795 106.107 358.35 109.028 355.563 110.319C352.71 111.677 349.587 111.27 347.343 109.028C345.51 107.126 344.559 104.476 343.947 101.894C343.131 98.2261 343.131 94.2859 343.608 90.5494C344.559 83.2801 347.751 73.0897 355.497 70.3723C357.873 69.5572 361.746 69.8968 363.717 71.1877L364.191 71.5273L364.329 68.8099C364.395 67.3153 364.599 62.6278 364.668 58.4158C364.872 51.6901 364.938 50.6032 365.28 49.9237C365.823 48.8368 367.113 48.1573 368.199 48.3613C369.084 48.565 370.17 49.5841 370.374 50.3992ZM360.999 92.4517C363.105 86.8129 364.26 82.9405 364.26 81.4459C364.26 79.8835 363.513 77.9812 362.562 77.1661C359.913 74.7883 356.922 74.9242 354.681 77.4376C351.828 80.7667 350.061 85.1146 349.11 91.2967C348.567 95.101 348.84 99.0412 349.926 102.778C350.4 104.612 351.555 106.242 353.595 105.088C355.632 103.865 356.856 101.623 357.873 99.5848C359.097 97.2751 360.048 94.8973 360.999 92.4517ZM402.807 93.946C403.011 107.669 402.942 109.096 402.603 109.775C401.652 111.609 399.003 111.542 397.914 109.707C397.575 109.164 397.509 108.281 397.371 104.001L397.305 98.9734L396.081 101.419C393.702 106.107 391.257 109.028 388.404 110.319C380.253 114.191 376.854 104.408 376.245 98.2261C375.564 90.6853 377.943 81.0382 381.882 75.7393C384.939 71.5954 387.657 69.9649 391.53 69.9649C393.84 69.9649 395.469 70.4404 397.509 71.7991C401.04 74.1088 402.672 78.1171 402.738 82.1932C402.738 83.8915 402.738 85.5901 402.738 87.2884C402.807 89.4625 402.807 91.7044 402.807 93.946ZM393.84 92.4517C396.012 86.6092 397.101 82.9405 397.101 81.31C397.101 77.098 392.616 74.1088 389.286 76.0789C384.873 78.6607 381.408 88.1716 381.747 96.5956C381.813 98.4298 382.221 105.224 384.873 105.495C385.416 105.563 386.025 105.359 386.502 105.02C390.441 102.574 392.346 96.5278 393.84 92.4517ZM418.137 134.912C415.557 134.3 410.664 132.534 411.141 129.341C411.345 128.05 412.431 127.099 413.724 127.167C415.692 127.167 417.255 128.865 419.088 129.409C422.283 130.428 426.018 130.02 428.466 127.642C430.095 126.08 431.25 122.955 431.793 118.607C432.132 116.229 432.744 96.256 432.54 95.9842C432.474 95.9842 432.066 96.9352 431.589 98.2261C430.368 101.487 428.328 105.631 427.107 107.33C424.185 111.202 419.022 112.832 415.014 109.367C412.635 107.261 411.414 104.136 410.733 101.012C409.374 94.8292 409.512 88.5112 409.782 82.1932C409.917 79.5439 410.055 76.8943 410.259 74.2447C410.325 73.2256 410.394 72.1387 410.802 71.1877C411.276 70.2364 412.227 69.4213 413.247 69.4894C414.333 69.5572 415.218 70.5082 415.557 71.5273C415.896 72.5464 415.83 73.7014 415.761 74.7883C415.149 82.1932 414.537 90.0058 415.692 97.411C416.031 99.5848 416.916 105.155 419.565 105.767C422.01 106.378 423.708 102.37 424.524 100.74C426.699 96.3238 428.124 91.7044 429.552 84.8428C431.319 76.2829 432.405 71.6632 432.744 70.9837C433.287 70.1008 434.511 69.4894 435.462 69.625C436.413 69.7609 437.433 70.7122 437.703 71.731C438.045 73.0897 438.246 92.995 437.976 104.544C437.703 118.403 437.229 122.411 435.666 126.351C434.103 130.088 432.201 132.33 429.009 133.892C425.748 135.523 421.944 135.863 418.41 134.979C418.341 134.979 418.206 134.979 418.137 134.912Z" fill="white"/>
</svg>
