<svg width="312" height="78" viewBox="0 0 312 78" fill="none" xmlns="http://www.w3.org/2000/svg">
<path d="M0 2.94347C0 1.58454 1.10163 0.48291 2.46057 0.48291H281.262C282.026 0.48291 282.746 0.837734 283.212 1.44324L310.846 37.3675C311.526 38.252 311.526 39.4835 310.846 40.368L283.212 76.2923C282.746 76.8978 282.026 77.2526 281.262 77.2526H2.46057C1.10163 77.2526 0 76.151 0 74.7921V2.94347Z" fill="#76DC9F"/>
<path d="M300.517 32.8004L302.976 35.9992L302.183 36.6086L303.412 38.2079C303.68 38.5559 303.68 39.0403 303.412 39.3883L302.183 40.9877L302.976 41.5971L300.517 44.7958L299.724 44.1864L297.266 47.3851L298.058 47.9945L295.6 51.1933L294.807 50.5839L292.348 53.7826L293.141 54.392L290.682 57.5908L289.89 56.9814L287.431 60.1801L288.224 60.7895L285.765 63.9882L284.972 63.3788L282.514 66.5776L283.307 67.187L280.848 70.3857L280.055 69.7763L278.826 71.3757C278.643 71.6142 278.359 71.754 278.058 71.754H276.071V72.754H272.098V71.754H268.125V72.754H264.152V71.754H260.179V72.754H256.206V71.754H252.233V72.754H248.26V71.754H244.287V72.754H240.314V71.754H236.341V72.754H232.368V71.754H228.395V72.754H224.422V71.754H220.449V72.754H216.476V71.754H212.503V72.754H208.529V71.754H204.556V72.754H200.583V71.754H196.61V72.754H192.637V71.754H188.664V72.754H184.691V71.754H180.718V72.754H176.745V71.754H172.772V72.754H168.799V71.754H164.826V72.754H160.853V71.754H156.88V72.754H152.907V71.754H148.934V72.754H144.961V71.754H140.988V72.754H137.015V71.754H133.041V72.754H129.068V71.754H125.095V72.754H121.122V71.754H117.149V72.754H113.176V71.754H109.203V72.754H105.23V71.754H101.257V72.754H97.284V71.754H93.311V72.754H89.3379V71.754H85.3649V72.754H81.3918V71.754H77.4188V72.754H73.4457V71.754H69.4727V72.754H65.4996V71.754H61.5266V72.754H57.5535V71.754H53.5804V72.754H49.6074V71.754H45.6343V72.754H41.6613V71.754H37.6882V72.754H33.7152V71.754H29.7421V72.754H25.7691V71.754H21.796V72.754H17.823V71.754H13.8499V72.754H9.87685V71.754H7.89032C7.35546 71.754 6.92188 71.3204 6.92188 70.7855V68.7863H5.92188V64.7879H6.92188V60.7894H5.92188V56.791H6.92188V52.7926H5.92188V48.7942H6.92188V44.7958H5.92188V40.7973H6.92188V36.7989H5.92188V32.8005H6.92188V28.8021H5.92188V24.8036H6.92188V20.8052H5.92188V16.8068H6.92188V12.8084H5.92188V8.80995H6.92188V6.81074C6.92188 6.27588 7.35547 5.84229 7.89033 5.84229H9.87694V4.84229H13.85V5.84229H17.823V4.84229H21.7961V5.84229H25.7691V4.84229H29.7422V5.84229H33.7153V4.84229H37.6883V5.84229H41.6614V4.84229H45.6344V5.84229H49.6075V4.84229H53.5805V5.84229H57.5536V4.84229H61.5266V5.84229H65.4997V4.84229H69.4727V5.84229H73.4458V4.84229H77.4188V5.84229H81.3919V4.84229H85.365V5.84229H89.338V4.84229H93.3111V5.84229H97.2841V4.84229H101.257V5.84229H105.23V4.84229H109.203V5.84229H113.176V4.84229H117.149V5.84229H121.122V4.84229H125.095V5.84229H129.069V4.84229H133.042V5.84229H137.015V4.84229H140.988V5.84229H144.961V4.84229H148.934V5.84229H152.907V4.84229H156.88V5.84229H160.853V4.84229H164.826V5.84229H168.799V4.84229H172.772V5.84229H176.745V4.84229H180.718V5.84229H184.691V4.84229H188.664V5.84229H192.637V4.84229H196.61V5.84229H200.583V4.84229H204.557V5.84229H208.53V4.84229H212.503V5.84229H216.476V4.84229H220.449V5.84229H224.422V4.84229H228.395V5.84229H232.368V4.84229H236.341V5.84229H240.314V4.84229H244.287V5.84229H248.26V4.84229H252.233V5.84229H256.206V4.84229H260.179V5.84229H264.152V4.84229H268.125V5.84229H272.098V4.84229H276.072V5.84229H278.058C278.359 5.84229 278.643 5.98206 278.826 6.22056L280.055 7.81992L280.848 7.21051L283.307 10.4093L282.514 11.0187L284.972 14.2174L285.765 13.608L288.224 16.8067L287.431 17.4161L289.89 20.6149L290.683 20.0055L293.141 23.2042L292.348 23.8136L294.807 27.0124L295.6 26.4029L298.058 29.6017L297.266 30.2111L299.724 33.4098L300.517 32.8004Z" stroke="white" stroke-width="2" stroke-dasharray="3.94 3.94"/>
</svg>
