<svg width="888" height="411" viewBox="0 0 888 411" fill="none" xmlns="http://www.w3.org/2000/svg">
<path d="M169.069 409.664C165.235 409.664 162.169 407.96 159.868 404.549C157.568 401.141 156.418 396.197 156.418 389.717L155.843 314.024C155.459 307.547 155.268 296.806 155.268 281.804C154.501 250.095 154.117 214.294 154.117 174.401V148.318C150.667 164.684 144.725 187.699 136.291 217.362C127.856 248.049 121.914 273.28 118.463 293.055V296.124L116.738 305.84C115.972 313.343 114.055 321.014 110.988 328.856C107.154 337.04 101.212 341.132 93.1605 341.132C79.359 341.132 72.4584 325.106 72.4584 293.055C72.4584 275.325 70.3497 256.402 66.1326 236.286C62.2989 215.828 55.9731 190.767 47.1555 161.104L29.9034 103.822L28.7533 165.195C28.7533 183.607 29.7117 218.726 31.6287 270.552L32.7786 305.33L33.9288 375.398C33.9288 382.556 31.0536 389.036 25.3029 394.832C15.7185 394.832 9.00936 392.276 5.1756 387.161C1.7252 381.704 0 373.862 0 363.635L1.15013 321.695C2.30026 303.284 2.87533 289.476 2.87533 280.269L0.575067 82.3421C0.575067 67.6808 0.958443 45.6887 1.7252 16.3661L17.252 8.18303C20.319 8.52401 23.386 10.5698 26.453 14.3203C29.52 17.7299 32.9703 23.3558 36.8043 31.1978C46.3887 52.3376 58.8483 94.6166 74.1834 158.035C76.4838 166.9 78.0171 174.231 78.7839 180.027C83.3844 199.803 86.6433 214.805 88.56 225.034L97.1862 264.415L101.212 247.537L112.138 205.599C118.272 181.05 123.256 159.57 127.09 141.158C131.307 122.746 135.332 102.8 139.166 81.3191C143.383 55.7471 146.067 34.4369 147.217 17.389V14.3203C147.983 9.88784 150.284 6.47825 154.117 4.09154C157.951 1.36384 162.552 0 167.919 0C171.37 0 174.436 1.36384 177.12 4.09154C179.804 6.8192 181.146 9.71735 181.146 12.786C181.146 53.7014 182.871 114.904 186.321 196.393C188.238 236.286 189.58 275.325 190.347 313.514C191.113 330.902 191.497 352.895 191.497 379.49C191.497 387.332 189.196 394.322 184.596 400.457C179.995 406.595 174.82 409.664 169.069 409.664Z" fill="#5A8551"/>
<path d="M377.89 400.97C369.073 400.97 362.557 399.776 358.339 397.388C354.121 395.003 352.012 390.569 352.012 384.092C352.012 373.862 350.095 356.474 346.261 331.925L343.963 321.185L287.03 313.514C284.73 321.356 281.471 337.211 277.254 361.076C274.954 377.783 271.312 388.865 266.328 394.322C263.644 397.388 259.811 398.924 254.827 398.924C250.226 398.924 246.009 397.73 242.175 395.342C238.341 392.615 236.424 389.378 236.424 385.625L237.575 383.069L238.15 381.023C263.453 293.396 282.621 206.963 295.656 121.723C295.656 120.359 295.848 118.143 296.231 115.074C296.615 111.664 296.998 106.891 297.381 100.754C298.532 88.1382 299.682 78.0798 300.832 70.5786C302.365 63.0774 304.666 57.4518 307.732 53.7012H327.286C332.653 53.7012 337.252 54.8946 341.086 57.2811C344.92 59.3271 346.837 62.3955 346.837 66.4872C346.837 92.4 350.863 130.929 358.915 182.073C366.58 234.58 370.414 271.404 370.414 292.544C370.414 294.59 371.374 299.875 373.291 308.399C375.208 316.241 376.165 321.356 376.165 323.741C376.165 326.129 378.082 336.356 381.916 354.428C385.366 370.793 387.091 381.365 387.091 386.138V386.648C387.091 394.151 384.025 398.924 377.89 400.97ZM339.937 302.774C338.785 297.658 338.212 291.351 338.212 283.849C338.212 253.163 335.143 213.952 329.011 166.218L323.26 113.028C306.775 193.154 295.465 253.674 289.331 294.59C295.081 297.999 311.95 300.728 339.937 302.774Z" fill="#5A8551"/>
<path d="M537.084 405.063C528.651 405.063 520.983 396.879 514.083 380.514C506.031 362.784 500.088 344.541 496.254 325.788L492.228 308.4C481.11 259.642 474.018 231.854 470.952 225.035H464.052C464.052 234.923 463.86 243.958 463.476 252.141V280.27C463.476 325.959 467.118 361.59 474.402 387.162L468.075 400.971H451.974L444.498 393.3L445.074 359.031C445.074 328.347 443.349 281.805 439.899 219.409C436.83 152.921 435.297 106.38 435.297 79.7856C435.297 63.4194 441.624 55.2363 454.275 55.2363C474.978 55.2363 491.847 60.0099 504.882 69.5568C518.298 79.1037 525.009 92.4009 525.009 109.449V145.25C525.009 150.364 524.049 156.331 522.132 163.15C520.215 169.629 518.106 174.914 515.808 179.005L504.882 197.417L495.681 212.76L498.555 225.035L506.607 261.347C511.974 287.601 517.149 308.91 522.132 325.278C527.115 341.643 533.25 356.475 540.534 369.771L543.984 375.909C547.818 382.728 549.735 388.185 549.735 392.277C549.735 395.685 548.586 398.583 546.285 400.971C543.984 403.698 540.918 405.063 537.084 405.063ZM466.35 199.974C474.786 196.223 481.878 185.995 487.629 169.288C493.764 152.24 496.83 136.556 496.83 122.235C496.83 111.324 495.297 101.096 492.228 91.5486C490.311 86.0931 487.053 82.0017 482.454 79.2741C478.236 76.2054 472.869 74.6712 466.35 74.6712L465.201 77.2284L464.052 81.8313L465.201 142.181C465.969 159.911 466.35 179.176 466.35 199.974Z" fill="#5A8551"/>
<path d="M683.105 403.528C674.672 403.528 665.66 402.334 656.078 399.949C646.877 397.903 639.783 395.515 634.8 392.788C609.114 378.127 596.271 338.065 596.271 272.6V230.662C596.271 217.023 596.463 204.919 596.847 194.349C597.228 183.439 597.995 171.676 599.144 159.06C600.296 145.763 602.021 135.022 604.322 126.839C606.62 118.315 610.455 108.768 615.822 98.1987C620.424 88.3107 625.982 80.6391 632.498 75.1836C639.401 69.7284 648.218 65.1255 658.952 61.3749C668.537 57.6243 680.42 55.749 694.607 55.749C700.358 55.749 704.766 56.9424 707.835 59.3289C710.901 61.7157 712.433 64.7844 712.433 68.535C712.433 71.9445 711.092 75.0132 708.408 77.7408C706.11 80.4687 703.232 82.0029 699.783 82.344H672.755C665.087 82.344 658.377 86.6058 652.626 95.13C646.878 103.654 642.851 114.735 640.55 128.374C635.567 153.605 633.074 174.062 633.074 189.746V192.304L631.925 241.402C631.157 256.063 630.773 272.6 630.773 291.012C630.773 303.967 631.349 314.539 632.498 322.72C634.415 334.996 637.676 345.223 642.275 353.407C646.877 362.614 654.735 369.262 665.853 373.354C671.604 375.4 677.93 376.423 684.83 376.423C689.048 376.423 693.264 375.058 697.482 372.331C702.465 372.331 706.491 373.354 709.56 375.4C713.01 377.104 714.734 379.831 714.734 383.581C714.734 396.88 704.192 403.528 683.105 403.528Z" fill="#5A8551"/>
<path d="M867.873 396.367C854.838 396.367 848.319 368.239 848.319 311.98L848.895 282.828L849.471 259.302V252.653C849.855 249.926 850.047 246.686 850.047 242.936C850.047 242.254 849.471 241.402 848.319 240.379C847.17 239.356 846.594 238.503 846.594 237.822V237.31C844.677 237.992 841.227 238.333 836.244 238.333C831.261 238.333 825.126 237.651 817.842 236.287C815.541 235.946 809.409 235.094 799.44 233.73V292.546C799.44 301.411 800.016 315.391 801.165 334.483C802.314 353.236 802.89 367.216 802.89 376.423C802.89 381.538 801.357 385.969 798.291 389.719C795.222 393.469 791.196 395.344 786.213 395.344C778.929 395.344 773.754 389.038 770.688 376.423C767.619 363.466 766.086 346.588 766.086 325.789L767.235 284.363C767.619 272.77 767.811 260.495 767.811 247.539V231.684C767.811 226.229 767.619 222.649 767.235 220.944V218.387L768.96 188.723C768.96 175.767 768.387 156.502 767.235 130.93C766.086 105.358 765.51 86.0939 765.51 73.1375C765.51 69.0461 767.046 65.4659 770.112 62.3972C773.178 59.3285 777.012 57.7943 781.614 57.7943C793.881 57.7943 800.016 68.0231 800.016 88.4807L798.864 151.9C798.099 170.993 797.715 192.303 797.715 215.829C803.466 217.534 813.816 218.387 828.768 218.387H850.047C850.812 216.341 851.196 214.295 851.196 212.249C851.196 195.883 850.047 171.675 847.746 139.625C845.061 109.62 843.72 85.2416 843.72 66.4889C843.72 62.7383 845.253 59.6696 848.319 57.2828C851.772 54.5552 855.795 53.1914 860.397 53.1914C863.079 53.1914 866.913 54.0437 871.899 55.7486L877.074 57.7943C877.074 106.211 878.991 170.823 882.825 251.63L888 381.025C888 385.798 885.891 389.548 881.673 392.278C877.839 395.005 873.24 396.367 867.873 396.367Z" fill="#5A8551"/>
</svg>
