<svg width="296" height="137" viewBox="0 0 296 137" fill="none" xmlns="http://www.w3.org/2000/svg">
<path d="M56.3564 136.555C55.0785 136.555 54.0562 135.987 53.2894 134.85C52.5227 133.714 52.1393 132.066 52.1393 129.906L51.9476 104.675C51.8198 102.516 51.7559 98.9356 51.7559 93.9349C51.5003 83.3651 51.3725 71.4315 51.3725 58.134V49.4395C50.2224 54.8949 48.2416 62.5665 45.4302 72.4543C42.6187 82.6832 40.638 91.0935 39.4878 97.6854V98.7083L38.9128 101.947C38.6572 104.448 38.0182 107.005 36.9959 109.619C35.718 112.347 33.7372 113.711 31.0535 113.711C26.453 113.711 24.1528 108.369 24.1528 97.6854C24.1528 91.7754 23.4499 85.4677 22.0442 78.7621C20.7663 71.9429 18.6577 63.5894 15.7185 53.7015L9.9678 34.6077L9.58443 55.0654C9.58443 61.2027 9.90391 72.909 10.5429 90.1843L10.9262 101.777L11.3096 125.133C11.3096 127.519 10.3512 129.679 8.4343 131.611C5.23949 131.611 3.00312 130.759 1.7252 129.054C0.575066 127.235 0 124.621 0 121.212L0.383377 107.232C0.766754 101.095 0.958443 96.4921 0.958443 93.4234L0.191689 27.4476C0.191689 22.5605 0.319481 15.2298 0.575066 5.45561L5.75066 2.72792C6.77299 2.84158 7.79533 3.5235 8.81767 4.77369C9.84001 5.91022 10.9901 7.78551 12.2681 10.3995C15.4629 17.4461 19.6161 31.5391 24.7278 52.6786C25.4946 55.6336 26.0057 58.0772 26.2613 60.0093C27.7948 66.6012 28.8811 71.6019 29.52 75.0116L32.3954 88.1385L33.7372 82.5127L37.3793 68.5333C39.4239 60.3502 41.0852 53.1901 42.3632 47.0528C43.7689 40.9155 45.1107 34.2668 46.3886 27.1066C47.7943 18.5826 48.6889 11.4792 49.0723 5.79657V4.77369C49.3278 3.29619 50.0946 2.15966 51.3725 1.36409C52.6504 0.454859 54.184 0.000244141 55.973 0.000244141C57.1232 0.000244141 58.1455 0.454859 59.0401 1.36409C59.9346 2.27331 60.3819 3.23936 60.3819 4.26225C60.3819 17.9007 60.9569 38.3015 62.1071 65.4647C62.746 78.7621 63.1933 91.7754 63.4489 104.505C63.7045 110.301 63.8323 117.632 63.8323 126.497C63.8323 129.111 63.0655 131.441 61.532 133.486C59.9985 135.532 58.2733 136.555 56.3564 136.555Z" fill="#5A8551"/>
<path d="M125.963 133.657C123.024 133.657 120.852 133.259 119.446 132.463C118.04 131.668 117.337 130.19 117.337 128.031C117.337 124.621 116.698 118.825 115.42 110.642L114.654 107.062L95.6765 104.505C94.9098 107.119 93.8235 112.404 92.4178 120.359C91.6511 125.928 90.437 129.622 88.7757 131.441C87.8812 132.463 86.6033 132.975 84.942 132.975C83.4085 132.975 82.0027 132.577 80.7248 131.781C79.4469 130.872 78.8079 129.793 78.8079 128.542L79.1913 127.69L79.383 127.008C87.8173 97.7991 94.2069 68.9879 98.5518 40.5745C98.5518 40.1199 98.6157 39.3812 98.7435 38.3583C98.8713 37.2218 98.9991 35.6306 99.1269 33.5849C99.5103 29.3797 99.8937 26.0269 100.277 23.5265C100.788 21.0261 101.555 19.1509 102.577 17.9007H109.095C110.884 17.9007 112.417 18.2985 113.695 19.094C114.973 19.776 115.612 20.7988 115.612 22.1627C115.612 30.8003 116.954 43.6432 119.638 60.6912C122.193 78.1938 123.471 90.4684 123.471 97.5149C123.471 98.1969 123.791 99.9585 124.43 102.8C125.069 105.414 125.388 107.119 125.388 107.914C125.388 108.71 126.027 112.119 127.305 118.143C128.455 123.598 129.03 127.122 129.03 128.713V128.883C129.03 131.384 128.008 132.975 125.963 133.657ZM113.312 100.925C112.928 99.2197 112.737 97.1172 112.737 94.6168C112.737 84.388 111.714 71.3178 109.67 55.4063L107.753 37.6764C102.258 64.3849 98.488 84.5584 96.4433 98.1969C98.3602 99.3334 103.983 100.243 113.312 100.925Z" fill="#5A8551"/>
<path d="M179.028 135.021C176.217 135.021 173.661 132.293 171.361 126.838C168.677 120.928 166.696 114.847 165.418 108.596L164.076 102.8C160.37 86.5474 158.006 77.2846 156.984 75.0116H154.684C154.684 78.3075 154.62 81.3193 154.492 84.047V93.4234C154.492 108.653 155.706 120.53 158.134 129.054L156.025 133.657H150.658L148.166 131.1L148.358 119.677C148.358 109.449 147.783 93.9349 146.633 73.1363C145.61 50.9738 145.099 35.4601 145.099 26.5952C145.099 21.1398 147.208 18.4121 151.425 18.4121C158.326 18.4121 163.949 20.0033 168.294 23.1856C172.766 26.3679 175.003 30.8003 175.003 36.483V48.4166C175.003 50.1214 174.683 52.1104 174.044 54.3834C173.405 56.5429 172.702 58.3045 171.936 59.6683L168.294 65.8056L165.227 70.92L166.185 75.0116L168.869 87.1156C170.658 95.867 172.383 102.97 174.044 108.426C175.705 113.881 177.75 118.825 180.178 123.257L181.328 125.303C182.606 127.576 183.245 129.395 183.245 130.759C183.245 131.895 182.862 132.861 182.095 133.657C181.328 134.566 180.306 135.021 179.028 135.021ZM155.45 66.658C158.262 65.4078 160.626 61.9982 162.543 56.4292C164.588 50.7465 165.61 45.5185 165.61 40.745C165.61 37.1081 165.099 33.6985 164.076 30.5162C163.437 28.6977 162.351 27.3339 160.818 26.4247C159.412 25.4018 157.623 24.8904 155.45 24.8904L155.067 25.7428L154.684 27.2771L155.067 47.3938C155.323 53.3037 155.45 59.7252 155.45 66.658Z" fill="#5A8551"/>
<path d="M227.702 134.509C224.891 134.509 221.887 134.111 218.693 133.316C215.626 132.634 213.261 131.838 211.6 130.929C203.038 126.042 198.757 112.688 198.757 90.8662V76.8868C198.757 72.3407 198.821 68.306 198.949 64.7827C199.076 61.1458 199.332 57.2248 199.715 53.0196C200.099 48.5871 200.674 45.007 201.441 42.2793C202.207 39.438 203.485 36.2557 205.274 32.7325C206.808 29.4365 208.661 26.8793 210.833 25.0608C213.134 23.2424 216.073 21.7081 219.651 20.4579C222.846 19.2077 226.807 18.5826 231.536 18.5826C233.453 18.5826 234.922 18.9804 235.945 19.7759C236.967 20.5715 237.478 21.5944 237.478 22.8446C237.478 23.9811 237.031 25.004 236.136 25.9132C235.37 26.8225 234.411 27.3339 233.261 27.4476H224.252C221.696 27.4476 219.459 28.8682 217.542 31.7096C215.626 34.5509 214.284 38.2446 213.517 42.7908C211.856 51.2011 211.025 58.0204 211.025 63.2484V64.1008L210.642 80.4669C210.386 85.354 210.258 90.8662 210.258 97.0035C210.258 101.322 210.45 104.846 210.833 107.573C211.472 111.665 212.559 115.074 214.092 117.802C215.626 120.871 218.245 123.087 221.951 124.451C223.868 125.133 225.977 125.474 228.277 125.474C229.683 125.474 231.088 125.019 232.494 124.11C234.155 124.11 235.497 124.451 236.52 125.133C237.67 125.701 238.245 126.61 238.245 127.86C238.245 132.293 234.731 134.509 227.702 134.509Z" fill="#5A8551"/>
<path d="M289.291 132.122C284.946 132.122 282.773 122.746 282.773 103.993L282.965 94.2758L283.157 86.4337V84.2175C283.285 83.3083 283.349 82.2285 283.349 80.9784C283.349 80.7511 283.157 80.4669 282.773 80.126C282.39 79.785 282.198 79.5009 282.198 79.2736V79.1031C281.559 79.3304 280.409 79.444 278.748 79.444C277.087 79.444 275.042 79.2167 272.614 78.7621C271.847 78.6485 269.803 78.3643 266.48 77.9097V97.5149C266.48 100.47 266.672 105.13 267.055 111.494C267.438 117.745 267.63 122.405 267.63 125.474C267.63 127.179 267.119 128.656 266.097 129.906C265.074 131.156 263.732 131.781 262.071 131.781C259.643 131.781 257.918 129.679 256.896 125.474C255.873 121.155 255.362 115.529 255.362 108.596L255.745 94.7873C255.873 90.923 255.937 86.8315 255.937 82.5127V77.2278C255.937 75.4093 255.873 74.216 255.745 73.6477V72.7953L256.32 62.9075C256.32 58.5886 256.129 52.1672 255.745 43.6432C255.362 35.1192 255.17 28.6977 255.17 24.3789C255.17 23.0151 255.682 21.8217 256.704 20.7988C257.726 19.7759 259.004 19.2645 260.538 19.2645C264.627 19.2645 266.672 22.6741 266.672 29.4933L266.288 50.6329C266.033 56.9975 265.905 64.1008 265.905 71.9429C267.822 72.5112 271.272 72.7953 276.256 72.7953H283.349C283.604 72.1134 283.732 71.4315 283.732 70.7495C283.732 65.2942 283.349 57.2248 282.582 46.5413C281.687 36.5398 281.24 28.4136 281.24 22.1627C281.24 20.9125 281.751 19.8896 282.773 19.094C283.924 18.1848 285.265 17.7302 286.799 17.7302C287.693 17.7302 288.971 18.0143 290.633 18.5826L292.358 19.2645C292.358 35.4033 292.997 56.9406 294.275 83.8765L296 127.008C296 128.599 295.297 129.849 293.891 130.759C292.613 131.668 291.08 132.122 289.291 132.122Z" fill="#5A8551"/>
</svg>
