<svg width="312" height="75" viewBox="0 0 312 75" fill="none" xmlns="http://www.w3.org/2000/svg">
<path d="M0.471569 0.988577C0.267718 0.670569 0.496077 0.25293 0.873812 0.25293H311.126C311.504 0.25293 311.732 0.670566 311.528 0.988574L288.276 37.2631C288.175 37.4202 288.175 37.6216 288.276 37.7788L311.528 74.0533C311.732 74.3713 311.504 74.7889 311.126 74.7889H0.873819C0.496084 74.7889 0.267716 74.3713 0.471567 74.0533L23.7245 37.7788C23.8252 37.6216 23.8252 37.4202 23.7245 37.2631L0.471569 0.988577Z" fill="#EEC872"/>
<path d="M281.136 38.2506L282.158 39.8252L282.997 39.2808L285.04 42.43L284.202 42.9744L286.245 46.1236L287.084 45.5792L289.128 48.7284L288.289 49.2728L290.333 52.422L291.172 51.8776L293.215 55.0268L292.376 55.5712L294.42 58.7204L295.259 58.176L297.303 61.3252L296.464 61.8696L298.507 65.0188L299.346 64.4745L301.39 67.6237L300.551 68.168L301.05 68.9361H300.089V69.9361H296.246V68.9361H292.403V69.9361H288.56V68.9361H284.717V69.9361H280.873V68.9361H277.03V69.9361H273.187V68.9361H269.344V69.9361H265.5V68.9361H261.657V69.9361H257.814V68.9361H253.971V69.9361H250.128V68.9361H246.284V69.9361H242.441V68.9361H238.598V69.9361H234.755V68.9361H230.912V69.9361H227.068V68.9361H223.225V69.9361H219.382V68.9361H215.539V69.9361H211.695V68.9361H207.852V69.9361H204.009V68.9361H200.166V69.9361H196.323V68.9361H192.479V69.9361H188.636V68.9361H184.793V69.9361H180.95V68.9361H177.106V69.9361H173.263V68.9361H169.42V69.9361H165.577V68.9361H161.734V69.9361H157.89V68.9361H154.047V69.9361H150.204V68.9361H146.361V69.9361H142.518V68.9361H138.674V69.9361H134.831V68.9361H130.988V69.9361H127.145V68.9361H123.301V69.9361H119.458V68.9361H115.615V69.9361H111.772V68.9361H107.929V69.9361H104.085V68.9361H100.242V69.9361H96.3989V68.9361H92.5557V69.9361H88.7125V68.9361H84.8693V69.9361H81.0261V68.9361H77.1829V69.9361H73.3397V68.9361H69.4964V69.9361H65.6532V68.9361H61.81V69.9361H57.9668V68.9361H54.1236V69.9361H50.2804V68.9361H46.4371V69.9361H42.5939V68.9361H38.7507V69.9361H34.9074V68.9361H31.0642V69.9361H27.221V68.9361H23.3777V69.9361H19.5345V68.9361H15.6913V69.9361H11.8481V68.9361H10.8879L11.3864 68.168L10.5476 67.6237L12.5913 64.4744L13.4301 65.0188L15.4738 61.8696L14.635 61.3252L16.6786 58.176L17.5175 58.7204L19.5612 55.5712L18.7223 55.0268L20.766 51.8776L21.6049 52.422L23.6486 49.2728L22.8097 48.7284L24.8534 45.5792L25.6923 46.1236L27.7359 42.9744L26.8971 42.43L28.9408 39.2808L29.7796 39.8252L30.8015 38.2506C31.119 37.7613 31.119 37.1309 30.8015 36.6416L29.7796 35.067L28.9408 35.6114L26.8971 32.4622L27.7359 31.9178L25.6922 28.7686L24.8534 29.313L22.8097 26.1638L23.6486 25.6194L21.6049 22.4702L20.766 23.0146L18.7223 19.8654L19.5612 19.321L17.5175 16.1718L16.6786 16.7162L14.635 13.567L15.4738 13.0226L13.4301 9.87339L12.5913 10.4178L10.5476 7.26855L11.3864 6.72418L10.8879 5.95605H11.8481V4.95605H15.6914V5.95605H19.5346V4.95605H23.3778V5.95605H27.221V4.95605H31.0642V5.95605H34.9074V4.95605H38.7507V5.95605H42.5939V4.95605H46.4371V5.95605H50.2803V4.95605H54.1235V5.95605H57.9667V4.95605H61.81V5.95605H65.6532V4.95605H69.4964V5.95605H73.3396V4.95605H77.1828V5.95605H81.026V4.95605H84.8693V5.95605H88.7125V4.95605H92.5557V5.95605H96.3989V4.95605H100.242V5.95605H104.085V4.95605H107.929V5.95605H111.772V4.95605H115.615V5.95605H119.458V4.95605H123.301V5.95605H127.145V4.95605H130.988V5.95605H134.831V4.95605H138.674V5.95605H142.518V4.95605H146.361V5.95605H150.204V4.95605H154.047V5.95605H157.89V4.95605H161.734V5.95605H165.577V4.95605H169.42V5.95605H173.263V4.95605H177.106V5.95605H180.95V4.95605H184.793V5.95605H188.636V4.95605H192.479V5.95605H196.323V4.95605H200.166V5.95605H204.009V4.95605H207.852V5.95605H211.695V4.95605H215.539V5.95605H219.382V4.95605H223.225V5.95605H227.068V4.95605H230.911V5.95605H234.755V4.95605H238.598V5.95605H242.441V4.95605H246.284V5.95605H250.128V4.95605H253.971V5.95605H257.814V4.95605H261.657V5.95605H265.5V4.95605H269.344V5.95605H273.187V4.95605H277.03V5.95605H280.873V4.95605H284.717V5.95605H288.56V4.95605H292.403V5.95605H296.246V4.95605H300.089V5.95605H301.05L300.551 6.72418L301.39 7.26855L299.346 10.4178L298.507 9.87338L296.464 13.0226L297.303 13.567L295.259 16.7162L294.42 16.1718L292.376 19.321L293.215 19.8654L291.172 23.0146L290.333 22.4702L288.289 25.6194L289.128 26.1638L287.084 29.313L286.245 28.7686L284.202 31.9178L285.04 32.4622L282.997 35.6114L282.158 35.067L281.136 36.6416C280.819 37.1309 280.819 37.7613 281.136 38.2506Z" stroke="white" stroke-width="2" stroke-dasharray="3.82 3.82"/>
</svg>
