<svg width="336" height="138" viewBox="0 0 336 138" fill="none" xmlns="http://www.w3.org/2000/svg">
<path d="M18.2578 90.0772C30.1022 90.0772 38.89 83.4637 44.7485 73.6084C49.3334 65.8279 53.6637 53.1197 53.6637 45.7282C53.6637 40.8006 52.6448 36.5213 48.824 35.4839C47.4231 35.0949 45.7674 35.2246 44.4938 36.1323C43.6023 36.7807 26.5361 51.6933 26.5361 51.6933C24.4984 53.2494 22.3333 54.4165 19.9134 55.1945C11.5077 57.788 3.73882 63.2344 0.936917 70.7556C-2.88386 81.5186 5.39449 90.0772 18.2578 90.0772ZM39.0173 53.2494C38.7626 53.2494 38.5079 53.1197 38.89 52.7307C41.0551 50.5262 41.8192 50.0075 43.4749 48.3217C45.1306 46.636 44.8759 47.5437 44.6211 49.3592C43.9844 54.2868 42.2013 53.2494 39.0173 53.2494ZM17.2389 81.2593C11.7625 81.5186 7.30488 78.1471 9.08791 73.4787C10.7436 69.3291 15.7106 65.6982 21.187 63.8828C25.6446 62.3267 40.5457 61.0299 40.5457 62.586C40.5457 63.6234 38.3805 67.6434 37.489 69.0698C32.7767 76.98 26.2814 80.7406 17.2389 81.2593Z" fill="#A11275"/>
<path d="M87.8178 90.9849C90.4924 90.9849 92.0207 89.4288 91.2565 84.1121C89.4735 71.5336 91.2565 62.9751 94.5679 49.2295C95.8415 44.1721 92.4028 38.7258 86.5442 37.8181C71.5158 35.6136 57.8884 56.2319 54.9591 75.1645C54.0676 80.7406 55.8507 87.6133 60.563 89.4288C64.7658 91.1146 68.7139 88.0024 72.1526 84.5011C76.3555 80.2219 80.6857 72.182 82.3414 70.1072L82.214 77.6283C82.214 80.6109 82.214 83.2044 82.9782 87.0946C83.4876 90.2068 85.2706 90.9849 87.8178 90.9849ZM63.6196 79.9625C62.9828 79.9625 63.2375 76.3316 63.6196 74.6458C65.912 64.7905 69.7328 56.3616 76.4829 50.1372C79.1574 47.6734 81.9593 46.5063 85.0159 46.5063C85.7801 46.5063 86.4169 47.1547 85.7801 47.803C80.431 53.2494 67.5677 79.9625 63.6196 79.9625Z" fill="#A11275"/>
<path d="M107 95.9126C110.312 95.9126 112.986 92.4113 110.439 89.1694C108.401 86.4463 108.147 83.3341 108.274 80.2219C108.529 75.2942 109.165 69.9775 109.675 63.6234C109.802 62.0673 110.566 61.1596 111.713 60.3815C115.661 57.788 119.099 54.8055 121.901 52.0823C128.397 45.7282 133.364 38.9851 137.184 31.7233C138.076 30.0375 139.35 29.3892 141.26 29.3892C144.571 29.3892 147.883 29.2595 151.067 29.2595C156.161 29.2595 158.836 28.3518 158.836 24.8505C158.836 20.4416 153.869 20.7009 148.774 20.7009H143.552C142.406 20.7009 142.406 20.3119 142.534 19.5338C144.189 11.7533 144.826 10.0676 143.298 6.1773C141.642 1.76834 137.694 -0.176784 133.236 1.37932C127.25 3.45412 120.755 11.7533 116.043 19.4042C115.533 20.3119 114.897 20.8306 113.878 20.8306H95.4106C91.4625 20.8306 88.4059 22.1274 88.6606 25.4989C88.9153 28.4814 91.5899 29.6485 94.6465 29.6485H107.892C111.076 29.6485 110.566 29.5188 109.548 32.242C105.727 41.838 102.797 51.823 101.269 62.9751C99.7409 74.1271 98.722 84.3715 101.906 92.0223C102.67 93.8378 104.198 95.9126 107 95.9126ZM126.486 20.7009C125.85 20.7009 125.722 20.5713 125.977 20.0526C128.015 16.0326 130.944 12.7907 134.255 10.5863C134.637 10.3269 135.401 10.0676 135.401 11.2346C135.401 14.0875 134.383 16.681 133.364 19.6635C133.109 20.4416 132.6 20.7009 131.963 20.7009H126.486ZM112.986 48.4514C113.623 45.7282 117.571 35.0949 118.972 32.242C119.864 30.2969 120.882 29.5188 122.411 29.5188C126.359 29.3892 129.288 29.5188 127.378 31.853C124.576 35.3542 119.864 43.5238 112.986 48.4514Z" fill="#A11275"/>
<path d="M154.066 90.4662C156.868 90.4662 158.142 88.6507 158.142 85.1495C158.142 79.5735 159.415 73.9974 160.943 68.4214C163.109 60.6409 166.165 53.1197 169.349 44.9502C170.877 41.1896 172.151 37.1697 168.585 35.4839C166.802 34.5762 164.637 35.0949 163.236 36.7807C160.943 39.5038 155.849 48.5811 151.137 56.8803C145.788 66.0873 137.637 79.7032 133.943 79.7032C132.16 79.7032 137.637 59.2145 140.311 52.3417C141.33 49.3592 144.896 41.9677 144.641 39.3742C144.387 35.7433 140.184 34.4465 138.019 36.651C134.962 39.7632 130.377 53.7681 128.212 61.808C125.41 72.7007 122.736 84.7605 129.613 88.7804C133.816 90.9849 138.146 88.9101 142.094 85.1495C144.387 83.0747 146.17 80.2219 148.844 76.7206L150.755 74.2568L150.373 77.758C149.863 82.167 149.354 86.4463 150.755 88.3914C151.646 89.6881 152.792 90.4662 154.066 90.4662Z" fill="#A11275"/>
<path d="M187.288 101.359C189.708 101.359 192 99.0248 191.109 95.7829C190.345 93.0597 190.854 90.4662 191.491 88.0024C194.293 77.1096 196.585 76.2019 199.769 66.606C200.279 65.0499 201.17 63.1047 201.17 61.0299C201.17 56.621 197.731 53.2494 193.401 54.0275C193.019 54.0275 189.835 54.8055 189.835 54.8055C189.835 54.6758 193.529 48.9701 194.42 44.3018C195.312 39.7632 196.203 34.8355 192.128 31.9827C190.345 30.8156 188.307 30.5562 186.014 31.2046C180.028 32.8904 173.406 42.0973 171.241 50.0075C169.712 55.3242 169.585 60.3815 173.024 63.8828C177.991 68.9401 182.448 66.8653 190.854 63.7531C191.363 63.4937 191.618 64.0125 191.491 64.5312C191.618 63.8828 185.123 79.4438 184.359 81.778C182.576 87.354 180.793 94.4861 183.212 98.6357C184.231 100.322 185.632 101.359 187.288 101.359ZM179.264 53.7681C180.283 48.8405 181.557 45.8579 185.76 41.5786C186.269 41.0599 186.269 41.1896 186.142 41.838C184.868 47.2843 182.576 51.3043 179.264 53.7681Z" fill="#A11275"/>
<path d="M234.552 89.4288C237.736 89.4288 239.137 86.8353 238.5 82.6857C237.863 78.147 238.245 73.4787 238.5 69.5885C238.627 67.2543 239.391 65.3092 240.665 63.4938L247.288 54.0275C256.84 40.2819 263.717 28.3518 267.792 14.0875C268.939 9.93788 268.939 4.75088 265.627 2.5464C260.151 -0.954832 253.656 5.52892 249.071 11.6237C242.575 20.1822 241.174 25.8879 236.589 37.429C235.825 39.1148 235.825 39.1148 234.17 38.8555C229.585 38.0774 225.254 39.2445 221.306 42.7457C211.5 51.3043 203.603 68.6808 205.259 80.4812C206.023 86.7056 211.627 90.3365 217.868 87.354C221.434 85.5385 223.217 83.8528 229.585 78.1471C230.221 83.4637 230.094 89.4288 234.552 89.4288ZM243.467 44.1721C247.16 32.1123 253.656 15.9029 258.877 13.5688C258.877 16.1623 254.674 25.4989 251.363 31.2046C248.561 35.8729 244.74 42.227 243.976 43.3941L243.467 44.1721ZM214.047 79.1845C213.028 78.7954 213.41 74.9052 214.047 72.571C215.702 65.6982 218.504 59.6035 222.325 54.2868C224.108 51.823 226.401 49.2295 229.585 47.803C231.622 46.8953 232.896 49.3592 232.387 53.2494C231.622 58.6958 231.75 61.808 228.056 65.9576C220.415 74.9052 215.448 79.9625 214.047 79.1845Z" fill="#A11275"/>
<path d="M283.459 90.9849C286.133 90.9849 287.661 89.4288 286.897 84.1121C285.114 71.5336 286.897 62.9751 290.209 49.2295C291.482 44.1721 288.044 38.7258 282.185 37.8181C267.157 35.6136 253.529 56.2319 250.6 75.1645C249.708 80.7406 251.491 87.6133 256.204 89.4288C260.407 91.1146 264.355 88.0024 267.793 84.5011C271.996 80.2219 276.326 72.182 277.982 70.1072L277.855 77.6283C277.855 80.6109 277.855 83.2044 278.619 87.0946C279.128 90.2068 280.911 90.9849 283.459 90.9849ZM259.26 79.9625C258.624 79.9625 258.878 76.3316 259.26 74.6458C261.553 64.7905 265.374 56.3616 272.124 50.1372C274.798 47.6734 277.6 46.5063 280.657 46.5063C281.421 46.5063 282.058 47.1547 281.421 47.803C276.072 53.2494 263.208 79.9625 259.26 79.9625Z" fill="#A11275"/>
<path d="M298.693 137.409C303.405 137.409 307.863 134.685 310.537 130.666C317.669 120.032 320.599 110.177 332.698 60.2519C335.372 48.4514 338.174 41.5786 333.462 38.9851C329.259 36.7807 324.929 43.7831 320.089 52.212C318.688 54.5462 312.193 65.6982 310.028 68.8104C307.735 72.182 306.08 74.7755 303.533 77.369C302.514 78.4064 303.023 74.7755 303.151 73.8678C304.934 61.2893 308.5 53.5088 311.429 42.3567C312.066 40.0225 310.919 37.6884 308.882 36.9103C306.844 36.1323 304.806 37.2994 303.533 39.5038C303.023 40.2819 298.438 55.7132 297.037 60.9002C294.49 70.4962 291.816 85.0198 299.202 87.8727C303.405 89.4288 307.099 86.4463 310.41 82.6857C312.957 79.9625 315.25 76.7206 317.924 72.3117C319.453 69.7182 321.108 67.384 322.637 64.9202C320.981 72.7007 317.16 88.5211 316.523 90.4662C316.269 91.3739 316.141 91.8926 315.377 92.152C302.132 96.5609 286.976 114.975 289.268 128.98C290.033 133.518 293.344 137.409 298.693 137.409ZM297.547 125.608C297.674 119.513 303.915 107.713 312.32 103.434C314.995 102.007 307.353 119.254 304.424 124.441C302.259 128.202 297.547 130.795 297.547 125.608Z" fill="#A11275"/>
</svg>
