<svg width="1008" height="414" viewBox="0 0 1008 414" fill="none" xmlns="http://www.w3.org/2000/svg">
<path d="M54.7734 270.231C90.3066 270.231 116.67 250.391 134.245 220.825C148 197.483 160.991 159.359 160.991 137.184C160.991 122.401 157.934 109.564 146.472 106.451C142.269 105.284 137.302 105.673 133.481 108.397C130.807 110.342 79.6083 155.08 79.6083 155.08C73.4952 159.748 66.9999 163.249 59.7402 165.583C34.5231 173.364 11.2165 189.703 2.81075 212.266C-8.65158 244.555 16.1835 270.231 54.7734 270.231ZM117.052 159.748C116.288 159.748 115.524 159.359 116.67 158.192C123.165 151.578 125.458 150.022 130.425 144.965C135.392 139.908 134.628 142.631 133.863 148.077C131.953 162.86 126.604 159.748 117.052 159.748ZM51.7167 243.778C35.2875 244.555 21.9146 234.441 27.2637 220.436C32.2308 207.987 47.1318 197.094 63.561 191.648C76.9338 186.98 121.637 183.089 121.637 187.758C121.637 190.87 115.141 202.93 112.467 207.209C98.3301 230.94 78.8442 242.221 51.7167 243.778Z" fill="#A11275"/>
<path d="M263.453 272.954C271.477 272.954 276.062 268.286 273.77 252.336C268.421 214.6 273.77 188.925 283.704 147.688C287.525 132.516 277.208 116.177 259.633 113.454C214.547 106.84 173.665 168.695 164.877 225.493C162.203 242.221 167.552 262.839 181.689 268.286C194.297 273.343 206.142 264.006 216.458 253.503C229.067 240.665 242.057 216.545 247.024 210.321L246.642 232.884C246.642 241.832 246.642 249.612 248.935 261.283C250.463 270.62 255.812 272.954 263.453 272.954ZM190.859 239.887C188.948 239.887 189.713 228.994 190.859 223.937C197.736 194.371 209.198 169.084 229.449 150.411C237.472 143.019 245.878 139.518 255.048 139.518C257.34 139.518 259.251 141.463 257.34 143.408C241.293 159.747 202.703 239.887 190.859 239.887Z" fill="#A11275"/>
<path d="M321 287.738C330.936 287.738 338.958 277.234 331.317 267.508C325.203 259.339 324.441 250.002 324.822 240.666C325.587 225.883 327.495 209.933 329.025 190.87C329.406 186.202 331.698 183.479 335.139 181.145C346.983 173.364 357.297 164.416 365.703 156.247C385.191 137.185 400.092 116.955 411.552 95.1699C414.228 90.1125 418.05 88.1676 423.78 88.1676C433.713 88.1676 443.649 87.7785 453.201 87.7785C468.483 87.7785 476.508 85.0554 476.508 74.5515C476.508 61.3248 461.607 62.1027 446.322 62.1027H430.656C427.218 62.1027 427.218 60.9357 427.602 58.6014C432.567 35.2599 434.478 30.2028 429.894 18.5319C424.926 5.30502 413.082 -0.530347 399.708 4.13796C381.75 10.3624 362.265 35.2599 348.129 58.2126C346.599 60.9357 344.691 62.4918 341.634 62.4918H286.232C274.387 62.4918 265.218 66.3822 265.982 76.4967C266.746 85.4442 274.77 88.9455 283.939 88.9455H323.676C333.228 88.9455 331.698 88.5564 328.644 96.726C317.181 125.514 308.391 155.469 303.807 188.925C299.223 222.381 296.166 253.115 305.718 276.067C308.01 281.513 312.594 287.738 321 287.738ZM379.458 62.1027C377.55 62.1027 377.166 61.7139 377.931 60.1578C384.045 48.0978 392.832 38.3721 402.765 31.7589C403.911 30.9807 406.203 30.2028 406.203 33.7038C406.203 42.2625 403.149 50.043 400.092 58.9905C399.327 61.3248 397.8 62.1027 395.889 62.1027H379.458ZM338.958 145.354C340.869 137.185 352.713 105.285 356.916 96.726C359.592 90.8907 362.646 88.5564 367.233 88.5564C379.077 88.1676 387.864 88.5564 382.134 95.559C373.728 106.063 359.592 130.571 338.958 145.354Z" fill="#A11275"/>
<path d="M462.198 271.399C470.604 271.399 474.426 265.952 474.426 255.449C474.426 238.721 478.245 221.992 482.829 205.264C489.327 181.923 498.495 159.359 508.047 134.851C512.631 123.569 516.453 111.509 505.755 106.452C500.406 103.729 493.911 105.285 489.708 110.342C482.829 118.512 467.547 145.743 453.411 170.641C437.364 198.262 412.911 239.11 401.829 239.11C396.48 239.11 412.911 177.644 420.933 157.025C423.99 148.078 434.688 125.903 433.923 118.123C433.161 107.23 420.552 103.34 414.057 109.953C404.886 119.29 391.131 161.304 384.636 185.424C376.23 218.102 368.208 254.282 388.839 266.341C401.448 272.955 414.438 266.73 426.282 255.449C433.161 249.224 438.51 240.666 446.532 230.162L452.265 222.771L451.119 233.274C449.589 246.501 448.062 259.339 452.265 265.174C454.938 269.064 458.376 271.399 462.198 271.399Z" fill="#A11275"/>
<path d="M561.864 304.077C569.124 304.077 576 297.074 573.327 287.348C571.035 279.179 572.562 271.398 574.473 264.007C582.879 231.328 589.755 228.605 599.307 199.818C600.837 195.149 603.51 189.314 603.51 183.089C603.51 169.863 593.193 159.748 580.203 162.082C579.057 162.082 569.505 164.416 569.505 164.416C569.505 164.027 580.587 146.91 583.26 132.905C585.936 119.289 588.609 104.506 576.384 95.9476C571.035 92.4463 564.921 91.6681 558.042 93.6133C540.084 98.6707 520.218 126.291 513.723 150.022C509.136 165.972 508.755 181.144 519.072 191.648C533.973 206.82 547.344 200.595 572.562 191.259C574.089 190.481 574.854 192.037 574.473 193.593C574.854 191.648 555.369 238.331 553.077 245.334C547.728 262.062 542.379 283.458 549.636 295.907C552.693 300.966 556.896 304.077 561.864 304.077ZM537.792 161.304C540.849 146.521 544.671 137.573 557.28 124.735C558.807 123.179 558.807 123.568 558.426 125.514C554.604 141.852 547.728 153.912 537.792 161.304Z" fill="#A11275"/>
<path d="M703.656 268.287C713.208 268.287 717.411 260.507 715.5 248.058C713.589 234.442 714.735 220.437 715.5 208.766C715.881 201.764 718.173 195.928 721.995 190.482L741.864 162.083C770.52 120.846 791.151 85.0562 803.376 42.2633C806.817 29.8144 806.817 14.2534 796.881 7.63996C780.453 -2.86374 760.968 16.5875 747.213 34.8719C727.725 60.5474 723.522 77.6645 709.767 112.288C707.475 117.345 707.475 117.345 702.51 116.567C688.755 114.233 675.762 117.734 663.918 128.238C634.5 153.914 610.809 206.043 615.777 241.444C618.069 260.118 634.881 271.01 653.604 262.063C664.302 256.616 669.651 251.559 688.755 234.442C690.663 250.392 690.282 268.287 703.656 268.287ZM730.401 132.517C741.48 96.3377 760.968 47.7095 776.631 40.7072C776.631 48.4877 764.022 76.4975 754.089 93.6146C745.683 107.619 734.22 126.682 731.928 130.183L730.401 132.517ZM642.141 237.554C639.084 236.387 640.23 224.716 642.141 217.714C647.106 197.095 655.512 178.811 666.975 162.861C672.324 155.47 679.203 147.689 688.755 143.41C694.866 140.687 698.688 148.078 697.161 159.749C694.866 176.088 695.25 185.425 684.168 197.874C661.245 224.716 646.344 239.888 642.141 237.554Z" fill="#A11275"/>
<path d="M850.377 272.954C858.399 272.954 862.983 268.286 860.691 252.336C855.342 214.6 860.691 188.925 870.627 147.688C874.446 132.516 864.132 116.177 846.555 113.454C801.471 106.84 760.587 168.695 751.8 225.493C749.124 242.221 754.473 262.839 768.612 268.286C781.221 273.343 793.065 264.006 803.379 253.503C815.988 240.665 828.978 216.545 833.946 210.321L833.565 232.884C833.565 241.832 833.565 249.612 835.857 261.283C837.384 270.62 842.733 272.954 850.377 272.954ZM777.78 239.887C775.872 239.887 776.634 228.994 777.78 223.937C784.659 194.371 796.122 169.084 816.372 150.411C824.394 143.019 832.8 139.518 841.971 139.518C844.263 139.518 846.174 141.463 844.263 143.408C828.216 159.747 789.624 239.887 777.78 239.887Z" fill="#A11275"/>
<path d="M896.079 412.227C910.215 412.227 923.589 404.055 931.611 391.998C953.007 360.096 961.797 330.531 998.094 180.755C1006.12 145.354 1014.52 124.735 1000.39 116.955C987.777 110.342 974.787 131.349 960.267 156.636C956.064 163.638 936.579 197.094 930.084 206.431C923.205 216.546 918.24 224.326 910.599 232.107C907.542 235.219 909.069 224.326 909.453 221.603C914.802 183.867 925.5 160.526 934.287 127.07C936.198 120.067 932.757 113.065 926.646 110.73C920.532 108.396 914.418 111.898 910.599 118.511C909.069 120.845 895.314 167.139 891.111 182.7C883.47 211.488 875.448 255.059 897.606 263.618C910.215 268.286 921.297 259.338 931.23 248.057C938.871 239.887 945.75 230.161 953.772 216.935C958.359 209.154 963.324 202.152 967.911 194.76C962.943 218.102 951.48 265.563 949.569 271.398C948.807 274.121 948.423 275.677 946.131 276.456C906.396 289.682 860.928 344.925 867.804 386.94C870.099 400.554 880.032 412.227 896.079 412.227ZM892.641 376.824C893.022 358.539 911.745 323.139 936.96 310.302C944.985 306.021 922.059 357.762 913.272 373.323C906.777 384.606 892.641 392.385 892.641 376.824Z" fill="#A11275"/>
</svg>
