<svg width="888" height="414" viewBox="0 0 888 414" fill="none" xmlns="http://www.w3.org/2000/svg">
<path d="M47.4033 393.168C41.6574 393.168 36.3219 390.993 31.3971 386.64C26.6772 382.29 22.573 376.431 19.0845 369.069C16.0063 362.04 13.236 353.169 10.7735 342.459C8.31099 331.413 6.4641 320.034 5.23284 308.319C2.77033 288.572 1.12865 262.632 0.307812 230.5C0.102605 222.802 0 209.581 0 190.838V159.208C0.205209 150.171 0.307812 140.799 0.307812 131.093C0.307812 111.345 1.02605 95.7813 2.46251 84.4011C1.84688 79.3806 1.53907 74.1927 1.53907 68.8374C1.53907 48.7551 6.15627 32.5218 15.3907 20.1377C24.6251 7.75359 36.3219 1.56152 50.4816 1.56152C55.8168 1.56152 60.7419 3.90447 65.2566 8.59035C69.7713 13.2762 72.0285 19.1336 72.0285 26.1624C72.0285 29.5095 71.2077 32.187 69.5661 34.1952C67.9242 36.2037 65.8722 37.2078 63.4098 37.2078C61.3575 37.2078 59.1003 36.7056 56.6379 35.7015C54.3804 34.6974 52.944 33.1911 52.3284 31.1829H48.3267V30.1788C40.734 30.1788 34.3725 32.8566 29.2423 38.2119C25.5486 42.5631 22.6756 49.7592 20.6235 59.8005C19.8027 63.4821 19.1871 68.1681 18.7766 73.8579C18.3662 79.548 18.161 84.7359 18.161 89.4219C17.9558 92.0994 17.8532 97.4547 17.8532 105.488L18.4688 123.06L18.7766 140.13C18.7766 145.15 18.3662 151.008 17.5454 157.702C16.5194 166.07 16.0063 171.927 16.0063 175.274V187.323C16.0063 200.377 16.3141 218.284 16.9298 241.044C17.135 260.122 18.4688 279.2 20.9314 298.278C22.7782 316.017 26.2668 331.08 31.3971 343.464C36.3219 356.181 42.9912 362.541 51.405 362.541C54.8934 362.541 59.2029 359.529 64.3332 353.505C69.8739 347.481 73.7727 344.469 76.0299 344.469C78.903 344.469 81.8784 346.977 84.9567 351.999C84.9567 364.383 82.0836 373.923 76.338 380.616C71.0025 386.64 64.641 390.489 57.2535 392.163C53.1492 392.832 49.866 393.168 47.4033 393.168Z" fill="#C69C3C"/>
<path d="M144.954 394.675C139.619 394.675 134.693 391.831 130.179 386.14C125.664 380.785 121.97 373.42 119.098 364.048C113.147 343.633 109.453 321.373 108.016 297.275C106.169 274.515 105.246 252.592 105.246 231.506C105.246 227.489 105.349 224.142 105.554 221.464V212.427C105.554 210.754 105.451 209.917 105.246 209.917V200.88L105.554 165.736C105.759 155.025 106.58 137.955 108.016 114.526C109.042 98.46 111.402 82.8963 115.096 67.8345C116.532 61.1403 118.379 56.1198 120.637 52.7727C122.894 49.0911 125.459 47.25 128.332 47.25C136.54 47.25 143.928 49.7604 150.495 54.7809C157.061 59.4669 162.602 66.1611 167.117 74.8632C171.221 83.2311 174.709 93.6069 177.582 105.991C180.455 118.04 182.507 130.927 183.739 144.649C184.97 158.707 185.585 173.602 185.585 189.333V193.349C185.585 203.725 185.688 213.097 185.893 221.464L186.201 250.082C186.201 346.477 172.452 394.675 144.954 394.675ZM143.723 373.588C147.416 373.588 150.803 371.245 153.881 366.559C156.959 361.54 159.319 354.844 160.96 346.477C164.859 329.407 167.219 310.999 168.04 291.251C169.066 274.181 169.579 259.453 169.579 247.069C169.579 232.008 168.861 212.26 167.424 187.827C166.193 162.054 165.578 142.809 165.578 130.09V121.053C165.167 108.334 162.499 97.2885 157.574 87.9168C152.855 78.5451 147.006 73.8591 140.029 73.8591C133.052 73.8591 128.435 80.3859 126.177 93.4395C124.125 103.815 123.099 117.204 123.099 133.604C123.099 139.964 123.202 145.319 123.407 149.67V163.226L122.791 186.32C122.381 193.349 122.176 201.047 122.176 209.415C122.176 227.489 122.483 245.396 123.099 263.135C123.92 288.238 125.972 312.673 129.255 336.436C132.539 361.204 137.361 373.588 143.723 373.588Z" fill="#C69C3C"/>
<path d="M343.912 411.242C337.549 411.242 334.369 400.865 334.369 380.114V315.848C334.369 299.114 333.649 277.191 332.215 250.079C330.571 219.621 329.752 198.702 329.752 187.322L330.367 156.194C330.778 147.158 330.982 136.949 330.982 125.569C330.163 129.92 326.776 153.015 320.824 194.853C314.875 235.352 308.719 272.84 302.356 307.313C296.199 340.451 291.172 357.017 287.273 357.017C283.374 357.017 280.193 355.178 277.73 351.497C275.473 347.48 274.345 342.125 274.345 335.429C274.345 320.702 270.651 289.407 263.263 241.544C256.081 193.682 249.514 154.521 243.563 124.063L241.716 180.795C240.075 228.658 238.946 268.488 238.331 300.287C237.92 331.079 237.715 352.166 237.715 363.545C237.715 366.224 237.817 368.732 238.022 371.075V378.104C238.022 383.795 237.304 387.977 235.868 390.656C234.431 393.668 231.764 395.174 227.865 395.174C225.813 395.174 223.863 393.836 222.016 391.157C220.169 388.814 219.246 386.138 219.246 383.126C219.246 348.986 220.785 297.775 223.863 229.495C226.941 161.215 228.48 110.005 228.48 75.8649C227.249 72.8526 226.634 69.6729 226.634 66.3258C226.634 62.3094 227.762 59.2971 230.019 57.2889C232.482 54.9459 235.355 53.7744 238.638 53.7744C241.306 53.7744 246.231 69.5055 253.413 100.968C260.596 132.43 267.778 168.076 274.96 207.907C282.143 247.736 286.76 276.521 288.812 294.261C290.453 285.224 291.788 276.856 292.814 269.158L294.66 257.108C301.228 210.249 307.795 167.909 314.362 130.088C318.259 106.993 322.057 88.9185 325.75 75.8649C329.443 61.8075 332.83 54.7785 335.908 54.7785C338.782 54.7785 341.347 56.1174 343.603 58.7949C346.066 61.1379 347.296 64.3176 347.296 68.334C347.296 92.433 347.914 128.581 349.144 176.779C350.581 221.63 351.298 256.439 351.298 281.207L350.992 307.817L350.374 334.427C350.374 338.441 350.683 344.468 351.298 352.499L352.222 370.073C352.426 373.085 352.531 375.428 352.531 377.102C352.735 378.773 352.837 379.778 352.837 380.114C353.863 384.464 354.376 387.644 354.376 389.651C354.376 395.342 353.35 400.364 351.298 404.714C349.246 409.064 346.783 411.242 343.912 411.242Z" fill="#C69C3C"/>
<path d="M399.176 388.649C396.509 370.907 395.174 346.307 395.174 314.846L395.789 270.162C396.2 256.774 396.407 241.88 396.407 225.479C395.174 220.793 394.559 216.609 394.559 212.927V211.421C396.611 205.062 397.637 190.67 397.637 168.244L397.946 145.15C398.15 137.786 398.252 129.586 398.252 120.549C398.252 100.801 397.433 85.2373 395.789 73.8571C396.407 69.1714 397.433 65.155 398.867 61.8079C400.304 58.126 402.05 56.2852 404.102 56.2852H417.644C423.392 56.2852 428.417 58.4608 432.728 62.812C437.036 66.8284 440.321 72.6856 442.577 80.3839C446.681 94.1068 448.733 110.34 448.733 129.084C448.733 142.472 448.631 153.015 448.427 160.713C448.016 170.42 446.99 179.29 445.349 187.322C444.731 191.674 443.81 195.355 442.577 198.368C441.551 201.045 440.012 204.392 437.96 208.409C435.089 214.099 430.367 219.454 423.8 224.475C421.133 226.818 417.644 228.993 413.336 231.002V284.722L413.951 316.853L414.566 332.417C415.388 351.161 415.799 367.058 415.799 380.114C415.799 384.128 414.773 387.476 412.721 390.155C410.669 393.167 408.308 394.673 405.641 394.673L399.176 388.649ZM413.642 210.417C425.75 207.405 431.804 179.122 431.804 125.569C431.804 115.863 431.495 108.332 430.88 102.977C430.265 98.9602 429.443 95.7805 428.417 93.4375C427.391 90.7597 425.852 88.5844 423.8 86.9107C421.544 84.9025 419.081 83.8984 416.414 83.8984C416.414 83.5636 415.286 83.3962 413.027 83.3962V112.014C413.027 131.761 413.129 149.333 413.336 164.73C413.336 182.135 413.438 193.514 413.642 198.87V210.417Z" fill="#C69C3C"/>
<path d="M526.378 393.169C518.992 389.152 509.86 387.145 498.985 387.145C495.7 390.49 492.211 392.164 488.518 392.164C486.055 392.164 483.901 390.322 482.053 386.641C480.412 383.296 479.59 379.612 479.59 375.595C479.59 347.482 480.31 309.994 481.747 263.135C482.977 213.264 483.592 175.944 483.592 151.176V147.662C482.362 126.575 481.747 110.844 481.747 100.468C481.747 68.671 485.338 52.7725 492.52 52.7725C494.572 52.7725 496.315 54.1114 497.752 56.7889C499.393 59.1319 500.215 61.9771 500.215 65.3239C500.215 69.3406 499.906 75.7 499.291 84.4021C498.676 92.77 498.367 99.1294 498.367 103.481C498.367 125.906 498.472 146.156 498.676 164.23C498.88 181.969 498.985 202.051 498.985 224.477C497.959 229.497 497.446 236.526 497.446 245.563V251.588L496.828 291.251C496.42 302.965 496.213 316.354 496.213 331.414C496.213 354.511 499.6 366.058 506.371 366.058C506.782 366.058 507.397 366.058 508.219 366.058C509.245 365.722 510.577 365.554 512.221 365.554C514.066 365.221 516.427 365.053 519.298 365.053C530.38 365.053 535.921 370.075 535.921 380.116C535.921 383.461 534.997 386.308 533.152 388.651C531.304 390.994 529.048 392.5 526.378 393.169Z" fill="#C69C3C"/>
<path d="M575.502 391.661C572.835 391.661 570.372 390.155 568.113 387.143C566.061 384.128 564.933 380.447 564.729 376.097V353.003C564.522 349.988 564.42 346.475 564.42 342.458C564.42 335.429 564.111 324.719 563.496 310.328L562.881 278.195C562.881 261.794 563.19 237.361 563.805 204.894C564.624 175.775 565.035 151.341 565.035 131.594C565.035 126.908 564.729 119.879 564.111 110.507C563.496 100.801 563.19 93.7719 563.19 89.4207C563.19 65.6565 567.498 53.7744 576.117 53.7744C582.888 53.7744 590.688 55.95 599.511 60.3012C608.541 64.6524 613.056 69.8403 613.056 75.8649C613.056 79.212 612.132 82.3917 610.284 85.4043C608.643 88.0818 606.591 90.2574 604.128 91.9308C595.509 86.9103 587.712 83.5632 580.734 81.8898C580.941 86.9103 581.043 94.1064 581.043 103.478C581.043 116.867 580.941 128.916 580.734 139.627C580.119 155.693 579.81 167.742 579.81 175.775L580.734 183.808L585.66 183.306C587.301 182.971 589.353 182.804 591.816 182.804C601.665 182.804 606.591 187.49 606.591 196.861C606.591 200.543 605.667 203.723 603.819 206.4C601.974 208.743 599.613 209.915 596.742 209.915C593.046 209.915 590.175 209.58 588.123 208.911H580.425C580.836 217.613 581.043 230.332 581.043 247.067C581.043 263.802 580.941 278.864 580.734 292.253C580.119 312.671 579.81 327.899 579.81 337.94C579.81 356.684 580.017 366.056 580.425 366.056L590.583 365.552C594.072 365.219 598.281 365.051 603.204 365.051C611.004 365.051 614.901 369.068 614.901 377.102C614.901 381.785 613.569 385.301 610.899 387.644C608.439 390.32 605.358 391.661 601.665 391.661H575.502Z" fill="#C69C3C"/>
<path d="M666.056 377.103L665.747 357.522C665.543 351.831 665.441 345.471 665.441 338.442L665.747 321.372C665.132 317.691 663.593 281.041 661.13 211.422C658.67 141.804 657.233 97.1204 656.822 77.3726C644.921 76.7033 637.328 74.6951 634.043 71.348C631.787 68.6702 630.656 65.6579 630.656 62.3108C630.656 59.6333 631.685 57.2903 633.737 55.2821C635.993 52.9391 638.249 51.7676 640.508 51.7676C646.253 51.7676 653.231 52.4369 661.439 53.7758C669.236 55.4495 676.214 56.2862 682.37 56.2862H687.296C693.656 56.2862 696.836 60.3026 696.836 68.3354C696.836 72.3521 695.81 75.6992 693.758 78.3767C691.706 80.7197 689.348 81.8912 686.681 81.8912C684.833 81.8912 682.166 81.389 678.677 80.3849L672.521 78.3767L671.906 83.3972C671.906 113.186 673.649 160.714 677.138 225.982C680.42 287.233 682.061 334.761 682.061 368.568C682.061 372.582 680.933 376.098 678.677 379.11C676.625 382.122 674.264 383.628 671.597 383.628L666.056 377.103Z" fill="#C69C3C"/>
<path d="M741.729 391.661C739.062 391.661 736.599 390.155 734.343 387.143C732.291 384.128 731.163 380.447 730.956 376.097V353.003C730.752 349.988 730.65 346.475 730.65 342.458C730.65 335.429 730.341 324.719 729.726 310.328L729.111 278.195C729.111 261.794 729.417 237.361 730.032 204.894C730.854 175.775 731.265 151.341 731.265 131.594C731.265 126.908 730.956 119.879 730.341 110.507C729.726 100.801 729.417 93.7719 729.417 89.4207C729.417 65.6565 733.728 53.7744 742.347 53.7744C749.118 53.7744 756.915 55.95 765.741 60.3012C774.768 64.6524 779.283 69.8403 779.283 75.8649C779.283 79.212 778.359 82.3917 776.514 85.4043C774.87 88.0818 772.818 90.2574 770.358 91.9308C761.739 86.9103 753.939 83.5632 746.964 81.8898C747.168 86.9103 747.27 94.1064 747.27 103.478C747.27 116.867 747.168 128.916 746.964 139.627C746.346 155.693 746.04 167.742 746.04 175.775L746.964 183.808L751.887 183.306C753.531 182.971 755.583 182.804 758.043 182.804C767.895 182.804 772.818 187.49 772.818 196.861C772.818 200.543 771.897 203.723 770.049 206.4C768.201 208.743 765.843 209.915 762.969 209.915C759.276 209.915 756.402 209.58 754.35 208.911H746.655C747.066 217.613 747.27 230.332 747.27 247.067C747.27 263.802 747.168 278.864 746.964 292.253C746.346 312.671 746.04 327.899 746.04 337.94C746.04 356.684 746.244 366.056 746.655 366.056L756.813 365.552C760.302 365.219 764.508 365.051 769.434 365.051C777.231 365.051 781.131 369.068 781.131 377.102C781.131 381.785 779.796 385.301 777.129 387.644C774.666 390.32 771.588 391.661 767.895 391.661H741.729Z" fill="#C69C3C"/>
<path d="M824.897 388.146C819.563 388.146 816.893 366.225 816.893 322.377L817.511 243.052C817.715 219.622 817.817 193.348 817.817 164.228C817.817 153.518 817.202 136.95 815.972 114.524C814.943 90.0909 814.43 75.1965 814.43 69.8412C814.43 65.49 815.561 61.641 817.817 58.2939C820.076 54.9468 822.536 53.2734 825.206 53.2734C832.388 53.2734 839.261 55.9509 845.828 61.3062C852.599 66.3267 858.551 73.5231 863.681 82.8948C874.559 103.312 881.741 125.737 885.23 150.171C887.075 162.555 887.999 174.772 887.999 186.821C887.999 191.172 887.897 195.189 887.69 198.87L887.384 212.426V240.039C887.384 261.46 886.973 278.363 886.151 290.747C884.921 307.482 882.56 322.377 879.071 335.43C874.967 349.488 869.018 362.04 861.218 373.086C857.525 378.105 852.806 383.127 847.061 388.146H824.897ZM838.442 362.541C842.546 362.541 846.341 360.867 849.83 357.522C853.319 353.838 856.295 348.987 858.758 342.963C860.81 337.605 862.655 330.912 864.296 322.878C866.144 314.511 867.479 306.48 868.298 298.78C870.146 283.718 871.274 268.322 871.685 252.591C871.889 248.574 871.994 242.717 871.994 235.019C871.994 133.937 859.988 81.2211 835.979 76.8702C834.542 91.9317 833.825 109.337 833.825 129.084C833.825 150.171 834.644 186.988 836.285 239.537C837.722 286.061 838.442 323.046 838.442 350.493V362.541Z" fill="#C69C3C"/>
</svg>
