<svg width="296" height="138" viewBox="0 0 296 138" fill="none" xmlns="http://www.w3.org/2000/svg">
<path d="M15.8011 131.056C13.8858 131.056 12.1073 130.331 10.4657 128.88C8.8924 127.43 7.52434 125.477 6.36149 123.023C5.33544 120.68 4.412 117.723 3.59116 114.153C2.77033 110.471 2.1547 106.678 1.74428 102.773C0.923442 96.1906 0.376217 87.544 0.102604 76.8334C0.0342015 74.2674 0 69.8604 0 63.6126V53.0693C0.068403 50.057 0.102604 46.9331 0.102604 43.6976C0.102604 37.115 0.342015 31.9271 0.820837 28.1337C0.615628 26.4602 0.513023 24.7309 0.513023 22.9458C0.513023 16.2517 2.05209 10.8406 5.13023 6.71257C8.20837 2.58453 12.1073 0.520508 16.8272 0.520508C18.6056 0.520508 20.2473 1.30149 21.7522 2.86345C23.2571 4.42541 24.0095 6.37786 24.0095 8.72081C24.0095 9.83649 23.7359 10.729 23.1887 11.3984C22.6414 12.0679 21.9574 12.4026 21.1366 12.4026C20.4525 12.4026 19.7001 12.2352 18.8793 11.9005C18.1268 11.5658 17.648 11.0637 17.4428 10.3943H16.1089V10.0596C13.578 10.0596 11.4575 10.9522 9.74744 12.7373C8.51619 14.1877 7.55854 16.5864 6.87451 19.9335C6.6009 21.1607 6.39569 22.7227 6.25888 24.6193C6.12208 26.516 6.05368 28.2453 6.05368 29.8073C5.98527 30.6998 5.95107 32.4849 5.95107 35.1626L6.15628 41.0199L6.25888 46.7099C6.25888 48.3835 6.12208 50.3359 5.84846 52.5673C5.50645 55.3565 5.33544 57.3089 5.33544 58.4246V62.4411C5.33544 66.7923 5.43805 72.7612 5.64326 80.3479C5.71166 86.7073 6.15628 93.0667 6.97712 99.4261C7.59274 105.339 8.7556 110.36 10.4657 114.488C12.1073 118.727 14.3304 120.847 17.135 120.847C18.2978 120.847 19.7343 119.843 21.4444 117.835C23.2913 115.827 24.5909 114.823 25.3433 114.823C26.301 114.823 27.2928 115.659 28.3189 117.333C28.3189 121.461 27.3612 124.641 25.446 126.872C23.6675 128.88 21.547 130.163 19.0845 130.721C17.7164 130.944 16.622 131.056 15.8011 131.056Z" fill="#C69C3C"/>
<path d="M48.318 131.558C46.5395 131.558 44.8978 130.61 43.393 128.713C41.8881 126.928 40.6568 124.473 39.6992 121.349C37.7155 114.544 36.4842 107.124 36.0054 99.0914C35.3898 91.5047 35.082 84.197 35.082 77.1682C35.082 75.8293 35.1162 74.7136 35.1846 73.8211V70.8087C35.1846 70.2509 35.1504 69.972 35.082 69.972V66.9596L35.1846 55.2449C35.253 51.6747 35.5266 45.9847 36.0054 38.1749C36.3474 32.8196 37.1341 27.6317 38.3653 22.6111C38.8441 20.3797 39.4598 18.7062 40.2122 17.5905C40.9646 16.3633 41.8197 15.7496 42.7773 15.7496C45.5134 15.7496 47.976 16.5864 50.1649 18.2599C52.3538 19.8219 54.2006 22.0533 55.7055 24.954C57.0736 27.7433 58.2364 31.2019 59.1941 35.3299C60.1517 39.3464 60.8357 43.6418 61.2462 48.2161C61.6566 52.902 61.8618 57.8668 61.8618 63.1105V64.4493C61.8618 67.908 61.896 71.0319 61.9644 73.8211L62.067 83.3602C62.067 115.492 57.484 131.558 48.318 131.558ZM47.9076 124.529C49.1388 124.529 50.2675 123.748 51.2935 122.186C52.3196 120.513 53.1062 118.281 53.6534 115.492C54.9531 109.802 55.7397 103.666 56.0133 97.0832C56.3553 91.3932 56.5263 86.4841 56.5263 82.3561C56.5263 77.3355 56.2869 70.753 55.8081 62.6085C55.3977 54.0177 55.1925 47.6025 55.1925 43.3629V40.3505C55.0557 36.1109 54.1664 32.4291 52.5248 29.3052C50.9515 26.1813 49.002 24.6193 46.6763 24.6193C44.3506 24.6193 42.8115 26.7949 42.0591 31.1461C41.3751 34.6047 41.033 39.0675 41.033 44.5343C41.033 46.6541 41.0672 48.4392 41.1356 49.8896V54.4082L40.9304 62.1064C40.7936 64.4493 40.7252 67.0154 40.7252 69.8046C40.7252 75.8293 40.8278 81.7983 41.033 87.7114C41.3067 96.079 41.9907 104.224 43.0851 112.145C44.1796 120.401 45.7871 124.529 47.9076 124.529Z" fill="#C69C3C"/>
<path d="M114.637 137.081C112.516 137.081 111.456 133.622 111.456 126.705V105.283C111.456 99.705 111.216 92.3973 110.738 83.3602C110.19 73.2075 109.917 66.2344 109.917 62.4411L110.122 52.0652C110.259 49.0529 110.327 45.65 110.327 41.8567C110.054 43.3071 108.925 51.0053 106.941 64.9514C104.958 78.4512 102.906 90.9469 100.785 102.438C98.7329 113.484 97.0571 119.006 95.7574 119.006C94.4577 119.006 93.3975 118.393 92.5766 117.166C91.8242 115.827 91.448 114.042 91.448 111.81C91.448 106.901 90.2167 96.4695 87.7542 80.5152C85.3601 64.5609 83.1712 51.5074 81.1875 41.3546L80.5719 60.2655C80.0247 76.2198 79.6485 89.4965 79.4433 100.096C79.3064 110.36 79.238 117.389 79.238 121.182C79.238 122.075 79.2722 122.911 79.3406 123.692V126.035C79.3406 127.932 79.1012 129.326 78.6224 130.219C78.1436 131.223 77.2544 131.725 75.9547 131.725C75.2707 131.725 74.6208 131.279 74.0052 130.386C73.3896 129.605 73.0818 128.713 73.0818 127.709C73.0818 116.329 73.5948 99.2587 74.6208 76.4987C75.6469 53.7387 76.1599 36.6687 76.1599 25.2887C75.7495 24.2846 75.5443 23.2247 75.5443 22.109C75.5443 20.7702 75.9205 19.7661 76.6729 19.0967C77.4938 18.3157 78.4514 17.9252 79.5459 17.9252C80.4351 17.9252 82.0768 23.1689 84.4709 33.6564C86.865 44.1438 89.2591 56.0259 91.6532 69.3026C94.0473 82.5792 95.5864 92.1741 96.2704 98.0873C96.8176 95.0749 97.2623 92.2857 97.6043 89.7196L98.2199 85.7032C100.409 70.0835 102.598 55.9701 104.787 43.3629C106.086 35.6646 107.352 29.6399 108.583 25.2887C109.814 20.6029 110.943 18.2599 111.969 18.2599C112.927 18.2599 113.782 18.7062 114.534 19.5987C115.355 20.3797 115.765 21.4396 115.765 22.7784C115.765 30.8114 115.971 42.8608 116.381 58.9267C116.86 73.8769 117.099 85.48 117.099 93.7361L116.997 102.606L116.791 111.476C116.791 112.814 116.894 114.823 117.099 117.5L117.407 123.358C117.475 124.362 117.51 125.143 117.51 125.701C117.578 126.258 117.612 126.593 117.612 126.705C117.954 128.155 118.125 129.215 118.125 129.884C118.125 131.781 117.783 133.455 117.099 134.905C116.415 136.355 115.594 137.081 114.637 137.081Z" fill="#C69C3C"/>
<path d="M133.059 129.55C132.17 123.636 131.725 115.436 131.725 104.949L131.93 90.0543C132.067 85.5916 132.136 80.6268 132.136 75.1599C131.725 73.598 131.52 72.2033 131.52 70.9761V70.474C132.204 68.3542 132.546 63.5568 132.546 56.0817L132.649 48.3835C132.717 45.9289 132.751 43.1955 132.751 40.1832C132.751 33.6006 132.478 28.4127 131.93 24.6193C132.136 23.0574 132.478 21.7186 132.956 20.6029C133.435 19.3756 134.017 18.762 134.701 18.762H139.215C141.131 18.762 142.806 19.4872 144.243 20.9376C145.679 22.2764 146.774 24.2288 147.526 26.7949C148.894 31.3692 149.578 36.7803 149.578 43.0282C149.578 47.4909 149.544 51.0053 149.476 53.5714C149.339 56.8069 148.997 59.7635 148.45 62.4411C148.244 63.8915 147.937 65.1187 147.526 66.1229C147.184 67.0154 146.671 68.1311 145.987 69.4699C145.03 71.3666 143.456 73.1517 141.267 74.8252C140.378 75.6062 139.215 76.3314 137.779 77.0008V94.9076L137.984 105.618L138.189 110.806C138.463 117.054 138.6 122.353 138.6 126.705C138.6 128.043 138.258 129.159 137.574 130.052C136.89 131.056 136.103 131.558 135.214 131.558L133.059 129.55ZM137.881 70.1393C141.917 69.1352 143.935 59.7077 143.935 41.8567C143.935 38.6212 143.832 36.1109 143.627 34.3258C143.422 32.987 143.148 31.9271 142.806 31.1461C142.464 30.2535 141.951 29.5284 141.267 28.9705C140.515 28.3011 139.694 27.9664 138.805 27.9664C138.805 27.8548 138.429 27.799 137.676 27.799V37.3382C137.676 43.9207 137.71 49.7781 137.779 54.9102C137.779 60.7118 137.813 64.5051 137.881 66.2902V70.1393Z" fill="#C69C3C"/>
<path d="M175.46 131.056C172.998 129.717 169.954 129.048 166.329 129.048C165.234 130.163 164.071 130.721 162.84 130.721C162.019 130.721 161.301 130.107 160.685 128.88C160.138 127.765 159.864 126.537 159.864 125.198C159.864 115.827 160.104 103.331 160.583 87.7114C160.993 71.0877 161.198 58.6478 161.198 50.3917V49.2202C160.788 42.1914 160.583 36.9477 160.583 33.489C160.583 22.89 161.78 17.5905 164.174 17.5905C164.858 17.5905 165.439 18.0368 165.918 18.9293C166.465 19.7103 166.739 20.6587 166.739 21.7743C166.739 23.1132 166.636 25.233 166.431 28.1337C166.226 30.923 166.123 33.0428 166.123 34.4932C166.123 41.9683 166.158 48.7182 166.226 54.7429C166.294 60.656 166.329 67.3501 166.329 74.8252C165.987 76.4987 165.816 78.8417 165.816 81.854V83.8623L165.61 97.0832C165.474 100.988 165.405 105.451 165.405 110.471C165.405 118.17 166.534 122.019 168.791 122.019C168.928 122.019 169.133 122.019 169.407 122.019C169.749 121.907 170.193 121.851 170.741 121.851C171.356 121.74 172.143 121.684 173.1 121.684C176.794 121.684 178.641 123.358 178.641 126.705C178.641 127.82 178.333 128.769 177.718 129.55C177.102 130.331 176.35 130.833 175.46 131.056Z" fill="#C69C3C"/>
<path d="M191.834 130.554C190.945 130.554 190.124 130.052 189.371 129.048C188.687 128.043 188.311 126.816 188.243 125.366V117.668C188.174 116.663 188.14 115.492 188.14 114.153C188.14 111.81 188.037 108.24 187.832 103.443L187.627 92.732C187.627 87.2651 187.73 79.1206 187.935 68.2984C188.208 58.592 188.345 50.4475 188.345 43.8649C188.345 42.303 188.243 39.96 188.037 36.8361C187.832 33.6006 187.73 31.2577 187.73 29.8073C187.73 21.8859 189.166 17.9252 192.039 17.9252C194.296 17.9252 196.896 18.6504 199.837 20.1008C202.847 21.5512 204.352 23.2805 204.352 25.2887C204.352 26.4044 204.044 27.4643 203.428 28.4685C202.881 29.361 202.197 30.0862 201.376 30.644C198.503 28.9705 195.904 27.8548 193.578 27.297C193.647 28.9705 193.681 31.3692 193.681 34.4932C193.681 38.9559 193.647 42.9724 193.578 46.5426C193.373 51.8979 193.27 55.9143 193.27 58.592L193.578 61.2696L195.22 61.1023C195.767 60.9907 196.451 60.9349 197.272 60.9349C200.555 60.9349 202.197 62.4969 202.197 65.6208C202.197 66.8481 201.889 67.908 201.273 68.8005C200.658 69.5815 199.871 69.972 198.914 69.972C197.682 69.972 196.725 69.8604 196.041 69.6373H193.475C193.612 72.5381 193.681 76.7777 193.681 82.3561C193.681 87.9345 193.647 92.9551 193.578 97.4179C193.373 104.224 193.27 109.3 193.27 112.647C193.27 118.895 193.339 122.019 193.475 122.019L196.861 121.851C198.024 121.74 199.427 121.684 201.068 121.684C203.668 121.684 204.967 123.023 204.967 125.701C204.967 127.262 204.523 128.434 203.633 129.215C202.813 130.107 201.786 130.554 200.555 130.554H191.834Z" fill="#C69C3C"/>
<path d="M222.018 125.701L221.915 119.174C221.847 117.277 221.813 115.157 221.813 112.814L221.915 107.124C221.71 105.897 221.197 93.6803 220.376 70.474C219.556 47.2678 219.077 32.3734 218.94 25.7908C214.973 25.5677 212.442 24.8983 211.347 23.7826C210.595 22.89 210.218 21.8859 210.218 20.7702C210.218 19.8777 210.561 19.0967 211.245 18.4273C211.997 17.6463 212.749 17.2558 213.502 17.2558C215.417 17.2558 217.743 17.4789 220.479 17.9252C223.078 18.4831 225.404 18.762 227.456 18.762H229.098C231.218 18.762 232.278 20.1008 232.278 22.7784C232.278 24.1173 231.936 25.233 231.252 26.1255C230.568 26.9065 229.782 27.297 228.893 27.297C228.277 27.297 227.388 27.1296 226.225 26.7949L224.173 26.1255L223.968 27.799C223.968 37.7286 224.549 53.5714 225.712 75.3273C226.806 95.7443 227.353 111.587 227.353 122.856C227.353 124.194 226.977 125.366 226.225 126.37C225.541 127.374 224.754 127.876 223.865 127.876L222.018 125.701Z" fill="#C69C3C"/>
<path d="M247.244 130.554C246.355 130.554 245.534 130.052 244.782 129.048C244.098 128.043 243.722 126.816 243.653 125.366V117.668C243.585 116.663 243.551 115.492 243.551 114.153C243.551 111.81 243.448 108.24 243.243 103.443L243.038 92.732C243.038 87.2651 243.14 79.1206 243.345 68.2984C243.619 58.592 243.756 50.4475 243.756 43.8649C243.756 42.303 243.653 39.96 243.448 36.8361C243.243 33.6006 243.14 31.2577 243.14 29.8073C243.14 21.8859 244.577 17.9252 247.45 17.9252C249.707 17.9252 252.306 18.6504 255.248 20.1008C258.257 21.5512 259.762 23.2805 259.762 25.2887C259.762 26.4044 259.454 27.4643 258.839 28.4685C258.291 29.361 257.607 30.0862 256.787 30.644C253.914 28.9705 251.314 27.8548 248.989 27.297C249.057 28.9705 249.091 31.3692 249.091 34.4932C249.091 38.9559 249.057 42.9724 248.989 46.5426C248.783 51.8979 248.681 55.9143 248.681 58.592L248.989 61.2696L250.63 61.1023C251.178 60.9907 251.862 60.9349 252.682 60.9349C255.966 60.9349 257.607 62.4969 257.607 65.6208C257.607 66.8481 257.3 67.908 256.684 68.8005C256.068 69.5815 255.282 69.972 254.324 69.972C253.093 69.972 252.135 69.8604 251.451 69.6373H248.886C249.023 72.5381 249.091 76.7777 249.091 82.3561C249.091 87.9345 249.057 92.9551 248.989 97.4179C248.783 104.224 248.681 109.3 248.681 112.647C248.681 118.895 248.749 122.019 248.886 122.019L252.272 121.851C253.435 121.74 254.837 121.684 256.479 121.684C259.078 121.684 260.378 123.023 260.378 125.701C260.378 127.262 259.933 128.434 259.044 129.215C258.223 130.107 257.197 130.554 255.966 130.554H247.244Z" fill="#C69C3C"/>
<path d="M274.966 129.382C273.188 129.382 272.298 122.075 272.298 107.459L272.504 81.0173C272.572 73.2075 272.606 64.4493 272.606 54.7429C272.606 51.1727 272.401 45.65 271.991 38.1749C271.648 30.0304 271.477 25.0656 271.477 23.2805C271.477 21.8301 271.854 20.5471 272.606 19.4314C273.359 18.3157 274.179 17.7579 275.069 17.7579C277.463 17.7579 279.754 18.6504 281.943 20.4355C284.2 22.109 286.184 24.5078 287.894 27.6317C291.52 34.4374 293.914 41.9125 295.077 50.057C295.692 54.185 296 58.2573 296 62.2737C296 63.7241 295.966 65.063 295.897 66.2902L295.795 70.8087V80.0132C295.795 87.1535 295.658 92.7878 295.384 96.9158C294.974 102.494 294.187 107.459 293.024 111.81C291.656 116.496 289.673 120.68 287.073 124.362C285.842 126.035 284.269 127.709 282.354 129.382H274.966ZM279.481 120.847C280.849 120.847 282.114 120.289 283.277 119.174C284.44 117.946 285.432 116.329 286.253 114.321C286.937 112.535 287.552 110.304 288.099 107.626C288.715 104.837 289.16 102.16 289.433 99.5934C290.049 94.5729 290.425 89.4407 290.562 84.197C290.63 82.8582 290.665 80.9057 290.665 78.3396C290.665 44.6459 286.663 27.0738 278.66 25.6235C278.181 30.644 277.942 36.4456 277.942 43.0282C277.942 50.057 278.215 62.3295 278.762 79.8458C279.241 95.3538 279.481 107.682 279.481 116.831V120.847Z" fill="#C69C3C"/>
</svg>
