<svg width="1008" height="411" viewBox="0 0 1008 411" fill="none" xmlns="http://www.w3.org/2000/svg">
<g clip-path="url(#clip0_1105_1509)">
<path d="M38.6385 383.762C86.3475 383.762 112.529 327.665 99.7293 289.663C95.6565 277.719 86.3475 266.862 70.6383 257.09C65.4021 253.833 63.6567 251.299 65.4021 247.318C74.7111 226.689 85.1838 206.421 95.6565 186.877C96.8202 184.706 99.1473 182.896 103.22 181.087C141.038 164.438 177.693 145.98 212.02 121.732C242.275 100.74 274.856 69.9773 285.329 43.919C291.147 29.4421 293.474 9.53647 272.529 3.02191C252.747 -3.49265 235.875 5.55535 210.856 19.3083C117.184 73.2344 54.9294 170.229 19.4384 262.881C-2.08886 318.617 -17.2161 383.762 38.6385 383.762ZM128.82 137.656C164.311 90.6068 195.147 61.6532 246.929 31.6136C249.256 30.1661 249.256 31.2518 249.256 31.9757C249.256 44.6429 228.311 68.5295 206.202 87.3494C191.656 100.017 138.711 134.399 128.82 137.656ZM42.711 355.895C39.2202 355.895 38.6385 348.293 39.2202 344.312C40.9656 329.111 49.1112 283.148 52.602 283.148C57.2565 283.148 65.4021 305.588 64.8201 312.824C63.6567 327.665 47.9475 355.895 42.711 355.895Z" fill="#C69C3C"/>
<path d="M251.079 309.93C262.134 309.93 272.606 303.417 268.534 294.369C265.043 286.768 267.37 279.53 270.279 272.653C283.079 242.252 293.552 239.719 308.097 212.937C310.425 208.594 314.496 203.165 314.496 197.374C314.496 185.069 298.788 175.659 279.006 177.83C277.261 177.83 262.715 180.002 262.715 180.002C262.715 179.64 279.588 163.716 283.661 150.686C287.734 138.019 291.806 124.266 273.188 116.304C265.043 113.047 255.734 112.323 245.261 114.133C217.915 118.837 187.661 144.534 177.77 166.611C170.788 181.45 170.206 195.565 185.915 205.336C208.606 219.451 228.97 213.661 267.37 204.974C269.697 204.251 270.861 205.698 270.279 207.146C270.861 205.336 241.188 248.767 237.697 255.281C229.552 270.844 221.406 290.749 232.461 302.331C237.115 307.035 243.515 309.93 251.079 309.93ZM214.425 177.106C219.079 163.354 224.897 155.029 244.097 143.086C246.424 141.638 246.424 142 245.843 143.81C240.025 159.01 229.552 170.23 214.425 177.106Z" fill="#C69C3C"/>
<path d="M419.286 90.9689C429.177 90.9689 437.904 85.5401 437.904 79.0256C437.904 73.2347 429.177 68.168 419.286 68.168C409.395 68.168 401.25 73.5968 401.25 79.7495C401.25 85.9019 409.395 90.9689 419.286 90.9689ZM347.139 279.168C360.522 279.168 363.432 271.567 366.339 263.605C375.648 237.547 384.96 211.488 397.758 187.24C403.578 176.02 414.63 151.048 414.63 145.981C414.63 139.104 407.067 134.037 397.176 132.952C377.976 131.504 376.23 142.723 369.831 156.838L359.358 180.725C348.885 204.612 335.505 228.861 329.103 253.109C325.614 266.5 325.032 279.168 347.139 279.168Z" fill="#C69C3C"/>
<path d="M544.551 276.633C559.098 276.633 565.497 269.395 562.587 257.814C559.68 245.146 561.423 232.117 562.587 221.259C563.169 214.745 566.661 209.316 572.478 204.249L602.733 177.829C646.371 139.466 677.787 106.169 696.405 66.3577C701.643 54.7762 701.643 40.2994 686.514 34.1467C661.497 24.3749 631.824 42.4708 610.878 59.4811C581.205 83.368 574.806 99.2923 553.86 131.503C550.371 136.208 550.371 136.208 542.805 135.484C521.862 133.313 502.08 136.57 484.044 146.342C439.242 170.229 403.17 218.726 410.733 251.661C414.225 269.033 439.824 279.167 468.333 270.843C484.623 265.776 492.771 261.071 521.862 245.146C524.769 259.985 524.187 276.633 544.551 276.633ZM585.279 150.323C602.151 116.664 631.824 71.4244 655.68 64.9099C655.68 72.1483 636.48 98.2066 621.351 114.131C608.553 127.16 591.096 144.894 587.607 148.152L585.279 150.323ZM450.879 248.042C446.223 246.956 447.969 236.098 450.879 229.584C458.442 210.402 471.243 193.392 488.697 178.553C496.842 171.676 507.315 164.438 521.862 160.457C531.171 157.923 536.988 164.8 534.66 175.658C531.171 190.858 531.753 199.544 514.878 211.126C479.97 236.098 457.278 250.213 450.879 248.042Z" fill="#C69C3C"/>
<path d="M767.973 280.979C780.192 280.979 787.173 276.636 783.684 261.797C775.539 226.691 783.684 202.804 798.81 164.44C804.63 150.326 788.919 135.125 762.156 132.591C693.501 126.439 631.248 183.984 617.865 236.825C613.791 252.387 621.939 271.569 643.464 276.636C662.664 281.341 680.7 272.655 696.411 262.883C715.611 250.939 735.393 228.5 742.956 222.71L742.374 243.701C742.374 252.025 742.374 259.264 745.866 270.121C748.191 278.807 756.339 280.979 767.973 280.979ZM657.429 250.216C654.519 250.216 655.683 240.082 657.429 235.377C667.902 207.871 685.356 184.346 716.193 166.974C728.412 160.098 741.21 156.84 755.175 156.84C758.664 156.84 761.574 158.65 758.664 160.459C734.229 175.66 675.465 250.216 657.429 250.216Z" fill="#C69C3C"/>
<path d="M837.57 410.544C859.098 410.544 879.459 402.945 891.678 391.725C924.261 362.049 937.641 334.542 992.916 195.203C1005.13 162.268 1017.93 143.086 996.405 135.848C977.205 129.695 957.423 149.239 935.316 172.764C928.914 179.278 899.241 210.403 889.35 219.09C878.88 228.499 871.314 235.738 859.68 242.976C855.024 245.872 857.352 235.738 857.934 233.205C866.079 198.098 882.369 176.383 895.752 145.258C898.659 138.743 893.424 132.229 884.115 130.057C874.806 127.886 865.497 131.143 859.68 137.295C857.352 139.467 836.406 182.536 830.007 197.013C818.37 223.794 806.151 264.33 839.898 272.292C859.098 276.635 875.97 268.311 891.096 257.815C902.733 250.215 913.206 241.167 925.425 228.861C932.406 221.623 939.969 215.109 946.95 208.232C939.387 229.947 921.933 274.101 919.023 279.53C917.859 282.064 917.28 283.511 913.788 284.235C853.278 296.541 784.041 347.934 794.514 387.021C798.006 399.687 813.132 410.544 837.57 410.544ZM832.332 377.61C832.914 360.6 861.423 327.666 899.823 315.723C912.042 311.742 877.134 359.877 863.751 374.352C853.86 384.849 832.332 392.088 832.332 377.61Z" fill="#C69C3C"/>
</g>
<defs>
<clipPath id="clip0_1105_1509">
<rect width="1008" height="411" fill="white"/>
</clipPath>
</defs>
</svg>
