<svg width="336" height="137" viewBox="0 0 336 137" fill="none" xmlns="http://www.w3.org/2000/svg">
<path d="M12.8795 127.921C28.7825 127.921 37.5097 109.222 33.2431 96.5545C31.8855 92.5734 28.7825 88.9542 23.5461 85.6969C21.8007 84.6112 21.2189 83.7667 21.8007 82.4396C24.9037 75.5631 28.3946 68.8073 31.8855 62.2927C32.2734 61.5689 33.0491 60.9657 34.4067 60.3625C47.0128 54.813 59.2309 48.6604 70.6734 40.5775C80.7582 33.5804 91.6188 23.326 95.1097 14.6399C97.0491 9.81427 97.8248 3.17907 90.843 1.00755C84.2491 -1.16397 78.6249 1.85203 70.2855 6.43636C39.0613 24.4117 18.3098 56.7433 6.47947 87.6272C-0.696282 106.206 -5.7387 127.921 12.8795 127.921ZM42.94 45.8857C54.7703 30.2025 65.0491 20.5513 82.3097 10.5381C83.0855 10.0556 83.0855 10.4175 83.0855 10.6588C83.0855 14.8812 76.1037 22.8434 68.734 29.1167C63.8855 33.3391 46.237 44.7999 42.94 45.8857ZM14.237 118.632C13.0734 118.632 12.8795 116.098 13.0734 114.771C13.6552 109.704 16.3704 94.383 17.534 94.383C19.0855 94.383 21.8007 101.863 21.6067 104.275C21.2189 109.222 15.9825 118.632 14.237 118.632Z" fill="#C69C3C"/>
<path d="M83.693 103.31C87.3779 103.31 90.8688 101.139 89.5112 98.1228C88.3476 95.5894 89.1233 93.1766 90.093 90.8844C94.3597 80.7507 97.8506 79.9062 102.699 70.9788C103.475 69.5311 104.832 67.7215 104.832 65.7913C104.832 61.6895 99.5961 58.5529 93.0021 59.2767C92.4203 59.2767 87.5718 60.0006 87.5718 60.0006C87.5718 59.8799 93.1961 54.5718 94.5536 50.2287C95.9112 46.0063 97.2688 41.422 91.0627 38.7679C88.3476 37.6821 85.2446 37.4409 81.7536 38.0441C72.6385 39.6124 62.5537 48.1778 59.2567 55.5369C56.9294 60.4831 56.7355 65.1881 61.9718 68.4454C69.5355 73.1503 76.3233 71.2201 89.1233 68.3247C89.8991 68.0835 90.287 68.566 90.093 69.0486C90.287 68.4454 80.3961 82.9222 79.2324 85.0937C76.5173 90.2812 73.8021 96.9164 77.487 100.777C79.0385 102.345 81.1718 103.31 83.693 103.31ZM71.4749 59.0354C73.0264 54.4511 74.9658 51.6764 81.3658 47.6953C82.1415 47.2127 82.1415 47.3334 81.9476 47.9366C80.0082 53.0034 76.5173 56.7433 71.4749 59.0354Z" fill="#C69C3C"/>
<path d="M139.762 30.3231C143.059 30.3231 145.968 28.5135 145.968 26.342C145.968 24.4117 143.059 22.7228 139.762 22.7228C136.465 22.7228 133.75 24.5324 133.75 26.5833C133.75 28.6341 136.465 30.3231 139.762 30.3231ZM115.713 93.056C120.174 93.056 121.144 90.5225 122.113 87.8684C125.216 79.1824 128.32 70.4963 132.586 62.4134C134.526 58.6735 138.21 50.3494 138.21 48.6604C138.21 46.3682 135.689 44.6793 132.392 44.3174C125.992 43.8348 125.41 47.5746 123.277 52.2796L119.786 60.2419C116.295 68.2041 111.835 76.287 109.701 84.3699C108.538 88.8336 108.344 93.056 115.713 93.056Z" fill="#C69C3C"/>
<path d="M181.517 92.2115C186.366 92.2115 188.499 89.7987 187.529 85.9382C186.56 81.7158 187.141 77.3727 187.529 73.7535C187.723 71.582 188.887 69.7724 190.826 68.0835L200.911 59.2767C215.457 46.4889 225.929 35.39 232.135 22.1196C233.881 18.2591 233.881 13.4335 228.838 11.3826C220.499 8.12532 210.608 14.1573 203.626 19.8274C193.735 27.7897 191.602 33.0978 184.62 43.8348C183.457 45.4031 183.457 45.4031 180.935 45.1618C173.954 44.438 167.36 45.5238 161.348 48.781C146.414 56.7433 134.39 72.9091 136.911 83.8873C138.075 89.678 146.608 93.056 156.111 90.2812C161.541 88.5923 164.257 87.024 173.954 81.7158C174.923 86.662 174.729 92.2115 181.517 92.2115ZM195.093 50.1081C200.717 38.8885 210.608 23.8085 218.56 21.637C218.56 24.0498 212.16 32.7359 207.117 38.0441C202.851 42.3871 197.032 48.2985 195.869 49.3842L195.093 50.1081ZM150.293 82.6809C148.741 82.319 149.323 78.6998 150.293 76.5283C152.814 70.1343 157.081 64.4643 162.899 59.518C165.614 57.2258 169.105 54.813 173.954 53.486C177.057 52.6415 178.996 54.9337 178.22 58.5529C177.057 63.6198 177.251 66.5151 171.626 70.3756C159.99 78.6998 152.426 83.4048 150.293 82.6809Z" fill="#C69C3C"/>
<path d="M255.991 93.6592C260.064 93.6592 262.391 92.2115 261.228 87.2652C258.513 75.5631 261.228 67.6009 266.27 54.813C268.21 50.1081 262.973 45.0412 254.052 44.1967C231.167 42.1458 210.416 61.3276 205.955 78.9411C204.597 84.1286 207.313 90.5225 214.488 92.2115C220.888 93.7798 226.9 90.8844 232.137 87.6272C238.537 83.646 245.131 76.1663 247.652 74.2361L247.458 81.2332C247.458 84.008 247.458 86.4208 248.622 90.04C249.397 92.9353 252.113 93.6592 255.991 93.6592ZM219.143 83.4048C218.173 83.4048 218.561 80.0268 219.143 78.4585C222.634 69.2899 228.452 61.4482 238.731 55.6575C242.804 53.3654 247.07 52.2796 251.725 52.2796C252.888 52.2796 253.858 52.8828 252.888 53.486C244.743 58.5529 225.155 83.4048 219.143 83.4048Z" fill="#C69C3C"/>
<path d="M279.19 136.848C286.366 136.848 293.153 134.315 297.226 130.575C308.087 120.683 312.547 111.514 330.972 65.0675C335.044 54.0892 339.311 47.6953 332.135 45.2825C325.735 43.2316 319.141 49.7462 311.772 57.5878C309.638 59.7593 299.747 70.1343 296.45 73.0297C292.96 76.1663 290.438 78.5791 286.56 80.9919C285.008 81.9571 285.784 78.5791 285.978 77.7347C288.693 66.0326 294.123 58.7942 298.584 48.4191C299.553 46.2476 297.808 44.0761 294.705 43.3522C291.602 42.6284 288.499 43.7142 286.56 45.765C285.784 46.4889 278.802 60.8451 276.669 65.6707C272.79 74.598 268.717 88.1097 279.966 90.7638C286.366 92.2115 291.99 89.4368 297.032 85.9382C300.911 83.4048 304.402 80.3887 308.475 76.287C310.802 73.8742 313.323 71.7027 315.65 69.4105C313.129 76.6489 307.311 91.367 306.341 93.1766C305.953 94.0211 305.76 94.5036 304.596 94.7449C284.426 98.8467 261.347 115.978 264.838 129.007C266.002 133.229 271.044 136.848 279.19 136.848ZM277.444 125.87C277.638 120.2 287.141 109.222 299.941 105.241C304.014 103.914 292.378 119.959 287.917 124.784C284.62 128.283 277.444 130.696 277.444 125.87Z" fill="#C69C3C"/>
</svg>
