<svg width="296" height="138" viewBox="0 0 296 138" fill="none" xmlns="http://www.w3.org/2000/svg">
<path d="M18.7711 137.235C16.2489 137.235 13.9207 136.12 11.7865 133.89C9.6523 131.791 7.90616 128.905 6.54804 125.232C3.73481 117.23 1.98867 108.506 1.30961 99.0612C0.436536 90.1409 0 81.5485 0 73.284C0 71.7099 0.048504 70.398 0.145512 69.3486V65.8067C0.145512 65.1508 0.0970079 64.8228 0 64.8228V61.2809L0.145512 47.5069C0.24252 43.3091 0.630552 36.6188 1.30961 27.4361C1.79465 21.1394 2.91024 15.0394 4.65639 9.13626C5.33544 6.51263 6.20852 4.5449 7.27561 3.23308C8.34269 1.79009 9.55529 1.06859 10.9134 1.06859C14.7937 1.06859 18.286 2.05245 21.3903 4.02017C24.4945 5.85671 27.1138 8.48034 29.2479 11.8911C31.1881 15.1706 32.8372 19.2372 34.1953 24.0909C35.5535 28.8135 36.5235 33.864 37.1056 39.2424C37.6876 44.752 37.9787 50.5896 37.9787 56.7552V58.3293C37.9787 62.396 38.0272 66.0691 38.1242 69.3486L38.2697 80.5646C38.2697 118.345 31.7701 137.235 18.7711 137.235ZM18.189 128.971C19.9352 128.971 21.5358 128.052 22.9909 126.216C24.446 124.248 25.5616 121.624 26.3377 118.345C28.1808 111.655 29.2964 104.44 29.6845 96.6999C30.1695 90.0097 30.412 84.2377 30.412 79.384C30.412 73.4808 30.0725 65.7411 29.3934 56.1648C28.8114 46.0639 28.5204 38.5209 28.5204 33.536V29.9941C28.3264 25.0092 27.0652 20.6802 24.7371 17.0072C22.5059 13.3341 19.7411 11.4975 16.4429 11.4975C13.1446 11.4975 10.9619 14.0556 9.89482 19.1716C8.92474 23.2383 8.4397 28.4855 8.4397 34.9134C8.4397 37.4059 8.48821 39.5048 8.58521 41.2101V46.523L8.29419 55.5745C8.10017 58.3293 8.00317 61.3465 8.00317 64.6261C8.00317 71.7099 8.14868 78.7281 8.4397 85.6807C8.82773 95.5193 9.79781 105.096 11.3499 114.409C12.9021 124.117 15.1818 128.971 18.189 128.971Z" fill="#E06E51"/>
<path d="M73.6803 136.251C71.5461 136.251 69.2664 135.792 66.8412 134.874C64.513 134.087 62.7184 133.168 61.4573 132.119C54.9577 126.478 51.7079 111.064 51.7079 85.8775V69.7421C51.7079 64.4949 51.7565 59.8379 51.8535 55.7713C51.9505 51.5735 52.1445 47.0477 52.4355 42.194C52.7265 37.0779 53.1631 32.9457 53.7451 29.7974C54.3272 26.5178 55.2972 22.8447 56.6554 18.7781C57.8195 14.9738 59.2261 12.0222 60.8752 9.92335C62.6214 7.82444 64.8525 6.05349 67.5688 4.61049C69.994 3.1675 73.0012 2.446 76.5905 2.446C78.0456 2.446 79.1612 2.90513 79.9373 3.8234C80.7134 4.74168 81.1014 5.92231 81.1014 7.3653C81.1014 8.67712 80.7619 9.85775 80.0828 10.9072C79.5008 11.9567 78.7732 12.547 77.9001 12.6782H71.0611C69.1209 12.6782 67.4233 14.3179 65.9681 17.5975C64.513 20.877 63.4944 25.1404 62.9124 30.3877C61.6513 40.0951 61.0207 47.966 61.0207 54.0003V54.9842L60.7297 73.8744C60.5357 79.5152 60.4387 85.8775 60.4387 92.9613C60.4387 97.9462 60.5842 102.013 60.8752 105.161C61.3602 109.884 62.1848 113.819 63.3489 116.967C64.513 120.509 66.5017 123.067 69.3149 124.642C70.77 125.429 72.3707 125.822 74.1168 125.822C75.1839 125.822 76.251 125.298 77.3181 124.248C78.5792 124.248 79.5978 124.642 80.3738 125.429C81.2469 126.085 81.6834 127.134 81.6834 128.577C81.6834 133.693 79.0157 136.251 73.6803 136.251Z" fill="#E06E51"/>
<path d="M102.971 130.348L102.826 122.674C102.729 120.444 102.68 117.951 102.68 115.197L102.826 108.506C102.535 107.063 101.807 92.6989 100.643 65.4131C99.4791 38.1274 98.8001 20.6146 98.606 12.8749C92.9796 12.6126 89.3903 11.8255 87.8381 10.5137C86.7711 9.46421 86.2375 8.28358 86.2375 6.97176C86.2375 5.92231 86.7226 5.00404 87.6926 4.21695C88.7597 3.29868 89.8268 2.83954 90.8939 2.83954C93.6101 2.83954 96.9084 3.1019 100.789 3.62663C104.475 4.28254 107.773 4.61049 110.684 4.61049H113.012C116.019 4.61049 117.523 6.18467 117.523 9.33302C117.523 10.9072 117.038 12.219 116.067 13.2685C115.097 14.1867 113.982 14.6459 112.721 14.6459C111.848 14.6459 110.587 14.4491 108.937 14.0556L106.027 13.2685L105.736 15.2362C105.736 26.9114 106.561 45.5391 108.21 71.1195C109.762 95.1258 110.538 113.754 110.538 127.003C110.538 128.577 110.004 129.954 108.937 131.135C107.967 132.316 106.852 132.906 105.591 132.906L102.971 130.348Z" fill="#E06E51"/>
<path d="M149.078 137.235C146.556 137.235 144.228 136.12 142.094 133.89C139.96 131.791 138.213 128.905 136.855 125.232C134.042 117.23 132.296 108.506 131.617 99.0612C130.744 90.1409 130.307 81.5485 130.307 73.284C130.307 71.7099 130.356 70.398 130.453 69.3486V65.8067C130.453 65.1508 130.404 64.8228 130.307 64.8228V61.2809L130.453 47.5069C130.55 43.3091 130.938 36.6188 131.617 27.4361C132.102 21.1394 133.217 15.0394 134.964 9.13626C135.643 6.51263 136.516 4.5449 137.583 3.23308C138.65 1.79009 139.863 1.06859 141.221 1.06859C145.101 1.06859 148.593 2.05245 151.697 4.02017C154.802 5.85671 157.421 8.48034 159.555 11.8911C161.495 15.1706 163.144 19.2372 164.503 24.0909C165.861 28.8135 166.831 33.864 167.413 39.2424C167.995 44.752 168.286 50.5896 168.286 56.7552V58.3293C168.286 62.396 168.334 66.0691 168.431 69.3486L168.577 80.5646C168.577 118.345 162.077 137.235 149.078 137.235ZM148.496 128.971C150.242 128.971 151.843 128.052 153.298 126.216C154.753 124.248 155.869 121.624 156.645 118.345C158.488 111.655 159.604 104.44 159.992 96.6999C160.477 90.0097 160.719 84.2377 160.719 79.384C160.719 73.4808 160.38 65.7411 159.701 56.1648C159.119 46.0639 158.828 38.5209 158.828 33.536V29.9941C158.634 25.0092 157.372 20.6802 155.044 17.0072C152.813 13.3341 150.048 11.4975 146.75 11.4975C143.452 11.4975 141.269 14.0556 140.202 19.1716C139.232 23.2383 138.747 28.4855 138.747 34.9134C138.747 37.4059 138.795 39.5048 138.892 41.2101V46.523L138.601 55.5745C138.407 58.3293 138.31 61.3465 138.31 64.6261C138.31 71.7099 138.456 78.7281 138.747 85.6807C139.135 95.5193 140.105 105.096 141.657 114.409C143.209 124.117 145.489 128.971 148.496 128.971Z" fill="#E06E51"/>
<path d="M188.709 135.464C186.575 135.464 185.265 134.218 184.78 131.725C184.392 130.151 184.198 127.921 184.198 125.035C184.198 119.394 184.392 112.442 184.78 104.177C185.265 96.3064 185.507 89.2882 185.507 83.1227C185.507 76.17 185.653 65.7411 185.944 51.8359L186.235 20.7458C186.235 19.5652 186.09 17.7942 185.798 15.433L185.362 10.5137V9.5298C185.362 6.51262 185.701 4.28253 186.381 2.83954C187.06 1.39655 188.321 0.675049 190.164 0.675049C192.686 0.675049 195.451 1.65891 198.458 3.62663C201.465 5.59435 203.648 8.0868 205.006 11.104C207.819 17.4007 209.226 25.2716 209.226 34.7167C209.226 41.8005 208.789 47.7692 207.916 52.6229C207.043 57.3455 205.54 61.7401 203.405 65.8067C206.025 69.2174 207.771 73.612 208.644 78.9904C209.614 84.2377 210.099 90.8624 210.099 98.8644C210.099 106.867 209.08 113.819 207.043 119.722C204.715 126.413 201.32 131.004 196.857 133.496C194.141 134.808 191.425 135.464 188.709 135.464ZM193.365 60.1003C198.41 59.9691 200.932 52.0326 200.932 36.2908C200.932 19.3684 198.943 10.5137 194.966 9.72658C193.899 12.7438 193.365 19.8276 193.365 30.978V60.1003ZM192.492 125.429C195.596 124.51 198.021 122.018 199.768 117.951C201.514 113.885 202.387 109.228 202.387 103.981C202.387 98.4709 202.144 93.6172 201.659 89.4194C201.271 86.1398 200.738 83.4506 200.059 81.3517C199.477 79.1216 198.652 77.0883 197.585 75.2518C196.421 73.284 195.063 72.1034 193.511 71.7099C193.123 79.1872 192.929 89.0914 192.929 101.422C192.929 102.21 192.832 104.702 192.638 108.9L192.347 115.59C192.347 115.852 192.395 116.049 192.492 116.18V125.429Z" fill="#E06E51"/>
<path d="M232.676 136.054C231.415 136.054 230.251 135.464 229.184 134.283C228.214 133.103 227.68 131.66 227.583 129.954V120.903C227.486 119.722 227.438 118.345 227.438 116.771C227.438 114.016 227.292 109.818 227.001 104.177L226.71 91.5839C226.71 85.156 226.856 75.5797 227.147 62.8551C227.535 51.4423 227.729 41.8661 227.729 34.1263C227.729 32.2898 227.583 29.535 227.292 25.8619C227.001 22.0576 226.856 19.3028 226.856 17.5975C226.856 8.28357 228.893 3.62663 232.967 3.62663C236.168 3.62663 239.855 4.47931 244.026 6.18467C248.294 7.89004 250.429 9.92335 250.429 12.2846C250.429 13.5964 249.992 14.8427 249.119 16.0233C248.343 17.0727 247.373 17.9254 246.209 18.5813C242.134 16.6136 238.448 15.3018 235.15 14.6459C235.247 16.6136 235.295 19.434 235.295 23.1071C235.295 28.3544 235.247 33.0769 235.15 37.2747C234.859 43.5714 234.713 48.294 234.713 51.4423L235.15 54.5907L237.478 54.3939C238.254 54.2627 239.224 54.1971 240.388 54.1971C245.045 54.1971 247.373 56.0337 247.373 59.7067C247.373 61.1497 246.936 62.396 246.063 63.4454C245.19 64.3637 244.075 64.8228 242.716 64.8228C240.97 64.8228 239.612 64.6916 238.642 64.4293H235.004C235.198 67.84 235.295 72.8249 235.295 79.384C235.295 85.9431 235.247 91.8462 235.15 97.0935C234.859 105.096 234.713 111.064 234.713 115C234.713 122.346 234.81 126.019 235.004 126.019L239.806 125.822C241.455 125.691 243.444 125.625 245.772 125.625C249.459 125.625 251.302 127.2 251.302 130.348C251.302 132.185 250.671 133.562 249.41 134.48C248.246 135.53 246.791 136.054 245.045 136.054H232.676Z" fill="#E06E51"/>
<path d="M292.799 136.842C290.665 136.842 288.724 133.693 286.978 127.396C284.941 120.575 283.437 113.557 282.467 106.342L281.449 99.6515C278.636 80.8926 276.841 70.2013 276.065 67.5776H274.319C274.319 71.3819 274.27 74.8582 274.173 78.0066V88.829C274.173 106.407 275.095 120.116 276.938 129.954L275.337 135.267H271.263L269.371 132.316L269.517 119.132C269.517 107.326 269.08 89.4194 268.207 65.4131C267.431 39.8327 267.043 21.9265 267.043 11.6943C267.043 5.39758 268.644 2.24922 271.845 2.24922C277.083 2.24922 281.352 4.08576 284.65 7.75884C288.045 11.4319 289.743 16.548 289.743 23.1071V36.8812C289.743 38.8489 289.5 41.1446 289.015 43.7682C288.53 46.2606 287.997 48.294 287.415 49.8681L284.65 56.9519L282.322 62.8551L283.049 67.5776L285.087 81.5485C286.445 91.6495 287.754 99.8483 289.015 106.145C290.277 112.442 291.829 118.148 293.672 123.264L294.545 125.625C295.515 128.249 296 130.348 296 131.922C296 133.234 295.709 134.349 295.127 135.267C294.545 136.317 293.769 136.842 292.799 136.842ZM274.901 57.9358C277.035 56.4928 278.83 52.5574 280.285 46.1295C281.837 39.5704 282.613 33.536 282.613 28.0264C282.613 23.8286 282.225 19.8931 281.449 16.2201C280.964 14.1212 280.139 12.547 278.975 11.4975C277.908 10.3169 276.55 9.72658 274.901 9.72658L274.61 10.7104L274.319 12.4814L274.61 35.7005C274.804 42.522 274.901 49.9337 274.901 57.9358Z" fill="#E06E51"/>
</svg>
