<svg width="888" height="414" viewBox="0 0 888 414" fill="none" xmlns="http://www.w3.org/2000/svg">
<path d="M56.3133 411.704C48.7467 411.704 41.7621 408.359 35.3595 401.669C28.9569 395.372 23.7185 386.714 19.6441 375.695C11.2044 351.689 5.96601 325.517 3.92883 297.183C1.30961 270.422 0 244.645 0 219.851C0 215.129 0.145512 211.193 0.436536 208.045V197.419C0.436536 195.452 0.291024 194.468 0 194.468V183.842L0.436536 142.52C0.72756 129.927 1.89166 109.856 3.92883 82.3076C5.38395 63.4175 8.73072 45.1175 13.9692 27.4081C16.0063 19.5372 18.6256 13.634 21.8268 9.69855C25.0281 5.36958 28.6659 3.20508 32.7402 3.20508C44.3811 3.20508 54.858 6.15666 64.1709 12.0598C73.4835 17.5694 81.3414 25.4403 87.7437 35.6726C93.5643 45.5111 98.5116 57.7109 102.586 72.272C106.66 86.4398 109.57 101.591 111.317 117.727C113.063 134.255 113.936 151.768 113.936 170.265V174.987C113.936 187.187 114.082 198.207 114.373 208.045L114.809 241.693C114.809 355.034 95.3103 411.704 56.3133 411.704ZM54.567 386.912C59.8056 386.912 64.6074 384.155 68.9727 378.647C73.338 372.743 76.6848 364.871 79.0131 355.034C84.5424 334.964 87.8892 313.319 89.0535 290.099C90.5085 270.028 91.236 252.712 91.236 238.151C91.236 220.442 90.2175 197.223 88.1802 168.494C86.4342 138.191 85.5612 115.562 85.5612 100.607V89.9816C84.9792 75.0269 81.1956 62.0399 74.2113 51.0209C67.5177 40.0016 59.2233 34.4918 49.3287 34.4918C39.4338 34.4918 32.8857 42.1661 29.6845 57.5141C26.7742 69.7142 25.3191 85.4558 25.3191 104.74C25.3191 112.217 25.4646 118.514 25.7556 123.63V139.568L24.8826 166.723C24.3005 174.987 24.0095 184.039 24.0095 193.878C24.0095 215.129 24.446 236.184 25.3191 257.041C26.4832 286.557 29.3934 315.287 34.0497 343.226C38.7063 372.35 45.5454 386.912 54.567 386.912Z" fill="#E06E51"/>
<path d="M221.041 408.755C214.639 408.755 207.8 407.378 200.524 404.624C193.539 402.263 188.156 399.506 184.372 396.359C164.873 379.436 155.124 333.194 155.124 257.634V209.228C155.124 193.487 155.27 179.516 155.561 167.316C155.852 154.722 156.434 141.145 157.307 126.584C158.18 111.236 159.49 98.8389 161.236 89.394C162.982 79.5552 165.892 68.5359 169.967 56.3361C173.459 44.9232 177.679 36.0684 182.626 29.7719C187.865 23.4752 194.558 18.1623 202.707 13.8333C209.982 9.50434 219.004 7.33984 229.772 7.33984C234.137 7.33984 237.484 8.71723 239.812 11.472C242.141 14.2269 243.305 17.7688 243.305 22.0977C243.305 26.0332 242.286 29.5751 240.249 32.7234C238.503 35.8719 236.32 37.6428 233.701 38.0364H213.184C207.363 38.0364 202.27 42.9555 197.905 52.7943C193.539 62.6328 190.484 75.423 188.738 91.1649C184.954 120.287 183.062 143.9 183.062 162.003V164.954L182.189 221.625C181.607 238.547 181.316 257.634 181.316 278.886C181.316 293.84 181.753 306.041 182.626 315.485C184.081 329.654 186.555 341.459 190.047 350.903C193.539 361.529 199.505 369.203 207.945 373.928C212.31 376.289 217.112 377.468 222.351 377.468C225.552 377.468 228.753 375.896 231.955 372.746C235.738 372.746 238.794 373.928 241.122 376.289C243.741 378.257 245.051 381.404 245.051 385.733C245.051 401.081 237.047 408.755 221.041 408.755Z" fill="#E06E51"/>
<path d="M308.912 391.045L308.477 368.023C308.186 361.333 308.039 353.854 308.039 345.592L308.477 325.519C307.604 321.19 305.42 278.098 301.928 196.24C298.437 114.383 296.4 61.8447 295.817 38.6256C278.938 37.8387 268.17 35.4774 263.514 31.542C260.313 28.3935 258.712 24.8517 258.712 20.9162C258.712 17.7678 260.167 15.013 263.077 12.6518C266.278 9.89695 269.48 8.51953 272.681 8.51953C280.83 8.51953 290.725 9.30661 302.366 10.8808C313.424 12.8485 323.318 13.8324 332.051 13.8324H339.035C348.056 13.8324 352.568 18.5549 352.568 28C352.568 32.7225 351.113 36.6579 348.2 39.8064C345.29 42.561 341.945 43.9386 338.162 43.9386C335.543 43.9386 331.76 43.3482 326.81 42.1677L318.08 39.8064L317.207 45.7095C317.207 80.7351 319.682 136.618 324.629 213.359C329.285 285.378 331.613 341.263 331.613 381.01C331.613 385.732 330.011 389.863 326.81 393.406C323.9 396.949 320.555 398.719 316.772 398.719L308.912 391.045Z" fill="#E06E51"/>
<path d="M447.234 411.704C439.668 411.704 432.684 408.359 426.282 401.669C419.88 395.372 414.639 386.714 410.565 375.695C402.126 351.689 396.888 325.517 394.851 297.183C392.232 270.422 390.921 244.645 390.921 219.851C390.921 215.129 391.068 211.193 391.359 208.045V197.419C391.359 195.452 391.212 194.468 390.921 194.468V183.842L391.359 142.52C391.65 129.927 392.814 109.856 394.851 82.3076C396.306 63.4175 399.651 45.1175 404.892 27.4081C406.929 19.5372 409.548 13.634 412.749 9.69855C415.95 5.36958 419.589 3.20508 423.663 3.20508C435.303 3.20508 445.779 6.15666 455.091 12.0598C464.406 17.5694 472.263 25.4403 478.665 35.6726C484.485 45.5111 489.432 57.7109 493.509 72.272C497.583 86.4398 500.493 101.591 502.239 117.727C503.985 134.255 504.858 151.768 504.858 170.265V174.987C504.858 187.187 505.002 198.207 505.293 208.045L505.731 241.693C505.731 355.034 486.231 411.704 447.234 411.704ZM445.488 386.912C450.726 386.912 455.529 384.155 459.894 378.647C464.259 372.743 467.607 364.871 469.935 355.034C475.464 334.964 478.812 313.319 479.976 290.099C481.431 270.028 482.157 252.712 482.157 238.151C482.157 220.442 481.14 197.223 479.103 168.494C477.357 138.191 476.484 115.562 476.484 100.607V89.9816C475.902 75.0269 472.116 62.0399 465.132 51.0209C458.439 40.0016 450.144 34.4918 440.25 34.4918C430.356 34.4918 423.807 42.1661 420.606 57.5141C417.696 69.7142 416.241 85.4558 416.241 104.74C416.241 112.217 416.385 118.514 416.676 123.63V139.568L415.803 166.723C415.221 174.987 414.93 184.039 414.93 193.878C414.93 215.129 415.368 236.184 416.241 257.041C417.405 286.557 420.315 315.287 424.971 343.226C429.627 372.35 436.467 386.912 445.488 386.912Z" fill="#E06E51"/>
<path d="M566.128 406.39C559.726 406.39 555.796 402.652 554.341 395.173C553.177 390.451 552.595 383.761 552.595 375.103C552.595 358.18 553.177 337.324 554.341 312.529C555.796 288.918 556.522 267.863 556.522 249.366C556.522 228.508 556.96 197.222 557.833 155.506L558.706 62.2357C558.706 58.6939 558.271 53.3809 557.395 46.2973L556.087 31.5394V28.5877C556.087 19.5362 557.104 12.8459 559.144 8.51691C561.181 4.18794 564.964 2.02344 570.493 2.02344C578.059 2.02344 586.354 4.97502 595.375 10.8782C604.396 16.7813 610.945 24.2587 615.019 33.3103C623.458 52.2004 627.679 75.8131 627.679 104.148C627.679 125.4 626.368 143.306 623.749 157.867C621.13 172.035 616.621 185.219 610.216 197.418C618.076 207.65 623.314 220.834 625.933 236.969C628.843 252.711 630.298 272.586 630.298 296.591C630.298 320.599 627.241 341.455 621.13 359.164C614.146 379.237 603.961 393.01 590.572 400.486C582.424 404.422 574.276 406.39 566.128 406.39ZM580.096 180.299C595.231 179.906 602.797 156.096 602.797 108.871C602.797 58.1035 596.83 31.5394 584.899 29.178C581.698 38.2297 580.096 59.4811 580.096 92.9323V180.299ZM577.477 376.285C586.789 373.528 594.064 366.052 599.305 353.851C604.543 341.653 607.162 327.682 607.162 311.941C607.162 295.411 606.433 280.85 604.978 268.257C603.814 258.418 602.215 250.35 600.178 244.053C598.432 237.363 595.957 231.263 592.756 225.754C589.264 219.85 585.19 216.308 580.534 215.128C579.37 237.56 578.788 267.272 578.788 304.264C578.788 306.628 578.497 314.104 577.915 326.698L577.042 346.768C577.042 347.554 577.186 348.145 577.477 348.538V376.285Z" fill="#E06E51"/>
<path d="M698.028 408.163C694.245 408.163 690.753 406.393 687.552 402.85C684.642 399.31 683.04 394.981 682.749 389.863V362.71C682.458 359.167 682.314 355.036 682.314 350.314C682.314 342.049 681.876 329.455 681.003 312.532L680.13 274.753C680.13 255.469 680.568 226.74 681.441 188.566C682.605 154.328 683.187 125.599 683.187 102.38C683.187 96.8704 682.749 88.606 681.876 77.5867C681.003 66.1738 680.568 57.9094 680.568 52.7935C680.568 24.8517 686.679 10.8809 698.901 10.8809C708.504 10.8809 719.565 13.4389 732.078 18.555C744.882 23.6711 751.287 29.771 751.287 36.8548C751.287 40.7902 749.976 44.5291 747.357 48.0709C745.029 51.2191 742.119 53.7772 738.627 55.7449C726.402 49.8418 715.344 45.9064 705.45 43.9387C705.741 49.8418 705.885 58.303 705.885 69.3223C705.885 85.0642 705.741 99.2317 705.45 111.825C704.577 130.715 704.139 144.883 704.139 154.328L705.45 163.773L712.434 163.183C714.762 162.789 717.672 162.592 721.164 162.592C735.135 162.592 742.119 168.102 742.119 179.121C742.119 183.45 740.808 187.189 738.189 190.337C735.57 193.092 732.225 194.469 728.148 194.469C722.91 194.469 718.836 194.076 715.926 193.289H705.012C705.594 203.521 705.885 218.476 705.885 238.153C705.885 257.83 705.741 275.54 705.45 291.281C704.577 315.289 704.139 333.193 704.139 345.001C704.139 367.039 704.43 378.058 705.012 378.058L719.418 377.467C724.365 377.074 730.332 376.876 737.316 376.876C748.377 376.876 753.906 381.601 753.906 391.045C753.906 396.556 752.013 400.687 748.23 403.441C744.738 406.591 740.373 408.163 735.135 408.163H698.028Z" fill="#E06E51"/>
<path d="M878.397 410.526C871.995 410.526 866.172 401.079 860.934 382.188C854.823 361.725 850.311 340.671 847.401 319.026L844.347 298.955C835.908 242.678 830.523 210.604 828.195 202.733H822.957C822.957 214.146 822.81 224.575 822.519 234.02V266.487C822.519 319.221 825.285 360.348 830.814 389.862L826.011 405.801H813.789L808.113 396.948L808.551 357.396C808.551 321.978 807.24 268.259 804.621 196.24C802.293 119.498 801.129 65.7799 801.129 35.0833C801.129 16.1931 805.932 6.74805 815.535 6.74805C831.249 6.74805 844.056 12.2577 853.95 23.2769C864.135 34.2961 869.229 49.6444 869.229 69.3217V110.644C869.229 116.547 868.5 123.434 867.045 131.305C865.59 138.782 863.991 144.882 862.245 149.605L853.95 170.856L846.966 188.566L849.147 202.733L855.261 244.646C859.335 274.949 863.262 299.545 867.045 318.435C870.831 337.326 875.487 354.444 881.016 369.792L883.635 376.875C886.545 384.747 888 391.044 888 395.766C888 399.702 887.127 403.047 885.381 405.801C883.635 408.951 881.307 410.526 878.397 410.526ZM824.703 173.808C831.105 169.479 836.49 157.673 840.855 138.389C845.511 118.712 847.839 100.608 847.839 84.0796C847.839 71.4862 846.675 59.6797 844.347 48.6607C842.892 42.364 840.417 37.6414 836.925 34.4929C833.724 30.9511 829.65 29.1801 824.703 29.1801L823.83 32.1316L822.957 37.4446L823.83 107.102C824.412 127.566 824.703 149.801 824.703 173.808Z" fill="#E06E51"/>
</svg>
