<svg width="600" height="903" viewBox="0 0 600 903" fill="none" xmlns="http://www.w3.org/2000/svg">
<path d="M572.308 1.09277H27.6923C12.3983 1.09277 0 13.491 0 28.7851V873.4C0 888.695 12.3983 901.093 27.6923 901.093H572.308C587.602 901.093 600 888.695 600 873.4V28.7851C600 13.491 587.602 1.09277 572.308 1.09277Z" fill="#9AE6EA"/>
<path d="M572.308 1.09277H27.6923C12.3983 1.09277 0 13.491 0 28.7851V873.4C0 888.695 12.3983 901.093 27.6923 901.093H572.308C587.602 901.093 600 888.695 600 873.4V28.7851C600 13.491 587.602 1.09277 572.308 1.09277Z" fill="black" fill-opacity="0.04"/>
<path d="M558.459 144.179H41.5375C33.8905 144.179 27.6914 150.378 27.6914 158.025V222.64C27.6914 230.287 33.8905 236.486 41.5375 236.486H558.459C566.106 236.486 572.305 230.287 572.305 222.64V158.025C572.305 150.378 566.106 144.179 558.459 144.179Z" fill="white" fill-opacity="0.2"/>
<path d="M558.459 250.359H41.5375C33.8905 250.359 27.6914 256.559 27.6914 264.206V328.821C27.6914 336.468 33.8905 342.667 41.5375 342.667H558.459C566.106 342.667 572.305 336.468 572.305 328.821V264.206C572.305 256.559 566.106 250.359 558.459 250.359Z" fill="white" fill-opacity="0.2"/>
<path d="M558.459 356.449H41.5375C33.8905 356.449 27.6914 362.648 27.6914 370.295V434.911C27.6914 442.558 33.8905 448.757 41.5375 448.757H558.459C566.106 448.757 572.305 442.558 572.305 434.911V370.295C572.305 362.648 566.106 356.449 558.459 356.449Z" fill="white" fill-opacity="0.2"/>
<path d="M558.459 462.633H41.5375C33.8905 462.633 27.6914 468.832 27.6914 476.479V541.094C27.6914 548.741 33.8905 554.94 41.5375 554.94H558.459C566.106 554.94 572.305 548.741 572.305 541.094V476.479C572.305 468.832 566.106 462.633 558.459 462.633Z" fill="white" fill-opacity="0.2"/>
<path d="M558.459 568.816H41.5375C33.8905 568.816 27.6914 575.016 27.6914 582.663V647.278C27.6914 654.925 33.8905 661.124 41.5375 661.124H558.459C566.106 661.124 572.305 654.925 572.305 647.278V582.663C572.305 575.016 566.106 568.816 558.459 568.816Z" fill="white" fill-opacity="0.2"/>
<path d="M558.459 674.904H41.5375C33.8905 674.904 27.6914 681.103 27.6914 688.75V753.365C27.6914 761.012 33.8905 767.211 41.5375 767.211H558.459C566.106 767.211 572.305 761.012 572.305 753.365V688.75C572.305 681.103 566.106 674.904 558.459 674.904Z" fill="white" fill-opacity="0.2"/>
<path d="M558.459 781.09H41.5375C33.8905 781.09 27.6914 787.289 27.6914 794.936V859.551C27.6914 867.198 33.8905 873.397 41.5375 873.397H558.459C566.106 873.397 572.305 867.198 572.305 859.551V794.936C572.305 787.289 566.106 781.09 558.459 781.09Z" fill="white" fill-opacity="0.2"/>
<path d="M207.753 85.9855C205.482 85.4872 204.208 84.9334 203.765 84.1579C202.824 82.6624 203.82 80.8903 205.537 80.8903C205.814 80.8903 206.479 81.0565 207.033 81.2224C208.694 81.8317 210.522 82.0534 212.294 81.9424C216.005 81.721 217.556 79.8934 216.614 76.7917C216.171 75.4072 214.787 73.5793 212.294 71.1424C207.476 66.4903 205.26 64.1641 204.319 62.7793C200.83 57.6841 200.442 52.4224 203.156 46.7179C206.202 40.4593 214.676 36.1948 220.768 41.1793C222.596 42.6748 224.368 45.2779 224.368 46.5517C224.368 47.8255 223.427 48.8224 222.153 48.8224C221.211 48.8224 220.602 48.3241 219.937 47.1055C219.217 45.721 217.888 44.3365 216.836 43.8934C212.848 42.0655 209.359 44.8903 207.531 48.2686C205.925 51.1486 205.26 54.7486 206.59 57.9055C207.974 61.2286 211.187 63.721 213.679 66.2134C218.664 71.1979 219.882 72.6379 220.713 74.8534C221.82 77.8993 221.544 80.7241 219.937 83.0503C219.107 84.2134 217.611 85.2103 215.894 85.7641C213.79 86.4286 210.245 86.5393 207.753 85.9855ZM234.283 85.2103C231.735 84.601 229.464 83.0503 227.969 80.8348C225.144 76.5703 224.646 71.1424 225.532 66.1579C226.252 62.1703 227.803 57.961 230.517 54.8041C232.178 52.8655 234.504 51.481 237.108 51.2593C239.821 51.0934 242.424 52.3117 244.252 54.2503C245.36 55.4134 246.966 57.4624 245.471 58.9579C244.584 59.7886 243.311 59.2348 242.369 58.4593C241.483 57.6286 240.597 56.6872 239.489 56.0779C237.883 55.2472 235.834 55.8565 234.504 57.0748C230.129 61.0072 229.409 68.5393 230.351 73.9117C230.904 77.2348 232.898 81.1117 236.775 81.1672C238.492 81.1672 239.378 80.7793 241.04 79.2841C242.369 78.0655 243.034 77.8441 243.975 78.2317C245.36 78.7855 245.803 80.3365 244.917 81.6655C244.308 82.5517 242.314 84.1024 240.929 84.7117C238.824 85.6534 236.443 85.8193 234.283 85.2103ZM251.079 84.8779C250.858 84.7117 250.47 84.3241 250.304 83.9917C249.916 83.3824 249.916 83.0503 249.861 74.0779C249.75 59.401 250.249 37.5241 250.747 34.9765C250.914 33.9793 251.578 33.2041 252.464 32.9824C253.239 32.8165 254.347 33.2593 254.735 33.8686C255.178 34.5334 255.178 34.8655 254.735 44.0593C254.624 46.2193 254.514 50.7055 254.458 54.0841L254.347 60.1765L255.234 58.7365C257.283 55.1917 258.667 53.4748 260.384 52.2565C263.098 50.4841 266.476 50.5393 269.135 52.4224C271.738 54.1948 273.123 57.0193 273.732 60.0655C274.839 65.8255 274.839 71.8072 274.729 77.6224C274.674 79.1179 274.674 80.6134 274.563 82.1086C274.507 83.4379 273.898 84.8779 272.347 84.8779C270.187 84.8779 270.298 82.7734 270.243 81.2224C270.187 79.1734 270.187 77.0686 270.187 75.0193C270.132 66.7117 270.021 65.3824 269.412 61.561C269.024 59.3455 267.695 55.3579 264.87 55.3579C263.818 55.3579 262.987 55.801 261.935 56.9086C259.664 59.2348 257.504 63.6655 256.119 68.761C255.012 72.9148 254.624 75.6841 254.458 81.001C254.403 83.0503 254.347 83.4934 254.015 84.0472C253.406 85.0441 252.132 85.3765 251.079 84.8779ZM297.471 78.2317C298.246 78.6193 298.689 79.3393 298.689 80.2255C298.689 81.1672 298.302 81.7765 297.138 82.8286C294.591 85.1548 290.049 86.2624 287.114 85.2655C284.455 84.3241 282.295 82.441 280.855 80.0041C278.031 75.241 277.975 68.8165 279.415 63.5548C280.689 58.681 282.794 55.2472 286.062 52.8103C286.394 52.5886 286.726 52.3672 287.058 52.1455C290.16 50.4286 294.037 50.8165 295.698 54.1948C297.083 56.9641 296.585 60.4534 295.311 63.2224C293.649 66.9886 288.942 69.9793 284.677 69.9793H283.126V70.0348C283.126 71.1979 283.182 72.361 283.348 73.5241C283.403 73.9117 283.514 74.2993 283.569 74.6872C284.178 77.1241 285.452 79.4503 287.723 80.6134C289.994 81.7765 292.874 80.7241 294.591 79.0624C295.698 78.0103 296.474 77.7886 297.471 78.2317ZM285.175 60.8965C284.289 62.7793 283.625 64.8841 283.791 65.3272C284.178 66.2686 286.615 65.161 287.169 64.8841C290.271 63.6103 292.874 60.121 291.932 56.6317C291.655 55.6903 291.157 55.4134 290.16 55.6903C288.498 56.1334 286.449 58.2379 285.175 60.8965ZM322.425 35.7517C322.479 36.0286 322.425 38.2993 322.314 40.8472C321.927 52.201 321.927 56.5765 322.038 69.5917C322.257 84.7117 322.257 84.2686 321.207 84.9334C320.097 85.5979 318.714 85.2103 318.105 84.1024C317.829 83.6593 317.718 82.9393 317.661 79.4503L317.55 75.3517L316.554 77.3455C314.616 81.1672 312.621 83.5486 310.35 84.601C308.025 85.7086 305.478 85.3765 303.648 83.5486C302.154 81.9979 301.377 79.8379 300.879 77.7334C300.216 74.7424 300.216 71.5303 300.603 68.4841C301.377 62.5579 303.981 54.2503 310.296 52.0348C312.234 51.3703 315.39 51.6472 316.998 52.6993L317.385 52.9765L317.496 50.761C317.55 49.5424 317.718 45.721 317.772 42.2872C317.937 36.8041 317.994 35.9179 318.27 35.3641C318.714 34.4779 319.767 33.9241 320.652 34.0903C321.372 34.2565 322.257 35.0872 322.425 35.7517ZM314.781 70.0348C316.497 65.4379 317.439 62.281 317.439 61.0624C317.439 59.7886 316.83 58.2379 316.056 57.5734C313.896 55.6348 311.457 55.7455 309.63 57.7948C307.305 60.5086 305.865 64.0534 305.088 69.0934C304.647 72.1948 304.869 75.4072 305.754 78.4534C306.141 79.9486 307.083 81.2779 308.745 80.3365C310.407 79.3393 311.403 77.5117 312.234 75.8503C313.23 73.9672 314.007 72.0286 314.781 70.0348ZM335.352 85.0993C332.361 84.2134 330.588 81.1672 329.814 78.3424C327.984 71.5855 328.152 64.4965 328.593 57.5734C328.65 56.2441 328.65 54.8593 329.094 53.5855C329.313 52.8655 330.144 52.1455 330.864 51.9793C331.641 51.8134 332.694 52.3672 333.135 53.2534C333.468 53.8624 333.468 54.0286 333.246 55.6903C332.913 58.681 332.694 65.6041 332.913 68.3734C333.081 70.7548 333.303 73.1365 333.69 75.4624C334.023 77.2348 334.686 80.1703 336.624 80.7793C339.948 81.8317 342.273 77.5117 343.272 75.0748C344.433 72.0841 345.264 68.9824 345.984 65.8255C346.374 64.0534 346.761 62.281 347.148 60.4534C347.481 58.5148 347.814 56.5765 348.312 54.6934C348.645 53.1979 350.028 51.5917 351.69 51.9241C352.245 52.0903 352.743 52.3672 352.965 52.921C353.463 54.0841 353.184 55.9117 353.184 57.1303C353.184 59.2348 353.184 61.2841 353.184 63.3886C353.13 69.9241 353.13 75.0193 353.295 78.2317C353.574 83.8255 353.517 84.2134 352.353 84.8779C351.579 85.3765 350.805 85.3765 350.085 84.8779C349.143 84.3241 348.975 83.7703 348.864 79.7272C348.81 77.6779 348.699 75.5734 348.645 74.9641L348.534 73.8565L347.925 75.6286C347.094 77.8441 346.152 79.7824 345.153 81.0565C343.326 83.5486 340.281 85.5979 337.125 85.4317C336.513 85.3765 335.904 85.2655 335.352 85.0993ZM361.089 84.8224C360.702 84.601 360.369 84.2686 360.204 83.7703C359.871 82.1641 359.982 80.4472 359.982 78.841C359.928 74.2993 359.982 69.8134 359.982 65.2717C359.982 64.6072 359.982 63.9424 359.982 63.2779C359.982 40.681 360.093 35.2534 360.48 34.5334C360.981 33.5917 362.364 33.2041 363.471 33.7579C363.75 33.8686 364.08 34.3117 364.302 34.6993C364.581 35.3641 364.635 36.5272 364.524 59.3455C364.47 64.4965 364.47 69.6472 364.413 74.7979C364.413 77.1793 364.413 79.6165 364.248 81.9979C364.191 82.6624 364.248 83.7148 363.861 84.2686C363.306 85.0441 362.031 85.2103 361.089 84.8224ZM388.443 78.2317C389.22 78.6193 389.664 79.3393 389.664 80.2255C389.664 81.1672 389.274 81.7765 388.113 82.8286C385.563 85.1548 381.024 86.2624 378.087 85.2655C375.429 84.3241 373.269 82.441 371.829 80.0041C369.003 75.241 368.949 68.8165 370.389 63.5548C371.664 58.681 373.767 55.2472 377.034 52.8103C377.367 52.5886 377.7 52.3672 378.033 52.1455C381.135 50.4286 385.011 50.8165 386.673 54.1948C388.056 56.9641 387.558 60.4534 386.283 63.2224C384.624 66.9886 379.914 69.9793 375.651 69.9793H374.1V70.0348C374.1 71.1979 374.154 72.361 374.322 73.5241C374.376 73.9117 374.487 74.2993 374.544 74.6872C375.153 77.1241 376.425 79.4503 378.696 80.6134C380.967 81.7765 383.847 80.7241 385.563 79.0624C386.673 78.0103 387.447 77.7886 388.443 78.2317ZM376.149 60.8965C375.264 62.7793 374.598 64.8841 374.763 65.3272C375.153 66.2686 377.589 65.161 378.144 64.8841C381.243 63.6103 383.847 60.121 382.905 56.6317C382.629 55.6903 382.131 55.4134 381.135 55.6903C379.473 56.1334 377.424 58.2379 376.149 60.8965Z" fill="white"/>
</svg>
