<svg width="200" height="301" viewBox="0 0 200 301" fill="none" xmlns="http://www.w3.org/2000/svg">
<rect y="0.36377" width="200" height="300" rx="9.23077" fill="#9AE6EA"/>
<rect y="0.36377" width="200" height="300" rx="9.23077" fill="black" fill-opacity="0.04"/>
<rect x="9.23047" y="48.0591" width="181.538" height="30.7692" rx="4.61538" fill="white" fill-opacity="0.2"/>
<rect x="9.23047" y="83.4536" width="181.538" height="30.7692" rx="4.61538" fill="white" fill-opacity="0.2"/>
<rect x="9.23047" y="118.816" width="181.538" height="30.7692" rx="4.61538" fill="white" fill-opacity="0.2"/>
<rect x="9.23047" y="154.211" width="181.538" height="30.7692" rx="4.61538" fill="white" fill-opacity="0.2"/>
<rect x="9.23047" y="189.605" width="181.538" height="30.7692" rx="4.61538" fill="white" fill-opacity="0.2"/>
<rect x="9.23047" y="224.968" width="181.538" height="30.7692" rx="4.61538" fill="white" fill-opacity="0.2"/>
<rect x="9.23047" y="260.363" width="181.538" height="30.7692" rx="4.61538" fill="white" fill-opacity="0.2"/>
<path d="M69.25 28.6619C68.4931 28.4958 68.0684 28.3112 67.9208 28.0527C67.6069 27.5542 67.9392 26.9635 68.5115 26.9635C68.6038 26.9635 68.8254 27.0189 69.01 27.0742C69.5638 27.2773 70.1731 27.3512 70.7638 27.3142C72.0008 27.2404 72.5177 26.6312 72.2038 25.5973C72.0561 25.1358 71.5946 24.5265 70.7638 23.7142C69.1577 22.1635 68.4192 21.3881 68.1054 20.9265C66.9423 19.2281 66.8131 17.4742 67.7177 15.5727C68.7331 13.4865 71.5577 12.065 73.5884 13.7265C74.1977 14.225 74.7884 15.0927 74.7884 15.5173C74.7884 15.9419 74.4746 16.2742 74.05 16.2742C73.7361 16.2742 73.5331 16.1081 73.3115 15.7019C73.0715 15.2404 72.6284 14.7789 72.2777 14.6312C70.9484 14.0219 69.7854 14.9635 69.1761 16.0896C68.6408 17.0496 68.4192 18.2496 68.8623 19.3019C69.3238 20.4096 70.3946 21.2404 71.2254 22.0712C72.8869 23.7327 73.2931 24.2127 73.57 24.9512C73.9392 25.9665 73.8469 26.9081 73.3115 27.6835C73.0346 28.0712 72.5361 28.4035 71.9638 28.5881C71.2623 28.8096 70.0808 28.8465 69.25 28.6619ZM78.0933 28.4035C77.2441 28.2004 76.4872 27.6835 75.9887 26.945C75.0472 25.5235 74.881 23.7142 75.1764 22.0527C75.4164 20.7235 75.9333 19.3204 76.838 18.2681C77.3918 17.6219 78.1672 17.1604 79.0349 17.0865C79.9395 17.0312 80.8072 17.4373 81.4164 18.0835C81.7857 18.4712 82.321 19.1542 81.8226 19.6527C81.5272 19.9296 81.1026 19.745 80.7887 19.4865C80.4933 19.2096 80.198 18.8958 79.8287 18.6927C79.2933 18.4158 78.6103 18.6189 78.1672 19.025C76.7087 20.3358 76.4687 22.8465 76.7826 24.6373C76.9672 25.745 77.6318 27.0373 78.9241 27.0558C79.4964 27.0558 79.7918 26.9265 80.3457 26.4281C80.7887 26.0219 81.0103 25.9481 81.3241 26.0773C81.7857 26.2619 81.9333 26.7789 81.638 27.2219C81.4349 27.5173 80.7703 28.0342 80.3087 28.2373C79.6072 28.5512 78.8133 28.6065 78.0933 28.4035ZM83.6922 28.2927C83.6184 28.2373 83.4892 28.1081 83.4338 27.9973C83.3045 27.7942 83.3045 27.6835 83.2861 24.6927C83.2492 19.8004 83.4153 12.5081 83.5815 11.6589C83.6369 11.3265 83.8584 11.0681 84.1538 10.9942C84.4122 10.9389 84.7815 11.0865 84.9107 11.2896C85.0584 11.5112 85.0584 11.6219 84.9107 14.6865C84.8738 15.4065 84.8369 16.9019 84.8184 18.0281L84.7815 20.0589L85.0769 19.5789C85.7599 18.3973 86.2215 17.825 86.7938 17.4189C87.6984 16.8281 88.8245 16.8465 89.7107 17.4742C90.5784 18.065 91.0399 19.0065 91.243 20.0219C91.6122 21.9419 91.6122 23.9358 91.5753 25.8742C91.5569 26.3727 91.5569 26.8712 91.5199 27.3696C91.5015 27.8127 91.2984 28.2927 90.7815 28.2927C90.0615 28.2927 90.0984 27.5912 90.0799 27.0742C90.0615 26.3912 90.0615 25.6896 90.0615 25.0065C90.043 22.2373 90.0061 21.7942 89.803 20.5204C89.6738 19.7819 89.2307 18.4527 88.2892 18.4527C87.9384 18.4527 87.6615 18.6004 87.3107 18.9696C86.5538 19.745 85.8338 21.2219 85.3722 22.9204C85.003 24.305 84.8738 25.2281 84.8184 27.0004C84.7999 27.6835 84.7815 27.8312 84.6707 28.0158C84.4676 28.3481 84.043 28.4589 83.6922 28.2927ZM99.1559 26.0773C99.4144 26.2065 99.5621 26.4465 99.5621 26.7419C99.5621 27.0558 99.4329 27.2589 99.0452 27.6096C98.1959 28.385 96.6821 28.7542 95.7036 28.4219C94.8175 28.1081 94.0975 27.4804 93.6175 26.6681C92.6759 25.0804 92.6575 22.9389 93.1375 21.185C93.5621 19.5604 94.2636 18.4158 95.3529 17.6035C95.4636 17.5296 95.5744 17.4558 95.6852 17.3819C96.719 16.8096 98.0113 16.9389 98.5652 18.065C99.0267 18.9881 98.8606 20.1512 98.4359 21.0742C97.8821 22.3296 96.3129 23.3265 94.8913 23.3265H94.3744V23.345C94.3744 23.7327 94.3929 24.1204 94.4483 24.5081C94.4667 24.6373 94.5036 24.7665 94.5221 24.8958C94.7252 25.7081 95.1498 26.4835 95.9067 26.8712C96.6636 27.2589 97.6236 26.9081 98.1959 26.3542C98.5652 26.0035 98.8236 25.9296 99.1559 26.0773ZM95.0575 20.2989C94.7621 20.9265 94.5406 21.6281 94.5959 21.7758C94.7252 22.0896 95.5375 21.7204 95.7221 21.6281C96.7559 21.2035 97.6236 20.0404 97.3098 18.8773C97.2175 18.5635 97.0513 18.4712 96.719 18.5635C96.1652 18.7112 95.4821 19.4127 95.0575 20.2989ZM107.474 11.9173C107.492 12.0096 107.474 12.7665 107.437 13.6158C107.308 17.4004 107.308 18.8589 107.345 23.1973C107.418 28.2373 107.418 28.0896 107.068 28.3112C106.698 28.5327 106.237 28.4035 106.034 28.0342C105.942 27.8865 105.905 27.6465 105.886 26.4835L105.849 25.1173L105.517 25.7819C104.871 27.0558 104.206 27.8496 103.449 28.2004C102.674 28.5696 101.825 28.4589 101.215 27.8496C100.717 27.3327 100.458 26.6127 100.292 25.9112C100.071 24.9142 100.071 23.8435 100.2 22.8281C100.458 20.8527 101.326 18.0835 103.431 17.345C104.077 17.1235 105.129 17.2158 105.665 17.5665L105.794 17.6589L105.831 16.9204C105.849 16.5142 105.905 15.2404 105.923 14.0958C105.978 12.2681 105.997 11.9727 106.089 11.7881C106.237 11.4927 106.588 11.3081 106.883 11.3635C107.123 11.4189 107.418 11.6958 107.474 11.9173ZM104.926 23.345C105.498 21.8127 105.812 20.7604 105.812 20.3542C105.812 19.9296 105.609 19.4127 105.351 19.1912C104.631 18.545 103.818 18.5819 103.209 19.265C102.434 20.1696 101.954 21.3512 101.695 23.0312C101.548 24.065 101.622 25.1358 101.917 26.1512C102.046 26.6496 102.36 27.0927 102.914 26.7789C103.468 26.4465 103.8 25.8373 104.077 25.2835C104.409 24.6558 104.668 24.0096 104.926 23.345ZM111.783 28.3665C110.786 28.0712 110.195 27.0558 109.937 26.1142C109.327 23.8619 109.383 21.4989 109.53 19.1912C109.549 18.7481 109.549 18.2865 109.697 17.8619C109.77 17.6219 110.047 17.3819 110.287 17.3265C110.546 17.2712 110.897 17.4558 111.044 17.7512C111.155 17.9542 111.155 18.0096 111.081 18.5635C110.97 19.5604 110.897 21.8681 110.97 22.7912C111.026 23.585 111.1 24.3789 111.229 25.1542C111.34 25.745 111.561 26.7235 112.207 26.9265C113.315 27.2773 114.09 25.8373 114.423 25.025C114.81 24.0281 115.087 22.9942 115.327 21.9419C115.457 21.3512 115.586 20.7604 115.715 20.1512C115.826 19.505 115.937 18.8589 116.103 18.2312C116.214 17.7327 116.675 17.1973 117.229 17.3081C117.414 17.3635 117.58 17.4558 117.654 17.6404C117.82 18.0281 117.727 18.6373 117.727 19.0435C117.727 19.745 117.727 20.4281 117.727 21.1296C117.709 23.3081 117.709 25.0065 117.764 26.0773C117.857 27.9419 117.838 28.0712 117.45 28.2927C117.192 28.4589 116.934 28.4589 116.694 28.2927C116.38 28.1081 116.324 27.9235 116.287 26.5758C116.269 25.8927 116.232 25.1912 116.214 24.9881L116.177 24.6189L115.974 25.2096C115.697 25.9481 115.383 26.5942 115.05 27.0189C114.441 27.8496 113.426 28.5327 112.374 28.4773C112.17 28.4589 111.967 28.4219 111.783 28.3665ZM120.362 28.2742C120.233 28.2004 120.122 28.0896 120.067 27.9235C119.956 27.3881 119.993 26.8158 119.993 26.2804C119.975 24.7665 119.993 23.2712 119.993 21.7573C119.993 21.5358 119.993 21.3142 119.993 21.0927C119.993 13.5604 120.03 11.7512 120.159 11.5112C120.326 11.1973 120.787 11.0681 121.156 11.2527C121.249 11.2896 121.359 11.4373 121.433 11.5665C121.526 11.7881 121.544 12.1758 121.507 19.7819C121.489 21.4989 121.489 23.2158 121.47 24.9327C121.47 25.7265 121.47 26.5389 121.415 27.3327C121.396 27.5542 121.415 27.905 121.286 28.0896C121.101 28.3481 120.676 28.4035 120.362 28.2742ZM129.48 26.0773C129.739 26.2065 129.887 26.4465 129.887 26.7419C129.887 27.0558 129.757 27.2589 129.37 27.6096C128.52 28.385 127.007 28.7542 126.028 28.4219C125.142 28.1081 124.422 27.4804 123.942 26.6681C123 25.0804 122.982 22.9389 123.462 21.185C123.887 19.5604 124.588 18.4158 125.677 17.6035C125.788 17.5296 125.899 17.4558 126.01 17.3819C127.044 16.8096 128.336 16.9389 128.89 18.065C129.351 18.9881 129.185 20.1512 128.76 21.0742C128.207 22.3296 126.637 23.3265 125.216 23.3265H124.699V23.345C124.699 23.7327 124.717 24.1204 124.773 24.5081C124.791 24.6373 124.828 24.7665 124.847 24.8958C125.05 25.7081 125.474 26.4835 126.231 26.8712C126.988 27.2589 127.948 26.9081 128.52 26.3542C128.89 26.0035 129.148 25.9296 129.48 26.0773ZM125.382 20.2989C125.087 20.9265 124.865 21.6281 124.92 21.7758C125.05 22.0896 125.862 21.7204 126.047 21.6281C127.08 21.2035 127.948 20.0404 127.634 18.8773C127.542 18.5635 127.376 18.4712 127.044 18.5635C126.49 18.7112 125.807 19.4127 125.382 20.2989Z" fill="white"/>
</svg>
