<svg width="888" height="588" viewBox="0 0 888 588" fill="none" xmlns="http://www.w3.org/2000/svg">
<path d="M825.17 0.536133H62.8302C28.13 0.536133 0 28.6662 0 63.3663V524.122C0 558.822 28.13 586.952 62.8302 586.952H825.17C859.87 586.952 888 558.822 888 524.122V63.3663C888 28.6662 859.87 0.536133 825.17 0.536133Z" fill="#9AE6EA"/>
<path d="M825.17 0.536133H62.8302C28.13 0.536133 0 28.6662 0 63.3663V524.122C0 558.822 28.13 586.952 62.8302 586.952H825.17C859.87 586.952 888 558.822 888 524.122V63.3663C888 28.6662 859.87 0.536133 825.17 0.536133Z" fill="black" fill-opacity="0.03"/>
<path d="M45.0293 185.886H842.972" stroke="white" stroke-opacity="0.5" stroke-width="6.28302" stroke-linecap="round"/>
<path d="M269.504 116.315C270.677 121.761 270.844 123.101 270.844 125.949C270.928 131.646 269.337 134.829 265.567 136.672C259.451 139.856 251.325 135.164 246.215 131.897C244.707 130.892 242.529 129.468 241.44 128.797C240.351 128.127 239.429 127.541 239.346 127.625C239.262 127.625 238.927 129.132 238.592 130.976C237.67 135.667 237.419 136.505 236.33 137.426C235.241 138.348 233.565 138.515 232.309 137.761C231.89 137.51 231.387 136.84 231.136 136.337C230.717 135.416 230.717 135.248 231.387 132.065C231.806 130.221 232.476 126.619 232.979 124.106C235.743 108.859 239.178 93.026 241.943 83.6435C245.293 71.7476 246.885 68.3966 249.817 67.2239C251.158 66.6374 252.163 66.6374 253.503 67.3076C255.849 68.3966 257.524 71.0774 259.535 77.1092C261.546 83.057 267.41 106.262 269.504 116.315ZM264.562 126.619C264.897 123.101 263.389 119.08 262.551 115.645C261.629 111.624 260.624 107.686 259.619 103.665C258.027 97.3823 256.435 91.0157 254.676 84.7325C254.425 83.9786 252.666 75.8525 251.66 75.8525C251.074 75.8525 247.053 89.9264 244.958 99.3092C243.199 107.1 240.686 119.75 240.77 120.001C241.105 120.504 251.912 127.708 253.838 128.714C256.352 129.886 261.043 132.902 263.305 129.97C264.059 128.965 264.394 127.876 264.562 126.619ZM315.222 103.833C316.059 108.943 315.891 115.394 314.802 119.834C313.377 125.446 310.614 131.227 305.67 134.494C300.225 138.012 292.77 137.091 287.576 133.824C286.654 133.237 285.817 132.819 285.733 132.902C285.649 132.986 285.565 140.945 285.565 150.579C285.565 165.909 285.481 168.171 285.062 168.925C283.973 171.354 280.12 171.438 279.282 168.757C279.031 168.003 279.031 166.998 279.031 166.244C278.779 162.056 278.863 157.867 278.863 153.678C278.779 145.385 278.863 127.541 279.031 113.886C279.282 90.9317 279.282 89.1725 279.785 88.2509C280.706 86.408 282.968 85.9055 284.644 87.0782C285.649 87.7484 286.068 89.0888 286.068 91.6019V93.8639L288.33 91.7696C290.843 89.3402 293.105 87.7484 295.45 86.8268C298.885 85.4864 302.991 86.0729 306.174 87.9158C311.451 90.9317 314.133 98.1362 315.222 103.833ZM300.393 129.3C301.734 128.881 302.991 128.127 304.08 126.954C308.352 122.431 309.525 115.394 309.105 109.446C308.769 104.503 307.263 96.9635 302.823 93.9476C300.393 92.3558 297.21 93.3611 295.115 94.8692C291.681 97.3823 289.167 101.32 287.324 105.09L285.817 108.021V115.729V123.52L288.162 125.614C291.513 128.63 296.288 130.641 300.393 129.3ZM359.808 103.833C360.645 108.943 360.477 115.394 359.388 119.834C357.963 125.446 355.2 131.227 350.256 134.494C344.811 138.012 337.356 137.091 332.163 133.824C331.242 133.237 330.402 132.819 330.318 132.902C330.234 132.986 330.153 140.945 330.153 150.579C330.153 165.909 330.069 168.171 329.649 168.925C328.56 171.354 324.705 171.438 323.868 168.757C323.616 168.003 323.616 166.998 323.616 166.244C323.367 162.056 323.451 157.867 323.451 153.678C323.367 145.385 323.451 127.541 323.616 113.886C323.868 90.9317 323.868 89.1725 324.372 88.2509C325.293 86.408 327.555 85.9055 329.229 87.0782C330.234 87.7484 330.654 89.0888 330.654 91.6019V93.8639L332.916 91.7696C335.43 89.3402 337.692 87.7484 340.038 86.8268C343.473 85.4864 347.577 86.0729 350.76 87.9158C356.037 90.9317 358.719 98.1362 359.808 103.833ZM344.979 129.3C346.32 128.881 347.577 128.127 348.666 126.954C352.938 122.431 354.111 115.394 353.691 109.446C353.358 104.503 351.849 96.9635 347.409 93.9476C344.979 92.3558 341.796 93.3611 339.702 94.8692C336.267 97.3823 333.753 101.32 331.911 105.09L330.402 108.021V115.729V123.52L332.748 125.614C336.099 128.63 340.875 130.641 344.979 129.3ZM392.667 89.5076C399.285 95.6231 402.216 107.351 399.954 118.577C399.954 118.745 399.87 118.828 399.87 118.996C397.86 128.546 390.489 140.358 379.011 137.761C375.324 136.923 372.393 134.578 370.215 131.646C361.335 119.834 363.093 98.2202 373.734 89.2562C379.68 84.23 386.97 84.3137 392.667 89.5076ZM393.504 116.148C394.089 112.713 393.921 107.1 393.084 103.749C391.827 98.8904 389.064 94.6178 386.049 93.1937C380.436 90.3455 374.319 95.9582 371.973 106.011C370.299 113.383 370.968 123.939 377.169 129.132C386.13 136.672 392.247 123.268 393.504 116.148ZM409.788 137.259C409.119 136.923 408.45 136.421 408.282 135.667C408.114 135.248 408.03 134.661 408.03 134.159C407.862 132.065 407.946 129.886 407.946 127.708C408.114 112.545 408.615 91.4345 408.867 89.5076C409.119 87.8321 409.203 87.497 410.124 86.6594C411.633 85.2353 413.895 85.5704 415.068 87.3296C415.569 88.1672 415.653 91.2668 415.317 96.5447C415.233 97.8011 415.068 106.932 414.984 116.734C414.9 121.425 414.9 126.201 414.648 130.892C414.648 132.483 414.732 134.41 414.144 135.918C413.643 137.175 411.882 137.677 410.628 137.51C410.376 137.426 410.04 137.342 409.788 137.259ZM410.793 79.8737C410.709 79.79 410.544 79.706 410.376 79.6223C408.366 78.2819 408.531 75.35 410.544 74.0096C411.465 73.4231 413.055 73.5068 413.979 74.0096C414.816 74.5121 415.317 75.35 415.485 76.2713C415.821 78.3656 414.48 80.2088 412.302 80.2088C411.801 80.2088 411.297 80.1251 410.793 79.8737ZM427.38 136.84C426.291 136.588 425.787 136.17 425.202 135.081C424.782 134.159 424.782 127.792 425.454 102.492C425.787 89.5076 425.787 89.2562 427.38 88.2509C429.222 87.1619 431.4 87.9158 432.24 89.8427C432.573 90.6806 432.657 91.4345 432.489 93.1937L432.324 95.5394L433.662 93.7802C436.344 90.1778 440.364 87.1619 444.804 86.1566C451.422 84.6488 456.366 89.9264 458.292 95.6231C459.885 100.482 459.717 105.676 459.801 110.702C459.969 120.671 459.381 133.405 458.628 135.081C458.208 136.17 456.786 137.091 455.613 137.091C454.44 137.091 453.015 136.17 452.595 134.997C452.262 134.243 452.262 133.405 452.427 130.138C452.847 124.357 453.351 118.493 453.351 112.629C453.351 107.351 453.435 100.566 451.005 95.7068C448.491 90.6806 443.799 93.026 440.7 96.1259C437.601 99.2255 435.171 104.503 433.077 112.964C432.24 116.483 431.82 122.012 431.736 129.886C431.736 131.813 431.652 133.824 431.484 134.326C430.983 136.17 429.222 137.175 427.38 136.84ZM477.273 136.505C476.685 136.17 476.184 135.667 476.016 134.913C475.512 133.154 475.68 131.143 475.596 129.3C475.512 124.274 475.512 119.163 475.512 114.137L475.428 94.0313H471.072C468.558 94.0313 464.454 94.5341 463.953 91.1831C463.785 90.0104 464.202 88.9211 465.042 88.1672C466.464 86.8268 469.23 87.1619 471.072 87.1619H475.26V78.5333C475.26 76.1876 475.26 73.7582 475.344 71.3288C475.428 70.4072 475.428 69.2345 476.016 68.4806C476.601 67.559 477.858 67.0562 478.947 67.1402C482.55 67.3913 482.13 71.5802 482.13 74.0933C482.214 75.6011 482.214 77.0255 482.214 78.5333V87.1619L486.654 87.2459C488.496 87.2459 491.01 86.8268 492.267 88.67C493.104 89.9264 492.936 92.0207 491.682 92.9423C490.341 93.9476 487.995 93.6962 486.486 93.7802L482.298 93.9476V114.472C482.298 119.415 482.382 124.357 482.298 129.3C482.298 131.143 482.382 133.321 481.962 135.164C481.461 137.175 478.863 137.51 477.273 136.505ZM498.309 136.84C497.22 136.588 496.719 136.17 496.131 135.081C495.711 134.159 495.711 127.792 496.383 102.492C496.719 89.5076 496.719 89.2562 498.309 88.2509C500.07 87.1619 502.332 87.9158 503.169 89.8427C503.502 90.6806 503.502 91.4345 503.421 93.1937L503.253 95.5394L504.591 93.7802C508.53 88.5023 514.143 85.4864 519.168 85.8215C522.435 86.0729 525.537 88.2509 527.211 91.4345L527.883 92.6072C527.883 92.6072 529.557 91.1831 529.557 91.0994C532.404 88.5023 536.007 85.9892 540.03 85.9055C545.559 85.9055 549.663 90.6806 551.421 95.4557C552.426 97.9688 552.93 101.068 553.098 105.173C553.266 108.943 552.846 124.86 552.342 131.646L552.261 133.572C552.177 134.494 551.841 135.332 551.172 135.918C549.831 137.091 548.154 137.175 546.813 136.086C545.559 134.997 545.391 134.075 545.724 127.708C545.892 124.609 546.06 117.488 546.06 111.875C546.144 106.681 546.897 100.314 544.05 95.7068C542.541 93.1937 540.195 92.2721 537.6 93.6125C535.086 94.9529 532.656 97.0472 531.399 99.728L530.73 101.068L530.814 110.619C530.898 121.09 530.226 133.489 529.557 135.081C529.137 136.17 527.715 137.091 526.542 137.091C525.369 137.091 523.944 136.17 523.524 134.997C523.191 134.243 523.191 133.405 523.359 130.138C524.697 111.289 524.196 100.482 521.85 95.7908C520.509 93.1937 519.672 92.6072 517.746 92.7749C515.652 92.9423 513.807 93.9476 511.629 96.1259C508.53 99.2255 506.1 104.503 504.006 112.964C503.169 116.483 502.749 122.012 502.665 129.886C502.665 131.813 502.581 133.824 502.413 134.326C501.912 136.17 500.151 137.175 498.309 136.84ZM587.877 126.452C589.05 127.038 589.719 128.127 589.719 129.468C589.719 130.892 589.134 131.813 587.373 133.405C583.521 136.923 576.651 138.599 572.211 137.091C568.191 135.667 564.924 132.819 562.743 129.132C558.471 121.928 558.387 112.21 560.565 104.252C562.494 96.8798 565.677 91.6859 570.618 87.9998C571.122 87.6647 571.623 87.3296 572.127 86.9945C576.819 84.3974 582.684 84.9839 585.195 90.0941C587.289 94.2827 586.536 99.5606 584.61 103.749C582.096 109.446 574.974 113.97 568.524 113.97H566.178V114.053C566.178 115.812 566.262 117.572 566.514 119.331C566.598 119.917 566.766 120.504 566.85 121.09C567.771 124.776 569.697 128.295 573.132 130.054C576.567 131.813 580.923 130.221 583.521 127.708C585.195 126.117 586.368 125.781 587.877 126.452ZM569.28 100.231C567.939 103.079 566.934 106.262 567.183 106.932C567.771 108.357 571.458 106.681 572.295 106.262C576.987 104.336 580.923 99.0578 579.498 93.7802C579.081 92.3558 578.325 91.937 576.819 92.3558C574.305 93.026 571.206 96.2096 569.28 100.231ZM597.054 136.84C595.965 136.588 595.464 136.17 594.876 135.081C594.456 134.159 594.456 127.792 595.128 102.492C595.464 89.5076 595.464 89.2562 597.054 88.2509C598.896 87.1619 601.074 87.9158 601.914 89.8427C602.247 90.6806 602.331 91.4345 602.163 93.1937L601.998 95.5394L603.336 93.7802C606.018 90.1778 610.038 87.1619 614.478 86.1566C621.096 84.6488 626.04 89.9264 627.966 95.6231C629.559 100.482 629.391 105.676 629.475 110.702C629.643 120.671 629.055 133.405 628.302 135.081C627.882 136.17 626.46 137.091 625.287 137.091C624.114 137.091 622.689 136.17 622.269 134.997C621.936 134.243 621.936 133.405 622.104 130.138C622.521 124.357 623.025 118.493 623.025 112.629C623.025 107.351 623.109 100.566 620.679 95.7068C618.165 90.6806 613.473 93.026 610.374 96.1259C607.275 99.2255 604.845 104.503 602.751 112.964C601.914 116.483 601.494 122.012 601.41 129.886C601.41 131.813 601.326 133.824 601.158 134.326C600.657 136.17 598.896 137.175 597.054 136.84ZM646.947 136.505C646.359 136.17 645.858 135.667 645.69 134.913C645.186 133.154 645.354 131.143 645.27 129.3C645.186 124.274 645.186 119.163 645.186 114.137L645.102 94.0313H640.746C638.235 94.0313 634.128 94.5341 633.627 91.1831C633.459 90.0104 633.876 88.9211 634.716 88.1672C636.138 86.8268 638.904 87.1619 640.746 87.1619H644.934V78.5333C644.934 76.1876 644.934 73.7582 645.018 71.3288C645.102 70.4072 645.102 69.2345 645.69 68.4806C646.275 67.559 647.532 67.0562 648.621 67.1402C652.224 67.3913 651.804 71.5802 651.804 74.0933C651.888 75.6011 651.888 77.0255 651.888 78.5333V87.1619L656.328 87.2459C658.173 87.2459 660.684 86.8268 661.941 88.67C662.778 89.9264 662.613 92.0207 661.356 92.9423C660.015 93.9476 657.669 93.6962 656.16 93.7802L651.972 93.9476V114.472C651.972 119.415 652.056 124.357 651.972 129.3C651.972 131.143 652.056 133.321 651.636 135.164C651.135 137.175 648.537 137.51 646.947 136.505Z" fill="white"/>
</svg>
