<svg width="296" height="196" viewBox="0 0 296 196" fill="none" xmlns="http://www.w3.org/2000/svg">
<rect y="0.178711" width="296" height="195.472" rx="20.9434" fill="#9AE6EA"/>
<rect y="0.178711" width="296" height="195.472" rx="20.9434" fill="black" fill-opacity="0.03"/>
<line x1="15.0101" y1="61.9616" x2="280.991" y2="61.9616" stroke="white" stroke-opacity="0.5" stroke-width="2.09434" stroke-linecap="round"/>
<path d="M89.8337 38.7719C90.2247 40.587 90.2805 41.0337 90.2805 41.9832C90.3084 43.8821 89.7779 44.9432 88.5213 45.5575C86.4828 46.6187 83.7741 45.0549 82.0707 43.9658C81.5681 43.6307 80.842 43.156 80.479 42.9326C80.116 42.7092 79.8088 42.5137 79.7809 42.5417C79.753 42.5417 79.6413 43.0443 79.5296 43.6587C79.2224 45.2224 79.1386 45.5017 78.7756 45.8088C78.4126 46.116 77.8541 46.1719 77.4352 45.9205C77.2956 45.8368 77.1281 45.6134 77.0443 45.4458C76.9047 45.1387 76.9047 45.0828 77.1281 44.0217C77.2677 43.4073 77.4911 42.2066 77.6586 41.3688C78.5801 36.2866 79.725 31.0088 80.6466 27.8813C81.7635 23.916 82.2941 22.799 83.2715 22.4081C83.7183 22.2126 84.0533 22.2126 84.5001 22.436C85.282 22.799 85.8405 23.6926 86.5107 25.7032C87.1809 27.6858 89.1356 35.4209 89.8337 38.7719ZM88.1862 42.2066C88.2979 41.0337 87.7952 39.6934 87.516 38.5485C87.2088 37.2081 86.8737 35.8956 86.5386 34.5553C86.0081 32.4609 85.4775 30.3387 84.8911 28.2443C84.8073 27.993 84.2209 25.2843 83.8858 25.2843C83.6903 25.2843 82.35 29.9756 81.6518 33.1032C81.0654 35.7002 80.2277 39.9168 80.2556 40.0005C80.3673 40.1681 83.9696 42.5696 84.6118 42.9047C85.4496 43.2956 87.0133 44.3009 87.7673 43.3236C88.0186 42.9885 88.1303 42.6254 88.1862 42.2066ZM105.073 34.6111C105.352 36.3145 105.296 38.4647 104.933 39.9447C104.458 41.8156 103.537 43.7424 101.889 44.8315C100.074 46.0043 97.5889 45.6971 95.8576 44.6081C95.5504 44.4126 95.2712 44.273 95.2432 44.3009C95.2153 44.3288 95.1874 46.9817 95.1874 50.193C95.1874 55.3032 95.1595 56.0571 95.0198 56.3085C94.6568 57.1183 93.3723 57.1462 93.093 56.2526C93.0093 56.0013 93.0093 55.6662 93.0093 55.4149C92.9255 54.0187 92.9534 52.6224 92.9534 51.2262C92.9255 48.4617 92.9534 42.5137 93.0093 37.9621C93.093 30.3107 93.093 29.7243 93.2606 29.4171C93.5678 28.8028 94.3217 28.6353 94.8802 29.0262C95.2153 29.2496 95.3549 29.6964 95.3549 30.5341V31.2881L96.1089 30.59C96.9466 29.7802 97.7006 29.2496 98.4825 28.9424C99.6274 28.4956 100.996 28.6911 102.057 29.3054C103.816 30.3107 104.71 32.7122 105.073 34.6111ZM100.13 43.1002C100.577 42.9605 100.996 42.7092 101.359 42.3183C102.783 40.8104 103.174 38.4647 103.034 36.4821C102.922 34.8345 102.42 32.3213 100.94 31.316C100.13 30.7854 99.0689 31.1205 98.3708 31.6232C97.2259 32.4609 96.3881 33.7734 95.7738 35.03L95.2712 36.0073V38.5764V41.1734L96.053 41.8715C97.17 42.8768 98.7617 43.547 100.13 43.1002ZM119.935 34.6111C120.214 36.3145 120.158 38.4647 119.795 39.9447C119.32 41.8156 118.399 43.7424 116.751 44.8315C114.936 46.0043 112.451 45.6971 110.72 44.6081C110.413 44.4126 110.133 44.273 110.105 44.3009C110.077 44.3288 110.05 46.9817 110.05 50.193C110.05 55.3032 110.022 56.0571 109.882 56.3085C109.519 57.1183 108.234 57.1462 107.955 56.2526C107.871 56.0013 107.871 55.6662 107.871 55.4149C107.788 54.0187 107.816 52.6224 107.816 51.2262C107.788 48.4617 107.816 42.5137 107.871 37.9621C107.955 30.3107 107.955 29.7243 108.123 29.4171C108.43 28.8028 109.184 28.6353 109.742 29.0262C110.077 29.2496 110.217 29.6964 110.217 30.5341V31.2881L110.971 30.59C111.809 29.7802 112.563 29.2496 113.345 28.9424C114.49 28.4956 115.858 28.6911 116.919 29.3054C118.678 30.3107 119.572 32.7122 119.935 34.6111ZM114.992 43.1002C115.439 42.9605 115.858 42.7092 116.221 42.3183C117.645 40.8104 118.036 38.4647 117.896 36.4821C117.785 34.8345 117.282 32.3213 115.802 31.316C114.992 30.7854 113.931 31.1205 113.233 31.6232C112.088 32.4609 111.25 33.7734 110.636 35.03L110.133 36.0073V38.5764V41.1734L110.915 41.8715C112.032 42.8768 113.624 43.547 114.992 43.1002ZM130.888 29.836C133.094 31.8745 134.071 35.7839 133.317 39.5258C133.317 39.5817 133.289 39.6096 133.289 39.6654C132.619 42.8488 130.162 46.7862 126.336 45.9205C125.107 45.6413 124.13 44.8594 123.404 43.8821C120.444 39.9447 121.03 32.7402 124.577 29.7522C126.559 28.0768 128.989 28.1047 130.888 29.836ZM131.167 38.716C131.362 37.5711 131.306 35.7002 131.027 34.5832C130.608 32.9636 129.687 31.5394 128.682 31.0647C126.811 30.1153 124.772 31.9862 123.99 35.3371C123.432 37.7945 123.655 41.313 125.722 43.0443C128.709 45.5575 130.748 41.0896 131.167 38.716ZM136.595 45.753C136.372 45.6413 136.149 45.4737 136.093 45.2224C136.037 45.0828 136.009 44.8873 136.009 44.7198C135.953 44.0217 135.981 43.2956 135.981 42.5696C136.037 37.5153 136.204 30.4783 136.288 29.836C136.372 29.2775 136.4 29.1658 136.707 28.8866C137.21 28.4119 137.964 28.5236 138.355 29.11C138.522 29.3892 138.55 30.4224 138.438 32.1817C138.41 32.6005 138.355 35.6443 138.327 38.9115C138.299 40.4753 138.299 42.067 138.215 43.6307C138.215 44.1613 138.243 44.8036 138.047 45.3062C137.88 45.7251 137.293 45.8926 136.875 45.8368C136.791 45.8088 136.679 45.7809 136.595 45.753ZM136.93 26.6247C136.902 26.5968 136.847 26.5688 136.791 26.5409C136.121 26.0941 136.176 25.1168 136.847 24.67C137.154 24.4745 137.684 24.5024 137.992 24.67C138.271 24.8375 138.438 25.1168 138.494 25.4239C138.606 26.122 138.159 26.7364 137.433 26.7364C137.266 26.7364 137.098 26.7085 136.93 26.6247ZM142.459 45.6134C142.096 45.5296 141.928 45.39 141.733 45.027C141.593 44.7198 141.593 42.5975 141.817 34.1643C141.928 29.836 141.928 29.7522 142.459 29.4171C143.073 29.0541 143.799 29.3054 144.079 29.9477C144.19 30.227 144.218 30.4783 144.162 31.0647L144.107 31.8466L144.553 31.2602C145.447 30.0594 146.787 29.0541 148.267 28.719C150.473 28.2164 152.121 29.9756 152.763 31.8745C153.294 33.4941 153.238 35.2254 153.266 36.9009C153.322 40.2239 153.126 44.4685 152.875 45.027C152.735 45.39 152.261 45.6971 151.87 45.6971C151.479 45.6971 151.004 45.39 150.864 44.999C150.753 44.7477 150.753 44.4685 150.808 43.3794C150.948 41.4526 151.116 39.4979 151.116 37.5432C151.116 35.7839 151.144 33.5221 150.334 31.9024C149.496 30.227 147.932 31.0088 146.899 32.0421C145.866 33.0753 145.056 34.8345 144.358 37.6549C144.079 38.8277 143.939 40.6707 143.911 43.2956C143.911 43.9379 143.883 44.6081 143.827 44.7756C143.66 45.39 143.073 45.7251 142.459 45.6134ZM159.09 45.5017C158.894 45.39 158.727 45.2224 158.671 44.9711C158.503 44.3847 158.559 43.7145 158.531 43.1002C158.503 41.4247 158.503 39.7213 158.503 38.0458L158.475 31.3439H157.023C156.185 31.3439 154.817 31.5115 154.65 30.3945C154.594 30.0036 154.733 29.6405 155.013 29.3892C155.487 28.9424 156.409 29.0541 157.023 29.0541H158.419V26.1779C158.419 25.396 158.419 24.5862 158.447 23.7764C158.475 23.4692 158.475 23.0783 158.671 22.827C158.866 22.5198 159.285 22.3522 159.648 22.3802C160.849 22.4639 160.709 23.8602 160.709 24.6979C160.737 25.2005 160.737 25.6753 160.737 26.1779V29.0541L162.217 29.0821C162.831 29.0821 163.669 28.9424 164.088 29.5568C164.367 29.9756 164.311 30.6737 163.893 30.9809C163.446 31.316 162.664 31.2322 162.161 31.2602L160.765 31.316V38.1575C160.765 39.8051 160.793 41.4526 160.765 43.1002C160.765 43.7145 160.793 44.4405 160.653 45.0549C160.486 45.7251 159.62 45.8368 159.09 45.5017ZM166.102 45.6134C165.739 45.5296 165.572 45.39 165.376 45.027C165.236 44.7198 165.236 42.5975 165.46 34.1643C165.572 29.836 165.572 29.7522 166.102 29.4171C166.689 29.0541 167.443 29.3054 167.722 29.9477C167.833 30.227 167.833 30.4783 167.806 31.0647L167.75 31.8466L168.196 31.2602C169.509 29.5009 171.38 28.4956 173.055 28.6073C174.144 28.6911 175.178 29.4171 175.736 30.4783L175.96 30.8692C175.96 30.8692 176.518 30.3945 176.518 30.3666C177.467 29.5009 178.668 28.6632 180.009 28.6353C181.852 28.6353 183.22 30.227 183.806 31.8187C184.141 32.6564 184.309 33.6896 184.365 35.0579C184.421 36.3145 184.281 41.6202 184.113 43.8821L184.086 44.5243C184.058 44.8315 183.946 45.1107 183.723 45.3062C183.276 45.6971 182.717 45.7251 182.27 45.3621C181.852 44.999 181.796 44.6919 181.907 42.5696C181.963 41.5364 182.019 39.1628 182.019 37.2919C182.047 35.5605 182.298 33.4383 181.349 31.9024C180.846 31.0647 180.064 30.7575 179.199 31.2043C178.361 31.6511 177.551 32.3492 177.132 33.2428L176.909 33.6896L176.937 36.873C176.965 40.3636 176.741 44.4964 176.518 45.027C176.378 45.39 175.904 45.6971 175.513 45.6971C175.122 45.6971 174.647 45.39 174.507 44.999C174.396 44.7477 174.396 44.4685 174.452 43.3794C174.898 37.0964 174.731 33.4941 173.949 31.9304C173.502 31.0647 173.223 30.8692 172.581 30.9251C171.883 30.9809 171.268 31.316 170.542 32.0421C169.509 33.0753 168.699 34.8345 168.001 37.6549C167.722 38.8277 167.582 40.6707 167.554 43.2956C167.554 43.9379 167.526 44.6081 167.47 44.7756C167.303 45.39 166.716 45.7251 166.102 45.6134ZM195.958 42.1507C196.349 42.3462 196.572 42.7092 196.572 43.156C196.572 43.6307 196.377 43.9379 195.79 44.4685C194.506 45.6413 192.216 46.1998 190.736 45.6971C189.396 45.2224 188.307 44.273 187.58 43.0443C186.156 40.6428 186.128 37.4036 186.854 34.7507C187.497 32.2934 188.558 30.5621 190.205 29.3334C190.373 29.2217 190.54 29.11 190.708 28.9983C192.272 28.1326 194.227 28.3281 195.064 30.0315C195.762 31.4277 195.511 33.187 194.869 34.5832C194.031 36.4821 191.657 37.99 189.507 37.99H188.725V38.0179C188.725 38.6043 188.753 39.1907 188.837 39.7771C188.865 39.9726 188.921 40.1681 188.949 40.3636C189.256 41.5922 189.898 42.7651 191.043 43.3515C192.188 43.9379 193.64 43.4073 194.506 42.5696C195.064 42.039 195.455 41.9273 195.958 42.1507ZM189.759 33.4104C189.312 34.3598 188.977 35.4209 189.06 35.6443C189.256 36.119 190.485 35.5605 190.764 35.4209C192.328 34.7787 193.64 33.0194 193.165 31.2602C193.026 30.7854 192.774 30.6458 192.272 30.7854C191.434 31.0088 190.401 32.07 189.759 33.4104ZM199.017 45.6134C198.654 45.5296 198.487 45.39 198.291 45.027C198.151 44.7198 198.151 42.5975 198.375 34.1643C198.487 29.836 198.487 29.7522 199.017 29.4171C199.631 29.0541 200.357 29.3054 200.637 29.9477C200.748 30.227 200.776 30.4783 200.72 31.0647L200.665 31.8466L201.111 31.2602C202.005 30.0594 203.345 29.0541 204.825 28.719C207.031 28.2164 208.679 29.9756 209.321 31.8745C209.852 33.4941 209.796 35.2254 209.824 36.9009C209.88 40.2239 209.684 44.4685 209.433 45.027C209.293 45.39 208.819 45.6971 208.428 45.6971C208.037 45.6971 207.562 45.39 207.422 44.999C207.311 44.7477 207.311 44.4685 207.367 43.3794C207.506 41.4526 207.674 39.4979 207.674 37.5432C207.674 35.7839 207.702 33.5221 206.892 31.9024C206.054 30.227 204.49 31.0088 203.457 32.0421C202.424 33.0753 201.614 34.8345 200.916 37.6549C200.637 38.8277 200.497 40.6707 200.469 43.2956C200.469 43.9379 200.441 44.6081 200.385 44.7756C200.218 45.39 199.631 45.7251 199.017 45.6134ZM215.648 45.5017C215.452 45.39 215.285 45.2224 215.229 44.9711C215.061 44.3847 215.117 43.7145 215.089 43.1002C215.061 41.4247 215.061 39.7213 215.061 38.0458L215.033 31.3439H213.581C212.744 31.3439 211.375 31.5115 211.208 30.3945C211.152 30.0036 211.291 29.6405 211.571 29.3892C212.045 28.9424 212.967 29.0541 213.581 29.0541H214.977V26.1779C214.977 25.396 214.977 24.5862 215.005 23.7764C215.033 23.4692 215.033 23.0783 215.229 22.827C215.424 22.5198 215.843 22.3522 216.206 22.3802C217.407 22.4639 217.267 23.8602 217.267 24.6979C217.295 25.2005 217.295 25.6753 217.295 26.1779V29.0541L218.775 29.0821C219.39 29.0821 220.227 28.9424 220.646 29.5568C220.925 29.9756 220.87 30.6737 220.451 30.9809C220.004 31.316 219.222 31.2322 218.719 31.2602L217.323 31.316V38.1575C217.323 39.8051 217.351 41.4526 217.323 43.1002C217.323 43.7145 217.351 44.4405 217.211 45.0549C217.044 45.7251 216.178 45.8368 215.648 45.5017Z" fill="white"/>
</svg>
