<svg width="888" height="414" viewBox="0 0 888 414" fill="none" xmlns="http://www.w3.org/2000/svg">
<path d="M14.2477 405.123C11.9258 405.123 10.0261 403.557 8.54862 400.422C7.28217 396.936 6.64893 392.757 6.64893 387.879L7.28217 300.09C7.91538 257.59 8.232 224.67 8.232 201.329C8.232 120.16 5.48799 57.9759 0 14.7785C3.16614 6.76599 7.17663 2.75977 12.0314 2.75977C19.8412 2.75977 26.9123 5.72088 33.2445 11.6432C39.7881 17.217 45.1704 24.8811 49.392 34.6353C57.624 54.8406 61.74 77.4846 61.74 102.567C61.74 128.695 58.3629 152.035 51.6084 172.589C44.8539 193.142 35.0388 209.167 22.1631 220.663L22.7963 273.441L23.4296 301.137C23.6406 307.059 23.7462 315.594 23.7462 326.742C24.3794 350.082 24.696 369.069 24.696 383.7C24.696 390.318 23.8517 395.544 22.1631 399.375C20.4745 403.209 17.836 405.123 14.2477 405.123ZM21.5299 195.581C29.7619 182.692 35.7774 169.279 39.5769 155.345C43.5873 141.062 45.5925 125.037 45.5925 107.27V106.747C45.5925 98.7351 45.0648 88.6323 44.0097 76.4394C43.3764 72.2592 42.2154 68.0787 40.5267 63.8982C38.8383 59.7177 37.8882 57.2793 37.6773 56.5824C36.1998 53.0988 32.2947 47.6991 25.9625 40.3836L17.7305 30.4551C17.7305 48.2217 18.3637 75.7428 19.6302 113.018L21.5299 195.581Z" fill="#B83A48"/>
<path d="M132.056 412.439C126.568 412.439 121.502 409.478 116.859 403.556C112.215 397.982 108.415 390.317 105.46 380.564C99.3393 359.312 95.5398 336.146 94.0623 311.063C92.1627 287.375 91.2129 264.556 91.2129 242.609C91.2129 238.429 91.3182 234.945 91.5294 232.158V222.752C91.5294 221.01 91.4238 220.14 91.2129 220.14V210.734L91.5294 174.155C91.7406 163.008 92.5848 145.241 94.0623 120.855C95.1177 104.133 97.545 87.9343 101.344 72.2578C102.822 65.2903 104.722 60.0649 107.044 56.581C109.365 52.7491 112.004 50.833 114.959 50.833C123.402 50.833 131.001 53.4457 137.755 58.6714C144.51 63.5485 150.209 70.5157 154.852 79.5733C159.074 88.2826 162.662 99.082 165.617 111.972C168.572 124.513 170.683 137.925 171.95 152.208C173.216 166.839 173.849 182.342 173.849 198.715V202.896C173.849 213.695 173.955 223.449 174.166 232.158L174.483 261.944C174.483 362.273 160.34 412.439 132.056 412.439ZM130.79 390.491C134.589 390.491 138.072 388.052 141.238 383.177C144.404 377.951 146.831 370.982 148.52 362.273C152.53 344.507 154.958 325.346 155.802 304.793C156.858 287.026 157.385 271.698 157.385 258.808C157.385 243.132 156.646 222.578 155.169 197.148C153.903 170.323 153.269 150.292 153.269 137.054V127.648C152.847 114.41 150.103 102.914 145.037 93.1597C140.182 83.4055 134.167 78.5284 126.99 78.5284C119.814 78.5284 115.064 85.3213 112.743 98.9077C110.632 109.707 109.576 123.642 109.576 140.712C109.576 147.331 109.682 152.905 109.893 157.434V171.543L109.26 195.58C108.838 202.896 108.627 210.908 108.627 219.617C108.627 238.429 108.943 257.067 109.576 275.53C110.421 301.658 112.531 327.089 115.909 351.824C119.286 377.603 124.246 390.491 130.79 390.491Z" fill="#B83A48"/>
<path d="M214.803 409.827C211.003 408.783 207.731 406.518 204.987 403.035C202.455 399.549 200.977 395.022 200.555 389.448L204.038 380.565C205.304 380.565 207.309 381.261 210.053 382.653C213.22 383.7 215.647 384.222 217.336 384.222C221.135 384.222 224.512 381.435 227.467 375.861C230.633 370.287 232.955 362.973 234.433 353.913C237.177 337.191 238.549 322.212 238.549 308.976C238.549 285.982 234.116 261.771 225.251 236.34L221.768 226.411C217.758 214.915 214.38 204.638 211.636 195.581C208.892 186.523 206.571 176.769 204.671 166.318C202.138 152.732 200.872 139.145 200.872 125.559C200.872 110.231 202.982 94.206 207.204 77.4843C209.314 69.4719 212.27 63.027 216.069 58.1499C220.079 52.9245 224.512 50.3115 229.367 50.3115C233.166 50.3115 236.649 52.4019 239.815 56.5821C243.192 60.4143 244.881 65.1171 244.881 70.6911C244.881 73.8264 244.142 76.2651 242.665 78.0069C241.187 79.7487 239.393 80.6196 237.282 80.6196C234.96 80.6196 232.744 79.5744 230.633 77.4843C225.99 77.8326 222.296 84.6258 219.552 97.8639C217.23 110.057 216.069 120.159 216.069 128.172C216.069 138.275 217.019 148.551 218.919 159.002C220.818 169.105 223.246 178.337 226.201 186.698L233.166 207.599L244.248 242.088C247.203 251.842 249.525 263.164 251.213 276.054C253.113 288.943 254.063 302.007 254.063 315.246C254.063 336.495 251.108 356.7 245.198 375.861C242.242 385.614 238.021 393.453 232.533 399.375C227.256 405.297 221.346 408.258 214.803 408.258V409.827Z" fill="#B83A48"/>
<path d="M305.063 394.15L304.748 373.771C304.535 367.849 304.43 361.231 304.43 353.914L304.748 336.148C304.115 332.317 302.531 294.169 299.997 221.709C297.464 149.249 295.987 102.742 295.565 82.188C283.322 81.4914 275.512 79.4013 272.135 75.9174C269.813 73.1307 268.652 69.9954 268.652 66.5115C268.652 63.7248 269.708 61.2861 271.819 59.196C274.141 56.7573 276.462 55.5381 278.784 55.5381C284.694 55.5381 291.871 56.2347 300.314 57.6282C308.336 59.37 315.512 60.2409 321.845 60.2409H326.909C333.452 60.2409 336.725 64.4214 336.725 72.7821C336.725 76.9626 335.669 80.4462 333.56 83.2332C331.448 85.6719 329.021 86.8911 326.276 86.8911C324.377 86.8911 321.632 86.3685 318.044 85.3233L311.711 83.2332L311.078 88.4586C311.078 119.463 312.872 168.931 316.463 236.863C319.838 300.616 321.527 350.083 321.527 385.267C321.527 389.449 320.366 393.106 318.044 396.241C315.935 399.376 313.508 400.945 310.763 400.945L305.063 394.15Z" fill="#B83A48"/>
<path d="M375.308 406.17C372.563 387.705 371.192 362.1 371.192 329.355L371.825 282.847C372.248 268.912 372.458 253.41 372.458 236.34C371.192 231.463 370.559 227.108 370.559 223.276V221.709C372.668 215.09 373.724 200.11 373.724 176.769L374.042 152.732C374.252 145.068 374.357 136.533 374.357 127.127C374.357 106.573 373.514 90.374 371.825 78.5297C372.458 73.6523 373.514 69.4721 374.99 65.9882C376.469 62.1563 378.263 60.2402 380.372 60.2402H394.304C400.214 60.2402 405.386 62.5046 409.82 67.0334C414.251 71.2139 417.629 77.3102 419.951 85.3226C424.172 99.6059 426.284 116.502 426.284 136.01C426.284 149.945 426.176 160.918 425.966 168.931C425.543 179.034 424.487 188.265 422.801 196.626C422.168 201.155 421.217 204.987 419.951 208.122C418.895 210.909 417.311 214.393 415.202 218.573C412.247 224.496 407.39 230.069 400.637 235.295C397.892 237.733 394.304 239.998 389.873 242.088V298.001L390.506 331.443L391.139 347.643C391.982 367.152 392.405 383.7 392.405 397.287C392.405 401.466 391.349 404.949 389.24 407.736C387.128 410.871 384.701 412.44 381.956 412.44L375.308 406.17ZM390.188 220.663C402.641 217.528 408.869 188.091 408.869 132.352C408.869 122.25 408.551 114.412 407.918 108.838C407.285 104.657 406.442 101.348 405.386 98.909C404.33 96.122 402.749 93.8576 400.637 92.1158C398.315 90.0257 395.783 88.9805 393.038 88.9805C393.038 88.6322 391.877 88.4579 389.555 88.4579V118.243C389.555 138.797 389.66 157.087 389.873 173.111C389.873 191.227 389.978 203.071 390.188 208.645V220.663Z" fill="#B83A48"/>
<path d="M494.431 412.439C488.941 412.439 483.877 409.478 479.233 403.556C474.589 397.982 470.791 390.317 467.833 380.564C461.713 359.312 457.915 336.146 456.436 311.063C454.537 287.375 453.586 264.556 453.586 242.609C453.586 238.429 453.691 234.945 453.904 232.158V222.752C453.904 221.01 453.799 220.14 453.586 220.14V210.734L453.904 174.155C454.114 163.008 454.96 145.241 456.436 120.855C457.492 104.133 459.919 87.9343 463.717 72.2578C465.196 65.2903 467.095 60.0649 469.417 56.581C471.739 52.7491 474.379 50.833 477.334 50.833C485.776 50.833 493.375 53.4457 500.128 58.6714C506.884 63.5485 512.584 70.5157 517.225 79.5733C521.449 88.2826 525.037 99.082 527.992 111.972C530.947 124.513 533.056 137.925 534.325 152.208C535.591 166.839 536.224 182.342 536.224 198.715V202.896C536.224 213.695 536.329 223.449 536.539 232.158L536.857 261.944C536.857 362.273 522.715 412.439 494.431 412.439ZM493.165 390.491C496.963 390.491 500.446 388.052 503.611 383.177C506.779 377.951 509.206 370.982 510.895 362.273C514.906 344.507 517.333 325.346 518.176 304.793C519.232 287.026 519.76 271.698 519.76 258.808C519.76 243.132 519.022 222.578 517.543 197.148C516.277 170.323 515.644 150.292 515.644 137.054V127.648C515.221 114.41 512.476 102.914 507.412 93.1597C502.558 83.4055 496.54 78.5284 489.364 78.5284C482.188 78.5284 477.439 85.3213 475.117 98.9077C473.005 109.707 471.949 123.642 471.949 140.712C471.949 147.331 472.057 152.905 472.267 157.434V171.543L471.634 195.58C471.211 202.896 471.001 210.908 471.001 219.617C471.001 238.429 471.316 257.067 471.949 275.53C472.795 301.658 474.907 327.089 478.282 351.824C481.66 377.603 486.619 390.491 493.165 390.491Z" fill="#B83A48"/>
<path d="M657.917 404.078C655.382 404.078 653.484 403.034 652.218 400.943C650.952 398.504 650 394.499 649.367 388.925L647.468 378.995V376.382C647.468 364.886 640.188 325.694 625.622 258.808C611.267 191.922 599.976 142.454 591.743 110.404V373.247L593.009 376.904C593.222 377.603 593.642 378.821 594.275 380.564C594.911 382.304 595.226 384.047 595.226 385.79C595.226 390.317 594.275 394.151 592.376 397.286C590.477 400.421 588.155 401.987 585.41 401.987C578.657 401.987 575.279 391.364 575.279 370.112L574.964 280.756C574.751 253.931 574.646 223.972 574.646 190.877C574.646 179.729 574.964 163.53 575.597 142.28C576.23 120.332 576.546 104.134 576.546 93.6825C576.546 77.3091 580.346 64.4196 587.945 55.0137V58.149C589.211 57.4521 590.055 57.1038 590.478 57.1038C595.332 57.1038 601.455 71.0385 608.841 98.9079C614.751 121.204 620.027 144.718 624.671 169.452C629.525 194.186 635.858 229.372 643.667 275.008L646.835 293.819C651.689 322.037 655.382 342.242 657.917 354.437C662.138 279.536 664.247 191.051 664.247 88.9794V82.1862C664.037 80.0961 663.933 77.8317 663.933 75.3933C663.933 64.9422 666.464 59.7165 671.531 59.7165C674.486 59.7165 676.703 61.6326 678.179 65.4648C679.868 69.2967 680.712 74.1738 680.712 80.0961V119.287C680.292 172.936 679.025 231.113 676.913 293.819C674.801 356.525 672.269 391.886 669.314 399.899C663.194 402.686 659.393 404.078 657.917 404.078Z" fill="#B83A48"/>
<path d="M737.551 409.304C734.809 409.304 732.274 407.735 729.952 404.6C727.843 401.465 726.682 397.634 726.469 393.104V369.068C726.259 365.933 726.154 362.273 726.154 358.094C726.154 350.777 725.836 339.629 725.203 324.65L724.57 291.207C724.57 274.137 724.888 248.707 725.521 214.915C726.364 184.607 726.787 159.176 726.787 138.622C726.787 133.745 726.469 126.43 725.836 116.675C725.203 106.573 724.888 99.2568 724.888 94.728C724.888 69.9942 729.319 57.627 738.184 57.627C745.15 57.627 753.172 59.8914 762.247 64.4202C771.535 68.949 776.179 74.3487 776.179 80.6193C776.179 84.1029 775.228 87.4125 773.329 90.5478C771.64 93.3348 769.531 95.5992 766.996 97.341C758.131 92.1153 750.112 88.6317 742.933 86.8899C743.146 92.1152 743.251 99.6054 743.251 109.36C743.251 123.294 743.146 135.835 742.933 146.983C742.3 163.705 741.985 176.246 741.985 184.607L742.933 192.968L748 192.445C749.689 192.097 751.798 191.923 754.333 191.923C764.464 191.923 769.531 196.8 769.531 206.554C769.531 210.386 768.58 213.696 766.681 216.483C764.782 218.921 762.352 220.14 759.397 220.14C755.599 220.14 752.644 219.792 750.532 219.095H742.618C743.041 228.153 743.251 241.391 743.251 258.809C743.251 276.227 743.146 291.904 742.933 305.837C742.3 327.089 741.985 342.938 741.985 353.39C741.985 372.899 742.195 382.652 742.618 382.652L753.067 382.13C756.655 381.782 760.981 381.608 766.048 381.608C774.067 381.608 778.078 385.79 778.078 394.148C778.078 399.026 776.707 402.686 773.962 405.122C771.43 407.909 768.262 409.304 764.464 409.304H737.551Z" fill="#B83A48"/>
<path d="M823.093 405.648C817.603 405.648 814.861 382.83 814.861 337.191L815.494 254.63C815.704 230.244 815.809 202.897 815.809 172.589C815.809 161.442 815.176 144.197 813.91 120.857C812.854 95.426 812.326 79.9235 812.326 74.3498C812.326 69.821 813.487 65.8148 815.809 62.3312C818.131 58.8473 820.663 57.1055 823.408 57.1055C830.797 57.1055 837.868 59.8925 844.621 65.4665C851.587 70.6919 857.707 78.1817 862.984 87.9362C874.171 109.186 881.56 132.527 885.148 157.958C887.047 170.847 887.998 183.563 887.998 196.104C887.998 200.633 887.893 204.813 887.68 208.645L887.365 222.754V251.495C887.365 273.79 886.942 291.383 886.099 304.272C884.833 321.69 882.403 337.191 878.815 350.779C874.594 365.409 868.474 378.474 860.452 389.97C856.654 395.196 851.797 400.422 845.887 405.648H823.093ZM837.022 378.996C841.243 378.996 845.149 377.256 848.737 373.77C852.325 369.939 855.388 364.887 857.92 358.617C860.029 353.043 861.931 346.077 863.62 337.716C865.519 329.007 866.89 320.646 867.736 312.633C869.635 296.956 870.796 280.932 871.216 264.558C871.429 260.378 871.534 254.281 871.534 246.269C871.534 141.062 859.186 86.1944 834.49 81.6656C833.011 97.3421 832.273 115.457 832.273 136.011C832.273 157.958 833.119 196.278 834.808 250.972C836.284 299.395 837.022 337.89 837.022 366.456V378.996Z" fill="#B83A48"/>
</svg>
