<svg width="296" height="138" viewBox="0 0 296 138" fill="none" xmlns="http://www.w3.org/2000/svg">
<path d="M4.74923 135.041C3.97528 135.041 3.34205 134.519 2.84954 133.474C2.42739 132.312 2.21631 130.919 2.21631 129.293L2.42739 100.03C2.63846 85.8635 2.744 74.8899 2.744 67.1097C2.744 40.0532 1.82933 19.3253 0 4.92615C1.05538 2.25533 2.39221 0.919922 4.01046 0.919922C6.61375 0.919922 8.97077 1.90696 11.0815 3.88105C13.2627 5.739 15.0568 8.2937 16.464 11.5451C19.208 18.2802 20.58 25.8282 20.58 34.189C20.58 42.8982 19.4543 50.6784 17.2028 57.5296C14.9513 64.3808 11.6796 69.7225 7.38769 73.5545L7.59877 91.1471L7.80985 100.379C7.88021 102.353 7.91539 105.198 7.91539 108.914C8.12646 116.694 8.232 123.023 8.232 127.9C8.232 130.106 7.95057 131.848 7.38769 133.125C6.82482 134.403 5.94534 135.041 4.74923 135.041ZM7.17662 65.1937C9.92062 60.8972 11.9258 56.4265 13.1923 51.7816C14.5291 47.0205 15.1975 41.6789 15.1975 35.7567V35.5825C15.1975 32.9117 15.0216 29.5441 14.6699 25.4798C14.4588 24.0864 14.0718 22.6929 13.5089 21.2994C12.9461 19.9059 12.6294 19.0931 12.5591 18.8608C12.0666 17.6996 10.7649 15.8997 8.65416 13.4612L5.91016 10.1517C5.91016 16.0739 6.12123 25.2476 6.54339 37.6727L7.17662 65.1937Z" fill="#B83A48"/>
<path d="M44.0186 137.48C42.1893 137.48 40.5007 136.493 38.9528 134.519C37.4049 132.661 36.1384 130.106 35.1534 126.855C33.113 119.771 31.8465 112.049 31.354 103.688C30.7208 95.792 30.4042 88.1859 30.4042 80.8702C30.4042 79.4768 30.4393 78.3155 30.5097 77.3866V74.2512C30.5097 73.6706 30.4745 73.3803 30.4042 73.3803V70.245L30.5097 58.0522C30.5801 54.3363 30.8615 48.414 31.354 40.2854C31.7058 34.7116 32.5149 29.3119 33.7814 24.0864C34.2739 21.7639 34.9071 20.0221 35.6811 18.8608C36.455 17.5835 37.3345 16.9448 38.3195 16.9448C41.1339 16.9448 43.6668 17.8157 45.9183 19.5576C48.1698 21.1833 50.0695 23.5057 51.6174 26.5249C53.0246 29.428 54.2207 33.0278 55.2057 37.3243C56.1907 41.5047 56.8943 45.9754 57.3165 50.7365C57.7386 55.6136 57.9497 60.781 57.9497 66.2388V67.6323C57.9497 71.2321 57.9849 74.4835 58.0552 77.3866L58.1608 87.315C58.1608 120.758 53.4467 137.48 44.0186 137.48ZM43.5965 130.164C44.8629 130.164 46.0239 129.351 47.0792 127.726C48.1346 125.984 48.9437 123.661 49.5066 120.758C50.8434 114.836 51.6526 108.449 51.934 101.598C52.2858 95.6758 52.4617 90.5665 52.4617 86.2699C52.4617 81.0444 52.2154 74.1932 51.7229 65.7163C51.3008 56.7748 51.0897 50.0978 51.0897 45.6851V42.5498C50.949 38.1372 50.0343 34.3051 48.3457 31.0537C46.7274 27.8023 44.7222 26.1766 42.33 26.1766C39.9378 26.1766 38.3547 28.4409 37.5808 32.9697C36.8772 36.5695 36.5254 41.2144 36.5254 46.9044C36.5254 49.1107 36.5606 50.9687 36.6309 52.4783V57.1813L36.4198 65.1937C36.2791 67.6323 36.2088 70.3031 36.2088 73.2062C36.2088 79.4768 36.3143 85.6893 36.5254 91.8438C36.8068 100.553 37.5104 109.03 38.6362 117.275C39.7619 125.868 41.4153 130.164 43.5965 130.164Z" fill="#B83A48"/>
<path d="M71.6013 136.609C70.3348 136.261 69.2442 135.506 68.3296 134.345C67.4853 133.183 66.9928 131.674 66.852 129.816L68.013 126.855C68.4351 126.855 69.1035 127.087 70.0182 127.551C71.0736 127.9 71.8827 128.074 72.4456 128.074C73.712 128.074 74.8378 127.145 75.8228 125.287C76.8782 123.429 77.6521 120.991 78.1447 117.971C79.0593 112.397 79.5167 107.404 79.5167 102.992C79.5167 95.3275 78.0391 87.257 75.084 78.78L73.9231 75.4705C72.5863 71.6385 71.4605 68.2129 70.5459 65.1937C69.6312 62.1745 68.8573 58.9231 68.224 55.4394C67.3797 50.9106 66.9576 46.3819 66.9576 41.8531C66.9576 36.7437 67.6612 31.4021 69.0683 25.8282C69.7719 23.1574 70.757 21.0091 72.0234 19.3834C73.3602 17.6416 74.8378 16.7706 76.456 16.7706C77.7225 16.7706 78.8834 17.4674 79.9388 18.8608C81.0646 20.1382 81.6274 21.7058 81.6274 23.5638C81.6274 24.6089 81.3812 25.4218 80.8887 26.0024C80.3961 26.583 79.7981 26.8733 79.0945 26.8733C78.3206 26.8733 77.5818 26.5249 76.8782 25.8282C75.3303 25.9443 74.099 28.2087 73.1843 32.6214C72.4104 36.6856 72.0234 40.0532 72.0234 42.724C72.0234 46.0916 72.34 49.5172 72.9733 53.0008C73.6065 56.3684 74.4156 59.4456 75.4007 62.2326L77.7225 69.1999L81.4164 80.696C82.4014 83.9475 83.1753 87.7215 83.7382 92.018C84.3714 96.3145 84.688 100.669 84.688 105.082C84.688 112.165 83.703 118.9 81.733 125.287C80.7479 128.538 79.3408 131.151 77.5114 133.125C75.7524 135.099 73.7824 136.086 71.6013 136.086V136.609Z" fill="#B83A48"/>
<path d="M101.687 131.383L101.582 124.59C101.511 122.616 101.476 120.41 101.476 117.971L101.582 112.049C101.371 110.772 100.843 98.0563 99.9985 73.9029C99.1542 49.7494 98.6617 34.2471 98.521 27.3958C94.4402 27.1636 91.8369 26.4669 90.7112 25.3056C89.9372 24.3767 89.5502 23.3316 89.5502 22.1703C89.5502 21.2414 89.902 20.4285 90.6056 19.7318C91.3796 18.9189 92.1535 18.5125 92.9275 18.5125C94.8975 18.5125 97.2897 18.7447 100.104 19.2092C102.778 19.7898 105.17 20.0801 107.281 20.0801H108.969C111.15 20.0801 112.241 21.4736 112.241 24.2605C112.241 25.654 111.889 26.8152 111.186 27.7442C110.482 28.5571 109.673 28.9635 108.758 28.9635C108.125 28.9635 107.21 28.7893 106.014 28.4409L103.903 27.7442L103.692 29.486C103.692 39.8209 104.29 56.3103 105.487 78.9542C106.612 100.205 107.175 116.694 107.175 128.422C107.175 129.816 106.788 131.035 106.014 132.08C105.311 133.125 104.502 133.648 103.587 133.648L101.687 131.383Z" fill="#B83A48"/>
<path d="M125.102 135.39C124.187 129.235 123.73 120.7 123.73 109.785L123.941 94.2824C124.082 89.6375 124.152 84.47 124.152 78.78C123.73 77.1543 123.519 75.7028 123.519 74.4254V73.9029C124.222 71.6966 124.574 66.7033 124.574 58.9231L124.68 50.9106C124.75 48.3559 124.785 45.5109 124.785 42.3756C124.785 35.5244 124.504 30.1247 123.941 26.1766C124.152 24.5508 124.504 23.1574 124.996 21.9961C125.489 20.7188 126.087 20.0801 126.79 20.0801H131.434C133.404 20.0801 135.128 20.8349 136.606 22.3445C138.083 23.738 139.209 25.7701 139.983 28.4409C141.39 33.202 142.094 38.8339 142.094 45.3368C142.094 49.9817 142.058 53.6395 141.988 56.3103C141.847 59.6779 141.495 62.7551 140.933 65.5421C140.722 67.0517 140.405 68.329 139.983 69.3741C139.631 70.3031 139.103 71.4643 138.4 72.8578C137.415 74.8319 135.796 76.6898 133.545 78.4317C132.63 79.2445 131.434 79.9993 129.957 80.696V99.3337L130.168 110.481L130.379 115.881C130.66 122.384 130.801 127.9 130.801 132.429C130.801 133.822 130.449 134.983 129.746 135.912C129.042 136.957 128.233 137.48 127.318 137.48L125.102 135.39ZM130.062 73.5545C134.213 72.5094 136.289 62.6971 136.289 44.1175C136.289 40.7499 136.183 38.1372 135.972 36.2792C135.761 34.8857 135.48 33.7826 135.128 32.9697C134.776 32.0407 134.249 31.2859 133.545 30.7053C132.771 30.0086 131.927 29.6602 131.012 29.6602C131.012 29.5441 130.625 29.486 129.851 29.486V39.4145C129.851 46.2657 129.886 52.3622 129.957 57.7038C129.957 63.7422 129.992 67.6903 130.062 69.5483V73.5545Z" fill="#B83A48"/>
<path d="M164.811 137.48C162.981 137.48 161.293 136.493 159.745 134.519C158.197 132.661 156.931 130.106 155.945 126.855C153.905 119.771 152.639 112.049 152.146 103.688C151.513 95.792 151.196 88.1859 151.196 80.8702C151.196 79.4768 151.231 78.3155 151.302 77.3866V74.2512C151.302 73.6706 151.267 73.3803 151.196 73.3803V70.245L151.302 58.0522C151.372 54.3363 151.654 48.414 152.146 40.2854C152.498 34.7116 153.307 29.3119 154.573 24.0864C155.066 21.7639 155.699 20.0221 156.473 18.8608C157.247 17.5835 158.127 16.9448 159.112 16.9448C161.926 16.9448 164.459 17.8157 166.71 19.5576C168.962 21.1833 170.862 23.5057 172.409 26.5249C173.817 29.428 175.013 33.0278 175.998 37.3243C176.983 41.5047 177.686 45.9754 178.109 50.7365C178.531 55.6136 178.742 60.781 178.742 66.2388V67.6323C178.742 71.2321 178.777 74.4835 178.847 77.3866L178.953 87.315C178.953 120.758 174.239 137.48 164.811 137.48ZM164.389 130.164C165.655 130.164 166.816 129.351 167.871 127.726C168.927 125.984 169.736 123.661 170.299 120.758C171.636 114.836 172.445 108.449 172.726 101.598C173.078 95.6758 173.254 90.5665 173.254 86.2699C173.254 81.0444 173.008 74.1932 172.515 65.7163C172.093 56.7748 171.882 50.0978 171.882 45.6851V42.5498C171.741 38.1372 170.826 34.3051 169.138 31.0537C167.52 27.8023 165.514 26.1766 163.122 26.1766C160.73 26.1766 159.147 28.4409 158.373 32.9697C157.669 36.5695 157.317 41.2144 157.317 46.9044C157.317 49.1107 157.353 50.9687 157.423 52.4783V57.1813L157.212 65.1937C157.071 67.6323 157.001 70.3031 157.001 73.2062C157.001 79.4768 157.106 85.6893 157.317 91.8438C157.599 100.553 158.303 109.03 159.428 117.275C160.554 125.868 162.207 130.164 164.389 130.164Z" fill="#B83A48"/>
<path d="M219.306 134.693C218.461 134.693 217.828 134.345 217.406 133.648C216.984 132.835 216.667 131.5 216.456 129.642L215.823 126.332V125.461C215.823 121.629 213.396 108.565 208.541 86.2699C203.756 63.9744 199.992 47.485 197.248 36.8018V124.416L197.67 125.635C197.741 125.868 197.881 126.274 198.092 126.855C198.304 127.435 198.409 128.016 198.409 128.597C198.409 130.106 198.092 131.384 197.459 132.429C196.826 133.474 196.052 133.996 195.137 133.996C192.886 133.996 191.76 130.455 191.76 123.371L191.655 93.5856C191.584 84.6442 191.549 74.6577 191.549 63.626C191.549 59.9101 191.655 54.5104 191.866 47.427C192.077 40.1112 192.182 34.7116 192.182 31.2279C192.182 25.7701 193.449 21.4736 195.982 18.3383V19.3834C196.404 19.1511 196.685 19.035 196.826 19.035C198.444 19.035 200.485 23.6799 202.947 32.9697C204.917 40.4016 206.676 48.2398 208.224 56.4845C209.842 64.7292 211.953 76.4576 214.556 91.6696L215.612 97.9402C217.23 107.346 218.461 114.081 219.306 118.146C220.713 93.1792 221.416 63.6841 221.416 29.6602V27.3958C221.346 26.6991 221.311 25.9443 221.311 25.1315C221.311 21.6478 222.155 19.9059 223.844 19.9059C224.829 19.9059 225.568 20.5446 226.06 21.822C226.623 23.0993 226.904 24.725 226.904 26.6991V39.7629C226.764 57.6457 226.342 77.0382 225.638 97.9402C224.934 118.842 224.09 130.629 223.105 133.3C221.065 134.229 219.798 134.693 219.306 134.693Z" fill="#B83A48"/>
<path d="M245.85 136.435C244.936 136.435 244.091 135.912 243.317 134.867C242.614 133.822 242.227 132.545 242.156 131.035V123.023C242.086 121.978 242.051 120.758 242.051 119.365C242.051 116.926 241.945 113.21 241.734 108.217L241.523 97.0693C241.523 91.3793 241.629 82.9024 241.84 71.6385C242.121 61.5358 242.262 53.0589 242.262 46.2077C242.262 44.582 242.156 42.1434 241.945 38.892C241.734 35.5244 241.629 33.0858 241.629 31.5762C241.629 23.3316 243.106 19.2092 246.061 19.2092C248.383 19.2092 251.057 19.964 254.082 21.4736C257.178 22.9832 258.726 24.7831 258.726 26.8733C258.726 28.0345 258.409 29.1377 257.776 30.1828C257.213 31.1118 256.51 31.8666 255.665 32.4472C252.71 30.7053 250.037 29.5441 247.644 28.9635C247.715 30.7053 247.75 33.202 247.75 36.4534C247.75 41.0983 247.715 45.2787 247.644 48.9946C247.433 54.5685 247.328 58.7489 247.328 61.5358L247.644 64.3228L249.333 64.1486C249.896 64.0325 250.599 63.9744 251.444 63.9744C254.821 63.9744 256.51 65.6001 256.51 68.8516C256.51 70.1289 256.193 71.2321 255.56 72.1611C254.927 72.9739 254.117 73.3803 253.132 73.3803C251.866 73.3803 250.881 73.2642 250.177 73.032H247.539C247.68 76.0511 247.75 80.4638 247.75 86.2699C247.75 92.076 247.715 97.3016 247.644 101.946C247.433 109.03 247.328 114.313 247.328 117.797C247.328 124.3 247.398 127.551 247.539 127.551L251.022 127.377C252.218 127.261 253.66 127.203 255.349 127.203C258.022 127.203 259.359 128.597 259.359 131.383C259.359 133.009 258.902 134.229 257.987 135.041C257.143 135.97 256.087 136.435 254.821 136.435H245.85Z" fill="#B83A48"/>
<path d="M274.365 135.216C272.535 135.216 271.621 127.61 271.621 112.397L271.832 84.8765C271.902 76.7479 271.937 67.6323 271.937 57.5296C271.937 53.8137 271.726 48.0656 271.304 40.2854C270.952 31.8085 270.776 26.641 270.776 24.7831C270.776 23.2735 271.163 21.9381 271.937 20.7769C272.711 19.6156 273.555 19.035 274.47 19.035C276.933 19.035 279.29 19.964 281.541 21.822C283.863 23.5638 285.903 26.0604 287.662 29.3119C291.391 36.3953 293.854 44.1755 295.05 52.6525C295.683 56.949 296 61.1875 296 65.3679C296 66.8775 295.965 68.2709 295.894 69.5483L295.789 74.2512V83.8314C295.789 91.2632 295.648 97.1274 295.367 101.424C294.945 107.23 294.135 112.397 292.939 116.926C291.532 121.803 289.492 126.158 286.818 129.99C285.552 131.732 283.933 133.474 281.963 135.216H274.365ZM279.008 126.332C280.415 126.332 281.717 125.752 282.913 124.59C284.109 123.313 285.13 121.629 285.974 119.539C286.677 117.681 287.311 115.359 287.874 112.572C288.507 109.669 288.964 106.882 289.246 104.211C289.879 98.9853 290.266 93.6437 290.406 88.1859C290.477 86.7925 290.512 84.7603 290.512 82.0895C290.512 47.0205 286.396 28.7313 278.164 27.2217C277.671 32.4472 277.425 38.4855 277.425 45.3368C277.425 52.6525 277.707 65.4259 278.27 83.6572C278.762 99.7982 279.008 112.63 279.008 122.152V126.332Z" fill="#B83A48"/>
</svg>
