<svg width="771" height="927" viewBox="0 0 771 927" fill="none" xmlns="http://www.w3.org/2000/svg">
<path d="M750.665 6.98438H17.4587C11.6739 6.98438 6.98438 11.6739 6.98438 17.4587V907.781C6.98438 913.566 11.6739 918.255 17.4587 918.255H750.665C756.45 918.255 761.139 913.566 761.139 907.781V17.4587C761.139 11.6739 756.45 6.98438 750.665 6.98438Z" fill="#BABFFC" fill-opacity="0.15" stroke="#BABFFC" stroke-width="13.9658"/>
<path d="M71.4961 85.2246H696.465" stroke="#BABFFC" stroke-width="3.49146" stroke-linecap="round"/>
<path d="M71.4961 85.2246H696.465" stroke="black" stroke-opacity="0.04" stroke-width="3.49146" stroke-linecap="round"/>
<path d="M71.4961 155.051H696.465" stroke="#BABFFC" stroke-width="3.49146" stroke-linecap="round"/>
<path d="M71.4961 155.051H696.465" stroke="black" stroke-opacity="0.04" stroke-width="3.49146" stroke-linecap="round"/>
<path d="M71.4961 224.883H696.465" stroke="#BABFFC" stroke-width="3.49146" stroke-linecap="round"/>
<path d="M71.4961 224.883H696.465" stroke="black" stroke-opacity="0.04" stroke-width="3.49146" stroke-linecap="round"/>
<path d="M71.4961 294.709H696.465" stroke="#BABFFC" stroke-width="3.49146" stroke-linecap="round"/>
<path d="M71.4961 294.709H696.465" stroke="black" stroke-opacity="0.04" stroke-width="3.49146" stroke-linecap="round"/>
<path d="M71.4961 364.541H696.465" stroke="#BABFFC" stroke-width="3.49146" stroke-linecap="round"/>
<path d="M71.4961 364.541H696.465" stroke="black" stroke-opacity="0.04" stroke-width="3.49146" stroke-linecap="round"/>
<path d="M71.4961 434.367H696.465" stroke="#BABFFC" stroke-width="3.49146" stroke-linecap="round"/>
<path d="M71.4961 434.367H696.465" stroke="black" stroke-opacity="0.04" stroke-width="3.49146" stroke-linecap="round"/>
<path d="M71.4961 504.199H696.465" stroke="#BABFFC" stroke-width="3.49146" stroke-linecap="round"/>
<path d="M71.4961 504.199H696.465" stroke="black" stroke-opacity="0.04" stroke-width="3.49146" stroke-linecap="round"/>
<path d="M71.4961 574.025H696.465" stroke="#BABFFC" stroke-width="3.49146" stroke-linecap="round"/>
<path d="M71.4961 574.025H696.465" stroke="black" stroke-opacity="0.04" stroke-width="3.49146" stroke-linecap="round"/>
<path d="M71.4961 643.852H696.465" stroke="#BABFFC" stroke-width="3.49146" stroke-linecap="round"/>
<path d="M71.4961 643.852H696.465" stroke="black" stroke-opacity="0.04" stroke-width="3.49146" stroke-linecap="round"/>
<path d="M71.4961 713.684H696.465" stroke="#BABFFC" stroke-width="3.49146" stroke-linecap="round"/>
<path d="M71.4961 713.684H696.465" stroke="black" stroke-opacity="0.04" stroke-width="3.49146" stroke-linecap="round"/>
<path d="M71.4961 783.516H696.465" stroke="#BABFFC" stroke-width="3.49146" stroke-linecap="round"/>
<path d="M71.4961 783.516H696.465" stroke="black" stroke-opacity="0.04" stroke-width="3.49146" stroke-linecap="round"/>
<path d="M71.4961 853.342H696.465" stroke="#BABFFC" stroke-width="3.49146" stroke-linecap="round"/>
<path d="M71.4961 853.342H696.465" stroke="black" stroke-opacity="0.04" stroke-width="3.49146" stroke-linecap="round"/>
</svg>
