<svg width="200" height="227" viewBox="0 0 200 227" fill="none" xmlns="http://www.w3.org/2000/svg">
<rect y="0.575195" width="200" height="226.415" rx="14.1509" fill="#9AE6EA"/>
<rect y="0.575195" width="200" height="226.415" rx="14.1509" fill="black" fill-opacity="0.03"/>
<line x1="10.1411" y1="43.4106" x2="189.858" y2="43.4106" stroke="white" stroke-opacity="0.5" stroke-width="1.41509" stroke-linecap="round"/>
<path d="M83.5102 31.215C83.3404 31.1396 83.1895 30.9886 83.1329 30.8C83.0574 30.6113 83.0952 30.3471 83.0763 30.1396C83.0763 29.1962 83.0952 28.2528 83.0952 27.3094C83.114 26.1773 83.1329 25.0452 83.1518 23.8943C83.2084 20.1396 83.265 16.9698 83.2838 16.8377L83.3216 16.6113L82.7933 16.649C81.4159 16.7245 79.548 16.7245 79.3404 16.649C79.0763 16.5735 78.831 16.2339 78.831 15.9698C78.831 15.6113 79.0385 15.366 79.4725 15.2339C79.7178 15.1773 87.8687 15.0264 88.3027 15.083C88.7367 15.1584 89.2084 15.4981 89.114 16.0075C89.0385 16.4415 88.6612 16.5358 88.2838 16.5735C87.7744 16.6113 87.2461 16.5924 86.7367 16.6113L84.831 16.649L84.7933 17.6301C84.7744 18.1773 84.7178 21.3471 84.6801 24.649C84.6235 29.2905 84.5857 30.7245 84.5102 30.8754C84.3404 31.2905 83.8687 31.3849 83.5102 31.215ZM94.4411 20.1773C95.9317 21.5547 96.5921 24.1962 96.0826 26.7245C96.0826 26.7622 96.0638 26.7811 96.0638 26.8188C95.6109 28.9698 93.9505 31.6301 91.3656 31.0452C90.5355 30.8566 89.8751 30.3283 89.3845 29.6679C87.3845 27.0075 87.7807 22.1396 90.177 20.1207C91.5166 18.9886 93.1581 19.0075 94.4411 20.1773ZM94.6298 26.1773C94.7619 25.4037 94.7241 24.1396 94.5355 23.3849C94.2524 22.2905 93.6298 21.3283 92.9505 21.0075C91.6864 20.366 90.309 21.6301 89.7807 23.8943C89.4034 25.5547 89.5543 27.932 90.9505 29.1018C92.9694 30.8 94.3468 27.7811 94.6298 26.1773ZM110.716 20.6867C111.415 23.7245 110.377 27.2339 107.849 29.1207C106.792 29.9132 105.811 30.4226 104.698 30.7433C103.603 31.0641 102.301 31.215 102.018 31.0641C101.924 31.0264 101.792 30.8943 101.735 30.8C101.603 30.6113 101.584 30.4981 101.547 28.7056C101.528 27.6867 101.547 25.7245 101.566 24.3849C101.716 19.0264 101.83 15.932 101.886 15.7811C102.075 15.2716 103.15 14.9509 104.49 15.0075C105.396 15.0452 106.018 15.215 106.83 15.6113C108.566 16.4603 109.811 17.9886 110.452 19.8188C110.566 20.1018 110.641 20.3849 110.716 20.6867ZM109.245 23.9886C109.566 22.3094 109.301 20.4792 108.377 19.0264C107.509 17.649 106.018 16.5735 104.339 16.5358C104.113 16.5169 103.773 16.5358 103.603 16.5735L103.32 16.6113V17.1018C103.32 17.366 103.264 18.8377 103.226 20.366C103.113 23.6301 103.037 29.2905 103.094 29.4226C103.132 29.5547 103.169 29.5547 103.641 29.4415C104.773 29.1584 105.622 28.7811 106.509 28.1962C107.188 27.7433 107.811 27.1773 108.245 26.4981C108.735 25.7433 109.075 24.8943 109.245 23.9886ZM118.358 20.1773C119.848 21.5547 120.509 24.1962 119.999 26.7245C119.999 26.7622 119.98 26.7811 119.98 26.8188C119.527 28.9698 117.867 31.6301 115.282 31.0452C114.452 30.8566 113.792 30.3283 113.301 29.6679C111.301 27.0075 111.697 22.1396 114.094 20.1207C115.433 18.9886 117.075 19.0075 118.358 20.1773ZM118.546 26.1773C118.678 25.4037 118.641 24.1396 118.452 23.3849C118.169 22.2905 117.546 21.3283 116.867 21.0075C115.603 20.366 114.226 21.6301 113.697 23.8943C113.32 25.5547 113.471 27.932 114.867 29.1018C116.886 30.8 118.263 27.7811 118.546 26.1773Z" fill="white"/>
<circle cx="16.0374" cy="61.8958" r="6.60377" fill="white" fill-opacity="0.4"/>
<circle cx="16.0374" cy="90.1975" r="6.60377" fill="white" fill-opacity="0.4"/>
<circle cx="16.0374" cy="118.5" r="6.60377" fill="white" fill-opacity="0.4"/>
<circle cx="16.0374" cy="146.802" r="6.60377" fill="white" fill-opacity="0.4"/>
<circle cx="16.0374" cy="175.103" r="6.60377" fill="white" fill-opacity="0.4"/>
<circle cx="16.0374" cy="203.405" r="6.60377" fill="white" fill-opacity="0.4"/>
</svg>
