<svg width="600" height="681" viewBox="0 0 600 681" fill="none" xmlns="http://www.w3.org/2000/svg">
<path d="M557.547 1.72559H42.4527C19.0067 1.72559 0 20.7323 0 44.1783V638.518C0 661.964 19.0067 680.971 42.4527 680.971H557.547C580.993 680.971 600 661.964 600 638.518V44.1783C600 20.7323 580.993 1.72559 557.547 1.72559Z" fill="#9AE6EA"/>
<path d="M557.547 1.72559H42.4527C19.0067 1.72559 0 20.7323 0 44.1783V638.518C0 661.964 19.0067 680.971 42.4527 680.971H557.547C580.993 680.971 600 661.964 600 638.518V44.1783C600 20.7323 580.993 1.72559 557.547 1.72559Z" fill="black" fill-opacity="0.03"/>
<path d="M30.4219 130.23H569.573" stroke="white" stroke-opacity="0.5" stroke-width="4.24527" stroke-linecap="round"/>
<path d="M250.531 93.6448C250.021 93.4186 249.569 92.9656 249.399 92.3998C249.172 91.8337 249.286 91.0411 249.229 90.4186C249.229 87.5884 249.286 84.7582 249.286 81.928C249.342 78.5317 249.399 75.1354 249.456 71.6827C249.625 60.4186 249.795 50.9092 249.852 50.5129L249.965 49.8337L248.38 49.9468C244.248 50.1733 238.644 50.1733 238.021 49.9468C237.229 49.7203 236.493 48.7015 236.493 47.9092C236.493 46.8337 237.116 46.0978 238.418 45.7015C239.154 45.5317 263.606 45.079 264.908 45.2488C266.21 45.475 267.625 46.4941 267.342 48.0223C267.116 49.3243 265.984 49.6072 264.852 49.7203C263.323 49.8337 261.738 49.777 260.21 49.8337L254.493 49.9468L254.38 52.8901C254.323 54.5317 254.154 64.0411 254.04 73.9468C253.871 87.8713 253.757 92.1733 253.531 92.626C253.021 93.8713 251.606 94.1545 250.531 93.6448ZM283.323 60.5317C287.795 64.6639 289.776 72.5884 288.248 80.1733C288.248 80.2864 288.192 80.3431 288.192 80.4562C286.833 86.9092 281.852 94.8901 274.097 93.1354C271.607 92.5696 269.625 90.9847 268.154 89.0035C262.154 81.0223 263.342 66.4186 270.531 60.3619C274.55 56.9656 279.474 57.0223 283.323 60.5317ZM283.89 78.5317C284.286 76.2109 284.172 72.4186 283.607 70.1545C282.757 66.8713 280.89 63.9847 278.852 63.0223C275.059 61.0978 270.927 64.8901 269.342 71.6827C268.21 76.6639 268.663 83.7958 272.852 87.3052C278.908 92.3998 283.041 83.3431 283.89 78.5317ZM332.148 62.0599C334.245 71.1733 331.131 81.7015 323.547 87.3619C320.376 89.7394 317.433 91.2676 314.094 92.2297C310.809 93.1921 306.903 93.6448 306.054 93.1921C305.772 93.079 305.376 92.6827 305.205 92.3998C304.809 91.8337 304.752 91.4941 304.641 86.1166C304.584 83.0599 304.641 77.1733 304.698 73.1545C305.148 57.079 305.49 47.7958 305.658 47.3431C306.225 45.8146 309.45 44.8525 313.47 45.0223C316.188 45.1354 318.054 45.6448 320.49 46.8337C325.698 49.3807 329.433 53.9656 331.356 59.4562C331.698 60.3052 331.923 61.1545 332.148 62.0599ZM327.735 71.9656C328.698 66.928 327.903 61.4374 325.131 57.079C322.527 52.9468 318.054 49.7203 313.017 49.6072C312.339 49.5505 311.319 49.6072 310.809 49.7203L309.96 49.8337V51.3052C309.96 52.0978 309.792 56.5129 309.678 61.0978C309.339 70.8901 309.111 87.8713 309.282 88.2676C309.396 88.6639 309.507 88.6639 310.923 88.3243C314.319 87.475 316.866 86.3431 319.527 84.5884C321.564 83.2297 323.433 81.5317 324.735 79.4941C326.205 77.2297 327.225 74.6827 327.735 71.9656ZM355.074 60.5317C359.544 64.6639 361.527 72.5884 359.997 80.1733C359.997 80.2864 359.94 80.3431 359.94 80.4562C358.581 86.9092 353.601 94.8901 345.846 93.1354C343.356 92.5696 341.376 90.9847 339.903 89.0035C333.903 81.0223 335.091 66.4186 342.282 60.3619C346.299 56.9656 351.225 57.0223 355.074 60.5317ZM355.638 78.5317C356.034 76.2109 355.923 72.4186 355.356 70.1545C354.507 66.8713 352.638 63.9847 350.601 63.0223C346.809 61.0978 342.678 64.8901 341.091 71.6827C339.96 76.6639 340.413 83.7958 344.601 87.3052C350.658 92.3998 354.789 83.3431 355.638 78.5317Z" fill="white"/>
<path d="M48.1121 205.499C59.0536 205.499 67.9234 196.629 67.9234 185.687C67.9234 174.746 59.0536 165.876 48.1121 165.876C37.1706 165.876 28.3008 174.746 28.3008 185.687C28.3008 196.629 37.1706 205.499 48.1121 205.499Z" fill="white" fill-opacity="0.4"/>
<path d="M48.1121 290.404C59.0536 290.404 67.9234 281.534 67.9234 270.593C67.9234 259.651 59.0536 250.781 48.1121 250.781C37.1706 250.781 28.3008 259.651 28.3008 270.593C28.3008 281.534 37.1706 290.404 48.1121 290.404Z" fill="white" fill-opacity="0.4"/>
<path d="M48.1121 375.312C59.0536 375.312 67.9234 366.442 67.9234 355.501C67.9234 344.559 59.0536 335.689 48.1121 335.689C37.1706 335.689 28.3008 344.559 28.3008 355.501C28.3008 366.442 37.1706 375.312 48.1121 375.312Z" fill="white" fill-opacity="0.4"/>
<path d="M48.1121 460.217C59.0536 460.217 67.9234 451.348 67.9234 440.406C67.9234 429.465 59.0536 420.595 48.1121 420.595C37.1706 420.595 28.3008 429.465 28.3008 440.406C28.3008 451.348 37.1706 460.217 48.1121 460.217Z" fill="white" fill-opacity="0.4"/>
<path d="M48.1121 545.121C59.0536 545.121 67.9234 536.251 67.9234 525.309C67.9234 514.368 59.0536 505.498 48.1121 505.498C37.1706 505.498 28.3008 514.368 28.3008 525.309C28.3008 536.251 37.1706 545.121 48.1121 545.121Z" fill="white" fill-opacity="0.4"/>
<path d="M48.1121 630.025C59.0536 630.025 67.9234 621.155 67.9234 610.214C67.9234 599.272 59.0536 590.402 48.1121 590.402C37.1706 590.402 28.3008 599.272 28.3008 610.214C28.3008 621.155 37.1706 630.025 48.1121 630.025Z" fill="white" fill-opacity="0.4"/>
</svg>
