<svg width="296" height="68" viewBox="0 0 296 68" fill="none" xmlns="http://www.w3.org/2000/svg">
<path d="M6.63973 67.7187C4.59674 67.7187 2.83749 67.3498 1.362 66.6121C0.453999 66.1013 0 65.5054 0 64.8244C0 64.1434 0.170249 63.6043 0.510748 63.2071C0.851247 62.7531 1.33362 62.5261 1.95787 62.5261C2.52537 62.5261 3.34824 62.7531 4.42649 63.2071C5.61823 63.6611 6.35598 63.8881 6.63973 63.8881C7.71798 63.8881 8.68272 63.4341 9.53397 62.5261C10.442 61.5613 11.1513 60.3128 11.6621 58.7806C12.6836 55.9431 13.1943 53.3894 13.1943 51.1194C13.1943 48.6791 12.7971 46.1254 12.0026 43.4581C11.2648 40.7341 10.2433 38.0953 8.9381 35.5415L7.5761 32.8175C6.15736 29.98 5.05073 27.7384 4.25624 26.0927C3.51849 24.4469 2.86587 22.6593 2.29837 20.7298C1.44712 18.0058 1.0215 15.367 1.0215 12.8132C1.0215 10.7702 1.362 8.84073 2.04299 7.02474C2.78074 5.20875 3.85899 3.6765 5.27773 2.428C6.69648 1.06601 8.45572 0.38501 10.5555 0.38501C11.577 0.38501 12.5701 0.697135 13.5348 1.32139C14.4996 1.88888 15.1806 2.62663 15.5778 3.53463L14.1307 5.32225C12.6552 5.32225 11.5486 5.0385 10.8108 4.471C9.78935 4.5845 8.88135 5.09525 8.08685 6.00325C7.3491 6.85449 6.7816 7.84761 6.38436 8.98261C6.04386 10.0609 5.87361 11.1391 5.87361 12.2173C5.87361 14.3738 6.15736 16.5871 6.72485 18.8571C7.3491 21.0703 8.1436 23.1701 9.10835 25.1563L15.0671 37.0738C16.0318 39.1168 16.7979 41.4151 17.3654 43.9689C17.9329 46.5226 18.2167 49.0764 18.2167 51.6301C18.2167 55.3756 17.3087 58.8941 15.4927 62.1856C14.528 63.8881 13.2795 65.2217 11.7472 66.1864C10.215 67.2079 8.51247 67.7187 6.63973 67.7187Z" fill="#E06E51"/>
<path d="M32.7424 64.4839L32.6573 61.1641C32.6006 60.1993 32.5722 59.1211 32.5722 57.9293L32.6573 55.0351C32.4871 54.4108 32.0614 48.1967 31.3804 36.3928C30.6994 24.5888 30.3022 17.0127 30.1887 13.6645C26.8972 13.551 24.7975 13.2105 23.8895 12.643C23.2652 12.189 22.9531 11.6782 22.9531 11.1107C22.9531 10.6567 23.2368 10.2595 23.8043 9.91898C24.4286 9.52173 25.0528 9.32311 25.6771 9.32311C27.2661 9.32311 29.1956 9.43661 31.4656 9.66361C33.6221 9.94736 35.5515 10.0892 37.254 10.0892H38.616C40.3753 10.0892 41.2549 10.7702 41.2549 12.1322C41.2549 12.8132 40.9712 13.3807 40.4037 13.8347C39.8362 14.232 39.1835 14.4306 38.4458 14.4306C37.935 14.4306 37.1973 14.3455 36.2325 14.1752L34.5301 13.8347L34.3598 14.686C34.3598 19.7367 34.8422 27.7952 35.8069 38.8614C36.7149 49.2466 37.1689 57.3051 37.1689 63.0368C37.1689 63.7178 36.8568 64.3137 36.2325 64.8244C35.665 65.3352 35.0124 65.5906 34.2747 65.5906L32.7424 64.4839Z" fill="#E06E51"/>
<path d="M66.525 66.6121C65.2197 66.6121 64.255 66.4134 63.6307 66.0162C63.0065 65.6189 62.6944 64.8812 62.6944 63.8029C62.6944 62.1005 62.4106 59.2062 61.8431 55.1202L61.5026 53.3326L53.0753 52.0557C52.7348 53.361 52.2524 55.9998 51.6282 59.9723C51.2877 62.7531 50.7485 64.5974 50.0108 65.5054C49.6135 66.0162 49.046 66.2716 48.3083 66.2716C47.6273 66.2716 47.003 66.0729 46.4355 65.6757C45.868 65.2217 45.5843 64.6826 45.5843 64.0583L45.7545 63.6327L45.8397 63.2922C49.5852 48.7075 52.4226 34.3214 54.3521 20.134C54.3521 19.907 54.3805 19.5381 54.4373 19.0273C54.494 18.4598 54.5508 17.6653 54.6075 16.6438C54.7778 14.5441 54.948 12.87 55.1183 11.6215C55.3453 10.373 55.6858 9.43661 56.1398 8.81236H59.034C59.8285 8.81236 60.5095 9.01099 61.077 9.40823C61.6445 9.74873 61.9282 10.2595 61.9282 10.9405C61.9282 15.2535 62.5241 21.6662 63.7159 30.1787C64.8509 38.9181 65.4184 45.0471 65.4184 48.5656C65.4184 48.9061 65.5602 49.7857 65.844 51.2045C66.1277 52.5097 66.2696 53.361 66.2696 53.7582C66.2696 54.1555 66.5534 55.858 67.1209 58.8657C67.6316 61.5897 67.887 63.3489 67.887 64.1434V64.2286C67.887 65.4771 67.433 66.2716 66.525 66.6121ZM60.9068 50.2681C60.7365 49.4169 60.6514 48.367 60.6514 47.1185C60.6514 42.011 60.1974 35.4848 59.2894 27.5398L58.4381 18.6868C55.9979 32.023 54.3238 42.0961 53.4158 48.9061C54.267 49.4736 56.764 49.9276 60.9068 50.2681Z" fill="#E06E51"/>
<path d="M82.1733 67.0377C81.2086 67.0377 80.4141 66.4134 79.7898 65.1649C80.4141 63.9732 80.7262 59.1495 80.7262 50.6937C80.7262 48.7075 80.5843 46.551 80.3006 44.2243L80.0452 41.7556C79.8749 40.2234 79.7898 39.06 79.7898 38.2655V36.0523C79.2223 34.6335 78.1724 31.9947 76.6402 28.1357C75.1647 24.2767 73.973 21.0419 73.065 18.4315C71.9867 15.4237 71.4476 13.3807 71.4476 12.3025V11.8769L73.4055 10.4297C74.3702 10.5432 75.3917 11.7917 76.4699 14.1752C77.3779 16.275 78.3711 19.2827 79.4493 23.1984C80.5843 27.1142 81.1518 29.1855 81.1518 29.4125C81.3788 28.7883 81.8328 26.6602 82.5138 23.0282C83.1948 19.3962 83.9609 16.1898 84.8122 13.4091C85.7769 10.6284 86.77 9.23799 87.7915 9.23799C88.359 9.23799 88.8414 9.40823 89.2387 9.74873C89.6927 10.0892 89.9197 10.5149 89.9197 11.0256C89.9197 13.9198 89.1252 18.0058 87.5362 23.2836C85.8337 29.0153 84.9824 33.158 84.9824 35.7118V61.3343C84.9824 65.1366 84.046 67.0377 82.1733 67.0377Z" fill="#E06E51"/>
<path d="M117.655 66.2716C117.031 66.2716 116.52 66.0162 116.123 65.5054C115.782 64.9379 115.612 64.2569 115.612 63.4624L115.782 49.1615C115.953 42.238 116.038 36.8751 116.038 33.0729C116.038 19.8502 115.3 9.72036 113.824 2.68338C114.676 1.37813 115.754 0.725509 117.059 0.725509C119.159 0.725509 121.06 1.20788 122.763 2.17263C124.522 3.08063 125.969 4.32912 127.104 5.91812C129.317 9.20961 130.424 12.8983 130.424 16.9843C130.424 21.2406 129.516 25.0428 127.7 28.391C125.884 31.7393 123.245 34.3498 119.783 36.2225L119.953 44.8201L120.124 49.3317C120.18 50.2965 120.209 51.6869 120.209 53.5029C120.379 57.3051 120.464 60.398 120.464 62.7814C120.464 63.8597 120.237 64.7109 119.783 65.3352C119.329 65.9594 118.62 66.2716 117.655 66.2716ZM119.613 32.1365C121.826 30.0368 123.444 27.8519 124.465 25.5819C125.543 23.2552 126.082 20.6447 126.082 17.7505V17.6653C126.082 16.3601 125.94 14.7143 125.657 12.7281C125.486 12.0471 125.174 11.3661 124.72 10.6851C124.266 10.0041 124.011 9.60686 123.954 9.49336C123.557 8.92586 122.507 8.04624 120.805 6.85449L118.591 5.23712C118.591 8.13136 118.762 12.6146 119.102 18.6868L119.613 32.1365Z" fill="#E06E51"/>
<path d="M149.329 67.4633C147.853 67.4633 146.491 66.9809 145.243 66.0162C143.994 65.1082 142.973 63.8597 142.178 62.2707C140.533 58.809 139.511 55.0351 139.114 50.9491C138.603 47.0901 138.348 43.373 138.348 39.7978C138.348 39.1168 138.376 38.5493 138.433 38.0953V36.563C138.433 36.2793 138.404 36.1374 138.348 36.1374V34.6052L138.433 28.6464C138.49 26.8304 138.717 23.9362 139.114 19.9637C139.398 17.2397 140.05 14.6008 141.072 12.0471C141.469 10.9121 141.98 10.0609 142.604 9.49336C143.228 8.86911 143.938 8.55699 144.732 8.55699C147.002 8.55699 149.045 8.98261 150.861 9.83386C152.677 10.6284 154.209 11.7634 155.458 13.2388C156.593 14.6576 157.557 16.4168 158.352 18.5166C159.146 20.5596 159.714 22.7444 160.054 25.0712C160.395 27.4547 160.565 29.98 160.565 32.6473V33.3283C160.565 35.0875 160.594 36.6765 160.65 38.0953L160.735 42.9474C160.735 59.2913 156.933 67.4633 149.329 67.4633ZM148.988 63.8881C150.01 63.8881 150.946 63.4908 151.797 62.6963C152.649 61.8451 153.301 60.7101 153.755 59.2913C154.833 56.3971 155.486 53.2759 155.713 49.9276C155.997 47.0334 156.139 44.5364 156.139 42.4366C156.139 39.8829 155.94 36.5347 155.543 32.3919C155.202 28.0222 155.032 24.7591 155.032 22.6026V21.0703C154.919 18.9138 154.181 17.0411 152.819 15.4521C151.514 13.8631 149.896 13.0686 147.967 13.0686C146.037 13.0686 144.76 14.1752 144.136 16.3885C143.569 18.1477 143.285 20.4177 143.285 23.1984C143.285 24.2767 143.313 25.1847 143.37 25.9224V28.2208L143.2 32.1365C143.086 33.3283 143.03 34.6335 143.03 36.0523C143.03 39.1168 143.115 42.1529 143.285 45.1606C143.512 49.4169 144.079 53.5596 144.987 57.5888C145.895 61.7883 147.229 63.8881 148.988 63.8881Z" fill="#E06E51"/>
<path d="M171.576 67.0377C170.555 66.8674 169.675 66.4986 168.937 65.9311C168.256 65.3636 167.859 64.6258 167.746 63.7178L168.682 62.2707C169.022 62.2707 169.562 62.3842 170.299 62.6112C171.151 62.7814 171.803 62.8666 172.257 62.8666C173.279 62.8666 174.187 62.4126 174.981 61.5046C175.832 60.5966 176.457 59.4048 176.854 57.9293C177.592 55.2053 177.961 52.7651 177.961 50.6086C177.961 46.8631 176.769 42.919 174.385 38.7763L173.449 37.1589C172.371 35.2862 171.463 33.612 170.725 32.1365C169.987 30.661 169.363 29.072 168.852 27.3696C168.171 25.1563 167.831 22.9431 167.831 20.7298C167.831 18.2328 168.398 15.6223 169.533 12.8983C170.101 11.5931 170.895 10.5432 171.917 9.74873C172.995 8.89749 174.187 8.47186 175.492 8.47186C176.513 8.47186 177.45 8.81236 178.301 9.49336C179.209 10.1176 179.663 10.8837 179.663 11.7917C179.663 12.3025 179.464 12.6997 179.067 12.9835C178.67 13.2672 178.188 13.4091 177.62 13.4091C176.996 13.4091 176.4 13.2388 175.832 12.8983C174.584 12.9551 173.591 14.0617 172.853 16.2182C172.229 18.2045 171.917 19.8502 171.917 21.1554C171.917 22.8012 172.172 24.4753 172.683 26.1778C173.194 27.8236 173.846 29.3274 174.641 30.6894L176.513 34.0944L179.493 39.7126C180.287 41.3016 180.912 43.146 181.366 45.2458C181.876 47.3455 182.132 49.4736 182.132 51.6301C182.132 55.0918 181.337 58.3833 179.748 61.5046C178.954 63.0936 177.819 64.3704 176.343 65.3352C174.924 66.2999 173.335 66.7823 171.576 66.7823V67.0377Z" fill="#E06E51"/>
<path d="M195.332 65.7608C190.395 65.7608 187.926 64.9096 187.926 63.2071C187.926 61.8451 188.806 61.1641 190.565 61.1641H191.501L192.353 61.2492C192.807 61.2492 193.119 61.1073 193.289 60.8236C193.459 60.5398 193.544 60.0291 193.544 59.2913C193.544 58.3266 193.488 56.8227 193.374 54.7797C193.204 53.4177 193.005 50.9775 192.778 47.459C192.268 38.7763 192.012 32.2217 192.012 27.7952C192.012 26.2062 192.041 24.7591 192.097 23.4538L192.182 19.1125C192.182 17.2397 192.097 15.6791 191.927 14.4306C191.019 14.6576 190.366 14.7711 189.969 14.7711C188.607 14.7711 187.926 14.0901 187.926 12.7281C187.926 12.0471 188.352 11.4512 189.203 10.9405C190.054 10.4297 191.133 10.0609 192.438 9.83386C194.708 9.37986 196.722 9.15286 198.482 9.15286C199.163 9.15286 199.73 9.40824 200.184 9.91898C200.695 10.373 200.95 10.9121 200.95 11.5364C200.95 12.1606 200.752 12.6997 200.354 13.1537C200.014 13.6077 199.56 13.8347 198.992 13.8347C198.652 13.8347 198.368 13.8063 198.141 13.7496H197.46C196.893 13.7496 196.467 13.8915 196.183 14.1752C195.956 14.4022 195.843 14.8562 195.843 15.5372C195.843 21.0419 196.183 29.3274 196.864 40.3936C196.978 42.4366 197.205 45.4444 197.545 49.4169C197.829 52.0274 197.971 54.6946 197.971 57.4186V60.6533C198.311 60.5966 198.879 60.5682 199.673 60.5682C202.057 60.5682 203.249 61.5613 203.249 63.5476V64.0583L201.12 65.5054C201.064 65.5054 200.865 65.5338 200.525 65.5906C200.241 65.5906 199.673 65.5906 198.822 65.5906C197.006 65.7041 195.843 65.7608 195.332 65.7608Z" fill="#E06E51"/>
<path d="M215.046 64.4839L214.961 61.1641C214.904 60.1993 214.875 59.1211 214.875 57.9293L214.961 55.0351C214.79 54.4108 214.365 48.1967 213.684 36.3928C213.003 24.5888 212.605 17.0127 212.492 13.6645C209.2 13.551 207.101 13.2105 206.193 12.643C205.568 12.189 205.256 11.6782 205.256 11.1107C205.256 10.6567 205.54 10.2595 206.108 9.91898C206.732 9.52173 207.356 9.32311 207.98 9.32311C209.569 9.32311 211.499 9.43661 213.769 9.66361C215.925 9.94736 217.855 10.0892 219.557 10.0892H220.919C222.679 10.0892 223.558 10.7702 223.558 12.1322C223.558 12.8132 223.274 13.3807 222.707 13.8347C222.139 14.232 221.487 14.4306 220.749 14.4306C220.238 14.4306 219.501 14.3455 218.536 14.1752L216.833 13.8347L216.663 14.686C216.663 19.7367 217.145 27.7952 218.11 38.8614C219.018 49.2466 219.472 57.3051 219.472 63.0368C219.472 63.7178 219.16 64.3137 218.536 64.8244C217.968 65.3352 217.316 65.5906 216.578 65.5906L215.046 64.4839Z" fill="#E06E51"/>
<path d="M236.315 65.7608C231.378 65.7608 228.909 64.9096 228.909 63.2071C228.909 61.8451 229.789 61.1641 231.548 61.1641H232.484L233.336 61.2492C233.79 61.2492 234.102 61.1073 234.272 60.8236C234.442 60.5398 234.527 60.0291 234.527 59.2913C234.527 58.3266 234.471 56.8227 234.357 54.7797C234.187 53.4177 233.988 50.9775 233.761 47.459C233.25 38.7763 232.995 32.2217 232.995 27.7952C232.995 26.2062 233.023 24.7591 233.08 23.4538L233.165 19.1125C233.165 17.2397 233.08 15.6791 232.91 14.4306C232.002 14.6576 231.349 14.7711 230.952 14.7711C229.59 14.7711 228.909 14.0901 228.909 12.7281C228.909 12.0471 229.335 11.4512 230.186 10.9405C231.037 10.4297 232.115 10.0609 233.421 9.83386C235.691 9.37986 237.705 9.15286 239.465 9.15286C240.146 9.15286 240.713 9.40824 241.167 9.91898C241.678 10.373 241.933 10.9121 241.933 11.5364C241.933 12.1606 241.735 12.6997 241.337 13.1537C240.997 13.6077 240.543 13.8347 239.975 13.8347C239.635 13.8347 239.351 13.8063 239.124 13.7496H238.443C237.876 13.7496 237.45 13.8915 237.166 14.1752C236.939 14.4022 236.826 14.8562 236.826 15.5372C236.826 21.0419 237.166 29.3274 237.847 40.3936C237.961 42.4366 238.188 45.4444 238.528 49.4169C238.812 52.0274 238.954 54.6946 238.954 57.4186V60.6533C239.294 60.5966 239.862 60.5682 240.656 60.5682C243.04 60.5682 244.232 61.5613 244.232 63.5476V64.0583L242.103 65.5054C242.047 65.5054 241.848 65.5338 241.508 65.5906C241.224 65.5906 240.656 65.5906 239.805 65.5906C237.989 65.7041 236.826 65.7608 236.315 65.7608Z" fill="#E06E51"/>
<path d="M257.816 65.5906C257.816 59.0643 257.192 52.3111 255.943 45.3309C254.752 38.3506 252.851 29.8098 250.24 19.7083C250.127 19.1408 249.871 18.2612 249.474 17.0695C248.453 13.8915 247.942 11.8769 247.942 11.0256C247.942 10.5149 248.14 10.0609 248.538 9.66361C248.992 9.26636 249.474 9.06773 249.985 9.06773C250.836 9.06773 251.63 9.77711 252.368 11.1959C253.106 12.5578 253.787 14.4022 254.411 16.729C255.035 18.999 255.716 21.8364 256.454 25.2414C257.135 28.4762 257.958 33.4418 258.923 40.1383L259.434 43.4581L260.455 51.0342C260.682 53.134 260.881 54.6378 261.051 55.5458C262.243 49.3034 263.775 40.2801 265.648 28.4762C267.18 18.3747 268.258 11.4796 268.882 7.79086H270.755C271.266 7.79086 271.72 7.98949 272.117 8.38674C272.514 8.72724 272.713 9.15286 272.713 9.66361C272.713 11.7066 272.458 13.9198 271.947 16.3033C271.493 18.6301 270.784 21.4392 269.819 24.7307C269.024 27.5682 268.485 29.6963 268.201 31.115C267.974 32.5338 267.747 34.7754 267.52 37.8399C267.066 44.7066 266.357 50.864 265.392 56.312C264.768 59.6035 263.945 62.1856 262.924 64.0583C261.902 65.9311 260.739 66.8674 259.434 66.8674L257.816 65.5906Z" fill="#E06E51"/>
<path d="M285.104 66.9526C284.366 66.9526 283.685 66.6972 283.061 66.1864C282.494 65.6757 282.181 65.0514 282.125 64.3137V60.398C282.068 59.8872 282.04 59.2913 282.04 58.6103C282.04 57.4186 281.954 55.6026 281.784 53.1623L281.614 47.7144C281.614 44.9336 281.699 40.7909 281.869 35.2862C282.096 30.3489 282.21 26.2062 282.21 22.8579C282.21 22.0634 282.125 20.8717 281.954 19.2827C281.784 17.637 281.699 16.4452 281.699 15.7075C281.699 11.6782 282.891 9.66361 285.274 9.66361C287.147 9.66361 289.304 10.0325 291.744 10.7702C294.241 11.508 295.489 12.3876 295.489 13.4091C295.489 13.9766 295.234 14.5157 294.723 15.0265C294.269 15.4805 293.702 15.8493 293.021 16.1331C290.637 15.2818 288.481 14.7143 286.551 14.4306C286.608 15.2818 286.636 16.502 286.636 18.091C286.636 20.361 286.608 22.4039 286.551 24.2199C286.381 26.9439 286.296 28.9869 286.296 30.3489L286.551 31.7109L287.913 31.6258C288.367 31.569 288.935 31.5407 289.616 31.5407C292.34 31.5407 293.702 32.3352 293.702 33.9242C293.702 34.5484 293.446 35.0875 292.936 35.5415C292.425 35.9388 291.772 36.1374 290.978 36.1374C289.956 36.1374 289.162 36.0807 288.594 35.9672H286.466C286.58 37.4426 286.636 39.5991 286.636 42.4366C286.636 45.2741 286.608 47.8279 286.551 50.0979C286.381 53.5596 286.296 56.1417 286.296 57.8442C286.296 61.0222 286.353 62.6112 286.466 62.6112L289.275 62.5261C290.24 62.4693 291.403 62.4409 292.765 62.4409C294.922 62.4409 296 63.1219 296 64.4839C296 65.2784 295.631 65.8743 294.893 66.2716C294.212 66.7256 293.361 66.9526 292.34 66.9526H285.104Z" fill="#E06E51"/>
</svg>
