<svg width="888" height="204" viewBox="0 0 888 204" fill="none" xmlns="http://www.w3.org/2000/svg">
<g clip-path="url(#clip0_1105_1812)">
<path d="M19.9192 203.155C13.7902 203.155 8.51247 202.049 4.086 199.836C1.362 198.303 0 196.515 0 194.472C0 192.429 0.510747 190.812 1.53224 189.621C2.55374 188.259 4.00086 187.578 5.87361 187.578C7.57611 187.578 10.0447 188.259 13.2795 189.621C16.8547 190.983 19.0679 191.664 19.9192 191.664C23.1539 191.664 26.0482 190.302 28.6019 187.578C31.326 184.683 33.4539 180.938 34.9863 176.341C38.0508 167.829 39.5829 160.167 39.5829 153.357C39.5829 146.037 38.3913 138.375 36.0078 130.374C33.7944 122.202 30.7299 114.285 26.8143 106.624L22.7283 98.4518C18.4721 89.9393 15.1522 83.2145 12.7687 78.2774C10.5555 73.34 8.59761 67.9772 6.89511 62.1887C4.34136 54.0167 3.0645 46.1003 3.0645 38.4389C3.0645 32.3099 4.086 26.5215 6.12897 21.0735C8.34222 15.6255 11.577 11.0288 15.8332 7.28327C20.0894 3.1973 25.3672 1.1543 31.6665 1.1543C34.731 1.1543 37.7103 2.09067 40.6044 3.96344C43.4988 5.66591 45.5418 7.87916 46.7334 10.6032L42.3921 15.966C37.9656 15.966 34.6458 15.1148 32.4324 13.4123C29.368 13.7528 26.6441 15.285 24.2606 18.009C22.0473 20.5627 20.3448 23.5421 19.1531 26.9471C18.1316 30.182 17.6208 33.4166 17.6208 36.6512C17.6208 43.1207 18.4721 49.7606 20.1746 56.5706C22.0473 63.2102 24.4308 69.5096 27.3251 75.4682L45.2013 111.221C48.0954 117.35 50.3937 124.245 52.0962 131.906C53.7987 139.567 54.6501 147.228 54.6501 154.89C54.6501 166.126 51.9261 176.682 46.4781 186.556C43.584 191.664 39.8385 195.664 35.2416 198.558C30.645 201.623 25.5374 203.155 19.9192 203.155Z" fill="#E06E51"/>
<path d="M98.2273 193.452L97.972 183.493C97.8019 180.598 97.7167 177.364 97.7167 173.788L97.972 165.106C97.4614 163.233 96.1843 144.59 94.1413 109.179C92.0983 73.7668 90.9067 51.0385 90.5662 40.9939C80.6917 40.6534 74.3926 39.6319 71.6686 37.9294C69.7957 36.5674 68.8594 35.035 68.8594 33.3325C68.8594 31.9705 69.7105 30.7789 71.413 29.7573C73.2859 28.5656 75.1585 27.9697 77.0314 27.9697C81.7984 27.9697 87.5869 28.3102 94.3969 28.9912C100.866 29.8425 106.655 30.268 111.762 30.268H115.848C121.126 30.268 123.765 32.311 123.765 36.397C123.765 38.44 122.914 40.1425 121.211 41.5045C119.509 42.6964 117.551 43.2922 115.337 43.2922C113.805 43.2922 111.592 43.0369 108.698 42.526L103.59 41.5045L103.079 44.0584C103.079 59.2105 104.527 83.386 107.421 116.585C110.145 147.74 111.507 171.916 111.507 189.111C111.507 191.154 110.57 192.942 108.698 194.474C106.995 196.006 105.037 196.772 102.824 196.772L98.2273 193.452Z" fill="#E06E51"/>
<path d="M199.574 199.837C195.658 199.837 192.764 199.241 190.891 198.049C189.019 196.857 188.082 194.644 188.082 191.409C188.082 186.302 187.231 177.619 185.528 165.361L184.507 159.998L159.225 156.168C158.203 160.083 156.756 168 154.884 179.917C153.862 188.26 152.245 193.793 150.031 196.517C148.84 198.049 147.137 198.815 144.924 198.815C142.881 198.815 141.008 198.219 139.306 197.028C137.603 195.666 136.752 194.048 136.752 192.175L137.263 190.899L137.518 189.877C148.755 146.123 157.267 102.965 163.055 60.4024C163.055 59.7214 163.141 58.6147 163.311 57.0823C163.481 55.3798 163.651 52.9963 163.822 49.9318C164.332 43.6327 164.843 38.6104 165.354 34.8649C166.035 31.1194 167.056 28.3103 168.418 26.4375H177.101C179.485 26.4375 181.528 27.0334 183.23 28.2251C184.933 29.2466 185.784 30.7789 185.784 32.8219C185.784 45.7609 187.571 64.999 191.147 90.5365C194.552 116.755 196.254 135.142 196.254 145.697C196.254 146.719 196.68 149.358 197.531 153.614C198.382 157.53 198.808 160.083 198.808 161.275C198.808 162.467 199.659 167.574 201.362 176.598C202.894 184.77 203.66 190.047 203.66 192.431V192.686C203.66 196.432 202.298 198.815 199.574 199.837ZM182.719 150.805C182.209 148.251 181.953 145.101 181.953 141.356C181.953 126.033 180.591 106.455 177.867 82.6198L175.313 56.0608C167.993 96.0694 162.97 126.289 160.246 146.719C162.8 148.421 170.291 149.783 182.719 150.805Z" fill="#E06E51"/>
<path d="M246.519 201.114C243.625 201.114 241.241 199.241 239.368 195.496C241.241 191.92 242.178 177.449 242.178 152.082C242.178 146.123 241.752 139.654 240.901 132.674L240.135 125.268C239.624 120.671 239.368 117.181 239.368 114.797V108.158C237.666 103.901 234.516 95.985 229.92 84.408C225.493 72.831 221.918 63.1266 219.194 55.2954C215.959 46.272 214.342 40.143 214.342 36.9084V35.6316L220.215 31.29C223.11 31.6305 226.174 35.376 229.409 42.5265C232.133 48.8259 235.112 57.849 238.347 69.5961C241.752 81.3435 243.454 87.5574 243.454 88.2384C244.135 86.3658 245.497 79.9815 247.54 69.0855C249.583 58.1895 251.882 48.5703 254.436 40.2282C257.33 31.8861 260.309 27.7148 263.373 27.7148C265.076 27.7148 266.523 28.2256 267.715 29.2471C269.077 30.2685 269.758 31.5456 269.758 33.0777C269.758 41.7603 267.375 54.0183 262.608 69.8517C257.5 87.0468 254.946 99.4749 254.946 107.136V184.004C254.946 195.411 252.137 201.114 246.519 201.114Z" fill="#E06E51"/>
<path d="M352.965 198.815C351.093 198.815 349.56 198.049 348.369 196.516C347.346 194.814 346.836 192.771 346.836 190.387L347.346 147.485C347.859 126.714 348.114 110.626 348.114 99.2189C348.114 59.5508 345.9 29.1613 341.472 8.05037C344.028 4.13462 347.262 2.17676 351.177 2.17676C357.477 2.17676 363.18 3.62387 368.289 6.51812C373.566 9.24212 377.907 12.9876 381.312 17.7546C387.951 27.6291 391.272 38.6951 391.272 50.9531C391.272 63.722 388.548 75.1286 383.1 85.1732C377.652 95.2181 369.735 103.05 359.349 108.668L359.859 134.461L360.372 147.995C360.54 150.89 360.627 155.061 360.627 160.509C361.137 171.916 361.392 181.194 361.392 188.344C361.392 191.579 360.711 194.133 359.349 196.006C357.987 197.878 355.86 198.815 352.965 198.815ZM358.839 96.4097C365.478 90.1106 370.332 83.5559 373.395 76.7459C376.629 69.7658 378.246 61.9343 378.246 53.2517V52.9961C378.246 49.0805 377.82 44.1431 376.971 38.1845C376.458 36.1415 375.522 34.0985 374.16 32.0555C372.798 30.0125 372.033 28.8208 371.862 28.4803C370.671 26.7778 367.521 24.139 362.415 20.5637L355.773 15.7116C355.773 24.3943 356.286 37.844 357.306 56.0606L358.839 96.4097Z" fill="#E06E51"/>
<path d="M447.986 202.389C443.558 202.389 439.472 200.942 435.728 198.048C431.981 195.324 428.918 191.578 426.533 186.811C421.598 176.426 418.532 165.104 417.341 152.846C415.808 141.269 415.043 130.118 415.043 119.392C415.043 117.349 415.127 115.647 415.298 114.285V109.688C415.298 108.837 415.211 108.411 415.043 108.411V103.815L415.298 85.9382C415.469 80.4902 416.15 71.8076 417.341 59.8901C418.193 51.7181 420.149 43.8014 423.215 36.1403C424.406 32.7353 425.939 30.1817 427.811 28.479C429.683 26.6063 431.813 25.6699 434.195 25.6699C441.005 25.6699 447.134 26.9468 452.582 29.5005C458.03 31.8842 462.626 35.2892 466.373 39.7154C469.778 43.9718 472.67 49.2494 475.055 55.5488C477.437 61.6778 479.141 68.2322 480.161 75.2126C481.184 82.3631 481.694 89.939 481.694 97.9409V99.9839C481.694 105.261 481.781 110.028 481.949 114.285L482.204 128.841C482.204 177.873 470.798 202.389 447.986 202.389ZM446.963 191.663C450.029 191.663 452.837 190.471 455.39 188.088C457.946 185.534 459.902 182.129 461.264 177.873C464.498 169.19 466.457 159.827 467.138 149.782C467.99 141.099 468.416 133.608 468.416 127.309C468.416 119.648 467.819 109.603 466.628 97.1747C465.605 84.0656 465.095 74.2763 465.095 67.8068V63.2099C464.756 56.7404 462.542 51.1223 458.456 46.3553C454.541 41.5883 449.687 39.2048 443.9 39.2048C438.11 39.2048 434.279 42.5246 432.407 49.1645C430.706 54.4421 429.854 61.2521 429.854 69.5942C429.854 72.8291 429.938 75.5531 430.109 77.7662V84.6614L429.599 96.4085C429.257 99.9839 429.089 103.899 429.089 108.156C429.089 117.349 429.344 126.458 429.854 135.481C430.535 148.25 432.236 160.678 434.96 172.765C437.684 185.364 441.686 191.663 446.963 191.663Z" fill="#E06E51"/>
<path d="M514.728 201.114C511.665 200.603 509.025 199.496 506.811 197.794C504.768 196.091 503.577 193.878 503.238 191.154L506.046 186.813C507.066 186.813 508.686 187.153 510.897 187.834C513.453 188.345 515.409 188.6 516.771 188.6C519.837 188.6 522.561 187.238 524.943 184.514C527.496 181.79 529.371 178.215 530.562 173.788C532.776 165.616 533.883 158.296 533.883 151.826C533.883 140.59 530.307 128.757 523.155 116.329L520.347 111.477C517.113 105.859 514.389 100.836 512.175 96.4099C509.961 91.9834 508.089 87.2164 506.556 82.1092C504.513 75.4693 503.493 68.8297 503.493 62.1898C503.493 54.6988 505.194 46.8673 508.599 38.6953C510.303 34.7797 512.685 31.63 515.751 29.2466C518.985 26.6929 522.561 25.416 526.476 25.416C529.539 25.416 532.35 26.4375 534.903 28.4805C537.627 30.3532 538.989 32.6515 538.989 35.3755C538.989 36.9079 538.392 38.0995 537.201 38.9509C536.01 39.802 534.564 40.2277 532.86 40.2277C530.988 40.2277 529.2 39.7168 527.496 38.6953C523.752 38.8657 520.773 42.1855 518.559 48.655C516.687 54.6139 515.751 59.551 515.751 63.4666C515.751 68.404 516.516 73.4263 518.049 78.5338C519.582 83.4712 521.538 87.9826 523.923 92.0686L529.539 102.284L538.479 119.138C540.861 123.905 542.736 129.438 544.098 135.738C545.628 142.037 546.396 148.421 546.396 154.891C546.396 165.276 544.011 175.15 539.244 184.514C536.862 189.281 533.457 193.112 529.029 196.006C524.772 198.9 520.005 200.347 514.728 200.347V201.114Z" fill="#E06E51"/>
<path d="M585.995 197.284C571.184 197.284 563.777 194.73 563.777 189.623C563.777 185.537 566.417 183.494 571.694 183.494H574.502L577.058 183.749C578.42 183.749 579.356 183.323 579.866 182.472C580.376 181.621 580.631 180.089 580.631 177.875C580.631 174.981 580.463 170.469 580.121 164.34C579.611 160.254 579.014 152.934 578.333 142.378C576.803 116.33 576.035 96.6665 576.035 83.387C576.035 78.62 576.122 74.2787 576.29 70.3628L576.545 57.3389C576.545 51.7205 576.29 47.0387 575.78 43.2932C573.056 43.9742 571.097 44.3147 569.906 44.3147C565.82 44.3147 563.777 42.2717 563.777 38.1857C563.777 36.1427 565.055 34.355 567.608 32.8229C570.161 31.2905 573.398 30.1841 577.313 29.503C584.123 28.141 590.165 27.46 595.445 27.46C597.488 27.46 599.189 28.2261 600.551 29.7583C602.084 31.1204 602.849 32.7377 602.849 34.6106C602.849 36.4832 602.255 38.1005 601.061 39.4625C600.041 40.8245 598.679 41.5055 596.975 41.5055C595.955 41.5055 595.103 41.4203 594.422 41.2502H592.379C590.678 41.2502 589.4 41.6759 588.548 42.527C587.867 43.208 587.528 44.57 587.528 46.613C587.528 63.1271 588.548 87.9836 590.591 121.182C590.933 127.311 591.614 136.335 592.634 148.252C593.486 156.084 593.912 164.085 593.912 172.257V181.961C594.932 181.791 596.636 181.706 599.018 181.706C606.17 181.706 609.746 184.685 609.746 190.644V192.176L603.359 196.518C603.191 196.518 602.594 196.603 601.574 196.773C600.722 196.773 599.018 196.773 596.465 196.773C591.017 197.114 587.528 197.284 585.995 197.284Z" fill="#E06E51"/>
<path d="M645.138 193.452L644.883 183.493C644.712 180.598 644.625 177.364 644.625 173.788L644.883 165.106C644.37 163.233 643.095 144.59 641.052 109.179C639.009 73.7668 637.815 51.0385 637.476 40.9939C627.6 40.6534 621.303 39.6319 618.579 37.9294C616.704 36.5674 615.768 35.035 615.768 33.3325C615.768 31.9705 616.62 30.7789 618.324 29.7573C620.196 28.5656 622.068 27.9697 623.94 27.9697C628.707 27.9697 634.497 28.3102 641.307 28.9912C647.775 29.8425 653.565 30.268 658.671 30.268H662.757C668.037 30.268 670.674 32.311 670.674 36.397C670.674 38.44 669.822 40.1425 668.121 41.5045C666.417 42.6964 664.461 43.2922 662.247 43.2922C660.714 43.2922 658.503 43.0369 655.608 42.526L650.499 41.5045L649.989 44.0584C649.989 59.2105 651.435 83.386 654.33 116.585C657.054 147.74 658.416 171.916 658.416 189.111C658.416 191.154 657.48 192.942 655.608 194.474C653.904 196.006 651.948 196.772 649.734 196.772L645.138 193.452Z" fill="#E06E51"/>
<path d="M708.946 197.284C694.135 197.284 686.728 194.73 686.728 189.623C686.728 185.537 689.368 183.494 694.645 183.494H697.453L700.009 183.749C701.371 183.749 702.307 183.323 702.817 182.472C703.327 181.621 703.582 180.089 703.582 177.875C703.582 174.981 703.414 170.469 703.072 164.34C702.562 160.254 701.965 152.934 701.284 142.378C699.751 116.33 698.986 96.6665 698.986 83.387C698.986 78.62 699.07 74.2787 699.241 70.3628L699.496 57.3389C699.496 51.7205 699.241 47.0387 698.731 43.2932C696.007 43.9742 694.048 44.3147 692.857 44.3147C688.771 44.3147 686.728 42.2717 686.728 38.1857C686.728 36.1427 688.006 34.355 690.559 32.8229C693.112 31.2905 696.346 30.1841 700.264 29.503C707.074 28.141 713.116 27.46 718.396 27.46C720.439 27.46 722.14 28.2261 723.502 29.7583C725.035 31.1204 725.8 32.7377 725.8 34.6106C725.8 36.4832 725.206 38.1005 724.012 39.4625C722.992 40.8245 721.63 41.5055 719.926 41.5055C718.906 41.5055 718.054 41.4203 717.373 41.2502H715.33C713.629 41.2502 712.351 41.6759 711.499 42.527C710.818 43.208 710.479 44.57 710.479 46.613C710.479 63.1271 711.499 87.9836 713.542 121.182C713.884 127.311 714.565 136.335 715.585 148.252C716.437 156.084 716.863 164.085 716.863 172.257V181.961C717.883 181.791 719.587 181.706 721.969 181.706C729.121 181.706 732.697 184.685 732.697 190.644V192.176L726.31 196.518C726.142 196.518 725.545 196.603 724.525 196.773C723.673 196.773 721.969 196.773 719.416 196.773C713.968 197.114 710.479 197.284 708.946 197.284Z" fill="#E06E51"/>
<path d="M773.449 196.772C773.449 177.193 771.577 156.934 767.83 135.993C764.257 115.052 758.554 89.4299 750.721 59.1254C750.382 57.4229 749.614 54.7841 748.423 51.209C745.36 41.675 743.827 35.6312 743.827 33.0773C743.827 31.5452 744.421 30.1832 745.615 28.9913C746.977 27.7995 748.423 27.2037 749.956 27.2037C752.509 27.2037 754.891 29.3318 757.105 33.5882C759.319 37.6739 761.362 43.2071 763.234 50.1875C765.106 56.9975 767.149 65.5097 769.363 75.7247C771.406 85.4291 773.875 100.326 776.77 120.415L778.303 130.375L781.366 153.103C782.047 159.402 782.644 163.914 783.154 166.638C786.73 147.911 791.326 120.841 796.945 85.4291C801.541 55.1246 804.775 34.4393 806.647 23.373H812.266C813.799 23.373 815.161 23.9689 816.352 25.1607C817.543 26.1822 818.14 27.459 818.14 28.9913C818.14 35.1203 817.375 41.7599 815.842 48.9104C814.48 55.8908 812.353 64.3181 809.458 74.1926C807.073 82.7051 805.456 89.0894 804.604 93.3455C803.923 97.6019 803.242 104.327 802.561 113.52C801.199 134.12 799.072 152.592 796.177 168.936C794.305 178.811 791.836 186.557 788.773 192.175C785.707 197.794 782.218 200.603 778.303 200.603L773.449 196.772Z" fill="#E06E51"/>
<path d="M855.313 200.859C853.099 200.859 851.056 200.093 849.184 198.561C847.483 197.028 846.544 195.156 846.376 192.942V181.195C846.205 179.663 846.121 177.875 846.121 175.832C846.121 172.257 845.863 166.809 845.353 159.488L844.843 143.145C844.843 134.802 845.098 122.374 845.608 105.86C846.289 91.0481 846.631 78.62 846.631 68.5751C846.631 66.1916 846.376 62.6165 845.863 57.8495C845.353 52.9124 845.098 49.337 845.098 47.1239C845.098 35.036 848.674 28.9922 855.823 28.9922C861.442 28.9922 867.913 30.0989 875.233 32.312C882.724 34.5254 886.468 37.1642 886.468 40.2287C886.468 41.9312 885.703 43.5485 884.17 45.0809C882.808 46.4429 881.107 47.5493 879.064 48.4007C871.912 45.8468 865.444 44.1443 859.654 43.2932C859.825 45.8468 859.909 49.5074 859.909 54.2744C859.909 61.0844 859.825 67.2131 859.654 72.6611C859.144 80.8331 858.889 86.9621 858.889 91.0481L859.654 95.1341L863.74 94.8788C865.102 94.7084 866.806 94.6235 868.849 94.6235C877.021 94.6235 881.107 97.007 881.107 101.774C881.107 103.647 880.339 105.264 878.809 106.626C877.276 107.818 875.317 108.414 872.935 108.414C869.869 108.414 867.487 108.243 865.783 107.903H859.399C859.741 112.329 859.909 118.799 859.909 127.311C859.909 135.824 859.825 143.485 859.654 150.295C859.144 160.68 858.889 168.426 858.889 173.534C858.889 183.068 859.06 187.835 859.399 187.835L867.826 187.58C870.721 187.409 874.21 187.324 878.296 187.324C884.767 187.324 888.001 189.367 888.001 193.453C888.001 195.837 886.894 197.624 884.68 198.816C882.637 200.178 880.084 200.859 877.021 200.859H855.313Z" fill="#E06E51"/>
</g>
<defs>
<clipPath id="clip0_1105_1812">
<rect width="888" height="204" fill="white"/>
</clipPath>
</defs>
</svg>
