<svg width="888" height="177" viewBox="0 0 888 177" fill="none" xmlns="http://www.w3.org/2000/svg">
<path d="M16.6545 169.263C11.53 169.263 7.11732 168.338 3.41631 166.487C1.13877 165.206 0 163.712 0 162.004C0 160.295 0.427038 158.943 1.28112 157.947C2.1352 156.808 3.34515 156.239 4.91094 156.239C6.33441 156.239 8.39844 156.808 11.103 157.947C14.0923 159.086 15.9428 159.655 16.6545 159.655C19.3591 159.655 21.779 158.516 23.9142 156.239C26.1917 153.819 27.9711 150.687 29.2522 146.844C31.8144 139.726 33.0957 133.321 33.0957 127.627C33.0957 121.506 32.0991 115.1 30.1062 108.41C28.2558 101.577 25.6935 94.9584 22.4196 88.5528L19.0033 81.72C15.4446 74.6028 12.6688 68.9802 10.676 64.8522C8.82549 60.7239 7.18851 56.2401 5.76504 51.4002C3.62982 44.5677 2.56224 37.9485 2.56224 31.5429C2.56224 26.4185 3.41631 21.5788 5.12448 17.0237C6.97497 12.4686 9.67956 8.62525 13.2382 5.49361C16.7969 2.0773 21.2096 0.369141 26.4764 0.369141C29.0387 0.369141 31.5297 1.15205 33.9495 2.71786C36.3696 4.14133 38.0778 5.99182 39.0741 8.26936L35.4444 12.7533C31.7433 12.7533 28.9675 12.0416 27.117 10.6181C24.5548 10.9028 22.2772 12.1839 20.2844 14.4614C18.4339 16.5966 17.0104 19.0877 16.014 21.9346C15.1599 24.6392 14.7328 27.3438 14.7328 30.0483C14.7328 35.4576 15.4446 41.0091 16.8681 46.7028C18.4339 52.2543 20.4267 57.5211 22.8466 62.5032L37.7931 92.3961C40.2129 97.5207 42.1347 103.286 43.5579 109.691C44.9814 116.097 45.6933 122.502 45.6933 128.908C45.6933 138.303 43.4157 147.128 38.8605 155.384C36.4407 159.655 33.309 163 29.4657 165.42C25.6224 167.982 21.352 169.263 16.6545 169.263Z" fill="#186F81"/>
<path d="M156.219 175.672C151.807 175.672 149.601 171.259 149.601 162.433V135.103C149.601 127.985 149.102 118.662 148.106 107.132C146.967 94.1782 146.398 85.2816 146.398 80.4417L146.825 67.2037C147.109 63.3601 147.252 59.0187 147.252 54.1788C146.682 56.0292 144.333 65.8512 140.205 83.6445C136.077 100.868 131.807 116.811 127.394 131.473C123.124 145.565 119.637 152.611 116.932 152.611C114.227 152.611 112.021 151.829 110.313 150.263C108.747 148.555 107.964 146.277 107.964 143.43C107.964 137.167 105.402 123.857 100.277 103.502C95.2951 83.1462 90.7402 66.4917 86.6122 53.5383L85.3309 77.6658C84.1921 98.0215 83.4094 114.961 82.9822 128.484C82.6975 141.58 82.5553 150.547 82.5553 155.387C82.5553 156.526 82.6264 157.594 82.7686 158.59V161.579C82.7686 163.999 82.2706 165.779 81.274 166.917C80.2777 168.198 78.427 168.839 75.7225 168.839C74.299 168.839 72.9469 168.269 71.6656 167.131C70.3846 166.134 69.7441 164.996 69.7441 163.715C69.7441 149.195 70.8115 127.416 72.9469 98.3772C75.082 69.3387 76.1497 47.5596 76.1497 33.0402C75.2956 31.7592 74.8684 30.4068 74.8684 28.9835C74.8684 27.2753 75.6514 25.9942 77.2171 25.1401C78.9253 24.1437 80.9182 23.6455 83.1958 23.6455C85.0462 23.6455 88.4626 30.3357 93.4447 43.7163C98.4268 57.0969 103.409 72.2568 108.391 89.196C113.373 106.135 116.576 118.377 117.999 125.921C119.138 122.078 120.063 118.52 120.775 115.245L122.056 110.121C126.612 90.1923 131.166 72.1857 135.722 56.1006C138.426 46.2786 141.06 38.5917 143.622 33.0402C146.184 27.0618 148.533 24.0725 150.668 24.0725C152.661 24.0725 154.44 24.6419 156.006 25.7807C157.714 26.7771 158.568 28.1294 158.568 29.8376C158.568 40.0866 158.995 55.4598 159.849 75.9579C160.846 95.0322 161.344 109.836 161.344 120.37L161.13 131.687L160.704 143.003C160.704 144.711 160.917 147.273 161.344 150.69L161.985 158.163C162.127 159.444 162.198 160.44 162.198 161.152C162.34 161.864 162.411 162.291 162.411 162.433C163.123 164.284 163.479 165.636 163.479 166.49C163.479 168.91 162.768 171.045 161.344 172.896C159.921 174.746 158.212 175.672 156.219 175.672Z" fill="#186F81"/>
<path d="M200.536 164.353C188.152 164.353 181.96 162.218 181.96 157.947C181.96 154.531 184.166 152.823 188.579 152.823H190.928L193.063 153.036C194.202 153.036 194.985 152.681 195.412 151.969C195.839 151.257 196.052 149.976 196.052 148.125C196.052 145.706 195.91 141.933 195.625 136.809C195.198 133.393 194.7 127.272 194.131 118.446C192.85 96.6673 192.209 80.2261 192.209 69.1231C192.209 65.1376 192.28 61.5076 192.422 58.2337L192.636 47.344C192.636 42.6466 192.422 38.7322 191.996 35.6005C189.718 36.1699 188.081 36.4546 187.085 36.4546C183.668 36.4546 181.96 34.7464 181.96 31.3303C181.96 29.622 183.028 28.1273 185.163 26.8462C187.298 25.5651 190.003 24.6398 193.277 24.0704C198.971 22.9317 204.024 22.3623 208.436 22.3623C210.145 22.3623 211.568 23.0029 212.707 24.284C213.988 25.4228 214.628 26.775 214.628 28.3409C214.628 29.9067 214.13 31.2589 213.134 32.3977C212.28 33.5365 211.141 34.1059 209.718 34.1059C208.864 34.1059 208.152 34.0348 207.582 33.8923H205.874C204.451 33.8923 203.383 34.2484 202.671 34.96C202.102 35.5294 201.817 36.6682 201.817 38.3764C201.817 52.1839 202.671 72.9664 204.38 100.724C204.664 105.848 205.234 113.393 206.088 123.357C206.8 129.905 207.155 136.595 207.155 143.428V151.542C208.01 151.399 209.433 151.328 211.426 151.328C217.404 151.328 220.394 153.819 220.394 158.801V160.082L215.056 163.712C214.913 163.712 214.415 163.784 213.561 163.926C212.849 163.926 211.426 163.926 209.291 163.926C204.735 164.21 201.817 164.353 200.536 164.353Z" fill="#186F81"/>
<path d="M270.908 167.983C265.783 166.275 259.449 165.421 251.905 165.421C249.627 166.844 247.207 167.556 244.645 167.556C242.937 167.556 241.442 166.773 240.161 165.207C239.023 163.784 238.453 162.218 238.453 160.51C238.453 148.553 238.951 132.61 239.948 112.682C240.802 91.472 241.229 75.6002 241.229 65.0666V63.572C240.375 54.6041 239.948 47.9138 239.948 43.5011C239.948 29.9783 242.439 23.2168 247.421 23.2168C248.844 23.2168 250.054 23.7862 251.051 24.925C252.19 25.9214 252.759 27.1313 252.759 28.5548C252.759 30.263 252.545 32.9675 252.118 36.6686C251.691 40.2272 251.478 42.9317 251.478 44.7824C251.478 54.3194 251.549 62.9315 251.691 70.6181C251.834 78.1625 251.905 86.7032 251.905 96.2405C251.193 98.3756 250.837 101.365 250.837 105.208V107.771L250.41 124.639C250.126 129.621 249.983 135.315 249.983 141.72C249.983 151.542 252.332 156.453 257.029 156.453C257.314 156.453 257.741 156.453 258.31 156.453C259.022 156.311 259.947 156.24 261.086 156.24C262.367 156.097 264.004 156.026 265.997 156.026C273.684 156.026 277.527 158.161 277.527 162.432C277.527 163.855 276.887 165.065 275.605 166.062C274.324 167.058 272.758 167.698 270.908 167.983Z" fill="#186F81"/>
<path d="M304.98 167.344C303.132 167.344 301.422 166.704 299.856 165.422C298.433 164.141 297.65 162.576 297.508 160.725V150.903C297.365 149.622 297.294 148.127 297.294 146.419C297.294 143.43 297.081 138.875 296.653 132.754L296.227 119.089C296.227 112.114 296.44 101.723 296.867 87.915C297.436 75.5307 297.721 65.1396 297.721 56.7411C297.721 54.7482 297.508 51.759 297.081 47.7732C296.653 43.6452 296.44 40.656 296.44 38.8053C296.44 28.6988 299.429 23.6455 305.409 23.6455C310.107 23.6455 315.516 24.5708 321.636 26.4213C327.9 28.2718 331.032 30.4782 331.032 33.0402C331.032 34.4637 330.39 35.8161 329.109 37.0971C327.969 38.2359 326.547 39.1611 324.84 39.873C318.861 37.7379 313.452 36.3144 308.61 35.6025C308.754 37.7379 308.826 40.7982 308.826 44.784C308.826 50.4777 308.754 55.6023 308.61 60.1572C308.184 66.99 307.971 72.1143 307.971 75.5307L308.61 78.9471L312.027 78.7336C313.167 78.5914 314.589 78.5199 316.299 78.5199C323.13 78.5199 326.547 80.5128 326.547 84.4986C326.547 86.0643 325.905 87.4167 324.624 88.5555C323.343 89.5518 321.708 90.0501 319.713 90.0501C317.151 90.0501 315.159 89.9076 313.734 89.6229H308.397C308.682 93.324 308.826 98.7333 308.826 105.851C308.826 112.968 308.754 119.373 308.61 125.067C308.184 133.751 307.971 140.227 307.971 144.498C307.971 152.469 308.112 156.455 308.397 156.455L315.444 156.241C317.865 156.099 320.781 156.028 324.198 156.028C329.607 156.028 332.313 157.736 332.313 161.152C332.313 163.145 331.386 164.64 329.535 165.636C327.828 166.775 325.692 167.344 323.13 167.344H304.98Z" fill="#186F81"/>
<path d="M406.789 165.848C404.083 165.848 401.734 165.492 399.742 164.78C397.321 164.069 396.112 162.076 396.112 158.802V34.747C396.112 32.3272 395.686 28.6973 394.831 23.8575C393.835 19.4448 393.337 15.815 393.337 12.9681V12.3275C395.755 8.34178 397.534 5.77954 398.674 4.64077C400.666 4.64077 403.3 4.35607 406.573 3.7867C409.564 3.2173 412.198 2.93262 414.475 2.93262C416.752 2.93262 418.957 3.64435 421.093 5.06782C423.229 6.34894 424.297 7.91473 424.297 9.76525C424.297 14.0356 421.021 16.1708 414.475 16.1708H411.484C410.632 16.0285 409.636 15.9573 408.496 15.9573C407.215 15.9573 406.432 16.0285 406.147 16.1708C406.147 21.0106 406.432 26.8468 407.002 33.6796L407.428 39.658L407.854 51.4015C407.854 54.1063 407.641 58.2343 407.215 63.7858L406.789 75.7429L409.777 75.1024C412.624 74.2483 414.973 73.8211 416.824 73.8211C418.39 73.8211 419.812 74.4616 421.093 75.7429C422.374 76.8817 423.016 78.2338 423.016 79.7998C423.016 81.508 422.446 83.0737 421.306 84.4972C420.31 85.7782 419.029 86.4187 417.463 86.4187L414.901 86.2054H412.126C409.99 86.2054 408.496 86.7034 407.641 87.7V153.677L419.599 153.037C427.714 153.037 431.77 154.887 431.77 158.588V159.443C430.915 161.151 429.349 162.574 427.072 163.713C424.795 164.709 422.587 165.35 420.454 165.635L413.407 165.848H406.789Z" fill="#186F81"/>
<path d="M470.696 163.926C470.696 147.556 469.13 130.617 465.998 113.108C463.01 95.5999 458.24 74.1766 451.694 48.8392C451.409 47.4157 450.767 45.2092 449.771 42.22C447.209 34.2487 445.928 29.1952 445.928 27.06C445.928 25.7789 446.426 24.6401 447.422 23.6437C448.562 22.6473 449.771 22.1491 451.052 22.1491C453.188 22.1491 455.18 23.9284 457.031 27.4871C458.882 30.9034 460.589 35.5297 462.155 41.3659C463.721 47.0599 465.431 54.1771 467.279 62.7178C468.989 70.8316 471.053 83.287 473.471 100.084L474.752 108.411L477.317 127.414C477.884 132.681 478.382 136.453 478.811 138.731C481.799 123.073 485.642 100.44 490.34 70.8316C494.183 45.4939 496.889 28.1988 498.455 18.9463H503.15C504.434 18.9463 505.571 19.4445 506.567 20.4409C507.563 21.295 508.061 22.3626 508.061 23.6437C508.061 28.7682 507.422 34.3198 506.141 40.2982C505.001 46.1344 503.222 53.1805 500.804 61.4368C498.809 68.554 497.459 73.8922 496.745 77.4508C496.175 81.0094 495.608 86.632 495.038 94.3189C493.898 111.543 492.119 126.987 489.701 140.652C488.135 148.909 486.071 155.385 483.509 160.083C480.944 164.78 478.028 167.129 474.752 167.129L470.696 163.926Z" fill="#186F81"/>
<path d="M539.145 167.344C537.294 167.344 535.584 166.704 534.018 165.422C532.596 164.141 531.813 162.576 531.672 160.725V150.903C531.528 149.622 531.456 148.127 531.456 146.419C531.456 143.43 531.243 138.875 530.817 132.754L530.391 119.089C530.391 112.114 530.604 101.723 531.03 87.915C531.6 75.5307 531.885 65.1396 531.885 56.7411C531.885 54.7482 531.672 51.759 531.243 47.7732C530.817 43.6452 530.604 40.656 530.604 38.8053C530.604 28.6988 533.592 23.6455 539.571 23.6455C544.269 23.6455 549.678 24.5708 555.798 26.4213C562.062 28.2718 565.194 30.4782 565.194 33.0402C565.194 34.4637 564.552 35.8161 563.271 37.0971C562.134 38.2359 560.709 39.1611 559.002 39.873C553.023 37.7379 547.614 36.3144 542.775 35.6025C542.916 37.7379 542.988 40.7982 542.988 44.784C542.988 50.4777 542.916 55.6023 542.775 60.1572C542.346 66.99 542.133 72.1143 542.133 75.5307L542.775 78.9471L546.189 78.7336C547.329 78.5914 548.751 78.5199 550.461 78.5199C557.292 78.5199 560.709 80.5128 560.709 84.4986C560.709 86.0643 560.07 87.4167 558.789 88.5555C557.508 89.5518 555.87 90.0501 553.878 90.0501C551.316 90.0501 549.321 89.9076 547.899 89.6229H542.559C542.844 93.324 542.988 98.7333 542.988 105.851C542.988 112.968 542.916 119.373 542.775 125.067C542.346 133.751 542.133 140.227 542.133 144.498C542.133 152.469 542.274 156.455 542.559 156.455L549.606 156.241C552.027 156.099 554.943 156.028 558.36 156.028C563.769 156.028 566.475 157.736 566.475 161.152C566.475 163.145 565.548 164.64 563.7 165.636C561.99 166.775 559.854 167.344 557.292 167.344H539.145Z" fill="#186F81"/>
<path d="M627.367 168.196C624.235 168.196 621.388 164.78 618.826 157.947C615.838 150.545 613.63 142.929 612.208 135.1L610.711 127.841C606.583 107.485 603.952 95.8839 602.812 93.0369H600.25C600.25 97.1649 600.178 100.937 600.037 104.354V116.097C600.037 135.172 601.39 150.047 604.093 160.723L601.744 166.488H595.765L592.99 163.285L593.203 148.979C593.203 136.168 592.564 116.738 591.283 90.6882C590.143 62.9307 589.573 43.5003 589.573 32.3973C589.573 25.5648 591.922 22.1484 596.62 22.1484C604.306 22.1484 610.57 24.1413 615.409 28.127C620.392 32.1126 622.882 37.6641 622.882 44.7816V59.7279C622.882 61.863 622.528 64.3542 621.814 67.2012C621.103 69.9057 620.32 72.1119 619.468 73.8201L615.409 81.507L611.992 87.9126L613.06 93.0369L616.051 108.197C618.043 119.158 619.966 128.054 621.814 134.887C623.665 141.719 625.942 147.911 628.648 153.463L629.929 156.025C631.354 158.872 632.065 161.15 632.065 162.858C632.065 164.282 631.636 165.491 630.784 166.488C629.929 167.627 628.789 168.196 627.367 168.196ZM601.105 82.5744C604.237 81.0087 606.868 76.7382 609.004 69.7632C611.281 62.646 612.421 56.0979 612.421 50.1195C612.421 45.5643 611.851 41.2941 610.711 37.3083C610 35.0307 608.791 33.3225 607.084 32.1837C605.518 30.9027 603.523 30.2622 601.105 30.2622L600.676 31.3299L600.25 33.2514L600.676 58.4469C600.961 65.8488 601.105 73.8915 601.105 82.5744Z" fill="#186F81"/>
<path d="M670.48 167.556C668.062 167.556 666.067 165.99 664.504 162.859C666.067 159.869 666.85 147.77 666.85 126.56C666.85 121.578 666.496 116.169 665.785 110.333L665.143 104.141C664.717 100.297 664.504 97.3792 664.504 95.3863V89.8348C663.079 86.2762 660.445 79.657 656.602 69.9775C652.9 60.298 649.912 52.1842 647.635 45.6364C644.929 38.092 643.579 32.9674 643.579 30.2629V29.1953L648.49 25.5655C650.908 25.8501 653.47 28.9818 656.176 34.9603C658.453 40.2271 660.943 47.7715 663.649 57.5935C666.496 67.4152 667.918 72.6109 667.918 73.1803C668.488 71.6146 669.628 66.2764 671.335 57.1663C673.042 48.0562 674.965 40.0135 677.101 33.0385C679.519 26.0637 682.012 22.5762 684.574 22.5762C685.996 22.5762 687.208 23.0032 688.204 23.8573C689.341 24.7114 689.911 25.779 689.911 27.0601C689.911 34.3198 687.919 44.5687 683.932 57.8068C679.663 72.184 677.527 82.5751 677.527 88.9807V153.25C677.527 162.787 675.178 167.556 670.48 167.556Z" fill="#186F81"/>
<path d="M720.273 165.849C716.574 165.849 714.723 156.526 714.723 137.878L715.149 104.142C715.29 94.1778 715.362 83.0037 715.362 70.6194C715.362 66.0645 714.936 59.0184 714.081 49.4811C713.37 39.0897 713.013 32.7552 713.013 30.4779C713.013 28.6273 713.796 26.9903 715.362 25.5668C716.928 24.1434 718.638 23.4316 720.486 23.4316C725.469 23.4316 730.239 24.5704 734.793 26.848C739.491 28.9831 743.619 32.0436 747.177 36.0294C754.722 44.7123 759.705 54.2496 762.123 64.641C763.404 69.9078 764.046 75.1035 764.046 80.2278C764.046 82.0785 763.974 83.7864 763.833 85.3524L763.617 91.1175V102.861C763.617 111.971 763.332 119.16 762.765 124.426C761.91 131.544 760.272 137.878 757.854 143.43C755.007 149.408 750.879 154.746 745.47 159.444C742.908 161.579 739.632 163.714 735.648 165.849H720.273ZM729.669 154.96C732.516 154.96 735.15 154.248 737.568 152.824C739.989 151.259 742.053 149.195 743.76 146.632C745.185 144.355 746.466 141.508 747.603 138.092C748.884 134.533 749.811 131.117 750.381 127.843C751.662 121.437 752.445 114.889 752.73 108.199C752.871 106.491 752.943 104 752.943 100.726C752.943 57.7371 744.615 35.3175 727.959 33.4671C726.963 39.8727 726.465 47.2746 726.465 55.6731C726.465 64.641 727.035 80.2989 728.175 102.647C729.171 122.434 729.669 138.163 729.669 149.835V154.96Z" fill="#186F81"/>
<path d="M829.319 166.49C826.043 166.49 823.625 165.991 822.059 164.995C820.493 163.999 819.71 162.148 819.71 159.443C819.71 155.173 818.999 147.913 817.574 137.664L816.719 133.181L795.581 129.978C794.729 133.252 793.517 139.871 791.951 149.835C791.099 156.81 789.746 161.436 787.895 163.714C786.899 164.995 785.474 165.635 783.626 165.635C781.916 165.635 780.35 165.137 778.928 164.141C777.503 163.002 776.792 161.65 776.792 160.084L777.218 159.016L777.434 158.163C786.827 121.579 793.946 85.4944 798.785 49.9078C798.785 49.3384 798.857 48.4132 798.998 47.1322C799.139 45.7087 799.283 43.7158 799.424 41.1535C799.853 35.8867 800.279 31.6876 800.705 28.5559C801.275 25.4243 802.13 23.0756 803.267 21.5098H810.527C812.522 21.5098 814.229 22.008 815.654 23.0044C817.076 23.8585 817.787 25.1396 817.787 26.8478C817.787 37.666 819.281 53.7511 822.272 75.1033C825.119 97.0246 826.541 112.398 826.541 121.223C826.541 122.078 826.898 124.284 827.609 127.843C828.32 131.117 828.677 133.252 828.677 134.248C828.677 135.245 829.388 139.515 830.813 147.059C832.094 153.892 832.733 158.305 832.733 160.298V160.511C832.733 163.643 831.596 165.635 829.319 166.49ZM815.225 125.494C814.799 123.359 814.586 120.725 814.586 117.594C814.586 104.782 813.446 88.4125 811.169 68.4841L809.033 46.2781C802.913 79.7296 798.713 104.996 796.436 122.078C798.572 123.501 804.833 124.64 815.225 125.494Z" fill="#186F81"/>
<path d="M868.568 167.556C866.15 167.556 864.155 165.99 862.589 162.859C864.155 159.869 864.938 147.77 864.938 126.56C864.938 121.578 864.584 116.169 863.87 110.333L863.231 104.141C862.805 100.297 862.589 97.3792 862.589 95.3863V89.8348C861.167 86.2762 858.533 79.657 854.69 69.9775C850.988 60.298 848 52.1842 845.723 45.6364C843.017 38.092 841.664 32.9674 841.664 30.2629V29.1953L846.575 25.5655C848.996 25.8501 851.558 28.9818 854.264 34.9603C856.541 40.2271 859.031 47.7715 861.737 57.5935C864.584 67.4152 866.006 72.6109 866.006 73.1803C866.576 71.6146 867.716 66.2764 869.423 57.1663C871.13 48.0562 873.053 40.0135 875.189 33.0385C877.607 26.0637 880.1 22.5762 882.662 22.5762C884.084 22.5762 885.293 23.0032 886.292 23.8573C887.429 24.7114 887.999 25.779 887.999 27.0601C887.999 34.3198 886.007 44.5687 882.02 57.8068C877.751 72.184 875.615 82.5751 875.615 88.9807V153.25C875.615 162.787 873.266 167.556 868.568 167.556Z" fill="#186F81"/>
</svg>
