<svg width="296" height="59" viewBox="0 0 296 59" fill="none" xmlns="http://www.w3.org/2000/svg">
<path d="M5.55151 56.4216C3.84335 56.4216 2.37244 56.1131 1.13877 55.4963C0.379591 55.0693 0 54.5711 0 54.0017C0 53.4323 0.142346 52.9815 0.427039 52.6494C0.711732 52.2698 1.11505 52.08 1.63698 52.08C2.11147 52.08 2.79948 52.2698 3.70101 52.6494C4.69743 53.029 5.31427 53.2188 5.55151 53.2188C6.45304 53.2188 7.25967 52.8392 7.9714 52.08C8.73058 51.2734 9.32369 50.2295 9.75073 48.9484C10.6048 46.5759 11.0319 44.4407 11.0319 42.5428C11.0319 40.5025 10.6997 38.3673 10.0354 36.1372C9.41859 33.8596 8.56451 31.6533 7.47319 29.5181L6.33442 27.2405C5.1482 24.8681 4.22295 22.9939 3.55866 21.6179C2.94183 20.2418 2.39617 18.7472 1.92168 17.1339C1.20994 14.8564 0.854079 12.65 0.854079 10.5148C0.854079 8.80667 1.13877 7.19341 1.70816 5.67505C2.32499 4.15669 3.22652 2.87557 4.41274 1.83169C5.59896 0.692921 7.06987 0.123535 8.82548 0.123535C9.67956 0.123535 10.5099 0.384505 11.3165 0.906443C12.1232 1.38093 12.6926 1.99776 13.0247 2.75694L11.8148 4.25158C10.5811 4.25158 9.65583 4.01434 9.039 3.53985C8.18492 3.63475 7.42574 4.06179 6.76146 4.82097C6.14462 5.5327 5.67013 6.36306 5.33799 7.31203C5.0533 8.21356 4.91095 9.11509 4.91095 10.0166C4.91095 11.8197 5.1482 13.6702 5.62269 15.5681C6.14462 17.4186 6.80891 19.1742 7.61554 20.8349L12.5977 30.7992C13.4043 32.5074 14.0449 34.429 14.5193 36.5642C14.9938 38.6994 15.2311 40.8346 15.2311 42.9698C15.2311 46.1014 14.4719 49.0433 12.9535 51.7953C12.1469 53.2188 11.103 54.3338 9.82191 55.1404C8.54079 55.9945 7.11732 56.4216 5.55151 56.4216Z" fill="#186F81"/>
<path d="M52.0732 58.5568C50.6023 58.5568 49.8669 57.0858 49.8669 54.144V45.0338C49.8669 42.6614 49.7008 39.5535 49.3686 35.7102C48.9891 31.3923 48.7993 28.4268 48.7993 26.8135L48.9416 22.4008C49.0365 21.1196 49.084 19.6725 49.084 18.0592C48.8942 18.676 48.1112 21.95 46.7352 27.8811C45.3592 33.6224 43.9358 38.9367 42.4648 43.8239C41.0414 48.5213 39.8789 50.87 38.9773 50.87C38.0758 50.87 37.3404 50.6091 36.771 50.0871C36.249 49.5178 35.9881 48.7586 35.9881 47.8096C35.9881 45.7219 35.134 41.2854 33.4258 34.5002C31.7651 27.715 30.2468 22.1635 28.8708 17.8457L28.4437 25.8882C28.0641 32.6734 27.8032 38.3198 27.6608 42.8275C27.5659 47.1928 27.5185 50.182 27.5185 51.7953C27.5185 52.1749 27.5422 52.5308 27.5896 52.8629V53.8593C27.5896 54.666 27.4236 55.2591 27.0914 55.6387C26.7593 56.0657 26.1424 56.2792 25.2409 56.2792C24.7664 56.2792 24.3157 56.0894 23.8886 55.7098C23.4616 55.3777 23.2481 54.9981 23.2481 54.5711C23.2481 49.7313 23.6039 42.4716 24.3157 32.792C25.0274 23.1125 25.3833 15.8528 25.3833 11.013C25.0986 10.586 24.9562 10.1352 24.9562 9.66075C24.9562 9.09136 25.2172 8.66432 25.7391 8.37963C26.3085 8.04749 26.9728 7.88142 27.732 7.88142C28.3488 7.88142 29.4876 10.1115 31.1483 14.5717C32.809 19.0319 34.4697 24.0852 36.1304 29.7316C37.7911 35.378 38.8587 39.4586 39.3332 41.9734C39.7128 40.6923 40.0212 39.5061 40.2585 38.4147L40.6855 36.7066C42.2039 30.0637 43.7222 24.0615 45.2406 18.6998C46.1421 15.4258 47.0199 12.8635 47.874 11.013C48.7281 9.02019 49.511 8.02376 50.2227 8.02376C50.887 8.02376 51.4801 8.21356 52.0021 8.59315C52.5714 8.92529 52.8561 9.37606 52.8561 9.94544C52.8561 13.3618 52.9985 18.4862 53.2832 25.3189C53.6153 31.677 53.7814 36.6117 53.7814 40.1229L53.7102 43.8951L53.5679 47.6673C53.5679 48.2366 53.639 49.0907 53.7814 50.2295L53.9949 52.7206C54.0424 53.1476 54.0661 53.4797 54.0661 53.717C54.1135 53.9542 54.1372 54.0966 54.1372 54.144C54.3745 54.7609 54.4931 55.2116 54.4931 55.4963C54.4931 56.3029 54.2559 57.0147 53.7814 57.6315C53.3069 58.2483 52.7375 58.5568 52.0732 58.5568Z" fill="#186F81"/>
<path d="M66.845 54.7846C62.717 54.7846 60.6529 54.0728 60.6529 52.6494C60.6529 51.5106 61.3884 50.9412 62.8593 50.9412H63.6422L64.3539 51.0124C64.7335 51.0124 64.9945 50.8938 65.1368 50.6565C65.2792 50.4193 65.3504 49.9922 65.3504 49.3754C65.3504 48.5688 65.3029 47.3114 65.208 45.6032C65.0657 44.4645 64.8996 42.4242 64.7098 39.4823C64.2828 32.2227 64.0693 26.7423 64.0693 23.0413C64.0693 21.7128 64.093 20.5028 64.1404 19.4115L64.2116 15.7816C64.2116 14.2158 64.1404 12.911 63.9981 11.8671C63.2389 12.0569 62.6932 12.1518 62.3611 12.1518C61.2223 12.1518 60.6529 11.5824 60.6529 10.4437C60.6529 9.87427 61.0088 9.37606 61.7205 8.94902C62.4323 8.52198 63.3338 8.21356 64.4251 8.02376C66.3231 7.64418 68.0075 7.45438 69.4784 7.45438C70.0478 7.45438 70.5223 7.6679 70.9019 8.09494C71.3289 8.47453 71.5424 8.92529 71.5424 9.44723C71.5424 9.96917 71.3764 10.4199 71.0442 10.7995C70.7595 11.1791 70.3799 11.3689 69.9055 11.3689C69.6208 11.3689 69.3835 11.3452 69.1937 11.2977H68.6243C68.1498 11.2977 67.794 11.4164 67.5567 11.6536C67.3669 11.8434 67.272 12.223 67.272 12.7924C67.272 17.3949 67.5567 24.3224 68.1261 33.575C68.221 35.2831 68.4108 37.7979 68.6955 41.1193C68.9328 43.302 69.0514 45.5321 69.0514 47.8096V50.5142C69.3361 50.4667 69.8106 50.443 70.4748 50.443C72.4677 50.443 73.4641 51.2734 73.4641 52.9341V53.3611L71.6848 54.5711C71.6373 54.5711 71.4713 54.5948 71.1866 54.6422C70.9493 54.6422 70.4748 54.6422 69.7631 54.6422C68.2447 54.7371 67.272 54.7846 66.845 54.7846Z" fill="#186F81"/>
<path d="M90.3027 55.9945C88.5945 55.4251 86.4831 55.1404 83.9683 55.1404C83.2091 55.6149 82.4025 55.8522 81.5484 55.8522C80.979 55.8522 80.4808 55.5912 80.0537 55.0693C79.6742 54.5948 79.4844 54.0728 79.4844 53.5035C79.4844 49.5178 79.6504 44.2035 79.9826 37.5607C80.2673 30.4908 80.4096 25.2002 80.4096 21.689V21.1908C80.1249 18.2015 79.9826 15.9714 79.9826 14.5005C79.9826 9.99289 80.8129 7.73907 82.4736 7.73907C82.9481 7.73907 83.3515 7.92887 83.6836 8.30846C84.0632 8.6406 84.253 9.04392 84.253 9.5184C84.253 10.0878 84.1818 10.9893 84.0395 12.223C83.8971 13.4092 83.8259 14.3107 83.8259 14.9276C83.8259 18.1066 83.8497 20.9773 83.8971 23.5395C83.9446 26.0543 83.9683 28.9012 83.9683 32.0803C83.731 32.792 83.6124 33.7885 83.6124 35.0696V35.9237L83.4701 41.5464C83.3752 43.2071 83.3277 45.105 83.3277 47.2402C83.3277 50.5142 84.1106 52.1512 85.6764 52.1512C85.7713 52.1512 85.9137 52.1512 86.1035 52.1512C86.3407 52.1037 86.6491 52.08 87.0287 52.08C87.4558 52.0325 88.0014 52.0088 88.6657 52.0088C91.228 52.0088 92.5091 52.7206 92.5091 54.144C92.5091 54.6185 92.2956 55.0218 91.8685 55.354C91.4415 55.6861 90.9195 55.8996 90.3027 55.9945Z" fill="#186F81"/>
<path d="M101.66 55.781C101.044 55.781 100.474 55.5675 99.9522 55.1404C99.4777 54.7134 99.2168 54.1915 99.1693 53.5746V50.3007C99.1219 49.8736 99.0982 49.3754 99.0982 48.806C99.0982 47.8096 99.027 46.2912 98.8846 44.2509L98.7423 39.6959C98.7423 37.3709 98.8135 33.9071 98.9558 29.3046C99.1456 25.1765 99.2405 21.7128 99.2405 18.9133C99.2405 18.249 99.1693 17.2526 99.027 15.924C98.8846 14.548 98.8135 13.5516 98.8135 12.9347C98.8135 9.56585 99.8099 7.88142 101.803 7.88142C103.369 7.88142 105.172 8.18984 107.212 8.80667C109.3 9.42351 110.344 10.159 110.344 11.013C110.344 11.4875 110.13 11.9383 109.703 12.3653C109.323 12.7449 108.849 13.0533 108.28 13.2906C106.287 12.5789 104.484 12.1044 102.87 11.8671C102.918 12.5789 102.942 13.599 102.942 14.9276C102.942 16.8255 102.918 18.5337 102.87 20.052C102.728 22.3296 102.657 24.0377 102.657 25.1765L102.87 26.3153L104.009 26.2441C104.389 26.1967 104.863 26.1729 105.433 26.1729C107.71 26.1729 108.849 26.8372 108.849 28.1658C108.849 28.6877 108.635 29.1385 108.208 29.5181C107.781 29.8502 107.236 30.0163 106.571 30.0163C105.717 30.0163 105.053 29.9688 104.578 29.8739H102.799C102.894 31.1076 102.942 32.9107 102.942 35.2831C102.942 37.6556 102.918 39.7907 102.87 41.6887C102.728 44.5831 102.657 46.742 102.657 48.1655C102.657 50.8226 102.704 52.1512 102.799 52.1512L105.148 52.08C105.955 52.0325 106.927 52.0088 108.066 52.0088C109.869 52.0088 110.771 52.5782 110.771 53.717C110.771 54.3813 110.462 54.8795 109.845 55.2116C109.276 55.5912 108.564 55.781 107.71 55.781H101.66Z" fill="#186F81"/>
<path d="M135.596 55.2828C134.694 55.2828 133.911 55.1642 133.247 54.9269C132.44 54.6897 132.037 54.0254 132.037 52.9341V11.5824C132.037 10.7758 131.895 9.56585 131.61 7.95259C131.278 6.48168 131.112 5.27173 131.112 4.32276V4.10924C131.918 2.78067 132.511 1.92659 132.891 1.547C133.555 1.547 134.433 1.4521 135.524 1.26231C136.521 1.07251 137.399 0.977616 138.158 0.977616C138.917 0.977616 139.652 1.21486 140.364 1.68935C141.076 2.11639 141.432 2.63832 141.432 3.25516C141.432 4.67862 140.34 5.39035 138.158 5.39035H137.161C136.877 5.34291 136.545 5.31918 136.165 5.31918C135.738 5.31918 135.477 5.34291 135.382 5.39035C135.382 7.00362 135.477 8.94902 135.667 11.2266L135.809 13.2194L135.951 17.1339C135.951 18.0355 135.88 19.4115 135.738 21.262L135.596 25.2477L136.592 25.0342C137.541 24.7495 138.324 24.6071 138.941 24.6071C139.463 24.6071 139.937 24.8206 140.364 25.2477C140.791 25.6273 141.005 26.078 141.005 26.6C141.005 27.1694 140.815 27.6913 140.435 28.1658C140.103 28.5928 139.676 28.8063 139.154 28.8063L138.3 28.7352H137.375C136.663 28.7352 136.165 28.9012 135.88 29.2334V51.2259L139.866 51.0124C142.571 51.0124 143.923 51.6292 143.923 52.8629V53.1476C143.638 53.717 143.116 54.1915 142.357 54.5711C141.598 54.9032 140.862 55.1167 140.151 55.2116L137.802 55.2828H135.596Z" fill="#186F81"/>
<path d="M156.899 54.6422C156.899 49.1856 156.377 43.5392 155.333 37.703C154.337 31.8668 152.747 24.7257 150.565 16.2799C150.47 15.8054 150.256 15.0699 149.924 14.0735C149.07 11.4164 148.643 9.73192 148.643 9.02019C148.643 8.59315 148.809 8.21356 149.141 7.88142C149.521 7.54928 149.924 7.3832 150.351 7.3832C151.063 7.3832 151.727 7.97632 152.344 9.16254C152.961 10.3013 153.53 11.8434 154.052 13.7888C154.574 15.6868 155.144 18.0592 155.76 20.9061C156.33 23.6107 157.018 27.7625 157.824 33.3614L158.251 36.1372L159.106 42.4716C159.295 44.2272 159.461 45.4846 159.604 46.2438C160.6 41.0244 161.881 33.4801 163.447 23.6107C164.728 15.1648 165.63 9.39978 166.152 6.31561H167.717C168.145 6.31561 168.524 6.48168 168.856 6.81382C169.188 7.09851 169.354 7.45438 169.354 7.88142C169.354 9.58958 169.141 11.4401 168.714 13.4329C168.334 15.3783 167.741 17.727 166.935 20.4791C166.27 22.8515 165.82 24.6309 165.582 25.8171C165.392 27.0033 165.203 28.8775 165.013 31.4398C164.633 37.1811 164.04 42.3293 163.234 46.8843C162.712 49.6364 162.024 51.7953 161.17 53.3611C160.315 54.9269 159.343 55.7098 158.251 55.7098L156.899 54.6422Z" fill="#186F81"/>
<path d="M179.715 55.781C179.098 55.781 178.528 55.5675 178.006 55.1404C177.532 54.7134 177.271 54.1915 177.224 53.5746V50.3007C177.176 49.8736 177.152 49.3754 177.152 48.806C177.152 47.8096 177.081 46.2912 176.939 44.2509L176.797 39.6959C176.797 37.3709 176.868 33.9071 177.01 29.3046C177.2 25.1765 177.295 21.7128 177.295 18.9133C177.295 18.249 177.224 17.2526 177.081 15.924C176.939 14.548 176.868 13.5516 176.868 12.9347C176.868 9.56585 177.864 7.88142 179.857 7.88142C181.423 7.88142 183.226 8.18984 185.266 8.80667C187.354 9.42351 188.398 10.159 188.398 11.013C188.398 11.4875 188.184 11.9383 187.757 12.3653C187.378 12.7449 186.903 13.0533 186.334 13.2906C184.341 12.5789 182.538 12.1044 180.925 11.8671C180.972 12.5789 180.996 13.599 180.996 14.9276C180.996 16.8255 180.972 18.5337 180.925 20.052C180.782 22.3296 180.711 24.0377 180.711 25.1765L180.925 26.3153L182.063 26.2441C182.443 26.1967 182.917 26.1729 183.487 26.1729C185.764 26.1729 186.903 26.8372 186.903 28.1658C186.903 28.6877 186.69 29.1385 186.263 29.5181C185.836 29.8502 185.29 30.0163 184.626 30.0163C183.772 30.0163 183.107 29.9688 182.633 29.8739H180.853C180.948 31.1076 180.996 32.9107 180.996 35.2831C180.996 37.6556 180.972 39.7907 180.925 41.6887C180.782 44.5831 180.711 46.742 180.711 48.1655C180.711 50.8226 180.758 52.1512 180.853 52.1512L183.202 52.08C184.009 52.0325 184.981 52.0088 186.12 52.0088C187.923 52.0088 188.825 52.5782 188.825 53.717C188.825 54.3813 188.516 54.8795 187.9 55.2116C187.33 55.5912 186.618 55.781 185.764 55.781H179.715Z" fill="#186F81"/>
<path d="M209.122 56.0657C208.078 56.0657 207.129 54.9269 206.275 52.6494C205.279 50.182 204.543 47.6435 204.069 45.0338L203.57 42.614C202.194 35.8288 201.317 31.9617 200.937 31.0127H200.083C200.083 32.3887 200.059 33.6461 200.012 34.7849V38.6994C200.012 45.0576 200.463 50.016 201.364 53.5746L200.581 55.4963H198.588L197.663 54.4287L197.734 49.6601C197.734 45.3897 197.521 38.9129 197.094 30.2298C196.714 20.9773 196.524 14.5005 196.524 10.7995C196.524 8.52198 197.307 7.3832 198.873 7.3832C201.435 7.3832 203.523 8.04749 205.136 9.37605C206.797 10.7046 207.627 12.5551 207.627 14.9276V19.9097C207.627 20.6214 207.509 21.4518 207.271 22.4008C207.034 23.3023 206.773 24.0377 206.489 24.6071L205.136 27.1694L203.997 29.3046L204.353 31.0127L205.35 36.066C206.014 39.7196 206.655 42.6851 207.271 44.9627C207.888 47.2402 208.647 49.3042 209.549 51.1547L209.976 52.0088C210.451 52.9578 210.688 53.717 210.688 54.2864C210.688 54.7609 210.545 55.1642 210.261 55.4963C209.976 55.8759 209.596 56.0657 209.122 56.0657ZM200.368 27.5252C201.412 27.0033 202.289 25.5798 203.001 23.2548C203.76 20.8824 204.14 18.6997 204.14 16.7069C204.14 15.1885 203.95 13.7651 203.57 12.4365C203.333 11.6773 202.93 11.1079 202.361 10.7283C201.839 10.3013 201.174 10.0878 200.368 10.0878L200.225 10.4437L200.083 11.0842L200.225 19.4827C200.32 21.95 200.368 24.6309 200.368 27.5252Z" fill="#186F81"/>
<path d="M223.493 55.8522C222.687 55.8522 222.022 55.3302 221.501 54.2864C222.022 53.2899 222.283 49.2568 222.283 42.1869C222.283 40.5262 222.165 38.7231 221.928 36.7777L221.714 34.7137C221.572 33.4326 221.501 32.4599 221.501 31.7956V29.9451C221.026 28.7589 220.148 26.5525 218.867 23.326C217.633 20.0995 216.637 17.3949 215.878 15.2123C214.976 12.6975 214.526 10.9893 214.526 10.0878V9.73192L216.163 8.52198C216.969 8.61687 217.823 9.66075 218.725 11.6536C219.484 13.4092 220.314 15.924 221.216 19.198C222.165 22.4719 222.639 24.2038 222.639 24.3936C222.829 23.8717 223.209 22.0923 223.778 19.0556C224.347 16.0189 224.988 13.338 225.7 11.013C226.506 8.68805 227.337 7.52555 228.191 7.52555C228.665 7.52555 229.069 7.6679 229.401 7.95259C229.78 8.23728 229.97 8.59315 229.97 9.02019C229.97 11.4401 229.306 14.8564 227.977 19.2691C226.554 24.0615 225.842 27.5252 225.842 29.6604V51.0836C225.842 54.2626 225.059 55.8522 223.493 55.8522Z" fill="#186F81"/>
<path d="M240.091 55.2828C238.858 55.2828 238.241 52.1749 238.241 45.9591L238.383 34.7137C238.43 31.3923 238.454 27.6676 238.454 23.5395C238.454 22.0212 238.312 19.6725 238.027 16.4934C237.79 13.0296 237.671 10.9181 237.671 10.159C237.671 9.54213 237.932 8.99647 238.454 8.52198C238.976 8.04749 239.546 7.81025 240.162 7.81025C241.823 7.81025 243.413 8.18984 244.931 8.94902C246.497 9.66075 247.873 10.6809 249.059 12.0095C251.574 14.9038 253.235 18.0829 254.041 21.5467C254.468 23.3023 254.682 25.0342 254.682 26.7423C254.682 27.3592 254.658 27.9285 254.611 28.4505L254.539 30.3722V34.2867C254.539 37.3234 254.444 39.7196 254.255 41.4752C253.97 43.8476 253.424 45.9591 252.618 47.8096C251.669 49.8025 250.293 51.5818 248.49 53.1476C247.636 53.8593 246.544 54.5711 245.216 55.2828H240.091ZM243.223 51.653C244.172 51.653 245.05 51.4157 245.856 50.9412C246.663 50.4193 247.351 49.7313 247.92 48.8772C248.395 48.118 248.822 47.169 249.201 46.0303C249.628 44.8441 249.937 43.7053 250.127 42.614C250.554 40.4788 250.815 38.2961 250.91 36.066C250.957 35.4966 250.981 34.6663 250.981 33.575C250.981 19.2454 248.205 11.7722 242.653 11.1554C242.321 13.2906 242.155 15.7579 242.155 18.5574C242.155 21.5467 242.345 26.766 242.725 34.2155C243.057 40.8109 243.223 46.054 243.223 49.9448V51.653Z" fill="#186F81"/>
<path d="M276.44 55.4963C275.348 55.4963 274.542 55.3302 274.02 54.9981C273.498 54.666 273.237 54.0491 273.237 53.1476C273.237 51.7241 273 49.3042 272.525 45.8879L272.24 44.3933L265.194 43.3257C264.91 44.417 264.506 46.6234 263.984 49.9448C263.7 52.2698 263.249 53.8119 262.632 54.5711C262.3 54.9981 261.825 55.2116 261.209 55.2116C260.639 55.2116 260.117 55.0455 259.643 54.7134C259.168 54.3338 258.931 53.883 258.931 53.3611L259.073 53.0052L259.145 52.7206C262.276 40.5262 264.649 28.4979 266.262 16.6357C266.262 16.4459 266.286 16.1375 266.333 15.7105C266.38 15.236 266.428 14.5717 266.475 13.7176C266.618 11.962 266.76 10.5623 266.902 9.5184C267.092 8.47453 267.377 7.69162 267.756 7.16969H270.176C270.841 7.16969 271.41 7.33576 271.885 7.6679C272.359 7.95259 272.596 8.37963 272.596 8.94902C272.596 12.5551 273.094 17.9168 274.091 25.0342C275.04 32.3413 275.514 37.4658 275.514 40.4076C275.514 40.6923 275.633 41.4277 275.87 42.614C276.107 43.7053 276.226 44.417 276.226 44.7492C276.226 45.0813 276.463 46.5048 276.938 49.0195C277.365 51.2971 277.578 52.768 277.578 53.4323V53.5035C277.578 54.5473 277.199 55.2116 276.44 55.4963ZM271.742 41.831C271.6 41.1193 271.529 40.2415 271.529 39.1976C271.529 34.9272 271.149 29.4706 270.39 22.8278L269.678 15.4258C267.638 26.5763 266.238 34.9984 265.479 40.6923C266.191 41.1668 268.278 41.5464 271.742 41.831Z" fill="#186F81"/>
<path d="M289.523 55.8522C288.717 55.8522 288.052 55.3302 287.53 54.2864C288.052 53.2899 288.313 49.2568 288.313 42.1869C288.313 40.5262 288.195 38.7231 287.957 36.7777L287.744 34.7137C287.602 33.4326 287.53 32.4599 287.53 31.7956V29.9451C287.056 28.7589 286.178 26.5525 284.897 23.326C283.663 20.0995 282.667 17.3949 281.908 15.2123C281.006 12.6975 280.555 10.9893 280.555 10.0878V9.73192L282.192 8.52198C282.999 8.61687 283.853 9.66075 284.755 11.6536C285.514 13.4092 286.344 15.924 287.246 19.198C288.195 22.4719 288.669 24.2038 288.669 24.3936C288.859 23.8717 289.239 22.0923 289.808 19.0556C290.377 16.0189 291.018 13.338 291.73 11.013C292.536 8.68805 293.367 7.52555 294.221 7.52555C294.695 7.52555 295.098 7.6679 295.431 7.95259C295.81 8.23728 296 8.59315 296 9.02019C296 11.4401 295.336 14.8564 294.007 19.2691C292.584 24.0615 291.872 27.5252 291.872 29.6604V51.0836C291.872 54.2626 291.089 55.8522 289.523 55.8522Z" fill="#186F81"/>
</svg>
