<svg width="870" height="852" viewBox="0 0 870 852" fill="none" xmlns="http://www.w3.org/2000/svg">
<g clip-path="url(#clip0_1105_2268)">
<path d="M68.6463 228.171C76.2717 171.808 124.796 130.022 181.667 130.847L403.08 134.059C412.302 134.193 421.005 129.792 426.363 122.283L511.452 3.03245C514.239 -0.875603 520.329 0.285932 521.481 4.94612L551.388 125.733C552.921 131.93 558.441 136.313 564.822 136.406L746.445 139.04C806.736 139.915 855.597 188.204 857.181 248.479L869.955 734.331C871.62 797.733 820.536 849.957 757.116 849.69L113.091 846.981C45.2133 846.696 -6.92697 786.774 2.17336 719.508L68.6463 228.171Z" fill="#BABFFC"/>
<path d="M851.563 248.629L864.337 734.483C865.921 794.711 817.39 844.325 757.141 844.073L113.115 841.364C48.6315 841.091 -0.901569 784.166 7.74375 720.263L74.2167 228.926C81.4608 175.381 127.559 135.685 181.586 136.469L403 139.681C414.067 139.842 424.51 134.56 430.939 125.55L516.028 6.29883L545.935 127.086C548.08 135.761 555.808 141.898 564.742 142.027L746.365 144.662C803.641 145.493 850.057 191.367 851.563 248.629Z" stroke="black" stroke-opacity="0.1" stroke-width="11.2405"/>
</g>
<defs>
<clipPath id="clip0_1105_2268">
<rect width="870" height="852" fill="white"/>
</clipPath>
</defs>
</svg>
