<svg width="290" height="284" viewBox="0 0 290 284" fill="none" xmlns="http://www.w3.org/2000/svg">
<path d="M22.882 76.0568C25.4238 57.2691 41.5987 43.3407 60.5556 43.6157L134.36 44.6863C137.434 44.7309 140.335 43.2639 142.121 40.7609L170.484 1.0107C171.413 -0.291983 173.443 0.0951952 173.827 1.64859L183.796 41.911C184.307 43.9764 186.147 45.4376 188.274 45.4684L248.815 46.3467C268.912 46.6382 285.199 62.7344 285.727 82.8263L289.985 244.777C290.54 265.911 273.512 283.319 252.372 283.23L37.6968 282.327C15.071 282.232 -2.30909 262.258 0.724353 239.836L22.882 76.0568Z" fill="#BABFFC"/>
<path d="M283.854 82.8756L288.112 244.827C288.64 264.903 272.463 281.441 252.38 281.357L37.7047 280.454C16.2101 280.363 -0.300913 261.388 2.58086 240.087L24.7385 76.3079C27.1532 58.4597 42.5194 45.2277 60.5284 45.4889L134.333 46.5596C138.022 46.6131 141.503 44.8526 143.646 41.8491L172.009 2.09884L181.978 42.3613C182.693 45.2528 185.269 47.2985 188.247 47.3417L248.788 48.2199C267.88 48.4968 283.352 63.7883 283.854 82.8756Z" stroke="black" stroke-opacity="0.1" stroke-width="3.74684"/>
</svg>
