<svg width="37" height="64" viewBox="0 0 37 64" fill="none" xmlns="http://www.w3.org/2000/svg">
<path d="M17.5 52L19.5 52L19 56L18 56L17.5 52Z" fill="#828281"/>
<path d="M17.5 52L19.5 52L19 56L18 56L17.5 52Z" fill="url(#paint0_linear_3926_125295)" fill-opacity="0.1"/>
<path d="M17.5 52L19.5 52L19 56L18 56L17.5 52Z" fill="url(#paint1_linear_3926_125295)" fill-opacity="0.1"/>
<path d="M15.5 47L21.5 47L19.557 52.8291C19.523 52.9311 19.4274 53 19.3198 53L17.6802 53C17.5726 53 17.477 52.9311 17.443 52.8291L15.5 47Z" fill="#A9A9A9"/>
<path d="M15.5 47L21.5 47L19.5 53L17.5 53L15.5 47Z" fill="url(#paint2_linear_3926_125295)" fill-opacity="0.1"/>
<path d="M15.5 47L21.5 47L19.5 53L17.5 53L15.5 47Z" fill="url(#paint3_linear_3926_125295)" fill-opacity="0.1"/>
<path d="M13.5 34H23.5L22.571 46.0767C22.5309 46.5977 22.0965 47 21.574 47H15.426C14.9035 47 14.4691 46.5977 14.429 46.0767L13.5 34Z" fill="#D5D5D5"/>
<path d="M13.5 34H23.5L22.571 46.0767C22.5309 46.5977 22.0965 47 21.574 47H15.426C14.9035 47 14.4691 46.5977 14.429 46.0767L13.5 34Z" fill="url(#paint4_linear_3926_125295)" fill-opacity="0.1"/>
<path d="M13.5 34H23.5L22.571 46.0767C22.5309 46.5977 22.0965 47 21.574 47H15.426C14.9035 47 14.4691 46.5977 14.429 46.0767L13.5 34Z" fill="url(#paint5_linear_3926_125295)" fill-opacity="0.1"/>
<path d="M10 19H27L24.7643 33.3088C24.6121 34.2823 23.7736 35 22.7882 35H14.2118C13.2264 35 12.3879 34.2823 12.2357 33.3088L10 19Z" fill="#D5D5D5"/>
<path d="M10 19H27L24.7643 33.3088C24.6121 34.2823 23.7736 35 22.7882 35H14.2118C13.2264 35 12.3879 34.2823 12.2357 33.3088L10 19Z" fill="url(#paint6_linear_3926_125295)" fill-opacity="0.1"/>
<path d="M10 19H27L24.7643 33.3088C24.6121 34.2823 23.7736 35 22.7882 35H14.2118C13.2264 35 12.3879 34.2823 12.2357 33.3088L10 19Z" fill="url(#paint7_linear_3926_125295)" fill-opacity="0.1"/>
<path fill-rule="evenodd" clip-rule="evenodd" d="M8.56569 11.8709C8.50984 11.4078 8.87139 11 9.33787 11L27.6622 11C28.1286 11 28.4902 11.4078 28.4343 11.8709L27.5366 19.3153C27.4895 19.7061 27.1579 20 26.7644 20L10.2356 20C9.84208 20 9.51055 19.706 9.46343 19.3153L8.56569 11.8709Z" fill="#C0C0C0"/>
<path fill-rule="evenodd" clip-rule="evenodd" d="M8.56599 11.8734C8.50998 11.4089 8.87257 11 9.34038 11L27.6596 11C28.1275 11 28.49 11.4089 28.434 11.8734L27.5368 19.3134C27.4896 19.7052 27.1571 20 26.7624 20L10.2376 20C9.84292 20 9.51045 19.7052 9.4632 19.3134L8.56599 11.8734Z" fill="url(#paint8_linear_3926_125295)" fill-opacity="0.1"/>
<path fill-rule="evenodd" clip-rule="evenodd" d="M8.56599 11.8734C8.50998 11.4089 8.87257 11 9.34038 11L27.6596 11C28.1275 11 28.49 11.4089 28.434 11.8734L27.5368 19.3134C27.4896 19.7052 27.1571 20 26.7624 20L10.2376 20C9.84292 20 9.51045 19.7052 9.4632 19.3134L8.56599 11.8734Z" fill="url(#paint9_linear_3926_125295)" fill-opacity="0.1"/>
<path fill-rule="evenodd" clip-rule="evenodd" d="M18.5005 16.666C10.9442 16.666 8.39579 16.5626 8.39579 15.0327C8.39579 13.5028 6.5 -41.9279 6.5 -41.9279L6.5 -122L30.5 -122L30.5 -42.5C30.5 -42.5 28.6044 13.4818 28.6044 15.0311C28.6044 16.5805 26.056 16.666 18.5005 16.666Z" fill="#AFB0B5"/>
<path fill-rule="evenodd" clip-rule="evenodd" d="M18.5005 16.666C10.9442 16.666 8.39579 16.5626 8.39579 15.0327C8.39579 13.5028 6.5 -41.9279 6.5 -41.9279L6.5 -122L30.5 -122L30.5 -42.5C30.5 -42.5 28.6044 13.4818 28.6044 15.0311C28.6044 16.5805 26.056 16.666 18.5005 16.666Z" fill="url(#paint10_linear_3926_125295)" fill-opacity="0.1"/>
<path fill-rule="evenodd" clip-rule="evenodd" d="M18.5005 16.666C10.9442 16.666 8.39579 16.5626 8.39579 15.0327C8.39579 13.5028 6.5 -41.9279 6.5 -41.9279L6.5 -122L30.5 -122L30.5 -42.5C30.5 -42.5 28.6044 13.4818 28.6044 15.0311C28.6044 16.5805 26.056 16.666 18.5005 16.666Z" fill="url(#paint11_linear_3926_125295)" fill-opacity="0.1"/>
<defs>
<linearGradient id="paint0_linear_3926_125295" x1="17.5833" y1="55.101" x2="18.5" y2="55.101" gradientUnits="userSpaceOnUse">
<stop/>
<stop offset="1" stop-opacity="0.01"/>
</linearGradient>
<linearGradient id="paint1_linear_3926_125295" x1="18.5" y1="55.101" x2="19.4167" y2="55.101" gradientUnits="userSpaceOnUse">
<stop stop-opacity="0.01"/>
<stop offset="1"/>
</linearGradient>
<linearGradient id="paint2_linear_3926_125295" x1="15.75" y1="51.6515" x2="18.5" y2="51.6515" gradientUnits="userSpaceOnUse">
<stop/>
<stop offset="1" stop-opacity="0.01"/>
</linearGradient>
<linearGradient id="paint3_linear_3926_125295" x1="18.5" y1="51.6515" x2="21.25" y2="51.6515" gradientUnits="userSpaceOnUse">
<stop stop-opacity="0.01"/>
<stop offset="1"/>
</linearGradient>
<linearGradient id="paint4_linear_3926_125295" x1="13.9167" y1="44.0782" x2="18.5" y2="44.0782" gradientUnits="userSpaceOnUse">
<stop/>
<stop offset="1" stop-opacity="0.01"/>
</linearGradient>
<linearGradient id="paint5_linear_3926_125295" x1="18.5" y1="44.0782" x2="23.0833" y2="44.0782" gradientUnits="userSpaceOnUse">
<stop stop-opacity="0.01"/>
<stop offset="1"/>
</linearGradient>
<linearGradient id="paint6_linear_3926_125295" x1="10.7083" y1="31.4039" x2="18.5" y2="31.4039" gradientUnits="userSpaceOnUse">
<stop/>
<stop offset="1" stop-opacity="0.01"/>
</linearGradient>
<linearGradient id="paint7_linear_3926_125295" x1="18.5" y1="31.4039" x2="26.2917" y2="31.4039" gradientUnits="userSpaceOnUse">
<stop stop-opacity="0.01"/>
<stop offset="1"/>
</linearGradient>
<linearGradient id="paint8_linear_3926_125295" x1="9.33334" y1="17.9772" x2="18.5" y2="17.9771" gradientUnits="userSpaceOnUse">
<stop/>
<stop offset="1" stop-opacity="0.01"/>
</linearGradient>
<linearGradient id="paint9_linear_3926_125295" x1="18.5" y1="17.9772" x2="27.6667" y2="17.9772" gradientUnits="userSpaceOnUse">
<stop stop-opacity="0.01"/>
<stop offset="1"/>
</linearGradient>
<linearGradient id="paint10_linear_3926_125295" x1="7.5" y1="-14.5" x2="18.5" y2="-14.5" gradientUnits="userSpaceOnUse">
<stop/>
<stop offset="1" stop-opacity="0.01"/>
</linearGradient>
<linearGradient id="paint11_linear_3926_125295" x1="18.5" y1="-14.5" x2="29.5" y2="-14.5" gradientUnits="userSpaceOnUse">
<stop stop-opacity="0.01"/>
<stop offset="1"/>
</linearGradient>
</defs>
</svg>
