<svg width="987" height="942" viewBox="0 0 987 942" fill="none" xmlns="http://www.w3.org/2000/svg">
<path d="M477.462 12.6105C483.732 -0.750363 502.734 -0.750388 509.004 12.6105L643.095 298.423C645.636 303.834 650.772 307.566 656.703 308.307L969.963 347.517C984.606 349.35 990.48 367.422 979.71 377.514L749.322 593.364C744.96 597.45 742.998 603.489 744.126 609.36L803.637 919.404C806.421 933.897 791.046 945.066 778.122 937.941L501.642 785.532C496.407 782.646 490.059 782.646 484.824 785.532L208.345 937.941C195.42 945.066 180.047 933.897 182.829 919.404L242.342 609.36C243.468 603.489 241.506 597.45 237.144 593.364L6.75777 377.514C-4.01214 367.422 1.86015 349.35 16.5041 347.517L329.763 308.307C335.697 307.566 340.833 303.834 343.371 298.423L477.462 12.6105Z" fill="#9AE6EA"/>
</svg>
