<svg width="296" height="138" viewBox="0 0 296 138" fill="none" xmlns="http://www.w3.org/2000/svg">
<path d="M18.2753 136.945C16.0602 136.945 14.0032 136.188 12.1045 134.672C10.2848 133.157 8.70255 131.117 7.35761 128.552C6.1709 126.104 5.10286 123.015 4.15349 119.285C3.20412 115.438 2.49209 111.475 2.01741 107.395C1.06804 100.518 0.435127 91.4835 0.118671 80.2929C0.039557 77.6118 0 73.0074 0 66.4795V55.4638C0.0791139 52.3165 0.118671 49.0526 0.118671 45.6721C0.118671 38.7945 0.39557 33.3741 0.949368 29.4108C0.712026 27.6622 0.593355 25.8554 0.593355 23.9903C0.593355 16.9962 2.37342 11.3426 5.93355 7.02961C9.49369 2.71658 14.0032 0.560059 19.4621 0.560059C21.519 0.560059 23.4178 1.37604 25.1583 3.008C26.8988 4.63996 27.769 6.67991 27.769 9.12785C27.769 10.2935 27.4526 11.2261 26.8197 11.9255C26.1868 12.6249 25.3956 12.9746 24.4462 12.9746C23.6551 12.9746 22.7848 12.7998 21.8355 12.45C20.9652 12.1003 20.4114 11.5758 20.1741 10.8764H18.6314V10.5267C15.7041 10.5267 13.2516 11.4592 11.2738 13.3243C9.8497 14.8397 8.7421 17.3459 7.95096 20.843C7.63451 22.1252 7.39716 23.7572 7.23894 25.7389C7.08071 27.7205 7.00159 29.5273 7.00159 31.1593C6.92248 32.0918 6.88292 33.9569 6.88292 36.7546L7.12027 42.8744L7.23894 48.8194C7.23894 50.5679 7.08071 52.6079 6.76425 54.9393C6.36868 57.8535 6.1709 59.8934 6.1709 61.0591V65.2556C6.1709 69.8018 6.28957 76.0382 6.52691 83.9648C6.60602 90.6092 7.12027 97.2536 8.06963 103.898C8.78166 110.076 10.1266 115.322 12.1045 119.635C14.0032 124.064 16.5744 126.279 19.8181 126.279C21.163 126.279 22.8244 125.23 24.8023 123.132C26.9383 121.034 28.4415 119.984 29.3118 119.984C30.4194 119.984 31.5665 120.859 32.7532 122.607C32.7532 126.92 31.6456 130.243 29.4304 132.574C27.3735 134.672 24.9209 136.013 22.0728 136.595C20.4905 136.829 19.2247 136.945 18.2753 136.945Z" fill="#E06E51"/>
<path d="M62.8855 134.148C60.1956 134.148 58.8507 124.531 58.8507 105.297L58.9693 95.3303L59.088 87.287V85.0139C59.1671 84.0814 59.2067 82.974 59.2067 81.6917C59.2067 81.4586 59.088 81.1672 58.8507 80.8175C58.6133 80.4678 58.4946 80.1763 58.4946 79.9432V79.7684C58.0991 80.0015 57.387 80.1181 56.3586 80.1181C55.3301 80.1181 54.0643 79.8849 52.5611 79.4186C52.0864 79.3021 50.8206 79.0107 48.7636 78.5444V98.6525C48.7636 101.683 48.8823 106.463 49.1196 112.99C49.357 119.402 49.4756 124.181 49.4756 127.328C49.4756 129.077 49.1592 130.592 48.5263 131.874C47.8934 133.157 47.0627 133.798 46.0342 133.798C44.531 133.798 43.463 131.641 42.8301 127.328C42.1972 122.899 41.8807 117.129 41.8807 110.018L42.118 95.8548C42.1971 91.8915 42.2367 87.695 42.2367 83.2654V77.845C42.2367 75.9799 42.1971 74.7559 42.118 74.1731V73.2988L42.474 63.1573C42.474 58.7277 42.3554 52.1416 42.118 43.399C41.8807 34.6563 41.762 28.0702 41.762 23.6406C41.762 22.2418 42.0785 21.0178 42.7114 19.9687C43.3443 18.9196 44.1354 18.395 45.0848 18.395C47.6165 18.395 48.8823 21.8921 48.8823 28.8862L48.6449 50.5679C48.4867 57.0958 48.4076 64.3813 48.4076 72.4245C49.5943 73.0074 51.7304 73.2988 54.8158 73.2988H59.2067C59.3649 72.5994 59.444 71.9 59.444 71.2006C59.444 65.6053 59.2067 57.3289 58.732 46.3715C58.1782 36.1135 57.9013 27.7788 57.9013 21.3675C57.9013 20.0853 58.2177 19.0362 58.8507 18.2202C59.5627 17.2876 60.3934 16.8214 61.3428 16.8214C61.8966 16.8214 62.6877 17.1128 63.7162 17.6956L64.7842 18.395C64.7842 34.9478 65.1798 57.0375 65.9709 84.6642L67.039 128.902C67.039 130.534 66.6038 131.816 65.7336 132.749C64.9424 133.681 63.9931 134.148 62.8855 134.148Z" fill="#E06E51"/>
<path d="M86.7449 136.421C85.7164 136.421 84.767 135.896 83.8967 134.847C83.1056 133.798 82.6705 132.516 82.5914 131V122.957C82.5123 121.908 82.4727 120.684 82.4727 119.285C82.4727 116.837 82.354 113.107 82.1167 108.095L81.8793 96.9039C81.8793 91.1921 81.998 82.6826 82.2354 71.3754C82.5518 61.234 82.71 52.7245 82.71 45.8469C82.71 44.215 82.5914 41.767 82.354 38.5031C82.1167 35.1226 81.998 32.6747 81.998 31.1593C81.998 22.8829 83.6594 18.7447 86.9822 18.7447C89.593 18.7447 92.5993 19.5024 96.0012 21.0178C99.4822 22.5332 101.223 24.34 101.223 26.4383C101.223 27.604 100.867 28.7114 100.155 29.7605C99.5218 30.693 98.7306 31.4507 97.7813 32.0336C94.4585 30.285 91.4521 29.1193 88.7623 28.5365C88.8414 30.285 88.8809 32.7912 88.8809 36.0552C88.8809 40.7179 88.8414 44.9144 88.7623 48.6446C88.5249 54.2399 88.4062 58.4363 88.4062 61.234L88.7623 64.0316L90.661 63.8568C91.2939 63.7402 92.085 63.6819 93.0344 63.6819C96.8319 63.6819 98.7306 65.3139 98.7306 68.5778C98.7306 69.86 98.3746 70.9674 97.6626 71.9C96.9506 72.716 96.0408 73.124 94.9332 73.124C93.5091 73.124 92.4015 73.0074 91.6104 72.7742H88.6436C88.8018 75.805 88.8809 80.2346 88.8809 86.0631C88.8809 91.8915 88.8414 97.1371 88.7623 101.8C88.5249 108.91 88.4062 114.214 88.4062 117.711C88.4062 124.239 88.4854 127.503 88.6436 127.503L92.5597 127.328C93.9047 127.212 95.5265 127.153 97.4253 127.153C100.432 127.153 101.935 128.552 101.935 131.35C101.935 132.982 101.421 134.206 100.392 135.022C99.4427 135.954 98.256 136.421 96.8319 136.421H86.7449Z" fill="#E06E51"/>
<path d="M130.912 136.595C129.171 136.595 127.312 136.188 125.334 135.372C123.436 134.672 121.972 133.856 120.943 132.924C115.643 127.911 112.992 114.214 112.992 91.8332V77.4953C112.992 72.8325 113.032 68.6944 113.111 65.0807C113.19 61.3505 113.349 57.3289 113.586 53.0159C113.823 48.4697 114.179 44.7978 114.654 42.0002C115.129 39.0859 115.92 35.822 117.027 32.2084C117.977 28.8279 119.124 26.2051 120.469 24.34C121.893 22.4749 123.712 20.9013 125.928 19.619C127.905 18.3368 130.358 17.6956 133.285 17.6956C134.472 17.6956 135.382 18.1036 136.015 18.9196C136.648 19.7356 136.964 20.7847 136.964 22.067C136.964 23.2326 136.687 24.2818 136.133 25.2143C135.659 26.1469 135.065 26.6714 134.353 26.788H128.776C127.193 26.788 125.809 28.2451 124.622 31.1593C123.436 34.0735 122.605 37.862 122.13 42.5247C121.102 51.1508 120.587 58.1449 120.587 63.5071V64.3813L120.35 81.1672C120.192 86.1796 120.113 91.8332 120.113 98.1279C120.113 102.557 120.231 106.171 120.469 108.969C120.864 113.165 121.537 116.662 122.486 119.46C123.436 122.607 125.057 124.88 127.352 126.279C128.538 126.979 129.844 127.328 131.268 127.328C132.138 127.328 133.008 126.862 133.879 125.929C134.907 125.929 135.738 126.279 136.371 126.979C137.083 127.561 137.439 128.494 137.439 129.776C137.439 134.322 135.263 136.595 130.912 136.595Z" fill="#E06E51"/>
<path d="M176.161 137.12C174.341 137.12 172.403 134.206 170.346 128.377C167.26 119.635 164.215 105.239 161.208 85.1888C160.338 79.7101 159.626 74.6393 159.072 69.9766C156.224 78.3695 154.8 88.511 154.8 100.401V132.749C154.8 135.43 154.009 136.77 152.427 136.77C151.24 136.77 150.251 136.246 149.46 135.197C148.748 134.264 148.392 132.924 148.392 131.175V78.1947C148.392 73.0657 148.787 63.6236 149.578 49.8685C150.37 37.862 150.765 28.4199 150.765 21.5424C151.398 19.3276 152.545 18.2202 154.207 18.2202C155.235 18.2202 156.105 18.7447 156.817 19.7939C157.529 20.843 157.885 22.1252 157.885 23.6406V24.1652C156.857 26.7297 156.343 37.3374 156.343 55.9884V62.2831L160.733 49.5188C163.423 41.2425 165.955 34.1318 168.328 28.1868C170.544 22.3584 172.165 19.4442 173.194 19.4442C174.46 19.4442 175.528 19.8521 176.398 20.6681C177.347 21.4841 177.822 22.6498 177.822 24.1652L174.974 31.1593C169.04 45.2641 165.718 53.4239 165.006 55.6387C165.006 57.6203 164.966 59.3689 164.887 60.8843L164.768 66.1298C164.768 71.1423 166.113 80.5261 168.803 94.2811C171.572 107.92 173.866 116.954 175.686 121.383L177.229 124.531C178.732 127.561 179.484 130.243 179.484 132.574C179.484 133.856 179.128 134.905 178.415 135.721C177.783 136.654 177.031 137.12 176.161 137.12Z" fill="#E06E51"/>
<path d="M207.918 136.945C205.07 135.546 201.55 134.847 197.356 134.847C196.091 136.013 194.746 136.595 193.322 136.595C192.372 136.595 191.542 135.954 190.83 134.672C190.197 133.506 189.88 132.224 189.88 130.825C189.88 121.034 190.157 107.978 190.711 91.6583C191.186 74.2896 191.423 61.2922 191.423 52.6662V51.4422C190.948 44.0984 190.711 38.6197 190.711 35.0061C190.711 23.932 192.095 18.395 194.864 18.395C195.656 18.395 196.328 18.8613 196.882 19.7939C197.515 20.6098 197.831 21.6007 197.831 22.7664C197.831 24.1652 197.713 26.38 197.475 29.4108C197.238 32.325 197.119 34.5398 197.119 36.0552C197.119 43.8653 197.159 50.9177 197.238 57.2123C197.317 63.3905 197.356 70.3846 197.356 78.1947C196.961 79.9432 196.763 82.3911 196.763 85.5385V87.6367L196.526 101.45C196.368 105.53 196.288 110.193 196.288 115.438C196.288 123.482 197.594 127.503 200.205 127.503C200.363 127.503 200.6 127.503 200.917 127.503C201.312 127.387 201.826 127.328 202.459 127.328C203.171 127.212 204.081 127.153 205.189 127.153C209.461 127.153 211.597 128.902 211.597 132.399C211.597 133.565 211.241 134.556 210.529 135.372C209.817 136.188 208.947 136.712 207.918 136.945Z" fill="#E06E51"/>
<path d="M227.33 133.973C220.447 133.973 217.006 132.224 217.006 128.727C217.006 125.929 218.232 124.531 220.685 124.531H221.99L223.177 124.706C223.81 124.706 224.245 124.414 224.482 123.831C224.719 123.248 224.838 122.199 224.838 120.684C224.838 118.702 224.759 115.613 224.601 111.417C224.363 108.619 224.087 103.607 223.77 96.3794C223.058 78.5444 222.702 65.0807 222.702 55.9884C222.702 52.7245 222.742 49.752 222.821 47.0709L222.939 38.1534C222.939 34.3066 222.821 31.101 222.583 28.5365C221.318 29.0028 220.408 29.2359 219.854 29.2359C217.955 29.2359 217.006 27.8371 217.006 25.0395C217.006 23.6406 217.599 22.4167 218.786 21.3675C219.973 20.3184 221.476 19.5607 223.295 19.0944C226.46 18.1619 229.269 17.6956 231.721 17.6956C232.67 17.6956 233.462 18.2202 234.094 19.2693C234.806 20.2019 235.163 21.3093 235.163 22.5915C235.163 23.8738 234.886 24.9812 234.332 25.9137C233.857 26.8463 233.224 27.3125 232.433 27.3125C231.958 27.3125 231.563 27.2543 231.246 27.1377H230.297C229.506 27.1377 228.912 27.4291 228.517 28.0119C228.2 28.4782 228.042 29.4108 228.042 30.8096C228.042 42.1167 228.517 59.1357 229.466 81.8666C229.625 86.0631 229.941 92.2412 230.416 100.401C230.811 105.763 231.009 111.242 231.009 116.837V123.482C231.484 123.365 232.275 123.307 233.382 123.307C236.705 123.307 238.367 125.347 238.367 129.427V130.476L235.4 133.448C235.321 133.448 235.044 133.506 234.569 133.623C234.174 133.623 233.382 133.623 232.196 133.623C229.664 133.856 228.042 133.973 227.33 133.973Z" fill="#E06E51"/>
<path d="M250.303 136.595C248.879 136.246 247.653 135.488 246.624 134.322C245.675 133.157 245.121 131.641 244.963 129.776L246.268 126.804C246.743 126.804 247.495 127.037 248.523 127.503C249.71 127.853 250.62 128.028 251.253 128.028C252.677 128.028 253.943 127.095 255.05 125.23C256.237 123.365 257.107 120.917 257.661 117.886C258.689 112.291 259.204 107.279 259.204 102.849C259.204 95.1554 257.542 87.0539 254.219 78.5444L252.914 75.2222C251.411 71.3754 250.145 67.9367 249.117 64.9059C248.088 61.8751 247.218 58.6112 246.506 55.1141C245.556 50.5679 245.082 46.0218 245.082 41.4756C245.082 36.3466 245.873 30.9844 247.455 25.3892C248.246 22.7081 249.354 20.5516 250.778 18.9196C252.281 17.1711 253.943 16.2968 255.762 16.2968C257.186 16.2968 258.492 16.9962 259.678 18.395C260.944 19.6773 261.577 21.251 261.577 23.1161C261.577 24.1652 261.3 24.9812 260.746 25.564C260.193 26.1468 259.52 26.4383 258.729 26.4383C257.859 26.4383 257.028 26.0886 256.237 25.3892C254.496 25.5057 253.112 27.7788 252.083 32.2084C251.213 36.2883 250.778 39.6688 250.778 42.3499C250.778 45.7304 251.134 49.1691 251.846 52.6662C252.558 56.0467 253.468 59.1357 254.575 61.9334L257.186 68.9275L261.34 80.4678C262.447 83.7317 263.318 87.5202 263.95 91.8332C264.662 96.1462 265.018 100.518 265.018 104.947C265.018 112.058 263.911 118.819 261.696 125.23C260.588 128.494 259.006 131.117 256.949 133.098C254.971 135.08 252.756 136.071 250.303 136.071V136.595Z" fill="#E06E51"/>
<path d="M284.133 131.35L284.014 124.531C283.935 122.549 283.896 120.334 283.896 117.886L284.014 111.941C283.777 110.659 283.184 97.8948 282.234 73.6485C281.285 49.4023 280.731 33.8404 280.573 26.9628C275.984 26.7297 273.057 26.0303 271.791 24.8646C270.921 23.932 270.486 22.8829 270.486 21.7172C270.486 20.7847 270.881 19.9687 271.672 19.2693C272.543 18.4533 273.413 18.0453 274.283 18.0453C276.498 18.0453 279.188 18.2785 282.353 18.7447C285.359 19.3276 288.049 19.619 290.422 19.619H292.321C294.774 19.619 296 21.0178 296 23.8155C296 25.2143 295.604 26.38 294.813 27.3125C294.022 28.1285 293.112 28.5365 292.084 28.5365C291.372 28.5365 290.343 28.3616 288.998 28.0119L286.625 27.3125L286.388 29.0611C286.388 39.4357 287.06 55.9884 288.405 78.7192C289.671 100.051 290.304 116.604 290.304 128.377C290.304 129.776 289.869 131 288.998 132.049C288.207 133.098 287.297 133.623 286.269 133.623L284.133 131.35Z" fill="#E06E51"/>
</svg>
