<svg width="888" height="414" viewBox="0 0 888 414" fill="none" xmlns="http://www.w3.org/2000/svg">
<g clip-path="url(#clip0_1105_2019)">
<path d="M54.8259 410.836C48.1806 410.836 42.0096 408.565 36.3135 404.017C30.8544 399.472 26.1077 393.352 22.0728 385.657C18.5127 378.313 15.3086 369.046 12.4605 357.856C9.61236 346.315 7.47627 334.426 6.05223 322.186C3.20412 301.555 1.30538 274.452 0.356013 240.88C0.118671 232.837 0 219.024 0 199.44V166.393C0.237342 156.951 0.356013 147.159 0.356013 137.018C0.356013 116.385 1.18671 100.124 2.8481 88.2339C2.13608 82.9881 1.78007 77.5677 1.78007 71.9724C1.78007 50.9901 7.12026 34.0293 17.8006 21.0903C28.4811 8.1512 42.0096 1.68164 58.3863 1.68164C64.557 1.68164 70.2534 4.12958 75.4749 9.02546C80.6964 13.9213 83.307 20.0412 83.307 27.385C83.307 30.882 82.3578 33.6798 80.4591 35.778C78.5604 37.8762 76.1868 38.9253 73.3386 38.9253C70.9653 38.9253 68.3544 38.4009 65.5065 37.3515C62.8956 36.3024 61.2342 34.7289 60.5223 32.6307H55.8942V31.5816C47.1123 31.5816 39.7548 34.3791 33.8214 39.9744C29.5491 44.5206 26.2263 52.0392 23.8529 62.5305C22.9035 66.3771 22.1915 71.2731 21.7168 77.2182C21.2421 83.163 21.0048 88.5834 21.0048 93.4794C20.7674 96.2769 20.6488 101.872 20.6488 110.265L21.3608 128.625L21.7168 146.46C21.7168 151.705 21.2421 157.825 20.2927 164.819C19.106 173.562 18.5127 179.682 18.5127 183.179V195.768C18.5127 209.407 18.8687 228.116 19.5807 251.896C19.8181 271.829 21.3608 291.762 24.2089 311.695C26.345 330.229 30.3798 345.967 36.3135 358.906C42.0096 372.193 49.7232 378.838 59.4543 378.838C63.489 378.838 68.4732 375.691 74.4069 369.397C80.8149 363.103 85.3245 359.953 87.9354 359.953C91.2582 359.953 94.6995 362.578 98.2596 367.822C98.2596 380.761 94.9368 390.73 88.2912 397.723C82.1205 404.017 74.7627 408.04 66.2184 409.786C61.4715 410.488 57.6741 410.836 54.8259 410.836Z" fill="#E06E51"/>
<path d="M188.656 402.444C180.586 402.444 176.551 373.593 176.551 315.891L176.907 285.991L177.263 261.861V255.041C177.5 252.244 177.619 248.922 177.619 245.075C177.619 244.375 177.263 243.501 176.551 242.452C175.839 241.403 175.483 240.529 175.483 239.829V239.305C174.296 240.004 172.16 240.354 169.075 240.354C165.989 240.354 162.192 239.654 157.682 238.255C156.258 237.906 152.461 237.032 146.29 235.633V295.957C146.29 305.049 146.646 319.389 147.358 338.97C148.07 358.206 148.426 372.543 148.426 381.984C148.426 387.231 147.477 391.776 145.578 395.622C143.679 399.471 141.187 401.394 138.102 401.394C133.592 401.394 130.388 394.923 128.489 381.984C126.591 368.697 125.641 351.387 125.641 330.054L126.353 287.564C126.59 275.674 126.709 263.085 126.709 249.796V233.535C126.709 227.939 126.59 224.267 126.353 222.519V219.896L127.421 189.472C127.421 176.183 127.065 156.424 126.353 130.197C125.641 103.969 125.285 84.2103 125.285 70.9215C125.285 66.7251 126.235 63.0531 128.133 59.9058C130.032 56.7585 132.405 55.1847 135.254 55.1847C142.849 55.1847 146.646 65.676 146.646 86.6583L145.934 151.703C145.459 171.287 145.222 193.144 145.222 217.273C148.782 219.022 155.19 219.896 164.447 219.896H177.619C178.094 217.798 178.331 215.7 178.331 213.601C178.331 196.816 177.619 171.986 176.195 139.114C174.534 108.34 173.703 83.3361 173.703 64.1022C173.703 60.2556 174.652 57.1083 176.551 54.6603C178.687 51.8625 181.179 50.4639 184.028 50.4639C185.689 50.4639 188.062 51.3381 191.148 53.0865L194.352 55.1847C194.352 104.843 195.539 171.112 197.912 253.992L201.116 386.706C201.116 391.602 199.811 395.448 197.2 398.247C194.826 401.043 191.978 402.444 188.656 402.444Z" fill="#E06E51"/>
<path d="M260.234 409.264C257.148 409.264 254.3 407.689 251.689 404.542C249.316 401.395 248.01 397.549 247.773 393.001V368.872C247.536 365.725 247.417 362.053 247.417 357.856C247.417 350.512 247.061 339.322 246.349 324.286L245.637 290.713C245.637 273.578 245.993 248.049 246.705 214.127C247.654 183.703 248.129 158.175 248.129 137.542C248.129 132.646 247.773 125.302 247.061 115.511C246.349 105.369 245.993 98.0254 245.993 93.4792C245.993 68.65 250.977 56.2354 260.945 56.2354C268.778 56.2354 277.797 58.5085 288.002 63.0547C298.445 67.6009 303.668 73.0213 303.668 79.3162C303.668 82.8133 302.6 86.1355 300.464 89.2828C298.564 92.0803 296.191 94.3534 293.343 96.1021C283.374 90.8563 274.355 87.3592 266.286 85.6108C266.523 90.8563 266.642 98.3748 266.642 108.167C266.642 122.155 266.523 134.744 266.286 145.935C265.574 162.721 265.217 175.31 265.217 183.703L266.286 192.096L271.982 191.572C273.881 191.222 276.254 191.047 279.102 191.047C290.495 191.047 296.191 195.943 296.191 205.735C296.191 209.581 295.123 212.903 292.987 215.701C290.851 218.149 288.121 219.373 284.798 219.373C280.526 219.373 277.203 219.023 274.83 218.324H265.93C266.404 227.416 266.642 240.705 266.642 258.191C266.642 275.676 266.523 291.413 266.286 305.401C265.574 326.731 265.217 342.643 265.217 353.134C265.217 372.718 265.455 382.51 265.93 382.51L277.678 381.985C281.713 381.637 286.578 381.46 292.275 381.46C301.295 381.46 305.804 385.657 305.804 394.051C305.804 398.947 304.262 402.619 301.175 405.067C298.327 407.863 294.767 409.264 290.495 409.264H260.234Z" fill="#E06E51"/>
<path d="M392.737 409.784C387.514 409.784 381.937 408.563 376.003 406.115C370.309 404.015 365.917 401.567 362.83 398.771C346.93 383.732 338.977 342.641 338.977 275.499V232.485C338.977 218.497 339.097 206.082 339.334 195.241C339.571 184.051 340.048 171.986 340.759 159.047C341.47 145.408 342.538 134.393 343.963 126C345.388 117.257 347.761 107.465 351.082 96.6243C353.932 86.4828 357.373 78.6144 361.408 73.0191C365.68 67.4238 371.137 62.703 377.785 58.8561C383.716 55.0095 391.075 53.0859 399.856 53.0859C403.417 53.0859 406.147 54.3099 408.046 56.7579C409.945 59.2059 410.893 62.3532 410.893 66.2001C410.893 69.6969 410.062 72.8445 408.4 75.642C406.978 78.4398 405.196 80.0133 403.06 80.3631H386.329C381.58 80.3631 377.428 84.7344 373.867 93.477C370.309 102.22 367.816 113.585 366.391 127.573C363.307 153.452 361.762 174.434 361.762 190.52V193.143L361.051 243.501C360.577 258.538 360.34 275.499 360.34 294.383C360.34 307.67 360.694 318.512 361.408 326.906C362.593 339.494 364.612 349.985 367.459 358.379C370.309 367.82 375.172 374.639 382.057 378.836C385.615 380.936 389.533 381.983 393.805 381.983C396.415 381.983 399.025 380.585 401.638 377.786C404.722 377.786 407.215 378.836 409.114 380.936C411.25 382.682 412.318 385.481 412.318 389.327C412.318 402.965 405.79 409.784 392.737 409.784Z" fill="#E06E51"/>
<path d="M528.485 411.359C523.025 411.359 517.211 402.617 511.04 385.13C501.782 358.904 492.647 315.716 483.626 255.565C481.016 239.129 478.88 223.917 477.218 209.928C468.674 235.107 464.402 265.532 464.402 301.202V398.246C464.402 406.289 462.029 410.309 457.283 410.309C453.722 410.309 450.755 408.737 448.382 405.59C446.246 402.791 445.178 398.771 445.178 393.524V234.583C445.178 219.196 446.363 190.869 448.736 149.604C451.112 113.585 452.297 85.2583 452.297 64.6258C454.196 57.9814 457.637 54.6592 462.623 54.6592C465.707 54.6592 468.317 56.2327 470.453 59.3803C472.589 62.5276 473.657 66.3742 473.657 70.9204V72.4942C470.573 80.1877 469.031 112.011 469.031 167.964V186.848L482.201 148.555C490.271 123.726 497.867 102.394 504.986 84.559C511.634 67.0738 516.497 58.3312 519.584 58.3312C523.382 58.3312 526.586 59.5549 529.196 62.0029C532.043 64.4509 533.468 67.948 533.468 72.4942L524.924 93.4765C507.122 135.791 497.156 160.27 495.02 166.915C495.02 172.859 494.9 178.105 494.663 182.651L494.306 198.388C494.306 213.425 498.341 241.577 506.411 282.842C514.718 323.759 521.6 350.861 527.06 364.148L531.689 373.592C536.198 382.682 538.454 390.728 538.454 397.721C538.454 401.567 537.386 404.714 535.247 407.162C533.351 409.961 531.095 411.359 528.485 411.359Z" fill="#E06E51"/>
<path d="M623.757 410.834C615.213 406.637 604.653 404.54 592.071 404.54C588.276 408.038 584.241 409.784 579.969 409.784C577.119 409.784 574.629 407.861 572.493 404.015C570.594 400.517 569.643 396.671 569.643 392.474C569.643 363.101 570.474 323.933 572.136 274.974C573.561 222.867 574.272 183.875 574.272 157.997V154.325C572.847 132.294 572.136 115.858 572.136 105.017C572.136 71.7946 576.288 55.1836 584.595 55.1836C586.971 55.1836 588.987 56.5825 590.649 59.3803C592.548 61.828 593.496 64.8007 593.496 68.2978C593.496 72.4942 593.142 79.1386 592.428 88.231C591.717 96.9736 591.36 103.618 591.36 108.164C591.36 131.594 591.48 152.752 591.717 171.635C591.954 190.17 592.071 211.152 592.071 234.583C590.886 239.828 590.292 247.172 590.292 256.614V262.909L589.581 304.349C589.107 316.589 588.867 330.578 588.867 346.313C588.867 370.445 592.785 382.508 600.618 382.508C601.092 382.508 601.803 382.508 602.754 382.508C603.939 382.16 605.481 381.983 607.38 381.983C609.516 381.635 612.246 381.458 615.57 381.458C628.386 381.458 634.794 386.705 634.794 397.196C634.794 400.694 633.726 403.667 631.59 406.115C629.454 408.563 626.844 410.135 623.757 410.834Z" fill="#E06E51"/>
<path d="M681.99 401.918C661.341 401.918 651.018 396.671 651.018 386.18C651.018 377.786 654.696 373.592 662.055 373.592H665.97L669.531 374.117C671.43 374.117 672.735 373.241 673.446 371.492C674.157 369.743 674.514 366.596 674.514 362.051C674.514 356.105 674.277 346.838 673.803 334.25C673.089 325.856 672.261 310.82 671.31 289.137C669.174 235.632 668.106 195.241 668.106 167.964C668.106 158.173 668.226 149.255 668.463 141.212L668.817 114.459C668.817 102.919 668.463 93.3021 667.749 85.6086C663.954 87.0075 661.224 87.7068 659.562 87.7068C653.865 87.7068 651.018 83.5104 651.018 75.1176C651.018 70.9209 652.797 67.2492 656.358 64.1016C659.919 60.9543 664.428 58.6812 669.885 57.2823C679.38 54.4848 687.807 53.0859 695.163 53.0859C698.01 53.0859 700.386 54.6597 702.282 57.807C704.418 60.6048 705.489 63.927 705.489 67.7736C705.489 71.6205 704.658 74.9427 702.996 77.7402C701.571 80.538 699.672 81.9366 697.299 81.9366C695.874 81.9366 694.689 81.762 693.738 81.4122H690.891C688.518 81.4122 686.736 82.2864 685.551 84.0348C684.6 85.4337 684.126 88.2315 684.126 92.4279C684.126 126.349 685.551 177.406 688.398 245.599C688.875 258.188 689.823 276.723 691.248 301.202C692.433 317.288 693.027 333.725 693.027 350.51V370.445C694.452 370.094 696.825 369.92 700.146 369.92C710.115 369.92 715.101 376.04 715.101 388.28V391.427L706.2 400.343C705.963 400.343 705.132 400.517 703.707 400.868C702.522 400.868 700.146 400.868 696.588 400.868C688.992 401.567 684.126 401.918 681.99 401.918Z" fill="#E06E51"/>
<path d="M750.909 409.785C746.637 408.738 742.959 406.464 739.872 402.966C737.025 399.471 735.363 394.923 734.889 389.328L738.804 380.412C740.229 380.412 742.485 381.111 745.569 382.509C749.13 383.559 751.86 384.084 753.759 384.084C758.031 384.084 761.829 381.285 765.15 375.69C768.711 370.095 771.321 362.751 772.983 353.658C776.067 336.873 777.612 321.837 777.612 308.547C777.612 285.466 772.626 261.162 762.657 235.633L758.742 225.667C754.233 214.126 750.435 203.81 747.351 194.718C744.264 185.626 741.654 175.834 739.518 165.343C736.668 151.704 735.246 138.066 735.246 124.427C735.246 109.04 737.619 92.9534 742.365 76.1678C744.738 68.1245 748.062 61.655 752.334 56.759C756.843 51.5135 761.829 48.8906 767.286 48.8906C771.558 48.8906 775.476 50.9888 779.034 55.1852C782.832 59.0321 784.731 63.7532 784.731 69.3485C784.731 72.4958 783.9 74.9438 782.238 76.6922C780.579 78.4406 778.56 79.3151 776.187 79.3151C773.577 79.3151 771.084 78.266 768.711 76.1678C763.488 76.5173 759.336 83.3366 756.249 96.6254C753.639 108.865 752.334 119.007 752.334 127.05C752.334 137.191 753.402 147.508 755.538 157.999C757.674 168.14 760.404 177.407 763.725 185.8L771.558 206.783L784.02 241.404C787.341 251.195 789.954 262.561 791.85 275.5C793.986 288.439 795.054 301.554 795.054 314.841C795.054 336.174 791.733 356.457 785.088 375.69C781.764 385.482 777.018 393.351 770.847 399.294C764.913 405.24 758.268 408.213 750.909 408.213V409.785Z" fill="#E06E51"/>
<path d="M852.4 394.049L852.043 373.592C851.806 367.646 851.689 361.001 851.689 353.657L852.043 335.822C851.332 331.976 849.553 293.683 846.703 220.944C843.856 148.206 842.194 101.52 841.72 80.8873C827.953 80.188 819.172 78.0898 815.374 74.5927C812.764 71.7949 811.459 68.6476 811.459 65.1505C811.459 62.353 812.644 59.905 815.017 57.8068C817.63 55.3588 820.24 54.1348 822.85 54.1348C829.495 54.1348 837.565 54.8344 847.06 56.233C856.078 57.9817 864.148 58.8559 871.267 58.8559H876.964C884.323 58.8559 888.001 63.0523 888.001 71.4454C888.001 75.6418 886.813 79.1389 884.44 81.9364C882.067 84.3844 879.337 85.6084 876.253 85.6084C874.117 85.6084 871.03 85.0837 866.995 84.0346L859.876 81.9364L859.165 87.1822C859.165 118.306 861.181 167.964 865.216 236.156C869.014 300.152 870.913 349.811 870.913 385.13C870.913 389.327 869.608 392.999 866.995 396.146C864.622 399.293 861.892 400.868 858.808 400.868L852.4 394.049Z" fill="#E06E51"/>
</g>
<defs>
<clipPath id="clip0_1105_2019">
<rect width="888" height="414" fill="white"/>
</clipPath>
</defs>
</svg>
