<svg width="320" height="158" viewBox="0 0 320 158" fill="none" xmlns="http://www.w3.org/2000/svg">
<path d="M304.079 2.42881C303.992 1.54947 303.284 0.831055 302.4 0.831055H17.6C16.7163 0.831055 16.0084 1.54947 15.9212 2.42881C15.1716 9.98968 9.15863 16.0027 1.59776 16.7523C0.718416 16.8395 0 17.5474 0 18.4311V140.031C0 140.915 0.718416 141.623 1.59776 141.71C9.15863 142.459 15.1716 148.472 15.9212 156.033C16.0084 156.913 16.7163 157.631 17.6 157.631H302.4C303.284 157.631 303.992 156.913 304.079 156.033C304.828 148.472 310.841 142.459 318.402 141.71C319.282 141.623 320 140.915 320 140.031V18.4311C320 17.5474 319.282 16.8395 318.402 16.7523C310.841 16.0027 304.828 9.98968 304.079 2.42881Z" fill="#E7B545"/>
<path d="M21.9208 6.33184H298.081C298.561 6.33184 299.009 6.73355 299.072 7.30513C299.878 14.6863 305.942 20.5189 313.534 21.2702C314.099 21.3261 314.501 21.7709 314.501 22.2522V136.211C314.501 136.693 314.099 137.138 313.534 137.193C305.942 137.945 299.878 143.777 299.072 151.159C299.009 151.73 298.561 152.132 298.081 152.132H21.9208C21.4408 152.132 20.9924 151.73 20.9299 151.159C20.1238 143.777 14.0593 137.945 6.46735 137.193C5.90235 137.138 5.50078 136.693 5.50078 136.211V22.2522C5.50078 21.7709 5.90235 21.3261 6.46735 21.2702C14.0593 20.5189 20.1238 14.6863 20.9299 7.30513C20.9924 6.73355 21.4408 6.33184 21.9208 6.33184Z" fill="#E7B545"/>
<path d="M21.9208 6.33184H298.081C298.561 6.33184 299.009 6.73355 299.072 7.30513C299.878 14.6863 305.942 20.5189 313.534 21.2702C314.099 21.3261 314.501 21.7709 314.501 22.2522V136.211C314.501 136.693 314.099 137.138 313.534 137.193C305.942 137.945 299.878 143.777 299.072 151.159C299.009 151.73 298.561 152.132 298.081 152.132H21.9208C21.4408 152.132 20.9924 151.73 20.9299 151.159C20.1238 143.777 14.0593 137.945 6.46735 137.193C5.90235 137.138 5.50078 136.693 5.50078 136.211V22.2522C5.50078 21.7709 5.90235 21.3261 6.46735 21.2702C14.0593 20.5189 20.1238 14.6863 20.9299 7.30513C20.9924 6.73355 21.4408 6.33184 21.9208 6.33184Z" stroke="#E7B545" stroke-width="1.4"/>
<path d="M21.9208 6.33184H298.081C298.561 6.33184 299.009 6.73355 299.072 7.30513C299.878 14.6863 305.942 20.5189 313.534 21.2702C314.099 21.3261 314.501 21.7709 314.501 22.2522V136.211C314.501 136.693 314.099 137.138 313.534 137.193C305.942 137.945 299.878 143.777 299.072 151.159C299.009 151.73 298.561 152.132 298.081 152.132H21.9208C21.4408 152.132 20.9924 151.73 20.9299 151.159C20.1238 143.777 14.0593 137.945 6.46735 137.193C5.90235 137.138 5.50078 136.693 5.50078 136.211V22.2522C5.50078 21.7709 5.90235 21.3261 6.46735 21.2702C14.0593 20.5189 20.1238 14.6863 20.9299 7.30513C20.9924 6.73355 21.4408 6.33184 21.9208 6.33184Z" stroke="white" stroke-opacity="0.5" stroke-width="1.4"/>
</svg>
