<svg width="888" height="567" viewBox="0 0 888 567" fill="none" xmlns="http://www.w3.org/2000/svg">
<path d="M861.091 1.12793H26.9091C12.0476 1.12793 0 13.1755 0 28.037V539.311C0 554.172 12.0476 566.22 26.9091 566.22H861.091C875.952 566.22 888 554.172 888 539.311V28.037C888 13.1755 875.952 1.12793 861.091 1.12793Z" fill="#9AE6EA"/>
<path d="M861.091 1.12793H26.9091C12.0476 1.12793 0 13.1755 0 28.037V539.311C0 554.172 12.0476 566.22 26.9091 566.22H861.091C875.952 566.22 888 554.172 888 539.311V28.037C888 13.1755 875.952 1.12793 861.091 1.12793Z" fill="black" fill-opacity="0.05"/>
<path fill-rule="evenodd" clip-rule="evenodd" d="M45.7454 168.577C38.3147 168.577 32.291 174.601 32.291 182.032V262.759C32.291 270.19 38.3147 276.214 45.7454 276.214H842.256C849.684 276.214 855.708 270.19 855.708 262.759V182.032C855.708 174.601 849.684 168.577 842.256 168.577H45.7454ZM91.4909 249.155C106.353 249.155 118.4 237.107 118.4 222.246C118.4 207.385 106.353 195.337 91.4909 195.337C76.6295 195.337 64.5818 207.385 64.5818 222.246C64.5818 237.107 76.6295 249.155 91.4909 249.155Z" fill="white" fill-opacity="0.3"/>
<path fill-rule="evenodd" clip-rule="evenodd" d="M45.7454 295.802C38.3147 295.802 32.291 301.827 32.291 309.255V389.985C32.291 397.413 38.3147 403.437 45.7454 403.437H842.256C849.684 403.437 855.708 397.413 855.708 389.985V309.255C855.708 301.827 849.684 295.802 842.256 295.802H45.7454ZM91.4909 376.38C106.353 376.38 118.4 364.332 118.4 349.47C118.4 334.608 106.353 322.563 91.4909 322.563C76.6295 322.563 64.5818 334.608 64.5818 349.47C64.5818 364.332 76.6295 376.38 91.4909 376.38Z" fill="white" fill-opacity="0.3"/>
<path fill-rule="evenodd" clip-rule="evenodd" d="M45.7454 425.985C38.3147 425.985 32.291 432.009 32.291 439.437V520.167C32.291 527.595 38.3147 533.619 45.7454 533.619H842.256C849.684 533.619 855.708 527.595 855.708 520.167V439.437C855.708 432.009 849.684 425.985 842.256 425.985H45.7454ZM91.4909 506.562C106.353 506.562 118.4 494.514 118.4 479.652C118.4 464.79 106.353 452.745 91.4909 452.745C76.6295 452.745 64.5818 464.79 64.5818 479.652C64.5818 494.514 76.6295 506.562 91.4909 506.562Z" fill="white" fill-opacity="0.3"/>
<path d="M46.5621 101.004C45.6579 100.875 44.7537 100.616 43.9143 100.293C38.8122 98.162 35.9706 92.5436 34.5498 87.506C33.4521 83.825 33.0645 79.9502 33.0645 76.1396C33.0645 68.7773 34.4853 62.8358 37.779 56.4422C41.0727 49.9196 45.7223 46.4321 51.0182 46.4321C56.4431 46.4321 61.2867 51.1466 63.0306 55.9901C63.741 57.9278 63.8699 59.4776 63.3533 60.2525C62.5136 61.3505 60.5762 61.6733 59.543 60.7046C58.8971 60.1235 58.6388 59.1548 58.316 58.3796C57.9284 57.4757 57.5408 56.5715 56.8952 55.7318C55.6679 53.9237 53.4077 51.7925 51.0827 51.7925C48.6932 51.7277 46.2393 53.1485 44.3664 55.7318C42.9456 57.6047 41.1372 61.2212 40.1685 64.1921C38.7477 68.519 38.0373 73.169 38.2311 77.7542C38.4249 82.0814 39.2643 86.9894 41.46 90.7997C43.5267 94.3517 47.7246 97.4516 51.7932 95.3852C54.1182 94.2872 56.5077 91.4456 58.5096 87.3125C59.2848 85.7624 61.0283 81.1772 61.4159 79.5626L61.5449 78.9812H55.4745C48.9516 78.9812 48.564 78.9167 47.8536 77.8835C47.4018 77.2376 47.4018 75.9461 47.8536 75.1064C48.435 73.9439 48.8226 73.8794 57.3474 73.8794C64.6449 73.8794 65.097 73.8794 65.7429 74.267C66.1305 74.5253 66.5825 75.0419 66.8408 75.494C67.2281 76.2689 67.2281 76.7855 67.0991 87.3125C66.9698 99.5828 67.0344 99.26 65.5491 100.1C64.2576 100.81 62.7075 100.164 62.0616 98.6141C61.8681 98.162 61.7387 96.9998 61.7387 95.1914V92.4788L60.8994 93.8996C60.3825 94.61 59.0909 96.1601 57.9284 97.2581C54.9575 100.229 50.6307 101.714 46.5621 101.004ZM93.5706 63.5462C98.6727 68.2607 100.933 77.3021 99.1892 85.9562C99.1892 86.0852 99.1244 86.15 99.1244 86.279C97.5746 93.6413 91.8915 102.747 83.0439 100.745C80.2023 100.1 77.9417 98.2913 76.2626 96.0308C69.4169 86.9249 70.7733 70.2629 78.975 63.3524C83.5604 59.4776 89.1789 59.5421 93.5706 63.5462ZM94.2164 84.0833C94.6685 81.4355 94.5392 77.1086 93.8933 74.5253C92.9246 70.7795 90.7934 67.4858 88.4684 66.3878C84.1415 64.1921 79.4271 68.519 77.619 76.2689C76.3272 81.9521 76.8437 90.0893 81.623 94.0934C88.5332 99.9059 93.2477 89.5727 94.2164 84.0833ZM128.47 83.8895C128.664 96.935 128.6 98.2913 128.277 98.9372C127.372 100.681 124.854 100.616 123.82 98.8724C123.498 98.3558 123.433 97.5164 123.304 93.4478L123.239 88.6685L122.077 90.9935C119.816 95.4497 117.492 98.2268 114.779 99.4538C107.029 103.135 103.8 93.8351 103.219 87.9581C102.573 80.7896 104.833 71.6189 108.579 66.5816C111.485 62.642 114.069 61.0922 117.75 61.0922C119.946 61.0922 121.496 61.5443 123.433 62.8358C126.791 65.0318 128.341 68.8421 128.406 72.7169C128.406 74.3315 128.406 75.9461 128.406 77.5604C128.47 79.6271 128.47 81.7583 128.47 83.8895ZM119.946 82.4687C122.012 76.9148 123.046 73.4273 123.046 71.8772C123.046 67.8734 118.783 65.0318 115.619 66.9044C111.421 69.3587 108.127 78.4001 108.45 86.4083C108.515 88.1519 108.902 94.61 111.421 94.8686C111.937 94.9331 112.519 94.7393 112.971 94.4165C116.716 92.0915 118.525 86.3438 119.946 82.4687ZM137.491 99.7121C137.039 99.4538 136.652 99.0662 136.458 98.4851C136.07 96.6122 136.2 94.61 136.2 92.7374C136.135 87.4415 136.2 82.2104 136.2 76.9148C136.2 76.1396 136.2 75.3647 136.2 74.5898C136.2 48.2405 136.329 41.9114 136.781 41.0717C137.362 39.974 138.976 39.5219 140.268 40.1678C140.591 40.2968 140.979 40.8134 141.237 41.2655C141.56 42.0404 141.625 43.3967 141.495 70.0046C141.431 76.0106 141.431 82.0166 141.366 88.0229C141.366 90.7997 141.366 93.6413 141.172 96.4184C141.108 97.1933 141.172 98.4206 140.72 99.0662C140.074 99.9704 138.589 100.164 137.491 99.7121ZM156.084 100.422C152.596 99.9059 149.303 98.2913 147.172 95.708C146.784 95.2559 146.396 94.7393 146.267 94.1582C146.074 93.0602 146.655 91.9622 147.753 91.4456C148.915 90.8645 149.884 91.1873 151.498 92.6726C154.082 95.0621 158.086 96.0308 161.444 94.9331C165.19 93.7706 166.546 90.4124 164.544 86.9894C163.898 85.8917 163.059 84.923 162.154 84.0188C160.863 82.7918 159.248 81.5645 156.859 79.9502C154.598 78.4646 152.015 76.85 150.465 74.5898C148.14 71.2316 148.657 66.7109 151.563 63.9338C153.888 61.6733 157.246 60.7046 160.475 61.0277C163.511 61.286 166.481 62.642 168.484 64.9025C168.806 65.2253 169.065 65.6129 169.323 65.9357C169.711 66.5171 170.098 67.163 170.227 67.8734C170.356 68.5838 170.292 69.3587 169.84 69.9398C169.194 70.7795 167.902 71.0378 166.869 70.5857C165.642 70.1336 164.996 68.9066 164.092 68.1317C162.994 67.0982 161.509 66.3878 160.023 66.194C158.021 65.9357 155.503 66.3878 154.598 68.4545C153.048 71.942 157.957 74.396 160.152 75.9461C165.383 79.4981 167.902 82.0166 169.581 85.2458C171.777 89.5727 171.131 93.8996 167.773 97.1933C164.802 100.1 160.282 101.068 156.084 100.422Z" fill="white"/>
</svg>
