<svg width="296" height="138" viewBox="0 0 296 138" fill="none" xmlns="http://www.w3.org/2000/svg">
<path d="M115.896 137.115C109.982 137.115 107.025 133.206 107.025 125.388V101.178C107.025 94.8734 106.357 86.6142 105.022 76.4006C103.496 64.926 102.733 57.0451 102.733 52.7579L103.305 41.0312C103.686 37.6266 103.877 33.7807 103.877 29.4935C103.114 31.1328 99.9663 39.8333 94.4338 55.595C88.9014 70.8524 83.1781 84.975 77.2641 97.9627C71.5408 110.446 66.8668 116.688 63.2421 116.688C59.6173 116.688 56.6603 115.994 54.371 114.607C52.2725 113.094 51.2232 111.076 51.2232 108.555C51.2232 103.006 47.7892 91.2166 40.9213 73.1852C34.2442 55.1537 28.1394 40.4007 22.6069 28.9261L20.8899 50.2991C19.3637 68.3306 18.3144 83.3358 17.7421 95.3147C17.3606 106.915 17.1698 114.859 17.1698 119.147C17.1698 120.155 17.2652 121.101 17.456 121.984V124.632C17.456 126.775 16.7882 128.351 15.4528 129.36C14.1174 130.495 11.6373 131.062 8.01257 131.062C6.10481 131.062 4.29245 130.558 2.57547 129.549C0.858489 128.667 0 127.658 0 126.523C0 113.661 1.43082 94.369 4.29245 68.6458C7.15408 42.9226 8.58489 23.6302 8.58489 10.7686C7.44024 9.63371 6.86792 8.43582 6.86792 7.17487C6.86792 5.66174 7.91718 4.5269 10.0157 3.77033C12.305 2.88767 14.9759 2.44634 18.0283 2.44634C20.5084 2.44634 25.087 8.37277 31.7641 20.2256C38.4412 32.0785 45.1184 45.5075 51.7955 60.5127C58.4727 75.5179 62.7651 86.362 64.6729 93.045C66.1991 89.6405 67.4391 86.4881 68.393 83.5879L70.11 79.0486C76.2148 61.3954 82.3196 45.4445 88.4244 31.1958C92.0492 22.4953 95.5785 15.6862 99.0125 10.7686C102.446 5.4726 105.594 2.82462 108.456 2.82462C111.127 2.82462 113.511 3.329 115.61 4.33775C117.899 5.22042 119.044 6.41831 119.044 7.93144C119.044 17.0102 119.616 30.6284 120.761 48.786C122.096 65.6826 122.764 78.7964 122.764 88.1273L122.478 98.1518L121.906 108.176C121.906 109.689 122.192 111.959 122.764 114.985L123.622 121.605C123.813 122.74 123.909 123.623 123.909 124.253C124.099 124.884 124.195 125.262 124.195 125.388C125.149 127.027 125.626 128.225 125.626 128.982C125.626 131.125 124.672 133.017 122.764 134.656C120.856 136.295 118.567 137.115 115.896 137.115Z" fill="#186F81"/>
<path d="M217.354 128.982C212.966 128.982 209.723 128.541 207.625 127.658C205.526 126.775 204.477 125.136 204.477 122.74C204.477 118.957 203.523 112.527 201.615 103.448L200.471 99.4758L172.141 96.6387C170.996 99.5389 169.374 105.402 167.276 114.229C166.131 120.407 164.319 124.506 161.839 126.523C160.503 127.658 158.595 128.225 156.115 128.225C153.826 128.225 151.728 127.784 149.82 126.901C147.912 125.893 146.958 124.695 146.958 123.308L147.531 122.362L147.817 121.605C160.408 89.1991 169.947 57.2343 176.433 25.7107C176.433 25.2063 176.528 24.3867 176.719 23.2519C176.91 21.9909 177.101 20.2256 177.291 17.9559C177.864 13.2904 178.436 9.57067 179.008 6.79659C179.772 4.02252 180.916 1.94196 182.442 0.554932H192.172C194.843 0.554932 197.132 0.996259 199.04 1.87891C200.948 2.63549 201.902 3.77033 201.902 5.28346C201.902 14.8666 203.905 29.1153 207.911 48.0294C211.726 67.4479 213.634 81.0661 213.634 88.8839C213.634 89.6405 214.111 91.5949 215.065 94.7473C216.019 97.6474 216.496 99.5389 216.496 100.422C216.496 101.304 217.45 105.087 219.357 111.77C221.074 117.823 221.933 121.731 221.933 123.497V123.686C221.933 126.46 220.407 128.225 217.354 128.982ZM198.468 92.6667C197.895 90.7753 197.609 88.4426 197.609 85.6685C197.609 74.32 196.083 59.8192 193.03 42.166L190.169 22.4953C181.965 52.1275 176.338 74.5092 173.285 89.6405C176.147 90.9014 184.541 91.9102 198.468 92.6667Z" fill="#186F81"/>
<path d="M269.959 129.928C266.716 129.928 264.045 128.541 261.947 125.766C264.045 123.118 265.094 112.4 265.094 93.6124C265.094 89.1991 264.617 84.4076 263.664 79.2377L262.805 73.7526C262.233 70.3481 261.947 67.7631 261.947 65.9978V61.0801C260.039 57.9278 256.509 52.0644 251.359 43.49C246.398 34.9156 242.392 27.7282 239.34 21.9279C235.715 15.2449 233.903 10.7055 233.903 8.30972V7.36402L240.484 4.14861C243.728 4.4008 247.161 7.17487 250.786 12.4708C253.839 17.1363 257.177 23.8193 260.802 32.5198C264.617 41.2203 266.525 45.8227 266.525 46.3271C267.288 44.9401 268.815 40.2115 271.104 32.1415C273.393 24.0715 275.969 16.9472 278.83 10.7686C282.073 4.58994 285.412 1.50064 288.846 1.50064C290.754 1.50064 292.375 1.87892 293.711 2.63548C295.237 3.39204 296 4.33775 296 5.4726C296 11.9034 293.329 20.9822 287.987 32.7089C282.264 45.4445 279.403 54.6493 279.403 60.3236V117.255C279.403 125.703 276.255 129.928 269.959 129.928Z" fill="#186F81"/>
</svg>
