<svg width="888" height="414" viewBox="0 0 888 414" fill="none" xmlns="http://www.w3.org/2000/svg">
<path d="M347.688 411.345C329.946 411.345 321.075 399.618 321.075 376.164V303.534C321.075 284.62 319.071 259.842 315.066 229.202C310.488 194.778 308.199 171.135 308.199 158.274L309.915 123.093C311.058 112.88 311.631 101.342 311.631 88.4803C309.342 93.3982 299.899 119.5 283.301 166.785C266.704 212.557 249.534 254.925 231.792 293.888C214.622 331.338 200.6 350.064 189.726 350.064C178.852 350.064 169.981 347.982 163.113 343.821C156.817 339.282 153.67 333.228 153.67 325.665C153.67 309.018 143.368 273.65 122.764 219.555C102.733 165.461 84.4182 121.202 67.8207 86.7781L62.6697 150.897C58.0911 204.992 54.9432 250.007 53.2263 285.944C52.0818 320.745 51.5094 344.577 51.5094 357.441C51.5094 360.465 51.7956 363.303 52.368 365.952V373.896C52.368 380.325 50.3646 385.053 46.3584 388.08C42.3522 391.485 34.9119 393.186 24.0377 393.186C18.3144 393.186 12.8773 391.674 7.72641 388.647C2.57547 386.001 0 382.974 0 379.569C0 340.983 4.29246 283.107 12.8773 205.937C21.4622 128.768 25.7547 70.8904 25.7547 32.3056C22.3207 28.901 20.6038 25.3073 20.6038 21.5245C20.6038 16.9851 23.7515 13.5805 30.0471 11.3108C36.915 8.66286 44.9277 7.33887 54.0849 7.33887C61.5252 7.33887 75.261 25.1182 95.2923 60.6766C115.324 96.2353 135.355 136.522 155.387 181.538C175.418 226.554 188.295 259.086 194.019 279.135C198.597 268.921 202.317 259.464 205.179 250.764L210.33 237.146C228.644 184.186 246.959 136.333 265.273 93.5872C276.148 67.4857 286.736 47.0584 297.037 32.3056C307.338 16.4176 316.782 8.47371 325.368 8.47371C333.381 8.47371 340.533 9.98685 346.83 13.0131C353.697 15.6611 357.132 19.2548 357.132 23.7942C357.132 51.0304 358.848 91.885 362.283 146.358C366.288 197.048 368.292 236.389 368.292 264.382L367.434 294.455L365.718 324.528C365.718 329.067 366.576 335.877 368.292 344.955L370.866 364.815C371.439 368.22 371.727 370.869 371.727 372.759C372.297 374.652 372.585 375.786 372.585 376.164C375.447 381.081 376.878 384.675 376.878 386.946C376.878 393.375 374.016 399.051 368.292 403.968C362.568 408.885 355.701 411.345 347.688 411.345Z" fill="#186F81"/>
<path d="M652.062 386.945C638.898 386.945 629.169 385.622 622.875 382.973C616.578 380.324 613.431 375.407 613.431 368.219C613.431 356.87 610.569 337.58 604.845 310.343L601.413 298.427L516.423 289.915C512.988 298.616 508.122 316.205 501.828 342.686C498.393 361.22 492.957 373.517 485.517 379.568C481.509 382.973 475.785 384.674 468.345 384.674C461.478 384.674 455.184 383.351 449.46 380.702C443.736 377.678 440.874 374.084 440.874 369.923L442.593 367.085L443.451 364.814C481.224 267.597 509.841 171.702 529.299 77.1314C529.299 75.6182 529.584 73.1594 530.157 69.755C530.73 65.972 531.303 60.6761 531.873 53.867C533.592 39.8705 535.308 28.7113 537.024 20.389C539.316 12.0668 542.748 5.82515 547.326 1.66406H576.516C584.529 1.66406 591.396 2.98804 597.12 5.636C602.844 7.90574 605.706 11.3103 605.706 15.8496C605.706 44.5991 611.715 87.3452 623.733 144.087C635.178 202.343 640.902 243.198 640.902 266.651C640.902 268.921 642.333 274.784 645.195 284.241C648.057 292.941 649.488 298.616 649.488 301.265C649.488 303.911 652.35 315.26 658.071 335.309C663.222 353.468 665.799 365.192 665.799 370.49V371.057C665.799 379.379 661.221 384.674 652.062 386.945ZM595.404 277.999C593.685 272.325 592.827 265.327 592.827 257.005C592.827 222.959 588.249 179.457 579.09 126.497L570.507 67.4852C545.895 156.382 529.014 223.527 519.855 268.921C528.441 272.703 553.623 275.73 595.404 277.999Z" fill="#186F81"/>
<path d="M809.877 389.785C800.148 389.785 792.134 385.624 785.84 377.299C792.134 369.355 795.281 337.201 795.281 280.838C795.281 267.598 793.851 253.224 790.992 237.714L788.414 221.259C786.698 211.045 785.84 203.29 785.84 197.994V183.241C780.116 173.784 769.526 156.194 754.076 130.471C739.193 104.748 727.175 83.1856 718.019 65.7847C707.144 45.7357 701.708 32.1175 701.708 24.9302V22.0931L721.451 12.4468C731.183 13.2034 741.482 21.5256 752.357 37.4134C761.516 51.4099 771.531 71.4589 782.406 97.5604C793.851 123.662 799.574 137.469 799.574 138.982C801.863 134.821 806.445 120.635 813.312 96.4255C820.179 72.2155 827.906 50.8426 836.489 32.3068C846.218 13.7708 856.236 4.50293 866.538 4.50293C872.262 4.50293 877.124 5.63777 881.132 7.90745C885.71 10.1771 887.999 13.0143 887.999 16.4188C887.999 35.7112 879.986 62.9476 863.96 98.1277C846.791 136.335 838.209 163.949 838.209 180.972V351.766C838.209 377.11 828.765 389.785 809.877 389.785Z" fill="#186F81"/>
</svg>
