<svg width="280" height="314" viewBox="0 0 280 314" fill="none" xmlns="http://www.w3.org/2000/svg">
<path d="M280 140.054C280 198.463 244.231 248.518 193.402 269.508C185.409 272.809 195.806 311.948 187.148 313.731C177.981 315.618 149.725 280.054 140 280.054C62.6801 280.054 0 217.374 0 140.054C0 62.7338 62.6801 0.0537109 140 0.0537109C217.32 0.0537109 280 62.7338 280 140.054Z" fill="#E7B545"/>
<path d="M140 278.129C63.743 278.129 1.9244 216.311 1.9244 140.054C1.9244 63.7967 63.743 1.97811 140 1.97811C216.257 1.97811 278.076 63.7967 278.076 140.054C278.076 197.657 242.801 247.026 192.668 267.73C190.937 268.444 189.958 270.025 189.382 271.634C188.796 273.269 188.497 275.281 188.35 277.429C188.067 281.562 188.324 286.701 188.572 291.679L188.602 292.284C188.863 297.536 189.09 302.549 188.737 306.356C188.56 308.267 188.249 309.707 187.819 310.666C187.398 311.604 187.007 311.795 186.76 311.846C186.242 311.952 185.275 311.827 183.714 311.087C182.213 310.375 180.437 309.227 178.436 307.726C174.437 304.725 169.813 300.524 165.085 296.183C164.744 295.869 164.402 295.555 164.06 295.241C159.702 291.236 155.297 287.188 151.378 284.074C149.263 282.394 147.235 280.942 145.386 279.901C143.59 278.89 141.726 278.129 140 278.129Z" stroke="black" stroke-opacity="0.1" stroke-width="3.8488"/>
</svg>
