<svg width="840" height="942" viewBox="0 0 840 942" fill="none" xmlns="http://www.w3.org/2000/svg">
<g clip-path="url(#clip0_1105_2301)">
<path d="M840 420.159C840 595.386 732.693 745.551 580.206 808.521C556.227 818.424 587.418 935.841 561.444 941.19C533.943 946.851 449.175 840.159 420 840.159C188.04 840.159 0 652.119 0 420.159C0 188.198 188.04 0.158203 420 0.158203C651.96 0.158203 840 188.198 840 420.159Z" fill="#E7B545"/>
<path d="M420.001 834.388C191.23 834.388 5.77441 648.934 5.77441 420.163C5.77441 191.391 191.23 5.93555 420.001 5.93555C648.772 5.93555 834.229 191.391 834.229 420.163C834.229 592.972 728.404 741.079 578.005 803.191C572.812 805.333 569.875 810.076 568.147 814.903C566.389 819.808 565.492 825.844 565.051 832.288C564.202 844.687 564.973 860.104 565.717 875.038L565.807 876.853C566.59 892.609 567.271 907.648 566.212 919.069C565.681 924.802 564.748 929.122 563.458 931.999C562.195 934.813 561.022 935.386 560.281 935.539C558.727 935.857 555.826 935.482 551.143 933.262C546.64 931.126 541.312 927.682 535.309 923.179C523.312 914.176 509.44 901.573 495.256 888.55C494.233 887.608 493.207 886.666 492.181 885.724C479.107 873.709 465.892 861.565 454.135 852.223C447.79 847.183 441.706 842.827 436.159 839.704C430.771 836.671 425.179 834.388 420.001 834.388Z" stroke="black" stroke-opacity="0.1" stroke-width="11.5464"/>
</g>
<defs>
<clipPath id="clip0_1105_2301">
<rect width="840" height="942" fill="white"/>
</clipPath>
</defs>
</svg>
