<svg width="723" height="888" viewBox="0 0 723 888" fill="none" xmlns="http://www.w3.org/2000/svg">
<path d="M669.168 2.25586H50.952C22.812 2.25586 0 25.0678 0 53.2079V834.471C0 862.611 22.812 885.423 50.952 885.423H669.168C697.308 885.423 720.12 862.611 720.12 834.471V53.2079C720.12 25.0678 697.308 2.25586 669.168 2.25586Z" fill="#BABFFC"/>
<path d="M669.168 2.25586H50.952C22.812 2.25586 0 25.0678 0 53.2079V834.471C0 862.611 22.812 885.423 50.952 885.423H669.168C697.308 885.423 720.12 862.611 720.12 834.471V53.2079C720.12 25.0678 697.308 2.25586 669.168 2.25586Z" fill="black" fill-opacity="0.03"/>
<path d="M36.5098 169.427H683.599" stroke="white" stroke-opacity="0.5" stroke-width="5.0952" stroke-linecap="round"/>
<path d="M293.897 113.455C293.285 113.183 292.742 112.64 292.538 111.961C292.266 111.281 292.402 110.33 292.334 109.583C292.334 106.186 292.402 102.789 292.402 99.3923C292.47 95.3162 292.538 91.2398 292.606 87.0959C292.81 73.5767 293.014 62.1635 293.081 61.6877L293.217 60.8726L291.315 61.0085C286.356 61.2803 279.63 61.2803 278.883 61.0085C277.932 60.7367 277.049 59.5139 277.049 58.5629C277.049 57.272 277.796 56.3888 279.359 55.9133C280.242 55.7096 309.591 55.166 311.151 55.3697C312.714 55.6415 314.412 56.8643 314.073 58.6988C313.803 60.2612 312.444 60.6008 311.085 60.7367C309.249 60.8726 307.347 60.8048 305.514 60.8726L298.652 61.0085L298.517 64.541C298.448 66.5114 298.245 77.9246 298.109 89.8133C297.905 106.525 297.769 111.689 297.497 112.232C296.886 113.727 295.187 114.067 293.897 113.455ZM333.255 73.7126C338.622 78.6719 340.998 88.1828 339.165 97.2863C339.165 97.4222 339.096 97.49 339.096 97.6259C337.467 105.371 331.488 114.949 322.182 112.843C319.191 112.164 316.815 110.262 315.048 107.884C307.845 98.3051 309.273 80.7779 317.901 73.5086C322.725 69.4325 328.635 69.5006 333.255 73.7126ZM333.933 95.3162C334.41 92.5307 334.272 87.9791 333.594 85.2617C332.574 81.3212 330.333 77.8565 327.888 76.7018C323.337 74.3918 318.375 78.9434 316.473 87.0959C315.114 93.0743 315.66 101.634 320.685 105.846C327.954 111.961 332.913 101.091 333.933 95.3162ZM370.374 51.5654C370.443 51.905 370.374 54.6905 370.239 57.8156C369.762 71.7422 369.762 77.1092 369.9 93.0743C370.17 111.621 370.17 111.077 368.88 111.892C367.521 112.708 365.823 112.232 365.076 110.873C364.734 110.33 364.599 109.447 364.533 105.167L364.395 100.14L363.174 102.585C360.795 107.273 358.35 110.194 355.563 111.485C352.71 112.843 349.587 112.436 347.343 110.194C345.51 108.292 344.559 105.642 343.947 103.061C343.131 99.3923 343.131 95.4518 343.608 91.7156C344.559 84.4463 347.751 74.2559 355.497 71.5385C357.873 70.7234 361.746 71.063 363.717 72.3539L364.191 72.6935L364.329 69.9761C364.395 68.4815 364.599 63.7937 364.668 59.5817C364.872 52.8563 364.938 51.7691 365.28 51.0899C365.823 50.003 367.113 49.3235 368.199 49.5272C369.084 49.7312 370.17 50.7503 370.374 51.5654ZM360.999 93.6176C363.105 87.9791 364.26 84.1067 364.26 82.6121C364.26 81.0494 363.513 79.1474 362.562 78.332C359.913 75.9545 356.922 76.0901 354.681 78.6038C351.828 81.9326 350.061 86.2805 349.11 92.4629C348.567 96.2672 348.84 100.207 349.926 103.944C350.4 105.778 351.555 107.409 353.595 106.254C355.632 105.031 356.856 102.789 357.873 100.751C359.097 98.441 360.048 96.0635 360.999 93.6176ZM402.807 95.1122C403.011 108.835 402.942 110.262 402.603 110.941C401.652 112.776 399.003 112.708 397.914 110.873C397.575 110.33 397.509 109.447 397.371 105.167L397.305 100.14L396.081 102.585C393.702 107.273 391.257 110.194 388.404 111.485C380.253 115.357 376.854 105.574 376.245 99.3923C375.564 91.8512 377.943 82.2044 381.882 76.9055C384.939 72.7613 387.657 71.1308 391.53 71.1308C393.84 71.1308 395.469 71.6066 397.509 72.9653C401.04 75.275 402.672 79.2833 402.738 83.3594C402.738 85.0577 402.738 86.7563 402.738 88.4546C402.807 90.6284 402.807 92.8703 402.807 95.1122ZM393.84 93.6176C396.012 87.7751 397.101 84.1067 397.101 82.4762C397.101 78.2642 392.616 75.275 389.286 77.2451C384.873 79.8266 381.408 89.3378 381.747 97.7618C381.813 99.596 382.221 106.39 384.873 106.661C385.416 106.729 386.025 106.525 386.502 106.186C390.441 103.74 392.346 97.6937 393.84 93.6176ZM418.137 136.078C415.557 135.466 410.664 133.7 411.141 130.507C411.345 129.216 412.431 128.265 413.724 128.333C415.692 128.333 417.255 130.031 419.088 130.575C422.283 131.594 426.018 131.186 428.466 128.809C430.095 127.246 431.25 124.121 431.793 119.773C432.132 117.395 432.744 97.4222 432.54 97.1504C432.474 97.1504 432.066 98.1014 431.589 99.3923C430.368 102.653 428.328 106.797 427.107 108.496C424.185 112.368 419.022 113.998 415.014 110.534C412.635 108.428 411.414 105.303 410.733 102.178C409.374 95.9954 409.512 89.6774 409.782 83.3594C409.917 80.7098 410.055 78.0605 410.259 75.4109C410.325 74.3918 410.394 73.3049 410.802 72.3539C411.276 71.4026 412.227 70.5875 413.247 70.6553C414.333 70.7234 415.218 71.6744 415.557 72.6935C415.896 73.7126 415.83 74.8673 415.761 75.9545C415.149 83.3594 414.537 91.172 415.692 98.5769C416.031 100.751 416.916 106.322 419.565 106.933C422.01 107.545 423.708 103.536 424.524 101.906C426.699 97.49 428.124 92.8703 429.552 86.009C431.319 77.4488 432.405 72.8294 432.744 72.1499C433.287 71.2667 434.511 70.6553 435.462 70.7912C436.413 70.9271 437.433 71.8781 437.703 72.8972C438.045 74.2559 438.246 94.1612 437.976 105.71C437.703 119.569 437.229 123.577 435.666 127.518C434.103 131.254 432.201 133.496 429.009 135.058C425.748 136.689 421.944 137.029 418.41 136.146C418.341 136.146 418.206 136.146 418.137 136.078Z" fill="white"/>
</svg>
