<svg width="241" height="296" viewBox="0 0 241 296" fill="none" xmlns="http://www.w3.org/2000/svg">
<rect y="0.752441" width="240.04" height="294.389" rx="16.984" fill="#BABFFC"/>
<rect y="0.752441" width="240.04" height="294.389" rx="16.984" fill="black" fill-opacity="0.03"/>
<line x1="12.1695" y1="56.4755" x2="227.866" y2="56.4755" stroke="white" stroke-opacity="0.5" stroke-width="1.6984" stroke-linecap="round"/>
<path d="M97.9655 37.8187C97.7617 37.7282 97.5805 37.547 97.5126 37.3206C97.422 37.0941 97.4673 36.7771 97.4446 36.528C97.4446 35.3957 97.4673 34.2634 97.4673 33.1312C97.4899 31.7725 97.5126 30.4137 97.5352 29.0324C97.6032 24.526 97.6711 20.7216 97.6937 20.563L97.739 20.2913L97.105 20.3366C95.4519 20.4272 93.21 20.4272 92.9609 20.3366C92.6438 20.246 92.3495 19.8384 92.3495 19.5214C92.3495 19.0911 92.5986 18.7967 93.1194 18.6382C93.4138 18.5703 103.197 18.3891 103.717 18.457C104.238 18.5476 104.804 18.9552 104.691 19.5667C104.601 20.0875 104.148 20.2007 103.695 20.246C103.083 20.2913 102.449 20.2687 101.838 20.2913L99.5507 20.3366L99.5054 21.5141C99.4827 22.1709 99.4148 25.9753 99.3695 29.9382C99.3016 35.5089 99.2563 37.23 99.1657 37.4111C98.9619 37.9093 98.3957 38.0226 97.9655 37.8187ZM111.085 24.5713C112.874 26.2244 113.666 29.3947 113.055 32.4292C113.055 32.4745 113.032 32.4971 113.032 32.5424C112.489 35.124 110.496 38.3169 107.394 37.6149C106.397 37.3885 105.605 36.7544 105.016 35.9618C102.615 32.7688 103.091 26.9264 105.967 24.5033C107.575 23.1446 109.545 23.1673 111.085 24.5713ZM111.311 31.7725C111.47 30.844 111.424 29.3268 111.198 28.421C110.858 27.1075 110.111 25.9526 109.296 25.5677C107.779 24.7977 106.125 26.3149 105.491 29.0324C105.038 31.0252 105.22 33.8785 106.895 35.2825C109.318 37.3206 110.971 33.6973 111.311 31.7725ZM123.458 17.1889C123.481 17.3021 123.458 18.2306 123.413 19.2723C123.254 23.9145 123.254 25.7035 123.3 31.0252C123.39 37.2073 123.39 37.0262 122.96 37.2979C122.507 37.5696 121.941 37.4111 121.692 36.9582C121.578 36.7771 121.533 36.4827 121.511 35.056L121.465 33.3803L121.058 34.1955C120.265 35.758 119.45 36.7318 118.521 37.162C117.57 37.6149 116.529 37.4791 115.781 36.7318C115.17 36.0977 114.853 35.2145 114.649 34.354C114.377 33.1312 114.377 31.8177 114.536 30.5723C114.853 28.1492 115.917 24.7524 118.499 23.8466C119.291 23.5749 120.582 23.6881 121.239 24.1184L121.397 24.2316L121.443 23.3258C121.465 22.8276 121.533 21.265 121.556 19.861C121.624 17.6192 121.646 17.2568 121.76 17.0304C121.941 16.6681 122.371 16.4416 122.733 16.5095C123.028 16.5775 123.39 16.9172 123.458 17.1889ZM120.333 31.2063C121.035 29.3268 121.42 28.036 121.42 27.5378C121.42 27.0169 121.171 26.3829 120.854 26.1111C119.971 25.3186 118.974 25.3638 118.227 26.2017C117.276 27.3113 116.687 28.7606 116.37 30.8214C116.189 32.0895 116.28 33.4029 116.642 34.6484C116.8 35.2598 117.185 35.8033 117.865 35.4183C118.544 35.0107 118.952 34.2634 119.291 33.5841C119.699 32.8141 120.016 32.0216 120.333 31.2063ZM134.269 31.7045C134.337 36.2789 134.314 36.7544 134.201 36.9809C133.884 37.5923 133.001 37.5696 132.638 36.9582C132.525 36.7771 132.503 36.4827 132.457 35.056L132.435 33.3803L132.027 34.1955C131.234 35.758 130.419 36.7318 129.468 37.162C126.751 38.4528 125.618 35.1919 125.415 33.1312C125.188 30.6175 125.981 27.4019 127.294 25.6356C128.313 24.2542 129.219 23.7107 130.51 23.7107C131.28 23.7107 131.823 23.8693 132.503 24.3222C133.68 25.0921 134.224 26.4282 134.246 27.7869C134.246 28.353 134.246 28.9192 134.246 29.4853C134.269 30.2099 134.269 30.9572 134.269 31.7045ZM131.28 31.2063C132.004 29.2588 132.367 28.036 132.367 27.4925C132.367 26.0885 130.872 25.0921 129.762 25.7488C128.291 26.6093 127.136 29.7797 127.249 32.5877C127.271 33.1991 127.407 35.4636 128.291 35.5542C128.472 35.5769 128.675 35.5089 128.834 35.3957C130.147 34.5805 130.782 32.565 131.28 31.2063ZM139.379 45.3596C138.519 45.1558 136.888 44.567 137.047 43.5027C137.115 43.0725 137.477 42.7554 137.908 42.7781C138.564 42.7781 139.085 43.3442 139.696 43.5254C140.761 43.865 142.006 43.7292 142.822 42.9366C143.365 42.4157 143.75 41.3741 143.931 39.9248C144.044 39.1322 144.248 32.4745 144.18 32.3839C144.158 32.3839 144.022 32.7009 143.863 33.1312C143.456 34.2181 142.776 35.5995 142.369 36.1656C141.395 37.4564 139.674 37.9999 138.338 36.845C137.545 36.143 137.138 35.1013 136.911 34.0596C136.458 31.9989 136.504 29.8929 136.594 27.7869C136.639 26.9037 136.685 26.0206 136.753 25.1374C136.775 24.7977 136.798 24.4354 136.934 24.1184C137.092 23.8013 137.409 23.5296 137.749 23.5522C138.111 23.5749 138.406 23.8919 138.519 24.2316C138.632 24.5713 138.61 24.9562 138.587 25.3186C138.383 27.7869 138.179 30.3911 138.564 32.8594C138.677 33.5841 138.972 35.441 139.855 35.6448C140.67 35.8486 141.236 34.5125 141.508 33.969C142.233 32.4971 142.708 30.9572 143.184 28.6701C143.773 25.8167 144.135 24.2769 144.248 24.0504C144.429 23.756 144.837 23.5522 145.154 23.5975C145.471 23.6428 145.811 23.9598 145.901 24.2995C146.015 24.7524 146.082 31.3875 145.992 35.2372C145.901 39.8568 145.743 41.1929 145.222 42.5063C144.701 43.7518 144.067 44.4991 143.003 45.0199C141.916 45.5634 140.648 45.6767 139.47 45.3823C139.447 45.3823 139.402 45.3823 139.379 45.3596Z" fill="white"/>
</svg>
