<svg width="296" height="137" viewBox="0 0 296 137" fill="none" xmlns="http://www.w3.org/2000/svg">
<path d="M12.9976 136.664C10.5502 136.664 9.32652 132.291 9.32652 123.544C9.32652 118.019 7.93746 98.2814 5.15935 64.3298C2.44738 30.263 0.727601 11.6759 0 8.56851C0.859892 5.80634 2.01744 4.42526 3.47264 4.42526C4.99399 4.42526 6.41612 10.41 7.73903 22.3794C8.99579 35.0393 10.0541 49.5407 10.914 65.8835L11.6085 79.867C12.0054 87.6931 12.2369 91.6637 12.3031 91.7788L13.2953 77.2774L13.8906 68.3004C14.7505 55.1801 15.3127 45.9153 15.5773 40.5061C15.908 33.3705 16.0734 28.4791 16.0734 25.8321V22.552C16.0734 21.286 16.338 20.0775 16.8671 18.9266C17.3963 17.7757 17.9916 17.2003 18.653 17.2003C21.0343 17.2003 22.2249 18.9266 22.2249 22.3794V24.9689C22.2249 31.529 22.5887 38.6071 23.3163 46.203C24.1101 53.6839 25.2345 62.661 26.6897 73.1342C27.6158 79.234 28.5418 86.6573 29.4678 95.4042C29.6663 91.6062 30.2947 82.399 31.353 67.7825C32.4113 54.432 33.172 43.0956 33.635 33.7733C34.1642 24.3359 34.4288 15.5315 34.4288 7.36007C34.4288 4.71299 34.6603 2.87154 35.1233 1.83573C35.6524 0.684826 36.6116 0.109375 38.0006 0.109375C38.7944 0.109375 39.4889 0.569734 40.0842 1.49045C40.7457 2.29609 41.0764 3.38944 41.0764 4.77052C41.0764 6.03652 40.7457 7.36006 40.0842 8.74114C40.0842 17.0276 39.7204 26.7528 38.9928 37.9165C38.2652 48.9652 37.3722 59.496 36.3139 69.5088C35.2556 79.2915 34.3626 89.8223 33.635 101.101C32.9074 112.265 32.5436 122.105 32.5436 130.622C32.5436 132.463 32.279 133.902 31.7499 134.938C31.2868 136.089 30.5592 136.664 29.5671 136.664C28.8395 136.664 27.9796 134.305 26.9874 129.586C25.7306 123.026 24.1762 109.963 22.3241 90.3977L20.5382 70.1994L19.6452 58.9781C18.7853 69.4513 18.1239 77.9104 17.6609 84.3555C17.264 90.6855 16.8671 98.2239 16.4702 106.971C16.0072 115.372 15.7757 123.659 15.7757 131.83C15.7757 132.981 15.4781 134.075 14.8827 135.11C14.3536 136.146 13.7252 136.664 12.9976 136.664Z" fill="#186F81"/>
<path d="M56.7668 136.491C55.9069 136.491 55.1132 135.974 54.3856 134.938C53.7241 133.902 53.3603 132.636 53.2942 131.14V123.198C53.228 122.163 53.195 120.954 53.195 119.573C53.195 117.156 53.0957 113.473 52.8973 108.524L52.6989 97.4758C52.6989 91.8364 52.7981 83.4348 52.9965 72.271C53.2611 62.2582 53.3934 53.8566 53.3934 47.0662C53.3934 45.455 53.2942 43.0381 53.0957 39.8155C52.8973 36.4779 52.7981 34.061 52.7981 32.5648C52.7981 24.3934 54.1871 20.3077 56.9653 20.3077C59.1481 20.3077 61.6616 21.0558 64.5059 22.552C67.4163 24.0482 68.8715 25.8321 68.8715 27.9037C68.8715 29.0546 68.5738 30.148 67.9785 31.1838C67.4493 32.1045 66.7879 32.8526 65.9941 33.428C63.216 31.7017 60.7025 30.5508 58.4535 29.9753C58.5197 31.7017 58.5528 34.1761 58.5528 37.3986C58.5528 42.0023 58.5197 46.1455 58.4535 49.8284C58.2551 55.3527 58.1559 59.496 58.1559 62.2582L58.4535 65.0203L60.041 64.8477C60.5702 64.7326 61.2317 64.675 62.0254 64.675C65.2004 64.675 66.7879 66.2863 66.7879 69.5088C66.7879 70.7748 66.4902 71.8682 65.8949 72.7889C65.2996 73.5945 64.5389 73.9974 63.6129 73.9974C62.4223 73.9974 61.4962 73.8823 60.8348 73.6521H58.3543C58.4866 76.6444 58.5528 81.0179 58.5528 86.7724C58.5528 92.5269 58.5197 97.706 58.4535 102.31C58.2551 109.33 58.1559 114.567 58.1559 118.019C58.1559 124.464 58.222 127.687 58.3543 127.687L61.6285 127.514C62.753 127.399 64.109 127.342 65.6965 127.342C68.21 127.342 69.4668 128.723 69.4668 131.485C69.4668 133.096 69.0368 134.305 68.1769 135.11C67.3832 136.031 66.391 136.491 65.2004 136.491H56.7668Z" fill="#186F81"/>
<path d="M83.5736 135.283C81.8538 135.283 80.9939 127.745 80.9939 112.668L81.1924 85.3913C81.2585 77.335 81.2916 68.3004 81.2916 58.2875C81.2916 54.6046 81.0931 48.9077 80.6963 41.1966C80.3655 32.795 80.2002 27.6735 80.2002 25.8321C80.2002 24.3359 80.564 23.0123 81.2916 21.8614C82.0192 20.7105 82.8129 20.1351 83.6728 20.1351C85.9879 20.1351 88.2038 21.0558 90.3204 22.8973C92.5032 24.6236 94.4215 27.0981 96.0751 30.3206C99.5808 37.3411 101.896 45.0521 103.02 53.4537C103.616 57.7121 103.913 61.9129 103.913 66.0561C103.913 67.5523 103.88 68.9334 103.814 70.1994L103.715 74.8605V84.3555C103.715 91.7213 103.583 97.5333 103.318 101.792C102.921 107.546 102.16 112.668 101.036 117.156C99.7131 121.99 97.7949 126.306 95.2814 130.104C94.0907 131.83 92.5694 133.557 90.7173 135.283H83.5736ZM87.9392 126.479C89.2621 126.479 90.4858 125.903 91.6103 124.752C92.7348 123.486 93.6939 121.817 94.4876 119.746C95.1491 117.904 95.7444 115.603 96.2735 112.84C96.8689 109.963 97.2988 107.201 97.5634 104.554C98.1587 99.3748 98.5225 94.0806 98.6548 88.6714C98.7209 87.2903 98.754 85.2762 98.754 82.6291C98.754 47.8719 94.8845 29.7451 87.1455 28.249C86.6824 33.428 86.4509 39.4127 86.4509 46.203C86.4509 53.4537 86.7155 66.1137 87.2447 84.1829C87.7077 100.18 87.9392 112.898 87.9392 122.335V126.479Z" fill="#186F81"/>
<path d="M141.785 134.765C140.992 134.765 140.396 134.42 139.999 133.729C139.602 132.924 139.305 131.6 139.106 129.759L138.511 126.479V125.615C138.511 121.817 136.229 108.87 131.665 86.7724C127.167 64.6751 123.628 48.3322 121.049 37.7439V124.58L121.446 125.788C121.512 126.018 121.644 126.421 121.842 126.996C122.041 127.572 122.14 128.147 122.14 128.723C122.14 130.219 121.842 131.485 121.247 132.521C120.652 133.557 119.924 134.075 119.064 134.075C116.948 134.075 115.889 130.564 115.889 123.544L115.79 94.0231C115.724 85.1611 115.691 75.2634 115.691 64.3298C115.691 60.6469 115.79 55.2952 115.989 48.2747C116.187 41.024 116.286 35.6723 116.286 32.2196C116.286 26.8103 117.477 22.552 119.858 19.4445V20.4804C120.255 20.2502 120.519 20.1351 120.652 20.1351C122.173 20.1351 124.091 24.7387 126.406 33.9459C128.259 41.3117 129.912 49.0803 131.367 57.2517C132.889 65.4231 134.873 77.0473 137.32 92.1241L138.313 98.339C139.834 107.661 140.992 114.337 141.785 118.365C143.108 93.6203 143.77 64.3873 143.77 30.6659V28.4216C143.704 27.7311 143.67 26.983 143.67 26.1773C143.67 22.7246 144.464 20.9983 146.052 20.9983C146.978 20.9983 147.672 21.6313 148.135 22.8973C148.664 24.1633 148.929 25.7745 148.929 27.731V40.6787C148.797 58.4026 148.4 77.6227 147.738 98.339C147.077 119.055 146.283 130.737 145.357 133.384C143.439 134.305 142.248 134.765 141.785 134.765Z" fill="#186F81"/>
<path d="M166.74 136.491C165.88 136.491 165.087 135.974 164.359 134.938C163.698 133.902 163.334 132.636 163.268 131.14V123.198C163.201 122.163 163.168 120.954 163.168 119.573C163.168 117.156 163.069 113.473 162.871 108.524L162.672 97.4758C162.672 91.8364 162.772 83.4348 162.97 72.271C163.235 62.2582 163.367 53.8566 163.367 47.0662C163.367 45.455 163.268 43.0381 163.069 39.8155C162.871 36.4779 162.772 34.061 162.772 32.5648C162.772 24.3934 164.161 20.3077 166.939 20.3077C169.121 20.3077 171.635 21.0558 174.479 22.552C177.39 24.0482 178.845 25.8321 178.845 27.9037C178.845 29.0546 178.547 30.148 177.952 31.1838C177.423 32.1045 176.761 32.8526 175.968 33.428C173.189 31.7017 170.676 30.5508 168.427 29.9753C168.493 31.7017 168.526 34.1761 168.526 37.3986C168.526 42.0023 168.493 46.1455 168.427 49.8284C168.229 55.3527 168.129 59.496 168.129 62.2582L168.427 65.0203L170.014 64.8477C170.544 64.7326 171.205 64.675 171.999 64.675C175.174 64.675 176.761 66.2863 176.761 69.5088C176.761 70.7748 176.464 71.8682 175.868 72.7889C175.273 73.5945 174.512 73.9974 173.586 73.9974C172.396 73.9974 171.47 73.8823 170.808 73.6521H168.328C168.46 76.6444 168.526 81.0179 168.526 86.7724C168.526 92.5269 168.493 97.706 168.427 102.31C168.229 109.33 168.129 114.567 168.129 118.019C168.129 124.464 168.195 127.687 168.328 127.687L171.602 127.514C172.726 127.399 174.082 127.342 175.67 127.342C178.183 127.342 179.44 128.723 179.44 131.485C179.44 133.096 179.01 134.305 178.15 135.11C177.357 136.031 176.364 136.491 175.174 136.491H166.74Z" fill="#186F81"/>
<path d="M192.158 136.664C190.967 136.319 189.942 135.571 189.082 134.42C188.288 133.269 187.825 131.773 187.693 129.931L188.785 126.996C189.181 126.996 189.81 127.227 190.67 127.687C191.662 128.032 192.423 128.205 192.952 128.205C194.142 128.205 195.201 127.284 196.127 125.443C197.119 123.601 197.846 121.184 198.309 118.192C199.169 112.668 199.599 107.719 199.599 103.345C199.599 95.7494 198.21 87.7507 195.432 79.3491L194.341 76.069C193.084 72.271 192.026 68.8758 191.166 65.8835C190.306 62.8911 189.578 59.6686 188.983 56.2159C188.189 51.7274 187.792 47.2389 187.792 42.7503C187.792 37.6864 188.454 32.3922 189.777 26.8679C190.438 24.2208 191.364 22.0916 192.555 20.4804C193.812 18.754 195.201 17.8908 196.722 17.8908C197.913 17.8908 199.004 18.5814 199.996 19.9624C201.055 21.2284 201.584 22.7822 201.584 24.6236C201.584 25.6594 201.352 26.4651 200.889 27.0405C200.426 27.616 199.864 27.9037 199.202 27.9037C198.475 27.9037 197.78 27.5584 197.119 26.8679C195.664 26.983 194.506 29.2272 193.646 33.6007C192.919 37.6288 192.555 40.9664 192.555 43.6135C192.555 46.9511 192.852 50.3463 193.448 53.799C194.043 57.1366 194.804 60.1865 195.73 62.9487L197.913 69.8541L201.385 81.2481C202.311 84.4706 203.039 88.211 203.568 92.4694C204.163 96.7277 204.461 101.044 204.461 105.417C204.461 112.438 203.535 119.113 201.683 125.443C200.757 128.665 199.434 131.255 197.714 133.211C196.061 135.168 194.208 136.146 192.158 136.146V136.664Z" fill="#186F81"/>
<path d="M218.061 135.283C216.341 135.283 215.481 127.745 215.481 112.668L215.68 85.3913C215.746 77.335 215.779 68.3004 215.779 58.2875C215.779 54.6046 215.58 48.9077 215.184 41.1966C214.853 32.795 214.687 27.6735 214.687 25.8321C214.687 24.3359 215.051 23.0123 215.779 21.8614C216.507 20.7105 217.3 20.1351 218.16 20.1351C220.475 20.1351 222.691 21.0558 224.808 22.8973C226.991 24.6236 228.909 27.0981 230.562 30.3206C234.068 37.3411 236.383 45.0521 237.508 53.4537C238.103 57.7121 238.401 61.9129 238.401 66.0561C238.401 67.5523 238.368 68.9334 238.301 70.1994L238.202 74.8605V84.3555C238.202 91.7213 238.07 97.5333 237.805 101.792C237.408 107.546 236.648 112.668 235.523 117.156C234.2 121.99 232.282 126.306 229.769 130.104C228.578 131.83 227.057 133.557 225.205 135.283H218.061ZM222.427 126.479C223.749 126.479 224.973 125.903 226.098 124.752C227.222 123.486 228.181 121.817 228.975 119.746C229.636 117.904 230.232 115.603 230.761 112.84C231.356 109.963 231.786 107.201 232.051 104.554C232.646 99.3748 233.01 94.0806 233.142 88.6714C233.208 87.2903 233.241 85.2762 233.241 82.6291C233.241 47.8719 229.372 29.7451 221.633 28.249C221.17 33.428 220.938 39.4127 220.938 46.203C220.938 53.4537 221.203 66.1137 221.732 84.1829C222.195 100.18 222.427 112.898 222.427 122.335V126.479Z" fill="#186F81"/>
<path d="M268.732 135.801C267.211 135.801 266.086 135.398 265.359 134.592C264.631 133.787 264.267 132.291 264.267 130.104C264.267 126.651 263.936 120.782 263.275 112.495L262.878 108.87L253.056 106.28C252.659 108.927 252.096 114.279 251.369 122.335C250.972 127.975 250.344 131.715 249.484 133.557C249.021 134.592 248.359 135.11 247.499 135.11C246.706 135.11 245.978 134.708 245.316 133.902C244.655 132.981 244.324 131.888 244.324 130.622L244.523 129.759L244.622 129.068C248.988 99.4899 252.295 70.3145 254.544 41.5419C254.544 41.0815 254.577 40.3334 254.643 39.2976C254.709 38.1467 254.775 36.5355 254.841 34.4638C255.04 30.2055 255.238 26.8103 255.437 24.2783C255.701 21.7464 256.098 19.8474 256.627 18.5814H260.001C260.927 18.5814 261.721 18.9842 262.382 19.7898C263.043 20.4804 263.374 21.5162 263.374 22.8973C263.374 31.6441 264.069 44.6493 265.458 61.9129C266.781 79.6368 267.442 92.0666 267.442 99.2022C267.442 99.8927 267.608 101.677 267.938 104.554C268.269 107.201 268.434 108.927 268.434 109.733C268.434 110.539 268.765 113.991 269.427 120.091C270.022 125.615 270.32 129.183 270.32 130.794V130.967C270.32 133.499 269.79 135.11 268.732 135.801ZM262.184 102.655C261.985 100.929 261.886 98.7993 261.886 96.2673C261.886 85.9092 261.357 72.6738 260.298 56.5612L259.306 38.6071C256.462 65.6533 254.511 86.0819 253.452 99.8927C254.445 101.044 257.355 101.964 262.184 102.655Z" fill="#186F81"/>
<path d="M286.971 136.664C285.847 136.664 284.921 135.398 284.193 132.866C284.921 130.449 285.284 120.666 285.284 103.518C285.284 99.4899 285.119 95.1164 284.788 90.3977L284.491 85.3913C284.292 82.2839 284.193 79.9245 284.193 78.3133V73.8247C283.532 70.9475 282.308 65.5958 280.522 57.7696C278.802 49.9435 277.413 43.3833 276.355 38.0892C275.098 31.9894 274.47 27.8461 274.47 25.6594V24.7963L276.752 21.8614C277.876 22.0916 279.067 24.6236 280.324 29.4574C281.382 33.7157 282.539 39.8155 283.796 47.7568C285.119 55.698 285.781 59.8988 285.781 60.3592C286.045 59.0932 286.574 54.7773 287.368 47.4115C288.162 40.0457 289.055 33.5431 290.047 27.9037C291.171 22.2643 292.329 19.4445 293.52 19.4445C294.181 19.4445 294.743 19.7898 295.206 20.4804C295.735 21.1709 296 22.0341 296 23.0699C296 28.9395 295.074 37.226 293.222 47.9294C291.238 59.5535 290.245 67.9551 290.245 73.1342V125.097C290.245 132.809 289.154 136.664 286.971 136.664Z" fill="#186F81"/>
</svg>
