<svg width="888" height="411" viewBox="0 0 888 411" fill="none" xmlns="http://www.w3.org/2000/svg">
<g clip-path="url(#clip0_1105_1596)">
<path d="M38.9928 409.992C31.6506 409.992 27.9796 396.873 27.9796 370.632C27.9796 354.057 23.8124 294.844 15.4781 192.989C7.34214 90.789 2.1828 35.0277 0 25.7055C2.57968 17.419 6.05232 13.2758 10.4179 13.2758C14.982 13.2758 19.2484 31.23 23.2171 67.1382C26.9874 105.118 30.1623 148.622 32.742 197.65L34.8255 239.601C36.0162 263.079 36.7107 274.991 36.9093 275.336L39.8859 231.832L41.6718 204.901C44.2515 165.54 45.9381 137.746 46.7319 121.518C47.724 100.111 48.2202 85.4373 48.2202 77.4963V67.656C48.2202 63.858 49.014 60.2325 50.6013 56.7798C52.1889 53.3271 53.9748 51.6009 55.959 51.6009C63.1029 51.6009 66.6747 56.7798 66.6747 67.1382V74.9067C66.6747 94.587 67.7661 115.821 69.9489 138.609C72.3303 161.052 75.7035 187.983 80.0691 219.403C82.8474 237.702 85.6254 259.972 88.4034 286.213C88.9989 274.819 90.8841 247.197 94.059 203.348C97.2339 163.296 99.516 129.287 100.905 101.32C102.493 73.0077 103.286 46.5945 103.286 22.0802C103.286 14.139 103.981 8.61462 105.37 5.50719C106.957 2.05448 109.835 0.328125 114.002 0.328125C116.383 0.328125 118.467 1.7092 120.253 4.47135C122.237 6.88827 123.229 10.1683 123.229 14.3116C123.229 18.1096 122.237 22.0802 120.253 26.2234C120.253 51.0828 119.161 80.2584 116.978 113.749C114.796 146.896 112.117 178.488 108.942 208.526C105.767 237.874 103.088 269.467 100.905 303.303C98.7222 336.795 97.6308 366.315 97.6308 391.866C97.6308 397.389 96.837 401.706 95.2497 404.814C93.8604 408.267 91.6776 409.992 88.7013 409.992C86.5185 409.992 83.9388 402.915 80.9622 388.758C77.1918 369.078 72.5286 329.889 66.9723 271.193L61.6146 210.598L58.9356 176.934C56.3559 208.354 54.3717 233.731 52.9827 253.066C51.792 272.056 50.6013 294.672 49.4106 320.913C48.0216 346.116 47.3271 370.977 47.3271 395.49C47.3271 398.943 46.4343 402.225 44.6481 405.33C43.0608 408.438 41.1756 409.992 38.9928 409.992Z" fill="#186F81"/>
<path d="M170.3 409.473C167.721 409.473 165.34 407.922 163.157 404.814C161.172 401.706 160.081 397.908 159.883 393.42V369.594C159.684 366.489 159.585 362.862 159.585 358.719C159.585 351.468 159.287 340.419 158.692 325.572L158.097 292.427C158.097 275.509 158.394 250.304 158.989 216.813C159.783 186.774 160.18 161.57 160.18 141.198C160.18 136.365 159.883 129.114 159.287 119.446C158.692 109.433 158.394 102.183 158.394 97.6942C158.394 73.18 162.561 60.9229 170.896 60.9229C177.444 60.9229 184.985 63.1672 193.518 67.6558C202.249 72.1444 206.614 77.4961 206.614 83.7109C206.614 87.1636 205.721 90.4438 203.935 93.5512C202.348 96.3133 200.364 98.5576 197.982 100.284C189.648 95.1049 182.107 91.6522 175.36 89.9257C175.559 95.1049 175.658 102.528 175.658 112.196C175.658 126.007 175.559 138.436 175.36 149.485C174.765 166.058 174.468 178.488 174.468 186.774L175.36 195.061L180.123 194.543C181.711 194.198 183.695 194.025 186.076 194.025C195.601 194.025 200.364 198.859 200.364 208.526C200.364 212.324 199.471 215.604 197.685 218.366C195.899 220.783 193.617 221.992 190.839 221.992C187.267 221.992 184.489 221.647 182.504 220.956H175.063C175.46 229.933 175.658 243.053 175.658 260.317C175.658 277.58 175.559 293.118 175.36 306.93C174.765 327.99 174.468 343.701 174.468 354.057C174.468 373.392 174.666 383.061 175.063 383.061L184.885 382.542C188.259 382.197 192.327 382.026 197.089 382.026C204.63 382.026 208.4 386.169 208.4 394.455C208.4 399.288 207.11 402.915 204.531 405.33C202.15 408.093 199.173 409.473 195.601 409.473H170.3Z" fill="#186F81"/>
<path d="M250.721 405.848C245.561 405.848 242.982 383.234 242.982 338.003L243.577 256.173C243.775 232.004 243.875 204.9 243.875 174.861C243.875 163.813 243.279 146.722 242.089 123.589C241.096 98.384 240.601 83.0195 240.601 77.4953C240.601 73.0067 241.692 69.0359 243.875 65.5832C246.058 62.1305 248.439 60.4043 251.018 60.4043C257.964 60.4043 264.611 63.1664 270.961 68.6909C277.51 73.8698 283.264 81.2933 288.225 90.9608C298.742 112.022 305.688 135.155 309.06 160.36C310.848 173.135 311.739 185.738 311.739 198.167C311.739 202.656 311.64 206.799 311.442 210.597L311.145 224.58V253.066C311.145 275.163 310.749 292.599 309.954 305.375C308.763 322.637 306.48 338.003 303.108 351.467C299.139 365.969 293.385 378.917 285.844 390.311C282.272 395.489 277.708 400.67 272.152 405.848H250.721ZM263.818 379.436C267.786 379.436 271.457 377.708 274.831 374.255C278.204 370.457 281.082 365.45 283.463 359.237C285.447 353.711 287.233 346.808 288.82 338.519C290.607 329.888 291.896 321.602 292.69 313.661C294.476 298.123 295.567 282.241 295.964 266.013C296.163 261.87 296.262 255.828 296.262 247.886C296.262 143.615 284.653 89.2343 261.436 84.746C260.047 100.283 259.353 118.237 259.353 138.608C259.353 160.36 260.146 198.34 261.734 252.548C263.123 300.539 263.818 338.693 263.818 367.004V379.436Z" fill="#186F81"/>
<path d="M425.355 404.295C422.976 404.295 421.188 403.26 419.997 401.188C418.806 398.772 417.915 394.8 417.318 389.277L415.533 379.438V376.845C415.533 365.451 408.687 326.61 394.995 260.318C381.501 194.026 370.884 144.997 363.147 113.232V373.74L364.338 377.365C364.536 378.055 364.932 379.263 365.526 380.988C366.123 382.716 366.42 384.441 366.42 386.169C366.42 390.658 365.526 394.455 363.741 397.563C361.956 400.671 359.772 402.225 357.192 402.225C350.844 402.225 347.667 391.693 347.667 370.633L347.37 282.07C347.172 255.484 347.073 225.791 347.073 192.99C347.073 181.941 347.37 165.886 347.967 144.825C348.561 123.072 348.858 107.017 348.858 96.6593C348.858 80.4314 352.431 67.6565 359.574 58.334V61.4417C360.765 60.7511 361.557 60.4058 361.956 60.4058C366.519 60.4058 372.273 74.2166 379.218 101.838C384.777 123.936 389.736 147.241 394.101 171.756C398.667 196.27 404.619 231.142 411.96 276.373L414.939 295.017C419.502 322.983 422.976 343.011 425.355 355.095C429.324 280.861 431.31 193.162 431.31 91.9982V85.2653C431.112 83.1938 431.01 80.9495 431.01 78.5324C431.01 68.1743 433.392 62.9954 438.156 62.9954C440.934 62.9954 443.016 64.8944 444.405 68.6924C445.992 72.4904 446.787 77.324 446.787 83.1935V122.037C446.391 175.208 445.2 232.869 443.214 295.017C441.231 357.165 438.849 392.211 436.071 400.152C430.317 402.915 426.744 404.295 425.355 404.295Z" fill="#186F81"/>
<path d="M500.22 409.473C497.64 409.473 495.261 407.922 493.077 404.814C491.094 401.706 490.002 397.908 489.804 393.42V369.594C489.603 366.489 489.504 362.862 489.504 358.719C489.504 351.468 489.207 340.419 488.613 325.572L488.016 292.427C488.016 275.509 488.316 250.304 488.91 216.813C489.705 186.774 490.101 161.57 490.101 141.198C490.101 136.365 489.804 129.114 489.207 119.446C488.613 109.433 488.316 102.183 488.316 97.6942C488.316 73.18 492.483 60.9229 500.817 60.9229C507.363 60.9229 514.905 63.1672 523.437 67.6558C532.17 72.1444 536.535 77.4961 536.535 83.7109C536.535 87.1636 535.641 90.4438 533.856 93.5512C532.269 96.3133 530.283 98.5576 527.904 100.284C519.567 95.1049 512.028 91.6522 505.281 89.9257C505.479 95.1049 505.578 102.528 505.578 112.196C505.578 126.007 505.479 138.436 505.281 149.485C504.687 166.058 504.387 178.488 504.387 186.774L505.281 195.061L510.042 194.543C511.632 194.198 513.615 194.025 515.997 194.025C525.522 194.025 530.283 198.859 530.283 208.526C530.283 212.324 529.392 215.604 527.604 218.366C525.819 220.783 523.536 221.992 520.758 221.992C517.188 221.992 514.41 221.647 512.424 220.956H504.984C505.38 229.933 505.578 243.053 505.578 260.317C505.578 277.58 505.479 293.118 505.281 306.93C504.687 327.99 504.387 343.701 504.387 354.057C504.387 373.392 504.585 383.061 504.984 383.061L514.806 382.542C518.178 382.197 522.246 382.026 527.01 382.026C534.549 382.026 538.32 386.169 538.32 394.455C538.32 399.288 537.03 402.915 534.45 405.33C532.071 408.093 529.092 409.473 525.522 409.473H500.22Z" fill="#186F81"/>
<path d="M576.474 409.992C572.901 408.957 569.826 406.713 567.246 403.26C564.864 399.807 563.475 395.319 563.079 389.793L566.355 380.988C567.543 380.988 569.43 381.681 572.01 383.061C574.986 384.096 577.269 384.615 578.856 384.615C582.426 384.615 585.603 381.852 588.381 376.329C591.357 370.803 593.538 363.552 594.927 354.576C597.507 338.004 598.797 323.157 598.797 310.035C598.797 287.249 594.63 263.253 586.296 238.048L583.023 228.207C579.252 216.813 576.078 206.628 573.498 197.651C570.918 188.674 568.734 179.006 566.949 168.648C564.567 155.183 563.376 141.717 563.376 128.251C563.376 113.06 565.362 97.1771 569.331 80.6042C571.314 72.6629 574.092 66.2753 577.665 61.4417C581.436 56.2625 585.603 53.6729 590.166 53.6729C593.739 53.6729 597.012 55.7447 599.988 59.8877C603.165 63.6857 604.752 68.347 604.752 73.8713C604.752 76.9786 604.056 79.3958 602.667 81.122C601.278 82.8485 599.592 83.7115 597.606 83.7115C595.425 83.7115 593.34 82.6757 591.357 80.6042C586.992 80.9495 583.518 87.6821 580.938 100.803C578.757 112.887 577.665 122.9 577.665 130.841C577.665 140.854 578.556 151.039 580.344 161.397C582.129 171.41 584.412 180.56 587.19 188.847L593.739 209.563L604.155 243.745C606.933 253.412 609.117 264.633 610.704 277.409C612.489 290.184 613.383 303.132 613.383 316.251C613.383 337.314 610.605 357.339 605.049 376.329C602.271 385.995 598.302 393.765 593.142 399.633C588.183 405.504 582.624 408.438 576.474 408.438V409.992Z" fill="#186F81"/>
<path d="M654.183 405.848C649.023 405.848 646.443 383.234 646.443 338.003L647.04 256.173C647.238 232.004 647.337 204.9 647.337 174.861C647.337 163.813 646.74 146.722 645.552 123.589C644.559 98.384 644.061 83.0195 644.061 77.4953C644.061 73.0067 645.153 69.0359 647.337 65.5832C649.521 62.1305 651.9 60.4043 654.48 60.4043C661.425 60.4043 668.073 63.1664 674.424 68.6909C680.973 73.8698 686.727 81.2933 691.686 90.9608C702.204 112.022 709.149 135.155 712.524 160.36C714.309 173.135 715.203 185.738 715.203 198.167C715.203 202.656 715.104 206.799 714.903 210.597L714.606 224.58V253.066C714.606 275.163 714.21 292.599 713.415 305.375C712.224 322.637 709.944 338.003 706.569 351.467C702.6 365.969 696.846 378.917 689.307 390.311C685.734 395.489 681.171 400.67 675.615 405.848H654.183ZM667.281 379.436C671.247 379.436 674.919 377.708 678.294 374.255C681.666 370.457 684.543 365.45 686.925 359.237C688.908 353.711 690.696 346.808 692.283 338.519C694.068 329.888 695.358 321.602 696.153 313.661C697.938 298.123 699.03 282.241 699.426 266.013C699.624 261.87 699.723 255.828 699.723 247.886C699.723 143.615 688.116 89.2343 664.899 84.746C663.51 100.283 662.814 118.237 662.814 138.608C662.814 160.36 663.609 198.34 665.196 252.548C666.585 300.539 667.281 338.693 667.281 367.004V379.436Z" fill="#186F81"/>
<path d="M806.196 407.402C801.633 407.402 798.258 406.193 796.077 403.775C793.893 401.36 792.801 396.872 792.801 390.311C792.801 379.952 791.808 362.345 789.825 337.484L788.634 326.609L759.168 318.839C757.977 326.78 756.288 342.836 754.107 367.004C752.916 383.924 751.032 395.144 748.452 400.67C747.063 403.775 745.077 405.329 742.497 405.329C740.118 405.329 737.934 404.123 735.948 401.705C733.965 398.942 732.972 395.663 732.972 391.865L733.569 389.276L733.866 387.203C746.964 298.469 756.885 210.942 763.632 124.625C763.632 123.243 763.731 120.999 763.929 117.892C764.127 114.439 764.325 109.605 764.523 103.39C765.12 90.6155 765.714 80.4299 766.311 72.8339C767.103 65.2382 768.294 59.5412 769.881 55.7432H780.003C782.781 55.7432 785.163 56.9516 787.146 59.3684C789.129 61.4402 790.122 64.5476 790.122 68.6909C790.122 94.9313 792.207 133.947 796.374 185.738C800.343 238.909 802.326 276.199 802.326 297.606C802.326 299.677 802.824 305.03 803.814 313.661C804.807 321.602 805.302 326.78 805.302 329.198C805.302 331.616 806.295 341.972 808.281 360.272C810.066 376.844 810.96 387.548 810.96 392.381V392.9C810.96 400.496 809.37 405.329 806.196 407.402ZM786.552 307.964C785.955 302.786 785.658 296.397 785.658 288.801C785.658 257.727 784.071 218.02 780.894 169.683L777.918 115.82C769.386 196.959 763.533 258.245 760.356 299.677C763.335 303.131 772.065 305.891 786.552 307.964Z" fill="#186F81"/>
<path d="M860.913 409.992C857.541 409.992 854.763 406.194 852.579 398.598C854.763 391.348 855.852 361.999 855.852 310.555C855.852 298.47 855.357 285.35 854.364 271.194L853.473 256.174C852.876 246.852 852.579 239.774 852.579 234.94V221.475C850.596 212.843 846.924 196.788 841.566 173.309C836.406 149.831 832.239 130.15 829.065 114.268C825.294 95.9687 823.41 83.5388 823.41 76.9787V74.3894L830.256 65.5847C833.628 66.2753 837.201 73.8713 840.972 88.3727C844.146 101.148 847.617 119.447 851.388 143.271C855.357 167.094 857.343 179.697 857.343 181.078C858.135 177.28 859.722 164.332 862.104 142.235C864.486 120.138 867.165 100.63 870.141 83.7116C873.513 66.7934 876.987 58.334 880.56 58.334C882.543 58.334 884.229 59.3699 885.618 61.4417C887.205 63.5132 888 66.1028 888 69.2102C888 86.819 885.222 111.678 879.666 143.789C873.714 178.661 870.735 203.866 870.735 219.403V375.292C870.735 398.427 867.462 409.992 860.913 409.992Z" fill="#186F81"/>
</g>
<defs>
<clipPath id="clip0_1105_1596">
<rect width="888" height="411" fill="white"/>
</clipPath>
</defs>
</svg>
