<svg width="888" height="414" viewBox="0 0 888 414" fill="none" xmlns="http://www.w3.org/2000/svg">
<path d="M83.6628 384.357C81.1179 384.357 79.2093 383.241 77.9367 381.006C76.6644 378.402 75.7101 374.124 75.0738 368.169L73.1652 357.564V354.774C73.1652 342.495 65.8488 300.633 51.2157 229.191C36.7947 157.748 25.4488 104.91 17.1779 70.6773V351.426L18.4504 355.332C18.6624 356.076 19.0866 357.378 19.7228 359.238C20.359 361.101 20.6771 362.961 20.6771 364.821C20.6771 369.657 19.7228 373.752 17.8141 377.1C15.9055 380.448 13.5727 382.122 10.8157 382.122C4.02939 382.122 0.636219 370.773 0.636219 348.075L0.318111 252.633C0.106037 223.982 0 191.981 0 156.632C0 144.725 0.318108 127.422 0.954327 104.724C1.59055 81.282 1.90866 63.9795 1.90866 52.8165C1.90866 35.328 5.72598 21.5603 13.3606 11.5137V14.8625C14.633 14.1184 15.4813 13.7462 15.9055 13.7462C20.7832 13.7462 26.9333 28.6302 34.3557 58.398C40.2939 82.2123 45.5958 107.329 50.2614 133.748C55.1391 160.167 61.5012 197.749 69.348 246.493L72.5289 266.587C77.4066 296.727 81.1179 318.309 83.6628 331.332C87.9042 251.331 90.0249 156.818 90.0249 47.7933V40.5372C89.8128 38.3046 89.7069 35.886 89.7069 33.2814C89.7069 22.1185 92.2518 16.537 97.3416 16.537C100.31 16.537 102.537 18.5835 104.022 22.6766C105.718 26.7697 106.567 31.9791 106.567 38.3046V80.1657C106.142 137.469 104.87 199.609 102.749 266.587C100.629 333.564 98.0838 371.334 95.1147 379.89C88.9647 382.869 85.1472 384.357 83.6628 384.357Z" fill="#C69C3C"/>
<path d="M186.258 393.285C180.744 393.285 175.654 390.123 170.989 383.799C166.323 377.844 162.506 369.657 159.536 359.238C153.386 336.54 149.569 311.796 148.085 285.006C146.176 259.703 145.222 235.331 145.222 211.889C145.222 207.424 145.328 203.703 145.54 200.726V190.679C145.54 188.819 145.434 187.889 145.222 187.889V177.842L145.54 138.772C145.752 126.864 146.6 107.888 148.085 81.8407C149.145 63.9799 151.584 46.6774 155.401 29.9329C156.886 22.4909 158.794 16.9094 161.127 13.1884C163.46 9.09537 166.111 7.04883 169.08 7.04883C177.563 7.04883 185.198 9.83958 191.984 15.421C198.77 20.6304 204.496 28.0724 209.162 37.747C213.403 47.0494 217.008 58.5844 219.977 72.352C222.947 85.7476 225.067 100.073 226.34 115.329C227.612 130.958 228.248 147.516 228.248 165.005V169.47C228.248 181.005 228.354 191.423 228.566 200.726L228.884 232.54C228.884 339.705 214.676 393.285 186.258 393.285ZM184.985 369.843C188.803 369.843 192.302 367.239 195.483 362.031C198.664 356.448 201.103 349.008 202.799 339.705C206.829 320.727 209.268 300.261 210.116 278.308C211.176 259.331 211.706 242.959 211.706 229.191C211.706 212.447 210.964 190.493 209.48 163.33C208.207 134.678 207.571 113.283 207.571 99.1432V89.0965C207.147 74.9569 204.39 62.6776 199.3 52.2589C194.423 41.8402 188.378 36.6307 181.168 36.6307C173.957 36.6307 169.186 43.8865 166.853 58.3984C164.732 69.9334 163.672 84.8173 163.672 103.05C163.672 110.12 163.778 116.074 163.99 120.911V135.981L163.354 161.656C162.93 169.47 162.718 178.028 162.718 187.33C162.718 207.424 163.036 227.331 163.672 247.052C164.52 274.959 166.641 302.121 170.034 328.542C173.427 356.076 178.411 369.843 184.985 369.843Z" fill="#C69C3C"/>
<path d="M288.166 381.005C288.166 338.216 285.833 293.935 281.167 248.167C276.713 202.399 269.609 146.398 259.854 80.165C259.429 76.4441 258.475 70.6766 256.991 62.8625C253.174 42.0251 251.265 28.8155 251.265 23.234C251.265 19.8851 252.007 16.9083 253.492 14.3037C255.188 11.699 256.991 10.3966 258.899 10.3966C262.081 10.3966 265.049 15.0478 267.806 24.3503C270.563 33.2807 273.108 45.374 275.441 60.6299C277.774 75.5138 280.319 94.1186 283.076 116.445C285.621 137.654 288.696 170.213 292.301 214.12L294.21 235.888L298.027 285.563C298.875 299.331 299.617 309.191 300.253 315.146C304.708 274.214 310.435 215.051 317.431 137.654C323.158 71.4206 327.187 26.2108 329.521 2.02441H336.52C338.428 2.02441 340.123 3.32678 341.608 5.93147C343.093 8.16404 343.834 10.9548 343.834 14.3037C343.834 27.6992 342.88 42.2111 340.972 57.8393C339.274 73.0952 336.625 91.514 333.019 113.096C330.049 131.7 328.036 145.654 326.974 154.957C326.128 164.259 325.279 178.957 324.43 199.05C322.735 244.074 320.083 284.447 316.477 320.168C314.146 341.75 311.071 358.679 307.252 370.958C303.436 383.24 299.087 389.378 294.21 389.378L288.166 381.005Z" fill="#C69C3C"/>
<path d="M390.139 389.938C387.382 389.938 384.838 388.264 382.504 384.916C380.383 381.565 379.219 377.473 379.006 372.637V346.96C378.793 343.612 378.688 339.706 378.688 335.239C378.688 327.427 378.37 315.52 377.734 299.519L377.098 263.798C377.098 245.564 377.416 218.402 378.052 182.308C378.901 149.936 379.324 122.772 379.324 100.818C379.324 95.6092 379.006 87.7951 378.37 77.3764C377.734 66.5854 377.416 58.7713 377.416 53.9341C377.416 27.5151 381.868 14.3057 390.775 14.3057C397.774 14.3057 405.832 16.7243 414.952 21.5616C424.285 26.3989 428.95 32.1664 428.95 38.8642C428.95 42.5851 427.996 46.12 426.085 49.4689C424.39 52.4458 422.269 54.8644 419.725 56.725C410.818 51.1435 402.757 47.4223 395.548 45.562C395.761 51.1435 395.866 59.1436 395.866 69.5623C395.866 84.4462 395.761 97.8418 395.548 109.749C394.912 127.61 394.594 141.005 394.594 149.935L395.548 158.866L400.636 158.308C402.334 157.936 404.455 157.749 406.999 157.749C417.178 157.749 422.269 162.959 422.269 173.378C422.269 177.471 421.315 181.006 419.407 183.982C417.496 186.587 415.057 187.889 412.09 187.889C408.271 187.889 405.304 187.517 403.183 186.773H395.23C395.653 196.448 395.866 210.587 395.866 229.192C395.866 247.797 395.761 264.542 395.548 279.425C394.912 302.122 394.594 319.054 394.594 330.217C394.594 351.055 394.804 361.474 395.23 361.474L405.727 360.916C409.333 360.544 413.68 360.358 418.771 360.358C426.829 360.358 430.858 364.822 430.858 373.753C430.858 378.961 429.478 382.87 426.721 385.474C424.177 388.45 420.997 389.938 417.178 389.938H390.139Z" fill="#C69C3C"/>
<path d="M594.105 411.706C587.529 411.706 584.244 400.171 584.244 377.101V305.659C584.244 287.054 583.5 262.681 582.015 232.541C580.32 198.68 579.471 175.424 579.471 162.773L580.107 128.168C580.53 118.121 580.743 106.772 580.743 94.1206C579.894 98.9581 576.396 124.633 570.246 171.145C564.096 216.169 557.733 257.844 551.16 296.17C544.797 333.007 539.601 351.427 535.572 351.427C531.543 351.427 528.255 349.381 525.711 345.286C523.377 340.822 522.21 334.867 522.21 327.427C522.21 311.053 518.394 276.263 510.759 223.053C503.337 169.843 496.551 126.307 490.401 92.4463L488.493 155.517C486.795 208.727 485.628 253.007 484.992 288.356C484.569 322.588 484.356 346.03 484.356 358.681C484.356 361.66 484.461 364.45 484.674 367.054V374.869C484.674 381.193 483.933 385.846 482.448 388.822C480.963 392.17 478.206 393.844 474.177 393.844C472.056 393.844 470.04 392.356 468.132 389.38C466.224 386.776 465.27 383.8 465.27 380.449C465.27 342.496 466.86 285.565 470.04 209.657C473.223 133.749 474.813 76.8181 474.813 38.8642C473.541 35.5153 472.905 31.9804 472.905 28.2593C472.905 23.7942 474.072 20.4453 476.403 18.2127C478.95 15.608 481.917 14.3057 485.31 14.3057C488.067 14.3057 493.158 31.7944 500.58 66.7714C508.002 101.749 515.424 141.377 522.849 185.657C530.271 229.937 535.041 261.937 537.162 281.658C538.86 271.611 540.237 262.309 541.299 253.751L543.207 240.355C549.993 188.261 556.779 141.191 563.565 99.1441C567.594 73.4692 571.518 53.3761 575.337 38.8642C579.153 23.236 582.651 15.4219 585.834 15.4219C588.801 15.4219 591.453 16.9104 593.787 19.8871C596.331 22.4918 597.603 26.0268 597.603 30.4918C597.603 57.283 598.239 97.4695 599.511 151.052C600.996 200.913 601.74 239.611 601.74 267.146L601.422 296.728L600.783 326.311C600.783 330.775 601.104 337.474 601.74 346.402L602.694 365.938C602.904 369.286 603.012 371.893 603.012 373.753C603.222 375.613 603.33 376.729 603.33 377.101C604.389 381.937 604.92 385.474 604.92 387.706C604.92 394.033 603.858 399.613 601.74 404.449C599.619 409.288 597.072 411.706 594.105 411.706Z" fill="#C69C3C"/>
<path d="M653.445 388.263C648.78 388.263 645.918 384.729 644.856 377.658C644.01 373.194 643.584 366.867 643.584 358.68C643.584 342.681 644.01 322.959 644.856 299.518C645.918 277.192 646.449 257.285 646.449 239.796C646.449 220.075 646.767 190.493 647.403 151.051L648.039 62.8636C648.039 59.5147 647.721 54.4915 647.085 47.7937L646.131 33.8401V31.0492C646.131 22.4909 646.872 16.1653 648.357 12.0722C649.842 7.97916 652.599 5.93262 656.628 5.93262C662.142 5.93262 668.187 8.72334 674.76 14.3048C681.333 19.8863 686.106 26.9561 689.076 35.5144C695.226 53.3752 698.301 75.7009 698.301 102.492C698.301 122.585 697.347 139.516 695.436 153.283C693.528 166.679 690.24 179.144 685.575 190.679C691.302 200.354 695.118 212.819 697.026 228.075C699.147 242.959 700.209 261.75 700.209 284.448C700.209 307.146 697.983 326.868 693.528 343.611C688.437 362.589 681.015 375.612 671.262 382.683C665.322 386.403 659.385 388.263 653.445 388.263ZM663.627 174.493C674.655 174.121 680.169 151.609 680.169 106.957C680.169 58.9567 675.819 33.8398 667.125 31.6075C664.791 40.1656 663.627 60.259 663.627 91.8871V174.493ZM661.716 359.796C668.505 357.192 673.806 350.124 677.622 338.589C681.441 327.054 683.349 313.842 683.349 298.96C683.349 283.332 682.818 269.564 681.759 257.657C680.91 248.355 679.743 240.726 678.258 234.773C676.986 228.447 675.183 222.68 672.852 217.47C670.305 211.889 667.338 208.54 663.945 207.424C663.096 228.633 662.673 256.727 662.673 291.704C662.673 293.936 662.46 301.005 662.034 312.912L661.398 331.89C661.398 332.634 661.506 333.192 661.716 333.564V359.796Z" fill="#C69C3C"/>
<path d="M749.564 389.938C746.807 389.938 744.263 388.264 741.929 384.916C739.808 381.565 738.641 377.473 738.431 372.637V346.96C738.218 343.612 738.113 339.706 738.113 335.239C738.113 327.427 737.795 315.52 737.159 299.519L736.523 263.798C736.523 245.564 736.841 218.402 737.477 182.308C738.323 149.936 738.749 122.772 738.749 100.818C738.749 95.6092 738.431 87.7951 737.795 77.3764C737.159 66.5854 736.841 58.7713 736.841 53.9341C736.841 27.5151 741.293 14.3057 750.2 14.3057C757.199 14.3057 765.257 16.7243 774.377 21.5616C783.707 26.3989 788.375 32.1664 788.375 38.8642C788.375 42.5851 787.418 46.12 785.51 49.4689C783.815 52.4458 781.694 54.8644 779.147 56.725C770.24 51.1435 762.182 47.4223 754.973 45.562C755.183 51.1435 755.291 59.1436 755.291 69.5623C755.291 84.4462 755.183 97.8418 754.973 109.749C754.337 127.61 754.019 141.005 754.019 149.935L754.973 158.866L760.061 158.308C761.759 157.936 763.88 157.749 766.424 157.749C776.603 157.749 781.694 162.959 781.694 173.378C781.694 177.471 780.74 181.006 778.829 183.982C776.921 186.587 774.482 187.889 771.515 187.889C767.696 187.889 764.726 187.517 762.608 186.773H754.655C755.078 196.448 755.291 210.587 755.291 229.192C755.291 247.797 755.183 264.542 754.973 279.425C754.337 302.122 754.019 319.054 754.019 330.217C754.019 351.055 754.229 361.474 754.655 361.474L765.152 360.916C768.758 360.544 773.105 360.358 778.193 360.358C786.254 360.358 790.283 364.822 790.283 373.753C790.283 378.961 788.903 382.87 786.146 385.474C783.602 388.45 780.422 389.938 776.603 389.938H749.564Z" fill="#C69C3C"/>
<path d="M881.001 392.169C876.336 392.169 872.094 383.241 868.278 365.379C863.823 346.029 860.535 326.124 858.417 305.658L856.188 286.68C850.038 233.47 846.117 203.144 844.419 195.702H840.603C840.603 206.493 840.495 216.354 840.285 225.284V255.982C840.285 305.844 842.298 344.727 846.327 372.636L842.829 387.705H833.922L829.785 379.332L830.103 341.937C830.103 308.448 829.149 257.657 827.241 189.563C825.543 117.004 824.697 66.2122 824.697 37.1884C824.697 19.3278 828.195 10.3975 835.194 10.3975C846.645 10.3975 855.978 15.6068 863.187 26.0256C870.609 36.4444 874.32 50.9563 874.32 69.5611V108.631C874.32 114.213 873.792 120.725 872.73 128.166C871.671 135.237 870.504 141.004 869.232 145.469L863.187 165.562L858.099 182.307L859.689 195.702L864.141 235.331C867.111 263.982 869.973 287.238 872.73 305.1C875.487 322.959 878.88 339.147 882.909 353.658L884.82 360.357C886.941 367.797 888 373.752 888 378.216C888 381.936 887.364 385.101 886.092 387.705C884.82 390.681 883.122 392.169 881.001 392.169ZM841.875 168.353C846.54 164.26 850.464 153.097 853.644 134.864C857.037 116.259 858.735 99.1429 858.735 83.5147C858.735 71.6077 857.886 60.4447 856.188 50.026C855.129 44.0722 853.326 39.6073 850.782 36.6304C848.448 33.2815 845.478 31.6072 841.875 31.6072L841.239 34.3978L840.603 39.421L841.239 105.282C841.662 124.632 841.875 145.655 841.875 168.353Z" fill="#C69C3C"/>
</svg>
