<svg width="296" height="138" viewBox="0 0 296 138" fill="none" xmlns="http://www.w3.org/2000/svg">
<path d="M27.8876 128.119C27.0393 128.119 26.4031 127.747 25.9789 127.002C25.5548 126.134 25.2367 124.708 25.0246 122.723L24.3884 119.188V118.258C24.3884 114.165 21.9496 100.211 17.0719 76.397C12.2649 52.5827 8.48292 34.9701 5.72597 23.5591V117.142L6.15012 118.444C6.22081 118.692 6.36219 119.126 6.57426 119.746C6.78633 120.367 6.89237 120.987 6.89237 121.607C6.89237 123.219 6.57426 124.584 5.93804 125.7C5.30182 126.816 4.52422 127.374 3.60524 127.374C1.34313 127.374 0.212073 123.591 0.212073 116.025L0.106037 84.2111C0.0353456 74.6606 0 63.9937 0 52.2106C0 48.2416 0.106036 42.4741 0.318109 34.9081C0.530183 27.094 0.636219 21.3265 0.636219 17.6055C0.636219 11.776 1.90866 7.18677 4.45353 3.83789V4.95418C4.87768 4.70612 5.16044 4.58208 5.30182 4.58208C6.92772 4.58208 8.97776 9.54339 11.4519 19.466C13.4313 27.4041 15.1986 35.7763 16.7538 44.5826C18.3797 53.3889 20.5004 65.9163 23.116 82.1645L24.1763 88.8623C25.8022 98.909 27.0393 106.103 27.8876 110.444C29.3014 83.777 30.0083 52.2727 30.0083 15.9311V13.5124C29.9376 12.7682 29.9023 11.962 29.9023 11.0938C29.9023 7.37282 30.7506 5.51233 32.4472 5.51233C33.4368 5.51233 34.1791 6.19451 34.6739 7.55886C35.2395 8.92323 35.5222 10.6597 35.5222 12.7682V26.7219C35.3808 45.823 34.9567 66.5364 34.2498 88.8623C33.5429 111.188 32.6946 123.778 31.7049 126.63C29.6549 127.623 28.3824 128.119 27.8876 128.119Z" fill="#C69C3C"/>
<path d="M62.086 131.095C60.248 131.095 58.5515 130.041 56.9963 127.933C55.4411 125.948 54.1686 123.219 53.1789 119.746C51.1289 112.18 49.8565 103.932 49.3616 95.0019C48.7254 86.5677 48.4073 78.4436 48.4073 70.6295C48.4073 69.1411 48.4427 67.9008 48.5133 66.9085V63.5596C48.5133 62.9395 48.478 62.6294 48.4073 62.6294V59.2805L48.5133 46.2571C48.584 42.288 48.8668 35.9624 49.3616 27.2801C49.7151 21.3265 50.528 15.559 51.8005 9.9775C52.2953 7.49685 52.9315 5.63636 53.7091 4.39603C54.4867 3.03167 55.3704 2.34949 56.36 2.34949C59.1877 2.34949 61.7326 3.27974 63.9947 5.14022C66.2568 6.87668 68.1654 9.35734 69.7206 12.5822C71.1345 15.683 72.3362 19.528 73.3259 24.1172C74.3156 28.5824 75.0225 33.3577 75.4466 38.443C75.8708 43.6524 76.0828 49.1718 76.0828 55.0014V56.4898C76.0828 60.3348 76.1182 63.8077 76.1889 66.9085L76.2949 77.5133C76.2949 113.235 71.5586 131.095 62.086 131.095ZM61.6619 123.281C62.9343 123.281 64.1007 122.413 65.1611 120.677C66.2214 118.816 67.0344 116.336 67.5999 113.235C68.943 106.909 69.756 100.087 70.0388 92.7693C70.3922 86.4437 70.5689 80.9862 70.5689 76.397C70.5689 70.8155 70.3215 63.4976 69.8267 54.4432C69.4025 44.8927 69.1905 37.7608 69.1905 33.0476V29.6987C69.0491 24.9855 68.1301 20.8924 66.4335 17.4195C64.8076 13.9466 62.7929 12.2101 60.3894 12.2101C57.9859 12.2101 56.3954 14.6287 55.6178 19.466C54.9109 23.311 54.5574 28.2723 54.5574 34.3499C54.5574 36.7065 54.5928 38.6911 54.6635 40.3035V45.3268L54.4514 53.8851C54.31 56.4898 54.2393 59.3425 54.2393 62.4433C54.2393 69.1411 54.3454 75.7769 54.5574 82.3506C54.8402 91.653 55.5471 100.707 56.6781 109.514C57.8092 118.692 59.4704 123.281 61.6619 123.281Z" fill="#C69C3C"/>
<path d="M96.055 127.002C96.055 112.739 95.2774 97.9787 93.7222 82.7227C92.2376 67.4667 89.8695 48.7997 86.6177 26.7219C86.4763 25.4816 86.1582 23.5591 85.6634 20.9544C84.391 14.0086 83.7547 9.60541 83.7547 7.74491C83.7547 6.62862 84.0022 5.63636 84.497 4.76813C85.0625 3.8999 85.6634 3.46578 86.2996 3.46578C87.36 3.46578 88.3496 5.01619 89.2686 8.11701C90.1876 11.0938 91.0359 15.1249 91.8135 20.2102C92.5911 25.1715 93.4394 31.3731 94.3584 38.8151C95.2067 45.885 96.2317 56.7378 97.4334 71.3737L98.0697 78.6296L99.3421 95.188C99.6249 99.7772 99.8723 103.064 100.084 105.049C101.569 91.405 103.478 71.6838 105.81 45.885C107.719 23.8071 109.062 8.73717 109.84 0.675049H112.173C112.809 0.675049 113.374 1.10917 113.869 1.9774C114.364 2.72159 114.611 3.65184 114.611 4.76813C114.611 9.23331 114.293 14.0706 113.657 19.28C113.091 24.3653 112.208 30.5049 111.006 37.6988C110.016 43.9004 109.345 48.5517 108.991 51.6525C108.709 54.7533 108.426 59.6526 108.143 66.3504C107.578 81.3583 106.694 94.8159 105.492 106.723C104.715 113.917 103.69 119.56 102.417 123.653C101.145 127.747 99.6955 129.793 98.0697 129.793L96.055 127.002Z" fill="#C69C3C"/>
<path d="M130.046 129.979C129.127 129.979 128.279 129.421 127.501 128.305C126.794 127.188 126.406 125.824 126.335 124.212V115.653C126.264 114.537 126.229 113.235 126.229 111.746C126.229 109.142 126.123 105.173 125.911 99.8392L125.699 87.9321C125.699 81.8544 125.805 72.8001 126.017 60.7689C126.3 49.9781 126.441 40.9237 126.441 33.6057C126.441 31.8693 126.335 29.2646 126.123 25.7917C125.911 22.1947 125.805 19.59 125.805 17.9776C125.805 9.17129 127.289 4.76813 130.258 4.76813C132.591 4.76813 135.277 5.57434 138.317 7.18677C141.428 8.7992 142.983 10.7217 142.983 12.9543C142.983 14.1946 142.665 15.3729 142.028 16.4892C141.463 17.4815 140.756 18.2877 139.908 18.9079C136.939 17.0474 134.252 15.807 131.849 15.1869C131.92 17.0474 131.955 19.7141 131.955 23.187C131.955 28.1483 131.92 32.6135 131.849 36.5825C131.637 42.5361 131.531 47.0013 131.531 49.978L131.849 52.9548L133.545 52.7688C134.111 52.6448 134.818 52.5827 135.666 52.5827C139.059 52.5827 140.756 54.3192 140.756 57.7921C140.756 59.1565 140.438 60.3348 139.802 61.327C139.165 62.1953 138.352 62.6294 137.363 62.6294C136.09 62.6294 135.101 62.5054 134.394 62.2573H131.743C131.884 65.4821 131.955 70.1954 131.955 76.397C131.955 82.5987 131.92 88.1801 131.849 93.1414C131.637 100.707 131.531 106.351 131.531 110.072C131.531 117.018 131.601 120.491 131.743 120.491L135.242 120.305C136.444 120.181 137.893 120.119 139.59 120.119C142.276 120.119 143.619 121.607 143.619 124.584C143.619 126.32 143.159 127.623 142.24 128.491C141.392 129.483 140.332 129.979 139.059 129.979H130.046Z" fill="#C69C3C"/>
<path d="M198.035 137.235C195.843 137.235 194.748 133.39 194.748 125.7V101.886C194.748 95.6841 194.5 87.56 194.005 77.5133C193.44 66.2263 193.157 58.4743 193.157 54.2572L193.369 42.7221C193.51 39.3733 193.581 35.5903 193.581 31.3731C193.298 32.9856 192.132 41.5438 190.082 57.0479C188.032 72.0559 185.911 85.9475 183.72 98.7229C181.599 111.002 179.867 117.142 178.524 117.142C177.181 117.142 176.085 116.46 175.237 115.095C174.459 113.607 174.07 111.622 174.07 109.142C174.07 103.684 172.798 92.0872 170.253 74.3505C167.779 56.6138 165.517 42.102 163.467 30.815L162.831 51.8385C162.265 69.5752 161.876 84.3351 161.664 96.1182C161.523 107.529 161.452 115.343 161.452 119.56C161.452 120.553 161.487 121.483 161.558 122.351V124.956C161.558 127.064 161.311 128.615 160.816 129.607C160.321 130.723 159.402 131.281 158.059 131.281C157.352 131.281 156.68 130.785 156.044 129.793C155.408 128.925 155.09 127.933 155.09 126.816C155.09 114.165 155.62 95.188 156.68 69.8853C157.741 44.5826 158.271 25.6056 158.271 12.9543C157.847 11.838 157.635 10.6597 157.635 9.41935C157.635 7.93096 158.024 6.81467 158.801 6.07047C159.65 5.20224 160.639 4.76813 161.77 4.76813C162.689 4.76813 164.386 10.5977 166.86 22.2567C169.334 33.9158 171.808 47.1253 174.283 61.8852C176.757 76.6451 178.347 87.3119 179.054 93.8856C179.62 90.5367 180.079 87.4359 180.433 84.5832L181.069 80.118C183.331 62.7534 185.593 47.0633 187.855 33.0476C189.198 24.4893 190.506 17.7916 191.779 12.9543C193.051 7.74491 194.217 5.14022 195.278 5.14022C196.267 5.14022 197.151 5.63636 197.929 6.62862C198.777 7.49685 199.201 8.67516 199.201 10.1635C199.201 19.0939 199.413 32.4894 199.837 50.3501C200.332 66.9705 200.58 79.8699 200.58 89.0484L200.474 98.9089L200.261 108.77C200.261 110.258 200.368 112.491 200.58 115.467L200.898 121.979C200.968 123.095 201.004 123.964 201.004 124.584C201.074 125.204 201.11 125.576 201.11 125.7C201.463 127.312 201.64 128.491 201.64 129.235C201.64 131.344 201.286 133.204 200.58 134.816C199.873 136.429 199.024 137.235 198.035 137.235Z" fill="#C69C3C"/>
<path d="M217.815 129.421C216.26 129.421 215.306 128.243 214.952 125.886C214.67 124.398 214.528 122.289 214.528 119.56C214.528 114.227 214.67 107.653 214.952 99.8392C215.306 92.3972 215.483 85.7615 215.483 79.9319C215.483 73.3582 215.589 63.4976 215.801 50.3501L216.013 20.9544C216.013 19.8381 215.907 18.1637 215.695 15.9311L215.377 11.2799V10.3496C215.377 7.49684 215.624 5.38829 216.119 4.02393C216.614 2.65958 217.533 1.9774 218.876 1.9774C220.714 1.9774 222.729 2.90764 224.92 4.76813C227.111 6.62862 228.702 8.98524 229.692 11.838C231.742 17.7916 232.767 25.2335 232.767 34.1639C232.767 40.8616 232.449 46.5051 231.812 51.0943C231.176 55.5595 230.08 59.7146 228.525 63.5596C230.434 66.7845 231.706 70.9396 232.342 76.0249C233.049 80.9862 233.403 87.2499 233.403 94.8159C233.403 102.382 232.661 108.956 231.176 114.537C229.479 120.863 227.005 125.204 223.754 127.561C221.774 128.801 219.795 129.421 217.815 129.421ZM221.209 58.1642C224.885 58.0402 226.723 50.5362 226.723 35.6523C226.723 19.6521 225.273 11.2798 222.375 10.5357C221.597 13.3884 221.209 20.0862 221.209 30.6289V58.1642ZM220.572 119.932C222.835 119.064 224.602 116.708 225.874 112.863C227.147 109.018 227.783 104.614 227.783 99.6531C227.783 94.4438 227.606 89.8546 227.253 85.8855C226.97 82.7847 226.581 80.242 226.086 78.2575C225.662 76.1489 225.061 74.2264 224.284 72.49C223.435 70.6295 222.446 69.5132 221.315 69.1411C221.032 76.211 220.891 85.5754 220.891 97.2345C220.891 97.9787 220.82 100.335 220.678 104.304L220.466 110.63C220.466 110.878 220.502 111.064 220.572 111.188V119.932Z" fill="#C69C3C"/>
<path d="M249.855 129.979C248.936 129.979 248.088 129.421 247.31 128.305C246.603 127.188 246.214 125.824 246.144 124.212V115.653C246.073 114.537 246.038 113.235 246.038 111.746C246.038 109.142 245.932 105.173 245.72 99.8392L245.508 87.9321C245.508 81.8544 245.614 72.8001 245.826 60.7689C246.108 49.9781 246.25 40.9237 246.25 33.6057C246.25 31.8693 246.144 29.2646 245.932 25.7917C245.72 22.1947 245.614 19.59 245.614 17.9776C245.614 9.17129 247.098 4.76813 250.067 4.76813C252.4 4.76813 255.086 5.57434 258.126 7.18677C261.236 8.7992 262.792 10.7217 262.792 12.9543C262.792 14.1946 262.473 15.3729 261.837 16.4892C261.272 17.4815 260.565 18.2877 259.716 18.9079C256.747 17.0474 254.061 15.807 251.658 15.1869C251.728 17.0474 251.764 19.7141 251.764 23.187C251.764 28.1483 251.728 32.6135 251.658 36.5825C251.446 42.5361 251.34 47.0013 251.34 49.978L251.658 52.9548L253.354 52.7688C253.92 52.6448 254.627 52.5827 255.475 52.5827C258.868 52.5827 260.565 54.3192 260.565 57.7921C260.565 59.1565 260.247 60.3348 259.61 61.327C258.974 62.1953 258.161 62.6294 257.172 62.6294C255.899 62.6294 254.909 62.5054 254.203 62.2573H251.552C251.693 65.4821 251.764 70.1954 251.764 76.397C251.764 82.5987 251.728 88.1801 251.658 93.1414C251.446 100.707 251.34 106.351 251.34 110.072C251.34 117.018 251.41 120.491 251.552 120.491L255.051 120.305C256.253 120.181 257.702 120.119 259.398 120.119C262.085 120.119 263.428 121.607 263.428 124.584C263.428 126.32 262.968 127.623 262.049 128.491C261.201 129.483 260.141 129.979 258.868 129.979H249.855Z" fill="#C69C3C"/>
<path d="M293.667 130.723C292.112 130.723 290.698 127.747 289.426 121.793C287.941 115.343 286.845 108.708 286.139 101.886L285.396 95.5601C283.346 77.8234 282.039 67.7147 281.473 65.2341H280.201C280.201 68.831 280.165 72.1179 280.095 75.0947V85.3274C280.095 101.948 280.766 114.909 282.109 124.212L280.943 129.235H277.974L276.595 126.444L276.701 113.979C276.701 102.816 276.383 85.8855 275.747 63.1875C275.181 39.0012 274.899 22.0707 274.899 12.3961C274.899 6.44257 276.065 3.46578 278.398 3.46578C282.215 3.46578 285.326 5.20224 287.729 8.67515C290.203 12.1481 291.44 16.9854 291.44 23.187V36.2104C291.44 38.0709 291.264 40.2415 290.91 42.7221C290.557 45.0788 290.168 47.0013 289.744 48.4897L287.729 55.1874L286.033 60.7689L286.563 65.2341L288.047 78.4436C289.037 87.9941 289.991 95.7461 290.91 101.7C291.829 107.653 292.96 113.049 294.303 117.886L294.94 120.119C295.647 122.599 296 124.584 296 126.072C296 127.312 295.788 128.367 295.364 129.235C294.94 130.227 294.374 130.723 293.667 130.723ZM280.625 56.1177C282.18 54.7533 283.488 51.0323 284.548 44.9547C285.679 38.7531 286.245 33.0476 286.245 27.8382C286.245 23.8692 285.962 20.1482 285.396 16.6753C285.043 14.6907 284.442 13.2024 283.594 12.2101C282.816 11.0938 281.826 10.5357 280.625 10.5357L280.413 11.4659L280.201 13.1403L280.413 35.0941C280.554 41.5438 280.625 48.5517 280.625 56.1177Z" fill="#C69C3C"/>
</svg>
