<svg width="296" height="197" viewBox="0 0 296 197" fill="none" xmlns="http://www.w3.org/2000/svg">
<rect y="0.895508" width="296" height="195.472" rx="20.9434" fill="#76DC9F"/>
<rect y="0.895508" width="296" height="195.472" rx="20.9434" fill="black" fill-opacity="0.03"/>
<line x1="15.0101" y1="62.6784" x2="280.991" y2="62.6784" stroke="white" stroke-opacity="0.5" stroke-width="2.09434" stroke-linecap="round"/>
<path d="M108.515 46.6653C108.263 46.5256 108.068 46.2743 108.012 45.9392C107.984 45.6879 107.984 45.4366 107.956 45.1573C107.9 44.2638 107.873 43.3422 107.845 42.4487C107.817 41.1921 107.789 39.9634 107.789 38.7068C107.761 37.3385 107.761 35.9702 107.761 34.6019C107.733 33.3173 107.733 32.0328 107.761 30.7483C107.761 29.743 107.789 28.7656 107.817 27.7883C107.817 27.537 107.845 27.2856 107.873 27.0064C108.068 24.1581 108.208 23.6555 108.906 23.3204C109.632 22.9573 110.414 23.4321 110.888 24.4932C111.223 25.1913 112.452 29.2683 112.899 31.1113C114.1 36.1936 114.993 39.6283 115.133 39.6283C115.356 39.6283 116.78 34.9928 118.4 28.9053C119.126 26.2245 119.796 24.2419 120.131 23.7392C120.439 23.2924 120.913 22.9853 121.276 22.9853C121.835 22.9853 122.421 23.46 122.673 24.1302C123.091 25.303 123.147 26.5875 123.063 36.9755C123.063 38.7347 123.036 40.4939 123.036 42.2532C123.008 43.1747 123.008 44.1241 123.008 45.0456C123.008 45.3249 123.036 45.6321 123.008 45.8834C122.896 46.9166 121.416 47.0283 120.941 46.2185C120.802 45.9392 120.802 45.3807 120.802 37.3664C120.802 29.8826 120.802 28.8773 120.69 29.2683C117.981 38.9022 117.702 39.7958 117.116 40.857C116.138 42.6162 114.742 43.0909 113.793 41.9739C113.039 41.1362 112.676 39.9355 110.665 31.6698C110.162 29.6034 110.134 29.4917 110.079 29.8826C109.967 30.5249 109.967 35.4117 110.079 40.9128C110.218 46.4977 110.218 46.3022 109.604 46.6932C109.241 46.9166 108.822 46.8607 108.515 46.6653ZM135.342 42.8675C135.732 43.063 135.956 43.426 135.956 43.8728C135.956 44.3475 135.76 44.6547 135.174 45.1853C133.889 46.3581 131.6 46.9166 130.12 46.4139C128.779 45.9392 127.69 44.9898 126.964 43.7611C125.54 41.3596 125.512 38.1204 126.238 35.4675C126.88 33.0102 127.942 31.2788 129.589 30.0502C129.757 29.9385 129.924 29.8268 130.092 29.7151C131.655 28.8494 133.61 29.0449 134.448 30.7483C135.146 32.1445 134.895 33.9038 134.252 35.3C133.415 37.1988 131.041 38.7068 128.891 38.7068H128.109V38.7347C128.109 39.3211 128.137 39.9075 128.221 40.4939C128.249 40.6894 128.305 40.8849 128.332 41.0804C128.64 42.309 129.282 43.4819 130.427 44.0683C131.572 44.6547 133.024 44.1241 133.889 43.2864C134.448 42.7558 134.839 42.6441 135.342 42.8675ZM129.142 34.1271C128.695 35.0766 128.36 36.1377 128.444 36.3611C128.64 36.8358 129.868 36.2773 130.148 36.1377C131.711 35.4955 133.024 33.7362 132.549 31.977C132.409 31.5022 132.158 31.3626 131.655 31.5022C130.818 31.7256 129.785 32.7868 129.142 34.1271ZM146.331 42.8675C146.722 43.063 146.946 43.426 146.946 43.8728C146.946 44.3475 146.75 44.6547 146.164 45.1853C144.879 46.3581 142.589 46.9166 141.109 46.4139C139.769 45.9392 138.68 44.9898 137.954 43.7611C136.53 41.3596 136.502 38.1204 137.228 35.4675C137.87 33.0102 138.931 31.2788 140.579 30.0502C140.746 29.9385 140.914 29.8268 141.082 29.7151C142.645 28.8494 144.6 29.0449 145.438 30.7483C146.136 32.1445 145.885 33.9038 145.242 35.3C144.405 37.1988 142.031 38.7068 139.881 38.7068H139.099V38.7347C139.099 39.3211 139.127 39.9075 139.211 40.4939C139.239 40.6894 139.294 40.8849 139.322 41.0804C139.629 42.309 140.272 43.4819 141.417 44.0683C142.562 44.6547 144.014 44.1241 144.879 43.2864C145.438 42.7558 145.829 42.6441 146.331 42.8675ZM140.132 34.1271C139.685 35.0766 139.35 36.1377 139.434 36.3611C139.629 36.8358 140.858 36.2773 141.137 36.1377C142.701 35.4955 144.014 33.7362 143.539 31.977C143.399 31.5022 143.148 31.3626 142.645 31.5022C141.808 31.7256 140.774 32.7868 140.132 34.1271ZM151.541 46.2185C151.345 46.1068 151.178 45.9392 151.122 45.6879C150.954 45.1015 151.01 44.4313 150.982 43.817C150.954 42.1415 150.954 40.4381 150.954 38.7626L150.926 32.0607H149.474C148.637 32.0607 147.268 32.2283 147.101 31.1113C147.045 30.7204 147.185 30.3573 147.464 30.106C147.939 29.6592 148.86 29.7709 149.474 29.7709H150.871V26.8947C150.871 26.1128 150.871 25.303 150.899 24.4932C150.926 24.186 150.926 23.7951 151.122 23.5438C151.317 23.2366 151.736 23.069 152.099 23.097C153.3 23.1807 153.16 24.577 153.16 25.4147C153.188 25.9173 153.188 26.3921 153.188 26.8947V29.7709L154.668 29.7988C155.283 29.7988 156.12 29.6592 156.539 30.2736C156.819 30.6924 156.763 31.3905 156.344 31.6977C155.897 32.0328 155.115 31.949 154.613 31.977L153.216 32.0328V38.8743C153.216 40.5219 153.244 42.1694 153.216 43.817C153.216 44.4313 153.244 45.1573 153.105 45.7717C152.937 46.4419 152.071 46.5536 151.541 46.2185ZM158.525 46.4698C158.302 46.3581 158.079 46.1905 158.023 45.9392C157.967 45.7996 157.939 45.6041 157.939 45.4366C157.883 44.7385 157.911 44.0124 157.911 43.2864C157.967 38.2321 158.134 31.1951 158.218 30.5528C158.302 29.9943 158.33 29.8826 158.637 29.6034C159.14 29.1287 159.894 29.2404 160.285 29.8268C160.452 30.106 160.48 31.1392 160.368 32.8985C160.341 33.3173 160.285 36.3611 160.257 39.6283C160.229 41.1921 160.229 42.7838 160.145 44.3475C160.145 44.8781 160.173 45.5204 159.978 46.023C159.81 46.4419 159.224 46.6094 158.805 46.5536C158.721 46.5256 158.609 46.4977 158.525 46.4698ZM158.861 27.3415C158.833 27.3136 158.777 27.2856 158.721 27.2577C158.051 26.8109 158.107 25.8336 158.777 25.3868C159.084 25.1913 159.614 25.2192 159.922 25.3868C160.201 25.5543 160.368 25.8336 160.424 26.1407C160.536 26.8388 160.089 27.4532 159.363 27.4532C159.196 27.4532 159.028 27.4253 158.861 27.3415ZM164.389 46.3302C164.026 46.2464 163.859 46.1068 163.663 45.7438C163.523 45.4366 163.523 43.3143 163.747 34.8811C163.859 30.5528 163.859 30.469 164.389 30.1339C165.003 29.7709 165.73 30.0222 166.009 30.6645C166.12 30.9438 166.148 31.1951 166.093 31.7815L166.037 32.5634L166.483 31.977C167.377 30.7762 168.717 29.7709 170.197 29.4358C172.403 28.9332 174.051 30.6924 174.693 32.5913C175.224 34.2109 175.168 35.9422 175.196 37.6177C175.252 40.9407 175.056 45.1853 174.805 45.7438C174.665 46.1068 174.191 46.4139 173.8 46.4139C173.409 46.4139 172.934 46.1068 172.794 45.7158C172.683 45.4645 172.683 45.1853 172.739 44.0962C172.878 42.1694 173.046 40.2147 173.046 38.26C173.046 36.5007 173.074 34.2388 172.264 32.6192C171.426 30.9438 169.862 31.7256 168.829 32.7588C167.796 33.7921 166.986 35.5513 166.288 38.3717C166.009 39.5445 165.869 41.3875 165.841 44.0124C165.841 44.6547 165.813 45.3249 165.757 45.4924C165.59 46.1068 165.003 46.4419 164.389 46.3302ZM188.504 36.4449C188.531 37.4502 188.531 38.4555 188.531 39.4607C188.559 42.2532 188.531 45.0456 188.476 47.8381C188.42 50.463 188.14 53.1717 186.102 55.0705C184.79 56.2992 183.03 56.6343 181.299 56.2713C180.322 56.0479 179.679 55.7687 178.814 55.0985C178.367 54.7634 177.836 54.4283 177.892 53.786C177.92 53.2275 178.395 52.7528 178.981 52.7528C179.372 52.7528 179.512 52.8087 180.098 53.2275C180.964 53.8419 181.522 54.0653 182.444 54.1211C186.214 54.3445 186.158 49.0947 186.214 46.5256C186.27 45.2132 186.297 43.9007 186.297 42.6162C186.325 42.1415 186.325 41.6668 186.325 41.1921C186.325 41.0524 186.381 40.7173 186.297 40.6056C186.27 40.5498 186.074 40.9407 185.879 41.4434C184.929 44.0124 183.868 45.4366 182.416 46.1626C181.522 46.6094 180.294 46.6373 179.484 45.9951C177.641 44.6547 177.25 41.8622 177.362 39.74C177.473 37.869 177.948 35.9702 178.73 34.2668C179.847 31.8932 182.053 28.6819 185.153 29.8268C186.549 30.3573 187.442 31.6977 188.085 32.9822C188.308 33.457 188.42 33.9317 188.42 34.4343L188.504 36.4449ZM185.488 35.1045L185.934 33.7921L185.711 33.3732C185.46 32.9264 185.153 32.4517 184.734 32.1445C183.254 31.0834 181.774 33.3173 181.159 34.4064C180.35 35.8305 179.903 37.4781 179.735 39.0977C179.512 41.2479 179.931 43.5377 180.685 44.0683C180.936 44.2638 181.383 44.2079 181.746 43.9287C182.723 43.2305 183.589 41.4434 184.594 38.0366C184.873 37.1709 185.264 35.8305 185.488 35.1045Z" fill="white"/>
</svg>
