<svg width="296" height="137" viewBox="0 0 296 137" fill="none" xmlns="http://www.w3.org/2000/svg">
<path d="M4.92163 129.537C3.60919 129.161 2.47904 128.347 1.53117 127.095C0.656217 125.843 0.145826 124.215 0 122.211L1.20306 119.018C1.64054 119.018 2.33322 119.268 3.28109 119.769C4.37478 120.145 5.21328 120.333 5.79658 120.333C7.10902 120.333 8.27563 119.331 9.29641 117.327C10.3901 115.324 11.1921 112.694 11.7025 109.438C12.6504 103.427 13.1243 98.0425 13.1243 93.2838C13.1243 85.0189 11.5932 76.3156 8.53082 67.174L7.32776 63.6051C5.94241 59.4726 4.7758 55.7784 3.82793 52.5225C2.88006 49.2666 2.07802 45.7602 1.4218 42.0034C0.546847 37.1196 0.109369 32.2357 0.109369 27.3518C0.109369 21.8419 0.8385 16.0814 2.29676 10.0705C3.02589 7.19031 4.04667 4.87361 5.35911 3.12043C6.74445 1.24203 8.27563 0.302828 9.95262 0.302828C11.2651 0.302828 12.4681 1.05419 13.5618 2.55691C14.7284 3.93441 15.3117 5.62497 15.3117 7.6286C15.3117 8.75564 15.0565 9.63223 14.5461 10.2584C14.0358 10.8845 13.416 11.1976 12.6869 11.1976C11.8848 11.1976 11.1192 10.8219 10.3901 10.0705C8.78602 10.1958 7.51004 12.6377 6.56217 17.3963C5.76013 21.7792 5.35911 25.4108 5.35911 28.2911C5.35911 31.9226 5.68721 35.6168 6.34343 39.3736C6.99965 43.0052 7.83815 46.3237 8.85893 49.3292L11.2651 56.8428L15.093 69.2403C16.1138 72.7466 16.9158 76.8165 17.4991 81.4499C18.1553 86.0833 18.4834 90.7793 18.4834 95.5379C18.4834 103.177 17.4627 110.44 15.4211 117.327C14.4003 120.834 12.9421 123.651 11.0463 125.78C9.2235 127.909 7.18193 128.974 4.92163 128.974V129.537Z" fill="#E06E51"/>
<path d="M35.0059 129.349C34.0581 129.349 33.1831 128.786 32.3811 127.659C31.6519 126.532 31.2509 125.154 31.178 123.526V114.885C31.1051 113.758 31.0686 112.444 31.0686 110.941C31.0686 108.311 30.9593 104.304 30.7405 98.9191L30.5218 86.8973C30.5218 80.7611 30.6312 71.6196 30.8499 59.4726C31.1415 48.5778 31.2874 39.4363 31.2874 32.0479C31.2874 30.2947 31.178 27.6649 30.9593 24.1586C30.7405 20.527 30.6312 17.8972 30.6312 16.2693C30.6312 7.37815 32.1623 2.93259 35.2247 2.93259C37.6308 2.93259 40.4015 3.74657 43.5368 5.37452C46.7449 7.00247 48.349 8.94349 48.349 11.1976C48.349 12.4498 48.0209 13.6395 47.3647 14.7665C46.7814 15.7684 46.0523 16.5823 45.1773 17.2085C42.1149 15.3301 39.3443 14.0778 36.8652 13.4517C36.9381 15.3301 36.9746 18.0224 36.9746 21.5288C36.9746 26.5379 36.9381 31.046 36.8652 35.0533C36.6465 41.0642 36.5371 45.5724 36.5371 48.5778L36.8652 51.5833L38.6151 51.3954C39.1984 51.2702 39.9276 51.2076 40.8025 51.2076C44.3023 51.2076 46.0523 52.9608 46.0523 56.4671C46.0523 57.8446 45.7241 59.0343 45.0679 60.0361C44.4117 60.9127 43.5732 61.351 42.5524 61.351C41.24 61.351 40.2192 61.2257 39.4901 60.9753H36.7558C36.9017 64.2312 36.9746 68.9898 36.9746 75.2512C36.9746 81.5125 36.9381 87.1477 36.8652 92.1568C36.6465 99.7956 36.5371 105.493 36.5371 109.25C36.5371 116.263 36.61 119.769 36.7558 119.769L40.365 119.582C41.6046 119.456 43.0993 119.394 44.8492 119.394C47.6199 119.394 49.0052 120.896 49.0052 123.902C49.0052 125.655 48.5313 126.97 47.5834 127.846C46.7085 128.848 45.6148 129.349 44.3023 129.349H35.0059Z" fill="#E06E51"/>
<path d="M63.4617 128.222C62.5138 121.585 62.0398 112.381 62.0398 100.61L62.2586 83.8918C62.4044 78.8827 62.4773 73.3101 62.4773 67.174C62.0399 65.4208 61.8211 63.8555 61.8211 62.478V61.9145C62.5502 59.5352 62.9148 54.1504 62.9148 45.7602L63.0242 37.1196C63.0971 34.3646 63.1335 31.2965 63.1335 27.9154C63.1335 20.527 62.8419 14.7039 62.2586 10.4462C62.4773 8.69304 62.8419 7.19031 63.3523 5.93804C63.8627 4.56054 64.4824 3.8718 65.2116 3.8718H70.0238C72.0654 3.8718 73.8518 4.68577 75.3829 6.31372C76.9141 7.81644 78.0807 10.0079 78.8828 12.8881C80.341 18.0224 81.0701 24.0959 81.0701 31.1087C81.0701 36.1177 81.0337 40.0624 80.9608 42.9426C80.815 46.5742 80.4504 49.8927 79.8671 52.8981C79.6483 54.5261 79.3202 55.9036 78.8828 57.0306C78.5182 58.0325 77.9713 59.2847 77.2422 60.7874C76.2214 62.9163 74.5444 64.9199 72.2112 66.7983C71.2633 67.6749 70.0238 68.4889 68.4927 69.2403V89.3392L68.7114 101.361L68.9301 107.184C69.2218 114.197 69.3676 120.145 69.3676 125.029C69.3676 126.532 69.003 127.784 68.2739 128.786C67.5448 129.913 66.7063 130.476 65.7584 130.476L63.4617 128.222ZM68.602 61.5388C72.9039 60.4118 75.0548 49.8301 75.0548 29.7938C75.0548 26.1622 74.9455 23.3446 74.7267 21.341C74.508 19.8382 74.2163 18.6486 73.8518 17.772C73.4872 16.7702 72.9403 15.9562 72.2112 15.3301C71.4092 14.5787 70.5342 14.203 69.5863 14.203C69.5863 14.0778 69.1853 14.0152 68.3833 14.0152V24.7221C68.3833 32.1105 68.4197 38.6849 68.4927 44.4453C68.4927 50.9571 68.5291 55.2148 68.602 57.2185V61.5388Z" fill="#E06E51"/>
<path d="M97.9404 123.902L97.831 116.576C97.7581 114.447 97.7217 112.068 97.7217 109.438L97.831 103.052C97.6123 101.674 97.0654 87.9617 96.1905 61.9145C95.3155 35.8673 94.8051 19.1495 94.6593 11.7611C90.4304 11.5106 87.7326 10.7593 86.566 9.50701C85.7639 8.5052 85.3629 7.37815 85.3629 6.12588C85.3629 5.12407 85.7275 4.24748 86.4566 3.49612C87.2586 2.61953 88.0607 2.18123 88.8627 2.18123C90.9043 2.18123 93.3833 2.43169 96.2999 2.93259C99.0705 3.55873 101.55 3.8718 103.737 3.8718H105.487C107.747 3.8718 108.877 5.37452 108.877 8.37996C108.877 9.88269 108.513 11.135 107.784 12.1368C107.055 13.0134 106.216 13.4517 105.268 13.4517C104.612 13.4517 103.664 13.2638 102.425 12.8881L100.237 12.1368L100.018 14.0152C100.018 25.1604 100.638 42.9426 101.878 67.3619C103.044 90.2784 103.628 108.061 103.628 120.709C103.628 122.211 103.227 123.526 102.425 124.653C101.695 125.78 100.857 126.344 99.909 126.344L97.9404 123.902Z" fill="#E06E51"/>
<path d="M124.83 129.349C123.882 129.349 123.007 128.786 122.205 127.659C121.476 126.532 121.075 125.154 121.002 123.526V114.885C120.929 113.758 120.893 112.444 120.893 110.941C120.893 108.311 120.783 104.304 120.565 98.9191L120.346 86.8973C120.346 80.7611 120.455 71.6196 120.674 59.4726C120.966 48.5778 121.111 39.4363 121.111 32.0479C121.111 30.2947 121.002 27.6649 120.783 24.1586C120.564 20.527 120.455 17.8972 120.455 16.2693C120.455 7.37815 121.986 2.93259 125.049 2.93259C127.455 2.93259 130.225 3.74657 133.361 5.37452C136.569 7.00247 138.173 8.94349 138.173 11.1976C138.173 12.4498 137.845 13.6395 137.189 14.7665C136.605 15.7684 135.876 16.5823 135.001 17.2085C131.939 15.3301 129.168 14.0778 126.689 13.4517C126.762 15.3301 126.799 18.0224 126.799 21.5288C126.799 26.5379 126.762 31.046 126.689 35.0533C126.47 41.0642 126.361 45.5724 126.361 48.5778L126.689 51.5833L128.439 51.3954C129.022 51.2702 129.752 51.2076 130.626 51.2076C134.126 51.2076 135.876 52.9608 135.876 56.4671C135.876 57.8446 135.548 59.0343 134.892 60.0361C134.236 60.9127 133.397 61.351 132.376 61.351C131.064 61.351 130.043 61.2257 129.314 60.9753H126.58C126.726 64.2312 126.799 68.9898 126.799 75.2512C126.799 81.5125 126.762 87.1477 126.689 92.1568C126.47 99.7956 126.361 105.493 126.361 109.25C126.361 116.263 126.434 119.769 126.58 119.769L130.189 119.582C131.429 119.456 132.923 119.394 134.673 119.394C137.444 119.394 138.829 120.896 138.829 123.902C138.829 125.655 138.355 126.97 137.407 127.846C136.532 128.848 135.439 129.349 134.126 129.349H124.83Z" fill="#E06E51"/>
<path d="M194.955 136.675C192.695 136.675 191.565 132.793 191.565 125.029V100.985C191.565 94.724 191.31 86.5216 190.799 76.3782C190.216 64.9825 189.924 57.1559 189.924 52.8981L190.143 41.252C190.289 37.8709 190.362 34.0515 190.362 29.7938C190.07 31.4217 188.867 40.0624 186.753 55.7158C184.638 70.8682 182.451 84.8936 180.191 97.792C178.003 110.189 176.217 116.388 174.831 116.388C173.446 116.388 172.316 115.699 171.441 114.322C170.639 112.819 170.238 110.816 170.238 108.311C170.238 102.801 168.925 91.0924 166.301 73.1849C163.749 55.2775 161.415 40.6259 159.301 29.2303L158.645 50.4562C158.061 68.3637 157.66 83.2657 157.442 95.1622C157.296 106.683 157.223 114.572 157.223 118.83C157.223 119.832 157.259 120.771 157.332 121.648V124.278C157.332 126.406 157.077 127.972 156.567 128.974C156.056 130.101 155.108 130.664 153.723 130.664C152.994 130.664 152.301 130.163 151.645 129.161C150.989 128.285 150.661 127.283 150.661 126.156C150.661 113.383 151.208 94.223 152.301 68.6767C153.395 43.1304 153.942 23.9707 153.942 11.1976C153.504 10.0705 153.286 8.88088 153.286 7.6286C153.286 6.12588 153.687 4.99884 154.489 4.24747C155.364 3.37089 156.384 2.93259 157.551 2.93259C158.499 2.93259 160.249 8.81826 162.801 20.5896C165.353 32.3609 167.905 45.6976 170.457 60.5996C173.009 75.5016 174.649 86.2711 175.378 92.9082C175.962 89.527 176.436 86.3964 176.8 83.5161L177.456 79.008C179.79 61.4762 182.123 45.635 184.456 31.4843C185.841 22.8437 187.19 16.0814 188.503 11.1976C189.815 5.93804 191.018 3.30827 192.112 3.30827C193.133 3.30827 194.044 3.80918 194.846 4.811C195.721 5.68759 196.158 6.87724 196.158 8.37996C196.158 17.3963 196.377 30.9208 196.815 48.9535C197.325 65.7339 197.58 78.7575 197.58 88.0243L197.471 97.9798L197.252 107.935C197.252 109.438 197.362 111.692 197.58 114.698L197.908 121.272C197.981 122.399 198.018 123.276 198.018 123.902C198.091 124.528 198.127 124.904 198.127 125.029C198.492 126.657 198.674 127.846 198.674 128.598C198.674 130.727 198.309 132.605 197.58 134.233C196.851 135.861 195.976 136.675 194.955 136.675Z" fill="#E06E51"/>
<path d="M215.358 128.786C213.754 128.786 212.77 127.596 212.405 125.217C212.113 123.714 211.967 121.585 211.967 118.83C211.967 113.445 212.113 106.808 212.405 98.9191C212.77 91.4054 212.952 84.7058 212.952 78.8201C212.952 72.1831 213.061 62.2276 213.28 48.9535L213.499 19.2747C213.499 18.1477 213.389 16.4571 213.171 14.203L212.842 9.50701V8.5678C212.842 5.68758 213.098 3.55872 213.608 2.18123C214.118 0.803737 215.066 0.11499 216.452 0.11499C218.347 0.11499 220.425 1.05419 222.686 2.93259C224.946 4.811 226.587 7.19031 227.607 10.0705C229.722 16.0814 230.779 23.595 230.779 32.6114C230.779 39.3736 230.451 45.0715 229.795 49.7049C229.139 54.213 228.008 58.4081 226.404 62.2902C228.373 65.5461 229.685 69.7412 230.342 74.8755C231.071 79.8846 231.435 86.2085 231.435 93.8474C231.435 101.486 230.67 108.123 229.139 113.758C227.389 120.145 224.837 124.528 221.483 126.907C219.441 128.16 217.4 128.786 215.358 128.786ZM218.858 56.8428C222.649 56.7176 224.545 49.1413 224.545 34.1141C224.545 17.9598 223.05 9.50701 220.061 8.75565C219.259 11.6359 218.858 18.3981 218.858 29.0424V56.8428ZM218.202 119.206C220.535 118.329 222.358 115.95 223.67 112.068C224.982 108.186 225.639 103.74 225.639 98.7312C225.639 93.4717 225.456 88.8383 225.092 84.831C224.8 81.7004 224.399 79.1332 223.889 77.1296C223.451 75.0007 222.832 73.0597 222.029 71.3065C221.155 69.4281 220.134 68.3011 218.967 67.9254C218.675 75.0633 218.53 84.518 218.53 96.2893C218.53 97.0407 218.457 99.42 218.311 103.427L218.092 109.814C218.092 110.064 218.129 110.252 218.202 110.377V119.206Z" fill="#E06E51"/>
<path d="M248.405 129.349C247.457 129.349 246.582 128.786 245.78 127.659C245.051 126.532 244.65 125.154 244.577 123.526V114.885C244.504 113.758 244.467 112.444 244.467 110.941C244.467 108.311 244.358 104.304 244.139 98.9191L243.92 86.8973C243.92 80.7611 244.03 71.6196 244.249 59.4726C244.54 48.5778 244.686 39.4363 244.686 32.0479C244.686 30.2947 244.577 27.6649 244.358 24.1586C244.139 20.527 244.03 17.8972 244.03 16.2693C244.03 7.37815 245.561 2.93259 248.623 2.93259C251.03 2.93259 253.8 3.74657 256.935 5.37452C260.144 7.00247 261.748 8.94349 261.748 11.1976C261.748 12.4498 261.42 13.6395 260.763 14.7665C260.18 15.7684 259.451 16.5823 258.576 17.2085C255.514 15.3301 252.743 14.0778 250.264 13.4517C250.337 15.3301 250.373 18.0224 250.373 21.5288C250.373 26.5379 250.337 31.046 250.264 35.0533C250.045 41.0642 249.936 45.5724 249.936 48.5778L250.264 51.5833L252.014 51.3954C252.597 51.2702 253.326 51.2076 254.201 51.2076C257.701 51.2076 259.451 52.9608 259.451 56.4671C259.451 57.8446 259.123 59.0343 258.467 60.0361C257.81 60.9127 256.972 61.351 255.951 61.351C254.639 61.351 253.618 61.2257 252.889 60.9753H250.155C250.3 64.2312 250.373 68.9898 250.373 75.2512C250.373 81.5125 250.337 87.1477 250.264 92.1568C250.045 99.7956 249.936 105.493 249.936 109.25C249.936 116.263 250.009 119.769 250.155 119.769L253.764 119.582C255.003 119.456 256.498 119.394 258.248 119.394C261.019 119.394 262.404 120.896 262.404 123.902C262.404 125.655 261.93 126.97 260.982 127.846C260.107 128.848 259.013 129.349 257.701 129.349H248.405Z" fill="#E06E51"/>
<path d="M293.594 130.101C291.99 130.101 290.532 127.095 289.219 121.084C287.688 114.572 286.558 107.873 285.829 100.985L285.063 94.5987C282.949 76.6913 281.6 66.4853 281.016 63.9807H279.704C279.704 67.6123 279.668 70.9308 279.595 73.9363V84.2675C279.595 101.048 280.287 114.134 281.673 123.526L280.47 128.598H277.407L275.985 125.78L276.095 113.195C276.095 101.925 275.767 84.831 275.11 61.9145C274.527 37.4952 274.235 20.4018 274.235 10.6341C274.235 4.62315 275.439 1.61771 277.845 1.61771C281.782 1.61771 284.99 3.37088 287.469 6.87724C290.021 10.3836 291.297 15.2674 291.297 21.5288V34.6776C291.297 36.556 291.115 38.7475 290.75 41.252C290.386 43.6314 289.985 45.5724 289.547 47.0751L287.469 53.8373L285.719 59.4726L286.266 63.9807L287.797 77.3174C288.818 86.9599 289.802 94.7866 290.75 100.797C291.698 106.808 292.865 112.256 294.25 117.14L294.906 119.394C295.635 121.898 296 123.902 296 125.405C296 126.657 295.781 127.721 295.344 128.598C294.906 129.6 294.323 130.101 293.594 130.101ZM280.141 54.7766C281.746 53.3991 283.094 49.6422 284.188 43.5061C285.355 37.2448 285.938 31.4843 285.938 26.2248C285.938 22.2175 285.646 18.4607 285.063 14.9544C284.698 12.9507 284.079 11.448 283.204 10.4462C282.402 9.31917 281.381 8.75565 280.141 8.75565L279.923 9.69485L279.704 11.3854L279.923 33.5506C280.069 40.0624 280.141 47.1377 280.141 54.7766Z" fill="#E06E51"/>
</svg>
