<svg width="888" height="411" viewBox="0 0 888 411" fill="none" xmlns="http://www.w3.org/2000/svg">
<g clip-path="url(#clip0_1105_1763)">
<path d="M14.7649 388.611C10.8276 387.483 7.43712 385.041 4.59351 381.285C1.96865 377.529 0.437478 372.645 0 366.633L3.60918 357.054C4.92162 357.054 6.99966 357.804 9.84327 359.307C13.1243 360.435 15.6398 360.999 17.3897 360.999C21.3271 360.999 24.8269 357.993 27.8892 351.981C31.1703 345.972 33.5763 338.082 35.1075 328.314C37.9512 310.281 39.3729 294.127 39.3729 279.851C39.3729 255.056 34.7796 228.947 25.5925 201.522L21.9833 190.815C17.8272 178.418 14.3274 167.335 11.4838 157.567C8.64018 147.8 6.23406 137.28 4.2654 126.01C1.64054 111.359 0.328107 96.7068 0.328107 82.0551C0.328107 65.5254 2.5155 48.2439 6.89028 30.2112C9.07767 21.5707 12.14 14.6205 16.0773 9.36101C20.2333 3.72581 24.8269 0.908203 29.8579 0.908203C33.7953 0.908203 37.4043 3.16229 40.6854 7.67045C44.1852 11.8029 45.9351 16.8746 45.9351 22.8855C45.9351 26.2666 45.1695 28.8964 43.6383 30.7749C42.1074 32.6532 40.248 33.5925 38.0607 33.5925C35.6544 33.5925 33.3576 32.4654 31.1703 30.2112C26.3581 30.5871 22.5301 37.9128 19.6865 52.1886C17.2804 65.3373 16.0773 76.2321 16.0773 84.873C16.0773 95.7675 17.0616 106.85 19.0303 118.121C20.999 129.015 23.5144 138.971 26.5768 147.987L33.7953 170.528L45.279 207.721C48.3414 218.24 50.7474 230.449 52.4973 244.349C54.4659 258.25 55.4502 272.338 55.4502 286.613C55.4502 309.531 52.3881 331.32 46.2633 351.981C43.2009 362.502 38.8263 370.953 33.1389 377.34C27.6705 383.727 21.5458 386.922 14.7649 386.922V388.611Z" fill="#E06E51"/>
<path d="M105.018 388.046C102.174 388.046 99.5493 386.357 97.1433 382.976C94.9557 379.595 93.7527 375.461 93.534 370.577V344.654C93.3153 341.273 93.2058 337.331 93.2058 332.822C93.2058 324.932 92.8779 312.911 92.2215 296.756L91.5654 260.691C91.5654 242.282 91.8936 214.858 92.5497 178.417C93.4245 145.732 93.8622 118.308 93.8622 96.1428C93.8622 90.8832 93.534 82.9938 92.8779 72.4749C92.2215 61.5801 91.8936 53.6907 91.8936 48.807C91.8936 22.1336 96.4869 8.79688 105.674 8.79688C112.892 8.79688 121.205 11.2388 130.61 16.1227C140.235 21.0065 145.047 26.8296 145.047 33.5919C145.047 37.3485 144.063 40.9176 142.094 44.2986C140.344 47.3043 138.157 49.746 135.532 51.6246C126.345 45.9894 118.033 42.2325 110.596 40.3542C110.814 45.9894 110.924 54.0663 110.924 64.5855C110.924 79.6128 110.814 93.1371 110.596 105.159C109.94 123.192 109.611 136.716 109.611 145.733L110.596 154.749L115.845 154.185C117.595 153.81 119.783 153.622 122.408 153.622C132.907 153.622 138.157 158.882 138.157 169.4C138.157 173.533 137.172 177.102 135.204 180.107C133.235 182.737 130.72 184.052 127.657 184.052C123.72 184.052 120.658 183.676 118.47 182.925H110.267C110.705 192.693 110.924 206.969 110.924 225.753C110.924 244.537 110.814 261.442 110.596 276.47C109.94 299.386 109.611 316.478 109.611 327.749C109.611 348.788 109.83 359.306 110.267 359.306L121.095 358.745C124.814 358.367 129.298 358.181 134.548 358.181C142.86 358.181 147.016 362.687 147.016 371.705C147.016 376.964 145.594 380.909 142.75 383.537C140.126 386.543 136.844 388.046 132.907 388.046H105.018Z" fill="#E06E51"/>
<path d="M190.386 384.668C187.542 364.757 186.12 337.145 186.12 301.832L186.776 251.677C187.214 236.65 187.432 219.932 187.432 201.524C186.12 196.264 185.464 191.568 185.464 187.436V185.745C187.651 178.607 188.745 162.453 188.745 137.282L189.073 111.361C189.292 103.096 189.401 93.8913 189.401 83.748C189.401 61.5828 188.526 44.1135 186.776 31.3404C187.432 26.0809 188.526 21.5727 190.057 17.8159C191.589 13.6834 193.448 11.6172 195.635 11.6172H210.072C216.197 11.6172 221.556 14.0591 226.149 18.9429C230.743 23.4511 234.243 30.0255 236.649 38.6661C241.024 54.069 243.211 72.2895 243.211 93.3279C243.211 108.355 243.102 120.189 242.883 128.83C242.446 139.724 241.352 149.68 239.602 158.696C238.945 163.58 237.961 167.713 236.649 171.094C235.555 174.099 233.914 177.856 231.727 182.364C228.665 188.751 223.634 194.761 216.634 200.397C213.79 203.026 210.072 205.468 205.479 207.723V268.019L206.135 304.085L206.791 321.554C207.666 342.593 208.103 360.437 208.103 375.089C208.103 379.598 207.01 383.354 204.822 386.36C202.635 389.741 200.119 391.43 197.276 391.43L190.386 384.668ZM205.807 184.618C218.712 181.237 225.165 149.492 225.165 89.3832C225.165 78.4884 224.837 70.0356 224.181 64.0248C223.525 59.5164 222.649 55.9476 221.556 53.3178C220.462 50.3124 218.821 47.8704 216.634 45.9921C214.228 43.7379 211.603 42.6108 208.759 42.6108C208.759 42.2352 207.556 42.0474 205.15 42.0474V74.1681C205.15 96.3333 205.26 116.056 205.479 133.338C205.479 152.873 205.588 165.646 205.807 171.657V184.618Z" fill="#E06E51"/>
<path d="M293.821 371.707L293.493 349.729C293.274 343.342 293.165 336.205 293.165 328.315L293.493 309.157C292.837 305.023 291.196 263.886 288.571 185.745C285.946 107.603 284.415 57.4497 283.978 35.2845C271.291 34.533 263.197 32.2791 259.698 28.5223C257.291 25.5168 256.088 22.1357 256.088 18.3789C256.088 15.3734 257.182 12.7437 259.369 10.4896C261.775 7.85982 264.182 6.54492 266.588 6.54492C272.713 6.54492 280.15 7.2963 288.899 8.799C297.211 10.6774 304.65 11.6166 311.211 11.6166H316.461C323.241 11.6166 326.631 16.1248 326.631 25.1411C326.631 29.6493 325.539 33.4062 323.352 36.4116C321.165 39.0414 318.648 40.3563 315.804 40.3563C313.836 40.3563 310.992 39.7926 307.275 38.6655L300.711 36.4116L300.054 42.0468C300.054 75.4824 301.914 128.829 305.634 202.087C309.132 270.836 310.884 324.184 310.884 362.128C310.884 366.634 309.681 370.579 307.275 373.96C305.085 377.341 302.571 379.033 299.727 379.033L293.821 371.707Z" fill="#E06E51"/>
<path d="M374.49 388.046C371.646 388.046 369.021 386.357 366.615 382.976C364.428 379.595 363.225 375.461 363.006 370.577V344.654C362.787 341.273 362.679 337.331 362.679 332.822C362.679 324.932 362.349 312.911 361.695 296.756L361.038 260.691C361.038 242.282 361.365 214.858 362.022 178.417C362.898 145.732 363.333 118.308 363.333 96.1428C363.333 90.8832 363.006 82.9938 362.349 72.4749C361.692 61.5801 361.365 53.6907 361.365 48.807C361.365 22.1336 365.958 8.79688 375.147 8.79688C382.365 8.79688 390.675 11.2388 400.083 16.1227C409.707 21.0065 414.519 26.8296 414.519 33.5919C414.519 37.3485 413.535 40.9176 411.567 44.2986C409.815 47.3043 407.628 49.746 405.003 51.6246C395.817 45.9894 387.504 42.2325 380.067 40.3542C380.286 45.9894 380.397 54.0663 380.397 64.5855C380.397 79.6128 380.286 93.1371 380.067 105.159C379.41 123.192 379.083 136.716 379.083 145.733L380.067 154.749L385.317 154.185C387.066 153.81 389.256 153.622 391.878 153.622C402.378 153.622 407.628 158.882 407.628 169.4C407.628 173.533 406.644 177.102 404.676 180.107C402.708 182.737 400.191 184.052 397.128 184.052C393.192 184.052 390.129 183.676 387.942 182.925H379.74C380.178 192.693 380.397 206.969 380.397 225.753C380.397 244.537 380.286 261.442 380.067 276.47C379.41 299.386 379.083 316.478 379.083 327.749C379.083 348.788 379.302 359.306 379.74 359.306L390.567 358.745C394.287 358.367 398.769 358.181 404.019 358.181C412.332 358.181 416.487 362.687 416.487 371.705C416.487 376.964 415.065 380.909 412.221 383.537C409.596 386.543 406.317 388.046 402.378 388.046H374.49Z" fill="#E06E51"/>
<path d="M584.865 410.024C578.085 410.024 574.695 398.378 574.695 375.086V302.954C574.695 284.171 573.93 259.564 572.397 229.134C570.648 194.947 569.772 171.467 569.772 158.693L570.429 123.755C570.867 113.612 571.086 102.154 571.086 89.3805C570.21 94.2642 566.601 120.186 560.259 167.147C553.914 212.604 547.353 254.68 540.573 293.375C534.009 330.566 528.651 349.163 524.493 349.163C520.338 349.163 516.948 347.096 514.323 342.965C511.917 338.456 510.714 332.447 510.714 324.932C510.714 308.402 506.775 273.276 498.903 219.554C491.247 165.832 484.245 121.877 477.903 87.69L475.935 151.368C474.183 205.09 472.98 249.796 472.326 285.486C471.888 320.048 471.669 343.715 471.669 356.489C471.669 359.495 471.777 362.312 471.996 364.943V372.833C471.996 379.217 471.231 383.915 469.701 386.921C468.168 390.302 465.324 391.991 461.169 391.991C458.982 391.991 456.903 390.488 454.935 387.482C452.967 384.854 451.983 381.848 451.983 378.467C451.983 340.148 453.624 282.668 456.903 206.029C460.185 129.39 461.826 71.9112 461.826 33.5919C460.512 30.2106 459.858 26.6417 459.858 22.8849C459.858 18.3767 461.061 14.9956 463.467 12.7415C466.092 10.1118 469.152 8.79688 472.653 8.79688C475.497 8.79688 480.747 26.4539 488.403 61.7679C496.059 97.0818 503.715 137.092 511.371 181.798C519.027 226.504 523.947 258.812 526.134 278.724C527.886 268.58 529.308 259.188 530.4 250.547L532.368 237.023C539.37 184.428 546.369 136.904 553.368 94.452C557.523 68.5302 561.57 48.2433 565.509 33.5919C569.445 17.8132 573.054 9.92391 576.336 9.92391C579.399 9.92391 582.132 11.4266 584.538 14.4321C587.163 17.0619 588.474 20.6308 588.474 25.139C588.474 52.188 589.131 92.7615 590.445 146.86C591.975 197.201 592.74 236.272 592.74 264.072L592.413 293.939L591.756 323.804C591.756 328.313 592.086 335.075 592.74 344.093L593.724 363.815C593.943 367.196 594.054 369.827 594.054 371.705C594.273 373.583 594.381 374.711 594.381 375.086C595.476 379.97 596.022 383.537 596.022 385.793C596.022 392.18 594.927 397.814 592.74 402.698C590.553 407.582 587.928 410.024 584.865 410.024Z" fill="#E06E51"/>
<path d="M646.073 386.359C641.261 386.359 638.309 382.789 637.214 375.652C636.338 371.143 635.9 364.756 635.9 356.491C635.9 340.336 636.338 320.425 637.214 296.758C638.309 274.217 638.855 254.118 638.855 236.461C638.855 216.55 639.182 186.684 639.839 146.861L640.496 57.8248C640.496 54.4438 640.166 49.372 639.512 42.6097L638.525 28.5218V25.7041C638.525 17.0635 639.293 10.6769 640.823 6.54442C642.353 2.41194 645.197 0.345703 649.355 0.345703C655.04 0.345703 661.274 3.1633 668.057 8.7985C674.837 14.4337 679.76 21.5717 682.82 30.2122C689.165 48.2449 692.336 70.7857 692.336 97.8349C692.336 118.122 691.352 135.215 689.384 149.115C687.416 162.64 684.023 175.225 679.211 186.871C685.118 196.639 689.054 209.224 691.025 224.627C693.212 239.655 694.304 258.626 694.304 281.543C694.304 304.459 692.009 324.37 687.416 341.275C682.166 360.436 674.51 373.585 664.448 380.722C658.322 384.481 652.199 386.359 646.073 386.359ZM656.573 170.529C667.946 170.154 673.634 147.425 673.634 102.343C673.634 53.8801 669.149 28.5218 660.182 26.2677C657.776 34.9084 656.573 55.195 656.573 87.1279V170.529ZM654.605 357.619C661.604 354.988 667.073 347.851 671.009 336.205C674.945 324.559 676.916 311.221 676.916 296.194C676.916 280.416 676.367 266.516 675.275 254.494C674.399 245.102 673.196 237.4 671.666 231.39C670.352 225.003 668.495 219.18 666.086 213.92C663.464 208.285 660.401 204.904 656.9 203.777C656.024 225.191 655.589 253.555 655.589 288.869C655.589 291.123 655.37 298.261 654.932 310.282L654.275 329.443C654.275 330.193 654.386 330.757 654.605 331.132V357.619Z" fill="#E06E51"/>
<path d="M745.215 388.046C742.371 388.046 739.746 386.357 737.34 382.976C735.153 379.595 733.95 375.461 733.731 370.577V344.654C733.512 341.273 733.401 337.331 733.401 332.822C733.401 324.932 733.074 312.911 732.417 296.756L731.76 260.691C731.76 242.282 732.09 214.858 732.747 178.417C733.62 145.732 734.058 118.308 734.058 96.1428C734.058 90.8832 733.731 82.9938 733.074 72.4749C732.417 61.5801 732.09 53.6907 732.09 48.807C732.09 22.1336 736.683 8.79688 745.869 8.79688C753.09 8.79688 761.4 11.2388 770.805 16.1227C780.432 21.0065 785.244 26.8296 785.244 33.5919C785.244 37.3485 784.26 40.9176 782.289 44.2986C780.54 47.3043 778.353 49.746 775.728 51.6246C766.542 45.9894 758.229 42.2325 750.792 40.3542C751.011 45.9894 751.119 54.0663 751.119 64.5855C751.119 79.6128 751.011 93.1371 750.792 105.159C750.135 123.192 749.808 136.716 749.808 145.733L750.792 154.749L756.042 154.185C757.791 153.81 759.978 153.622 762.603 153.622C773.103 153.622 778.353 158.882 778.353 169.4C778.353 173.533 777.369 177.102 775.401 180.107C773.43 182.737 770.916 184.052 767.853 184.052C763.917 184.052 760.854 183.676 758.667 182.925H750.465C750.9 192.693 751.119 206.969 751.119 225.753C751.119 244.537 751.011 261.442 750.792 276.47C750.135 299.386 749.808 316.478 749.808 327.749C749.808 348.788 750.027 359.306 750.465 359.306L761.292 358.745C765.009 358.367 769.494 358.181 774.744 358.181C783.057 358.181 787.212 362.687 787.212 371.705C787.212 376.964 785.79 380.909 782.946 383.537C780.321 386.543 777.039 388.046 773.103 388.046H745.215Z" fill="#E06E51"/>
<path d="M880.782 390.305C875.97 390.305 871.596 381.287 867.657 363.254C863.064 343.718 859.674 323.621 857.487 302.957L855.189 283.798C848.847 230.076 844.8 199.458 843.048 191.944H839.112C839.112 202.839 839.004 212.795 838.785 221.811V252.805C838.785 303.146 840.861 342.404 845.019 370.58L841.41 385.796H832.221L827.955 377.342L828.285 339.587C828.285 305.777 827.301 254.495 825.33 185.746C823.581 112.488 822.705 61.2077 822.705 31.9046C822.705 13.8718 826.317 4.85547 833.535 4.85547C845.346 4.85547 854.97 10.115 862.407 20.6341C870.063 31.1531 873.891 45.8045 873.891 64.5887V104.035C873.891 109.67 873.345 116.245 872.25 123.758C871.158 130.897 869.955 136.72 868.641 141.228L862.407 161.514L857.157 178.42L858.798 191.944L863.391 231.955C866.454 260.882 869.406 284.362 872.25 302.393C875.094 320.426 878.595 336.77 882.75 351.422L884.718 358.184C886.905 365.696 888 371.708 888 376.217C888 379.973 887.343 383.165 886.032 385.796C884.718 388.802 882.969 390.305 880.782 390.305ZM840.423 164.332C845.238 160.2 849.282 148.929 852.564 130.521C856.065 111.737 857.814 94.4552 857.814 78.6767C857.814 66.6548 856.938 55.3844 855.189 44.8655C854.094 38.8544 852.237 34.3463 849.612 31.3409C847.206 27.9599 844.143 26.2693 840.423 26.2693L839.769 29.0869L839.112 34.1585L839.769 100.654C840.207 120.19 840.423 141.415 840.423 164.332Z" fill="#E06E51"/>
</g>
<defs>
<clipPath id="clip0_1105_1763">
<rect width="888" height="411" fill="white"/>
</clipPath>
</defs>
</svg>
