<svg width="3300" height="2200" viewBox="0 0 3300 2200" fill="none" xmlns="http://www.w3.org/2000/svg">
<g id="custom.arrow.up.left.and.arrow.down.right 1" clip-path="url(#clip0_9494_285804)">
<g id="Notes">
<path id="artboard" d="M3300 0H0V2200H3300V0Z" fill="white"/>
<path id="Vector" d="M263 292H3036" stroke="black" stroke-width="0.5"/>
<text id="Weight/Scale Variations" fill="black" xml:space="preserve" style="white-space: pre" font-family="Inter" font-size="13" font-weight="bold" letter-spacing="0em"><tspan x="263" y="321.727">Weight/Scale Variations</tspan></text>
<text id="Ultralight" fill="black" xml:space="preserve" style="white-space: pre" font-family="Inter" font-size="13" letter-spacing="0em"><tspan x="532.161" y="321.727">Ultralight</tspan></text>
<text id="Thin" fill="black" xml:space="preserve" style="white-space: pre" font-family="Inter" font-size="13" letter-spacing="0em"><tspan x="843.567" y="321.727">Thin</tspan></text>
<text id="Light" fill="black" xml:space="preserve" style="white-space: pre" font-family="Inter" font-size="13" letter-spacing="0em"><tspan x="1138.27" y="321.727">Light</tspan></text>
<text id="Regular" fill="black" xml:space="preserve" style="white-space: pre" font-family="Inter" font-size="13" letter-spacing="0em"><tspan x="1427.08" y="321.727">Regular</tspan></text>
<text id="Medium" fill="black" xml:space="preserve" style="white-space: pre" font-family="Inter" font-size="13" letter-spacing="0em"><tspan x="1721.99" y="321.727">Medium</tspan></text>
<text id="Semibold" fill="black" xml:space="preserve" style="white-space: pre" font-family="Inter" font-size="13" letter-spacing="0em"><tspan x="2014.65" y="321.727">Semibold</tspan></text>
<text id="Bold" fill="black" xml:space="preserve" style="white-space: pre" font-family="Inter" font-size="13" letter-spacing="0em"><tspan x="2326.29" y="321.727">Bold</tspan></text>
<text id="Heavy" fill="black" xml:space="preserve" style="white-space: pre" font-family="Inter" font-size="13" letter-spacing="0em"><tspan x="2617.82" y="321.727">Heavy</tspan></text>
<text id="Black" fill="black" xml:space="preserve" style="white-space: pre" font-family="Inter" font-size="13" letter-spacing="0em"><tspan x="2916.8" y="321.727">Black</tspan></text>
<path id="Vector_2" d="M263 1903H3036" stroke="black" stroke-width="0.5"/>
<g id="Group">
<path id="Vector_3" d="M272.248 1933.83C276.555 1933.83 280.139 1930.26 280.139 1925.95C280.139 1921.64 276.545 1918.07 272.238 1918.07C267.941 1918.07 264.367 1921.64 264.367 1925.95C264.367 1930.26 267.951 1933.83 272.248 1933.83ZM272.248 1932.35C268.703 1932.35 265.871 1929.51 265.871 1925.95C265.871 1922.4 268.693 1919.55 272.238 1919.55C275.793 1919.55 278.644 1922.4 278.644 1925.95C278.644 1929.51 275.803 1932.35 272.248 1932.35ZM268.654 1925.95C268.654 1926.38 268.957 1926.67 269.406 1926.67H271.506V1928.79C271.506 1929.23 271.799 1929.54 272.229 1929.54C272.678 1929.54 272.971 1929.23 272.971 1928.79V1926.67H275.09C275.529 1926.67 275.832 1926.38 275.832 1925.95C275.832 1925.51 275.529 1925.21 275.09 1925.21H272.971V1923.1C272.971 1922.65 272.678 1922.35 272.229 1922.35C271.799 1922.35 271.506 1922.65 271.506 1923.1V1925.21H269.406C268.957 1925.21 268.654 1925.51 268.654 1925.95Z" fill="black"/>
</g>
<g id="Group_2">
<path id="Vector_4" d="M293.576 1935.91C299.025 1935.91 303.537 1931.39 303.537 1925.95C303.537 1920.5 299.015 1915.99 293.566 1915.99C288.127 1915.99 283.615 1920.5 283.615 1925.95C283.615 1931.39 288.136 1935.91 293.576 1935.91ZM293.576 1934.25C288.967 1934.25 285.285 1930.56 285.285 1925.95C285.285 1921.34 288.957 1917.65 293.566 1917.65C298.176 1917.65 301.877 1921.34 301.877 1925.95C301.877 1930.56 298.185 1934.25 293.576 1934.25ZM289.045 1925.95C289.045 1926.43 289.377 1926.75 289.875 1926.75H292.746V1929.63C292.746 1930.12 293.078 1930.46 293.556 1930.46C294.045 1930.46 294.386 1930.13 294.386 1929.63V1926.75H297.267C297.756 1926.75 298.097 1926.43 298.097 1925.95C298.097 1925.46 297.756 1925.12 297.267 1925.12H294.386V1922.25C294.386 1921.75 294.045 1921.41 293.556 1921.41C293.078 1921.41 292.746 1921.75 292.746 1922.25V1925.12H289.875C289.377 1925.12 289.045 1925.46 289.045 1925.95Z" fill="black"/>
</g>
<g id="Group_3">
<path id="Vector_5" d="M320.617 1938.67C327.58 1938.67 333.341 1932.9 333.341 1925.95C333.341 1918.99 327.57 1913.23 320.607 1913.23C313.654 1913.23 307.902 1918.99 307.902 1925.95C307.902 1932.9 313.664 1938.67 320.617 1938.67ZM320.617 1936.85C314.582 1936.85 309.728 1931.99 309.728 1925.95C309.728 1919.91 314.572 1915.05 320.607 1915.05C326.652 1915.05 331.515 1919.91 331.515 1925.95C331.515 1931.99 326.662 1936.85 320.617 1936.85ZM314.845 1925.95C314.845 1926.47 315.216 1926.83 315.763 1926.83H319.708V1930.79C319.708 1931.32 320.08 1931.7 320.597 1931.7C321.134 1931.7 321.505 1931.33 321.505 1930.79V1926.83H325.46C325.998 1926.83 326.378 1926.47 326.378 1925.95C326.378 1925.4 326.007 1925.03 325.46 1925.03H321.505V1921.09C321.505 1920.54 321.134 1920.16 320.597 1920.16C320.08 1920.16 319.708 1920.54 319.708 1921.09V1925.03H315.763C315.216 1925.03 314.845 1925.4 314.845 1925.95Z" fill="black"/>
</g>
<text id="Design Variations" fill="black" xml:space="preserve" style="white-space: pre" font-family="Inter" font-size="13" font-weight="bold" letter-spacing="0em"><tspan x="263" y="1952.73">Design Variations</tspan></text>
<text id="Symbols are supported in up to nine weights and three scales." fill="black" xml:space="preserve" style="white-space: pre" font-family="Inter" font-size="13" letter-spacing="0em"><tspan x="263" y="1970.73">Symbols are supported in up to nine weights and three scales.</tspan></text>
<text id="For optimal layout with text and other symbols, vertically align" fill="black" xml:space="preserve" style="white-space: pre" font-family="Inter" font-size="13" letter-spacing="0em"><tspan x="263" y="1988.73">For optimal layout with text and other symbols, vertically align</tspan></text>
<text id="symbols with the adjacent text." fill="black" xml:space="preserve" style="white-space: pre" font-family="Inter" font-size="13" letter-spacing="0em"><tspan x="263" y="2006.73">symbols with the adjacent text.</tspan></text>
<path id="Vector_6" d="M776 1919V1933" stroke="#00AEEF" stroke-width="0.5"/>
<g id="Group_4">
<path id="Vector_7" d="M779.311 1933.16C779.828 1933.16 780.082 1932.96 780.268 1932.42L781.527 1928.97H787.289L788.549 1932.42C788.734 1932.96 788.988 1933.16 789.496 1933.16C790.014 1933.16 790.346 1932.85 790.346 1932.36C790.346 1932.19 790.316 1932.04 790.238 1931.83L785.658 1919.63C785.434 1919.04 785.033 1918.73 784.408 1918.73C783.803 1918.73 783.393 1919.03 783.178 1919.62L778.598 1931.84C778.52 1932.04 778.49 1932.2 778.49 1932.37C778.49 1932.86 778.803 1933.16 779.311 1933.16ZM782.006 1927.48L784.379 1920.91H784.428L786.801 1927.48H782.006Z" fill="black"/>
</g>
<path id="Vector_8" d="M793.197 1919V1933" stroke="#00AEEF" stroke-width="0.5"/>
<text id="Margins" fill="black" xml:space="preserve" style="white-space: pre" font-family="Inter" font-size="13" font-weight="bold" letter-spacing="0em"><tspan x="776" y="1952.73">Margins</tspan></text>
<text id="Leading and trailing margins on the left and right side of each symbol" fill="black" xml:space="preserve" style="white-space: pre" font-family="Inter" font-size="13" letter-spacing="0em"><tspan x="776" y="1970.73">Leading and trailing margins on the left and right side of each symbol</tspan></text>
<text id="can be adjusted by modifying the x-location of the margin guidelines." fill="black" xml:space="preserve" style="white-space: pre" font-family="Inter" font-size="13" letter-spacing="0em"><tspan x="776" y="1988.73">can be adjusted by modifying the x-location of the margin guidelines.</tspan></text>
<text id="Modifications are automatically applied proportionally to all" fill="black" xml:space="preserve" style="white-space: pre" font-family="Inter" font-size="13" letter-spacing="0em"><tspan x="776" y="2006.73">Modifications are automatically applied proportionally to all</tspan></text>
<text id="scales and weights." fill="black" xml:space="preserve" style="white-space: pre" font-family="Inter" font-size="13" letter-spacing="0em"><tspan x="776" y="2024.73">scales and weights.</tspan></text>
<g id="Group_5">
<path id="Vector_9" d="M1291.84 1934.86L1293.54 1936.57C1294.4 1937.44 1295.39 1937.38 1296.31 1936.36L1307.01 1924.57L1306.04 1923.59L1295.43 1935.27C1295.07 1935.67 1294.74 1935.77 1294.27 1935.3L1293.1 1934.14C1292.63 1933.68 1292.74 1933.34 1293.14 1932.98L1304.62 1922.18L1303.64 1921.21L1292.05 1932.1C1291.06 1933.02 1290.98 1933.99 1291.84 1934.86ZM1298.26 1916.67C1297.84 1917.08 1297.81 1917.66 1298.04 1918.05C1298.28 1918.41 1298.74 1918.64 1299.38 1918.48C1300.85 1918.13 1302.37 1918.08 1303.79 1919.01L1303.21 1920.47C1302.87 1921.3 1303.04 1921.88 1303.58 1922.43L1305.88 1924.75C1306.36 1925.23 1306.77 1925.25 1307.34 1925.16L1308.4 1924.96L1309.07 1925.63L1309.03 1926.19C1308.99 1926.69 1309.12 1927.07 1309.61 1927.55L1310.37 1928.29C1310.85 1928.77 1311.46 1928.8 1311.93 1928.33L1314.84 1925.41C1315.31 1924.94 1315.29 1924.35 1314.81 1923.87L1314.04 1923.11C1313.56 1922.63 1313.19 1922.47 1312.71 1922.51L1312.13 1922.56L1311.49 1921.92L1311.73 1920.8C1311.86 1920.23 1311.71 1919.8 1311.12 1919.21L1308.92 1917.02C1305.58 1913.7 1301.15 1913.78 1298.26 1916.67ZM1299.75 1917.04C1302.18 1915.26 1305.47 1915.57 1307.7 1917.79L1310.13 1920.21C1310.37 1920.44 1310.41 1920.63 1310.34 1920.97L1310.02 1922.45L1311.52 1923.94L1312.51 1923.88C1312.76 1923.87 1312.84 1923.89 1313.03 1924.08L1313.61 1924.66L1311.17 1927.1L1310.59 1926.52C1310.4 1926.33 1310.37 1926.25 1310.38 1925.99L1310.45 1925.01L1308.95 1923.53L1307.43 1923.78C1307.11 1923.85 1306.96 1923.82 1306.71 1923.58L1304.71 1921.58C1304.46 1921.35 1304.43 1921.18 1304.59 1920.81L1305.46 1918.72C1303.9 1917.27 1301.87 1916.64 1299.84 1917.24C1299.68 1917.28 1299.63 1917.15 1299.75 1917.04Z" fill="black"/>
</g>
<text id="Exporting" fill="black" xml:space="preserve" style="white-space: pre" font-family="Inter" font-size="13" font-weight="bold" letter-spacing="0em"><tspan x="1289" y="1952.73">Exporting</tspan></text>
<text id="Symbols should be outlined when exporting to ensure the" fill="black" xml:space="preserve" style="white-space: pre" font-family="Inter" font-size="13" letter-spacing="0em"><tspan x="1289" y="1970.73">Symbols should be outlined when exporting to ensure the</tspan></text>
<text id="design is preserved when submitting to Xcode." fill="black" xml:space="preserve" style="white-space: pre" font-family="Inter" font-size="13" letter-spacing="0em"><tspan x="1289" y="1988.73">design is preserved when submitting to Xcode.</tspan></text>
<text id="template-version" fill="black" xml:space="preserve" style="white-space: pre" font-family="Inter" font-size="13" letter-spacing="0em"><tspan x="2945.98" y="1932.73">Template v.4.0</tspan></text>
<text id="Requires Xcode 14 or greater" fill="black" xml:space="preserve" style="white-space: pre" font-family="Inter" font-size="13" letter-spacing="0em"><tspan x="2857.94" y="1950.73">Requires Xcode 14 or greater</tspan></text>
<text id="descriptive-name" fill="black" xml:space="preserve" style="white-space: pre" font-family="Inter" font-size="13" letter-spacing="0em"><tspan x="2676.77" y="1968.73">Generated from custom.arrow.up.left.and.arrow.down.right</tspan></text>
<text id="Typeset at 100 points" fill="black" xml:space="preserve" style="white-space: pre" font-family="Inter" font-size="13" letter-spacing="0em"><tspan x="2903.6" y="1986.73">Typeset at 100 points</tspan></text>
<text id="Small" fill="black" xml:space="preserve" style="white-space: pre" font-family="Inter" font-size="13" letter-spacing="0em"><tspan x="263" y="725.727">Small</tspan></text>
<text id="Medium_2" fill="black" xml:space="preserve" style="white-space: pre" font-family="Inter" font-size="13" letter-spacing="0em"><tspan x="263" y="1155.73">Medium</tspan></text>
<text id="Large" fill="black" xml:space="preserve" style="white-space: pre" font-family="Inter" font-size="13" letter-spacing="0em"><tspan x="263" y="1585.73">Large</tspan></text>
</g>
<g id="Guides">
<g id="H-reference">
<path id="Vector_10" d="M339.994 695.998H342.638L368.328 628.866H369.03V625.539H367.123L339.994 695.998ZM350.688 671.518H385.981L385.231 669.27H351.438L350.688 671.518ZM394.12 695.998H396.764L369.638 625.539H368.433V628.866L394.12 695.998Z" fill="#27AAE1"/>
</g>
<path id="Baseline-S" d="M263 696H3036" stroke="#27AAE1" stroke-width="0.5"/>
<path id="Capline-S" d="M263 625.539H3036" stroke="#27AAE1" stroke-width="0.5"/>
<g id="H-reference_2">
<path id="Vector_11" d="M339.994 1126H342.638L368.328 1058.87H369.03V1055.54H367.123L339.994 1126ZM350.688 1101.52H385.981L385.231 1099.27H351.438L350.688 1101.52ZM394.12 1126H396.764L369.638 1055.54H368.433V1058.87L394.12 1126Z" fill="#27AAE1"/>
</g>
<path id="Baseline-M" d="M263 1126H3036" stroke="#27AAE1" stroke-width="0.5"/>
<path id="Capline-M" d="M263 1055.54H3036" stroke="#27AAE1" stroke-width="0.5"/>
<g id="H-reference_3">
<path id="Vector_12" d="M339.994 1556H342.638L368.328 1488.87H369.03V1485.54H367.123L339.994 1556ZM350.688 1531.52H385.981L385.231 1529.27H351.438L350.688 1531.52ZM394.12 1556H396.764L369.638 1485.54H368.433V1488.87L394.12 1556Z" fill="#27AAE1"/>
</g>
<path id="Baseline-L" d="M263 1556H3036" stroke="#27AAE1" stroke-width="0.5"/>
<path id="Capline-L" d="M263 1485.54H3036" stroke="#27AAE1" stroke-width="0.5"/>
<path id="left-margin-Regular-M" d="M1390.88 1030.78V1150.12" stroke="#00AEEF" stroke-width="0.5"/>
<path id="right-margin-Regular-M" d="M1508.81 1030.78V1150.12" stroke="#00AEEF" stroke-width="0.5"/>
</g>
<g id="Symbols">
<g id="Black-L">
<path id="Vector_13" d="M2929.3 1572.97C2929.3 1566.93 2925.12 1562.36 2919.08 1562.36H2917.53L2905.08 1563.85L2913.86 1555.61L2927.91 1541.68C2929.94 1539.65 2930.99 1536.95 2930.99 1534.1C2930.99 1527.59 2926.3 1523.17 2919.79 1523.17C2917.01 1523.17 2914.56 1524.39 2912.59 1526.38L2898.58 1540.45L2890.4 1549.25L2891.89 1536.47V1533.42C2891.89 1527.38 2887.32 1523.15 2881.28 1523.15C2875.19 1523.15 2870.65 1527.38 2870.65 1533.42V1567.98C2870.65 1577.86 2876.39 1583.6 2886.27 1583.6H2919.08C2925.1 1583.6 2929.3 1579.01 2929.3 1572.97ZM2996.16 1508.34V1473.77C2996.16 1463.89 2990.42 1458.16 2980.54 1458.16H2947.73C2941.71 1458.16 2937.5 1462.75 2937.5 1468.78C2937.5 1474.8 2941.69 1479.39 2947.73 1479.39H2949.28L2961.73 1477.88L2952.95 1486.12L2938.9 1500.07C2936.87 1502.08 2935.82 1504.8 2935.82 1507.66C2935.82 1514.17 2940.51 1518.59 2947.02 1518.59C2949.8 1518.59 2952.25 1517.35 2954.22 1515.37L2968.23 1501.31L2976.41 1492.5L2974.92 1505.27V1508.34C2974.92 1514.37 2979.49 1518.58 2985.53 1518.6C2991.62 1518.6 2996.16 1514.38 2996.16 1508.34Z" fill="black"/>
</g>
<g id="Heavy-L">
<path id="Vector_14" d="M2631.35 1573.5C2631.35 1568.15 2627.61 1564.14 2622.26 1564.14H2619.47L2604.83 1565.55L2615.79 1555.17L2631.21 1539.91C2633.01 1538.11 2633.93 1535.74 2633.93 1533.22C2633.93 1527.46 2629.83 1523.51 2624.07 1523.51C2621.58 1523.51 2619.37 1524.56 2617.62 1526.34L2602.25 1541.75L2591.93 1552.74L2593.37 1537.81V1533.9C2593.37 1528.56 2589.35 1524.75 2584 1524.75C2578.6 1524.75 2574.6 1528.55 2574.6 1533.9V1568.73C2574.6 1577.69 2579.8 1582.89 2588.76 1582.89H2622.26C2627.58 1582.89 2631.35 1578.86 2631.35 1573.5ZM2698.78 1507.8V1472.97C2698.78 1464 2693.58 1458.8 2684.62 1458.8H2651.12C2645.81 1458.8 2642.04 1462.84 2642.04 1468.19C2642.04 1473.52 2645.77 1477.56 2651.12 1477.56H2653.91L2668.56 1476.11L2657.59 1486.49L2642.17 1501.79C2640.38 1503.56 2639.45 1505.96 2639.45 1508.48C2639.45 1514.23 2643.55 1518.19 2649.32 1518.19C2651.8 1518.19 2654.01 1517.11 2655.77 1515.35L2671.13 1499.94L2681.45 1488.95L2680.02 1503.85V1507.8C2680.02 1513.14 2684.03 1516.91 2689.39 1516.95C2694.78 1516.95 2698.78 1513.15 2698.78 1507.8Z" fill="black"/>
</g>
<g id="Bold-L">
<path id="Vector_15" d="M2333.15 1574.2C2333.15 1569.71 2330 1566.39 2325.5 1566.39H2320.71L2303.69 1567.7L2317.36 1554.63L2334.43 1537.73C2335.93 1536.22 2336.7 1534.27 2336.7 1532.17C2336.7 1527.36 2333.33 1524.01 2328.51 1524.01C2326.4 1524.01 2324.51 1524.86 2323.04 1526.37L2306.01 1543.42L2293.01 1557.12L2294.36 1539.87V1534.36C2294.36 1529.89 2291.03 1526.62 2286.54 1526.62C2282.01 1526.62 2278.69 1529.86 2278.69 1534.36V1569.79C2278.69 1577.54 2283.2 1582.04 2290.93 1582.04H2325.5C2329.94 1582.04 2333.15 1578.71 2333.15 1574.2ZM2401.25 1507.27V1471.84C2401.25 1464.09 2396.75 1459.59 2389.01 1459.59H2354.44C2350 1459.59 2346.79 1462.92 2346.79 1467.43C2346.79 1471.88 2349.95 1475.23 2354.44 1475.23H2359.23L2376.26 1473.89L2362.59 1486.96L2345.52 1503.9C2344.01 1505.37 2343.24 1507.36 2343.24 1509.46C2343.24 1514.27 2346.61 1517.63 2351.44 1517.63C2353.54 1517.63 2355.44 1516.73 2356.92 1515.26L2373.93 1498.21L2386.93 1484.51L2385.59 1501.72V1507.27C2385.59 1511.74 2388.91 1514.96 2393.41 1515.01C2397.93 1515.01 2401.25 1511.76 2401.25 1507.27Z" fill="black"/>
</g>
<g id="Semibold-L">
<path id="Vector_16" d="M2035.43 1574.68C2035.43 1570.78 2032.67 1567.95 2028.77 1567.95H2022.6L2003.93 1569.17L2019.47 1554.25L2037.68 1536.23C2038.98 1534.92 2039.65 1533.25 2039.65 1531.45C2039.65 1527.29 2036.78 1524.36 2032.6 1524.36C2030.76 1524.36 2029.08 1525.06 2027.81 1526.39L2009.64 1544.56L1994.79 1560.13L1996.07 1541.28V1534.67C1996.07 1530.81 1993.22 1527.9 1989.32 1527.9C1985.4 1527.9 1982.55 1530.77 1982.55 1534.67V1570.52C1982.55 1577.42 1986.57 1581.45 1993.46 1581.45H2028.77C2032.61 1581.45 2035.43 1578.59 2035.43 1574.68ZM2103.99 1506.9V1471.05C2103.99 1464.15 2099.96 1460.12 2093.08 1460.12H2057.76C2053.93 1460.12 2051.1 1462.98 2051.1 1466.9C2051.1 1470.75 2053.86 1473.63 2057.76 1473.63H2063.94L2082.6 1472.36L2067.07 1487.28L2048.86 1505.34C2047.55 1506.61 2046.89 1508.32 2046.89 1510.12C2046.89 1514.28 2049.76 1517.23 2053.94 1517.23C2055.77 1517.23 2057.45 1516.47 2058.74 1515.18L2076.9 1497.01L2091.75 1481.45L2090.47 1500.25V1506.9C2090.47 1510.77 2093.31 1513.61 2097.21 1513.67C2101.13 1513.67 2103.99 1510.8 2103.99 1506.9Z" fill="black"/>
</g>
<g id="Medium-L">
<path id="Vector_17" d="M1737.95 1575.04C1737.95 1571.59 1735.48 1569.12 1732.03 1569.12H1724.81L1704.91 1570.29L1721.86 1553.96L1740.93 1535.09C1742.08 1533.93 1742.66 1532.48 1742.66 1530.9C1742.66 1527.23 1740.18 1524.62 1736.49 1524.62C1734.85 1524.62 1733.34 1525.21 1732.22 1526.4L1713.17 1545.43L1696.92 1562.41L1698.15 1542.35V1534.9C1698.15 1531.5 1695.67 1528.88 1692.22 1528.88C1688.76 1528.88 1686.25 1531.45 1686.25 1534.9V1571.07C1686.25 1577.34 1689.91 1581 1696.16 1581H1732.03C1735.42 1581 1737.95 1578.51 1737.95 1575.04ZM1806.85 1506.62V1470.45C1806.85 1464.19 1803.19 1460.53 1796.94 1460.53H1761.07C1757.69 1460.53 1755.15 1463.02 1755.15 1466.49C1755.15 1469.89 1757.62 1472.41 1761.07 1472.41H1768.29L1788.19 1471.19L1771.24 1487.52L1752.17 1506.44C1751.02 1507.55 1750.44 1509.04 1750.44 1510.63C1750.44 1514.3 1752.92 1516.93 1756.61 1516.93C1758.25 1516.93 1759.76 1516.27 1760.91 1515.13L1779.93 1496.1L1796.18 1479.12L1794.95 1499.13V1506.62C1794.95 1510.03 1797.43 1512.58 1800.88 1512.65C1804.34 1512.65 1806.85 1510.07 1806.85 1506.62Z" fill="black"/>
</g>
<g id="Regular-L">
<path id="Vector_18" d="M1440.23 1575.52C1440.23 1572.65 1438.16 1570.66 1435.3 1570.66H1426.71L1405.18 1571.75L1423.98 1553.59L1444.18 1533.61C1445.13 1532.65 1445.61 1531.49 1445.61 1530.19C1445.61 1527.16 1443.62 1524.97 1440.57 1524.97C1439.19 1524.97 1437.89 1525.42 1436.97 1526.42L1416.79 1546.57L1398.71 1565.39L1399.88 1543.76V1535.22C1399.88 1532.41 1397.87 1530.16 1395 1530.16C1392.14 1530.16 1390.1 1532.36 1390.1 1535.22V1571.8C1390.1 1577.24 1393.28 1580.42 1398.69 1580.42H1435.3C1438.08 1580.42 1440.23 1578.41 1440.23 1575.52ZM1509.58 1506.27V1469.68C1509.58 1464.25 1506.4 1461.07 1500.99 1461.07H1464.38C1461.6 1461.07 1459.45 1463.08 1459.45 1465.97C1459.45 1468.78 1461.52 1470.82 1464.38 1470.82H1472.97L1494.5 1469.68L1475.71 1487.84L1455.51 1507.88C1454.55 1508.78 1454.08 1510 1454.08 1511.3C1454.08 1514.32 1456.06 1516.55 1459.11 1516.55C1460.49 1516.55 1461.79 1516.02 1462.74 1515.07L1482.89 1494.92L1500.97 1476.1L1499.8 1497.68V1506.27C1499.8 1509.08 1501.82 1511.25 1504.68 1511.33C1507.54 1511.33 1509.58 1509.13 1509.58 1506.27Z" fill="black"/>
</g>
<g id="Light-L">
<path id="Vector_19" d="M1142.94 1576.28C1142.94 1574.1 1141.39 1572.63 1139.21 1572.63H1126.14L1105.18 1573.47L1125.85 1553.21L1146.94 1532.31C1147.67 1531.58 1148.03 1530.72 1148.03 1529.75C1148.03 1527.47 1146.56 1525.86 1144.23 1525.86C1143.24 1525.86 1142.26 1526.18 1141.59 1526.94L1120.42 1548.06L1100.3 1568.71L1101.28 1547.69V1534.65C1101.28 1532.57 1099.76 1530.81 1097.58 1530.81C1095.4 1530.81 1093.9 1532.47 1093.9 1534.65V1573.45C1093.9 1577.53 1096.34 1579.96 1100.37 1579.96H1139.21C1141.31 1579.96 1142.94 1578.51 1142.94 1576.28ZM1212.37 1506.86V1468.06C1212.37 1463.98 1209.93 1461.54 1205.9 1461.54H1167.06C1164.96 1461.54 1163.33 1463 1163.33 1465.23C1163.33 1467.37 1164.88 1468.88 1167.06 1468.88H1180.13L1201.09 1468L1180.42 1488.26L1159.32 1509.2C1158.6 1509.89 1158.24 1510.79 1158.24 1511.76C1158.24 1514.04 1159.71 1515.69 1162.03 1515.69C1163.03 1515.69 1164 1515.3 1164.73 1514.57L1185.85 1493.45L1205.97 1472.8L1204.99 1493.78V1506.86C1204.99 1508.94 1206.51 1510.62 1208.69 1510.7C1210.87 1510.7 1212.37 1509.04 1212.37 1506.86Z" fill="black"/>
</g>
<g id="Thin-L">
<path id="Vector_20" d="M845.461 1577.29C845.461 1576.02 844.59 1575.23 843.321 1575.23H824.314L804.117 1575.74L827.255 1552.7L849.537 1530.59C849.96 1530.17 850.172 1529.71 850.172 1529.16C850.172 1527.87 849.381 1527.05 848.015 1527.05C847.525 1527.05 846.979 1527.19 846.628 1527.62L824.147 1550.03L801.326 1573.1L802.054 1552.89V1533.89C802.054 1532.76 801.191 1531.66 799.922 1531.66C798.653 1531.66 797.854 1532.62 797.854 1533.89V1575.61C797.854 1577.9 799.309 1579.36 801.525 1579.36H843.321C844.51 1579.36 845.461 1578.63 845.461 1577.29ZM914.991 1507.64V1465.92C914.991 1463.63 913.536 1462.17 911.32 1462.17H869.524C868.335 1462.17 867.384 1462.9 867.384 1464.24C867.384 1465.5 868.255 1466.3 869.524 1466.3H888.531L908.728 1465.78L885.59 1488.82L863.308 1510.94C862.885 1511.35 862.673 1511.82 862.673 1512.36C862.673 1513.66 863.464 1514.55 864.83 1514.55C865.32 1514.55 865.866 1514.33 866.289 1513.91L888.698 1491.5L911.519 1468.43L910.791 1488.63V1507.64C910.791 1508.76 911.654 1509.79 912.923 1509.87C914.192 1509.87 914.991 1508.91 914.991 1507.64Z" fill="black"/>
</g>
<g id="Ultralight-L">
<path id="Vector_21" d="M548.356 1577.81C548.356 1577.01 547.834 1576.57 547.031 1576.57H524.986L505.176 1576.91L529.582 1552.45L552.471 1529.72C552.739 1529.45 552.873 1529.2 552.873 1528.87C552.873 1528.08 552.431 1527.66 551.557 1527.66C551.325 1527.66 550.999 1527.71 550.816 1527.97L527.663 1551.04L503.458 1575.36L504.057 1555.56V1533.51C504.057 1532.87 503.53 1532.1 502.727 1532.1C501.924 1532.1 501.486 1532.7 501.486 1533.51V1576.73C501.486 1578.1 502.437 1579.05 503.722 1579.05H547.031C547.754 1579.05 548.356 1578.7 548.356 1577.81ZM617.938 1508.05V1464.82C617.938 1463.45 616.987 1462.5 615.702 1462.5H572.393C571.67 1462.5 571.068 1462.85 571.068 1463.74C571.068 1464.55 571.59 1464.99 572.393 1464.99H594.438L614.248 1464.65L589.842 1489.11L566.953 1511.84C566.685 1512.11 566.551 1512.35 566.551 1512.68C566.551 1513.47 566.993 1513.98 567.867 1513.98C568.099 1513.98 568.425 1513.85 568.693 1513.58L591.761 1490.51L615.966 1466.2L615.367 1486V1508.05C615.367 1508.68 615.894 1509.37 616.697 1509.45C617.5 1509.45 617.938 1508.85 617.938 1508.05Z" fill="black"/>
</g>
<g id="Black-M">
<path id="Vector_22" d="M2931.21 1130.86C2931.21 1125.69 2927.65 1121.74 2922.48 1121.74H2921.73L2914.05 1122.92L2919.23 1118.09L2929.06 1108.33C2930.81 1106.59 2931.71 1104.25 2931.71 1101.79C2931.71 1096.2 2927.64 1092.46 2922.05 1092.46C2919.69 1092.46 2917.63 1093.53 2915.95 1095.22L2906.13 1105.1L2901.35 1110.28L2902.53 1102.31V1100.07C2902.53 1094.9 2898.58 1091.34 2893.41 1091.34C2888.18 1091.34 2884.28 1094.9 2884.28 1100.07V1126.93C2884.28 1135.19 2889.08 1139.99 2897.34 1139.99H2922.48C2927.65 1139.99 2931.21 1136.03 2931.21 1130.86ZM2982.51 1081.69V1054.84C2982.51 1046.57 2977.72 1041.77 2969.45 1041.77H2944.31C2939.15 1041.77 2935.58 1045.73 2935.58 1050.9C2935.58 1056.07 2939.14 1060.03 2944.31 1060.03H2945.07L2952.75 1058.84L2947.57 1063.67L2937.73 1073.43C2935.99 1075.17 2935.09 1077.51 2935.09 1079.97C2935.09 1085.56 2939.16 1089.3 2944.74 1089.3C2947.1 1089.3 2949.16 1088.23 2950.85 1086.54L2960.67 1076.66L2965.44 1071.48L2964.26 1079.45V1081.69C2964.26 1086.86 2968.21 1090.42 2973.39 1090.43C2978.61 1090.43 2982.51 1086.86 2982.51 1081.69Z" fill="black"/>
</g>
<g id="Heavy-M">
<path id="Vector_23" d="M2633.34 1131.31C2633.34 1126.74 2630.18 1123.29 2625.61 1123.29H2624.07L2614.19 1124.42L2621.33 1117.7L2632.42 1106.71C2633.95 1105.17 2634.74 1103.13 2634.74 1100.97C2634.74 1096.05 2631.2 1092.71 2626.28 1092.71C2624.18 1092.71 2622.32 1093.63 2620.83 1095.14L2609.77 1106.24L2603.09 1113.39L2604.23 1103.26V1100.6C2604.23 1096.04 2600.78 1092.83 2596.21 1092.83C2591.6 1092.83 2588.18 1096.03 2588.18 1100.6V1127.51C2588.18 1135 2592.53 1139.34 2600.01 1139.34H2625.61C2630.16 1139.34 2633.34 1135.88 2633.34 1131.31ZM2685.21 1081.1V1054.2C2685.21 1046.71 2680.86 1042.36 2673.37 1042.36H2647.77C2643.23 1042.36 2640.04 1045.83 2640.04 1050.39C2640.04 1054.94 2643.21 1058.41 2647.77 1058.41H2649.32L2659.2 1057.26L2652.06 1063.99L2640.97 1074.99C2639.43 1076.51 2638.64 1078.57 2638.64 1080.73C2638.64 1085.65 2642.18 1089 2647.11 1089C2649.21 1089 2651.07 1088.06 2652.56 1086.57L2663.62 1075.47L2670.29 1068.31L2669.15 1078.42V1081.1C2669.15 1085.66 2672.61 1088.85 2677.17 1088.87C2681.78 1088.87 2685.21 1085.67 2685.21 1081.1Z" fill="black"/>
</g>
<g id="Bold-M">
<path id="Vector_24" d="M2335.33 1131.81C2335.33 1127.92 2332.6 1125.02 2328.71 1125.02H2326.28L2313.94 1126.11L2323.28 1117.26L2335.76 1104.9C2337.07 1103.59 2337.74 1101.88 2337.74 1100.06C2337.74 1095.88 2334.79 1092.99 2330.6 1092.99C2328.78 1092.99 2327.16 1093.73 2325.88 1095.04L2313.44 1107.51L2304.63 1116.87L2305.73 1104.33V1101.19C2305.73 1097.31 2302.83 1094.51 2298.94 1094.51C2295.02 1094.51 2292.13 1097.3 2292.13 1101.19V1128.15C2292.13 1134.78 2295.97 1138.62 2302.59 1138.62H2328.71C2332.56 1138.62 2335.33 1135.7 2335.33 1131.81ZM2387.82 1080.45V1053.48C2387.82 1046.86 2383.98 1043.01 2377.36 1043.01H2351.24C2347.39 1043.01 2344.63 1045.93 2344.63 1049.82C2344.63 1053.69 2347.35 1056.61 2351.24 1056.61H2353.67L2366.01 1055.5L2356.67 1064.35L2344.19 1076.74C2342.88 1078.02 2342.21 1079.75 2342.21 1081.58C2342.21 1085.75 2345.16 1088.65 2349.35 1088.65C2351.17 1088.65 2352.79 1087.87 2354.07 1086.59L2366.51 1074.13L2375.32 1064.76L2374.22 1077.28V1080.45C2374.22 1084.33 2377.12 1087.09 2381.01 1087.13C2384.93 1087.13 2387.82 1084.34 2387.82 1080.45Z" fill="black"/>
</g>
<g id="Semibold-M">
<path id="Vector_25" d="M2037.71 1132.15C2037.71 1128.73 2035.29 1126.22 2031.87 1126.22H2028.83L2014.79 1127.27L2025.64 1116.95L2039.09 1103.64C2040.24 1102.5 2040.82 1101.02 2040.82 1099.42C2040.82 1095.76 2038.28 1093.18 2034.61 1093.18C2032.98 1093.18 2031.52 1093.81 2030.39 1094.97L2017 1108.38L2006.72 1119.26L2007.79 1105.06V1101.59C2007.79 1098.18 2005.27 1095.66 2001.85 1095.66C1998.41 1095.66 1995.88 1098.17 1995.88 1101.59V1128.6C1995.88 1134.62 1999.38 1138.12 2005.4 1138.12H2031.87C2035.25 1138.12 2037.71 1135.58 2037.71 1132.15ZM2090.64 1079.99V1052.98C2090.64 1046.96 2087.15 1043.46 2081.13 1043.46H2054.66C2051.28 1043.46 2048.81 1046 2048.81 1049.43C2048.81 1052.82 2051.23 1055.36 2054.66 1055.36H2057.69L2071.73 1054.28L2060.88 1064.59L2047.43 1077.94C2046.28 1079.05 2045.7 1080.56 2045.7 1082.16C2045.7 1085.82 2048.24 1088.41 2051.91 1088.41C2053.54 1088.41 2055.01 1087.74 2056.14 1086.61L2069.53 1073.2L2079.8 1062.32L2078.73 1076.48V1079.99C2078.73 1083.4 2081.25 1085.88 2084.67 1085.92C2088.12 1085.92 2090.64 1083.42 2090.64 1079.99Z" fill="black"/>
</g>
<g id="Medium-M">
<path id="Vector_26" d="M1740.33 1132.41C1740.33 1129.34 1738.13 1127.12 1735.06 1127.12H1731.56L1716.24 1128.14L1728.23 1116.72L1742.42 1102.69C1743.44 1101.66 1743.96 1100.36 1743.96 1098.94C1743.96 1095.67 1741.73 1093.32 1738.44 1093.32C1736.97 1093.32 1735.62 1093.86 1734.61 1094.92L1720.49 1109.04L1709.1 1121.08L1710.15 1105.61V1101.89C1710.15 1098.84 1707.92 1096.53 1704.85 1096.53C1701.77 1096.53 1699.52 1098.82 1699.52 1101.89V1128.93C1699.52 1134.5 1702.75 1137.74 1708.32 1137.74H1735.06C1738.08 1137.74 1740.33 1135.49 1740.33 1132.41ZM1793.58 1079.64V1052.61C1793.58 1047.03 1790.35 1043.8 1784.78 1043.8H1758.04C1755.02 1043.8 1752.78 1046.05 1752.78 1049.13C1752.78 1052.16 1754.97 1054.41 1758.04 1054.41H1761.54L1776.87 1053.35L1764.87 1064.78L1750.69 1078.85C1749.66 1079.83 1749.14 1081.18 1749.14 1082.6C1749.14 1085.87 1751.38 1088.23 1754.66 1088.23C1756.14 1088.23 1757.48 1087.63 1758.5 1086.62L1772.61 1072.49L1784 1060.46L1782.96 1075.88V1079.64C1782.96 1082.7 1785.18 1084.95 1788.25 1085.01C1791.33 1085.01 1793.58 1082.72 1793.58 1079.64Z" fill="black"/>
</g>
<g id="Regular-M">
<path id="Vector_27" d="M1442.73 1132.75C1442.73 1130.14 1440.83 1128.31 1438.22 1128.31H1434.12L1417.12 1129.29L1430.61 1116.42L1445.75 1101.45C1446.62 1100.58 1447.06 1099.51 1447.06 1098.32C1447.06 1095.55 1445.22 1093.51 1442.45 1093.51C1441.16 1093.51 1439.97 1093.93 1439.11 1094.86L1424.05 1109.91L1411.2 1123.45L1412.22 1106.34V1102.29C1412.22 1099.7 1410.38 1097.67 1407.76 1097.67C1405.15 1097.67 1403.27 1099.68 1403.27 1102.29V1129.37C1403.27 1134.36 1406.16 1137.25 1411.13 1137.25H1438.22C1440.77 1137.25 1442.73 1135.37 1442.73 1132.75ZM1496.42 1079.2V1052.12C1496.42 1047.13 1493.52 1044.24 1488.55 1044.24H1461.46C1458.91 1044.24 1456.96 1046.12 1456.96 1048.74C1456.96 1051.3 1458.85 1053.18 1461.46 1053.18H1465.56L1482.57 1052.15L1469.07 1065.02L1453.93 1080.03C1453.06 1080.85 1452.63 1081.98 1452.63 1083.17C1452.63 1085.94 1454.46 1087.99 1457.24 1087.99C1458.52 1087.99 1459.71 1087.5 1460.58 1086.63L1475.64 1071.58L1488.48 1058.04L1487.46 1075.1V1079.2C1487.46 1081.79 1489.31 1083.76 1491.92 1083.82C1494.53 1083.82 1496.42 1081.81 1496.42 1079.2Z" fill="black"/>
</g>
<g id="Light-M">
<path id="Vector_28" d="M1145.5 1133.43C1145.5 1131.44 1144.06 1130.07 1142.07 1130.07H1133.95L1117.46 1130.83L1132.63 1116.07L1148.57 1100.29C1149.24 1099.63 1149.57 1098.82 1149.57 1097.92C1149.57 1095.82 1148.2 1094.31 1146.07 1094.31C1145.13 1094.31 1144.23 1094.62 1143.59 1095.32L1127.64 1111.25L1112.96 1126.43L1113.81 1109.87V1101.78C1113.81 1099.84 1112.41 1098.25 1110.41 1098.25C1108.42 1098.25 1107.01 1099.78 1107.01 1101.78V1130.84C1107.01 1134.61 1109.24 1136.84 1112.98 1136.84H1142.07C1144 1136.84 1145.5 1135.46 1145.5 1133.43ZM1199.25 1079.73V1050.66C1199.25 1046.89 1197.03 1044.67 1193.29 1044.67H1164.2C1162.26 1044.67 1160.77 1046.05 1160.77 1048.07C1160.77 1050.03 1162.2 1051.44 1164.2 1051.44H1172.32L1188.81 1050.64L1173.64 1065.4L1157.69 1081.22C1157.03 1081.85 1156.7 1082.68 1156.7 1083.58C1156.7 1085.68 1158.07 1087.22 1160.19 1087.22C1161.14 1087.22 1162.04 1086.85 1162.7 1086.19L1178.63 1070.26L1193.3 1055.08L1192.46 1071.61V1079.73C1192.46 1081.67 1193.86 1083.19 1195.85 1083.25C1197.85 1083.25 1199.25 1081.72 1199.25 1079.73Z" fill="black"/>
</g>
<g id="Thin-M">
<path id="Vector_29" d="M848.096 1134.34C848.096 1133.16 847.273 1132.4 846.093 1132.4H832.655L816.843 1132.86L834.232 1115.62L851.238 1098.75C851.631 1098.36 851.828 1097.91 851.828 1097.4C851.828 1096.18 851.067 1095.37 849.801 1095.37C849.311 1095.37 848.796 1095.52 848.453 1095.93L831.32 1113.01L814.226 1130.36L814.844 1114.52V1101.1C814.844 1100.02 814.034 1099.02 812.854 1099.02C811.673 1099.02 810.901 1099.92 810.901 1101.1V1132.79C810.901 1134.95 812.242 1136.29 814.353 1136.29H846.093C847.211 1136.29 848.096 1135.57 848.096 1134.34ZM901.942 1080.43V1048.74C901.942 1046.57 900.601 1045.23 898.49 1045.23H866.749C865.632 1045.23 864.747 1045.96 864.747 1047.19C864.747 1048.35 865.569 1049.13 866.749 1049.13H880.188L896 1048.65L878.61 1065.89L861.605 1082.77C861.212 1083.15 861.015 1083.61 861.015 1084.12C861.015 1085.34 861.775 1086.2 863.042 1086.2C863.531 1086.2 864.047 1085.99 864.44 1085.6L881.522 1068.52L898.617 1051.16L897.998 1066.99V1080.43C897.998 1081.51 898.809 1082.44 899.989 1082.5C901.169 1082.5 901.942 1081.61 901.942 1080.43Z" fill="black"/>
</g>
<g id="Ultralight-M">
<path id="Vector_30" d="M551.033 1134.8C551.033 1134.04 550.523 1133.59 549.76 1133.59H533.598L518.133 1133.91L536.659 1115.39L554.209 1097.96C554.463 1097.71 554.59 1097.45 554.59 1097.13C554.59 1096.37 554.143 1095.92 553.317 1095.92C553.059 1095.92 552.741 1095.99 552.548 1096.24L534.813 1113.91L516.478 1132.38L516.981 1116.91V1100.75C516.981 1100.11 516.472 1099.41 515.709 1099.41C514.946 1099.41 514.498 1099.99 514.498 1100.75V1133.78C514.498 1135.12 515.387 1136.01 516.663 1136.01H549.76C550.461 1136.01 551.033 1135.63 551.033 1134.8ZM604.925 1080.79V1047.75C604.925 1046.41 604.036 1045.52 602.76 1045.52H569.663C568.962 1045.52 568.39 1045.91 568.39 1046.74C568.39 1047.5 568.9 1047.95 569.663 1047.95H585.825L601.29 1047.63L582.764 1066.15L565.214 1083.57C564.96 1083.83 564.832 1084.08 564.832 1084.4C564.832 1085.17 565.28 1085.68 566.106 1085.68C566.363 1085.68 566.682 1085.55 566.936 1085.3L584.61 1067.62L602.944 1049.16L602.442 1064.62V1080.79C602.442 1081.43 602.951 1082.06 603.714 1082.12C604.477 1082.12 604.925 1081.55 604.925 1080.79Z" fill="black"/>
</g>
<g id="Black-S">
<path id="Vector_31" d="M2932.01 692.09C2932.01 687.891 2929.13 684.668 2924.93 684.668H2924.35L2919.02 685.596L2922.59 682.275L2929.96 674.951C2931.38 673.535 2932.11 671.631 2932.11 669.629C2932.11 665.088 2928.79 662.061 2924.25 662.061C2922.34 662.061 2920.68 662.939 2919.32 664.307L2911.94 671.729L2908.67 675.293L2909.6 669.727V667.871C2909.6 663.672 2906.38 660.791 2902.18 660.791C2897.93 660.791 2894.76 663.672 2894.76 667.871V689.014C2894.76 695.654 2898.61 699.512 2905.25 699.512H2924.93C2929.13 699.512 2932.01 696.289 2932.01 692.09ZM2972.05 653.857V632.715C2972.05 626.074 2968.19 622.217 2961.55 622.217H2941.87C2937.68 622.217 2934.79 625.439 2934.79 629.639C2934.79 633.838 2937.68 637.061 2941.87 637.061H2942.46L2947.78 636.133L2944.22 639.453L2936.85 646.777C2935.43 648.193 2934.7 650.098 2934.7 652.1C2934.7 656.641 2938.02 659.668 2942.56 659.668C2944.46 659.668 2946.12 658.789 2947.49 657.422L2954.86 650L2958.13 646.436L2957.21 652.002V653.857C2957.21 658.057 2960.43 660.938 2964.63 660.938C2968.88 660.938 2972.05 658.057 2972.05 653.857Z" fill="black"/>
</g>
<g id="Heavy-S">
<path id="Vector_32" d="M2634.37 692.389C2634.37 688.628 2631.77 685.774 2628.01 685.774H2627.26L2619.99 686.69L2625.02 681.987L2633.36 673.717C2634.62 672.451 2635.28 670.766 2635.28 668.983C2635.28 664.926 2632.35 662.175 2628.29 662.175C2626.56 662.175 2625.04 662.939 2623.81 664.179L2615.49 672.535L2610.82 677.574L2611.74 670.095V668.389C2611.74 664.628 2608.89 662.001 2605.12 662.001C2601.33 662.001 2598.5 664.628 2598.5 668.389V689.324C2598.5 695.458 2602.06 699.016 2608.19 699.016H2628.01C2631.76 699.016 2634.37 696.15 2634.37 692.389ZM2674.88 653.292V632.357C2674.88 626.224 2671.32 622.666 2665.19 622.666H2645.38C2641.63 622.666 2639.01 625.531 2639.01 629.292C2639.01 633.042 2641.61 635.908 2645.38 635.908H2646.12L2653.39 634.98L2648.36 639.683L2640.02 647.964C2638.76 649.218 2638.11 650.915 2638.11 652.698C2638.11 656.755 2641.03 659.506 2645.09 659.506C2646.82 659.506 2648.34 658.731 2649.57 657.502L2657.89 649.147L2662.56 644.107L2661.64 651.575V653.292C2661.64 657.053 2664.49 659.669 2668.26 659.681C2672.05 659.681 2674.88 657.053 2674.88 653.292Z" fill="black"/>
</g>
<g id="Bold-S">
<path id="Vector_33" d="M2336.63 692.716C2336.63 689.444 2334.33 687.003 2331.06 687.003H2330.13L2320.68 687.906L2327.35 681.656L2336.77 672.33C2337.87 671.231 2338.43 669.791 2338.43 668.253C2338.43 664.737 2335.94 662.296 2332.43 662.296C2330.89 662.296 2329.52 662.931 2328.45 664.029L2319.07 673.429L2312.85 680.118L2313.75 670.499V668.961C2313.75 665.689 2311.31 663.346 2308.04 663.346C2304.74 663.346 2302.3 665.689 2302.3 668.961V689.664C2302.3 695.231 2305.52 698.453 2311.09 698.453H2331.06C2334.31 698.453 2336.63 695.987 2336.63 692.716ZM2377.67 652.652V631.949C2377.67 626.383 2374.44 623.16 2368.88 623.16H2348.91C2345.66 623.16 2343.34 625.626 2343.34 628.897C2343.34 632.144 2345.63 634.61 2348.91 634.61H2349.83L2359.28 633.683L2352.62 639.933L2343.19 649.283C2342.09 650.357 2341.53 651.822 2341.53 653.36C2341.53 656.876 2344.02 659.317 2347.54 659.317C2349.08 659.317 2350.44 658.658 2351.52 657.584L2360.89 648.185L2367.12 641.495L2366.22 651.09V652.652C2366.22 655.924 2368.66 658.243 2371.93 658.268C2375.22 658.268 2377.67 655.924 2377.67 652.652Z" fill="black"/>
</g>
<g id="Semibold-S">
<path id="Vector_34" d="M2039.2 692.942C2039.2 690.009 2037.11 687.851 2034.18 687.851H2033.13L2022.18 688.746L2029.97 681.43L2040.14 671.375C2041.12 670.392 2041.62 669.12 2041.62 667.751C2041.62 664.608 2039.44 662.38 2036.29 662.38C2034.89 662.38 2033.63 662.926 2032.66 663.927L2022.56 674.046L2015.26 681.873L2016.15 670.779V669.356C2016.15 666.422 2013.99 664.274 2011.06 664.274C2008.11 664.274 2005.94 666.422 2005.94 669.356V689.899C2005.94 695.075 2008.93 698.066 2014.1 698.066H2034.18C2037.08 698.066 2039.2 695.876 2039.2 692.942ZM2080.6 652.212V631.669C2080.6 626.494 2077.61 623.502 2072.43 623.502H2052.36C2049.46 623.502 2047.34 625.692 2047.34 628.626C2047.34 631.527 2049.42 633.717 2052.36 633.717H2053.41L2064.36 632.789L2056.56 640.106L2046.39 650.194C2045.41 651.144 2044.91 652.449 2044.91 653.818C2044.91 656.96 2047.1 659.188 2050.24 659.188C2051.65 659.188 2052.91 658.609 2053.87 657.642L2063.98 647.522L2071.28 639.695L2070.38 650.756V652.212C2070.38 655.146 2072.54 657.261 2075.48 657.294C2078.43 657.294 2080.6 655.146 2080.6 652.212Z" fill="black"/>
</g>
<g id="Medium-S">
<path id="Vector_35" d="M1741.94 693.114C1741.94 690.437 1740.02 688.495 1737.34 688.495H1736.19L1724.1 689.383L1732.75 681.258L1743.49 670.65C1744.38 669.755 1744.84 668.611 1744.84 667.37C1744.84 664.511 1742.88 662.444 1740.02 662.444C1738.72 662.444 1737.54 662.923 1736.65 663.85L1725.99 674.515L1717.88 683.204L1718.76 670.991V669.656C1718.76 666.979 1716.82 664.978 1714.14 664.978C1711.46 664.978 1709.49 666.979 1709.49 669.656V690.078C1709.49 694.957 1712.3 697.773 1717.18 697.773H1737.34C1739.98 697.773 1741.94 695.792 1741.94 693.114ZM1783.62 651.879V631.457C1783.62 626.578 1780.8 623.762 1775.92 623.762H1755.76C1753.13 623.762 1751.17 625.743 1751.17 628.421C1751.17 631.059 1753.09 633.04 1755.76 633.04H1756.91L1769 632.112L1760.35 640.237L1749.61 650.885C1748.72 651.74 1748.27 652.924 1748.27 654.165C1748.27 657.024 1750.22 659.091 1753.08 659.091C1754.39 659.091 1755.57 658.572 1756.45 657.685L1767.11 647.021L1775.23 638.331L1774.34 650.504V651.879C1774.34 654.557 1776.28 656.517 1778.96 656.557C1781.64 656.557 1783.62 654.557 1783.62 651.879Z" fill="black"/>
</g>
<g id="Regular-S">
<path id="Vector_36" d="M1444.52 693.338C1444.52 690.994 1442.81 689.334 1440.47 689.334H1439.2L1425.62 690.213L1435.39 681.033L1446.86 669.705C1447.64 668.924 1448.03 667.947 1448.03 666.873C1448.03 664.383 1446.37 662.527 1443.88 662.527C1442.71 662.527 1441.64 662.918 1440.86 663.748L1429.48 675.125L1420.3 684.939L1421.18 671.268V670.047C1421.18 667.703 1419.52 665.896 1417.18 665.896C1414.83 665.896 1413.12 667.703 1413.12 670.047V690.311C1413.12 694.803 1415.71 697.391 1420.2 697.391H1440.47C1442.76 697.391 1444.52 695.682 1444.52 693.338ZM1486.56 651.443V631.18C1486.56 626.687 1483.97 624.1 1479.48 624.1H1459.22C1456.92 624.1 1455.16 625.809 1455.16 628.152C1455.16 630.447 1456.87 632.156 1459.22 632.156H1460.49L1474.06 631.229L1464.29 640.408L1452.82 651.785C1452.04 652.518 1451.65 653.543 1451.65 654.617C1451.65 657.107 1453.31 658.963 1455.8 658.963C1456.97 658.963 1458.04 658.523 1458.83 657.742L1470.2 646.365L1479.38 636.551L1478.5 650.174V651.443C1478.5 653.787 1480.16 655.545 1482.51 655.594C1484.85 655.594 1486.56 653.787 1486.56 651.443Z" fill="black"/>
</g>
<g id="Light-S">
<path id="Vector_37" d="M1147.35 693.943C1147.35 692.145 1146.05 690.893 1144.25 690.893H1139.42L1126.3 691.575L1137.55 680.73L1149.74 668.676C1150.34 668.076 1150.63 667.342 1150.63 666.525C1150.63 664.625 1149.38 663.239 1147.47 663.239C1146.6 663.239 1145.78 663.523 1145.2 664.157L1133.03 676.306L1122.23 687.573L1122.96 674.386V669.593C1122.96 667.824 1121.7 666.411 1119.9 666.411C1118.1 666.411 1116.81 667.794 1116.81 669.593V691.612C1116.81 695.03 1118.81 697.027 1122.21 697.027H1144.25C1146 697.027 1147.35 695.757 1147.35 693.943ZM1189.45 651.913V629.893C1189.45 626.476 1187.45 624.478 1184.05 624.478H1162.01C1160.26 624.478 1158.91 625.748 1158.91 627.562C1158.91 629.327 1160.21 630.612 1162.01 630.612H1166.84L1179.96 629.896L1168.71 640.741L1156.53 652.83C1155.93 653.395 1155.63 654.164 1155.63 654.98C1155.63 656.88 1156.88 658.282 1158.79 658.282C1159.66 658.282 1160.48 657.948 1161.08 657.349L1173.23 645.2L1184.03 633.932L1183.3 647.086V651.913C1183.3 653.681 1184.57 655.045 1186.36 655.094C1188.16 655.094 1189.45 653.711 1189.45 651.913Z" fill="black"/>
</g>
<g id="Thin-S">
<path id="Vector_38" d="M850.027 694.744C850.027 693.666 849.268 692.955 848.189 692.955H838.658L826.139 693.377L839.35 680.33L852.477 667.314C852.836 666.955 853.016 666.541 853.016 666.064C853.016 664.945 852.305 664.18 851.15 664.18C850.682 664.18 850.205 664.324 849.881 664.697L836.676 677.867L823.734 691.057L824.262 678.51V668.992C824.262 667.984 823.516 667.092 822.438 667.092C821.359 667.092 820.635 667.914 820.635 668.992V693.334C820.635 695.33 821.852 696.547 823.812 696.547H848.189C849.219 696.547 850.027 695.857 850.027 694.744ZM892.209 652.533V628.191C892.209 626.195 890.992 624.978 889.031 624.978H864.654C863.625 624.978 862.816 625.668 862.816 626.781C862.816 627.846 863.576 628.57 864.654 628.57H874.186L886.705 628.135L873.494 641.182L860.367 654.211C860.008 654.557 859.828 654.984 859.828 655.461C859.828 656.58 860.539 657.381 861.693 657.381C862.162 657.381 862.639 657.187 862.998 656.828L876.168 643.658L889.109 630.469L888.582 643.002V652.533C888.582 653.541 889.328 654.385 890.406 654.434C891.484 654.434 892.209 653.611 892.209 652.533Z" fill="black"/>
</g>
<g id="Ultralight-S">
<path id="Vector_39" d="M553.004 695.154C553.004 694.445 552.521 694.011 551.812 694.011H539.872L527.66 694.3L541.875 680.125L555.484 666.617C555.721 666.381 555.839 666.131 555.839 665.829C555.839 665.109 555.405 664.662 554.64 664.662C554.376 664.662 554.074 664.734 553.883 664.974L540.145 678.667L526.106 692.841L526.531 680.622V668.685C526.531 668.066 526.052 667.44 525.343 667.44C524.634 667.44 524.196 667.976 524.196 668.685V694.216C524.196 695.484 525.013 696.301 526.236 696.301H551.812C552.473 696.301 553.004 695.909 553.004 695.154ZM595.227 652.851V627.32C595.227 626.052 594.41 625.235 593.187 625.235H567.611C566.951 625.235 566.419 625.627 566.419 626.381C566.419 627.087 566.902 627.524 567.611 627.524H579.552L591.764 627.232L577.548 641.407L563.939 654.918C563.703 655.151 563.584 655.405 563.584 655.707C563.584 656.426 564.019 656.919 564.783 656.919C565.047 656.919 565.349 656.798 565.585 656.562L579.278 642.869L593.317 628.695L592.892 640.91V652.851C592.892 653.469 593.372 654.046 594.081 654.095C594.79 654.095 595.227 653.56 595.227 652.851Z" fill="black"/>
</g>
</g>
</g>
<defs>
<clipPath id="clip0_9494_285804">
<rect width="3300" height="2200" fill="white"/>
</clipPath>
</defs>
</svg>
