<svg width="888" height="543" viewBox="0 0 888 543" fill="none" xmlns="http://www.w3.org/2000/svg">
<g clip-path="url(#clip0_1105_2292)">
<path d="M804.432 0.158203H101.46C23.1908 0.158203 1.20785 65.3185 0 97.8985L15.7021 277.529C27.2975 368.403 97.8363 384.957 131.656 381.873L662.592 373.956C662.919 373.953 663.231 374.1 663.435 374.358L793.014 539.07C795.783 542.586 801.402 539.925 800.43 535.554L764.856 375.228C764.709 374.571 765.21 373.95 765.882 373.95H804.432C858.543 375.006 872.07 322.437 872.07 296.021L886.566 108.465C898.161 22.8762 836.64 0.598474 804.432 0.158203Z" fill="#BABFFC"/>
<path d="M882.396 107.905L882.378 108.025L882.369 108.145L867.876 295.701L867.861 295.863V296.025C867.861 308.683 864.591 327.598 854.97 343.069C845.496 358.3 829.887 370.24 804.513 369.745H804.471H804.432H765.882C762.519 369.745 760.017 372.859 760.746 376.144L796.323 536.47L666.741 371.761C665.727 370.471 664.17 369.727 662.529 369.754L131.594 377.671H131.433L131.274 377.686C115.145 379.156 90.0308 375.925 67.6343 361.408C45.4295 347.011 25.5509 321.307 19.8875 277.084L4.21582 97.8005C4.84645 82.1873 10.462 58.7879 25.1864 39.3569C39.848 20.009 63.6866 4.37109 101.46 4.37109H804.402C819.756 4.5873 842.091 10.0429 859.095 25.4995C875.88 40.7591 888.033 66.2756 882.396 107.905Z" stroke="black" stroke-opacity="0.1" stroke-width="8.41707"/>
</g>
<defs>
<clipPath id="clip0_1105_2292">
<rect width="888" height="543" fill="white"/>
</clipPath>
</defs>
</svg>
