<svg width="888" height="411" viewBox="0 0 888 411" fill="none" xmlns="http://www.w3.org/2000/svg">
<g clip-path="url(#clip0_1105_1700)">
<path d="M258.063 68.6149C269.169 68.6149 278.969 62.8096 278.969 55.8433C278.969 49.6507 269.169 44.2324 258.063 44.2324C246.957 44.2324 237.811 50.0377 237.811 56.6173C237.811 63.1966 246.957 68.6149 258.063 68.6149ZM39.2052 410.744C78.4035 410.744 103.882 389.846 122.828 368.171C148.961 338.759 171.827 305.087 192.732 266.385C196.652 259.031 202.532 254.387 213.638 250.517C246.303 238.906 303.795 214.136 330.579 205.235C346.914 199.816 365.859 193.237 356.058 182.013C352.14 176.982 341.685 175.047 331.233 177.369C304.449 183.174 271.129 201.364 247.61 209.492L222.131 218.007C216.905 219.555 216.251 219.168 218.211 215.297C230.624 186.657 233.237 178.917 250.223 131.313C253.49 122.799 246.957 113.123 229.318 113.51C210.372 113.897 205.799 127.443 201.225 149.116C194.692 179.691 179.013 206.009 165.947 231.165C162.027 238.519 157.454 243.55 147.654 248.194C105.189 268.32 71.8704 292.315 43.7784 316.31C0.660101 352.691 -26.1255 410.744 39.2052 410.744ZM43.7784 378.236C43.7784 359.27 84.2835 320.954 130.015 293.089C130.015 302.378 97.3494 343.79 78.4035 364.301C67.9506 375.524 43.7784 393.329 43.7784 378.236Z" fill="#C69C3C"/>
<path d="M449.892 270.256C464.265 270.256 470.799 264.838 470.799 254.388C470.799 237.746 477.333 221.104 485.172 204.462C496.278 181.241 511.956 158.793 528.291 134.411C536.13 123.187 542.661 111.189 524.37 106.158C515.223 103.449 504.117 104.997 496.932 110.028C485.172 118.156 459.039 145.247 434.868 170.017C407.427 197.496 365.616 238.133 346.671 238.133C337.524 238.133 365.616 176.983 379.335 156.471C384.561 147.57 402.855 125.509 401.547 117.769C400.242 106.932 378.681 103.062 367.575 109.641C351.897 118.93 328.377 160.728 317.271 184.724C302.898 217.234 289.179 253.227 324.459 265.225C346.017 271.804 368.229 265.612 388.482 254.388C400.242 248.196 409.389 239.681 423.108 229.232L432.906 221.878L430.947 232.328C428.334 245.487 425.721 258.258 432.906 264.064C437.481 267.934 443.361 270.256 449.892 270.256Z" fill="#C69C3C"/>
<path d="M555.426 277.223C562.614 276.062 566.535 271.805 567.84 266.773C569.148 261.355 563.268 254.001 563.268 247.035C563.268 229.232 567.186 211.042 574.374 193.239C575.679 190.143 577.641 188.982 583.521 188.982C595.932 188.982 607.038 182.402 639.705 165.76C693.276 138.281 727.248 101.514 758.607 58.5541C771.672 39.9769 779.511 13.2724 755.994 4.37081C731.166 -5.69185 692.622 9.01508 666.489 24.4961C612.918 56.2321 580.254 92.6122 554.775 138.281C537.789 168.856 522.108 202.14 520.149 237.36C518.841 259.033 523.416 281.48 555.426 277.223ZM592.011 155.697C614.226 111.576 642.969 78.6793 686.088 49.6525C694.581 44.2342 718.755 30.6883 724.635 30.6883C725.94 30.6883 727.899 31.4626 718.101 48.4915C693.927 91.4512 659.304 116.608 596.586 153.762C593.973 155.31 592.665 155.697 592.011 155.697Z" fill="#C69C3C"/>
<path d="M696.627 410.357C720.801 410.357 743.667 402.23 757.386 390.233C793.971 358.496 808.998 329.084 871.062 180.078C884.781 144.858 899.154 124.346 874.98 116.606C853.422 110.026 831.21 130.925 806.385 156.082C799.197 163.049 765.879 196.333 754.773 205.621C743.013 215.684 734.52 223.424 721.455 231.165C716.229 234.261 718.842 223.424 719.493 220.715C728.64 183.174 746.934 159.953 761.958 126.669C765.225 119.702 759.345 112.736 748.893 110.413C738.441 108.091 727.986 111.574 721.455 118.154C718.842 120.476 695.322 166.532 688.134 182.013C675.069 210.653 661.35 253.999 699.243 262.514C720.801 267.158 739.746 258.257 756.732 247.033C769.8 238.905 781.557 229.23 795.279 216.071C803.118 208.331 811.611 201.364 819.45 194.011C810.957 217.232 791.358 264.449 788.091 270.254C786.786 272.964 786.132 274.512 782.211 275.286C714.267 288.445 636.525 343.403 648.285 385.202C652.203 398.747 669.189 410.357 696.627 410.357ZM690.75 375.137C691.401 356.948 723.414 321.728 766.533 308.957C780.252 304.7 741.054 356.174 726.027 371.654C714.921 382.88 690.75 390.62 690.75 375.137Z" fill="#C69C3C"/>
</g>
<defs>
<clipPath id="clip0_1105_1700">
<rect width="888" height="411" fill="white"/>
</clipPath>
</defs>
</svg>
