<svg width="296" height="137" viewBox="0 0 296 137" fill="none" xmlns="http://www.w3.org/2000/svg">
<path d="M86.021 22.872C89.7231 22.872 92.9896 20.9369 92.9896 18.6148C92.9896 16.5506 89.7231 14.7445 86.021 14.7445C82.3189 14.7445 79.2702 16.6796 79.2702 18.8728C79.2702 21.0659 82.3189 22.872 86.021 22.872ZM13.0684 136.915C26.1345 136.915 34.6275 129.949 40.9428 122.724C49.6536 112.92 57.2755 101.696 64.2441 88.7952C65.5507 86.344 67.5106 84.7959 71.2127 83.5059C82.1011 79.6356 101.265 71.3791 110.193 68.4119C115.638 66.6058 121.953 64.4127 118.686 60.6714C117.38 58.9943 113.895 58.3493 110.411 59.1233C101.483 61.0584 90.3764 67.1218 82.5367 69.831L74.0437 72.6692C72.3015 73.1852 72.0838 73.0562 72.7371 71.7661C76.8747 62.2195 77.7458 59.6394 83.4078 43.7714C84.4966 40.9332 82.3189 37.708 76.4392 37.837C70.1239 37.966 68.5995 42.4813 67.0751 49.7057C64.8974 59.8974 59.671 68.6699 55.3156 77.0555C54.009 79.5066 52.4846 81.1837 49.218 82.7318C35.0631 89.4402 23.9568 97.4387 14.5928 105.437C0.220036 117.564 -8.70849 136.915 13.0684 136.915ZM14.5928 126.079C14.5928 119.757 28.0945 106.985 43.3383 97.6967C43.3383 100.793 32.4498 114.597 26.1345 121.434C22.6502 125.175 14.5928 131.11 14.5928 126.079Z" fill="#C69C3C"/>
<path d="M149.964 90.0853C154.755 90.0853 156.933 88.2792 156.933 84.7959C156.933 79.2486 159.111 73.7012 161.724 68.1539C165.426 60.4134 170.652 52.9309 176.097 44.8034C178.71 41.0622 180.887 37.0629 174.79 35.3858C171.741 34.4828 168.039 34.9988 165.644 36.6759C161.724 39.3851 153.013 48.4156 144.956 56.6722C135.809 65.8317 121.872 79.3776 115.557 79.3776C112.508 79.3776 121.872 58.9943 126.445 52.1569C128.187 49.1897 134.285 41.8362 133.849 39.2561C133.414 35.6438 126.227 34.3538 122.525 36.5469C117.299 39.6431 109.459 53.576 105.757 61.5745C100.966 72.4112 96.3931 84.4089 108.153 88.4082C115.339 90.6013 122.743 88.5372 129.494 84.7959C133.414 82.7318 136.463 79.8936 141.036 76.4104L144.302 73.9593L143.649 77.4425C142.778 81.8288 141.907 86.086 144.302 88.0211C145.827 89.3112 147.787 90.0853 149.964 90.0853Z" fill="#C69C3C"/>
<path d="M185.142 92.4074C187.538 92.0204 188.845 90.6013 189.28 88.9242C189.716 87.1181 187.756 84.6669 187.756 82.3448C187.756 76.4104 189.062 70.347 191.458 64.4127C191.893 63.3806 192.547 62.9936 194.507 62.9936C198.644 62.9936 202.346 60.8004 213.235 55.2531C231.092 46.0935 242.416 33.8377 252.869 19.5178C257.224 13.3254 259.837 4.42387 251.998 1.45669C243.722 -1.89753 230.874 3.00478 222.163 8.16511C204.306 18.7438 193.418 30.8705 184.925 46.0935C179.263 56.2851 174.036 67.3798 173.383 79.1196C172.947 86.344 174.472 93.8265 185.142 92.4074ZM197.337 51.8989C204.742 37.1919 214.323 26.2262 228.696 16.5506C231.527 14.7445 239.585 10.2292 241.545 10.2292C241.98 10.2292 242.633 10.4873 239.367 16.1636C231.309 30.4835 219.768 38.869 198.862 51.2538C197.991 51.7699 197.555 51.8989 197.337 51.8989Z" fill="#C69C3C"/>
<path d="M232.209 136.786C240.267 136.786 247.889 134.077 252.462 130.078C264.657 119.499 269.666 109.695 290.354 60.0264C294.927 48.2866 299.718 41.4492 291.66 38.869C284.474 36.6759 277.07 43.6423 268.795 52.0279C266.399 54.35 255.293 65.4447 251.591 68.5409C247.671 71.8951 244.84 74.4753 240.485 77.0555C238.743 78.0875 239.614 74.4753 239.831 73.5722C242.88 61.0584 248.978 53.318 253.986 42.2233C255.075 39.9011 253.115 37.579 249.631 36.8049C246.147 36.0309 242.662 37.1919 240.485 39.3851C239.614 40.1591 231.774 55.5111 229.378 60.6714C225.023 70.218 220.45 84.6669 233.081 87.5051C240.267 89.0532 246.582 86.086 252.244 82.3448C256.6 79.6356 260.519 76.4104 265.093 72.0241C267.706 69.444 270.537 67.1218 273.15 64.6707C270.319 72.4112 263.786 88.1501 262.697 90.0853C262.262 90.9883 262.044 91.5044 260.737 91.7624C238.089 96.1487 212.175 114.468 216.095 128.401C217.401 132.916 223.063 136.786 232.209 136.786ZM230.25 125.046C230.467 118.983 241.138 107.243 255.511 102.986C260.084 101.567 247.018 118.725 242.009 123.885C238.307 127.627 230.25 130.207 230.25 125.046Z" fill="#C69C3C"/>
</svg>
