<svg width="891" height="891" viewBox="0 0 891 891" fill="none" xmlns="http://www.w3.org/2000/svg">
<g clip-path="url(#clip0_1105_2213)">
<path fill-rule="evenodd" clip-rule="evenodd" d="M125.904 137.257C76.2579 186.904 71.9865 260.316 104.821 314.278C46.2552 331.069 0.0996094 384.502 0.0996094 452.89C0.0996094 523.108 48.9984 578.041 110.382 592.975C80.8047 646.267 85.9374 716.725 134.313 765.1C183.965 814.75 257.387 819.019 311.352 786.172C328.107 844.789 381.567 891.001 449.994 891.001C520.215 891.001 575.151 842.095 590.082 780.709C643.374 810.283 713.826 805.15 762.201 756.775C811.869 707.107 816.123 633.655 783.243 579.685C841.851 562.924 888.054 509.47 888.054 441.046C888.054 370.825 839.151 315.889 777.762 300.958C807.339 247.668 802.206 177.213 753.831 128.838C704.181 79.1895 630.765 74.9202 576.801 107.761C560.04 49.1481 506.586 2.94141 438.159 2.94141C367.899 2.94141 312.942 51.9003 298.047 113.337C244.753 83.7477 174.286 88.8759 125.904 137.257Z" fill="#BABFFC"/>
</g>
<defs>
<clipPath id="clip0_1105_2213">
<rect width="891" height="891" fill="white"/>
</clipPath>
</defs>
</svg>
