<svg width="297" height="297" viewBox="0 0 297 297" fill="none" xmlns="http://www.w3.org/2000/svg">
<path fill-rule="evenodd" clip-rule="evenodd" d="M41.9681 45.7519C25.4193 62.3007 23.9955 86.7714 34.9405 104.759C15.4184 110.356 0.0332031 128.167 0.0332031 150.963C0.0332031 174.369 16.3328 192.68 36.7939 197.658C26.9349 215.422 28.6458 238.908 44.771 255.033C61.3216 271.583 85.7957 273.006 103.784 262.057C109.369 281.596 127.189 297 149.998 297C173.405 297 191.717 280.698 196.694 260.236C214.458 270.094 237.942 268.383 254.067 252.258C270.623 235.702 272.041 211.218 261.081 193.228C280.617 187.641 296.018 169.823 296.018 147.015C296.018 123.608 279.717 105.296 259.254 100.319C269.113 82.5554 267.402 59.0706 251.277 42.9456C234.727 26.396 210.255 24.9729 192.267 35.9197C186.68 16.3822 168.862 0.97998 146.053 0.97998C122.633 0.97998 104.314 17.2996 99.349 37.7784C81.5842 27.9154 58.0952 29.6248 41.9681 45.7519Z" fill="#BABFFC"/>
</svg>
