<svg width="312" height="79" viewBox="0 0 312 79" fill="none" xmlns="http://www.w3.org/2000/svg">
<path d="M2.46741 3.88017C1.40079 2.21623 2.59566 0.0310059 4.57211 0.0310059H285.633C286.485 0.0310059 287.278 0.464719 287.738 1.18184L311.135 37.6818C311.662 38.5041 311.662 39.5579 311.135 40.3802L287.738 76.8802C287.278 77.5973 286.485 78.031 285.633 78.031H4.57211C2.59566 78.031 1.40079 75.8458 2.46741 74.1818L24.1352 40.3802C24.6622 39.5579 24.6622 38.5041 24.1352 37.6818L2.46741 3.88017Z" fill="#FFBBA6"/>
<path d="M27.1017 45.3752L29.5617 41.6441L30.3966 42.1946L31.6266 40.329C32.1771 39.4942 32.1771 38.4116 31.6266 37.5767L30.3966 35.7112L29.5617 36.2617L27.1017 32.5306L27.9366 31.9801L25.4765 28.249L24.6417 28.7995L22.1816 25.0684L23.0165 24.518L20.5565 20.7869L19.7216 21.3373L17.2616 17.6063L18.0965 17.0558L15.6364 13.3247L14.8016 13.8752L12.3415 10.1441L13.1764 9.59365L11.9464 7.72811C11.7272 7.39567 11.9656 6.95288 12.3638 6.95288H14.3426V5.95288H18.3003V6.95288H22.2581V5.95288H26.2159V6.95288H30.1736V5.95288H34.1314V6.95288H38.0891V5.95288H42.0469V6.95288H46.0047V5.95288H49.9624V6.95288H53.9202V5.95288H57.878V6.95288H61.8357V5.95288H65.7935V6.95288H69.7513V5.95288H73.709V6.95288H77.6668V5.95288H81.6245V6.95288H85.5823V5.95288H89.5401V6.95288H93.4978V5.95288H97.4556V6.95288H101.413V5.95288H105.371V6.95288H109.329V5.95288H113.287V6.95288H117.244V5.95288H121.202V6.95288H125.16V5.95288H129.118V6.95288H133.075V5.95288H137.033V6.95288H140.991V5.95288H144.949V6.95288H148.907V5.95288H152.864V6.95288H156.822V5.95288H160.78V6.95288H164.738V5.95288H168.695V6.95288H172.653V5.95288H176.611V6.95288H180.569V5.95288H184.526V6.95288H188.484V5.95288H192.442V6.95288H196.4V5.95288H200.357V6.95288H204.315V5.95288H208.273V6.95288H212.231V5.95288H216.189V6.95288H220.146V5.95288H224.104V6.95288H228.062V5.95288H232.02V6.95288H235.977V5.95288H239.935V6.95288H243.893V5.95288H247.851V6.95288H251.808V5.95288H255.766V6.95288H259.724V5.95288H263.682V6.95288H267.639V5.95288H271.597V6.95288H275.555V5.95288H279.513V6.95288H281.492C281.663 6.95288 281.823 7.04118 281.915 7.18666L282.906 8.76165L283.752 8.2292L285.733 11.3792L284.887 11.9117L286.868 15.0617L287.715 14.5292L289.696 17.6792L288.85 18.2117L290.831 21.3617L291.678 20.8292L293.659 23.9792L292.813 24.5117L294.794 27.6617L295.641 27.1292L297.622 30.2792L296.776 30.8117L298.757 33.9617L299.604 33.4292L301.585 36.5792L300.739 37.1117L301.729 38.6867C301.832 38.8494 301.832 39.0564 301.729 39.2191L300.739 40.7941L301.585 41.3266L299.604 44.4766L298.757 43.9441L296.776 47.0941L297.622 47.6266L295.641 50.7766L294.794 50.2441L292.813 53.3941L293.659 53.9266L291.678 57.0766L290.831 56.5441L288.85 59.6941L289.696 60.2266L287.715 63.3766L286.868 62.8441L284.887 65.9941L285.733 66.5266L283.752 69.6766L282.906 69.1441L281.915 70.7191C281.823 70.8646 281.663 70.9529 281.492 70.9529H279.513V71.9529H275.555V70.9529H271.597V71.9529H267.64V70.9529H263.682V71.9529H259.724V70.9529H255.766V71.9529H251.808V70.9529H247.851V71.9529H243.893V70.9529H239.935V71.9529H235.977V70.9529H232.02V71.9529H228.062V70.9529H224.104V71.9529H220.146V70.9529H216.189V71.9529H212.231V70.9529H208.273V71.9529H204.315V70.9529H200.358V71.9529H196.4V70.9529H192.442V71.9529H188.484V70.9529H184.526V71.9529H180.569V70.9529H176.611V71.9529H172.653V70.9529H168.695V71.9529H164.738V70.9529H160.78V71.9529H156.822V70.9529H152.864V71.9529H148.907V70.9529H144.949V71.9529H140.991V70.9529H137.033V71.9529H133.076V70.9529H129.118V71.9529H125.16V70.9529H121.202V71.9529H117.245V70.9529H113.287V71.9529H109.329V70.9529H105.371V71.9529H101.413V70.9529H97.4557V71.9529H93.4979V70.9529H89.5402V71.9529H85.5824V70.9529H81.6246V71.9529H77.6669V70.9529H73.7091V71.9529H69.7514V70.9529H65.7936V71.9529H61.8358V70.9529H57.8781V71.9529H53.9203V70.9529H49.9626V71.9529H46.0048V70.9529H42.047V71.9529H38.0893V70.9529H34.1315V71.9529H30.1737V70.9529H26.216V71.9529H22.2582V70.9529H18.3005V71.9529H14.3427V70.9529H12.3638C11.9656 70.9529 11.7272 70.5101 11.9464 70.1777L13.1764 68.3121L12.3415 67.7617L14.8016 64.0306L15.6364 64.581L18.0965 60.85L17.2616 60.2995L19.7216 56.5684L20.5565 57.1189L23.0165 53.3878L22.1816 52.8373L24.6417 49.1063L25.4765 49.6567L27.9366 45.9256L27.1017 45.3752Z" stroke="white" stroke-width="2" stroke-dasharray="4 4"/>
</svg>
