<svg width="309" height="237" viewBox="0 0 309 237" fill="none" xmlns="http://www.w3.org/2000/svg">
<path d="M300.477 16.8184H12.045C11.5806 16.8184 11.2041 17.1348 11.2041 17.5993V227.909C11.2041 228.373 11.5806 228.727 12.045 228.727H305.323C305.858 228.727 306.275 228.3 306.199 227.77C303.859 211.404 301.983 82.326 301.317 17.6286C301.313 17.1675 300.938 16.8184 300.477 16.8184Z" fill="#76DC9F"/>
<g filter="url(#filter0_d_916_1830)">
<path d="M296.273 12.6133H7.84091C7.37649 12.6133 7 12.9298 7 13.3942V223.704C7 224.168 7.37648 224.522 7.8409 224.522H301.119C301.654 224.522 302.071 224.095 301.995 223.565C299.655 207.199 297.779 78.121 297.113 13.4235C297.109 12.9624 296.734 12.6133 296.273 12.6133Z" fill="#76DC9F"/>
</g>
<rect x="29.7041" width="19.3409" height="32.7955" rx="9.67045" fill="#56B07A"/>
<rect x="29.7041" width="19.3409" height="32.7955" rx="9.67045" fill="black" fill-opacity="0.08"/>
<rect x="31.3859" y="1.68182" width="15.9773" height="29.4318" rx="7.98864" stroke="black" stroke-opacity="0.1" stroke-width="3.36364"/>
<rect x="75.9541" width="19.3409" height="32.7955" rx="9.67045" fill="#56B07A"/>
<rect x="75.9541" width="19.3409" height="32.7955" rx="9.67045" fill="black" fill-opacity="0.08"/>
<rect x="77.6359" y="1.68182" width="15.9773" height="29.4318" rx="7.98864" stroke="black" stroke-opacity="0.1" stroke-width="3.36364"/>
<rect x="122.204" width="19.3409" height="32.7955" rx="9.67045" fill="#56B07A"/>
<rect x="122.204" width="19.3409" height="32.7955" rx="9.67045" fill="black" fill-opacity="0.08"/>
<rect x="123.886" y="1.68182" width="15.9773" height="29.4318" rx="7.98864" stroke="black" stroke-opacity="0.1" stroke-width="3.36364"/>
<rect x="168.454" width="19.3409" height="32.7955" rx="9.67045" fill="#56B07A"/>
<rect x="168.454" width="19.3409" height="32.7955" rx="9.67045" fill="black" fill-opacity="0.08"/>
<rect x="170.136" y="1.68182" width="15.9773" height="29.4318" rx="7.98864" stroke="black" stroke-opacity="0.1" stroke-width="3.36364"/>
<rect x="214.704" width="19.3409" height="32.7955" rx="9.67045" fill="#56B07A"/>
<rect x="214.704" width="19.3409" height="32.7955" rx="9.67045" fill="black" fill-opacity="0.08"/>
<rect x="216.386" y="1.68182" width="15.9773" height="29.4318" rx="7.98864" stroke="black" stroke-opacity="0.1" stroke-width="3.36364"/>
<rect x="260.954" width="19.3409" height="32.7955" rx="9.67045" fill="#56B07A"/>
<rect x="260.954" width="19.3409" height="32.7955" rx="9.67045" fill="black" fill-opacity="0.08"/>
<rect x="262.636" y="1.68182" width="15.9773" height="29.4318" rx="7.98864" stroke="black" stroke-opacity="0.1" stroke-width="3.36364"/>
<defs>
<filter id="filter0_d_916_1830" x="0.272727" y="10.9315" width="308.458" height="225.364" filterUnits="userSpaceOnUse" color-interpolation-filters="sRGB">
<feFlood flood-opacity="0" result="BackgroundImageFix"/>
<feColorMatrix in="SourceAlpha" type="matrix" values="0 0 0 0 0 0 0 0 0 0 0 0 0 0 0 0 0 0 127 0" result="hardAlpha"/>
<feOffset dy="5.04545"/>
<feGaussianBlur stdDeviation="3.36364"/>
<feComposite in2="hardAlpha" operator="out"/>
<feColorMatrix type="matrix" values="0 0 0 0 0 0 0 0 0 0 0 0 0 0 0 0 0 0 0.15 0"/>
<feBlend mode="normal" in2="BackgroundImageFix" result="effect1_dropShadow_916_1830"/>
<feBlend mode="normal" in="SourceGraphic" in2="effect1_dropShadow_916_1830" result="shape"/>
</filter>
</defs>
</svg>
