<svg width="296" height="137" viewBox="0 0 296 137" fill="none" xmlns="http://www.w3.org/2000/svg">
<path d="M6.81843 136.555C5.39235 136.555 4.23366 136.128 3.34237 135.274C2.45107 134.42 2.00542 133.193 2.00542 131.592C2.00542 130.418 2.5402 129.191 3.60976 127.91C4.67931 126.629 5.88257 125.669 7.21951 125.028C8.55646 123.001 9.75971 119.852 10.8293 115.583C11.988 111.314 12.5673 106.938 12.5673 102.456L12.701 94.6117C12.7901 92.3705 12.8347 89.8091 12.8347 86.9275L12.701 80.3639L12.0325 64.1951C11.4086 43.0635 10.4282 24.44 9.09124 8.32455C8.82385 8.538 8.2445 8.69809 7.35321 8.80482C5.92713 9.33844 4.59018 9.60525 3.34237 9.60525C2.45107 9.60525 1.6489 9.23171 0.935863 8.48464C0.311954 7.63083 0 6.67031 0 5.60306C0 1.86769 5.30322 0 15.9097 0H17.6477C18.8955 0 19.8759 0.106724 20.589 0.320171C21.302 0.426895 21.9705 0.800434 22.5944 1.44079C23.3074 2.08114 23.664 3.04166 23.664 4.32237C23.664 7.09721 21.7922 8.48464 18.0488 8.48464C18.0488 8.48464 18.0042 8.48464 17.9151 8.48464C17.9151 8.48464 17.9151 8.43127 17.9151 8.32455H15.9097V9.60525C15.9097 12.3801 16.1771 16.489 16.7118 21.932C17.1575 28.122 17.3803 32.2843 17.3803 34.4188C17.3803 41.9963 17.826 52.3486 18.7173 65.4758C19.4303 77.8559 19.7868 88.2616 19.7868 96.6929V109.5C19.7868 115.903 18.6281 121.56 16.3108 126.469C14.0825 131.485 10.9184 134.847 6.81843 136.555Z" fill="#A11275"/>
<path d="M67.5931 122.787C65.5431 122.787 64.0279 122.414 63.0475 121.667C62.0671 120.919 61.5768 119.532 61.5768 117.504C61.5768 114.303 61.1312 108.86 60.2399 101.175L59.7051 97.8135L46.4693 95.4122C45.9346 97.8669 45.177 102.83 44.1965 110.3C43.6618 115.53 42.815 118.998 41.6563 120.706C41.0324 121.667 40.1411 122.147 38.9824 122.147C37.9129 122.147 36.9325 121.773 36.0412 121.026C35.1499 120.172 34.7042 119.158 34.7042 117.985L34.9716 117.184L35.1053 116.544C40.9879 89.1154 45.4444 62.0606 48.4748 35.3793C48.4748 34.9524 48.5193 34.2587 48.6085 33.2982C48.6976 32.231 48.7867 30.7368 48.8758 28.8158C49.1432 24.8669 49.4106 21.7185 49.678 19.3706C50.0345 17.0226 50.5693 15.2617 51.2824 14.0877H55.828C57.0758 14.0877 58.1453 14.4612 59.0366 15.2083C59.9279 15.8487 60.3736 16.8092 60.3736 18.0899C60.3736 26.201 61.3095 38.2609 63.1812 54.2697C64.9638 70.7053 65.8551 82.2316 65.8551 88.8486C65.8551 89.4889 66.0779 91.1432 66.5235 93.8113C66.9692 96.266 67.192 97.8669 67.192 98.6139C67.192 99.361 67.6377 102.563 68.529 108.219C69.3311 113.342 69.7322 116.65 69.7322 118.145V118.305C69.7322 120.653 69.0192 122.147 67.5931 122.787ZM58.7693 92.0503C58.5019 90.4495 58.3682 88.475 58.3682 86.1271C58.3682 76.5218 57.6551 64.2485 56.2291 49.307L54.8921 32.6579C51.0595 57.7382 48.4302 76.6819 47.0041 89.4889C48.3411 90.5562 52.2628 91.41 58.7693 92.0503Z" fill="#A11275"/>
<path d="M117.706 121.827C116.636 121.827 115.834 121.506 115.299 120.866C114.764 120.119 114.363 118.892 114.096 117.184L113.294 114.142V113.342C113.294 109.82 110.219 97.8135 104.069 77.3223C98.0079 56.8311 93.2395 41.6761 89.7634 31.8574V112.381L90.2982 113.502C90.3873 113.716 90.5656 114.089 90.833 114.623C91.1004 115.156 91.2341 115.69 91.2341 116.224C91.2341 117.611 90.833 118.785 90.0308 119.745C89.2287 120.706 88.2482 121.186 87.0895 121.186C84.2374 121.186 82.8113 117.931 82.8113 111.421L82.6776 84.046C82.5885 75.8281 82.5439 66.6498 82.5439 56.5109C82.5439 53.0957 82.6776 48.133 82.945 41.6228C83.2124 34.8991 83.3461 29.9364 83.3461 26.7346C83.3461 21.7185 84.9504 17.7697 88.1591 14.8881V15.8487C88.6939 15.6352 89.0504 15.5285 89.2287 15.5285C91.2786 15.5285 93.8634 19.7975 96.983 28.3355C99.4786 35.1659 101.707 42.3698 103.668 49.9473C105.718 57.5248 108.392 68.304 111.689 82.285L113.026 88.0481C115.076 96.6929 116.636 102.883 117.706 106.618C119.488 83.6724 120.38 56.5643 120.38 25.2938V23.2127C120.29 22.5723 120.246 21.8786 120.246 21.1316C120.246 17.9298 121.315 16.3289 123.454 16.3289C124.702 16.3289 125.638 16.9159 126.262 18.0899C126.975 19.2639 127.332 20.758 127.332 22.5723V34.5789C127.153 51.0146 126.619 68.8376 125.727 88.0481C124.836 107.259 123.766 118.091 122.519 120.546C119.934 121.4 118.33 121.827 117.706 121.827Z" fill="#A11275"/>
<path d="M159.487 123.748C157.348 123.748 155.432 123.161 153.738 121.987C152.045 120.919 150.663 119.319 149.594 117.184C147.455 112.702 146.073 107.632 145.449 101.976C144.825 97.0664 144.513 91.1965 144.513 84.3661C144.246 72.8398 144.112 58.7521 144.112 42.103L143.979 29.7763C143.89 29.1359 143.845 28.0687 143.845 26.5745C143.667 22.519 143.578 20.0643 143.578 19.2105C144.38 16.9693 145.316 15.8487 146.385 15.8487C147.455 15.8487 148.391 16.8092 149.193 18.7302C150.084 20.6513 150.53 22.7324 150.53 24.9736V68.5175C150.53 72.7865 150.842 78.4429 151.466 85.4867C152.09 94.2382 152.401 99.8946 152.401 102.456C152.401 110.354 155.209 114.303 160.824 114.303C167.242 114.303 170.45 85.5935 170.45 28.1754V17.7697C170.361 17.4495 170.317 17.0226 170.317 16.489C170.317 15.2083 170.539 14.3011 170.985 13.7675C171.52 13.1272 172.5 12.807 173.926 12.807C175.085 12.807 175.976 13.2339 176.6 14.0877C177.313 14.8348 177.759 15.7419 177.937 16.8092C178.026 17.4495 178.071 18.6769 178.071 20.4912C178.071 22.1988 177.937 24.9203 177.67 28.6557C177.313 31.7507 177.135 34.4188 177.135 36.66C177.135 39.1147 177.046 41.3026 176.868 43.2236L176.6 49.9473V51.228C176.689 51.6549 176.734 52.1352 176.734 52.6688C176.734 100.055 170.985 123.748 159.487 123.748Z" fill="#A11275"/>
<path d="M219.827 122.787C217.777 122.787 216.262 122.414 215.282 121.667C214.301 120.919 213.811 119.532 213.811 117.504C213.811 114.303 213.366 108.86 212.474 101.175L211.939 97.8135L198.704 95.4122C198.169 97.8669 197.411 102.83 196.431 110.3C195.896 115.53 195.049 118.998 193.891 120.706C193.267 121.667 192.375 122.147 191.217 122.147C190.147 122.147 189.167 121.773 188.276 121.026C187.384 120.172 186.939 119.158 186.939 117.985L187.206 117.184L187.34 116.544C193.222 89.1154 197.679 62.0606 200.709 35.3793C200.709 34.9524 200.754 34.2587 200.843 33.2982C200.932 32.231 201.021 30.7368 201.11 28.8158C201.378 24.8669 201.645 21.7185 201.912 19.3706C202.269 17.0226 202.804 15.2617 203.517 14.0877H208.062C209.31 14.0877 210.38 14.4612 211.271 15.2083C212.162 15.8487 212.608 16.8092 212.608 18.0899C212.608 26.201 213.544 38.2609 215.416 54.2697C217.198 70.7053 218.089 82.2316 218.089 88.8486C218.089 89.4889 218.312 91.1432 218.758 93.8113C219.204 96.266 219.426 97.8669 219.426 98.6139C219.426 99.361 219.872 102.563 220.763 108.219C221.565 113.342 221.967 116.65 221.967 118.145V118.305C221.967 120.653 221.254 122.147 219.827 122.787ZM211.004 92.0503C210.736 90.4495 210.603 88.475 210.603 86.1271C210.603 76.5218 209.889 64.2485 208.463 49.307L207.126 32.6579C203.294 57.7382 200.665 76.6819 199.238 89.4889C200.575 90.5562 204.497 91.41 211.004 92.0503Z" fill="#A11275"/>
<path d="M256.838 124.068C254.877 124.068 253.094 121.506 251.49 116.384C249.618 110.834 248.237 105.124 247.346 99.2543L246.41 93.8113C243.825 78.5496 242.176 69.8515 241.463 67.717H239.859C239.859 70.8121 239.814 73.6403 239.725 76.2017V85.0065C239.725 99.3076 240.572 110.46 242.265 118.465L240.795 122.787H237.051L235.313 120.386L235.447 109.66C235.447 100.055 235.046 85.4867 234.244 65.9561C233.53 45.1447 233.174 30.5767 233.174 22.2522C233.174 17.1294 234.645 14.568 237.586 14.568C242.399 14.568 246.321 16.0621 249.351 19.0504C252.471 22.0387 254.03 26.201 254.03 31.5372V42.7434C254.03 44.3442 253.807 46.2119 253.362 48.3464C252.916 50.3742 252.426 52.0284 251.891 53.3091L249.351 59.0723L247.212 63.8749L247.88 67.717L249.752 79.0832C251 87.3011 252.203 93.9714 253.362 99.0942C254.521 104.217 255.947 108.86 257.64 113.022L258.442 114.943C259.334 117.077 259.779 118.785 259.779 120.066C259.779 121.133 259.512 122.04 258.977 122.787C258.442 123.641 257.729 124.068 256.838 124.068ZM240.393 59.8727C242.354 58.6988 244.003 55.497 245.34 50.2675C246.766 44.9312 247.479 40.0219 247.479 35.5394C247.479 32.1242 247.123 28.9225 246.41 25.9342C245.964 24.2266 245.206 22.9459 244.137 22.0921C243.156 21.1316 241.909 20.6513 240.393 20.6513L240.126 21.4517L239.859 22.8925L240.126 41.7828C240.304 47.3325 240.393 53.3625 240.393 59.8727Z" fill="#A11275"/>
<path d="M283.834 123.588C282.319 123.588 281.071 122.414 280.09 120.066C281.071 117.824 281.561 108.753 281.561 92.8508C281.561 89.1154 281.338 85.0598 280.893 80.6841L280.491 76.0416C280.224 73.16 280.09 70.9721 280.09 69.478V65.3157C279.199 62.6476 277.55 57.6849 275.144 50.4276C272.826 43.1703 270.955 37.0869 269.528 32.1776C267.835 26.5212 266.988 22.6791 266.988 20.6513V19.8509L270.063 17.1294C271.578 17.3428 273.183 19.6908 274.876 24.1732C276.302 28.122 277.862 33.7785 279.556 41.1425C281.338 48.5065 282.229 52.402 282.229 52.8289C282.586 51.6549 283.299 47.6527 284.369 40.8223C285.438 33.9919 286.641 27.962 287.978 22.7324C289.494 17.5029 291.053 14.8881 292.658 14.8881C293.549 14.8881 294.307 15.2083 294.93 15.8487C295.643 16.489 296 17.2894 296 18.25C296 23.6929 294.752 31.3772 292.257 41.3026C289.583 52.0818 288.246 59.8727 288.246 64.6754V112.862C288.246 120.012 286.775 123.588 283.834 123.588Z" fill="#A11275"/>
</svg>
