<svg width="888" height="411" viewBox="0 0 888 411" fill="none" xmlns="http://www.w3.org/2000/svg">
<path d="M20.4553 409.665C16.177 409.665 12.701 408.384 10.0271 405.822C7.35321 403.26 6.01626 399.579 6.01626 394.776C6.01626 391.254 7.6206 387.573 10.8293 383.73C14.0379 379.887 17.6477 377.007 21.6585 375.084C25.6694 369.003 29.2791 359.556 32.4879 346.749C35.964 333.942 37.7019 320.814 37.7019 307.368L38.103 283.835C38.3703 277.112 38.5041 269.427 38.5041 260.783L38.103 241.092L36.0975 192.585C34.2258 129.19 31.2846 73.32 27.2737 24.9736C26.4715 25.614 24.7335 26.0943 22.0596 26.4145C17.7814 28.0153 13.7705 28.8158 10.0271 28.8158C7.35321 28.8158 4.9467 27.6951 2.80759 25.4539C0.935862 22.8925 0 20.0109 0 16.8092C0 5.60307 15.9097 0 47.7291 0H52.9431C56.6865 0 59.6277 0.320172 61.767 0.960513C63.906 1.28068 65.9115 2.4013 67.7832 4.32237C69.9222 6.24342 70.992 9.12498 70.992 12.9671C70.992 21.2916 65.3766 25.4539 54.1464 25.4539C54.1464 25.4539 54.0126 25.4539 53.7453 25.4539C53.7453 25.4539 53.7453 25.2938 53.7453 24.9736H47.7291V28.8158C47.7291 37.1403 48.5313 49.467 50.1354 65.796C51.4725 84.366 52.1409 96.8529 52.1409 103.256C52.1409 125.989 53.478 157.046 56.1519 196.427C58.2909 233.568 59.3604 264.785 59.3604 290.079V328.5C59.3604 347.709 55.8843 364.68 48.9324 379.407C42.2475 394.455 32.7552 404.541 20.4553 409.665Z" fill="#A11275"/>
<path d="M202.779 368.361C196.629 368.361 192.084 367.242 189.143 365.001C186.201 362.757 184.731 358.596 184.731 352.512C184.731 342.909 183.394 326.58 180.72 303.525L179.115 293.44L139.408 286.236C137.804 293.6 135.531 308.49 132.59 330.9C130.986 346.59 128.445 356.994 124.969 362.118C123.097 365.001 120.423 366.441 116.947 366.441C113.739 366.441 110.798 365.319 108.124 363.078C105.45 360.516 104.113 357.474 104.113 353.955L104.915 351.552L105.316 349.632C122.964 267.346 136.333 186.181 145.425 106.137C145.425 104.857 145.558 102.776 145.826 99.8942C146.093 96.6926 146.36 92.21 146.628 86.447C147.43 74.6003 148.232 65.1551 149.034 58.1114C150.104 51.0674 151.708 45.7847 153.847 42.2627H167.484C171.228 42.2627 174.436 43.3832 177.11 45.6245C179.784 47.5457 181.121 50.4272 181.121 54.2693C181.121 78.6026 183.929 114.782 189.544 162.809C194.892 212.115 197.565 246.694 197.565 266.545C197.565 268.466 198.234 273.429 199.571 281.434C200.908 288.798 201.576 293.6 201.576 295.841C201.576 298.083 202.913 307.689 205.587 324.657C207.993 340.026 209.197 349.95 209.197 354.435V354.915C209.197 361.959 207.058 366.441 202.779 368.361ZM176.308 276.15C175.506 271.348 175.105 265.425 175.105 258.381C175.105 229.565 172.965 192.745 168.687 147.921L164.676 97.9733C153.179 173.214 145.291 230.045 141.012 268.466C145.023 271.668 156.789 274.23 176.308 276.15Z" fill="#A11275"/>
<path d="M353.118 365.48C349.908 365.48 347.502 364.517 345.897 362.597C344.292 360.356 343.089 356.675 342.288 351.551L339.882 342.425V340.025C339.882 329.459 330.657 293.439 312.207 231.966C294.024 170.492 279.719 125.027 269.29 95.571V337.142L270.895 340.505C271.162 341.147 271.697 342.266 272.499 343.868C273.301 345.467 273.702 347.069 273.702 348.671C273.702 352.832 272.499 356.354 270.093 359.234C267.686 362.117 264.745 363.557 261.269 363.557C252.712 363.557 248.434 353.792 248.434 334.262L248.033 252.137C247.766 227.483 247.632 199.948 247.632 169.531C247.632 159.286 248.033 144.398 248.835 124.867C249.637 104.696 250.038 89.808 250.038 80.2026C250.038 65.1543 254.851 53.3079 264.477 44.6631V47.5449C266.082 46.9044 267.151 46.5843 267.686 46.5843C273.836 46.5843 281.59 59.3913 290.949 85.0053C298.436 105.496 305.121 127.108 311.004 149.841C317.154 172.573 325.176 204.911 335.067 246.854L339.078 264.143C345.228 290.077 349.908 308.648 353.118 319.853C358.464 251.016 361.14 169.692 361.14 75.8802V69.6369C360.87 67.7157 360.738 65.6346 360.738 63.3936C360.738 53.7882 363.945 48.9855 370.362 48.9855C374.106 48.9855 376.914 50.7465 378.786 54.2685C380.925 57.7905 381.996 62.2728 381.996 67.7157V103.735C381.459 153.043 379.857 206.512 377.181 264.143C374.508 321.776 371.298 354.272 367.557 361.637C359.802 364.199 354.99 365.48 353.118 365.48Z" fill="#A11275"/>
<path d="M478.461 371.243C472.044 371.243 466.296 369.482 461.214 365.96C456.135 362.756 451.989 357.956 448.782 351.551C442.365 338.105 438.219 322.895 436.347 305.927C434.475 291.198 433.539 273.588 433.539 253.097C432.738 218.518 432.336 176.255 432.336 126.308L431.937 89.3278C431.67 87.4066 431.535 84.205 431.535 79.7224C431.001 67.5559 430.734 60.1918 430.734 57.6304C433.14 50.9068 435.948 47.545 439.155 47.545C442.365 47.545 445.173 50.4265 447.579 56.1895C450.252 61.9528 451.59 68.1961 451.59 74.9197V205.551C451.59 218.358 452.526 235.328 454.398 256.459C456.27 282.714 457.203 299.683 457.203 307.367C457.203 331.061 465.627 342.908 482.472 342.908C501.726 342.908 511.35 256.779 511.35 84.5251V53.308C511.083 52.3474 510.951 51.0667 510.951 49.4659C510.951 45.6238 511.617 42.9022 512.955 41.3014C514.56 39.3805 517.5 38.4199 521.778 38.4199C525.255 38.4199 527.928 39.7006 529.8 42.262C531.939 44.5033 533.277 47.2246 533.811 50.4265C534.078 52.3474 534.213 56.0296 534.213 61.4725C534.213 66.5953 533.811 74.7598 533.01 85.966C531.939 95.251 531.405 103.255 531.405 109.979C531.405 117.343 531.138 123.907 530.604 129.67L529.8 149.841V153.683C530.067 154.964 530.202 156.405 530.202 158.005C530.202 300.164 512.955 371.243 478.461 371.243Z" fill="#A11275"/>
<path d="M659.481 368.361C653.331 368.361 648.786 367.242 645.846 365.001C642.903 362.757 641.433 358.596 641.433 352.512C641.433 342.909 640.098 326.58 637.422 303.525L635.817 293.44L596.112 286.236C594.507 293.6 592.233 308.49 589.293 330.9C587.688 346.59 585.147 356.994 581.673 362.118C579.801 365.001 577.125 366.441 573.651 366.441C570.441 366.441 567.501 365.319 564.828 363.078C562.152 360.516 560.817 357.474 560.817 353.955L561.618 351.552L562.02 349.632C579.666 267.346 593.037 186.181 602.127 106.137C602.127 104.857 602.262 102.776 602.529 99.8942C602.796 96.6926 603.063 92.21 603.33 86.447C604.134 74.6003 604.935 65.1551 605.736 58.1114C606.807 51.0674 608.412 45.7847 610.551 42.2627H624.186C627.93 42.2627 631.14 43.3832 633.813 45.6245C636.486 47.5457 637.824 50.4272 637.824 54.2693C637.824 78.6026 640.632 114.782 646.248 162.809C651.594 212.115 654.267 246.694 654.267 266.545C654.267 268.466 654.936 273.429 656.274 281.434C657.612 288.798 658.278 293.6 658.278 295.841C658.278 298.083 659.616 307.689 662.289 324.657C664.695 340.026 665.901 349.95 665.901 354.435V354.915C665.901 361.959 663.762 366.441 659.481 368.361ZM633.012 276.15C632.208 271.348 631.809 265.425 631.809 258.381C631.809 229.565 629.667 192.745 625.389 147.921L621.378 97.9733C609.882 173.214 601.995 230.045 597.714 268.466C601.725 271.668 613.491 274.23 633.012 276.15Z" fill="#A11275"/>
<path d="M770.514 372.205C764.631 372.205 759.282 364.519 754.47 349.153C748.854 332.503 744.71 315.373 742.037 297.764L739.23 281.435C731.475 235.65 726.527 209.556 724.388 203.152H719.576C719.576 212.437 719.442 220.922 719.175 228.606V255.021C719.175 297.924 721.715 331.381 726.794 355.396L722.384 368.362H711.152L705.939 361.159L706.341 328.981C706.341 300.166 705.138 256.461 702.732 197.869C700.59 135.435 699.521 91.7312 699.521 66.7577C699.521 51.3893 703.934 43.7051 712.757 43.7051C727.196 43.7051 738.962 48.1874 748.052 57.1523C757.412 66.1172 762.089 78.6041 762.089 94.6127V128.231C762.089 133.034 761.42 138.637 760.085 145.04C758.747 151.124 757.278 156.086 755.673 159.928L748.052 177.218L741.636 191.626L743.64 203.152L749.255 237.251C752.999 261.904 756.608 281.915 760.085 297.284C763.562 312.652 767.841 326.581 772.92 339.067L775.325 344.83C778.001 351.232 779.336 356.356 779.336 360.199C779.336 363.4 778.535 366.121 776.93 368.362C775.325 370.924 773.187 372.205 770.514 372.205ZM721.179 179.619C727.062 176.097 732.008 166.492 736.019 150.804C740.297 134.795 742.437 120.067 742.437 106.619C742.437 96.3737 741.369 86.7686 739.23 77.8037C737.892 72.6809 735.617 68.8388 732.41 66.2774C729.467 63.3959 725.727 61.955 721.179 61.955L720.378 64.3562L719.576 68.6786L720.378 125.349C720.912 141.999 721.179 160.089 721.179 179.619Z" fill="#A11275"/>
<path d="M851.501 370.763C846.956 370.763 843.212 367.241 840.269 360.197C843.212 353.471 844.682 326.258 844.682 278.551C844.682 267.345 844.013 255.178 842.678 242.051L841.472 228.124C840.671 219.479 840.269 212.915 840.269 208.433V195.946C837.596 187.942 832.649 173.053 825.431 151.282C818.477 129.51 812.864 111.259 808.583 96.5316C803.504 79.5624 800.963 68.0361 800.963 61.9527V59.5515L810.188 51.387C814.733 52.0272 819.548 59.0712 824.627 72.5184C828.905 84.3648 833.585 101.334 838.667 123.426C844.013 145.518 846.686 157.205 846.686 158.485C847.757 154.963 849.896 142.957 853.106 122.466C856.313 101.974 859.922 83.8848 863.933 68.196C868.481 52.5075 873.158 44.6631 877.973 44.6631C880.646 44.6631 882.92 45.6237 884.789 47.5449C886.928 49.4658 887.999 51.867 887.999 54.7488C887.999 71.0775 884.255 94.1304 876.77 123.907C868.748 156.244 864.737 179.617 864.737 194.025V338.585C864.737 360.035 860.324 370.763 851.501 370.763Z" fill="#A11275"/>
</svg>
