<svg width="296" height="137" viewBox="0 0 296 137" fill="none" xmlns="http://www.w3.org/2000/svg">
<path d="M13.1946 93.9066C21.7544 93.9066 28.1052 87.503 32.339 77.9604C35.6525 70.4267 38.7819 58.1218 38.7819 50.9648C38.7819 46.1935 38.0456 42.05 35.2843 41.0455C34.2719 40.6688 33.0754 40.7944 32.155 41.6733C31.5107 42.3011 19.1772 56.7406 19.1772 56.7406C17.7046 58.2473 16.1399 59.3774 14.3911 60.1307C8.31646 62.642 2.70199 67.9155 0.677095 75.1981C-2.08412 85.6196 3.89851 93.9066 13.1946 93.9066ZM28.1972 58.2473C28.0131 58.2473 27.8291 58.1218 28.1052 57.7451C29.6699 55.6106 30.2221 55.1083 31.4186 53.476C32.6152 51.8437 32.4311 52.7226 32.247 54.4805C31.7868 59.2518 30.4982 58.2473 28.1972 58.2473ZM12.4583 85.3685C8.50054 85.6196 5.27912 82.355 6.56769 77.8348C7.76422 73.8169 11.3538 70.3012 15.3115 68.5433C18.533 67.0366 29.3017 65.781 29.3017 67.2877C29.3017 68.2922 27.737 72.1846 27.0927 73.5658C23.6872 81.225 18.9932 84.8663 12.4583 85.3685Z" fill="#B83A48"/>
<path d="M51.4073 93.53C56.7456 93.53 65.6735 84.9918 66.1338 78.9649C66.1338 76.9559 65.4895 75.0725 63.4646 75.0725C59.967 75.1981 55.8252 85.3685 51.6834 85.2429C48.8301 85.2429 47.3575 80.7227 47.7256 75.4492C47.8177 74.1936 48.1858 73.6913 49.0142 73.3146C54.1685 70.929 58.6785 67.0366 63.0044 59.6285C64.385 57.2428 65.3974 54.6061 65.8576 51.8437C67.0542 45.189 63.5566 39.5388 58.5864 39.7899C49.3824 40.4177 41.2828 63.1442 41.5589 79.3416C41.743 86.4986 45.6087 93.53 51.4073 93.53ZM50.4869 63.5209C50.3028 63.6465 49.9346 63.772 50.1187 63.1442C52.0515 57.8707 53.6162 53.7271 55.9173 50.5881C57.666 48.2025 59.783 47.4491 59.783 49.5836C59.783 53.6016 54.7207 60.633 50.4869 63.5209Z" fill="#B83A48"/>
<path d="M61.9006 136.849C65.3061 137.853 69.0798 127.306 70.9206 119.396C71.933 115.001 74.5102 103.826 75.6146 99.4313C76.8112 94.4089 77.0873 93.1533 77.5475 91.3954C77.8236 90.2654 78.0077 90.6421 78.3759 91.0187C81.9654 94.9111 85.9232 93.6555 88.3162 92.5255C96.5079 88.5075 102.214 76.5792 104.331 64.6509C106.08 54.4805 102.306 44.5612 95.4034 45.5657C90.8934 46.1935 88.0401 48.7047 87.4879 49.2069C87.1197 49.4581 87.2118 48.9558 87.2118 48.5791C87.2118 47.3235 86.0152 45.3146 84.3585 44.9379C82.5177 44.4356 81.4132 46.0679 80.5848 49.5836C79.7565 52.8482 79.0201 55.6106 78.4679 58.1218C77.9157 60.633 76.9953 62.7675 75.7987 64.6509C73.1296 68.7945 70.7365 73.4402 68.2514 78.8393C63.6494 88.8842 59.0473 104.956 57.2986 114.499C55.2737 125.799 56.5623 135.342 61.9006 136.849ZM85.1869 84.8663C82.7938 85.7452 79.3883 83.3595 79.6644 81.0994C80.0326 78.8393 81.4132 73.6913 81.8734 70.6779C82.3336 67.6644 83.6222 65.0276 85.7391 62.3908C88.6844 58.8751 93.6546 53.8527 96.5999 53.8527C98.9929 53.8527 98.8089 58.8751 98.1646 62.7675C96.784 71.9335 90.8013 82.8573 85.1869 84.8663ZM63.0051 123.162C61.0722 123.162 70.5524 87.8797 71.933 89.2609C72.3932 89.6376 64.8459 123.162 63.0051 123.162Z" fill="#B83A48"/>
<path d="M112.733 99.5569C115.126 99.5569 117.058 96.1667 115.218 93.0277C113.745 90.3909 113.561 87.3775 113.653 84.364C113.837 79.5927 114.297 74.4447 114.665 68.2922C114.757 66.7855 115.31 65.9066 116.138 65.1532C118.991 62.642 121.476 59.7541 123.501 57.1173C128.195 50.9648 131.785 44.4356 134.546 37.4042C135.19 35.7719 136.111 35.1441 137.491 35.1441C139.884 35.1441 142.278 35.0186 144.579 35.0186C148.26 35.0186 150.193 34.1396 150.193 30.7495C150.193 26.4804 146.603 26.7315 142.922 26.7315H139.148C138.32 26.7315 138.32 26.3548 138.412 25.6015C139.608 18.0678 140.069 16.4355 138.964 12.6687C137.768 8.39963 134.914 6.51622 131.693 8.02295C127.367 10.0319 122.673 18.0678 119.267 25.4759C118.899 26.3548 118.439 26.8571 117.703 26.8571H104.357C101.504 26.8571 99.2946 28.1127 99.4787 31.3773C99.6628 34.2652 101.596 35.3952 103.805 35.3952H113.377C115.678 35.3952 115.31 35.2697 114.573 37.9065C111.812 47.198 109.695 56.8662 108.591 67.6644C107.486 78.4627 106.75 88.382 109.051 95.7901C109.603 97.5479 110.708 99.5569 112.733 99.5569ZM126.815 26.7315C126.355 26.7315 126.262 26.606 126.447 26.1037C127.919 22.2113 130.036 19.0723 132.429 16.9378C132.705 16.6867 133.258 16.4355 133.258 17.5656C133.258 20.3279 132.521 22.8391 131.785 25.727C131.601 26.4804 131.233 26.7315 130.772 26.7315H126.815ZM117.058 53.6016C117.519 50.9648 120.372 40.6688 121.384 37.9065C122.029 36.023 122.765 35.2697 123.869 35.2697C126.723 35.1441 128.84 35.2697 127.459 37.5298C125.434 40.9199 122.029 48.8303 117.058 53.6016Z" fill="#B83A48"/>
<path d="M137.174 93.53C142.512 93.53 151.44 84.9918 151.9 78.9649C151.9 76.9559 151.256 75.0725 149.231 75.0725C145.734 75.1981 141.592 85.3685 137.45 85.2429C134.597 85.2429 133.124 80.7227 133.492 75.4492C133.584 74.1936 133.953 73.6913 134.781 73.3146C139.935 70.929 144.445 67.0366 148.771 59.6285C150.152 57.2428 151.164 54.6061 151.624 51.8437C152.821 45.189 149.323 39.5388 144.353 39.7899C135.149 40.4177 127.049 63.1442 127.326 79.3416C127.51 86.4986 131.375 93.53 137.174 93.53ZM136.254 63.5209C136.069 63.6465 135.701 63.772 135.885 63.1442C137.818 57.8707 139.383 53.7271 141.684 50.5881C143.433 48.2025 145.55 47.4491 145.55 49.5836C145.55 53.6016 140.487 60.633 136.254 63.5209Z" fill="#B83A48"/>
<path d="M158.025 93.9066C160.326 93.9066 161.062 91.1443 163.731 83.7362C168.425 71.4312 170.266 65.4043 176.709 56.615C178.09 54.7316 179.286 53.2249 180.575 52.346C182.047 51.3415 179.01 65.9066 175.973 82.2295C175.236 85.9963 175.052 88.8842 177.445 90.2654C178.274 90.7676 180.022 91.1443 181.403 88.0053C183.428 82.4806 190.607 66.5344 193.184 62.2653C194.841 59.3774 199.627 52.5971 200.271 52.5971C200.824 52.7227 199.903 55.7361 198.707 60.633C197.142 67.5388 195.301 76.7048 194.381 83.234C193.829 87.7542 195.209 92.0232 198.062 91.521C199.627 91.2699 200.455 89.512 200.363 87.1264C200.271 84.7407 200.64 82.6062 201.1 80.0949C202.204 73.9425 204.045 65.781 206.346 55.6106C207.543 50.7137 207.911 44.5612 205.426 42.1755C201.376 38.2831 192.356 49.8347 188.398 56.9917L186.465 60.2563C186.741 57.9962 187.018 55.6106 187.202 53.3505C187.754 47.5747 187.386 45.0634 184.901 43.3056C182.139 41.2966 179.654 43.18 176.801 45.5657C174.132 47.7002 171.647 50.9648 169.254 55.2339L166.677 59.7541L167.965 54.6061C169.254 49.4581 169.622 48.2025 169.806 46.5702C169.99 44.6868 169.162 42.8033 167.873 42.1755C166.585 41.5477 165.112 42.1755 164.284 43.9334C163.547 45.3146 162.443 50.5881 161.338 54.8572C158.485 65.4043 157.012 73.8169 155.816 81.7272C154.895 88.0053 153.883 93.9066 158.025 93.9066Z" fill="#B83A48"/>
<path d="M208.737 95.1623C209.749 95.1623 211.038 94.0322 211.406 93.2788C211.774 92.5255 212.234 92.3999 213.063 92.7766C216.376 94.2833 219.598 93.2788 221.991 92.1488C231.839 87.6286 240.491 76.077 242.884 61.3864C244.541 50.8392 243.252 41.6733 236.073 41.6733C233.772 41.6733 231.103 43.4311 231.103 43.4311C231.103 43.4311 231.103 43.18 231.379 42.5522C231.839 41.4222 233.772 37.0275 234.784 34.0141C237.454 25.4759 240.399 12.6687 238.926 6.51622C237.73 1.61934 234.692 -0.766319 231.471 0.865972C226.777 3.37719 222.543 11.162 219.69 18.5701C213.707 34.2652 211.958 48.0769 208.645 69.6734C206.344 84.1129 203.951 95.1623 208.737 95.1623ZM217.757 51.8437C217.757 47.0724 222.727 28.7405 225.396 21.9602C227.145 17.44 231.471 9.40412 232.852 9.40412C233.772 9.40412 232.944 16.1844 231.931 20.9557C229.998 30.1217 222.267 47.4491 217.757 51.8437ZM218.953 84.6151C217.481 85.2429 214.812 85.3685 214.535 84.2385C213.707 81.4761 223.74 63.772 227.973 57.6195C230.09 54.6061 233.68 50.0859 236.073 50.0859C239.11 50.0859 236.349 65.1532 233.404 70.5523C229.63 77.4582 224.752 82.355 218.953 84.6151Z" fill="#B83A48"/>
<path d="M254.256 93.53C259.594 93.53 268.522 84.9918 268.983 78.9649C268.983 76.9559 268.338 75.0725 266.313 75.0725C262.816 75.1981 258.674 85.3685 254.532 85.2429C251.679 85.2429 250.206 80.7227 250.574 75.4492C250.666 74.1936 251.035 73.6913 251.863 73.3146C257.017 70.929 261.527 67.0366 265.853 59.6285C267.234 57.2428 268.246 54.6061 268.706 51.8437C269.903 45.189 266.405 39.5388 261.435 39.7899C252.231 40.4177 244.132 63.1442 244.408 79.3416C244.592 86.4986 248.457 93.53 254.256 93.53ZM253.336 63.5209C253.152 63.6465 252.783 63.772 252.967 63.1442C254.9 57.8707 256.465 53.7271 258.766 50.5881C260.515 48.2025 262.632 47.4491 262.632 49.5836C262.632 53.6016 257.569 60.633 253.336 63.5209Z" fill="#B83A48"/>
<path d="M285.968 104.83C287.716 104.83 289.373 102.57 288.729 99.4313C288.177 96.7945 288.545 94.2833 289.005 91.8977C291.03 81.3506 292.687 80.4716 294.988 71.1801C295.356 69.6734 296 67.79 296 65.781C296 61.5119 293.515 58.2473 290.386 59.0007C290.109 59.0007 287.808 59.7541 287.808 59.7541C287.808 59.6285 290.478 54.1038 291.122 49.5836C291.766 45.189 292.41 40.4177 289.465 37.6553C288.177 36.5253 286.704 36.2742 285.047 36.902C280.721 38.5343 275.935 47.4491 274.37 55.1083C273.266 60.2563 273.174 65.1532 275.659 68.5433C279.249 73.4402 282.47 71.4312 288.545 68.4178C288.913 68.1666 289.097 68.6689 289.005 69.1711C289.097 68.5433 284.403 83.6106 283.851 85.8707C282.562 91.2699 281.274 98.1757 283.022 102.194C283.759 103.826 284.771 104.83 285.968 104.83ZM280.169 58.7496C280.905 53.9783 281.826 51.0904 284.863 46.9468C285.231 46.4446 285.231 46.5702 285.139 47.198C284.219 52.4715 282.562 56.3639 280.169 58.7496Z" fill="#B83A48"/>
</svg>
