<svg width="888" height="411" viewBox="0 0 888 411" fill="none" xmlns="http://www.w3.org/2000/svg">
<path d="M39.5838 281.721C65.2632 281.721 84.3156 262.51 97.017 233.882C106.958 211.281 116.346 174.367 116.346 152.896C116.346 138.582 114.137 126.151 105.853 123.138C102.816 122.008 99.2262 122.384 96.465 125.021C94.5321 126.905 57.5316 170.223 57.5316 170.223C53.1138 174.743 48.4197 178.133 43.1733 180.393C24.9494 187.927 8.10597 203.748 2.03129 225.596C-6.25236 256.86 11.6955 281.721 39.5838 281.721ZM84.5916 174.743C84.0393 174.743 83.4873 174.367 84.3156 173.237C89.0097 166.833 90.6663 165.326 94.2558 160.429C97.8456 155.532 97.2933 158.169 96.741 163.443C95.3604 177.757 91.4946 174.743 84.5916 174.743ZM37.3749 256.107C25.5016 256.86 15.8374 247.066 19.7031 233.506C23.2927 221.452 34.0614 210.905 45.9345 205.631C55.599 201.111 87.9051 197.344 87.9051 201.864C87.9051 204.878 83.211 216.555 81.2781 220.699C71.0616 243.676 56.9796 254.6 37.3749 256.107Z" fill="#B83A48"/>
<path d="M154.223 280.592C170.237 280.592 197.021 254.978 198.402 236.897C198.402 230.87 196.469 225.22 190.394 225.22C179.902 225.596 167.476 256.108 155.051 255.731C146.491 255.731 142.073 242.17 143.177 226.35C143.454 222.583 144.558 221.076 147.043 219.946C162.506 212.789 176.036 201.112 189.014 178.888C193.156 171.731 196.193 163.82 197.573 155.533C201.163 135.569 190.67 118.619 175.76 119.372C148.148 121.255 123.849 189.435 124.677 238.027C125.23 259.498 136.827 280.592 154.223 280.592ZM151.461 190.565C150.909 190.942 149.804 191.318 150.357 189.435C156.155 173.614 160.849 161.183 167.753 151.766C172.999 144.61 179.35 142.349 179.35 148.753C179.35 160.807 164.163 181.901 151.461 190.565Z" fill="#B83A48"/>
<path d="M185.702 410.547C195.918 413.559 207.239 381.918 212.762 358.188C215.799 345.003 223.53 311.478 226.844 298.294C230.433 283.227 231.262 279.46 232.642 274.187C233.471 270.797 234.023 271.927 235.128 273.056C245.896 284.734 257.769 280.967 264.948 277.577C289.524 265.523 306.642 229.738 312.993 193.953C318.24 163.442 306.918 133.684 286.21 136.697C272.68 138.581 264.12 146.114 262.464 147.621C261.359 148.375 261.635 146.868 261.635 145.738C261.635 141.971 258.045 135.944 253.075 134.814C247.553 133.307 244.239 138.204 241.754 148.751C239.269 158.545 237.06 166.832 235.404 174.366C233.747 181.899 230.986 188.303 227.396 193.953C219.389 206.384 212.209 220.321 204.754 236.518C190.948 266.653 177.142 314.868 171.896 343.497C165.821 377.397 169.687 406.026 185.702 410.547ZM255.56 254.599C248.381 257.236 238.165 250.079 238.993 243.299C240.098 236.518 244.239 221.074 245.62 212.034C247.001 202.994 250.866 195.083 257.217 187.173C266.053 176.626 280.964 161.558 289.8 161.558C296.979 161.558 296.426 176.626 294.494 188.303C290.352 215.801 272.404 248.572 255.56 254.599ZM189.015 369.486C183.216 369.486 211.657 263.639 215.799 267.783C217.179 268.913 194.538 369.486 189.015 369.486Z" fill="#B83A48"/>
<path d="M338.198 298.671C345.377 298.671 351.173 288.5 345.653 279.083C341.234 271.173 340.682 262.133 340.958 253.092C341.51 238.778 342.89 223.334 343.994 204.877C344.27 200.357 345.929 197.72 348.413 195.46C356.972 187.926 364.427 179.262 370.502 171.352C384.584 152.894 395.354 133.307 403.637 112.213C405.569 107.316 408.332 105.432 412.472 105.432C419.651 105.432 426.833 105.056 433.736 105.056C444.779 105.056 450.578 102.419 450.578 92.2485C450.578 79.4412 439.808 80.1945 428.765 80.1945H417.443C414.959 80.1945 414.959 79.0644 415.235 76.8045C418.823 54.2034 420.206 49.3065 416.891 38.0061C413.303 25.1989 404.741 19.5487 395.078 24.0689C382.1 30.0957 368.018 54.2034 357.8 76.4277C356.696 79.0644 355.316 80.5713 353.108 80.5713H313.07C304.511 80.5713 297.883 84.3381 298.435 94.1319C298.988 102.796 304.787 106.186 311.414 106.186H340.13C347.033 106.186 345.929 105.809 343.718 113.72C335.435 141.594 329.084 170.599 325.772 202.993C322.457 235.388 320.249 265.146 327.152 287.37C328.808 292.644 332.123 298.671 338.198 298.671ZM380.444 80.1945C379.064 80.1945 378.785 79.818 379.34 78.3111C383.756 66.6339 390.107 57.2169 397.286 50.8134C398.114 50.0601 399.773 49.3065 399.773 52.6968C399.773 60.9837 397.562 68.5173 395.354 77.181C394.802 79.4412 393.698 80.1945 392.315 80.1945H380.444ZM351.173 160.805C352.556 152.894 361.115 122.006 364.151 113.72C366.086 108.069 368.294 105.809 371.606 105.809C380.168 105.432 386.519 105.809 382.376 112.589C376.301 122.76 366.086 146.491 351.173 160.805Z" fill="#B83A48"/>
<path d="M411.523 280.592C427.537 280.592 454.321 254.978 455.701 236.897C455.701 230.87 453.769 225.22 447.694 225.22C437.203 225.596 424.777 256.108 412.351 255.731C403.792 255.731 399.373 242.17 400.477 226.35C400.753 222.583 401.86 221.076 404.344 219.946C419.806 212.789 433.336 201.112 446.314 178.888C450.457 171.731 453.493 163.82 454.873 155.533C458.464 135.569 447.97 118.619 433.06 119.372C405.448 121.255 381.148 189.435 381.979 238.027C382.531 259.498 394.126 280.592 411.523 280.592ZM408.763 190.565C408.208 190.942 407.104 191.318 407.656 189.435C413.455 173.614 418.15 161.183 425.053 151.766C430.3 144.61 436.651 142.349 436.651 148.753C436.651 160.807 421.462 181.901 408.763 190.565Z" fill="#B83A48"/>
<path d="M474.075 281.721C480.978 281.721 483.186 273.434 491.193 251.209C505.275 214.294 510.798 196.214 530.127 169.846C534.27 164.196 537.858 159.676 541.725 157.039C546.141 154.025 537.03 197.721 527.919 246.689C525.708 257.99 525.156 266.653 532.335 270.797C534.822 272.304 540.066 273.434 544.209 264.017C550.284 247.443 571.821 199.604 579.552 186.797C584.523 178.133 598.881 157.792 600.813 157.792C602.472 158.169 599.709 167.209 596.121 181.9C591.426 202.617 585.903 230.115 583.143 249.703C581.487 263.263 585.627 276.07 594.186 274.564C598.881 273.811 601.365 268.537 601.089 261.38C600.813 254.223 601.92 247.819 603.3 240.286C606.612 221.828 612.135 197.344 619.038 166.833C622.629 152.142 623.733 133.684 616.278 126.527C604.128 114.85 577.068 149.505 565.194 170.976L559.395 180.77C560.223 173.989 561.054 166.833 561.606 160.052C563.262 142.725 562.158 135.191 554.703 129.918C546.417 123.891 538.962 129.541 530.403 136.698C522.396 143.101 514.941 152.895 507.762 165.703L500.031 179.263L503.895 163.819C507.762 148.375 508.866 144.608 509.418 139.711C509.97 134.061 507.486 128.411 503.619 126.527C499.755 124.644 495.336 126.527 492.852 131.801C490.641 135.945 487.329 151.765 484.014 164.572C475.455 196.214 471.036 221.452 467.448 245.182C464.685 264.017 461.649 281.721 474.075 281.721Z" fill="#B83A48"/>
<path d="M626.211 285.488C629.247 285.488 633.114 282.097 634.218 279.837C635.322 277.577 636.702 277.2 639.189 278.331C649.128 282.851 658.794 279.837 665.973 276.447C695.517 262.887 721.473 228.232 728.652 184.16C733.623 152.518 729.756 125.021 708.219 125.021C701.316 125.021 693.309 130.294 693.309 130.294C693.309 130.294 693.309 129.541 694.137 127.657C695.517 124.267 701.316 111.083 704.352 102.043C712.362 76.4284 721.197 38.0068 716.778 19.5494C713.19 4.85875 704.076 -2.29822 694.413 2.59865C680.331 10.1323 667.629 33.4867 659.07 55.711C641.121 102.796 635.874 144.231 625.935 209.021C619.032 252.339 611.853 285.488 626.211 285.488ZM653.271 155.532C653.271 141.218 668.181 86.2222 676.188 65.8813C681.435 52.3207 694.413 28.2131 698.556 28.2131C701.316 28.2131 698.832 48.5539 695.793 62.8678C689.994 90.3658 666.801 142.348 653.271 155.532ZM656.859 253.846C652.443 255.729 644.436 256.106 643.605 252.716C641.121 244.429 671.22 191.317 683.919 172.859C690.27 163.819 701.04 150.258 708.219 150.258C717.33 150.258 709.047 195.46 700.212 211.658C688.89 232.375 674.256 247.066 656.859 253.846Z" fill="#B83A48"/>
<path d="M762.769 280.592C778.783 280.592 805.567 254.978 806.95 236.897C806.95 230.87 805.015 225.22 798.94 225.22C788.449 225.596 776.023 256.108 763.597 255.731C755.038 255.731 750.619 242.17 751.723 226.35C751.999 222.583 753.106 221.076 755.59 219.946C771.052 212.789 784.582 201.112 797.56 178.888C801.703 171.731 804.739 163.82 806.119 155.533C809.71 135.569 799.216 118.619 784.306 119.372C756.694 121.255 732.397 189.435 733.225 238.027C733.777 259.498 745.372 280.592 762.769 280.592ZM760.009 190.565C759.457 190.942 758.35 191.318 758.902 189.435C764.701 173.614 769.396 161.183 776.299 151.766C781.546 144.61 787.897 142.349 787.897 148.753C787.897 160.807 772.708 181.901 760.009 190.565Z" fill="#B83A48"/>
<path d="M857.904 314.49C863.148 314.49 868.119 307.71 866.187 298.294C864.531 290.384 865.635 282.85 867.015 275.693C873.09 244.052 878.061 241.415 884.964 213.541C886.068 209.02 888 203.37 888 197.343C888 184.536 880.545 174.742 871.158 177.002C870.327 177.002 863.424 179.263 863.424 179.263C863.424 178.886 871.434 162.312 873.366 148.751C875.298 135.567 877.23 121.253 868.395 112.966C864.531 109.576 860.112 108.823 855.141 110.706C842.163 115.603 827.805 142.348 823.11 165.325C819.798 180.769 819.522 195.46 826.977 205.63C837.747 220.321 847.41 214.294 865.635 205.254C866.739 204.5 867.291 206.007 867.015 207.514C867.291 205.63 853.209 250.832 851.553 257.612C847.686 273.81 843.822 294.527 849.066 306.582C851.277 311.478 854.313 314.49 857.904 314.49ZM840.507 176.249C842.715 161.935 845.478 153.271 854.589 140.841C855.693 139.334 855.693 139.711 855.417 141.594C852.657 157.415 847.686 169.092 840.507 176.249Z" fill="#B83A48"/>
</svg>
