<svg width="336" height="137" viewBox="0 0 336 137" fill="none" xmlns="http://www.w3.org/2000/svg">
<path d="M5.69532 88.7577C12.0119 88.7577 19.8818 67.5099 20.1925 67.5099C20.6067 67.5099 17.7073 88.497 26.5091 88.497C31.8938 88.497 35.0003 82.24 38.7282 74.5491C42.2489 66.8582 49.2904 43.9158 49.2904 38.7016C49.2904 36.7463 48.3584 35.182 47.0122 34.791C45.3554 34.2695 43.8022 34.9213 43.0773 36.8766C42.1453 39.4837 38.3139 55.5173 37.4855 58.2548C34.4826 68.2921 28.8908 78.9811 27.6482 78.5901C26.1985 78.3294 27.1304 68.1617 27.9588 62.1654C28.6837 57.3423 31.4796 44.6979 31.8938 39.8748C32.308 35.4427 28.0624 32.3142 25.2665 36.3552C23.8168 38.4409 20.6067 45.8711 17.7073 54.0834C15.8433 59.1673 8.38765 77.0258 7.24858 77.0258C5.48821 77.0258 14.1865 41.9605 14.6007 40.0051C14.8078 38.3105 14.083 36.0945 12.6332 35.182C11.2871 34.3999 9.94092 34.791 8.80185 36.2249C5.48821 40.3962 0 69.3349 0 79.1115C0 84.065 2.17458 88.7577 5.69532 88.7577Z" fill="#5A8551"/>
<path d="M59.3858 88.7577C65.3918 88.7577 75.4362 79.8936 75.954 73.6366C75.954 71.5509 75.2291 69.5956 72.951 69.5956C69.0161 69.726 64.3563 80.2847 59.6965 80.1543C56.4864 80.1543 54.8296 75.4616 55.2438 69.9867C55.3473 68.6831 55.7615 68.1617 56.6935 67.7707C62.4923 65.2939 67.5664 61.2529 72.4333 53.562C73.9865 51.0853 75.1256 48.3478 75.6433 45.48C76.9895 38.5712 73.0546 32.7053 67.4628 32.966C57.1077 33.6178 47.9952 57.2119 48.3058 74.0277C48.5129 81.4579 52.8621 88.7577 59.3858 88.7577ZM58.3503 57.603C58.1432 57.7334 57.729 57.8637 57.9361 57.2119C60.1107 51.737 61.871 47.4353 64.4598 44.1765C66.4273 41.6997 68.809 40.9176 68.809 43.1336C68.809 47.305 63.1137 54.6048 58.3503 57.603Z" fill="#5A8551"/>
<path d="M104.176 88.497C106.765 88.497 107.904 85.8899 107.386 81.7186C106.868 77.1562 107.179 72.4634 107.386 68.5528C107.489 66.2064 108.111 64.2511 109.146 62.4261L114.531 52.9102C122.297 39.0927 127.889 27.1 131.203 12.761C132.135 8.58969 132.135 3.37551 129.442 1.15948C124.99 -2.36009 119.708 4.15763 115.981 10.2843C110.699 18.8877 109.56 24.6233 105.833 36.2249C105.211 37.9195 105.211 37.9195 103.865 37.6588C100.137 36.8766 96.6165 38.0498 93.4064 41.5694C85.433 50.1728 79.0128 67.6403 80.359 79.5026C80.9803 85.7596 85.5365 89.4095 90.6105 86.4114C93.51 84.5864 94.9597 82.8918 100.137 77.1562C100.655 82.5007 100.551 88.497 104.176 88.497ZM111.424 43.0033C114.427 30.8803 119.708 14.586 123.954 12.2396C123.954 14.8467 120.537 24.2322 117.845 29.9678C115.566 34.6606 112.46 41.048 111.839 42.2212L111.424 43.0033ZM87.504 78.199C86.6756 77.808 86.9862 73.8973 87.504 71.5509C88.8502 64.6421 91.1283 58.5155 94.2348 53.1709C95.6845 50.6942 97.5485 48.0871 100.137 46.6532C101.794 45.7407 102.83 48.2175 102.415 52.1281C101.794 57.603 101.898 60.7315 98.8946 64.9029C92.6816 73.8973 88.6431 78.9811 87.504 78.199Z" fill="#5A8551"/>
<path d="M119.502 87.4542C121.884 87.4542 122.712 84.9775 123.748 82.3704C127.372 73.2455 131.825 64.2511 138.659 54.4745C140.109 52.3888 141.662 50.5639 143.422 48.8692C146.425 45.8711 148.289 44.1765 147.461 47.6961C146.943 49.6514 146.322 51.737 145.701 53.562C142.905 61.7743 140.316 70.6385 138.245 79.6329C137.209 84.065 137.52 86.5417 140.316 87.1935C143.215 87.8453 144.147 85.6292 144.872 82.1097C146.115 75.8526 148.911 66.7278 153.363 52.9102C155.02 47.6961 156.47 40.6569 153.156 37.398C151.81 36.0945 149.946 35.7034 147.565 36.4856C141.559 38.5712 136.588 44.0461 131.928 50.9549L130.375 53.1709C130.789 51.4763 131.307 49.7817 131.825 48.0871C133.274 43.1336 133.482 42.4819 133.482 41.048C133.482 39.0927 132.55 37.6588 131.203 37.007C127.372 35.3124 125.715 42.8729 123.334 51.737C120.538 61.7743 117.845 70.7688 116.499 79.3722C115.774 83.6739 115.981 87.4542 119.502 87.4542Z" fill="#5A8551"/>
<path d="M167.184 88.7577C173.19 88.7577 183.235 79.8936 183.752 73.6366C183.752 71.5509 183.028 69.5956 180.749 69.5956C176.814 69.726 172.155 80.2847 167.495 80.1543C164.285 80.1543 162.628 75.4616 163.042 69.9867C163.146 68.6831 163.56 68.1617 164.492 67.7707C170.291 65.2939 175.365 61.2529 180.232 53.562C181.785 51.0853 182.924 48.3478 183.442 45.48C184.788 38.5712 180.853 32.7053 175.261 32.966C164.906 33.6178 155.794 57.2119 156.104 74.0277C156.311 81.4579 160.661 88.7577 167.184 88.7577ZM166.149 57.603C165.942 57.7334 165.527 57.8637 165.735 57.2119C167.909 51.737 169.669 47.4353 172.258 44.1765C174.226 41.6997 176.607 40.9176 176.607 43.1336C176.607 47.305 170.912 54.6048 166.149 57.603Z" fill="#5A8551"/>
<path d="M199.652 89.1488C209.282 89.1488 216.427 82.5007 221.19 72.5938C224.918 64.7725 228.439 51.9978 228.439 44.5675C228.439 39.6141 227.61 35.3124 224.504 34.2695C223.365 33.8785 222.019 34.0088 220.983 34.9213C220.258 35.5731 206.382 50.5639 206.382 50.5639C204.726 52.1281 202.965 53.3013 200.998 54.0834C194.163 56.6905 187.847 62.1654 185.569 69.726C182.462 80.5454 189.193 89.1488 199.652 89.1488ZM216.53 52.1281C216.323 52.1281 216.116 51.9978 216.427 51.6067C218.187 49.3907 218.809 48.8692 220.155 47.1746C221.501 45.48 221.294 46.3925 221.087 48.2175C220.569 53.1709 219.119 52.1281 216.53 52.1281ZM198.823 80.2847C194.37 80.5454 190.746 77.1562 192.196 72.4634C193.542 68.2921 197.581 64.6421 202.033 62.8172C205.658 61.2529 217.773 59.9494 217.773 61.5136C217.773 62.5565 216.013 66.5975 215.288 68.0314C211.456 75.983 206.175 79.7633 198.823 80.2847Z" fill="#5A8551"/>
<path d="M253.516 88.497C256.105 88.497 257.244 85.8899 256.726 81.7186C256.208 77.1562 256.519 72.4634 256.726 68.5528C256.83 66.2064 257.451 64.2511 258.486 62.4261L263.871 52.9102C271.637 39.0927 277.229 27.1 280.543 12.761C281.475 8.58969 281.475 3.37551 278.782 1.15948C274.33 -2.36009 269.049 4.15763 265.321 10.2843C260.04 18.8877 258.901 24.6233 255.173 36.2249C254.552 37.9195 254.552 37.9195 253.205 37.6588C249.478 36.8766 245.957 38.0498 242.747 41.5694C234.773 50.1728 228.353 67.6403 229.699 79.5026C230.321 85.7596 234.877 89.4095 239.951 86.4114C242.85 84.5864 244.3 82.8918 249.478 77.1562C249.995 82.5007 249.892 88.497 253.516 88.497ZM260.765 43.0033C263.768 30.8803 269.049 14.586 273.294 12.2396C273.294 14.8467 269.877 24.2322 267.185 29.9678C264.907 34.6606 261.8 41.048 261.179 42.2212L260.765 43.0033ZM236.844 78.199C236.016 77.808 236.327 73.8973 236.844 71.5509C238.19 64.6421 240.469 58.5155 243.575 53.1709C245.025 50.6942 246.889 48.0871 249.478 46.6532C251.134 45.7407 252.17 48.2175 251.756 52.1281C251.134 57.603 251.238 60.7315 248.235 64.9029C242.022 73.8973 237.983 78.9811 236.844 78.199Z" fill="#5A8551"/>
<path d="M293.28 90.0613C295.455 90.0613 296.698 88.497 296.076 83.1525C294.627 70.5081 296.076 61.9047 298.769 48.0871C299.804 43.0033 297.008 37.5284 292.245 36.6159C280.026 34.3999 268.946 55.1263 266.564 74.158C265.839 79.7633 267.289 86.6721 271.121 88.497C274.538 90.1916 277.748 87.0631 280.544 83.5436C283.961 79.2419 287.482 71.1599 288.828 69.0742L288.724 76.6348C288.724 79.6329 288.724 82.24 289.346 86.1506C289.76 89.2792 291.209 90.0613 293.28 90.0613ZM273.606 78.9811C273.088 78.9811 273.295 75.3312 273.606 73.6366C275.47 63.7297 278.576 55.2566 284.064 48.9996C286.239 46.5229 288.517 45.3497 291.002 45.3497C291.624 45.3497 292.141 46.0014 291.624 46.6532C287.275 52.1281 276.816 78.9811 273.606 78.9811Z" fill="#5A8551"/>
<path d="M305.667 136.728C309.498 136.728 313.123 133.991 315.297 129.95C321.096 119.261 323.478 109.354 333.315 59.1673C335.49 47.305 337.768 40.3962 333.936 37.7891C330.519 35.5731 326.999 42.6122 323.064 51.0853C321.925 53.4317 316.643 64.6421 314.883 67.7707C313.019 71.1599 311.673 73.767 309.602 76.3741C308.774 77.4169 309.188 73.767 309.291 72.8545C310.741 60.2101 313.64 52.3888 316.022 41.1783C316.54 38.8319 315.608 36.4856 313.951 35.7034C312.294 34.9213 310.637 36.0945 309.602 38.3105C309.188 39.0927 305.46 54.6049 304.321 59.819C302.25 69.4653 300.075 84.065 306.081 86.9328C309.498 88.497 312.501 85.4989 315.194 81.7186C317.265 78.9811 319.129 75.7223 321.303 71.2902C322.546 68.6831 323.892 66.3368 325.135 63.86C323.788 71.6813 320.682 87.5845 320.164 89.5399C319.957 90.4523 319.853 90.9738 319.232 91.2345C308.463 95.6665 296.14 114.177 298.004 128.255C298.625 132.818 301.318 136.728 305.667 136.728ZM304.735 124.866C304.839 118.739 309.913 106.877 316.747 102.575C318.922 101.141 312.708 118.479 310.327 123.693C308.566 127.473 304.735 130.08 304.735 124.866Z" fill="#5A8551"/>
</svg>
