<svg width="1008" height="411" viewBox="0 0 1008 411" fill="none" xmlns="http://www.w3.org/2000/svg">
<g clip-path="url(#clip0_1105_1606)">
<path d="M17.086 266.272C36.0357 266.272 59.6454 202.529 60.5775 202.529C61.8201 202.529 53.1219 265.49 79.5273 265.49C95.6814 265.49 105.001 246.719 116.185 223.646C126.747 200.574 147.871 131.746 147.871 116.104C147.871 110.238 145.075 105.545 141.037 104.372C136.066 102.807 131.407 104.763 129.232 110.629C126.436 118.45 114.942 166.551 112.456 174.763C103.448 204.875 86.6724 236.942 82.9446 235.769C78.5955 234.987 81.3912 204.484 83.8764 186.495C86.0511 172.026 94.4388 134.093 95.6814 119.623C96.924 106.327 84.1872 96.9416 75.7995 109.065C71.4504 115.322 61.8201 137.612 53.1219 162.249C47.5299 177.501 25.163 231.076 21.7457 231.076C16.4646 231.076 42.5595 125.88 43.8021 120.014C44.4234 114.93 42.249 108.282 37.8996 105.545C33.8613 103.199 29.8228 104.372 26.4056 108.674C16.4646 121.188 0 208.004 0 237.333C0 252.194 6.52374 266.272 17.086 266.272Z" fill="#5A8551"/>
<path d="M178.157 266.274C196.175 266.274 226.309 239.682 227.862 220.911C227.862 214.654 225.687 208.788 218.853 208.788C207.048 209.179 193.069 240.855 179.09 240.464C169.459 240.464 164.489 226.386 165.731 209.961C166.042 206.05 167.285 204.486 170.081 203.313C187.477 195.883 202.699 183.76 217.3 160.687C221.96 153.257 225.377 145.045 226.93 136.441C230.969 115.715 219.164 98.117 202.388 98.8991C171.323 100.855 143.986 171.637 144.917 222.084C145.539 244.375 158.586 266.274 178.157 266.274ZM175.051 172.81C174.43 173.201 173.187 173.592 173.808 171.637C180.332 155.212 185.613 142.307 193.379 132.531C199.282 125.1 206.427 122.754 206.427 129.402C206.427 141.916 189.341 163.816 175.051 172.81Z" fill="#5A8551"/>
<path d="M312.528 265.491C320.295 265.491 323.712 257.67 322.158 245.156C320.604 231.469 321.537 217.39 322.158 205.659C322.467 198.619 324.333 192.754 327.438 187.279L343.593 158.731C366.891 117.278 383.667 81.3002 393.609 38.2833C396.405 25.7693 396.405 10.1268 388.326 3.47869C374.97 -7.08002 359.124 12.4731 347.943 30.8532C332.097 56.6634 328.68 73.8702 317.499 108.675C315.633 113.759 315.633 113.759 311.595 112.977C300.411 110.63 289.85 114.15 280.219 124.708C256.299 150.519 237.038 202.921 241.077 238.508C242.941 257.279 256.61 268.229 271.832 259.234C280.53 253.759 284.879 248.676 300.411 231.469C301.965 247.502 301.653 265.491 312.528 265.491ZM334.272 129.01C343.281 92.6412 359.124 43.7583 371.862 36.7191C371.862 44.5404 361.611 72.6969 353.535 89.9036C346.698 103.982 337.38 123.144 335.517 126.664L334.272 129.01ZM262.512 234.597C260.027 233.424 260.959 221.692 262.512 214.653C266.551 193.927 273.385 175.547 282.704 159.513C287.054 152.083 292.646 144.262 300.411 139.96C305.382 137.222 308.49 144.653 307.245 156.385C305.382 172.809 305.694 182.195 296.684 194.709C278.045 221.692 265.929 236.944 262.512 234.597Z" fill="#5A8551"/>
<path d="M358.506 262.362C365.652 262.362 368.136 254.932 371.244 247.11C382.116 219.736 395.475 192.752 415.977 163.423C420.327 157.166 424.986 151.691 430.266 146.607C439.275 137.612 444.867 132.529 442.383 143.087C440.829 148.953 438.966 155.21 437.103 160.685C428.715 185.322 420.948 211.915 414.735 238.898C411.627 252.194 412.56 259.624 420.948 261.58C429.645 263.535 432.441 256.887 434.616 246.328C438.345 227.557 446.733 200.183 460.089 158.73C465.06 143.087 469.41 121.97 459.468 112.193C455.43 108.283 449.838 107.109 442.695 109.456C424.677 115.713 409.764 132.137 395.784 152.864L391.125 159.512C392.367 154.428 393.921 149.344 395.475 144.26C399.822 129.4 400.446 127.445 400.446 123.143C400.446 117.277 397.65 112.976 393.609 111.02C382.116 105.936 377.145 128.618 370.002 155.21C361.614 185.322 353.535 212.306 349.497 238.116C347.322 251.021 347.943 262.362 358.506 262.362Z" fill="#5A8551"/>
<path d="M501.552 266.274C519.57 266.274 549.705 239.682 551.256 220.911C551.256 214.654 549.084 208.788 542.247 208.788C530.442 209.179 516.465 240.855 502.485 240.464C492.855 240.464 487.884 226.386 489.126 209.961C489.438 206.05 490.68 204.486 493.476 203.313C510.873 195.883 526.095 183.76 540.696 160.687C545.355 153.257 548.772 145.045 550.326 136.441C554.364 115.715 542.559 98.117 525.783 98.8991C494.718 100.855 467.382 171.637 468.312 222.084C468.933 244.375 481.983 266.274 501.552 266.274ZM498.447 172.81C497.826 173.201 496.581 173.592 497.205 171.637C503.727 155.212 509.007 142.307 516.774 132.531C522.678 125.1 529.821 122.754 529.821 129.402C529.821 141.916 512.736 163.816 498.447 172.81Z" fill="#5A8551"/>
<path d="M598.956 267.446C627.846 267.446 649.281 247.502 663.57 217.781C674.754 194.317 685.317 155.993 685.317 133.702C685.317 118.842 682.83 105.937 673.512 102.808C670.095 101.635 666.057 102.026 662.949 104.763C660.774 106.719 619.146 151.691 619.146 151.691C614.178 156.384 608.895 159.903 602.994 162.25C582.489 170.071 563.541 186.496 556.707 209.178C547.386 241.636 567.579 267.446 598.956 267.446ZM649.59 156.384C648.969 156.384 648.348 155.993 649.281 154.82C654.561 148.172 656.427 146.607 660.465 141.523C664.503 136.44 663.882 139.177 663.261 144.652C661.707 159.512 657.357 156.384 649.59 156.384ZM596.469 240.854C583.11 241.636 572.238 231.468 576.588 217.39C580.626 204.876 592.743 193.926 606.099 188.451C616.974 183.758 653.319 179.848 653.319 184.54C653.319 187.669 648.039 199.792 645.864 204.094C634.368 227.949 618.525 239.289 596.469 240.854Z" fill="#5A8551"/>
<path d="M760.548 265.491C768.315 265.491 771.732 257.67 770.178 245.156C768.624 231.469 769.557 217.39 770.178 205.659C770.49 198.619 772.353 192.754 775.458 187.279L791.613 158.731C814.911 117.278 831.687 81.3002 841.629 38.2833C844.425 25.7693 844.425 10.1268 836.346 3.47869C822.99 -7.08002 807.147 12.4731 795.963 30.8532C780.12 56.6634 776.703 73.8702 765.519 108.675C763.656 113.759 763.656 113.759 759.615 112.977C748.434 110.63 737.871 114.15 728.241 124.708C704.319 150.519 685.059 202.921 689.097 238.508C690.963 257.279 704.631 268.229 719.853 259.234C728.55 253.759 732.9 248.676 748.434 231.469C749.985 247.502 749.676 265.491 760.548 265.491ZM782.295 129.01C791.304 92.6412 807.147 43.7583 819.882 36.7191C819.882 44.5404 809.631 72.6969 801.555 89.9036C794.721 103.982 785.4 123.144 783.537 126.664L782.295 129.01ZM710.532 234.597C708.048 233.424 708.981 221.692 710.532 214.653C714.57 193.927 721.407 175.547 730.725 159.513C735.075 152.083 740.667 144.262 748.434 139.96C753.402 137.222 756.51 144.653 755.268 156.385C753.402 172.809 753.714 182.195 744.705 194.709C726.066 221.692 713.949 236.944 710.532 234.597Z" fill="#5A8551"/>
<path d="M879.84 270.183C886.365 270.183 890.094 265.49 888.228 249.457C883.881 211.523 888.228 185.713 896.307 144.26C899.412 129.009 891.024 112.584 876.735 109.847C840.078 103.199 806.838 165.378 799.692 222.473C797.517 239.289 801.867 260.015 813.363 265.49C823.614 270.574 833.244 261.188 841.632 250.63C851.883 237.725 862.446 213.479 866.484 207.222L866.172 229.903C866.172 238.898 866.172 246.719 868.038 258.451C869.28 267.837 873.627 270.183 879.84 270.183ZM820.818 236.942C819.264 236.942 819.885 225.993 820.818 220.909C826.41 191.188 835.728 165.769 852.192 146.998C858.717 139.568 865.551 136.048 873.006 136.048C874.872 136.048 876.423 138.003 874.872 139.959C861.825 156.383 830.448 236.942 820.818 236.942Z" fill="#5A8551"/>
<path d="M917.001 410.184C928.494 410.184 939.369 401.973 945.891 389.85C963.288 357.783 970.434 328.062 999.945 177.502C1006.47 141.915 1013.3 121.189 1001.81 113.367C991.557 106.719 980.997 127.837 969.192 153.256C965.775 160.295 949.929 193.926 944.649 203.312C939.057 213.48 935.019 221.301 928.806 229.122C926.322 232.251 927.564 221.301 927.873 218.564C932.223 180.63 940.92 157.166 948.066 123.535C949.62 116.496 946.824 109.457 941.853 107.11C936.882 104.764 931.911 108.284 928.806 114.932C927.564 117.278 916.38 163.815 912.963 179.457C906.75 208.396 900.225 252.195 918.243 260.798C928.494 265.491 937.503 256.497 945.582 245.156C951.795 236.943 957.387 227.167 963.909 213.871C967.638 206.049 971.676 199.01 975.405 191.58C971.364 215.044 962.046 262.754 960.492 268.62C959.871 271.357 959.559 272.921 957.696 273.704C925.389 287 888.42 342.531 894.012 384.765C895.875 398.454 903.954 410.184 917.001 410.184ZM914.205 374.598C914.517 356.217 929.739 320.631 950.241 307.725C956.766 303.423 938.124 355.437 930.981 371.079C925.698 382.419 914.205 390.24 914.205 374.598Z" fill="#5A8551"/>
</g>
<defs>
<clipPath id="clip0_1105_1606">
<rect width="1008" height="411" fill="white"/>
</clipPath>
</defs>
</svg>
