<svg width="289" height="244" viewBox="0 0 289 244" fill="none" xmlns="http://www.w3.org/2000/svg">
<path d="M37.157 36.8505L43.9698 57.2974C44.6671 59.3901 43.3702 61.62 41.2065 62.0489L9.78032 68.2774C6.9581 68.8368 5.85259 72.2819 7.8224 74.379L24.8259 92.4809C26.3768 94.1319 26.0726 96.7806 24.1879 98.0371L1.98623 112.838C-0.292708 114.357 -0.159334 117.749 2.23188 119.084L25.026 131.816C26.6131 132.703 27.3101 134.619 26.6631 136.318L18.5518 157.619C17.6208 160.064 19.4789 162.669 22.0939 162.584L47.1842 161.772C49.2204 161.706 50.9192 163.314 50.9651 165.351L51.4858 188.467C51.5362 190.706 53.5659 192.376 55.7726 191.994L87.3043 186.54C88.9355 186.258 90.5532 187.105 91.2508 188.606L103.069 214.037C103.978 215.994 106.373 216.744 108.237 215.657L139.827 197.229C141.061 196.509 142.601 196.572 143.772 197.391L208.803 242.853C211.782 244.936 215.649 241.875 214.306 238.497L196.793 194.466C195.726 191.783 198.037 188.978 200.874 189.512L230.936 195.167C233.301 195.612 235.445 193.695 235.267 191.296L233.82 171.799C233.66 169.635 235.405 167.806 237.574 167.866L267.769 168.691C270.586 168.768 272.432 165.767 271.091 163.287L261.661 145.842C260.522 143.735 261.677 141.12 264.002 140.544L285.979 135.099C288.893 134.377 289.749 130.651 287.444 128.729L268.953 113.318C267.241 111.891 267.189 109.278 268.843 107.785L286.59 91.7616C288.589 89.9562 288.022 86.6825 285.531 85.6557L259.937 75.1046C257.835 74.2382 257.022 71.6865 258.235 69.7635L269.771 51.4722C271.329 49.0024 269.512 45.7921 266.593 45.8555L227.132 46.7126C224.713 46.7651 222.908 44.4999 223.5 42.1539L229.07 20.0742C229.781 17.2563 227.085 14.7723 224.335 15.7111L183.476 29.6577C181.695 30.2658 179.742 29.4249 178.961 27.7127L167.435 2.47564C166.496 0.420124 163.938 -0.303614 162.062 0.955254L131.234 21.6346C130.031 22.4418 128.465 22.4639 127.24 21.691L101.672 5.56745C99.9191 4.46213 97.5992 5.02936 96.5543 6.81875L82.0775 31.609C81.3966 32.775 80.1295 33.4719 78.7801 33.4225L40.7665 32.0316C38.2113 31.9381 36.3487 34.4248 37.157 36.8505Z" fill="#F4ABAB"/>
<path d="M45.36 56.8342L38.5472 36.3873C38.0623 34.9319 39.1798 33.4399 40.7129 33.496L78.7265 34.8869C80.6156 34.956 82.3896 33.9803 83.3429 32.3479L97.8197 7.5577L96.5942 6.84207L97.8197 7.5577C98.4466 6.48407 99.8386 6.14372 100.89 6.80691L126.458 22.9305C128.174 24.0126 130.366 23.9816 132.051 22.8515L162.878 2.17216C164.004 1.41684 165.538 1.85108 166.102 3.08439L177.628 28.3214C178.722 30.7185 181.456 31.8958 183.95 31.0445L224.808 17.0979C226.459 16.5346 228.076 18.025 227.65 19.7157L222.079 41.7955C221.251 45.0798 223.777 48.2511 227.164 48.1776L266.625 47.3205C268.376 47.2824 269.466 49.2087 268.531 50.6905L256.995 68.9818C255.297 71.6739 256.436 75.2463 259.379 76.4594L284.973 87.0104C286.467 87.6265 286.808 89.5907 285.608 90.674L267.861 106.697C265.545 108.788 265.618 112.446 268.015 114.444L286.506 129.855C287.889 131.008 287.375 133.244 285.627 133.677L263.65 139.121C260.395 139.928 258.777 143.589 260.371 146.539L269.802 163.984C270.607 165.472 269.499 167.273 267.809 167.226L237.614 166.401C234.577 166.318 232.134 168.878 232.359 171.907L233.805 191.404C233.912 192.844 232.626 193.994 231.207 193.727L201.145 188.072C197.173 187.324 193.938 191.252 195.432 195.007L212.944 239.038C213.75 241.065 211.43 242.902 209.642 241.652L144.611 196.19C142.972 195.044 140.816 194.955 139.088 195.963L107.499 214.392C106.38 215.044 104.943 214.593 104.398 213.419L92.5797 187.989C91.603 185.887 89.3382 184.701 87.0545 185.096L55.5229 190.55C54.1988 190.779 52.981 189.777 52.9508 188.434L52.4301 165.318C52.3659 162.467 49.9875 160.215 47.1368 160.308L22.0465 161.12C20.4775 161.17 19.3626 159.608 19.9213 158.141L28.0325 136.84C28.9383 134.461 27.9626 131.778 25.7405 130.537L2.94644 117.805C1.51172 117.004 1.43168 114.969 2.79905 114.057L25.0007 99.2564C27.6393 97.4973 28.0652 93.7891 25.894 91.4776L8.89045 73.3757C7.70856 72.1175 8.37187 70.0504 10.0652 69.7148L41.4913 63.4863C44.5206 62.8859 46.3362 59.764 45.36 56.8342Z" stroke="black" stroke-opacity="0.1" stroke-width="2.93069"/>
</svg>
