<svg width="867" height="732" viewBox="0 0 867 732" fill="none" xmlns="http://www.w3.org/2000/svg">
<path d="M111.47 110.554L131.908 171.895C134 178.173 130.109 184.863 123.618 186.149L29.3398 204.835C20.8732 206.513 17.5567 216.848 23.4661 223.14L74.4766 277.445C79.1293 282.398 78.2167 290.344 72.5626 294.114L5.95757 338.517C-0.879244 343.074 -0.479122 353.25 6.69452 357.255L75.0769 395.451C79.8382 398.112 81.9292 403.86 79.9882 408.957L55.6543 472.86C52.8613 480.195 58.4356 488.01 66.2806 487.755L141.551 485.319C147.66 485.121 152.756 489.945 152.894 496.056L154.456 565.404C154.607 572.121 160.697 577.131 167.317 575.985L261.912 559.623C266.805 558.777 271.658 561.318 273.751 565.821L309.206 642.114C311.933 647.985 319.118 650.235 324.71 646.974L419.48 591.69C423.182 589.53 427.802 589.719 431.315 592.176L626.408 728.562C635.345 734.811 646.946 725.628 642.917 715.494L590.378 583.401C587.177 575.352 594.11 566.937 602.621 568.539L692.807 585.504C699.902 586.839 706.334 581.088 705.8 573.891L701.459 515.4C700.979 508.908 706.214 503.421 712.721 503.601L803.306 506.076C811.757 506.307 817.295 497.304 813.272 489.864L784.982 437.529C781.565 431.208 785.03 423.363 792.005 421.635L857.936 405.3C866.678 403.134 869.246 391.956 862.331 386.19L806.858 339.957C801.722 335.676 801.566 327.837 806.528 323.358L859.769 275.287C865.766 269.871 864.065 260.05 856.592 256.97L779.81 225.316C773.504 222.717 771.065 215.062 774.704 209.293L809.312 154.419C813.986 147.01 808.535 137.379 799.778 137.569L681.395 140.14C674.138 140.298 668.723 133.502 670.499 126.464L687.209 60.2252C689.342 51.7715 681.254 44.3195 673.004 47.1359L550.427 88.9757C545.084 90.8 539.225 88.2773 536.882 83.1407L502.304 7.42954C499.487 1.26299 491.813 -0.908225 486.185 2.86838L393.701 64.9064C390.092 67.328 385.394 67.3943 381.719 65.0756L305.015 16.705C299.756 13.389 292.796 15.0907 289.662 20.4589L246.231 94.8296C244.189 98.3276 240.387 100.418 236.339 100.27L122.298 96.0974C114.633 95.8169 109.045 103.277 111.47 110.554Z" fill="#F4ABAB"/>
<path d="M293.459 22.673L250.029 97.0436C247.169 101.941 241.847 104.868 236.18 104.661L122.139 100.488C117.54 100.32 114.187 104.796 115.642 109.162L136.08 170.502C139.009 179.292 133.562 188.658 124.474 190.459L30.1958 209.144C25.1159 210.151 23.1259 216.352 26.6716 220.127L77.6822 274.433C84.1958 281.367 82.9181 292.492 75.0023 297.769L8.39739 342.171C4.29528 344.907 4.5354 351.012 8.83956 353.415L77.2217 391.611C83.888 395.334 86.8151 403.383 84.0977 410.52L59.7641 474.423C58.088 478.824 61.4327 483.51 66.1397 483.36L141.411 480.924C149.963 480.645 157.098 487.401 157.291 495.954L158.853 565.302C158.943 569.331 162.597 572.337 166.569 571.65L261.164 555.288C268.015 554.103 274.809 557.661 277.739 563.967L313.194 640.257C314.829 643.779 319.14 645.132 322.497 643.176L417.264 587.889C422.448 584.865 428.916 585.132 433.833 588.57L628.926 724.956C634.29 728.706 641.25 723.195 638.832 717.114L586.296 585.021C581.814 573.756 591.519 561.972 603.435 564.216L693.621 581.181C697.878 581.982 701.736 578.532 701.415 574.212L697.077 515.721C696.402 506.634 703.731 498.954 712.842 499.203L803.427 501.678C808.497 501.819 811.821 496.416 809.406 491.952L781.113 439.617C776.331 430.767 781.185 419.784 790.95 417.363L856.881 401.031C862.125 399.732 863.667 393.024 859.518 389.565L804.045 343.332C796.854 337.338 796.635 326.364 803.583 320.091L856.824 272.022C860.424 268.772 859.401 262.879 854.919 261.031L778.137 229.378C769.308 225.739 765.891 215.022 770.985 206.945L805.593 152.071C808.398 147.626 805.128 141.847 799.875 141.961L681.492 144.533C671.331 144.753 663.753 135.239 666.237 125.386L682.95 59.147C684.228 54.0749 679.377 49.6037 674.424 51.2936L551.85 93.1334C544.368 95.6873 536.166 92.1554 532.884 84.9641L498.306 9.25303C496.614 5.5531 492.012 4.25038 488.634 6.51634L396.153 68.5544C391.098 71.9447 384.522 72.0377 379.374 68.7914L302.67 20.4206C299.516 18.431 295.34 19.4521 293.459 22.673ZM293.459 22.673L289.783 20.5261" stroke="black" stroke-opacity="0.1" stroke-width="8.79207"/>
</svg>
