<svg width="296" height="71" viewBox="0 0 296 71" fill="none" xmlns="http://www.w3.org/2000/svg">
<path d="M7.59197 68.5108C9.51444 66.1764 11.9175 60.4777 13.2221 56.4267C13.9087 54.2296 14.4579 52.8564 14.7326 52.0325C14.9386 51.4832 15.0072 51.4146 15.4192 51.6892C20.4313 54.7102 28.8765 49.9727 32.8587 43.7247C33.3394 42.9694 33.7513 42.2142 34.0946 41.5276C34.3693 40.9096 34.7812 40.7037 35.4678 40.635C39.5187 40.1544 42.8144 39.8111 43.707 39.5365C44.8055 39.1932 45.3548 38.1633 45.2175 37.202C44.8055 34.593 42.1965 35.2109 36.9783 35.8288C36.1544 35.8975 36.2231 35.4855 36.429 32.2585C36.429 28.2763 33.82 25.4612 30.181 25.8045C27.7093 26.0105 25.6495 27.0404 23.0404 28.6196C21.8045 29.3748 21.3926 29.6495 21.8045 28.8255C22.4225 27.315 22.4225 25.1179 20.5687 24.5686C18.3715 23.8134 17.9596 25.5985 17.067 28.2763C16.5177 30.0614 16.0371 31.9152 15.4878 33.769C15.0759 35.1422 14.4579 36.4468 13.4967 37.7513C8.62187 44.3426 4.9829 50.5907 2.30517 57.1133C0.931978 60.4777 -0.509876 65.2152 0.176721 67.9616C1.00064 71.5319 4.9829 71.8752 7.59197 68.5108ZM18.3715 41.1843C17.7536 41.2529 19.1268 38.0259 19.8821 37.2707C22.9031 34.2497 27.8466 30.4047 30.4557 30.4047C31.2796 30.4047 31.8288 30.8167 31.8288 32.1212C31.8288 32.9451 31.8288 33.8377 31.6229 34.5243C31.0736 36.4468 31.2109 36.5154 29.3571 36.8587C27.5033 37.202 20.294 41.047 18.3715 41.1843ZM18.9208 48.0503C18.5089 48.0503 17.7536 47.707 17.6849 47.4323C17.479 46.6771 27.2286 41.8022 28.1899 41.9395C28.5332 42.0082 28.2585 42.2828 27.16 43.4501C24.2076 46.5397 21.4612 48.0503 18.9208 48.0503ZM4.9829 64.048C5.05156 63.636 5.12022 63.2241 5.25754 62.8121C6.35609 59.4478 7.66063 55.8775 9.85774 51.8265C7.04269 60.4777 7.11135 60.4777 4.9829 64.048Z" fill="#6B488B"/>
<path d="M46.9326 51.0713C50.0223 51.0713 53.7299 48.6682 55.9957 45.5785C59.2227 41.1156 60.3213 36.7214 59.2914 32.1899C58.7421 29.7868 57.7809 26.6284 54.4852 25.5299C54.2792 25.4612 54.0732 25.3239 53.9359 25.1179C51.3955 22.5775 48.0312 24.6373 45.2848 28.0016C42.1951 31.7779 40.41 36.3094 40.41 43.1068C40.41 47.0204 42.7444 51.0713 46.9326 51.0713ZM47.2759 46.4024C45.6968 46.6084 45.0102 45.1665 45.0102 43.7247C45.0102 38.5752 48.1685 28.8255 51.3955 28.8255C53.318 28.8255 55.0345 32.8765 55.0345 36.1721C55.0345 40.5663 50.9836 45.9905 47.2759 46.4024Z" fill="#6B488B"/>
<path d="M70.1557 51.8265C76.5411 51.8265 81.2786 48.3249 84.4369 43.1068C86.9087 38.9872 89.2431 32.2585 89.2431 28.3449C89.2431 25.7359 88.6938 23.4701 86.634 22.9208C85.8788 22.7148 84.9862 22.7835 84.2996 23.2641C83.819 23.6074 74.6186 31.5033 74.6186 31.5033C73.52 32.3272 72.3528 32.9451 71.0483 33.3571C66.5167 34.7303 62.3285 37.614 60.818 41.5962C58.7582 47.295 63.2211 51.8265 70.1557 51.8265ZM81.3472 32.3272C81.2099 32.3272 81.0726 32.2585 81.2786 32.0525C82.4458 30.8853 82.8578 30.6107 83.7503 29.7181C84.6429 28.8255 84.5056 29.3062 84.3683 30.2674C84.025 32.8765 83.0637 32.3272 81.3472 32.3272ZM69.6064 47.1577C66.6541 47.295 64.251 45.5098 65.2122 43.0381C66.1048 40.841 68.7825 38.9185 71.7349 37.9573C74.138 37.1334 82.1712 36.4468 82.1712 37.2707C82.1712 37.82 81.0039 39.9484 80.5233 40.7037C77.9829 44.8919 74.4813 46.883 69.6064 47.1577Z" fill="#6B488B"/>
<path d="M100.24 16.2608C101.408 16.2608 102.438 15.2309 102.438 13.995C102.438 12.8965 101.408 11.9353 100.24 11.9353C99.0732 11.9353 98.112 12.9651 98.112 14.1324C98.112 15.2996 99.0732 16.2608 100.24 16.2608ZM91.7267 51.9639C93.3058 51.9639 93.6491 50.522 93.9924 49.0115C95.091 44.068 96.1895 39.1245 97.7 34.5243C98.3866 32.3958 99.6912 27.6583 99.6912 26.6971C99.6912 25.3926 98.7986 24.4313 97.6314 24.2253C95.3656 23.9507 95.1596 26.0792 94.4044 28.7569L93.1685 33.2884C91.9326 37.82 90.3535 42.4202 89.5982 47.0204C89.1862 49.5608 89.1176 51.9639 91.7267 51.9639Z" fill="#6B488B"/>
<path d="M104.312 54.9162C106.097 54.9162 107.539 53.0624 106.166 51.3459C105.067 49.9041 104.93 48.2562 104.999 46.6084C105.136 43.9993 105.479 41.1843 105.754 37.82C105.823 36.996 106.235 36.5154 106.852 36.1035C108.981 34.7303 110.835 33.1511 112.345 31.7092C115.847 28.3449 118.525 24.7746 120.584 20.9297C121.065 20.0371 121.752 19.6938 122.781 19.6938C124.567 19.6938 126.352 19.6251 128.068 19.6251C130.815 19.6251 132.257 19.1445 132.257 17.2907C132.257 14.9563 129.579 15.0936 126.832 15.0936H124.017C123.399 15.0936 123.399 14.8876 123.468 14.4757C124.361 10.3561 124.704 9.4635 123.88 7.40371C122.987 5.06928 120.859 4.03939 118.456 4.86331C115.229 5.96186 111.727 10.3561 109.187 14.407C108.912 14.8876 108.569 15.1623 108.02 15.1623H98.064C95.9355 15.1623 94.2877 15.8489 94.425 17.634C94.5624 19.2132 96.0042 19.8311 97.652 19.8311H104.793C106.509 19.8311 106.235 19.7625 105.685 21.2043C103.625 26.2851 102.046 31.5719 101.222 37.4767C100.398 43.3814 99.8492 48.8055 101.566 52.8564C101.978 53.8177 102.802 54.9162 104.312 54.9162ZM114.817 15.0936C114.474 15.0936 114.405 15.0249 114.542 14.7503C115.641 12.6219 117.22 10.9054 119.005 9.73814C119.211 9.60082 119.623 9.4635 119.623 10.0814C119.623 11.592 119.074 12.9651 118.525 14.5443C118.387 14.9563 118.113 15.0936 117.769 15.0936H114.817ZM107.539 29.7868C107.882 28.3449 110.011 22.7148 110.766 21.2043C111.247 20.1744 111.796 19.7625 112.62 19.7625C114.748 19.6938 116.327 19.7625 115.298 20.9983C113.787 22.8521 111.247 27.1777 107.539 29.7868Z" fill="#6B488B"/>
<path d="M124.124 16.2608C125.291 16.2608 126.321 15.2309 126.321 13.995C126.321 12.8965 125.291 11.9353 124.124 11.9353C122.957 11.9353 121.995 12.9651 121.995 14.1324C121.995 15.2996 122.957 16.2608 124.124 16.2608ZM115.61 51.9639C117.189 51.9639 117.533 50.522 117.876 49.0115C118.974 44.068 120.073 39.1245 121.583 34.5243C122.27 32.3958 123.575 27.6583 123.575 26.6971C123.575 25.3926 122.682 24.4313 121.515 24.2253C119.249 23.9507 119.043 26.0792 118.288 28.7569L117.052 33.2884C115.816 37.82 114.237 42.4202 113.482 47.0204C113.07 49.5608 113.001 51.9639 115.61 51.9639Z" fill="#6B488B"/>
<path d="M128.127 51.6892C129.775 51.6892 131.148 49.8354 132.864 46.4711L141.996 28.5509C142.683 27.109 143.095 25.5299 141.515 24.5686C140.005 23.6761 138.563 24.8433 137.67 26.9717C134.375 33.4944 130.736 40.429 129.363 43.1754C129.088 41.7336 129.912 27.6583 129.912 26.0792C129.912 24.088 128.951 22.7835 127.44 22.8521C126.479 22.9208 125.792 23.4701 125.518 24.5686C125.037 26.4225 124.831 38.1633 124.762 46.3338C124.762 49.0115 125.724 51.6892 128.127 51.6892Z" fill="#6B488B"/>
<path d="M148.869 51.6206C152.851 51.6206 159.511 46.9517 159.854 43.656C159.854 42.5575 159.374 41.5276 157.863 41.5276C155.254 41.5962 152.164 47.1577 149.075 47.089C146.946 47.089 145.848 44.6173 146.122 41.7336C146.191 41.047 146.466 40.7723 147.084 40.5664C150.928 39.2618 154.293 37.1334 157.52 33.0824C158.55 31.7779 159.305 30.3361 159.648 28.8255C160.541 25.1866 157.932 22.0969 154.224 22.2342C147.358 22.5775 141.316 35.0049 141.522 43.862C141.659 47.7756 144.543 51.6206 148.869 51.6206ZM148.182 35.2109C148.045 35.2796 147.77 35.3482 147.907 35.0049C149.349 32.1212 150.517 29.8554 152.233 28.1389C153.538 26.8344 155.117 26.4224 155.117 27.5897C155.117 29.7868 151.34 33.6317 148.182 35.2109Z" fill="#6B488B"/>
<path d="M192.119 53.4744C194.248 53.4744 195.896 50.6593 197.406 46.883C199.603 41.9395 204.066 32.0525 204.066 32.0525C204.066 32.0525 204.41 32.8078 205.165 33.975C206.675 36.3094 208.186 38.0946 210.795 38.9872C212.992 39.7424 216.7 39.9484 216.7 37.408C216.7 35.3482 214.915 34.9363 213.335 34.9363C211.001 34.9363 209.147 33.4257 208.117 29.8554C207.087 26.3538 206.332 24.294 204.684 23.882C203.792 23.6761 202.899 24.1567 202.281 24.9806C201.457 26.0792 200.153 29.0315 198.917 31.7779C198.642 32.4645 194.866 40.841 194.591 41.3903L193.836 43.0381C193.561 40.3604 194.248 31.5719 194.248 27.7956C194.248 25.9418 193.767 24.0194 191.639 24.0194C189.991 24.0194 189.648 25.3926 189.648 26.9717C189.579 31.0913 189.442 33.4257 189.373 34.9363C189.167 42.9008 188.275 53.4744 192.119 53.4744Z" fill="#6B488B"/>
<path d="M220.791 16.2608C221.958 16.2608 222.988 15.2309 222.988 13.995C222.988 12.8965 221.958 11.9353 220.791 11.9353C219.623 11.9353 218.662 12.9651 218.662 14.1324C218.662 15.2996 219.623 16.2608 220.791 16.2608ZM212.277 51.9639C213.856 51.9639 214.199 50.522 214.543 49.0115C215.641 44.068 216.74 39.1245 218.25 34.5243C218.937 32.3958 220.241 27.6583 220.241 26.6971C220.241 25.3926 219.349 24.4313 218.181 24.2253C215.916 23.9507 215.71 26.0792 214.954 28.7569L213.719 33.2884C212.483 37.82 210.904 42.4202 210.148 47.0204C209.736 49.5608 209.668 51.9639 212.277 51.9639Z" fill="#6B488B"/>
<path d="M221.429 52.5131C222.184 52.5131 223.146 51.8952 223.42 51.4832C223.695 51.0713 224.038 51.0026 224.656 51.2086C227.128 52.0325 229.531 51.4832 231.316 50.8653C238.663 48.3936 245.117 42.0769 246.902 34.0437C248.138 28.2763 247.177 23.2641 241.821 23.2641C240.105 23.2641 238.113 24.2253 238.113 24.2253C238.113 24.2253 238.113 24.088 238.319 23.7447C238.663 23.1268 240.105 20.7237 240.86 19.0759C242.851 14.407 245.048 7.40371 243.95 4.03939C243.057 1.36166 240.791 0.0571236 238.388 0.949699C234.886 2.32289 231.728 6.57979 229.6 10.6307C225.137 19.2132 223.832 26.7657 221.36 38.5752C219.644 46.4711 217.859 52.5131 221.429 52.5131ZM228.158 28.8255C228.158 26.2165 231.865 16.1922 233.857 12.4845C235.161 10.0128 238.388 5.61856 239.418 5.61856C240.105 5.61856 239.487 9.32618 238.731 11.9353C237.29 16.9474 231.522 26.4225 228.158 28.8255ZM229.05 46.7457C227.952 47.089 225.961 47.1577 225.755 46.5397C225.137 45.0292 232.621 35.3482 235.779 31.9839C237.358 30.3361 240.036 27.8643 241.821 27.8643C244.087 27.8643 242.027 36.1035 239.83 39.0558C237.015 42.8321 233.376 45.5098 229.05 46.7457Z" fill="#6B488B"/>
<path d="M255.385 51.6206C259.367 51.6206 266.027 46.9517 266.371 43.656C266.371 42.5575 265.89 41.5276 264.38 41.5276C261.77 41.5962 258.681 47.1577 255.591 47.089C253.463 47.089 252.364 44.6173 252.639 41.7336C252.707 41.047 252.982 40.7723 253.6 40.5664C257.445 39.2618 260.809 37.1334 264.036 33.0824C265.066 31.7779 265.821 30.3361 266.165 28.8255C267.057 25.1866 264.448 22.0969 260.741 22.2342C253.875 22.5775 247.833 35.0049 248.039 43.862C248.176 47.7756 251.06 51.6206 255.385 51.6206ZM254.699 35.2109C254.561 35.2796 254.287 35.3482 254.424 35.0049C255.866 32.1212 257.033 29.8554 258.749 28.1389C260.054 26.8344 261.633 26.4224 261.633 27.5897C261.633 29.7868 257.857 33.6317 254.699 35.2109Z" fill="#6B488B"/>
<path d="M276.913 51.8265C283.298 51.8265 288.035 48.3249 291.194 43.1068C293.666 38.9872 296 32.2585 296 28.3449C296 25.7359 295.451 23.4701 293.391 22.9208C292.636 22.7148 291.743 22.7835 291.057 23.2641C290.576 23.6074 281.375 31.5033 281.375 31.5033C280.277 32.3272 279.11 32.9451 277.805 33.3571C273.274 34.7303 269.085 37.614 267.575 41.5962C265.515 47.295 269.978 51.8265 276.913 51.8265ZM288.104 32.3272C287.967 32.3272 287.829 32.2585 288.035 32.0525C289.203 30.8853 289.615 30.6107 290.507 29.7181C291.4 28.8255 291.262 29.3062 291.125 30.2674C290.782 32.8765 289.821 32.3272 288.104 32.3272ZM276.363 47.1577C273.411 47.295 271.008 45.5098 271.969 43.0381C272.862 40.841 275.539 38.9185 278.492 37.9573C280.895 37.1334 288.928 36.4468 288.928 37.2707C288.928 37.82 287.761 39.9484 287.28 40.7037C284.74 44.8919 281.238 46.883 276.363 47.1577Z" fill="#6B488B"/>
</svg>
