<svg width="888" height="213" viewBox="0 0 888 213" fill="none" xmlns="http://www.w3.org/2000/svg">
<g clip-path="url(#clip0_1105_1838)">
<path d="M22.7759 205.533C28.5433 198.53 35.7525 181.434 39.6663 169.281C41.7261 162.689 43.3737 158.57 44.1978 156.098C44.8158 154.45 45.0216 154.244 46.2576 155.068C61.2939 164.131 86.6295 149.919 98.5761 131.175C100.018 128.909 101.254 126.643 102.284 124.583C103.108 122.729 104.344 122.112 106.403 121.905C118.556 120.464 128.443 119.434 131.121 118.61C134.417 117.58 136.064 114.49 135.652 111.606C134.417 103.779 126.589 105.633 110.935 107.487C108.463 107.693 108.669 106.457 109.287 96.776C109.287 84.8294 101.46 76.3841 90.543 77.414C83.1279 78.032 76.9485 81.1217 69.1212 85.8593C65.4135 88.1249 64.1778 88.949 65.4135 86.477C67.2675 81.9455 67.2675 75.3542 61.7061 73.7063C55.1145 71.4407 53.8788 76.796 51.201 84.8294C49.5531 90.1847 48.1113 95.7461 46.4634 101.307C45.2277 105.427 43.3737 109.341 40.4901 113.254C25.8656 133.028 14.9487 151.773 6.91551 171.34C2.79594 181.434 -1.52963 195.646 0.530164 203.885C3.00192 214.596 14.9487 215.626 22.7759 205.533ZM55.1145 123.553C53.2608 123.759 57.3804 114.078 59.6463 111.813C68.7093 102.75 83.5398 91.2146 91.3671 91.2146C93.8388 91.2146 95.4864 92.4506 95.4864 96.3641C95.4864 98.8358 95.4864 101.514 94.8687 103.573C93.2208 109.341 93.6327 109.547 88.0713 110.577C82.5099 111.606 60.882 123.141 55.1145 123.553ZM56.7624 144.151C55.5267 144.151 53.2608 143.121 53.0547 142.297C52.437 140.032 81.6858 125.407 84.5697 125.819C85.5996 126.025 84.7755 126.849 81.48 130.351C72.6228 139.62 64.3836 144.151 56.7624 144.151ZM14.9487 192.144C15.1547 190.908 15.3607 189.673 15.7726 188.437C19.0683 178.344 22.9819 167.633 29.5732 155.48C21.1281 181.434 21.3341 181.434 14.9487 192.144Z" fill="#6B488B"/>
<path d="M140.797 153.214C150.066 153.214 161.189 146.005 167.987 136.736C177.668 123.347 180.963 110.164 177.874 96.5698C176.226 89.3605 173.342 79.8853 163.455 76.5898C162.837 76.3837 162.219 75.9718 161.807 75.3538C154.186 67.7326 144.093 73.912 135.854 84.0049C126.585 95.3338 121.229 108.928 121.229 129.32C121.229 141.061 128.233 153.214 140.797 153.214ZM141.827 139.207C137.09 139.825 135.03 135.5 135.03 131.174C135.03 115.726 144.505 86.4766 154.186 86.4766C159.953 86.4766 165.103 98.6296 165.103 108.516C165.103 121.699 152.95 137.972 141.827 139.207Z" fill="#6B488B"/>
<path d="M210.466 155.48C229.622 155.48 243.835 144.975 253.309 129.321C260.725 116.962 267.728 96.7761 267.728 85.0353C267.728 77.2083 266.08 70.4109 259.901 68.763C257.635 68.145 254.957 68.3511 252.898 69.7929C251.456 70.8228 223.855 94.5105 223.855 94.5105C220.559 96.9822 217.057 98.8359 213.144 100.072C199.549 104.192 186.984 112.843 182.453 124.789C176.273 141.886 189.662 155.48 210.466 155.48ZM244.04 96.9822C243.628 96.9822 243.217 96.7761 243.835 96.1581C247.336 92.6565 248.572 91.8327 251.25 89.1549C253.927 86.4771 253.516 87.9192 253.104 90.8028C252.074 98.6301 249.19 96.9822 244.04 96.9822ZM208.818 141.474C199.961 141.886 192.752 136.53 195.635 129.115C198.313 122.524 206.346 116.756 215.203 113.873C222.413 111.401 246.512 109.341 246.512 111.813C246.512 113.461 243.01 119.846 241.569 122.112C233.947 134.676 223.443 140.65 208.818 141.474Z" fill="#6B488B"/>
<path d="M300.719 48.7831C304.223 48.7831 307.313 45.6934 307.313 41.9857C307.313 38.6902 304.223 35.8066 300.719 35.8066C297.219 35.8066 294.335 38.896 294.335 42.3979C294.335 45.8995 297.219 48.7831 300.719 48.7831ZM275.179 155.892C279.916 155.892 280.946 151.567 281.976 147.035C285.272 132.205 288.568 117.374 293.099 103.574C295.159 97.1881 299.073 82.9756 299.073 80.092C299.073 76.1785 296.395 73.2946 292.893 72.6766C286.096 71.8528 285.478 78.2383 283.212 86.2714L279.505 99.8659C275.797 113.461 271.06 127.261 268.794 141.062C267.558 148.683 267.352 155.892 275.179 155.892Z" fill="#6B488B"/>
<path d="M312.936 164.748C318.291 164.748 322.617 159.186 318.498 154.037C315.201 149.711 314.79 144.768 314.997 139.824C315.408 131.997 316.437 123.552 317.262 113.459C317.469 110.987 318.705 109.545 320.556 108.31C326.943 104.19 332.505 99.4524 337.035 95.1267C347.541 85.0338 355.575 74.3229 361.752 62.7882C363.195 60.1104 365.256 59.0805 368.343 59.0805C373.701 59.0805 379.056 58.8744 384.204 58.8744C392.445 58.8744 396.771 57.4326 396.771 51.8712C396.771 44.868 388.737 45.2799 380.496 45.2799H372.051C370.197 45.2799 370.197 44.6619 370.404 43.4262C373.083 31.0674 374.112 28.3896 371.64 22.2103C368.961 15.207 362.577 12.1173 355.368 14.5891C345.687 17.8847 335.181 31.0674 327.561 43.2201C326.736 44.6619 325.707 45.486 324.06 45.486H294.192C287.806 45.486 282.863 47.5458 283.275 52.9011C283.687 57.6387 288.013 59.4924 292.956 59.4924H314.379C319.527 59.4924 318.705 59.2866 317.055 63.612C310.875 78.8544 306.138 94.7148 303.666 112.429C301.194 130.143 299.548 146.416 304.698 158.568C305.934 161.452 308.406 164.748 312.936 164.748ZM344.451 45.2799C343.422 45.2799 343.215 45.0738 343.626 44.25C346.923 37.8648 351.66 32.7153 357.015 29.2135C357.633 28.8016 358.869 28.3896 358.869 30.2433C358.869 34.7751 357.222 38.8944 355.575 43.632C355.161 44.868 354.339 45.2799 353.307 45.2799H344.451ZM322.617 89.3595C323.646 85.0338 330.033 68.1435 332.298 63.612C333.741 60.5223 335.388 59.2866 337.86 59.2866C344.244 59.0805 348.981 59.2866 345.894 62.994C341.361 68.5554 333.741 81.5322 322.617 89.3595Z" fill="#6B488B"/>
<path d="M372.371 48.7831C375.872 48.7831 378.962 45.6934 378.962 41.9857C378.962 38.6902 375.872 35.8066 372.371 35.8066C368.87 35.8066 365.984 38.896 365.984 42.3979C365.984 45.8995 368.87 48.7831 372.371 48.7831ZM346.829 155.892C351.566 155.892 352.598 151.567 353.627 147.035C356.921 132.205 360.218 117.374 364.748 103.574C366.809 97.1881 370.724 82.9756 370.724 80.092C370.724 76.1785 368.045 73.2946 364.544 72.6766C357.746 71.8528 357.128 78.2383 354.863 86.2714L351.155 99.8659C347.447 113.461 342.71 127.261 340.445 141.062C339.209 148.683 339.002 155.892 346.829 155.892Z" fill="#6B488B"/>
<path d="M384.38 155.068C389.324 155.068 393.443 149.506 398.591 139.414L425.987 85.653C428.048 81.3273 429.284 76.59 424.544 73.7061C420.014 71.0286 415.688 74.5302 413.009 80.9154C403.124 100.483 392.207 121.287 388.088 129.526C387.263 125.201 389.735 82.9752 389.735 78.2379C389.735 72.2643 386.852 68.3508 382.319 68.5566C379.436 68.7627 377.375 70.4106 376.553 73.7061C375.11 79.2678 374.492 114.49 374.285 139.002C374.285 147.035 377.171 155.068 384.38 155.068Z" fill="#6B488B"/>
<path d="M446.606 154.861C458.552 154.861 478.532 140.854 479.561 130.967C479.561 127.672 478.121 124.582 473.588 124.582C465.761 124.788 456.491 141.472 447.224 141.266C440.837 141.266 437.543 133.851 438.365 125.2C438.572 123.14 439.397 122.316 441.251 121.698C452.783 117.784 462.878 111.399 472.559 99.2463C475.649 95.3328 477.914 91.0074 478.943 86.4756C481.622 75.5589 473.795 66.2898 462.671 66.7017C442.073 67.7316 423.947 105.014 424.565 131.585C424.976 143.326 433.628 154.861 446.606 154.861ZM444.545 105.632C444.134 105.838 443.309 106.044 443.72 105.014C448.046 96.3627 451.55 89.5653 456.698 84.4158C460.613 80.5023 465.35 79.2663 465.35 82.7682C465.35 89.3595 454.019 100.894 444.545 105.632Z" fill="#6B488B"/>
<path d="M576.357 160.422C582.744 160.422 587.688 151.976 592.218 140.648C598.809 125.817 612.198 96.1561 612.198 96.1561C612.198 96.1561 613.23 98.422 615.495 101.924C620.025 108.927 624.558 114.282 632.385 116.96C638.976 119.226 650.1 119.844 650.1 112.223C650.1 106.043 644.745 104.807 640.005 104.807C633.003 104.807 627.441 100.276 624.351 89.5648C621.261 79.06 618.996 72.8806 614.052 71.6446C611.376 71.0269 608.697 72.4687 606.843 74.9404C604.371 78.2362 600.459 87.0931 596.751 95.3323C595.926 97.3921 584.598 122.522 583.773 124.169L581.508 129.113C580.683 121.08 582.744 94.7143 582.744 83.3854C582.744 77.824 581.301 72.0568 574.917 72.0568C569.973 72.0568 568.944 76.1764 568.944 80.9137C568.737 93.2725 568.326 100.276 568.119 104.807C567.501 128.701 564.825 160.422 576.357 160.422Z" fill="#6B488B"/>
<path d="M662.372 48.7831C665.873 48.7831 668.963 45.6934 668.963 41.9857C668.963 38.6902 665.873 35.8066 662.372 35.8066C658.868 35.8066 655.985 38.896 655.985 42.3979C655.985 45.8995 658.868 48.7831 662.372 48.7831ZM636.83 155.892C641.567 155.892 642.596 151.567 643.628 147.035C646.922 132.205 650.219 117.374 654.749 103.574C656.81 97.1881 660.722 82.9756 660.722 80.092C660.722 76.1785 658.046 73.2946 654.542 72.6766C647.747 71.8528 647.129 78.2383 644.861 86.2714L641.156 99.8659C637.448 113.461 632.711 127.261 630.443 141.062C629.207 148.683 629.003 155.892 636.83 155.892Z" fill="#6B488B"/>
<path d="M664.286 157.538C666.551 157.538 669.437 155.684 670.259 154.448C671.084 153.212 672.113 153.006 673.967 153.624C681.383 156.096 688.592 154.448 693.947 152.594C715.988 145.179 735.35 126.229 740.705 102.13C744.413 84.8274 741.53 69.7908 725.462 69.7908C720.314 69.7908 714.338 72.6744 714.338 72.6744C714.338 72.6744 714.338 72.2625 714.956 71.2326C715.988 69.3789 720.314 62.1696 722.579 57.2262C728.552 43.2195 735.143 22.2097 731.849 12.1167C729.17 4.08352 722.372 0.169906 715.163 2.84763C704.657 6.96721 695.183 19.7379 688.799 31.8906C675.41 57.6381 671.495 80.2956 664.079 115.724C658.931 139.412 653.576 157.538 664.286 157.538ZM684.473 86.475C684.473 78.648 695.594 48.5751 701.57 37.452C705.482 30.0369 715.163 16.8542 718.253 16.8542C720.314 16.8542 718.46 27.9771 716.192 35.8044C711.869 50.8407 694.565 79.266 684.473 86.475ZM687.149 140.236C683.855 141.266 677.882 141.472 677.264 139.618C675.41 135.086 697.862 106.043 707.336 95.9502C712.073 91.0068 720.107 83.5914 725.462 83.5914C732.26 83.5914 726.08 108.309 719.489 117.166C711.044 128.495 700.127 136.528 687.149 140.236Z" fill="#6B488B"/>
<path d="M766.156 154.861C778.102 154.861 798.082 140.854 799.114 130.967C799.114 127.672 797.671 124.582 793.141 124.582C785.311 124.788 776.044 141.472 766.774 141.266C760.39 141.266 757.093 133.851 757.918 125.2C758.122 123.14 758.947 122.316 760.801 121.698C772.336 117.784 782.428 111.399 792.109 99.2463C795.199 95.3328 797.464 91.0074 798.496 86.4756C801.172 75.5589 793.345 66.2898 782.224 66.7017C761.626 67.7316 743.5 105.014 744.118 131.585C744.529 143.326 753.181 154.861 766.156 154.861ZM764.098 105.632C763.684 105.838 762.862 106.044 763.273 105.014C767.599 96.3627 771.1 89.5653 776.248 84.4158C780.163 80.5023 784.9 79.2663 784.9 82.7682C784.9 89.3595 773.572 100.894 764.098 105.632Z" fill="#6B488B"/>
<path d="M830.74 155.48C849.895 155.48 864.106 144.975 873.583 129.321C880.999 116.962 888.001 96.7761 888.001 85.0353C888.001 77.2083 886.354 70.4109 880.174 68.763C877.909 68.145 875.23 68.3511 873.172 69.7929C871.729 70.8228 844.126 94.5105 844.126 94.5105C840.832 96.9822 837.331 98.8359 833.416 100.072C819.823 104.192 807.256 112.843 802.726 124.789C796.546 141.886 809.935 155.48 830.74 155.48ZM864.313 96.9822C863.902 96.9822 863.488 96.7761 864.106 96.1581C867.61 92.6565 868.846 91.8327 871.522 89.1549C874.201 86.4771 873.787 87.9192 873.376 90.8028C872.347 98.6301 869.464 96.9822 864.313 96.9822ZM829.09 141.474C820.234 141.886 813.025 136.53 815.908 129.115C818.587 122.524 826.618 116.756 835.477 113.873C842.686 111.401 866.785 109.341 866.785 111.813C866.785 113.461 863.284 119.846 861.841 122.112C854.221 134.676 843.715 140.65 829.09 141.474Z" fill="#6B488B"/>
</g>
<defs>
<clipPath id="clip0_1105_1838">
<rect width="888" height="213" fill="white"/>
</clipPath>
</defs>
</svg>
