<svg width="296" height="137" viewBox="0 0 296 137" fill="none" xmlns="http://www.w3.org/2000/svg">
<path d="M51.2405 136.115C48.5401 136.115 43.0042 124.365 34.6329 100.863C25.1814 73.3686 17.0127 48.0987 10.1266 25.0535V81.1834C10.1266 85.975 10.6667 94.1321 11.7468 105.655C12.692 118.204 13.1646 126.304 13.1646 129.955C13.1646 130.982 12.4219 131.894 10.9367 132.693C9.45148 133.377 7.76371 133.72 5.87342 133.72C3.03798 133.72 1.62025 132.807 1.62025 130.982L2.02532 126.019C2.29536 122.368 2.43038 119.972 2.43038 118.832C2.43038 112.785 2.02532 103.202 1.21519 90.0821C0.405063 76.7341 0 68.6341 0 65.7819V43.8776C0 40.3409 0.202532 35.093 0.607595 28.1338C1.14768 22.0873 1.41772 16.8394 1.41772 12.3901V11.3633C1.41772 5.65904 2.90295 2.8069 5.87342 2.8069C7.62869 2.8069 9.85654 5.31678 12.557 10.3365C17.0127 18.5507 22.6835 33.2677 29.5696 54.4875C33.4852 66.8087 38.076 82.6666 43.3418 102.061C43.2068 101.605 44.2869 105.541 46.5823 113.869L46.7848 114.724C46.7848 103.658 46.9198 93.7328 47.1899 84.9483L47.5949 55.172V4.51819C48.135 1.66606 50.2954 0.23999 54.076 0.23999C57.7215 0.23999 59.5443 2.46465 59.5443 6.91398V7.94074C58.7342 9.30976 58.3291 10.964 58.3291 12.9034C58.3291 19.8626 58.1266 30.3585 57.7215 44.391C57.3165 58.5375 57.1139 69.1475 57.1139 76.2207V128.415C57.1139 130.24 56.5063 131.951 55.2911 133.549C54.211 135.26 52.8608 136.115 51.2405 136.115Z" fill="#5A8551"/>
<path d="M108.579 136.8C105.069 136.8 101.828 135.83 98.8576 133.891C95.8871 132.065 93.4568 129.556 91.5665 126.361C87.6508 119.402 85.2205 111.815 84.2753 103.601C83.0601 95.8434 82.4525 88.3708 82.4525 81.1834C82.4525 79.8144 82.52 78.6736 82.6551 77.7609V74.6806C82.6551 74.1102 82.5876 73.825 82.4525 73.825V70.7447L82.6551 58.7657C82.7901 55.115 83.3302 49.2966 84.2753 41.3107C84.9504 35.8346 86.5032 30.5296 88.9335 25.3958C89.8787 23.1141 91.0939 21.4028 92.5791 20.2619C94.0643 19.007 95.7521 18.3795 97.6424 18.3795C103.043 18.3795 107.904 19.2352 112.225 20.9465C116.545 22.5436 120.191 24.8254 123.161 27.7916C125.862 30.6437 128.157 34.1803 130.047 38.4015C131.938 42.5086 133.288 46.9008 134.098 51.5783C134.908 56.3699 135.313 61.4467 135.313 66.8087V68.1777C135.313 71.7144 135.381 74.9088 135.516 77.7609L135.718 87.5152C135.718 120.372 126.672 136.8 108.579 136.8ZM107.769 129.613C110.199 129.613 112.427 128.814 114.453 127.217C116.478 125.506 118.031 123.224 119.111 120.372C121.676 114.553 123.229 108.279 123.769 101.548C124.444 95.7293 124.782 90.7096 124.782 86.4884C124.782 81.3546 124.309 74.6235 123.364 66.2953C122.554 57.5108 122.149 50.9509 122.149 46.6156V43.5353C121.879 39.2001 120.123 35.4353 116.883 32.2409C113.777 29.0465 109.929 27.4493 105.339 27.4493C100.748 27.4493 97.7099 29.674 96.2247 34.1233C94.8745 37.6599 94.1994 42.2233 94.1994 47.8135C94.1994 49.9811 94.2669 51.8065 94.4019 53.2896V57.9101L93.9968 65.7819C93.7268 68.1777 93.5918 70.8017 93.5918 73.6538C93.5918 79.8144 93.7943 85.918 94.1994 91.9645C94.7395 100.521 96.0897 108.849 98.25 116.949C100.41 125.391 103.583 129.613 107.769 129.613Z" fill="#5A8551"/>
<path d="M169.207 130.811L169.005 124.137C168.87 122.197 168.802 120.029 168.802 117.634L169.005 111.815C168.6 110.56 167.587 98.0681 165.967 74.3383C164.347 50.6086 163.401 35.3782 163.131 28.6472C155.3 28.419 150.304 27.7345 148.144 26.5937C146.659 25.681 145.916 24.6542 145.916 23.5134C145.916 22.6007 146.591 21.8021 147.941 21.1176C149.427 20.319 150.912 19.9197 152.397 19.9197C156.178 19.9197 160.768 20.1479 166.169 20.6042C171.3 21.1746 175.891 21.4598 179.941 21.4598H183.182C187.368 21.4598 189.46 22.8289 189.46 25.5669C189.46 26.9359 188.785 28.0768 187.435 28.9895C186.085 29.7881 184.532 30.1874 182.777 30.1874C181.562 30.1874 179.806 30.0162 177.511 29.674L173.46 28.9895L173.055 30.7007C173.055 40.8543 174.203 57.0544 176.498 79.301C178.659 100.179 179.739 116.379 179.739 127.901C179.739 129.27 178.996 130.468 177.511 131.495C176.161 132.522 174.608 133.035 172.853 133.035L169.207 130.811Z" fill="#5A8551"/>
<path d="M219.002 135.773C217.246 135.773 215.626 135.26 214.141 134.233C212.791 133.206 212.048 131.951 211.913 130.468V122.596C211.778 121.57 211.71 120.372 211.71 119.003C211.71 116.607 211.508 112.956 211.103 108.051L210.698 97.0983C210.698 91.5082 210.9 83.1799 211.305 72.1137C211.845 62.1883 212.116 53.86 212.116 47.129C212.116 45.5318 211.913 43.136 211.508 39.9416C211.103 36.6332 210.9 34.2374 210.9 32.7543C210.9 24.6542 213.736 20.6042 219.407 20.6042C223.862 20.6042 228.993 21.3458 234.799 22.8289C240.74 24.312 243.71 26.0803 243.71 28.1338C243.71 29.2747 243.103 30.3585 241.888 31.3853C240.807 32.2979 239.457 33.0395 237.837 33.6099C232.166 31.8986 227.035 30.7578 222.445 30.1874C222.58 31.8986 222.647 34.3515 222.647 37.5459C222.647 42.1093 222.58 46.2163 222.445 49.8671C222.04 55.3431 221.837 59.4502 221.837 62.1883L222.445 64.9263L225.685 64.7552C226.765 64.6411 228.116 64.584 229.736 64.584C236.217 64.584 239.457 66.1812 239.457 69.3756C239.457 70.6306 238.85 71.7144 237.634 72.6271C236.419 73.4257 234.867 73.825 232.976 73.825C230.546 73.825 228.656 73.7109 227.305 73.4827H222.242C222.512 76.4489 222.647 80.7842 222.647 86.4884C222.647 92.1927 222.58 97.3265 222.445 101.89C222.04 108.849 221.837 114.04 221.837 117.463C221.837 123.851 221.972 127.046 222.242 127.046L228.926 126.875C231.221 126.76 233.989 126.703 237.229 126.703C242.36 126.703 244.926 128.072 244.926 130.811C244.926 132.408 244.048 133.606 242.293 134.404C240.672 135.317 238.647 135.773 236.217 135.773H219.002Z" fill="#5A8551"/>
<path d="M270.886 135.944C268.456 135.602 266.363 134.861 264.608 133.72C262.987 132.579 262.042 131.096 261.772 129.27L264 126.361C264.81 126.361 266.093 126.589 267.848 127.046C269.873 127.388 271.426 127.559 272.506 127.559C274.937 127.559 277.097 126.646 278.987 124.821C281.013 122.996 282.498 120.6 283.443 117.634C285.198 112.158 286.076 107.252 286.076 102.917C286.076 95.3871 283.241 87.4581 277.57 79.1299L275.342 75.8785C272.776 72.1137 270.616 68.7482 268.861 65.7819C267.105 62.8157 265.62 59.6213 264.405 56.1988C262.785 51.7495 261.975 47.3001 261.975 42.8508C261.975 37.8311 263.325 32.5832 266.025 27.1071C267.376 24.4831 269.266 22.3725 271.696 20.7753C274.262 19.0641 277.097 18.2084 280.203 18.2084C282.633 18.2084 284.861 18.8929 286.886 20.2619C289.046 21.5169 290.127 23.057 290.127 24.8824C290.127 25.9092 289.654 26.7078 288.709 27.2782C287.764 27.8486 286.616 28.1338 285.266 28.1338C283.781 28.1338 282.363 27.7916 281.013 27.1071C278.042 27.2211 275.679 29.4458 273.924 33.781C272.439 37.774 271.696 41.0825 271.696 43.7065C271.696 47.0149 272.304 50.3804 273.519 53.803C274.734 57.1115 276.287 60.1347 278.177 62.8728L282.633 69.7179L289.722 81.0123C291.612 84.2067 293.097 87.9145 294.177 92.1356C295.392 96.3568 296 100.635 296 104.97C296 111.929 294.11 118.546 290.329 124.821C288.439 128.015 285.738 130.582 282.228 132.522C278.852 134.461 275.072 135.431 270.886 135.431V135.944Z" fill="#5A8551"/>
</svg>
