<svg width="888" height="411" viewBox="0 0 888 411" fill="none" xmlns="http://www.w3.org/2000/svg">
<g clip-path="url(#clip0_1105_2050)">
<path d="M153.721 408.346C145.62 408.346 129.013 373.096 103.899 302.59C75.5442 220.107 51.0381 144.297 30.3798 75.1612V243.551C30.3798 257.926 32.0001 282.397 35.2404 316.966C38.076 354.613 39.4938 378.913 39.4938 389.866C39.4938 392.947 37.2657 395.683 32.8101 398.08C28.3544 400.132 23.2911 401.161 17.6203 401.161C9.11394 401.161 4.86075 398.422 4.86075 392.947L6.07596 378.058C6.88608 367.105 7.29114 359.917 7.29114 356.497C7.29114 338.356 6.07596 309.607 3.64557 270.247C1.21519 230.203 0 205.903 0 197.346V131.634C0 121.023 0.607596 105.28 1.82279 84.4021C3.44304 66.2626 4.25316 50.5189 4.25316 37.171V34.0906C4.25316 16.9779 8.70885 8.42143 17.6203 8.42143C22.8861 8.42143 29.5696 15.9511 37.671 31.0102C51.0381 55.6528 68.0505 99.8038 88.7088 163.463C100.456 200.427 114.228 248.001 130.025 306.184C129.62 304.816 132.861 316.624 139.747 341.608L140.354 344.173C140.354 310.975 140.759 281.199 141.57 254.846L142.785 165.517V13.5553C144.405 4.99891 150.886 0.720703 162.228 0.720703C173.165 0.720703 178.633 7.39468 178.633 20.7427V23.823C176.203 27.93 174.987 32.8927 174.987 38.7109C174.987 59.5885 174.38 91.0762 173.165 133.174C171.95 175.613 171.342 207.443 171.342 228.663V385.246C171.342 390.721 169.519 395.854 165.873 400.648C162.633 405.781 158.582 408.346 153.721 408.346Z" fill="#5A8551"/>
<path d="M325.739 410.401C315.209 410.401 305.486 407.491 296.575 401.674C287.663 396.196 280.372 388.669 274.701 379.084C262.954 358.207 255.663 335.446 252.828 310.804C249.182 287.531 247.359 265.114 247.359 243.551C247.359 239.444 247.562 236.022 247.967 233.284V224.043C247.967 222.332 247.765 221.476 247.359 221.476V212.235L247.967 176.298C248.372 165.346 249.992 147.891 252.828 123.933C254.853 107.505 259.511 91.59 266.802 76.1885C269.638 69.3434 273.284 64.2095 277.739 60.7868C282.195 57.0222 287.258 55.1396 292.929 55.1396C309.131 55.1396 323.714 57.7068 336.677 62.8407C349.637 67.632 360.575 74.4773 369.485 83.3759C377.588 91.9322 384.473 102.542 390.143 115.206C395.816 127.527 399.866 140.704 402.296 154.736C404.726 169.111 405.941 184.341 405.941 200.427V204.534C405.941 215.144 406.145 224.728 406.55 233.284L407.156 262.547C407.156 361.117 380.018 410.401 325.739 410.401ZM323.309 388.84C330.599 388.84 337.283 386.443 343.361 381.652C349.436 376.519 354.095 369.673 357.335 361.117C365.03 343.66 369.689 324.838 371.309 304.645C373.334 287.189 374.348 272.13 374.348 259.466C374.348 244.065 372.929 223.872 370.094 198.887C367.664 172.534 366.449 152.854 366.449 139.848V130.607C365.639 117.601 360.371 106.307 350.651 96.7238C341.333 87.1406 329.789 82.3491 316.019 82.3491C302.246 82.3491 293.132 89.0231 288.676 102.371C284.625 112.981 282.6 126.671 282.6 143.442C282.6 149.944 282.803 155.421 283.208 159.87V173.731L281.992 197.347C281.182 204.534 280.777 212.406 280.777 220.963C280.777 239.444 281.385 257.755 282.6 275.895C284.22 301.564 288.271 326.548 294.752 350.848C301.232 376.174 310.751 388.84 323.309 388.84Z" fill="#5A8551"/>
<path d="M507.621 392.433L507.015 372.411C506.61 366.591 506.406 360.087 506.406 352.902L507.015 335.445C505.8 331.68 502.761 294.204 497.901 223.015C493.041 151.825 490.203 106.134 489.393 85.9413C465.9 85.2567 450.912 83.2032 444.432 79.7808C439.977 77.0427 437.748 73.9623 437.748 70.5399C437.748 67.8018 439.773 65.406 443.823 63.3525C448.281 60.9567 452.736 59.7588 457.191 59.7588C468.534 59.7588 482.304 60.4434 498.507 61.8123C513.9 63.5235 527.673 64.3791 539.823 64.3791H549.546C562.104 64.3791 568.38 68.4864 568.38 76.7004C568.38 80.8074 566.355 84.2301 562.305 86.9682C558.255 89.364 553.596 90.5619 548.331 90.5619C544.686 90.5619 539.418 90.0483 532.533 89.0217L520.38 86.9682L519.165 92.1018C519.165 122.563 522.609 171.163 529.494 237.903C535.977 300.537 539.217 349.137 539.217 383.703C539.217 387.81 536.988 391.404 532.533 394.485C528.483 397.566 523.824 399.105 518.559 399.105L507.621 392.433Z" fill="#5A8551"/>
<path d="M657.004 407.32C651.736 407.32 646.876 405.781 642.421 402.7C638.371 399.619 636.142 395.854 635.737 391.405V367.789C635.332 364.711 635.128 361.117 635.128 357.01C635.128 349.822 634.522 338.869 633.307 324.154L632.092 291.296C632.092 274.525 632.698 249.541 633.913 216.342C635.533 186.566 636.346 161.581 636.346 141.388C636.346 136.596 635.737 129.409 634.522 119.826C633.307 109.9 632.698 102.713 632.698 98.2638C632.698 73.9635 641.206 61.8135 658.219 61.8135C671.584 61.8135 686.977 64.0383 704.395 68.4876C722.218 72.9369 731.128 78.2418 731.128 84.4023C731.128 87.825 729.307 91.0764 725.662 94.1568C722.419 96.8946 718.369 99.1194 713.509 100.831C696.496 95.6967 681.103 92.2743 667.333 90.5631C667.738 95.6967 667.939 103.055 667.939 112.639C667.939 126.329 667.738 138.65 667.333 149.602C666.118 166.03 665.509 178.351 665.509 186.566L667.333 194.78L677.053 194.266C680.293 193.924 684.346 193.753 689.206 193.753C708.649 193.753 718.369 198.544 718.369 208.128C718.369 211.893 716.548 215.144 712.9 217.882C709.255 220.278 704.599 221.476 698.926 221.476C691.636 221.476 685.966 221.134 681.913 220.449H666.724C667.534 229.348 667.939 242.353 667.939 259.466C667.939 276.579 667.738 291.98 667.333 305.671C666.118 326.548 665.509 342.121 665.509 352.39C665.509 371.554 665.914 381.139 666.724 381.139L686.776 380.626C693.661 380.281 701.965 380.11 711.685 380.11C727.078 380.11 734.776 384.217 734.776 392.434C734.776 397.225 732.142 400.819 726.877 403.213C722.014 405.952 715.939 407.32 708.649 407.32H657.004Z" fill="#5A8551"/>
<path d="M812.656 407.831C805.366 406.805 799.087 404.582 793.822 401.159C788.959 397.736 786.124 393.287 785.314 387.809L791.998 379.082C794.428 379.082 798.277 379.766 803.542 381.137C809.617 382.163 814.276 382.676 817.516 382.676C824.809 382.676 831.289 379.937 836.959 374.462C843.037 368.987 847.492 361.799 850.327 352.901C855.592 336.473 858.226 321.755 858.226 308.75C858.226 286.16 849.721 262.373 832.708 237.389L826.024 227.634C818.326 216.34 811.846 206.243 806.581 197.345C801.313 188.446 796.858 178.863 793.213 168.595C788.353 155.247 785.923 141.899 785.923 128.551C785.923 113.492 789.973 97.7484 798.073 81.3201C802.126 73.4481 807.796 67.1163 815.086 62.3247C822.784 57.1911 831.289 54.624 840.607 54.624C847.897 54.624 854.581 56.6775 860.656 60.7845C867.136 64.5495 870.379 69.1698 870.379 74.646C870.379 77.7264 868.96 80.1222 866.125 81.8334C863.29 83.5446 859.846 84.4002 855.796 84.4002C851.341 84.4002 847.087 83.3736 843.037 81.3201C834.124 81.6621 827.035 88.3362 821.77 101.342C817.315 113.321 815.086 123.246 815.086 131.118C815.086 141.044 816.91 151.14 820.555 161.408C824.2 171.333 828.859 180.403 834.529 188.617L847.897 209.153L869.164 243.036C874.834 252.619 879.289 263.742 882.529 276.406C886.174 289.069 887.998 301.904 887.998 314.909C887.998 335.786 882.328 355.637 870.985 374.462C865.315 384.044 857.212 391.745 846.682 397.565C836.554 403.382 825.214 406.292 812.656 406.292V407.831Z" fill="#5A8551"/>
</g>
<defs>
<clipPath id="clip0_1105_2050">
<rect width="888" height="411" fill="white"/>
</clipPath>
</defs>
</svg>
