<svg width="296" height="83" viewBox="0 0 296 83" fill="none" xmlns="http://www.w3.org/2000/svg">
<path d="M2.30223 54.3242C3.04488 54.3242 3.71327 53.9529 4.3074 53.2103C4.75299 52.6161 6.38683 46.155 6.68389 44.8183C6.75815 44.5212 6.90669 44.4469 7.12948 44.4469C7.79787 44.4469 14.259 49.1999 15.67 50.0168C18.1208 51.5022 20.7943 52.9875 23.7649 52.9132C27.1069 52.8389 28.2209 51.9477 30.8944 49.5713C33.2709 47.4176 39.732 40.0653 40.4004 38.3572C40.846 37.2432 40.4747 36.0549 39.5092 35.4608C38.618 34.8667 37.5783 34.941 36.6871 35.6836C34.7562 37.466 29.8547 44.1499 26.5128 46.7492C25.2502 47.7889 23.8392 48.0859 22.2054 47.6404C19.3833 46.8234 16.9325 44.9668 13.145 42.2932C12.5509 41.8477 12.1795 41.6991 12.1795 41.4763C12.2538 41.3278 12.6251 41.1793 13.442 40.6594C16.784 38.9513 20.0517 36.5005 23.6164 33.6042C25.3245 32.1931 26.8098 30.9306 27.9238 29.4453C29.0378 27.96 30.1518 26.846 28.6665 25.1379C27.3297 23.6526 25.9186 24.4695 24.5819 25.8063C20.8686 29.5196 16.7097 33.0101 10.3972 36.6491C10.2486 36.7233 8.98612 37.3917 8.68906 37.3917C8.76332 36.7233 8.98612 36.5748 10.5457 35.4608C17.8237 29.9652 23.0223 25.2865 27.9238 18.0827C29.929 15.1121 31.7113 11.6216 32.454 7.98261C33.0481 4.86346 31.6371 1.07592 27.9981 0.778862C21.0171 0.0362108 13.8876 10.2106 9.80304 19.1224C6.53536 26.1776 0 47.9374 0 52.1705C0 53.2103 0.81692 54.3242 2.30223 54.3242ZM11.4369 28.5541C11.4369 25.9548 15.2244 19.0482 16.784 16.3003C19.0862 12.1415 24.2105 5.75465 26.9584 5.75465C27.701 5.75465 27.701 7.23996 27.1069 8.79953C24.3591 15.7805 17.3781 24.6181 11.4369 28.5541Z" fill="#C69C3C"/>
<path d="M43.4018 52.7647C47.7092 52.7647 54.9129 47.7146 55.2842 44.1499C55.2842 42.9616 54.7644 41.8477 53.1305 41.8477C50.3085 41.9219 46.9665 47.9374 43.6246 47.8632C41.3223 47.8632 40.1341 45.1896 40.4311 42.0704C40.5054 41.3278 40.8025 41.0307 41.4709 40.8079C45.6297 39.3969 49.2687 37.0947 52.7592 32.713C53.8732 31.302 54.6901 29.7424 55.0614 28.1085C56.0269 24.1725 53.2048 20.8305 49.1945 20.9791C41.7679 21.3504 35.2326 34.7924 35.4554 44.3727C35.6039 48.6058 38.723 52.7647 43.4018 52.7647ZM42.6591 35.0152C42.5106 35.0895 42.2135 35.1638 42.362 34.7924C43.9216 31.6733 45.1841 29.2225 47.0408 27.3659C48.4518 25.9548 50.1599 25.5093 50.1599 26.7718C50.1599 29.1483 46.0753 33.3071 42.6591 35.0152Z" fill="#C69C3C"/>
<path d="M66.9723 52.7647C71.2797 52.7647 78.4835 47.7146 78.8548 44.1499C78.8548 42.9616 78.335 41.8477 76.7011 41.8477C73.879 41.9219 70.5371 47.9374 67.1951 47.8632C64.8929 47.8632 63.7047 45.1896 64.0017 42.0704C64.076 41.3278 64.373 41.0307 65.0414 40.8079C69.2003 39.3969 72.8393 37.0947 76.3298 32.713C77.4438 31.302 78.2607 29.7424 78.632 28.1085C79.5975 24.1725 76.7754 20.8305 72.765 20.9791C65.3385 21.3504 58.8031 34.7924 59.0259 44.3727C59.1745 48.6058 62.2936 52.7647 66.9723 52.7647ZM66.2297 35.0152C66.0812 35.0895 65.7841 35.1638 65.9326 34.7924C67.4922 31.6733 68.7547 29.2225 70.6113 27.3659C72.0224 25.9548 73.7305 25.5093 73.7305 26.7718C73.7305 29.1483 69.6459 33.3071 66.2297 35.0152Z" fill="#C69C3C"/>
<path d="M75.4392 78.3862C78.187 78.9804 81.2319 72.7421 82.7172 68.0634C83.5341 65.4641 85.6135 58.8544 86.5047 56.2551C87.4702 53.2845 87.693 52.5419 88.0643 51.5022C88.2871 50.8338 88.4356 51.0566 88.7327 51.2794C91.629 53.5816 94.8225 52.8389 96.7534 52.1705C103.363 49.7941 107.967 42.7388 109.676 35.6836C111.087 29.6681 108.042 23.8011 102.472 24.3953C98.8328 24.7666 96.5306 26.2519 96.085 26.549C95.7879 26.6975 95.8622 26.4004 95.8622 26.1776C95.8622 25.435 94.8967 24.2467 93.56 24.0239C92.0746 23.7269 91.1835 24.6923 90.5151 26.7718C89.8467 28.7027 89.2526 30.3365 88.807 31.8218C88.3614 33.3071 87.6187 34.5696 86.6533 35.6836C84.4996 38.1344 82.5687 40.8822 80.5635 44.0756C76.8502 50.0168 73.1369 59.5228 71.7259 65.167C70.0921 71.8509 71.1318 77.4951 75.4392 78.3862ZM94.2283 47.6404C92.2974 48.1602 89.5496 46.7492 89.7724 45.4124C90.0695 44.0756 91.1835 41.0307 91.5548 39.2484C91.9261 37.466 92.9658 35.9064 94.6739 34.3468C97.0504 32.2674 101.061 29.2968 103.437 29.2968C105.368 29.2968 105.22 32.2674 104.7 34.5696C103.586 39.991 98.7585 46.4521 94.2283 47.6404ZM76.3304 70.2913C74.7708 70.2913 82.4201 49.4227 83.5341 50.2396C83.9054 50.4624 77.8157 70.2913 76.3304 70.2913Z" fill="#C69C3C"/>
<path d="M141.139 54.6956C146.338 54.6956 151.834 50.6852 154.73 46.2293C155.77 44.6697 156.661 42.9616 157.701 40.7337C158.443 39.0998 158.443 39.0998 160.226 39.2484C168.618 39.7682 160.597 39.3969 169.212 39.694C170.474 39.694 171.365 38.8028 171.514 37.6888C171.663 36.5748 170.846 35.4608 169.657 35.0152C168.543 34.5696 163.419 34.4954 161.191 34.3468C160.3 34.1983 159.854 34.4954 160.151 33.1586C160.894 29.3711 161.34 25.435 158.443 24.4695C157.626 24.1725 156.661 24.2467 155.844 24.7666C153.17 26.549 150.571 29.4453 147.081 31.6733C144.407 33.3814 141.734 35.1638 138.763 36.1292C134.381 37.5403 129.777 41.4763 130.148 46.2293C130.519 51.1308 135.941 54.6956 141.139 54.6956ZM153.319 33.9755C152.502 33.9755 152.428 33.9755 152.948 33.6042C153.69 33.0101 154.433 32.3417 155.25 31.7475C155.324 31.8961 155.25 32.3417 155.176 32.5645C154.73 33.827 154.804 33.9755 153.319 33.9755ZM141.065 49.7198C138.986 49.7198 135.347 48.1602 135.124 45.9323C134.901 43.9271 137.797 41.8476 140.768 40.6594C143.664 39.5454 146.561 39.0998 150.942 39.0998C152.948 39.0998 152.799 39.3226 152.576 39.9167C150.645 44.8925 145.595 49.7198 141.065 49.7198Z" fill="#C69C3C"/>
<path d="M166.765 52.9875C168.621 52.9875 169.216 51.3536 171.369 46.972C175.157 39.694 176.642 36.1292 181.841 30.9306C182.955 29.8166 183.92 28.9255 184.96 28.4056C186.148 27.8115 183.697 36.4263 181.247 46.0808C180.652 48.3087 180.504 50.0169 182.435 50.8338C183.103 51.1308 184.514 51.3536 185.628 49.497C187.262 46.2293 193.055 36.7976 195.134 34.2726C196.471 32.5645 200.333 28.5541 200.853 28.5541C201.298 28.6284 200.556 30.4108 199.59 33.3071C198.328 37.3917 196.842 42.8131 196.1 46.6749C195.654 49.3485 196.768 51.8735 199.07 51.5764C200.333 51.4279 201.001 50.3882 200.927 48.9771C200.853 47.5661 201.15 46.3036 201.521 44.8183C202.412 41.1793 203.897 36.352 205.754 30.3365C206.72 27.4402 207.017 23.8011 205.011 22.3901C201.744 20.0879 194.466 26.9203 191.272 31.1534L189.713 33.0843C189.936 31.7475 190.158 30.3365 190.307 28.9997C190.753 25.5835 190.455 24.0982 188.45 23.0585C186.222 21.8702 184.217 22.9842 181.915 24.3953C179.761 25.6578 177.756 27.5887 175.825 30.1137L173.746 32.7873L174.785 29.7424C175.825 26.6975 176.122 25.9548 176.271 24.9894C176.419 23.8754 175.751 22.7614 174.711 22.3901C173.671 22.0188 172.483 22.3901 171.815 23.4298C171.221 24.2467 170.33 27.3659 169.438 29.8909C167.136 36.1292 165.948 41.105 164.982 45.7837C164.24 49.497 163.423 52.9875 166.765 52.9875Z" fill="#C69C3C"/>
<path d="M216.892 14.518C218.155 14.518 219.269 13.404 219.269 12.0672C219.269 10.879 218.155 9.83925 216.892 9.83925C215.63 9.83925 214.59 10.9532 214.59 12.2157C214.59 13.4783 215.63 14.518 216.892 14.518ZM207.683 53.136C209.391 53.136 209.763 51.5764 210.134 49.9426C211.322 44.5955 212.511 39.2484 214.144 34.2726C214.887 31.9703 216.298 26.846 216.298 25.8063C216.298 24.3953 215.333 23.3556 214.07 23.1328C211.619 22.8357 211.397 25.1379 210.58 28.0343L209.243 32.9358C207.906 37.8373 206.198 42.8131 205.381 47.7889C204.935 50.5367 204.861 53.136 207.683 53.136Z" fill="#C69C3C"/>
<path d="M220.479 54.547C221.296 54.3242 221.742 53.5073 221.89 52.5419C222.039 51.5022 221.37 50.0911 221.37 48.7543C221.37 45.3381 221.816 41.8476 222.633 38.4314C222.782 37.8373 223.004 37.6145 223.673 37.6145C225.084 37.6145 226.346 36.352 230.06 33.1586C236.149 27.8857 240.011 20.8305 243.576 12.5871C245.061 9.02233 245.952 3.89801 243.279 2.18991C240.457 0.259003 236.075 3.08109 233.104 6.05171C227.015 12.1415 223.301 19.1224 220.405 27.8857C218.474 33.7527 216.692 40.1395 216.469 46.8977C216.32 51.0566 216.84 55.364 220.479 54.547ZM224.638 31.2277C227.163 22.7614 230.431 16.4489 235.332 10.879C236.298 9.83925 239.046 7.23996 239.714 7.23996C239.863 7.23996 240.085 7.38849 238.971 10.6562C236.224 18.8996 232.287 23.7269 225.158 30.8564C224.861 31.1534 224.712 31.2277 224.638 31.2277Z" fill="#C69C3C"/>
<path d="M244.328 14.518C245.591 14.518 246.705 13.404 246.705 12.0672C246.705 10.879 245.591 9.83925 244.328 9.83925C243.066 9.83925 242.026 10.9532 242.026 12.2157C242.026 13.4783 243.066 14.518 244.328 14.518ZM235.119 53.136C236.828 53.136 237.199 51.5764 237.57 49.9426C238.758 44.5955 239.947 39.2484 241.581 34.2726C242.323 31.9703 243.734 26.846 243.734 25.8063C243.734 24.3953 242.769 23.3556 241.506 23.1328C239.056 22.8357 238.833 25.1379 238.016 28.0343L236.679 32.9358C235.342 37.8373 233.634 42.8131 232.817 47.7889C232.372 50.5367 232.297 53.136 235.119 53.136Z" fill="#C69C3C"/>
<path d="M244.722 52.022C246.43 52.022 247.024 50.611 247.767 49.1257C250.366 43.9271 253.56 38.8028 258.461 33.2329C259.501 32.0446 260.615 31.0049 261.877 30.0394C264.031 28.3313 265.368 27.3659 264.774 29.3711C264.402 30.485 263.957 31.6733 263.511 32.713C261.506 37.3917 259.649 42.4418 258.164 47.5661C257.421 50.0911 257.644 51.5022 259.649 51.8735C261.729 52.2448 262.397 50.9823 262.917 48.9771C263.808 45.4124 265.813 40.2138 269.007 32.3417C270.195 29.3711 271.235 25.3607 268.858 23.5041C267.893 22.7614 266.556 22.5386 264.848 22.9842C260.541 24.1725 256.976 27.2916 253.634 31.2277L252.52 32.4902C252.817 31.5248 253.188 30.5593 253.56 29.5939C254.599 26.7718 254.748 26.4004 254.748 25.5835C254.748 24.4695 254.079 23.6526 253.114 23.2813C250.366 22.3158 249.178 26.6232 247.47 31.6733C245.465 37.3917 243.534 42.516 242.568 47.4176C242.048 49.8683 242.197 52.022 244.722 52.022Z" fill="#C69C3C"/>
<path d="M274.314 82.0253C277.137 82.0253 280.85 80.0943 282.929 77.3465C287.311 71.9251 289.984 61.528 293.475 48.0117C294.812 41.4763 296 38.0601 296 33.4557C296 30.485 294.663 27.7372 292.435 26.1034C288.351 23.0585 282.558 24.9894 278.325 28.5541C272.606 33.3814 267.556 42.6646 268.596 48.8286C268.967 51.0566 270.527 52.5419 272.903 52.5419C276.914 52.5419 281.667 48.5315 285.231 44.0013C286.271 42.6646 287.385 41.105 290.207 37.3917C290.801 36.5748 290.727 37.3175 290.43 38.5057C288.945 44.4469 288.128 49.1257 287.014 53.4331C286.717 54.6213 286.197 55.2897 285.157 55.8838C277.137 60.4883 266.888 69.1773 267.779 76.3811C268.225 80.0201 270.675 82.0253 274.314 82.0253ZM273.646 47.269C269.784 45.3381 282.484 29.5939 287.682 29.5939C287.682 29.5939 289.242 29.5939 289.242 29.9652C289.242 30.7821 288.054 32.1189 286.717 33.827C279.81 42.6646 275.354 48.0859 273.646 47.269ZM274.463 77.0495C273.275 77.0495 272.829 76.6039 272.755 75.4899C272.458 72.5193 281.741 62.2706 284.415 62.2706C282.558 67.9891 281.518 70.5141 279.959 72.9649C278.622 75.1186 276.245 77.0495 274.463 77.0495Z" fill="#C69C3C"/>
</svg>
