<svg width="888" height="249" viewBox="0 0 888 249" fill="none" xmlns="http://www.w3.org/2000/svg">
<path d="M6.90669 162.973C9.13464 162.973 11.1398 161.859 12.9222 159.631C14.259 157.849 19.1605 138.465 20.0517 134.455C20.2745 133.564 20.7201 133.341 21.3884 133.341C23.3936 133.341 42.777 147.6 47.01 150.051C54.3624 154.507 62.3829 158.963 71.2947 158.74C81.3207 158.517 84.6627 155.843 92.6832 148.714C99.8127 142.253 119.196 120.196 121.201 115.072C122.538 111.73 121.424 108.165 118.528 106.383C115.854 104.6 112.735 104.823 110.061 107.051C104.269 112.398 89.5641 132.45 79.5384 140.248C75.7506 143.367 71.5176 144.258 66.6162 142.921C58.1499 140.47 50.7975 134.901 39.435 126.88C37.6527 125.543 36.5385 125.098 36.5385 124.429C36.7614 123.984 37.8753 123.538 40.326 121.978C50.352 116.854 60.1551 109.502 70.8492 100.813C75.9735 96.5795 80.4294 92.792 83.7714 88.3361C87.1134 83.8802 90.4554 80.5382 85.9995 75.4139C81.9891 70.958 77.7558 73.4087 73.7457 77.4191C62.6058 88.559 50.1291 99.0305 31.1916 109.948C30.7458 110.17 26.9584 112.175 26.0672 112.175C26.29 110.17 26.9584 109.725 31.6371 106.383C53.4711 89.8958 69.0669 75.8597 83.7714 54.2483C89.787 45.3365 95.1339 34.865 97.362 23.9481C99.1443 14.5906 94.9113 3.228 83.9943 2.33683C63.0513 0.108877 41.6628 30.632 29.4091 57.3674C19.6061 78.533 0 143.812 0 156.512C0 159.631 2.45076 162.973 6.90669 162.973ZM34.3107 85.6625C34.3107 77.8646 45.6732 57.1448 50.352 48.9011C57.2586 36.4247 72.6315 17.2642 80.8752 17.2642C83.103 17.2642 83.103 21.7201 81.3207 26.3988C73.0773 47.3417 52.1343 73.8545 34.3107 85.6625Z" fill="#C69C3C"/>
<path d="M130.206 158.295C143.129 158.295 164.74 143.145 165.854 132.451C165.854 128.886 164.294 125.544 159.392 125.544C150.926 125.767 140.9 143.813 130.875 143.59C123.968 143.59 120.403 135.57 121.294 126.212C121.517 123.984 122.409 123.093 124.414 122.425C136.89 118.192 147.807 111.285 158.279 98.1399C161.621 93.9069 164.071 89.228 165.185 84.3263C168.082 72.5183 159.615 62.4923 147.584 62.9381C125.305 64.052 105.699 104.378 106.367 133.119C106.813 145.818 116.17 158.295 130.206 158.295ZM127.978 105.046C127.533 105.269 126.641 105.492 127.087 104.378C131.766 95.0208 135.553 87.6684 141.123 82.0985C145.356 77.8652 150.481 76.5287 150.481 80.3162C150.481 87.4457 138.227 99.9222 127.978 105.046Z" fill="#C69C3C"/>
<path d="M200.917 158.295C213.84 158.295 235.451 143.145 236.565 132.451C236.565 128.886 235.005 125.544 230.104 125.544C221.637 125.767 211.612 143.813 201.586 143.59C194.679 143.59 191.115 135.57 192.006 126.212C192.228 123.984 193.119 123.093 195.125 122.425C207.601 118.192 218.518 111.285 228.99 98.1399C232.332 93.9069 234.783 89.228 235.896 84.3263C238.793 72.5183 230.327 62.4923 218.295 62.9381C196.016 64.052 176.41 104.378 177.078 133.119C177.524 145.818 186.881 158.295 200.917 158.295ZM198.69 105.046C198.244 105.269 197.353 105.492 197.798 104.378C202.477 95.0208 206.265 87.6684 211.834 82.0985C216.068 77.8652 221.192 76.5287 221.192 80.3162C221.192 87.4457 208.938 99.9222 198.69 105.046Z" fill="#C69C3C"/>
<path d="M226.317 235.16C234.561 236.942 243.696 218.228 248.151 204.191C250.602 196.394 256.84 176.564 259.514 168.767C262.41 159.855 263.079 157.627 264.193 154.508C264.861 152.503 265.307 153.171 266.198 153.839C274.887 160.746 284.467 158.518 290.26 156.513C310.089 149.384 323.901 128.218 329.028 107.052C333.261 89.0056 324.126 71.4046 307.416 73.1872C296.498 74.3011 289.592 78.757 288.255 79.6483C287.364 80.0938 287.586 79.2025 287.586 78.5341C287.586 76.3063 284.69 72.7414 280.68 72.073C276.224 71.182 273.55 74.0782 271.545 80.3167C269.54 86.1094 267.758 91.0108 266.421 95.4667C265.084 99.9226 262.856 103.71 259.96 107.052C253.499 114.404 247.706 122.648 241.69 132.228C230.55 150.052 219.411 178.57 215.178 195.502C210.276 215.554 213.395 232.487 226.317 235.16ZM282.685 142.922C276.892 144.482 268.649 140.249 269.317 136.238C270.208 132.228 273.55 123.093 274.664 117.746C275.778 112.399 278.897 107.72 284.022 103.042C291.151 96.8035 303.183 87.8917 310.311 87.8917C316.104 87.8917 315.66 96.8035 314.1 103.71C310.758 119.974 296.275 139.358 282.685 142.922ZM228.991 210.875C224.312 210.875 247.26 148.269 250.602 150.72C251.716 151.388 233.447 210.875 228.991 210.875Z" fill="#C69C3C"/>
<path d="M423.417 164.087C439.014 164.087 455.502 152.056 464.19 138.688C467.31 134.009 469.983 128.885 473.103 122.201C475.329 117.3 475.329 117.3 480.678 117.746C505.854 119.305 481.791 118.191 507.636 119.082C511.422 119.082 514.095 116.409 514.542 113.067C514.989 109.725 512.538 106.383 508.971 105.046C505.629 103.709 490.257 103.487 483.573 103.041C480.9 102.595 479.562 103.487 480.453 99.4762C482.682 88.1137 484.02 76.3054 475.329 73.4089C472.878 72.5179 469.983 72.7405 467.532 74.3002C459.51 79.6474 451.713 88.3363 441.243 95.0203C433.221 100.145 425.202 105.492 416.289 108.388C403.143 112.621 389.331 124.429 390.444 138.688C391.557 153.393 407.823 164.087 423.417 164.087ZM459.957 101.927C457.506 101.927 457.284 101.927 458.844 100.813C461.07 99.0307 463.299 97.0255 465.75 95.2429C465.972 95.6887 465.75 97.0255 465.528 97.6939C464.19 101.481 464.412 101.927 459.957 101.927ZM423.195 149.16C416.958 149.16 406.041 144.481 405.372 137.797C404.703 131.782 413.391 125.543 422.304 121.979C430.992 118.637 439.683 117.3 452.826 117.3C458.844 117.3 458.397 117.968 457.728 119.75C451.935 134.678 436.785 149.16 423.195 149.16Z" fill="#C69C3C"/>
<path d="M500.294 158.962C505.862 158.962 507.647 154.06 514.106 140.915C525.47 119.081 529.925 108.387 545.522 92.7909C548.864 89.4489 551.759 86.7756 554.879 85.2159C558.443 83.4336 551.09 109.278 543.74 138.242C541.955 144.925 541.511 150.05 547.304 152.501C549.308 153.392 553.541 154.06 556.883 148.49C561.785 138.687 579.164 110.392 585.401 102.817C589.412 97.6926 600.998 85.6614 602.558 85.6614C603.893 85.8843 601.667 91.2315 598.769 99.9204C594.983 112.174 590.525 128.438 588.299 140.024C586.961 148.045 590.303 155.62 597.209 154.728C600.998 154.283 603.002 151.164 602.78 146.93C602.558 142.697 603.449 138.91 604.562 134.454C607.235 123.537 611.69 109.055 617.261 91.0086C620.159 82.3197 621.05 71.4024 615.032 67.1694C605.231 60.2628 583.397 80.76 573.815 93.4593L569.138 99.252C569.807 95.2416 570.473 91.0086 570.92 86.9982C572.258 76.7496 571.364 72.2937 565.349 69.1746C558.665 65.6097 552.65 68.9517 545.744 73.185C539.282 76.9725 533.267 82.7652 527.474 90.3402L521.237 98.361L524.354 89.2263C527.474 80.0916 528.365 77.8635 528.812 74.9673C529.256 71.6253 527.252 68.2833 524.132 67.1694C521.012 66.0555 517.448 67.1694 515.444 70.2885C513.662 72.7392 510.989 82.0968 508.313 89.6718C501.407 108.387 497.843 123.314 494.945 137.35C492.719 148.49 490.268 158.962 500.294 158.962Z" fill="#C69C3C"/>
<path d="M650.677 43.5529C654.466 43.5529 657.808 40.2109 657.808 36.2005C657.808 32.6359 654.466 29.5166 650.677 29.5166C646.891 29.5166 643.771 32.8585 643.771 36.646C643.771 40.4338 646.891 43.5529 650.677 43.5529ZM623.05 159.407C628.174 159.407 629.29 154.728 630.403 149.827C633.967 133.785 637.534 117.744 642.433 102.817C644.662 95.9098 648.895 80.5368 648.895 77.4178C648.895 73.1847 646 70.0657 642.211 69.3973C634.858 68.506 634.192 75.4125 631.741 84.1017L627.73 98.8063C623.719 113.511 618.595 128.438 616.144 143.366C614.806 151.609 614.584 159.407 623.05 159.407Z" fill="#C69C3C"/>
<path d="M661.436 163.641C663.887 162.972 665.225 160.521 665.669 157.625C666.116 154.506 664.109 150.273 664.109 146.262C664.109 136.014 665.447 125.542 667.898 115.294C668.345 113.511 669.011 112.843 671.018 112.843C675.251 112.843 679.037 109.055 690.179 99.4753C708.446 83.6566 720.032 62.491 730.727 37.7608C735.182 27.0665 737.855 11.6935 729.836 6.56922C721.37 0.776502 708.224 9.24276 699.311 18.1546C681.044 36.424 669.902 57.3667 661.214 83.6566C655.421 101.258 650.075 120.418 649.406 140.693C648.959 153.169 650.519 166.091 661.436 163.641ZM673.913 93.6826C681.488 68.2837 691.292 49.3462 705.995 32.6365C708.893 29.5172 717.137 21.7194 719.141 21.7194C719.588 21.7194 720.254 22.165 716.912 31.9681C708.671 56.6983 696.86 71.1802 675.473 92.5687C674.582 93.4597 674.135 93.6826 673.913 93.6826Z" fill="#C69C3C"/>
<path d="M732.985 43.5529C736.774 43.5529 740.116 40.2109 740.116 36.2005C740.116 32.6359 736.774 29.5166 732.985 29.5166C729.199 29.5166 726.079 32.8585 726.079 36.646C726.079 40.4338 729.199 43.5529 732.985 43.5529ZM705.358 159.407C710.485 159.407 711.598 154.728 712.711 149.827C716.275 133.785 719.842 117.744 724.744 102.817C726.97 95.9098 731.203 80.5368 731.203 77.4178C731.203 73.1847 728.308 70.0657 724.519 69.3973C717.169 68.506 716.5 75.4125 714.049 84.1017L710.038 98.8063C706.027 113.511 700.903 128.438 698.452 143.366C697.117 151.609 696.892 159.407 705.358 159.407Z" fill="#C69C3C"/>
<path d="M734.167 156.067C739.291 156.067 741.073 151.834 743.302 147.378C751.099 131.782 760.681 116.409 775.384 99.6996C778.504 96.1347 781.846 93.0156 785.632 90.1191C792.094 84.9948 796.105 82.0986 794.323 88.1142C793.207 91.4559 791.872 95.0208 790.534 98.1399C784.519 112.176 778.948 127.326 774.493 142.699C772.264 150.274 772.933 154.507 778.948 155.621C785.188 156.735 787.192 152.948 788.752 146.932C791.425 136.238 797.44 120.642 807.022 97.026C810.586 88.1142 813.706 76.083 806.575 70.5132C803.68 68.2851 799.669 67.6167 794.545 68.9535C781.624 72.5184 770.929 81.8757 760.903 93.684L757.561 97.4715C758.452 94.5753 759.565 91.6788 760.681 88.7826C763.798 80.3163 764.245 79.2021 764.245 76.7514C764.245 73.4094 762.238 70.9587 759.343 69.8448C751.099 66.9483 747.535 79.8705 742.411 95.0208C736.396 112.176 730.603 127.549 727.705 142.254C726.145 149.606 726.592 156.067 734.167 156.067Z" fill="#C69C3C"/>
<path d="M822.942 246.077C831.411 246.077 842.55 240.284 848.787 232.041C861.933 215.776 869.952 184.585 880.425 144.036C884.436 124.43 888 114.181 888 100.368C888 91.4562 883.989 83.2128 877.305 78.3114C865.053 69.1767 847.674 74.9694 834.975 85.6635C817.818 100.145 802.668 127.995 805.788 146.487C806.901 153.171 811.581 157.627 818.709 157.627C830.742 157.627 845.001 145.596 855.693 132.005C858.813 127.995 862.155 123.316 870.621 112.176C872.403 109.726 872.181 111.954 871.29 115.518C866.835 133.342 864.384 147.378 861.042 160.3C860.151 163.865 858.591 165.87 855.471 167.653C831.411 181.466 800.664 207.533 803.337 229.144C804.675 240.061 812.025 246.077 822.942 246.077ZM820.938 141.808C809.352 136.015 847.452 88.7829 863.046 88.7829C863.046 88.7829 867.726 88.7829 867.726 89.8968C867.726 92.3475 864.162 96.3579 860.151 101.482C839.43 127.995 826.062 144.259 820.938 141.808ZM823.389 231.15C819.825 231.15 818.487 229.813 818.265 226.471C817.374 217.559 845.223 186.813 853.245 186.813C847.674 203.968 844.554 211.543 839.877 218.896C835.866 225.357 828.735 231.15 823.389 231.15Z" fill="#C69C3C"/>
</svg>
