<svg width="888" height="414" viewBox="0 0 888 414" fill="none" xmlns="http://www.w3.org/2000/svg">
<path d="M15.7442 402.848C12.5146 402.848 9.68871 401.282 7.26654 398.15C5.00583 395.018 3.87549 390.668 3.87549 385.103C7.42803 377.447 9.2043 357.095 9.2043 324.041C9.2043 304.211 8.47764 275.333 7.02432 237.409C5.40954 201.225 4.60215 172.695 4.60215 151.82L5.08659 123.116C5.24805 114.766 5.32881 105.198 5.32881 94.4126C5.32881 84.6707 4.52139 72.3194 2.90662 57.3587C0.968871 41.702 0 30.7424 0 24.4798C0 12.3025 6.21693 6.21387 18.6508 6.21387H22.2841C31.0038 6.21387 38.5935 11.9546 45.0525 23.4361C50.22 33.1781 54.5799 47.2688 58.1322 65.7089C60.5544 78.2339 62.6538 95.6303 64.4301 117.897C65.3988 137.381 65.8833 152.69 65.8833 163.823V205.052C65.5605 206.444 65.3988 207.836 65.3988 209.227C65.3988 212.011 65.4795 214.098 65.6412 215.49C65.8026 216.882 65.8833 218.621 65.8833 220.709C65.8833 231.842 65.076 245.237 63.4611 260.894C62.0079 276.203 59.8278 291.859 56.9214 307.865C49.6548 346.136 41.4999 373.274 32.4573 389.279C27.1284 398.324 21.5574 402.848 15.7442 402.848ZM20.8308 372.578C26.8055 364.574 32.0535 353.093 36.5748 338.132C41.0964 322.823 44.568 305.951 46.9902 287.51C51.3501 253.413 53.5302 218.969 53.5302 184.177C53.5302 165.389 52.7229 144.861 51.108 122.594C49.3317 101.023 45.537 81.5393 39.7239 64.1432C36.9786 55.793 33.5067 49.3565 29.3084 44.8334C25.1099 39.9626 20.3463 37.5269 15.0175 37.5269V38.0489C15.0175 69.362 15.9864 116.679 17.9241 180.002C19.8619 242.976 20.8308 290.641 20.8308 322.997V372.578Z" fill="#C69C3C"/>
<path d="M123.748 411.72C119.55 411.72 115.674 408.762 112.122 402.849C108.569 397.281 105.662 389.628 103.402 379.884C98.7189 358.662 95.8122 335.526 94.6818 310.473C93.2286 286.815 92.502 264.026 92.502 242.107C92.502 237.932 92.5827 234.453 92.7441 231.669V222.275C92.7441 220.536 92.6634 219.666 92.502 219.666V210.272L92.7441 173.74C92.9055 162.607 93.5514 144.863 94.6818 120.508C95.4894 103.807 97.3464 87.6291 100.253 71.9724C101.383 65.0139 102.837 59.7951 104.613 56.316C106.389 52.4886 108.408 50.5752 110.668 50.5752C117.127 50.5752 122.941 53.1846 128.108 58.4034C133.275 63.2742 137.635 70.2327 141.188 79.2789C144.417 87.9768 147.163 98.7624 149.423 111.636C151.684 124.161 153.299 137.556 154.267 151.821C155.236 166.434 155.721 181.916 155.721 198.269V202.444C155.721 213.23 155.802 222.971 155.963 231.669L156.205 261.417C156.205 361.62 145.386 411.72 123.748 411.72ZM122.779 389.802C125.686 389.802 128.35 387.366 130.772 382.494C133.195 377.274 135.052 370.317 136.343 361.62C139.411 343.875 141.268 324.738 141.914 304.212C142.722 286.467 143.125 271.159 143.125 258.286C143.125 242.629 142.56 222.101 141.43 196.703C140.461 169.913 139.977 149.907 139.977 136.686V127.292C139.654 114.071 137.554 102.59 133.679 92.8479C129.965 83.106 125.363 78.2352 119.872 78.2352C114.382 78.2352 110.749 85.0197 108.973 98.5887C107.358 109.374 106.551 123.291 106.551 140.339C106.551 146.95 106.631 152.517 106.793 157.04V171.131L106.308 195.137C105.985 202.444 105.824 210.446 105.824 219.144C105.824 237.932 106.066 256.546 106.551 274.986C107.197 301.08 108.811 326.478 111.395 351.18C113.979 376.926 117.773 389.802 122.779 389.802Z" fill="#C69C3C"/>
<path d="M248.819 403.371C246.881 403.371 245.428 402.327 244.459 400.239C243.49 397.803 242.763 393.801 242.279 388.236L240.826 378.318V375.711C240.826 364.227 235.254 325.086 224.112 258.285C213.132 191.484 204.493 142.079 198.195 110.07V372.579L199.164 376.233C199.325 376.926 199.648 378.144 200.133 379.884C200.617 381.624 200.86 383.364 200.86 385.104C200.86 389.628 200.133 393.453 198.679 396.585C197.226 399.717 195.45 401.283 193.351 401.283C188.183 401.283 185.6 390.669 185.6 369.447L185.357 280.205C185.196 253.414 185.115 223.493 185.115 190.44C185.115 179.307 185.357 163.128 185.842 141.905C186.326 119.986 186.568 103.807 186.568 93.3693C186.568 77.0169 189.475 64.1439 195.288 54.75V57.8811C196.257 57.1854 196.903 56.8374 197.226 56.8374C200.94 56.8374 205.623 70.7544 211.275 98.5884C215.796 120.855 219.833 144.34 223.386 169.043C227.1 193.745 231.944 228.886 237.919 274.464L240.341 293.252C244.055 321.435 246.881 341.613 248.819 353.79C252.048 278.987 253.663 190.614 253.663 88.6725V81.888C253.501 79.8003 253.421 77.5389 253.421 75.1035C253.421 64.6656 255.358 59.4468 259.234 59.4468C261.495 59.4468 263.19 61.3605 264.321 65.1876C265.612 69.0147 266.258 73.8858 266.258 79.8003V118.942C265.935 172.522 264.967 230.625 263.352 293.252C261.737 355.878 259.799 391.191 257.539 399.195C252.856 401.979 249.949 403.371 248.819 403.371Z" fill="#C69C3C"/>
<path d="M309.016 126.248C307.726 125.552 307.078 122.421 307.078 116.854C307.078 109.548 307.966 97.0223 309.742 79.2782C311.518 61.5341 313.942 44.6597 317.011 28.6552C320.239 10.9111 323.551 2.03906 326.941 2.03906C329.848 2.03906 331.3 5.86622 331.3 13.5205C331.3 28.1333 330.088 44.4857 327.667 62.5778C325.408 80.3219 322.501 95.4566 318.946 107.982C315.232 120.159 311.923 126.248 309.016 126.248Z" fill="#C69C3C"/>
<path d="M382.177 393.452L381.937 373.1C381.775 367.184 381.694 360.575 381.694 353.267L381.937 335.525C381.451 331.697 380.242 293.599 378.304 221.231C376.366 148.863 375.235 102.415 374.911 81.8878C365.545 81.1918 359.572 79.1044 356.989 75.625C355.21 72.8419 354.322 69.7105 354.322 66.2311C354.322 63.4477 355.132 61.0123 356.746 58.9249C358.522 56.4892 360.298 55.2715 362.074 55.2715C366.595 55.2715 372.085 55.9675 378.544 57.3592C384.682 59.0989 390.172 59.9686 395.017 59.9686H398.893C403.897 59.9686 406.399 64.1437 406.399 72.4939C406.399 76.669 405.592 80.1481 403.978 82.9315C402.364 85.3669 400.507 86.5846 398.407 86.5846C396.955 86.5846 394.855 86.0629 392.11 85.0192L387.265 82.9315L386.782 88.1503C386.782 119.116 388.153 168.521 390.898 236.366C393.481 300.035 394.774 349.439 394.774 384.581C394.774 388.757 393.886 392.408 392.11 395.54C390.496 398.672 388.639 400.238 386.539 400.238L382.177 393.452Z" fill="#C69C3C"/>
<path d="M487.419 402.327C482.736 402.327 480.393 391.191 480.393 368.925C480.393 328.566 479.505 264.026 477.729 175.306C476.115 86.5855 474.582 39.79 473.127 34.9189C473.127 25.1771 474.903 17.6967 478.455 12.4779C479.748 10.7382 481.524 9.34658 483.786 8.30282C486.207 6.91112 488.388 6.21527 490.326 6.21527C491.295 5.86733 493.314 5.69336 496.38 5.69336C500.094 5.69336 502.758 7.08506 504.375 9.86846C505.989 12.3039 506.796 16.8269 506.796 23.4375C506.796 27.2646 506.151 30.2221 504.858 32.3095C503.565 34.0492 501.951 34.9189 500.013 34.9189L497.592 34.3972H494.202C489.678 34.3972 487.419 36.3106 487.419 40.1377C487.419 58.2298 487.983 81.8887 489.114 111.114C490.083 135.469 490.728 158.606 491.052 180.525C492.183 179.829 494.28 178.785 497.349 177.394C500.58 175.654 503.001 174.784 504.615 174.784C506.391 174.784 507.927 176.524 509.217 180.003C510.51 183.134 511.155 186.788 511.155 190.963C511.155 195.833 510.105 199.313 508.008 201.4C507.684 201.748 506.877 202.618 505.584 204.01C504.456 205.054 502.92 205.749 500.982 206.097C499.53 206.445 497.106 206.967 493.716 207.663H491.052C491.052 228.538 491.859 256.894 493.473 292.73C494.928 330.306 495.654 358.662 495.654 377.796L495.411 379.884L495.171 380.928C495.33 382.32 495.411 384.582 495.411 387.714C495.411 392.235 494.685 395.889 493.233 398.673C491.778 401.109 489.84 402.327 487.419 402.327Z" fill="#C69C3C"/>
<path d="M567.266 411.72C563.069 411.72 559.193 408.762 555.641 402.849C552.089 397.281 549.182 389.628 546.92 379.884C542.237 358.662 539.333 335.526 538.202 310.473C536.747 286.815 536.021 264.026 536.021 242.107C536.021 237.932 536.102 234.453 536.264 231.669V222.275C536.264 220.536 536.183 219.666 536.021 219.666V210.272L536.264 173.74C536.426 162.607 537.071 144.863 538.202 120.508C539.009 103.807 540.866 87.6291 543.773 71.9724C544.904 65.0139 546.356 59.7951 548.132 56.316C549.908 52.4886 551.927 50.5752 554.189 50.5752C560.648 50.5752 566.459 53.1846 571.628 58.4034C576.794 63.2742 581.156 70.2327 584.708 79.2789C587.936 87.9768 590.681 98.7624 592.943 111.636C595.202 124.161 596.819 137.556 597.788 151.821C598.757 166.434 599.24 181.916 599.24 198.269V202.444C599.24 213.23 599.321 222.971 599.483 231.669L599.726 261.417C599.726 361.62 588.905 411.72 567.266 411.72ZM566.3 389.802C569.204 389.802 571.871 387.366 574.292 382.494C576.713 377.274 578.57 370.317 579.863 361.62C582.932 343.875 584.789 324.738 585.434 304.212C586.241 286.467 586.646 271.159 586.646 258.286C586.646 242.629 586.079 222.101 584.948 196.703C583.979 169.913 583.496 149.907 583.496 136.686V127.292C583.172 114.071 581.075 102.59 577.199 92.8479C573.485 83.106 568.883 78.2352 563.393 78.2352C557.903 78.2352 554.267 85.0197 552.491 98.5887C550.877 109.374 550.07 123.291 550.07 140.339C550.07 146.95 550.151 152.517 550.313 157.04V171.131L549.827 195.137C549.506 202.444 549.344 210.446 549.344 219.144C549.344 237.932 549.584 256.546 550.07 274.986C550.715 301.08 552.332 326.478 554.915 351.18C557.498 376.926 561.293 389.802 566.3 389.802Z" fill="#C69C3C"/>
<path d="M668.596 410.677C665.044 410.677 661.813 402.328 658.906 385.627C655.516 367.534 653.014 348.922 651.397 329.785L649.702 312.04C645.019 262.287 642.031 233.932 640.741 226.973H637.834C637.834 237.063 637.753 246.283 637.591 254.633V283.337C637.591 329.959 639.127 366.316 642.193 392.41L639.529 406.501H632.746L629.599 398.674L629.842 363.706C629.842 332.395 629.113 284.902 627.661 221.232C626.368 153.387 625.723 105.896 625.723 78.7576C625.723 62.0572 628.387 53.707 633.715 53.707C642.436 53.707 649.54 58.5781 655.03 68.32C660.682 78.0619 663.508 91.6309 663.508 109.027V145.559C663.508 150.778 663.106 156.867 662.299 163.825C661.492 170.436 660.601 175.828 659.635 180.003L655.03 198.791L651.157 214.448L652.366 226.973L655.759 264.027C658.018 290.817 660.199 312.562 662.299 329.263C664.396 345.964 666.982 361.099 670.048 374.668L671.503 380.929C673.117 387.889 673.924 393.454 673.924 397.63C673.924 401.11 673.441 404.065 672.472 406.501C671.503 409.285 670.21 410.677 668.596 410.677ZM638.803 201.401C642.355 197.574 645.343 187.136 647.764 170.088C650.35 152.691 651.64 136.687 651.64 122.074C651.64 110.941 650.995 100.503 649.702 90.7609C648.895 85.1941 647.524 81.019 645.586 78.2359C643.81 75.1045 641.548 73.5388 638.803 73.5388L638.317 76.1482L637.834 80.8453L638.317 142.428C638.641 160.52 638.803 180.177 638.803 201.401Z" fill="#C69C3C"/>
<path d="M729.129 405.979C724.608 405.979 720.492 404.239 716.778 400.762C713.064 396.934 709.914 392.062 707.331 386.149C705.231 381.277 703.293 374.146 701.517 364.75C699.741 355.357 698.448 346.312 697.641 337.612C696.834 331.003 696.189 321.436 695.703 308.908C695.22 296.384 694.896 285.599 694.734 276.553V225.408C694.734 205.228 694.896 188.702 695.22 175.829C695.544 160.172 696.591 143.646 698.37 126.25C699.822 110.593 702.324 96.8502 705.876 85.0209C709.269 73.1913 714.033 65.0151 720.168 60.492C723.075 58.0566 726.465 56.8389 730.341 56.8389C737.286 56.8389 740.757 61.188 740.757 69.8862C740.757 74.0613 739.95 77.5404 738.336 80.3238C736.881 82.7592 735.105 83.9769 733.005 83.9769C732.036 83.9769 731.148 83.8029 730.341 83.4552C729.696 83.1072 728.889 82.9332 727.92 82.9332C725.175 82.9332 722.751 86.0646 720.654 92.3271C718.554 98.5899 716.778 107.288 715.323 118.421C712.74 139.993 710.964 163.477 709.995 188.876C709.35 212.535 709.026 230.105 709.026 241.586C709.026 253.416 709.269 269.594 709.752 290.122C710.4 309.256 711.771 325.957 713.871 340.222C715.002 348.574 716.292 355.357 717.747 360.577C719.361 365.446 721.38 369.622 723.801 373.102C726.546 376.927 729.372 378.841 732.279 378.841C740.031 378.841 743.907 351.007 743.907 295.341V271.334C742.776 270.29 740.919 269.768 738.336 269.768H733.491C727.839 269.768 725.013 265.767 725.013 257.765C725.013 252.894 725.739 249.241 727.194 246.805C728.808 244.022 730.827 242.63 733.248 242.63V243.152H736.638C751.173 243.152 758.439 248.545 758.439 259.33C758.439 262.462 758.034 268.724 757.227 278.118C756.258 286.468 755.775 292.731 755.775 296.906C755.775 302.821 756.015 312.04 756.501 324.565L756.984 352.225C756.984 368.926 754.239 382.147 748.749 391.888C743.421 401.284 736.881 405.979 729.129 405.979Z" fill="#C69C3C"/>
<path d="M792.52 408.589C790.42 408.589 788.485 407.023 786.706 403.894C785.092 400.762 784.204 396.934 784.042 392.41V368.404C783.88 365.272 783.802 361.621 783.802 357.445C783.802 350.137 783.559 339.004 783.073 324.043L782.59 290.643C782.59 273.595 782.833 248.196 783.316 214.448C783.961 184.178 784.285 158.78 784.285 138.253C784.285 133.382 784.042 126.075 783.559 116.333C783.073 106.244 782.833 98.937 782.833 94.4143C782.833 69.7117 786.223 57.3604 793.006 57.3604C798.334 57.3604 804.469 59.6217 811.414 64.1448C818.518 68.6679 822.07 74.0608 822.07 80.3233C822.07 83.8024 821.344 87.1077 819.892 90.2392C818.599 93.0225 816.985 95.2839 815.047 97.0236C808.264 91.8048 802.129 88.3255 796.639 86.5858C796.801 91.8049 796.879 99.285 796.879 109.027C796.879 122.944 796.801 135.469 796.639 146.603C796.153 163.303 795.913 175.828 795.913 184.178L796.639 192.529L800.515 192.007C801.805 191.659 803.419 191.485 805.357 191.485C813.109 191.485 816.985 196.356 816.985 206.098C816.985 209.925 816.259 213.23 814.804 216.014C813.352 218.449 811.495 219.667 809.233 219.667C806.326 219.667 804.067 219.319 802.453 218.623H796.396C796.72 227.669 796.879 240.89 796.879 258.286C796.879 275.682 796.801 291.339 796.639 305.257C796.153 326.479 795.913 342.31 795.913 352.747C795.913 372.232 796.072 381.973 796.396 381.973L804.388 381.451C807.133 381.103 810.445 380.929 814.321 380.929C820.456 380.929 823.525 385.105 823.525 393.454C823.525 398.326 822.475 401.98 820.375 404.413C818.437 407.197 816.016 408.589 813.109 408.589H792.52Z" fill="#C69C3C"/>
<path d="M863.777 393.452L863.534 373.1C863.372 367.184 863.294 360.575 863.294 353.267L863.534 335.525C863.051 331.697 861.839 293.599 859.901 221.231C857.963 148.863 856.835 102.415 856.511 81.8878C847.145 81.1918 841.169 79.1044 838.586 75.625C836.81 72.8419 835.922 69.7105 835.922 66.2311C835.922 63.4477 836.729 61.0123 838.343 58.9249C840.122 56.4892 841.898 55.2715 843.674 55.2715C848.195 55.2715 853.685 55.9675 860.144 57.3592C866.279 59.0989 871.769 59.9686 876.614 59.9686H880.49C885.497 59.9686 887.999 64.1437 887.999 72.4939C887.999 76.669 887.192 80.1481 885.578 82.9315C883.961 85.3669 882.104 86.5846 880.007 86.5846C878.552 86.5846 876.452 86.0629 873.707 85.0192L868.865 82.9315L868.379 88.1503C868.379 119.116 869.753 168.521 872.498 236.366C875.081 300.035 876.374 349.439 876.374 384.581C876.374 388.757 875.483 392.408 873.707 395.54C872.093 398.672 870.236 400.238 868.136 400.238L863.777 393.452Z" fill="#C69C3C"/>
</svg>
