<svg width="296" height="138" viewBox="0 0 296 138" fill="none" xmlns="http://www.w3.org/2000/svg">
<path d="M5.24806 134.283C4.17153 134.283 3.22957 133.761 2.42218 132.717C1.66861 131.673 1.29183 130.223 1.29183 128.368C2.47601 125.816 3.0681 119.032 3.0681 108.014C3.0681 101.404 2.82588 91.7779 2.34144 79.1367C1.80318 67.0753 1.53405 57.5654 1.53405 50.607L1.69553 41.0391C1.74935 38.2557 1.77627 35.0664 1.77627 31.4712C1.77627 28.2239 1.50713 24.1068 0.968872 19.1199C0.322957 13.901 0 10.2478 0 8.16029C0 4.10118 2.07231 2.07163 6.21693 2.07163H7.42802C10.3346 2.07163 12.8645 3.98521 15.0175 7.81237C16.74 11.0597 18.1933 15.7566 19.3774 21.9033C20.1848 26.0783 20.8846 31.8771 21.4767 39.2994C21.7996 45.794 21.9611 50.8969 21.9611 54.6081V68.3511C21.8535 68.815 21.7996 69.2789 21.7996 69.7428C21.7996 70.6706 21.8265 71.3664 21.8804 71.8303C21.9342 72.2942 21.9611 72.8741 21.9611 73.5699C21.9611 77.2811 21.692 81.7461 21.1537 86.965C20.6693 92.0679 19.9426 97.2867 18.9738 102.622C16.5516 115.379 13.8333 124.425 10.8191 129.76C9.04281 132.775 7.1858 134.283 5.24806 134.283ZM6.94359 124.193C8.93516 121.525 10.6845 117.698 12.1916 112.711C13.6988 107.608 14.856 101.984 15.6634 95.837C17.1167 84.4715 17.8434 72.9901 17.8434 61.3926C17.8434 55.13 17.5743 48.2875 17.036 40.8651C16.4439 33.6747 15.179 27.1801 13.2413 21.3814C12.3262 18.598 11.1689 16.4525 9.76946 14.9448C8.36998 13.3212 6.78211 12.5093 5.00584 12.5093V12.6833C5.00584 23.121 5.3288 38.8935 5.97471 60.0009C6.62063 80.9923 6.94359 96.8808 6.94359 107.666V124.193Z" fill="#C69C3C"/>
<path d="M41.2503 137.24C39.8508 137.24 38.5589 136.254 37.3748 134.283C36.1906 132.427 35.2217 129.876 34.4681 126.628C32.9072 119.554 31.9383 111.842 31.5615 103.491C31.0771 95.6051 30.8349 88.0087 30.8349 80.7024C30.8349 79.3107 30.8618 78.1509 30.9156 77.2231V74.0918C30.9156 73.5119 30.8887 73.222 30.8349 73.222V70.0907L30.9156 57.9134C30.9694 54.2022 31.1847 48.2875 31.5615 40.1693C31.8307 34.6025 32.4497 29.2097 33.4185 23.9908C33.7953 21.6713 34.2798 19.9317 34.8718 18.772C35.4639 17.4962 36.1368 16.8584 36.8903 16.8584C39.0434 16.8584 40.9811 17.7282 42.7036 19.4678C44.426 21.0914 45.8793 23.4109 47.0635 26.4263C48.14 29.3256 49.0551 32.9208 49.8086 37.2119C50.5622 41.387 51.1005 45.852 51.4234 50.607C51.7464 55.4779 51.9078 60.6388 51.9078 66.0896V67.4813C51.9078 71.0765 51.9348 74.3238 51.9886 77.2231L52.0693 87.1389C52.0693 120.54 48.463 137.24 41.2503 137.24ZM40.9273 129.934C41.8962 129.934 42.7843 129.122 43.5917 127.498C44.3991 125.758 45.0181 123.439 45.4487 120.54C46.4714 114.625 47.0904 108.246 47.3057 101.404C47.5748 95.4891 47.7094 90.3862 47.7094 86.0952C47.7094 80.8763 47.521 74.0338 47.1442 65.5677C46.8213 56.6376 46.6598 49.9691 46.6598 45.5621V42.4308C46.5521 38.0237 45.8524 34.1966 44.5606 30.9493C43.3226 27.702 41.7885 26.0784 39.9584 26.0784C38.1283 26.0784 36.9172 28.3399 36.3251 32.8629C35.7869 36.4581 35.5178 41.0971 35.5178 46.7798C35.5178 48.9833 35.5447 50.8389 35.5985 52.3466V57.0436L35.437 65.0458C35.3294 67.4813 35.2755 70.1487 35.2755 73.048C35.2755 79.3107 35.3563 85.5153 35.5178 91.6619C35.7331 100.36 36.2713 108.826 37.1325 117.06C37.9938 125.642 39.2587 129.934 40.9273 129.934Z" fill="#C69C3C"/>
<path d="M82.9402 134.457C82.2942 134.457 81.8098 134.109 81.4868 133.413C81.1639 132.601 80.9217 131.267 80.7602 129.412L80.2758 126.106V125.237C80.2758 121.409 78.4187 108.362 74.7047 86.0952C71.0445 63.8281 68.1648 47.3597 66.0656 36.69V124.193L66.3886 125.411C66.4424 125.642 66.5501 126.048 66.7115 126.628C66.873 127.208 66.9538 127.788 66.9538 128.368C66.9538 129.876 66.7115 131.151 66.2271 132.195C65.7427 133.239 65.1506 133.761 64.4508 133.761C62.7284 133.761 61.8672 130.223 61.8672 123.149L61.7864 93.4016C61.7326 84.4715 61.7057 74.4977 61.7057 63.4801C61.7057 59.769 61.7864 54.3761 61.9479 47.3017C62.1094 39.9953 62.1901 34.6025 62.1901 31.1232C62.1901 25.6724 63.159 21.3814 65.0967 18.2501V19.2938C65.4197 19.0619 65.635 18.9459 65.7427 18.9459C66.9807 18.9459 68.5416 23.5849 70.4256 32.8629C71.9327 40.2852 73.2783 48.1135 74.4625 56.3477C75.7005 64.5819 77.3153 76.2953 79.3069 91.488L80.1143 97.7506C81.3523 107.145 82.2942 113.871 82.9402 117.93C84.0167 92.9957 84.5549 63.5381 84.5549 29.5576V27.2961C84.5011 26.6002 84.4742 25.8464 84.4742 25.0346C84.4742 21.5553 85.1201 19.8157 86.4119 19.8157C87.1655 19.8157 87.7307 20.4536 88.1075 21.7293C88.5381 23.005 88.7534 24.6287 88.7534 26.6002V39.6474C88.6457 57.5074 88.3228 76.8752 87.7845 97.7506C87.2463 118.626 86.6003 130.397 85.8468 133.065C84.2858 133.993 83.3169 134.457 82.9402 134.457Z" fill="#C69C3C"/>
<path d="M103.005 42.0828C102.575 41.8509 102.359 40.8071 102.359 38.9515C102.359 36.5161 102.655 32.341 103.247 26.4263C103.839 20.5116 104.647 14.8868 105.67 9.55198C106.746 3.63728 107.85 0.679932 108.98 0.679932C109.949 0.679932 110.433 1.95565 110.433 4.50709C110.433 9.37802 110.029 14.8288 109.222 20.8595C108.469 26.7742 107.5 31.8191 106.315 35.9942C105.077 40.0533 103.974 42.0828 103.005 42.0828Z" fill="#C69C3C"/>
<path d="M127.393 131.151L127.313 124.367C127.259 122.395 127.232 120.192 127.232 117.756L127.313 111.842C127.151 110.566 126.748 97.8666 126.102 73.7439C125.456 49.6212 125.079 34.1386 124.971 27.2961C121.849 27.0641 119.858 26.3683 118.997 25.2085C118.404 24.2808 118.108 23.237 118.108 22.0772C118.108 21.1494 118.378 20.3376 118.916 19.6418C119.508 18.8299 120.1 18.424 120.692 18.424C122.199 18.424 124.029 18.656 126.182 19.1199C128.228 19.6998 130.058 19.9897 131.673 19.9897H132.965C134.633 19.9897 135.467 21.3814 135.467 24.1648C135.467 25.5565 135.198 26.7162 134.66 27.644C134.122 28.4558 133.503 28.8617 132.803 28.8617C132.319 28.8617 131.619 28.6878 130.704 28.3399L129.089 27.644L128.928 29.3836C128.928 39.7054 129.385 56.1737 130.3 78.7888C131.161 100.012 131.592 116.48 131.592 128.194C131.592 129.586 131.296 130.803 130.704 131.847C130.166 132.891 129.547 133.413 128.847 133.413L127.393 131.151Z" fill="#C69C3C"/>
<path d="M162.473 134.109C160.912 134.109 160.131 130.397 160.131 122.975C160.131 109.522 159.835 88.0087 159.243 58.4352C158.705 28.8617 158.194 13.2632 157.709 11.6395C157.709 8.39224 158.301 5.89879 159.485 4.15916C159.916 3.57929 160.508 3.1154 161.262 2.76748C162.069 2.30358 162.796 2.07163 163.442 2.07163C163.765 1.95565 164.438 1.89766 165.46 1.89766C166.698 1.89766 167.586 2.36156 168.125 3.28936C168.663 4.10118 168.932 5.60885 168.932 7.81237C168.932 9.08808 168.717 10.0739 168.286 10.7697C167.855 11.3496 167.317 11.6395 166.671 11.6395L165.864 11.4656H164.734C163.226 11.4656 162.473 12.1034 162.473 13.3791C162.473 19.4098 162.661 27.2961 163.038 37.0379C163.361 45.1562 163.576 52.8685 163.684 60.1749C164.061 59.9429 164.76 59.595 165.783 59.1311C166.86 58.5512 167.667 58.2613 168.205 58.2613C168.797 58.2613 169.309 58.8412 169.739 60.0009C170.17 61.0447 170.385 62.2624 170.385 63.6541C170.385 65.2777 170.035 66.4375 169.336 67.1333C169.228 67.2493 168.959 67.5392 168.528 68.0031C168.152 68.3511 167.64 68.583 166.994 68.699C166.51 68.815 165.702 68.9889 164.572 69.2209H163.684C163.684 76.1793 163.953 85.6313 164.491 97.5766C164.976 110.102 165.218 119.554 165.218 125.932L165.137 126.628L165.057 126.976C165.11 127.44 165.137 128.194 165.137 129.238C165.137 130.745 164.895 131.963 164.411 132.891C163.926 133.703 163.28 134.109 162.473 134.109Z" fill="#C69C3C"/>
<path d="M189.088 137.24C187.689 137.24 186.397 136.254 185.213 134.283C184.029 132.427 183.06 129.876 182.306 126.628C180.745 119.554 179.777 111.842 179.4 103.491C178.915 95.6051 178.673 88.0087 178.673 80.7024C178.673 79.3107 178.7 78.1509 178.754 77.2231V74.0918C178.754 73.5119 178.727 73.222 178.673 73.222V70.0907L178.754 57.9134C178.808 54.2022 179.023 48.2875 179.4 40.1693C179.669 34.6025 180.288 29.2097 181.257 23.9908C181.634 21.6713 182.118 19.9317 182.71 18.772C183.302 17.4962 183.975 16.8584 184.729 16.8584C186.882 16.8584 188.819 17.7282 190.542 19.4678C192.264 21.0914 193.718 23.4109 194.902 26.4263C195.978 29.3256 196.893 32.9208 197.647 37.2119C198.4 41.387 198.939 45.852 199.262 50.607C199.585 55.4779 199.746 60.6388 199.746 66.0896V67.4813C199.746 71.0765 199.773 74.3238 199.827 77.2231L199.908 87.1389C199.908 120.54 196.301 137.24 189.088 137.24ZM188.766 129.934C189.734 129.934 190.623 129.122 191.43 127.498C192.237 125.758 192.856 123.439 193.287 120.54C194.31 114.625 194.929 108.246 195.144 101.404C195.413 95.4891 195.548 90.3862 195.548 86.0952C195.548 80.8763 195.359 74.0338 194.982 65.5677C194.659 56.6376 194.498 49.9691 194.498 45.5621V42.4308C194.39 38.0237 193.691 34.1966 192.399 30.9493C191.161 27.702 189.627 26.0784 187.797 26.0784C185.967 26.0784 184.755 28.3399 184.163 32.8629C183.625 36.4581 183.356 41.0971 183.356 46.7798C183.356 48.9833 183.383 50.8389 183.437 52.3466V57.0436L183.275 65.0458C183.168 67.4813 183.114 70.1487 183.114 73.048C183.114 79.3107 183.194 85.5153 183.356 91.6619C183.571 100.36 184.11 108.826 184.971 117.06C185.832 125.642 187.097 129.934 188.766 129.934Z" fill="#C69C3C"/>
<path d="M222.866 136.892C221.682 136.892 220.605 134.109 219.636 128.542C218.506 122.511 217.672 116.307 217.133 109.928L216.568 104.013C215.007 87.4289 214.011 77.977 213.581 75.6575H212.612C212.612 79.0207 212.585 82.094 212.531 84.8774V94.4453C212.531 109.986 213.043 122.105 214.065 130.803L213.177 135.5H210.916L209.867 132.891L209.948 121.235C209.948 110.798 209.705 94.9672 209.221 73.7439C208.79 51.1288 208.575 35.2983 208.575 26.2523C208.575 20.6855 209.463 17.9021 211.239 17.9021C214.146 17.9021 216.514 19.5258 218.344 22.7731C220.228 26.0204 221.17 30.5434 221.17 36.3421V48.5194C221.17 50.259 221.036 52.2886 220.767 54.6081C220.498 56.8116 220.201 58.6092 219.879 60.0009L218.344 66.2635L217.053 71.4824L217.456 75.6575L218.587 88.0088C219.34 96.9388 220.067 104.187 220.767 109.754C221.466 115.321 222.328 120.366 223.35 124.889L223.835 126.976C224.373 129.296 224.642 131.151 224.642 132.543C224.642 133.703 224.481 134.688 224.158 135.5C223.835 136.428 223.404 136.892 222.866 136.892ZM212.935 67.1333C214.119 65.8576 215.115 62.3784 215.922 56.6956C216.784 50.8969 217.214 45.5621 217.214 40.6911C217.214 36.98 216.999 33.5007 216.568 30.2534C216.299 28.3978 215.842 27.0061 215.196 26.0784C214.604 25.0346 213.85 24.5127 212.935 24.5127L212.773 25.3825L212.612 26.9482L212.773 47.4757C212.881 53.5063 212.935 60.0589 212.935 67.1333Z" fill="#C69C3C"/>
<path d="M243.044 135.326C241.537 135.326 240.165 134.746 238.927 133.587C237.689 132.311 236.639 130.687 235.778 128.716C235.078 127.092 234.432 124.715 233.84 121.583C233.248 118.452 232.817 115.437 232.548 112.537C232.279 110.334 232.064 107.145 231.902 102.969C231.741 98.7944 231.633 95.1992 231.579 92.1838V75.1356C231.579 68.4091 231.633 62.9003 231.741 58.6092C231.849 53.3904 232.198 47.8816 232.791 42.0828C233.275 36.864 234.109 32.283 235.293 28.3399C236.424 24.3967 238.012 21.6713 240.057 20.1636C241.026 19.3518 242.156 18.9459 243.448 18.9459C245.763 18.9459 246.92 20.3956 246.92 23.295C246.92 24.6867 246.651 25.8464 246.113 26.7742C245.628 27.586 245.036 27.9919 244.336 27.9919C244.013 27.9919 243.717 27.9339 243.448 27.818C243.233 27.702 242.964 27.644 242.641 27.644C241.726 27.644 240.918 28.6878 240.219 30.7753C239.519 32.8629 238.927 35.7622 238.442 39.4734C237.581 46.6638 236.989 54.4921 236.666 62.9582C236.451 70.8445 236.343 76.7012 236.343 80.5284C236.343 84.4715 236.424 89.8643 236.585 96.7068C236.801 103.085 237.258 108.652 237.958 113.407C238.335 116.191 238.765 118.452 239.25 120.192C239.788 121.815 240.461 123.207 241.268 124.367C242.183 125.642 243.125 126.28 244.094 126.28C246.678 126.28 247.97 117.002 247.97 98.4465V90.4442C247.593 90.0963 246.974 89.9223 246.113 89.9223H244.498C242.614 89.9223 241.672 88.5886 241.672 85.9212C241.672 84.2976 241.914 83.0798 242.399 82.268C242.937 81.3402 243.61 80.8763 244.417 80.8763V81.0503H245.547C250.392 81.0503 252.814 82.8479 252.814 86.4431C252.814 87.4869 252.679 89.5744 252.41 92.7057C252.087 95.4891 251.926 97.5767 251.926 98.9683C251.926 100.94 252.006 104.013 252.168 108.188L252.329 117.408C252.329 122.975 251.414 127.382 249.584 130.629C247.808 133.761 245.628 135.326 243.044 135.326Z" fill="#C69C3C"/>
<path d="M264.174 136.196C263.474 136.196 262.829 135.674 262.236 134.631C261.698 133.587 261.402 132.311 261.348 130.803V122.801C261.294 121.757 261.268 120.54 261.268 119.148C261.268 116.712 261.187 113.001 261.025 108.014L260.864 96.8808C260.864 91.198 260.945 82.7319 261.106 71.4824C261.321 61.3926 261.429 52.9265 261.429 46.084C261.429 44.4603 261.348 42.0248 261.187 38.7776C261.025 35.4143 260.945 32.9788 260.945 31.4712C260.945 23.237 262.075 19.1199 264.336 19.1199C266.112 19.1199 268.157 19.8737 270.472 21.3814C272.84 22.8891 274.024 24.6867 274.024 26.7742C274.024 27.9339 273.782 29.0357 273.298 30.0795C272.867 31.0073 272.329 31.7611 271.683 32.341C269.422 30.6014 267.377 29.4416 265.547 28.8617C265.601 30.6014 265.627 33.0948 265.627 36.3421C265.627 40.9811 265.601 45.1562 265.547 48.8673C265.385 54.4341 265.305 58.6092 265.305 61.3926L265.547 64.176L266.839 64.002C267.269 63.886 267.807 63.8281 268.453 63.8281C271.037 63.8281 272.329 65.4517 272.329 68.699C272.329 69.9747 272.087 71.0765 271.602 72.0043C271.118 72.8161 270.499 73.222 269.745 73.222C268.776 73.222 268.023 73.106 267.485 72.8741H265.466C265.574 75.8894 265.627 80.2964 265.627 86.0952C265.627 91.8939 265.601 97.1127 265.547 101.752C265.385 108.826 265.305 114.103 265.305 117.582C265.305 124.077 265.358 127.324 265.466 127.324L268.13 127.15C269.045 127.034 270.149 126.976 271.441 126.976C273.486 126.976 274.509 128.368 274.509 131.151C274.509 132.775 274.159 133.993 273.459 134.804C272.813 135.732 272.006 136.196 271.037 136.196H264.174Z" fill="#C69C3C"/>
<path d="M287.926 131.151L287.845 124.367C287.791 122.395 287.765 120.192 287.765 117.756L287.845 111.842C287.684 110.566 287.28 97.8666 286.634 73.7439C285.988 49.6212 285.612 34.1386 285.504 27.2961C282.382 27.0641 280.39 26.3683 279.529 25.2085C278.937 24.2808 278.641 23.237 278.641 22.0772C278.641 21.1494 278.91 20.3376 279.448 19.6418C280.041 18.8299 280.633 18.424 281.225 18.424C282.732 18.424 284.562 18.656 286.715 19.1199C288.76 19.6998 290.59 19.9897 292.205 19.9897H293.497C295.166 19.9897 296 21.3814 296 24.1648C296 25.5565 295.731 26.7162 295.193 27.644C294.654 28.4558 294.035 28.8617 293.336 28.8617C292.851 28.8617 292.151 28.6878 291.236 28.3399L289.622 27.644L289.46 29.3836C289.46 39.7054 289.918 56.1737 290.833 78.7888C291.694 100.012 292.125 116.48 292.125 128.194C292.125 129.586 291.828 130.803 291.236 131.847C290.698 132.891 290.079 133.413 289.379 133.413L287.926 131.151Z" fill="#C69C3C"/>
</svg>
