<svg width="888" height="570" viewBox="0 0 888 570" fill="none" xmlns="http://www.w3.org/2000/svg">
<path d="M861.091 2.29395H26.9091C12.0476 2.29395 0 14.3416 0 29.203V540.477C0 555.338 12.0476 567.386 26.9091 567.386H861.091C875.952 567.386 888 555.338 888 540.477V29.203C888 14.3416 875.952 2.29395 861.091 2.29395Z" fill="#F4ABAB"/>
<path d="M861.091 2.29395H26.9091C12.0476 2.29395 0 14.3416 0 29.203V540.477C0 555.338 12.0476 567.386 26.9091 567.386H861.091C875.952 567.386 888 555.338 888 540.477V29.203C888 14.3416 875.952 2.29395 861.091 2.29395Z" fill="black" fill-opacity="0.05"/>
<path fill-rule="evenodd" clip-rule="evenodd" d="M45.7454 169.743C38.3147 169.743 32.291 175.767 32.291 183.198V263.925C32.291 271.356 38.3147 277.379 45.7454 277.379H842.256C849.684 277.379 855.708 271.356 855.708 263.925V183.198C855.708 175.767 849.684 169.743 842.256 169.743H45.7454ZM91.4909 250.321C106.353 250.321 118.4 238.273 118.4 223.412C118.4 208.55 106.353 196.503 91.4909 196.503C76.6295 196.503 64.5818 208.55 64.5818 223.412C64.5818 238.273 76.6295 250.321 91.4909 250.321Z" fill="white" fill-opacity="0.3"/>
<path fill-rule="evenodd" clip-rule="evenodd" d="M45.7454 296.968C38.3147 296.968 32.291 302.991 32.291 310.422V391.149C32.291 398.58 38.3147 404.604 45.7454 404.604H842.256C849.684 404.604 855.708 398.58 855.708 391.149V310.422C855.708 302.991 849.684 296.968 842.256 296.968H45.7454ZM91.4909 377.547C106.353 377.547 118.4 365.499 118.4 350.637C118.4 335.775 106.353 323.727 91.4909 323.727C76.6295 323.727 64.5818 335.775 64.5818 350.637C64.5818 365.499 76.6295 377.547 91.4909 377.547Z" fill="white" fill-opacity="0.3"/>
<path fill-rule="evenodd" clip-rule="evenodd" d="M45.7454 427.149C38.3147 427.149 32.291 433.173 32.291 440.604V521.331C32.291 528.762 38.3147 534.786 45.7454 534.786H842.256C849.684 534.786 855.708 528.762 855.708 521.331V440.604C855.708 433.173 849.684 427.149 842.256 427.149H45.7454ZM91.4909 507.729C106.353 507.729 118.4 495.681 118.4 480.819C118.4 465.957 106.353 453.909 91.4909 453.909C76.6295 453.909 64.5818 465.957 64.5818 480.819C64.5818 495.681 76.6295 507.729 91.4909 507.729Z" fill="white" fill-opacity="0.3"/>
<path d="M62.452 85.3786C63.3562 89.5765 63.4852 90.6097 63.4852 92.8057C63.55 97.1971 62.323 99.6514 59.4166 101.072C54.7021 103.526 48.4378 99.9097 44.4982 97.3909C43.3357 96.616 41.6566 95.518 40.8172 95.0014C39.9775 94.4848 39.2671 94.0327 39.2026 94.0972C39.1381 94.0972 38.8798 95.2597 38.6212 96.6805C37.9108 100.297 37.7173 100.943 36.8776 101.653C36.0382 102.364 34.7464 102.493 33.7777 101.912C33.4549 101.718 33.0673 101.201 32.8735 100.814C32.5507 100.103 32.5507 99.9742 33.0673 97.5202C33.3901 96.0994 33.907 93.3223 34.2943 91.3849C36.4255 79.6309 39.0733 67.4248 41.2045 60.1918C43.7878 51.0211 45.0148 48.4378 47.2753 47.5336C48.3085 47.0818 49.0837 47.0818 50.1169 47.5984C51.9253 48.4378 53.2168 50.5045 54.7669 55.1545C56.3167 59.7397 60.8374 77.629 62.452 85.3786ZM58.6417 93.3223C58.9 90.6097 57.7375 87.5098 57.0916 84.862C56.3812 81.7621 55.6063 78.7267 54.8314 75.6268C53.6044 70.7833 52.3774 65.875 51.0211 61.0312C50.8273 60.4501 49.471 54.1858 48.6961 54.1858C48.244 54.1858 45.1441 65.0353 43.5295 72.2686C42.1732 78.2746 40.2358 88.0264 40.3006 88.2202C40.5589 88.6078 48.8899 94.1617 50.3752 94.9369C52.3126 95.8408 55.9294 98.1658 57.673 95.9056C58.2541 95.1304 58.5124 94.291 58.6417 93.3223ZM77.5459 101.331C74.5753 100.62 71.9275 98.8117 70.1836 96.2284C66.8899 91.2556 66.3088 84.9265 67.342 79.1143C68.1817 74.4643 69.9898 69.556 73.1545 65.875C75.0919 63.6145 77.8042 62.0002 80.8396 61.7416C84.0043 61.5481 87.0394 62.9689 89.1706 65.2291C90.4624 66.5854 92.3353 68.9749 90.5914 70.7185C89.5582 71.6872 88.0729 71.0416 86.9749 70.1374C85.9417 69.1687 84.9082 68.0707 83.6167 67.3603C81.7438 66.3916 79.3543 67.102 77.8042 68.5228C72.7024 73.108 71.8627 81.8914 72.9607 88.1557C73.6066 92.0305 75.9316 96.5512 80.4523 96.616C82.4542 96.616 83.4874 96.1639 85.4251 94.42C86.9749 92.9992 87.7498 92.7409 88.8478 93.193C90.4624 93.8389 90.979 95.6473 89.9458 97.1971C89.2354 98.2306 86.9104 100.039 85.2958 100.749C82.8418 101.847 80.0647 102.041 77.5459 101.331ZM97.132 100.943C96.8737 100.749 96.4216 100.297 96.2278 99.9097C95.7757 99.1993 95.7757 98.8117 95.7112 88.3495C95.5819 71.2354 96.1633 45.7255 96.7444 42.7546C96.9382 41.5921 97.7131 40.6882 98.7466 40.4296C99.6505 40.2361 100.942 40.7527 101.394 41.4631C101.911 42.238 101.911 42.6256 101.394 53.3461C101.265 55.8649 101.136 61.096 101.071 65.0353L100.942 72.1393L101.975 70.4602C104.365 66.3271 105.98 64.3249 107.982 62.9041C111.146 60.8377 115.086 60.9022 118.186 63.0979C121.221 65.1646 122.835 68.4583 123.546 72.0103C124.838 78.7267 124.838 85.7017 124.708 92.4826C124.644 94.2265 124.644 95.9701 124.514 97.7137C124.45 99.2638 123.74 100.943 121.931 100.943C119.413 100.943 119.542 98.4889 119.477 96.6805C119.413 94.291 119.413 91.837 119.413 89.4472C119.348 79.7602 119.219 78.2101 118.508 73.7539C118.056 71.1706 116.507 66.5209 113.213 66.5209C111.986 66.5209 111.017 67.0375 109.79 68.329C107.142 71.0416 104.623 76.2082 103.009 82.1497C101.717 86.9932 101.265 90.2224 101.071 96.4222C101.007 98.8117 100.942 99.3283 100.555 99.9742C99.8443 101.137 98.359 101.524 97.132 100.943ZM132.821 101.524C132.304 101.266 131.788 100.878 131.658 100.297C131.529 99.9742 131.465 99.5221 131.465 99.1345C131.336 97.5202 131.4 95.8408 131.4 94.1617C131.529 82.4725 131.917 66.1978 132.11 64.7125C132.304 63.421 132.369 63.1624 133.079 62.5168C134.242 61.4188 135.986 61.6771 136.889 63.0334C137.277 63.6793 137.342 66.0688 137.083 70.1374C137.019 71.1061 136.889 78.1456 136.825 85.7017C136.76 89.3182 136.76 92.9992 136.567 96.616C136.567 97.843 136.631 99.3283 136.179 100.491C135.792 101.46 134.435 101.847 133.467 101.718C133.273 101.653 133.015 101.589 132.821 101.524ZM133.596 57.2857C133.531 57.2209 133.402 57.1564 133.273 57.0919C131.723 56.0584 131.852 53.7982 133.402 52.765C134.113 52.3129 135.34 52.3774 136.05 52.765C136.696 53.1523 137.083 53.7982 137.213 54.5086C137.471 56.1232 136.438 57.544 134.758 57.544C134.371 57.544 133.983 57.4792 133.596 57.2857ZM164.723 93.193C165.627 93.6451 166.144 94.4848 166.144 95.518C166.144 96.616 165.692 97.3264 164.336 98.5534C161.365 101.266 156.069 102.558 152.647 101.395C149.547 100.297 147.028 98.1013 145.349 95.2597C142.055 89.7058 141.991 82.2142 143.67 76.0789C145.155 70.3957 147.609 66.3916 151.419 63.55C151.807 63.2917 152.195 63.0334 152.582 62.7751C156.199 60.7729 160.719 61.225 162.657 65.1646C164.271 68.3938 163.69 72.4624 162.205 75.6913C160.267 80.083 154.778 83.5705 149.805 83.5705H147.997V83.635C147.997 84.9913 148.061 86.3473 148.255 87.7036C148.319 88.1557 148.449 88.6078 148.513 89.0599C149.224 91.9015 150.709 94.6138 153.357 95.9701C156.005 97.3264 159.363 96.0994 161.365 94.1617C162.657 92.9347 163.561 92.6764 164.723 93.193ZM150.386 72.979C149.353 75.1747 148.578 77.629 148.772 78.1456C149.224 79.2433 152.065 77.9518 152.711 77.629C156.328 76.1434 159.363 72.0748 158.265 68.0062C157.942 66.9082 157.361 66.5854 156.199 66.9082C154.261 67.4248 151.871 69.8791 150.386 72.979ZM178.127 100.878C175.415 99.4576 173.542 95.3242 171.411 85.96C170.572 82.2787 169.667 78.6622 169.086 74.9164C168.828 73.0435 168.569 71.1706 168.44 69.2977C168.311 67.8769 168.117 66.2626 168.569 64.8418C169.086 63.1624 171.153 62.5813 172.444 63.8728C173.155 64.5832 173.284 65.1646 173.736 69.3625C174.253 74.4643 176.255 84.5392 177.869 90.1576C178.644 92.8702 179.936 95.8408 180.452 96.0346C180.969 96.2284 181.421 95.6473 182.455 93.4513C184.65 88.7368 186.523 81.6976 188.913 68.5228C189.3 66.3916 189.817 64.3249 189.946 64.0021C190.979 62.0647 193.95 62.323 194.596 64.3897C194.854 65.4229 194.79 66.1333 193.24 73.9477C189.881 91.3201 186.911 99.07 182.971 101.007C181.679 101.589 179.484 101.524 178.127 100.878ZM219.025 93.193C219.929 93.6451 220.446 94.4848 220.446 95.518C220.446 96.616 219.994 97.3264 218.638 98.5534C215.667 101.266 210.371 102.558 206.948 101.395C203.848 100.297 201.33 98.1013 199.65 95.2597C196.357 89.7058 196.292 82.2142 197.971 76.0789C199.457 70.3957 201.911 66.3916 205.721 63.55C206.109 63.2917 206.496 63.0334 206.884 62.7751C210.5 60.7729 215.021 61.225 216.959 65.1646C218.573 68.3938 217.992 72.4624 216.506 75.6913C214.569 80.083 209.079 83.5705 204.107 83.5705H202.298V83.635C202.298 84.9913 202.363 86.3473 202.557 87.7036C202.621 88.1557 202.751 88.6078 202.815 89.0599C203.525 91.9015 205.011 94.6138 207.659 95.9701C210.306 97.3264 213.665 96.0994 215.667 94.1617C216.959 92.9347 217.862 92.6764 219.025 93.193ZM204.688 72.979C203.654 75.1747 202.88 77.629 203.073 78.1456C203.525 79.2433 206.367 77.9518 207.013 77.629C210.629 76.1434 213.665 72.0748 212.567 68.0062C212.244 66.9082 211.663 66.5854 210.5 66.9082C208.563 67.4248 206.173 69.8791 204.688 72.979ZM226.1 101.201C225.261 101.007 224.873 100.685 224.421 99.8449C224.098 99.1345 224.098 94.2265 224.615 74.7226C224.873 64.7125 224.873 64.5187 226.1 63.7438C227.456 62.9041 229.2 63.4855 229.846 64.9708C230.104 65.6167 230.104 66.1978 230.04 67.5541L229.91 69.3625L230.944 68.0062C233.979 63.9376 238.306 61.6126 242.181 61.8709C244.7 62.0647 247.089 63.7438 248.381 66.1978L248.898 67.102C248.898 67.102 250.189 66.004 250.189 65.9395C252.385 63.9376 255.162 62.0002 258.262 61.9354C262.524 61.9354 265.689 65.6167 267.045 69.2977C267.82 71.2354 268.208 73.6249 268.337 76.7893C268.466 79.6954 268.143 91.966 267.755 97.1971L267.691 98.6824C267.626 99.3928 267.368 100.039 266.851 100.491C265.818 101.395 264.527 101.46 263.493 100.62C262.524 99.7804 262.395 99.07 262.654 94.1617C262.783 91.7722 262.912 86.2828 262.912 81.9559C262.976 77.9518 263.558 73.0435 261.362 69.4915C260.199 67.5541 258.391 66.8437 256.389 67.8769C254.452 68.9104 252.579 70.525 251.61 72.5914L251.093 73.6249L251.158 80.9872C251.222 89.0599 250.706 98.6179 250.189 99.8449C249.866 100.685 248.768 101.395 247.864 101.395C246.96 101.395 245.862 100.685 245.539 99.7804C245.281 99.1993 245.281 98.5534 245.41 96.0346C246.443 81.5038 246.056 73.1728 244.248 69.556C243.215 67.5541 242.569 67.102 241.083 67.2313C239.469 67.3603 238.048 68.1352 236.369 69.8146C233.979 72.2041 232.106 76.2727 230.492 82.7953C229.846 85.5079 229.523 89.7703 229.459 95.8408C229.459 97.3264 229.394 98.8762 229.265 99.2638C228.877 100.685 227.521 101.46 226.1 101.201ZM295.148 93.193C296.052 93.6451 296.569 94.4848 296.569 95.518C296.569 96.616 296.117 97.3264 294.761 98.5534C291.79 101.266 286.494 102.558 283.072 101.395C279.971 100.297 277.453 98.1013 275.774 95.2597C272.48 89.7058 272.416 82.2142 274.095 76.0789C275.58 70.3957 278.034 66.3916 281.844 63.55C282.232 63.2917 282.62 63.0334 283.007 62.7751C286.624 60.7729 291.144 61.225 293.082 65.1646C294.696 68.3938 294.115 72.4624 292.63 75.6913C290.692 80.083 285.203 83.5705 280.23 83.5705H278.422V83.635C278.422 84.9913 278.486 86.3473 278.68 87.7036C278.744 88.1557 278.874 88.6078 278.938 89.0599C279.649 91.9015 281.134 94.6138 283.782 95.9701C286.43 97.3264 289.788 96.0994 291.79 94.1617C293.082 92.9347 293.986 92.6764 295.148 93.193ZM280.811 72.979C279.778 75.1747 279.003 77.629 279.197 78.1456C279.649 79.2433 282.49 77.9518 283.136 77.629C286.753 76.1434 289.788 72.0748 288.69 68.0062C288.367 66.9082 287.786 66.5854 286.624 66.9082C284.686 67.4248 282.296 69.8791 280.811 72.979ZM302.224 101.201C301.384 101.007 300.997 100.685 300.544 99.8449C300.22 99.1345 300.22 94.2265 300.739 74.7226C300.997 64.7125 300.997 64.5187 302.224 63.7438C303.643 62.9041 305.323 63.4855 305.968 64.9708C306.226 65.6167 306.292 66.1978 306.163 67.5541L306.034 69.3625L307.066 68.0062C309.133 65.2291 312.235 62.9041 315.655 62.1292C320.758 60.9667 324.568 65.0353 326.053 69.427C327.28 73.1728 327.151 77.1769 327.217 81.0517C327.346 88.7368 326.893 98.5534 326.311 99.8449C325.99 100.685 324.892 101.395 323.986 101.395C323.083 101.395 321.985 100.685 321.661 99.7804C321.403 99.1993 321.403 98.5534 321.532 96.0346C321.856 91.5784 322.243 87.0577 322.243 82.537C322.243 78.4684 322.309 73.2373 320.434 69.4915C318.499 65.6167 314.881 67.4248 312.493 69.8146C310.102 72.2041 308.23 76.2727 306.616 82.7953C305.968 85.5079 305.647 89.7703 305.581 95.8408C305.581 97.3264 305.518 98.8762 305.389 99.2638C304.999 100.685 303.643 101.46 302.224 101.201ZM340.684 100.943C340.234 100.685 339.847 100.297 339.718 99.7159C339.328 98.3596 339.457 96.8098 339.394 95.389C339.328 91.5139 339.328 87.5746 339.328 83.6995L339.265 68.2H335.905C333.97 68.2 330.805 68.5873 330.418 66.004C330.289 65.1001 330.61 64.2604 331.255 63.6793C332.353 62.6458 334.486 62.9041 335.905 62.9041H339.136V56.2522C339.136 54.4441 339.136 52.5712 339.199 50.6983C339.265 49.9879 339.265 49.0837 339.718 48.5026C340.168 47.7922 341.137 47.4046 341.977 47.4691C344.755 47.6629 344.431 50.8921 344.431 52.8295C344.497 53.992 344.497 55.0897 344.497 56.2522V62.9041L347.917 62.9689C349.339 62.9689 351.277 62.6458 352.246 64.0666C352.891 65.0353 352.762 66.6499 351.793 67.3603C350.761 68.1352 348.952 67.9417 347.788 68.0062L344.56 68.1352V83.9578C344.56 87.7681 344.626 91.5784 344.56 95.389C344.56 96.8098 344.626 98.4889 344.302 99.9097C343.915 101.46 341.911 101.718 340.684 100.943ZM361.942 101.589C358.453 101.072 355.159 99.4576 353.029 96.8743C352.642 96.4222 352.255 95.9056 352.123 95.3242C351.931 94.2265 352.513 93.1285 353.611 92.6119C354.772 92.0305 355.741 92.3536 357.355 93.8389C359.938 96.2284 363.943 97.1971 367.3 96.0994C371.047 94.9369 372.403 91.5784 370.402 88.1557C369.754 87.0577 368.917 86.089 368.011 85.1848C366.721 83.9578 365.104 82.7308 362.716 81.1162C360.454 79.6309 357.871 78.0163 356.323 75.7561C353.998 72.3976 354.514 67.8769 357.421 65.1001C359.746 62.8396 363.103 61.8709 366.331 62.1937C369.367 62.452 372.337 63.8083 374.341 66.0688C374.662 66.3916 374.923 66.7792 375.181 67.102C375.568 67.6834 375.955 68.329 376.084 69.0394C376.213 69.7498 376.15 70.525 375.697 71.1061C375.052 71.9458 373.759 72.2041 372.727 71.752C371.5 71.2999 370.852 70.0729 369.949 69.2977C368.851 68.2645 367.366 67.5541 365.881 67.3603C363.877 67.102 361.36 67.5541 360.454 69.6208C358.906 73.108 363.814 75.5623 366.01 77.1121C371.242 80.6641 373.759 83.1829 375.439 86.4121C377.635 90.739 376.987 95.0659 373.63 98.3596C370.66 101.266 366.139 102.234 361.942 101.589Z" fill="white"/>
</svg>
