<svg width="296" height="190" viewBox="0 0 296 190" fill="none" xmlns="http://www.w3.org/2000/svg">
<rect y="0.764648" width="296" height="188.364" rx="8.9697" fill="#F4ABAB"/>
<rect y="0.764648" width="296" height="188.364" rx="8.9697" fill="black" fill-opacity="0.05"/>
<path fill-rule="evenodd" clip-rule="evenodd" d="M15.2485 56.5811C12.7716 56.5811 10.7637 58.589 10.7637 61.0659V87.975C10.7637 90.4519 12.7716 92.4598 15.2485 92.4598H280.752C283.228 92.4598 285.236 90.4519 285.236 87.975V61.0659C285.236 58.589 283.228 56.5811 280.752 56.5811H15.2485ZM30.497 83.4404C35.4509 83.4404 39.4667 79.4245 39.4667 74.4707C39.4667 69.5168 35.4509 65.501 30.497 65.501C25.5432 65.501 21.5273 69.5168 21.5273 74.4707C21.5273 79.4245 25.5432 83.4404 30.497 83.4404Z" fill="white" fill-opacity="0.3"/>
<path fill-rule="evenodd" clip-rule="evenodd" d="M15.2485 98.9893C12.7716 98.9893 10.7637 100.997 10.7637 103.474V130.383C10.7637 132.86 12.7716 134.868 15.2485 134.868H280.752C283.228 134.868 285.236 132.86 285.236 130.383V103.474C285.236 100.997 283.228 98.9893 280.752 98.9893H15.2485ZM30.497 125.849C35.4509 125.849 39.4667 121.833 39.4667 116.879C39.4667 111.925 35.4509 107.909 30.497 107.909C25.5432 107.909 21.5273 111.925 21.5273 116.879C21.5273 121.833 25.5432 125.849 30.497 125.849Z" fill="white" fill-opacity="0.3"/>
<path fill-rule="evenodd" clip-rule="evenodd" d="M15.2485 142.383C12.7716 142.383 10.7637 144.391 10.7637 146.868V173.777C10.7637 176.254 12.7716 178.262 15.2485 178.262H280.752C283.228 178.262 285.236 176.254 285.236 173.777V146.868C285.236 144.391 283.228 142.383 280.752 142.383H15.2485ZM30.497 169.243C35.4509 169.243 39.4667 165.227 39.4667 160.273C39.4667 155.319 35.4509 151.303 30.497 151.303C25.5432 151.303 21.5273 155.319 21.5273 160.273C21.5273 165.227 25.5432 169.243 30.497 169.243Z" fill="white" fill-opacity="0.3"/>
<path d="M20.8169 28.4594C21.1183 29.8587 21.1613 30.2031 21.1613 30.9351C21.1829 32.3989 20.7739 33.217 19.8051 33.6906C18.2336 34.5086 16.1455 33.3031 14.8323 32.4635C14.4448 32.2052 13.8851 31.8392 13.6053 31.667C13.3254 31.4948 13.0886 31.3441 13.0671 31.3656C13.0456 31.3656 12.9595 31.7531 12.8733 32.2267C12.6365 33.4322 12.572 33.6475 12.2921 33.8843C12.0123 34.1211 11.5817 34.1642 11.2588 33.9704C11.1512 33.9058 11.022 33.7336 10.9574 33.6044C10.8498 33.3676 10.8498 33.3246 11.022 32.5066C11.1296 32.033 11.3019 31.1073 11.431 30.4615C12.1414 26.5435 13.024 22.4748 13.7344 20.0638C14.5955 17.0069 15.0045 16.1458 15.758 15.8444C16.1024 15.6938 16.3608 15.6938 16.7052 15.866C17.308 16.1458 17.7385 16.8347 18.2552 18.3847C18.7718 19.9131 20.2787 25.8762 20.8169 28.4594ZM19.5468 31.1073C19.6329 30.2031 19.2454 29.1698 19.0301 28.2872C18.7933 27.2539 18.535 26.2421 18.2767 25.2088C17.8677 23.5943 17.4587 21.9582 17.0066 20.3436C16.942 20.1499 16.4899 18.0618 16.2316 18.0618C16.0809 18.0618 15.0476 21.6783 14.5094 24.0894C14.0573 26.0914 13.4115 29.342 13.4331 29.4066C13.5192 29.5358 16.2962 31.3871 16.7913 31.6455C17.4371 31.9468 18.6427 32.7218 19.2239 31.9684C19.4176 31.71 19.5037 31.4302 19.5468 31.1073ZM25.8482 33.7767C24.858 33.5399 23.9754 32.9371 23.3941 32.076C22.2962 30.4184 22.1025 28.3087 22.4469 26.3713C22.7268 24.8213 23.3295 23.1852 24.3844 21.9582C25.0302 21.2047 25.9343 20.6666 26.9461 20.5804C28.001 20.5159 29.0127 20.9895 29.7231 21.7429C30.1537 22.195 30.778 22.9915 30.1967 23.5727C29.8523 23.8956 29.3572 23.6804 28.9912 23.379C28.6468 23.0561 28.3023 22.6901 27.8718 22.4533C27.2475 22.1304 26.451 22.3672 25.9343 22.8408C24.2337 24.3692 23.9538 27.297 24.3198 29.3851C24.5351 30.6767 25.3101 32.1836 26.817 32.2052C27.4843 32.2052 27.8287 32.0545 28.4746 31.4732C28.9912 30.9996 29.2495 30.9135 29.6155 31.0642C30.1537 31.2795 30.3259 31.8823 29.9815 32.3989C29.7447 32.7434 28.9697 33.3461 28.4315 33.5829C27.6135 33.9489 26.6878 34.0135 25.8482 33.7767ZM32.3769 33.6475C32.2908 33.5829 32.1401 33.4322 32.0755 33.3031C31.9248 33.0663 31.9248 32.9371 31.9033 29.4497C31.8602 23.745 32.054 15.2417 32.2477 14.2514C32.3123 13.8639 32.5706 13.5626 32.9151 13.4764C33.2164 13.4119 33.647 13.5841 33.7977 13.8209C33.9699 14.0792 33.9699 14.2084 33.7977 17.7819C33.7546 18.6215 33.7116 20.3652 33.69 21.6783L33.647 24.0463L33.9914 23.4866C34.7879 22.1089 35.3261 21.4415 35.9935 20.9679C37.0483 20.2791 38.3615 20.3006 39.3948 21.0325C40.4066 21.7214 40.9447 22.8193 41.1815 24.0033C41.6121 26.2421 41.6121 28.5671 41.569 30.8274C41.5475 31.4087 41.5475 31.9899 41.5044 32.5711C41.4829 33.0878 41.2461 33.6475 40.6434 33.6475C39.8038 33.6475 39.8468 32.8295 39.8253 32.2267C39.8038 31.4302 39.8038 30.6122 39.8038 29.8156C39.7823 26.5866 39.7392 26.0699 39.5024 24.5845C39.3517 23.7234 38.8351 22.1735 37.7372 22.1735C37.3282 22.1735 37.0052 22.3457 36.5962 22.7762C35.7136 23.6804 34.874 25.4026 34.3359 27.3831C33.9053 28.9976 33.7546 30.074 33.69 32.1406C33.6685 32.9371 33.647 33.1093 33.5178 33.3246C33.281 33.7121 32.7859 33.8412 32.3769 33.6475ZM44.2732 33.8412C44.101 33.7551 43.9288 33.626 43.8857 33.4322C43.8427 33.3246 43.8212 33.1739 43.8212 33.0447C43.7781 32.5066 43.7996 31.9468 43.7996 31.3871C43.8427 27.4907 43.9718 22.0658 44.0364 21.5707C44.101 21.1402 44.1225 21.054 44.3593 20.8388C44.7468 20.4728 45.3281 20.5589 45.6294 21.011C45.7586 21.2263 45.7801 22.0228 45.694 23.379C45.6725 23.7019 45.6294 26.0484 45.6079 28.5671C45.5864 29.7726 45.5864 30.9996 45.5218 32.2052C45.5218 32.6142 45.5433 33.1093 45.3926 33.4968C45.2635 33.8197 44.8114 33.9489 44.4885 33.9058C44.4239 33.8843 44.3378 33.8628 44.2732 33.8412ZM44.5316 19.0951C44.51 19.0735 44.467 19.052 44.4239 19.0305C43.9073 18.686 43.9503 17.9326 44.467 17.5882C44.7038 17.4375 45.1128 17.459 45.3496 17.5882C45.5649 17.7173 45.694 17.9326 45.7371 18.1694C45.8232 18.7076 45.4788 19.1812 44.919 19.1812C44.7899 19.1812 44.6607 19.1596 44.5316 19.0951ZM54.9074 31.0642C55.2087 31.2149 55.381 31.4948 55.381 31.8392C55.381 32.2052 55.2303 32.442 54.7782 32.851C53.7879 33.7551 52.0227 34.1857 50.8818 33.7982C49.8485 33.4322 49.0089 32.7003 48.4492 31.7531C47.3513 29.9018 47.3298 27.4046 47.8895 25.3595C48.3846 23.4651 49.2026 22.1304 50.4727 21.1832C50.6019 21.0971 50.7311 21.011 50.8602 20.9249C52.0658 20.2575 53.5727 20.4082 54.2185 21.7214C54.7567 22.7978 54.5629 24.154 54.0678 25.2303C53.422 26.6942 51.5922 27.8567 49.9346 27.8567H49.3318V27.8782C49.3318 28.3303 49.3533 28.7823 49.4179 29.2344C49.4394 29.3851 49.4825 29.5358 49.504 29.6865C49.7408 30.6337 50.2359 31.5378 51.1186 31.9899C52.0012 32.442 53.1206 32.033 53.7879 31.3871C54.2185 30.9781 54.5199 30.892 54.9074 31.0642ZM50.1283 24.3262C49.7839 25.0581 49.5255 25.8762 49.5901 26.0484C49.7408 26.4143 50.688 25.9838 50.9033 25.8762C52.1088 25.381 53.1206 24.0248 52.7546 22.6686C52.647 22.3026 52.4533 22.195 52.0658 22.3026C51.4199 22.4748 50.6234 23.2929 50.1283 24.3262ZM59.3754 33.626C58.4713 33.1524 57.847 31.7746 57.1366 28.6532C56.8568 27.4261 56.5554 26.2206 56.3616 24.972C56.2755 24.3477 56.1894 23.7234 56.1464 23.0991C56.1033 22.6255 56.0387 22.0874 56.1894 21.6138C56.3616 21.054 57.0505 20.8603 57.481 21.2908C57.7178 21.5276 57.7609 21.7214 57.9116 23.1207C58.0838 24.8213 58.7512 28.1796 59.2893 30.0524C59.5477 30.9566 59.9782 31.9468 60.1504 32.0114C60.3226 32.076 60.4733 31.8823 60.8178 31.1503C61.5497 29.5788 62.174 27.2324 62.9705 22.8408C63.0997 22.1304 63.2719 21.4415 63.3149 21.3339C63.6594 20.6881 64.6496 20.7742 64.8649 21.4631C64.951 21.8075 64.9295 22.0443 64.4128 24.6491C63.2934 30.4399 62.3032 33.0232 60.99 33.669C60.5594 33.8628 59.8275 33.8412 59.3754 33.626ZM73.0079 31.0642C73.3093 31.2149 73.4815 31.4948 73.4815 31.8392C73.4815 32.2052 73.3308 32.442 72.8788 32.851C71.8885 33.7551 70.1233 34.1857 68.9823 33.7982C67.949 33.4322 67.1095 32.7003 66.5497 31.7531C65.4519 29.9018 65.4303 27.4046 65.99 25.3595C66.4852 23.4651 67.3032 22.1304 68.5733 21.1832C68.7025 21.0971 68.8316 21.011 68.9608 20.9249C70.1663 20.2575 71.6732 20.4082 72.3191 21.7214C72.8572 22.7978 72.6635 24.154 72.1684 25.2303C71.5225 26.6942 69.6927 27.8567 68.0351 27.8567H67.4324V27.8782C67.4324 28.3303 67.4539 28.7823 67.5185 29.2344C67.54 29.3851 67.5831 29.5358 67.6046 29.6865C67.8414 30.6337 68.3365 31.5378 69.2191 31.9899C70.1017 32.442 71.2212 32.033 71.8885 31.3871C72.3191 30.9781 72.6204 30.892 73.0079 31.0642ZM68.2289 24.3262C67.8844 25.0581 67.6261 25.8762 67.6907 26.0484C67.8414 26.4143 68.7886 25.9838 69.0039 25.8762C70.2094 25.381 71.2212 24.0248 70.8552 22.6686C70.7476 22.3026 70.5538 22.195 70.1663 22.3026C69.5205 22.4748 68.724 23.2929 68.2289 24.3262ZM75.3663 33.7336C75.0865 33.669 74.9573 33.5614 74.8066 33.2815C74.699 33.0447 74.699 31.4087 74.8712 24.9074C74.9573 21.5707 74.9573 21.5061 75.3663 21.2478C75.8184 20.9679 76.3996 21.1617 76.6149 21.6568C76.701 21.8721 76.701 22.0658 76.6795 22.5179L76.6364 23.1207L76.9809 22.6686C77.9927 21.3124 79.435 20.5374 80.7266 20.6235C81.5662 20.6881 82.3627 21.2478 82.7932 22.0658L82.9655 22.3672C82.9655 22.3672 83.396 22.0012 83.396 21.9797C84.1279 21.3124 85.0536 20.6666 86.0869 20.645C87.5077 20.645 88.5626 21.8721 89.0146 23.0991C89.273 23.745 89.4021 24.5415 89.4452 25.5963C89.4882 26.565 89.3806 30.6552 89.2514 32.3989L89.2299 32.894C89.2084 33.1308 89.1223 33.3461 88.95 33.4968C88.6056 33.7982 88.1751 33.8197 87.8306 33.5399C87.5077 33.26 87.4647 33.0232 87.5508 31.3871C87.5938 30.5906 87.6369 28.7608 87.6369 27.3185C87.6584 25.9838 87.8522 24.3477 87.1202 23.1637C86.7327 22.5179 86.13 22.2811 85.4626 22.6255C84.8168 22.97 84.1925 23.5082 83.8696 24.197L83.6974 24.5415L83.7189 26.9956C83.7404 29.6865 83.5682 32.8725 83.396 33.2815C83.2884 33.5614 82.9224 33.7982 82.621 33.7982C82.3196 33.7982 81.9537 33.5614 81.846 33.26C81.7599 33.0663 81.7599 32.851 81.803 32.0114C82.1474 27.1678 82.0183 24.3908 81.4155 23.1852C81.0711 22.5179 80.8558 22.3672 80.3607 22.4103C79.8225 22.4533 79.3489 22.7116 78.7892 23.2714C77.9927 24.0679 77.3684 25.4241 76.8302 27.5983C76.6149 28.5025 76.5073 29.9233 76.4858 31.9468C76.4858 32.442 76.4642 32.9586 76.4212 33.0878C76.292 33.5614 75.8399 33.8197 75.3663 33.7336ZM98.3824 31.0642C98.6837 31.2149 98.856 31.4948 98.856 31.8392C98.856 32.2052 98.7053 32.442 98.2532 32.851C97.2629 33.7551 95.4977 34.1857 94.3568 33.7982C93.3234 33.4322 92.4839 32.7003 91.9242 31.7531C90.8263 29.9018 90.8048 27.4046 91.3645 25.3595C91.8596 23.4651 92.6776 22.1304 93.9477 21.1832C94.0769 21.0971 94.2061 21.011 94.3352 20.9249C95.5408 20.2575 97.0477 20.4082 97.6935 21.7214C98.2317 22.7978 98.0379 24.154 97.5428 25.2303C96.897 26.6942 95.0672 27.8567 93.4096 27.8567H92.8068V27.8782C92.8068 28.3303 92.8283 28.7823 92.8929 29.2344C92.9144 29.3851 92.9575 29.5358 92.979 29.6865C93.2158 30.6337 93.7109 31.5378 94.5936 31.9899C95.4762 32.442 96.5956 32.033 97.2629 31.3871C97.6935 30.9781 97.9949 30.892 98.3824 31.0642ZM93.6033 24.3262C93.2589 25.0581 93.0005 25.8762 93.0651 26.0484C93.2158 26.4143 94.163 25.9838 94.3783 25.8762C95.5838 25.381 96.5956 24.0248 96.2296 22.6686C96.122 22.3026 95.9282 22.195 95.5408 22.3026C94.8949 22.4748 94.0984 23.2929 93.6033 24.3262ZM100.741 33.7336C100.461 33.669 100.332 33.5614 100.181 33.2815C100.073 33.0447 100.073 31.4087 100.246 24.9074C100.332 21.5707 100.332 21.5061 100.741 21.2478C101.214 20.9679 101.774 21.1617 101.989 21.6568C102.075 21.8721 102.097 22.0658 102.054 22.5179L102.011 23.1207L102.355 22.6686C103.044 21.7429 104.078 20.9679 105.218 20.7096C106.919 20.3221 108.189 21.6783 108.684 23.1422C109.093 24.3908 109.05 25.7255 109.072 27.0171C109.115 29.5788 108.964 32.851 108.77 33.2815C108.663 33.5614 108.297 33.7982 107.995 33.7982C107.694 33.7982 107.328 33.5614 107.22 33.26C107.134 33.0663 107.134 32.851 107.177 32.0114C107.285 30.526 107.414 29.0191 107.414 27.5122C107.414 26.156 107.436 24.4123 106.811 23.1637C106.166 21.8721 104.96 22.4748 104.164 23.2714C103.367 24.0679 102.743 25.4241 102.205 27.5983C101.989 28.5025 101.882 29.9233 101.86 31.9468C101.86 32.442 101.839 32.9586 101.796 33.0878C101.666 33.5614 101.214 33.8197 100.741 33.7336ZM113.561 33.6475C113.411 33.5614 113.282 33.4322 113.239 33.2385C113.109 32.7864 113.152 32.2698 113.131 31.7962C113.109 30.5045 113.109 29.1914 113.109 27.8997L113.088 22.7332H111.968C111.323 22.7332 110.268 22.8623 110.139 22.0012C110.096 21.6999 110.203 21.42 110.418 21.2263C110.784 20.8818 111.495 20.9679 111.968 20.9679H113.045V18.7506C113.045 18.1479 113.045 17.5236 113.066 16.8993C113.088 16.6625 113.088 16.3611 113.239 16.1674C113.389 15.9306 113.712 15.8014 113.992 15.8229C114.918 15.8875 114.81 16.9639 114.81 17.6097C114.832 17.9972 114.832 18.3631 114.832 18.7506V20.9679L115.972 20.9895C116.446 20.9895 117.092 20.8818 117.415 21.3554C117.63 21.6783 117.587 22.2165 117.264 22.4533C116.92 22.7116 116.317 22.6471 115.929 22.6686L114.853 22.7116V27.9858C114.853 29.2559 114.875 30.526 114.853 31.7962C114.853 32.2698 114.875 32.8295 114.767 33.3031C114.638 33.8197 113.97 33.9058 113.561 33.6475ZM120.647 33.8628C119.484 33.6906 118.386 33.1524 117.676 32.2913C117.547 32.1406 117.418 31.9684 117.374 31.7746C117.31 31.4087 117.504 31.0427 117.87 30.8705C118.257 30.6767 118.58 30.7844 119.118 31.2795C119.979 32.076 121.314 32.3989 122.433 32.033C123.682 31.6455 124.134 30.526 123.467 29.3851C123.251 29.0191 122.972 28.6962 122.67 28.3948C122.24 27.9858 121.701 27.5768 120.905 27.0386C120.151 26.5435 119.29 26.0053 118.774 25.2519C117.999 24.1324 118.171 22.6255 119.14 21.6999C119.915 20.9464 121.034 20.6235 122.11 20.7311C123.122 20.8172 124.112 21.2693 124.78 22.0228C124.887 22.1304 124.974 22.2596 125.06 22.3672C125.189 22.561 125.318 22.7762 125.361 23.013C125.404 23.2498 125.383 23.5082 125.232 23.7019C125.017 23.9818 124.586 24.0679 124.242 23.9172C123.833 23.7665 123.617 23.3575 123.316 23.0991C122.95 22.7547 122.455 22.5179 121.96 22.4533C121.292 22.3672 120.453 22.5179 120.151 23.2068C119.635 24.3692 121.271 25.1873 122.003 25.7039C123.747 26.8879 124.586 27.7275 125.146 28.8039C125.878 30.2462 125.662 31.6885 124.543 32.7864C123.553 33.7551 122.046 34.078 120.647 33.8628Z" fill="white"/>
</svg>
