<svg width="200" height="301" viewBox="0 0 200 301" fill="none" xmlns="http://www.w3.org/2000/svg">
<rect y="0.36377" width="200" height="300" rx="9.23077" fill="#E7B545"/>
<rect y="0.36377" width="200" height="300" rx="9.23077" fill="black" fill-opacity="0.04"/>
<rect x="9.23047" y="48.0747" width="181.538" height="30.7692" rx="4.61539" fill="white" fill-opacity="0.2"/>
<path d="M19.6517 69.4959C19.5271 69.4266 19.4302 69.302 19.4025 69.1359C19.3886 69.0113 19.3886 68.8866 19.3748 68.7482C19.3471 68.3051 19.3332 67.8482 19.3194 67.4051C19.3056 66.782 19.2917 66.1728 19.2917 65.5497C19.2779 64.8713 19.2779 64.1928 19.2779 63.5143C19.264 62.8774 19.264 62.2405 19.2779 61.6036C19.2779 61.1051 19.2917 60.6205 19.3056 60.1359C19.3056 60.0113 19.3194 59.8866 19.3332 59.7482C19.4302 58.3359 19.4994 58.0866 19.8456 57.9205C20.2056 57.7405 20.5932 57.9759 20.8286 58.502C20.9948 58.8482 21.604 60.8697 21.8256 61.7836C22.4209 64.3036 22.864 66.0066 22.9332 66.0066C23.044 66.0066 23.7502 63.7082 24.5532 60.6897C24.9132 59.3605 25.2456 58.3774 25.4117 58.1282C25.564 57.9066 25.7994 57.7543 25.9794 57.7543C26.2563 57.7543 26.5471 57.9897 26.6717 58.322C26.8794 58.9036 26.9071 59.5405 26.8656 64.6913C26.8656 65.5636 26.8517 66.4359 26.8517 67.3082C26.8379 67.7651 26.8379 68.2359 26.8379 68.6928C26.8379 68.8313 26.8517 68.9836 26.8379 69.1082C26.7825 69.6205 26.0486 69.6759 25.8132 69.2743C25.744 69.1359 25.744 68.8589 25.744 64.8851C25.744 61.1743 25.744 60.6759 25.6886 60.8697C24.3456 65.6466 24.2071 66.0897 23.9163 66.6159C23.4317 67.4882 22.7394 67.7236 22.2686 67.1697C21.8948 66.7543 21.7148 66.1589 20.7179 62.0605C20.4686 61.0359 20.4548 60.9805 20.4271 61.1743C20.3717 61.4928 20.3717 63.9159 20.4271 66.6436C20.4963 69.4128 20.4963 69.3159 20.1917 69.5097C20.0117 69.6205 19.804 69.5928 19.6517 69.4959Z" fill="white"/>
<rect x="9.23047" y="83.4419" width="181.538" height="30.7692" rx="4.61539" fill="white" fill-opacity="0.2"/>
<path d="M21.5902 105.734C21.4656 105.678 21.3548 105.567 21.3132 105.429C21.2579 105.291 21.2856 105.097 21.2717 104.944C21.2717 104.252 21.2856 103.56 21.2856 102.867C21.2994 102.037 21.3132 101.206 21.3271 100.361C21.3686 97.6059 21.4102 95.2797 21.424 95.1828L21.4517 95.0167L21.064 95.0444C20.0532 95.0997 18.6825 95.0997 18.5302 95.0444C18.3363 94.989 18.1563 94.7397 18.1563 94.5459C18.1563 94.2828 18.3086 94.1028 18.6271 94.0059C18.8071 93.9644 24.7886 93.8536 25.1071 93.8951C25.4256 93.9505 25.7717 94.1997 25.7025 94.5736C25.6471 94.8921 25.3702 94.9613 25.0932 94.989C24.7194 95.0167 24.3317 95.0028 23.9579 95.0167L22.5594 95.0444L22.5317 95.7644C22.5179 96.1659 22.4763 98.4921 22.4486 100.915C22.4071 104.321 22.3794 105.374 22.324 105.484C22.1994 105.789 21.8532 105.858 21.5902 105.734Z" fill="white"/>
<rect x="9.23047" y="118.838" width="181.538" height="30.7692" rx="4.61539" fill="white" fill-opacity="0.2"/>
<path d="M26.2979 140.439C25.7025 140.273 25.1763 139.774 24.8025 139.068C24.4009 138.265 24.0132 137.227 23.764 136.244C23.6532 135.814 23.6117 135.676 23.584 135.759C23.5702 135.828 23.5009 136.188 23.4179 136.562C23.224 137.504 23.0302 138.085 22.6286 138.888C22.1025 139.954 21.7009 140.314 21.0779 140.314C19.9148 140.328 19.444 138.93 19.2779 137.988C18.724 135.081 18.8902 132.187 19.4302 129.113C19.4994 128.781 19.7209 128.393 20.1502 128.49C20.5102 128.573 20.6625 128.891 20.5379 129.307C20.2056 130.345 19.7902 134.471 20.2332 137.213C20.3163 137.711 20.4548 138.224 20.6348 138.694C20.704 138.847 20.7732 139.013 20.9256 139.082C21.604 139.456 22.2132 136.811 22.3102 136.396C22.5456 135.316 22.684 134.222 22.8363 133.142C23.0302 131.716 23.0717 131.591 23.3348 131.481C23.6532 131.342 23.9579 131.453 24.0963 131.758C24.1656 131.896 24.2486 132.339 24.3732 133.253C24.6779 135.385 24.8994 136.341 25.3979 137.614C25.6194 138.196 26.1179 139.636 26.9902 139.29C27.6132 139.041 27.9594 137.434 28.0148 134.458C28.0425 132.838 28.0009 132.09 27.7794 130.567C27.6825 129.971 27.6271 129.431 27.6409 129.348C27.6548 129.279 27.724 129.154 27.8071 129.085C27.9179 128.974 27.9871 128.947 28.1671 128.947C28.3471 128.947 28.4163 128.974 28.5271 129.071C28.5963 129.154 28.6794 129.265 28.7071 129.321C28.7902 129.542 29.0671 131.661 29.1363 132.505C29.164 133.018 29.1779 133.751 29.1502 134.485C29.0671 138.321 28.5686 139.899 27.3502 140.37C27.0317 140.494 26.6025 140.522 26.2979 140.439Z" fill="white"/>
<rect x="9.23047" y="154.217" width="181.538" height="30.7692" rx="4.61539" fill="white" fill-opacity="0.2"/>
<path d="M21.5902 175.749C21.4656 175.693 21.3548 175.583 21.3132 175.444C21.2579 175.306 21.2856 175.112 21.2717 174.96C21.2717 174.267 21.2856 173.575 21.2856 172.883C21.2994 172.052 21.3132 171.221 21.3271 170.376C21.3686 167.621 21.4102 165.295 21.424 165.198L21.4517 165.032L21.064 165.06C20.0532 165.115 18.6825 165.115 18.5302 165.06C18.3363 165.004 18.1563 164.755 18.1563 164.561C18.1563 164.298 18.3086 164.118 18.6271 164.021C18.8071 163.979 24.7886 163.869 25.1071 163.91C25.4256 163.966 25.7717 164.215 25.7025 164.589C25.6471 164.907 25.3702 164.976 25.0932 165.004C24.7194 165.032 24.3317 165.018 23.9579 165.032L22.5594 165.06L22.5317 165.779C22.5179 166.181 22.4763 168.507 22.4486 170.93C22.4071 174.336 22.3794 175.389 22.324 175.5C22.1994 175.804 21.8532 175.873 21.5902 175.749Z" fill="white"/>
<rect x="9.23047" y="189.613" width="181.538" height="30.7692" rx="4.61539" fill="white" fill-opacity="0.2"/>
<path d="M19.624 210.951C19.5132 210.854 19.4579 210.758 19.4163 210.578C19.264 209.885 19.2779 203.627 19.4302 200.968C19.4994 199.75 19.5271 199.667 19.8456 199.501C20.0256 199.404 20.0948 199.404 22.2825 199.39C23.8748 199.376 24.5809 199.39 24.664 199.431C25.0656 199.598 25.1486 200.054 24.844 200.359C24.7609 200.442 24.6363 200.484 24.5117 200.484L23.4871 200.498C22.8086 200.511 21.8948 200.525 21.4379 200.539L20.6071 200.581L20.5794 200.719C20.5517 200.871 20.4686 202.99 20.4686 203.433V203.71H21.9086C23.1271 203.71 23.3625 203.724 23.5009 203.779C23.9025 203.973 23.9163 204.499 23.5286 204.748C23.4179 204.818 23.2517 204.831 21.9363 204.845L20.4548 204.859L20.4409 205.108C20.3856 205.482 20.4548 209.664 20.5102 210.19C20.5517 210.578 20.5517 210.661 20.4825 210.785C20.3302 211.118 19.9009 211.201 19.624 210.951Z" fill="white"/>
<rect x="9.23047" y="224.98" width="181.538" height="30.7692" rx="4.61539" fill="white" fill-opacity="0.2"/>
<path d="M20.2056 246.457C19.6379 246.332 19.3194 246.193 19.2086 246C18.9732 245.626 19.2225 245.183 19.6517 245.183C19.7209 245.183 19.8871 245.224 20.0256 245.266C20.4409 245.418 20.8979 245.473 21.3409 245.446C22.2686 245.39 22.6563 244.933 22.4209 244.158C22.3102 243.812 21.964 243.355 21.3409 242.746C20.1363 241.583 19.5825 241.001 19.3471 240.655C18.4748 239.381 18.3779 238.066 19.0563 236.64C19.8179 235.075 21.9363 234.009 23.4594 235.255C23.9163 235.629 24.3594 236.28 24.3594 236.598C24.3594 236.917 24.124 237.166 23.8056 237.166C23.5702 237.166 23.4179 237.041 23.2517 236.737C23.0717 236.39 22.7394 236.044 22.4763 235.933C21.4794 235.477 20.6071 236.183 20.1502 237.027C19.7486 237.747 19.5825 238.647 19.9148 239.437C20.2609 240.267 21.064 240.89 21.6871 241.513C22.9332 242.76 23.2379 243.12 23.4456 243.673C23.7225 244.435 23.6532 245.141 23.2517 245.723C23.044 246.013 22.6702 246.263 22.2409 246.401C21.7148 246.567 20.8286 246.595 20.2056 246.457Z" fill="white"/>
<rect x="9.23047" y="260.378" width="181.538" height="30.7692" rx="4.61539" fill="white" fill-opacity="0.2"/>
<path d="M20.2056 281.833C19.6379 281.709 19.3194 281.57 19.2086 281.377C18.9732 281.003 19.2225 280.56 19.6517 280.56C19.7209 280.56 19.8871 280.601 20.0256 280.643C20.4409 280.795 20.8979 280.85 21.3409 280.823C22.2686 280.767 22.6563 280.31 22.4209 279.535C22.3102 279.189 21.964 278.732 21.3409 278.123C20.1363 276.96 19.5825 276.378 19.3471 276.032C18.4748 274.758 18.3779 273.443 19.0563 272.017C19.8179 270.452 21.9363 269.386 23.4594 270.632C23.9163 271.006 24.3594 271.657 24.3594 271.975C24.3594 272.293 24.124 272.543 23.8056 272.543C23.5702 272.543 23.4179 272.418 23.2517 272.113C23.0717 271.767 22.7394 271.421 22.4763 271.31C21.4794 270.853 20.6071 271.56 20.1502 272.404C19.7486 273.124 19.5825 274.024 19.9148 274.813C20.2609 275.644 21.064 276.267 21.6871 276.89C22.9332 278.137 23.2379 278.497 23.4456 279.05C23.7225 279.812 23.6532 280.518 23.2517 281.1C23.044 281.39 22.6702 281.64 22.2409 281.778C21.7148 281.944 20.8286 281.972 20.2056 281.833Z" fill="white"/>
<path d="M68.5115 28.5842C68.3454 28.4919 68.2161 28.3257 68.1792 28.1042C68.1608 27.938 68.1608 27.7719 68.1423 27.5873C68.1054 26.9965 68.0869 26.3873 68.0684 25.7965C68.05 24.9657 68.0315 24.1534 68.0315 23.3226C68.0131 22.418 68.0131 21.5134 68.0131 20.6088C67.9946 19.7596 67.9946 18.9103 68.0131 18.0611C68.0131 17.3965 68.0315 16.7503 68.05 16.1042C68.05 15.938 68.0684 15.7719 68.0869 15.5873C68.2161 13.7042 68.3084 13.3719 68.77 13.1503C69.25 12.9103 69.7669 13.2242 70.0808 13.9257C70.3023 14.3873 71.1146 17.0826 71.41 18.3011C72.2038 21.6611 72.7946 23.9319 72.8869 23.9319C73.0346 23.9319 73.9761 20.8673 75.0469 16.8426C75.5269 15.0703 75.97 13.7596 76.1915 13.4273C76.3946 13.1319 76.7084 12.9288 76.9484 12.9288C77.3177 12.9288 77.7054 13.2426 77.8715 13.6857C78.1484 14.4611 78.1854 15.3103 78.13 22.178C78.13 23.3411 78.1115 24.5042 78.1115 25.6673C78.0931 26.2765 78.0931 26.9042 78.0931 27.5134C78.0931 27.698 78.1115 27.9011 78.0931 28.0673C78.0192 28.7503 77.0408 28.8242 76.7269 28.2888C76.6346 28.1042 76.6346 27.7349 76.6346 22.4365C76.6346 17.4888 76.6346 16.8242 76.5608 17.0826C74.77 23.4519 74.5854 24.0426 74.1977 24.7442C73.5515 25.9073 72.6284 26.2211 72.0008 25.4826C71.5023 24.9288 71.2623 24.1349 69.9331 18.6703C69.6008 17.3042 69.5823 17.2303 69.5454 17.4888C69.4715 17.9134 69.4715 21.1442 69.5454 24.7811C69.6377 28.4734 69.6377 28.3442 69.2315 28.6026C68.9915 28.7503 68.7146 28.7134 68.5115 28.5842ZM86.2473 26.0734C86.5058 26.2026 86.6534 26.4426 86.6534 26.738C86.6534 27.0519 86.5242 27.2549 86.1365 27.6057C85.2873 28.3811 83.7734 28.7503 82.795 28.418C81.9088 28.1042 81.1888 27.4765 80.7088 26.6642C79.7673 25.0765 79.7488 22.9349 80.2288 21.1811C80.6534 19.5565 81.355 18.4119 82.4442 17.5996C82.555 17.5257 82.6658 17.4519 82.7765 17.378C83.8104 16.8057 85.1027 16.9349 85.6565 18.0611C86.1181 18.9842 85.9519 20.1473 85.5273 21.0703C84.9734 22.3257 83.4042 23.3226 81.9827 23.3226H81.4658V23.3411C81.4658 23.7288 81.4842 24.1165 81.5396 24.5042C81.5581 24.6334 81.595 24.7626 81.6134 24.8919C81.8165 25.7042 82.2411 26.4796 82.9981 26.8673C83.755 27.2549 84.715 26.9042 85.2873 26.3503C85.6565 25.9996 85.915 25.9257 86.2473 26.0734ZM82.1488 20.2949C81.8534 20.9226 81.6319 21.6242 81.6873 21.7719C81.8165 22.0857 82.6288 21.7165 82.8134 21.6242C83.8473 21.1996 84.715 20.0365 84.4011 18.8734C84.3088 18.5596 84.1427 18.4673 83.8104 18.5596C83.2565 18.7073 82.5734 19.4088 82.1488 20.2949ZM94.4545 23.7473C94.5098 27.4765 94.4914 27.8642 94.3991 28.0488C94.1406 28.5473 93.4206 28.5288 93.1252 28.0303C93.0329 27.8826 93.0145 27.6426 92.9775 26.4796L92.9591 25.1134L92.6268 25.778C91.9806 27.0519 91.316 27.8457 90.5406 28.1965C88.3252 29.2488 87.4021 26.5903 87.236 24.9103C87.0514 22.8611 87.6975 20.2396 88.7683 18.7996C89.5991 17.6734 90.3375 17.2303 91.3898 17.2303C92.0175 17.2303 92.4606 17.3596 93.0145 17.7288C93.9745 18.3565 94.4175 19.4457 94.436 20.5534C94.436 21.0149 94.436 21.4765 94.436 21.938C94.4545 22.5288 94.4545 23.138 94.4545 23.7473ZM92.0175 23.3411C92.6083 21.7534 92.9037 20.7565 92.9037 20.3134C92.9037 19.1688 91.6852 18.3565 90.7806 18.8919C89.5806 19.5934 88.6391 22.178 88.7314 24.4673C88.7498 24.9657 88.8606 26.8119 89.5806 26.8857C89.7283 26.9042 89.8945 26.8488 90.0237 26.7565C91.0945 26.0919 91.6114 24.4488 92.0175 23.3411ZM97.0332 28.2703C96.9039 28.1965 96.7932 28.0857 96.7378 27.9196C96.627 27.3842 96.6639 26.8119 96.6639 26.2765C96.6455 24.7626 96.6639 23.2673 96.6639 21.7534C96.6639 21.5319 96.6639 21.3103 96.6639 21.0888C96.6639 13.5565 96.7008 11.7473 96.8301 11.5073C96.9962 11.1934 97.4578 11.0642 97.827 11.2488C97.9193 11.2857 98.0301 11.4334 98.1039 11.5626C98.1962 11.7842 98.2147 12.1719 98.1778 19.778C98.1593 21.4949 98.1593 23.2119 98.1409 24.9288C98.1409 25.7226 98.1409 26.5349 98.0855 27.3288C98.067 27.5503 98.0855 27.9011 97.9562 28.0857C97.7716 28.3442 97.347 28.3996 97.0332 28.2703ZM110.881 16.9165C111.306 18.578 111.102 20.3688 110.087 21.7719C109.127 23.1196 107.613 23.8211 106.044 24.1903L105.601 24.3011V25.5196C105.601 26.2026 105.638 27.0519 105.675 27.4396C105.73 28.1965 105.693 28.3626 105.379 28.6026C105.213 28.7319 104.826 28.7688 104.586 28.658C104.29 28.5103 104.216 28.2888 104.142 27.0888C104.013 25.0765 104.198 15.5134 104.382 14.1657C104.456 13.7411 104.678 13.2796 104.936 13.1134C105.158 12.9657 106.635 12.9842 107.189 13.1319C108.998 13.6303 110.382 15.0519 110.881 16.9165ZM109.515 19.3534C109.866 17.4703 108.961 15.2919 107.041 14.6642C106.764 14.5534 106.45 14.498 106.229 14.498H105.859L105.822 15.0703C105.693 17.1196 105.564 22.7688 105.656 22.7688C105.693 22.7688 105.933 22.6949 106.192 22.6211C106.912 22.3811 107.632 22.0673 108.222 21.5873C108.924 21.0149 109.349 20.2211 109.515 19.3534ZM113.043 28.2703C112.914 28.1965 112.803 28.0857 112.747 27.9196C112.637 27.3842 112.674 26.8119 112.674 26.2765C112.655 24.7626 112.674 23.2673 112.674 21.7534C112.674 21.5319 112.674 21.3103 112.674 21.0888C112.674 13.5565 112.71 11.7473 112.84 11.5073C113.006 11.1934 113.467 11.0642 113.837 11.2488C113.929 11.2857 114.04 11.4334 114.114 11.5626C114.206 11.7842 114.224 12.1719 114.187 19.778C114.169 21.4949 114.169 23.2119 114.15 24.9288C114.15 25.7226 114.15 26.5349 114.095 27.3288C114.077 27.5503 114.095 27.9011 113.966 28.0857C113.781 28.3442 113.357 28.3996 113.043 28.2703ZM123.102 23.7473C123.158 27.4765 123.139 27.8642 123.047 28.0488C122.788 28.5473 122.068 28.5288 121.773 28.0303C121.681 27.8826 121.662 27.6426 121.625 26.4796L121.607 25.1134L121.275 25.778C120.628 27.0519 119.964 27.8457 119.188 28.1965C116.973 29.2488 116.05 26.5903 115.884 24.9103C115.699 22.8611 116.345 20.2396 117.416 18.7996C118.247 17.6734 118.985 17.2303 120.038 17.2303C120.665 17.2303 121.108 17.3596 121.662 17.7288C122.622 18.3565 123.065 19.4457 123.084 20.5534C123.084 21.0149 123.084 21.4765 123.084 21.938C123.102 22.5288 123.102 23.138 123.102 23.7473ZM120.665 23.3411C121.256 21.7534 121.552 20.7565 121.552 20.3134C121.552 19.1688 120.333 18.3565 119.428 18.8919C118.228 19.5934 117.287 22.178 117.379 24.4673C117.398 24.9657 117.508 26.8119 118.228 26.8857C118.376 26.9042 118.542 26.8488 118.672 26.7565C119.742 26.0919 120.259 24.4488 120.665 23.3411ZM125.626 28.3626C125.386 28.3073 125.275 28.2149 125.146 27.9749C125.053 27.7719 125.053 26.3688 125.201 20.7934C125.275 17.9319 125.275 17.8765 125.626 17.6549C126.032 17.4149 126.512 17.5811 126.696 18.0057C126.77 18.1903 126.789 18.3565 126.752 18.7442L126.715 19.2611L127.01 18.8734C127.601 18.0796 128.487 17.4149 129.466 17.1934C130.924 16.8611 132.013 18.0242 132.438 19.2796C132.789 20.3503 132.752 21.4949 132.77 22.6026C132.807 24.7996 132.678 27.6057 132.512 27.9749C132.419 28.2149 132.106 28.418 131.847 28.418C131.589 28.418 131.275 28.2149 131.183 27.9565C131.109 27.7903 131.109 27.6057 131.146 26.8857C131.238 25.6119 131.349 24.3196 131.349 23.0273C131.349 21.8642 131.367 20.3688 130.832 19.298C130.278 18.1903 129.244 18.7073 128.561 19.3903C127.878 20.0734 127.343 21.2365 126.881 23.1011C126.696 23.8765 126.604 25.0949 126.586 26.8303C126.586 27.2549 126.567 27.698 126.53 27.8088C126.419 28.2149 126.032 28.4365 125.626 28.3626Z" fill="white"/>
</svg>
