<svg width="312" height="75" viewBox="0 0 312 75" fill="none" xmlns="http://www.w3.org/2000/svg">
<path d="M0 0.999558C0 0.737684 0.212291 0.525391 0.474164 0.525391H310.811C311.239 0.525391 311.448 1.04874 311.137 1.34361L273.363 37.1661C273.166 37.3531 273.166 37.6673 273.363 37.8542L311.137 73.6768C311.448 73.9716 311.239 74.495 310.811 74.495H0.474159C0.212285 74.495 0 74.2827 0 74.0208V0.999558Z" fill="#F4ABAB"/>
<path d="M263.392 36.5152C262.799 37.0937 262.799 38.0468 263.392 38.6252L264.679 39.8811L265.377 39.1655L267.951 41.6773L267.252 42.393L269.826 44.9048L270.525 44.1892L273.098 46.701L272.4 47.4166L274.973 49.9285L275.672 49.2128L278.246 51.7246L277.547 52.4403L280.121 54.9521L280.819 54.2365L283.393 56.7483L282.695 57.464L285.268 59.9758L285.967 59.2601L288.54 61.772L287.842 62.4876L290.416 64.9995L291.114 64.2838L293.688 66.7956L292.989 67.5113L293.352 67.8651H292.748V68.8651H288.958V67.8651H285.167V68.8651H281.377V67.8651H277.586V68.8651H273.796V67.8651H270.005V68.8651H266.215V67.8651H262.424V68.8651H258.634V67.8651H254.843V68.8651H251.053V67.8651H247.263V68.8651H243.472V67.8651H239.682V68.8651H235.891V67.8651H232.101V68.8651H228.31V67.8651H224.52V68.8651H220.729V67.8651H216.939V68.8651H213.148V67.8651H209.358V68.8651H205.567V67.8651H201.777V68.8651H197.986V67.8651H194.196V68.8651H190.406V67.8651H186.615V68.8651H182.825V67.8651H179.034V68.8651H175.244V67.8651H171.453V68.8651H167.663V67.8651H163.872V68.8651H160.082V67.8651H156.291V68.8651H152.501V67.8651H148.71V68.8651H144.92V67.8651H141.129V68.8651H137.339V67.8651H133.549V68.8651H129.758V67.8651H125.968V68.8651H122.177V67.8651H118.387V68.8651H114.596V67.8651H110.806V68.8651H107.015V67.8651H103.225V68.8651H99.4343V67.8651H95.6439V68.8651H91.8534V67.8651H88.0629V68.8651H84.2725V67.8651H80.482V68.8651H76.6915V67.8651H72.9011V68.8651H69.1106V67.8651H65.3201V68.8651H61.5297V67.8651H57.7392V68.8651H53.9487V67.8651H50.1583V68.8651H46.3678V67.8651H42.5773V68.8651H38.7869V67.8651H34.9964V68.8651H31.2059V67.8651H27.4155V68.8651H23.625V67.8651H19.8345V68.8651H16.0441V67.8651H12.2536V68.8651H8.46313V67.8651H7.09375V66.4646H6.09375V62.612H7.09375V58.7594H6.09375V54.9069H7.09375V51.0543H6.09375V47.2017H7.09375V43.3491H6.09375V39.4965H7.09375V35.6439H6.09375V31.7913H7.09375V27.9388H6.09375V24.0862H7.09375V20.2336H6.09375V16.381H7.09375V12.5284H6.09375V8.67584H7.09375V7.27539H8.46315V6.27539H12.2536V7.27539H16.0441V6.27539H19.8345V7.27539H23.625V6.27539H27.4155V7.27539H31.2059V6.27539H34.9964V7.27539H38.7869V6.27539H42.5773V7.27539H46.3678V6.27539H50.1583V7.27539H53.9487V6.27539H57.7392V7.27539H61.5297V6.27539H65.3201V7.27539H69.1106V6.27539H72.9011V7.27539H76.6915V6.27539H80.482V7.27539H84.2725V6.27539H88.0629V7.27539H91.8534V6.27539H95.6439V7.27539H99.4343V6.27539H103.225V7.27539H107.015V6.27539H110.806V7.27539H114.596V6.27539H118.387V7.27539H122.177V6.27539H125.968V7.27539H129.758V6.27539H133.549V7.27539H137.339V6.27539H141.129V7.27539H144.92V6.27539H148.71V7.27539H152.501V6.27539H156.291V7.27539H160.082V6.27539H163.872V7.27539H167.663V6.27539H171.453V7.27539H175.244V6.27539H179.034V7.27539H182.825V6.27539H186.615V7.27539H190.406V6.27539H194.196V7.27539H197.986V6.27539H201.777V7.27539H205.567V6.27539H209.358V7.27539H213.148V6.27539H216.939V7.27539H220.729V6.27539H224.52V7.27539H228.31V6.27539H232.101V7.27539H235.891V6.27539H239.682V7.27539H243.472V6.27539H247.263V7.27539H251.053V6.27539H254.843V7.27539H258.634V6.27539H262.424V7.27539H266.215V6.27539H270.005V7.27539H273.796V6.27539H277.586V7.27539H281.377V6.27539H285.167V7.27539H288.958V6.27539H292.748V7.27539H293.352L292.989 7.62916L293.688 8.34481L291.114 10.8566L290.416 10.141L287.842 12.6528L288.54 13.3685L285.967 15.8803L285.268 15.1647L282.695 17.6765L283.393 18.3921L280.819 20.904L280.121 20.1883L277.547 22.7002L278.246 23.4158L275.672 25.9276L274.973 25.212L272.4 27.7238L273.098 28.4395L270.525 30.9513L269.826 30.2357L267.252 32.7475L267.951 33.4631L265.377 35.975L264.679 35.2593L263.392 36.5152Z" stroke="white" stroke-width="2" stroke-dasharray="3.79 3.79"/>
</svg>
