<svg width="312" height="75" viewBox="0 0 312 75" fill="none" xmlns="http://www.w3.org/2000/svg">
<path d="M0 1.43169C0 1.16981 0.212291 0.95752 0.474164 0.95752H310.811C311.239 0.95752 311.448 1.48087 311.137 1.77574L273.363 37.5983C273.166 37.7853 273.166 38.0994 273.363 38.2864L311.137 74.1089C311.448 74.4038 311.239 74.9271 310.811 74.9271H0.474159C0.212285 74.9271 0 74.7148 0 74.453V1.43169Z" fill="#EEC872"/>
<path d="M263.392 36.9474C262.799 37.5258 262.799 38.4789 263.392 39.0573L264.679 40.3133L265.377 39.5976L267.951 42.1094L267.252 42.8251L269.826 45.3369L270.525 44.6213L273.098 47.1331L272.4 47.8488L274.973 50.3606L275.672 49.6449L278.246 52.1568L277.547 52.8724L280.121 55.3843L280.819 54.6686L283.393 57.1804L282.695 57.8961L285.268 60.4079L285.967 59.6923L288.54 62.2041L287.842 62.9198L290.416 65.4316L291.114 64.7159L293.688 67.2278L292.989 67.9434L293.352 68.2972H292.748V69.2972H288.958V68.2972H285.167V69.2972H281.377V68.2972H277.586V69.2972H273.796V68.2972H270.005V69.2972H266.215V68.2972H262.424V69.2972H258.634V68.2972H254.843V69.2972H251.053V68.2972H247.263V69.2972H243.472V68.2972H239.682V69.2972H235.891V68.2972H232.101V69.2972H228.31V68.2972H224.52V69.2972H220.729V68.2972H216.939V69.2972H213.148V68.2972H209.358V69.2972H205.567V68.2972H201.777V69.2972H197.986V68.2972H194.196V69.2972H190.406V68.2972H186.615V69.2972H182.825V68.2972H179.034V69.2972H175.244V68.2972H171.453V69.2972H167.663V68.2972H163.872V69.2972H160.082V68.2972H156.291V69.2972H152.501V68.2972H148.71V69.2972H144.92V68.2972H141.129V69.2972H137.339V68.2972H133.549V69.2972H129.758V68.2972H125.968V69.2972H122.177V68.2972H118.387V69.2972H114.596V68.2972H110.806V69.2972H107.015V68.2972H103.225V69.2972H99.4343V68.2972H95.6439V69.2972H91.8534V68.2972H88.0629V69.2972H84.2725V68.2972H80.482V69.2972H76.6915V68.2972H72.9011V69.2972H69.1106V68.2972H65.3201V69.2972H61.5297V68.2972H57.7392V69.2972H53.9487V68.2972H50.1583V69.2972H46.3678V68.2972H42.5773V69.2972H38.7869V68.2972H34.9964V69.2972H31.2059V68.2972H27.4155V69.2972H23.625V68.2972H19.8345V69.2972H16.0441V68.2972H12.2536V69.2972H8.46313V68.2972H7.09375V66.8967H6.09375V63.0442H7.09375V59.1916H6.09375V55.339H7.09375V51.4864H6.09375V47.6338H7.09375V43.7812H6.09375V39.9286H7.09375V36.0761H6.09375V32.2235H7.09375V28.3709H6.09375V24.5183H7.09375V20.6657H6.09375V16.8131H7.09375V12.9606H6.09375V9.10797H7.09375V7.70752H8.46315V6.70752H12.2536V7.70752H16.0441V6.70752H19.8345V7.70752H23.625V6.70752H27.4155V7.70752H31.2059V6.70752H34.9964V7.70752H38.7869V6.70752H42.5773V7.70752H46.3678V6.70752H50.1583V7.70752H53.9487V6.70752H57.7392V7.70752H61.5297V6.70752H65.3201V7.70752H69.1106V6.70752H72.9011V7.70752H76.6915V6.70752H80.482V7.70752H84.2725V6.70752H88.0629V7.70752H91.8534V6.70752H95.6439V7.70752H99.4343V6.70752H103.225V7.70752H107.015V6.70752H110.806V7.70752H114.596V6.70752H118.387V7.70752H122.177V6.70752H125.968V7.70752H129.758V6.70752H133.549V7.70752H137.339V6.70752H141.129V7.70752H144.92V6.70752H148.71V7.70752H152.501V6.70752H156.291V7.70752H160.082V6.70752H163.872V7.70752H167.663V6.70752H171.453V7.70752H175.244V6.70752H179.034V7.70752H182.825V6.70752H186.615V7.70752H190.406V6.70752H194.196V7.70752H197.986V6.70752H201.777V7.70752H205.567V6.70752H209.358V7.70752H213.148V6.70752H216.939V7.70752H220.729V6.70752H224.52V7.70752H228.31V6.70752H232.101V7.70752H235.891V6.70752H239.682V7.70752H243.472V6.70752H247.263V7.70752H251.053V6.70752H254.843V7.70752H258.634V6.70752H262.424V7.70752H266.215V6.70752H270.005V7.70752H273.796V6.70752H277.586V7.70752H281.377V6.70752H285.167V7.70752H288.958V6.70752H292.748V7.70752H293.352L292.989 8.06128L293.688 8.77694L291.114 11.2888L290.416 10.5731L287.842 13.085L288.54 13.8006L285.967 16.3124L285.268 15.5968L282.695 18.1086L283.393 18.8243L280.819 21.3361L280.121 20.6205L277.547 23.1323L278.246 23.8479L275.672 26.3598L274.973 25.6441L272.4 28.1559L273.098 28.8716L270.525 31.3834L269.826 30.6678L267.252 33.1796L267.951 33.8953L265.377 36.4071L264.679 35.6914L263.392 36.9474Z" stroke="white" stroke-width="2" stroke-dasharray="3.79 3.79"/>
</svg>
