<svg width="888" height="273" viewBox="0 0 888 273" fill="none" xmlns="http://www.w3.org/2000/svg">
<path d="M24.9638 194.03C36.2112 194.03 37.3086 191.835 69.4047 181.685C88.3335 175.924 111.925 164.403 125.642 150.686C130.854 145.474 136.066 139.713 131.128 133.678C126.739 128.466 120.43 129.837 113.297 136.97C105.89 144.377 97.3863 150.686 87.2361 154.801C85.8645 155.35 84.2184 156.173 81.7497 156.996C82.8468 154.801 83.67 152.881 84.7671 150.961L89.7051 141.085C94.0944 132.306 96.0147 124.351 96.0147 113.103C96.0147 103.776 93.5457 95.5464 86.4132 91.1571C77.6346 85.6707 66.6615 89.2368 57.3345 95.5464C57.3345 95.2719 63.3696 85.9449 65.8386 82.3788C76.263 66.7419 83.1213 49.7337 86.6874 32.451C90.528 13.5225 79.5549 -4.58313 61.1751 4.19535C49.3788 9.40758 36.2112 26.9645 28.5301 43.9728C18.6543 65.3703 12.3447 88.9626 8.22981 116.121C6.03519 130.935 4.11492 146.846 0 180.039C0 187.721 1.64596 192.658 11.5217 192.658C12.8934 192.658 13.9907 192.658 15.088 192.933C18.3799 193.756 21.6719 194.03 24.9638 194.03ZM29.9017 99.9357C26.6098 99.9357 44.7153 51.654 51.0249 40.6809C55.4142 33.5484 64.7412 22.0266 68.0331 22.0266C69.1305 22.0266 68.8563 28.3362 67.4844 33.5484C63.9183 45.8931 59.2548 58.5123 51.5736 70.857C46.3614 79.0866 31.2732 99.9357 29.9017 99.9357ZM21.9462 172.907C21.9462 162.482 45.5385 131.483 58.9803 118.041C63.0954 113.926 72.1482 107.617 75.4401 107.617C77.6346 107.617 77.9091 112.28 77.9091 114.475C77.9091 116.944 77.0859 121.333 76.263 124.625C72.1482 139.164 64.7412 151.235 55.1397 161.111C47.4585 169.066 31.8219 174.278 21.9462 172.907Z" fill="#5A8551"/>
<path d="M143.046 195.401C158.957 195.401 185.566 176.746 186.938 163.578C186.938 159.189 185.018 155.074 178.983 155.074C168.558 155.349 156.213 177.569 143.868 177.295C135.364 177.295 130.975 167.419 132.072 155.897C132.347 153.154 133.444 152.057 135.913 151.234C151.275 146.021 164.717 137.517 177.611 121.332C181.726 116.12 184.743 110.359 186.115 104.324C189.681 89.7843 179.257 77.4396 164.443 77.9883C137.01 79.3599 112.869 129.013 113.692 164.402C114.241 180.038 125.763 195.401 143.046 195.401ZM140.302 129.836C139.754 130.11 138.656 130.385 139.205 129.013C144.966 117.491 149.629 108.439 156.488 101.58C161.7 96.3681 168.009 94.7223 168.009 99.3858C168.009 108.164 152.921 123.527 140.302 129.836Z" fill="#5A8551"/>
<path d="M279.641 262.885C287.322 253.558 296.924 230.788 302.136 214.603C304.881 205.825 307.074 200.338 308.172 197.046C308.994 194.852 309.27 194.577 310.914 195.675C330.942 207.745 364.683 188.816 380.595 163.853C382.515 160.835 384.159 157.817 385.533 155.074C386.628 152.605 388.275 151.782 391.017 151.508C407.205 149.588 420.372 148.216 423.939 147.119C428.328 145.747 430.521 141.632 429.972 137.791C428.328 127.367 417.903 129.836 397.053 132.305C393.762 132.579 394.035 130.933 394.86 118.04C394.86 102.129 384.435 90.8817 369.894 92.2533C360.018 93.0762 351.789 97.191 341.364 103.501C336.426 106.518 334.782 107.616 336.426 104.324C338.895 98.2884 338.895 89.5101 331.488 87.3153C322.71 84.2979 321.066 91.4304 317.499 102.129C315.303 109.261 313.383 116.668 311.19 124.075C309.543 129.562 307.074 134.774 303.234 139.986C283.756 166.322 269.217 191.285 258.518 217.347C253.031 230.788 247.27 249.717 250.014 260.69C253.306 274.955 269.217 276.327 279.641 262.885ZM322.71 153.703C320.241 153.977 325.728 141.083 328.746 138.066C340.815 125.995 360.567 110.633 370.992 110.633C374.283 110.633 376.479 112.279 376.479 117.491C376.479 120.783 376.479 124.35 375.657 127.093C373.461 134.774 374.01 135.048 366.603 136.42C359.196 137.791 330.393 153.154 322.71 153.703ZM324.906 181.135C323.259 181.135 320.241 179.764 319.968 178.666C319.146 175.649 358.098 156.172 361.941 156.72C363.312 156.994 362.214 158.092 357.825 162.755C346.029 175.1 335.055 181.135 324.906 181.135ZM269.217 245.053C269.491 243.408 269.765 241.762 270.314 240.116C274.703 226.674 279.916 212.409 288.694 196.223C277.447 230.788 277.721 230.788 269.217 245.053Z" fill="#5A8551"/>
<path d="M436.827 193.207C449.169 193.207 463.983 183.606 473.037 171.261C485.931 153.43 490.32 135.873 486.204 117.767C484.011 108.166 480.168 95.5466 467.001 91.1573C466.179 90.8831 465.357 90.3344 464.808 89.5115C454.656 79.3613 441.216 87.5912 430.242 101.033C417.897 116.121 410.766 134.227 410.766 161.385C410.766 177.022 420.093 193.207 436.827 193.207ZM438.198 174.553C431.889 175.376 429.144 169.615 429.144 163.854C429.144 143.28 441.765 104.325 454.656 104.325C462.339 104.325 469.197 120.511 469.197 133.678C469.197 151.235 453.012 172.907 438.198 174.553Z" fill="#5A8551"/>
<path d="M529.615 196.223C555.127 196.223 574.054 182.232 586.675 161.384C596.551 144.924 605.878 118.04 605.878 102.403C605.878 91.9787 603.682 82.9259 595.453 80.7314C592.435 79.9085 588.868 80.1827 586.126 82.103C584.206 83.4746 547.444 115.022 547.444 115.022C543.055 118.314 538.393 120.783 533.179 122.429C515.074 127.916 498.34 139.437 492.304 155.349C484.075 178.118 501.907 196.223 529.615 196.223ZM574.33 118.314C573.781 118.314 573.232 118.04 574.054 117.217C578.719 112.553 580.363 111.456 583.93 107.89C587.497 104.324 586.948 106.244 586.399 110.084C585.028 120.509 581.188 118.314 574.33 118.314ZM527.419 177.569C515.623 178.118 506.023 170.985 509.863 161.109C513.427 152.331 524.128 144.65 535.924 140.809C545.524 137.517 577.621 134.774 577.621 138.066C577.621 140.26 572.956 148.764 571.036 151.782C560.887 168.516 546.895 176.472 527.419 177.569Z" fill="#5A8551"/>
<path d="M649.814 54.1235C654.479 54.1235 658.592 50.0084 658.592 45.0707C658.592 40.6814 654.479 36.8408 649.814 36.8408C645.152 36.8408 641.309 40.9556 641.309 45.6194C641.309 50.2829 645.152 54.1235 649.814 54.1235ZM615.797 196.774C622.106 196.774 623.48 191.013 624.851 184.978C629.24 165.226 633.629 145.474 639.665 127.095C642.407 118.591 647.621 99.6617 647.621 95.8211C647.621 90.6089 644.054 86.7683 639.389 85.9454C630.338 84.848 629.513 93.3524 626.495 104.051L621.56 122.157C616.622 140.262 610.31 158.642 607.292 177.022C605.648 187.172 605.372 196.774 615.797 196.774Z" fill="#5A8551"/>
<path d="M666.085 208.569C673.216 208.569 678.976 201.162 673.492 194.304C669.103 188.543 668.554 181.96 668.827 175.376C669.376 164.951 670.747 153.704 671.845 140.262C672.118 136.97 673.765 135.049 676.234 133.404C684.739 127.917 692.146 121.607 698.179 115.846C712.171 102.405 722.869 88.1394 731.101 72.7773C733.021 69.2109 735.763 67.8393 739.879 67.8393C747.01 67.8393 754.144 67.5651 761.002 67.5651C771.973 67.5651 777.736 65.6448 777.736 58.2378C777.736 48.9108 767.038 49.4595 756.064 49.4595H744.817C742.348 49.4595 742.348 48.6363 742.621 46.9905C746.188 30.5307 747.559 26.9645 744.268 18.7347C740.701 9.40757 732.196 5.29265 722.596 8.58458C709.702 12.9738 695.71 30.5307 685.561 46.716C684.463 48.6363 683.092 49.7337 680.899 49.7337H641.119C632.617 49.7337 626.032 52.4769 626.581 59.6094C627.13 65.919 632.89 68.388 639.475 68.388H668.005C674.863 68.388 673.765 68.1135 671.572 73.8744C663.34 94.1748 657.031 115.298 653.74 138.89C650.446 162.482 648.253 184.154 655.111 200.339C656.758 204.18 660.049 208.569 666.085 208.569ZM708.055 49.4595C706.684 49.4595 706.411 49.185 706.96 48.0876C711.349 39.5835 717.658 32.7255 724.789 28.0618C725.614 27.5132 727.258 26.9645 727.258 29.4335C727.258 35.4687 725.065 40.9551 722.869 47.2647C722.32 48.9108 721.225 49.4595 719.851 49.4595H708.055ZM678.976 108.165C680.35 102.405 688.852 79.9098 691.87 73.8744C693.79 69.7596 695.986 68.1135 699.277 68.1135C707.782 67.8393 714.091 68.1135 709.975 73.0515C703.942 80.4585 693.79 97.7409 678.976 108.165Z" fill="#5A8551"/>
<path d="M745.238 54.1235C749.903 54.1235 754.019 50.0084 754.019 45.0707C754.019 40.6814 749.903 36.8408 745.238 36.8408C740.576 36.8408 736.736 40.9556 736.736 45.6194C736.736 50.2829 740.576 54.1235 745.238 54.1235ZM711.224 196.774C717.533 196.774 718.904 191.013 720.275 184.978C724.664 165.226 729.053 145.474 735.089 127.095C737.834 118.591 743.045 99.6617 743.045 95.8211C743.045 90.6089 739.478 86.7683 734.816 85.9454C725.762 84.848 724.94 93.3524 721.922 104.051L716.984 122.157C712.046 140.262 705.737 158.642 702.719 177.022C701.072 187.172 700.799 196.774 711.224 196.774Z" fill="#5A8551"/>
<path d="M761.234 195.677C767.816 195.677 773.303 188.27 780.161 174.828L816.647 103.229C819.389 97.4678 821.036 91.1582 814.727 87.3176C808.691 83.7515 802.931 88.415 799.364 96.9191C786.197 122.98 771.656 150.687 766.172 161.66C765.074 155.899 768.365 99.6623 768.365 93.353C768.365 85.3973 764.525 80.1851 758.489 80.4596C754.649 80.7338 751.907 82.9283 750.809 87.3176C748.889 94.7246 748.064 141.634 747.791 174.279C747.791 184.978 751.631 195.677 761.234 195.677Z" fill="#5A8551"/>
<path d="M844.107 195.401C860.019 195.401 886.629 176.746 888 163.578C888 159.189 886.08 155.074 880.044 155.074C869.619 155.349 857.274 177.569 844.932 177.295C836.427 177.295 832.038 167.419 833.136 155.897C833.409 153.154 834.507 152.057 836.976 151.234C852.336 146.021 865.779 137.517 878.673 121.332C882.789 116.12 885.804 110.359 887.178 104.324C890.742 89.7843 880.32 77.4396 865.506 77.9883C838.071 79.3599 813.933 129.013 814.755 164.402C815.304 180.038 826.824 195.401 844.107 195.401ZM841.365 129.836C840.816 130.11 839.718 130.385 840.267 129.013C846.027 117.491 850.692 108.439 857.55 101.58C862.761 96.3681 869.07 94.7223 869.07 99.3858C869.07 108.164 853.983 123.527 841.365 129.836Z" fill="#5A8551"/>
</svg>
