<svg width="296" height="91" viewBox="0 0 296 91" fill="none" xmlns="http://www.w3.org/2000/svg">
<path d="M8.32126 64.6766C12.0704 64.6766 12.4362 63.9451 23.1349 60.5617C29.4445 58.6414 37.3085 54.8009 41.8807 50.2287C43.6181 48.4913 45.3555 46.571 43.7095 44.5593C42.2464 42.8219 40.1432 43.2791 37.7657 45.6566C35.2968 48.1256 32.4621 50.2287 29.0787 51.6004C28.6215 51.7833 28.0728 52.0576 27.2499 52.3319C27.6156 51.6004 27.89 50.9603 28.2557 50.3202L29.9017 47.0282C31.3648 44.1021 32.0049 41.4503 32.0049 37.7011C32.0049 34.5921 31.1819 31.8488 28.8044 30.3857C25.8782 28.5569 22.2205 29.7456 19.1115 31.8488C19.1115 31.7573 21.1232 28.6483 21.9462 27.4596C25.421 22.2473 27.7071 16.5779 28.8958 10.817C30.176 4.5075 26.5183 -1.52771 20.3917 1.39845C16.4596 3.13586 12.0704 8.98818 9.51002 14.6576C6.21809 21.7901 4.11491 29.6542 2.74327 38.707C2.01173 43.6449 1.37164 48.9485 0 60.0131C0 62.5735 0.548655 64.2194 3.84058 64.2194C4.2978 64.2194 4.66357 64.2194 5.02934 64.3109C6.12665 64.5852 7.22395 64.6766 8.32126 64.6766ZM9.96723 33.3119C8.86992 33.3119 14.9051 17.218 17.0083 13.5603C18.4714 11.1828 21.5804 7.34221 22.6777 7.34221C23.0435 7.34221 22.9521 9.44539 22.4948 11.1828C21.3061 15.2977 19.7516 19.5041 17.1912 23.619C15.4538 26.3622 10.4244 33.3119 9.96723 33.3119ZM7.3154 57.6356C7.3154 54.1608 15.1795 43.8278 19.6601 39.3471C21.0318 37.9754 24.0494 35.8723 25.1467 35.8723C25.8782 35.8723 25.9697 37.4268 25.9697 38.1583C25.9697 38.9813 25.6953 40.4444 25.421 41.5417C24.0494 46.3881 21.5804 50.4116 18.3799 53.7035C15.8195 56.3554 10.6073 58.0928 7.3154 57.6356Z" fill="#5A8551"/>
<path d="M47.6819 65.1339C52.9856 65.1339 61.8555 58.9158 62.3127 54.5265C62.3127 53.0634 61.6726 51.6918 59.6609 51.6918C56.186 51.7833 52.0711 59.1901 47.9562 59.0987C45.1215 59.0987 43.6584 55.8067 44.0242 51.9661C44.1156 51.0517 44.4814 50.6859 45.3044 50.4116C50.4252 48.6742 54.9058 45.8395 59.2036 40.4444C60.5753 38.707 61.5812 36.7867 62.0384 34.775C63.2271 29.9285 59.7523 25.8136 54.8144 25.9965C45.6702 26.4537 37.6232 43.0048 37.8975 54.8009C38.0804 60.0131 41.921 65.1339 47.6819 65.1339ZM46.7675 43.2791C46.5846 43.3705 46.2188 43.462 46.4017 43.0048C48.322 39.1642 49.8765 36.1466 52.1626 33.8605C53.9 32.1231 56.0032 31.5745 56.0032 33.129C56.0032 36.0551 50.9738 41.1759 46.7675 43.2791Z" fill="#5A8551"/>
<path d="M93.2138 87.6287C95.7742 84.5197 98.9747 76.9299 100.712 71.5348C101.627 68.6087 102.358 66.7798 102.724 65.6825C102.998 64.951 103.09 64.8595 103.638 65.2253C110.314 69.2488 121.561 62.9392 126.865 54.618C127.505 53.6121 128.053 52.6062 128.511 51.6918C128.876 50.8688 129.425 50.5945 130.339 50.5031C135.735 49.863 140.124 49.4058 141.313 49.04C142.776 48.5828 143.507 47.2111 143.324 45.9309C142.776 42.4561 139.301 43.2791 132.351 44.1021C131.254 44.1935 131.345 43.6449 131.62 39.3471C131.62 34.0434 128.145 30.2943 123.298 30.7515C120.006 31.0258 117.263 32.3974 113.788 34.5006C112.142 35.5065 111.594 35.8723 112.142 34.775C112.965 32.7632 112.965 29.8371 110.496 29.1055C107.57 28.0997 107.022 30.4772 105.833 34.0434C105.101 36.4209 104.461 38.8899 103.73 41.3588C103.181 43.1877 102.358 44.9251 101.078 46.6625C94.5855 55.441 89.739 63.7622 86.1727 72.4493C84.3439 76.9299 82.4236 83.2395 83.338 86.8972C84.4353 91.6522 89.739 92.1094 93.2138 87.6287ZM107.57 51.2346C106.747 51.326 108.576 47.0282 109.582 46.0224C113.605 41.9989 120.189 36.8781 123.664 36.8781C124.761 36.8781 125.493 37.4268 125.493 39.1642C125.493 40.2615 125.493 41.4503 125.219 42.3647C124.487 44.9251 124.67 45.0165 122.201 45.4737C119.732 45.9309 110.131 51.0517 107.57 51.2346ZM108.302 60.3788C107.753 60.3788 106.747 59.9216 106.656 59.5559C106.382 58.55 119.366 52.0576 120.647 52.2405C121.104 52.3319 120.738 52.6977 119.275 54.2522C115.343 58.3671 111.685 60.3788 108.302 60.3788ZM89.739 81.6849C89.8304 81.1363 89.9219 80.5876 90.1048 80.039C91.5678 75.5583 93.3053 70.8033 96.2314 65.4082C92.4823 76.9299 92.5737 76.9299 89.739 81.6849Z" fill="#5A8551"/>
<path d="M145.609 64.4023C149.723 64.4023 154.661 61.2018 157.679 57.0869C161.977 51.1432 163.44 45.2908 162.068 39.2556C161.337 36.0551 160.056 31.8488 155.667 30.3857C155.393 30.2943 155.119 30.1114 154.936 29.8371C151.552 26.4537 147.072 29.197 143.414 33.6776C139.299 38.707 136.922 44.7422 136.922 53.795C136.922 59.0072 140.031 64.4023 145.609 64.4023ZM146.066 58.1842C143.963 58.4586 143.048 56.5383 143.048 54.618C143.048 47.7598 147.255 34.775 151.552 34.775C154.113 34.775 156.399 40.1701 156.399 44.5593C156.399 50.4116 151.004 57.6356 146.066 58.1842Z" fill="#5A8551"/>
<path d="M176.538 65.4082C185.042 65.4082 191.351 60.7446 195.558 53.795C198.85 48.3084 201.959 39.3471 201.959 34.1349C201.959 30.66 201.227 27.6424 198.484 26.9109C197.478 26.6366 196.289 26.728 195.375 27.3681C194.735 27.8253 182.481 38.3412 182.481 38.3412C181.018 39.4385 179.464 40.2615 177.726 40.8102C171.691 42.639 166.113 46.4796 164.101 51.7833C161.358 59.373 167.302 65.4082 176.538 65.4082ZM191.443 39.4385C191.26 39.4385 191.077 39.3471 191.351 39.0728C192.906 37.5182 193.454 37.1525 194.643 35.9637C195.832 34.775 195.649 35.415 195.466 36.6952C195.009 40.1701 193.729 39.4385 191.443 39.4385ZM175.806 59.1901C171.874 59.373 168.674 56.9955 169.954 53.7035C171.142 50.7774 174.709 48.217 178.641 46.9368C181.841 45.8395 192.54 44.9251 192.54 46.0224C192.54 46.7539 190.985 49.5886 190.345 50.5945C186.962 56.1725 182.298 58.8243 175.806 59.1901Z" fill="#5A8551"/>
<path d="M216.605 18.041C218.16 18.041 219.531 16.6693 219.531 15.0234C219.531 13.5603 218.16 12.2801 216.605 12.2801C215.051 12.2801 213.77 13.6517 213.77 15.2063C213.77 16.7608 215.051 18.041 216.605 18.041ZM205.266 65.5911C207.369 65.5911 207.827 63.6708 208.284 61.659C209.747 55.0752 211.21 48.4913 213.222 42.3647C214.136 39.53 215.874 33.2204 215.874 31.9402C215.874 30.2028 214.685 28.9226 213.13 28.6483C210.113 28.2825 209.838 31.1173 208.832 34.6835L207.187 40.7187C205.541 46.7539 203.437 52.8806 202.431 59.0072C201.883 62.3906 201.791 65.5911 205.266 65.5911Z" fill="#5A8551"/>
<path d="M222.028 69.5231C224.405 69.5231 226.325 67.0541 224.497 64.7681C223.034 62.8478 222.851 60.6532 222.942 58.4586C223.125 54.9837 223.582 51.2346 223.948 46.7539C224.039 45.6566 224.588 45.0165 225.411 44.4679C228.246 42.639 230.715 40.5358 232.726 38.6155C237.39 34.1349 240.956 29.3798 243.7 24.2591C244.34 23.0703 245.254 22.6131 246.626 22.6131C249.003 22.6131 251.381 22.5217 253.667 22.5217C257.324 22.5217 259.245 21.8816 259.245 19.4126C259.245 16.3036 255.679 16.4865 252.021 16.4865H248.272C247.449 16.4865 247.449 16.2121 247.54 15.6635C248.729 10.1769 249.186 8.98818 248.089 6.2449C246.9 3.13586 244.065 1.76422 240.865 2.86153C236.567 4.32461 231.903 10.1769 228.52 15.572C228.154 16.2121 227.697 16.5779 226.966 16.5779H213.706C210.872 16.5779 208.677 17.4923 208.86 19.8698C209.043 21.973 210.963 22.796 213.158 22.796H222.668C224.954 22.796 224.588 22.7045 223.857 24.6248C221.113 31.3916 219.01 38.4327 217.913 46.2967C216.815 54.1608 216.084 61.3847 218.37 66.7798C218.919 68.06 220.016 69.5231 222.028 69.5231ZM236.018 16.4865C235.561 16.4865 235.47 16.395 235.653 16.0292C237.116 13.1945 239.219 10.9085 241.596 9.35394C241.871 9.17106 242.419 8.98818 242.419 9.81116C242.419 11.8229 241.688 13.6517 240.956 15.7549C240.773 16.3036 240.408 16.4865 239.95 16.4865H236.018ZM226.325 36.0551C226.783 34.1349 229.617 26.6366 230.623 24.6248C231.263 23.2532 231.995 22.7045 233.092 22.7045C235.927 22.6131 238.03 22.7045 236.658 24.3505C234.647 26.8195 231.263 32.5803 226.325 36.0551Z" fill="#5A8551"/>
<path d="M248.413 18.041C249.968 18.041 251.34 16.6693 251.34 15.0234C251.34 13.5603 249.968 12.2801 248.413 12.2801C246.859 12.2801 245.579 13.6517 245.579 15.2063C245.579 16.7608 246.859 18.041 248.413 18.041ZM237.075 65.5911C239.178 65.5911 239.635 63.6708 240.092 61.659C241.555 55.0752 243.018 48.4913 245.03 42.3647C245.945 39.53 247.682 33.2204 247.682 31.9402C247.682 30.2028 246.493 28.9226 244.939 28.6483C241.921 28.2825 241.647 31.1173 240.641 34.6835L238.995 40.7187C237.349 46.7539 235.246 52.8806 234.24 59.0072C233.691 62.3906 233.6 65.5911 237.075 65.5911Z" fill="#5A8551"/>
<path d="M253.745 65.2253C255.939 65.2253 257.768 62.7563 260.054 58.2757L272.216 34.4092C273.13 32.4889 273.679 30.3857 271.576 29.1055C269.564 27.9168 267.644 29.4713 266.455 32.306C262.066 40.993 257.219 50.2287 255.391 53.8864C255.025 51.9661 256.122 33.2204 256.122 31.1173C256.122 28.4654 254.842 26.728 252.83 26.8195C251.55 26.9109 250.636 27.6424 250.27 29.1055C249.63 31.5745 249.355 47.2111 249.264 58.0928C249.264 61.659 250.544 65.2253 253.745 65.2253Z" fill="#5A8551"/>
<path d="M281.369 65.1339C286.673 65.1339 295.543 58.9158 296 54.5265C296 53.0634 295.36 51.6918 293.348 51.6918C289.873 51.7833 285.758 59.1901 281.644 59.0987C278.809 59.0987 277.346 55.8067 277.712 51.9661C277.803 51.0517 278.169 50.6859 278.992 50.4116C284.112 48.6742 288.593 45.8395 292.891 40.4444C294.263 38.707 295.268 36.7867 295.726 34.775C296.914 29.9285 293.44 25.8136 288.502 25.9965C279.357 26.4537 271.311 43.0048 271.585 54.8009C271.768 60.0131 275.608 65.1339 281.369 65.1339ZM280.455 43.2791C280.272 43.3705 279.906 43.462 280.089 43.0048C282.009 39.1642 283.564 36.1466 285.85 33.8605C287.587 32.1231 289.69 31.5745 289.69 33.129C289.69 36.0551 284.661 41.1759 280.455 43.2791Z" fill="#5A8551"/>
</svg>
