<svg width="296" height="75" viewBox="0 0 296 75" fill="none" xmlns="http://www.w3.org/2000/svg">
<path d="M25.4486 66.0337C26.9922 66.0337 29.1714 64.9441 30.3518 63.7637C38.1605 55.955 34.0745 59.9502 39.7041 53.3219C42.3372 50.2347 45.152 46.7844 41.974 44.9684C39.4317 43.334 37.7973 45.9672 34.3469 50.3255C29.0806 56.863 27.3554 58.7698 26.9014 58.4974C26.5382 58.225 27.083 56.0458 27.991 53.5035L31.169 44.7868C32.7125 40.8824 34.0745 37.1597 33.6205 34.2541C33.2573 31.5302 30.6242 29.6234 27.9002 30.3498C27.083 30.5314 25.0854 31.4394 24.5407 31.621C28.899 22.9043 30.715 20.4527 32.2586 13.0072C32.7125 10.6464 32.8033 7.74086 30.3518 6.19728C25.5394 3.11012 18.9111 10.9188 15.37 17.5471C9.92205 27.8074 6.83489 38.7941 0.38817 60.1318C-0.429019 62.4925 0.024975 64.8533 1.93175 65.5797C4.29252 66.4877 5.01891 64.7625 6.56249 62.4017C11.3748 55.1378 16.0964 47.5107 23.2695 40.3376C23.9959 39.6112 26.9014 36.9781 27.2646 37.3413C27.4462 37.5229 26.7198 39.1573 24.813 44.4236C22.1799 51.2335 20.6363 55.501 20.6363 59.3146C20.6363 63.1281 22.2707 66.0337 25.4486 66.0337ZM14.462 35.4345C16.8228 28.5338 19.9099 19.3631 25.721 13.552C25.721 16.6391 17.0044 32.8921 14.462 35.4345Z" fill="#6B488B"/>
<path d="M58.5703 67.1233C60.4771 67.1233 61.5667 66.0337 61.0219 62.3109C59.7507 53.5035 61.0219 47.5107 63.3827 37.8861C64.2907 34.3449 61.8391 30.5314 57.6624 29.8958C46.9481 28.3522 37.2326 42.7892 35.1443 56.0458C34.5087 59.9502 35.7798 64.7625 39.1394 66.0337C42.1358 67.2141 44.9505 65.0349 47.4021 62.5833C50.3985 59.587 53.4856 53.9575 54.666 52.5047L54.5752 57.771C54.5752 59.8594 54.5752 61.6754 55.12 64.3993C55.4832 66.5785 56.7544 67.1233 58.5703 67.1233ZM41.3186 59.4054C40.8646 59.4054 41.0462 56.863 41.3186 55.6826C42.953 48.7819 45.6769 42.88 50.4893 38.5217C52.396 36.7965 54.3936 35.9793 56.5728 35.9793C57.1176 35.9793 57.5716 36.4333 57.1176 36.8873C53.304 40.7008 44.1333 59.4054 41.3186 59.4054Z" fill="#6B488B"/>
<path d="M78.4205 74.3872C80.1457 74.3872 81.7801 72.7528 81.1445 70.4828C80.5997 68.5761 80.9629 66.7601 81.4169 65.0349C83.4145 57.4078 85.0488 56.7722 87.3188 50.0531C87.682 48.9635 88.3176 47.6015 88.3176 46.1488C88.3176 43.0616 85.866 40.7008 82.7789 41.2456C82.5065 41.2456 80.2365 41.7904 80.2365 41.7904C80.2365 41.6996 82.8697 37.7045 83.5053 34.4357C84.1409 31.2578 84.7764 27.8074 81.8709 25.8098C80.5997 24.9926 79.1469 24.811 77.5125 25.265C73.245 26.4454 68.5235 32.8921 66.9799 38.4309C65.8903 42.1536 65.7995 45.6948 68.2511 48.1463C71.7922 51.6875 74.9702 50.2347 80.9629 48.0555C81.3261 47.8739 81.5077 48.2371 81.4169 48.6003C81.5077 48.1463 76.8769 59.0422 76.3322 60.6766C75.061 64.5809 73.7898 69.5749 75.515 72.4804C76.2414 73.6608 77.2401 74.3872 78.4205 74.3872ZM72.7002 41.064C73.4266 37.6137 74.3346 35.5253 77.3309 32.5289C77.6941 32.1657 77.6941 32.2565 77.6033 32.7105C76.6953 36.5241 75.061 39.3389 72.7002 41.064Z" fill="#6B488B"/>
<path d="M112.116 66.0337C114.386 66.0337 115.385 64.2177 114.931 61.3122C114.477 58.1342 114.75 54.8654 114.931 52.1415C115.022 50.5071 115.567 49.1451 116.475 47.8739L121.196 41.2456C128.006 31.621 132.909 23.2675 135.815 13.2796C136.632 10.374 136.632 6.74208 134.271 5.1985C130.367 2.74693 125.736 7.28687 122.468 11.5544C117.837 17.5471 116.838 21.5423 113.569 29.6234C113.024 30.8038 113.024 30.8038 111.844 30.6222C108.575 30.0774 105.488 30.8946 102.673 33.3461C95.6819 39.3389 90.0523 51.5059 91.2327 59.7686C91.7775 64.1269 95.7727 66.6693 100.222 64.5809C102.764 63.3097 104.035 62.1294 108.575 58.1342C109.029 61.857 108.939 66.0337 112.116 66.0337ZM118.472 34.3449C121.106 25.9006 125.736 14.5508 129.459 12.9164C129.459 14.7324 126.463 21.2699 124.102 25.265C122.104 28.5338 119.38 32.9829 118.836 33.8001L118.472 34.3449ZM97.4979 58.8606C96.7715 58.5882 97.0439 55.8642 97.4979 54.2299C98.6782 49.4175 100.676 45.15 103.4 41.4272C104.671 39.702 106.305 37.8861 108.575 36.8873C110.028 36.2517 110.936 37.9769 110.573 40.7008C110.028 44.5144 110.119 46.6936 107.486 49.5991C102.038 55.8642 98.4966 59.4054 97.4979 58.8606Z" fill="#6B488B"/>
<path d="M162.546 69.1209C165.906 69.1209 167.177 66.8509 170.082 63.3097C172.171 60.7674 173.805 57.9526 175.258 55.047C175.621 54.3207 175.712 54.1391 175.712 54.7746C175.712 55.1378 175.439 58.4066 175.439 61.2214C175.439 66.3969 178.345 70.392 182.249 68.8485C185.246 67.7589 187.606 64.9441 189.604 61.857C191.238 59.3146 193.418 54.4115 195.869 48.6003C196.323 47.4199 197.685 44.6052 197.685 44.6052C197.867 44.9684 201.135 48.6911 202.951 49.5083C208.127 51.7783 216.934 52.0507 216.117 47.4199C215.936 46.1488 215.028 45.3316 213.847 45.15C206.765 44.242 204.132 45.0592 202.497 39.9744C201.589 37.1597 202.225 35.7069 201.589 33.3461C201.226 31.9841 200.409 31.167 199.138 30.9854C196.323 30.6222 195.688 32.6197 194.507 35.4345C191.511 42.6076 189.241 49.4175 186.063 55.4102C184.701 57.8618 182.703 62.0386 181.795 61.857C181.069 61.6754 181.523 55.6826 182.159 52.8679C182.885 49.5083 183.43 46.058 184.156 42.6984C185.155 38.3401 185.427 36.8873 185.336 35.5253C185.155 33.8909 184.247 33.2553 183.521 32.9829C182.249 32.5289 181.069 32.7105 180.161 33.7093C179.071 34.9805 175.621 41.2456 173.805 44.7868C169.901 52.2323 164.907 60.7674 164.09 60.7674C163.091 60.7674 164.634 52.7771 165.996 48.6911C166.45 47.3291 170.355 36.3425 171.172 34.7989C171.807 33.6185 170.809 32.3473 169.628 31.7117C168.448 31.0762 167.177 31.3486 166.178 32.3473C165.452 33.0737 165.179 33.8001 163.545 37.7045C160.094 46.1488 157.643 53.5943 157.643 61.857C157.643 65.0349 159.005 69.1209 162.546 69.1209Z" fill="#6B488B"/>
<path d="M218.379 65.4889C222.465 65.4889 227.368 62.3109 230.364 58.225C234.632 52.3231 236.085 46.512 234.723 40.5192C233.996 37.3413 232.725 33.1645 228.367 31.7117C228.094 31.621 227.822 31.4394 227.64 31.167C224.281 27.8074 219.832 30.5314 216.2 34.9805C212.114 39.9744 209.753 45.9672 209.753 54.9562C209.753 60.1318 212.84 65.4889 218.379 65.4889ZM218.833 59.3146C216.744 59.587 215.836 57.6802 215.836 55.7734C215.836 48.9635 220.013 36.0701 224.281 36.0701C226.823 36.0701 229.093 41.4272 229.093 45.7856C229.093 51.5967 223.736 58.7698 218.833 59.3146Z" fill="#6B488B"/>
<path d="M249.138 74.3872C250.863 74.3872 252.498 72.7528 251.862 70.4828C251.317 68.5761 251.681 66.7601 252.135 65.0349C254.132 57.4078 255.767 56.7722 258.037 50.0531C258.4 48.9635 259.035 47.6015 259.035 46.1488C259.035 43.0616 256.584 40.7008 253.497 41.2456C253.224 41.2456 250.954 41.7904 250.954 41.7904C250.954 41.6996 253.587 37.7045 254.223 34.4357C254.859 31.2578 255.494 27.8074 252.589 25.8098C251.317 24.9926 249.865 24.811 248.23 25.265C243.963 26.4454 239.241 32.8921 237.698 38.4309C236.608 42.1536 236.517 45.6948 238.969 48.1463C242.51 51.6875 245.688 50.2347 251.681 48.0555C252.044 47.8739 252.225 48.2371 252.135 48.6003C252.225 48.1463 247.595 59.0422 247.05 60.6766C245.779 64.5809 244.508 69.5749 246.233 72.4804C246.959 73.6608 247.958 74.3872 249.138 74.3872ZM243.418 41.064C244.144 37.6137 245.052 35.5253 248.049 32.5289C248.412 32.1657 248.412 32.2565 248.321 32.7105C247.413 36.5241 245.779 39.3389 243.418 41.064Z" fill="#6B488B"/>
<path d="M263.585 67.1233C264.493 67.1233 265.401 66.9417 266.127 65.8521C267.126 64.3993 268.397 57.0446 268.942 54.8654C269.214 53.7759 269.396 53.6851 270.576 53.9575C274.299 54.6839 280.292 59.4962 285.104 63.5821C286.92 65.0349 288.464 66.3969 290.37 64.6717C291.46 63.6729 291.642 62.2202 290.915 61.0398C289.826 59.4054 286.103 56.2274 284.378 55.047L276.841 49.7807C276.751 49.5991 278.022 48.7819 280.837 46.8752C286.829 42.88 293.094 37.7953 295.455 33.1645C296.091 31.8933 295.728 30.3498 294.638 29.5326C293.458 28.7154 291.823 28.8062 290.643 29.9866C288.101 32.5289 286.648 35.4345 282.108 38.6125C279.475 40.4284 276.66 42.2444 274.027 44.0604L272.665 44.9684C272.029 45.3316 271.394 45.5132 272.392 44.6052C278.839 38.7033 284.196 31.8933 288.736 25.1742C293.004 18.9091 296 12.2808 296 6.10648C296 2.02053 292.731 -0.431035 288.01 1.20334C281.109 3.65491 273.573 18.0919 270.576 26.8086C267.217 36.7965 259.862 62.4018 261.224 65.3981C261.678 66.3969 262.586 67.1233 263.585 67.1233ZM274.844 33.5277C274.844 30.4406 281.381 17.0931 284.559 12.4624C285.649 10.828 288.918 7.19607 289.644 7.19607C291.006 7.19607 286.739 16.9115 284.287 20.8159C282.562 23.4491 274.844 33.9817 274.844 33.5277Z" fill="#6B488B"/>
</svg>
