<svg width="888" height="225" viewBox="0 0 888 225" fill="none" xmlns="http://www.w3.org/2000/svg">
<path d="M76.3458 198.101C80.9766 198.101 87.5142 194.832 91.0554 191.291C114.482 167.865 102.224 179.85 119.112 159.965C127.012 150.704 135.456 140.353 125.922 134.905C118.295 130.002 113.392 137.901 103.041 150.976C87.2418 170.589 82.0662 176.309 80.7042 175.492C79.6146 174.675 81.249 168.137 83.973 160.51L93.507 134.36C98.1375 122.647 102.223 111.479 100.861 102.762C99.7719 94.5902 91.8726 88.8698 83.7006 91.049C81.249 91.5938 75.2562 94.3178 73.6221 94.8626C86.697 68.7125 92.145 61.3577 96.7758 39.0212C98.1375 31.9388 98.4099 23.2221 91.0554 18.5914C76.6182 9.32993 56.7333 32.756 46.11 52.6409C29.7661 83.4218 20.5047 116.382 1.16451 180.395C-1.28706 187.477 0.0749245 194.559 5.79525 196.739C12.8776 199.463 15.0567 194.287 19.6875 187.205C34.1244 165.413 48.2892 142.532 69.8085 121.012C71.9877 118.833 80.7042 110.934 81.7938 112.023C82.3386 112.568 80.1594 117.471 74.439 133.27C66.5397 153.7 61.9089 166.503 61.9089 177.943C61.9089 189.384 66.8121 198.101 76.3458 198.101ZM43.386 106.303C50.4684 85.601 59.7297 58.0889 77.163 40.6556C77.163 49.9169 51.0132 98.6759 43.386 106.303Z" fill="#6B488B"/>
<path d="M175.711 201.371C181.432 201.371 184.7 198.102 183.066 186.933C179.252 160.511 183.066 142.533 190.148 113.659C192.872 103.035 185.518 91.595 172.988 89.6882C140.845 85.0574 111.698 128.368 105.433 168.138C103.526 179.851 107.34 194.288 117.419 198.102C126.408 201.643 134.852 195.105 142.207 187.751C151.196 178.762 160.457 161.873 163.998 157.515L163.726 173.314C163.726 179.579 163.726 185.027 165.36 193.199C166.45 199.736 170.264 201.371 175.711 201.371ZM123.956 178.217C122.594 178.217 123.139 170.59 123.956 167.049C128.859 146.346 137.031 128.641 151.468 115.566C157.188 110.39 163.181 107.939 169.719 107.939C171.353 107.939 172.715 109.301 171.353 110.663C159.912 122.103 132.4 178.217 123.956 178.217Z" fill="#6B488B"/>
<path d="M235.262 223.161C240.438 223.161 245.341 218.258 243.434 211.448C241.8 205.727 242.89 200.279 244.252 195.104C250.244 172.222 255.147 170.316 261.957 150.158C263.047 146.89 264.954 142.804 264.954 138.445C264.954 129.184 257.599 122.102 248.338 123.736C247.52 123.736 240.71 125.37 240.71 125.37C240.71 125.098 248.61 113.113 250.517 103.306C252.424 93.7725 254.33 83.4213 245.614 77.4285C241.8 74.9769 237.442 74.4321 232.538 75.7941C219.736 79.3353 205.571 98.6754 200.941 115.292C197.672 126.46 197.399 137.083 204.754 144.438C215.377 155.062 224.911 150.703 242.89 144.166C243.979 143.621 244.524 144.71 244.252 145.8C244.524 144.438 230.632 177.126 228.997 182.029C225.184 193.742 221.37 208.724 226.546 217.44C228.725 220.981 231.721 223.161 235.262 223.161ZM218.101 123.191C220.281 112.84 223.005 106.575 231.994 97.5858C233.083 96.4962 233.083 96.7686 232.811 98.1306C230.087 109.571 225.184 118.016 218.101 123.191Z" fill="#6B488B"/>
<path d="M336.347 198.1C343.157 198.1 346.154 192.652 344.792 183.936C343.43 174.402 344.249 164.596 344.792 156.424C345.065 151.521 346.7 147.435 349.424 143.621L363.587 123.736C384.017 94.8624 398.726 69.8019 407.444 39.8382C409.895 31.1214 409.895 20.2256 402.812 15.5949C391.1 8.24015 377.207 21.86 367.403 34.6626C353.51 52.6407 350.513 64.6263 340.706 88.8696C339.071 92.4108 339.071 92.4108 335.531 91.866C325.724 90.2316 316.463 92.6832 308.018 100.038C287.045 118.016 270.156 154.517 273.697 179.305C275.332 192.38 287.317 200.007 300.665 193.742C308.291 189.928 312.104 186.388 325.724 174.402C327.086 185.57 326.816 198.1 336.347 198.1ZM355.415 103.034C363.317 77.7012 377.207 43.6518 388.376 38.7486C388.376 44.1966 379.388 63.8091 372.305 75.7944C366.311 85.6008 358.139 98.9481 356.507 101.4L355.415 103.034ZM292.493 176.581C290.314 175.764 291.131 167.592 292.493 162.689C296.034 148.252 302.027 135.449 310.199 124.281C314.012 119.105 318.914 113.658 325.724 110.661C330.083 108.754 332.807 113.93 331.718 122.102C330.083 133.543 330.356 140.08 322.457 148.797C306.113 167.592 295.489 178.216 292.493 176.581Z" fill="#6B488B"/>
<path d="M487.637 207.362C497.717 207.362 501.53 200.552 510.245 189.928C516.512 182.301 521.414 173.857 525.773 165.14C526.862 162.961 527.135 162.416 527.135 164.323C527.135 165.412 526.316 175.219 526.316 183.663C526.316 199.19 535.034 211.175 546.746 206.544C555.737 203.276 562.817 194.831 568.811 185.57C573.713 177.943 580.253 163.233 587.606 145.8C588.968 142.259 593.054 133.814 593.054 133.814C593.6 134.904 603.404 146.072 608.852 148.524C624.38 155.334 650.801 156.151 648.35 142.259C647.807 138.445 645.083 135.994 641.54 135.449C620.294 132.725 612.395 135.176 607.49 119.922C604.766 111.478 606.674 107.12 604.766 100.037C603.677 95.9512 601.226 93.4999 597.413 92.9551C588.968 91.8655 587.063 97.858 583.52 106.302C574.532 127.822 567.722 148.251 558.188 166.229C554.102 173.584 548.108 186.115 545.384 185.57C543.206 185.025 544.568 167.047 546.476 158.603C548.654 148.524 550.289 138.173 552.467 128.094C555.464 115.019 556.28 110.661 556.007 106.575C555.464 101.672 552.74 99.7648 550.562 98.9476C546.746 97.5856 543.206 98.1304 540.482 101.127C537.212 104.94 526.862 123.736 521.414 134.359C509.702 156.696 494.72 182.301 492.269 182.301C489.272 182.301 493.901 158.33 497.987 146.072C499.349 141.986 511.064 109.026 513.515 104.396C515.42 100.854 512.426 97.0408 508.883 95.134C505.343 93.2275 501.53 94.0447 498.533 97.0408C496.355 99.22 495.536 101.399 490.634 113.112C480.281 138.445 472.928 160.782 472.928 185.57C472.928 195.104 477.014 207.362 487.637 207.362Z" fill="#6B488B"/>
<path d="M655.137 196.468C667.395 196.468 682.104 186.934 691.092 174.676C703.896 156.97 708.255 139.537 704.169 121.559C701.988 112.025 698.175 99.4946 685.101 95.1362C684.282 94.8641 683.466 94.3193 682.92 93.5021C672.843 83.4233 659.496 91.5953 648.6 104.943C636.342 119.924 629.259 137.903 629.259 164.87C629.259 180.397 638.52 196.468 655.137 196.468ZM656.499 177.945C650.232 178.762 647.508 173.042 647.508 167.321C647.508 146.892 660.039 108.211 672.843 108.211C680.469 108.211 687.279 124.283 687.279 137.358C687.279 154.791 671.208 176.311 656.499 177.945Z" fill="#6B488B"/>
<path d="M747.415 223.161C752.59 223.161 757.495 218.258 755.587 211.448C753.952 205.727 755.044 200.279 756.406 195.104C762.397 172.222 767.302 170.316 774.112 150.158C775.201 146.89 777.106 142.804 777.106 138.445C777.106 129.184 769.753 122.102 760.492 123.736C759.673 123.736 752.863 125.37 752.863 125.37C752.863 125.098 760.762 113.113 762.67 103.306C764.578 93.7725 766.483 83.4213 757.768 77.4285C753.952 74.9769 749.596 74.4321 744.691 75.7941C731.89 79.3353 717.724 98.6754 713.095 115.292C709.825 126.46 709.552 137.083 716.908 144.438C727.531 155.062 737.065 150.703 755.044 144.166C756.133 143.621 756.676 144.71 756.406 145.8C756.676 144.438 742.786 177.126 741.151 182.029C737.338 193.742 733.525 208.724 738.7 217.44C740.878 220.981 743.875 223.161 747.415 223.161ZM730.255 123.191C732.433 112.84 735.157 106.575 744.148 97.5858C745.237 96.4962 745.237 96.7686 744.964 98.1306C742.24 109.571 737.338 118.016 730.255 123.191Z" fill="#6B488B"/>
<path d="M790.755 201.37C793.479 201.37 796.203 200.825 798.381 197.556C801.378 193.198 805.191 171.134 806.826 164.596C807.642 161.328 808.188 161.055 811.728 161.873C822.897 164.052 840.876 178.489 855.312 190.746C860.76 195.105 865.392 199.191 871.11 194.015C874.38 191.019 874.926 186.661 872.745 183.119C869.478 178.216 858.309 168.682 853.134 165.141L830.523 149.342C830.253 148.797 834.066 146.346 842.511 140.626C860.487 128.64 879.282 113.386 886.365 99.4935C888.273 95.6799 887.184 91.0494 883.914 88.5978C880.374 86.1462 875.469 86.4186 871.929 89.9598C864.303 97.5867 859.944 106.304 846.324 115.838C838.425 121.285 829.98 126.733 822.081 132.181L817.995 134.905C816.087 135.995 814.182 136.54 817.176 133.816C836.517 116.11 852.588 95.6799 866.208 75.5226C879.012 56.7273 888 36.8424 888 18.3194C888 6.0616 878.193 -1.2931 864.03 3.61003C843.327 10.9647 820.719 54.2757 811.728 80.4258C801.651 110.39 779.586 187.205 783.672 196.194C785.034 199.191 787.758 201.37 790.755 201.37ZM824.532 100.583C824.532 91.3218 844.143 51.2793 853.677 37.3872C856.947 32.484 866.754 21.5882 868.932 21.5882C873.018 21.5882 860.217 50.7345 852.861 62.4477C847.686 70.3473 824.532 101.945 824.532 100.583Z" fill="#6B488B"/>
</svg>
