<svg width="888" height="453" viewBox="0 0 888 453" fill="none" xmlns="http://www.w3.org/2000/svg">
<path d="M888 225.386C888 349.863 787.092 450.771 662.613 450.771C538.137 450.771 437.229 349.863 437.229 225.386C437.229 100.909 538.137 0 662.613 0C787.092 0 888 100.909 888 225.386Z" fill="#9AE6EA"/>
<path d="M224.418 0H661.647V450.771H224.418V0Z" fill="#9AE6EA"/>
<path d="M450.771 225.386C450.771 349.863 349.863 450.771 225.386 450.771C100.909 450.771 0 349.863 0 225.386C0 100.909 100.909 0 225.386 0C349.863 0 450.771 100.909 450.771 225.386Z" fill="#9AE6EA"/>
</svg>
