<svg width="296" height="151" viewBox="0 0 296 151" fill="none" xmlns="http://www.w3.org/2000/svg">
<path d="M296 75.1285C296 116.621 262.364 150.257 220.871 150.257C179.379 150.257 145.743 116.621 145.743 75.1285C145.743 33.6362 179.379 0 220.871 0C262.364 0 296 33.6362 296 75.1285Z" fill="#9AE6EA"/>
<path d="M74.8061 0H220.549V150.257H74.8061V0Z" fill="#9AE6EA"/>
<path d="M150.257 75.1285C150.257 116.621 116.621 150.257 75.1285 150.257C33.6362 150.257 0 116.621 0 75.1285C0 33.6362 33.6362 0 75.1285 0C116.621 0 150.257 33.6362 150.257 75.1285Z" fill="#9AE6EA"/>
</svg>
