<svg width="888" height="411" viewBox="0 0 888 411" fill="none" xmlns="http://www.w3.org/2000/svg">
<path d="M23.1415 401.217C15.5584 401.217 11.7669 389.955 11.7669 367.431C11.7669 326.604 10.3287 261.319 7.45236 171.573C4.8375 81.8271 2.35337 34.4907 0 29.5634C0 19.709 2.87635 12.1421 8.62905 6.86292C10.7209 5.10321 13.5973 3.69543 17.2581 2.63962C21.1804 1.23183 24.7104 0.527943 27.8483 0.527943C29.4172 0.175981 32.6856 0 37.6539 0C43.668 0 47.9826 1.40778 50.5974 4.22334C53.2125 6.68697 54.5199 11.2623 54.5199 17.9492C54.5199 21.8206 53.4738 24.8121 51.3819 26.9238C49.29 28.6835 46.6752 29.5634 43.5375 29.5634L39.615 29.0355H34.1238C26.8023 29.0355 23.1415 30.9711 23.1415 34.8426C23.1415 53.1438 24.0567 77.076 25.8871 106.639C27.456 131.275 28.502 154.68 29.0249 176.852C30.8553 176.149 34.2546 175.093 39.2229 173.685C44.4525 171.925 48.375 171.045 50.9898 171.045C53.8662 171.045 56.3502 172.805 58.4421 176.324C60.534 179.492 61.5798 183.188 61.5798 187.411C61.5798 192.338 59.8803 195.857 56.481 197.969C55.9581 198.321 54.6507 199.201 52.5588 200.609C50.7282 201.664 48.2442 202.368 45.1062 202.72C42.753 203.072 38.8308 203.6 33.3396 204.304H29.0249C29.0249 225.421 30.3324 254.104 32.9472 290.355C35.3007 328.365 36.4773 357.048 36.4773 376.404L36.0852 378.516L35.6928 379.572C35.9544 380.982 36.0852 383.268 36.0852 386.436C36.0852 391.011 34.9083 394.707 32.5551 397.521C30.2016 399.987 27.0638 401.217 23.1415 401.217Z" fill="#E06E51"/>
<path d="M124.591 407.552C121.192 407.552 118.054 405.968 115.178 402.8C112.563 399.632 111.125 395.762 110.863 391.187V366.902C110.602 363.734 110.471 360.038 110.471 355.814C110.471 348.425 110.079 337.163 109.294 322.028L108.51 288.242C108.51 270.997 108.902 245.305 109.687 211.166C110.732 180.547 111.255 154.855 111.255 134.09C111.255 129.163 110.863 121.772 110.079 111.917C109.294 101.711 108.902 94.32 108.902 89.7447C108.902 64.7568 114.393 52.2627 125.376 52.2627C134.005 52.2627 143.941 54.5502 155.185 59.1255C166.691 63.7008 172.443 69.156 172.443 75.4911C172.443 79.0104 171.266 82.3539 168.913 85.5216C166.821 88.3371 164.206 90.6246 161.069 92.3844C150.086 87.1053 140.15 83.5857 131.259 81.8259C131.521 87.1053 131.651 94.6719 131.651 104.527C131.651 118.604 131.521 131.274 131.259 142.537C130.475 159.43 130.082 172.1 130.082 180.547L131.259 188.993L137.535 188.465C139.627 188.113 142.241 187.937 145.379 187.937C157.931 187.937 164.206 192.865 164.206 202.719C164.206 206.59 163.03 209.934 160.676 212.749C158.323 215.213 155.316 216.445 151.655 216.445C146.948 216.445 143.288 216.093 140.673 215.389H130.867C131.39 224.54 131.651 237.913 131.651 255.511C131.651 273.108 131.521 288.946 131.259 303.023C130.475 324.491 130.082 340.505 130.082 351.065C130.082 370.772 130.344 380.627 130.867 380.627L143.81 380.099C148.256 379.748 153.616 379.571 159.892 379.571C169.828 379.571 174.797 383.795 174.797 392.243C174.797 397.169 173.097 400.865 169.697 403.328C166.56 406.145 162.638 407.552 157.931 407.552H124.591Z" fill="#E06E51"/>
<path d="M229.387 405.968C223.634 405.968 220.104 402.623 218.797 395.936C217.751 391.715 217.228 385.73 217.228 377.987C217.228 362.855 217.751 344.201 218.797 322.028C220.104 300.911 220.758 282.083 220.758 265.541C220.758 246.888 221.15 218.908 221.934 181.602L222.719 98.1913C222.719 95.0239 222.327 90.2726 221.542 83.9375L220.366 70.7395V68.1002C220.366 60.0053 221.281 54.0223 223.111 50.1508C224.941 46.2793 228.341 44.3438 233.309 44.3438C240.108 44.3438 247.56 46.9835 255.666 52.2626C263.772 57.5417 269.656 64.2286 273.316 72.3232C280.9 89.2169 284.691 110.334 284.691 135.673C284.691 154.678 283.514 170.692 281.161 183.714C278.808 196.384 274.755 208.174 269.002 219.084C276.062 228.235 280.769 240.025 283.122 254.455C285.737 268.533 287.044 286.306 287.044 307.775C287.044 329.243 284.299 347.897 278.808 363.734C272.532 381.683 263.38 394.001 251.352 400.688C244.03 404.207 236.708 405.968 229.387 405.968ZM241.938 203.775C255.535 203.423 262.334 182.13 262.334 139.897C262.334 94.496 256.973 70.7395 246.253 68.6278C243.376 76.7227 241.938 95.7278 241.938 125.643V203.775ZM239.585 379.043C247.952 376.58 254.489 369.893 259.196 358.982C263.903 348.074 266.256 335.579 266.256 321.5C266.256 306.719 265.603 293.697 264.295 282.435C263.249 273.636 261.811 266.421 259.981 260.79C258.412 254.807 256.189 249.352 253.313 244.425C250.175 239.145 246.514 235.978 242.33 234.922C241.284 254.983 240.761 281.555 240.761 314.639C240.761 316.751 240.5 323.435 239.977 334.7L239.192 352.649C239.192 353.351 239.323 353.879 239.585 354.233V379.043Z" fill="#E06E51"/>
<path d="M398.499 409.665C392.745 409.665 387.516 401.217 382.809 384.324C377.319 366.024 373.266 347.193 370.65 327.837L367.905 309.888C360.321 259.559 355.485 230.876 353.391 223.837H348.684C348.684 234.043 348.555 243.37 348.294 251.817V280.852C348.294 328.014 350.778 364.791 355.746 391.188L351.432 405.441H340.449L335.349 397.521L335.742 362.151C335.742 330.477 334.566 282.436 332.211 218.03C330.12 149.4 329.073 101.36 329.073 73.9085C329.073 57.0149 333.387 48.5684 342.018 48.5684C356.139 48.5684 367.644 53.4956 376.533 63.35C385.686 73.2044 390.261 86.9303 390.261 104.528V141.482C390.261 146.761 389.607 152.92 388.299 159.959C386.994 166.646 385.554 172.101 383.985 176.324L376.533 195.329L370.257 211.167L372.219 223.837L377.709 261.319C381.372 288.419 384.9 310.416 388.299 327.309C391.701 344.202 395.883 359.511 400.851 373.239L403.206 379.572C405.819 386.613 407.127 392.244 407.127 396.465C407.127 399.987 406.344 402.978 404.775 405.441C403.206 408.255 401.112 409.665 398.499 409.665ZM350.253 197.969C356.007 194.097 360.843 183.539 364.767 166.294C368.949 148.697 371.043 132.507 371.043 117.726C371.043 106.463 369.996 95.9048 367.905 86.0504C366.597 80.4194 364.374 76.196 361.236 73.3805C358.359 70.2131 354.699 68.6291 350.253 68.6291L349.47 71.2688L348.684 76.0199L349.47 138.314C349.992 156.615 350.253 176.5 350.253 197.969Z" fill="#E06E51"/>
<path d="M487.503 408.609C481.227 408.609 475.605 406.671 470.637 402.801C465.669 399.282 461.616 394.002 458.478 386.964C452.202 372.183 448.149 355.464 446.319 336.81C444.489 320.622 443.574 301.266 443.574 278.741C442.791 240.731 442.398 194.274 442.398 139.37L442.005 98.721C441.744 96.6093 441.612 93.0897 441.612 88.1625C441.09 74.7885 440.829 66.6939 440.829 63.8784C443.181 56.4876 445.926 52.7922 449.064 52.7922C452.202 52.7922 454.95 55.9596 457.302 62.2947C459.918 68.6295 461.223 75.4926 461.223 82.8834V226.477C461.223 240.555 462.141 259.208 463.971 282.436C465.801 311.295 466.716 329.949 466.716 338.394C466.716 364.44 474.951 377.46 491.427 377.46C510.252 377.46 519.666 282.788 519.666 93.4416V59.127C519.405 58.0713 519.273 56.6634 519.273 54.9036C519.273 50.6805 519.927 47.6889 521.235 45.9291C522.804 43.8174 525.681 42.7617 529.863 42.7617C533.265 42.7617 535.878 44.1693 537.708 46.9851C539.802 49.4487 541.107 52.44 541.632 55.9596C541.893 58.0713 542.025 62.1186 542.025 68.1018C542.025 73.7328 541.632 82.7073 540.846 95.0253C539.802 105.232 539.277 114.031 539.277 121.421C539.277 129.516 539.016 136.731 538.494 143.066L537.708 165.239V169.462C537.969 170.87 538.101 172.454 538.101 174.213C538.101 330.477 521.235 408.609 487.503 408.609Z" fill="#E06E51"/>
<path d="M664.528 405.44C658.513 405.44 654.07 404.207 651.193 401.744C648.316 399.281 646.879 394.706 646.879 388.019C646.879 377.459 645.571 359.51 642.955 334.172L641.386 323.084L602.557 315.167C600.988 323.261 598.765 339.626 595.888 364.262C594.319 381.506 591.835 392.945 588.436 398.576C586.606 401.744 583.99 403.328 580.591 403.328C577.453 403.328 574.576 402.095 571.963 399.632C569.347 396.818 568.039 393.473 568.039 389.603L568.825 386.963L569.218 384.851C586.474 294.401 599.548 205.183 608.44 117.196C608.44 115.788 608.572 113.501 608.833 110.334C609.094 106.814 609.355 101.887 609.616 95.5516C610.402 82.5298 611.185 72.1474 611.971 64.4047C613.015 56.6617 614.584 50.8546 616.678 46.9834H630.013C633.673 46.9834 636.811 48.2152 639.427 50.6788C642.04 52.7905 643.348 55.9579 643.348 60.1813C643.348 86.929 646.093 126.699 651.586 179.491C656.815 233.69 659.431 271.7 659.431 293.521C659.431 295.632 660.082 301.088 661.39 309.887C662.698 317.981 663.352 323.261 663.352 325.724C663.352 328.187 664.66 338.747 667.273 357.398C669.628 374.294 670.804 385.202 670.804 390.131V390.659C670.804 398.402 668.713 403.328 664.528 405.44ZM638.641 304.079C637.858 298.8 637.465 292.289 637.465 284.546C637.465 252.871 635.374 212.397 631.189 163.125L627.268 108.222C616.024 190.929 608.308 253.399 604.126 295.632C608.047 299.152 619.552 301.967 638.641 304.079Z" fill="#E06E51"/>
<path d="M773.109 409.665C767.355 409.665 762.126 401.217 757.419 384.324C751.926 366.024 747.873 347.193 745.26 327.837L742.515 309.888C734.931 259.559 730.092 230.876 728.001 223.837H723.294C723.294 234.043 723.165 243.37 722.901 251.817V280.852C722.901 328.014 725.385 364.791 730.356 391.188L726.039 405.441H715.059L709.959 397.521L710.352 362.151C710.352 330.477 709.173 282.436 706.821 218.03C704.73 149.4 703.683 101.36 703.683 73.9085C703.683 57.0149 707.997 48.5684 716.628 48.5684C730.746 48.5684 742.251 53.4956 751.143 63.35C760.296 73.2044 764.871 86.9303 764.871 104.528V141.482C764.871 146.761 764.217 152.92 762.909 159.959C761.601 166.646 760.164 172.101 758.595 176.324L751.143 195.329L744.867 211.167L746.829 223.837L752.319 261.319C755.979 288.419 759.51 310.416 762.909 327.309C766.308 344.202 770.493 359.511 775.461 373.239L777.813 379.572C780.429 386.613 781.737 392.244 781.737 396.465C781.737 399.987 780.951 402.978 779.382 405.441C777.813 408.255 775.722 409.665 773.109 409.665ZM724.863 197.969C730.617 194.097 735.453 183.539 739.377 166.294C743.559 148.697 745.653 132.507 745.653 117.726C745.653 106.463 744.606 95.9048 742.515 86.0504C741.207 80.4194 738.984 76.196 735.846 73.3805C732.969 70.2131 729.309 68.6291 724.863 68.6291L724.08 71.2688L723.294 76.0199L724.08 138.314C724.602 156.615 724.863 176.5 724.863 197.969Z" fill="#E06E51"/>
<path d="M852.306 408.08C847.863 408.08 844.2 404.207 841.326 396.464C844.2 389.075 845.64 359.159 845.64 306.719C845.64 294.401 844.986 281.027 843.678 266.597L842.502 251.288C841.716 241.785 841.326 234.57 841.326 229.643V215.917C838.71 207.119 833.871 190.753 826.812 166.821C820.014 142.889 814.521 122.828 810.339 106.638C805.371 87.9852 802.887 75.315 802.887 68.628V65.9886L811.908 57.0138C816.354 57.7179 821.061 65.4606 826.029 80.2422C830.211 93.2643 834.789 111.917 839.757 136.202C844.986 160.486 847.599 173.332 847.599 174.74C848.646 170.868 850.737 157.67 853.875 135.146C857.013 112.621 860.544 92.7363 864.465 75.4911C868.911 58.2456 873.489 49.623 878.193 49.623C880.809 49.623 883.032 50.679 884.862 52.7907C886.953 54.9021 888 57.5418 888 60.7092C888 78.6585 884.34 103.999 877.017 136.73C869.172 172.276 865.251 197.968 865.251 213.806V372.71C865.251 396.29 860.937 408.08 852.306 408.08Z" fill="#E06E51"/>
</svg>
