<svg width="296" height="137" viewBox="0 0 296 137" fill="none" xmlns="http://www.w3.org/2000/svg">
<path d="M7.71384 133.739C5.18614 133.739 3.92229 129.985 3.92229 122.477C3.92229 108.868 3.4429 87.1064 2.48412 57.1911C1.6125 27.2757 0.784458 11.4969 0 9.85447C0 6.56965 0.958782 4.04737 2.87635 2.28764C3.57364 1.70107 4.53242 1.23181 5.75269 0.879872C7.06012 0.410611 8.23681 0.175981 9.28275 0.175981C9.80572 0.0586602 10.8952 0 12.5513 0C14.556 0 15.9942 0.469261 16.8658 1.40778C17.7375 2.22899 18.1733 3.75409 18.1733 5.98307C18.1733 7.27353 17.8246 8.27071 17.1273 8.97461C16.43 9.56118 15.5584 9.85447 14.5125 9.85447L13.205 9.67849H11.3746C8.9341 9.67849 7.71384 10.3237 7.71384 11.6142C7.71384 17.7146 8.0189 25.692 8.62904 35.5464C9.15201 43.7585 9.50066 51.5599 9.67498 58.9508C10.2851 58.7162 11.4182 58.3642 13.0743 57.895C14.8175 57.3084 16.125 57.0151 16.9966 57.0151C17.9554 57.0151 18.7834 57.6017 19.4807 58.7748C20.178 59.8307 20.5266 61.0625 20.5266 62.4702C20.5266 64.1127 19.9601 65.2858 18.827 65.9897C18.6527 66.107 18.2169 66.4003 17.5196 66.8696C16.9094 67.2215 16.0814 67.4561 15.0354 67.5734C14.251 67.6908 12.9436 67.8667 11.1132 68.1014H9.67498C9.67498 75.1403 10.1108 84.7014 10.9824 96.7849C11.7669 109.455 12.1591 119.016 12.1591 125.468L12.0284 126.172L11.8976 126.524C11.9848 126.994 12.0284 127.756 12.0284 128.812C12.0284 130.337 11.6361 131.569 10.8517 132.507C10.0672 133.329 9.02126 133.739 7.71384 133.739Z" fill="#E06E51"/>
<path d="M41.5303 135.851C40.3972 135.851 39.3512 135.323 38.3925 134.267C37.5208 133.211 37.0415 131.921 36.9543 130.396V122.301C36.8671 121.245 36.8236 120.013 36.8236 118.605C36.8236 116.142 36.6928 112.388 36.4313 107.343L36.1698 96.081C36.1698 90.3326 36.3006 81.7686 36.5621 70.389C36.9107 60.1826 37.085 51.6186 37.085 44.697C37.085 43.0546 36.9543 40.591 36.6928 37.3062C36.4313 33.904 36.3006 31.4404 36.3006 29.9153C36.3006 21.586 38.131 17.4213 41.7918 17.4213C44.6681 17.4213 47.9803 18.1838 51.7282 19.7089C55.5634 21.234 57.4809 23.0524 57.4809 25.1641C57.4809 26.3372 57.0887 27.4517 56.3043 28.5076C55.607 29.4461 54.7353 30.2086 53.6894 30.7952C50.0286 29.0355 46.7164 27.8623 43.7529 27.2757C43.8401 29.0355 43.8837 31.5577 43.8837 34.8426C43.8837 39.5352 43.8401 43.7585 43.7529 47.5126C43.4914 53.1437 43.3607 57.367 43.3607 60.1826L43.7529 62.9982L45.8448 62.8222C46.5421 62.7049 47.4137 62.6462 48.4597 62.6462C52.6434 62.6462 54.7353 64.2886 54.7353 67.5734C54.7353 68.8639 54.3431 69.9784 53.5586 70.9169C52.7742 71.7381 51.7718 72.1487 50.5516 72.1487C48.9826 72.1487 47.7624 72.0314 46.8908 71.7968H43.6222C43.7965 74.847 43.8837 79.3049 43.8837 85.1707C43.8837 91.0364 43.8401 96.3156 43.7529 101.008C43.4914 108.164 43.3607 113.502 43.3607 117.022C43.3607 123.591 43.4479 126.876 43.6222 126.876L47.9367 126.7C49.4185 126.583 51.2053 126.524 53.2972 126.524C56.6093 126.524 58.2654 127.932 58.2654 130.748C58.2654 132.39 57.6988 133.622 56.5657 134.443C55.5198 135.382 54.2124 135.851 52.6434 135.851H41.5303Z" fill="#E06E51"/>
<path d="M76.4622 135.323C74.5446 135.323 73.3679 134.208 72.9321 131.979C72.5835 130.572 72.4091 128.577 72.4091 125.996C72.4091 120.952 72.5835 114.734 72.9321 107.343C73.3679 100.304 73.5858 94.028 73.5858 88.5142C73.5858 82.2965 73.7166 72.9699 73.978 60.5345L74.2395 32.7309C74.2395 31.6751 74.1088 30.0913 73.8473 27.9796L73.4551 23.5803V22.7005C73.4551 20.0022 73.7601 18.0079 74.3703 16.7174C74.9804 15.4269 76.1135 14.7817 77.7696 14.7817C80.0358 14.7817 82.5199 15.6616 85.2219 17.4213C87.924 19.181 89.8851 21.41 91.1054 24.1082C93.6331 29.7394 94.8969 36.7783 94.8969 45.2249C94.8969 51.5599 94.5047 56.8978 93.7202 61.2384C92.9358 65.4618 91.5848 69.3918 89.6672 73.0286C92.0206 76.0788 93.5895 80.0088 94.3739 84.8188C95.2456 89.5114 95.6814 95.4358 95.6814 102.592C95.6814 109.748 94.7662 115.966 92.9358 121.245C90.8439 127.228 87.7932 131.334 83.7838 133.563C81.3432 134.736 78.9027 135.323 76.4622 135.323ZM80.6459 67.9254C85.1784 67.8081 87.4446 60.7105 87.4446 46.6327C87.4446 31.4991 85.6577 23.5803 82.0841 22.8764C81.1253 25.5747 80.6459 31.9097 80.6459 41.8815V67.9254ZM79.8615 126.348C82.6507 125.527 84.8297 123.298 86.3986 119.661C87.9675 116.025 88.752 111.86 88.752 107.167C88.752 102.24 88.5341 97.8994 88.0983 94.1453C87.7496 91.2124 87.2702 88.8075 86.6601 86.9304C86.1371 84.9361 85.3963 83.1177 84.4375 81.4753C83.3915 79.7156 82.1713 78.6597 80.7767 78.3078C80.428 84.9947 80.2537 93.852 80.2537 104.88C80.2537 105.584 80.1665 107.812 79.9922 111.567L79.7307 117.55C79.7307 117.784 79.7743 117.96 79.8615 118.078V126.348Z" fill="#E06E51"/>
<path d="M132.833 136.555C130.915 136.555 129.172 133.739 127.603 128.108C125.773 122.008 124.422 115.731 123.55 109.279L122.635 103.296C120.107 86.5198 118.495 76.9586 117.797 74.6123H116.228C116.228 78.0145 116.185 81.1233 116.098 83.9389V93.6174C116.098 109.338 116.926 121.597 118.582 130.396L117.144 135.147H113.483L111.783 132.507L111.914 120.717C111.914 110.159 111.522 94.1453 110.737 72.6766C110.04 49.8002 109.691 33.7867 109.691 24.6362C109.691 19.005 111.129 16.1895 114.006 16.1895C118.713 16.1895 122.548 17.8319 125.511 21.1167C128.562 24.4015 130.087 28.9768 130.087 34.8426V47.1606C130.087 48.9204 129.869 50.9734 129.433 53.3197C128.998 55.5487 128.518 57.367 127.995 58.7748L125.511 65.1098L123.419 70.389L124.073 74.6123L125.903 87.1064C127.124 96.1397 128.3 103.472 129.433 109.103C130.567 114.734 131.961 119.837 133.617 124.413L134.402 126.524C135.273 128.871 135.709 130.748 135.709 132.155C135.709 133.329 135.448 134.326 134.925 135.147C134.402 136.085 133.704 136.555 132.833 136.555ZM116.751 65.9897C118.669 64.6992 120.281 61.1798 121.589 55.4313C122.983 49.5656 123.681 44.1691 123.681 39.2419C123.681 35.4878 123.332 31.9683 122.635 28.6835C122.199 26.8065 121.458 25.3987 120.412 24.4602C119.453 23.4044 118.233 22.8764 116.751 22.8764L116.49 23.7563L116.228 25.34L116.49 46.1048C116.664 52.2052 116.751 58.8335 116.751 65.9897Z" fill="#E06E51"/>
<path d="M162.501 136.203C160.409 136.203 158.535 135.557 156.879 134.267C155.223 133.094 153.872 131.334 152.826 128.988C150.734 124.061 149.383 118.488 148.773 112.27C148.163 106.874 147.858 100.422 147.858 92.9135C147.597 80.2435 147.466 64.7579 147.466 46.4567L147.335 32.9069C147.248 32.203 147.204 31.0298 147.204 29.3874C147.03 24.9294 146.943 22.2312 146.943 21.2927C147.727 18.8291 148.642 17.5973 149.688 17.5973C150.734 17.5973 151.65 18.6531 152.434 20.7648C153.306 22.8764 153.741 25.1641 153.741 27.6277V75.4922C153.741 80.1848 154.047 86.4025 154.657 94.1453C155.267 103.765 155.572 109.983 155.572 112.798C155.572 121.48 158.317 125.82 163.809 125.82C170.084 125.82 173.222 94.2626 173.222 31.1471V19.7089C173.135 19.357 173.091 18.8877 173.091 18.3011C173.091 16.8934 173.309 15.8962 173.745 15.3096C174.268 14.6057 175.227 14.2538 176.621 14.2538C177.755 14.2538 178.626 14.723 179.236 15.6616C179.934 16.4828 180.369 17.4799 180.544 18.6531C180.631 19.357 180.675 20.7061 180.675 22.7005C180.675 24.5775 180.544 27.569 180.282 31.675C179.934 35.0772 179.759 38.0101 179.759 40.4737C179.759 43.1719 179.672 45.5769 179.498 47.6886L179.236 55.0794V56.4872C179.323 56.9564 179.367 57.4844 179.367 58.0709C179.367 110.159 173.745 136.203 162.501 136.203Z" fill="#E06E51"/>
<path d="M221.509 135.147C219.504 135.147 218.023 134.736 217.064 133.915C216.105 133.094 215.626 131.569 215.626 129.34C215.626 125.82 215.19 119.837 214.318 111.391L213.795 107.695L200.852 105.056C200.329 107.754 199.588 113.209 198.629 121.421C198.106 127.169 197.278 130.982 196.145 132.859C195.535 133.915 194.663 134.443 193.53 134.443C192.484 134.443 191.525 134.032 190.654 133.211C189.782 132.273 189.346 131.158 189.346 129.868L189.608 128.988L189.739 128.284C195.491 98.134 199.849 68.3947 202.813 39.0659C202.813 38.5966 202.857 37.8341 202.944 36.7783C203.031 35.6051 203.118 33.9627 203.205 31.851C203.467 27.5104 203.728 24.0496 203.99 21.4687C204.338 18.8877 204.861 16.952 205.559 15.6616H210.004C211.224 15.6616 212.27 16.0722 213.142 16.8934C214.013 17.5973 214.449 18.6531 214.449 20.0609C214.449 28.9768 215.364 42.2334 217.195 59.8307C218.938 77.8972 219.81 90.5672 219.81 97.8407C219.81 98.5446 220.027 100.363 220.463 103.296C220.899 105.994 221.117 107.754 221.117 108.575C221.117 109.396 221.553 112.916 222.424 119.133C223.209 124.765 223.601 128.401 223.601 130.044V130.22C223.601 132.801 222.904 134.443 221.509 135.147ZM212.88 101.36C212.619 99.6004 212.488 97.4301 212.488 94.8492C212.488 84.2908 211.791 70.7996 210.396 54.3755L209.089 36.0744C205.341 63.6434 202.769 84.4668 201.375 98.5446C202.682 99.7178 206.517 100.656 212.88 101.36Z" fill="#E06E51"/>
<path d="M257.703 136.555C255.785 136.555 254.042 133.739 252.473 128.108C250.642 122.008 249.291 115.731 248.42 109.279L247.505 103.296C244.977 86.5198 243.364 76.9586 242.667 74.6123H241.098C241.098 78.0145 241.055 81.1233 240.967 83.9389V93.6174C240.967 109.338 241.795 121.597 243.452 130.396L242.013 135.147H238.353L236.653 132.507L236.784 120.717C236.784 110.159 236.391 94.1453 235.607 72.6766C234.91 49.8002 234.561 33.7867 234.561 24.6362C234.561 19.005 235.999 16.1895 238.876 16.1895C243.582 16.1895 247.417 17.8319 250.381 21.1167C253.432 24.4015 254.957 28.9768 254.957 34.8426V47.1606C254.957 48.9204 254.739 50.9734 254.303 53.3197C253.867 55.5487 253.388 57.367 252.865 58.7748L250.381 65.1098L248.289 70.389L248.943 74.6123L250.773 87.1064C251.993 96.1397 253.17 103.472 254.303 109.103C255.436 114.734 256.831 119.837 258.487 124.413L259.271 126.524C260.143 128.871 260.579 130.748 260.579 132.155C260.579 133.329 260.317 134.326 259.794 135.147C259.271 136.085 258.574 136.555 257.703 136.555ZM241.621 65.9897C243.539 64.6992 245.151 61.1798 246.459 55.4313C247.853 49.5656 248.551 44.1691 248.551 39.2419C248.551 35.4878 248.202 31.9683 247.505 28.6835C247.069 26.8065 246.328 25.3987 245.282 24.4602C244.323 23.4044 243.103 22.8764 241.621 22.8764L241.36 23.7563L241.098 25.34L241.36 46.1048C241.534 52.2052 241.621 58.8335 241.621 65.9897Z" fill="#E06E51"/>
<path d="M284.102 136.027C282.621 136.027 281.4 134.736 280.442 132.155C281.4 129.692 281.88 119.72 281.88 102.24C281.88 98.134 281.662 93.676 281.226 88.8661L280.834 83.7629C280.572 80.5954 280.442 78.1905 280.442 76.548V71.9728C279.57 69.0399 277.957 63.5847 275.604 55.6073C273.338 47.6299 271.507 40.9429 270.113 35.5464C268.457 29.3288 267.629 25.1054 267.629 22.8764V21.9966L270.636 19.005C272.118 19.2397 273.687 21.8206 275.343 26.7478C276.737 31.0885 278.263 37.3062 279.919 45.4009C281.662 53.4956 282.533 57.7776 282.533 58.2469C282.882 56.9564 283.579 52.5571 284.625 45.049C285.671 37.5408 286.848 30.9125 288.155 25.1641C289.637 19.4156 291.163 16.5414 292.731 16.5414C293.603 16.5414 294.344 16.8934 294.954 17.5973C295.651 18.3011 296 19.181 296 20.2368C296 26.2199 294.78 34.6666 292.339 45.5769C289.724 57.4257 288.417 65.9897 288.417 71.2689V124.237C288.417 132.097 286.979 136.027 284.102 136.027Z" fill="#E06E51"/>
</svg>
