<svg width="888" height="303" viewBox="0 0 888 303" fill="none" xmlns="http://www.w3.org/2000/svg">
<path d="M47.4402 286.529C38.5074 286.529 34.041 277.354 34.041 259.006C34.041 247.417 28.9711 206.013 18.8312 134.792C8.93277 63.33 2.65569 24.3395 0 17.821C3.13854 12.0268 7.3635 9.12966 12.6749 9.12966C18.2277 9.12966 23.4184 21.6838 28.2469 46.7922C32.8341 73.3491 36.6969 103.769 39.8352 138.051L42.3702 167.385C43.8189 183.802 44.664 192.131 44.9052 192.372L48.5268 161.953L50.6994 143.121C53.838 115.599 55.8903 96.1638 56.856 84.8169C58.0629 69.8484 58.6665 59.5878 58.6665 54.0351V47.1543C58.6665 44.4987 59.6322 41.9637 61.5636 39.5493C63.495 37.1352 65.6679 35.928 68.0823 35.928C76.7736 35.928 81.1194 39.5493 81.1194 46.7922V52.2243C81.1194 65.9856 82.4472 80.8332 85.1028 96.7674C87.9999 112.46 92.1042 131.291 97.4154 153.261C100.796 166.057 104.176 181.629 107.555 199.977C108.28 192.01 110.573 172.696 114.436 142.035C118.299 114.029 121.075 90.249 122.765 70.6935C124.697 50.8965 125.663 32.4273 125.663 15.286C125.663 9.73323 126.507 5.8704 128.197 3.69756C130.129 1.2833 133.63 0.0761719 138.699 0.0761719C141.596 0.0761719 144.131 1.04187 146.304 2.97327C148.719 4.66326 149.926 6.95682 149.926 9.85392C149.926 12.5096 148.719 15.286 146.304 18.1831C146.304 35.5659 144.977 55.9665 142.321 79.3848C139.665 102.562 136.406 124.652 132.543 145.656C128.68 166.178 125.421 188.268 122.765 211.928C120.109 235.346 118.782 255.988 118.782 273.854C118.782 277.716 117.816 280.734 115.885 282.907C114.195 285.321 111.539 286.529 107.917 286.529C105.262 286.529 102.123 281.579 98.502 271.681C93.9147 257.92 88.2414 230.518 81.4815 189.475L74.9628 147.105L71.7036 123.566C68.565 145.535 66.1509 163.28 64.4607 176.8C63.0123 190.079 61.5636 205.892 60.1152 224.24C58.4253 241.865 57.5802 259.247 57.5802 276.388C57.5802 278.803 56.4939 281.096 54.321 283.269C52.3896 285.442 50.0961 286.529 47.4402 286.529Z" fill="#E06E51"/>
<path d="M207.193 286.165C204.055 286.165 201.158 285.079 198.502 282.906C196.088 280.733 194.76 278.078 194.518 274.939V258.281C194.277 256.108 194.156 253.573 194.156 250.676C194.156 245.606 193.794 237.88 193.07 227.499L192.346 204.322C192.346 192.492 192.708 174.868 193.432 151.449C194.398 130.445 194.881 112.821 194.881 98.5771C194.881 95.197 194.518 90.127 193.794 83.3671C193.07 76.3657 192.708 71.2957 192.708 68.1574C192.708 51.016 197.778 42.4453 207.917 42.4453C215.885 42.4453 225.059 44.0146 235.44 47.1532C246.063 50.2918 251.374 54.0337 251.374 58.3795C251.374 60.7939 250.288 63.0874 248.115 65.2603C246.184 67.1917 243.769 68.7607 240.872 69.9679C230.732 66.3466 221.558 63.9322 213.35 62.7253C213.591 66.3466 213.712 71.5372 213.712 78.2971C213.712 87.9541 213.591 96.6457 213.35 104.371C212.625 115.96 212.263 124.651 212.263 130.445L213.35 136.239L219.144 135.877C221.075 135.636 223.49 135.515 226.387 135.515C237.975 135.515 243.769 138.895 243.769 145.655C243.769 148.311 242.683 150.604 240.51 152.536C238.337 154.226 235.561 155.071 232.181 155.071C227.835 155.071 224.455 154.829 222.041 154.347H212.988C213.471 160.624 213.712 169.798 213.712 181.869C213.712 193.941 213.591 204.805 213.35 214.462C212.625 229.189 212.263 240.174 212.263 247.416C212.263 260.936 212.505 267.696 212.988 267.696L224.938 267.334C229.042 267.093 233.992 266.972 239.786 266.972C248.96 266.972 253.547 269.869 253.547 275.663C253.547 279.043 251.978 281.578 248.839 283.268C245.942 285.2 242.321 286.165 237.975 286.165H207.193Z" fill="#E06E51"/>
<path d="M349.218 287.253C340.527 284.356 329.784 282.908 316.989 282.908C313.125 285.322 309.021 286.529 304.674 286.529C301.779 286.529 299.244 285.201 297.071 282.546C295.14 280.131 294.174 277.476 294.174 274.578C294.174 254.298 295.019 227.259 296.709 193.459C298.157 157.487 298.881 130.568 298.881 112.702V110.167C297.433 94.9571 296.709 83.6102 296.709 76.1261C296.709 53.1905 300.933 41.7227 309.384 41.7227C311.796 41.7227 313.851 42.6884 315.54 44.6198C317.472 46.3097 318.438 48.362 318.438 50.7761C318.438 53.6732 318.075 58.2605 317.349 64.5374C316.626 70.5731 316.263 75.1604 316.263 78.2987C316.263 94.4744 316.383 109.08 316.626 122.118C316.866 134.913 316.989 149.399 316.989 165.574C315.78 169.196 315.177 174.266 315.177 180.784V185.13L314.454 213.739C313.971 222.189 313.728 231.846 313.728 242.71C313.728 259.368 317.712 267.698 325.68 267.698C326.163 267.698 326.886 267.698 327.852 267.698C329.058 267.456 330.63 267.336 332.559 267.336C334.734 267.094 337.509 266.973 340.89 266.973C353.925 266.973 360.444 270.595 360.444 277.838C360.444 280.252 359.358 282.304 357.186 283.994C355.014 285.684 352.356 286.77 349.218 287.253Z" fill="#E06E51"/>
<path d="M438.877 286.529C433.567 286.529 427.891 285.684 421.858 283.994C416.062 282.546 411.595 280.856 408.457 278.924C392.281 268.543 384.193 240.175 384.193 193.821V164.126C384.193 154.469 384.316 145.898 384.556 138.414C384.799 130.688 385.282 122.359 386.005 113.426C386.728 104.011 387.817 96.4059 389.263 90.6117C390.712 84.576 393.127 77.8161 396.508 70.3317C399.403 63.3306 402.904 57.8985 407.008 54.0357C411.355 50.1726 416.908 46.9134 423.667 44.2578C429.703 41.6022 437.188 40.2744 446.119 40.2744C449.74 40.2744 452.518 41.1192 454.45 42.8091C456.382 44.4993 457.345 46.6719 457.345 49.3278C457.345 51.7419 456.502 53.9148 454.81 55.8462C453.364 57.7776 451.552 58.8642 449.38 59.1054H432.358C427.531 59.1054 423.304 62.1234 419.683 68.1591C416.062 74.1945 413.527 82.041 412.078 91.698C408.94 109.564 407.371 124.049 407.371 135.155V136.966L406.648 171.731C406.165 182.112 405.922 193.821 405.922 206.858C405.922 216.033 406.285 223.517 407.008 229.311C408.217 238.002 410.269 245.245 413.164 251.039C416.062 257.558 421.012 262.266 428.014 265.163C431.635 266.612 435.619 267.336 439.963 267.336C442.618 267.336 445.276 266.37 447.931 264.439C451.069 264.439 453.604 265.163 455.536 266.612C457.708 267.819 458.794 269.75 458.794 272.406C458.794 281.821 452.155 286.529 438.877 286.529Z" fill="#E06E51"/>
<path d="M533.864 288.341C527.585 288.341 521.792 286.288 516.482 282.184C511.169 278.321 506.825 273.01 503.444 266.25C496.442 251.523 492.098 235.468 490.406 218.086C488.234 201.669 487.148 185.855 487.148 170.645C487.148 167.748 487.268 165.334 487.511 163.402V156.884C487.511 155.677 487.388 155.073 487.148 155.073V148.555L487.511 123.205C487.751 115.48 488.717 103.167 490.406 86.2667C491.615 74.6783 494.39 63.452 498.737 52.5878C500.426 47.7593 502.598 44.138 505.253 41.7236C507.911 39.068 510.929 37.7402 514.307 37.7402C523.964 37.7402 532.655 39.5507 540.383 43.1723C548.108 46.5521 554.627 51.3806 559.937 57.6578C564.767 63.6935 568.871 71.1776 572.249 80.1104C575.63 88.8017 578.045 98.0966 579.494 107.995C580.94 118.135 581.666 128.878 581.666 140.226V143.123C581.666 150.607 581.786 157.367 582.029 163.402L582.389 184.045C582.389 253.575 566.213 288.341 533.864 288.341ZM532.415 273.131C536.759 273.131 540.743 271.441 544.364 268.061C547.988 264.439 550.763 259.611 552.695 253.575C557.282 241.263 560.057 227.984 561.023 213.74C562.232 201.427 562.835 190.804 562.835 181.872C562.835 171.007 561.989 156.763 560.3 139.139C558.851 120.549 558.128 106.667 558.128 97.493V90.9746C557.645 81.8003 554.504 73.8332 548.711 67.0733C543.158 60.3134 536.279 56.9336 528.068 56.9336C519.86 56.9336 514.43 61.6412 511.772 71.057C509.36 78.5411 508.151 88.1981 508.151 100.028C508.151 104.615 508.271 108.478 508.514 111.616V121.394L507.788 138.053C507.305 143.123 507.065 148.675 507.065 154.711C507.065 167.748 507.428 180.664 508.151 193.46C509.117 211.567 511.532 229.191 515.393 246.332C519.257 264.198 524.93 273.131 532.415 273.131Z" fill="#E06E51"/>
<path d="M767.934 300.29C760.449 300.29 756.708 292.805 756.708 277.836V231.482C756.708 219.411 755.862 203.598 754.173 184.042C752.241 162.072 751.275 146.983 751.275 138.774L752.001 116.322C752.481 109.803 752.724 102.44 752.724 94.2313C751.758 97.3699 747.774 114.028 740.772 144.207C733.773 173.419 726.528 200.459 719.046 225.326C711.801 249.227 705.888 261.178 701.301 261.178C696.714 261.178 692.97 259.85 690.075 257.194C687.417 254.297 686.091 250.434 686.091 245.606C686.091 234.983 681.744 212.409 673.053 177.886C664.602 143.362 656.877 115.115 649.875 93.145L647.703 134.067C645.771 168.591 644.445 197.32 643.719 220.256C643.236 242.467 642.996 257.677 642.996 265.886C642.996 267.817 643.116 269.628 643.359 271.318V276.387C643.359 280.492 642.513 283.51 640.824 285.441C639.132 287.614 635.994 288.7 631.407 288.7C628.992 288.7 626.7 287.735 624.525 285.803C622.353 284.113 621.267 282.182 621.267 280.009C621.267 255.384 623.079 218.445 626.7 169.194C630.321 119.943 632.13 83.005 632.13 58.3795C630.684 56.2066 629.958 53.9131 629.958 51.499C629.958 48.6019 631.287 46.429 633.942 44.9803C636.84 43.2904 640.218 42.4453 644.082 42.4453C647.22 42.4453 653.016 53.7925 661.464 76.4866C669.915 99.1807 678.366 124.893 686.814 153.622C695.265 182.352 700.698 203.115 703.11 215.91C705.042 209.392 706.611 203.356 707.82 197.803L709.992 189.112C717.717 155.312 725.442 124.772 733.167 97.4905C737.754 80.8321 742.221 67.795 746.568 58.3795C750.912 48.2395 754.896 43.1698 758.517 43.1698C761.898 43.1698 764.916 44.1355 767.571 46.0669C770.469 47.7568 771.918 50.0503 771.918 52.9474C771.918 70.33 772.641 96.4042 774.09 131.17C775.779 163.521 776.625 188.629 776.625 206.495L776.262 225.688L775.539 244.881C775.539 247.779 775.902 252.124 776.625 257.919L777.711 270.593C777.954 272.766 778.074 274.456 778.074 275.663C778.314 276.87 778.437 277.595 778.437 277.836C779.643 280.975 780.246 283.268 780.246 284.717C780.246 288.821 779.04 292.442 776.625 295.581C774.21 298.719 771.315 300.29 767.934 300.29Z" fill="#E06E51"/>
<path d="M841.646 286.165C838.508 286.165 835.61 285.079 832.955 282.906C830.54 280.733 829.211 278.078 828.971 274.939V258.281C828.728 256.108 828.608 253.573 828.608 250.676C828.608 245.606 828.245 237.88 827.522 227.499L826.796 204.322C826.796 192.492 827.159 174.868 827.885 151.449C828.851 130.445 829.331 112.821 829.331 98.5771C829.331 95.197 828.971 90.127 828.245 83.3671C827.522 76.3657 827.159 71.2957 827.159 68.1574C827.159 51.016 832.229 42.4453 842.369 42.4453C850.337 42.4453 859.511 44.0146 869.891 47.1532C880.514 50.2918 885.827 54.0337 885.827 58.3795C885.827 60.7939 884.741 63.0874 882.566 65.2603C880.634 67.1917 878.222 68.7607 875.324 69.9679C865.184 66.3466 856.01 63.9322 847.802 62.7253C848.042 66.3466 848.165 71.5372 848.165 78.2971C848.165 87.9541 848.042 96.6457 847.802 104.371C847.076 115.96 846.716 124.651 846.716 130.445L847.802 136.239L853.595 135.877C855.527 135.636 857.942 135.515 860.84 135.515C872.426 135.515 878.222 138.895 878.222 145.655C878.222 148.311 877.136 150.604 874.961 152.536C872.789 154.226 870.014 155.071 866.633 155.071C862.286 155.071 858.908 154.829 856.493 154.347H847.439C847.922 160.624 848.165 169.798 848.165 181.869C848.165 193.941 848.042 204.805 847.802 214.462C847.076 229.189 846.716 240.174 846.716 247.416C846.716 260.936 846.956 267.696 847.439 267.696L859.391 267.334C863.495 267.093 868.442 266.972 874.238 266.972C883.412 266.972 887.999 269.869 887.999 275.663C887.999 279.043 886.43 281.578 883.292 283.268C880.394 285.2 876.773 286.165 872.426 286.165H841.646Z" fill="#E06E51"/>
</svg>
