<svg width="296" height="101" viewBox="0 0 296 101" fill="none" xmlns="http://www.w3.org/2000/svg">
<path d="M15.8134 95.5095C12.8358 95.5095 11.347 92.4514 11.347 86.3353C11.347 82.4725 9.65705 68.6709 6.27708 44.9307C2.97759 21.11 0.88523 8.11317 0 5.94033C1.04618 4.00892 2.4545 3.04322 4.22496 3.04322C6.0759 3.04322 7.80612 7.22794 9.41563 15.5974C10.9447 24.4497 12.2323 34.5896 13.2784 46.0171L14.1234 55.7949C14.6063 61.2672 14.888 64.0436 14.9684 64.1241L16.1756 53.9842L16.8998 47.7071C17.946 38.5329 18.6301 32.0546 18.952 28.2723C19.3543 23.2828 19.5555 19.8626 19.5555 18.0117V15.7181C19.5555 14.8329 19.8774 13.9879 20.5212 13.1831C21.165 12.3784 21.8893 11.976 22.6941 11.976C25.5912 11.976 27.0398 13.1831 27.0398 15.5974V17.4081C27.0398 21.9952 27.4824 26.9444 28.3676 32.2558C29.3333 37.4867 30.7014 43.7638 32.4718 51.0871C33.5985 55.3523 34.7252 60.5429 35.8518 66.6591C36.0932 64.0034 36.8578 57.5653 38.1454 47.345C39.433 38.0098 40.3584 30.083 40.9218 23.5645C41.5656 16.9655 41.8875 10.8091 41.8875 5.09534C41.8875 3.24441 42.1691 1.9568 42.7325 1.23252C43.3763 0.427767 44.5432 0.0253906 46.2331 0.0253906C47.1988 0.0253906 48.0438 0.347291 48.7681 0.991091C49.5729 1.55442 49.9753 2.31894 49.9753 3.28464C49.9753 4.16987 49.5729 5.09534 48.7681 6.06104C48.7681 11.8553 48.3255 18.6555 47.4403 26.4616C46.555 34.1872 45.4686 41.5507 44.181 48.5521C42.8934 55.3925 41.807 62.756 40.9218 70.6426C40.0365 78.4487 39.5939 85.3294 39.5939 91.2845C39.5939 92.5721 39.272 93.5781 38.6282 94.3024C38.0649 95.1071 37.1797 95.5095 35.9725 95.5095C35.0873 95.5095 34.0411 93.8598 32.834 90.5603C31.3049 85.9732 29.4138 76.8392 27.1605 63.1584L24.9876 49.0349L23.9012 41.1886C22.855 48.5118 22.0503 54.4268 21.4869 58.9334C21.0041 63.3596 20.5212 68.6307 20.0384 74.7468C19.4751 80.6215 19.1934 86.4158 19.1934 92.1295C19.1934 92.9343 18.8313 93.6988 18.107 94.4231C17.4632 95.1474 16.6987 95.5095 15.8134 95.5095Z" fill="#E06E51"/>
<path d="M69.0649 95.3888C68.0187 95.3888 67.053 95.0266 66.1678 94.3024C65.363 93.5781 64.9204 92.6929 64.8399 91.6467V86.0939C64.7595 85.3696 64.7192 84.5246 64.7192 83.5589C64.7192 81.8689 64.5985 79.2937 64.3571 75.8333L64.1157 68.1076C64.1157 64.1643 64.2364 58.2896 64.4778 50.4835C64.7997 43.4821 64.9607 37.6074 64.9607 32.8594C64.9607 31.7327 64.8399 30.0427 64.5985 27.7894C64.3571 25.4556 64.2364 23.7656 64.2364 22.7195C64.2364 17.0057 65.9264 14.1488 69.3063 14.1488C71.962 14.1488 75.0201 14.6719 78.4805 15.7181C82.0214 16.7643 83.7919 18.0116 83.7919 19.4602C83.7919 20.265 83.4298 21.0295 82.7055 21.7538C82.0617 22.3976 81.2569 22.9206 80.2912 23.323C76.9113 22.1159 73.8532 21.3111 71.117 20.9088C71.1975 22.1159 71.2377 23.8461 71.2377 26.0994C71.2377 29.3184 71.1975 32.2156 71.117 34.7908C70.8756 38.6536 70.7549 41.5507 70.7549 43.4821L71.117 45.4135L73.0484 45.2928C73.6922 45.2123 74.497 45.1721 75.4627 45.1721C79.3255 45.1721 81.2569 46.2988 81.2569 48.5521C81.2569 49.4373 80.8948 50.2018 80.1705 50.8456C79.4462 51.409 78.5208 51.6906 77.3941 51.6906C75.9456 51.6906 74.8189 51.6101 74.0141 51.4492H70.9963C71.1573 53.5416 71.2377 56.5996 71.2377 60.6234C71.2377 64.6472 71.1975 68.2686 71.117 71.4876C70.8756 76.3966 70.7549 80.0582 70.7549 82.4725C70.7549 86.9791 70.8354 89.2324 70.9963 89.2324L74.9799 89.1117C76.3479 89.0312 77.9977 88.991 79.9291 88.991C82.9872 88.991 84.5162 89.9567 84.5162 91.8881C84.5162 93.0148 83.9931 93.8598 82.9469 94.4231C81.9812 95.0669 80.7741 95.3888 79.3255 95.3888H69.0649Z" fill="#E06E51"/>
<path d="M116.406 95.7509C113.509 94.7852 109.928 94.3024 105.663 94.3024C104.375 95.1071 103.007 95.5095 101.558 95.5095C100.593 95.5095 99.7477 95.0669 99.0235 94.1817C98.3797 93.3769 98.0578 92.4917 98.0578 91.526C98.0578 84.766 98.3394 75.7528 98.9027 64.4862C99.3856 52.4954 99.627 43.5224 99.627 37.5672V36.7222C99.1442 31.6522 98.9027 27.8699 98.9027 25.3752C98.9027 17.73 100.311 13.9074 103.128 13.9074C103.932 13.9074 104.617 14.2293 105.18 14.8731C105.824 15.4364 106.146 16.1205 106.146 16.9252C106.146 17.8909 106.025 19.42 105.783 21.5123C105.542 23.5242 105.421 25.0533 105.421 26.0994C105.421 31.4913 105.461 36.36 105.542 40.7057C105.622 44.9709 105.663 49.7994 105.663 55.1913C105.26 56.3984 105.059 58.0884 105.059 60.2613V61.7098L104.818 71.2462C104.657 74.0628 104.576 77.2818 104.576 80.9032C104.576 86.456 105.904 89.2324 108.56 89.2324C108.721 89.2324 108.962 89.2324 109.284 89.2324C109.686 89.1519 110.21 89.1117 110.853 89.1117C111.578 89.0312 112.503 88.991 113.63 88.991C117.975 88.991 120.148 90.1981 120.148 92.6124C120.148 93.4171 119.786 94.1012 119.062 94.6645C118.338 95.2278 117.452 95.59 116.406 95.7509Z" fill="#E06E51"/>
<path d="M146.292 95.5095C144.522 95.5095 142.63 95.2278 140.619 94.6645C138.687 94.1817 137.198 93.6183 136.152 92.9745C130.76 89.5141 128.064 80.0582 128.064 64.6069V54.7085C128.064 51.4894 128.105 48.6326 128.185 46.1378C128.266 43.5626 128.427 40.7862 128.668 37.8086C128.909 34.6701 129.272 32.1351 129.754 30.2037C130.237 28.1918 131.042 25.9385 132.169 23.4437C133.134 21.11 134.301 19.2993 135.669 18.0117C137.118 16.724 138.969 15.6376 141.222 14.7524C143.234 13.8672 145.729 13.4246 148.706 13.4246C149.913 13.4246 150.839 13.7062 151.483 14.2695C152.127 14.8329 152.448 15.5571 152.448 16.4424C152.448 17.2471 152.167 17.9714 151.603 18.6152C151.121 19.259 150.517 19.6212 149.793 19.7016H144.119C142.51 19.7016 141.101 20.7076 139.894 22.7195C138.687 24.7313 137.842 27.3468 137.359 30.5658C136.313 36.521 135.79 41.3495 135.79 45.0514V45.655L135.549 57.2434C135.388 60.7039 135.307 64.6069 135.307 68.9526C135.307 72.0107 135.428 74.5054 135.669 76.4368C136.072 79.3339 136.756 81.7482 137.721 83.6796C138.687 85.8525 140.337 87.4217 142.671 88.3874C143.878 88.8703 145.206 89.1117 146.654 89.1117C147.539 89.1117 148.425 88.7898 149.31 88.146C150.356 88.146 151.201 88.3874 151.845 88.8703C152.569 89.2727 152.931 89.9165 152.931 90.8017C152.931 93.9402 150.718 95.5095 146.292 95.5095Z" fill="#E06E51"/>
<path d="M177.955 96.1131C175.862 96.1131 173.931 95.429 172.161 94.0609C170.39 92.7733 168.942 91.0029 167.815 88.7496C165.481 83.8406 164.033 78.4889 163.469 72.6947C162.745 67.2224 162.383 61.9512 162.383 56.8813C162.383 55.9156 162.423 55.1108 162.504 54.467V52.2942C162.504 51.8918 162.463 51.6906 162.383 51.6906V49.5178L162.504 41.0679C162.584 38.4927 162.906 34.3884 163.469 28.7551C163.872 24.8923 164.797 21.1502 166.246 17.5288C166.809 15.9193 167.533 14.7122 168.418 13.9074C169.304 13.0222 170.31 12.5796 171.436 12.5796C174.655 12.5796 177.552 13.1831 180.128 14.3903C182.703 15.5169 184.876 17.1264 186.646 19.2188C188.256 21.2307 189.624 23.7254 190.75 26.703C191.877 29.6001 192.682 32.6984 193.165 35.9979C193.647 39.3779 193.889 42.959 193.889 46.7414V47.7071C193.889 50.2018 193.929 52.4551 194.01 54.467L194.13 61.3477C194.13 84.5246 188.738 96.1131 177.955 96.1131ZM177.472 91.0431C178.92 91.0431 180.248 90.4798 181.455 89.3531C182.663 88.146 183.588 86.5365 184.232 84.5246C185.761 80.4204 186.686 75.9942 187.008 71.2462C187.411 67.1419 187.612 63.601 187.612 60.6234C187.612 57.002 187.33 52.254 186.767 46.3792C186.284 40.1826 186.043 35.5553 186.043 32.4972V30.3244C185.882 27.2663 184.835 24.6106 182.904 22.3573C181.053 20.104 178.76 18.9774 176.023 18.9774C173.287 18.9774 171.477 20.5466 170.591 23.6852C169.787 26.1799 169.384 29.3989 169.384 33.3422C169.384 34.8713 169.424 36.1589 169.505 37.205V40.4643L169.263 46.0171C169.102 47.7071 169.022 49.558 169.022 51.5699C169.022 55.9156 169.143 60.221 169.384 64.4862C169.706 70.5219 170.511 76.3966 171.798 82.1103C173.086 88.0655 174.977 91.0431 177.472 91.0431Z" fill="#E06E51"/>
<path d="M255.978 100.097C253.483 100.097 252.236 97.6019 252.236 92.6124V77.1611C252.236 73.1373 251.954 67.8662 251.391 61.3477C250.747 54.0244 250.425 48.9947 250.425 46.2585L250.667 38.7743C250.827 36.6015 250.908 34.147 250.908 31.4108C250.586 32.457 249.258 38.0098 246.924 48.0692C244.591 57.8068 242.176 66.82 239.682 75.109C237.267 83.076 235.296 87.0596 233.767 87.0596C232.238 87.0596 230.99 86.617 230.025 85.7317C229.139 84.766 228.697 83.4784 228.697 81.8689C228.697 78.328 227.248 70.8035 224.351 59.2956C221.534 47.7876 218.959 38.3719 216.625 31.0487L215.901 44.6893C215.257 56.1972 214.815 65.7738 214.573 73.419C214.412 80.8227 214.332 85.8927 214.332 88.6289C214.332 89.2727 214.372 89.8762 214.453 90.4396V92.1295C214.453 93.4976 214.171 94.5036 213.608 95.1474C213.044 95.8716 211.998 96.2338 210.469 96.2338C209.664 96.2338 208.9 95.9119 208.175 95.2681C207.451 94.7047 207.089 94.0609 207.089 93.3367C207.089 85.1282 207.693 72.8154 208.9 56.3984C210.107 39.9814 210.71 27.6687 210.71 19.4602C210.228 18.7359 209.986 17.9714 209.986 17.1667C209.986 16.201 210.429 15.4767 211.314 14.9938C212.28 14.4305 213.406 14.1488 214.694 14.1488C215.74 14.1488 217.672 17.9312 220.488 25.4959C223.305 33.0606 226.122 41.6312 228.938 51.2078C231.755 60.7843 233.566 67.7052 234.37 71.9704C235.014 69.7976 235.537 67.7857 235.94 65.9348L236.664 63.0377C239.239 51.7711 241.814 41.591 244.389 32.4972C245.918 26.9444 247.407 22.5987 248.856 19.4602C250.304 16.0802 251.632 14.3903 252.839 14.3903C253.966 14.3903 254.972 14.7122 255.857 15.356C256.823 15.9193 257.306 16.6838 257.306 17.6495C257.306 23.4437 257.547 32.1351 258.03 43.7236C258.593 54.5073 258.875 62.8767 258.875 68.8319L258.754 75.2297L258.513 81.6275C258.513 82.5932 258.634 84.0417 258.875 85.9732L259.237 90.1981C259.318 90.9224 259.358 91.4857 259.358 91.8881C259.438 92.2905 259.479 92.5319 259.479 92.6124C259.881 93.6586 260.082 94.4231 260.082 94.9059C260.082 96.274 259.68 97.4811 258.875 98.5273C258.07 99.5735 257.105 100.097 255.978 100.097Z" fill="#E06E51"/>
<path d="M280.549 95.3888C279.503 95.3888 278.537 95.0266 277.652 94.3024C276.847 93.5781 276.404 92.6929 276.324 91.6467V86.0939C276.243 85.3696 276.203 84.5246 276.203 83.5589C276.203 81.8689 276.082 79.2937 275.841 75.8333L275.599 68.1076C275.599 64.1643 275.72 58.2896 275.962 50.4835C276.284 43.4821 276.444 37.6074 276.444 32.8594C276.444 31.7327 276.324 30.0427 276.082 27.7894C275.841 25.4556 275.72 23.7656 275.72 22.7195C275.72 17.0057 277.41 14.1488 280.79 14.1488C283.446 14.1488 286.504 14.6719 289.964 15.7181C293.505 16.7643 295.276 18.0116 295.276 19.4602C295.276 20.265 294.914 21.0295 294.189 21.7538C293.545 22.3976 292.741 22.9206 291.775 23.323C288.395 22.1159 285.337 21.3111 282.601 20.9088C282.681 22.1159 282.722 23.8461 282.722 26.0994C282.722 29.3184 282.681 32.2156 282.601 34.7908C282.359 38.6536 282.239 41.5507 282.239 43.4821L282.601 45.4135L284.532 45.2928C285.176 45.2123 285.981 45.1721 286.947 45.1721C290.809 45.1721 292.741 46.2988 292.741 48.5521C292.741 49.4373 292.379 50.2018 291.654 50.8456C290.93 51.409 290.005 51.6906 288.878 51.6906C287.429 51.6906 286.303 51.6101 285.498 51.4492H282.48C282.641 53.5416 282.722 56.5996 282.722 60.6234C282.722 64.6472 282.681 68.2686 282.601 71.4876C282.359 76.3966 282.239 80.0582 282.239 82.4725C282.239 86.9791 282.319 89.2324 282.48 89.2324L286.464 89.1117C287.832 89.0312 289.481 88.991 291.413 88.991C294.471 88.991 296 89.9567 296 91.8881C296 93.0148 295.477 93.8598 294.431 94.4231C293.465 95.0669 292.258 95.3888 290.809 95.3888H280.549Z" fill="#E06E51"/>
</svg>
