<svg width="297" height="190" viewBox="0 0 297 190" fill="none" xmlns="http://www.w3.org/2000/svg">
<rect x="0.0400391" y="0.764648" width="296" height="188.364" rx="8.9697" fill="#76DC9F"/>
<rect x="0.0400391" y="0.764648" width="296" height="188.364" rx="8.9697" fill="black" fill-opacity="0.05"/>
<path fill-rule="evenodd" clip-rule="evenodd" d="M15.2886 56.5811C12.8116 56.5811 10.8037 58.589 10.8037 61.0659V87.975C10.8037 90.4519 12.8117 92.4598 15.2886 92.4598H280.792C283.268 92.4598 285.276 90.4519 285.276 87.975V61.0659C285.276 58.589 283.268 56.5811 280.792 56.5811H15.2886ZM30.5371 83.4404C35.4909 83.4404 39.5068 79.4245 39.5068 74.4707C39.5068 69.5168 35.4909 65.501 30.5371 65.501C25.5833 65.501 21.5674 69.5168 21.5674 74.4707C21.5674 79.4245 25.5833 83.4404 30.5371 83.4404Z" fill="white" fill-opacity="0.3"/>
<path fill-rule="evenodd" clip-rule="evenodd" d="M15.2886 98.9893C12.8116 98.9893 10.8037 100.997 10.8037 103.474V130.383C10.8037 132.86 12.8117 134.868 15.2886 134.868H280.792C283.268 134.868 285.276 132.86 285.276 130.383V103.474C285.276 100.997 283.268 98.9893 280.792 98.9893H15.2886ZM30.5371 125.849C35.4909 125.849 39.5068 121.833 39.5068 116.879C39.5068 111.925 35.4909 107.909 30.5371 107.909C25.5833 107.909 21.5674 111.925 21.5674 116.879C21.5674 121.833 25.5833 125.849 30.5371 125.849Z" fill="white" fill-opacity="0.3"/>
<path fill-rule="evenodd" clip-rule="evenodd" d="M15.2886 142.383C12.8116 142.383 10.8037 144.391 10.8037 146.868V173.777C10.8037 176.254 12.8117 178.262 15.2886 178.262H280.792C283.268 178.262 285.276 176.254 285.276 173.777V146.868C285.276 144.391 283.268 142.383 280.792 142.383H15.2886ZM30.5371 169.243C35.4909 169.243 39.5068 165.227 39.5068 160.273C39.5068 155.319 35.4909 151.303 30.5371 151.303C25.5833 151.303 21.5674 155.319 21.5674 160.273C21.5674 165.227 25.5833 169.243 30.5371 169.243Z" fill="white" fill-opacity="0.3"/>
<path d="M20.8569 28.4594C21.1583 29.8587 21.2014 30.2031 21.2014 30.9351C21.2229 32.3989 20.8139 33.217 19.8452 33.6906C18.2737 34.5086 16.1855 33.3031 14.8724 32.4635C14.4849 32.2052 13.9252 31.8392 13.6453 31.667C13.3655 31.4948 13.1287 31.3441 13.1071 31.3656C13.0856 31.3656 12.9995 31.7531 12.9134 32.2267C12.6766 33.4322 12.612 33.6475 12.3321 33.8843C12.0523 34.1211 11.6217 34.1642 11.2988 33.9704C11.1912 33.9058 11.062 33.7336 10.9975 33.6044C10.8898 33.3676 10.8898 33.3246 11.062 32.5066C11.1697 32.033 11.3419 31.1073 11.4711 30.4615C12.1815 26.5435 13.0641 22.4748 13.7745 20.0638C14.6356 17.0069 15.0446 16.1458 15.798 15.8444C16.1425 15.6938 16.4008 15.6938 16.7452 15.866C17.348 16.1458 17.7785 16.8347 18.2952 18.3847C18.8119 19.9131 20.3188 25.8762 20.8569 28.4594ZM19.5868 31.1073C19.6729 30.2031 19.2855 29.1698 19.0702 28.2872C18.8334 27.2539 18.5751 26.2421 18.3167 25.2088C17.9077 23.5943 17.4987 21.9582 17.0466 20.3436C16.982 20.1499 16.53 18.0618 16.2716 18.0618C16.1209 18.0618 15.0876 21.6783 14.5495 24.0894C14.0974 26.0914 13.4516 29.342 13.4731 29.4066C13.5592 29.5358 16.3362 31.3871 16.8313 31.6455C17.4772 31.9468 18.6827 32.7218 19.2639 31.9684C19.4577 31.71 19.5438 31.4302 19.5868 31.1073ZM25.8883 33.7767C24.898 33.5399 24.0154 32.9371 23.4342 32.076C22.3363 30.4184 22.1425 28.3087 22.487 26.3713C22.7668 24.8213 23.3696 23.1852 24.4244 21.9582C25.0702 21.2047 25.9744 20.6666 26.9862 20.5804C28.041 20.5159 29.0528 20.9895 29.7632 21.7429C30.1937 22.195 30.818 22.9915 30.2368 23.5727C29.8923 23.8956 29.3972 23.6804 29.0313 23.379C28.6868 23.0561 28.3424 22.6901 27.9118 22.4533C27.2875 22.1304 26.491 22.3672 25.9744 22.8408C24.2737 24.3692 23.9939 27.297 24.3598 29.3851C24.5751 30.6767 25.3501 32.1836 26.857 32.2052C27.5243 32.2052 27.8688 32.0545 28.5146 31.4732C29.0313 30.9996 29.2896 30.9135 29.6555 31.0642C30.1937 31.2795 30.3659 31.8823 30.0215 32.3989C29.7847 32.7434 29.0097 33.3461 28.4715 33.5829C27.6535 33.9489 26.7278 34.0135 25.8883 33.7767ZM32.4169 33.6475C32.3308 33.5829 32.1801 33.4322 32.1155 33.3031C31.9649 33.0663 31.9649 32.9371 31.9433 29.4497C31.9003 23.745 32.094 15.2417 32.2878 14.2514C32.3523 13.8639 32.6107 13.5626 32.9551 13.4764C33.2565 13.4119 33.687 13.5841 33.8377 13.8209C34.0099 14.0792 34.0099 14.2084 33.8377 17.7819C33.7947 18.6215 33.7516 20.3652 33.7301 21.6783L33.687 24.0463L34.0315 23.4866C34.828 22.1089 35.3662 21.4415 36.0335 20.9679C37.0883 20.2791 38.4015 20.3006 39.4348 21.0325C40.4466 21.7214 40.9848 22.8193 41.2216 24.0033C41.6521 26.2421 41.6521 28.5671 41.6091 30.8274C41.5875 31.4087 41.5875 31.9899 41.5445 32.5711C41.523 33.0878 41.2862 33.6475 40.6834 33.6475C39.8438 33.6475 39.8869 32.8295 39.8654 32.2267C39.8438 31.4302 39.8438 30.6122 39.8438 29.8156C39.8223 26.5866 39.7793 26.0699 39.5424 24.5845C39.3918 23.7234 38.8751 22.1735 37.7772 22.1735C37.3682 22.1735 37.0453 22.3457 36.6363 22.7762C35.7537 23.6804 34.9141 25.4026 34.3759 27.3831C33.9454 28.9976 33.7947 30.074 33.7301 32.1406C33.7086 32.9371 33.687 33.1093 33.5579 33.3246C33.3211 33.7121 32.8259 33.8412 32.4169 33.6475ZM44.3133 33.8412C44.141 33.7551 43.9688 33.626 43.9258 33.4322C43.8827 33.3246 43.8612 33.1739 43.8612 33.0447C43.8181 32.5066 43.8397 31.9468 43.8397 31.3871C43.8827 27.4907 44.0119 22.0658 44.0765 21.5707C44.141 21.1402 44.1626 21.054 44.3994 20.8388C44.7869 20.4728 45.3681 20.5589 45.6695 21.011C45.7986 21.2263 45.8202 22.0228 45.7341 23.379C45.7125 23.7019 45.6695 26.0484 45.648 28.5671C45.6264 29.7726 45.6264 30.9996 45.5618 32.2052C45.5618 32.6142 45.5834 33.1093 45.4327 33.4968C45.3035 33.8197 44.8514 33.9489 44.5285 33.9058C44.464 33.8843 44.3778 33.8628 44.3133 33.8412ZM44.5716 19.0951C44.5501 19.0735 44.507 19.052 44.464 19.0305C43.9473 18.686 43.9904 17.9326 44.507 17.5882C44.7438 17.4375 45.1528 17.459 45.3896 17.5882C45.6049 17.7173 45.7341 17.9326 45.7771 18.1694C45.8632 18.7076 45.5188 19.1812 44.9591 19.1812C44.8299 19.1812 44.7008 19.1596 44.5716 19.0951ZM54.9474 31.0642C55.2488 31.2149 55.421 31.4948 55.421 31.8392C55.421 32.2052 55.2703 32.442 54.8182 32.851C53.828 33.7551 52.0627 34.1857 50.9218 33.7982C49.8885 33.4322 49.0489 32.7003 48.4892 31.7531C47.3913 29.9018 47.3698 27.4046 47.9295 25.3595C48.4246 23.4651 49.2427 22.1304 50.5128 21.1832C50.6419 21.0971 50.7711 21.011 50.9003 20.9249C52.1058 20.2575 53.6127 20.4082 54.2585 21.7214C54.7967 22.7978 54.603 24.154 54.1078 25.2303C53.462 26.6942 51.6322 27.8567 49.9746 27.8567H49.3718V27.8782C49.3718 28.3303 49.3934 28.7823 49.4579 29.2344C49.4795 29.3851 49.5225 29.5358 49.5441 29.6865C49.7809 30.6337 50.276 31.5378 51.1586 31.9899C52.0412 32.442 53.1606 32.033 53.828 31.3871C54.2585 30.9781 54.5599 30.892 54.9474 31.0642ZM50.1683 24.3262C49.8239 25.0581 49.5656 25.8762 49.6302 26.0484C49.7809 26.4143 50.7281 25.9838 50.9433 25.8762C52.1489 25.381 53.1606 24.0248 52.7947 22.6686C52.687 22.3026 52.4933 22.195 52.1058 22.3026C51.46 22.4748 50.6635 23.2929 50.1683 24.3262ZM59.4155 33.626C58.5113 33.1524 57.8871 31.7746 57.1767 28.6532C56.8968 27.4261 56.5954 26.2206 56.4017 24.972C56.3156 24.3477 56.2295 23.7234 56.1864 23.0991C56.1433 22.6255 56.0788 22.0874 56.2295 21.6138C56.4017 21.054 57.0905 20.8603 57.5211 21.2908C57.7579 21.5276 57.8009 21.7214 57.9516 23.1207C58.1239 24.8213 58.7912 28.1796 59.3294 30.0524C59.5877 30.9566 60.0183 31.9468 60.1905 32.0114C60.3627 32.076 60.5134 31.8823 60.8578 31.1503C61.5897 29.5788 62.214 27.2324 63.0105 22.8408C63.1397 22.1304 63.3119 21.4415 63.355 21.3339C63.6994 20.6881 64.6897 20.7742 64.9049 21.4631C64.9911 21.8075 64.9695 22.0443 64.4529 24.6491C63.3335 30.4399 62.3432 33.0232 61.03 33.669C60.5995 33.8628 59.8676 33.8412 59.4155 33.626ZM73.048 31.0642C73.3493 31.2149 73.5216 31.4948 73.5216 31.8392C73.5216 32.2052 73.3709 32.442 72.9188 32.851C71.9285 33.7551 70.1633 34.1857 69.0224 33.7982C67.9891 33.4322 67.1495 32.7003 66.5898 31.7531C65.4919 29.9018 65.4704 27.4046 66.0301 25.3595C66.5252 23.4651 67.3432 22.1304 68.6133 21.1832C68.7425 21.0971 68.8717 21.011 69.0008 20.9249C70.2064 20.2575 71.7133 20.4082 72.3591 21.7214C72.8973 22.7978 72.7035 24.154 72.2084 25.2303C71.5626 26.6942 69.7328 27.8567 68.0752 27.8567H67.4724V27.8782C67.4724 28.3303 67.4939 28.7823 67.5585 29.2344C67.58 29.3851 67.6231 29.5358 67.6446 29.6865C67.8814 30.6337 68.3765 31.5378 69.2592 31.9899C70.1418 32.442 71.2612 32.033 71.9285 31.3871C72.3591 30.9781 72.6605 30.892 73.048 31.0642ZM68.2689 24.3262C67.9245 25.0581 67.6661 25.8762 67.7307 26.0484C67.8814 26.4143 68.8286 25.9838 69.0439 25.8762C70.2494 25.381 71.2612 24.0248 70.8952 22.6686C70.7876 22.3026 70.5939 22.195 70.2064 22.3026C69.5605 22.4748 68.764 23.2929 68.2689 24.3262ZM75.4064 33.7336C75.1265 33.669 74.9974 33.5614 74.8467 33.2815C74.739 33.0447 74.739 31.4087 74.9112 24.9074C74.9974 21.5707 74.9974 21.5061 75.4064 21.2478C75.8584 20.9679 76.4397 21.1617 76.655 21.6568C76.7411 21.8721 76.7411 22.0658 76.7195 22.5179L76.6765 23.1207L77.0209 22.6686C78.0327 21.3124 79.475 20.5374 80.7667 20.6235C81.6062 20.6881 82.4027 21.2478 82.8333 22.0658L83.0055 22.3672C83.0055 22.3672 83.436 22.0012 83.436 21.9797C84.168 21.3124 85.0937 20.6666 86.127 20.645C87.5478 20.645 88.6026 21.8721 89.0547 23.0991C89.313 23.745 89.4422 24.5415 89.4852 25.5963C89.5283 26.565 89.4206 30.6552 89.2915 32.3989L89.2699 32.894C89.2484 33.1308 89.1623 33.3461 88.9901 33.4968C88.6456 33.7982 88.2151 33.8197 87.8707 33.5399C87.5478 33.26 87.5047 33.0232 87.5908 31.3871C87.6339 30.5906 87.6769 28.7608 87.6769 27.3185C87.6985 25.9838 87.8922 24.3477 87.1603 23.1637C86.7728 22.5179 86.17 22.2811 85.5027 22.6255C84.8568 22.97 84.2326 23.5082 83.9096 24.197L83.7374 24.5415L83.759 26.9956C83.7805 29.6865 83.6083 32.8725 83.436 33.2815C83.3284 33.5614 82.9624 33.7982 82.6611 33.7982C82.3597 33.7982 81.9937 33.5614 81.8861 33.26C81.8 33.0663 81.8 32.851 81.843 32.0114C82.1875 27.1678 82.0583 24.3908 81.4555 23.1852C81.1111 22.5179 80.8958 22.3672 80.4007 22.4103C79.8625 22.4533 79.3889 22.7116 78.8292 23.2714C78.0327 24.0679 77.4084 25.4241 76.8702 27.5983C76.655 28.5025 76.5473 29.9233 76.5258 31.9468C76.5258 32.442 76.5043 32.9586 76.4612 33.0878C76.332 33.5614 75.88 33.8197 75.4064 33.7336ZM98.4224 31.0642C98.7238 31.2149 98.896 31.4948 98.896 31.8392C98.896 32.2052 98.7453 32.442 98.2932 32.851C97.303 33.7551 95.5377 34.1857 94.3968 33.7982C93.3635 33.4322 92.5239 32.7003 91.9642 31.7531C90.8663 29.9018 90.8448 27.4046 91.4045 25.3595C91.8996 23.4651 92.7177 22.1304 93.9878 21.1832C94.1169 21.0971 94.2461 21.011 94.3753 20.9249C95.5808 20.2575 97.0877 20.4082 97.7335 21.7214C98.2717 22.7978 98.078 24.154 97.5828 25.2303C96.937 26.6942 95.1072 27.8567 93.4496 27.8567H92.8468V27.8782C92.8468 28.3303 92.8684 28.7823 92.9329 29.2344C92.9545 29.3851 92.9975 29.5358 93.0191 29.6865C93.2559 30.6337 93.751 31.5378 94.6336 31.9899C95.5162 32.442 96.6356 32.033 97.303 31.3871C97.7335 30.9781 98.0349 30.892 98.4224 31.0642ZM93.6433 24.3262C93.2989 25.0581 93.0406 25.8762 93.1052 26.0484C93.2559 26.4143 94.2031 25.9838 94.4183 25.8762C95.6239 25.381 96.6356 24.0248 96.2697 22.6686C96.162 22.3026 95.9683 22.195 95.5808 22.3026C94.935 22.4748 94.1385 23.2929 93.6433 24.3262ZM100.781 33.7336C100.501 33.669 100.372 33.5614 100.221 33.2815C100.113 33.0447 100.113 31.4087 100.286 24.9074C100.372 21.5707 100.372 21.5061 100.781 21.2478C101.254 20.9679 101.814 21.1617 102.029 21.6568C102.116 21.8721 102.137 22.0658 102.094 22.5179L102.051 23.1207L102.395 22.6686C103.084 21.7429 104.118 20.9679 105.258 20.7096C106.959 20.3221 108.229 21.6783 108.724 23.1422C109.133 24.3908 109.09 25.7255 109.112 27.0171C109.155 29.5788 109.004 32.851 108.81 33.2815C108.703 33.5614 108.337 33.7982 108.036 33.7982C107.734 33.7982 107.368 33.5614 107.261 33.26C107.174 33.0663 107.174 32.851 107.217 32.0114C107.325 30.526 107.454 29.0191 107.454 27.5122C107.454 26.156 107.476 24.4123 106.852 23.1637C106.206 21.8721 105 22.4748 104.204 23.2714C103.407 24.0679 102.783 25.4241 102.245 27.5983C102.029 28.5025 101.922 29.9233 101.9 31.9468C101.9 32.442 101.879 32.9586 101.836 33.0878C101.706 33.5614 101.254 33.8197 100.781 33.7336ZM113.601 33.6475C113.451 33.5614 113.322 33.4322 113.279 33.2385C113.149 32.7864 113.192 32.2698 113.171 31.7962C113.149 30.5045 113.149 29.1914 113.149 27.8997L113.128 22.7332H112.008C111.363 22.7332 110.308 22.8623 110.179 22.0012C110.136 21.6999 110.243 21.42 110.458 21.2263C110.824 20.8818 111.535 20.9679 112.008 20.9679H113.085V18.7506C113.085 18.1479 113.085 17.5236 113.106 16.8993C113.128 16.6625 113.128 16.3611 113.279 16.1674C113.429 15.9306 113.752 15.8014 114.032 15.8229C114.958 15.8875 114.85 16.9639 114.85 17.6097C114.872 17.9972 114.872 18.3631 114.872 18.7506V20.9679L116.013 20.9895C116.486 20.9895 117.132 20.8818 117.455 21.3554C117.67 21.6783 117.627 22.2165 117.304 22.4533C116.96 22.7116 116.357 22.6471 115.969 22.6686L114.893 22.7116V27.9858C114.893 29.2559 114.915 30.526 114.893 31.7962C114.893 32.2698 114.915 32.8295 114.807 33.3031C114.678 33.8197 114.01 33.9058 113.601 33.6475ZM120.687 33.8628C119.524 33.6906 118.426 33.1524 117.716 32.2913C117.587 32.1406 117.458 31.9684 117.414 31.7746C117.35 31.4087 117.544 31.0427 117.91 30.8705C118.297 30.6767 118.62 30.7844 119.158 31.2795C120.019 32.076 121.354 32.3989 122.473 32.033C123.722 31.6455 124.174 30.526 123.507 29.3851C123.291 29.0191 123.012 28.6962 122.71 28.3948C122.28 27.9858 121.741 27.5768 120.945 27.0386C120.192 26.5435 119.33 26.0053 118.814 25.2519C118.039 24.1324 118.211 22.6255 119.18 21.6999C119.955 20.9464 121.074 20.6235 122.15 20.7311C123.162 20.8172 124.153 21.2693 124.82 22.0228C124.928 22.1304 125.014 22.2596 125.1 22.3672C125.229 22.561 125.358 22.7762 125.401 23.013C125.444 23.2498 125.423 23.5082 125.272 23.7019C125.057 23.9818 124.626 24.0679 124.282 23.9172C123.873 23.7665 123.657 23.3575 123.356 23.0991C122.99 22.7547 122.495 22.5179 122 22.4533C121.332 22.3672 120.493 22.5179 120.192 23.2068C119.675 24.3692 121.311 25.1873 122.043 25.7039C123.787 26.8879 124.626 27.7275 125.186 28.8039C125.918 30.2462 125.702 31.6885 124.583 32.7864C123.593 33.7551 122.086 34.078 120.687 33.8628Z" fill="white"/>
</svg>
