<svg width="891" height="570" viewBox="0 0 891 570" fill="none" xmlns="http://www.w3.org/2000/svg">
<path d="M861.211 2.29395H27.0292C12.1677 2.29395 0.120117 14.3416 0.120117 29.203V540.477C0.120117 555.338 12.1677 567.386 27.0292 567.386H861.211C876.073 567.386 888.12 555.338 888.12 540.477V29.203C888.12 14.3416 876.073 2.29395 861.211 2.29395Z" fill="#76DC9F"/>
<path d="M861.211 2.29395H27.0292C12.1677 2.29395 0.120117 14.3416 0.120117 29.203V540.477C0.120117 555.338 12.1677 567.386 27.0292 567.386H861.211C876.073 567.386 888.12 555.338 888.12 540.477V29.203C888.12 14.3416 876.073 2.29395 861.211 2.29395Z" fill="black" fill-opacity="0.05"/>
<path fill-rule="evenodd" clip-rule="evenodd" d="M45.8658 169.743C38.4348 169.743 32.4111 175.767 32.4111 183.198V263.925C32.4111 271.356 38.4351 277.379 45.8658 277.379H842.376C849.804 277.379 855.828 271.356 855.828 263.925V183.198C855.828 175.767 849.804 169.743 842.376 169.743H45.8658ZM91.6113 250.321C106.473 250.321 118.52 238.273 118.52 223.412C118.52 208.55 106.473 196.503 91.6113 196.503C76.7499 196.503 64.7022 208.55 64.7022 223.412C64.7022 238.273 76.7499 250.321 91.6113 250.321Z" fill="white" fill-opacity="0.3"/>
<path fill-rule="evenodd" clip-rule="evenodd" d="M45.8658 296.968C38.4348 296.968 32.4111 302.991 32.4111 310.422V391.149C32.4111 398.58 38.4351 404.604 45.8658 404.604H842.376C849.804 404.604 855.828 398.58 855.828 391.149V310.422C855.828 302.991 849.804 296.968 842.376 296.968H45.8658ZM91.6113 377.547C106.473 377.547 118.52 365.499 118.52 350.637C118.52 335.775 106.473 323.727 91.6113 323.727C76.7499 323.727 64.7022 335.775 64.7022 350.637C64.7022 365.499 76.7499 377.547 91.6113 377.547Z" fill="white" fill-opacity="0.3"/>
<path fill-rule="evenodd" clip-rule="evenodd" d="M45.8658 427.149C38.4348 427.149 32.4111 433.173 32.4111 440.604V521.331C32.4111 528.762 38.4351 534.786 45.8658 534.786H842.376C849.804 534.786 855.828 528.762 855.828 521.331V440.604C855.828 433.173 849.804 427.149 842.376 427.149H45.8658ZM91.6113 507.729C106.473 507.729 118.52 495.681 118.52 480.819C118.52 465.957 106.473 453.909 91.6113 453.909C76.7499 453.909 64.7022 465.957 64.7022 480.819C64.7022 495.681 76.7499 507.729 91.6113 507.729Z" fill="white" fill-opacity="0.3"/>
<path d="M62.572 85.3786C63.4762 89.5765 63.6055 90.6097 63.6055 92.8057C63.67 97.1971 62.443 99.6514 59.5369 101.072C54.8224 103.526 48.5578 99.9097 44.6185 97.3909C43.456 96.616 41.7769 95.518 40.9372 95.0014C40.0978 94.4848 39.3874 94.0327 39.3226 94.0972C39.2581 94.0972 38.9998 95.2597 38.7415 96.6805C38.0311 100.297 37.8373 100.943 36.9976 101.653C36.1582 102.364 34.8664 102.493 33.8977 101.912C33.5749 101.718 33.1873 101.201 32.9938 100.814C32.6707 100.103 32.6707 99.9742 33.1873 97.5202C33.5104 96.0994 34.027 93.3223 34.4146 91.3849C36.5458 79.6309 39.1936 67.4248 41.3248 60.1918C43.9081 51.0211 45.1351 48.4378 47.3953 47.5336C48.4288 47.0818 49.2037 47.0818 50.2369 47.5984C52.0453 48.4378 53.3368 50.5045 54.8869 55.1545C56.437 59.7397 60.9577 77.629 62.572 85.3786ZM58.7617 93.3223C59.02 90.6097 57.8578 87.5098 57.2119 84.862C56.5015 81.7621 55.7266 78.7267 54.9514 75.6268C53.7244 70.7833 52.4974 65.875 51.1411 61.0312C50.9473 60.4501 49.5913 54.1858 48.8161 54.1858C48.364 54.1858 45.2641 65.0353 43.6498 72.2686C42.2935 78.2746 40.3561 88.0264 40.4206 88.2202C40.6789 88.6078 49.0099 94.1617 50.4952 94.9369C52.4329 95.8408 56.0494 98.1658 57.793 95.9056C58.3744 95.1304 58.6327 94.291 58.7617 93.3223ZM77.6662 101.331C74.6953 100.62 72.0475 98.8117 70.3039 96.2284C67.0102 91.2556 66.4288 84.9265 67.4623 79.1143C68.3017 74.4643 70.1101 69.556 73.2745 65.875C75.2119 63.6145 77.9245 62.0002 80.9599 61.7416C84.1243 61.5481 87.1597 62.9689 89.2909 65.2291C90.5824 66.5854 92.4553 68.9749 90.7117 70.7185C89.6782 71.6872 88.1929 71.0416 87.0952 70.1374C86.0617 69.1687 85.0285 68.0707 83.7367 67.3603C81.8638 66.3916 79.4743 67.102 77.9245 68.5228C72.8224 73.108 71.983 81.8914 73.0807 88.1557C73.7266 92.0305 76.0516 96.5512 80.5723 96.616C82.5742 96.616 83.6077 96.1639 85.5451 94.42C87.0952 92.9992 87.8701 92.7409 88.9678 93.193C90.5824 93.8389 91.099 95.6473 90.0658 97.1971C89.3554 98.2306 87.0304 100.039 85.4158 100.749C82.9618 101.847 80.1847 102.041 77.6662 101.331ZM97.252 100.943C96.9937 100.749 96.5416 100.297 96.3478 99.9097C95.896 99.1993 95.896 98.8117 95.8312 88.3495C95.7022 71.2354 96.2833 45.7255 96.8647 42.7546C97.0582 41.5921 97.8334 40.6882 98.8666 40.4296C99.7708 40.2361 101.062 40.7527 101.514 41.4631C102.031 42.238 102.031 42.6256 101.514 53.3461C101.385 55.8649 101.256 61.096 101.192 65.0353L101.062 72.1393L102.096 70.4602C104.485 66.3271 106.1 64.3249 108.102 62.9041C111.266 60.8377 115.206 60.9022 118.306 63.0979C121.341 65.1646 122.956 68.4583 123.666 72.0103C124.958 78.7267 124.958 85.7017 124.829 92.4826C124.764 94.2265 124.764 95.9701 124.635 97.7137C124.57 99.2638 123.86 100.943 122.052 100.943C119.533 100.943 119.662 98.4889 119.598 96.6805C119.533 94.291 119.533 91.837 119.533 89.4472C119.468 79.7602 119.339 78.2101 118.629 73.7539C118.177 71.1706 116.627 66.5209 113.333 66.5209C112.106 66.5209 111.137 67.0375 109.91 68.329C107.262 71.0416 104.744 76.2082 103.129 82.1497C101.838 86.9932 101.385 90.2224 101.192 96.4222C101.127 98.8117 101.062 99.3283 100.675 99.9742C99.9646 101.137 98.479 101.524 97.252 100.943ZM132.941 101.524C132.424 101.266 131.908 100.878 131.779 100.297C131.649 99.9742 131.585 99.5221 131.585 99.1345C131.456 97.5202 131.52 95.8408 131.52 94.1617C131.649 82.4725 132.037 66.1978 132.231 64.7125C132.424 63.421 132.489 63.1624 133.2 62.5168C134.362 61.4188 136.106 61.6771 137.01 63.0334C137.397 63.6793 137.462 66.0688 137.204 70.1374C137.139 71.1061 137.01 78.1456 136.945 85.7017C136.881 89.3182 136.881 92.9992 136.687 96.616C136.687 97.843 136.752 99.3283 136.299 100.491C135.912 101.46 134.556 101.847 133.587 101.718C133.393 101.653 133.135 101.589 132.941 101.524ZM133.716 57.2857C133.652 57.2209 133.522 57.1564 133.393 57.0919C131.843 56.0584 131.973 53.7982 133.522 52.765C134.233 52.3129 135.46 52.3774 136.17 52.765C136.816 53.1523 137.204 53.7982 137.333 54.5086C137.591 56.1232 136.558 57.544 134.879 57.544C134.491 57.544 134.104 57.4792 133.716 57.2857ZM164.844 93.193C165.748 93.6451 166.264 94.4848 166.264 95.518C166.264 96.616 165.812 97.3264 164.456 98.5534C161.485 101.266 156.189 102.558 152.767 101.395C149.667 100.297 147.148 98.1013 145.469 95.2597C142.175 89.7058 142.111 82.2142 143.79 76.0789C145.275 70.3957 147.729 66.3916 151.54 63.55C151.927 63.2917 152.315 63.0334 152.702 62.7751C156.319 60.7729 160.839 61.225 162.777 65.1646C164.391 68.3938 163.81 72.4624 162.325 75.6913C160.387 80.083 154.898 83.5705 149.925 83.5705H148.117V83.635C148.117 84.9913 148.182 86.3473 148.375 87.7036C148.44 88.1557 148.569 88.6078 148.634 89.0599C149.344 91.9015 150.829 94.6138 153.477 95.9701C156.125 97.3264 159.483 96.0994 161.485 94.1617C162.777 92.9347 163.681 92.6764 164.844 93.193ZM150.506 72.979C149.473 75.1747 148.698 77.629 148.892 78.1456C149.344 79.2433 152.186 77.9518 152.831 77.629C156.448 76.1434 159.483 72.0748 158.385 68.0062C158.062 66.9082 157.481 66.5854 156.319 66.9082C154.381 67.4248 151.992 69.8791 150.506 72.979ZM178.248 100.878C175.535 99.4576 173.663 95.3242 171.531 85.96C170.692 82.2787 169.788 78.6622 169.206 74.9164C168.948 73.0435 168.69 71.1706 168.561 69.2977C168.431 67.8769 168.238 66.2626 168.69 64.8418C169.206 63.1624 171.273 62.5813 172.565 63.8728C173.275 64.5832 173.404 65.1646 173.856 69.3625C174.373 74.4643 176.375 84.5392 177.99 90.1576C178.764 92.8702 180.056 95.8408 180.573 96.0346C181.089 96.2284 181.542 95.6473 182.575 93.4513C184.77 88.7368 186.643 81.6976 189.033 68.5228C189.42 66.3916 189.937 64.3249 190.066 64.0021C191.1 62.0647 194.07 62.323 194.716 64.3897C194.975 65.4229 194.91 66.1333 193.36 73.9477C190.002 91.3201 187.031 99.07 183.091 101.007C181.8 101.589 179.604 101.524 178.248 100.878ZM219.145 93.193C220.049 93.6451 220.566 94.4848 220.566 95.518C220.566 96.616 220.114 97.3264 218.758 98.5534C215.787 101.266 210.491 102.558 207.069 101.395C203.969 100.297 201.45 98.1013 199.771 95.2597C196.477 89.7058 196.413 82.2142 198.092 76.0789C199.577 70.3957 202.031 66.3916 205.841 63.55C206.229 63.2917 206.616 63.0334 207.004 62.7751C210.621 60.7729 215.141 61.225 217.079 65.1646C218.693 68.3938 218.112 72.4624 216.627 75.6913C214.689 80.083 209.2 83.5705 204.227 83.5705H202.419V83.635C202.419 84.9913 202.483 86.3473 202.677 87.7036C202.741 88.1557 202.871 88.6078 202.935 89.0599C203.646 91.9015 205.131 94.6138 207.779 95.9701C210.427 97.3264 213.785 96.0994 215.787 94.1617C217.079 92.9347 217.983 92.6764 219.145 93.193ZM204.808 72.979C203.775 75.1747 203 77.629 203.193 78.1456C203.646 79.2433 206.487 77.9518 207.133 77.629C210.75 76.1434 213.785 72.0748 212.687 68.0062C212.364 66.9082 211.783 66.5854 210.621 66.9082C208.683 67.4248 206.293 69.8791 204.808 72.979ZM226.221 101.201C225.381 101.007 224.994 100.685 224.541 99.8449C224.218 99.1345 224.218 94.2265 224.735 74.7226C224.994 64.7125 224.994 64.5187 226.221 63.7438C227.577 62.9041 229.32 63.4855 229.966 64.9708C230.225 65.6167 230.225 66.1978 230.16 67.5541L230.031 69.3625L231.064 68.0062C234.099 63.9376 238.426 61.6126 242.301 61.8709C244.82 62.0647 247.209 63.7438 248.501 66.1978L249.018 67.102C249.018 67.102 250.309 66.004 250.309 65.9395C252.505 63.9376 255.282 62.0002 258.382 61.9354C262.645 61.9354 265.809 65.6167 267.165 69.2977C267.94 71.2354 268.328 73.6249 268.457 76.7893C268.586 79.6954 268.263 91.966 267.876 97.1971L267.811 98.6824C267.747 99.3928 267.488 100.039 266.972 100.491C265.938 101.395 264.647 101.46 263.613 100.62C262.645 99.7804 262.515 99.07 262.774 94.1617C262.903 91.7722 263.032 86.2828 263.032 81.9559C263.097 77.9518 263.678 73.0435 261.482 69.4915C260.32 67.5541 258.511 66.8437 256.509 67.8769C254.572 68.9104 252.699 70.525 251.73 72.5914L251.214 73.6249L251.278 80.9872C251.343 89.0599 250.826 98.6179 250.309 99.8449C249.987 100.685 248.889 101.395 247.985 101.395C247.08 101.395 245.982 100.685 245.66 99.7804C245.401 99.1993 245.401 98.5534 245.53 96.0346C246.564 81.5038 246.176 73.1728 244.368 69.556C243.335 67.5541 242.689 67.102 241.203 67.2313C239.589 67.3603 238.168 68.1352 236.489 69.8146C234.099 72.2041 232.227 76.2727 230.612 82.7953C229.966 85.5079 229.643 89.7703 229.579 95.8408C229.579 97.3264 229.514 98.8762 229.385 99.2638C228.997 100.685 227.641 101.46 226.221 101.201ZM295.269 93.193C296.173 93.6451 296.689 94.4848 296.689 95.518C296.689 96.616 296.237 97.3264 294.881 98.5534C291.91 101.266 286.614 102.558 283.192 101.395C280.092 100.297 277.573 98.1013 275.894 95.2597C272.6 89.7058 272.536 82.2142 274.215 76.0789C275.7 70.3957 278.154 66.3916 281.965 63.55C282.352 63.2917 282.74 63.0334 283.127 62.7751C286.744 60.7729 291.264 61.225 293.202 65.1646C294.816 68.3938 294.235 72.4624 292.75 75.6913C290.812 80.083 285.323 83.5705 280.35 83.5705H278.542V83.635C278.542 84.9913 278.607 86.3473 278.8 87.7036C278.865 88.1557 278.994 88.6078 279.059 89.0599C279.769 91.9015 281.254 94.6138 283.902 95.9701C286.55 97.3264 289.908 96.0994 291.91 94.1617C293.202 92.9347 294.106 92.6764 295.269 93.193ZM280.931 72.979C279.898 75.1747 279.123 77.629 279.317 78.1456C279.769 79.2433 282.611 77.9518 283.256 77.629C286.873 76.1434 289.908 72.0748 288.81 68.0062C288.487 66.9082 287.906 66.5854 286.744 66.9082C284.806 67.4248 282.417 69.8791 280.931 72.979ZM302.344 101.201C301.504 101.007 301.117 100.685 300.664 99.8449C300.34 99.1345 300.34 94.2265 300.859 74.7226C301.117 64.7125 301.117 64.5187 302.344 63.7438C303.763 62.9041 305.443 63.4855 306.088 64.9708C306.349 65.6167 306.412 66.1978 306.283 67.5541L306.154 69.3625L307.186 68.0062C309.253 65.2291 312.355 62.9041 315.775 62.1292C320.878 60.9667 324.688 65.0353 326.173 69.427C327.4 73.1728 327.271 77.1769 327.337 81.0517C327.466 88.7368 327.013 98.5534 326.431 99.8449C326.11 100.685 325.012 101.395 324.109 101.395C323.203 101.395 322.105 100.685 321.784 99.7804C321.523 99.1993 321.523 98.5534 321.652 96.0346C321.976 91.5784 322.363 87.0577 322.363 82.537C322.363 78.4684 322.429 73.2373 320.557 69.4915C318.619 65.6167 315.001 67.4248 312.613 69.8146C310.222 72.2041 308.35 76.2727 306.736 82.7953C306.088 85.5079 305.767 89.7703 305.701 95.8408C305.701 97.3264 305.638 98.8762 305.509 99.2638C305.119 100.685 303.763 101.46 302.344 101.201ZM340.804 100.943C340.354 100.685 339.967 100.297 339.838 99.7159C339.448 98.3596 339.577 96.8098 339.514 95.389C339.448 91.5139 339.448 87.5746 339.448 83.6995L339.385 68.2H336.025C334.09 68.2 330.925 68.5873 330.538 66.004C330.409 65.1001 330.73 64.2604 331.375 63.6793C332.473 62.6458 334.606 62.9041 336.025 62.9041H339.256V56.2522C339.256 54.4441 339.256 52.5712 339.319 50.6983C339.385 49.9879 339.385 49.0837 339.838 48.5026C340.288 47.7922 341.257 47.4046 342.097 47.4691C344.875 47.6629 344.551 50.8921 344.551 52.8295C344.617 53.992 344.617 55.0897 344.617 56.2522V62.9041L348.04 62.9689C349.459 62.9689 351.397 62.6458 352.366 64.0666C353.011 65.0353 352.882 66.6499 351.913 67.3603C350.881 68.1352 349.072 67.9417 347.908 68.0062L344.68 68.1352V83.9578C344.68 87.7681 344.746 91.5784 344.68 95.389C344.68 96.8098 344.746 98.4889 344.422 99.9097C344.035 101.46 342.031 101.718 340.804 100.943ZM362.062 101.589C358.573 101.072 355.279 99.4576 353.149 96.8743C352.762 96.4222 352.375 95.9056 352.243 95.3242C352.051 94.2265 352.633 93.1285 353.731 92.6119C354.892 92.0305 355.861 92.3536 357.475 93.8389C360.058 96.2284 364.063 97.1971 367.42 96.0994C371.167 94.9369 372.523 91.5784 370.522 88.1557C369.874 87.0577 369.037 86.089 368.131 85.1848C366.841 83.9578 365.224 82.7308 362.836 81.1162C360.577 79.6309 357.991 78.0163 356.443 75.7561C354.118 72.3976 354.634 67.8769 357.541 65.1001C359.866 62.8396 363.223 61.8709 366.451 62.1937C369.487 62.452 372.46 63.8083 374.461 66.0688C374.785 66.3916 375.043 66.7792 375.301 67.102C375.688 67.6834 376.075 68.329 376.204 69.0394C376.333 69.7498 376.27 70.525 375.817 71.1061C375.172 71.9458 373.879 72.2041 372.847 71.752C371.62 71.2999 370.972 70.0729 370.069 69.2977C368.971 68.2645 367.486 67.5541 366.001 67.3603C363.997 67.102 361.48 67.5541 360.577 69.6208C359.026 73.108 363.934 75.5623 366.13 77.1121C371.362 80.6641 373.879 83.1829 375.559 86.4121C377.755 90.739 377.107 95.0659 373.75 98.3596C370.78 101.266 366.259 102.234 362.062 101.589Z" fill="white"/>
</svg>
