<svg width="296" height="196" viewBox="0 0 296 196" fill="none" xmlns="http://www.w3.org/2000/svg">
<rect y="0.046875" width="296" height="195.472" rx="20.9434" fill="#DFBF6E"/>
<rect y="0.046875" width="296" height="195.472" rx="20.9434" fill="black" fill-opacity="0.03"/>
<line x1="15.0101" y1="61.8298" x2="280.991" y2="61.8298" stroke="white" stroke-opacity="0.5" stroke-width="2.09434" stroke-linecap="round"/>
<path d="M89.8337 38.64C90.2247 40.4551 90.2805 40.9019 90.2805 41.8513C90.3084 43.7502 89.7779 44.8113 88.5213 45.4257C86.4828 46.4868 83.7741 44.923 82.0707 43.834C81.5681 43.4989 80.842 43.0242 80.479 42.8008C80.116 42.5774 79.8088 42.3819 79.7809 42.4098C79.753 42.4098 79.6413 42.9125 79.5296 43.5268C79.2224 45.0906 79.1386 45.3698 78.7756 45.677C78.4126 45.9842 77.8541 46.04 77.4352 45.7887C77.2956 45.7049 77.1281 45.4815 77.0443 45.314C76.9047 45.0068 76.9047 44.951 77.1281 43.8898C77.2677 43.2755 77.4911 42.0747 77.6586 41.237C78.5801 36.1547 79.725 30.877 80.6466 27.7495C81.7635 23.7842 82.2941 22.6672 83.2715 22.2763C83.7183 22.0808 84.0533 22.0808 84.5001 22.3042C85.282 22.6672 85.8405 23.5608 86.5107 25.5713C87.1809 27.554 89.1356 35.2891 89.8337 38.64ZM88.1862 42.0747C88.2979 40.9019 87.7952 39.5615 87.516 38.4166C87.2088 37.0763 86.8737 35.7638 86.5386 34.4234C86.0081 32.3291 85.4775 30.2068 84.8911 28.1125C84.8073 27.8612 84.2209 25.1525 83.8858 25.1525C83.6903 25.1525 82.35 29.8438 81.6518 32.9713C81.0654 35.5683 80.2277 39.7849 80.2556 39.8687C80.3673 40.0363 83.9696 42.4378 84.6118 42.7729C85.4496 43.1638 87.0133 44.1691 87.7673 43.1917C88.0186 42.8566 88.1303 42.4936 88.1862 42.0747ZM105.073 34.4793C105.352 36.1827 105.296 38.3329 104.933 39.8129C104.458 41.6838 103.537 43.6106 101.889 44.6996C100.074 45.8725 97.5889 45.5653 95.8576 44.4763C95.5504 44.2808 95.2712 44.1412 95.2432 44.1691C95.2153 44.197 95.1874 46.8498 95.1874 50.0612C95.1874 55.1713 95.1595 55.9253 95.0198 56.1766C94.6568 56.9864 93.3723 57.0144 93.093 56.1208C93.0093 55.8695 93.0093 55.5344 93.0093 55.283C92.9255 53.8868 92.9534 52.4906 92.9534 51.0944C92.9255 48.3298 92.9534 42.3819 93.0093 37.8302C93.093 30.1789 93.093 29.5925 93.2606 29.2853C93.5678 28.671 94.3217 28.5034 94.8802 28.8944C95.2153 29.1178 95.3549 29.5646 95.3549 30.4023V31.1563L96.1089 30.4581C96.9466 29.6483 97.7006 29.1178 98.4825 28.8106C99.6274 28.3638 100.996 28.5593 102.057 29.1736C103.816 30.1789 104.71 32.5804 105.073 34.4793ZM100.13 42.9683C100.577 42.8287 100.996 42.5774 101.359 42.1864C102.783 40.6785 103.174 38.3329 103.034 36.3502C102.922 34.7027 102.42 32.1895 100.94 31.1842C100.13 30.6536 99.0689 30.9887 98.3708 31.4913C97.2259 32.3291 96.3881 33.6415 95.7738 34.8981L95.2712 35.8755V38.4446V41.0415L96.053 41.7396C97.17 42.7449 98.7617 43.4151 100.13 42.9683ZM119.935 34.4793C120.214 36.1827 120.158 38.3329 119.795 39.8129C119.32 41.6838 118.399 43.6106 116.751 44.6996C114.936 45.8725 112.451 45.5653 110.72 44.4763C110.413 44.2808 110.133 44.1412 110.105 44.1691C110.077 44.197 110.05 46.8498 110.05 50.0612C110.05 55.1713 110.022 55.9253 109.882 56.1766C109.519 56.9864 108.234 57.0144 107.955 56.1208C107.871 55.8695 107.871 55.5344 107.871 55.283C107.788 53.8868 107.816 52.4906 107.816 51.0944C107.788 48.3298 107.816 42.3819 107.871 37.8302C107.955 30.1789 107.955 29.5925 108.123 29.2853C108.43 28.671 109.184 28.5034 109.742 28.8944C110.077 29.1178 110.217 29.5646 110.217 30.4023V31.1563L110.971 30.4581C111.809 29.6483 112.563 29.1178 113.345 28.8106C114.49 28.3638 115.858 28.5593 116.919 29.1736C118.678 30.1789 119.572 32.5804 119.935 34.4793ZM114.992 42.9683C115.439 42.8287 115.858 42.5774 116.221 42.1864C117.645 40.6785 118.036 38.3329 117.896 36.3502C117.785 34.7027 117.282 32.1895 115.802 31.1842C114.992 30.6536 113.931 30.9887 113.233 31.4913C112.088 32.3291 111.25 33.6415 110.636 34.8981L110.133 35.8755V38.4446V41.0415L110.915 41.7396C112.032 42.7449 113.624 43.4151 114.992 42.9683ZM130.888 29.7042C133.094 31.7427 134.071 35.6521 133.317 39.394C133.317 39.4498 133.289 39.4778 133.289 39.5336C132.619 42.717 130.162 46.6544 126.336 45.7887C125.107 45.5095 124.13 44.7276 123.404 43.7502C120.444 39.8129 121.03 32.6083 124.577 29.6204C126.559 27.9449 128.989 27.9729 130.888 29.7042ZM131.167 38.5842C131.362 37.4393 131.306 35.5683 131.027 34.4513C130.608 32.8317 129.687 31.4076 128.682 30.9329C126.811 29.9834 124.772 31.8544 123.99 35.2053C123.432 37.6627 123.655 41.1812 125.722 42.9125C128.709 45.4257 130.748 40.9578 131.167 38.5842ZM136.595 45.6212C136.372 45.5095 136.149 45.3419 136.093 45.0906C136.037 44.951 136.009 44.7555 136.009 44.588C135.953 43.8898 135.981 43.1638 135.981 42.4378C136.037 37.3834 136.204 30.3464 136.288 29.7042C136.372 29.1457 136.4 29.034 136.707 28.7547C137.21 28.28 137.964 28.3917 138.355 28.9781C138.522 29.2574 138.55 30.2906 138.438 32.0498C138.41 32.4687 138.355 35.5125 138.327 38.7796C138.299 40.3434 138.299 41.9351 138.215 43.4989C138.215 44.0295 138.243 44.6717 138.047 45.1744C137.88 45.5932 137.293 45.7608 136.875 45.7049C136.791 45.677 136.679 45.6491 136.595 45.6212ZM136.93 26.4929C136.902 26.4649 136.847 26.437 136.791 26.4091C136.121 25.9623 136.176 24.9849 136.847 24.5381C137.154 24.3427 137.684 24.3706 137.992 24.5381C138.271 24.7057 138.438 24.9849 138.494 25.2921C138.606 25.9902 138.159 26.6046 137.433 26.6046C137.266 26.6046 137.098 26.5766 136.93 26.4929ZM142.459 45.4815C142.096 45.3978 141.928 45.2581 141.733 44.8951C141.593 44.588 141.593 42.4657 141.817 34.0325C141.928 29.7042 141.928 29.6204 142.459 29.2853C143.073 28.9223 143.799 29.1736 144.079 29.8159C144.19 30.0951 144.218 30.3464 144.162 30.9329L144.107 31.7147L144.553 31.1283C145.447 29.9276 146.787 28.9223 148.267 28.5872C150.473 28.0846 152.121 29.8438 152.763 31.7427C153.294 33.3623 153.238 35.0936 153.266 36.7691C153.322 40.0921 153.126 44.3366 152.875 44.8951C152.735 45.2581 152.261 45.5653 151.87 45.5653C151.479 45.5653 151.004 45.2581 150.864 44.8672C150.753 44.6159 150.753 44.3366 150.808 43.2476C150.948 41.3208 151.116 39.3661 151.116 37.4113C151.116 35.6521 151.144 33.3902 150.334 31.7706C149.496 30.0951 147.932 30.877 146.899 31.9102C145.866 32.9434 145.056 34.7027 144.358 37.523C144.079 38.6959 143.939 40.5389 143.911 43.1638C143.911 43.8061 143.883 44.4763 143.827 44.6438C143.66 45.2581 143.073 45.5932 142.459 45.4815ZM159.09 45.3698C158.894 45.2581 158.727 45.0906 158.671 44.8393C158.503 44.2529 158.559 43.5827 158.531 42.9683C158.503 41.2929 158.503 39.5895 158.503 37.914L158.475 31.2121H157.023C156.185 31.2121 154.817 31.3796 154.65 30.2627C154.594 29.8717 154.733 29.5087 155.013 29.2574C155.487 28.8106 156.409 28.9223 157.023 28.9223H158.419V26.0461C158.419 25.2642 158.419 24.4544 158.447 23.6446C158.475 23.3374 158.475 22.9464 158.671 22.6951C158.866 22.388 159.285 22.2204 159.648 22.2483C160.849 22.3321 160.709 23.7283 160.709 24.5661C160.737 25.0687 160.737 25.5434 160.737 26.0461V28.9223L162.217 28.9502C162.831 28.9502 163.669 28.8106 164.088 29.4249C164.367 29.8438 164.311 30.5419 163.893 30.8491C163.446 31.1842 162.664 31.1004 162.161 31.1283L160.765 31.1842V38.0257C160.765 39.6732 160.793 41.3208 160.765 42.9683C160.765 43.5827 160.793 44.3087 160.653 44.923C160.486 45.5932 159.62 45.7049 159.09 45.3698ZM166.102 45.4815C165.739 45.3978 165.572 45.2581 165.376 44.8951C165.236 44.588 165.236 42.4657 165.46 34.0325C165.572 29.7042 165.572 29.6204 166.102 29.2853C166.689 28.9223 167.443 29.1736 167.722 29.8159C167.833 30.0951 167.833 30.3464 167.806 30.9329L167.75 31.7147L168.196 31.1283C169.509 29.3691 171.38 28.3638 173.055 28.4755C174.144 28.5593 175.178 29.2853 175.736 30.3464L175.96 30.7374C175.96 30.7374 176.518 30.2627 176.518 30.2347C177.467 29.3691 178.668 28.5313 180.009 28.5034C181.852 28.5034 183.22 30.0951 183.806 31.6868C184.141 32.5246 184.309 33.5578 184.365 34.9261C184.421 36.1827 184.281 41.4883 184.113 43.7502L184.086 44.3925C184.058 44.6996 183.946 44.9789 183.723 45.1744C183.276 45.5653 182.717 45.5932 182.27 45.2302C181.852 44.8672 181.796 44.56 181.907 42.4378C181.963 41.4046 182.019 39.031 182.019 37.16C182.047 35.4287 182.298 33.3064 181.349 31.7706C180.846 30.9329 180.064 30.6257 179.199 31.0725C178.361 31.5193 177.551 32.2174 177.132 33.111L176.909 33.5578L176.937 36.7412C176.965 40.2317 176.741 44.3646 176.518 44.8951C176.378 45.2581 175.904 45.5653 175.513 45.5653C175.122 45.5653 174.647 45.2581 174.507 44.8672C174.396 44.6159 174.396 44.3366 174.452 43.2476C174.898 36.9646 174.731 33.3623 173.949 31.7985C173.502 30.9329 173.223 30.7374 172.581 30.7932C171.883 30.8491 171.268 31.1842 170.542 31.9102C169.509 32.9434 168.699 34.7027 168.001 37.523C167.722 38.6959 167.582 40.5389 167.554 43.1638C167.554 43.8061 167.526 44.4763 167.47 44.6438C167.303 45.2581 166.716 45.5932 166.102 45.4815ZM195.958 42.0189C196.349 42.2144 196.572 42.5774 196.572 43.0242C196.572 43.4989 196.377 43.8061 195.79 44.3366C194.506 45.5095 192.216 46.068 190.736 45.5653C189.396 45.0906 188.307 44.1412 187.58 42.9125C186.156 40.511 186.128 37.2717 186.854 34.6189C187.497 32.1615 188.558 30.4302 190.205 29.2015C190.373 29.0898 190.54 28.9781 190.708 28.8664C192.272 28.0008 194.227 28.1963 195.064 29.8996C195.762 31.2959 195.511 33.0551 194.869 34.4513C194.031 36.3502 191.657 37.8581 189.507 37.8581H188.725V37.8861C188.725 38.4725 188.753 39.0589 188.837 39.6453C188.865 39.8408 188.921 40.0363 188.949 40.2317C189.256 41.4604 189.898 42.6332 191.043 43.2196C192.188 43.8061 193.64 43.2755 194.506 42.4378C195.064 41.9072 195.455 41.7955 195.958 42.0189ZM189.759 33.2785C189.312 34.228 188.977 35.2891 189.06 35.5125C189.256 35.9872 190.485 35.4287 190.764 35.2891C192.328 34.6468 193.64 32.8876 193.165 31.1283C193.026 30.6536 192.774 30.514 192.272 30.6536C191.434 30.877 190.401 31.9381 189.759 33.2785ZM199.017 45.4815C198.654 45.3978 198.487 45.2581 198.291 44.8951C198.151 44.588 198.151 42.4657 198.375 34.0325C198.487 29.7042 198.487 29.6204 199.017 29.2853C199.631 28.9223 200.357 29.1736 200.637 29.8159C200.748 30.0951 200.776 30.3464 200.72 30.9329L200.665 31.7147L201.111 31.1283C202.005 29.9276 203.345 28.9223 204.825 28.5872C207.031 28.0846 208.679 29.8438 209.321 31.7427C209.852 33.3623 209.796 35.0936 209.824 36.7691C209.88 40.0921 209.684 44.3366 209.433 44.8951C209.293 45.2581 208.819 45.5653 208.428 45.5653C208.037 45.5653 207.562 45.2581 207.422 44.8672C207.311 44.6159 207.311 44.3366 207.367 43.2476C207.506 41.3208 207.674 39.3661 207.674 37.4113C207.674 35.6521 207.702 33.3902 206.892 31.7706C206.054 30.0951 204.49 30.877 203.457 31.9102C202.424 32.9434 201.614 34.7027 200.916 37.523C200.637 38.6959 200.497 40.5389 200.469 43.1638C200.469 43.8061 200.441 44.4763 200.385 44.6438C200.218 45.2581 199.631 45.5932 199.017 45.4815ZM215.648 45.3698C215.452 45.2581 215.285 45.0906 215.229 44.8393C215.061 44.2529 215.117 43.5827 215.089 42.9683C215.061 41.2929 215.061 39.5895 215.061 37.914L215.033 31.2121H213.581C212.744 31.2121 211.375 31.3796 211.208 30.2627C211.152 29.8717 211.291 29.5087 211.571 29.2574C212.045 28.8106 212.967 28.9223 213.581 28.9223H214.977V26.0461C214.977 25.2642 214.977 24.4544 215.005 23.6446C215.033 23.3374 215.033 22.9464 215.229 22.6951C215.424 22.388 215.843 22.2204 216.206 22.2483C217.407 22.3321 217.267 23.7283 217.267 24.5661C217.295 25.0687 217.295 25.5434 217.295 26.0461V28.9223L218.775 28.9502C219.39 28.9502 220.227 28.8106 220.646 29.4249C220.925 29.8438 220.87 30.5419 220.451 30.8491C220.004 31.1842 219.222 31.1004 218.719 31.1283L217.323 31.1842V38.0257C217.323 39.6732 217.351 41.3208 217.323 42.9683C217.323 43.5827 217.351 44.3087 217.211 44.923C217.044 45.5932 216.178 45.7049 215.648 45.3698Z" fill="white"/>
</svg>
