<svg width="888" height="588" viewBox="0 0 888 588" fill="none" xmlns="http://www.w3.org/2000/svg">
<path d="M825.17 0.140625H62.8302C28.13 0.140625 0 28.2707 0 62.9708V523.726C0 558.427 28.13 586.557 62.8302 586.557H825.17C859.87 586.557 888 558.427 888 523.726V62.9708C888 28.2707 859.87 0.140625 825.17 0.140625Z" fill="#DFBF6E"/>
<path d="M825.17 0.140625H62.8302C28.13 0.140625 0 28.2707 0 62.9708V523.726C0 558.427 28.13 586.557 62.8302 586.557H825.17C859.87 586.557 888 558.427 888 523.726V62.9708C888 28.2707 859.87 0.140625 825.17 0.140625Z" fill="black" fill-opacity="0.03"/>
<path d="M45.0293 185.49H842.972" stroke="white" stroke-opacity="0.5" stroke-width="6.28302" stroke-linecap="round"/>
<path d="M269.504 115.919C270.677 121.365 270.844 122.705 270.844 125.553C270.928 131.25 269.337 134.433 265.567 136.277C259.451 139.46 251.325 134.768 246.215 131.501C244.707 130.496 242.529 129.072 241.44 128.402C240.351 127.732 239.429 127.145 239.346 127.229C239.262 127.229 238.927 128.737 238.592 130.58C237.67 135.271 237.419 136.109 236.33 137.03C235.241 137.952 233.565 138.119 232.309 137.366C231.89 137.114 231.387 136.444 231.136 135.941C230.717 135.02 230.717 134.852 231.387 131.669C231.806 129.826 232.476 126.224 232.979 123.71C235.743 108.464 239.178 92.6305 241.943 83.248C245.293 71.3521 246.885 68.0011 249.817 66.8284C251.158 66.2419 252.163 66.2419 253.503 66.9121C255.849 68.0011 257.524 70.6819 259.535 76.7134C261.546 82.6615 267.41 105.867 269.504 115.919ZM264.562 126.224C264.897 122.705 263.389 118.684 262.551 115.249C261.629 111.228 260.624 107.291 259.619 103.27C258.027 96.9868 256.435 90.6199 254.676 84.337C254.425 83.5831 252.666 75.457 251.66 75.457C251.074 75.457 247.053 89.5309 244.958 98.9134C243.199 106.704 240.686 119.354 240.77 119.606C241.105 120.108 251.912 127.313 253.838 128.318C256.352 129.491 261.043 132.507 263.305 129.575C264.059 128.569 264.394 127.48 264.562 126.224ZM315.222 103.437C316.059 108.548 315.891 114.998 314.802 119.438C313.377 125.051 310.614 130.831 305.67 134.098C300.225 137.617 292.77 136.695 287.576 133.428C286.654 132.842 285.817 132.423 285.733 132.507C285.649 132.59 285.565 140.549 285.565 150.183C285.565 165.513 285.481 167.775 285.062 168.529C283.973 170.959 280.12 171.043 279.282 168.362C279.031 167.608 279.031 166.603 279.031 165.848C278.779 161.66 278.863 157.471 278.863 153.283C278.779 144.989 278.863 127.145 279.031 113.49C279.282 90.5362 279.282 88.777 279.785 87.8554C280.706 86.0125 282.968 85.5097 284.644 86.6827C285.649 87.3529 286.068 88.6933 286.068 91.2064V93.4684L288.33 91.3738C290.843 88.9444 293.105 87.3529 295.45 86.4313C298.885 85.0909 302.991 85.6774 306.174 87.5203C311.451 90.5362 314.133 97.7407 315.222 103.437ZM300.393 128.904C301.734 128.486 302.991 127.732 304.08 126.559C308.352 122.035 309.525 114.998 309.105 109.05C308.769 104.108 307.263 96.568 302.823 93.5521C300.393 91.9603 297.21 92.9656 295.115 94.4734C291.681 96.9868 289.167 100.924 287.324 104.694L285.817 107.626V115.333V123.124L288.162 125.218C291.513 128.234 296.288 130.245 300.393 128.904ZM359.808 103.437C360.645 108.548 360.477 114.998 359.388 119.438C357.963 125.051 355.2 130.831 350.256 134.098C344.811 137.617 337.356 136.695 332.163 133.428C331.242 132.842 330.402 132.423 330.318 132.507C330.234 132.59 330.153 140.549 330.153 150.183C330.153 165.513 330.069 167.775 329.649 168.529C328.56 170.959 324.705 171.043 323.868 168.362C323.616 167.608 323.616 166.603 323.616 165.848C323.367 161.66 323.451 157.471 323.451 153.283C323.367 144.989 323.451 127.145 323.616 113.49C323.868 90.5362 323.868 88.777 324.372 87.8554C325.293 86.0125 327.555 85.5097 329.229 86.6827C330.234 87.3529 330.654 88.6933 330.654 91.2064V93.4684L332.916 91.3738C335.43 88.9444 337.692 87.3529 340.038 86.4313C343.473 85.0909 347.577 85.6774 350.76 87.5203C356.037 90.5362 358.719 97.7407 359.808 103.437ZM344.979 128.904C346.32 128.486 347.577 127.732 348.666 126.559C352.938 122.035 354.111 114.998 353.691 109.05C353.358 104.108 351.849 96.568 347.409 93.5521C344.979 91.9603 341.796 92.9656 339.702 94.4734C336.267 96.9868 333.753 100.924 331.911 104.694L330.402 107.626V115.333V123.124L332.748 125.218C336.099 128.234 340.875 130.245 344.979 128.904ZM392.667 89.1121C399.285 95.2276 402.216 106.956 399.954 118.181C399.954 118.349 399.87 118.433 399.87 118.6C397.86 128.15 390.489 139.963 379.011 137.366C375.324 136.528 372.393 134.182 370.215 131.25C361.335 119.438 363.093 97.8244 373.734 88.8607C379.68 83.8342 386.97 83.9182 392.667 89.1121ZM393.504 115.752C394.089 112.317 393.921 106.704 393.084 103.353C391.827 98.4946 389.064 94.2223 386.049 92.7982C380.436 89.9497 374.319 95.5627 371.973 105.615C370.299 112.988 370.968 123.543 377.169 128.737C386.13 136.277 392.247 122.873 393.504 115.752ZM409.788 136.863C409.119 136.528 408.45 136.025 408.282 135.271C408.114 134.852 408.03 134.266 408.03 133.763C407.862 131.669 407.946 129.491 407.946 127.313C408.114 112.15 408.615 91.0387 408.867 89.1121C409.119 87.4366 409.203 87.1015 410.124 86.2636C411.633 84.8395 413.895 85.1746 415.068 86.9338C415.569 87.7717 415.653 90.8713 415.317 96.1489C415.233 97.4056 415.068 106.537 414.984 116.338C414.9 121.03 414.9 125.805 414.648 130.496C414.648 132.088 414.732 134.015 414.144 135.523C413.643 136.779 411.882 137.282 410.628 137.114C410.376 137.03 410.04 136.947 409.788 136.863ZM410.793 79.4782C410.709 79.3942 410.544 79.3105 410.376 79.2268C408.366 77.8864 408.531 74.9542 410.544 73.6138C411.465 73.0276 413.055 73.1113 413.979 73.6138C414.816 74.1166 415.317 74.9542 415.485 75.8758C415.821 77.9701 414.48 79.8133 412.302 79.8133C411.801 79.8133 411.297 79.7293 410.793 79.4782ZM427.38 136.444C426.291 136.193 425.787 135.774 425.202 134.685C424.782 133.763 424.782 127.397 425.454 102.097C425.787 89.1121 425.787 88.8607 427.38 87.8554C429.222 86.7664 431.4 87.5203 432.24 89.4472C432.573 90.2848 432.657 91.0387 432.489 92.7982L432.324 95.1436L433.662 93.3844C436.344 89.7823 440.364 86.7664 444.804 85.7611C451.422 84.2533 456.366 89.5309 458.292 95.2276C459.885 100.086 459.717 105.28 459.801 110.307C459.969 120.276 459.381 133.009 458.628 134.685C458.208 135.774 456.786 136.695 455.613 136.695C454.44 136.695 453.015 135.774 452.595 134.601C452.262 133.847 452.262 133.009 452.427 129.742C452.847 123.962 453.351 118.098 453.351 112.233C453.351 106.956 453.435 100.17 451.005 95.3113C448.491 90.2848 443.799 92.6305 440.7 95.7301C437.601 98.8297 435.171 104.108 433.077 112.568C432.24 116.087 431.82 121.616 431.736 129.491C431.736 131.418 431.652 133.428 431.484 133.931C430.983 135.774 429.222 136.779 427.38 136.444ZM477.273 136.109C476.685 135.774 476.184 135.271 476.016 134.517C475.512 132.758 475.68 130.748 475.596 128.904C475.512 123.878 475.512 118.768 475.512 113.741L475.428 93.6358H471.072C468.558 93.6358 464.454 94.1383 463.953 90.7876C463.785 89.6146 464.202 88.5256 465.042 87.7717C466.464 86.4313 469.23 86.7664 471.072 86.7664H475.26V78.1378C475.26 75.7921 475.26 73.3627 475.344 70.9333C475.428 70.0117 475.428 68.8387 476.016 68.0848C476.601 67.1635 477.858 66.6607 478.947 66.7444C482.55 66.9958 482.13 71.1844 482.13 73.6978C482.214 75.2056 482.214 76.6297 482.214 78.1378V86.7664L486.654 86.8501C488.496 86.8501 491.01 86.4313 492.267 88.2742C493.104 89.5309 492.936 91.6252 491.682 92.5468C490.341 93.5521 487.995 93.3007 486.486 93.3844L482.298 93.5521V114.077C482.298 119.019 482.382 123.962 482.298 128.904C482.298 130.748 482.382 132.926 481.962 134.768C481.461 136.779 478.863 137.114 477.273 136.109ZM498.309 136.444C497.22 136.193 496.719 135.774 496.131 134.685C495.711 133.763 495.711 127.397 496.383 102.097C496.719 89.1121 496.719 88.8607 498.309 87.8554C500.07 86.7664 502.332 87.5203 503.169 89.4472C503.502 90.2848 503.502 91.0387 503.421 92.7982L503.253 95.1436L504.591 93.3844C508.53 88.1068 514.143 85.0909 519.168 85.426C522.435 85.6774 525.537 87.8554 527.211 91.0387L527.883 92.2117C527.883 92.2117 529.557 90.7876 529.557 90.7036C532.404 88.1068 536.007 85.5934 540.03 85.5097C545.559 85.5097 549.663 90.2848 551.421 95.0599C552.426 97.5733 552.93 100.673 553.098 104.778C553.266 108.548 552.846 124.464 552.342 131.25L552.261 133.177C552.177 134.098 551.841 134.936 551.172 135.523C549.831 136.695 548.154 136.779 546.813 135.69C545.559 134.601 545.391 133.679 545.724 127.313C545.892 124.213 546.06 117.092 546.06 111.479C546.144 106.286 546.897 99.9187 544.05 95.3113C542.541 92.7982 540.195 91.8766 537.6 93.217C535.086 94.5574 532.656 96.6517 531.399 99.3325L530.73 100.673L530.814 110.223C530.898 120.695 530.226 133.093 529.557 134.685C529.137 135.774 527.715 136.695 526.542 136.695C525.369 136.695 523.944 135.774 523.524 134.601C523.191 133.847 523.191 133.009 523.359 129.742C524.697 110.893 524.196 100.086 521.85 95.395C520.509 92.7982 519.672 92.2117 517.746 92.3791C515.652 92.5468 513.807 93.5521 511.629 95.7301C508.53 98.8297 506.1 104.108 504.006 112.568C503.169 116.087 502.749 121.616 502.665 129.491C502.665 131.418 502.581 133.428 502.413 133.931C501.912 135.774 500.151 136.779 498.309 136.444ZM587.877 126.056C589.05 126.643 589.719 127.732 589.719 129.072C589.719 130.496 589.134 131.418 587.373 133.009C583.521 136.528 576.651 138.203 572.211 136.695C568.191 135.271 564.924 132.423 562.743 128.737C558.471 121.532 558.387 111.815 560.565 103.856C562.494 96.484 565.677 91.2901 570.618 87.604C571.122 87.2689 571.623 86.9338 572.127 86.5987C576.819 84.0019 582.684 84.5884 585.195 89.6983C587.289 93.8872 586.536 99.1648 584.61 103.353C582.096 109.05 574.974 113.574 568.524 113.574H566.178V113.658C566.178 115.417 566.262 117.176 566.514 118.935C566.598 119.522 566.766 120.108 566.85 120.695C567.771 124.381 569.697 127.899 573.132 129.658C576.567 131.418 580.923 129.826 583.521 127.313C585.195 125.721 586.368 125.386 587.877 126.056ZM569.28 99.835C567.939 102.683 566.934 105.867 567.183 106.537C567.771 107.961 571.458 106.286 572.295 105.867C576.987 103.94 580.923 98.6623 579.498 93.3844C579.081 91.9603 578.325 91.5415 576.819 91.9603C574.305 92.6305 571.206 95.8138 569.28 99.835ZM597.054 136.444C595.965 136.193 595.464 135.774 594.876 134.685C594.456 133.763 594.456 127.397 595.128 102.097C595.464 89.1121 595.464 88.8607 597.054 87.8554C598.896 86.7664 601.074 87.5203 601.914 89.4472C602.247 90.2848 602.331 91.0387 602.163 92.7982L601.998 95.1436L603.336 93.3844C606.018 89.7823 610.038 86.7664 614.478 85.7611C621.096 84.2533 626.04 89.5309 627.966 95.2276C629.559 100.086 629.391 105.28 629.475 110.307C629.643 120.276 629.055 133.009 628.302 134.685C627.882 135.774 626.46 136.695 625.287 136.695C624.114 136.695 622.689 135.774 622.269 134.601C621.936 133.847 621.936 133.009 622.104 129.742C622.521 123.962 623.025 118.098 623.025 112.233C623.025 106.956 623.109 100.17 620.679 95.3113C618.165 90.2848 613.473 92.6305 610.374 95.7301C607.275 98.8297 604.845 104.108 602.751 112.568C601.914 116.087 601.494 121.616 601.41 129.491C601.41 131.418 601.326 133.428 601.158 133.931C600.657 135.774 598.896 136.779 597.054 136.444ZM646.947 136.109C646.359 135.774 645.858 135.271 645.69 134.517C645.186 132.758 645.354 130.748 645.27 128.904C645.186 123.878 645.186 118.768 645.186 113.741L645.102 93.6358H640.746C638.235 93.6358 634.128 94.1383 633.627 90.7876C633.459 89.6146 633.876 88.5256 634.716 87.7717C636.138 86.4313 638.904 86.7664 640.746 86.7664H644.934V78.1378C644.934 75.7921 644.934 73.3627 645.018 70.9333C645.102 70.0117 645.102 68.8387 645.69 68.0848C646.275 67.1635 647.532 66.6607 648.621 66.7444C652.224 66.9958 651.804 71.1844 651.804 73.6978C651.888 75.2056 651.888 76.6297 651.888 78.1378V86.7664L656.328 86.8501C658.173 86.8501 660.684 86.4313 661.941 88.2742C662.778 89.5309 662.613 91.6252 661.356 92.5468C660.015 93.5521 657.669 93.3007 656.16 93.3844L651.972 93.5521V114.077C651.972 119.019 652.056 123.962 651.972 128.904C651.972 130.748 652.056 132.926 651.636 134.768C651.135 136.779 648.537 137.114 646.947 136.109Z" fill="white"/>
</svg>
