<svg width="296" height="82" viewBox="0 0 296 82" fill="none" xmlns="http://www.w3.org/2000/svg">
<path d="M13.8994 80.6908C12.8544 80.6908 12.0183 80.2031 11.3913 79.2277C10.8339 78.1826 10.5552 76.9286 10.5552 75.4655C10.5552 73.1663 10.6946 70.3446 10.9732 67.0004L11.1823 64.2832L11.3913 58.7443C11.3913 56.3058 11.1474 50.8715 10.6597 42.4412C10.172 34.011 9.92817 28.5766 9.92817 26.1381C9.92817 25.9291 9.92817 25.5459 9.92817 24.9885C9.99784 24.3615 10.0327 23.4209 10.0327 22.1669C10.1024 20.7734 10.1372 19.0665 10.1372 17.046C10.1372 11.96 9.78883 8.72028 9.09212 7.32685C8.67409 7.32685 7.76836 7.43136 6.37493 7.64037L3.44873 7.84938C2.54301 7.84938 1.74178 7.60553 1.04507 7.11784C0.348357 6.56046 0 5.86375 0 5.0277C0 4.19164 0.836057 3.46009 2.50817 2.83305C4.94667 1.99699 9.09212 1.40478 14.9445 1.05642C17.3133 0.917083 18.7416 0.847412 19.2293 0.847412C20.0654 0.847412 20.8317 1.1261 21.5285 1.68347C22.2252 2.24084 22.5735 2.93755 22.5735 3.77361C22.5735 4.60967 22.26 5.30638 21.633 5.86375C21.0756 6.35145 20.344 6.5953 19.4383 6.5953L17.5572 6.4908C16.9998 6.42112 16.3728 6.38628 15.6761 6.38628H14.631C15.1187 11.1239 15.3625 15.4087 15.3625 19.2407L15.258 25.9291C15.1884 27.9496 15.1535 30.2139 15.1535 32.7221C15.1535 36.0663 15.2929 40.0724 15.5716 44.7404C15.9199 50.5231 16.0941 54.5292 16.0941 56.7587C16.0941 59.4062 16.2334 62.5414 16.5121 66.1643C16.7908 69.8569 16.9301 72.9921 16.9301 75.57C16.9301 78.9839 15.9199 80.6908 13.8994 80.6908Z" fill="#C69C3C"/>
<path d="M51.9106 79.9593C49.5418 79.9593 48.3574 74.2114 48.3574 62.7156L48.4619 56.7587L48.5664 51.9514V50.5928C48.6361 50.0354 48.6709 49.3735 48.6709 48.6071C48.6709 48.4678 48.5664 48.2936 48.3574 48.0846C48.1484 47.8756 48.0439 47.7014 48.0439 47.5621V47.4576C47.6955 47.5969 47.0685 47.6666 46.1627 47.6666C45.257 47.6666 44.1423 47.5272 42.8185 47.2486C42.4005 47.1789 41.2857 47.0047 39.4743 46.726V58.7443C39.4743 60.5558 39.5788 63.4123 39.7878 67.3139C39.9968 71.1458 40.1013 74.0024 40.1013 75.8835C40.1013 76.9286 39.8226 77.8343 39.2653 78.6007C38.7079 79.3671 37.9764 79.7503 37.0706 79.7503C35.7469 79.7503 34.8063 78.4613 34.2489 75.8835C33.6916 73.236 33.4129 69.7872 33.4129 65.5373L33.6219 57.0722C33.6916 54.7034 33.7264 52.1952 33.7264 49.5477V46.308C33.7264 45.1932 33.6916 44.4617 33.6219 44.1133V43.5908L33.9354 37.5294C33.9354 34.8819 33.8309 30.9454 33.6219 25.7201C33.4129 20.4947 33.3084 16.5583 33.3084 13.9108C33.3084 13.0747 33.5871 12.3432 34.1444 11.7161C34.7018 11.0891 35.3985 10.7756 36.2346 10.7756C38.4641 10.7756 39.5788 12.8657 39.5788 17.046L39.3698 30.0049C39.2304 33.9065 39.1608 38.2609 39.1608 43.0683C40.2058 43.4166 42.087 43.5908 44.8041 43.5908H48.6709C48.8103 43.1728 48.8799 42.7548 48.8799 42.3367C48.8799 38.9925 48.6709 34.0458 48.2529 27.4967C47.7652 21.3656 47.5213 16.3841 47.5213 12.5522C47.5213 11.7858 47.8 11.1588 48.3574 10.6711C48.9844 10.1137 49.716 9.83502 50.552 9.83502C51.0397 9.83502 51.7365 10.0092 52.6422 10.3576L53.5827 10.7756C53.5827 20.6689 53.9311 33.8716 54.6278 50.3838L55.5684 76.8241C55.5684 77.7995 55.1852 78.5658 54.4188 79.1232C53.7221 79.6806 52.886 79.9593 51.9106 79.9593Z" fill="#C69C3C"/>
<path d="M88.7028 80.8998C87.1004 80.8998 85.916 80.656 85.1496 80.1683C84.3832 79.6806 84 78.7749 84 77.4511C84 75.361 83.6517 71.8077 82.9549 66.7914L82.5369 64.5967L72.1907 63.0291C71.7727 64.6316 71.1805 67.8713 70.4141 72.7483C69.9961 76.1622 69.3342 78.4265 68.4285 79.5412C67.9408 80.1683 67.2441 80.4818 66.3383 80.4818C65.5023 80.4818 64.7359 80.238 64.0392 79.7503C63.3425 79.1929 62.9941 78.531 62.9941 77.7646L63.2031 77.2421L63.3076 76.8241C67.9059 58.9185 71.3895 41.2568 73.7583 23.839C73.7583 23.5603 73.7932 23.1074 73.8628 22.4804C73.9325 21.7837 74.0022 20.8083 74.0718 19.5542C74.2809 16.9763 74.4899 14.921 74.6989 13.3883C74.9776 11.8555 75.3956 10.7059 75.953 9.93953H79.5062C80.4816 9.93953 81.3177 10.1834 82.0144 10.6711C82.7111 11.0891 83.0595 11.7161 83.0595 12.5522C83.0595 17.8472 83.791 25.7201 85.2541 36.1708C86.6475 46.9002 87.3443 54.4247 87.3443 58.7443C87.3443 59.1624 87.5184 60.2423 87.8668 61.9841C88.2151 63.5865 88.3893 64.6316 88.3893 65.1193C88.3893 65.607 88.7377 67.6971 89.4344 71.3897C90.0614 74.7339 90.375 76.8937 90.375 77.8691V77.9736C90.375 79.5064 89.8176 80.4818 88.7028 80.8998ZM81.8054 60.8345C81.5964 59.7894 81.4919 58.5005 81.4919 56.9677C81.4919 50.6973 80.9345 42.6851 79.8197 32.9311L78.7747 22.0623C75.7788 38.4351 73.7235 50.8018 72.6087 59.1624C73.6538 59.8591 76.7194 60.4164 81.8054 60.8345Z" fill="#C69C3C"/>
<path d="M127.875 80.2728C127.039 80.2728 126.412 80.0638 125.994 79.6457C125.576 79.158 125.262 78.3568 125.053 77.2421L124.426 75.2565V74.7339C124.426 72.4348 122.023 64.5967 117.215 51.2198C112.478 37.8429 108.75 27.9496 106.033 21.5398V74.1069L106.451 74.8384C106.521 74.9778 106.66 75.2216 106.869 75.57C107.078 75.9183 107.183 76.2667 107.183 76.615C107.183 77.5208 106.869 78.2872 106.242 78.9142C105.615 79.5412 104.849 79.8548 103.943 79.8548C101.713 79.8548 100.599 77.7298 100.599 73.4798L100.494 55.6091C100.425 50.2444 100.39 44.2527 100.39 37.6339C100.39 35.4044 100.494 32.1647 100.703 27.9147C100.912 23.5254 101.017 20.2857 101.017 18.1956C101.017 14.921 102.271 12.3432 104.779 10.4621V11.0891C105.197 10.9498 105.476 10.8801 105.615 10.8801C107.217 10.8801 109.238 13.6669 111.676 19.2407C113.627 23.6996 115.369 28.4024 116.902 33.3491C118.504 38.2958 120.594 45.3326 123.172 54.4595L124.217 58.2218C125.82 63.8652 127.039 67.9061 127.875 70.3446C129.268 55.3653 129.965 37.6687 129.965 17.255V15.8964C129.896 15.4784 129.861 15.0255 129.861 14.5378C129.861 12.4477 130.697 11.4026 132.369 11.4026C133.344 11.4026 134.076 11.7858 134.563 12.5522C135.121 13.3186 135.4 14.294 135.4 15.4784V23.3164C135.26 34.0458 134.842 45.6809 134.145 58.2218C133.449 70.7626 132.613 77.8343 131.637 79.4367C129.617 79.9941 128.363 80.2728 127.875 80.2728Z" fill="#C69C3C"/>
<path d="M174.017 81.7359C172.414 81.7359 170.707 79.9941 168.896 76.5105C166.179 71.2852 163.496 62.6808 160.849 50.6973C160.082 47.4227 159.455 44.392 158.968 41.6052C156.459 46.6215 155.205 52.6829 155.205 59.7894V79.1232C155.205 80.7257 154.509 81.5269 153.115 81.5269C152.07 81.5269 151.199 81.2134 150.502 80.5863C149.875 80.0289 149.562 79.2277 149.562 78.1826V46.517C149.562 43.4515 149.91 37.8081 150.607 29.5869C151.304 22.4107 151.652 16.7673 151.652 12.6567C152.209 11.333 153.22 10.6711 154.683 10.6711C155.588 10.6711 156.355 10.9846 156.982 11.6116C157.609 12.2387 157.922 13.0051 157.922 13.9108V14.2243C157.017 15.7571 156.564 22.0972 156.564 33.2446V37.0069L160.431 29.3778C162.799 24.4312 165.029 20.1812 167.119 16.628C169.07 13.1444 170.498 11.4026 171.404 11.4026C172.519 11.4026 173.459 11.6465 174.226 12.1342C175.062 12.6219 175.48 13.3186 175.48 14.2243L172.971 18.4046C167.746 26.8348 164.82 31.7118 164.193 33.0356C164.193 34.22 164.158 35.2651 164.088 36.1708L163.984 39.306C163.984 42.3019 165.168 47.9104 167.537 56.1317C169.976 64.2832 171.996 69.6827 173.599 72.3303L174.957 74.2114C176.281 76.0228 176.943 77.6253 176.943 79.0187C176.943 79.7851 176.629 80.4121 176.002 80.8998C175.445 81.4572 174.783 81.7359 174.017 81.7359Z" fill="#C69C3C"/>
<path d="M212.29 81.2134C211.593 81.2134 210.966 80.9695 210.409 80.4818C209.921 79.9941 209.677 79.4019 209.677 78.7052L209.886 68.568C210.095 64.0394 210.2 60.6603 210.2 58.4308C210.2 56.4103 209.886 53.4145 209.259 49.4432C208.562 45.5416 208.214 42.5109 208.214 40.3511C208.214 37.7036 207.831 34.6729 207.064 31.259C206.298 27.8451 205.323 24.5705 204.138 21.4353C203.024 18.4394 202.083 15.2346 201.317 11.8207C200.55 8.33709 200.167 5.30638 200.167 2.72854C200.167 2.24084 200.446 1.82281 201.003 1.47445C201.56 1.1261 202.153 0.951918 202.78 0.951918C203.546 0.951918 204.278 1.75314 204.974 3.35558C205.81 5.16704 206.612 7.71004 207.378 10.9846C208.144 14.2592 208.597 16.21 208.737 16.837L210.095 24.048L211.14 28.6463C211.349 27.5316 211.523 26.0685 211.663 24.257C212.081 18.4743 212.603 13.6669 213.23 9.83502C213.718 7.18751 214.275 5.16704 214.902 3.77361C215.599 2.24084 216.435 1.47445 217.411 1.47445C219.292 1.47445 220.232 1.82281 220.232 2.51952C220.232 6.49079 219.396 12.3432 217.724 20.0767C216.052 27.8102 215.216 33.6975 215.216 37.7384L215.007 39.4105C214.868 40.4556 214.833 41.0826 214.902 41.2917V42.9638C214.902 45.9596 215.007 50.5579 215.216 56.7587L215.425 70.6581L215.634 73.0618L215.843 75.57V78.1826C215.843 79.0187 215.495 79.7154 214.798 80.2728C214.101 80.8998 213.265 81.2134 212.29 81.2134Z" fill="#C69C3C"/>
<path d="M244.859 81.9449C243.048 81.9449 241.376 81.3527 239.843 80.1683C238.31 79.0535 237.056 77.5208 236.081 75.57C234.06 71.32 232.806 66.6869 232.318 61.6705C231.691 56.9329 231.378 52.3694 231.378 47.9801C231.378 47.144 231.413 46.4473 231.482 45.89V44.0088C231.482 43.6605 231.448 43.4863 231.378 43.4863V41.6052L231.482 34.2897C231.552 32.0602 231.831 28.507 232.318 23.63C232.667 20.2857 233.468 17.046 234.722 13.9108C235.21 12.5174 235.837 11.4723 236.603 10.7756C237.37 10.0092 238.241 9.62601 239.216 9.62601C242.003 9.62601 244.511 10.1485 246.74 11.1936C248.97 12.169 250.851 13.5624 252.384 15.3739C253.777 17.1157 254.962 19.2755 255.937 21.8533C256.912 24.3615 257.609 27.0439 258.027 29.9004C258.445 32.8266 258.654 35.927 258.654 39.2015V40.0376C258.654 42.1974 258.689 44.1482 258.759 45.89L258.863 51.8469C258.863 71.9122 254.195 81.9449 244.859 81.9449ZM244.441 77.5556C245.695 77.5556 246.845 77.0679 247.89 76.0925C248.935 75.0474 249.736 73.654 250.294 71.9122C251.617 68.359 252.419 64.5271 252.697 60.4164C253.046 56.8632 253.22 53.7977 253.22 51.2198C253.22 48.0846 252.976 43.974 252.488 38.888C252.07 33.5233 251.861 29.5172 251.861 26.8697V24.9885C251.722 22.341 250.816 20.0419 249.144 18.0911C247.542 16.1403 245.556 15.1649 243.187 15.1649C240.818 15.1649 239.251 16.5235 238.484 19.2407C237.788 21.4005 237.439 24.1873 237.439 27.6012C237.439 28.925 237.474 30.0397 237.544 30.9455V33.7671L237.335 38.5745C237.195 40.0376 237.126 41.64 237.126 43.3818C237.126 47.144 237.23 50.8715 237.439 54.5641C237.718 59.7894 238.415 64.8754 239.529 69.8221C240.644 74.9778 242.281 77.5556 244.441 77.5556Z" fill="#C69C3C"/>
<path d="M281.474 81.5269C279.801 81.5269 278.303 81.1437 276.98 80.3773C275.656 79.6806 274.576 78.6355 273.74 77.2421C272.068 74.3159 270.988 71.0065 270.5 67.3139C270.013 64.109 269.769 60.2771 269.769 55.8181C269.56 48.2936 269.455 39.097 269.455 28.2283L269.351 20.1812C269.281 19.7632 269.246 19.0665 269.246 18.0911C269.107 15.4436 269.037 13.8411 269.037 13.2838C269.664 11.8207 270.396 11.0891 271.232 11.0891C272.068 11.0891 272.799 11.7161 273.426 12.9702C274.123 14.2243 274.472 15.5829 274.472 17.046V45.4719C274.472 48.2588 274.715 51.9514 275.203 56.5497C275.691 62.2627 275.935 65.9553 275.935 67.6274C275.935 72.7831 278.129 75.361 282.519 75.361C287.535 75.361 290.043 56.6194 290.043 19.1362V12.3432C289.973 12.1342 289.939 11.8555 289.939 11.5071C289.939 10.6711 290.113 10.0789 290.461 9.73051C290.879 9.31248 291.646 9.10347 292.76 9.10347C293.666 9.10347 294.363 9.38216 294.85 9.93953C295.408 10.4272 295.756 11.0194 295.895 11.7161C295.965 12.1342 296 12.9354 296 14.1198C296 15.2346 295.896 17.0112 295.686 19.4497C295.408 21.4701 295.268 23.2119 295.268 24.675C295.268 26.2775 295.199 27.7057 295.059 28.9598L294.85 33.3491V34.1852C294.92 34.4639 294.955 34.7774 294.955 35.1257C294.955 66.0598 290.461 81.5269 281.474 81.5269Z" fill="#C69C3C"/>
</svg>
