<svg width="888" height="246" viewBox="0 0 888 246" fill="none" xmlns="http://www.w3.org/2000/svg">
<path d="M41.6982 242.073C38.5632 242.073 36.0549 240.61 34.1739 237.684C32.5017 234.549 31.6656 230.787 31.6656 226.397C31.6656 219.5 32.0838 211.035 32.9196 201.002L33.5469 192.85L34.1739 176.234C34.1739 168.918 33.4422 152.615 31.9791 127.324C30.516 102.034 29.7845 85.7305 29.7845 78.415C29.7845 77.788 29.7845 76.6384 29.7845 74.9662C29.9935 73.0852 30.0981 70.2634 30.0981 66.5014C30.3072 62.3209 30.4116 57.2002 30.4116 51.1387C30.4116 35.8807 29.3665 26.1616 27.2764 21.9813C26.0223 21.9813 23.3051 22.2948 19.1248 22.9218L10.3462 23.5489C7.62903 23.5489 5.22534 22.8173 3.13521 21.3543C1.04507 19.6821 0 17.592 0 15.0838C0 12.5757 2.50817 10.381 7.52451 8.49988C14.84 5.9917 27.2764 4.21507 44.8335 3.16999C51.9399 2.75198 56.2248 2.54297 57.6879 2.54297C60.1962 2.54297 62.4951 3.37903 64.5855 5.05114C66.6756 6.72325 67.7205 8.81338 67.7205 11.3216C67.7205 13.8297 66.78 15.9199 64.899 17.592C63.2268 19.0551 61.032 19.7866 58.3149 19.7866L52.6716 19.4731C50.9994 19.2641 49.1184 19.1596 47.0283 19.1596H43.893C45.3561 33.3724 46.0875 46.2268 46.0875 57.7228L45.774 77.788C45.5652 83.8495 45.4605 90.6424 45.4605 98.167C45.4605 108.2 45.8787 120.218 46.7148 134.222C47.7597 151.57 48.2823 163.588 48.2823 170.277C48.2823 178.219 48.7002 187.625 49.5363 198.494C50.3724 209.571 50.7903 218.977 50.7903 226.711C50.7903 236.952 47.7597 242.073 41.6982 242.073Z" fill="#C69C3C"/>
<path d="M155.731 239.878C148.625 239.878 145.072 222.634 145.072 188.147L145.385 170.276L145.699 155.854V151.778C145.908 150.106 146.012 148.12 146.012 145.821C146.012 145.403 145.699 144.881 145.072 144.254C144.445 143.627 144.131 143.104 144.131 142.686V142.373C143.086 142.791 141.205 143 138.488 143C135.771 143 132.427 142.581 128.455 141.746C127.201 141.537 123.857 141.014 118.423 140.178V176.233C118.423 181.667 118.736 190.237 119.363 201.942C119.99 213.437 120.304 222.007 120.304 227.65C120.304 230.786 119.467 233.503 117.796 235.802C116.123 238.101 113.929 239.251 111.211 239.251C107.24 239.251 104.419 235.384 102.746 227.65C101.074 219.708 100.238 209.361 100.238 196.612L100.865 171.216C101.074 164.11 101.179 156.585 101.179 148.643V138.924C101.179 135.579 101.074 133.385 100.865 132.34V130.772L101.806 112.588C101.806 104.646 101.492 92.836 100.865 77.1601C100.238 61.4839 99.9248 49.6747 99.9248 41.7322C99.9248 39.2239 100.761 37.0294 102.433 35.1481C104.105 33.2671 106.195 32.3266 108.703 32.3266C115.392 32.3266 118.736 38.5969 118.736 51.1378L118.109 90.0145C117.691 101.719 117.482 114.783 117.482 129.205C120.617 130.25 126.261 130.772 134.412 130.772H146.012C146.431 129.518 146.639 128.264 146.639 127.01C146.639 116.977 146.012 102.137 144.758 82.4899C143.295 64.0966 142.564 49.1521 142.564 37.6564C142.564 35.3572 143.4 33.4762 145.072 32.0131C146.953 30.3409 149.148 29.5049 151.656 29.5049C153.119 29.5049 155.209 30.0274 157.926 31.0726L160.748 32.3266C160.748 62.0065 161.793 101.615 163.883 151.151L166.705 230.472C166.705 233.398 165.555 235.697 163.256 237.369C161.166 239.042 158.658 239.878 155.731 239.878Z" fill="#C69C3C"/>
<path d="M266.109 242.699C261.301 242.699 257.748 241.968 255.449 240.505C253.15 239.042 252 236.324 252 232.353C252 226.083 250.955 215.423 248.865 200.374L247.611 193.79L216.572 189.087C215.318 193.895 213.542 203.614 211.242 218.245C209.988 228.486 208.003 235.279 205.286 238.623C203.823 240.505 201.732 241.445 199.015 241.445C196.507 241.445 194.208 240.714 192.118 239.251C190.028 237.578 188.982 235.593 188.982 233.294L189.609 231.726L189.923 230.472C203.718 176.755 214.169 123.77 221.275 71.5168C221.275 70.6807 221.38 69.322 221.589 67.441C221.798 65.3509 222.007 62.4247 222.216 58.6624C222.843 50.9287 223.47 44.7628 224.097 40.1647C224.933 35.5663 226.187 32.1175 227.859 29.8184H238.519C241.445 29.8184 243.953 30.55 246.043 32.0131C248.133 33.2671 249.179 35.1481 249.179 37.6564C249.179 53.5414 251.373 77.1601 255.762 108.512C259.943 140.7 262.033 163.274 262.033 176.233C262.033 177.487 262.555 180.727 263.601 185.952C264.645 190.759 265.168 193.895 265.168 195.358C265.168 196.821 266.213 203.091 268.303 214.169C270.184 224.201 271.125 230.681 271.125 233.607V233.921C271.125 238.519 269.453 241.445 266.109 242.699ZM245.416 182.503C244.789 179.368 244.476 175.501 244.476 170.903C244.476 152.092 242.804 128.055 239.459 98.7931L236.324 66.1867C227.337 115.305 221.171 152.405 217.826 177.487C220.962 179.577 230.158 181.249 245.416 182.503Z" fill="#C69C3C"/>
<path d="M383.624 240.818C381.116 240.818 379.235 240.191 377.981 238.937C376.727 237.473 375.785 235.07 375.158 231.726L373.277 225.769V224.201C373.277 217.304 366.068 193.79 351.644 153.659C337.433 113.528 326.249 83.8482 318.098 64.6188V222.32L319.352 224.515C319.562 224.933 319.979 225.664 320.606 226.709C321.233 227.754 321.548 228.8 321.548 229.844C321.548 232.562 320.606 234.861 318.725 236.742C316.844 238.623 314.546 239.564 311.828 239.564C305.138 239.564 301.796 233.189 301.796 220.439L301.481 166.827C301.274 150.733 301.169 132.758 301.169 112.901C301.169 106.213 301.481 96.4935 302.108 83.7435C302.735 70.5756 303.05 60.8565 303.05 54.5862C303.05 44.7624 306.812 37.029 314.336 31.3857V33.2667C315.59 32.8488 316.427 32.6397 316.844 32.6397C321.65 32.6397 327.713 41.0001 335.027 57.7215C340.88 71.0982 346.106 85.2066 350.705 100.047C355.511 114.887 361.781 135.997 369.515 163.378L372.65 174.665C377.459 191.595 381.116 203.718 383.624 211.033C387.803 166.095 389.894 113.006 389.894 51.7644V47.6886C389.687 46.4346 389.582 45.0759 389.582 43.6128C389.582 37.3425 392.09 34.2072 397.106 34.2072C400.031 34.2072 402.227 35.3568 403.688 37.656C405.362 39.9552 406.199 42.8814 406.199 46.4346V69.9486C405.779 102.137 404.525 137.042 402.434 174.665C400.346 212.287 397.838 233.502 394.91 238.31C388.85 239.982 385.088 240.818 383.624 240.818Z" fill="#C69C3C"/>
<path d="M522.05 245.207C517.241 245.207 512.12 239.982 506.687 229.531C498.536 213.855 490.487 188.042 482.546 152.091C480.245 142.267 478.364 133.175 476.903 124.815C469.376 139.864 465.614 158.048 465.614 179.368V237.369C465.614 242.176 463.526 244.58 459.344 244.58C456.209 244.58 453.596 243.64 451.505 241.758C449.624 240.086 448.685 237.683 448.685 234.547V139.55C448.685 130.354 449.729 113.424 451.82 88.7601C453.911 67.2315 454.955 50.3013 454.955 37.9695C456.626 33.9984 459.659 32.0127 464.048 32.0127C466.763 32.0127 469.064 32.9532 470.945 34.8342C472.826 36.7155 473.765 39.0147 473.765 41.7318V42.6723C471.05 47.2707 469.691 66.291 469.691 99.7332V111.02L481.292 88.1328C488.396 73.293 495.086 60.543 501.356 49.8834C507.209 39.4326 511.493 34.2072 514.211 34.2072C517.556 34.2072 520.376 34.9389 522.677 36.402C525.185 37.8651 526.439 39.9552 526.439 42.6723L518.912 55.2132C503.237 80.5038 494.459 95.1348 492.578 99.1062C492.578 102.659 492.473 105.795 492.263 108.512L491.951 117.917C491.951 126.905 495.503 143.731 502.61 168.394C509.927 192.849 515.987 209.047 520.796 216.99L524.87 222.634C528.842 228.068 530.828 232.875 530.828 237.056C530.828 239.355 529.886 241.236 528.005 242.699C526.334 244.371 524.348 245.207 522.05 245.207Z" fill="#C69C3C"/>
<path d="M636.87 243.64C634.779 243.64 632.898 242.908 631.227 241.445C629.763 239.982 629.031 238.205 629.031 236.115L629.658 205.704C630.285 192.118 630.6 181.981 630.6 175.292C630.6 169.231 629.658 160.243 627.777 148.329C625.686 136.625 624.642 127.532 624.642 121.053C624.642 113.111 623.493 104.018 621.192 93.7767C618.894 83.535 615.969 73.7112 612.414 64.3056C609.072 55.3179 606.249 45.7035 603.951 35.4618C601.65 25.011 600.501 15.9189 600.501 8.18533C600.501 6.72223 601.338 5.46814 603.009 4.42306C604.68 3.37801 606.459 2.85547 608.34 2.85547C610.638 2.85547 612.834 5.25914 614.922 10.0665C617.43 15.5008 619.836 23.1298 622.134 32.9535C624.432 42.7773 625.791 48.6297 626.211 50.5107L630.285 72.1437L633.42 85.9386C634.047 82.5945 634.569 78.2052 634.989 72.7707C636.243 55.4226 637.809 41.0004 639.69 29.5048C641.154 21.5622 642.825 15.5008 644.706 11.3205C646.797 6.72223 649.305 4.42306 652.233 4.42306C657.876 4.42306 660.696 5.46814 660.696 7.55827C660.696 19.4721 658.188 37.0293 653.172 60.2298C648.156 83.4303 645.648 101.092 645.648 113.215L645.021 118.231C644.604 121.367 644.499 123.248 644.706 123.875V128.891C644.706 137.879 645.021 151.673 645.648 170.276L646.275 211.974L646.902 219.185L647.529 226.71V234.548C647.529 237.056 646.485 239.146 644.394 240.818C642.303 242.699 639.795 243.64 636.87 243.64Z" fill="#C69C3C"/>
<path d="M734.577 245.835C729.144 245.835 724.128 244.058 719.529 240.505C714.93 237.16 711.168 232.562 708.243 226.71C702.18 213.96 698.418 200.061 696.954 185.011C695.073 170.799 694.134 157.108 694.134 143.94C694.134 141.432 694.239 139.342 694.446 137.67V132.026C694.446 130.981 694.344 130.459 694.134 130.459V124.816L694.446 102.869C694.656 96.1805 695.493 85.5209 696.954 70.8899C698.001 60.857 700.404 51.1379 704.166 41.7323C705.63 37.5521 707.511 34.4168 709.809 32.3267C712.11 30.0275 714.723 28.8779 717.648 28.8779C726.009 28.8779 733.533 30.4454 740.22 33.5807C746.91 36.5069 752.553 40.6871 757.152 46.1216C761.331 51.347 764.886 57.8264 767.811 65.5598C770.736 73.0844 772.827 81.1316 774.081 89.7011C775.335 98.4797 775.962 107.781 775.962 117.604V120.113C775.962 126.592 776.067 132.444 776.277 137.67L776.589 155.541C776.589 215.736 762.585 245.835 734.577 245.835ZM733.323 232.667C737.085 232.667 740.535 231.204 743.67 228.277C746.805 225.142 749.208 220.962 750.882 215.736C754.851 205.077 757.257 193.581 758.091 181.249C759.138 170.589 759.66 161.393 759.66 153.659C759.66 144.254 758.928 131.922 757.464 116.664C756.21 100.57 755.583 88.5515 755.583 80.609V74.9654C755.166 67.0229 752.448 60.1256 747.432 54.2732C742.626 48.4208 736.668 45.4946 729.561 45.4946C722.454 45.4946 717.753 49.5704 715.452 57.722C713.364 64.2014 712.317 72.5618 712.317 82.8035C712.317 86.7749 712.422 90.119 712.632 92.8364V101.301L712.005 115.723C711.585 120.113 711.378 124.92 711.378 130.145C711.378 141.432 711.69 152.614 712.317 163.692C713.154 179.368 715.245 194.626 718.587 209.466C721.932 224.933 726.843 232.667 733.323 232.667Z" fill="#C69C3C"/>
<path d="M844.422 244.581C839.403 244.581 834.909 243.431 830.94 241.132C826.968 239.042 823.728 235.907 821.22 231.726C816.204 222.948 812.964 213.02 811.5 201.942C810.039 192.327 809.307 180.831 809.307 167.454C808.68 144.881 808.365 117.291 808.365 84.685L808.053 60.5437C807.843 59.2897 807.738 57.1996 807.738 54.2734C807.321 46.3309 807.111 41.5234 807.111 39.8515C808.992 35.4622 811.188 33.2674 813.696 33.2674C816.204 33.2674 818.397 35.1484 820.278 38.9107C822.369 42.673 823.416 46.7488 823.416 51.1381V136.416C823.416 144.777 824.145 155.854 825.609 169.649C827.073 186.788 827.805 197.866 827.805 202.882C827.805 218.349 834.387 226.083 847.557 226.083C862.605 226.083 870.129 169.858 870.129 57.4087V37.0297C869.919 36.4027 869.817 35.5666 869.817 34.5214C869.817 32.0134 870.339 30.2368 871.383 29.1917C872.637 27.9376 874.938 27.3105 878.28 27.3105C880.998 27.3105 883.089 28.1466 884.55 29.8187C886.224 31.2817 887.268 33.0583 887.685 35.1484C887.895 36.4027 888 38.8063 888 42.3595C888 45.7039 887.688 51.0337 887.058 58.3492C886.224 64.4104 885.804 69.6358 885.804 74.0251C885.804 78.8326 885.597 83.1172 885.177 86.8795L884.55 100.047V102.556C884.76 103.392 884.865 104.332 884.865 105.377C884.865 198.18 871.383 244.581 844.422 244.581Z" fill="#C69C3C"/>
</svg>
