<svg width="888" height="714" viewBox="0 0 888 714" fill="none" xmlns="http://www.w3.org/2000/svg">
<g clip-path="url(#clip0_1105_2262)">
<path d="M888 296.617C888 431.469 753.297 545.304 568.875 581.34C546.675 618.183 480.075 726.297 455.1 712.434C441.225 693.03 449.55 598.779 444 593.235C198.786 593.235 0 460.434 0 296.617C0 132.8 198.786 0 444 0C689.214 0 888 132.8 888 296.617Z" fill="#F4ABAB"/>
<path d="M447.285 589.941L445.923 588.582H444C322.185 588.582 212.112 555.588 132.627 502.488C53.1116 449.367 4.64941 376.488 4.64941 296.614C4.64941 216.739 53.1116 143.861 132.627 90.7404C212.112 37.6404 322.185 4.64648 444 4.64648C565.815 4.64648 675.888 37.6404 755.373 90.7404C834.888 143.861 883.35 216.739 883.35 296.614C883.35 362.385 850.518 423.366 794.526 472.539C738.525 521.721 659.541 558.885 567.984 576.774L565.959 577.17L564.894 578.94C553.797 597.354 531.705 633.408 509.316 663.099C498.096 677.979 486.972 691.029 477.246 699.465C472.365 703.698 468.084 706.548 464.523 707.973C461.655 709.119 459.675 709.191 458.262 708.753C457.248 706.983 456.258 704.367 455.376 700.839C454.338 696.678 453.531 691.611 452.916 685.902C451.683 674.478 451.251 660.888 451.077 647.574C450.999 641.685 450.975 635.796 450.951 630.198C450.921 623.292 450.891 616.83 450.774 611.364C450.663 606.381 450.477 602.01 450.126 598.662C449.949 597 449.721 595.452 449.4 594.153C449.145 593.124 448.623 591.279 447.285 589.941Z" stroke="black" stroke-opacity="0.1" stroke-width="9.29844"/>
</g>
<defs>
<clipPath id="clip0_1105_2262">
<rect width="888" height="714" fill="white"/>
</clipPath>
</defs>
</svg>
