<svg width="888" height="411" viewBox="0 0 888 411" fill="none" xmlns="http://www.w3.org/2000/svg">
<path d="M15.3158 402.605C12.8198 402.605 10.7777 401.036 9.18945 397.901C7.82805 394.418 7.14735 390.239 7.14735 385.361L7.82805 297.572C8.50875 255.071 8.8491 222.15 8.8491 198.81C8.8491 117.64 5.89941 55.4565 0 12.2589C3.4035 4.24645 7.71459 0.240234 12.9333 0.240234C21.3286 0.240234 28.9298 3.20137 35.7369 9.12361C42.7707 14.6975 48.5565 22.3616 53.0946 32.1159C61.9437 52.3212 66.3684 74.9649 66.3684 100.048C66.3684 126.175 62.7378 149.516 55.4772 170.069C48.2163 190.623 37.6653 206.648 23.8245 218.144L24.5052 270.922L25.1859 298.617C25.4128 304.541 25.5262 313.076 25.5262 324.221C26.2069 347.564 26.5473 366.548 26.5473 381.179C26.5473 387.8 25.6397 393.026 23.8245 396.857C22.0093 400.688 19.1731 402.605 15.3158 402.605ZM23.1438 193.061C31.9929 180.172 38.4597 166.76 42.5439 152.825C46.8549 138.542 49.0104 122.517 49.0104 104.75V104.228C49.0104 96.2154 48.4431 86.1129 47.3088 73.92C46.6281 69.7395 45.3801 65.559 43.5648 61.3788C41.7495 57.1983 40.7286 54.7596 40.5018 54.063C38.9133 50.5794 34.7157 45.1797 27.9087 37.8639L19.0596 27.9355C19.0596 45.7023 19.7403 73.2231 21.1017 110.498L23.1438 193.061Z" fill="#186F81"/>
<path d="M161.697 408.875C156.705 408.875 152.167 400.514 148.083 383.792C143.318 365.678 139.801 347.039 137.532 327.881L135.15 310.112C128.569 260.297 124.372 231.905 122.557 224.938H118.473C118.473 235.041 118.359 244.272 118.132 252.633V281.374C118.132 328.055 120.288 364.46 124.599 390.587L120.855 404.696H111.325L106.901 396.857L107.241 361.847C107.241 330.494 106.22 282.941 104.178 219.19C102.363 151.258 101.455 103.706 101.455 76.5336C101.455 59.8119 105.199 51.4512 112.686 51.4512C124.939 51.4512 134.923 56.3283 142.637 66.0825C150.579 75.8367 154.55 89.4231 154.55 106.841V143.42C154.55 148.645 153.982 154.742 152.848 161.709C151.713 168.328 150.465 173.728 149.104 177.908L142.637 196.72L137.192 212.397L138.894 224.938L143.658 262.039C146.835 288.863 149.898 310.637 152.848 327.359C155.798 344.078 159.428 359.234 163.739 372.821L165.781 379.091C168.05 386.057 169.185 391.631 169.185 395.813C169.185 399.296 168.504 402.257 167.142 404.696C165.781 407.483 163.966 408.875 161.697 408.875ZM119.834 199.333C124.826 195.501 129.023 185.05 132.427 167.98C136.057 150.562 137.872 134.537 137.872 119.905C137.872 108.757 136.965 98.3064 135.15 88.5522C134.015 82.9782 132.087 78.798 129.364 76.011C126.868 72.8757 123.691 71.3082 119.834 71.3082L119.153 73.9209L118.473 78.6237L119.153 140.285C119.607 158.4 119.834 178.083 119.834 199.333Z" fill="#186F81"/>
<path d="M219.531 399.472C199.79 399.472 189.92 394.246 189.92 383.794C189.92 375.433 193.437 371.254 200.471 371.254H204.215L207.618 371.776C209.433 371.776 210.681 370.906 211.362 369.163C212.043 367.423 212.383 364.288 212.383 359.758C212.383 353.836 212.156 344.605 211.702 332.062C211.022 323.701 210.228 308.722 209.32 287.123C207.278 233.823 206.257 193.587 206.257 166.414C206.257 156.66 206.37 147.776 206.597 139.764L206.937 113.114C206.937 101.618 206.597 92.0376 205.917 84.3735C202.286 85.767 199.677 86.4639 198.088 86.4639C192.643 86.4639 189.92 82.2834 189.92 73.9227C189.92 69.7422 191.622 66.0843 195.025 62.949C198.429 59.8137 202.74 57.5493 207.959 56.1558C217.035 53.3688 225.09 51.9756 232.123 51.9756C234.846 51.9756 237.115 53.5431 238.93 56.6784C240.972 59.4654 241.994 62.7747 241.994 66.6069C241.994 70.4388 241.199 73.7484 239.611 76.5354C238.25 79.3224 236.434 80.7159 234.165 80.7159C232.804 80.7159 231.669 80.5416 230.762 80.1933H228.039C225.77 80.1933 224.068 81.0642 222.934 82.806C222.026 84.1995 221.573 86.9865 221.573 91.1667C221.573 124.958 222.934 175.82 225.657 243.752C226.11 256.293 227.018 274.756 228.38 299.142C229.514 315.166 230.081 331.54 230.081 348.262V368.119C231.443 367.771 233.712 367.597 236.888 367.597C246.418 367.597 251.183 373.693 251.183 385.885V389.02L242.674 397.903C242.447 397.903 241.653 398.077 240.292 398.428C239.157 398.428 236.888 398.428 233.485 398.428C226.224 399.124 221.573 399.472 219.531 399.472Z" fill="#186F81"/>
<path d="M319.108 409.923C313.21 409.923 307.762 406.962 302.77 401.037C297.78 395.463 293.695 387.801 290.519 378.045C283.939 356.796 279.855 333.63 278.266 308.547C276.224 284.858 275.203 262.04 275.203 240.093C275.203 235.912 275.317 232.428 275.543 229.642V220.236C275.543 218.494 275.43 217.623 275.203 217.623V208.217L275.543 171.638C275.77 160.491 276.678 142.724 278.266 118.338C279.401 101.616 282.01 85.4174 286.094 69.7409C287.683 62.7734 289.725 57.548 292.221 54.0644C294.717 50.2322 297.553 48.3164 300.73 48.3164C309.805 48.3164 317.974 50.9291 325.234 56.1545C332.494 61.0316 338.623 67.9991 343.612 77.0567C348.151 85.7657 352.009 96.5651 355.186 109.455C358.363 121.996 360.631 135.408 361.993 149.691C363.355 164.322 364.033 179.825 364.033 196.198V200.379C364.033 211.178 364.147 220.932 364.375 229.642L364.714 259.427C364.714 359.757 349.513 409.923 319.108 409.923ZM317.746 387.975C321.832 387.975 325.576 385.536 328.978 380.658C332.383 375.432 334.99 368.466 336.805 359.757C341.116 341.991 343.726 322.83 344.635 302.277C345.769 284.509 346.336 269.181 346.336 256.292C346.336 240.615 345.541 220.061 343.954 194.631C342.592 167.806 341.911 147.775 341.911 134.537V125.131C341.458 111.893 338.509 100.397 333.061 90.6428C327.844 80.8886 321.376 76.0115 313.663 76.0115C305.947 76.0115 300.844 82.8047 298.347 96.3911C296.078 107.191 294.943 121.125 294.943 138.195C294.943 144.814 295.057 150.388 295.284 154.917V169.026L294.603 193.063C294.149 200.379 293.922 208.391 293.922 217.1C293.922 235.912 294.263 254.55 294.943 273.013C295.851 299.141 298.12 324.573 301.75 349.305C305.38 375.084 310.714 387.975 317.746 387.975Z" fill="#186F81"/>
<path d="M461.499 408.875C456.507 408.875 451.968 400.514 447.885 383.792C443.121 365.678 439.602 347.039 437.334 327.881L434.952 310.112C428.373 260.297 424.173 231.905 422.358 224.938H418.275C418.275 235.041 418.161 244.272 417.933 252.633V281.374C417.933 328.055 420.09 364.46 424.401 390.587L420.657 404.696H411.126L406.704 396.857L407.043 361.847C407.043 330.494 406.023 282.941 403.98 219.19C402.165 151.258 401.256 103.706 401.256 76.5336C401.256 59.8119 405 51.4512 412.488 51.4512C424.74 51.4512 434.724 56.3283 442.44 66.0825C450.381 75.8367 454.353 89.4231 454.353 106.841V143.42C454.353 148.645 453.786 154.742 452.649 161.709C451.515 168.328 450.267 173.728 448.905 177.908L442.44 196.72L436.995 212.397L438.696 224.938L443.46 262.039C446.637 288.863 449.7 310.637 452.649 327.359C455.601 344.078 459.231 359.234 463.542 372.821L465.582 379.091C467.853 386.057 468.987 391.631 468.987 395.813C468.987 399.296 468.306 402.257 466.944 404.696C465.582 407.483 463.767 408.875 461.499 408.875ZM419.637 199.333C424.629 195.501 428.826 185.05 432.228 167.98C435.858 150.562 437.676 134.537 437.676 119.905C437.676 108.757 436.767 98.3064 434.952 88.5522C433.818 82.9782 431.889 78.798 429.165 76.011C426.669 72.8757 423.492 71.3082 419.637 71.3082L418.956 73.9209L418.275 78.6237L418.956 140.285C419.409 158.4 419.637 178.083 419.637 199.333Z" fill="#186F81"/>
<path d="M519.331 399.472C499.591 399.472 489.721 394.246 489.721 383.794C489.721 375.433 493.237 371.254 500.272 371.254H504.013L507.418 371.776C509.233 371.776 510.481 370.906 511.162 369.163C511.843 367.423 512.182 364.288 512.182 359.758C512.182 353.836 511.957 344.605 511.501 332.062C510.82 323.701 510.028 308.722 509.119 287.123C507.076 233.823 506.056 193.587 506.056 166.414C506.056 156.66 506.17 147.776 506.398 139.764L506.737 113.114C506.737 101.618 506.398 92.0376 505.717 84.3735C502.087 85.767 499.477 86.4639 497.887 86.4639C492.442 86.4639 489.721 82.2834 489.721 73.9227C489.721 69.7422 491.422 66.0843 494.824 62.949C498.229 59.8137 502.54 57.5493 507.757 56.1558C516.835 53.3688 524.89 51.9756 531.922 51.9756C534.646 51.9756 536.914 53.5431 538.729 56.6784C540.772 59.4654 541.792 62.7747 541.792 66.6069C541.792 70.4388 541 73.7484 539.41 76.5354C538.048 79.3224 536.233 80.7159 533.965 80.7159C532.603 80.7159 531.469 80.5416 530.563 80.1933H527.839C525.571 80.1933 523.867 81.0642 522.733 82.806C521.827 84.1995 521.371 86.9865 521.371 91.1667C521.371 124.958 522.733 175.82 525.457 243.752C525.91 256.293 526.819 274.756 528.178 299.142C529.315 315.166 529.882 331.54 529.882 348.262V368.119C531.241 367.771 533.512 367.597 536.689 367.597C546.217 367.597 550.984 373.693 550.984 385.885V389.02L542.473 397.903C542.248 397.903 541.453 398.077 540.091 398.428C538.957 398.428 536.689 398.428 533.284 398.428C526.024 399.124 521.371 399.472 519.331 399.472Z" fill="#186F81"/>
<path d="M598.149 391.631L597.81 371.252C597.582 365.33 597.468 358.712 597.468 351.395L597.81 333.629C597.129 329.795 595.428 291.65 592.704 219.19C589.98 146.73 588.393 100.222 587.94 79.6688C574.779 78.9719 566.382 76.8818 562.752 73.3982C560.256 70.6112 559.008 67.4759 559.008 63.9923C559.008 61.2053 560.145 58.7666 562.413 56.6765C564.909 54.2378 567.405 53.0186 569.901 53.0186C576.255 53.0186 583.968 53.7155 593.043 55.109C601.665 56.8508 609.381 57.7217 616.188 57.7217H621.633C628.668 57.7217 632.184 61.9019 632.184 70.2629C632.184 74.4434 631.05 77.927 628.782 80.714C626.511 83.1524 623.904 84.3716 620.952 84.3716C618.912 84.3716 615.96 83.8493 612.105 82.8041L605.298 80.714L604.617 85.9394C604.617 116.944 606.546 166.412 610.401 234.344C614.031 298.095 615.849 347.564 615.849 382.748C615.849 386.927 614.601 390.587 612.105 393.722C609.834 396.857 607.224 398.426 604.275 398.426L598.149 391.631Z" fill="#186F81"/>
<path d="M683.188 399.472C663.448 399.472 653.578 394.246 653.578 383.794C653.578 375.433 657.094 371.254 664.126 371.254H667.87L671.275 371.776C673.09 371.776 674.338 370.906 675.019 369.163C675.7 367.423 676.039 364.288 676.039 359.758C676.039 353.836 675.814 344.605 675.358 332.062C674.677 323.701 673.885 308.722 672.976 287.123C670.933 233.823 669.913 193.587 669.913 166.414C669.913 156.66 670.027 147.776 670.255 139.764L670.594 113.114C670.594 101.618 670.255 92.0376 669.574 84.3735C665.944 85.767 663.334 86.4639 661.744 86.4639C656.299 86.4639 653.578 82.2834 653.578 73.9227C653.578 69.7422 655.279 66.0843 658.681 62.949C662.086 59.8137 666.397 57.5493 671.614 56.1558C680.692 53.3688 688.747 51.9756 695.779 51.9756C698.503 51.9756 700.771 53.5431 702.586 56.6784C704.629 59.4654 705.649 62.7747 705.649 66.6069C705.649 70.4388 704.857 73.7484 703.267 76.5354C701.905 79.3224 700.09 80.7159 697.822 80.7159C696.46 80.7159 695.326 80.5416 694.42 80.1933H691.696C689.428 80.1933 687.724 81.0642 686.59 82.806C685.684 84.1995 685.228 86.9865 685.228 91.1667C685.228 124.958 686.59 175.82 689.314 243.752C689.767 256.293 690.676 274.756 692.035 299.142C693.172 315.166 693.739 331.54 693.739 348.262V368.119C695.098 367.771 697.369 367.597 700.546 367.597C710.074 367.597 714.841 373.693 714.841 385.885V389.02L706.33 397.903C706.105 397.903 705.31 398.077 703.948 398.428C702.814 398.428 700.546 398.428 697.141 398.428C689.881 399.124 685.228 399.472 683.188 399.472Z" fill="#186F81"/>
<path d="M758.606 406.785C755.654 406.785 752.933 405.219 750.437 402.084C748.166 398.949 746.921 395.115 746.693 390.588V366.549C746.465 363.414 746.351 359.757 746.351 355.575C746.351 348.261 746.012 337.113 745.331 322.134L744.65 288.69C744.65 271.62 744.992 246.189 745.673 212.397C746.579 182.089 747.032 156.658 747.032 136.105C747.032 131.227 746.693 123.912 746.012 114.157C745.331 104.055 744.992 96.7392 744.992 92.2104C744.992 67.4763 749.756 55.1094 759.287 55.1094C766.772 55.1094 775.394 57.3738 785.153 61.9023C795.137 66.4311 800.129 71.8308 800.129 78.1014C800.129 81.5853 799.106 84.8946 797.063 88.0299C795.248 90.8169 792.98 93.0813 790.256 94.8231C780.728 89.5977 772.106 86.1141 764.39 84.372C764.618 89.5977 764.732 97.0875 764.732 106.842C764.732 120.776 764.618 133.318 764.39 144.466C763.709 161.187 763.37 173.728 763.37 182.089L764.39 190.45L769.835 189.927C771.653 189.579 773.921 189.405 776.642 189.405C787.535 189.405 792.98 194.282 792.98 204.036C792.98 207.868 791.96 211.178 789.917 213.965C787.874 216.403 785.267 217.623 782.09 217.623C778.004 217.623 774.827 217.274 772.559 216.577H764.051C764.504 225.635 764.732 238.873 764.732 256.291C764.732 273.71 764.618 289.386 764.39 303.321C763.709 324.573 763.37 340.422 763.37 350.874C763.37 370.383 763.598 380.136 764.051 380.136L775.283 379.614C779.138 379.266 783.791 379.092 789.236 379.092C797.858 379.092 802.169 383.271 802.169 391.632C802.169 396.51 800.696 400.167 797.744 402.606C795.023 405.393 791.618 406.785 787.535 406.785H758.606Z" fill="#186F81"/>
<path d="M845.794 407.311C841.711 406.264 838.192 403.999 835.243 400.516C832.522 397.033 830.932 392.503 830.479 386.929L834.223 378.046C835.585 378.046 837.739 378.745 840.688 380.137C844.093 381.181 846.703 381.706 848.518 381.706C852.601 381.706 856.231 378.919 859.408 373.345C862.813 367.771 865.309 360.454 866.896 351.397C869.845 334.675 871.321 319.696 871.321 306.457C871.321 283.465 866.557 259.254 857.026 233.823L853.282 223.895C848.971 212.398 845.341 202.122 842.392 193.064C839.44 184.007 836.947 174.252 834.904 163.801C832.18 150.215 830.818 136.629 830.818 123.042C830.818 107.714 833.089 91.6891 837.625 74.9674C839.896 66.955 843.072 60.5101 847.155 55.633C851.466 50.4076 856.231 47.7949 861.451 47.7949C865.534 47.7949 869.277 49.885 872.682 54.0655C876.312 57.8974 878.128 62.6005 878.128 68.1742C878.128 71.3095 877.332 73.7482 875.745 75.49C874.155 77.2318 872.23 78.1027 869.959 78.1027C867.463 78.1027 865.081 77.0578 862.813 74.9674C857.821 75.316 853.849 82.1089 850.9 95.347C848.404 107.54 847.155 117.642 847.155 125.655C847.155 135.758 848.176 146.034 850.219 156.486C852.262 166.588 854.872 175.82 858.046 184.181L865.534 205.083L877.447 239.571C880.624 249.325 883.12 260.647 884.935 273.537C886.978 286.427 887.998 299.49 887.998 312.727C887.998 333.979 884.821 354.184 878.467 373.345C875.293 383.098 870.754 390.937 864.853 396.859C859.183 402.781 852.829 405.742 845.794 405.742V407.311Z" fill="#186F81"/>
</svg>
