<svg width="296" height="137" viewBox="0 0 296 137" fill="none" xmlns="http://www.w3.org/2000/svg">
<path d="M5.10525 134.202C4.27328 134.202 3.59258 133.679 3.06315 132.634C2.60935 131.473 2.38245 130.08 2.38245 128.454L2.60935 99.1911C2.83625 85.0241 2.9497 74.0506 2.9497 66.2704C2.9497 39.2138 1.96647 18.486 0 4.08679C1.1345 1.41597 2.57153 0.0805664 4.3111 0.0805664C7.10954 0.0805664 9.64325 1.06761 11.9123 3.04169C14.2569 4.89965 16.1855 7.45434 17.6982 10.7058C20.6479 17.4409 22.1228 24.9888 22.1228 33.3497C22.1228 42.0588 20.9126 49.839 18.4924 56.6903C16.0721 63.5415 12.5551 68.8831 7.9415 72.7152L8.1684 90.3077L8.3953 99.5394C8.47094 101.514 8.50875 104.359 8.50875 108.074C8.73565 115.855 8.8491 122.183 8.8491 127.06C8.8491 129.267 8.54657 131.009 7.9415 132.286C7.33644 133.563 6.39102 134.202 5.10525 134.202ZM7.7146 64.3543C10.6643 60.0578 12.8199 55.5871 14.1813 50.9422C15.6183 46.1812 16.3368 40.8395 16.3368 34.9173V34.7431C16.3368 32.0723 16.1477 28.7048 15.7696 24.6405C15.5427 23.247 15.1267 21.8535 14.5216 20.4601C13.9165 19.0666 13.5762 18.2537 13.5006 18.0215C12.9711 16.8603 11.5719 15.0604 9.3029 12.6218L6.3532 9.31231C6.3532 15.2346 6.5801 24.4082 7.0339 36.8333L7.7146 64.3543Z" fill="#186F81"/>
<path d="M53.8985 136.292C52.2346 136.292 50.7219 133.505 49.3605 127.931C47.7722 121.893 46.5999 115.68 45.8436 109.294L45.0494 103.371C42.856 86.766 41.4568 77.302 40.8518 74.9796H39.4904C39.4904 78.3471 39.4525 81.4243 39.3769 84.2113V93.7914C39.3769 109.352 40.0954 121.487 41.5325 130.196L40.2845 134.899H37.1079L35.6331 132.286L35.7465 120.616C35.7465 110.165 35.4062 94.3139 34.7255 73.0635C34.1204 50.4196 33.8179 34.5689 33.8179 25.5114C33.8179 19.9375 35.0658 17.1506 37.5617 17.1506C41.6459 17.1506 44.9738 18.7763 47.5453 22.0277C50.1925 25.2791 51.5161 29.8079 51.5161 35.614V47.8069C51.5161 49.5487 51.327 51.5809 50.9488 53.9033C50.5707 56.1096 50.1547 57.9096 49.7009 59.303L47.5453 65.5736L45.7301 70.7991L46.2974 74.9796L47.8857 87.3466C48.9445 96.288 49.9656 103.546 50.9488 109.12C51.9321 114.693 53.1422 119.745 54.5792 124.274L55.2599 126.364C56.0163 128.686 56.3944 130.544 56.3944 131.938C56.3944 133.099 56.1675 134.086 55.7137 134.899C55.2599 135.828 54.6549 136.292 53.8985 136.292ZM39.9442 66.4446C41.6081 65.1672 43.0073 61.6835 44.1418 55.9935C45.3519 50.1874 45.957 44.8458 45.957 39.9686C45.957 36.2527 45.6545 32.769 45.0494 29.5176C44.6712 27.6596 44.0284 26.2662 43.1208 25.3372C42.2888 24.2921 41.2299 23.7696 39.9442 23.7696L39.7173 24.6405L39.4904 26.2081L39.7173 46.7618C39.8685 52.8002 39.9442 59.3611 39.9442 66.4446Z" fill="#186F81"/>
<path d="M73.1762 133.157C66.5961 133.157 63.306 131.415 63.306 127.931C63.306 125.144 64.4783 123.751 66.823 123.751H68.0709L69.2054 123.925C69.8105 123.925 70.2265 123.635 70.4534 123.054C70.6803 122.474 70.7937 121.429 70.7937 119.919C70.7937 117.945 70.7181 114.868 70.5668 110.687C70.3399 107.9 70.0752 102.907 69.7727 95.7074C69.092 77.9407 68.7516 64.5285 68.7516 55.471C68.7516 52.2195 68.7894 49.2584 68.8651 46.5876L68.9785 37.7042C68.9785 33.8722 68.8651 30.6788 68.6382 28.1241C67.428 28.5886 66.5582 28.8209 66.0288 28.8209C64.2136 28.8209 63.306 27.4274 63.306 24.6405C63.306 23.247 63.8733 22.0277 65.0078 20.9826C66.1423 19.9375 67.5793 19.1827 69.3189 18.7182C72.3442 17.7892 75.0292 17.3248 77.3738 17.3248C78.2814 17.3248 79.0377 17.8473 79.6428 18.8924C80.3235 19.8214 80.6639 20.9245 80.6639 22.2019C80.6639 23.4792 80.3991 24.5824 79.8697 25.5114C79.4159 26.4404 78.8108 26.9049 78.0545 26.9049C77.6007 26.9049 77.2225 26.8468 76.92 26.7307H76.0124C75.2561 26.7307 74.6888 27.021 74.3107 27.6016C74.0081 28.0661 73.8569 28.9951 73.8569 30.3885C73.8569 41.6524 74.3107 58.6063 75.2183 81.2502C75.3695 85.4306 75.6721 91.5851 76.1259 99.7136C76.504 105.055 76.6931 110.513 76.6931 116.087V122.706C77.1469 122.59 77.9033 122.532 78.9621 122.532C82.1387 122.532 83.727 124.564 83.727 128.628V129.673L80.8908 132.634C80.8151 132.634 80.5504 132.692 80.0966 132.809C79.7185 132.809 78.9621 132.809 77.8276 132.809C75.4073 133.041 73.8569 133.157 73.1762 133.157Z" fill="#186F81"/>
<path d="M106.37 136.641C104.404 136.641 102.588 135.654 100.924 133.679C99.2605 131.821 97.8991 129.267 96.8402 126.015C94.6469 118.932 93.2855 111.21 92.756 102.849C92.0753 94.9526 91.735 87.3466 91.735 80.0309C91.735 78.6374 91.7728 77.4762 91.8484 76.5472V73.4119C91.8484 72.8313 91.8106 72.541 91.735 72.541V69.4057L91.8484 57.2128C91.9241 53.4969 92.2266 47.5746 92.756 39.4461C93.1342 33.8722 94.004 28.4725 95.3654 23.247C95.8948 20.9245 96.5755 19.1827 97.4075 18.0215C98.2395 16.7441 99.1849 16.1055 100.244 16.1055C103.269 16.1055 105.992 16.9764 108.412 18.7182C110.832 20.3439 112.875 22.6664 114.538 25.6856C116.051 28.5886 117.337 32.1884 118.396 36.485C119.455 40.6654 120.211 45.1361 120.665 49.8971C121.119 54.7742 121.345 59.9417 121.345 65.3994V66.7929C121.345 70.3927 121.383 73.6441 121.459 76.5472L121.572 86.4757C121.572 119.919 116.505 136.641 106.37 136.641ZM105.916 129.325C107.278 129.325 108.526 128.512 109.66 126.886C110.795 125.144 111.664 122.822 112.269 119.919C113.706 113.997 114.576 107.61 114.879 100.759C115.257 94.8365 115.446 89.7271 115.446 85.4306C115.446 80.2051 115.181 73.3538 114.652 64.8769C114.198 55.9355 113.971 49.2584 113.971 44.8458V41.7105C113.82 37.2978 112.837 33.4658 111.021 30.2143C109.282 26.9629 107.126 25.3372 104.555 25.3372C101.983 25.3372 100.282 27.6016 99.4496 32.1304C98.6933 35.7302 98.3151 40.3751 98.3151 46.0651C98.3151 48.2714 98.3529 50.1293 98.4285 51.6389V56.3419L98.2016 64.3543C98.0504 66.7929 97.9747 69.4637 97.9747 72.3668C97.9747 78.6374 98.0882 84.85 98.3151 91.0044C98.6176 99.7136 99.374 108.191 100.584 116.435C101.794 125.028 103.572 129.325 105.916 129.325Z" fill="#186F81"/>
<path d="M153.832 136.292C152.168 136.292 150.655 133.505 149.294 127.931C147.706 121.893 146.533 115.68 145.777 109.294L144.983 103.371C142.79 86.766 141.39 77.302 140.785 74.9796H139.424C139.424 78.3471 139.386 81.4243 139.31 84.2113V93.7914C139.31 109.352 140.029 121.487 141.466 130.196L140.218 134.899H137.041L135.567 132.286L135.68 120.616C135.68 110.165 135.34 94.3139 134.659 73.0635C134.054 50.4196 133.751 34.5689 133.751 25.5114C133.751 19.9375 134.999 17.1506 137.495 17.1506C141.579 17.1506 144.907 18.7763 147.479 22.0277C150.126 25.2791 151.45 29.8079 151.45 35.614V47.8069C151.45 49.5487 151.261 51.5809 150.882 53.9033C150.504 56.1096 150.088 57.9096 149.634 59.303L147.479 65.5736L145.664 70.7991L146.231 74.9796L147.819 87.3466C148.878 96.288 149.899 103.546 150.882 109.12C151.866 114.693 153.076 119.745 154.513 124.274L155.193 126.364C155.95 128.686 156.328 130.544 156.328 131.938C156.328 133.099 156.101 134.086 155.647 134.899C155.193 135.828 154.588 136.292 153.832 136.292ZM139.878 66.4446C141.542 65.1672 142.941 61.6835 144.075 55.9935C145.285 50.1874 145.891 44.8458 145.891 39.9686C145.891 36.2527 145.588 32.769 144.983 29.5176C144.605 27.6596 143.962 26.2662 143.054 25.3372C142.222 24.2921 141.163 23.7696 139.878 23.7696L139.651 24.6405L139.424 26.2081L139.651 46.7618C139.802 52.8002 139.878 59.3611 139.878 66.4446Z" fill="#186F81"/>
<path d="M173.11 133.157C166.53 133.157 163.24 131.415 163.24 127.931C163.24 125.144 164.412 123.751 166.757 123.751H168.004L169.139 123.925C169.744 123.925 170.16 123.635 170.387 123.054C170.614 122.474 170.727 121.429 170.727 119.919C170.727 117.945 170.652 114.868 170.5 110.687C170.273 107.9 170.009 102.907 169.706 95.7074C169.025 77.9407 168.685 64.5285 168.685 55.471C168.685 52.2195 168.723 49.2584 168.799 46.5876L168.912 37.7042C168.912 33.8722 168.799 30.6788 168.572 28.1241C167.362 28.5886 166.492 28.8209 165.962 28.8209C164.147 28.8209 163.24 27.4274 163.24 24.6405C163.24 23.247 163.807 22.0277 164.941 20.9826C166.076 19.9375 167.513 19.1827 169.252 18.7182C172.278 17.7892 174.963 17.3248 177.307 17.3248C178.215 17.3248 178.971 17.8473 179.576 18.8924C180.257 19.8214 180.597 20.9245 180.597 22.2019C180.597 23.4792 180.333 24.5824 179.803 25.5114C179.349 26.4404 178.744 26.9049 177.988 26.9049C177.534 26.9049 177.156 26.8468 176.854 26.7307H175.946C175.19 26.7307 174.622 27.021 174.244 27.6016C173.942 28.0661 173.79 28.9951 173.79 30.3885C173.79 41.6524 174.244 58.6063 175.152 81.2502C175.303 85.4306 175.606 91.5851 176.059 99.7136C176.438 105.055 176.627 110.513 176.627 116.087V122.706C177.08 122.59 177.837 122.532 178.896 122.532C182.072 122.532 183.661 124.564 183.661 128.628V129.673L180.824 132.634C180.749 132.634 180.484 132.692 180.03 132.809C179.652 132.809 178.896 132.809 177.761 132.809C175.341 133.041 173.79 133.157 173.11 133.157Z" fill="#186F81"/>
<path d="M199.383 130.544L199.27 123.751C199.194 121.777 199.156 119.571 199.156 117.132L199.27 111.21C199.043 109.932 198.476 97.217 197.568 73.0635C196.66 48.9101 196.131 33.4077 195.98 26.5565C191.593 26.3242 188.794 25.6275 187.584 24.4663C186.752 23.5373 186.336 22.4922 186.336 21.331C186.336 20.402 186.715 19.5891 187.471 18.8924C188.303 18.0795 189.135 17.6731 189.967 17.6731C192.085 17.6731 194.656 17.9054 197.681 18.3699C200.555 18.9505 203.127 19.2408 205.396 19.2408H207.211C209.556 19.2408 210.728 20.6342 210.728 23.4212C210.728 24.8147 210.35 25.9759 209.594 26.9049C208.837 27.7177 207.968 28.1241 206.984 28.1241C206.304 28.1241 205.32 27.95 204.035 27.6016L201.766 26.9049L201.539 28.6467C201.539 38.9816 202.182 55.471 203.467 78.1149C204.677 99.3653 205.283 115.855 205.283 127.583C205.283 128.976 204.867 130.196 204.035 131.241C203.278 132.286 202.408 132.809 201.425 132.809L199.383 130.544Z" fill="#186F81"/>
<path d="M227.73 133.157C221.15 133.157 217.86 131.415 217.86 127.931C217.86 125.144 219.032 123.751 221.376 123.751H222.624L223.759 123.925C224.364 123.925 224.78 123.635 225.007 123.054C225.234 122.474 225.347 121.429 225.347 119.919C225.347 117.945 225.272 114.868 225.12 110.687C224.893 107.9 224.629 102.907 224.326 95.7074C223.645 77.9407 223.305 64.5285 223.305 55.471C223.305 52.2195 223.343 49.2584 223.419 46.5876L223.532 37.7042C223.532 33.8722 223.419 30.6788 223.192 28.1241C221.982 28.5886 221.112 28.8209 220.582 28.8209C218.767 28.8209 217.86 27.4274 217.86 24.6405C217.86 23.247 218.427 22.0277 219.561 20.9826C220.696 19.9375 222.133 19.1827 223.872 18.7182C226.898 17.7892 229.583 17.3248 231.927 17.3248C232.835 17.3248 233.591 17.8473 234.196 18.8924C234.877 19.8214 235.217 20.9245 235.217 22.2019C235.217 23.4792 234.953 24.5824 234.423 25.5114C233.969 26.4404 233.364 26.9049 232.608 26.9049C232.154 26.9049 231.776 26.8468 231.474 26.7307H230.566C229.81 26.7307 229.242 27.021 228.864 27.6016C228.562 28.0661 228.41 28.9951 228.41 30.3885C228.41 41.6524 228.864 58.6063 229.772 81.2502C229.923 85.4306 230.226 91.5851 230.679 99.7136C231.058 105.055 231.247 110.513 231.247 116.087V122.706C231.7 122.59 232.457 122.532 233.516 122.532C236.692 122.532 238.281 124.564 238.281 128.628V129.673L235.444 132.634C235.369 132.634 235.104 132.692 234.65 132.809C234.272 132.809 233.516 132.809 232.381 132.809C229.961 133.041 228.41 133.157 227.73 133.157Z" fill="#186F81"/>
<path d="M252.869 135.595C251.885 135.595 250.978 135.073 250.146 134.028C249.389 132.983 248.974 131.705 248.898 130.196V122.183C248.822 121.138 248.784 119.919 248.784 118.525C248.784 116.087 248.671 112.371 248.444 107.378L248.217 96.23C248.217 90.54 248.331 82.063 248.558 70.7991C248.86 60.6965 249.011 52.2196 249.011 45.3683C249.011 43.7426 248.898 41.304 248.671 38.0526C248.444 34.6851 248.331 32.2465 248.331 30.7369C248.331 22.4922 249.919 18.3699 253.096 18.3699C255.591 18.3699 258.465 19.1247 261.718 20.6342C265.046 22.1438 266.71 23.9437 266.71 26.0339C266.71 27.1952 266.369 28.2983 265.688 29.3434C265.083 30.2724 264.327 31.0272 263.419 31.6078C260.243 29.866 257.369 28.7048 254.797 28.1241C254.873 29.866 254.911 32.3626 254.911 35.614C254.911 40.2589 254.873 44.4393 254.797 48.1553C254.57 53.7291 254.457 57.9095 254.457 60.6965L254.797 63.4834L256.612 63.3092C257.218 63.1931 257.974 63.1351 258.881 63.1351C262.512 63.1351 264.327 64.7608 264.327 68.0122C264.327 69.2895 263.987 70.3927 263.306 71.3217C262.625 72.1346 261.756 72.541 260.697 72.541C259.335 72.541 258.276 72.4248 257.52 72.1926H254.684C254.835 75.2118 254.911 79.6244 254.911 85.4306C254.911 91.2367 254.873 96.4622 254.797 101.107C254.57 108.191 254.457 113.474 254.457 116.958C254.457 123.461 254.533 126.712 254.684 126.712L258.428 126.538C259.713 126.422 261.264 126.364 263.079 126.364C265.953 126.364 267.39 127.757 267.39 130.544C267.39 132.17 266.899 133.389 265.915 134.202C265.008 135.131 263.873 135.595 262.512 135.595H252.869Z" fill="#186F81"/>
<path d="M281.932 135.77C280.571 135.421 279.398 134.666 278.415 133.505C277.508 132.344 276.978 130.834 276.827 128.976L278.075 126.015C278.529 126.015 279.247 126.248 280.23 126.712C281.365 127.06 282.235 127.235 282.84 127.235C284.201 127.235 285.411 126.306 286.47 124.448C287.605 122.59 288.437 120.151 288.966 117.132C289.949 111.558 290.441 106.565 290.441 102.152C290.441 94.4881 288.853 86.4176 285.676 77.9407L284.428 74.6312C282.991 70.7991 281.781 67.3735 280.798 64.3543C279.814 61.3352 278.983 58.0837 278.302 54.6001C277.394 50.0713 276.94 45.5425 276.94 41.0137C276.94 35.9043 277.697 30.5627 279.209 24.9888C279.966 22.318 281.025 20.1697 282.386 18.544C283.823 16.8022 285.411 15.9313 287.151 15.9313C288.512 15.9313 289.76 16.628 290.895 18.0215C292.105 19.2988 292.71 20.8665 292.71 22.7244C292.71 23.7695 292.445 24.5824 291.916 25.163C291.386 25.7436 290.744 26.0339 289.987 26.0339C289.155 26.0339 288.361 25.6856 287.605 24.9888C285.941 25.105 284.617 27.3693 283.634 31.782C282.802 35.8463 282.386 39.2138 282.386 41.8846C282.386 45.2522 282.726 48.6778 283.407 52.1615C284.088 55.529 284.958 58.6063 286.016 61.3932L288.512 68.3606L292.483 79.8567C293.542 83.1081 294.374 86.8821 294.979 91.1786C295.66 95.4752 296 99.8297 296 104.242C296 111.326 294.941 118.061 292.823 124.448C291.765 127.699 290.252 130.312 288.285 132.286C286.395 134.26 284.277 135.247 281.932 135.247V135.77Z" fill="#186F81"/>
</svg>
