<svg width="336" height="138" viewBox="0 0 336 138" fill="none" xmlns="http://www.w3.org/2000/svg">
<path d="M17.85 95.9289C21.0703 95.9289 23.6713 92.4392 21.1942 89.208C19.2124 86.4938 18.9647 83.3918 19.0886 80.2899C19.3363 75.3784 19.9556 70.0793 20.451 63.7461C20.5749 62.1952 21.318 61.2904 22.4327 60.5149C26.2723 57.93 29.6165 54.9573 32.3414 52.243C38.6581 45.9099 43.4886 39.189 47.2044 31.9511C48.0714 30.2709 49.3099 29.6246 51.1678 29.6246C54.3881 29.6246 57.6084 29.4954 60.7049 29.4954C65.6592 29.4954 68.2602 28.5907 68.2602 25.101C68.2602 20.7065 63.4298 20.965 58.4754 20.965H53.3973C52.2825 20.965 52.2825 20.5773 52.4064 19.8018C54.0165 12.0469 54.6358 10.3667 53.1495 6.48924C51.5394 2.09481 47.6998 0.156088 43.3648 1.70707C37.5434 3.77503 31.2267 12.0469 26.6439 19.6725C26.1485 20.5773 25.5292 21.0943 24.5383 21.0943H6.57891C2.73931 21.0943 -0.233288 22.3867 0.0144281 25.7472C0.262145 28.7199 2.86316 29.8831 5.83576 29.8831H18.717C21.8135 29.8831 21.318 29.7539 20.3272 32.4681C16.6114 42.0325 13.7627 51.9846 12.2764 63.0999C10.7901 74.2152 9.79922 84.4258 12.8957 92.0514C13.6388 93.8609 15.1251 95.9289 17.85 95.9289ZM36.8003 20.965C36.181 20.965 36.0571 20.8358 36.3048 20.3188C38.2866 16.3121 41.1353 13.0809 44.3556 10.8837C44.7272 10.6252 45.4703 10.3667 45.4703 11.5299C45.4703 14.3734 44.4795 16.9583 43.4886 19.931C43.2409 20.7065 42.7455 20.965 42.1262 20.965H36.8003ZM23.6713 48.6241C24.2906 45.9099 28.1302 35.3116 29.4927 32.4681C30.3597 30.5294 31.3505 29.7539 32.8368 29.7539C36.6764 29.6246 39.5252 29.7539 37.6673 32.0804C34.9424 35.5701 30.3597 43.7127 23.6713 48.6241Z" fill="#6B488B"/>
<path d="M34.0198 90.1127C38.8502 92.5684 38.6025 86.3645 47.768 71.3718C51.8553 64.7801 55.8188 59.7394 60.03 55.4743C63.498 52.1138 69.6909 46.9439 71.0533 48.3656C71.9203 49.2703 70.434 53.6648 66.966 63.7461C65.232 69.0453 62.8787 74.3445 62.0117 80.0314C61.3924 83.7796 61.0208 88.5617 65.1081 88.8202C67.7092 89.0787 69.3193 87.0108 69.8147 83.3918C70.8056 76.2832 76.1315 63.2291 78.2371 56.379C80.095 50.0458 80.4665 43.7127 76.7508 40.6107C74.0259 38.155 68.0807 39.189 65.232 40.8692L62.631 42.2909C63.3741 40.74 66.2229 35.9578 69.1955 29.8831C71.5488 25.101 73.4066 19.931 75.0168 14.2441C76.3792 9.3327 76.2554 3.1288 71.7965 1.19007C66.8422 -1.1364 61.0208 5.71376 56.4381 13.0809C47.8919 27.0397 42.6898 46.5561 35.7538 69.95C34.3913 74.4737 33.2766 78.9974 31.7903 83.5211C30.9233 86.2353 30.9233 88.5617 34.0198 90.1127ZM53.4655 40.74C54.9518 27.0397 63.7457 11.4007 66.5944 11.4007C69.3193 11.4007 61.764 33.2436 53.4655 40.74Z" fill="#6B488B"/>
<path d="M109.379 90.5005C112.104 90.5005 113.343 88.691 113.343 85.2013C113.343 79.6436 114.581 74.086 116.068 68.5283C118.173 60.7734 121.146 53.277 124.242 45.1344C125.728 41.3862 126.967 37.3795 123.499 35.6993C121.765 34.7946 119.659 35.3116 118.297 36.9918C116.068 39.706 111.113 48.7534 106.53 57.0252C101.328 66.2018 93.4015 79.7729 89.8096 79.7729C88.0756 79.7729 93.4015 59.3517 96.0025 52.5015C96.9934 49.5288 100.461 42.1617 100.214 39.5767C99.966 35.9578 95.8786 34.6653 93.7731 36.8625C90.8005 39.9645 86.3416 53.9233 84.236 61.9367C81.5111 72.7935 78.9101 84.8136 85.5984 88.8202C89.6857 91.0175 93.8969 88.9495 97.7365 85.2013C99.966 83.1333 101.7 80.2899 104.301 76.8002L106.159 74.3445L105.787 77.8342C105.292 82.2286 104.796 86.4938 106.159 88.4325C107.026 89.725 108.141 90.5005 109.379 90.5005Z" fill="#6B488B"/>
<path d="M141.688 101.357C144.041 101.357 146.27 99.0308 145.403 95.7996C144.66 93.0854 145.156 90.5005 145.775 88.0448C148.5 77.1879 150.729 76.2832 153.826 66.7188C154.321 65.1679 155.188 63.2291 155.188 61.1612C155.188 56.7667 151.844 53.4063 147.633 54.1818C147.261 54.1818 144.165 54.9573 144.165 54.9573C144.165 54.828 147.757 49.1411 148.624 44.4882C149.491 39.9645 150.358 35.0531 146.394 32.2096C144.66 31.0464 142.679 30.7879 140.449 31.4341C134.628 33.1143 128.187 42.2909 126.082 50.1751C124.595 55.4743 124.471 60.5149 127.816 64.0046C132.646 69.0453 136.981 66.9773 145.156 63.8754C145.651 63.6169 145.899 64.1339 145.775 64.6509C145.899 64.0046 139.582 79.5144 138.839 81.8409C137.105 87.3985 135.371 94.5072 137.724 98.6431C138.715 100.323 140.078 101.357 141.688 101.357ZM133.885 53.9233C134.876 49.0118 136.114 46.0391 140.201 41.774C140.697 41.257 140.697 41.3862 140.573 42.0325C139.334 47.4609 137.105 51.4676 133.885 53.9233Z" fill="#6B488B"/>
<path d="M172.913 90.1127C184.432 90.1127 192.978 83.5211 198.676 73.6982C203.134 65.9433 207.346 53.277 207.346 45.9099C207.346 40.9985 206.355 36.7333 202.639 35.6993C201.277 35.3116 199.666 35.4408 198.428 36.3455C197.561 36.9918 180.964 51.8553 180.964 51.8553C178.982 53.4063 176.877 54.5695 174.523 55.345C166.349 57.93 158.793 63.3584 156.068 70.8548C152.353 81.5824 160.403 90.1127 172.913 90.1127ZM193.102 53.4063C192.854 53.4063 192.606 53.277 192.978 52.8893C195.084 50.6921 195.827 50.1751 197.437 48.4949C199.047 46.8146 198.799 47.7194 198.552 49.5288C197.932 54.4403 196.198 53.4063 193.102 53.4063ZM171.922 81.3239C166.596 81.5824 162.261 78.2219 163.995 73.569C165.605 69.433 170.436 65.8141 175.762 64.0046C180.097 62.4536 194.588 61.1612 194.588 62.7121C194.588 63.7461 192.483 67.7528 191.616 69.1745C187.033 77.0587 180.716 80.8069 171.922 81.3239Z" fill="#6B488B"/>
<path d="M237.341 89.4665C240.437 89.4665 241.799 86.8815 241.18 82.7456C240.561 78.2219 240.932 73.569 241.18 69.6915C241.304 67.3651 242.047 65.4264 243.286 63.6169L249.726 54.1818C259.016 40.4815 265.704 28.5907 269.667 14.3734C270.782 10.2374 270.782 5.06751 267.562 2.8703C262.236 -0.619397 255.919 5.843 251.46 11.9177C245.144 20.448 243.781 26.1349 239.322 37.638C238.579 39.3182 238.579 39.3182 236.969 39.0597C232.51 38.2843 228.299 39.4475 224.459 42.9372C214.922 51.4676 207.243 68.7868 208.853 80.5484C209.596 86.7523 215.046 90.3712 221.115 87.3985C224.583 85.589 226.317 83.9088 232.51 78.2219C233.129 83.5211 233.005 89.4665 237.341 89.4665ZM246.011 44.3589C249.602 32.3388 255.919 16.1828 260.997 13.8564C260.997 16.4413 256.91 25.7472 253.69 31.4341C250.965 36.087 247.249 42.4202 246.506 43.5834L246.011 44.3589ZM217.399 79.2559C216.409 78.8681 216.78 74.9907 217.399 72.6642C219.01 65.8141 221.734 59.7394 225.45 54.4403C227.184 51.9846 229.414 49.3996 232.51 47.9779C234.492 47.0731 235.73 49.5288 235.235 53.4063C234.492 58.8347 234.616 61.9366 231.024 66.0726C223.592 74.9907 218.762 80.0314 217.399 79.2559Z" fill="#6B488B"/>
<path d="M284.903 91.0175C287.504 91.0175 288.99 89.4665 288.247 84.1673C286.513 71.6303 288.247 63.0999 291.467 49.3996C292.706 44.3589 289.362 38.9305 283.664 38.0258C269.049 35.8285 255.796 56.379 252.948 75.2492C252.081 80.8069 253.815 87.657 258.397 89.4665C262.485 91.1467 266.324 88.0448 269.668 84.5551C273.756 80.2899 277.967 72.2765 279.577 70.2085L279.453 77.7049C279.453 80.6776 279.453 83.2626 280.196 87.14C280.692 90.242 282.426 91.0175 284.903 91.0175ZM261.37 80.0314C260.751 80.0314 260.998 76.4124 261.37 74.7322C263.599 64.9094 267.315 56.5082 273.88 50.3043C276.481 47.8486 279.206 46.6854 282.178 46.6854C282.921 46.6854 283.541 47.3316 282.921 47.9779C277.719 53.4063 265.21 80.0314 261.37 80.0314Z" fill="#6B488B"/>
<path d="M299.719 137.288C304.301 137.288 308.636 134.574 311.237 130.567C318.173 119.969 321.022 110.146 332.789 60.3857C335.39 48.6241 338.115 41.774 333.532 39.189C329.444 36.9918 325.233 43.9712 320.527 52.3723C319.164 54.6988 312.848 65.8141 310.742 68.916C308.512 72.2765 306.902 74.8615 304.425 77.4464C303.434 78.4804 303.93 74.8615 304.054 73.9567C305.788 61.4197 309.256 53.6648 312.104 42.5494C312.724 40.223 311.609 37.8965 309.627 37.121C307.645 36.3455 305.664 37.5088 304.425 39.706C303.93 40.4815 299.471 55.862 298.108 61.0319C295.631 70.5963 293.03 85.072 300.214 87.9155C304.301 89.4665 307.893 86.4938 311.114 82.7456C313.591 80.0314 315.82 76.8002 318.421 72.4057C319.907 69.8208 321.518 67.4943 323.004 65.0386C321.394 72.7935 317.678 88.5617 317.059 90.5005C316.811 91.4052 316.687 91.9222 315.944 92.1807C303.063 96.5751 288.324 114.928 290.553 128.887C291.296 133.411 294.517 137.288 299.719 137.288ZM298.604 125.527C298.728 119.452 304.797 107.69 312.971 103.425C315.572 102.004 308.141 119.194 305.292 124.363C303.187 128.112 298.604 130.697 298.604 125.527Z" fill="#6B488B"/>
</svg>
