<svg width="1008" height="414" viewBox="0 0 1008 414" fill="none" xmlns="http://www.w3.org/2000/svg">
<g clip-path="url(#clip0_1105_1571)">
<path d="M53.55 287.786C63.2109 287.786 71.0139 277.316 63.5826 267.623C57.6372 259.48 56.8941 250.174 57.2658 240.869C58.0089 226.134 59.8668 210.237 61.353 191.237C61.7247 186.584 63.954 183.87 67.2981 181.544C78.8169 173.789 88.8495 164.871 97.0242 156.728C115.974 137.729 130.466 117.566 141.613 95.8521C144.214 90.8115 147.93 88.8726 153.503 88.8726C163.164 88.8726 172.825 88.485 182.115 88.485C196.978 88.485 204.781 85.7709 204.781 75.3018C204.781 62.1183 190.289 62.8938 175.426 62.8938H160.192C156.848 62.8938 156.848 61.7307 157.219 59.4042C162.049 36.1395 163.907 31.0989 159.449 19.4665C154.618 6.28325 143.099 0.467084 130.094 5.12003C112.63 11.3239 93.6801 36.1395 79.9317 59.0163C78.4455 61.7307 76.5876 63.2817 73.6149 63.2817H19.7367C8.21793 63.2817 -0.699864 67.1589 0.0432843 77.2404C0.786435 86.1585 8.58948 89.6481 17.5073 89.6481H56.151C65.4405 89.6481 63.954 89.2605 60.9816 97.4031C49.8342 126.096 41.2881 155.953 36.8292 189.299C32.3703 222.644 29.3977 253.276 38.6871 276.153C40.9164 281.582 45.3753 287.786 53.55 287.786ZM110.401 62.8938C108.543 62.8938 108.171 62.5062 108.914 60.9552C114.86 48.9351 123.406 39.2415 133.067 32.6499C134.182 31.8744 136.411 31.0989 136.411 34.5885C136.411 43.119 133.439 50.8737 130.466 59.7918C129.723 62.1183 128.237 62.8938 126.379 62.8938H110.401ZM71.0139 145.871C72.8718 137.729 84.3906 105.934 88.4781 97.4031C91.0791 91.587 94.0515 89.2605 98.5104 89.2605C110.029 88.8726 118.576 89.2605 113.002 96.24C104.827 106.709 91.0791 131.137 71.0139 145.871Z" fill="#6B488B"/>
<path d="M102.059 270.338C116.551 277.705 115.808 259.093 143.304 214.115C155.566 194.34 167.456 179.218 180.09 166.423C190.494 156.341 209.073 140.831 213.16 145.097C215.761 147.811 211.302 160.994 200.898 191.238C195.696 207.136 188.636 223.033 186.035 240.094C184.177 251.339 183.062 265.685 195.324 266.46C203.128 267.236 207.958 261.032 209.444 250.175C212.417 228.849 228.395 189.687 234.711 169.137C240.285 150.137 241.4 131.138 230.252 121.832C222.078 114.465 204.242 117.567 195.696 122.607L187.893 126.872C190.122 122.22 198.669 107.873 207.587 89.649C214.646 75.3027 220.22 59.7928 225.05 42.7321C229.138 27.9979 228.766 9.38615 215.39 3.56996C200.527 -3.40944 183.062 17.141 169.314 39.2425C143.676 81.1189 128.069 139.668 107.261 209.85C103.174 223.421 99.8299 236.992 95.371 250.563C92.77 258.706 92.77 265.685 102.059 270.338ZM160.397 122.22C164.855 81.1189 191.237 34.2019 199.783 34.2019C207.958 34.2019 185.292 99.7306 160.397 122.22Z" fill="#6B488B"/>
<path d="M328.137 271.501C336.312 271.501 340.029 266.073 340.029 255.604C340.029 238.931 343.743 222.258 348.204 205.585C354.519 182.32 363.438 159.831 372.726 135.403C377.184 124.159 380.901 112.138 370.497 107.098C365.295 104.384 358.977 105.935 354.891 110.975C348.204 119.118 333.339 146.26 319.59 171.076C303.984 198.605 280.204 239.319 269.429 239.319C264.227 239.319 280.204 178.055 288.007 157.504C290.98 148.586 301.383 126.485 300.642 118.73C299.898 107.873 287.636 103.996 281.319 110.587C272.401 119.893 259.025 161.77 252.708 185.81C244.533 218.38 236.73 254.441 256.795 266.461C269.057 273.052 281.691 266.848 293.209 255.604C299.898 249.4 305.1 240.87 312.903 230.401L318.477 223.033L317.361 233.503C315.876 246.686 314.388 259.481 318.477 265.297C321.078 269.175 324.423 271.501 328.137 271.501Z" fill="#6B488B"/>
<path d="M425.064 304.071C432.123 304.071 438.81 297.092 436.209 287.399C433.98 279.256 435.468 271.501 437.325 264.134C445.5 231.564 452.187 228.849 461.478 200.156C462.963 195.504 465.564 189.687 465.564 183.483C465.564 170.3 455.532 160.219 442.899 162.545C441.783 162.545 432.495 164.872 432.495 164.872C432.495 164.484 443.271 147.423 445.872 133.464C448.473 119.893 451.074 105.159 439.182 96.6287C433.98 93.1391 428.037 92.3636 421.347 94.3022C403.884 99.3428 384.561 126.873 378.246 150.525C373.785 166.423 373.413 181.545 383.448 192.014C397.938 207.136 410.943 200.932 435.468 191.626C436.953 190.851 437.697 192.402 437.325 193.953C437.697 192.014 418.746 238.543 416.517 245.523C411.315 262.195 406.113 283.521 413.172 295.929C416.145 300.969 420.234 304.071 425.064 304.071ZM401.655 161.77C404.628 147.035 408.342 138.117 420.603 125.322C422.091 123.771 422.091 124.158 421.719 126.097C418.002 142.383 411.315 154.403 401.655 161.77Z" fill="#6B488B"/>
<path d="M518.739 270.338C553.296 270.338 578.934 250.563 596.028 221.094C609.402 197.83 622.038 159.831 622.038 137.73C622.038 122.995 619.065 110.2 607.917 107.098C603.831 105.935 598.998 106.322 595.284 109.036C592.683 110.975 542.892 155.566 542.892 155.566C536.946 160.219 530.631 163.708 523.569 166.035C499.047 173.79 476.379 190.075 468.204 212.564C457.059 244.747 481.209 270.338 518.739 270.338ZM579.306 160.219C578.562 160.219 577.818 159.831 578.934 158.668C585.252 152.076 587.481 150.525 592.311 145.485C597.141 140.444 596.397 143.158 595.656 148.586C593.796 163.321 588.594 160.219 579.306 160.219ZM515.766 243.972C499.788 244.747 486.783 234.666 491.985 220.707C496.815 208.299 511.308 197.442 527.286 192.014C540.291 187.361 583.764 183.483 583.764 188.136C583.764 191.238 577.449 203.258 574.848 207.523C561.099 231.176 542.148 242.421 515.766 243.972Z" fill="#6B488B"/>
<path d="M712.023 268.4C721.311 268.4 725.397 260.645 723.54 248.238C721.683 234.666 722.796 220.708 723.54 209.075C723.912 202.096 726.141 196.28 729.858 190.851L749.178 162.546C777.048 121.445 797.112 85.7729 809.001 43.121C812.346 30.713 812.346 15.2033 802.686 8.61165C786.708 -1.85744 767.757 17.5298 754.38 35.7539C735.432 61.3448 731.343 78.4055 717.966 112.915C715.737 117.955 715.737 117.955 710.907 117.18C697.53 114.854 684.897 118.343 673.377 128.812C644.766 154.404 621.729 206.361 626.559 241.646C628.788 260.258 645.138 271.114 663.345 262.196C673.749 256.768 678.951 251.727 697.53 234.666C699.387 250.564 699.015 268.4 712.023 268.4ZM738.033 133.077C748.806 97.0172 767.757 48.5492 782.991 41.57C782.991 49.3247 770.73 77.2424 761.07 94.3031C752.895 108.262 741.747 127.261 739.518 130.751L738.033 133.077ZM652.197 237.768C649.227 236.605 650.34 224.973 652.197 217.993C657.03 197.443 665.202 179.219 676.35 163.322C681.552 155.955 688.242 148.2 697.53 143.934C703.476 141.22 707.19 148.587 705.705 160.22C703.476 176.505 703.848 185.811 693.072 198.219C670.776 224.973 656.286 240.095 652.197 237.768Z" fill="#6B488B"/>
<path d="M854.709 273.051C862.512 273.051 866.97 268.398 864.741 252.5C859.539 214.889 864.741 189.298 874.401 148.197C878.118 133.075 868.086 116.79 850.992 114.076C807.147 107.484 767.388 169.136 758.844 225.746C756.243 242.419 761.445 262.97 775.191 268.398C787.455 273.439 798.972 264.133 809.004 253.664C821.268 240.868 833.901 216.828 838.731 210.624L838.359 233.113C838.359 242.031 838.359 249.786 840.588 261.419C842.076 270.725 847.278 273.051 854.709 273.051ZM784.11 240.093C782.253 240.093 782.994 229.236 784.11 224.195C790.797 194.727 801.945 169.523 821.64 150.911C829.443 143.544 837.618 140.055 846.534 140.055C848.763 140.055 850.623 141.993 848.763 143.932C833.157 160.217 795.63 240.093 784.11 240.093Z" fill="#6B488B"/>
<path d="M899.157 411.865C912.903 411.865 925.908 403.723 933.711 391.702C954.519 359.908 963.066 330.439 998.367 181.158C1006.17 145.873 1014.35 125.323 1000.6 117.568C988.332 110.976 975.699 131.915 961.581 157.118C957.492 164.097 938.544 197.443 932.226 206.749C925.536 216.83 920.706 224.585 913.275 232.34C910.302 235.442 911.79 224.585 912.162 221.871C917.364 184.26 927.768 160.995 936.312 127.649C938.172 120.67 934.827 113.69 928.881 111.364C922.935 109.037 916.992 112.527 913.275 119.119C911.79 121.445 898.413 167.587 894.324 183.097C886.893 211.79 879.09 255.217 900.642 263.747C912.903 268.4 923.679 259.482 933.342 248.238C940.773 240.095 947.46 230.402 955.263 217.218C959.721 209.463 964.554 202.484 969.012 195.117C964.182 218.381 953.034 265.686 951.177 271.502C950.433 274.217 950.061 275.768 947.832 276.543C909.189 289.726 864.972 344.785 871.659 386.662C873.888 400.234 883.551 411.865 899.157 411.865ZM895.812 376.582C896.184 358.357 914.391 323.071 938.913 310.276C946.716 306.013 924.423 357.583 915.876 373.09C909.561 384.337 895.812 392.092 895.812 376.582Z" fill="#6B488B"/>
</g>
<defs>
<clipPath id="clip0_1105_1571">
<rect width="1008" height="414" fill="white"/>
</clipPath>
</defs>
</svg>
