<svg width="296" height="138" viewBox="0 0 296 138" fill="none" xmlns="http://www.w3.org/2000/svg">
<path d="M2.44674 137.115C0.81558 137.115 0 136.407 0 134.992V133.577C0.148287 133.105 0.222431 132.575 0.222431 131.985C0.222431 131.513 1.26044 130.924 3.33646 130.216C10.4543 128.447 15.2736 126.501 17.7945 124.379C21.9465 120.723 24.0225 114.06 24.0225 104.39C24.0225 96.6069 23.6518 81.5121 22.9104 59.1059C22.0207 39.412 21.5758 24.3763 21.5758 13.9987V13.2911C21.1309 13.2911 20.3895 13.2321 19.3515 13.1142C18.4618 12.9963 17.4238 12.9373 16.2375 12.9373C13.5683 12.7015 11.4181 12.4066 9.78696 12.0529C7.56265 11.5811 6.00564 10.9915 5.11591 10.2839C4.81934 9.81224 4.67105 9.34053 4.67105 8.86882C4.67105 7.80747 5.41249 6.86405 6.89536 6.03856C8.52652 5.21307 10.1577 4.80032 11.7888 4.80032C19.2032 4.80032 27.6556 5.21307 37.146 6.03856C46.6364 6.86405 51.3816 7.80747 51.3816 8.86882C51.3816 10.0481 50.7884 11.0505 49.6021 11.876C48.5641 12.5835 47.1554 12.9373 45.3759 12.9373H34.0319C34.0319 19.1875 34.4027 31.6288 35.1441 50.2614C35.8855 64.0589 36.2563 76.4413 36.2563 87.4085V106.336C36.2563 110.463 35.8855 113.942 35.1441 116.772C34.1061 121.136 32.0301 124.909 28.916 128.093C25.6537 131.749 20.7602 134.344 14.2356 135.877C10.9733 136.702 7.04365 137.115 2.44674 137.115Z" fill="#B83A48"/>
<path d="M94.2899 123.141C90.731 123.141 87.5428 122.492 84.7253 121.195C81.9079 120.015 79.6094 118.247 77.83 115.888C74.2711 110.935 71.9726 105.333 70.9346 99.0833C69.8966 93.6587 69.3776 87.1727 69.3776 79.6253C68.9327 66.8891 68.7103 51.3227 68.7103 32.926L68.4879 19.3054C68.3396 18.5978 68.2655 17.4186 68.2655 15.7676C67.9689 11.2863 67.8206 8.574 67.8206 7.63058C69.1552 5.1541 70.7122 3.91586 72.4916 3.91586C74.2711 3.91586 75.8281 4.97721 77.1627 7.09991C78.6456 9.2226 79.387 11.5222 79.387 13.9987V62.1131C79.387 66.8302 79.906 73.0803 80.944 80.8635C81.982 90.5336 82.501 96.7837 82.501 99.614C82.501 108.341 87.1721 112.704 96.5142 112.704C107.191 112.704 112.529 80.9815 112.529 17.5365V6.03856C112.381 5.68478 112.307 5.21307 112.307 4.62343C112.307 3.2083 112.678 2.20591 113.419 1.61628C114.309 0.908713 115.94 0.554932 118.312 0.554932C120.24 0.554932 121.723 1.02664 122.761 1.97006C123.947 2.79555 124.689 3.79793 124.985 4.97721C125.134 5.68478 125.208 7.04094 125.208 9.0457C125.208 10.9325 124.985 13.9397 124.54 18.0672C123.947 21.4871 123.651 24.4352 123.651 26.9117C123.651 29.624 123.502 32.0416 123.206 34.1643L122.761 41.5937V43.0088C122.909 43.4805 122.983 44.0112 122.983 44.6008C122.983 96.9606 113.419 123.141 94.2899 123.141Z" fill="#B83A48"/>
<path d="M211.584 121.018C209.805 121.018 208.47 120.664 207.58 119.956C206.691 119.131 206.023 117.775 205.578 115.888L204.244 112.527V111.643C204.244 107.751 199.128 94.4842 188.896 71.8421C178.812 49.2 170.879 32.4543 165.096 21.605V110.581L165.986 111.819C166.134 112.055 166.43 112.468 166.875 113.058C167.32 113.647 167.543 114.237 167.543 114.827C167.543 116.36 166.875 117.657 165.541 118.718C164.206 119.78 162.575 120.31 160.647 120.31C155.902 120.31 153.53 116.713 153.53 109.52L153.307 79.2715C153.159 70.1911 153.085 60.0493 153.085 48.8462C153.085 45.0725 153.307 39.5889 153.752 32.3953C154.197 24.9659 154.419 19.4823 154.419 15.9445C154.419 10.4019 157.088 6.03856 162.427 2.85452V3.91586C163.316 3.68001 163.91 3.56209 164.206 3.56209C167.617 3.56209 171.917 8.27918 177.107 17.7134C181.259 25.2607 184.966 33.2208 188.229 41.5937C191.639 49.9665 196.088 61.8772 201.575 77.3257L203.799 83.6938C207.21 93.2459 209.805 100.086 211.584 104.213C214.55 78.8588 216.033 48.9052 216.033 14.3524V12.0529C215.884 11.3453 215.81 10.5788 215.81 9.75327C215.81 6.21545 217.59 4.44654 221.149 4.44654C223.225 4.44654 224.782 5.09514 225.82 6.39234C227.006 7.68955 227.599 9.34053 227.599 11.3453V24.6121C227.302 42.773 226.413 62.4669 224.93 83.6938C223.447 104.921 221.668 116.89 219.591 119.603C215.291 120.546 212.622 121.018 211.584 121.018Z" fill="#B83A48"/>
<path d="M267.529 122.787C265.601 122.787 263.822 122.256 262.191 121.195C260.708 120.133 259.892 118.836 259.744 117.303V109.166C259.595 108.105 259.521 106.867 259.521 105.451C259.521 102.975 259.299 99.2013 258.854 94.1304L258.409 82.8093C258.409 77.0309 258.632 68.4222 259.076 56.9832C259.67 46.7235 259.966 38.1148 259.966 31.1571C259.966 29.5061 259.744 27.0296 259.299 23.7277C258.854 20.3078 258.632 17.8313 258.632 16.2982C258.632 7.9254 261.746 3.73897 267.974 3.73897C272.867 3.73897 278.502 4.5055 284.878 6.03856C291.403 7.57162 294.665 9.39949 294.665 11.5222C294.665 12.7015 293.998 13.8218 292.664 14.8831C291.477 15.8265 289.994 16.5931 288.215 17.1827C281.987 15.4138 276.352 14.2345 271.31 13.6449C271.458 15.4138 271.533 17.9492 271.533 21.2512C271.533 25.9683 271.458 30.2137 271.31 33.9874C270.865 39.6479 270.643 43.8933 270.643 46.7235L271.31 49.5538L274.869 49.3769C276.055 49.259 277.538 49.2 279.318 49.2C286.435 49.2 289.994 50.851 289.994 54.153C289.994 55.4502 289.327 56.5705 287.993 57.5139C286.658 58.3394 284.953 58.7521 282.877 58.7521C280.207 58.7521 278.131 58.6342 276.649 58.3984H271.088C271.384 61.4645 271.533 65.9457 271.533 71.8421C271.533 77.7385 271.458 83.0452 271.31 87.7623C270.865 94.9559 270.643 100.322 270.643 103.859C270.643 110.463 270.791 113.765 271.088 113.765L278.428 113.588C280.949 113.47 283.989 113.412 287.548 113.412C293.183 113.412 296 114.827 296 117.657C296 119.308 295.036 120.546 293.108 121.372C291.329 122.315 289.105 122.787 286.435 122.787H267.529Z" fill="#B83A48"/>
</svg>
