<svg width="888" height="414" viewBox="0 0 888 414" fill="none" xmlns="http://www.w3.org/2000/svg">
<g clip-path="url(#clip0_1105_1705)">
<path d="M7.34022 411.346C2.44674 411.346 0 409.222 0 404.977V400.732C0.444861 399.316 0.667293 397.726 0.667293 395.956C0.667293 394.54 3.78132 392.773 10.0094 390.649C31.3629 385.342 45.8208 379.504 53.3835 373.138C65.8395 362.17 72.0675 342.181 72.0675 313.171C72.0675 289.822 70.9554 244.538 68.7312 177.319C66.0621 118.237 64.7274 73.1303 64.7274 41.9975V39.8747C63.3927 39.8747 61.1685 39.6977 58.0545 39.344C55.3854 38.9903 52.2714 38.8133 48.7125 38.8133C40.7049 38.1059 34.2543 37.2212 29.3609 36.1601C22.688 34.7447 18.0169 32.9759 15.3477 30.8531C14.458 29.4381 14.0132 28.023 14.0132 26.6078C14.0132 23.4238 16.2375 20.5935 20.6861 18.1171C25.5796 15.6406 30.4731 14.4023 35.3664 14.4023C57.6096 14.4023 82.9668 15.6406 111.438 18.1171C139.909 20.5935 154.145 23.4238 154.145 26.6078C154.145 30.1457 152.365 33.1529 148.806 35.6294C145.692 37.7519 141.466 38.8133 136.128 38.8133H102.096C102.096 57.5639 103.208 94.8878 105.432 150.786C107.657 192.178 108.769 229.325 108.769 262.227V319.009C108.769 331.39 107.657 341.827 105.432 350.317C102.318 363.409 96.0903 374.728 86.748 384.28C76.9611 395.248 62.2806 403.033 42.7068 407.632C32.9199 410.107 21.131 411.346 7.34022 411.346Z" fill="#B83A48"/>
<path d="M282.87 369.422C272.194 369.422 262.629 367.475 254.177 363.584C245.724 360.044 238.829 354.74 233.491 347.663C222.814 332.804 215.918 315.998 212.804 297.249C209.69 280.975 208.133 261.517 208.133 238.875C206.799 200.667 206.131 153.967 206.131 98.7773L205.464 57.9155C205.019 55.7927 204.797 52.2551 204.797 47.3021C203.907 33.8582 203.462 25.7213 203.462 22.891C207.466 15.4616 212.137 11.7468 217.475 11.7468C222.814 11.7468 227.485 14.9309 231.489 21.299C235.937 27.6671 238.162 34.5659 238.162 41.9954V186.339C238.162 200.49 239.719 219.24 242.833 242.59C245.947 271.6 247.504 290.35 247.504 298.841C247.504 325.022 261.517 338.111 289.543 338.111C321.574 338.111 337.588 242.944 337.588 52.6088V18.1149C337.144 17.0536 336.922 15.6385 336.922 13.8696C336.922 9.62417 338.035 6.617 340.258 4.84811C342.928 2.72541 347.821 1.66406 354.937 1.66406C360.721 1.66406 365.17 3.07919 368.284 5.90945C371.842 8.38592 374.068 11.3931 374.956 14.9309C375.403 17.0536 375.625 21.1221 375.625 27.1364C375.625 32.7968 374.956 41.8184 373.621 54.2009C371.842 64.4606 370.954 73.3049 370.954 80.7344C370.954 88.8713 370.507 96.1241 369.619 102.492L368.284 124.78V129.026C368.728 130.441 368.95 132.033 368.95 133.802C368.95 290.881 340.258 369.422 282.87 369.422Z" fill="#B83A48"/>
<path d="M634.752 363.054C629.415 363.054 625.41 361.992 622.74 359.868C620.073 357.393 618.069 353.325 616.734 347.664L612.732 337.581V334.929C612.732 323.253 597.384 283.453 566.688 215.526C536.436 147.6 512.637 97.3628 495.288 64.8149V331.743L497.958 335.457C498.402 336.165 499.29 337.404 500.625 339.174C501.96 340.941 502.629 342.711 502.629 344.481C502.629 349.08 500.625 352.971 496.623 356.154C492.618 359.34 487.725 360.93 481.941 360.93C467.706 360.93 460.59 350.139 460.59 328.56L459.921 237.814C459.477 210.573 459.255 180.148 459.255 146.539C459.255 135.217 459.921 118.767 461.256 97.1858C462.591 74.8976 463.257 58.4468 463.257 47.8334C463.257 31.2056 471.264 18.1156 487.281 8.56348V11.7475C489.948 11.0399 491.73 10.6862 492.618 10.6862C502.851 10.6862 515.751 24.8375 531.321 53.1401C543.777 75.782 554.898 99.6623 564.687 124.781C574.917 149.899 588.264 185.632 604.725 231.977L611.397 251.081C621.63 279.738 629.415 300.258 634.752 312.639C643.65 236.576 648.099 146.716 648.099 43.0571V36.1586C647.652 34.0358 647.43 31.7363 647.43 29.2597C647.43 18.6463 652.77 13.3395 663.447 13.3395C669.675 13.3395 674.346 15.2853 677.46 19.1769C681.018 23.0686 682.797 28.0215 682.797 34.0358V73.8362C681.906 128.319 679.239 187.401 674.79 251.081C670.341 314.763 665.004 350.67 658.773 358.809C645.873 361.638 637.866 363.054 634.752 363.054Z" fill="#B83A48"/>
<path d="M802.588 368.362C796.804 368.362 791.467 366.769 786.574 363.586C782.125 360.4 779.677 356.509 779.233 351.91V327.499C778.786 324.316 778.564 320.602 778.564 316.354C778.564 308.926 777.898 297.605 776.563 282.392L775.228 248.429C775.228 231.094 775.897 205.267 777.229 170.95C779.011 140.171 779.899 114.345 779.899 93.4722C779.899 88.5192 779.233 81.0897 777.898 71.184C776.563 60.9243 775.897 53.4948 775.897 48.8955C775.897 23.7771 785.239 11.2178 803.923 11.2178C818.602 11.2178 835.507 13.5174 854.635 18.1165C874.21 22.7157 883.996 28.1993 883.996 34.5675C883.996 38.1054 881.995 41.4663 877.993 44.6502C874.432 47.4804 869.983 49.7802 864.646 51.549C845.962 46.2423 829.057 42.7044 813.931 40.9356C814.375 46.2423 814.6 53.8485 814.6 63.7545C814.6 77.9058 814.375 90.642 813.931 101.963C812.596 118.945 811.93 131.681 811.93 140.171L813.931 148.662L824.608 148.132C828.166 147.778 832.615 147.601 837.955 147.601C859.306 147.601 869.983 152.554 869.983 162.46C869.983 166.351 867.982 169.712 863.98 172.543C859.975 175.019 854.86 176.257 848.632 176.257C840.622 176.257 834.394 175.903 829.948 175.196H813.265C814.153 184.394 814.6 197.838 814.6 215.527C814.6 233.216 814.375 249.136 813.931 263.288C812.596 284.869 811.93 300.967 811.93 311.578C811.93 331.39 812.374 341.296 813.265 341.296L835.285 340.765C842.848 340.411 851.968 340.237 862.645 340.237C879.55 340.237 888.001 344.482 888.001 352.972C888.001 357.925 885.109 361.639 879.325 364.117C873.988 366.946 867.316 368.362 859.306 368.362H802.588Z" fill="#B83A48"/>
</g>
<defs>
<clipPath id="clip0_1105_1705">
<rect width="888" height="414" fill="white"/>
</clipPath>
</defs>
</svg>
