<svg width="1008" height="411" viewBox="0 0 1008 411" fill="none" xmlns="http://www.w3.org/2000/svg">
<path d="M204.812 275.299C218.35 275.299 231.887 267.087 245.862 255.354C258.963 244.405 283.855 218.204 303.072 196.695C310.059 188.874 308.31 177.924 300.45 174.405C294.337 171.276 287.349 173.231 280.362 180.661C276.868 184.963 236.255 226.807 231.014 231.5C227.084 235.019 216.166 245.578 214.419 243.623C213.546 242.449 220.97 215.857 222.28 212.337C225.774 202.17 238.438 165.41 240.622 158.371C245.425 142.337 251.976 125.521 237.128 116.136C225.337 107.924 207.869 116.136 192.584 125.913C182.54 132.561 153.281 160.717 152.407 160.717C151.097 160.717 153.281 154.851 153.717 152.896C157.648 138.036 156.774 125.913 146.293 120.438C123.584 109.097 86.9013 139.991 58.5153 170.103C64.1925 155.633 62.8824 158.371 72.0531 136.862C75.5469 128.259 72.0531 120.438 64.1925 118.091C47.5977 112.616 43.6674 129.041 30.5661 160.717C20.5219 184.572 10.4776 210.773 2.18021 237.366C-1.31344 249.489 -1.75014 258.483 9.6042 263.176C21.3953 267.869 28.8193 257.701 37.5534 244.014C48.0342 227.98 59.8254 211.947 72.4899 196.695C85.1544 181.443 116.597 150.941 123.584 150.941C127.515 150.941 116.161 176.36 111.357 188.483C109.173 193.958 95.6352 232.282 91.2681 243.232C87.3378 254.181 88.6479 263.176 98.6922 266.304C104.806 268.26 110.483 266.695 114.414 262.003C125.331 249.098 140.616 216.639 166.818 186.918C176.863 175.578 192.147 162.672 207.432 148.985C212.236 144.684 216.603 141.946 213.546 149.767C209.179 161.108 206.995 166.583 201.755 183.008C188.217 224.46 185.16 234.628 183.413 248.706C181.666 263.176 189.527 275.299 204.812 275.299Z" fill="#186F81"/>
<path d="M318.534 262.784C338.187 262.784 361.767 249.097 376.179 231.499C396.705 206.08 403.692 181.052 397.14 155.242C393.648 141.554 387.534 123.565 366.573 117.308C365.262 116.917 363.951 116.135 363.078 114.962C346.92 100.492 325.521 112.225 308.052 131.387C288.402 152.895 277.047 178.705 277.047 217.421C277.047 239.711 291.895 262.784 318.534 262.784ZM320.718 236.192C310.674 237.365 306.306 229.153 306.306 220.94C306.306 191.611 326.394 136.079 346.92 136.079C359.148 136.079 370.065 159.152 370.065 177.923C370.065 202.951 344.301 233.845 320.718 236.192Z" fill="#186F81"/>
<path d="M413.196 262.002C423.24 262.002 426.735 254.571 431.103 246.75C446.388 219.375 465.165 192.392 493.989 163.062C500.103 156.805 506.652 151.33 514.077 146.247C526.74 137.252 534.6 132.168 531.108 142.727C528.924 148.593 526.305 154.85 523.683 160.325C511.893 184.962 500.976 211.554 492.24 238.538C487.875 251.834 489.183 259.264 500.976 261.219C513.204 263.175 517.134 256.527 520.191 245.968C525.432 227.197 537.222 199.822 555.999 158.37C562.986 142.727 569.1 121.61 555.126 111.833C549.45 107.922 541.59 106.749 531.546 109.095C506.217 115.353 485.253 131.777 465.603 152.504L459.051 159.152C460.797 154.068 462.981 148.984 465.165 143.9C471.279 129.04 472.152 127.085 472.152 122.783C472.152 116.917 468.222 112.615 462.546 110.66C446.388 105.576 439.401 128.258 429.354 154.85C417.564 184.962 406.209 211.945 400.533 237.756C397.476 250.661 398.349 262.002 413.196 262.002Z" fill="#186F81"/>
<path d="M660.141 265.131C671.058 265.131 675.861 257.31 673.68 244.796C671.496 231.109 672.804 217.03 673.68 205.298C674.115 198.259 676.737 192.393 681.102 186.918L703.812 158.371C736.563 116.918 760.146 80.9399 774.12 37.9229C778.05 25.409 778.05 9.76641 766.698 3.11835C747.918 -7.44039 725.646 12.1128 709.926 30.4928C687.654 56.303 682.848 73.5098 667.128 108.314C664.509 113.398 664.509 113.398 658.83 112.616C643.11 110.27 628.26 113.789 614.724 124.348C581.097 150.158 554.022 202.561 559.698 238.147C562.32 256.919 581.535 267.868 602.931 258.874C615.159 253.399 621.273 248.315 643.11 231.109C645.294 247.142 644.856 265.131 660.141 265.131ZM690.711 128.65C703.374 92.2808 725.646 43.3979 743.553 36.3587C743.553 44.18 729.141 72.3365 717.786 89.5433C708.177 103.622 695.076 122.784 692.457 126.303L690.711 128.65ZM589.83 234.237C586.338 233.064 587.649 221.332 589.83 214.293C595.509 193.566 605.115 175.186 618.216 159.153C624.33 151.723 632.193 143.901 643.11 139.6C650.097 136.862 654.465 144.292 652.716 156.024C650.097 172.449 650.532 181.834 637.869 194.348C611.667 221.332 594.636 236.583 589.83 234.237Z" fill="#186F81"/>
<path d="M827.838 269.823C837.009 269.823 842.25 265.13 839.631 249.096C833.517 211.163 839.631 185.353 850.986 143.9C855.351 128.649 843.561 112.224 823.473 109.486C771.942 102.838 725.214 165.017 715.17 222.113C712.113 238.929 718.227 259.655 734.385 265.13C748.794 270.213 762.333 260.828 774.123 250.269C788.535 237.364 803.385 213.118 809.061 206.861L808.623 229.543C808.623 238.537 808.623 246.359 811.245 258.09C812.991 267.476 819.105 269.823 827.838 269.823ZM744.864 236.582C742.683 236.582 743.556 225.632 744.864 220.548C752.727 190.827 765.828 165.408 788.973 146.637C798.144 139.207 807.75 135.688 818.232 135.688C820.851 135.688 823.035 137.643 820.851 139.598C802.509 156.023 758.403 236.582 744.864 236.582Z" fill="#186F81"/>
<path d="M880.077 409.824C896.235 409.824 911.52 401.613 920.691 389.49C945.147 357.423 955.191 327.702 996.678 177.141C1005.85 141.555 1015.45 120.828 999.297 113.007C984.885 106.359 970.038 127.476 953.442 152.896C948.639 159.935 926.367 193.566 918.945 202.952C911.082 213.119 905.406 220.941 896.673 228.762C893.178 231.89 894.924 220.94 895.362 218.203C901.476 180.27 913.704 156.806 923.748 123.175C925.932 116.135 922.002 109.096 915.012 106.75C908.025 104.404 901.038 107.923 896.673 114.571C894.924 116.918 879.204 163.454 874.401 179.097C865.665 208.035 856.494 251.835 881.823 260.438C896.235 265.131 908.898 256.136 920.253 244.796C928.989 236.583 936.849 226.807 946.02 213.51C951.261 205.689 956.937 198.65 962.178 191.22C956.499 214.684 943.398 262.393 941.217 268.259C940.341 270.997 939.906 272.561 937.284 273.343C891.867 286.639 839.901 342.171 847.761 384.405C850.38 398.091 861.735 409.824 880.077 409.824ZM876.147 374.238C876.582 355.857 897.981 320.271 926.805 307.365C935.976 303.063 909.774 355.074 899.73 370.719C892.305 382.059 876.147 389.88 876.147 374.238Z" fill="#186F81"/>
</svg>
