<svg width="336" height="137" viewBox="0 0 336 137" fill="none" xmlns="http://www.w3.org/2000/svg">
<path d="M68.2706 91.7661C72.7832 91.7661 77.2958 89.0287 81.954 85.118C86.3211 81.4681 94.6185 72.7344 101.024 65.5649C103.353 62.9578 102.77 59.3078 100.15 58.1347C98.1122 57.0918 95.7831 57.7436 93.454 60.2203C92.2894 61.6542 78.7515 75.6022 77.0047 77.1664C75.6946 78.3396 72.0554 81.8592 71.4731 81.2074C71.182 80.8163 73.6566 71.9522 74.0933 70.779C75.2579 67.3898 79.4794 55.1365 80.2072 52.7901C81.8085 47.4456 83.992 41.8403 79.0427 38.7118C75.1123 35.9744 69.2896 38.7118 64.1947 41.9707C60.8466 44.1867 51.0935 53.5722 50.8023 53.5722C50.3656 53.5722 51.0935 51.6169 51.2391 50.9652C52.5492 46.0117 52.258 41.9707 48.7644 40.1457C41.1948 36.3654 28.9671 46.6635 19.5051 56.7008C21.3975 51.8776 20.9608 52.7901 24.0177 45.6206C25.1823 42.7528 24.0177 40.1457 21.3975 39.3636C15.8659 37.5386 14.5558 43.0135 10.1887 53.5722C6.84062 61.5239 3.49254 70.2576 0.726735 79.1217C-0.437814 83.1627 -0.583382 86.1609 3.2014 87.7251C7.13176 89.2894 9.60642 85.9002 12.5178 81.3378C16.0114 75.9932 19.9418 70.6487 24.1633 65.5649C28.3848 60.481 38.8657 50.3134 41.1948 50.3134C42.5049 50.3134 38.7202 58.7864 37.1189 62.8274C36.3911 64.6524 31.8784 77.4271 30.4227 81.0771C29.1126 84.727 29.5493 87.7251 32.8974 88.768C34.9354 89.4197 36.8278 88.8983 38.1379 87.3341C41.7771 83.0324 46.872 72.2129 55.6061 62.306C58.9542 58.5257 64.0491 54.224 69.144 49.6616C70.7453 48.2277 72.2009 47.3152 71.182 49.9223C69.7263 53.7026 68.9984 55.5276 67.2516 61.0025C62.739 74.82 61.72 78.2093 61.1377 82.902C60.5554 87.7251 63.1757 91.7661 68.2706 91.7661Z" fill="#186F81"/>
<path d="M106.178 87.5948C112.729 87.5948 120.589 83.0324 125.393 77.1664C132.235 68.6934 134.564 60.3507 132.38 51.7473C131.216 47.1849 129.178 41.1886 122.191 39.1029C121.754 38.9725 121.317 38.7118 121.026 38.3208C115.64 33.4976 108.507 37.4083 102.684 43.7957C96.1339 50.9652 92.3491 59.5686 92.3491 72.4737C92.3491 79.9039 97.2984 87.5948 106.178 87.5948ZM106.906 78.7307C103.558 79.1217 102.102 76.3843 102.102 73.6469C102.102 63.8703 108.798 45.3599 115.64 45.3599C119.716 45.3599 123.355 53.0508 123.355 59.3078C123.355 67.6505 114.767 77.9485 106.906 78.7307Z" fill="#186F81"/>
<path d="M137.732 87.3341C141.08 87.3341 142.245 84.8573 143.701 82.2502C148.796 73.1254 155.055 64.131 164.663 54.3544C166.701 52.2687 168.884 50.4437 171.359 48.7491C175.58 45.751 178.2 44.0564 177.036 47.5759C176.308 49.5313 175.435 51.6169 174.561 53.4419C170.631 61.6542 166.992 70.5183 164.08 79.5128C162.625 83.9449 163.061 86.4216 166.992 87.0734C171.068 87.7251 172.378 85.5091 173.397 81.9895C175.144 75.7325 179.074 66.6077 185.333 52.7901C187.662 47.5759 189.7 40.5368 185.042 37.2779C183.15 35.9744 180.53 35.5833 177.182 36.3654C168.739 38.4511 161.751 43.926 155.201 50.8348L153.017 53.0508C153.599 51.3562 154.327 49.6616 155.055 47.967C157.093 43.0135 157.384 42.3618 157.384 40.9279C157.384 38.9725 156.074 37.5386 154.182 36.8869C148.796 35.1923 146.467 42.7528 143.118 51.6169C139.188 61.6542 135.403 70.6487 133.511 79.2521C132.492 83.5538 132.783 87.3341 137.732 87.3341Z" fill="#186F81"/>
<path d="M220.047 88.3769C223.686 88.3769 225.287 85.7698 224.56 81.5985C223.832 77.0361 224.268 72.3433 224.56 68.4327C224.705 66.0863 225.579 64.131 227.034 62.306L234.604 52.7901C245.521 38.9725 253.382 26.9799 258.04 12.6409C259.35 8.46957 259.35 3.25539 255.566 1.03937C249.306 -2.48021 241.882 4.03751 236.642 10.1642C229.218 18.7676 227.616 24.5032 222.376 36.1047C221.503 37.7993 221.503 37.7993 219.61 37.5386C214.37 36.7565 209.42 37.9297 204.908 41.4493C193.699 50.0527 184.674 67.5202 186.566 79.3824C187.44 85.6395 193.845 89.2894 200.977 86.2912C205.053 84.4663 207.091 82.7717 214.37 77.0361C215.098 82.3806 214.952 88.3769 220.047 88.3769ZM230.237 42.8832C234.458 30.7602 241.882 14.4659 247.851 12.1195C247.851 14.7266 243.047 24.1121 239.262 29.8477C236.059 34.5405 231.692 40.9279 230.819 42.101L230.237 42.8832ZM196.61 78.0789C195.446 77.6878 195.883 73.7772 196.61 71.4308C198.503 64.522 201.705 58.3954 206.072 53.0508C208.11 50.5741 210.731 47.967 214.37 46.5331C216.699 45.6206 218.155 48.0974 217.572 52.008C216.699 57.4829 216.844 60.6114 212.623 64.7827C203.889 73.7772 198.212 78.861 196.61 78.0789Z" fill="#186F81"/>
<path d="M275.946 89.9412C279.003 89.9412 280.75 88.3769 279.877 83.0324C277.839 70.388 279.877 61.7846 283.662 47.967C285.117 42.8832 281.187 37.4083 274.491 36.4958C257.314 34.2798 241.738 55.0061 238.39 74.0379C237.371 79.6432 239.409 86.5519 244.795 88.3769C249.598 90.0715 254.111 86.943 258.041 83.4234C262.845 79.1217 267.795 71.0398 269.687 68.9541L269.541 76.5146C269.541 79.5128 269.541 82.1199 270.415 86.0305C270.997 89.159 273.035 89.9412 275.946 89.9412ZM248.288 78.861C247.561 78.861 247.852 75.2111 248.288 73.5165C250.909 63.6095 255.276 55.1365 262.991 48.8795C266.048 46.4027 269.25 45.2296 272.744 45.2296C273.617 45.2296 274.345 45.8813 273.617 46.5331C267.503 52.008 252.801 78.861 248.288 78.861Z" fill="#186F81"/>
<path d="M293.359 136.608C298.745 136.608 303.84 133.871 306.897 129.83C315.049 119.141 318.397 109.234 332.226 59.0471C335.283 47.1849 338.485 40.2761 333.099 37.669C328.295 35.453 323.346 42.4921 317.814 50.9652C316.213 53.3115 308.789 64.522 306.315 67.6505C303.694 71.0398 301.802 73.6469 298.891 76.2539C297.726 77.2968 298.308 73.6468 298.454 72.7344C300.492 60.09 304.568 52.2687 307.916 41.0582C308.644 38.7118 307.334 36.3654 305.004 35.5833C302.675 34.8012 300.346 35.9744 298.891 38.1904C298.308 38.9725 293.068 54.4847 291.467 59.6989C288.555 69.3451 285.498 83.9449 293.941 86.8127C298.745 88.3769 302.966 85.3788 306.751 81.5985C309.663 78.861 312.283 75.6022 315.34 71.1701C317.087 68.563 318.979 66.2166 320.726 63.7399C318.833 71.5612 314.466 87.4644 313.739 89.4197C313.447 90.3322 313.302 90.8536 312.428 91.1144C297.289 95.5464 279.967 114.057 282.587 128.135C283.46 132.697 287.245 136.608 293.359 136.608ZM292.049 124.746C292.194 118.619 299.327 106.757 308.935 102.455C311.992 101.021 303.258 118.358 299.91 123.573C297.435 127.353 292.049 129.96 292.049 124.746Z" fill="#186F81"/>
</svg>
