<svg width="296" height="137" viewBox="0 0 296 137" fill="none" xmlns="http://www.w3.org/2000/svg">
<path d="M14.9487 135.2C13.8247 135.2 12.9255 134.397 12.2512 132.792C11.6517 131.072 11.352 129.008 11.352 126.6C11.352 122.817 11.5019 118.173 11.8016 112.669L12.0264 108.198L12.2512 99.0821C12.2512 95.069 11.9889 86.1255 11.4644 72.2516C10.9399 58.3778 10.6776 49.4343 10.6776 45.4212C10.6776 45.0772 10.6776 44.4466 10.6776 43.5293C10.7525 42.4974 10.79 40.9495 10.79 38.8856C10.8649 36.5924 10.9024 33.7832 10.9024 30.4581C10.9024 22.0879 10.5278 16.7562 9.77845 14.463C9.32886 14.463 8.35477 14.635 6.85615 14.979L3.70907 15.323C2.73497 15.323 1.87327 14.9217 1.12396 14.1191C0.374653 13.2018 0 12.0552 0 10.6793C0 9.30334 0.899168 8.09941 2.6975 7.06747C5.32008 5.69154 9.77845 4.71693 16.0726 4.14363C18.6203 3.91432 20.1563 3.79966 20.6809 3.79966C21.58 3.79966 22.4043 4.2583 23.1536 5.17558C23.9029 6.09286 24.2775 7.23945 24.2775 8.61538C24.2775 9.9913 23.9403 11.1379 23.266 12.0552C22.6665 12.8578 21.8797 13.2591 20.9056 13.2591L18.8825 13.0871C18.2831 12.9725 17.6087 12.9151 16.8594 12.9151H15.7354C16.2599 20.712 16.5222 27.7636 16.5222 34.0699L16.4098 45.0772C16.3349 48.4024 16.2974 52.1288 16.2974 56.2566C16.2974 61.7603 16.4473 68.3532 16.747 76.0354C17.1217 85.5522 17.309 92.1452 17.309 95.8143C17.309 100.171 17.4588 105.331 17.7586 111.293C18.0583 117.37 18.2081 122.53 18.2081 126.772C18.2081 132.391 17.1217 135.2 14.9487 135.2Z" fill="#186F81"/>
<path d="M55.8292 133.996C53.2815 133.996 52.0077 124.537 52.0077 105.618L52.1201 95.8143L52.2325 87.9027V85.6669C52.3074 84.7496 52.3449 83.6603 52.3449 82.3991C52.3449 82.1697 52.2325 81.8831 52.0077 81.5391C51.7829 81.1951 51.6705 80.9085 51.6705 80.6792V80.5072C51.2959 80.7365 50.6215 80.8511 49.6474 80.8511C48.6733 80.8511 47.4744 80.6218 46.0507 80.1632C45.6011 80.0485 44.4023 79.7619 42.4541 79.3032V99.0821C42.4541 102.063 42.5665 106.764 42.7912 113.185C43.016 119.492 43.1284 124.193 43.1284 127.288C43.1284 129.008 42.8287 130.499 42.2293 131.76C41.6298 133.021 40.843 133.652 39.869 133.652C38.4453 133.652 37.4337 131.531 36.8343 127.288C36.2348 122.931 35.9351 117.256 35.9351 110.261L36.1599 96.3302C36.2348 92.4318 36.2723 88.304 36.2723 83.947V78.6153C36.2723 76.7807 36.2348 75.5768 36.1599 75.0035V74.1435L36.4971 64.1681C36.4971 59.811 36.3847 53.3328 36.1599 44.7333C35.9351 36.1338 35.8227 29.6555 35.8227 25.2984C35.8227 23.9225 36.1224 22.7185 36.7219 21.6866C37.3213 20.6547 38.0706 20.1387 38.9698 20.1387C41.3676 20.1387 42.5665 23.5785 42.5665 30.4581L42.3417 51.7848C42.1918 58.2058 42.1169 65.372 42.1169 73.2836C43.2408 73.8569 45.264 74.1435 48.1863 74.1435H52.3449C52.4948 73.4556 52.5697 72.7676 52.5697 72.0797C52.5697 66.576 52.3449 58.4351 51.8953 47.6571C51.3708 37.567 51.1085 29.3688 51.1085 23.0625C51.1085 21.8013 51.4083 20.7693 52.0077 19.9667C52.6821 19.0494 53.4689 18.5908 54.368 18.5908C54.8925 18.5908 55.6419 18.8774 56.616 19.4507L57.6275 20.1387C57.6275 36.4204 58.0022 58.1485 58.7515 85.3229L59.763 128.836C59.763 130.442 59.3509 131.703 58.5267 132.62C57.7774 133.537 56.8782 133.996 55.8292 133.996Z" fill="#186F81"/>
<path d="M78.8765 133.824C72.3575 133.824 69.098 132.104 69.098 128.664C69.098 125.913 70.2595 124.537 72.5823 124.537H73.8187L74.9426 124.709C75.5421 124.709 75.9542 124.422 76.179 123.849C76.4038 123.275 76.5162 122.243 76.5162 120.753C76.5162 118.804 76.4412 115.765 76.2914 111.637C76.0666 108.885 75.8043 103.955 75.5046 96.8462C74.8302 79.3032 74.4931 66.06 74.4931 57.1165C74.4931 53.9061 74.5305 50.9822 74.6054 48.345L74.7178 39.5736C74.7178 35.7898 74.6055 32.6366 74.3807 30.1141C73.1818 30.5728 72.3201 30.8021 71.7955 30.8021C69.9972 30.8021 69.098 29.4262 69.098 26.6743C69.098 25.2984 69.66 24.0945 70.784 23.0625C71.9079 22.0306 73.3316 21.2853 75.055 20.8267C78.0523 19.9094 80.7123 19.4507 83.0351 19.4507C83.9343 19.4507 84.6836 19.9667 85.2831 20.9987C85.9574 21.9159 86.2946 23.0052 86.2946 24.2665C86.2946 25.5277 86.0324 26.617 85.5079 27.5343C85.0583 28.4516 84.4588 28.9102 83.7095 28.9102C83.2599 28.9102 82.8853 28.8529 82.5856 28.7382H81.6864C80.9371 28.7382 80.3751 29.0248 80.0005 29.5981C79.7007 30.0568 79.5509 30.9741 79.5509 32.35C79.5509 43.472 80.0005 60.2124 80.8996 82.571C81.0495 86.6988 81.3492 92.7758 81.7988 100.802C82.1734 106.076 82.3608 111.465 82.3608 116.969V123.505C82.8104 123.39 83.5597 123.333 84.6087 123.333C87.7558 123.333 89.3293 125.339 89.3293 129.352V130.384L86.5194 133.308C86.4445 133.308 86.1822 133.365 85.7326 133.48C85.358 133.48 84.6087 133.48 83.4847 133.48C81.0869 133.709 79.5509 133.824 78.8765 133.824Z" fill="#186F81"/>
<path d="M100.635 136.404C99.286 136.06 98.1246 135.315 97.1505 134.168C96.2513 133.021 95.7268 131.531 95.5769 129.696L96.8133 126.772C97.2629 126.772 97.9747 127.002 98.9488 127.46C100.073 127.804 100.934 127.976 101.534 127.976C102.883 127.976 104.082 127.059 105.131 125.225C106.255 123.39 107.079 120.982 107.603 118.001C108.577 112.497 109.064 107.567 109.064 103.21C109.064 95.6423 107.491 87.6734 104.344 79.3032L103.107 76.0354C101.684 72.2516 100.485 68.8692 99.5108 65.888C98.5367 62.9069 97.7125 59.6964 97.0381 56.2566C96.1389 51.7848 95.6894 47.3131 95.6894 42.8414C95.6894 37.7963 96.4387 32.522 97.9373 27.0183C98.6866 24.3811 99.7356 22.2599 101.084 20.6547C102.508 18.9348 104.082 18.0748 105.805 18.0748C107.154 18.0748 108.39 18.7628 109.514 20.1387C110.713 21.4 111.312 22.9479 111.312 24.7824C111.312 25.8144 111.05 26.617 110.526 27.1903C110.001 27.7636 109.364 28.0502 108.615 28.0502C107.791 28.0502 107.004 27.7063 106.255 27.0183C104.606 27.133 103.295 29.3688 102.321 33.7259C101.496 37.739 101.084 41.0641 101.084 43.7013C101.084 47.0265 101.422 50.4089 102.096 53.8487C102.77 57.1739 103.632 60.2124 104.681 62.9642L107.154 69.8438L111.088 81.1951C112.137 84.4056 112.961 88.1321 113.56 92.3745C114.235 96.6169 114.572 100.917 114.572 105.274C114.572 112.268 113.523 118.918 111.425 125.225C110.376 128.435 108.877 131.015 106.929 132.964C105.056 134.913 102.958 135.888 100.635 135.888V136.404Z" fill="#186F81"/>
<path d="M158.034 136.404C155.262 136.404 153.875 132.047 153.875 123.333C153.875 117.829 152.302 98.1648 149.155 64.3401C146.083 30.4008 144.134 11.8832 143.31 8.78736C144.284 6.03553 145.595 4.65961 147.244 4.65961C148.967 4.65961 150.578 10.6219 152.077 22.5466C153.501 35.1592 154.7 49.6063 155.674 65.888L156.46 79.8192C156.91 87.6161 157.172 91.5718 157.247 91.6865L158.371 77.2394L159.046 68.2959C160.02 55.2246 160.657 45.9945 160.956 40.6055C161.331 33.4966 161.518 28.6235 161.518 25.9864V22.7186C161.518 21.4573 161.818 20.2534 162.417 19.1068C163.017 17.9602 163.691 17.3869 164.441 17.3869C167.138 17.3869 168.487 19.1068 168.487 22.5466V25.1264C168.487 31.662 168.899 38.7136 169.723 46.2812C170.622 53.7341 171.896 62.6775 173.545 73.1116C174.594 79.1886 175.643 86.5841 176.692 95.2983C176.916 91.5145 177.628 82.3417 178.827 67.7799C180.026 54.4794 180.888 43.1853 181.412 33.8979C182.012 24.4958 182.312 15.7243 182.312 7.58344C182.312 4.94626 182.574 3.1117 183.098 2.07976C183.698 0.933162 184.784 0.359863 186.358 0.359863C187.257 0.359863 188.044 0.818501 188.718 1.73578C189.467 2.5384 189.842 3.62767 189.842 5.00358C189.842 6.26485 189.467 7.58344 188.718 8.95935C188.718 17.2149 188.306 26.9036 187.482 38.0257C186.657 49.033 185.646 59.5244 184.447 69.4998C183.248 79.2459 182.237 89.7373 181.412 100.974C180.588 112.096 180.176 121.899 180.176 130.384C180.176 132.219 179.876 133.652 179.277 134.684C178.752 135.831 177.928 136.404 176.804 136.404C175.98 136.404 175.006 134.053 173.882 129.352C172.458 122.817 170.697 109.803 168.599 90.3106L166.576 70.1878L165.565 59.0084C164.59 69.4425 163.841 77.87 163.317 84.2909C162.867 90.5972 162.417 98.1075 161.968 106.822C161.443 115.192 161.181 123.447 161.181 131.588C161.181 132.735 160.844 133.824 160.169 134.856C159.57 135.888 158.858 136.404 158.034 136.404Z" fill="#186F81"/>
<path d="M207.616 136.232C206.642 136.232 205.743 135.716 204.919 134.684C204.17 133.652 203.757 132.391 203.683 130.9V122.989C203.608 121.957 203.57 120.753 203.57 119.377C203.57 116.969 203.458 113.3 203.233 108.37L203.008 97.3622C203.008 91.7438 203.121 83.3737 203.345 72.2516C203.645 62.2762 203.795 53.9061 203.795 47.1411C203.795 45.5359 203.683 43.128 203.458 39.9175C203.233 36.5924 203.121 34.1845 203.121 32.694C203.121 24.5531 204.694 20.4827 207.841 20.4827C210.314 20.4827 213.161 21.228 216.383 22.7186C219.68 24.2091 221.329 25.9864 221.329 28.0502C221.329 29.1968 220.992 30.2861 220.317 31.318C219.718 32.2353 218.968 32.9806 218.069 33.5539C214.922 31.834 212.075 30.6874 209.527 30.1141C209.602 31.834 209.64 34.2992 209.64 37.5097C209.64 42.0961 209.602 46.2238 209.527 49.893C209.302 55.3966 209.19 59.5244 209.19 62.2762L209.527 65.0281L211.325 64.8561C211.925 64.7414 212.674 64.6841 213.573 64.6841C217.17 64.6841 218.968 66.2893 218.968 69.4998C218.968 70.7611 218.631 71.8503 217.957 72.7676C217.282 73.5702 216.421 73.9715 215.372 73.9715C214.023 73.9715 212.974 73.8569 212.225 73.6276H209.415C209.565 76.6087 209.64 80.9658 209.64 86.6988C209.64 92.4318 209.602 97.5915 209.527 102.178C209.302 109.172 209.19 114.389 209.19 117.829C209.19 124.25 209.265 127.46 209.415 127.46L213.124 127.288C214.398 127.174 215.934 127.116 217.732 127.116C220.579 127.116 222.003 128.492 222.003 131.244C222.003 132.849 221.516 134.053 220.542 134.856C219.643 135.773 218.519 136.232 217.17 136.232H207.616Z" fill="#186F81"/>
<path d="M239.557 136.232C238.583 136.232 237.684 135.716 236.86 134.684C236.11 133.652 235.698 132.391 235.623 130.9V122.989C235.548 121.957 235.511 120.753 235.511 119.377C235.511 116.969 235.398 113.3 235.174 108.37L234.949 97.3622C234.949 91.7438 235.061 83.3737 235.286 72.2516C235.586 62.2762 235.736 53.9061 235.736 47.1411C235.736 45.5359 235.623 43.128 235.398 39.9175C235.174 36.5924 235.061 34.1845 235.061 32.694C235.061 24.5531 236.635 20.4827 239.782 20.4827C242.255 20.4827 245.102 21.228 248.324 22.7186C251.621 24.2091 253.269 25.9864 253.269 28.0502C253.269 29.1968 252.932 30.2861 252.258 31.318C251.658 32.2353 250.909 32.9806 250.01 33.5539C246.863 31.834 244.015 30.6874 241.468 30.1141C241.543 31.834 241.58 34.2992 241.58 37.5097C241.58 42.0961 241.543 46.2238 241.468 49.893C241.243 55.3966 241.131 59.5244 241.131 62.2762L241.468 65.0281L243.266 64.8561C243.866 64.7414 244.615 64.6841 245.514 64.6841C249.111 64.6841 250.909 66.2893 250.909 69.4998C250.909 70.7611 250.572 71.8503 249.897 72.7676C249.223 73.5702 248.361 73.9715 247.312 73.9715C245.964 73.9715 244.915 73.8569 244.165 73.6276H241.355C241.505 76.6087 241.58 80.9658 241.58 86.6988C241.58 92.4318 241.543 97.5915 241.468 102.178C241.243 109.172 241.131 114.389 241.131 117.829C241.131 124.25 241.206 127.46 241.355 127.46L245.064 127.288C246.338 127.174 247.874 127.116 249.673 127.116C252.52 127.116 253.944 128.492 253.944 131.244C253.944 132.849 253.457 134.053 252.483 134.856C251.583 135.773 250.459 136.232 249.111 136.232H239.557Z" fill="#186F81"/>
<path d="M292.853 136.92C291.13 136.92 289.294 134.053 287.346 128.32C284.423 119.721 281.538 105.56 278.691 85.8389C277.867 80.4498 277.192 75.4621 276.668 70.8757C273.97 79.1312 272.622 89.1067 272.622 100.802V132.62C272.622 135.257 271.872 136.576 270.374 136.576C269.25 136.576 268.313 136.06 267.564 135.028C266.889 134.111 266.552 132.792 266.552 131.072V78.9593C266.552 73.9142 266.927 64.6268 267.676 51.0969C268.426 39.2869 268.8 29.9995 268.8 23.2345C269.4 21.056 270.486 19.9667 272.06 19.9667C273.034 19.9667 273.858 20.4827 274.532 21.5146C275.207 22.5466 275.544 23.8078 275.544 25.2984V25.8144C274.57 28.3369 274.083 38.7709 274.083 57.1165V63.3082L278.241 50.7529C280.789 42.6121 283.187 35.6178 285.435 29.7701C287.533 24.0371 289.069 21.1706 290.043 21.1706C291.242 21.1706 292.253 21.572 293.078 22.3746C293.977 23.1772 294.426 24.3238 294.426 25.8144L291.729 32.694C286.109 46.5678 282.962 54.594 282.288 56.7726C282.288 58.7218 282.25 60.4417 282.175 61.9323L282.063 67.092C282.063 72.0223 283.337 81.2525 285.884 94.7823C288.507 108.198 290.68 117.084 292.403 121.441L293.864 124.537C295.288 127.518 296 130.155 296 132.448C296 133.709 295.663 134.741 294.988 135.544C294.389 136.461 293.677 136.92 292.853 136.92Z" fill="#186F81"/>
</svg>
