<svg width="888" height="411" viewBox="0 0 888 411" fill="none" xmlns="http://www.w3.org/2000/svg">
<g clip-path="url(#clip0_1105_2065)">
<path d="M44.8461 405.6C41.4741 405.6 38.7765 403.191 36.7536 398.376C34.9551 393.216 34.056 387.024 34.056 379.8C34.056 368.451 34.5057 354.519 35.4048 338.007L36.0792 324.594L36.7536 297.247C36.7536 285.207 35.9667 258.377 34.3932 216.755C32.8197 175.134 32.0328 148.303 32.0328 136.264C32.0328 135.232 32.0328 133.34 32.0328 130.588C32.2575 127.493 32.37 122.849 32.37 116.657C32.5947 109.778 32.7072 101.35 32.7072 91.3747C32.7072 66.2641 31.5834 50.269 29.3354 43.3894C27.9866 43.3894 25.0643 43.9054 20.5685 44.9374L11.1272 45.9694C8.20491 45.9694 5.61981 44.7655 3.37188 42.3577C1.12396 39.6058 0 36.166 0 32.0383C0 27.9105 2.6975 24.2987 8.0925 21.2028C15.9602 17.0751 29.3354 14.1512 48.2178 12.4313C55.8609 11.7434 60.4689 11.3994 62.0427 11.3994C64.74 11.3994 67.2129 12.7753 69.4608 15.5272C71.7087 18.279 72.8325 21.7188 72.8325 25.8466C72.8325 29.9743 71.8209 33.4141 69.798 36.166C67.9995 38.5738 65.6391 39.7777 62.7168 39.7777L56.6475 39.2617C54.8493 38.9179 52.8261 38.7457 50.5782 38.7457H47.2062C48.7797 62.1364 49.5666 83.2912 49.5666 102.21L49.2294 135.232C49.0047 145.208 48.8922 156.387 48.8922 168.77C48.8922 185.281 49.3419 205.06 50.241 228.107C51.3651 256.657 51.927 276.436 51.927 287.443C51.927 300.513 52.3764 315.993 53.2758 333.879C54.1749 352.11 54.6243 367.59 54.6243 380.316C54.6243 397.173 51.3651 405.6 44.8461 405.6Z" fill="#186F81"/>
<path d="M167.486 401.988C159.843 401.988 156.022 373.611 156.022 316.854L156.359 287.443L156.696 263.708V257.001C156.921 254.249 157.033 250.981 157.033 247.197C157.033 246.509 156.696 245.649 156.022 244.617C155.347 243.585 155.01 242.726 155.01 242.038V241.522C153.886 242.21 151.863 242.553 148.941 242.553C146.019 242.553 142.422 241.865 138.151 240.49C136.802 240.146 133.206 239.286 127.361 237.91V297.246C127.361 306.189 127.698 320.292 128.372 339.555C129.047 358.476 129.384 372.579 129.384 381.864C129.384 387.024 128.485 391.497 126.687 395.28C124.888 399.063 122.528 400.956 119.606 400.956C115.335 400.956 112.3 394.593 110.502 381.864C108.703 368.793 107.804 351.768 107.804 330.783L108.478 288.991C108.703 277.295 108.816 264.912 108.816 251.841V235.846C108.816 230.342 108.703 226.73 108.478 225.011V222.431L109.49 192.504C109.49 179.433 109.153 159.998 108.478 134.2C107.804 108.401 107.467 88.9666 107.467 75.8953C107.467 71.7676 108.366 68.1556 110.164 65.0599C111.963 61.9642 114.21 60.4162 116.908 60.4162C124.101 60.4162 127.698 70.7356 127.698 91.3744L127.024 155.354C126.574 174.617 126.349 196.116 126.349 219.851C129.721 221.571 135.791 222.431 144.558 222.431H157.033C157.483 220.367 157.708 218.303 157.708 216.239C157.708 199.728 157.033 175.305 155.685 142.971C154.111 112.701 153.324 88.1065 153.324 69.1876C153.324 65.404 154.224 62.308 156.022 59.9002C158.045 57.1483 160.405 55.7725 163.103 55.7725C164.676 55.7725 166.924 56.6323 169.847 58.3522L172.881 60.4162C172.881 109.261 174.005 174.446 176.253 255.969L179.288 386.508C179.288 391.326 178.051 395.109 175.579 397.86C173.331 400.611 170.633 401.988 167.486 401.988Z" fill="#186F81"/>
<path d="M236.628 401.473C217.071 401.473 207.293 396.313 207.293 385.993C207.293 377.74 210.777 373.612 217.746 373.612H221.455L224.827 374.128C226.625 374.128 227.862 373.267 228.536 371.548C229.21 369.826 229.548 366.73 229.548 362.26C229.548 356.413 229.323 347.296 228.873 334.912C228.199 326.656 227.412 311.866 226.513 290.54C224.49 237.911 223.478 198.181 223.478 171.351C223.478 161.72 223.59 152.948 223.815 145.036L224.152 118.722C224.152 107.371 223.815 97.9112 223.141 90.3437C219.544 91.7198 216.959 92.4077 215.385 92.4077C209.991 92.4077 207.293 88.28 207.293 80.0243C207.293 75.8966 208.979 72.2849 212.351 69.1889C215.723 66.0932 219.994 63.8573 225.164 62.4815C234.156 59.7296 242.136 58.3535 249.104 58.3535C251.802 58.3535 254.05 59.9015 255.848 62.9975C257.871 65.7491 258.883 69.017 258.883 72.8009C258.883 76.5845 258.096 79.8524 256.523 82.6043C255.174 85.3562 253.375 86.732 251.127 86.732C249.779 86.732 248.655 86.5601 247.756 86.216H245.058C242.81 86.216 241.124 87.0758 240 88.7957C239.101 90.1718 238.652 92.9237 238.652 97.0514C238.652 130.417 240 180.639 242.698 247.714C243.147 260.098 244.047 278.329 245.395 302.407C246.519 318.229 247.081 334.396 247.081 350.908V370.516C248.43 370.171 250.678 370 253.825 370C263.266 370 267.987 376.018 267.987 388.057V391.153L259.557 399.925C259.332 399.925 258.546 400.096 257.197 400.441C256.073 400.441 253.825 400.441 250.453 400.441C243.26 401.128 238.652 401.473 236.628 401.473Z" fill="#186F81"/>
<path d="M301.903 409.213C297.856 408.181 294.372 405.946 291.449 402.505C288.752 399.064 287.178 394.594 286.729 389.089L290.438 380.317C291.787 380.317 293.922 381.007 296.844 382.381C300.217 383.413 302.8 383.929 304.6 383.929C308.647 383.929 312.244 381.178 315.391 375.676C318.763 370.171 321.235 362.947 322.807 354.004C325.729 337.492 327.19 322.702 327.19 309.631C327.19 286.928 322.471 263.021 313.03 237.911L309.319 228.107C305.05 216.756 301.453 206.609 298.53 197.665C295.608 188.722 293.135 179.09 291.112 168.771C288.415 155.356 287.066 141.94 287.066 128.525C287.066 113.39 289.314 97.5672 293.81 81.0561C296.058 73.1445 299.205 66.7809 303.25 61.9653C307.522 56.8056 312.244 54.2256 317.413 54.2256C321.46 54.2256 325.168 56.2896 328.54 60.4173C332.137 64.2012 333.934 68.8449 333.934 74.3484C333.934 77.4444 333.148 79.8522 331.576 81.5721C330.001 83.292 328.09 84.1518 325.843 84.1518C323.371 84.1518 321.01 83.1201 318.763 81.0561C313.816 81.4002 309.883 88.1076 306.961 101.179C304.486 113.218 303.25 123.193 303.25 131.105C303.25 141.081 304.264 151.228 306.286 161.547C308.308 171.523 310.894 180.638 314.041 188.894L321.46 209.533L333.262 243.586C336.409 253.218 338.881 264.397 340.678 277.125C342.703 289.852 343.714 302.752 343.714 315.823C343.714 336.805 340.567 356.755 334.273 375.676C331.126 385.306 326.629 393.046 320.785 398.893C315.166 404.74 308.872 407.665 301.903 407.665V409.213Z" fill="#186F81"/>
<path d="M474.104 409.211C465.788 409.211 461.627 396.14 461.627 369.998C461.627 353.486 456.908 294.493 447.467 193.019C438.251 91.2009 432.404 35.6481 429.932 26.3606C432.854 18.1051 436.787 13.9774 441.734 13.9774C446.903 13.9774 451.736 31.8642 456.233 67.6383C460.505 105.476 464.102 148.817 467.024 197.663L469.382 239.456C470.732 262.847 471.518 274.714 471.743 275.058L475.115 231.717L477.14 204.886C480.062 165.672 481.973 137.982 482.87 121.815C483.995 100.488 484.556 85.869 484.556 77.9577V68.1543C484.556 64.3704 485.456 60.7587 487.253 57.3189C489.053 53.8791 491.075 52.1592 493.325 52.1592C501.416 52.1592 505.463 57.3189 505.463 67.6383V75.3777C505.463 94.9845 506.699 116.139 509.171 138.842C511.868 161.201 515.69 188.031 520.637 219.333C523.784 237.564 526.931 259.751 530.078 285.893C530.75 274.542 532.886 247.024 536.483 203.338C540.08 163.437 542.666 129.554 544.238 101.692C546.038 73.4859 546.938 47.1714 546.938 22.7489C546.938 14.8373 547.724 9.33364 549.296 6.23782C551.096 2.79802 554.354 1.07812 559.076 1.07812C561.773 1.07812 564.134 2.45404 566.156 5.20588C568.403 7.61374 569.528 10.8815 569.528 15.0093C569.528 18.7931 568.403 22.7489 566.156 26.8766C566.156 51.6432 564.92 80.7093 562.448 114.076C559.973 147.098 556.94 178.572 553.343 208.498C549.746 237.736 546.713 269.21 544.238 302.921C541.766 336.287 540.53 365.696 540.53 391.151C540.53 396.656 539.63 400.955 537.833 404.051C536.258 407.492 533.786 409.211 530.414 409.211C527.942 409.211 525.02 402.158 521.648 388.055C517.376 368.45 512.093 329.408 505.799 270.93L499.73 210.562L496.697 177.024C493.772 208.326 491.525 233.609 489.953 252.871C488.603 271.79 487.253 294.321 485.906 320.465C484.331 345.575 483.545 370.34 483.545 394.763C483.545 398.204 482.534 401.471 480.509 404.567C478.712 407.663 476.576 409.211 474.104 409.211Z" fill="#186F81"/>
<path d="M622.847 408.695C619.925 408.695 617.228 407.147 614.756 404.051C612.509 400.955 611.27 397.172 611.048 392.699V368.966C610.823 365.87 610.709 362.258 610.709 358.13C610.709 350.906 610.373 339.899 609.698 325.109L609.023 292.086C609.023 275.231 609.362 250.12 610.034 216.754C610.934 186.828 611.384 161.717 611.384 141.422C611.384 136.607 611.048 129.383 610.373 119.752C609.698 109.776 609.362 102.553 609.362 98.0812C609.362 73.6585 614.081 61.4473 623.522 61.4473C630.941 61.4473 639.482 63.6832 649.148 68.155C659.039 72.6265 663.986 77.9584 663.986 84.1498C663.986 87.5896 662.975 90.8575 660.95 93.9532C659.153 96.7051 656.903 98.941 654.206 100.661C644.765 95.5012 636.224 92.0614 628.58 90.3415C628.805 95.5012 628.919 102.897 628.919 112.528C628.919 126.287 628.805 138.671 628.58 149.678C627.905 166.189 627.569 178.572 627.569 186.828L628.58 195.083L633.974 194.567C635.774 194.223 638.021 194.051 640.718 194.051C651.509 194.051 656.903 198.867 656.903 208.499C656.903 212.282 655.892 215.55 653.87 218.302C651.845 220.71 649.262 221.914 646.115 221.914C642.068 221.914 638.921 221.57 636.674 220.882H628.244C628.694 229.825 628.919 242.897 628.919 260.096C628.919 277.295 628.805 292.774 628.58 306.533C627.905 327.515 627.569 343.166 627.569 353.486C627.569 372.749 627.794 382.379 628.244 382.379L639.371 381.863C643.193 381.521 647.801 381.347 653.195 381.347C661.736 381.347 666.008 385.475 666.008 393.731C666.008 398.546 664.547 402.158 661.625 404.567C658.928 407.318 655.556 408.695 651.509 408.695H622.847Z" fill="#186F81"/>
<path d="M718.672 408.695C715.75 408.695 713.053 407.147 710.581 404.051C708.331 400.955 707.095 397.172 706.87 392.699V368.966C706.645 365.87 706.534 362.258 706.534 358.13C706.534 350.906 706.195 339.899 705.523 325.109L704.848 292.086C704.848 275.231 705.184 250.12 705.859 216.754C706.759 186.828 707.209 161.717 707.209 141.422C707.209 136.607 706.87 129.383 706.195 119.752C705.523 109.776 705.184 102.553 705.184 98.0812C705.184 73.6585 709.906 61.4473 719.347 61.4473C726.766 61.4473 735.307 63.6832 744.973 68.155C754.864 72.6265 759.808 77.9584 759.808 84.1498C759.808 87.5896 758.797 90.8575 756.775 93.9532C754.975 96.7051 752.728 98.941 750.031 100.661C740.59 95.5012 732.046 92.0614 724.405 90.3415C724.63 95.5012 724.741 102.897 724.741 112.528C724.741 126.287 724.63 138.671 724.405 149.678C723.73 166.189 723.394 178.572 723.394 186.828L724.405 195.083L729.799 194.567C731.599 194.223 733.846 194.051 736.543 194.051C747.334 194.051 752.728 198.867 752.728 208.499C752.728 212.282 751.717 215.55 749.692 218.302C747.67 220.71 745.084 221.914 741.937 221.914C737.893 221.914 734.746 221.57 732.496 220.882H724.066C724.516 229.825 724.741 242.897 724.741 260.096C724.741 277.295 724.63 292.774 724.405 306.533C723.73 327.515 723.394 343.166 723.394 353.486C723.394 372.749 723.619 382.379 724.066 382.379L735.193 381.863C739.015 381.521 743.623 381.347 749.02 381.347C757.561 381.347 761.833 385.475 761.833 393.731C761.833 398.546 760.372 402.158 757.45 404.567C754.75 407.318 751.378 408.695 747.334 408.695H718.672Z" fill="#186F81"/>
<path d="M878.561 410.76C873.392 410.76 867.884 402.159 862.04 384.96C853.271 359.163 844.616 316.68 836.075 257.517C833.603 241.35 831.578 226.387 830.006 212.627C821.912 237.394 817.868 267.32 817.868 302.406V397.86C817.868 405.771 815.618 409.728 811.124 409.728C807.752 409.728 804.941 408.18 802.694 405.084C800.669 402.333 799.658 398.376 799.658 393.216V236.878C799.658 221.743 800.783 193.881 803.03 153.291C805.28 117.861 806.402 89.9988 806.402 69.7038C808.202 63.1683 811.46 59.9004 816.182 59.9004C819.104 59.9004 821.576 61.4484 823.598 64.5441C825.623 67.6401 826.634 71.4237 826.634 75.8955V77.4435C823.712 85.011 822.251 116.313 822.251 171.35V189.925L834.725 152.259C842.369 127.837 849.563 106.854 856.307 89.3106C862.601 72.1116 867.209 63.5121 870.131 63.5121C873.728 63.5121 876.761 64.7163 879.236 67.1241C881.933 69.5319 883.28 72.9717 883.28 77.4435L875.189 98.0823C858.329 139.704 848.888 163.782 846.866 170.318C846.866 176.166 846.752 181.325 846.527 185.797L846.191 201.276C846.191 216.067 850.013 243.758 857.654 284.347C865.523 324.594 872.042 351.252 877.211 364.323L881.594 373.611C885.866 382.554 888.002 390.465 888.002 397.344C888.002 401.127 886.991 404.223 884.966 406.632C883.169 409.383 881.033 410.76 878.561 410.76Z" fill="#186F81"/>
</g>
<defs>
<clipPath id="clip0_1105_2065">
<rect width="888" height="411" fill="white"/>
</clipPath>
</defs>
</svg>
