<svg width="888" height="414" viewBox="0 0 888 414" fill="none" xmlns="http://www.w3.org/2000/svg">
<path d="M72.3267 367.128C80.1294 367.128 83.5626 357.282 82.002 341.526C80.4414 324.294 81.378 306.567 82.002 291.797C82.3143 282.935 84.1869 275.549 87.3081 268.656L103.538 232.713C126.946 180.523 143.801 135.225 153.788 81.0655C156.597 65.3098 156.597 45.6151 148.482 37.2451C135.061 23.9513 119.144 48.5695 107.908 71.7106C91.9899 104.207 88.5564 125.871 77.3205 169.691C75.4476 176.092 75.4476 176.092 71.3901 175.107C60.1542 172.153 49.5423 176.584 39.8667 189.878C15.8339 222.374 -3.51714 288.351 0.540345 333.156C2.41303 356.79 16.1461 370.575 31.4397 359.25C40.1787 352.356 44.5485 345.957 60.1542 324.294C61.7148 344.481 61.4025 367.128 72.3267 367.128ZM94.1745 195.294C103.226 149.504 119.144 87.9586 131.94 79.096C131.94 88.9432 121.641 124.393 113.526 146.058C106.659 163.782 97.2957 187.908 95.4231 192.34L94.1745 195.294ZM22.0762 328.233C19.5793 326.754 20.5156 311.985 22.0762 303.12C26.1337 277.026 33.0003 253.885 42.3636 233.698C46.7331 224.343 52.3512 214.496 60.1542 209.08C65.148 205.634 68.2692 214.989 67.0206 229.759C65.148 250.439 65.46 262.255 56.4087 278.011C37.6818 311.985 25.5095 331.185 22.0762 328.233Z" fill="#E06E51"/>
<path d="M151.294 368.112C169.396 368.112 199.672 334.632 201.232 310.998C201.232 303.12 199.047 295.735 192.181 295.735C180.32 296.228 166.275 336.108 152.23 335.616C142.555 335.616 137.561 317.892 138.809 297.212C139.121 292.289 140.37 290.319 143.179 288.842C160.657 279.487 175.951 264.224 190.62 235.175C195.302 225.82 198.735 215.48 200.296 204.648C204.353 178.553 192.493 156.396 175.639 157.381C144.427 159.843 116.961 248.961 117.898 312.477C118.522 340.542 131.631 368.112 151.294 368.112ZM148.173 250.438C147.548 250.93 146.3 251.423 146.924 248.961C153.479 228.281 158.785 212.033 166.587 199.724C172.518 190.37 179.696 187.415 179.696 195.785C179.696 211.541 162.53 239.114 148.173 250.438Z" fill="#E06E51"/>
<path d="M251.339 372.051C266.632 372.051 285.047 350.88 298.78 329.217C303.15 320.355 305.646 314.445 301.59 305.583C298.468 299.182 292.85 298.197 287.856 302.136C280.365 309.03 264.447 337.587 251.027 339.063C237.918 340.542 237.294 319.86 240.415 294.258C245.097 257.331 253.836 228.281 268.505 205.14C271.314 200.709 277.556 191.847 279.741 193.323C281.926 194.308 282.862 207.11 283.799 211.049C285.671 217.942 289.729 222.373 293.786 221.388C298.78 220.404 303.462 213.51 303.462 200.709C303.462 188.892 300.339 179.045 296.283 171.167C290.041 158.858 280.365 155.412 271.002 161.812C241.663 181.999 217.943 252.9 217.943 312.969C217.943 349.896 228.555 372.051 251.339 372.051Z" fill="#E06E51"/>
<path d="M349.413 368.112C367.515 368.112 397.791 334.632 399.351 310.998C399.351 303.12 397.167 295.735 390.3 295.735C378.441 296.228 364.395 336.108 350.349 335.616C340.674 335.616 335.679 317.892 336.93 297.212C337.242 292.289 338.49 290.319 341.298 288.842C358.776 279.487 374.07 264.224 388.74 235.175C393.42 225.82 396.855 215.48 398.415 204.648C402.471 178.553 390.612 156.396 373.758 157.381C342.546 159.843 315.081 248.961 316.017 312.477C316.641 340.542 329.751 368.112 349.413 368.112ZM346.293 250.438C345.669 250.93 344.418 251.423 345.045 248.961C351.597 228.281 356.904 212.033 364.707 199.724C370.638 190.37 377.814 187.415 377.814 195.785C377.814 211.541 360.648 239.114 346.293 250.438Z" fill="#E06E51"/>
<path d="M420.12 369.591C427.923 369.591 430.419 358.758 439.47 329.709C455.388 281.457 461.631 257.824 483.477 223.358C488.16 215.973 492.216 210.064 496.587 206.618C501.582 202.679 491.28 259.793 480.981 323.799C478.485 338.571 477.861 349.896 485.976 355.311C488.784 357.282 494.715 358.758 499.395 346.449C506.262 324.786 530.607 262.255 539.346 245.515C544.965 234.19 561.195 207.602 563.379 207.602C565.251 208.095 562.131 219.912 558.075 239.114C552.768 266.194 546.525 302.136 543.405 327.738C541.53 345.465 546.213 362.205 555.888 360.234C561.195 359.25 564.003 352.356 563.691 343.002C563.379 333.648 564.627 325.278 566.187 315.429C569.934 291.304 576.177 259.301 583.98 219.419C588.036 200.217 589.284 176.091 580.857 166.736C567.126 151.473 536.538 196.771 523.116 224.835L516.561 237.637C517.5 228.774 518.436 219.419 519.06 210.557C520.932 187.908 519.684 178.061 511.257 171.168C501.894 163.29 493.467 170.675 483.789 180.03C474.738 188.4 466.311 201.202 458.196 217.942L449.457 235.667L453.828 215.48C458.196 195.293 459.444 190.37 460.071 183.969C460.695 176.584 457.884 169.198 453.516 166.736C449.145 164.275 444.153 166.736 441.342 173.629C438.846 179.045 435.102 199.725 431.355 216.465C421.68 257.824 416.685 290.812 412.629 321.831C409.506 346.449 406.074 369.591 420.12 369.591Z" fill="#E06E51"/>
<path d="M592.086 374.514C595.521 374.514 599.889 370.083 601.137 367.128C602.385 364.173 603.948 363.681 606.756 365.16C617.991 371.067 628.917 367.128 637.032 362.697C670.428 344.973 699.765 299.675 707.88 242.068C713.499 200.71 709.128 164.767 684.786 164.767C676.983 164.767 667.929 171.66 667.929 171.66C667.929 171.66 667.929 170.675 668.868 168.214C670.428 163.782 676.983 146.55 680.415 134.733C689.466 101.252 699.453 51.0311 694.461 26.9053C690.402 7.70311 680.103 -1.65182 669.18 4.74889C653.262 14.5962 638.904 45.1227 629.229 74.1722C608.94 135.718 603.012 189.878 591.774 274.564C583.971 331.185 575.856 374.514 592.086 374.514ZM622.674 204.649C622.674 185.939 639.528 114.054 648.579 87.4661C654.51 69.7409 669.18 38.2295 673.86 38.2295C676.983 38.2295 674.172 64.8173 670.74 83.5271C664.185 119.47 637.968 187.416 622.674 204.649ZM626.73 333.156C621.738 335.616 612.687 336.108 611.751 331.677C608.94 320.847 642.96 251.423 657.318 227.297C664.497 215.481 676.671 197.755 684.786 197.755C695.085 197.755 685.722 256.839 675.732 278.011C662.937 305.091 646.395 324.294 626.73 333.156Z" fill="#E06E51"/>
<path d="M746.445 368.112C764.547 368.112 794.823 334.632 796.383 310.998C796.383 303.12 794.199 295.735 787.332 295.735C775.47 296.228 761.427 336.108 747.381 335.616C737.706 335.616 732.711 317.892 733.959 297.212C734.271 292.289 735.519 290.319 738.33 288.842C755.808 279.487 771.102 264.224 785.769 235.175C790.452 225.82 793.884 215.48 795.447 204.648C799.503 178.553 787.644 156.396 770.79 157.381C739.578 159.843 712.113 248.961 713.049 312.477C713.673 340.542 726.78 368.112 746.445 368.112ZM743.322 250.438C742.698 250.93 741.45 251.423 742.074 248.961C748.629 228.281 753.936 212.033 761.739 199.724C767.667 190.37 774.846 187.415 774.846 195.785C774.846 211.541 757.68 239.114 743.322 250.438Z" fill="#E06E51"/>
<path d="M853.98 412.425C859.911 412.425 865.527 403.563 863.343 391.254C861.471 380.916 862.719 371.067 864.279 361.713C871.146 320.355 876.765 316.908 884.568 280.472C885.816 274.564 888 267.179 888 259.301C888 242.56 879.573 229.759 868.962 232.713C868.026 232.713 860.223 235.667 860.223 235.667C860.223 235.175 869.274 213.511 871.458 195.786C873.642 178.553 875.829 159.843 865.839 149.011C861.471 144.58 856.476 143.595 850.857 146.057C836.19 152.458 819.96 187.416 814.653 217.45C810.909 237.637 810.597 256.839 819.024 270.133C831.195 289.335 842.118 281.457 862.719 269.64C863.967 268.656 864.591 270.625 864.279 272.594C864.591 270.133 848.673 329.217 846.801 338.079C842.43 359.25 838.062 386.331 843.993 402.087C846.489 408.486 849.921 412.425 853.98 412.425ZM834.315 231.728C836.814 213.019 839.934 201.694 850.233 185.446C851.484 183.477 851.484 183.969 851.172 186.431C848.049 207.11 842.43 222.374 834.315 231.728Z" fill="#E06E51"/>
</svg>
