<svg width="296" height="138" viewBox="0 0 296 138" fill="none" xmlns="http://www.w3.org/2000/svg">
<path d="M24.1089 122.376C26.7098 122.376 27.8542 119.094 27.334 113.842C26.8138 108.098 27.126 102.189 27.334 97.2656C27.4381 94.3114 28.0623 91.8496 29.1027 89.5519L34.5127 77.571C42.3155 60.1742 47.9336 45.075 51.2628 27.0217C52.1991 21.7698 52.1991 15.2049 49.4941 12.4149C45.0205 7.98362 39.7146 16.1897 35.9692 23.9034C30.6633 34.7354 29.5188 41.9567 25.7735 56.5635C25.1492 58.6971 25.1492 58.6971 23.7967 58.3688C20.0514 57.3841 16.5141 58.8612 13.2889 63.2925C5.27798 74.1245 -1.17238 96.1167 0.180115 111.052C0.804343 118.93 5.38202 123.525 10.4799 119.75C13.3929 117.452 14.8495 115.319 20.0514 108.098C20.5716 114.827 20.4675 122.376 24.1089 122.376ZM31.3915 65.0978C34.4086 49.8345 39.7146 29.3194 43.9801 26.3652C43.9801 29.6476 40.5469 41.4643 37.8419 48.6857C35.553 54.594 32.4319 62.636 31.8077 64.1131L31.3915 65.0978ZM7.35874 109.411C6.52643 108.918 6.83855 103.995 7.35874 101.04C8.71123 92.3419 11.0001 84.6282 14.1212 77.8993C15.5777 74.781 17.4504 71.4985 20.0514 69.6932C21.716 68.5444 22.7564 71.6627 22.3402 76.5863C21.716 83.4794 21.82 87.4183 18.8029 92.6702C12.5606 103.995 8.50316 110.395 7.35874 109.411Z" fill="#E06E51"/>
<path d="M50.4313 122.704C56.4655 122.704 66.5572 111.544 67.0774 103.666C67.0774 101.04 66.3491 98.5785 64.0603 98.5785C60.1068 98.7427 55.4251 112.036 50.7434 111.872C47.5182 111.872 45.8536 105.964 46.2698 99.0709C46.3738 97.4297 46.79 96.7732 47.7263 96.2808C53.5524 93.1625 58.6503 88.0748 63.5401 78.3916C65.1006 75.2733 66.2451 71.8268 66.7653 68.2161C68.1177 59.5177 64.1643 52.1322 58.5463 52.4605C48.1425 53.2811 38.9871 82.987 39.2992 104.159C39.5073 113.514 43.8769 122.704 50.4313 122.704ZM49.3909 83.4794C49.1828 83.6435 48.7667 83.8076 48.9748 82.987C51.1596 76.0939 52.9282 70.6779 55.5291 66.5749C57.5059 63.4566 59.8987 62.4719 59.8987 65.2619C59.8987 70.5138 54.1767 79.7046 49.3909 83.4794Z" fill="#E06E51"/>
<path d="M83.7795 124.017C88.8774 124.017 95.0156 116.96 99.5933 109.739C101.05 106.785 101.882 104.815 100.53 101.861C99.4893 99.7274 97.6166 99.3991 95.952 100.712C93.4551 103.01 88.1491 112.529 83.6755 113.021C79.3059 113.514 79.0978 106.62 80.1382 98.0862C81.6988 85.7771 84.6118 76.0939 89.5016 68.3802C90.438 66.9031 92.5187 63.949 93.247 64.4413C93.9753 64.7696 94.2874 69.0367 94.5995 70.3497C95.2237 72.6474 96.5762 74.1245 97.9287 73.7962C99.5933 73.468 101.154 71.1703 101.154 66.9031C101.154 62.9642 100.113 59.6818 98.761 57.0559C96.6802 52.9528 93.4551 51.804 90.3339 53.9376C80.5544 60.6665 72.6475 84.3 72.6475 104.323C72.6475 116.632 76.1848 124.017 83.7795 124.017Z" fill="#E06E51"/>
<path d="M116.471 122.704C122.505 122.704 132.597 111.544 133.117 103.666C133.117 101.04 132.389 98.5785 130.1 98.5785C126.147 98.7427 121.465 112.036 116.783 111.872C113.558 111.872 111.893 105.964 112.31 99.0709C112.414 97.4297 112.83 96.7732 113.766 96.2808C119.592 93.1625 124.69 88.0748 129.58 78.3916C131.14 75.2733 132.285 71.8268 132.805 68.2161C134.157 59.5177 130.204 52.1322 124.586 52.4605C114.182 53.2811 105.027 82.987 105.339 104.159C105.547 113.514 109.917 122.704 116.471 122.704ZM115.431 83.4794C115.223 83.6435 114.806 83.8076 115.015 82.987C117.199 76.0939 118.968 70.6779 121.569 66.5749C123.546 63.4566 125.938 62.4719 125.938 65.2619C125.938 70.5138 120.216 79.7046 115.431 83.4794Z" fill="#E06E51"/>
<path d="M140.04 123.197C142.641 123.197 143.473 119.586 146.49 109.903C151.796 93.819 153.877 85.9412 161.159 74.4527C162.72 71.9909 164.072 70.0214 165.529 68.8726C167.194 67.5596 163.76 86.5977 160.327 107.933C159.495 112.857 159.287 116.632 161.992 118.437C162.928 119.094 164.905 119.586 166.465 115.483C168.754 108.262 176.869 87.4183 179.782 81.8382C181.655 78.0634 187.065 69.2008 187.793 69.2008C188.417 69.365 187.377 73.3039 186.025 79.7046C184.256 88.7313 182.175 100.712 181.135 109.246C180.51 115.155 182.071 120.735 185.296 120.078C187.065 119.75 188.001 117.452 187.897 114.334C187.793 111.216 188.209 108.426 188.729 105.143C189.978 97.1014 192.059 86.4336 194.66 73.1397C196.012 66.739 196.428 58.6971 193.619 55.5788C189.042 50.491 178.846 65.5902 174.372 74.9451L172.187 79.2122C172.5 76.258 172.812 73.1397 173.02 70.1856C173.644 62.636 173.228 59.3536 170.419 57.0559C167.298 54.4299 164.489 56.8917 161.263 60.01C158.246 62.8001 155.437 67.0673 152.732 72.6474L149.819 78.5558L151.276 71.8268C152.732 65.0978 153.148 63.4566 153.357 61.323C153.565 58.8612 152.628 56.3994 151.172 55.5788C149.715 54.7582 148.051 55.5788 147.114 57.8765C146.282 59.6818 145.034 66.5749 143.785 72.155C140.56 85.9412 138.895 96.9373 137.543 107.277C136.502 115.483 135.358 123.197 140.04 123.197Z" fill="#E06E51"/>
<path d="M197.362 124.838C198.507 124.838 199.963 123.361 200.379 122.376C200.795 121.391 201.316 121.227 202.252 121.72C205.997 123.689 209.639 122.376 212.344 120.899C223.476 114.991 233.255 99.8915 235.96 80.6893C237.833 66.9031 236.376 54.9223 228.262 54.9223C225.661 54.9223 222.643 57.22 222.643 57.22C222.643 57.22 222.643 56.8917 222.956 56.0711C223.476 54.594 225.661 48.8498 226.805 44.9109C229.822 33.7506 233.151 17.0103 231.487 8.96834C230.134 2.56762 226.701 -0.550691 223.06 1.58288C217.754 4.86531 212.968 15.0408 209.743 24.724C202.98 45.2391 201.004 63.2925 197.258 91.5213C194.657 110.395 191.952 124.838 197.362 124.838ZM207.558 68.2161C207.558 61.9795 213.176 38.0178 216.193 29.1553C218.17 23.2469 223.06 12.7431 224.62 12.7431C225.661 12.7431 224.724 21.6057 223.58 27.8423C221.395 39.8231 212.656 62.4719 207.558 68.2161ZM208.91 111.052C207.246 111.872 204.229 112.036 203.917 110.559C202.98 106.949 214.32 83.8076 219.106 75.7657C221.499 71.8268 225.557 65.9184 228.262 65.9184C231.695 65.9184 228.574 85.613 225.244 92.6702C220.979 101.697 215.465 108.098 208.91 111.052Z" fill="#E06E51"/>
<path d="M248.815 122.704C254.849 122.704 264.941 111.544 265.461 103.666C265.461 101.04 264.733 98.5785 262.444 98.5785C258.49 98.7427 253.809 112.036 249.127 111.872C245.902 111.872 244.237 105.964 244.653 99.0709C244.757 97.4297 245.173 96.7732 246.11 96.2808C251.936 93.1625 257.034 88.0748 261.923 78.3916C263.484 75.2733 264.628 71.8268 265.149 68.2161C266.501 59.5177 262.548 52.1322 256.93 52.4605C246.526 53.2811 237.371 82.987 237.683 104.159C237.891 113.514 242.26 122.704 248.815 122.704ZM247.774 83.4794C247.566 83.6435 247.15 83.8076 247.358 82.987C249.543 76.0939 251.312 70.6779 253.913 66.5749C255.889 63.4566 258.282 62.4719 258.282 65.2619C258.282 70.5138 252.56 79.7046 247.774 83.4794Z" fill="#E06E51"/>
<path d="M284.66 137.475C286.637 137.475 288.509 134.521 287.781 130.418C287.157 126.972 287.573 123.689 288.093 120.571C290.382 106.785 292.255 105.636 294.856 93.4908C295.272 91.5213 296 89.0595 296 86.4336C296 80.8534 293.191 76.5863 289.654 77.571C289.342 77.571 286.741 78.5558 286.741 78.5558C286.741 78.3916 289.758 71.1703 290.486 65.2619C291.214 59.5177 291.943 53.2811 288.613 49.6704C287.157 48.1933 285.492 47.8651 283.619 48.6857C278.73 50.8193 273.32 62.4719 271.551 72.4833C270.303 79.2122 270.199 85.613 273.008 90.0442C277.065 96.445 280.706 93.819 287.573 89.8801C287.989 89.5519 288.197 90.2084 288.093 90.8648C288.197 90.0442 282.891 109.739 282.267 112.693C280.81 119.75 279.354 128.777 281.331 134.029C282.163 136.162 283.307 137.475 284.66 137.475ZM278.105 77.2428C278.938 71.0062 279.978 67.2314 283.411 61.8154C283.828 61.1589 283.828 61.323 283.724 62.1436C282.683 69.0367 280.81 74.1245 278.105 77.2428Z" fill="#E06E51"/>
</svg>
