<svg width="888" height="825" viewBox="0 0 888 825" fill="none" xmlns="http://www.w3.org/2000/svg">
<g clip-path="url(#clip0_1105_2345)">
<mask id="mask0_1105_2345" style="mask-type:luminance" maskUnits="userSpaceOnUse" x="0" y="0" width="888" height="824">
<path d="M876 0H12C5.37258 0 0 5.37258 0 12V811.2C0 817.827 5.37258 823.2 12 823.2H876C882.627 823.2 888 817.827 888 811.2V12C888 5.37258 882.627 0 876 0Z" fill="white"/>
</mask>
<g mask="url(#mask0_1105_2345)">
<path d="M876 0H12C5.37258 0 0 5.37258 0 12V811.2C0 817.827 5.37258 823.2 12 823.2H876C882.627 823.2 888 817.827 888 811.2V12C888 5.37258 882.627 0 876 0Z" stroke="#76DC9F" stroke-width="28.8"/>
</g>
<path d="M11.9977 3.59766H875.998C880.636 3.59766 884.398 7.35846 884.398 11.9977V200.398H3.59766V11.9977C3.59766 7.35846 7.35846 3.59766 11.9977 3.59766Z" fill="#76DC9F" stroke="#76DC9F" stroke-width="7.2"/>
</g>
<defs>
<clipPath id="clip0_1105_2345">
<rect width="888" height="825" fill="white"/>
</clipPath>
</defs>
</svg>
