<svg width="200" height="301" viewBox="0 0 200 301" fill="none" xmlns="http://www.w3.org/2000/svg">
<rect y="0.36377" width="200" height="300" rx="9.23077" fill="#E7B545"/>
<rect y="0.36377" width="200" height="300" rx="9.23077" fill="black" fill-opacity="0.04"/>
<rect x="9.22852" y="48.1763" width="181.538" height="30.7692" rx="4.61539" fill="white" fill-opacity="0.2"/>
<path d="M19.6517 69.5467C19.5271 69.4774 19.4302 69.3528 19.4025 69.1867C19.3886 69.062 19.3886 68.9374 19.3748 68.799C19.3471 68.3559 19.3332 67.899 19.3194 67.4559C19.3056 66.8328 19.2917 66.2236 19.2917 65.6005C19.2779 64.922 19.2779 64.2436 19.2779 63.5651C19.264 62.9282 19.264 62.2913 19.2779 61.6543C19.2779 61.1559 19.2917 60.6713 19.3056 60.1867C19.3056 60.062 19.3194 59.9374 19.3332 59.799C19.4302 58.3867 19.4994 58.1374 19.8456 57.9713C20.2056 57.7913 20.5932 58.0267 20.8286 58.5528C20.9948 58.899 21.604 60.9205 21.8256 61.8343C22.4209 64.3543 22.864 66.0574 22.9332 66.0574C23.044 66.0574 23.7502 63.759 24.5532 60.7405C24.9132 59.4113 25.2456 58.4282 25.4117 58.179C25.564 57.9574 25.7994 57.8051 25.9794 57.8051C26.2563 57.8051 26.5471 58.0405 26.6717 58.3728C26.8794 58.9543 26.9071 59.5913 26.8656 64.742C26.8656 65.6143 26.8517 66.4867 26.8517 67.359C26.8379 67.8159 26.8379 68.2867 26.8379 68.7436C26.8379 68.882 26.8517 69.0343 26.8379 69.159C26.7825 69.6713 26.0486 69.7267 25.8132 69.3251C25.744 69.1867 25.744 68.9097 25.744 64.9359C25.744 61.2251 25.744 60.7267 25.6886 60.9205C24.3456 65.6974 24.2071 66.1405 23.9163 66.6667C23.4317 67.539 22.7394 67.7743 22.2686 67.2205C21.8948 66.8051 21.7148 66.2097 20.7179 62.1113C20.4686 61.0867 20.4548 61.0313 20.4271 61.2251C20.3717 61.5436 20.3717 63.9667 20.4271 66.6943C20.4963 69.4636 20.4963 69.3667 20.1917 69.5605C20.0117 69.6713 19.804 69.6436 19.6517 69.5467Z" fill="white"/>
<rect x="9.22852" y="83.561" width="181.538" height="30.7692" rx="4.61539" fill="white" fill-opacity="0.2"/>
<path d="M21.5902 105.667C21.4656 105.612 21.3548 105.501 21.3132 105.363C21.2579 105.224 21.2856 105.03 21.2717 104.878C21.2717 104.186 21.2856 103.493 21.2856 102.801C21.2994 101.97 21.3132 101.139 21.3271 100.295C21.3686 97.5395 21.4102 95.2133 21.424 95.1164L21.4517 94.9503L21.064 94.978C20.0532 95.0333 18.6825 95.0333 18.5302 94.978C18.3363 94.9226 18.1563 94.6733 18.1563 94.4795C18.1563 94.2164 18.3086 94.0364 18.6271 93.9395C18.8071 93.898 24.7886 93.7872 25.1071 93.8287C25.4256 93.8841 25.7717 94.1333 25.7025 94.5072C25.6471 94.8256 25.3702 94.8949 25.0932 94.9226C24.7194 94.9503 24.3317 94.9364 23.9579 94.9503L22.5594 94.978L22.5317 95.698C22.5179 96.0995 22.4763 98.4257 22.4486 100.849C22.4071 104.255 22.3794 105.307 22.324 105.418C22.1994 105.723 21.8532 105.792 21.5902 105.667Z" fill="white"/>
<rect x="9.22852" y="118.945" width="181.538" height="30.7692" rx="4.61539" fill="white" fill-opacity="0.2"/>
<path d="M26.2979 140.496C25.7025 140.33 25.1763 139.831 24.8025 139.125C24.4009 138.322 24.0132 137.283 23.764 136.3C23.6532 135.871 23.6117 135.733 23.584 135.816C23.5702 135.885 23.5009 136.245 23.4179 136.619C23.224 137.56 23.0302 138.142 22.6286 138.945C22.1025 140.011 21.7009 140.371 21.0779 140.371C19.9148 140.385 19.444 138.986 19.2779 138.045C18.724 135.137 18.8902 132.243 19.4302 129.17C19.4994 128.837 19.7209 128.45 20.1502 128.546C20.5102 128.63 20.6625 128.948 20.5379 129.363C20.2056 130.402 19.7902 134.528 20.2332 137.27C20.3163 137.768 20.4548 138.28 20.6348 138.751C20.704 138.903 20.7732 139.07 20.9256 139.139C21.604 139.513 22.2132 136.868 22.3102 136.453C22.5456 135.373 22.684 134.279 22.8363 133.199C23.0302 131.773 23.0717 131.648 23.3348 131.537C23.6532 131.399 23.9579 131.51 24.0963 131.814C24.1656 131.953 24.2486 132.396 24.3732 133.31C24.6779 135.442 24.8994 136.397 25.3979 137.671C25.6194 138.253 26.1179 139.693 26.9902 139.346C27.6132 139.097 27.9594 137.491 28.0148 134.514C28.0425 132.894 28.0009 132.146 27.7794 130.623C27.6825 130.028 27.6271 129.488 27.6409 129.405C27.6548 129.336 27.724 129.211 27.8071 129.142C27.9179 129.031 27.9871 129.003 28.1671 129.003C28.3471 129.003 28.4163 129.031 28.5271 129.128C28.5963 129.211 28.6794 129.322 28.7071 129.377C28.7902 129.599 29.0671 131.717 29.1363 132.562C29.164 133.074 29.1779 133.808 29.1502 134.542C29.0671 138.377 28.5686 139.956 27.3502 140.426C27.0317 140.551 26.6025 140.579 26.2979 140.496Z" fill="white"/>
<rect x="9.22852" y="154.33" width="181.538" height="30.7692" rx="4.61539" fill="white" fill-opacity="0.2"/>
<path d="M21.5902 175.811C21.4656 175.756 21.3548 175.645 21.3132 175.507C21.2579 175.368 21.2856 175.174 21.2717 175.022C21.2717 174.33 21.2856 173.637 21.2856 172.945C21.2994 172.114 21.3132 171.284 21.3271 170.439C21.3686 167.684 21.4102 165.357 21.424 165.26L21.4517 165.094L21.064 165.122C20.0532 165.177 18.6825 165.177 18.5302 165.122C18.3363 165.067 18.1563 164.817 18.1563 164.624C18.1563 164.36 18.3086 164.18 18.6271 164.084C18.8071 164.042 24.7886 163.931 25.1071 163.973C25.4256 164.028 25.7717 164.277 25.7025 164.651C25.6471 164.97 25.3702 165.039 25.0932 165.067C24.7194 165.094 24.3317 165.08 23.9579 165.094L22.5594 165.122L22.5317 165.842C22.5179 166.244 22.4763 168.57 22.4486 170.993C22.4071 174.399 22.3794 175.451 22.324 175.562C22.1994 175.867 21.8532 175.936 21.5902 175.811Z" fill="white"/>
<rect x="9.22852" y="189.715" width="181.538" height="30.7692" rx="4.61539" fill="white" fill-opacity="0.2"/>
<path d="M19.624 211.002C19.5132 210.905 19.4579 210.808 19.4163 210.628C19.264 209.936 19.2779 203.678 19.4302 201.019C19.4994 199.801 19.5271 199.718 19.8456 199.551C20.0256 199.454 20.0948 199.454 22.2825 199.441C23.8748 199.427 24.5809 199.441 24.664 199.482C25.0656 199.648 25.1486 200.105 24.844 200.41C24.7609 200.493 24.6363 200.534 24.5117 200.534L23.4871 200.548C22.8086 200.562 21.8948 200.576 21.4379 200.59L20.6071 200.631L20.5794 200.77C20.5517 200.922 20.4686 203.041 20.4686 203.484V203.761H21.9086C23.1271 203.761 23.3625 203.774 23.5009 203.83C23.9025 204.024 23.9163 204.55 23.5286 204.799C23.4179 204.868 23.2517 204.882 21.9363 204.896L20.4548 204.91L20.4409 205.159C20.3856 205.533 20.4548 209.714 20.5102 210.241C20.5517 210.628 20.5517 210.711 20.4825 210.836C20.3302 211.168 19.9009 211.251 19.624 211.002Z" fill="white"/>
<rect x="9.22852" y="225.099" width="181.538" height="30.7692" rx="4.61539" fill="white" fill-opacity="0.2"/>
<path d="M20.2056 246.525C19.6379 246.4 19.3194 246.262 19.2086 246.068C18.9732 245.694 19.2225 245.251 19.6517 245.251C19.7209 245.251 19.8871 245.293 20.0256 245.334C20.4409 245.486 20.8979 245.542 21.3409 245.514C22.2686 245.459 22.6563 245.002 22.4209 244.226C22.3102 243.88 21.964 243.423 21.3409 242.814C20.1363 241.651 19.5825 241.07 19.3471 240.723C18.4748 239.45 18.3779 238.134 19.0563 236.708C19.8179 235.143 21.9363 234.077 23.4594 235.323C23.9163 235.697 24.3594 236.348 24.3594 236.666C24.3594 236.985 24.124 237.234 23.8056 237.234C23.5702 237.234 23.4179 237.11 23.2517 236.805C23.0717 236.459 22.7394 236.113 22.4763 236.002C21.4794 235.545 20.6071 236.251 20.1502 237.096C19.7486 237.816 19.5825 238.716 19.9148 239.505C20.2609 240.336 21.064 240.959 21.6871 241.582C22.9332 242.828 23.2379 243.188 23.4456 243.742C23.7225 244.503 23.6532 245.21 23.2517 245.791C23.044 246.082 22.6702 246.331 22.2409 246.47C21.7148 246.636 20.8286 246.663 20.2056 246.525Z" fill="white"/>
<rect x="9.22852" y="260.484" width="181.538" height="30.7692" rx="4.61539" fill="white" fill-opacity="0.2"/>
<path d="M20.2056 281.91C19.6379 281.785 19.3194 281.647 19.2086 281.453C18.9732 281.079 19.2225 280.636 19.6517 280.636C19.7209 280.636 19.8871 280.677 20.0256 280.719C20.4409 280.871 20.8979 280.927 21.3409 280.899C22.2686 280.844 22.6563 280.387 22.4209 279.611C22.3102 279.265 21.964 278.808 21.3409 278.199C20.1363 277.036 19.5825 276.454 19.3471 276.108C18.4748 274.834 18.3779 273.519 19.0563 272.093C19.8179 270.528 21.9363 269.462 23.4594 270.708C23.9163 271.082 24.3594 271.733 24.3594 272.051C24.3594 272.37 24.124 272.619 23.8056 272.619C23.5702 272.619 23.4179 272.494 23.2517 272.19C23.0717 271.844 22.7394 271.497 22.4763 271.387C21.4794 270.93 20.6071 271.636 20.1502 272.48C19.7486 273.2 19.5825 274.1 19.9148 274.89C20.2609 275.72 21.064 276.344 21.6871 276.967C22.9332 278.213 23.2379 278.573 23.4456 279.127C23.7225 279.888 23.6532 280.594 23.2517 281.176C23.044 281.467 22.6702 281.716 22.2409 281.854C21.7148 282.02 20.8286 282.048 20.2056 281.91Z" fill="white"/>
<path d="M77.3731 28.9726C76.5792 28.7511 75.8777 28.0865 75.3792 27.1449C74.8438 26.0742 74.3269 24.6895 73.9946 23.3788C73.8469 22.8065 73.7915 22.6218 73.7546 22.7326C73.7361 22.8249 73.6438 23.3049 73.5331 23.8034C73.2746 25.0588 73.0161 25.8342 72.4808 26.9049C71.7792 28.3265 71.2438 28.8065 70.4131 28.8065C68.8623 28.8249 68.2346 26.9603 68.0131 25.7049C67.2746 21.828 67.4961 17.9695 68.2161 13.8711C68.3084 13.428 68.6038 12.9111 69.1761 13.0403C69.6561 13.1511 69.8592 13.5757 69.6931 14.1295C69.25 15.5142 68.6961 21.0157 69.2869 24.6711C69.3977 25.3357 69.5823 26.0188 69.8223 26.6465C69.9146 26.8495 70.0069 27.0711 70.21 27.1634C71.1146 27.6618 71.9269 24.1357 72.0561 23.5818C72.37 22.1418 72.5546 20.6834 72.7577 19.2434C73.0161 17.3418 73.0715 17.1757 73.4223 17.028C73.8469 16.8434 74.2531 16.9911 74.4377 17.3972C74.53 17.5818 74.6408 18.1726 74.8069 19.3911C75.2131 22.2342 75.5084 23.508 76.1731 25.2065C76.4684 25.9818 77.1331 27.9018 78.2961 27.4403C79.1269 27.108 79.5884 24.9665 79.6623 20.9972C79.6992 18.8372 79.6438 17.8403 79.3484 15.8095C79.2192 15.0157 79.1454 14.2957 79.1638 14.1849C79.1823 14.0926 79.2746 13.9265 79.3854 13.8342C79.5331 13.6865 79.6254 13.6495 79.8654 13.6495C80.1054 13.6495 80.1977 13.6865 80.3454 13.8157C80.4377 13.9265 80.5484 14.0742 80.5854 14.148C80.6961 14.4434 81.0654 17.268 81.1577 18.3942C81.1946 19.0772 81.2131 20.0557 81.1761 21.0342C81.0654 26.148 80.4008 28.2526 78.7761 28.8803C78.3515 29.0465 77.7792 29.0834 77.3731 28.9726ZM88.8408 18.0803C90.2993 19.428 90.9455 22.0126 90.447 24.4865C90.447 24.5234 90.4285 24.5418 90.4285 24.5788C89.9855 26.6834 88.3608 29.2865 85.8316 28.7142C85.0193 28.5295 84.3732 28.0126 83.8932 27.3665C81.9362 24.7634 82.3239 20.0003 84.6685 18.0249C85.9793 16.9172 87.5855 16.9357 88.8408 18.0803ZM89.0255 23.9511C89.1547 23.1942 89.1178 21.9572 88.9332 21.2188C88.6562 20.148 88.047 19.2065 87.3824 18.8926C86.1455 18.2649 84.7978 19.5018 84.2808 21.7172C83.9116 23.3418 84.0593 25.668 85.4255 26.8126C87.4008 28.4742 88.7485 25.5203 89.0255 23.9511ZM92.559 28.4742C92.3744 28.3818 92.2451 28.1603 92.1713 27.8649C92.1528 27.7542 92.1713 27.0342 92.2082 26.2588C92.2451 25.4649 92.2821 23.2865 92.319 21.3849C92.3744 17.6742 92.3744 17.6557 92.7067 17.3972C93.0759 17.1203 93.5559 17.1942 93.7774 17.5818C93.8882 17.7665 93.9067 17.8403 93.8697 18.7818C93.8513 19.6126 93.8513 19.7603 93.9251 19.668C94.4974 18.8372 94.7928 18.4495 95.1621 18.0988C95.7713 17.5449 96.6021 17.1757 97.4513 17.1942C97.8759 17.1942 98.2821 17.2865 98.6513 17.4895C98.9836 17.6742 99.4082 17.9326 99.4636 18.3388C99.4821 18.4495 99.4821 18.5603 99.4451 18.6711C99.3344 18.9665 99.1313 19.1511 98.8174 19.188C98.5959 19.2065 98.5036 19.188 98.1897 18.9665C97.4882 18.4865 96.5836 18.7634 96.0482 19.3542C95.5313 19.9265 95.1436 20.5542 94.8482 21.2742C94.7928 21.4218 94.7374 21.588 94.6636 21.7357C94.0359 23.4711 93.7221 25.0957 93.7221 26.8311C93.7221 27.9388 93.6667 28.1972 93.4082 28.4188C93.2051 28.5849 92.8174 28.6218 92.559 28.4742ZM101.381 28.4372C101.141 28.3265 100.957 28.1049 100.901 27.828C100.735 26.7388 100.92 14.7388 101.141 12.468C101.215 11.6926 101.233 11.5818 101.381 11.3972C101.603 11.1018 101.953 11.0095 102.249 11.1572C102.378 11.2311 102.526 11.3603 102.6 11.4711C102.71 11.6742 102.71 11.7111 102.6 12.9849C102.507 14.1849 102.397 18.2834 102.397 20.628C102.397 21.4218 102.397 21.5326 102.47 21.4588C102.673 21.2557 103.855 19.5388 104.446 18.6157C104.797 18.0803 105.147 17.5634 105.258 17.4711C105.757 17.0465 106.458 17.3603 106.458 18.0249C106.458 18.2095 106.329 18.4495 105.793 19.3172C105.406 19.908 104.87 20.7018 104.593 21.108C104.317 21.4957 104.095 21.8465 104.095 21.8834C104.095 22.0126 104.261 22.2342 104.335 22.3634C104.52 22.7142 104.704 23.0465 104.907 23.3972C105.332 24.1726 105.757 24.9295 106.218 25.6865C106.477 26.1295 106.772 26.5542 107.03 26.9972C107.16 27.2003 107.27 27.3849 107.27 27.6249C107.289 28.1234 106.827 28.4742 106.347 28.3265C106.033 28.2342 105.867 27.9203 105.701 27.6618C105.018 26.7018 104.427 25.6495 103.855 24.6157C103.449 23.8588 103.08 23.2311 103.061 23.1942C103.043 23.1757 102.858 23.3418 102.673 23.5818L102.304 24.0249L102.378 25.9449C102.397 26.4618 102.415 26.9972 102.397 27.5326C102.397 27.9018 102.36 28.2895 101.953 28.4557C101.769 28.5295 101.566 28.5111 101.381 28.4372ZM113.865 18.0803C115.323 19.428 115.97 22.0126 115.471 24.4865C115.471 24.5234 115.453 24.5418 115.453 24.5788C115.01 26.6834 113.385 29.2865 110.856 28.7142C110.043 28.5295 109.397 28.0126 108.917 27.3665C106.96 24.7634 107.348 20.0003 109.693 18.0249C111.003 16.9172 112.61 16.9357 113.865 18.0803ZM114.05 23.9511C114.179 23.1942 114.142 21.9572 113.957 21.2188C113.68 20.148 113.071 19.2065 112.406 18.8926C111.17 18.2649 109.822 19.5018 109.305 21.7172C108.936 23.3418 109.083 25.668 110.45 26.8126C112.425 28.4742 113.773 25.5203 114.05 23.9511ZM119.337 28.5111C118.34 28.2157 117.749 27.2003 117.491 26.2588C116.881 24.0065 116.937 21.6434 117.085 19.3357C117.103 18.8926 117.103 18.4311 117.251 18.0065C117.325 17.7665 117.601 17.5265 117.841 17.4711C118.1 17.4157 118.451 17.6003 118.598 17.8957C118.709 18.0988 118.709 18.1542 118.635 18.708C118.525 19.7049 118.451 22.0126 118.525 22.9357C118.58 23.7295 118.654 24.5234 118.783 25.2988C118.894 25.8895 119.115 26.868 119.761 27.0711C120.869 27.4218 121.645 25.9818 121.977 25.1695C122.365 24.1726 122.641 23.1388 122.881 22.0865C123.011 21.4957 123.14 20.9049 123.269 20.2957C123.38 19.6495 123.491 19.0034 123.657 18.3757C123.768 17.8772 124.229 17.3418 124.783 17.4526C124.968 17.508 125.134 17.6003 125.208 17.7849C125.374 18.1726 125.281 18.7818 125.281 19.188C125.281 19.8895 125.281 20.5726 125.281 21.2742C125.263 23.4526 125.263 25.1511 125.318 26.2218C125.411 28.0865 125.392 28.2157 125.005 28.4372C124.746 28.6034 124.488 28.6034 124.248 28.4372C123.934 28.2526 123.878 28.068 123.841 26.7203C123.823 26.0372 123.786 25.3357 123.768 25.1326L123.731 24.7634L123.528 25.3542C123.251 26.0926 122.937 26.7388 122.605 27.1634C121.995 27.9942 120.98 28.6772 119.928 28.6218C119.725 28.6034 119.521 28.5665 119.337 28.5111ZM129.283 28.4372C129.153 28.3634 129.043 28.2526 129.006 28.0865C128.895 27.6988 128.932 27.2557 128.913 26.8495C128.895 25.7418 128.895 24.6157 128.895 23.508L128.877 19.0772H127.917C127.363 19.0772 126.458 19.188 126.347 18.4495C126.31 18.1911 126.403 17.9511 126.587 17.7849C126.901 17.4895 127.51 17.5634 127.917 17.5634H128.84V15.6618C128.84 15.1449 128.84 14.6095 128.858 14.0742C128.877 13.8711 128.877 13.6126 129.006 13.4465C129.135 13.2434 129.412 13.1326 129.652 13.1511C130.446 13.2065 130.353 14.1295 130.353 14.6834C130.372 15.0157 130.372 15.3295 130.372 15.6618V17.5634L131.35 17.5818C131.757 17.5818 132.31 17.4895 132.587 17.8957C132.772 18.1726 132.735 18.6342 132.458 18.8372C132.163 19.0588 131.646 19.0034 131.313 19.0218L130.39 19.0588V23.5818C130.39 24.6711 130.409 25.7603 130.39 26.8495C130.39 27.2557 130.409 27.7357 130.317 28.1418C130.206 28.5849 129.633 28.6588 129.283 28.4372Z" fill="white"/>
</svg>
