<svg width="600" height="903" viewBox="0 0 600 903" fill="none" xmlns="http://www.w3.org/2000/svg">
<path d="M572.308 1.09277H27.6923C12.3983 1.09277 0 13.491 0 28.7851V873.4C0 888.695 12.3983 901.093 27.6923 901.093H572.308C587.602 901.093 600 888.695 600 873.4V28.7851C600 13.491 587.602 1.09277 572.308 1.09277Z" fill="#E7B545"/>
<path d="M572.308 1.09277H27.6923C12.3983 1.09277 0 13.491 0 28.7851V873.4C0 888.695 12.3983 901.093 27.6923 901.093H572.308C587.602 901.093 600 888.695 600 873.4V28.7851C600 13.491 587.602 1.09277 572.308 1.09277Z" fill="black" fill-opacity="0.04"/>
<path d="M558.453 144.53H41.5317C33.8847 144.53 27.6855 150.729 27.6855 158.376V222.992C27.6855 230.639 33.8847 236.838 41.5317 236.838H558.453C566.1 236.838 572.3 230.639 572.3 222.992V158.376C572.3 150.729 566.1 144.53 558.453 144.53Z" fill="white" fill-opacity="0.2"/>
<path d="M58.9554 208.639C58.5816 208.431 58.2909 208.057 58.2078 207.559C58.1661 207.185 58.1661 206.811 58.1247 206.396C58.0416 205.066 57.9999 203.696 57.9585 202.366C57.9171 200.497 57.8754 198.67 57.8754 196.8C57.834 194.765 57.834 192.73 57.834 190.694C57.7923 188.783 57.7923 186.873 57.834 184.962C57.834 183.466 57.8754 182.013 57.9171 180.559C57.9171 180.185 57.9585 179.811 57.9999 179.396C58.2909 175.159 58.4985 174.411 59.5371 173.913C60.6171 173.373 61.7799 174.079 62.4861 175.657C62.9847 176.696 64.8123 182.76 65.4771 185.502C67.263 193.062 68.5923 198.171 68.7999 198.171C69.1323 198.171 71.2509 191.276 73.6599 182.22C74.7399 178.233 75.7371 175.283 76.2354 174.536C76.6923 173.871 77.3985 173.414 77.9385 173.414C78.7692 173.414 79.6416 174.12 80.0154 175.117C80.6385 176.862 80.7216 178.773 80.5971 194.225C80.5971 196.842 80.5554 199.459 80.5554 202.076C80.514 203.446 80.514 204.859 80.514 206.23C80.514 206.645 80.5554 207.102 80.514 207.476C80.3478 209.013 78.1461 209.179 77.4399 207.974C77.2323 207.559 77.2323 206.728 77.2323 194.806C77.2323 183.674 77.2323 182.179 77.0661 182.76C73.0371 197.091 72.6216 198.42 71.7492 199.999C70.2954 202.616 68.2185 203.322 66.8061 201.66C65.6847 200.414 65.1447 198.628 62.154 186.333C61.4061 183.259 61.3647 183.093 61.2816 183.674C61.1154 184.63 61.1154 191.899 61.2816 200.082C61.4892 208.39 61.4892 208.099 60.5754 208.68C60.0354 209.013 59.4123 208.93 58.9554 208.639Z" fill="white"/>
<path d="M558.453 250.682H41.5317C33.8847 250.682 27.6855 256.881 27.6855 264.528V329.143C27.6855 336.79 33.8847 342.989 41.5317 342.989H558.453C566.1 342.989 572.3 336.79 572.3 329.143V264.528C572.3 256.881 566.1 250.682 558.453 250.682Z" fill="white" fill-opacity="0.2"/>
<path d="M64.7705 317.001C64.3967 316.836 64.0643 316.503 63.9395 316.089C63.7736 315.672 63.8567 315.09 63.815 314.634C63.815 312.558 63.8567 310.479 63.8567 308.403C63.8981 305.91 63.9395 303.417 63.9812 300.885C64.1057 292.619 64.2305 285.64 64.2719 285.35L64.355 284.851L63.1918 284.934C60.1594 285.1 56.0473 285.1 55.5904 284.934C55.0087 284.768 54.4688 284.02 54.4688 283.439C54.4688 282.65 54.9257 282.11 55.8812 281.819C56.4212 281.694 74.3656 281.362 75.3211 281.486C76.2766 281.653 77.3149 282.4 77.1073 283.522C76.9411 284.477 76.1105 284.685 75.2795 284.768C74.1581 284.851 72.9949 284.81 71.8735 284.851L67.6781 284.934L67.595 287.094C67.5536 288.299 67.4288 295.277 67.3457 302.547C67.2212 312.765 67.138 315.921 66.9718 316.254C66.598 317.169 65.5595 317.376 64.7705 317.001Z" fill="white"/>
<path d="M558.453 356.836H41.5317C33.8847 356.836 27.6855 363.035 27.6855 370.682V435.297C27.6855 442.944 33.8847 449.144 41.5317 449.144H558.453C566.1 449.144 572.3 442.944 572.3 435.297V370.682C572.3 363.035 566.1 356.836 558.453 356.836Z" fill="white" fill-opacity="0.2"/>
<path d="M78.8945 421.488C77.1083 420.99 75.5297 419.493 74.4083 417.375C73.2035 414.966 72.0404 411.849 71.2928 408.9C70.9604 407.613 70.8359 407.199 70.7528 407.448C70.7114 407.655 70.5035 408.735 70.2545 409.857C69.6728 412.68 69.0914 414.426 67.8866 416.835C66.3083 420.033 65.1035 421.113 63.2345 421.113C59.7452 421.155 58.3328 416.958 57.8345 414.135C56.1728 405.411 56.6714 396.729 58.2914 387.51C58.499 386.511 59.1635 385.35 60.4514 385.638C61.5314 385.89 61.9883 386.844 61.6145 388.089C60.6176 391.206 59.3714 403.584 60.7004 411.81C60.9497 413.304 61.3652 414.84 61.9052 416.253C62.1128 416.709 62.3204 417.21 62.7776 417.417C64.8128 418.539 66.6404 410.604 66.9314 409.359C67.6376 406.119 68.0528 402.837 68.5097 399.597C69.0914 395.319 69.2159 394.944 70.0052 394.611C70.9604 394.197 71.8745 394.53 72.2897 395.442C72.4976 395.859 72.7466 397.188 73.1204 399.93C74.0345 406.326 74.699 409.191 76.1945 413.013C76.859 414.759 78.3545 419.079 80.9714 418.038C82.8404 417.291 83.879 412.473 84.0452 403.542C84.1283 398.682 84.0035 396.438 83.339 391.869C83.0483 390.084 82.8821 388.464 82.9235 388.215C82.9652 388.008 83.1728 387.633 83.4221 387.426C83.7545 387.093 83.9621 387.009 84.5021 387.009C85.0421 387.009 85.2497 387.093 85.5821 387.384C85.7897 387.633 86.039 387.966 86.1221 388.131C86.3714 388.797 87.2021 395.151 87.4097 397.686C87.4928 399.222 87.5345 401.424 87.4514 403.626C87.2021 415.131 85.7066 419.868 82.0514 421.278C81.0959 421.653 79.8083 421.737 78.8945 421.488Z" fill="white"/>
<path d="M558.453 462.99H41.5317C33.8847 462.99 27.6855 469.189 27.6855 476.836V541.452C27.6855 549.099 33.8847 555.298 41.5317 555.298H558.453C566.1 555.298 572.3 549.099 572.3 541.452V476.836C572.3 469.189 566.1 462.99 558.453 462.99Z" fill="white" fill-opacity="0.2"/>
<path d="M64.7705 527.433C64.3967 527.268 64.0643 526.935 63.9395 526.521C63.7736 526.104 63.8567 525.522 63.815 525.066C63.815 522.99 63.8567 520.911 63.8567 518.835C63.8981 516.342 63.9395 513.852 63.9812 511.317C64.1057 503.052 64.2305 496.071 64.2719 495.78L64.355 495.282L63.1918 495.366C60.1594 495.531 56.0473 495.531 55.5904 495.366C55.0087 495.201 54.4688 494.451 54.4688 493.872C54.4688 493.08 54.9257 492.54 55.8812 492.252C56.4212 492.126 74.3656 491.793 75.3211 491.919C76.2766 492.084 77.3149 492.831 77.1073 493.953C76.9411 494.91 76.1105 495.117 75.2795 495.201C74.1581 495.282 72.9949 495.24 71.8735 495.282L67.6781 495.366L67.595 497.526C67.5536 498.732 67.4288 505.71 67.3457 512.979C67.2212 523.197 67.138 526.353 66.9718 526.686C66.598 527.601 65.5595 527.808 64.7705 527.433Z" fill="white"/>
<path d="M558.453 569.145H41.5317C33.8847 569.145 27.6855 575.344 27.6855 582.991V647.606C27.6855 655.253 33.8847 661.452 41.5317 661.452H558.453C566.1 661.452 572.3 655.253 572.3 647.606V582.991C572.3 575.344 566.1 569.145 558.453 569.145Z" fill="white" fill-opacity="0.2"/>
<path d="M58.8724 633.006C58.54 632.715 58.3741 632.424 58.2493 631.884C57.7924 629.808 57.8341 611.034 58.291 603.057C58.4986 599.403 58.5817 599.154 59.5372 598.653C60.0772 598.362 60.2848 598.362 66.8479 598.323C71.6248 598.281 73.7431 598.323 73.9924 598.446C75.1972 598.944 75.4462 600.315 74.5324 601.23C74.2831 601.479 73.9093 601.602 73.5355 601.602L70.4617 601.644C68.4262 601.686 65.6848 601.728 64.3141 601.77L61.8217 601.893L61.7386 602.31C61.6555 602.766 61.4062 609.123 61.4062 610.452V611.283H65.7262C69.3817 611.283 70.0879 611.322 70.5031 611.49C71.7079 612.072 71.7493 613.65 70.5862 614.397C70.2541 614.604 69.7555 614.646 65.8093 614.688L61.3648 614.73L61.3231 615.477C61.1572 616.599 61.3648 629.142 61.531 630.723C61.6555 631.884 61.6555 632.133 61.4479 632.508C60.991 633.504 59.7031 633.753 58.8724 633.006Z" fill="white"/>
<path d="M558.453 675.296H41.5317C33.8847 675.296 27.6855 681.495 27.6855 689.142V753.757C27.6855 761.404 33.8847 767.603 41.5317 767.603H558.453C566.1 767.603 572.3 761.404 572.3 753.757V689.142C572.3 681.495 566.1 675.296 558.453 675.296Z" fill="white" fill-opacity="0.2"/>
<path d="M60.6175 739.574C58.9144 739.199 57.9589 738.785 57.6265 738.203C56.9203 737.081 57.6682 735.752 58.9558 735.752C59.1634 735.752 59.662 735.878 60.0775 736.001C61.3234 736.457 62.6944 736.625 64.0234 736.541C66.8065 736.376 67.9696 735.005 67.2634 732.677C66.9313 731.639 65.8927 730.268 64.0234 728.441C60.4096 724.952 58.7482 723.209 58.042 722.168C55.4251 718.349 55.1344 714.401 57.1696 710.123C59.4544 705.428 65.8096 702.23 70.3789 705.968C71.7496 707.09 73.0789 709.043 73.0789 709.997C73.0789 710.954 72.3727 711.701 71.4175 711.701C70.7113 711.701 70.2544 711.329 69.7558 710.414C69.2158 709.376 68.2189 708.338 67.4296 708.005C64.4389 706.634 61.822 708.752 60.4513 711.287C59.2465 713.447 58.7482 716.147 59.7451 718.514C60.7834 721.007 63.1927 722.876 65.062 724.745C68.8003 728.483 69.7144 729.563 70.3375 731.225C71.1682 733.508 70.9603 735.629 69.7558 737.372C69.1327 738.245 68.0113 738.992 66.7234 739.409C65.1451 739.907 62.4865 739.988 60.6175 739.574Z" fill="white"/>
<path d="M558.453 781.453H41.5317C33.8847 781.453 27.6855 787.652 27.6855 795.299V859.915C27.6855 867.562 33.8847 873.761 41.5317 873.761H558.453C566.1 873.761 572.3 867.562 572.3 859.915V795.299C572.3 787.652 566.1 781.453 558.453 781.453Z" fill="white" fill-opacity="0.2"/>
<path d="M60.6175 845.731C58.9144 845.356 57.9589 844.942 57.6265 844.36C56.9203 843.238 57.6682 841.909 58.9558 841.909C59.1634 841.909 59.662 842.032 60.0775 842.158C61.3234 842.614 62.6944 842.782 64.0234 842.698C66.8065 842.533 67.9696 841.162 67.2634 838.834C66.9313 837.796 65.8927 836.425 64.0234 834.598C60.4096 831.109 58.7482 829.363 58.042 828.325C55.4251 824.503 55.1344 820.558 57.1696 816.28C59.4544 811.585 65.8096 808.387 70.3789 812.125C71.7496 813.247 73.0789 815.2 73.0789 816.154C73.0789 817.111 72.3727 817.858 71.4175 817.858C70.7113 817.858 70.2544 817.483 69.7558 816.571C69.2158 815.533 68.2189 814.492 67.4296 814.162C64.4389 812.791 61.822 814.909 60.4513 817.441C59.2465 819.601 58.7482 822.301 59.7451 824.671C60.7834 827.161 63.1927 829.033 65.062 830.902C68.8003 834.64 69.7144 835.72 70.3375 837.382C71.1682 839.665 70.9603 841.783 69.7558 843.529C69.1327 844.402 68.0113 845.149 66.7234 845.563C65.1451 846.061 62.4865 846.145 60.6175 845.731Z" fill="white"/>
<path d="M232.12 86.9177C229.739 86.2532 227.634 84.2594 226.139 81.4346C224.533 78.2225 222.982 74.0684 221.985 70.1363C221.542 68.4194 221.376 67.8653 221.265 68.1977C221.209 68.4746 220.933 69.9146 220.6 71.4101C219.825 75.1763 219.049 77.5025 217.444 80.7146C215.339 84.9794 213.733 86.4194 211.24 86.4194C206.588 86.4746 204.705 80.8808 204.04 77.1146C201.825 65.4839 202.489 53.9084 204.649 41.6132C204.926 40.2839 205.813 38.7332 207.529 39.1208C208.969 39.4532 209.579 40.727 209.08 42.3884C207.751 46.5425 206.089 63.047 207.862 74.0132C208.194 76.007 208.748 78.0563 209.468 79.9394C209.745 80.5484 210.022 81.2132 210.631 81.4901C213.345 82.9853 215.782 72.407 216.169 70.7453C217.111 66.4253 217.665 62.0501 218.274 57.7301C219.049 52.0253 219.216 51.527 220.268 51.0839C221.542 50.5301 222.76 50.9732 223.314 52.1915C223.591 52.7453 223.924 54.5177 224.422 58.1732C225.64 66.7025 226.526 70.5239 228.52 75.6194C229.406 77.9453 231.4 83.7053 234.889 82.3208C237.382 81.3239 238.766 74.8994 238.988 62.9915C239.099 56.5115 238.933 53.5208 238.046 47.4284C237.659 45.047 237.437 42.887 237.493 42.5546C237.548 42.2777 237.825 41.7794 238.157 41.5025C238.6 41.0594 238.877 40.9484 239.597 40.9484C240.317 40.9484 240.594 41.0594 241.037 41.447C241.314 41.7794 241.646 42.2225 241.757 42.4439C242.089 43.3301 243.197 51.8039 243.474 55.1825C243.585 57.2315 243.64 60.167 243.529 63.1025C243.197 78.4439 241.204 84.7577 236.329 86.6408C235.056 87.1394 233.339 87.2501 232.12 86.9177ZM266.524 54.2408C270.899 58.2839 272.838 66.0377 271.342 73.4594C271.342 73.5701 271.287 73.6253 271.287 73.7363C269.958 80.0501 265.084 87.8594 257.496 86.1425C255.059 85.5884 253.121 84.0377 251.681 82.0994C245.81 74.2901 246.973 60.0008 254.007 54.0746C257.939 50.7515 262.758 50.807 266.524 54.2408ZM267.078 71.8532C267.465 69.5825 267.355 65.8715 266.801 63.6563C265.97 60.4439 264.142 57.6194 262.148 56.6777C258.438 54.7946 254.395 58.5053 252.844 65.1515C251.736 70.0253 252.179 77.0039 256.278 80.4377C262.204 85.4225 266.247 76.5608 267.078 71.8532ZM277.678 85.4225C277.124 85.1453 276.736 84.4808 276.515 83.5946C276.46 83.2625 276.515 81.1025 276.626 78.7763C276.736 76.3946 276.847 69.8594 276.958 64.1546C277.124 53.0225 277.124 52.967 278.121 52.1915C279.229 51.3608 280.669 51.5825 281.333 52.7453C281.666 53.2994 281.721 53.5208 281.61 56.3453C281.555 58.8377 281.555 59.2808 281.776 59.0039C283.493 56.5115 284.38 55.3484 285.487 54.2963C287.315 52.6346 289.807 51.527 292.355 51.5825C293.629 51.5825 294.847 51.8594 295.955 52.4684C296.952 53.0225 298.226 53.7977 298.392 55.0163C298.447 55.3484 298.447 55.6808 298.336 56.0132C298.004 56.8994 297.395 57.4532 296.453 57.5639C295.789 57.6194 295.512 57.5639 294.57 56.8994C292.466 55.4594 289.752 56.2901 288.146 58.0625C286.595 59.7794 285.432 61.6625 284.546 63.8225C284.38 64.2653 284.213 64.7639 283.992 65.207C282.109 70.4132 281.167 75.287 281.167 80.4932C281.167 83.8163 281.001 84.5915 280.226 85.2563C279.616 85.7546 278.453 85.8653 277.678 85.4225ZM304.144 85.3115C303.424 84.9794 302.872 84.3146 302.704 83.4839C302.206 80.2163 302.761 44.2163 303.424 37.4039C303.646 35.0777 303.7 34.7453 304.144 34.1915C304.81 33.3053 305.86 33.0284 306.748 33.4715C307.135 33.6932 307.579 34.0808 307.801 34.4132C308.131 35.0225 308.131 35.1332 307.801 38.9546C307.522 42.5546 307.192 54.8501 307.192 61.8839C307.192 64.2653 307.192 64.5977 307.411 64.3763C308.02 63.767 311.566 58.6163 313.339 55.847C314.392 54.2408 315.442 52.6901 315.775 52.4132C317.272 51.1394 319.375 52.0808 319.375 54.0746C319.375 54.6284 318.988 55.3484 317.38 57.9515C316.219 59.7239 314.611 62.1053 313.78 63.3239C312.952 64.487 312.286 65.5394 312.286 65.6501C312.286 66.0377 312.784 66.7025 313.006 67.0901C313.561 68.1425 314.113 69.1394 314.722 70.1915C315.997 72.5177 317.272 74.7884 318.655 77.0594C319.432 78.3884 320.317 79.6625 321.091 80.9915C321.481 81.6008 321.811 82.1546 321.811 82.8746C321.868 84.3701 320.482 85.4225 319.042 84.9794C318.1 84.7025 317.602 83.7608 317.104 82.9853C315.055 80.1053 313.282 76.9484 311.566 73.847C310.348 71.5763 309.241 69.6932 309.184 69.5825C309.13 69.527 308.575 70.0253 308.02 70.7453L306.913 72.0746L307.135 77.8346C307.192 79.3853 307.246 80.9915 307.192 82.5977C307.192 83.7053 307.081 84.8684 305.86 85.367C305.308 85.5884 304.699 85.5332 304.144 85.3115ZM341.596 54.2408C345.97 58.2839 347.911 66.0377 346.414 73.4594C346.414 73.5701 346.36 73.6253 346.36 73.7363C345.031 80.0501 340.156 87.8594 332.569 86.1425C330.13 85.5884 328.192 84.0377 326.752 82.0994C320.881 74.2901 322.045 60.0008 329.08 54.0746C333.01 50.7515 337.831 50.807 341.596 54.2408ZM342.151 71.8532C342.538 69.5825 342.427 65.8715 341.872 63.6563C341.041 60.4439 339.214 57.6194 337.219 56.6777C333.511 54.7946 329.467 58.5053 327.916 65.1515C326.809 70.0253 327.25 77.0039 331.351 80.4377C337.276 85.4225 341.32 76.5608 342.151 71.8532ZM358.012 85.5332C355.021 84.647 353.248 81.6008 352.474 78.7763C350.644 72.0194 350.812 64.9301 351.256 58.007C351.31 56.6777 351.31 55.2932 351.754 54.0194C351.976 53.2994 352.804 52.5794 353.524 52.4132C354.301 52.247 355.354 52.8008 355.795 53.687C356.128 54.2963 356.128 54.4625 355.906 56.1239C355.576 59.1146 355.354 66.0377 355.576 68.807C355.741 71.1884 355.963 73.5701 356.35 75.8963C356.683 77.6684 357.346 80.6039 359.284 81.2132C362.608 82.2653 364.936 77.9453 365.932 75.5084C367.096 72.5177 367.924 69.4163 368.644 66.2594C369.034 64.487 369.421 62.7146 369.808 60.887C370.141 58.9484 370.474 57.0101 370.972 55.127C371.305 53.6315 372.688 52.0253 374.35 52.3577C374.905 52.5239 375.403 52.8008 375.625 53.3546C376.123 54.5177 375.844 56.3453 375.844 57.5639C375.844 59.6684 375.844 61.7177 375.844 63.8225C375.79 70.3577 375.79 75.4532 375.955 78.6653C376.234 84.2594 376.177 84.647 375.016 85.3115C374.239 85.8101 373.465 85.8101 372.745 85.3115C371.803 84.7577 371.635 84.2039 371.524 80.1608C371.47 78.1115 371.359 76.007 371.305 75.3977L371.194 74.2901L370.585 76.0625C369.754 78.2777 368.812 80.2163 367.816 81.4901C365.986 83.9825 362.941 86.0315 359.785 85.8653C359.176 85.8101 358.564 85.6994 358.012 85.5332ZM387.85 85.3115C387.46 85.0901 387.13 84.7577 387.019 84.2594C386.686 83.0963 386.797 81.767 386.74 80.5484C386.686 77.2253 386.686 73.847 386.686 70.5239L386.632 57.2315H383.752C382.09 57.2315 379.375 57.5639 379.042 55.3484C378.931 54.5732 379.21 53.8532 379.762 53.3546C380.704 52.4684 382.531 52.6901 383.752 52.6901H386.521V46.9853C386.521 45.4346 386.521 43.8284 386.575 42.2225C386.632 41.6132 386.632 40.8377 387.019 40.3394C387.406 39.7301 388.237 39.3977 388.957 39.4532C391.339 39.6194 391.06 42.3884 391.06 44.0501C391.117 45.047 391.117 45.9884 391.117 46.9853V52.6901L394.051 52.7453C395.272 52.7453 396.931 52.4684 397.762 53.687C398.317 54.5177 398.206 55.9025 397.375 56.5115C396.49 57.1763 394.939 57.0101 393.94 57.0653L391.171 57.1763V70.7453C391.171 74.0132 391.228 77.2808 391.171 80.5484C391.171 81.767 391.228 83.207 390.952 84.4253C390.619 85.7546 388.9 85.9763 387.85 85.3115Z" fill="white"/>
</svg>
