<svg width="888" height="183" viewBox="0 0 888 183" fill="none" xmlns="http://www.w3.org/2000/svg">
<path d="M14.5768 175.856C11.5867 175.856 8.97033 175.184 6.72774 173.838C4.63467 172.492 3.58812 170.624 3.58812 168.231C6.87726 164.942 8.52183 156.196 8.52183 141.993C8.52183 133.472 7.84905 121.062 6.50349 104.766C5.00844 89.2177 4.2609 76.9585 4.2609 67.9879L4.70943 55.6537C4.85892 52.0657 4.93368 47.9542 4.93368 43.3195C4.93368 39.1336 4.18617 33.826 2.6911 27.3972C0.897033 20.6695 0 15.9601 0 13.269C0 8.03628 5.75595 5.41992 17.2679 5.41992H20.6318C28.7051 5.41992 35.7318 7.88676 41.712 12.8204C46.4961 17.0066 50.5329 23.0616 53.8221 30.9853C56.0646 36.3676 58.0083 43.843 59.6526 53.4112C60.5499 61.7836 60.9984 68.3617 60.9984 73.1461V90.8623C60.6993 91.4605 60.5499 92.0584 60.5499 92.6566C60.5499 93.8524 60.6246 94.7494 60.774 95.3476C60.9234 95.9455 60.9984 96.6931 60.9984 97.5901C60.9984 102.374 60.2508 108.13 58.7556 114.858C57.4101 121.436 55.3917 128.164 52.7007 135.041C45.9729 151.487 38.4228 163.148 30.0507 170.026C25.1169 173.913 19.959 175.856 14.5768 175.856ZM19.2862 162.849C24.8179 159.411 29.6769 154.477 33.8631 148.048C38.0493 141.47 41.2635 134.219 43.506 126.295C47.5428 111.644 49.5612 96.8425 49.5612 81.892C49.5612 73.8187 48.8136 64.9978 47.3184 55.4296C45.6741 46.1602 42.1605 37.7878 36.7785 30.3127C34.2369 26.7245 31.0224 23.9586 27.1353 22.0151C23.2481 19.922 18.8377 18.8754 13.904 18.8754V19.0997C13.904 32.5552 14.801 52.888 16.5951 80.098C18.3892 107.159 19.2862 127.641 19.2862 141.545V162.849Z" fill="#B83A48"/>
<path d="M114.575 179.67C110.688 179.67 107.099 178.399 103.81 175.858C100.521 173.466 97.83 170.177 95.7369 165.99C91.4013 156.871 88.7103 146.928 87.6636 136.164C86.3181 125.998 85.6455 116.205 85.6455 106.786C85.6455 104.992 85.7202 103.497 85.8696 102.301V98.2645C85.8696 97.5169 85.7949 97.1431 85.6455 97.1431V93.1066L85.8696 77.4085C86.019 72.6241 86.6172 64.9993 87.6636 54.5341C88.4112 47.3578 90.1305 40.4059 92.8215 33.6781C93.8682 30.688 95.2137 28.4453 96.8583 26.9502C98.5029 25.3057 100.372 24.4834 102.465 24.4834C108.445 24.4834 113.827 25.6047 118.611 27.8473C123.395 29.9403 127.432 32.9305 130.721 36.8176C133.712 40.5553 136.253 45.19 138.346 50.7217C140.439 56.1037 141.934 61.8598 142.831 67.9894C143.728 74.2687 144.177 80.9218 144.177 87.9484V89.7427C144.177 94.3774 144.251 98.5633 144.401 102.301L144.625 115.084C144.625 158.141 134.609 179.67 114.575 179.67ZM113.678 170.251C116.369 170.251 118.836 169.205 121.078 167.112C123.321 164.869 125.04 161.879 126.236 158.141C129.077 150.517 130.796 142.294 131.394 133.473C132.142 125.848 132.515 119.27 132.515 113.738C132.515 107.01 131.992 98.1898 130.946 87.2758C130.049 75.7639 129.6 67.1674 129.6 61.486V57.4495C129.301 51.7681 127.358 46.8346 123.769 42.6484C120.331 38.4622 116.07 36.3691 110.987 36.3691C105.903 36.3691 102.539 39.2845 100.895 45.1153C99.3999 49.75 98.6523 55.7302 98.6523 63.0559C98.6523 65.8966 98.727 68.2885 98.8767 70.2322V76.2871L98.4282 86.6029C98.1291 89.7427 97.9797 93.1813 97.9797 96.919C97.9797 104.992 98.2038 112.991 98.6523 120.914C99.2505 132.127 100.745 143.041 103.138 153.656C105.53 164.72 109.043 170.251 113.678 170.251Z" fill="#B83A48"/>
<path d="M230.373 176.081C228.579 176.081 227.233 175.632 226.336 174.735C225.439 173.689 224.766 171.969 224.318 169.578L222.972 165.317V164.195C222.972 159.261 217.814 142.442 207.498 113.737C197.332 85.0322 189.333 63.8024 183.503 50.0477V162.85L184.4 164.419C184.549 164.718 184.848 165.242 185.297 165.989C185.745 166.737 185.969 167.484 185.969 168.232C185.969 170.175 185.297 171.82 183.951 173.166C182.605 174.511 180.961 175.184 179.017 175.184C174.233 175.184 171.841 170.624 171.841 161.504L171.617 123.156C171.467 111.644 171.393 98.7866 171.393 84.5837C171.393 79.7993 171.617 72.8474 172.065 63.7274C172.514 54.3086 172.738 47.3567 172.738 42.8714C172.738 35.8448 175.429 30.3131 180.811 26.2764V27.6219C181.708 27.3229 182.307 27.1734 182.605 27.1734C186.044 27.1734 190.38 33.1535 195.612 45.1142C199.799 54.6824 203.536 64.7741 206.825 75.389C210.264 86.0039 214.749 101.104 220.281 120.689L222.523 128.763C225.962 140.872 228.579 149.544 230.373 154.776C233.363 122.633 234.858 84.6584 234.858 40.8533V37.9379C234.708 37.0409 234.633 36.0689 234.633 35.0225C234.633 30.5372 236.427 28.2947 240.015 28.2947C242.109 28.2947 243.678 29.117 244.725 30.7616C245.921 32.4062 246.519 34.4993 246.519 37.0409V53.8601C246.22 76.8839 245.323 101.851 243.828 128.763C242.333 155.673 240.539 170.848 238.446 174.287C234.11 175.483 231.419 176.081 230.373 176.081Z" fill="#B83A48"/>
<path d="M286.103 57.0006C284.906 56.7015 284.309 55.356 284.309 52.9638C284.309 49.8243 285.131 44.442 286.776 36.8172C288.42 29.1924 290.663 21.9414 293.503 15.0641C296.493 7.43935 299.558 3.62695 302.697 3.62695C305.388 3.62695 306.735 5.27152 306.735 8.56063C306.735 14.8399 305.613 21.8666 303.372 29.6409C301.278 37.2657 298.586 43.7691 295.297 49.1514C291.859 54.384 288.794 57.0006 286.103 57.0006Z" fill="#B83A48"/>
<path d="M353.843 171.821L353.618 163.075C353.468 160.534 353.393 157.693 353.393 154.553L353.618 146.929C353.168 145.284 352.049 128.913 350.255 97.8162C348.461 66.7188 347.414 46.7601 347.114 37.9392C338.444 37.6401 332.912 36.7431 330.518 35.2479C328.874 34.0521 328.052 32.7063 328.052 31.2114C328.052 30.0153 328.799 28.9688 330.296 28.0718C331.94 27.0252 333.584 26.502 335.228 26.502C339.416 26.502 344.498 26.801 350.477 27.399C356.159 28.1465 361.241 28.5203 365.729 28.5203H369.317C373.949 28.5203 376.268 30.3144 376.268 33.9024C376.268 35.6964 375.521 37.1916 374.024 38.3877C372.53 39.4341 370.811 39.9573 368.867 39.9573C367.523 39.9573 365.579 39.7332 363.035 39.2847L358.55 38.3877L358.103 40.6302C358.103 53.9361 359.375 75.1659 361.916 104.32C364.307 131.679 365.504 152.909 365.504 168.009C365.504 169.803 364.682 171.373 363.035 172.718C361.541 174.064 359.822 174.737 357.878 174.737L353.843 171.821Z" fill="#B83A48"/>
<path d="M475.274 181.24C467.051 181.24 460.247 178.773 454.865 173.839C450.53 170.251 446.567 164.121 442.979 155.45C440.738 149.769 438.944 141.77 437.597 131.454C436.55 123.082 436.028 115.158 436.028 107.683C435.878 105.739 435.803 102.375 435.803 97.5912V80.9961C435.803 74.5674 436.028 66.8679 436.475 57.8976C437.075 50.2728 438.269 42.4983 440.063 34.5747C442.007 26.8004 444.848 20.2221 448.586 14.8399C452.324 9.1587 457.331 5.12205 463.61 2.72996C467.348 1.68342 470.861 1.16016 474.152 1.16016C480.431 1.16016 483.569 3.25323 483.569 7.4394C483.569 9.08394 482.972 10.4295 481.775 11.476C480.728 12.3731 479.309 12.8216 477.515 12.8216C476.918 12.8216 475.871 12.5973 474.374 12.1488L471.236 11.7003C468.395 11.7003 465.854 12.5973 463.61 14.3914C461.369 16.036 459.5 18.5028 458.006 21.7919C454.565 28.9682 452.249 36.8172 451.052 45.339C449.408 55.8045 448.511 64.9242 448.361 72.6987C448.064 79.4262 447.914 86.5278 447.914 94.0032V100.058C447.764 102.151 447.689 104.767 447.689 107.907C447.689 115.532 448.064 123.007 448.811 130.333C449.408 139.004 451.052 146.479 453.743 152.759C456.137 159.786 460.022 164.719 465.404 167.56C467.948 169.055 471.086 169.802 474.824 169.802C481.403 169.802 486.935 166.663 491.42 160.384C491.27 155.151 490.895 150.068 490.298 145.134C489.701 140.051 488.804 136.612 487.607 134.818C487.457 134.818 487.082 134.893 486.485 135.042C486.038 135.042 485.288 135.117 484.244 135.267L478.862 135.715C473.777 135.715 471.236 133.547 471.236 129.212C471.236 127.866 471.983 126.67 473.477 125.623C474.974 124.577 476.993 123.829 479.534 123.381C483.719 122.334 487.457 121.811 490.745 121.811C493.736 121.811 496.055 122.932 497.699 125.175C499.343 127.417 500.165 130.258 500.165 133.697C500.165 138.631 500.912 145.358 502.409 153.88C503.903 162.252 504.65 168.905 504.65 173.839C504.65 175.483 504.128 176.904 503.081 178.1C502.034 179.296 500.762 179.894 499.268 179.894C495.53 179.894 492.989 178.324 491.642 175.185V174.96L486.71 177.427C482.225 179.969 478.412 181.24 475.274 181.24Z" fill="#B83A48"/>
<path d="M534.05 175.186C521.042 175.186 514.538 172.943 514.538 168.458C514.538 164.869 516.857 163.075 521.492 163.075H523.958L526.199 163.3C527.396 163.3 528.218 162.926 528.668 162.178C529.115 161.431 529.34 160.085 529.34 158.142C529.34 155.6 529.19 151.638 528.89 146.256C528.443 142.668 527.921 136.239 527.321 126.97C525.977 104.095 525.302 86.8278 525.302 75.1662C525.302 70.9803 525.377 67.1679 525.527 63.729L525.752 52.2921C525.752 47.3583 525.527 43.2468 525.08 39.9576C522.686 40.5558 520.967 40.8549 519.92 40.8549C516.332 40.8549 514.538 39.0606 514.538 35.4726C514.538 33.6786 515.66 32.1087 517.904 30.7632C520.145 29.4176 522.986 28.4458 526.424 27.8478C532.406 26.6517 537.713 26.0537 542.348 26.0537C544.142 26.0537 545.636 26.7265 546.833 28.072C548.177 29.2681 548.849 30.6885 548.849 32.3331C548.849 33.9774 548.327 35.3979 547.28 36.594C546.383 37.7898 545.186 38.388 543.692 38.388C542.795 38.388 542.048 38.3133 541.451 38.1636H539.657C538.16 38.1636 537.038 38.5374 536.291 39.285C535.694 39.8829 535.394 41.079 535.394 42.873C535.394 57.375 536.291 79.203 538.085 108.356C538.385 113.739 538.982 121.663 539.879 132.128C540.626 139.005 541.001 146.032 541.001 153.208V161.73C541.898 161.581 543.392 161.506 545.486 161.506C551.765 161.506 554.906 164.122 554.906 169.355V170.7L549.299 174.513C549.149 174.513 548.627 174.587 547.73 174.737C546.98 174.737 545.486 174.737 543.245 174.737C538.46 175.036 535.394 175.186 534.05 175.186Z" fill="#B83A48"/>
<path d="M590.693 174.736C590.693 157.543 589.049 139.752 585.761 121.363C582.62 102.974 577.613 80.4731 570.734 53.861C570.437 52.3661 569.762 50.0486 568.715 46.9091C566.024 38.5367 564.68 33.2294 564.68 30.9866C564.68 29.6411 565.202 28.4451 566.249 27.3985C567.446 26.352 568.715 25.8287 570.062 25.8287C572.306 25.8287 574.397 27.6975 576.341 31.4351C578.285 35.0234 580.079 39.8822 581.723 46.0121C583.367 51.9923 585.161 59.4674 587.105 68.438C588.899 76.9598 591.068 90.0413 593.609 107.683L594.956 116.429L597.647 136.388C598.244 141.92 598.766 145.882 599.216 148.274C602.354 131.828 606.392 108.057 611.327 76.9598C615.362 50.3477 618.203 32.1827 619.847 22.4648H624.782C626.126 22.4648 627.323 22.9881 628.37 24.0347C629.417 24.9317 629.939 26.053 629.939 27.3985C629.939 32.7809 629.267 38.6114 627.92 44.8907C626.726 51.0206 624.857 58.421 622.313 67.0922C620.222 74.5676 618.8 80.174 618.053 83.9117C617.456 87.6494 616.856 93.5549 616.259 101.628C615.062 119.718 613.193 135.939 610.652 150.292C609.008 158.964 606.839 165.766 604.148 170.7C601.457 175.633 598.394 178.1 594.956 178.1L590.693 174.736Z" fill="#B83A48"/>
<path d="M662.583 178.324C660.639 178.324 658.845 177.652 657.201 176.306C655.707 174.96 654.885 173.316 654.735 171.372V161.057C654.585 159.711 654.51 158.141 654.51 156.347C654.51 153.207 654.285 148.423 653.838 141.995L653.388 127.642C653.388 120.316 653.613 109.402 654.063 94.9003C654.66 81.8932 654.96 70.9795 654.96 62.1586C654.96 60.0655 654.735 56.9257 654.285 52.7398C653.838 48.4039 653.613 45.2644 653.613 43.3207C653.613 32.7058 656.754 27.3984 663.033 27.3984C667.965 27.3984 673.647 28.3702 680.076 30.3139C686.655 32.2573 689.943 34.5748 689.943 37.2658C689.943 38.761 689.271 40.1812 687.924 41.5267C686.73 42.7228 685.233 43.6945 683.439 44.4421C677.16 42.1996 671.478 40.7044 666.396 39.9568C666.546 42.1996 666.621 45.4138 666.621 49.6C666.621 55.5802 666.546 60.9625 666.396 65.7466C665.946 72.9229 665.724 78.3052 665.724 81.8932L666.396 85.4815L669.984 85.2571C671.181 85.1077 672.675 85.033 674.469 85.033C681.645 85.033 685.233 87.1261 685.233 91.312C685.233 92.9566 684.561 94.3771 683.214 95.5729C681.87 96.6196 680.151 97.1428 678.057 97.1428C675.366 97.1428 673.272 96.9934 671.778 96.6943H666.171C666.471 100.581 666.621 106.263 666.621 113.738C666.621 121.213 666.546 127.941 666.396 133.921C665.946 143.041 665.724 149.843 665.724 154.329C665.724 162.701 665.874 166.887 666.171 166.887L673.572 166.663C676.113 166.513 679.179 166.439 682.767 166.439C688.449 166.439 691.29 168.233 691.29 171.821C691.29 173.914 690.318 175.484 688.374 176.53C686.58 177.726 684.336 178.324 681.645 178.324H662.583Z" fill="#B83A48"/>
<path d="M795.748 179.447C786.478 179.447 779.152 175.41 773.77 167.337C767.941 159.114 763.828 149.022 761.437 137.062C758.746 124.354 757.027 110.749 756.28 96.2469C755.533 83.0905 755.158 68.8125 755.158 53.4135V34.8C755.308 29.5674 755.383 24.0357 755.383 18.205C754.186 17.009 753.589 15.5139 753.589 13.7199C753.589 11.9258 754.261 10.356 755.605 9.01043C756.952 7.51538 758.446 6.76787 760.09 6.76787C765.475 6.76787 768.166 12.0753 768.166 22.6902C768.166 29.5674 768.538 42.5745 769.285 61.7112C770.035 80.8479 770.407 93.8547 770.407 100.732C771.154 102.676 771.829 106.563 772.426 112.394C773.173 118.224 773.548 123.008 773.548 126.746C773.548 130.035 774.07 134.147 775.117 139.08C776.164 143.864 777.658 148.724 779.602 153.657C781.546 158.89 784.087 163.226 787.228 166.664C790.366 169.953 793.654 171.598 797.095 171.598C799.186 171.598 800.905 170.925 802.252 169.58C803.746 168.234 804.718 166.29 805.168 163.749C806.065 159.563 806.512 155.451 806.512 151.415V107.684C806.512 102.152 805.99 95.1255 804.943 86.6037C804.046 77.185 803.596 70.0834 803.596 65.2992V63.7293C803.596 61.3374 803.524 59.1696 803.374 57.2259L803.149 50.7225C803.149 46.5364 802.924 40.1823 802.477 31.6605C801.877 24.0357 801.58 17.607 801.58 12.3743C801.58 10.7298 802.402 9.30944 804.046 8.1134C805.84 6.91736 807.784 6.31934 809.878 6.31934L815.482 11.4773V15.2897C815.482 17.0837 815.185 19.2516 814.585 21.7932C813.988 25.9793 813.688 28.3714 813.688 28.9694C813.688 42.5745 814.438 61.3374 815.932 85.2582C817.276 110.375 817.951 129.886 817.951 143.79C817.951 151.265 817.204 157.843 815.707 163.524C814.81 166.963 813.541 169.729 811.894 171.822C810.4 173.915 808.306 175.709 805.615 177.204C803.074 178.699 799.786 179.447 795.748 179.447Z" fill="#B83A48"/>
<path d="M851.894 176.98C849.95 169.056 848.978 158.067 848.978 144.013L849.428 124.054C849.725 118.074 849.875 111.421 849.875 104.095C848.978 102.003 848.531 100.134 848.531 98.489V97.8164C850.025 94.9757 850.772 88.547 850.772 78.53L850.997 68.2142C851.147 64.925 851.222 61.2623 851.222 57.2255C851.222 48.4046 850.622 41.4527 849.428 36.3695C849.875 34.2764 850.622 32.4824 851.669 30.9872C852.716 29.3428 853.985 28.5205 855.482 28.5205H865.349C869.534 28.5205 873.197 29.4923 876.338 31.4357C879.476 33.23 881.87 35.8463 883.514 39.2849C886.505 45.4145 887.999 52.6655 887.999 61.0379C887.999 67.0181 887.924 71.7275 887.774 75.1661C887.477 79.502 886.727 83.4638 885.533 87.0518C885.083 88.9955 884.411 90.6401 883.514 91.9856C882.767 93.1817 881.645 94.6766 880.151 96.4709C878.057 99.0125 874.619 101.404 869.834 103.647C867.89 104.694 865.349 105.665 862.208 106.562V130.558L862.658 144.911L863.105 151.863C863.705 160.235 864.002 167.336 864.002 173.167C864.002 174.961 863.255 176.456 861.761 177.652C860.267 178.998 858.545 179.671 856.604 179.671L851.894 176.98ZM862.433 97.3679C871.253 96.0221 875.666 83.3891 875.666 59.468C875.666 55.1324 875.441 51.7685 874.991 49.3766C874.544 47.5823 873.947 46.1621 873.197 45.1157C872.45 43.9196 871.328 42.9479 869.834 42.2003C868.19 41.3033 866.396 40.8548 864.452 40.8548C864.452 40.7051 863.63 40.6304 861.986 40.6304V53.4131C861.986 62.234 862.061 70.0829 862.208 76.9604C862.208 84.7346 862.283 89.8178 862.433 92.2097V97.3679Z" fill="#B83A48"/>
</svg>
