<svg width="296" height="61" viewBox="0 0 296 61" fill="none" xmlns="http://www.w3.org/2000/svg">
<path d="M4.85893 58.6191C3.86223 58.6191 2.99011 58.3949 2.24258 57.9464C1.54489 57.4978 1.19604 56.8749 1.19604 56.0775C2.29242 54.9812 2.84061 52.0658 2.84061 47.3315C2.84061 44.4909 2.61635 40.3545 2.16783 34.9225C1.66948 29.7396 1.4203 25.6532 1.4203 22.663L1.56981 18.5516C1.61964 17.3556 1.64456 15.9851 1.64456 14.4402C1.64456 13.0449 1.39539 11.2757 0.897033 9.13279C0.299011 6.89021 0 5.3204 0 4.42337C0 2.67914 1.91865 1.80702 5.75596 1.80702H6.87726C9.56836 1.80702 11.9106 2.6293 13.904 4.27386C15.4987 5.66925 16.8443 7.68757 17.9407 10.3288C18.6882 12.1229 19.3361 14.6147 19.8842 17.8041C20.1833 20.5949 20.3328 22.7876 20.3328 24.3824V30.2878C20.2331 30.4872 20.1833 30.6865 20.1833 30.8859C20.1833 31.2845 20.2082 31.5835 20.258 31.7829C20.3078 31.9822 20.3328 32.2314 20.3328 32.5304C20.3328 34.1251 20.0836 36.0438 19.5852 38.2864C19.1367 40.4791 18.4639 42.7217 17.5669 45.0141C15.3243 50.496 12.8076 54.3831 10.0169 56.6756C8.37231 57.9713 6.653 58.6191 4.85893 58.6191ZM6.42874 54.2835C8.27264 53.1373 9.89229 51.4927 11.2877 49.3498C12.6831 47.157 13.7545 44.74 14.502 42.0988C15.8476 37.2149 16.5204 32.2812 16.5204 27.2977C16.5204 24.6066 16.2712 21.6663 15.7728 18.4769C15.2247 15.3871 14.0535 12.5963 12.2595 10.1046C11.4123 8.90854 10.3408 7.98659 9.04509 7.33873C7.74937 6.64103 6.27923 6.29219 4.63467 6.29219V6.36694C4.63467 10.8521 4.93368 17.6297 5.53171 26.6997C6.12973 35.7199 6.42874 42.5473 6.42874 47.182V54.2835Z" fill="#B83A48"/>
<path d="M38.1917 59.8899C36.896 59.8899 35.6999 59.4663 34.6035 58.6191C33.5072 57.8218 32.6101 56.7254 31.9124 55.33C30.4672 52.2901 29.5702 48.976 29.2213 45.3879C28.7728 41.9991 28.5486 38.7349 28.5486 35.5953C28.5486 34.9973 28.5735 34.4989 28.6233 34.1002V32.7547C28.6233 32.5055 28.5984 32.3809 28.5486 32.3809V31.0354L28.6233 25.8027C28.6731 24.2079 28.8725 21.6663 29.2213 18.1779C29.4705 15.7858 30.0436 13.4685 30.9406 11.2259C31.2895 10.2292 31.738 9.48164 32.2862 8.98329C32.8344 8.4351 33.4573 8.16101 34.155 8.16101C36.1484 8.16101 37.9425 8.53477 39.5372 9.2823C41.1319 9.97999 42.4775 10.9767 43.5739 12.2724C44.5706 13.5183 45.4178 15.0632 46.1155 16.9071C46.8132 18.7011 47.3115 20.6198 47.6105 22.663C47.9095 24.7561 48.059 26.9738 48.059 29.316V29.9141C48.059 31.459 48.0839 32.8543 48.1338 34.1002L48.2085 38.3611C48.2085 52.7137 44.8696 59.8899 38.1917 59.8899ZM37.8927 56.7503C38.7897 56.7503 39.612 56.4015 40.3595 55.7038C41.107 54.9563 41.6801 53.9595 42.0788 52.7137C43.0257 50.1721 43.5988 47.4311 43.7981 44.4909C44.0473 41.9493 44.1719 39.7565 44.1719 37.9126C44.1719 35.67 43.9975 32.7298 43.6486 29.0918C43.3496 25.2545 43.2001 22.389 43.2001 20.4952V19.1497C43.1004 17.2559 42.4526 15.6114 41.2565 14.216C40.1103 12.8206 38.69 12.1229 36.9956 12.1229C35.3012 12.1229 34.1799 13.0947 33.6317 15.0383C33.1334 16.5832 32.8842 18.5766 32.8842 21.0185C32.8842 21.9654 32.9091 22.7627 32.959 23.4106V25.4289L32.8095 28.8675C32.7098 29.9141 32.66 31.0603 32.66 32.3062C32.66 34.9973 32.7347 37.6634 32.8842 40.3047C33.0836 44.0423 33.5819 47.6803 34.3793 51.2186C35.1766 54.9064 36.3478 56.7503 37.8927 56.7503Z" fill="#B83A48"/>
<path d="M76.7904 58.6939C76.1924 58.6939 75.7438 58.5444 75.4448 58.2454C75.1458 57.8965 74.9216 57.3234 74.7721 56.5261L74.3235 55.1058V54.732C74.3235 53.0874 72.6042 47.481 69.1656 37.9126C65.7768 28.3443 63.1106 21.2677 61.1671 16.6828V54.2835L61.4661 54.8067C61.5159 54.9064 61.6156 55.0808 61.7651 55.33C61.9146 55.5792 61.9893 55.8284 61.9893 56.0775C61.9893 56.7254 61.7651 57.2736 61.3166 57.7221C60.868 58.1706 60.3199 58.3949 59.672 58.3949C58.0773 58.3949 57.2799 56.8749 57.2799 53.835L57.2052 41.0522C57.1553 37.2149 57.1304 32.9291 57.1304 28.1948C57.1304 26.6 57.2052 24.2827 57.3547 21.2427C57.5042 18.1031 57.5789 15.7858 57.5789 14.2907C57.5789 11.9485 58.4759 10.1046 60.27 8.75903V9.20755C60.569 9.10788 60.7684 9.05804 60.868 9.05804C62.0142 9.05804 63.4595 11.0514 65.2037 15.0383C66.5991 18.2277 67.845 21.5916 68.9413 25.1299C70.0875 28.6682 71.5826 33.7015 73.4265 40.23L74.174 42.9211C75.3202 46.9577 76.1924 49.8481 76.7904 51.5924C77.7871 40.8778 78.2854 28.2197 78.2854 13.618V12.6462C78.2356 12.3472 78.2107 12.0232 78.2107 11.6744C78.2107 10.1793 78.8087 9.43181 80.0047 9.43181C80.7024 9.43181 81.2257 9.7059 81.5746 10.2541C81.9732 10.8023 82.1726 11.5 82.1726 12.3472V17.9536C82.0729 25.6282 81.7739 33.9507 81.2756 42.9211C80.7772 51.8914 80.1792 56.9497 79.4815 58.0959C78.0363 58.4946 77.1392 58.6939 76.7904 58.6939Z" fill="#B83A48"/>
<path d="M95.3676 19.0002C94.9689 18.9005 94.7696 18.452 94.7696 17.6546C94.7696 16.6081 95.0437 14.814 95.5919 12.2724C96.1401 9.73082 96.8876 7.31381 97.8345 5.02139C98.8312 2.4798 99.8528 1.209 100.899 1.209C101.796 1.209 102.245 1.75719 102.245 2.85356C102.245 4.94664 101.871 7.28889 101.124 9.88032C100.426 12.4219 99.5288 14.5897 98.4325 16.3838C97.2863 18.128 96.2647 19.0002 95.3676 19.0002Z" fill="#B83A48"/>
<path d="M117.948 57.2736L117.873 54.3582C117.823 53.511 117.798 52.5642 117.798 51.5176L117.873 48.976C117.723 48.4278 117.35 42.9709 116.752 32.6052C116.154 22.2394 115.805 15.5865 115.705 12.6462C112.815 12.5465 110.971 12.2475 110.173 11.7491C109.625 11.3505 109.351 10.9019 109.351 10.4036C109.351 10.0049 109.6 9.65606 110.099 9.35705C110.647 9.00821 111.195 8.83378 111.743 8.83378C113.139 8.83378 114.833 8.93345 116.826 9.13279C118.72 9.38197 120.414 9.50656 121.91 9.50656H123.106C124.65 9.50656 125.423 10.1046 125.423 11.3006C125.423 11.8986 125.174 12.397 124.675 12.7957C124.177 13.1445 123.604 13.3189 122.956 13.3189C122.508 13.3189 121.86 13.2442 121.012 13.0947L119.517 12.7957L119.368 13.5432C119.368 17.9785 119.792 25.0551 120.639 34.773C121.436 43.8928 121.835 50.9694 121.835 56.0028C121.835 56.6008 121.561 57.1241 121.012 57.5726C120.514 58.0211 119.941 58.2454 119.293 58.2454L117.948 57.2736Z" fill="#B83A48"/>
<path d="M158.425 60.4132C155.684 60.4132 153.416 59.5909 151.622 57.9464C150.177 56.7503 148.856 54.7071 147.66 51.8166C146.913 49.9229 146.315 47.2567 145.866 43.8181C145.517 41.0273 145.343 38.3861 145.343 35.8943C145.293 35.2464 145.268 34.1251 145.268 32.5304V26.9987C145.268 24.8558 145.343 22.2893 145.492 19.2992C145.692 16.7576 146.09 14.1661 146.688 11.5249C147.336 8.93345 148.283 6.74071 149.529 4.94664C150.775 3.0529 152.444 1.70735 154.537 0.909986C155.783 0.561141 156.954 0.386719 158.051 0.386719C160.144 0.386719 161.19 1.08441 161.19 2.4798C161.19 3.02798 160.991 3.4765 160.592 3.82535C160.243 4.12436 159.77 4.27386 159.172 4.27386C158.973 4.27386 158.624 4.19911 158.125 4.0496L157.079 3.9001C156.132 3.9001 155.285 4.19911 154.537 4.79713C153.79 5.34532 153.167 6.1676 152.669 7.26397C151.522 9.65606 150.75 12.2724 150.351 15.113C149.803 18.6015 149.504 21.6414 149.454 24.2329C149.355 26.4754 149.305 28.8426 149.305 31.3344V33.3527C149.255 34.0504 149.23 34.9225 149.23 35.969C149.23 38.5106 149.355 41.0024 149.604 43.4443C149.803 46.3348 150.351 48.8265 151.248 50.9196C152.046 53.2619 153.341 54.9064 155.135 55.8533C155.983 56.3516 157.029 56.6008 158.275 56.6008C160.468 56.6008 162.312 55.5543 163.807 53.4612C163.757 51.717 163.632 50.0226 163.433 48.378C163.234 46.6836 162.935 45.5374 162.536 44.9394C162.486 44.9394 162.361 44.9643 162.162 45.0141C162.013 45.0141 161.763 45.039 161.415 45.0889L159.621 45.2384C157.926 45.2384 157.079 44.5158 157.079 43.0706C157.079 42.622 157.328 42.2234 157.826 41.8745C158.325 41.5257 158.998 41.2765 159.845 41.127C161.24 40.7781 162.486 40.6037 163.582 40.6037C164.579 40.6037 165.352 40.9775 165.9 41.725C166.448 42.4725 166.722 43.4194 166.722 44.5656C166.722 46.2102 166.971 48.4528 167.47 51.2934C167.968 54.0841 168.217 56.3018 168.217 57.9464C168.217 58.4945 168.043 58.968 167.694 59.3667C167.345 59.7653 166.921 59.9647 166.423 59.9647C165.177 59.9647 164.33 59.4414 163.881 58.3949V58.3201L162.237 59.1424C160.742 59.9896 159.471 60.4132 158.425 60.4132Z" fill="#B83A48"/>
<path d="M178.017 58.3949C173.681 58.3949 171.513 57.6473 171.513 56.1523C171.513 54.9562 172.286 54.3582 173.831 54.3582H174.653L175.4 54.433C175.799 54.433 176.073 54.3084 176.223 54.0592C176.372 53.81 176.447 53.3615 176.447 52.7137C176.447 51.8665 176.397 50.5458 176.297 48.7518C176.148 47.5557 175.974 45.4128 175.774 42.323C175.326 34.6982 175.101 28.9423 175.101 25.0551C175.101 23.6598 175.126 22.389 175.176 21.2427L175.251 17.4304C175.251 15.7858 175.176 14.4153 175.027 13.3189C174.229 13.5183 173.656 13.618 173.307 13.618C172.111 13.618 171.513 13.0199 171.513 11.8239C171.513 11.2259 171.887 10.7026 172.635 10.2541C173.382 9.80557 174.329 9.48164 175.475 9.2823C177.469 8.88362 179.238 8.68428 180.783 8.68428C181.381 8.68428 181.879 8.90854 182.278 9.35705C182.726 9.75573 182.95 10.2292 182.95 10.7774C182.95 11.3255 182.776 11.799 182.427 12.1977C182.128 12.5963 181.729 12.7957 181.231 12.7957C180.932 12.7957 180.683 12.7708 180.484 12.7209H179.886C179.387 12.7209 179.013 12.8455 178.764 13.0947C178.565 13.294 178.465 13.6927 178.465 14.2907C178.465 19.1247 178.764 26.4007 179.362 36.1185C179.462 37.9126 179.661 40.5539 179.96 44.0423C180.209 46.3348 180.334 48.677 180.334 51.0691V53.9097C180.633 53.8599 181.131 53.835 181.829 53.835C183.922 53.835 184.969 54.7071 184.969 56.4513V56.8998L183.1 58.1706C183.05 58.1706 182.876 58.1955 182.577 58.2454C182.327 58.2454 181.829 58.2454 181.082 58.2454C179.487 58.345 178.465 58.3949 178.017 58.3949Z" fill="#B83A48"/>
<path d="M196.898 58.2454C196.898 52.5143 196.35 46.5839 195.254 40.4542C194.207 34.3245 192.538 26.8243 190.245 17.9536C190.146 17.4553 189.921 16.6828 189.572 15.6363C188.675 12.8455 188.227 11.0764 188.227 10.3288C188.227 9.88032 188.401 9.48164 188.75 9.13279C189.149 8.78395 189.572 8.60952 190.021 8.60952C190.769 8.60952 191.466 9.23246 192.114 10.4783C192.762 11.6744 193.36 13.294 193.908 15.3373C194.456 17.3307 195.054 19.8224 195.702 22.8126C196.3 25.6532 197.023 30.0137 197.87 35.8943L198.319 38.8097L199.216 45.4626C199.415 47.3065 199.589 48.6272 199.739 49.4245C200.785 43.9427 202.131 36.0189 203.776 25.6532C205.121 16.7825 206.068 10.7275 206.616 7.48823H208.261C208.709 7.48823 209.108 7.66265 209.457 8.0115C209.806 8.31051 209.98 8.68428 209.98 9.13279C209.98 10.9269 209.756 12.8704 209.307 14.9635C208.909 17.0068 208.286 19.4736 207.438 22.364C206.741 24.8558 206.267 26.7246 206.018 27.9705C205.819 29.2164 205.619 31.1849 205.42 33.876C205.021 39.906 204.398 45.3131 203.551 50.0973C203.003 52.9878 202.28 55.2553 201.383 56.8998C200.486 58.5444 199.465 59.3667 198.319 59.3667L196.898 58.2454Z" fill="#B83A48"/>
<path d="M220.861 59.4414C220.213 59.4414 219.615 59.2172 219.067 58.7686C218.569 58.3201 218.295 57.7719 218.245 57.1241V53.6855C218.195 53.2369 218.17 52.7137 218.17 52.1156C218.17 51.0691 218.095 49.4744 217.946 47.3315L217.796 42.5473C217.796 40.1054 217.871 36.4674 218.021 31.6334C218.22 27.2977 218.32 23.6598 218.32 20.7195C218.32 20.0218 218.245 18.9752 218.095 17.5799C217.946 16.1346 217.871 15.0881 217.871 14.4402C217.871 10.9019 218.918 9.13279 221.011 9.13279C222.655 9.13279 224.549 9.45672 226.692 10.1046C228.885 10.7524 229.981 11.5249 229.981 12.4219C229.981 12.9203 229.757 13.3937 229.308 13.8422C228.91 14.2409 228.411 14.5648 227.813 14.814C225.72 14.0665 223.826 13.5681 222.132 13.3189C222.182 14.0665 222.207 15.1379 222.207 16.5333C222.207 18.5267 222.182 20.3208 222.132 21.9155C221.982 24.3076 221.908 26.1017 221.908 27.2977L222.132 28.4938L223.328 28.419C223.727 28.3692 224.225 28.3443 224.823 28.3443C227.215 28.3443 228.411 29.042 228.411 30.4373C228.411 30.9855 228.187 31.459 227.738 31.8576C227.29 32.2065 226.717 32.3809 226.019 32.3809C225.122 32.3809 224.424 32.3311 223.926 32.2314H222.057C222.157 33.5271 222.207 35.4209 222.207 37.9126C222.207 40.4044 222.182 42.647 222.132 44.6404C221.982 47.6803 221.908 49.9478 221.908 51.4429C221.908 54.2336 221.958 55.629 222.057 55.629L224.524 55.5543C225.371 55.5044 226.393 55.4795 227.589 55.4795C229.483 55.4795 230.43 56.0775 230.43 57.2736C230.43 57.9713 230.106 58.4946 229.458 58.8434C228.86 59.2421 228.112 59.4414 227.215 59.4414H220.861Z" fill="#B83A48"/>
<path d="M265.249 59.8152C262.159 59.8152 259.717 58.4696 257.923 55.7785C255.98 53.0376 254.609 49.6737 253.812 45.6869C252.915 41.4509 252.342 36.9159 252.093 32.0819C251.844 27.6964 251.719 22.9371 251.719 17.8041V11.5996C251.769 9.8554 251.794 8.0115 251.794 6.06793C251.395 5.66925 251.196 5.17089 251.196 4.57287C251.196 3.97485 251.42 3.45158 251.868 3.00306C252.317 2.50471 252.815 2.25554 253.363 2.25554C255.158 2.25554 256.055 4.02469 256.055 7.56298C256.055 9.8554 256.179 14.1911 256.428 20.57C256.678 26.9489 256.802 31.2845 256.802 33.577C257.051 34.2248 257.276 35.5205 257.475 37.4641C257.724 39.4077 257.849 41.0024 257.849 42.2483C257.849 43.3447 258.023 44.7151 258.372 46.3597C258.721 47.9544 259.219 49.5741 259.867 51.2186C260.515 52.9628 261.362 54.4081 262.409 55.5543C263.455 56.6506 264.551 57.1988 265.698 57.1988C266.395 57.1988 266.968 56.9746 267.417 56.5261C267.915 56.0775 268.239 55.4297 268.389 54.5825C268.688 53.1871 268.837 51.8166 268.837 50.4711V35.8943C268.837 34.0504 268.663 31.7081 268.314 28.8675C268.015 25.7279 267.865 23.3607 267.865 21.766V21.2427C267.865 20.4454 267.841 19.7228 267.791 19.0749L267.716 16.9071C267.716 15.5117 267.641 13.3937 267.492 10.5531C267.292 8.0115 267.193 5.86859 267.193 4.12435C267.193 3.57617 267.467 3.10273 268.015 2.70405C268.613 2.30537 269.261 2.10603 269.959 2.10603L271.827 3.82535V5.09614C271.827 5.69416 271.728 6.41677 271.528 7.26397C271.329 8.65936 271.229 9.45672 271.229 9.65606C271.229 14.1911 271.479 20.4454 271.977 28.419C272.425 36.7913 272.65 43.2948 272.65 47.9295C272.65 50.4213 272.401 52.614 271.902 54.5077C271.603 55.6539 271.18 56.5759 270.631 57.2736C270.133 57.9713 269.435 58.5693 268.538 59.0677C267.691 59.566 266.595 59.8152 265.249 59.8152Z" fill="#B83A48"/>
<path d="M283.965 58.9929C283.317 56.3516 282.993 52.6888 282.993 48.0042L283.143 41.3512C283.242 39.3578 283.292 37.1402 283.292 34.6982C282.993 34.0006 282.844 33.3776 282.844 32.8294V32.6052C283.342 31.6583 283.591 29.5154 283.591 26.1764L283.666 22.7378C283.716 21.6414 283.741 20.4205 283.741 19.0749C283.741 16.1346 283.541 13.8173 283.143 12.1229C283.292 11.4252 283.541 10.8272 283.89 10.3288C284.239 9.78065 284.662 9.50656 285.161 9.50656H288.45C289.845 9.50656 291.066 9.83049 292.113 10.4783C293.159 11.0764 293.957 11.9485 294.505 13.0947C295.502 15.1379 296 17.5549 296 20.3457C296 22.3391 295.975 23.9089 295.925 25.0551C295.826 26.5004 295.576 27.821 295.178 29.017C295.028 29.6649 294.804 30.2131 294.505 30.6616C294.256 31.0603 293.882 31.5586 293.384 32.1567C292.686 33.0039 291.54 33.8012 289.945 34.5487C289.297 34.8976 288.45 35.2215 287.403 35.5205V43.5191L287.553 48.3033L287.702 50.6206C287.902 53.4114 288.001 55.7785 288.001 57.7221C288.001 58.3201 287.752 58.8185 287.254 59.2172C286.756 59.6657 286.182 59.8899 285.535 59.8899L283.965 58.9929ZM287.478 32.4557C290.418 32.0071 291.889 27.7961 291.889 19.8224C291.889 18.3772 291.814 17.2559 291.664 16.4586C291.515 15.8605 291.316 15.3871 291.066 15.0383C290.817 14.6396 290.443 14.3157 289.945 14.0665C289.397 13.7675 288.799 13.618 288.151 13.618C288.151 13.5681 287.877 13.5432 287.329 13.5432V17.8041C287.329 20.7444 287.354 23.3607 287.403 25.6532C287.403 28.2446 287.428 29.939 287.478 30.7363V32.4557Z" fill="#B83A48"/>
</svg>
