<svg width="768" height="927" viewBox="0 0 768 927" fill="none" xmlns="http://www.w3.org/2000/svg">
<g clip-path="url(#clip0_1105_2431)">
<path d="M750.547 6.98438H17.4571C11.6732 6.98438 6.98438 11.6732 6.98438 17.4571V907.639C6.98438 913.423 11.6732 918.111 17.4571 918.111H750.547C756.331 918.111 761.019 913.423 761.019 907.639V17.4571C761.019 11.6732 756.331 6.98438 750.547 6.98438Z" fill="#E7B545" fill-opacity="0.15" stroke="#E7B545" stroke-width="13.9636"/>
<path d="M71.4961 85.2539H696.37" stroke="#E7B545" stroke-width="3.49092" stroke-linecap="round"/>
<path d="M71.4961 85.2539H696.37" stroke="black" stroke-opacity="0.04" stroke-width="3.49092" stroke-linecap="round"/>
<path d="M71.4961 155.074H696.37" stroke="#E7B545" stroke-width="3.49092" stroke-linecap="round"/>
<path d="M71.4961 155.074H696.37" stroke="black" stroke-opacity="0.04" stroke-width="3.49092" stroke-linecap="round"/>
<path d="M71.4961 224.889H696.37" stroke="#E7B545" stroke-width="3.49092" stroke-linecap="round"/>
<path d="M71.4961 224.889H696.37" stroke="black" stroke-opacity="0.04" stroke-width="3.49092" stroke-linecap="round"/>
<path d="M71.4961 294.709H696.37" stroke="#E7B545" stroke-width="3.49092" stroke-linecap="round"/>
<path d="M71.4961 294.709H696.37" stroke="black" stroke-opacity="0.04" stroke-width="3.49092" stroke-linecap="round"/>
<path d="M71.4961 364.529H696.37" stroke="#E7B545" stroke-width="3.49092" stroke-linecap="round"/>
<path d="M71.4961 364.529H696.37" stroke="black" stroke-opacity="0.04" stroke-width="3.49092" stroke-linecap="round"/>
<path d="M71.4961 434.344H696.37" stroke="#E7B545" stroke-width="3.49092" stroke-linecap="round"/>
<path d="M71.4961 434.344H696.37" stroke="black" stroke-opacity="0.04" stroke-width="3.49092" stroke-linecap="round"/>
<path d="M71.4961 504.164H696.37" stroke="#E7B545" stroke-width="3.49092" stroke-linecap="round"/>
<path d="M71.4961 504.164H696.37" stroke="black" stroke-opacity="0.04" stroke-width="3.49092" stroke-linecap="round"/>
<path d="M71.4961 573.979H696.37" stroke="#E7B545" stroke-width="3.49092" stroke-linecap="round"/>
<path d="M71.4961 573.979H696.37" stroke="black" stroke-opacity="0.04" stroke-width="3.49092" stroke-linecap="round"/>
<path d="M71.4961 643.799H696.37" stroke="#E7B545" stroke-width="3.49092" stroke-linecap="round"/>
<path d="M71.4961 643.799H696.37" stroke="black" stroke-opacity="0.04" stroke-width="3.49092" stroke-linecap="round"/>
<path d="M71.4961 713.619H696.37" stroke="#E7B545" stroke-width="3.49092" stroke-linecap="round"/>
<path d="M71.4961 713.619H696.37" stroke="black" stroke-opacity="0.04" stroke-width="3.49092" stroke-linecap="round"/>
<path d="M71.4961 783.434H696.37" stroke="#E7B545" stroke-width="3.49092" stroke-linecap="round"/>
<path d="M71.4961 783.434H696.37" stroke="black" stroke-opacity="0.04" stroke-width="3.49092" stroke-linecap="round"/>
<path d="M71.4961 853.254H696.37" stroke="#E7B545" stroke-width="3.49092" stroke-linecap="round"/>
<path d="M71.4961 853.254H696.37" stroke="black" stroke-opacity="0.04" stroke-width="3.49092" stroke-linecap="round"/>
</g>
<defs>
<clipPath id="clip0_1105_2431">
<rect width="768" height="927" fill="white"/>
</clipPath>
</defs>
</svg>
