<svg width="256" height="309" viewBox="0 0 256 309" fill="none" xmlns="http://www.w3.org/2000/svg">
<rect x="2.32727" y="2.32727" width="251.345" height="303.709" rx="3.49091" fill="#E7B545" fill-opacity="0.15" stroke="#E7B545" stroke-width="4.65455"/>
<line x1="23.8318" y1="28.4182" x2="232.123" y2="28.4182" stroke="#E7B545" stroke-width="1.16364" stroke-linecap="round"/>
<line x1="23.8318" y1="28.4182" x2="232.123" y2="28.4182" stroke="black" stroke-opacity="0.04" stroke-width="1.16364" stroke-linecap="round"/>
<line x1="23.8318" y1="51.6909" x2="232.123" y2="51.6909" stroke="#E7B545" stroke-width="1.16364" stroke-linecap="round"/>
<line x1="23.8318" y1="51.6909" x2="232.123" y2="51.6909" stroke="black" stroke-opacity="0.04" stroke-width="1.16364" stroke-linecap="round"/>
<line x1="23.8318" y1="74.9636" x2="232.123" y2="74.9636" stroke="#E7B545" stroke-width="1.16364" stroke-linecap="round"/>
<line x1="23.8318" y1="74.9636" x2="232.123" y2="74.9636" stroke="black" stroke-opacity="0.04" stroke-width="1.16364" stroke-linecap="round"/>
<line x1="23.8318" y1="98.2365" x2="232.123" y2="98.2365" stroke="#E7B545" stroke-width="1.16364" stroke-linecap="round"/>
<line x1="23.8318" y1="98.2365" x2="232.123" y2="98.2365" stroke="black" stroke-opacity="0.04" stroke-width="1.16364" stroke-linecap="round"/>
<line x1="23.8318" y1="121.509" x2="232.123" y2="121.509" stroke="#E7B545" stroke-width="1.16364" stroke-linecap="round"/>
<line x1="23.8318" y1="121.509" x2="232.123" y2="121.509" stroke="black" stroke-opacity="0.04" stroke-width="1.16364" stroke-linecap="round"/>
<line x1="23.8318" y1="144.782" x2="232.123" y2="144.782" stroke="#E7B545" stroke-width="1.16364" stroke-linecap="round"/>
<line x1="23.8318" y1="144.782" x2="232.123" y2="144.782" stroke="black" stroke-opacity="0.04" stroke-width="1.16364" stroke-linecap="round"/>
<line x1="23.8318" y1="168.055" x2="232.123" y2="168.055" stroke="#E7B545" stroke-width="1.16364" stroke-linecap="round"/>
<line x1="23.8318" y1="168.055" x2="232.123" y2="168.055" stroke="black" stroke-opacity="0.04" stroke-width="1.16364" stroke-linecap="round"/>
<line x1="23.8318" y1="191.327" x2="232.123" y2="191.327" stroke="#E7B545" stroke-width="1.16364" stroke-linecap="round"/>
<line x1="23.8318" y1="191.327" x2="232.123" y2="191.327" stroke="black" stroke-opacity="0.04" stroke-width="1.16364" stroke-linecap="round"/>
<line x1="23.8318" y1="214.6" x2="232.123" y2="214.6" stroke="#E7B545" stroke-width="1.16364" stroke-linecap="round"/>
<line x1="23.8318" y1="214.6" x2="232.123" y2="214.6" stroke="black" stroke-opacity="0.04" stroke-width="1.16364" stroke-linecap="round"/>
<line x1="23.8318" y1="237.873" x2="232.123" y2="237.873" stroke="#E7B545" stroke-width="1.16364" stroke-linecap="round"/>
<line x1="23.8318" y1="237.873" x2="232.123" y2="237.873" stroke="black" stroke-opacity="0.04" stroke-width="1.16364" stroke-linecap="round"/>
<line x1="23.8318" y1="261.145" x2="232.123" y2="261.145" stroke="#E7B545" stroke-width="1.16364" stroke-linecap="round"/>
<line x1="23.8318" y1="261.145" x2="232.123" y2="261.145" stroke="black" stroke-opacity="0.04" stroke-width="1.16364" stroke-linecap="round"/>
<line x1="23.8318" y1="284.418" x2="232.123" y2="284.418" stroke="#E7B545" stroke-width="1.16364" stroke-linecap="round"/>
<line x1="23.8318" y1="284.418" x2="232.123" y2="284.418" stroke="black" stroke-opacity="0.04" stroke-width="1.16364" stroke-linecap="round"/>
</svg>
