<svg width="64" height="78" viewBox="0 0 64 78" fill="none" xmlns="http://www.w3.org/2000/svg">
<rect x="0.581818" y="0.581818" width="62.8364" height="75.9273" rx="0.872727" fill="#E7B545" fill-opacity="0.15" stroke="#E7B545" stroke-width="1.16364"/>
<line x1="5.95795" y1="7.10455" x2="58.0307" y2="7.10455" stroke="#E7B545" stroke-width="0.290909" stroke-linecap="round"/>
<line x1="5.95795" y1="7.10455" x2="58.0307" y2="7.10455" stroke="black" stroke-opacity="0.04" stroke-width="0.290909" stroke-linecap="round"/>
<line x1="5.95795" y1="12.9249" x2="58.0307" y2="12.9249" stroke="#E7B545" stroke-width="0.290909" stroke-linecap="round"/>
<line x1="5.95795" y1="12.9249" x2="58.0307" y2="12.9249" stroke="black" stroke-opacity="0.04" stroke-width="0.290909" stroke-linecap="round"/>
<line x1="5.95795" y1="18.7374" x2="58.0307" y2="18.7374" stroke="#E7B545" stroke-width="0.290909" stroke-linecap="round"/>
<line x1="5.95795" y1="18.7374" x2="58.0307" y2="18.7374" stroke="black" stroke-opacity="0.04" stroke-width="0.290909" stroke-linecap="round"/>
<line x1="5.95795" y1="24.5577" x2="58.0307" y2="24.5577" stroke="#E7B545" stroke-width="0.290909" stroke-linecap="round"/>
<line x1="5.95795" y1="24.5577" x2="58.0307" y2="24.5577" stroke="black" stroke-opacity="0.04" stroke-width="0.290909" stroke-linecap="round"/>
<line x1="5.95795" y1="30.378" x2="58.0307" y2="30.378" stroke="#E7B545" stroke-width="0.290909" stroke-linecap="round"/>
<line x1="5.95795" y1="30.378" x2="58.0307" y2="30.378" stroke="black" stroke-opacity="0.04" stroke-width="0.290909" stroke-linecap="round"/>
<line x1="5.95795" y1="36.1983" x2="58.0307" y2="36.1983" stroke="#E7B545" stroke-width="0.290909" stroke-linecap="round"/>
<line x1="5.95795" y1="36.1983" x2="58.0307" y2="36.1983" stroke="black" stroke-opacity="0.04" stroke-width="0.290909" stroke-linecap="round"/>
<line x1="5.95795" y1="42.0108" x2="58.0307" y2="42.0108" stroke="#E7B545" stroke-width="0.290909" stroke-linecap="round"/>
<line x1="5.95795" y1="42.0108" x2="58.0307" y2="42.0108" stroke="black" stroke-opacity="0.04" stroke-width="0.290909" stroke-linecap="round"/>
<line x1="5.95795" y1="47.8311" x2="58.0307" y2="47.8311" stroke="#E7B545" stroke-width="0.290909" stroke-linecap="round"/>
<line x1="5.95795" y1="47.8311" x2="58.0307" y2="47.8311" stroke="black" stroke-opacity="0.04" stroke-width="0.290909" stroke-linecap="round"/>
<line x1="5.95795" y1="53.6514" x2="58.0307" y2="53.6514" stroke="#E7B545" stroke-width="0.290909" stroke-linecap="round"/>
<line x1="5.95795" y1="53.6514" x2="58.0307" y2="53.6514" stroke="black" stroke-opacity="0.04" stroke-width="0.290909" stroke-linecap="round"/>
<line x1="5.95795" y1="59.4717" x2="58.0307" y2="59.4717" stroke="#E7B545" stroke-width="0.290909" stroke-linecap="round"/>
<line x1="5.95795" y1="59.4717" x2="58.0307" y2="59.4717" stroke="black" stroke-opacity="0.04" stroke-width="0.290909" stroke-linecap="round"/>
<line x1="5.95795" y1="65.2842" x2="58.0307" y2="65.2842" stroke="#E7B545" stroke-width="0.290909" stroke-linecap="round"/>
<line x1="5.95795" y1="65.2842" x2="58.0307" y2="65.2842" stroke="black" stroke-opacity="0.04" stroke-width="0.290909" stroke-linecap="round"/>
<line x1="5.95795" y1="71.1045" x2="58.0307" y2="71.1045" stroke="#E7B545" stroke-width="0.290909" stroke-linecap="round"/>
<line x1="5.95795" y1="71.1045" x2="58.0307" y2="71.1045" stroke="black" stroke-opacity="0.04" stroke-width="0.290909" stroke-linecap="round"/>
</svg>
