<svg width="888" height="633" viewBox="0 0 888 633" fill="none" xmlns="http://www.w3.org/2000/svg">
<g clip-path="url(#clip0_1105_2283)">
<path d="M29.3303 2.82413L1.19557 34.9479C0.424863 35.8278 0 36.9579 0 38.1276V501.567C0 503.124 0.753432 504.588 2.02273 505.494L29.5143 525.114C30.3324 525.696 31.3125 526.011 32.3178 526.011H674.259C675.954 526.011 677.523 526.899 678.396 528.351L738.861 629.031C740.721 632.127 745.194 632.16 747.099 629.091L809.655 528.291C810.534 526.872 812.085 526.011 813.753 526.011H855.681C856.686 526.011 857.667 525.696 858.486 525.114L885.978 505.494C887.247 504.588 888 503.124 888 501.567V38.1276C888 36.9579 887.574 35.8278 886.803 34.9479L858.669 2.82413C857.754 1.77781 856.431 1.17773 855.039 1.17773H32.9607C31.5699 1.17773 30.2466 1.77782 29.3303 2.82413Z" fill="#9AE6EA"/>
<path d="M883.172 38.1296L855.038 6.00586H32.9598L4.82523 38.1296L4.8252 501.569L32.3169 521.186H674.258C677.648 521.186 680.789 522.965 682.532 525.869L742.997 626.549L805.553 525.749C807.311 522.911 810.413 521.186 813.752 521.186H855.68L883.172 501.569V38.1296ZM883.172 38.1296L886.802 34.9499" stroke="black" stroke-opacity="0.1" stroke-width="9.65217"/>
</g>
<defs>
<clipPath id="clip0_1105_2283">
<rect width="888" height="633" fill="white"/>
</clipPath>
</defs>
</svg>
