<svg width="296" height="211" viewBox="0 0 296 211" fill="none" xmlns="http://www.w3.org/2000/svg">
<path d="M9.77678 0.941377L0.398523 11.6493C0.141621 11.9426 0 12.3193 0 12.7092V167.189C0 167.708 0.251144 168.196 0.674242 168.498L9.83811 175.038C10.1108 175.232 10.4375 175.337 10.7726 175.337H224.753C225.318 175.337 225.841 175.633 226.132 176.117L246.287 209.677C246.907 210.709 248.398 210.72 249.033 209.697L269.885 176.097C270.178 175.624 270.695 175.337 271.251 175.337H285.227C285.562 175.337 285.889 175.232 286.162 175.038L295.326 168.498C295.749 168.196 296 167.708 296 167.189V12.7092C296 12.3193 295.858 11.9426 295.601 11.6493L286.223 0.941376C285.918 0.592604 285.477 0.392578 285.013 0.392578H10.9869C10.5233 0.392578 10.0822 0.592605 9.77678 0.941377Z" fill="#9AE6EA"/>
<path d="M1.6087 12.7092L10.9869 2.00127L285.013 2.00127L294.391 12.7092L295.601 11.6493L294.391 12.7092V167.189L285.227 173.728H271.251C270.138 173.728 269.104 174.303 268.518 175.249L247.666 208.849L227.511 175.289C226.93 174.321 225.883 173.728 224.753 173.728L10.7726 173.728L1.60869 167.189L1.6087 12.7092Z" stroke="black" stroke-opacity="0.1" stroke-width="3.21739"/>
</svg>
