<svg width="888" height="411" viewBox="0 0 888 411" fill="none" xmlns="http://www.w3.org/2000/svg">
<g clip-path="url(#clip0_1105_2029)">
<path d="M29.2034 410.04C20.2177 410.04 12.4801 407.796 5.99043 403.308C1.99681 400.2 0 396.573 0 392.43C0 388.287 0.748803 385.008 2.24641 382.59C3.74403 379.827 5.86563 378.447 8.61126 378.447C11.1073 378.447 14.7265 379.827 19.4689 382.59C24.7106 385.353 27.9553 386.733 29.2034 386.733C33.9459 386.733 38.1891 383.97 41.9331 378.447C45.9267 372.576 49.0467 364.98 51.2931 355.659C55.7859 338.394 58.0323 322.857 58.0323 309.045C58.0323 294.197 56.2851 278.659 52.7907 262.431C49.5459 245.857 45.0531 229.802 39.3123 214.264L33.3219 197.69C27.0817 180.426 22.2145 166.787 18.7201 156.774C15.4753 146.761 12.6049 135.884 10.1089 124.145C6.36483 107.571 4.49283 91.5156 4.49283 75.9777C4.49283 63.5475 5.99043 51.8076 8.98566 40.7586C12.2305 29.7095 16.9729 20.3869 23.2129 12.7906C29.453 4.50375 37.1907 0.360352 46.4259 0.360352C50.9187 0.360352 55.2867 2.25942 59.5299 6.05757C63.7731 9.51039 66.7683 13.9991 68.5155 19.5236L62.1507 30.4002C55.6611 30.4002 50.7939 28.6737 47.5491 25.2208C43.0563 25.9114 39.0627 29.019 35.5683 34.5435C32.3235 39.7227 29.8274 45.7653 28.0802 52.671C26.5826 59.2314 25.8337 65.7918 25.8337 72.3522C25.8337 85.473 27.0817 98.9391 29.5778 112.751C32.3235 126.217 35.8179 138.992 40.0611 151.077L66.2691 223.587C70.5123 236.017 73.8819 250.001 76.3779 265.539C78.8742 281.077 80.1222 296.615 80.1222 312.153C80.1222 334.941 76.1283 356.349 68.1411 376.374C63.8979 386.733 58.4067 394.848 51.6675 400.719C44.9283 406.932 37.4403 410.04 29.2034 410.04Z" fill="#6B488B"/>
<path d="M173.212 405.897C167.721 405.897 161.856 404.688 155.616 402.27C149.625 400.2 145.007 397.782 141.763 395.019C125.039 380.172 116.678 339.603 116.678 273.308V230.838C116.678 217.026 116.803 204.769 117.052 194.065C117.302 183.016 117.801 171.104 118.55 158.328C119.299 144.862 120.422 133.986 121.919 125.699C123.417 117.067 125.913 107.399 129.407 96.6949C132.403 86.6815 136.022 78.9127 140.265 73.3882C144.758 67.8637 150.499 63.2023 157.488 59.404C163.728 55.606 171.465 53.707 180.7 53.707C184.444 53.707 187.315 54.9154 189.312 57.3325C191.308 59.7493 192.307 62.857 192.307 66.655C192.307 70.108 191.433 73.2154 189.686 75.9778C188.188 78.7399 186.316 80.2939 184.07 80.6392H166.473C161.481 80.6392 157.113 84.955 153.369 93.5872C149.625 102.219 147.004 113.441 145.507 127.253C142.262 152.804 140.639 173.521 140.639 189.404V191.993L139.891 241.714C139.391 256.562 139.142 273.308 139.142 291.953C139.142 305.073 139.516 315.777 140.265 324.066C141.513 336.495 143.635 346.854 146.63 355.14C149.625 364.464 154.742 371.196 161.98 375.339C165.724 377.412 169.843 378.447 174.336 378.447C177.081 378.447 179.827 377.067 182.572 374.304C185.817 374.304 188.438 375.339 190.435 377.412C192.681 379.137 193.804 381.9 193.804 385.698C193.804 399.165 186.94 405.897 173.212 405.897Z" fill="#6B488B"/>
<path d="M293.507 398.646C285.02 398.646 280.777 370.161 280.777 313.188L281.152 283.666L281.526 259.842V253.108C281.776 250.346 281.9 247.066 281.9 243.268C281.9 242.577 281.526 241.714 280.777 240.678C280.028 239.642 279.654 238.779 279.654 238.089V237.571C278.406 238.261 276.16 238.606 272.915 238.606C269.67 238.606 265.676 237.916 260.934 236.535C259.436 236.19 255.443 235.326 248.953 233.945V293.507C248.953 302.484 249.328 316.641 250.076 335.976C250.825 354.966 251.2 369.123 251.2 378.447C251.2 383.625 250.201 388.116 248.204 391.914C246.208 395.712 243.587 397.611 240.342 397.611C235.599 397.611 232.23 391.221 230.233 378.447C228.236 365.325 227.238 348.234 227.238 327.171L227.986 285.22C228.236 273.48 228.361 261.05 228.361 247.929V231.873C228.361 226.349 228.236 222.723 227.986 220.997V218.407L229.11 188.367C229.11 175.247 228.735 155.738 227.986 129.842C227.238 103.946 226.863 84.437 226.863 71.3162C226.863 67.1729 227.862 63.5474 229.858 60.4397C231.855 57.3323 234.351 55.7783 237.347 55.7783C245.334 55.7783 249.328 66.137 249.328 86.8541L248.579 151.077C248.08 170.413 247.83 191.993 247.83 215.818C251.574 217.544 258.313 218.407 268.048 218.407H281.9C282.4 216.336 282.649 214.264 282.649 212.192C282.649 195.618 281.9 171.103 280.403 138.647C278.656 108.261 277.782 83.5739 277.782 64.5833C277.782 60.785 278.78 57.6776 280.777 55.2605C283.024 52.4981 285.644 51.1172 288.64 51.1172C290.387 51.1172 292.883 51.9803 296.128 53.7068L299.497 55.7783C299.497 104.809 300.746 170.24 303.242 252.072L306.611 383.109C306.611 387.942 305.237 391.74 302.492 394.503C299.997 397.266 297.001 398.646 293.507 398.646Z" fill="#6B488B"/>
<path d="M368.783 405.379C365.537 405.379 362.543 403.825 359.798 400.72C357.302 397.612 355.928 393.814 355.679 389.323V365.5C355.43 362.392 355.304 358.768 355.304 354.622C355.304 347.371 354.929 336.322 354.182 321.475L353.432 288.329C353.432 271.41 353.807 246.204 354.554 212.711C355.553 182.672 356.054 157.466 356.054 137.094C356.054 132.26 355.679 125.009 354.929 115.341C354.182 105.328 353.807 98.0768 353.807 93.5882C353.807 69.0731 359.048 56.8154 369.53 56.8154C377.768 56.8154 387.254 59.0597 397.985 63.5486C408.968 68.0372 414.458 73.3892 414.458 79.6043C414.458 83.057 413.336 86.3372 411.089 89.4449C409.094 92.207 406.598 94.4516 403.601 96.1778C393.119 90.9986 383.633 87.5459 375.146 85.8194C375.398 90.9986 375.521 98.4221 375.521 108.09C375.521 121.902 375.398 134.332 375.146 145.381C374.399 161.955 374.024 174.385 374.024 182.672L375.146 190.959L381.137 190.441C383.135 190.095 385.631 189.923 388.625 189.923C400.607 189.923 406.598 194.757 406.598 204.424C406.598 208.223 405.473 211.503 403.226 214.265C400.982 216.682 398.111 217.891 394.616 217.891C390.122 217.891 386.63 217.546 384.134 216.855H374.774C375.272 225.832 375.521 238.953 375.521 256.217C375.521 273.481 375.398 289.019 375.146 302.83C374.399 323.893 374.024 339.604 374.024 349.963C374.024 369.298 374.273 378.967 374.774 378.967L387.128 378.448C391.37 378.103 396.488 377.929 402.479 377.929C411.962 377.929 416.705 382.072 416.705 390.361C416.705 395.194 415.082 398.821 411.839 401.236C408.842 403.999 405.098 405.379 400.607 405.379H368.783Z" fill="#6B488B"/>
<path d="M469.936 401.754C463.447 401.754 460.204 379.137 460.204 333.906L460.951 252.073C461.2 227.903 461.326 200.798 461.326 170.759C461.326 159.71 460.576 142.618 459.079 119.484C457.831 94.2781 457.207 78.913 457.207 73.3885C457.207 68.8996 458.581 64.9288 461.326 61.4761C464.071 58.0234 467.068 56.2969 470.311 56.2969C479.047 56.2969 487.408 59.059 495.397 64.5838C503.632 69.763 510.871 77.1865 517.111 86.8546C530.341 107.917 539.077 131.051 543.319 156.257C545.566 169.032 546.688 181.635 546.688 194.065C546.688 198.554 546.565 202.697 546.316 206.495L545.941 220.48V248.966C545.941 271.064 545.44 288.5 544.444 301.275C542.944 318.54 540.076 333.906 535.831 347.37C530.839 361.872 523.6 374.82 514.117 386.217C509.623 391.395 503.884 396.573 496.894 401.754H469.936ZM486.412 375.339C491.404 375.339 496.021 373.614 500.263 370.161C504.508 366.363 508.126 361.356 511.12 355.14C513.616 349.617 515.863 342.711 517.861 334.422C520.108 325.791 521.728 317.505 522.727 309.564C524.974 294.025 526.348 278.142 526.846 261.914C527.095 257.77 527.221 251.728 527.221 243.786C527.221 139.51 512.62 85.1281 483.415 80.6395C481.669 96.1771 480.796 114.132 480.796 134.504C480.796 156.257 481.792 194.238 483.79 248.447C485.536 296.442 486.412 334.596 486.412 362.91V375.339Z" fill="#6B488B"/>
<path d="M627.449 406.417C621.461 406.417 616.094 404.518 611.351 400.72C606.608 397.267 602.741 392.086 599.744 385.18C593.753 370.678 589.887 354.277 588.138 335.977C586.392 320.095 585.519 301.105 585.519 279.006C584.769 241.716 584.394 196.138 584.394 142.274L584.021 102.393C583.769 100.322 583.646 96.8687 583.646 92.0348C583.145 78.914 582.896 70.9724 582.896 68.2103C585.143 60.9593 587.765 57.3338 590.759 57.3338C593.753 57.3338 596.375 60.4412 598.622 66.6563C601.118 72.8714 602.367 79.6046 602.367 86.8556V227.732C602.367 241.543 603.24 259.843 604.986 282.632C606.735 310.945 607.607 329.245 607.607 337.531C607.607 363.082 615.47 375.859 631.193 375.859C649.166 375.859 658.152 282.977 658.152 97.214V63.5489C657.903 62.513 657.777 61.1318 657.777 59.4053C657.777 55.262 658.4 52.3271 659.648 50.6006C661.145 48.5288 663.893 47.4932 667.886 47.4932C671.129 47.4932 673.625 48.8741 675.374 51.6365C677.369 54.0536 678.618 56.9885 679.118 60.4412C679.368 62.513 679.493 66.4838 679.493 72.3536C679.493 77.8781 679.118 86.6828 678.368 98.7677C677.369 108.781 676.871 117.413 676.871 124.664C676.871 132.606 676.622 139.684 676.121 145.899L675.374 167.652V171.795C675.623 173.177 675.749 174.73 675.749 176.457C675.749 329.764 659.648 406.417 627.449 406.417Z" fill="#6B488B"/>
<path d="M780.332 406.932C771.347 402.789 760.238 400.719 747.011 400.719C743.018 404.169 738.773 405.897 734.282 405.897C731.285 405.897 728.666 403.998 726.419 400.2C724.421 396.747 723.422 392.949 723.422 388.806C723.422 359.802 724.298 321.129 726.044 272.79C727.541 221.342 728.291 182.843 728.291 157.292V153.667C726.794 131.914 726.044 115.685 726.044 104.981C726.044 72.1793 730.412 55.7783 739.148 55.7783C741.644 55.7783 743.765 57.1595 745.514 59.9219C747.509 62.3387 748.508 65.2736 748.508 68.7266C748.508 72.8699 748.133 79.4303 747.386 88.4078C746.636 97.04 746.261 103.6 746.261 108.089C746.261 131.223 746.387 152.113 746.636 170.758C746.885 189.058 747.011 209.775 747.011 232.909C745.763 238.089 745.139 245.34 745.139 254.662V260.877L744.389 301.794C743.891 313.878 743.642 327.69 743.642 343.227C743.642 367.053 747.758 378.966 755.996 378.966C756.494 378.966 757.244 378.966 758.243 378.966C759.491 378.618 761.114 378.447 763.109 378.447C765.356 378.102 768.227 377.928 771.722 377.928C785.198 377.928 791.939 383.109 791.939 393.468C791.939 396.921 790.814 399.855 788.57 402.27C786.323 404.688 783.578 406.242 780.332 406.932Z" fill="#6B488B"/>
<path d="M840.076 405.379C836.83 405.379 833.833 403.825 831.088 400.72C828.592 397.612 827.221 393.814 826.969 389.323V365.5C826.72 362.392 826.597 358.768 826.597 354.622C826.597 347.371 826.222 336.322 825.472 321.475L824.725 288.329C824.725 271.41 825.097 246.204 825.847 212.711C826.846 182.672 827.344 157.466 827.344 137.094C827.344 132.26 826.969 125.009 826.222 115.341C825.472 105.328 825.097 98.0768 825.097 93.5882C825.097 69.0731 830.341 56.8154 840.823 56.8154C849.061 56.8154 858.544 59.0597 869.278 63.5486C880.261 68.0372 885.751 73.3892 885.751 79.6043C885.751 83.057 884.629 86.3372 882.382 89.4449C880.384 92.207 877.888 94.4516 874.894 96.1778C864.412 90.9986 854.926 87.5459 846.439 85.8194C846.688 90.9986 846.814 98.4221 846.814 108.09C846.814 121.902 846.688 134.332 846.439 145.381C845.692 161.955 845.317 174.385 845.317 182.672L846.439 190.959L852.43 190.441C854.428 190.095 856.924 189.923 859.918 189.923C871.9 189.923 877.888 194.757 877.888 204.424C877.888 208.223 876.766 211.503 874.519 214.265C872.272 216.682 869.404 217.891 865.909 217.891C861.415 217.891 857.92 217.546 855.424 216.855H846.064C846.565 225.832 846.814 238.953 846.814 256.217C846.814 273.481 846.688 289.019 846.439 302.83C845.692 323.893 845.317 339.604 845.317 349.963C845.317 369.298 845.566 378.967 846.064 378.967L858.421 378.448C862.663 378.103 867.781 377.929 873.772 377.929C883.255 377.929 887.998 382.072 887.998 390.361C887.998 395.194 886.375 398.821 883.132 401.236C880.135 403.999 876.391 405.379 871.9 405.379H840.076Z" fill="#6B488B"/>
</g>
<defs>
<clipPath id="clip0_1105_2029">
<rect width="888" height="411" fill="white"/>
</clipPath>
</defs>
</svg>
