<svg width="296" height="137" viewBox="0 0 296 137" fill="none" xmlns="http://www.w3.org/2000/svg">
<path d="M9.73446 136.68C6.73924 136.68 4.16002 135.932 1.99681 134.436C0.665604 133.4 0 132.191 0 130.81C0 129.429 0.249601 128.336 0.748804 127.53C1.24801 126.609 1.95521 126.149 2.87042 126.149C3.70242 126.149 4.90883 126.609 6.48964 127.53C8.23685 128.451 9.31845 128.911 9.73446 128.911C11.3153 128.911 12.7297 127.99 13.9777 126.149C15.3089 124.192 16.3489 121.66 17.0977 118.553C18.5953 112.798 19.3441 107.619 19.3441 103.015C19.3441 98.0658 18.7617 92.8865 17.5969 87.4771C16.5153 81.9525 15.0177 76.6006 13.1041 71.4214L11.1073 65.8968C9.02725 60.1421 7.40484 55.5958 6.24004 52.2581C5.15843 48.9203 4.20162 45.2948 3.36962 41.3816C2.12161 35.8571 1.49761 30.5052 1.49761 25.3259C1.49761 21.1825 1.99681 17.2692 2.99522 13.5862C4.07682 9.90318 5.65763 6.79562 7.73764 4.26353C9.81766 1.50125 12.3969 0.120117 15.4753 0.120117C16.9729 0.120117 18.4289 0.753141 19.8433 2.01919C21.2577 3.17013 22.2561 4.66637 22.8385 6.50788L20.7169 10.1334C18.5537 10.1334 16.9313 9.5579 15.8497 8.40695C14.3521 8.63714 13.0209 9.67299 11.8561 11.5145C10.7745 13.2409 9.94246 15.2551 9.36005 17.557C8.86085 19.7438 8.61125 21.9306 8.61125 24.1174C8.61125 28.491 9.02725 32.9797 9.85926 37.5835C10.7745 42.0722 11.9393 46.3307 13.3537 50.359L22.0897 74.5289C23.5041 78.6723 24.6273 83.3337 25.4593 88.5129C26.2914 93.6922 26.7074 98.8715 26.7074 104.051C26.7074 111.647 25.3761 118.783 22.7137 125.458C21.2993 128.911 19.4689 131.616 17.2225 133.573C14.9761 135.644 12.4801 136.68 9.73446 136.68Z" fill="#6B488B"/>
<path d="M57.7379 135.299C55.9075 135.299 53.9523 134.896 51.8723 134.09C49.8754 133.4 48.3362 132.594 47.2546 131.673C41.6802 126.724 38.893 113.201 38.893 91.1026V76.9459C38.893 72.3421 38.9346 68.2562 39.0178 64.6883C39.101 61.0053 39.2674 57.0345 39.517 52.776C39.7666 48.2873 40.141 44.6618 40.6402 41.8995C41.1394 39.0222 41.9714 35.7995 43.1362 32.2316C44.1346 28.8938 45.341 26.3042 46.7554 24.4627C48.253 22.6212 50.1666 21.0674 52.4963 19.8013C54.5763 18.5353 57.1555 17.9023 60.2339 17.9023C61.4819 17.9023 62.4387 18.3051 63.1043 19.1108C63.7699 19.9164 64.1027 20.9523 64.1027 22.2183C64.1027 23.3693 63.8115 24.4051 63.2291 25.3259C62.7299 26.2466 62.1059 26.7646 61.3571 26.8797H55.4915C53.8275 26.8797 52.3715 28.3183 51.1234 31.1957C49.8754 34.0731 49.0018 37.8137 48.5026 42.4175C47.421 50.9345 46.8802 57.8402 46.8802 63.1345V63.9977L46.6306 80.5714C46.4642 85.5205 46.381 91.1026 46.381 97.3177C46.381 101.691 46.5058 105.259 46.7554 108.022C47.1714 112.165 47.8786 115.618 48.877 118.38C49.8754 121.488 51.581 123.732 53.9939 125.113C55.2419 125.804 56.6147 126.149 58.1123 126.149C59.0275 126.149 59.9427 125.689 60.8579 124.768C61.9395 124.768 62.8131 125.113 63.4787 125.804C64.2275 126.379 64.6019 127.3 64.6019 128.566C64.6019 133.055 62.3139 135.299 57.7379 135.299Z" fill="#6B488B"/>
<path d="M97.836 132.882C95.0071 132.882 93.5927 123.387 93.5927 104.396L93.7175 94.5554L93.8423 86.6139V84.3695C93.9255 83.4488 93.9671 82.3554 93.9671 81.0893C93.9671 80.8591 93.8423 80.5714 93.5927 80.2261C93.3431 79.8808 93.2183 79.5931 93.2183 79.3629V79.1903C92.8023 79.4204 92.0535 79.5355 90.9719 79.5355C89.8903 79.5355 88.5591 79.3053 86.9783 78.845C86.4791 78.7299 85.1479 78.4421 82.9847 77.9818V97.8356C82.9847 100.828 83.1095 105.547 83.3591 111.992C83.6087 118.322 83.7335 123.041 83.7335 126.149C83.7335 127.875 83.4007 129.372 82.7351 130.638C82.0695 131.904 81.1959 132.537 80.1143 132.537C78.5334 132.537 77.4102 130.407 76.7446 126.149C76.079 121.775 75.7462 116.078 75.7462 109.057L75.9958 95.0733C76.079 91.1601 76.1206 87.0167 76.1206 82.6431V77.2912C76.1206 75.4497 76.079 74.2412 75.9958 73.6657V72.8025L76.3702 62.7892C76.3702 58.4156 76.2454 51.9128 75.9958 43.2807C75.7462 34.6486 75.6214 28.1457 75.6214 23.7721C75.6214 22.391 75.9542 21.1825 76.6198 20.1466C77.2854 19.1108 78.1174 18.5928 79.1159 18.5928C81.7783 18.5928 83.1095 22.0457 83.1095 28.9514L82.8599 50.359C82.6935 56.8043 82.6103 63.9977 82.6103 71.9393C83.8583 72.5148 86.1047 72.8025 89.3495 72.8025H93.9671C94.1335 72.1119 94.2167 71.4214 94.2167 70.7308C94.2167 65.2062 93.9671 57.0345 93.4679 46.2156C92.8855 36.0872 92.5943 27.858 92.5943 21.5278C92.5943 20.2617 92.9271 19.2259 93.5927 18.4202C94.3415 17.4994 95.2151 17.0391 96.2136 17.0391C96.796 17.0391 97.628 17.3268 98.7096 17.9023L99.8328 18.5928C99.8328 34.9363 100.249 56.7468 101.081 84.0242L102.204 127.703C102.204 129.314 101.746 130.58 100.831 131.501C99.9992 132.422 99.0008 132.882 97.836 132.882Z" fill="#6B488B"/>
<path d="M122.928 135.126C121.846 135.126 120.848 134.608 119.933 133.573C119.101 132.537 118.643 131.271 118.56 129.774V121.833C118.477 120.797 118.435 119.589 118.435 118.207C118.435 115.79 118.31 112.107 118.061 107.158L117.811 96.1092C117.811 90.4695 117.936 82.0676 118.185 70.9034C118.518 60.8902 118.685 52.4883 118.685 45.6977C118.685 44.0863 118.56 41.6693 118.31 38.4467C118.061 35.1089 117.936 32.6919 117.936 31.1957C117.936 23.024 119.683 18.9381 123.177 18.9381C125.923 18.9381 129.085 19.6862 132.662 21.1825C136.323 22.6787 138.153 24.4627 138.153 26.5344C138.153 27.6853 137.779 28.7787 137.03 29.8146C136.365 30.7353 135.533 31.4835 134.534 32.0589C131.04 30.3325 127.878 29.1816 125.049 28.6061C125.133 30.3325 125.174 32.807 125.174 36.0297C125.174 40.6335 125.133 44.7769 125.049 48.4599C124.8 53.9845 124.675 58.1279 124.675 60.8902L125.049 63.6525L127.046 63.4798C127.712 63.3647 128.544 63.3072 129.542 63.3072C133.536 63.3072 135.533 64.9185 135.533 68.1411C135.533 69.4072 135.158 70.5006 134.409 71.4214C133.661 72.227 132.704 72.6299 131.539 72.6299C130.041 72.6299 128.877 72.5148 128.045 72.2846H124.925C125.091 75.277 125.174 79.6506 125.174 85.4054C125.174 91.1601 125.133 96.3394 125.049 100.943C124.8 107.964 124.675 113.201 124.675 116.654C124.675 123.099 124.758 126.322 124.925 126.322L129.043 126.149C130.457 126.034 132.163 125.976 134.16 125.976C137.321 125.976 138.902 127.357 138.902 130.12C138.902 131.731 138.361 132.94 137.28 133.745C136.281 134.666 135.033 135.126 133.536 135.126H122.928Z" fill="#6B488B"/>
<path d="M156.646 133.918C154.483 133.918 153.402 126.379 153.402 111.302L153.651 84.0242C153.734 75.9676 153.776 66.9327 153.776 56.9194C153.776 53.2364 153.526 47.5392 153.027 39.8278C152.611 31.4259 152.403 26.3042 152.403 24.4627C152.403 22.9664 152.861 21.6428 153.776 20.4919C154.691 19.341 155.69 18.7655 156.771 18.7655C159.683 18.7655 162.47 19.6862 165.133 21.5278C167.878 23.2542 170.291 25.7287 172.371 28.9514C176.781 35.9722 179.693 43.6835 181.107 52.0854C181.856 56.3439 182.23 60.5449 182.23 64.6883C182.23 66.1845 182.189 67.5657 182.106 68.8317L181.981 73.4931V82.9884C181.981 90.3545 181.814 96.1667 181.482 100.425C180.982 106.18 180.026 111.302 178.611 115.79C176.947 120.624 174.534 124.94 171.373 128.739C169.875 130.465 167.962 132.191 165.632 133.918H156.646ZM162.138 125.113C163.802 125.113 165.341 124.538 166.755 123.387C168.17 122.121 169.376 120.452 170.374 118.38C171.206 116.539 171.955 114.237 172.621 111.474C173.37 108.597 173.91 105.835 174.243 103.188C174.992 98.0083 175.45 92.7139 175.616 87.3044C175.699 85.9233 175.741 83.9091 175.741 81.262C175.741 46.5033 170.874 28.3759 161.139 26.8797C160.557 32.0589 160.266 38.0439 160.266 44.8344C160.266 52.0854 160.598 64.7459 161.264 82.8157C161.846 98.8139 162.138 111.532 162.138 120.97V125.113Z" fill="#6B488B"/>
<path d="M209.15 135.472C207.154 135.472 205.365 134.839 203.784 133.573C202.203 132.422 200.914 130.695 199.915 128.393C197.918 123.559 196.629 118.092 196.046 111.992C195.464 106.698 195.173 100.368 195.173 93.0016C194.923 80.5714 194.798 65.3789 194.798 47.4241L194.674 34.1306C194.59 33.4401 194.549 32.2891 194.549 30.6778C194.382 26.3042 194.299 23.657 194.299 22.7363C195.048 20.3193 195.922 19.1108 196.92 19.1108C197.918 19.1108 198.792 20.1466 199.541 22.2183C200.373 24.29 200.789 26.5344 200.789 28.9514V75.9101C200.789 80.5138 201.08 86.6139 201.662 94.2101C202.245 103.648 202.536 109.748 202.536 112.51C202.536 121.027 205.157 125.286 210.398 125.286C216.389 125.286 219.384 94.3252 219.384 32.4042V21.1825C219.301 20.8372 219.259 20.3768 219.259 19.8013C219.259 18.4202 219.467 17.4419 219.883 16.8664C220.382 16.1758 221.298 15.8306 222.629 15.8306C223.71 15.8306 224.542 16.2909 225.125 17.2117C225.79 18.0174 226.206 18.9957 226.373 20.1466C226.456 20.8372 226.498 22.1608 226.498 24.1174C226.498 25.9589 226.373 28.8938 226.123 32.9221C225.79 36.2599 225.624 39.1373 225.624 41.5542C225.624 44.2014 225.541 46.5609 225.374 48.6326L225.125 55.8836V57.2647C225.208 57.7251 225.25 58.243 225.25 58.8185C225.25 109.921 219.883 135.472 209.15 135.472Z" fill="#6B488B"/>
<path d="M260.11 135.644C257.115 134.263 253.412 133.573 249.003 133.573C247.672 134.723 246.257 135.299 244.76 135.299C243.761 135.299 242.888 134.666 242.139 133.4C241.473 132.249 241.14 130.983 241.14 129.602C241.14 119.934 241.432 107.043 242.014 90.9299C242.513 73.7808 242.763 60.9477 242.763 52.4307V51.2222C242.264 43.9712 242.014 38.5618 242.014 34.9938C242.014 24.0598 243.47 18.5928 246.382 18.5928C247.214 18.5928 247.921 19.0532 248.504 19.974C249.169 20.7796 249.502 21.7579 249.502 22.9089C249.502 24.29 249.377 26.4768 249.128 29.4693C248.878 32.3467 248.753 34.5335 248.753 36.0297C248.753 43.7411 248.795 50.7043 248.878 56.9194C248.961 63.0194 249.003 69.9251 249.003 77.6365C248.587 79.3629 248.379 81.7799 248.379 84.8874V86.9592L248.129 100.598C247.963 104.626 247.88 109.23 247.88 114.409C247.88 122.351 249.252 126.322 251.998 126.322C252.164 126.322 252.414 126.322 252.747 126.322C253.163 126.206 253.704 126.149 254.369 126.149C255.118 126.034 256.075 125.976 257.24 125.976C261.732 125.976 263.979 127.703 263.979 131.156C263.979 132.307 263.604 133.285 262.856 134.09C262.107 134.896 261.192 135.414 260.11 135.644Z" fill="#6B488B"/>
<path d="M280.026 135.126C278.944 135.126 277.945 134.608 277.03 133.573C276.198 132.537 275.741 131.271 275.657 129.774V121.833C275.574 120.797 275.533 119.589 275.533 118.207C275.533 115.79 275.408 112.107 275.158 107.158L274.909 96.1092C274.909 90.4695 275.033 82.0676 275.283 70.9034C275.616 60.8902 275.782 52.4883 275.782 45.6977C275.782 44.0863 275.657 41.6693 275.408 38.4467C275.158 35.1089 275.033 32.6919 275.033 31.1957C275.033 23.024 276.781 18.9381 280.275 18.9381C283.021 18.9381 286.182 19.6862 289.76 21.1825C293.421 22.6787 295.251 24.4627 295.251 26.5344C295.251 27.6853 294.877 28.7787 294.128 29.8146C293.462 30.7353 292.63 31.4835 291.632 32.0589C288.138 30.3325 284.976 29.1816 282.147 28.6061C282.23 30.3325 282.272 32.807 282.272 36.0297C282.272 40.6335 282.23 44.7769 282.147 48.4599C281.898 53.9845 281.773 58.1279 281.773 60.8902L282.147 63.6525L284.144 63.4798C284.81 63.3647 285.642 63.3072 286.64 63.3072C290.634 63.3072 292.63 64.9185 292.63 68.1411C292.63 69.4072 292.256 70.5006 291.507 71.4214C290.758 72.227 289.802 72.6299 288.637 72.6299C287.139 72.6299 285.974 72.5148 285.142 72.2846H282.022C282.189 75.277 282.272 79.6506 282.272 85.4054C282.272 91.1601 282.23 96.3394 282.147 100.943C281.898 107.964 281.773 113.201 281.773 116.654C281.773 123.099 281.856 126.322 282.022 126.322L286.141 126.149C287.555 126.034 289.261 125.976 291.258 125.976C294.419 125.976 296 127.357 296 130.12C296 131.731 295.459 132.94 294.378 133.745C293.379 134.666 292.131 135.126 290.634 135.126H280.026Z" fill="#6B488B"/>
</svg>
