<svg width="329" height="314" viewBox="0 0 329 314" fill="none" xmlns="http://www.w3.org/2000/svg">
<path d="M159.154 4.20437C161.244 -0.249257 167.578 -0.249265 169.668 4.20436L214.365 99.4751C215.212 101.279 216.924 102.523 218.901 102.77L323.321 115.84C328.202 116.451 330.16 122.475 326.57 125.839L249.774 197.789C248.32 199.151 247.666 201.164 248.042 203.121L267.879 306.469C268.807 311.3 263.682 315.023 259.374 312.648L167.214 261.845C165.469 260.883 163.353 260.883 161.608 261.845L69.4483 312.648C65.1401 315.023 60.0155 311.3 60.9428 306.469L80.7805 203.121C81.1561 201.164 80.5021 199.151 79.0481 197.789L2.25255 125.839C-1.33742 122.475 0.620012 116.451 5.50134 115.84L109.921 102.77C111.899 102.523 113.611 101.279 114.457 99.4751L159.154 4.20437Z" fill="#EA876A"/>
</svg>
