<svg width="888" height="414" viewBox="0 0 888 414" fill="none" xmlns="http://www.w3.org/2000/svg">
<path d="M10.3112 363.19C17.6627 363.19 20.2197 353.836 23.416 343.987C34.6032 309.523 48.3474 275.55 69.4428 238.622C73.9179 230.744 78.7122 223.851 84.1461 217.451C93.4152 206.126 99.1686 199.725 96.6117 213.019C95.0133 220.405 93.0957 228.282 91.1778 235.176C82.5477 266.195 74.5569 299.675 68.1645 333.649C64.968 350.389 65.9271 359.743 74.5569 362.206C83.5068 364.669 86.3835 356.296 88.6209 343.003C92.4564 319.369 101.087 284.904 114.831 232.714C119.945 213.019 124.42 186.432 114.191 174.123C110.036 169.199 104.283 167.722 96.9312 170.676C78.3927 178.554 63.0504 199.233 48.6669 225.328L43.8723 233.699C45.1509 227.298 46.749 220.897 48.3474 214.496C52.8222 195.786 53.4615 193.325 53.4615 187.909C53.4615 180.523 50.5848 175.107 46.4295 172.645C34.6032 166.245 29.489 194.802 22.1375 228.282C13.5075 266.195 5.19705 300.169 1.04184 332.665C-1.19558 348.913 -0.556319 363.19 10.3112 363.19Z" fill="#5A8551"/>
<path d="M153.656 364.174C168.04 364.174 185.3 346.942 195.848 324.787C210.87 292.782 215.984 261.271 211.19 228.775C208.633 211.542 204.158 188.893 188.816 181.016C187.857 180.523 186.898 179.539 186.259 178.062C174.432 159.844 158.77 174.615 145.985 198.741C131.602 225.821 123.291 258.317 123.291 307.06C123.291 335.125 134.159 364.174 153.656 364.174ZM155.254 330.694C147.903 332.173 144.707 321.832 144.707 311.491C144.707 274.565 159.41 204.649 174.432 204.649C183.382 204.649 191.373 233.699 191.373 257.332C191.373 288.843 172.514 327.739 155.254 330.694Z" fill="#5A8551"/>
<path d="M239.881 368.605C247.552 368.605 253.945 355.312 261.936 331.186L304.446 202.679C307.644 192.34 309.561 181.016 302.208 174.122C295.177 167.722 288.465 176.092 284.31 191.355C268.968 238.13 252.027 287.858 245.634 307.552C244.356 297.213 248.192 196.279 248.192 184.955C248.192 170.676 243.717 161.321 236.685 161.813C232.21 162.306 229.014 166.245 227.735 174.122C225.498 187.416 224.539 271.61 224.219 330.202C224.219 349.405 228.694 368.605 239.881 368.605Z" fill="#5A8551"/>
<path d="M336.441 368.112C354.981 368.112 385.983 334.632 387.582 310.998C387.582 303.12 385.344 295.735 378.312 295.735C366.168 296.228 351.783 336.108 337.401 335.616C327.492 335.616 322.377 317.892 323.655 297.212C323.976 292.289 325.254 290.319 328.131 288.842C346.029 279.487 361.692 264.224 376.716 235.175C381.51 225.82 385.026 215.48 386.622 204.648C390.78 178.553 378.633 156.396 361.371 157.381C329.409 159.843 301.281 248.961 302.241 312.477C302.88 340.542 316.305 368.112 336.441 368.112ZM333.246 250.438C332.607 250.93 331.326 251.423 331.965 248.961C338.679 228.281 344.112 212.033 352.104 199.724C358.176 190.37 365.529 187.415 365.529 195.785C365.529 211.541 347.949 239.114 333.246 250.438Z" fill="#5A8551"/>
<path d="M408.849 369.59C416.841 369.59 419.397 358.757 428.667 329.708C444.969 281.456 451.362 257.823 473.736 223.357C478.53 215.972 482.685 210.063 487.161 206.617C492.273 202.678 481.725 259.792 471.177 323.798C468.621 338.57 467.982 349.895 476.292 355.31C479.169 357.281 485.241 358.757 490.038 346.448C497.067 324.785 522 262.254 530.949 245.514C536.703 234.189 553.323 207.601 555.561 207.601C557.478 208.094 554.283 219.911 550.128 239.113C544.692 266.193 538.302 302.135 535.104 327.737C533.187 345.464 537.981 362.204 547.89 360.233C553.323 359.249 556.2 352.355 555.882 343.001C555.561 333.647 556.839 325.277 558.438 315.428C562.272 291.303 568.665 259.3 576.657 219.418C580.812 200.216 582.09 176.09 573.459 166.735C559.398 151.472 528.072 196.77 514.329 224.834L507.615 237.636C508.575 228.773 509.535 219.418 510.174 210.556C512.091 187.907 510.813 178.06 502.182 171.167C492.594 163.289 483.963 170.674 474.054 180.029C464.787 188.399 456.156 201.201 447.846 217.941L438.897 235.666L443.37 215.479C447.846 195.292 449.124 190.369 449.763 183.968C450.402 176.583 447.525 169.197 443.052 166.735C438.576 164.274 433.461 166.735 430.584 173.629C428.028 179.044 424.194 199.724 420.357 216.464C410.448 257.823 405.333 290.811 401.178 321.83C397.983 346.448 394.467 369.59 408.849 369.59Z" fill="#5A8551"/>
<path d="M584.961 374.514C588.474 374.514 592.95 370.083 594.228 367.128C595.506 364.173 597.105 363.681 599.982 365.16C611.49 371.067 622.677 367.128 630.987 362.697C665.187 344.973 695.232 299.675 703.542 242.068C709.296 200.71 704.82 164.767 679.89 164.767C671.898 164.767 662.631 171.66 662.631 171.66C662.631 171.66 662.631 170.675 663.588 168.214C665.187 163.782 671.898 146.55 675.414 134.733C684.684 101.252 694.914 51.0311 689.799 26.9053C685.644 7.70311 675.096 -1.65182 663.909 4.74889C647.607 14.5962 632.904 45.1227 622.995 74.1722C602.22 135.718 596.148 189.878 584.64 274.564C576.648 331.185 568.338 374.514 584.961 374.514ZM616.284 204.649C616.284 185.939 633.543 114.054 642.813 87.4661C648.885 69.7409 663.909 38.2295 668.703 38.2295C671.898 38.2295 669.024 64.8173 665.508 83.5271C658.794 119.47 631.944 187.416 616.284 204.649ZM620.439 333.156C615.324 335.616 606.054 336.108 605.097 331.677C602.22 320.847 637.059 251.423 651.762 227.297C659.115 215.481 671.58 197.755 679.89 197.755C690.438 197.755 680.85 256.839 670.62 278.011C657.516 305.091 640.575 324.294 620.439 333.156Z" fill="#5A8551"/>
<path d="M743.034 368.112C761.574 368.112 792.579 334.632 794.175 310.998C794.175 303.12 791.937 295.735 784.905 295.735C772.761 296.228 758.376 336.108 743.994 335.616C734.085 335.616 728.97 317.892 730.248 297.212C730.569 292.289 731.847 290.319 734.724 288.842C752.625 279.487 768.285 264.224 783.309 235.175C788.103 225.82 791.619 215.48 793.218 204.648C797.373 178.553 785.226 156.396 767.967 157.381C736.002 159.843 707.874 248.961 708.834 312.477C709.473 340.542 722.898 368.112 743.034 368.112ZM739.839 250.438C739.2 250.93 737.922 251.423 738.561 248.961C745.272 228.281 750.705 212.033 758.697 199.724C764.769 190.37 772.122 187.415 772.122 195.785C772.122 211.541 754.542 239.114 739.839 250.438Z" fill="#5A8551"/>
<path d="M853.161 412.425C859.233 412.425 864.987 403.563 862.749 391.254C860.832 380.916 862.11 371.067 863.709 361.713C870.741 320.355 876.492 316.908 884.484 280.472C885.762 274.564 888 267.179 888 259.301C888 242.56 879.369 229.759 868.503 232.713C867.543 232.713 859.554 235.667 859.554 235.667C859.554 235.175 868.821 213.511 871.059 195.786C873.297 178.553 875.535 159.843 865.305 149.011C860.832 144.58 855.717 143.595 849.963 146.057C834.942 152.458 818.319 187.416 812.886 217.45C809.052 237.637 808.731 256.839 817.362 270.133C829.827 289.335 841.014 281.457 862.11 269.64C863.388 268.656 864.027 270.625 863.709 272.594C864.027 270.133 847.725 329.217 845.808 338.079C841.335 359.25 836.859 386.331 842.931 402.087C845.49 408.486 849.006 412.425 853.161 412.425ZM833.022 231.728C835.581 213.019 838.776 201.694 849.324 185.446C850.602 183.477 850.602 183.969 850.284 186.431C847.086 207.11 841.335 222.374 833.022 231.728Z" fill="#5A8551"/>
</svg>
