<svg width="296" height="138" viewBox="0 0 296 138" fill="none" xmlns="http://www.w3.org/2000/svg">
<path d="M3.43705 121.063C5.88755 121.063 6.73991 117.945 7.80534 114.662C11.5344 103.174 16.1158 91.8496 23.1476 79.5405C24.6393 76.9145 26.2374 74.6168 28.0487 72.4833C31.1384 68.7085 33.0562 66.5749 32.2039 71.0062C31.6711 73.468 31.0319 76.0939 30.3926 78.3916C27.5159 88.7313 24.8523 99.8915 22.7215 111.216C21.656 116.796 21.9757 119.914 24.8523 120.735C27.8356 121.556 28.7945 118.765 29.5403 114.334C30.8188 106.456 33.6955 94.9679 38.2769 77.571C39.9816 71.0062 41.4732 62.1436 38.0638 58.0406C36.6787 56.3994 34.7609 55.907 32.3104 56.8917C26.1309 59.5177 21.0168 66.4108 16.2223 75.1092L14.6241 77.8993C15.0503 75.7657 15.583 73.6321 16.1158 71.4985C17.6074 65.2619 17.8205 64.4413 17.8205 62.636C17.8205 60.1742 16.8616 58.3688 15.4765 57.5482C11.5344 55.4147 9.82967 64.9337 7.37917 76.0939C4.50249 88.7313 1.73235 100.056 0.347279 110.888C-0.398528 116.304 -0.18544 121.063 3.43705 121.063Z" fill="#5A8551"/>
<path d="M51.2186 121.391C56.0131 121.391 61.7664 115.647 65.2824 108.262C70.2899 97.5938 71.9946 87.0901 70.3965 76.2581C69.5441 70.5138 68.0525 62.9642 62.9384 60.3383C62.6188 60.1742 62.2991 59.8459 62.0861 59.3536C58.1439 53.2811 52.9233 58.2047 48.6615 66.2467C43.8671 75.2733 41.0969 86.1053 41.0969 102.353C41.0969 111.708 44.7194 121.391 51.2186 121.391ZM51.7513 110.231C49.3008 110.724 48.2354 107.277 48.2354 103.83C48.2354 91.5213 53.1364 68.2161 58.1439 68.2161C61.1272 68.2161 63.7908 77.8993 63.7908 85.7771C63.7908 96.2808 57.5047 109.246 51.7513 110.231Z" fill="#5A8551"/>
<path d="M79.9604 122.868C82.5175 122.868 84.6484 118.437 87.312 110.395L101.482 67.5596C102.548 64.1131 103.187 60.3383 100.736 58.0406C98.3925 55.907 96.1551 58.6971 94.77 63.7848C89.6559 79.3764 84.0091 95.9526 81.8782 102.517C81.4521 99.0709 82.7306 65.4261 82.7306 61.6513C82.7306 56.8917 81.239 53.7734 78.895 53.9376C77.4034 54.1017 76.338 55.4147 75.9118 58.0406C75.166 62.4719 74.8463 90.5366 74.7398 110.067C74.7398 116.468 76.2314 122.868 79.9604 122.868Z" fill="#5A8551"/>
<path d="M112.147 122.704C118.327 122.704 128.661 111.544 129.194 103.666C129.194 101.04 128.448 98.5785 126.104 98.5785C122.056 98.7427 117.261 112.036 112.467 111.872C109.164 111.872 107.459 105.964 107.885 99.0709C107.992 97.4297 108.418 96.7732 109.377 96.2808C115.343 93.1625 120.564 88.0748 125.572 78.3916C127.17 75.2733 128.342 71.8268 128.874 68.2161C130.26 59.5177 126.211 52.1322 120.457 52.4605C109.803 53.2811 100.427 82.987 100.747 104.159C100.96 113.514 105.435 122.704 112.147 122.704ZM111.082 83.4794C110.869 83.6435 110.442 83.8076 110.655 82.987C112.893 76.0939 114.704 70.6779 117.368 66.5749C119.392 63.4566 121.843 62.4719 121.843 65.2619C121.843 70.5138 115.983 79.7046 111.082 83.4794Z" fill="#5A8551"/>
<path d="M136.283 123.197C138.947 123.197 139.799 119.586 142.889 109.903C148.323 93.819 150.454 85.9412 157.912 74.4527C159.51 71.9909 160.895 70.0214 162.387 68.8726C164.091 67.5596 160.575 86.5977 157.059 107.933C156.207 112.857 155.994 116.632 158.764 118.437C159.723 119.094 161.747 119.586 163.346 115.483C165.689 108.262 174 87.4183 176.983 81.8382C178.901 78.0634 184.441 69.2008 185.187 69.2008C185.826 69.365 184.761 73.3039 183.376 79.7046C181.564 88.7313 179.434 100.712 178.368 109.246C177.729 115.155 179.327 120.735 182.63 120.078C184.441 119.75 185.4 117.452 185.294 114.334C185.187 111.216 185.613 108.426 186.146 105.143C187.424 97.1014 189.555 86.4336 192.219 73.1397C193.604 66.739 194.03 58.6971 191.153 55.5788C186.466 50.491 176.024 65.5902 171.443 74.9451L169.205 79.2122C169.525 76.258 169.845 73.1397 170.058 70.1856C170.697 62.636 170.271 59.3536 167.394 57.0559C164.198 54.4299 161.321 56.8917 158.018 60.01C154.929 62.8001 152.052 67.0673 149.282 72.6474L146.299 78.5558L147.79 71.8268C149.282 65.0978 149.708 63.4566 149.921 61.323C150.134 58.8612 149.175 56.3994 147.684 55.5788C146.192 54.7582 144.487 55.5788 143.528 57.8765C142.676 59.6818 141.398 66.5749 140.119 72.155C136.816 85.9412 135.111 96.9373 133.726 107.277C132.661 115.483 131.489 123.197 136.283 123.197Z" fill="#5A8551"/>
<path d="M194.987 124.838C196.158 124.838 197.65 123.361 198.076 122.376C198.502 121.391 199.035 121.227 199.994 121.72C203.83 123.689 207.559 122.376 210.329 120.899C221.729 114.991 231.744 99.8915 234.514 80.6893C236.432 66.9031 234.94 54.9223 226.63 54.9223C223.966 54.9223 220.877 57.22 220.877 57.22C220.877 57.22 220.877 56.8917 221.196 56.0711C221.729 54.594 223.966 48.8498 225.138 44.9109C228.228 33.7506 231.638 17.0103 229.933 8.96834C228.548 2.56762 225.032 -0.550691 221.303 1.58288C215.869 4.86531 210.968 15.0408 207.665 24.724C200.74 45.2391 198.716 63.2925 194.88 91.5213C192.216 110.395 189.446 124.838 194.987 124.838ZM205.428 68.2161C205.428 61.9795 211.181 38.0178 214.271 29.1553C216.295 23.2469 221.303 12.7431 222.901 12.7431C223.966 12.7431 223.008 21.6057 221.836 27.8423C219.598 39.8231 210.648 62.4719 205.428 68.2161ZM206.813 111.052C205.108 111.872 202.018 112.036 201.699 110.559C200.74 106.949 212.353 83.8076 217.254 75.7657C219.705 71.8268 223.86 65.9184 226.63 65.9184C230.146 65.9184 226.95 85.613 223.54 92.6702C219.172 101.697 213.525 108.098 206.813 111.052Z" fill="#5A8551"/>
<path d="M247.678 122.704C253.858 122.704 264.193 111.544 264.725 103.666C264.725 101.04 263.979 98.5785 261.635 98.5785C257.587 98.7427 252.792 112.036 247.998 111.872C244.695 111.872 242.99 105.964 243.416 99.0709C243.523 97.4297 243.949 96.7732 244.908 96.2808C250.875 93.1625 256.095 88.0748 261.103 78.3916C262.701 75.2733 263.873 71.8268 264.406 68.2161C265.791 59.5177 261.742 52.1322 255.989 52.4605C245.334 53.2811 235.958 82.987 236.278 104.159C236.491 113.514 240.966 122.704 247.678 122.704ZM246.613 83.4794C246.4 83.6435 245.974 83.8076 246.187 82.987C248.424 76.0939 250.235 70.6779 252.899 66.5749C254.923 63.4566 257.374 62.4719 257.374 65.2619C257.374 70.5138 251.514 79.7046 246.613 83.4794Z" fill="#5A8551"/>
<path d="M284.387 137.475C286.411 137.475 288.329 134.521 287.583 130.418C286.944 126.972 287.37 123.689 287.903 120.571C290.247 106.785 292.164 105.636 294.828 93.4908C295.254 91.5213 296 89.0595 296 86.4336C296 80.8534 293.123 76.5863 289.501 77.571C289.181 77.571 286.518 78.5558 286.518 78.5558C286.518 78.3916 289.607 71.1703 290.353 65.2619C291.099 59.5177 291.845 53.2811 288.435 49.6704C286.944 48.1933 285.239 47.8651 283.321 48.6857C278.314 50.8193 272.773 62.4719 270.962 72.4833C269.684 79.2122 269.577 85.613 272.454 90.0442C276.609 96.445 280.338 93.819 287.37 89.8801C287.796 89.5519 288.009 90.2084 287.903 90.8648C288.009 90.0442 282.575 109.739 281.936 112.693C280.445 119.75 278.953 128.777 280.977 134.029C281.83 136.162 283.002 137.475 284.387 137.475ZM277.674 77.2428C278.527 71.0062 279.592 67.2314 283.108 61.8154C283.534 61.1589 283.534 61.323 283.428 62.1436C282.362 69.0367 280.445 74.1245 277.674 77.2428Z" fill="#5A8551"/>
</svg>
