<svg width="888" height="174" viewBox="0 0 888 174" fill="none" xmlns="http://www.w3.org/2000/svg">
<path d="M37.3971 172.916C29.6061 172.916 23.1608 170.579 18.0612 165.904C13.9531 162.504 10.1993 156.696 6.7995 148.48C4.67466 143.097 2.97478 135.519 1.69987 125.744C0.708282 117.811 0.212484 110.304 0.212484 103.221C0.0708279 101.38 0 98.1921 0 93.6594V77.9355C0 71.8443 0.212484 64.5489 0.637452 56.0496C1.20408 48.825 2.33733 41.4588 4.03719 33.9513C5.87874 26.585 8.57019 20.3522 12.1116 15.2525C15.653 9.86961 20.3985 6.04491 26.348 3.77841C29.8894 2.78681 33.2184 2.29102 36.3348 2.29102C42.2844 2.29102 45.2592 4.27419 45.2592 8.24058C45.2592 9.79878 44.6925 11.0737 43.5594 12.0653C42.5676 12.9152 41.2221 13.3402 39.522 13.3402C38.9556 13.3402 37.9638 13.1277 36.5472 12.7028L33.5724 12.2778C30.8811 12.2778 28.4729 13.1277 26.348 14.8276C24.2232 16.3858 22.4525 18.7231 21.0359 21.8396C17.7779 28.639 15.5822 36.0759 14.4489 44.1504C12.8907 54.0663 12.0408 62.7075 11.8991 70.0734C11.6158 76.4481 11.4742 83.1768 11.4742 90.2595V95.9967C11.3325 97.9797 11.2617 100.459 11.2617 103.433C11.2617 110.658 11.6158 117.741 12.3241 124.682C12.8907 132.898 14.4489 139.981 16.9988 145.931C19.2653 152.588 22.9483 157.263 28.0479 159.954C30.456 161.371 33.4308 162.079 36.9723 162.079C43.2051 162.079 48.4464 159.104 52.6962 153.155C52.5543 148.197 52.2003 143.38 51.6336 138.706C51.0672 133.89 50.217 130.631 49.0839 128.932C48.9423 128.932 48.588 129.002 48.0213 129.144C47.5965 129.144 46.8882 129.215 45.8967 129.357L40.797 129.782C35.9808 129.782 33.5724 127.728 33.5724 123.62C33.5724 122.345 34.2807 121.211 35.6973 120.22C37.1139 119.228 39.0264 118.52 41.4345 118.095C45.4008 117.104 48.9423 116.608 52.0587 116.608C54.8919 116.608 57.0873 117.67 58.6458 119.795C60.204 121.92 60.9831 124.611 60.9831 127.869C60.9831 132.544 61.6914 138.918 63.1077 146.993C64.5243 154.926 65.2326 161.229 65.2326 165.904C65.2326 167.462 64.737 168.808 63.7452 169.941C62.7537 171.074 61.5495 171.641 60.1332 171.641C56.5917 171.641 54.1836 170.154 52.9086 167.179V166.966L48.234 169.304C43.9842 171.712 40.3719 172.916 37.3971 172.916Z" fill="#186F81"/>
<path d="M107.323 171.429C103.64 171.429 100.241 170.225 97.1244 167.817C94.008 165.55 91.458 162.433 89.475 158.467C85.3668 149.826 82.8171 140.406 81.8256 130.207C80.5506 120.574 79.9131 111.296 79.9131 102.371C79.9131 100.672 79.9839 99.255 80.1255 98.1216V94.2969C80.1255 93.5886 80.0547 93.2346 79.9131 93.2346V89.4099L80.1255 74.5359C80.2671 70.0029 80.8338 62.7786 81.8256 52.8627C82.5339 46.0632 84.1629 39.4761 86.7126 33.1014C87.7041 30.2685 88.9791 28.1435 90.5373 26.727C92.0955 25.1687 93.8661 24.3896 95.8494 24.3896C101.516 24.3896 106.615 25.4521 111.148 27.5769C115.681 29.5601 119.506 32.3931 122.622 36.0762C125.455 39.6177 127.864 44.0091 129.847 49.2504C131.83 54.3501 133.247 59.8038 134.097 65.6115C134.947 71.5611 135.371 77.865 135.371 84.5226V86.2227C135.371 90.6138 135.442 94.5804 135.584 98.1216L135.796 110.233C135.796 151.03 126.305 171.429 107.323 171.429ZM106.474 162.505C109.024 162.505 111.361 161.513 113.485 159.53C115.61 157.405 117.239 154.572 118.373 151.03C121.064 143.806 122.693 136.015 123.26 127.657C123.968 120.433 124.322 114.2 124.322 108.958C124.322 102.584 123.826 94.2261 122.835 83.8854C121.985 72.9777 121.56 64.8324 121.56 59.4495V55.6248C121.277 50.2419 119.435 45.5673 116.035 41.601C112.777 37.6344 108.74 35.6514 103.924 35.6514C99.1074 35.6514 95.9202 38.4135 94.362 43.9383C92.9454 48.3297 92.2371 53.9958 92.2371 60.9369C92.2371 63.6285 92.3079 65.895 92.4498 67.7364V73.4736L92.0247 83.2479C91.7415 86.2227 91.5996 89.4807 91.5996 93.0222C91.5996 100.672 91.8123 108.25 92.2371 115.758C92.8038 126.382 94.2204 136.723 96.4869 146.781C98.7534 157.263 102.082 162.505 106.474 162.505Z" fill="#186F81"/>
<path d="M183.894 171.429C180.211 171.429 176.811 170.225 173.695 167.817C170.578 165.55 168.028 162.433 166.045 158.467C161.937 149.826 159.387 140.406 158.396 130.207C157.121 120.574 156.483 111.296 156.483 102.371C156.483 100.672 156.554 99.255 156.696 98.1216V94.2969C156.696 93.5886 156.625 93.2346 156.483 93.2346V89.4099L156.696 74.5359C156.838 70.0029 157.404 62.7786 158.396 52.8627C159.104 46.0632 160.733 39.4761 163.283 33.1014C164.274 30.2685 165.549 28.1435 167.108 26.727C168.666 25.1687 170.437 24.3896 172.42 24.3896C178.086 24.3896 183.186 25.4521 187.719 27.5769C192.252 29.5601 196.076 32.3931 199.193 36.0762C202.026 39.6177 204.434 44.0091 206.417 49.2504C208.401 54.3501 209.817 59.8038 210.667 65.6115C211.517 71.5611 211.942 77.865 211.942 84.5226V86.2227C211.942 90.6138 212.013 94.5804 212.154 98.1216L212.367 110.233C212.367 151.03 202.876 171.429 183.894 171.429ZM183.044 162.505C185.594 162.505 187.931 161.513 190.056 159.53C192.181 157.405 193.81 154.572 194.943 151.03C197.635 143.806 199.264 136.015 199.83 127.657C200.538 120.433 200.893 114.2 200.893 108.958C200.893 102.584 200.397 94.2261 199.405 83.8854C198.555 72.9777 198.13 64.8324 198.13 59.4495V55.6248C197.847 50.2419 196.005 45.5673 192.606 41.601C189.348 37.6344 185.31 35.6514 180.494 35.6514C175.678 35.6514 172.49 38.4135 170.932 43.9383C169.516 48.3297 168.807 53.9958 168.807 60.9369C168.807 63.6285 168.879 65.895 169.02 67.7364V73.4736L168.595 83.2479C168.312 86.2227 168.17 89.4807 168.17 93.0222C168.17 100.672 168.383 108.25 168.807 115.758C169.374 126.382 170.791 136.723 173.057 146.781C175.324 157.263 178.653 162.505 183.044 162.505Z" fill="#186F81"/>
<path d="M242.402 168.666C238.719 168.666 236.878 159.387 236.878 140.83L237.303 107.257C237.444 97.3415 237.515 86.2217 237.515 73.8974C237.515 69.3644 237.09 62.3525 236.24 52.8617C235.532 42.5207 235.178 36.2171 235.178 33.9506C235.178 32.1089 235.957 30.4799 237.515 29.0633C239.073 27.6467 240.773 26.9385 242.615 26.9385C247.573 26.9385 252.318 28.0717 256.851 30.3383C261.526 32.4632 265.634 35.5088 269.175 39.4751C276.683 48.116 281.641 57.6071 284.049 67.9481C285.324 73.1891 285.961 78.3596 285.961 83.4593C285.961 85.3007 285.891 87.0008 285.749 88.559L285.537 94.2959V105.983C285.537 115.049 285.253 122.202 284.687 127.443C283.837 134.526 282.208 140.83 279.799 146.355C276.966 152.304 272.858 157.616 267.475 162.291C264.925 164.416 261.667 166.541 257.701 168.666H242.402ZM251.752 157.829C254.585 157.829 257.205 157.12 259.613 155.704C262.022 154.146 264.076 152.092 265.776 149.542C267.192 147.275 268.467 144.442 269.6 141.042C270.875 137.501 271.796 134.101 272.362 130.843C273.637 124.469 274.417 117.953 274.7 111.295C274.842 109.595 274.912 107.116 274.912 103.858C274.912 61.0775 266.626 38.7668 250.052 36.9254C249.06 43.2998 248.564 50.666 248.564 59.0237C248.564 67.9481 249.131 83.5301 250.264 105.77C251.256 125.46 251.752 141.113 251.752 152.729V157.829Z" fill="#186F81"/>
<path d="M408.846 172.916C407.427 172.916 406.296 172.207 405.444 170.791C404.595 169.374 404.169 167.32 404.169 164.629L403.959 133.181C403.815 130.49 403.746 126.027 403.746 119.795C403.461 106.621 403.32 91.7467 403.32 75.1729V64.3363C402.045 71.1358 399.849 80.6974 396.732 93.0217C393.618 105.771 391.422 116.253 390.147 124.469V125.744L389.508 129.781C389.226 132.898 388.518 136.085 387.384 139.343C385.968 142.743 383.772 144.443 380.796 144.443C375.696 144.443 373.146 137.785 373.146 124.469C373.146 117.103 372.369 109.241 370.809 100.884C369.393 92.3842 367.056 81.9724 363.798 69.6484L357.423 45.85L356.997 71.3482C356.997 78.9976 357.354 93.5881 358.062 115.12L358.485 129.569L358.911 158.679C358.911 161.654 357.849 164.346 355.725 166.754C352.182 166.754 349.704 165.691 348.288 163.566C347.013 161.3 346.374 158.042 346.374 153.792L346.8 136.368C347.223 128.719 347.436 122.982 347.436 119.157L346.587 36.9259C346.587 30.8344 346.728 21.6978 347.013 9.51533L352.749 6.11555C353.883 6.25721 355.014 7.10717 356.148 8.66537C357.282 10.0819 358.557 12.4193 359.973 15.6774C363.516 24.46 368.118 42.0253 373.785 68.3734C374.634 72.0565 375.201 75.1021 375.486 77.5102C377.184 85.7263 378.39 91.9591 379.098 96.2089L382.284 112.57L383.772 105.558L387.81 88.1344C390.075 77.9353 391.917 69.0109 393.333 61.3615C394.893 53.7121 396.378 45.4252 397.794 36.5008C399.354 25.8766 400.344 17.0231 400.77 9.94028V8.66537C401.055 6.82385 401.904 5.40728 403.32 4.41569C404.736 3.28244 406.437 2.71582 408.42 2.71582C409.695 2.71582 410.829 3.28244 411.819 4.41569C412.812 5.54894 413.307 6.75302 413.307 8.02793C413.307 25.0267 413.943 50.4538 415.218 84.3097C415.926 100.884 416.424 117.103 416.706 132.969C416.991 140.193 417.132 149.33 417.132 160.379C417.132 163.637 416.283 166.541 414.582 169.091C412.881 171.641 410.97 172.916 408.846 172.916Z" fill="#186F81"/>
<path d="M469.006 171.429C465.322 171.429 461.923 170.225 458.806 167.817C455.689 165.55 453.139 162.433 451.156 158.467C447.049 149.826 444.499 140.406 443.506 130.207C442.231 120.574 441.595 111.296 441.595 102.371C441.595 100.672 441.667 99.255 441.808 98.1216V94.2969C441.808 93.5886 441.736 93.2346 441.595 93.2346V89.4099L441.808 74.5359C441.949 70.0029 442.516 62.7786 443.506 52.8627C444.214 46.0632 445.843 39.4761 448.393 33.1014C449.386 30.2685 450.661 28.1435 452.218 26.727C453.778 25.1687 455.548 24.3896 457.531 24.3896C463.198 24.3896 468.298 25.4521 472.831 27.5769C477.364 29.5601 481.189 32.3931 484.303 36.0762C487.138 39.6177 489.544 44.0091 491.53 49.2504C493.513 54.3501 494.929 59.8038 495.778 65.6115C496.627 71.5611 497.053 77.865 497.053 84.5226V86.2227C497.053 90.6138 497.125 94.5804 497.266 98.1216L497.479 110.233C497.479 151.03 487.987 171.429 469.006 171.429ZM468.154 162.505C470.704 162.505 473.041 161.513 475.168 159.53C477.292 157.405 478.921 154.572 480.055 151.03C482.746 143.806 484.375 136.015 484.942 127.657C485.65 120.433 486.004 114.2 486.004 108.958C486.004 102.584 485.509 94.2261 484.516 83.8854C483.667 72.9777 483.241 64.8324 483.241 59.4495V55.6248C482.959 50.2419 481.117 45.5673 477.718 41.601C474.46 37.6344 470.422 35.6514 465.607 35.6514C460.789 35.6514 457.603 38.4135 456.043 43.9383C454.627 48.3297 453.919 53.9958 453.919 60.9369C453.919 63.6285 453.991 65.895 454.132 67.7364V73.4736L453.706 83.2479C453.424 86.2227 453.28 89.4807 453.28 93.0222C453.28 100.672 453.493 108.25 453.919 115.758C454.486 126.382 455.902 136.723 458.17 146.781C460.435 157.263 463.765 162.505 468.154 162.505Z" fill="#186F81"/>
<path d="M557.897 171.003C554.78 171.003 551.948 167.603 549.398 160.804C546.422 153.438 544.226 145.859 542.81 138.068L541.322 130.844C537.215 110.587 534.593 99.0421 533.462 96.2089H530.912C530.912 100.317 530.84 104.071 530.699 107.471V119.157C530.699 138.139 532.043 152.942 534.737 163.566L532.397 169.304H526.448L523.685 166.116L523.898 151.88C523.898 139.131 523.262 119.795 521.987 93.8716C520.853 66.2485 520.286 46.9126 520.286 35.8633C520.286 29.0638 522.623 25.6641 527.3 25.6641C534.947 25.6641 541.181 27.6472 545.996 31.6135C550.955 35.5801 553.433 41.1046 553.433 48.1873V63.0613C553.433 65.1862 553.079 67.6651 552.371 70.4983C551.663 73.1896 550.883 75.3853 550.034 77.0854L545.996 84.7348L542.597 91.1092L543.659 96.2089L546.635 111.295C548.618 122.203 550.529 131.056 552.371 137.856C554.213 144.655 556.481 150.817 559.172 156.342L560.447 158.892C561.863 161.725 562.571 163.991 562.571 165.691C562.571 167.108 562.145 168.312 561.296 169.304C560.447 170.437 559.313 171.003 557.897 171.003ZM531.761 85.7971C534.878 84.2389 537.497 79.9891 539.624 73.048C541.889 65.9653 543.023 59.449 543.023 53.4994C543.023 48.9664 542.456 44.7169 541.322 40.7506C540.614 38.4841 539.411 36.784 537.71 35.6509C536.153 34.3759 534.17 33.7384 531.761 33.7384L531.335 34.801L530.912 36.7132L531.335 61.7863C531.62 69.1525 531.761 77.1562 531.761 85.7971Z" fill="#186F81"/>
<path d="M641.388 168.028C639.687 168.028 638.412 167.603 637.563 166.753C636.711 165.762 636.075 164.133 635.649 161.866L634.374 157.829V156.767C634.374 152.092 629.487 136.156 619.713 108.958C610.08 81.7598 602.502 61.6445 596.979 48.6122V155.492L597.828 156.979C597.969 157.263 598.254 157.758 598.677 158.467C599.103 159.175 599.316 159.883 599.316 160.591C599.316 162.433 598.677 163.991 597.402 165.266C596.127 166.541 594.57 167.179 592.728 167.179C588.195 167.179 585.93 162.858 585.93 154.217L585.717 117.882C585.576 106.975 585.504 94.7921 585.504 81.3347C585.504 76.8017 585.717 70.2149 586.14 61.5737C586.566 52.6493 586.779 46.0625 586.779 41.8127C586.779 35.1548 589.329 29.9136 594.429 26.0889V27.3637C595.278 27.0805 595.845 26.9388 596.127 26.9388C599.385 26.9388 603.495 32.6051 608.451 43.9376C612.417 53.0036 615.96 62.5652 619.077 72.623C622.335 82.6805 626.583 96.9878 631.824 115.545L633.951 123.194C637.209 134.668 639.687 142.885 641.388 147.842C644.22 117.386 645.636 81.4055 645.636 39.9002V37.1381C645.495 36.2882 645.423 35.3672 645.423 34.3757C645.423 30.1262 647.124 28.0012 650.523 28.0012C652.506 28.0012 653.994 28.7803 654.987 30.3386C656.118 31.8968 656.685 33.8798 656.685 36.2882V52.2245C656.403 74.0396 655.554 97.6961 654.135 123.194C652.719 148.692 651.021 163.07 649.038 166.329C644.928 167.462 642.378 168.028 641.388 168.028Z" fill="#186F81"/>
<path d="M695.68 167.18C683.356 167.18 677.194 165.055 677.194 160.805C677.194 157.406 679.39 155.706 683.782 155.706H686.119L688.243 155.918C689.377 155.918 690.157 155.564 690.583 154.856C691.006 154.148 691.219 152.873 691.219 151.031C691.219 148.623 691.078 144.869 690.793 139.769C690.37 136.37 689.872 130.279 689.308 121.496C688.033 99.8226 687.394 83.4612 687.394 72.4119C687.394 68.4456 687.466 64.8333 687.607 61.5753L687.82 50.7387C687.82 46.0641 687.607 42.1683 687.181 39.0519C684.916 39.6186 683.287 39.9018 682.294 39.9018C678.895 39.9018 677.194 38.202 677.194 34.8024C677.194 33.1023 678.256 31.6149 680.383 30.3402C682.507 29.0652 685.198 28.1444 688.456 27.5778C694.123 26.4445 699.151 25.8779 703.543 25.8779C705.244 25.8779 706.66 26.5154 707.794 27.7903C709.069 28.9235 709.705 30.2694 709.705 31.8276C709.705 33.3858 709.21 34.7316 708.217 35.8647C707.368 36.9981 706.234 37.5645 704.818 37.5645C703.969 37.5645 703.261 37.4937 702.694 37.3521H700.993C699.577 37.3521 698.515 37.7064 697.807 38.4144C697.24 38.9811 696.955 40.1145 696.955 41.8143C696.955 55.5549 697.807 76.2366 699.505 103.86C699.79 108.959 700.357 116.467 701.206 126.383C701.914 132.899 702.268 139.557 702.268 146.356V154.431C703.117 154.289 704.536 154.219 706.519 154.219C712.468 154.219 715.441 156.697 715.441 161.655V162.93L710.131 166.543C709.987 166.543 709.492 166.613 708.643 166.755C707.935 166.755 706.519 166.755 704.392 166.755C699.859 167.038 696.955 167.18 695.68 167.18Z" fill="#186F81"/>
<path d="M790.998 168.028C789.297 168.028 788.022 167.603 787.173 166.753C786.324 165.762 785.685 164.133 785.262 161.866L783.987 157.829V156.767C783.987 152.092 779.097 136.156 769.323 108.958C759.693 81.7598 752.112 61.6445 746.589 48.6122V155.492L747.438 156.979C747.579 157.263 747.864 157.758 748.287 158.467C748.713 159.175 748.926 159.883 748.926 160.591C748.926 162.433 748.287 163.991 747.012 165.266C745.737 166.541 744.18 167.179 742.338 167.179C737.805 167.179 735.54 162.858 735.54 154.217L735.327 117.882C735.186 106.975 735.114 94.7921 735.114 81.3347C735.114 76.8017 735.327 70.2149 735.753 61.5737C736.176 52.6493 736.389 46.0625 736.389 41.8127C736.389 35.1548 738.939 29.9136 744.039 26.0889V27.3637C744.888 27.0805 745.455 26.9388 745.737 26.9388C748.998 26.9388 753.105 32.6051 758.064 43.9376C762.03 53.0036 765.57 62.5652 768.687 72.623C771.945 82.6805 776.196 96.9878 781.437 115.545L783.561 123.194C786.819 134.668 789.297 142.885 790.998 147.842C793.83 117.386 795.246 81.4055 795.246 39.9002V37.1381C795.105 36.2882 795.036 35.3672 795.036 34.3757C795.036 30.1262 796.734 28.0012 800.133 28.0012C802.119 28.0012 803.604 28.7803 804.597 30.3386C805.731 31.8968 806.298 33.8798 806.298 36.2882V52.2245C806.013 74.0396 805.164 97.6961 803.748 123.194C802.329 148.692 800.631 163.07 798.648 166.329C794.538 167.462 791.988 168.028 790.998 168.028Z" fill="#186F81"/>
<path d="M862.29 169.091C858.324 169.091 854.712 168.383 851.454 166.966C848.196 165.408 845.433 163.425 843.165 161.017C841.323 159.034 839.625 156.13 838.065 152.305C836.508 148.48 835.374 144.797 834.666 141.256C833.958 138.565 833.391 134.669 832.968 129.569C832.542 124.47 832.257 120.078 832.116 116.395V95.5719C832.116 87.3558 832.257 80.6271 832.542 75.3858C832.824 69.0114 833.745 62.2827 835.305 55.2C836.58 48.8253 838.776 43.23 841.89 38.4135C844.866 33.5973 849.045 30.2685 854.427 28.4268C856.977 27.4352 859.953 26.9395 863.352 26.9395C869.442 26.9395 872.49 28.7101 872.49 32.2515C872.49 33.9516 871.779 35.3679 870.363 36.5013C869.088 37.4928 867.531 37.9887 865.689 37.9887C864.84 37.9887 864.06 37.9179 863.352 37.7763C862.785 37.6344 862.077 37.5636 861.228 37.5636C858.819 37.5636 856.695 38.8386 854.853 41.3883C853.011 43.9383 851.454 47.4795 850.179 52.0125C847.911 60.7953 846.354 70.3572 845.502 80.6979C844.938 90.3306 844.653 97.4844 844.653 102.159C844.653 106.975 844.866 113.562 845.292 121.92C845.856 129.711 847.062 136.51 848.904 142.318C849.894 145.718 851.028 148.48 852.303 150.605C853.719 152.588 855.489 154.288 857.616 155.705C860.022 157.263 862.503 158.042 865.053 158.042C871.851 158.042 875.25 146.71 875.25 124.045V114.271C874.26 113.845 872.631 113.633 870.363 113.633H866.115C861.156 113.633 858.678 112.004 858.678 108.746C858.678 106.763 859.314 105.275 860.589 104.284C862.005 103.15 863.778 102.584 865.902 102.584V102.796H868.875C881.625 102.796 888 104.992 888 109.383C888 110.658 887.646 113.208 886.938 117.033C886.089 120.433 885.663 122.982 885.663 124.682C885.663 127.09 885.876 130.844 886.299 135.944L886.725 147.205C886.725 154.005 884.316 159.388 879.501 163.354C874.827 167.179 869.088 169.091 862.29 169.091Z" fill="#186F81"/>
</svg>
