<svg width="296" height="58" viewBox="0 0 296 58" fill="none" xmlns="http://www.w3.org/2000/svg">
<path d="M12.4657 57.6386C9.86871 57.6386 7.72026 56.8595 6.02039 55.3013C4.65104 54.1681 3.39975 52.2321 2.2665 49.4934C1.55822 47.6991 0.991593 45.1729 0.566625 41.9148C0.236094 39.2705 0.070828 36.768 0.070828 34.407C0.0236093 33.7932 0 32.7307 0 31.2198V25.9785C0 23.9481 0.0708281 21.5163 0.212484 18.6832C0.401359 16.275 0.779109 13.8196 1.34573 11.3171C1.95958 8.86168 2.85673 6.78406 4.0372 5.08418C5.21767 3.28987 6.7995 2.01497 8.78268 1.25947C9.96315 0.928937 11.0728 0.763672 12.1116 0.763672C14.0948 0.763672 15.0864 1.42473 15.0864 2.74686C15.0864 3.26626 14.8975 3.69123 14.5198 4.02176C14.1892 4.30508 13.7407 4.44673 13.174 4.44673C12.9852 4.44673 12.6546 4.3759 12.1824 4.23425L11.1908 4.09259C10.2937 4.09259 9.49096 4.3759 8.78268 4.94253C8.0744 5.46193 7.48417 6.24104 7.01198 7.27985C5.92595 9.54635 5.19406 12.0253 4.81631 14.7168C4.2969 18.0221 4.01359 20.9025 3.96637 23.3578C3.87194 25.4827 3.82472 27.7256 3.82472 30.0865V31.9989C3.7775 32.6599 3.75389 33.4862 3.75389 34.4778C3.75389 36.886 3.87194 39.2469 4.10803 41.5607C4.2969 44.2993 4.81631 46.6603 5.66625 48.6435C6.42175 50.8627 7.64943 52.421 9.34931 53.3181C10.152 53.7903 11.1436 54.0264 12.3241 54.0264C14.4017 54.0264 16.1488 53.0348 17.5654 51.0516C17.5181 49.399 17.4001 47.7935 17.2112 46.2353C17.0224 44.6299 16.739 43.5438 16.3613 42.9772C16.3141 42.9772 16.196 43.0008 16.0071 43.048C15.8655 43.048 15.6294 43.0717 15.2989 43.1189L13.599 43.2605C11.9936 43.2605 11.1908 42.5759 11.1908 41.2065C11.1908 40.7815 11.4269 40.4038 11.8991 40.0733C12.3713 39.7427 13.0088 39.5066 13.8115 39.365C15.1336 39.0345 16.3141 38.8692 17.3529 38.8692C18.2973 38.8692 19.0291 39.2233 19.5486 39.9316C20.068 40.6399 20.3277 41.537 20.3277 42.6231C20.3277 44.1813 20.5638 46.3061 21.0359 48.9976C21.5081 51.6419 21.7442 53.7431 21.7442 55.3013C21.7442 55.8207 21.579 56.2693 21.2484 56.647C20.9179 57.0248 20.5165 57.2137 20.0444 57.2137C18.8639 57.2137 18.0612 56.7179 17.6362 55.7263V55.6554L16.078 56.4346C14.6614 57.2373 13.4573 57.6386 12.4657 57.6386Z" fill="#186F81"/>
<path d="M35.7748 57.1428C34.5471 57.1428 33.4139 56.7415 32.3751 55.9388C31.3363 55.1833 30.4863 54.1444 29.8253 52.8223C28.4559 49.942 27.606 46.8019 27.2755 43.4022C26.8505 40.1913 26.638 37.0985 26.638 34.1237C26.638 33.5571 26.6616 33.0849 26.7088 32.7071V31.4322C26.7088 31.1961 26.6852 31.0781 26.638 31.0781V29.8032L26.7088 24.8452C26.756 23.3342 26.9449 20.9261 27.2755 17.6208C27.5116 15.3543 28.0546 13.1586 28.9045 11.0337C29.235 10.0894 29.66 9.38109 30.1794 8.9089C30.6988 8.38949 31.289 8.12979 31.9501 8.12979C33.8389 8.12979 35.5387 8.48393 37.0497 9.19221C38.5607 9.85327 39.8356 10.7976 40.8744 12.0253C41.8188 13.2058 42.6215 14.6696 43.2826 16.4167C43.9437 18.1166 44.4159 19.9345 44.6992 21.8704C44.9825 23.8536 45.1241 25.9549 45.1241 28.1741V28.7408C45.1241 30.2045 45.1477 31.5267 45.195 32.7071L45.2658 36.7443C45.2658 50.3433 42.1021 57.1428 35.7748 57.1428ZM35.4915 54.1681C36.3415 54.1681 37.1206 53.8375 37.8288 53.1765C38.5371 52.4682 39.0801 51.5238 39.4579 50.3433C40.355 47.9352 40.8981 45.3382 41.0869 42.5522C41.323 40.1441 41.4411 38.0665 41.4411 36.3194C41.4411 34.1945 41.2758 31.4086 40.9453 27.9617C40.662 24.3258 40.5203 21.6107 40.5203 19.8164V18.5415C40.4259 16.7472 39.812 15.189 38.6788 13.8669C37.5927 12.5447 36.247 11.8837 34.6416 11.8837C33.0361 11.8837 31.9737 12.8044 31.4543 14.646C30.9821 16.1098 30.746 17.9985 30.746 20.3122C30.746 21.2094 30.7696 21.9649 30.8169 22.5787V24.4911L30.6752 27.7492C30.5808 28.7408 30.5335 29.8268 30.5335 31.0073C30.5335 33.5571 30.6044 36.0833 30.746 38.5859C30.9349 42.1273 31.4071 45.5742 32.1626 48.9268C32.9181 52.421 34.0277 54.1681 35.4915 54.1681Z" fill="#186F81"/>
<path d="M61.2978 57.1428C60.0702 57.1428 58.9369 56.7415 57.8981 55.9388C56.8593 55.1833 56.0093 54.1444 55.3483 52.8223C53.9789 49.942 53.129 46.8019 52.7985 43.4022C52.3735 40.1913 52.161 37.0985 52.161 34.1237C52.161 33.5571 52.1846 33.0849 52.2318 32.7071V31.4322C52.2318 31.1961 52.2082 31.0781 52.161 31.0781V29.8032L52.2318 24.8452C52.2791 23.3342 52.4679 20.9261 52.7985 17.6208C53.0346 15.3543 53.5776 13.1586 54.4275 11.0337C54.758 10.0894 55.183 9.38109 55.7024 8.9089C56.2218 8.38949 56.8121 8.12979 57.4731 8.12979C59.3619 8.12979 61.0617 8.48393 62.5727 9.19221C64.0837 9.85327 65.3587 10.7976 66.3975 12.0253C67.3418 13.2058 68.1446 14.6696 68.8056 16.4167C69.4667 18.1166 69.9389 19.9345 70.2222 21.8704C70.5055 23.8536 70.6471 25.9549 70.6471 28.1741V28.7408C70.6471 30.2045 70.6708 31.5267 70.718 32.7071L70.7888 36.7443C70.7888 50.3433 67.6252 57.1428 61.2978 57.1428ZM61.0145 54.1681C61.8645 54.1681 62.6436 53.8375 63.3519 53.1765C64.0601 52.4682 64.6032 51.5238 64.9809 50.3433C65.8781 47.9352 66.4211 45.3382 66.6099 42.5522C66.846 40.1441 66.9641 38.0665 66.9641 36.3194C66.9641 34.1945 66.7988 31.4086 66.4683 27.9617C66.185 24.3258 66.0433 21.6107 66.0433 19.8164V18.5415C65.9489 16.7472 65.335 15.189 64.2018 13.8669C63.1158 12.5447 61.77 11.8837 60.1646 11.8837C58.5592 11.8837 57.4967 12.8044 56.9773 14.646C56.5051 16.1098 56.269 17.9985 56.269 20.3122C56.269 21.2094 56.2927 21.9649 56.3399 22.5787V24.4911L56.1982 27.7492C56.1038 28.7408 56.0566 29.8268 56.0566 31.0073C56.0566 33.5571 56.1274 36.0833 56.269 38.5859C56.4579 42.1273 56.9301 45.5742 57.6856 48.9268C58.4411 52.421 59.5507 54.1681 61.0145 54.1681Z" fill="#186F81"/>
<path d="M80.8005 56.2221C79.5728 56.2221 78.9589 53.1292 78.9589 46.9436L79.1006 35.7527C79.1478 32.4474 79.1714 28.7408 79.1714 24.6327C79.1714 23.1217 79.0298 20.7844 78.7465 17.6208C78.5104 14.1738 78.3923 12.0726 78.3923 11.3171C78.3923 10.7032 78.652 10.1602 79.1714 9.68801C79.6908 9.21582 80.2575 8.97973 80.8713 8.97973C82.5239 8.97973 84.1058 9.35748 85.6168 10.113C87.175 10.8213 88.5443 11.8365 89.7248 13.1586C92.2274 16.0389 93.8801 19.2026 94.6828 22.6496C95.1077 24.3966 95.3202 26.1201 95.3202 27.82C95.3202 28.4338 95.2966 29.0005 95.2494 29.5199L95.1786 31.4322V35.3278C95.1786 38.3498 95.0841 40.7343 94.8953 42.4814C94.6119 44.8424 94.0689 46.9436 93.2662 48.7851C92.3218 50.7683 90.9525 52.539 89.1582 54.0972C88.3082 54.8055 87.2222 55.5138 85.9001 56.2221H80.8005ZM83.9169 52.6098C84.8613 52.6098 85.7348 52.3737 86.5375 51.9016C87.3403 51.3821 88.0249 50.6975 88.5916 49.8475C89.0637 49.092 89.4887 48.1477 89.8665 47.0144C90.2914 45.834 90.5984 44.7007 90.7872 43.6147C91.2122 41.4898 91.4719 39.3178 91.5663 37.0985C91.6136 36.5319 91.6372 35.7055 91.6372 34.6195C91.6372 20.3594 88.8749 12.9225 83.3503 12.3087C83.0197 14.4335 82.8545 16.8889 82.8545 19.6748C82.8545 22.6496 83.0434 27.8436 83.4211 35.257C83.7516 41.8204 83.9169 47.038 83.9169 50.91V52.6098Z" fill="#186F81"/>
<path d="M136.282 57.6386C135.809 57.6386 135.432 57.4025 135.148 56.9304C134.865 56.4582 134.723 55.7735 134.723 54.8763L134.653 44.3938C134.605 43.4966 134.582 42.0092 134.582 39.9316C134.487 35.5403 134.44 30.5823 134.44 25.0577V21.4455C134.015 23.712 133.283 26.8992 132.244 31.0073C131.206 35.257 130.474 38.7511 130.049 41.4898V41.9148L129.836 43.2605C129.742 44.2993 129.506 45.3618 129.128 46.4478C128.656 47.581 127.924 48.1477 126.932 48.1477C125.232 48.1477 124.382 45.9284 124.382 41.4898C124.382 39.0345 124.123 36.4138 123.603 33.6279C123.131 30.7948 122.352 27.3242 121.266 23.2162L119.141 15.2834L118.999 23.7828C118.999 26.3326 119.118 31.1961 119.354 38.3734L119.495 43.1897L119.637 52.8931C119.637 53.8847 119.283 54.7819 118.575 55.5846C117.394 55.5846 116.568 55.2305 116.096 54.5222C115.671 53.7667 115.458 52.6807 115.458 51.2641L115.6 45.4562C115.741 42.9064 115.812 40.994 115.812 39.7191L115.529 12.3087C115.529 10.2782 115.576 7.23264 115.671 3.17183L117.583 2.03857C117.961 2.08579 118.338 2.36911 118.716 2.88851C119.094 3.3607 119.519 4.13981 119.991 5.22584C121.172 8.1534 122.706 14.0085 124.595 22.7912C124.878 24.0189 125.067 25.0341 125.162 25.8368C125.728 28.5755 126.13 30.6531 126.366 32.0697L127.428 37.5235L127.924 35.1861L129.27 29.3782C130.025 25.9785 130.639 23.0037 131.111 20.4539C131.631 17.9041 132.126 15.1418 132.598 12.167C133.118 8.62559 133.448 5.67442 133.59 3.31348V2.88851C133.685 2.27467 133.968 1.80248 134.44 1.47195C134.912 1.0942 135.479 0.905326 136.14 0.905326C136.565 0.905326 136.943 1.0942 137.273 1.47195C137.604 1.8497 137.769 2.25106 137.769 2.67603C137.769 8.34227 137.981 16.818 138.406 28.1033C138.642 33.6279 138.808 39.0344 138.902 44.3229C138.997 46.7311 139.044 49.7767 139.044 53.4598C139.044 54.5458 138.761 55.5138 138.194 56.3637C137.627 57.2137 136.99 57.6386 136.282 57.6386Z" fill="#186F81"/>
<path d="M156.335 57.1428C155.107 57.1428 153.974 56.7415 152.935 55.9388C151.896 55.1833 151.046 54.1444 150.385 52.8223C149.016 49.942 148.166 46.8019 147.835 43.4022C147.41 40.1913 147.198 37.0985 147.198 34.1237C147.198 33.5571 147.222 33.0849 147.269 32.7071V31.4322C147.269 31.1961 147.245 31.0781 147.198 31.0781V29.8032L147.269 24.8452C147.316 23.3342 147.505 20.9261 147.835 17.6208C148.071 15.3543 148.614 13.1586 149.464 11.0337C149.795 10.0894 150.22 9.38109 150.739 8.9089C151.259 8.38949 151.849 8.12979 152.51 8.12979C154.399 8.12979 156.099 8.48393 157.61 9.19221C159.121 9.85327 160.396 10.7976 161.434 12.0253C162.379 13.2058 163.181 14.6696 163.843 16.4167C164.504 18.1166 164.976 19.9345 165.259 21.8704C165.542 23.8536 165.684 25.9549 165.684 28.1741V28.7408C165.684 30.2045 165.708 31.5267 165.755 32.7071L165.826 36.7443C165.826 50.3433 162.662 57.1428 156.335 57.1428ZM156.051 54.1681C156.901 54.1681 157.68 53.8375 158.389 53.1765C159.097 52.4682 159.64 51.5238 160.018 50.3433C160.915 47.9352 161.458 45.3382 161.647 42.5522C161.883 40.1441 162.001 38.0665 162.001 36.3194C162.001 34.1945 161.836 31.4086 161.505 27.9617C161.222 24.3258 161.08 21.6107 161.08 19.8164V18.5415C160.986 16.7472 160.372 15.189 159.239 13.8669C158.153 12.5447 156.807 11.8837 155.202 11.8837C153.596 11.8837 152.534 12.8044 152.014 14.646C151.542 16.1098 151.306 17.9985 151.306 20.3122C151.306 21.2094 151.33 21.9649 151.377 22.5787V24.4911L151.235 27.7492C151.141 28.7408 151.093 29.8268 151.093 31.0073C151.093 33.5571 151.164 36.0833 151.306 38.5859C151.495 42.1273 151.967 45.5742 152.723 48.9268C153.478 52.421 154.588 54.1681 156.051 54.1681Z" fill="#186F81"/>
<path d="M185.966 57.0012C184.927 57.0012 183.983 55.8679 183.133 53.6014C182.141 51.1461 181.409 48.6199 180.937 46.0228L180.441 43.6147C179.072 36.8624 178.198 33.0141 177.821 32.0697H176.971C176.971 33.439 176.947 34.6903 176.9 35.8236V39.7191C176.9 46.0464 177.348 50.9808 178.246 54.5222L177.466 56.4346H175.483L174.562 55.3721L174.633 50.6266C174.633 46.377 174.421 39.9316 173.996 31.2906C173.618 22.0829 173.429 15.6376 173.429 11.9545C173.429 9.68801 174.208 8.55476 175.767 8.55476C178.316 8.55476 180.394 9.21582 181.999 10.5379C183.652 11.8601 184.478 13.7016 184.478 16.0625V21.0205C184.478 21.7288 184.36 22.5551 184.124 23.4995C183.888 24.3966 183.628 25.1285 183.345 25.6952L181.999 28.245L180.866 30.3698L181.22 32.0697L182.212 37.0985C182.873 40.7343 183.51 43.6855 184.124 45.952C184.738 48.2185 185.494 50.2725 186.391 52.114L186.816 52.964C187.288 53.9083 187.524 54.6639 187.524 55.2305C187.524 55.7027 187.382 56.104 187.099 56.4346C186.816 56.8123 186.438 57.0012 185.966 57.0012ZM177.254 28.5991C178.293 28.0797 179.166 26.6631 179.875 24.3494C180.63 21.9885 181.008 19.8164 181.008 17.8332C181.008 16.3222 180.819 14.9057 180.441 13.5836C180.205 12.8281 179.804 12.2614 179.237 11.8837C178.718 11.4587 178.057 11.2462 177.254 11.2462L177.112 11.6004L176.971 12.2378L177.112 20.5955C177.207 23.0509 177.254 25.7188 177.254 28.5991Z" fill="#186F81"/>
<path d="M213.796 56.0096C213.229 56.0096 212.804 55.8679 212.521 55.5846C212.237 55.2541 212.025 54.7111 211.883 53.9556L211.458 52.6098V52.2557C211.458 50.6975 209.829 45.3854 206.571 36.3194C203.36 27.2534 200.834 20.5483 198.993 16.2042V51.8307L199.276 52.3265C199.323 52.421 199.418 52.5862 199.559 52.8223C199.701 53.0584 199.772 53.2945 199.772 53.5306C199.772 54.1444 199.559 54.6639 199.134 55.0888C198.709 55.5138 198.19 55.7263 197.576 55.7263C196.065 55.7263 195.31 54.2861 195.31 51.4058L195.239 39.2942C195.192 35.6583 195.168 31.5975 195.168 27.1117C195.168 25.6007 195.239 23.4051 195.38 20.5247C195.522 17.5499 195.593 15.3543 195.593 13.9377C195.593 11.7184 196.443 9.97132 198.143 8.69642V9.12138C198.426 9.02695 198.615 8.97973 198.709 8.97973C199.795 8.97973 201.165 10.8685 202.817 14.646C204.139 17.668 205.32 20.8552 206.359 24.2078C207.445 27.5603 208.861 32.3294 210.608 38.515L211.317 41.0649C212.403 44.8896 213.229 47.6283 213.796 49.2809C214.74 39.1289 215.212 27.1353 215.212 13.3002V12.3795C215.165 12.0962 215.141 11.7892 215.141 11.4587C215.141 10.0422 215.708 9.33387 216.841 9.33387C217.502 9.33387 217.998 9.59357 218.329 10.113C218.706 10.6324 218.895 11.2934 218.895 12.0962V17.4083C218.801 24.68 218.518 32.5655 218.045 41.0649C217.573 49.5642 217.007 54.3569 216.346 55.443C214.976 55.8207 214.126 56.0096 213.796 56.0096Z" fill="#186F81"/>
<path d="M231.893 55.7263C227.785 55.7263 225.731 55.018 225.731 53.6014C225.731 52.4682 226.463 51.9016 227.927 51.9016H228.706L229.414 51.9724C229.792 51.9724 230.052 51.8543 230.194 51.6182C230.335 51.3822 230.406 50.9572 230.406 50.3433C230.406 49.5406 230.359 48.2893 230.264 46.5894C230.123 45.4562 229.957 43.4258 229.769 40.4982C229.344 33.2738 229.131 27.82 229.131 24.1369C229.131 22.8148 229.155 21.6107 229.202 20.5247L229.273 16.9125C229.273 15.3543 229.202 14.0557 229.06 13.0169C228.305 13.2058 227.762 13.3002 227.431 13.3002C226.298 13.3002 225.731 12.7336 225.731 11.6004C225.731 11.0337 226.085 10.5379 226.794 10.113C227.502 9.68801 228.399 9.38109 229.485 9.19221C231.374 8.81446 233.05 8.62559 234.514 8.62559C235.081 8.62559 235.553 8.83807 235.931 9.26304C236.356 9.64079 236.568 10.0894 236.568 10.6088C236.568 11.1282 236.403 11.5768 236.072 11.9545C235.789 12.3323 235.411 12.5211 234.939 12.5211C234.656 12.5211 234.42 12.4975 234.231 12.4503H233.664C233.192 12.4503 232.838 12.5684 232.602 12.8044C232.413 12.9933 232.318 13.3711 232.318 13.9377C232.318 18.5179 232.602 25.4118 233.168 34.6195C233.263 36.3194 233.452 38.822 233.735 42.1273C233.971 44.2993 234.089 46.5186 234.089 48.7851V51.4766C234.372 51.4294 234.845 51.4058 235.506 51.4058C237.489 51.4058 238.48 52.2321 238.48 53.8847V54.3097L236.71 55.5138C236.662 55.5138 236.497 55.5374 236.214 55.5846C235.978 55.5846 235.506 55.5846 234.797 55.5846C233.286 55.6791 232.318 55.7263 231.893 55.7263Z" fill="#186F81"/>
<path d="M263.666 56.0096C263.099 56.0096 262.674 55.8679 262.391 55.5846C262.108 55.2541 261.895 54.7111 261.754 53.9556L261.329 52.6098V52.2557C261.329 50.6975 259.699 45.3854 256.441 36.3194C253.231 27.2534 250.704 20.5483 248.863 16.2042V51.8307L249.146 52.3265C249.193 52.421 249.288 52.5862 249.429 52.8223C249.571 53.0584 249.642 53.2945 249.642 53.5306C249.642 54.1444 249.429 54.6639 249.004 55.0888C248.579 55.5138 248.06 55.7263 247.446 55.7263C245.935 55.7263 245.18 54.2861 245.18 51.4058L245.109 39.2942C245.062 35.6583 245.038 31.5975 245.038 27.1117C245.038 25.6007 245.109 23.4051 245.251 20.5247C245.392 17.5499 245.463 15.3543 245.463 13.9377C245.463 11.7184 246.313 9.97132 248.013 8.69642V9.12138C248.296 9.02695 248.485 8.97973 248.579 8.97973C249.666 8.97973 251.035 10.8685 252.688 14.646C254.01 17.668 255.19 20.8552 256.229 24.2078C257.315 27.5603 258.732 32.3294 260.479 38.515L261.187 41.0649C262.273 44.8896 263.099 47.6283 263.666 49.2809C264.61 39.1289 265.082 27.1353 265.082 13.3002V12.3795C265.035 12.0962 265.012 11.7892 265.012 11.4587C265.012 10.0422 265.578 9.33387 266.711 9.33387C267.373 9.33387 267.868 9.59357 268.199 10.113C268.577 10.6324 268.766 11.2934 268.766 12.0962V17.4083C268.671 24.68 268.388 32.5655 267.916 41.0649C267.443 49.5642 266.877 54.3569 266.216 55.443C264.846 55.8207 263.996 56.0096 263.666 56.0096Z" fill="#186F81"/>
<path d="M287.43 56.3637C286.108 56.3637 284.904 56.1276 283.818 55.6554C282.732 55.136 281.811 54.475 281.055 53.6723C280.441 53.0112 279.875 52.0432 279.355 50.7683C278.836 49.4934 278.458 48.2657 278.222 47.0852C277.986 46.1881 277.797 44.8896 277.656 43.1897C277.514 41.4898 277.419 40.026 277.372 38.7984V31.8572C277.372 29.1185 277.419 26.8756 277.514 25.1285C277.608 23.0037 277.915 20.7608 278.435 18.3999C278.86 16.275 279.592 14.4099 280.63 12.8044C281.622 11.199 283.015 10.0894 284.809 9.47552C285.659 9.14499 286.651 8.97973 287.784 8.97973C289.814 8.97973 290.83 9.56996 290.83 10.7504C290.83 11.3171 290.593 11.7892 290.121 12.167C289.696 12.4975 289.177 12.6628 288.563 12.6628C288.28 12.6628 288.02 12.6392 287.784 12.592C287.595 12.5447 287.359 12.5211 287.076 12.5211C286.273 12.5211 285.565 12.9461 284.951 13.796C284.337 14.646 283.818 15.8264 283.393 17.3374C282.637 20.265 282.118 23.4523 281.834 26.8992C281.646 30.1101 281.551 32.4947 281.551 34.0529C281.551 35.6583 281.622 37.854 281.764 40.6399C281.952 43.2369 282.354 45.5034 282.968 47.4394C283.298 48.5726 283.676 49.4934 284.101 50.2017C284.573 50.8627 285.163 51.4294 285.872 51.9016C286.674 52.421 287.501 52.6807 288.351 52.6807C290.617 52.6807 291.75 48.9032 291.75 41.3482V38.0901C291.42 37.9484 290.877 37.8776 290.121 37.8776H288.705C287.052 37.8776 286.226 37.3346 286.226 36.2485C286.226 35.5875 286.438 35.0917 286.863 34.7612C287.335 34.3834 287.926 34.1945 288.634 34.1945V34.2654H289.625C293.875 34.2654 296 34.9973 296 36.461C296 36.886 295.882 37.7359 295.646 39.0108C295.363 40.1441 295.221 40.994 295.221 41.5607C295.221 42.3634 295.292 43.6147 295.433 45.3145L295.575 49.0684C295.575 51.3349 294.772 53.1292 293.167 54.4514C291.609 55.7263 289.696 56.3637 287.43 56.3637Z" fill="#186F81"/>
</svg>
