<svg width="600" height="798" viewBox="0 0 600 798" fill="none" xmlns="http://www.w3.org/2000/svg">
<path d="M557.547 2.9707H42.4527C19.0067 2.9707 0 21.9774 0 45.4234V752.971C0 776.417 19.0067 795.424 42.4527 795.424H557.547C580.993 795.424 600 776.417 600 752.971V45.4234C600 21.9774 580.993 2.9707 557.547 2.9707Z" fill="#76DC9F"/>
<path d="M557.547 2.9707H42.4527C19.0067 2.9707 0 21.9774 0 45.4234V752.971C0 776.417 19.0067 795.424 42.4527 795.424H557.547C580.993 795.424 600 776.417 600 752.971V45.4234C600 21.9774 580.993 2.9707 557.547 2.9707Z" fill="black" fill-opacity="0.05"/>
<path d="M30.4219 131.159H569.573" stroke="white" stroke-opacity="0.5" stroke-width="4.24527" stroke-linecap="round"/>
<path d="M151.987 94.7008C151.704 94.5874 151.308 94.1914 151.138 93.8518C150.799 93.2857 150.799 91.9273 150.855 70.6441C150.912 46.2478 150.855 47.38 151.874 46.6441C152.44 46.3045 153.799 46.3045 154.365 46.7008C155.327 47.3233 155.383 47.4931 155.383 57.0025V65.7763C155.383 65.7763 171.742 65.2669 171.799 65.0971C171.912 64.9837 171.968 61.1347 171.968 56.4931C171.968 47.38 171.968 47.3233 172.931 46.6441C173.157 46.4743 173.723 46.3612 174.233 46.3612C175.308 46.3612 176.157 47.0971 176.327 48.0592C176.383 48.3988 176.44 58.8139 176.383 71.2102L176.327 92.7763C176.327 93.3988 176.101 93.9649 175.648 94.3612C175.138 94.8706 174.799 95.0404 174.289 95.0404C173.383 95.0404 172.591 94.5874 172.195 93.8518C171.912 93.2857 171.855 92.3233 171.799 81.5686L171.742 69.8518L167.157 69.9649C161.95 70.0216 157.365 70.1914 156.176 70.3612L155.383 70.4176L155.327 82.078L155.27 92.7763C155.27 93.3988 155.044 93.9649 154.591 94.3612C153.799 95.0971 152.893 95.2102 151.987 94.7008ZM204.445 79.1914C204.615 90.6253 204.558 91.8139 204.275 92.38C203.483 93.9082 201.275 93.8518 200.369 92.3233C200.086 91.8706 200.03 91.1347 199.917 87.5686L199.86 83.38L198.841 85.4176C196.86 89.3233 194.822 91.7575 192.445 92.8327C185.653 96.0592 182.822 87.9082 182.313 82.7575C181.747 76.4743 183.728 68.4367 187.011 64.0216C189.558 60.5686 191.822 59.2102 195.049 59.2102C196.973 59.2102 198.332 59.6065 200.03 60.7384C202.973 62.6629 204.332 66.0025 204.388 69.3988C204.388 70.8139 204.388 72.229 204.388 73.6441C204.445 75.4555 204.445 77.3233 204.445 79.1914ZM196.973 77.9461C198.784 73.078 199.69 70.0216 199.69 68.6629C199.69 65.1535 195.954 62.6629 193.181 64.3045C189.502 66.4555 186.615 74.38 186.898 81.3988C186.954 82.9273 187.294 88.5874 189.502 88.8139C189.954 88.8706 190.464 88.7008 190.86 88.4176C194.143 86.38 195.728 81.3424 196.973 77.9461ZM234.653 67.8706C235.502 71.3233 235.502 75.1159 235.276 78.6253C235.049 82.7008 233.804 87.1726 231.144 90.3424C229.502 92.3233 226.955 93.7384 224.351 93.682C221.691 93.5686 219.427 92.1535 217.446 90.5122L215.861 89.2102V90.1726C215.861 90.682 215.691 91.3612 215.578 91.6441C214.785 93.1726 212.408 93.1159 211.615 91.5874C211.049 90.5686 210.936 84.1726 210.88 62.8327C210.88 43.3612 210.88 42.682 211.276 42.0025C212.068 40.3045 214.049 40.078 215.182 41.5498C215.521 42.0592 215.521 42.1726 215.464 54.0592C215.464 60.6253 215.464 66.0025 215.521 65.9461C215.578 65.8894 216.031 65.2102 216.54 64.4176C218.464 61.531 221.521 59.3233 224.182 58.8139C229.729 57.7951 233.464 63.1726 234.653 67.8706ZM230.804 75.7384C230.748 72.1726 230.068 60.9649 223.955 63.7384C220.219 65.4931 216.653 72.5686 215.917 79.9273C215.804 81.1159 215.804 81.229 216.483 82.2478C217.842 84.3988 219.144 85.9273 220.502 87.0592C222.823 88.9273 224.464 89.4367 225.936 88.8139C228.37 87.7951 229.502 84.6253 230.068 82.3045C230.578 80.1535 230.804 77.9461 230.804 75.7384ZM241.919 93.6253C241.466 93.3988 241.014 93.0592 240.9 92.5498C240.787 92.2669 240.73 91.8706 240.73 91.531C240.617 90.1159 240.674 88.6441 240.674 87.1726C240.787 76.9273 241.127 62.6629 241.297 61.3612C241.466 60.229 241.523 60.0025 242.146 59.4367C243.165 58.4743 244.693 58.7008 245.485 59.8894C245.825 60.4555 245.881 62.5498 245.655 66.1159C245.599 66.9649 245.485 73.1347 245.429 79.7575C245.372 82.9273 245.372 86.1535 245.202 89.3233C245.202 90.3988 245.259 91.7008 244.863 92.7196C244.523 93.5686 243.334 93.9082 242.485 93.7951C242.315 93.7384 242.089 93.682 241.919 93.6253ZM242.599 54.8518C242.542 54.7951 242.429 54.7384 242.315 54.682C240.957 53.7763 241.07 51.7951 242.429 50.8894C243.051 50.4931 244.127 50.5498 244.75 50.8894C245.315 51.229 245.655 51.7951 245.768 52.4176C245.995 53.8327 245.089 55.078 243.617 55.078C243.278 55.078 242.938 55.0216 242.599 54.8518ZM258.164 93.1159C257.767 92.8894 257.428 92.5498 257.314 92.0404C256.975 90.8518 257.088 89.4931 257.032 88.2478C256.975 84.8518 256.975 81.3988 256.975 78.0025L256.918 64.4176H253.975C252.277 64.4176 249.503 64.7575 249.164 62.4931C249.05 61.7008 249.334 60.9649 249.899 60.4555C250.862 59.5498 252.73 59.7763 253.975 59.7763H256.805V53.9461C256.805 52.3612 256.805 50.7196 256.862 49.078C256.918 48.4555 256.918 47.6629 257.314 47.1535C257.711 46.531 258.56 46.1914 259.296 46.2478C261.73 46.4176 261.447 49.2478 261.447 50.9461C261.503 51.9649 261.503 52.9273 261.503 53.9461V59.7763L264.503 59.8327C265.749 59.8327 267.447 59.5498 268.296 60.7951C268.862 61.6441 268.749 63.0592 267.899 63.682C266.994 64.3612 265.409 64.1914 264.39 64.2478L261.56 64.3612V78.229C261.56 81.5686 261.616 84.9082 261.56 88.2478C261.56 89.4931 261.616 90.9649 261.334 92.2102C260.994 93.5686 259.239 93.7951 258.164 93.1159ZM291.805 94.4743C291.295 94.2478 290.842 93.7951 290.672 93.229C290.446 92.6629 290.559 91.8706 290.503 91.2478C290.503 88.4176 290.559 85.5874 290.559 82.7575C290.616 79.3612 290.672 75.9649 290.729 72.5122C290.899 61.2478 291.069 51.7384 291.125 51.3424L291.238 50.6629L289.654 50.7763C285.521 51.0025 279.918 51.0025 279.295 50.7763C278.503 50.5498 277.767 49.531 277.767 48.7384C277.767 47.6629 278.389 46.9273 279.691 46.531C280.427 46.3612 304.881 45.9082 306.183 46.078C307.482 46.3045 308.898 47.3233 308.616 48.8518C308.388 50.1535 307.257 50.4367 306.126 50.5498C304.596 50.6629 303.012 50.6065 301.482 50.6629L295.767 50.7763L295.654 53.7196C295.597 55.3612 295.427 64.8706 295.314 74.7763C295.144 88.7008 295.031 93.0025 294.805 93.4555C294.295 94.7008 292.88 94.9837 291.805 94.4743ZM308.634 93.229C308.067 92.9461 307.671 92.2669 307.446 91.3612C307.389 91.0216 307.446 88.8139 307.56 86.4367C307.671 84.0025 307.785 77.3233 307.899 71.4931C308.067 60.1159 308.067 60.0592 309.087 59.2669C310.218 58.4176 311.691 58.6441 312.369 59.8327C312.711 60.3988 312.768 60.6253 312.654 63.5122C312.597 66.0592 312.597 66.5122 312.822 66.229C314.577 63.682 315.483 62.4931 316.617 61.4176C318.483 59.7196 321.03 58.5874 323.634 58.6441C324.936 58.6441 326.181 58.9273 327.315 59.5498C328.332 60.1159 329.634 60.9082 329.805 62.1535C329.862 62.4931 329.862 62.8327 329.748 63.1726C329.409 64.078 328.785 64.6441 327.822 64.7575C327.144 64.8139 326.862 64.7575 325.899 64.078C323.748 62.6065 320.973 63.4555 319.332 65.2669C317.748 67.0216 316.56 68.9461 315.654 71.1535C315.483 71.6065 315.315 72.1159 315.087 72.5686C313.164 77.8894 312.201 82.8706 312.201 88.1914C312.201 91.5874 312.03 92.38 311.238 93.0592C310.617 93.5686 309.426 93.682 308.634 93.229ZM354.081 79.1914C354.249 90.6253 354.192 91.8139 353.91 92.38C353.118 93.9082 350.91 93.8518 350.004 92.3233C349.722 91.8706 349.665 91.1347 349.551 87.5686L349.494 83.38L348.477 85.4176C346.494 89.3233 344.457 91.7575 342.081 92.8327C335.286 96.0592 332.457 87.9082 331.947 82.7575C331.383 76.4743 333.363 68.4367 336.645 64.0216C339.192 60.5686 341.457 59.2102 344.685 59.2102C346.608 59.2102 347.967 59.6065 349.665 60.7384C352.608 62.6629 353.967 66.0025 354.024 69.3988C354.024 70.8139 354.024 72.229 354.024 73.6441C354.081 75.4555 354.081 77.3233 354.081 79.1914ZM346.608 77.9461C348.42 73.078 349.326 70.0216 349.326 68.6629C349.326 65.1535 345.588 62.6629 342.816 64.3045C339.135 66.4555 336.249 74.38 336.534 81.3988C336.588 82.9273 336.93 88.5874 339.135 88.8139C339.588 88.8706 340.098 88.7008 340.494 88.4176C343.779 86.38 345.363 81.3424 346.608 77.9461ZM367.815 93.4555C365.214 92.8327 362.892 91.2478 361.365 88.9837C358.476 84.6253 357.966 79.078 358.872 73.9837C359.61 69.9082 361.194 65.6065 363.966 62.38C365.664 60.3988 368.043 58.9837 370.704 58.7575C373.476 58.5874 376.137 59.8327 378.006 61.8139C379.137 63.0025 380.778 65.0971 379.251 66.6253C378.345 67.4743 377.043 66.9082 376.08 66.1159C375.174 65.2669 374.268 64.3045 373.137 63.682C371.496 62.8327 369.402 63.4555 368.043 64.7008C363.57 68.7196 362.835 76.4176 363.798 81.9082C364.365 85.3045 366.402 89.2669 370.365 89.3233C372.117 89.3233 373.023 88.9273 374.721 87.3988C376.08 86.1535 376.761 85.9273 377.721 86.3233C379.137 86.8894 379.59 88.4743 378.684 89.8327C378.063 90.7384 376.023 92.3233 374.61 92.9461C372.459 93.9082 370.023 94.078 367.815 93.4555ZM385.323 93.1159C384.588 92.7763 384.021 92.0971 383.85 91.2478C383.34 87.9082 383.907 51.1159 384.588 44.1535C384.813 41.7763 384.87 41.4367 385.323 40.8706C386.001 39.9649 387.078 39.682 387.984 40.1347C388.38 40.3612 388.833 40.7575 389.058 41.0971C389.397 41.7196 389.397 41.8327 389.058 45.7384C388.776 49.4176 388.437 61.9837 388.437 69.1726C388.437 71.6065 388.437 71.9461 388.662 71.7196C389.286 71.0971 392.907 65.8327 394.719 63.0025C395.793 61.3612 396.87 59.7763 397.209 59.4931C398.739 58.1914 400.887 59.1535 400.887 61.1914C400.887 61.7575 400.491 62.4931 398.85 65.1535C397.662 66.9649 396.021 69.3988 395.172 70.6441C394.323 71.8327 393.642 72.9082 393.642 73.0216C393.642 73.4176 394.152 74.0971 394.38 74.4931C394.944 75.5686 395.511 76.5874 396.135 77.6629C397.437 80.0404 398.739 82.3612 400.152 84.682C400.944 86.0404 401.85 87.3424 402.642 88.7008C403.038 89.3233 403.38 89.8894 403.38 90.6253C403.437 92.1535 402.021 93.229 400.548 92.7763C399.588 92.4931 399.078 91.531 398.568 90.7384C396.474 87.7951 394.662 84.5686 392.907 81.3988C391.662 79.078 390.531 77.1535 390.474 77.0404C390.417 76.9837 389.85 77.4931 389.286 78.229L388.152 79.5874L388.38 85.4743C388.437 87.0592 388.491 88.7008 388.437 90.3424C388.437 91.4743 388.323 92.6629 387.078 93.1726C386.511 93.3988 385.887 93.3424 385.323 93.1159ZM423.939 86.3233C424.731 86.7196 425.184 87.4555 425.184 88.3612C425.184 89.3233 424.788 89.9461 423.597 91.0216C420.993 93.3988 416.352 94.531 413.352 93.5122C410.637 92.5498 408.429 90.6253 406.956 88.1347C404.07 83.2669 404.013 76.7008 405.486 71.3233C406.788 66.3424 408.939 62.8327 412.278 60.3424C412.617 60.1159 412.956 59.8894 413.295 59.6629C416.466 57.9082 420.429 58.3045 422.127 61.7575C423.54 64.5874 423.033 68.1535 421.731 70.9837C420.033 74.8327 415.221 77.8894 410.862 77.8894H409.278V77.9461C409.278 79.1347 409.335 80.3233 409.503 81.5122C409.56 81.9082 409.674 82.3045 409.731 82.7008C410.352 85.1914 411.654 87.5686 413.976 88.7575C416.295 89.9461 419.241 88.8706 420.993 87.1726C422.127 86.0971 422.919 85.8706 423.939 86.3233ZM411.372 68.6065C410.466 70.531 409.788 72.682 409.956 73.1347C410.352 74.0971 412.842 72.9649 413.409 72.682C416.58 71.38 419.241 67.8139 418.278 64.2478C417.993 63.2857 417.486 63.0025 416.466 63.2857C414.768 63.7384 412.674 65.8894 411.372 68.6065ZM429.912 93.229C429.345 92.9461 428.949 92.2669 428.724 91.3612C428.667 91.0216 428.724 88.8139 428.838 86.4367C428.949 84.0025 429.063 77.3233 429.177 71.4931C429.345 60.1159 429.345 60.0592 430.365 59.2669C431.496 58.4176 432.969 58.6441 433.647 59.8327C433.989 60.3988 434.046 60.6253 433.932 63.5122C433.875 66.0592 433.875 66.5122 434.1 66.229C435.855 63.682 436.761 62.4931 437.895 61.4176C439.761 59.7196 442.308 58.5874 444.912 58.6441C446.214 58.6441 447.459 58.9273 448.593 59.5498C449.61 60.1159 450.912 60.9082 451.083 62.1535C451.14 62.4931 451.14 62.8327 451.026 63.1726C450.687 64.078 450.063 64.6441 449.1 64.7575C448.422 64.8139 448.14 64.7575 447.177 64.078C445.026 62.6065 442.251 63.4555 440.61 65.2669C439.026 67.0216 437.838 68.9461 436.932 71.1535C436.761 71.6065 436.593 72.1159 436.365 72.5686C434.442 77.8894 433.479 82.8706 433.479 88.1914C433.479 91.5874 433.308 92.38 432.516 93.0592C431.895 93.5686 430.704 93.682 429.912 93.229Z" fill="white"/>
<path d="M549.06 183.908H50.9475C47.8213 183.908 45.2871 186.442 45.2871 189.569V263.154C45.2871 266.28 47.8213 268.814 50.9475 268.814H549.06C552.186 268.814 554.72 266.28 554.72 263.154V189.569C554.72 186.442 552.186 183.908 549.06 183.908Z" fill="white" fill-opacity="0.4"/>
<path d="M73.589 336.738C89.2197 336.738 101.891 324.067 101.891 308.436C101.891 292.805 89.2197 280.134 73.589 280.134C57.9583 280.134 45.2871 292.805 45.2871 308.436C45.2871 324.067 57.9583 336.738 73.589 336.738Z" fill="white" fill-opacity="0.4"/>
<path d="M149.061 336.738C164.691 336.738 177.363 324.067 177.363 308.436C177.363 292.805 164.691 280.134 149.061 280.134C133.43 280.134 120.759 292.805 120.759 308.436C120.759 324.067 133.43 336.738 149.061 336.738Z" fill="white" fill-opacity="0.4"/>
<path d="M224.532 336.738C240.163 336.738 252.834 324.067 252.834 308.436C252.834 292.805 240.163 280.134 224.532 280.134C208.902 280.134 196.23 292.805 196.23 308.436C196.23 324.067 208.902 336.738 224.532 336.738Z" fill="white" fill-opacity="0.4"/>
<path d="M300.004 336.738C315.635 336.738 328.306 324.066 328.306 308.436C328.306 292.805 315.635 280.134 300.004 280.134C284.373 280.134 271.702 292.805 271.702 308.436C271.702 324.066 284.373 336.738 300.004 336.738Z" fill="white" fill-opacity="0.4"/>
<path d="M375.476 336.738C391.106 336.738 403.778 324.066 403.778 308.436C403.778 292.805 391.106 280.134 375.476 280.134C359.845 280.134 347.174 292.805 347.174 308.436C347.174 324.066 359.845 336.738 375.476 336.738Z" fill="white" fill-opacity="0.4"/>
<path d="M450.948 336.738C466.579 336.738 479.25 324.067 479.25 308.436C479.25 292.805 466.579 280.134 450.948 280.134C435.318 280.134 422.646 292.805 422.646 308.436C422.646 324.067 435.318 336.738 450.948 336.738Z" fill="white" fill-opacity="0.4"/>
<path d="M526.419 336.738C542.05 336.738 554.721 324.067 554.721 308.436C554.721 292.805 542.05 280.134 526.419 280.134C510.788 280.134 498.117 292.805 498.117 308.436C498.117 324.067 510.788 336.738 526.419 336.738Z" fill="white" fill-opacity="0.4"/>
<path d="M549.06 387.68H50.9475C47.8213 387.68 45.2871 390.214 45.2871 393.34V466.925C45.2871 470.051 47.8213 472.585 50.9475 472.585H549.06C552.186 472.585 554.72 470.051 554.72 466.925V393.34C554.72 390.214 552.186 387.68 549.06 387.68Z" fill="white" fill-opacity="0.4"/>
<path d="M73.589 540.512C89.2197 540.512 101.891 527.841 101.891 512.21C101.891 496.579 89.2197 483.908 73.589 483.908C57.9583 483.908 45.2871 496.579 45.2871 512.21C45.2871 527.841 57.9583 540.512 73.589 540.512Z" fill="white" fill-opacity="0.4"/>
<path d="M149.061 540.512C164.691 540.512 177.363 527.841 177.363 512.21C177.363 496.579 164.691 483.908 149.061 483.908C133.43 483.908 120.759 496.579 120.759 512.21C120.759 527.841 133.43 540.512 149.061 540.512Z" fill="white" fill-opacity="0.4"/>
<path d="M224.532 540.512C240.163 540.512 252.834 527.841 252.834 512.21C252.834 496.579 240.163 483.908 224.532 483.908C208.902 483.908 196.23 496.579 196.23 512.21C196.23 527.841 208.902 540.512 224.532 540.512Z" fill="white" fill-opacity="0.4"/>
<path d="M300.004 540.512C315.635 540.512 328.306 527.841 328.306 512.21C328.306 496.579 315.635 483.908 300.004 483.908C284.373 483.908 271.702 496.579 271.702 512.21C271.702 527.841 284.373 540.512 300.004 540.512Z" fill="white" fill-opacity="0.4"/>
<path d="M375.476 540.512C391.106 540.512 403.778 527.841 403.778 512.21C403.778 496.579 391.106 483.908 375.476 483.908C359.845 483.908 347.174 496.579 347.174 512.21C347.174 527.841 359.845 540.512 375.476 540.512Z" fill="white" fill-opacity="0.4"/>
<path d="M450.947 540.512C466.578 540.512 479.249 527.841 479.249 512.21C479.249 496.579 466.578 483.908 450.947 483.908C435.317 483.908 422.646 496.579 422.646 512.21C422.646 527.841 435.317 540.512 450.947 540.512Z" fill="white" fill-opacity="0.4"/>
<path d="M526.419 540.512C542.05 540.512 554.721 527.841 554.721 512.21C554.721 496.579 542.05 483.908 526.419 483.908C510.788 483.908 498.117 496.579 498.117 512.21C498.117 527.841 510.788 540.512 526.419 540.512Z" fill="white" fill-opacity="0.4"/>
<path d="M549.06 591.457H50.9475C47.8213 591.457 45.2871 593.991 45.2871 597.117V670.702C45.2871 673.829 47.8213 676.363 50.9475 676.363H549.06C552.186 676.363 554.72 673.829 554.72 670.702V597.117C554.72 593.991 552.186 591.457 549.06 591.457Z" fill="white" fill-opacity="0.4"/>
<path d="M73.589 744.283C89.2197 744.283 101.891 731.612 101.891 715.982C101.891 700.351 89.2197 687.68 73.589 687.68C57.9583 687.68 45.2871 700.351 45.2871 715.982C45.2871 731.612 57.9583 744.283 73.589 744.283Z" fill="white" fill-opacity="0.4"/>
<path d="M149.061 744.283C164.691 744.283 177.363 731.612 177.363 715.982C177.363 700.351 164.691 687.68 149.061 687.68C133.43 687.68 120.759 700.351 120.759 715.982C120.759 731.612 133.43 744.283 149.061 744.283Z" fill="white" fill-opacity="0.4"/>
<path d="M224.532 744.283C240.163 744.283 252.834 731.612 252.834 715.982C252.834 700.351 240.163 687.68 224.532 687.68C208.902 687.68 196.23 700.351 196.23 715.982C196.23 731.612 208.902 744.283 224.532 744.283Z" fill="white" fill-opacity="0.4"/>
<path d="M300.004 744.283C315.635 744.283 328.306 731.612 328.306 715.982C328.306 700.351 315.635 687.68 300.004 687.68C284.373 687.68 271.702 700.351 271.702 715.982C271.702 731.612 284.373 744.283 300.004 744.283Z" fill="white" fill-opacity="0.4"/>
<path d="M375.476 744.283C391.106 744.283 403.778 731.612 403.778 715.982C403.778 700.351 391.106 687.68 375.476 687.68C359.845 687.68 347.174 700.351 347.174 715.982C347.174 731.612 359.845 744.283 375.476 744.283Z" fill="white" fill-opacity="0.4"/>
<path d="M450.947 744.283C466.578 744.283 479.249 731.612 479.249 715.982C479.249 700.351 466.578 687.68 450.947 687.68C435.317 687.68 422.646 700.351 422.646 715.982C422.646 731.612 435.317 744.283 450.947 744.283Z" fill="white" fill-opacity="0.4"/>
<path d="M526.419 744.283C542.05 744.283 554.721 731.612 554.721 715.982C554.721 700.351 542.05 687.68 526.419 687.68C510.788 687.68 498.117 700.351 498.117 715.982C498.117 731.612 510.788 744.283 526.419 744.283Z" fill="white" fill-opacity="0.4"/>
</svg>
