<svg width="200" height="266" viewBox="0 0 200 266" fill="none" xmlns="http://www.w3.org/2000/svg">
<rect y="0.990234" width="200" height="264.151" rx="14.1509" fill="#76DC9F"/>
<rect y="0.990234" width="200" height="264.151" rx="14.1509" fill="black" fill-opacity="0.05"/>
<line x1="10.1411" y1="43.7202" x2="189.858" y2="43.7202" stroke="white" stroke-opacity="0.5" stroke-width="1.41509" stroke-linecap="round"/>
<path d="M50.6624 31.5669C50.568 31.5291 50.436 31.3971 50.3793 31.2839C50.2661 31.0952 50.2661 30.6424 50.285 23.548C50.3039 15.4159 50.285 15.7933 50.6246 15.548C50.8133 15.4348 51.2661 15.4348 51.4548 15.5669C51.7756 15.7744 51.7944 15.831 51.7944 19.0008V21.9254C51.7944 21.9254 57.2473 21.7556 57.2661 21.699C57.3039 21.6612 57.3227 20.3782 57.3227 18.831C57.3227 15.7933 57.3227 15.7744 57.6435 15.548C57.719 15.4914 57.9077 15.4537 58.0775 15.4537C58.436 15.4537 58.719 15.699 58.7756 16.0197C58.7944 16.1329 58.8133 19.6046 58.7944 23.7367L58.7756 30.9254C58.7756 31.1329 58.7001 31.3216 58.5492 31.4537C58.3793 31.6235 58.2661 31.6801 58.0963 31.6801C57.7944 31.6801 57.5303 31.5291 57.3982 31.2839C57.3039 31.0952 57.285 30.7744 57.2661 27.1895L57.2473 23.2839L55.719 23.3216C53.9831 23.3405 52.4548 23.3971 52.0586 23.4537L51.7944 23.4725L51.7756 27.3593L51.7567 30.9254C51.7567 31.1329 51.6812 31.3216 51.5303 31.4537C51.2661 31.699 50.9643 31.7367 50.6624 31.5669ZM68.1482 26.3971C68.2048 30.2084 68.186 30.6046 68.0916 30.7933C67.8275 31.3027 67.0916 31.2839 66.7897 30.7744C66.6954 30.6235 66.6765 30.3782 66.6388 29.1895L66.6199 27.7933L66.2803 28.4725C65.6199 29.7744 64.9407 30.5858 64.1482 30.9442C61.8841 32.0197 60.9407 29.3027 60.7709 27.5858C60.5822 25.4914 61.2426 22.8122 62.3369 21.3405C63.186 20.1895 63.9407 19.7367 65.0161 19.7367C65.6576 19.7367 66.1105 19.8688 66.6765 20.2461C67.6576 20.8876 68.1105 22.0008 68.1293 23.1329C68.1293 23.6046 68.1293 24.0763 68.1293 24.548C68.1482 25.1518 68.1482 25.7744 68.1482 26.3971ZM65.6576 25.982C66.2614 24.3593 66.5633 23.3405 66.5633 22.8876C66.5633 21.7178 65.318 20.8876 64.3935 21.4348C63.1671 22.1518 62.2048 24.7933 62.2992 27.1329C62.318 27.6424 62.4312 29.5291 63.1671 29.6046C63.318 29.6235 63.4878 29.5669 63.6199 29.4725C64.7143 28.7933 65.2426 27.1141 65.6576 25.982ZM78.2176 22.6235C78.5007 23.7744 78.5007 25.0386 78.4252 26.2084C78.3497 27.5669 77.9346 29.0575 77.0478 30.1141C76.5007 30.7744 75.6516 31.2461 74.7837 31.2273C73.8969 31.1895 73.1422 30.7178 72.4818 30.1707L71.9535 29.7367V30.0575C71.9535 30.2273 71.8969 30.4537 71.8592 30.548C71.595 31.0575 70.8025 31.0386 70.5384 30.5291C70.3497 30.1895 70.312 28.0575 70.2931 20.9442C70.2931 14.4537 70.2931 14.2273 70.4252 14.0008C70.6893 13.4348 71.3497 13.3593 71.7271 13.8499C71.8403 14.0197 71.8403 14.0575 71.8214 18.0197C71.8214 20.2084 71.8214 22.0008 71.8403 21.982C71.8592 21.9631 72.0101 21.7367 72.1799 21.4725C72.8214 20.5103 73.8403 19.7744 74.7271 19.6046C76.5761 19.265 77.8214 21.0575 78.2176 22.6235ZM76.9346 25.2461C76.9158 24.0575 76.6893 20.3216 74.6516 21.2461C73.4063 21.831 72.2176 24.1895 71.9724 26.6424C71.9346 27.0386 71.9346 27.0763 72.161 27.4159C72.6139 28.1329 73.0478 28.6424 73.5007 29.0197C74.2742 29.6424 74.8214 29.8122 75.312 29.6046C76.1233 29.265 76.5007 28.2084 76.6893 27.4348C76.8592 26.7178 76.9346 25.982 76.9346 25.2461ZM80.6397 31.2084C80.4887 31.1329 80.3378 31.0197 80.3 30.8499C80.2623 30.7556 80.2434 30.6235 80.2434 30.5103C80.2057 30.0386 80.2246 29.548 80.2246 29.0575C80.2623 25.6424 80.3755 20.8876 80.4321 20.4537C80.4887 20.0763 80.5076 20.0008 80.7151 19.8122C81.0548 19.4914 81.5642 19.5669 81.8283 19.9631C81.9416 20.1518 81.9604 20.8499 81.8849 22.0386C81.8661 22.3216 81.8283 24.3782 81.8095 26.5858C81.7906 27.6424 81.7906 28.7178 81.734 29.7744C81.734 30.1329 81.7529 30.5669 81.6208 30.9065C81.5076 31.1895 81.1114 31.3027 80.8283 31.265C80.7717 31.2461 80.6963 31.2273 80.6397 31.2084ZM80.8661 18.2839C80.8472 18.265 80.8095 18.2461 80.7717 18.2273C80.3189 17.9254 80.3566 17.265 80.8095 16.9631C81.017 16.831 81.3755 16.8499 81.5831 16.9631C81.7717 17.0763 81.8849 17.265 81.9227 17.4725C81.9982 17.9442 81.6963 18.3593 81.2057 18.3593C81.0925 18.3593 80.9793 18.3405 80.8661 18.2839ZM86.0545 31.0386C85.9224 30.9631 85.8092 30.8499 85.7714 30.6801C85.6582 30.2839 85.696 29.831 85.6771 29.4159C85.6582 28.2839 85.6582 27.1329 85.6582 26.0008L85.6394 21.4725H84.6582C84.0922 21.4725 83.1677 21.5858 83.0545 20.831C83.0167 20.5669 83.1111 20.3216 83.2997 20.1518C83.6205 19.8499 84.2431 19.9254 84.6582 19.9254H85.6016V17.982C85.6016 17.4537 85.6016 16.9065 85.6205 16.3593C85.6394 16.1518 85.6394 15.8876 85.7714 15.7178C85.9035 15.5103 86.1865 15.3971 86.4318 15.4159C87.2431 15.4725 87.1488 16.4159 87.1488 16.982C87.1677 17.3216 87.1677 17.6424 87.1677 17.982V19.9254L88.1677 19.9442C88.5828 19.9442 89.1488 19.8499 89.4318 20.265C89.6205 20.548 89.5828 21.0197 89.2997 21.2273C88.9979 21.4537 88.4696 21.3971 88.1299 21.4159L87.1865 21.4537V26.0763C87.1865 27.1895 87.2054 28.3027 87.1865 29.4159C87.1865 29.831 87.2054 30.3216 87.1111 30.7367C86.9979 31.1895 86.413 31.265 86.0545 31.0386ZM97.2681 31.4914C97.0982 31.4159 96.9473 31.265 96.8907 31.0763C96.8152 30.8876 96.853 30.6235 96.8341 30.4159C96.8341 29.4725 96.853 28.5291 96.853 27.5858C96.8718 26.4537 96.8907 25.3216 96.9096 24.1707C96.9662 20.4159 97.0228 17.2461 97.0416 17.1141L97.0794 16.8876L96.5511 16.9254C95.1737 17.0008 93.3058 17.0008 93.0982 16.9254C92.8341 16.8499 92.5888 16.5103 92.5888 16.2461C92.5888 15.8876 92.7964 15.6424 93.2303 15.5103C93.4756 15.4537 101.627 15.3027 102.061 15.3593C102.494 15.4348 102.966 15.7744 102.872 16.2839C102.796 16.7178 102.419 16.8122 102.042 16.8499C101.532 16.8876 101.004 16.8688 100.494 16.8876L98.5888 16.9254L98.5511 17.9065C98.5322 18.4537 98.4756 21.6235 98.4379 24.9254C98.3813 29.5669 98.3435 31.0008 98.2681 31.1518C98.0982 31.5669 97.6265 31.6612 97.2681 31.4914ZM102.878 31.0763C102.689 30.982 102.557 30.7556 102.482 30.4537C102.463 30.3405 102.482 29.6046 102.52 28.8122C102.557 28.0008 102.595 25.7744 102.633 23.831C102.689 20.0386 102.689 20.0197 103.029 19.7556C103.406 19.4725 103.897 19.548 104.123 19.9442C104.237 20.1329 104.256 20.2084 104.218 21.1707C104.199 22.0197 104.199 22.1707 104.274 22.0763C104.859 21.2273 105.161 20.831 105.539 20.4725C106.161 19.9065 107.01 19.5291 107.878 19.548C108.312 19.548 108.727 19.6424 109.105 19.8499C109.444 20.0386 109.878 20.3027 109.935 20.7178C109.954 20.831 109.954 20.9442 109.916 21.0575C109.803 21.3593 109.595 21.548 109.274 21.5858C109.048 21.6046 108.954 21.5858 108.633 21.3593C107.916 20.8688 106.991 21.1518 106.444 21.7556C105.916 22.3405 105.52 22.982 105.218 23.7178C105.161 23.8688 105.105 24.0386 105.029 24.1895C104.388 25.9631 104.067 27.6235 104.067 29.3971C104.067 30.5291 104.01 30.7933 103.746 31.0197C103.539 31.1895 103.142 31.2273 102.878 31.0763ZM118.027 26.3971C118.083 30.2084 118.064 30.6046 117.97 30.7933C117.706 31.3027 116.97 31.2839 116.668 30.7744C116.574 30.6235 116.555 30.3782 116.517 29.1895L116.498 27.7933L116.159 28.4725C115.498 29.7744 114.819 30.5858 114.027 30.9442C111.762 32.0197 110.819 29.3027 110.649 27.5858C110.461 25.4914 111.121 22.8122 112.215 21.3405C113.064 20.1895 113.819 19.7367 114.895 19.7367C115.536 19.7367 115.989 19.8688 116.555 20.2461C117.536 20.8876 117.989 22.0008 118.008 23.1329C118.008 23.6046 118.008 24.0763 118.008 24.548C118.027 25.1518 118.027 25.7744 118.027 26.3971ZM115.536 25.982C116.14 24.3593 116.442 23.3405 116.442 22.8876C116.442 21.7178 115.196 20.8876 114.272 21.4348C113.045 22.1518 112.083 24.7933 112.178 27.1329C112.196 27.6424 112.31 29.5291 113.045 29.6046C113.196 29.6235 113.366 29.5669 113.498 29.4725C114.593 28.7933 115.121 27.1141 115.536 25.982ZM122.605 31.1518C121.738 30.9442 120.964 30.4159 120.455 29.6612C119.492 28.2084 119.322 26.3593 119.624 24.6612C119.87 23.3027 120.398 21.8688 121.322 20.7933C121.888 20.1329 122.681 19.6612 123.568 19.5858C124.492 19.5291 125.379 19.9442 126.002 20.6046C126.379 21.0008 126.926 21.699 126.417 22.2084C126.115 22.4914 125.681 22.3027 125.36 22.0386C125.058 21.7556 124.756 21.4348 124.379 21.2273C123.832 20.9442 123.134 21.1518 122.681 21.5669C121.19 22.9065 120.945 25.4725 121.266 27.3027C121.455 28.4348 122.134 29.7556 123.455 29.7744C124.039 29.7744 124.341 29.6424 124.907 29.1329C125.36 28.7178 125.587 28.6424 125.907 28.7744C126.379 28.9631 126.53 29.4914 126.228 29.9442C126.021 30.2461 125.341 30.7744 124.87 30.982C124.153 31.3027 123.341 31.3593 122.605 31.1518ZM128.441 31.0386C128.196 30.9254 128.007 30.699 127.95 30.4159C127.78 29.3027 127.969 17.0386 128.196 14.7178C128.271 13.9254 128.29 13.8122 128.441 13.6235C128.667 13.3216 129.026 13.2273 129.328 13.3782C129.46 13.4537 129.611 13.5858 129.686 13.699C129.799 13.9065 129.799 13.9442 129.686 15.2461C129.592 16.4725 129.479 20.6612 129.479 23.0575C129.479 23.8688 129.479 23.982 129.554 23.9065C129.762 23.699 130.969 21.9442 131.573 21.0008C131.931 20.4537 132.29 19.9254 132.403 19.831C132.913 19.3971 133.629 19.7178 133.629 20.3971C133.629 20.5858 133.497 20.831 132.95 21.7178C132.554 22.3216 132.007 23.1329 131.724 23.548C131.441 23.9442 131.214 24.3027 131.214 24.3405C131.214 24.4725 131.384 24.699 131.46 24.831C131.648 25.1895 131.837 25.5291 132.045 25.8876C132.479 26.6801 132.913 27.4537 133.384 28.2273C133.648 28.6801 133.95 29.1141 134.214 29.5669C134.346 29.7744 134.46 29.9631 134.46 30.2084C134.479 30.7178 134.007 31.0763 133.516 30.9254C133.196 30.831 133.026 30.5103 132.856 30.2461C132.158 29.265 131.554 28.1895 130.969 27.1329C130.554 26.3593 130.177 25.7178 130.158 25.6801C130.139 25.6612 129.95 25.831 129.762 26.0763L129.384 26.5291L129.46 28.4914C129.479 29.0197 129.497 29.5669 129.479 30.1141C129.479 30.4914 129.441 30.8876 129.026 31.0575C128.837 31.1329 128.629 31.1141 128.441 31.0386ZM141.313 28.7744C141.577 28.9065 141.728 29.1518 141.728 29.4537C141.728 29.7744 141.596 29.982 141.199 30.3405C140.331 31.1329 138.784 31.5103 137.784 31.1707C136.879 30.8499 136.143 30.2084 135.652 29.3782C134.69 27.7556 134.671 25.5669 135.162 23.7744C135.596 22.1141 136.313 20.9442 137.426 20.1141C137.539 20.0386 137.652 19.9631 137.765 19.8876C138.822 19.3027 140.143 19.4348 140.709 20.5858C141.18 21.5291 141.011 22.7178 140.577 23.6612C140.011 24.9442 138.407 25.9631 136.954 25.9631H136.426V25.982C136.426 26.3782 136.445 26.7744 136.501 27.1707C136.52 27.3027 136.558 27.4348 136.577 27.5669C136.784 28.3971 137.218 29.1895 137.992 29.5858C138.765 29.982 139.747 29.6235 140.331 29.0575C140.709 28.699 140.973 28.6235 141.313 28.7744ZM137.124 22.8688C136.822 23.5103 136.596 24.2273 136.652 24.3782C136.784 24.699 137.614 24.3216 137.803 24.2273C138.86 23.7933 139.747 22.6046 139.426 21.4159C139.331 21.0952 139.162 21.0008 138.822 21.0952C138.256 21.2461 137.558 21.9631 137.124 22.8688ZM143.304 31.0763C143.115 30.982 142.983 30.7556 142.908 30.4537C142.889 30.3405 142.908 29.6046 142.946 28.8122C142.983 28.0008 143.021 25.7744 143.059 23.831C143.115 20.0386 143.115 20.0197 143.455 19.7556C143.832 19.4725 144.323 19.548 144.549 19.9442C144.663 20.1329 144.682 20.2084 144.644 21.1707C144.625 22.0197 144.625 22.1707 144.7 22.0763C145.285 21.2273 145.587 20.831 145.965 20.4725C146.587 19.9065 147.436 19.5291 148.304 19.548C148.738 19.548 149.153 19.6424 149.531 19.8499C149.87 20.0386 150.304 20.3027 150.361 20.7178C150.38 20.831 150.38 20.9442 150.342 21.0575C150.229 21.3593 150.021 21.548 149.7 21.5858C149.474 21.6046 149.38 21.5858 149.059 21.3593C148.342 20.8688 147.417 21.1518 146.87 21.7556C146.342 22.3405 145.946 22.982 145.644 23.7178C145.587 23.8688 145.531 24.0386 145.455 24.1895C144.814 25.9631 144.493 27.6235 144.493 29.3971C144.493 30.5291 144.436 30.7933 144.172 31.0197C143.965 31.1895 143.568 31.2273 143.304 31.0763Z" fill="white"/>
<rect x="15.0957" y="61.3027" width="169.811" height="28.3019" rx="1.88679" fill="white" fill-opacity="0.4"/>
<circle cx="24.5297" cy="102.812" r="9.43396" fill="white" fill-opacity="0.4"/>
<circle cx="49.6869" cy="102.812" r="9.43396" fill="white" fill-opacity="0.4"/>
<circle cx="74.8441" cy="102.812" r="9.43396" fill="white" fill-opacity="0.4"/>
<circle cx="100.001" cy="102.812" r="9.43396" fill="white" fill-opacity="0.4"/>
<circle cx="125.159" cy="102.812" r="9.43396" fill="white" fill-opacity="0.4"/>
<circle cx="150.316" cy="102.812" r="9.43396" fill="white" fill-opacity="0.4"/>
<circle cx="175.473" cy="102.812" r="9.43396" fill="white" fill-opacity="0.4"/>
<rect x="15.0957" y="129.227" width="169.811" height="28.3019" rx="1.88679" fill="white" fill-opacity="0.4"/>
<circle cx="24.5297" cy="170.737" r="9.43396" fill="white" fill-opacity="0.4"/>
<circle cx="49.6869" cy="170.737" r="9.43396" fill="white" fill-opacity="0.4"/>
<circle cx="74.8441" cy="170.737" r="9.43396" fill="white" fill-opacity="0.4"/>
<circle cx="100.001" cy="170.737" r="9.43396" fill="white" fill-opacity="0.4"/>
<circle cx="125.159" cy="170.737" r="9.43396" fill="white" fill-opacity="0.4"/>
<circle cx="150.316" cy="170.737" r="9.43396" fill="white" fill-opacity="0.4"/>
<circle cx="175.473" cy="170.737" r="9.43396" fill="white" fill-opacity="0.4"/>
<rect x="15.0957" y="197.152" width="169.811" height="28.3019" rx="1.88679" fill="white" fill-opacity="0.4"/>
<circle cx="24.5297" cy="238.661" r="9.43396" fill="white" fill-opacity="0.4"/>
<circle cx="49.6869" cy="238.661" r="9.43396" fill="white" fill-opacity="0.4"/>
<circle cx="74.8441" cy="238.661" r="9.43396" fill="white" fill-opacity="0.4"/>
<circle cx="100.001" cy="238.661" r="9.43396" fill="white" fill-opacity="0.4"/>
<circle cx="125.159" cy="238.661" r="9.43396" fill="white" fill-opacity="0.4"/>
<circle cx="150.316" cy="238.661" r="9.43396" fill="white" fill-opacity="0.4"/>
<circle cx="175.473" cy="238.661" r="9.43396" fill="white" fill-opacity="0.4"/>
</svg>
