<svg width="888" height="216" viewBox="0 0 888 216" fill="none" xmlns="http://www.w3.org/2000/svg">
<path d="M21.0118 213.371C14.5466 213.371 8.97939 212.204 4.3101 209.869C1.4367 208.253 0 206.367 0 204.212C0 202.057 0.538764 200.351 1.61629 199.094C2.69382 197.657 4.22031 196.939 6.19578 196.939C7.99167 196.939 10.5957 197.657 14.0078 199.094C17.7792 200.53 20.1138 201.249 21.0118 201.249C24.424 201.249 27.4769 199.812 30.1707 196.939C33.0441 193.886 35.289 189.935 36.9054 185.086C40.1379 176.106 41.7543 168.025 41.7543 160.842C41.7543 153.119 40.497 145.038 37.9827 136.597C35.6481 127.977 32.4156 119.626 28.2851 111.545L23.975 102.924C19.4853 93.9451 15.9833 86.8513 13.4691 81.6433C11.1344 76.4353 9.06918 70.7782 7.27332 64.6723C4.5795 56.0521 3.23259 47.7013 3.23259 39.6196C3.23259 33.1546 4.3101 27.0486 6.46515 21.3018C8.79981 15.555 12.212 10.7061 16.7017 6.7552C21.1914 2.44509 26.7586 0.290039 33.4032 0.290039C36.636 0.290039 39.7788 1.27778 42.8316 3.25324C45.8847 5.04913 48.0396 7.38376 49.2969 10.2572L44.7174 15.9142C40.0482 15.9142 36.546 15.0162 34.2114 13.2204C30.9789 13.5795 28.1055 15.1958 25.5913 18.0693C23.2566 20.7631 21.4607 23.9058 20.2036 27.4976C19.1261 30.9097 18.5873 34.3219 18.5873 37.7341C18.5873 44.5585 19.4853 51.5623 21.2812 58.7458C23.2566 65.7499 25.7708 72.3946 28.8239 78.6802L47.6805 116.394C50.7336 122.859 53.1579 130.132 54.954 138.213C56.7498 146.295 57.6477 154.377 57.6477 162.458C57.6477 174.311 54.7743 185.445 49.0275 195.861C45.9744 201.249 42.0237 205.469 37.1748 208.522C32.3259 211.755 26.9382 213.371 21.0118 213.371Z" fill="#A11275"/>
<path d="M103.615 203.133L103.345 192.627C103.166 189.574 103.076 186.161 103.076 182.39L103.345 173.231C102.806 171.256 101.459 151.591 99.3045 114.237C97.1493 76.8822 95.8923 52.9074 95.5332 42.3117C85.1169 41.9526 78.4722 40.875 75.5988 39.0792C73.6233 37.6425 72.6357 36.0261 72.6357 34.2303C72.6357 32.7936 73.5336 31.5363 75.3294 30.459C77.3049 29.2018 79.2804 28.5732 81.2559 28.5732C86.2842 28.5732 92.3904 28.9324 99.5739 29.6508C106.398 30.5487 112.504 30.9975 117.892 30.9975H122.202C127.769 30.9975 130.553 33.1527 130.553 37.4628C130.553 39.6177 129.655 41.4138 127.859 42.8505C126.063 44.1075 123.998 44.736 121.663 44.736C120.047 44.736 117.712 44.4666 114.659 43.9278L109.272 42.8505L108.733 45.5442C108.733 61.5276 110.259 87.0291 113.312 122.049C116.186 154.913 117.623 180.415 117.623 198.553C117.623 200.708 116.635 202.594 114.659 204.21C112.863 205.826 110.798 206.635 108.464 206.635L103.615 203.133Z" fill="#A11275"/>
<path d="M210.523 209.869C206.392 209.869 203.339 209.241 201.364 207.983C199.389 206.726 198.401 204.392 198.401 200.98C198.401 195.592 197.503 186.433 195.707 173.503L194.629 167.846L167.961 163.805C166.883 167.935 165.357 176.286 163.381 188.857C162.303 197.657 160.597 203.494 158.263 206.367C157.006 207.983 155.21 208.792 152.875 208.792C150.72 208.792 148.745 208.163 146.949 206.906C145.153 205.469 144.255 203.763 144.255 201.788L144.794 200.441L145.063 199.363C156.916 153.209 165.895 107.684 172.001 62.7867C172.001 62.0685 172.091 60.9012 172.271 59.2848C172.45 57.489 172.63 54.9747 172.809 51.7422C173.348 45.0975 173.887 39.7995 174.426 35.8485C175.144 31.8978 176.222 28.9344 177.658 26.959H186.817C189.332 26.959 191.487 27.5875 193.282 28.8446C195.078 29.9222 195.976 31.5384 195.976 33.6936C195.976 47.3421 197.862 67.6356 201.633 94.5738C205.225 122.23 207.021 141.626 207.021 152.76C207.021 153.838 207.47 156.621 208.368 161.111C209.266 165.241 209.715 167.935 209.715 169.192C209.715 170.45 210.613 175.837 212.409 185.356C214.025 193.976 214.833 199.543 214.833 202.057V202.327C214.833 206.278 213.396 208.792 210.523 209.869ZM192.744 158.148C192.205 155.454 191.936 152.132 191.936 148.181C191.936 132.018 190.499 111.365 187.626 86.223L184.932 58.2072C177.209 100.41 171.912 132.287 169.038 153.838C171.732 155.634 179.634 157.07 192.744 158.148Z" fill="#A11275"/>
<path d="M260.041 211.214C256.988 211.214 254.473 209.238 252.498 205.287C254.473 201.516 255.461 186.251 255.461 159.492C255.461 153.207 255.012 146.383 254.114 139.02L253.306 131.208C252.767 126.359 252.498 122.677 252.498 120.163V113.159C250.702 108.669 247.38 100.318 242.531 88.1066C237.862 75.8945 234.09 65.6579 231.217 57.3968C227.804 47.8787 226.099 41.4137 226.099 38.0015V36.6545L232.294 32.075C235.347 32.4341 238.58 36.3851 241.992 43.9277C244.865 50.5727 248.008 60.0908 251.42 72.4823C255.012 84.8738 256.808 91.4288 256.808 92.1473C257.526 90.1718 258.963 83.4371 261.118 71.9435C263.273 60.4499 265.698 50.3033 268.391 41.5034C271.445 32.7035 274.587 28.3037 277.82 28.3037C279.616 28.3037 281.142 28.8425 282.399 29.92C283.836 30.9974 284.554 32.3444 284.554 33.9608C284.554 43.1198 282.04 56.0501 277.012 72.7517C271.624 90.89 268.93 104 268.93 112.081V193.165C268.93 205.198 265.967 211.214 260.041 211.214Z" fill="#A11275"/>
<path d="M378.522 213.371C372.057 213.371 366.489 212.204 361.821 209.869C358.947 208.253 357.51 206.367 357.51 204.212C357.51 202.057 358.047 200.351 359.127 199.094C360.204 197.657 361.731 196.939 363.705 196.939C365.502 196.939 368.106 197.657 371.517 199.094C375.288 200.53 377.622 201.249 378.522 201.249C381.933 201.249 384.987 199.812 387.681 196.939C390.555 193.886 392.799 189.935 394.416 185.086C397.647 176.106 399.264 168.025 399.264 160.842C399.264 153.119 398.007 145.038 395.493 136.597C393.159 127.977 389.925 119.626 385.794 111.545L381.483 102.924C376.995 93.9451 373.494 86.8513 370.98 81.6433C368.643 76.4353 366.579 70.7782 364.782 64.6723C362.088 56.0521 360.741 47.7013 360.741 39.6196C360.741 33.1546 361.821 27.0486 363.975 21.3018C366.309 15.555 369.723 10.7061 374.211 6.7552C378.702 2.44509 384.267 0.290039 390.912 0.290039C394.146 0.290039 397.287 1.27778 400.341 3.25324C403.395 5.04913 405.549 7.38376 406.806 10.2572L402.228 15.9142C397.557 15.9142 394.056 15.0162 391.722 13.2204C388.488 13.5795 385.614 15.1958 383.1 18.0693C380.766 20.7631 378.969 23.9058 377.712 27.4976C376.635 30.9097 376.098 34.3219 376.098 37.7341C376.098 44.5585 376.995 51.5623 378.792 58.7458C380.766 65.7499 383.28 72.3946 386.334 78.6802L405.189 116.394C408.243 122.859 410.667 130.132 412.464 138.213C414.258 146.295 415.158 154.377 415.158 162.458C415.158 174.311 412.284 185.445 406.536 195.861C403.485 201.249 399.534 205.469 394.683 208.522C389.835 211.755 384.447 213.371 378.522 213.371Z" fill="#A11275"/>
<path d="M461.123 203.133L460.853 192.627C460.676 189.574 460.587 186.161 460.587 182.39L460.853 173.231C460.316 171.256 458.97 151.591 456.816 114.237C454.659 76.8822 453.402 52.9074 453.042 42.3117C442.626 41.9526 435.98 40.875 433.109 39.0792C431.132 37.6425 430.146 36.0261 430.146 34.2303C430.146 32.7936 431.042 31.5363 432.839 30.459C434.813 29.2018 436.791 28.5732 438.765 28.5732C443.793 28.5732 449.9 28.9324 457.082 29.6508C463.907 30.5487 470.012 30.9975 475.4 30.9975H479.712C485.28 30.9975 488.064 33.1527 488.064 37.4628C488.064 39.6177 487.163 41.4138 485.369 42.8505C483.572 44.1075 481.508 44.736 479.171 44.736C477.557 44.736 475.22 44.4666 472.169 43.9278L466.781 42.8505L466.242 45.5442C466.242 61.5276 467.768 87.0291 470.822 122.049C473.696 154.913 475.134 180.415 475.134 198.553C475.134 200.708 474.143 202.594 472.169 204.21C470.372 205.826 468.308 206.635 465.974 206.635L461.123 203.133Z" fill="#A11275"/>
<path d="M562.103 212.025C558.152 212.025 554.561 207.714 551.33 199.094C547.556 189.756 544.775 180.148 542.978 170.271L541.091 161.112C535.883 135.43 532.562 120.794 531.125 117.202H527.891C527.891 122.41 527.804 127.17 527.624 131.48V146.295C527.624 170.36 529.328 189.127 532.742 202.596L529.778 209.87H522.236L518.735 205.829L519.002 187.78C519.002 171.618 518.195 147.104 516.578 114.239C515.141 79.2196 514.424 54.7057 514.424 40.6978C514.424 32.0776 517.388 27.7676 523.313 27.7676C533.012 27.7676 540.914 30.2818 547.019 35.3101C553.304 40.3387 556.448 47.3425 556.448 56.3221V75.1786C556.448 77.8726 555.998 81.0154 555.101 84.607C554.201 88.0192 553.214 90.8029 552.137 92.9578L547.019 102.656L542.708 110.737L544.055 117.202L547.826 136.329C550.34 150.157 552.764 161.381 555.101 170.001C557.435 178.621 560.309 186.433 563.72 193.437L565.337 196.67C567.131 200.262 568.031 203.135 568.031 205.29C568.031 207.086 567.491 208.613 566.414 209.87C565.337 211.306 563.9 212.025 562.103 212.025ZM528.971 104.003C532.922 102.027 536.243 96.6394 538.937 87.8398C541.811 78.8602 543.248 70.5991 543.248 63.0565C543.248 57.3097 542.528 51.922 541.091 46.8937C540.194 44.0203 538.667 41.8651 536.513 40.4284C534.536 38.8123 532.022 38.0041 528.971 38.0041L528.431 39.3511L527.891 41.7754L528.431 73.5625C528.791 82.9009 528.971 93.0478 528.971 104.003Z" fill="#A11275"/>
<path d="M625.925 212.562C621.257 212.562 616.946 211.036 612.995 207.983C609.044 205.11 605.813 201.159 603.299 196.13C598.091 185.175 594.857 173.233 593.6 160.302C591.983 148.091 591.176 136.328 591.176 125.013C591.176 122.859 591.266 121.062 591.446 119.626V114.777C591.446 113.879 591.356 113.43 591.176 113.43V108.581L591.446 89.7244C591.626 83.9776 592.343 74.8186 593.6 62.2474C594.497 53.6272 596.564 45.2764 599.795 37.195C601.052 33.6034 602.669 30.9094 604.646 29.1136C606.62 27.1381 608.867 26.1504 611.381 26.1504C618.563 26.1504 625.028 27.4973 630.776 30.1912C636.521 32.7052 641.372 36.2971 645.323 40.9663C648.914 45.4561 651.968 51.0232 654.482 57.6679C656.996 64.1332 658.79 71.0473 659.867 78.4105C660.947 85.9531 661.484 93.9448 661.484 102.385V104.541C661.484 110.108 661.574 115.136 661.754 119.626L662.024 134.981C662.024 186.702 649.991 212.562 625.925 212.562ZM624.848 201.249C628.082 201.249 631.046 199.992 633.737 197.477C636.431 194.783 638.498 191.192 639.935 186.702C643.346 177.543 645.413 167.666 646.13 157.07C647.027 147.911 647.477 140.009 647.477 133.364C647.477 125.283 646.847 114.687 645.59 101.577C644.513 87.7489 643.976 77.4226 643.976 70.5982V65.7496C643.616 58.9252 641.282 52.9987 636.971 47.9704C632.84 42.9418 627.722 40.4275 621.617 40.4275C615.509 40.4275 611.471 43.9297 609.494 50.9335C607.697 56.5006 606.8 63.6841 606.8 72.484C606.8 75.8962 606.89 78.7696 607.07 81.1042V88.3774L606.53 100.769C606.173 104.541 605.993 108.671 605.993 113.161C605.993 122.859 606.263 132.466 606.8 141.984C607.52 155.454 609.314 168.564 612.188 181.314C615.062 194.604 619.283 201.249 624.848 201.249Z" fill="#A11275"/>
<path d="M765.023 208.251C762.866 208.251 761.252 207.712 760.172 206.634C759.095 205.377 758.288 203.312 757.748 200.439L756.131 195.32V193.974C756.131 188.047 749.936 167.844 737.546 133.362C725.333 98.8817 715.724 73.3802 708.722 56.8583V192.357L709.799 194.243C709.979 194.602 710.339 195.231 710.876 196.128C711.416 197.026 711.686 197.924 711.686 198.822C711.686 201.157 710.876 203.133 709.259 204.749C707.645 206.365 705.668 207.173 703.334 207.173C697.586 207.173 694.712 201.696 694.712 190.741L694.445 144.677C694.265 130.848 694.175 115.404 694.175 98.3429C694.175 92.5961 694.445 84.2453 694.982 73.2905C695.522 61.9763 695.792 53.6255 695.792 48.2381C695.792 39.7973 699.023 33.1526 705.488 28.3037V29.92C706.565 29.5608 707.285 29.3812 707.645 29.3812C711.773 29.3812 716.981 36.5648 723.269 50.9318C728.297 62.4254 732.785 74.5475 736.736 87.2984C740.867 100.049 746.255 118.187 752.9 141.713L755.594 151.411C759.725 165.958 762.866 176.374 765.023 182.659C768.614 144.048 770.411 98.4329 770.411 45.8135V42.3116C770.231 41.234 770.141 40.0667 770.141 38.8097C770.141 33.422 772.295 30.728 776.606 30.728C779.12 30.728 781.004 31.7159 782.261 33.6914C783.698 35.6669 784.418 38.1809 784.418 41.234V61.4378C784.058 89.0942 782.981 119.085 781.184 151.411C779.39 183.737 777.233 201.965 774.719 206.096C769.511 207.532 766.28 208.251 765.023 208.251Z" fill="#A11275"/>
<path d="M855.405 209.599C850.377 209.599 845.796 208.701 841.665 206.905C837.537 204.93 834.033 202.416 831.162 199.363C828.825 196.849 826.671 193.167 824.694 188.318C822.72 183.469 821.283 178.8 820.386 174.31C819.486 170.898 818.769 165.959 818.229 159.494C817.692 153.029 817.332 147.462 817.152 142.792V116.393C817.152 105.977 817.332 97.4466 817.692 90.8019C818.052 82.7205 819.219 74.19 821.193 65.2107C822.81 57.1293 825.594 50.0355 829.545 43.9293C833.316 37.8234 838.614 33.6033 845.439 31.2684C848.67 30.0114 852.441 29.3828 856.752 29.3828C864.474 29.3828 868.335 31.6278 868.335 36.1173C868.335 38.2725 867.438 40.0683 865.641 41.505C864.024 42.762 862.05 43.3908 859.716 43.3908C858.636 43.3908 857.649 43.3008 856.752 43.1214C856.032 42.9417 855.135 42.852 854.058 42.852C851.004 42.852 848.31 44.4681 845.976 47.7009C843.642 50.9334 841.665 55.4232 840.051 61.17C837.177 72.3042 835.2 84.4266 834.123 97.5363C833.406 109.748 833.046 118.818 833.046 124.744C833.046 130.85 833.316 139.201 833.853 149.797C834.573 159.674 836.1 168.294 838.434 175.657C839.691 179.967 841.128 183.469 842.745 186.163C844.539 188.677 846.786 190.832 849.477 192.628C852.531 194.604 855.675 195.591 858.906 195.591C867.528 195.591 871.836 181.224 871.836 152.49V140.099C870.579 139.56 868.515 139.291 865.641 139.291H860.253C853.968 139.291 850.824 137.225 850.824 133.095C850.824 130.581 851.634 128.695 853.251 127.438C855.045 126.001 857.289 125.283 859.983 125.283V125.552H863.757C879.918 125.552 888 128.336 888 133.903C888 135.519 887.55 138.752 886.653 143.601C885.576 147.911 885.036 151.143 885.036 153.298C885.036 156.351 885.306 161.11 885.846 167.576L886.383 181.853C886.383 190.473 883.332 197.297 877.224 202.326C871.299 207.175 864.024 209.599 855.405 209.599Z" fill="#A11275"/>
</svg>
