<svg width="296" height="72" viewBox="0 0 296 72" fill="none" xmlns="http://www.w3.org/2000/svg">
<path d="M7.00393 71.1234C4.84887 71.1234 2.99313 70.7343 1.4367 69.9561C0.478901 69.4173 0 68.7888 0 68.0704C0 67.3521 0.179588 66.7834 0.538764 66.3643C0.897939 65.8854 1.40677 65.646 2.06526 65.646C2.66389 65.646 3.53189 65.8854 4.66928 66.3643C5.9264 66.8432 6.70461 67.0827 7.00393 67.0827C8.14132 67.0827 9.15898 66.6038 10.0569 65.646C11.0147 64.6283 11.763 63.3114 12.3018 61.6951C13.3793 58.7019 13.9181 56.0081 13.9181 53.6136C13.9181 51.0395 13.499 48.3457 12.6609 45.5322C11.8827 42.6588 10.8052 39.8751 9.42836 37.1813L7.99166 34.3079C6.49509 31.3148 5.32777 28.9502 4.4897 27.2142C3.71148 25.4782 3.02306 23.5925 2.42444 21.5572C1.5265 18.6838 1.07753 15.9002 1.07753 13.2063C1.07753 11.0513 1.4367 9.01597 2.15505 7.10036C2.93327 5.18476 4.07066 3.56847 5.56722 2.25149C7.06379 0.814786 8.91953 0.0964355 11.1344 0.0964355C12.212 0.0964355 13.2596 0.425681 14.2772 1.08417C15.2949 1.6828 16.0132 2.46101 16.4323 3.41881L14.9058 5.30448C13.3494 5.30448 12.182 5.00517 11.4038 4.40655C10.3263 4.52627 9.3685 5.06503 8.53042 6.02284C7.75221 6.92078 7.15358 7.96837 6.73454 9.16562C6.37537 10.303 6.19578 11.4404 6.19578 12.5778C6.19578 14.8526 6.49509 17.1872 7.09372 19.5817C7.75221 21.9164 8.59028 24.1313 9.60795 26.2265L15.8935 38.7976C16.9112 40.9527 17.7193 43.3771 18.318 46.0709C18.9166 48.7647 19.2159 51.4586 19.2159 54.1524C19.2159 58.1033 18.2581 61.8148 16.3425 65.2868C15.3248 67.0827 14.0079 68.4895 12.3916 69.5071C10.7753 70.5847 8.97939 71.1234 7.00393 71.1234Z" fill="#A11275"/>
<path d="M34.5384 67.7113L34.4486 64.2093C34.3887 63.1916 34.3588 62.0542 34.3588 60.7971L34.4486 57.7441C34.269 57.0856 33.82 50.5307 33.1017 38.0793C32.3833 25.6278 31.9643 17.6362 31.8446 14.1043C28.3725 13.9846 26.1576 13.6254 25.1998 13.0268C24.5413 12.5479 24.2121 12.0091 24.2121 11.4105C24.2121 10.9316 24.5114 10.5125 25.11 10.1534C25.7685 9.73432 26.427 9.5248 27.0855 9.5248C28.7616 9.5248 30.797 9.64452 33.1915 9.88397C35.4663 10.1833 37.5016 10.3329 39.2975 10.3329H40.7342C42.5899 10.3329 43.5178 11.0513 43.5178 12.488C43.5178 13.2063 43.2185 13.805 42.6198 14.2839C42.0212 14.7029 41.3328 14.9124 40.5546 14.9124C40.0158 14.9124 39.2376 14.8226 38.2199 14.643L36.4241 14.2839L36.2445 15.1818C36.2445 20.5096 36.7533 29.0101 37.771 40.6833C38.7288 51.6381 39.2077 60.1386 39.2077 66.1848C39.2077 66.9031 38.8784 67.5317 38.2199 68.0704C37.6213 68.6092 36.9329 68.8786 36.1547 68.8786L34.5384 67.7113Z" fill="#A11275"/>
<path d="M70.1739 69.9561C68.7971 69.9561 67.7794 69.7466 67.1209 69.3275C66.4625 68.9085 66.1332 68.1303 66.1332 66.9929C66.1332 65.197 65.8339 62.144 65.2353 57.8339L64.8761 55.9483L55.9865 54.6013C55.6273 55.9782 55.1185 58.7618 54.46 62.9522C54.1008 65.8854 53.5321 67.831 52.7539 68.7888C52.3349 69.3275 51.7363 69.5969 50.958 69.5969C50.2397 69.5969 49.5812 69.3874 48.9826 68.9684C48.384 68.4895 48.0846 67.9208 48.0846 67.2623L48.2642 66.8133L48.354 66.4541C52.305 51.0694 55.2981 35.8943 57.3334 20.9286C57.3334 20.6892 57.3633 20.3001 57.4232 19.7613C57.4831 19.1627 57.5429 18.3246 57.6028 17.2471C57.7824 15.0322 57.962 13.2662 58.1416 11.9492C58.381 10.6323 58.7402 9.64452 59.2191 8.98604H62.2721C63.1102 8.98604 63.8285 9.19555 64.4271 9.61459C65.0258 9.97377 65.3251 10.5125 65.3251 11.2309C65.3251 15.7804 65.9536 22.5449 67.2107 31.5243C68.408 40.7431 69.0066 47.2083 69.0066 50.9198C69.0066 51.279 69.1563 52.2068 69.4556 53.7034C69.7549 55.0802 69.9046 55.9782 69.9046 56.3972C69.9046 56.8163 70.2039 58.6121 70.8025 61.7849C71.3413 64.6583 71.6106 66.514 71.6106 67.3521V67.4419C71.6106 68.7589 71.1317 69.5969 70.1739 69.9561ZM64.2475 52.7157C64.068 51.8177 63.9782 50.7103 63.9782 49.3933C63.9782 44.0057 63.4993 37.1215 62.5415 28.7407L61.6435 19.4021C59.0694 33.4698 57.3035 44.0955 56.3457 51.279C57.2436 51.8776 59.8776 52.3565 64.2475 52.7157Z" fill="#A11275"/>
<path d="M86.6806 70.4051C85.6629 70.4051 84.8248 69.7466 84.1664 68.4296C84.8248 67.1725 85.1541 62.0842 85.1541 53.1646C85.1541 51.0694 85.0044 48.7947 84.7051 46.3403L84.4357 43.7363C84.2562 42.12 84.1664 40.8928 84.1664 40.0547V37.7201C83.5677 36.2235 82.4603 33.4399 80.844 29.3693C79.2876 25.2986 78.0304 21.8864 77.0726 19.1327C75.9352 15.96 75.3666 13.805 75.3666 12.6676V12.2186L77.4318 10.6921C78.4495 10.8118 79.527 12.1288 80.6644 14.643C81.6222 16.858 82.6698 20.0307 83.8072 24.1612C85.0044 28.2917 85.6031 30.4767 85.6031 30.7162C85.8425 30.0577 86.3214 27.8128 87.0398 23.9816C87.7581 20.1504 88.5663 16.7682 89.4642 13.8349C90.4819 10.9016 91.5295 9.43501 92.607 9.43501C93.2056 9.43501 93.7144 9.61459 94.1335 9.97377C94.6124 10.3329 94.8518 10.7819 94.8518 11.3207C94.8518 14.3737 94.0138 18.6838 92.3376 24.251C90.5417 30.2971 89.6438 34.6671 89.6438 37.3609V64.3889C89.6438 68.3997 88.6561 70.4051 86.6806 70.4051Z" fill="#A11275"/>
<path d="M126.174 71.1234C124.019 71.1234 122.163 70.7343 120.607 69.9561C119.649 69.4173 119.17 68.7888 119.17 68.0704C119.17 67.3521 119.349 66.7834 119.709 66.3643C120.068 65.8854 120.577 65.646 121.235 65.646C121.834 65.646 122.702 65.8854 123.839 66.3643C125.096 66.8432 125.874 67.0827 126.174 67.0827C127.311 67.0827 128.329 66.6038 129.227 65.646C130.185 64.6283 130.933 63.3114 131.472 61.6951C132.549 58.7019 133.088 56.0081 133.088 53.6136C133.088 51.0395 132.669 48.3457 131.831 45.5322C131.053 42.6588 129.975 39.8751 128.598 37.1813L127.161 34.3079C125.665 31.3148 124.498 28.9502 123.66 27.2142C122.881 25.4782 122.193 23.5925 121.594 21.5572C120.696 18.6838 120.247 15.9002 120.247 13.2063C120.247 11.0513 120.607 9.01597 121.325 7.10036C122.103 5.18476 123.241 3.56847 124.737 2.25149C126.234 0.814786 128.089 0.0964355 130.304 0.0964355C131.382 0.0964355 132.429 0.425681 133.447 1.08417C134.465 1.6828 135.183 2.46101 135.602 3.41881L134.076 5.30448C132.519 5.30448 131.352 5.00517 130.574 4.40655C129.496 4.52627 128.538 5.06503 127.7 6.02284C126.922 6.92078 126.323 7.96837 125.904 9.16562C125.545 10.303 125.366 11.4404 125.366 12.5778C125.366 14.8526 125.665 17.1872 126.264 19.5817C126.922 21.9164 127.76 24.1313 128.778 26.2265L135.063 38.7976C136.081 40.9527 136.889 43.3771 137.488 46.0709C138.086 48.7647 138.386 51.4586 138.386 54.1524C138.386 58.1033 137.428 61.8148 135.512 65.2868C134.495 67.0827 133.178 68.4895 131.561 69.5071C129.945 70.5847 128.149 71.1234 126.174 71.1234Z" fill="#A11275"/>
<path d="M153.708 67.7113L153.618 64.2093C153.559 63.1916 153.529 62.0542 153.529 60.7971L153.618 57.7441C153.439 57.0856 152.99 50.5307 152.272 38.0793C151.553 25.6278 151.134 17.6362 151.014 14.1043C147.542 13.9846 145.327 13.6254 144.37 13.0268C143.711 12.5479 143.382 12.0091 143.382 11.4105C143.382 10.9316 143.681 10.5125 144.28 10.1534C144.938 9.73432 145.597 9.5248 146.255 9.5248C147.931 9.5248 149.967 9.64452 152.361 9.88397C154.636 10.1833 156.671 10.3329 158.467 10.3329H159.904C161.76 10.3329 162.688 11.0513 162.688 12.488C162.688 13.2063 162.388 13.805 161.79 14.2839C161.191 14.7029 160.503 14.9124 159.724 14.9124C159.186 14.9124 158.407 14.8226 157.39 14.643L155.594 14.2839L155.414 15.1818C155.414 20.5096 155.923 29.0101 156.941 40.6833C157.899 51.6381 158.378 60.1386 158.378 66.1848C158.378 66.9031 158.048 67.5317 157.39 68.0704C156.791 68.6092 156.103 68.8786 155.325 68.8786L153.708 67.7113Z" fill="#A11275"/>
<path d="M187.368 70.6745C186.051 70.6745 184.854 69.2377 183.777 66.3643C182.519 63.2515 181.592 60.0488 180.993 56.7564L180.364 53.7034C178.628 45.143 177.521 40.2642 177.042 39.067H175.964C175.964 40.803 175.935 42.3894 175.875 43.8261V48.7647C175.875 56.7863 176.443 63.042 177.581 67.5317L176.593 69.9561H174.079L172.912 68.6092L173.001 62.593C173.001 57.2054 172.732 49.0341 172.193 38.0793C171.714 26.4061 171.475 18.2348 171.475 13.5655C171.475 10.6921 172.463 9.25541 174.438 9.25541C177.671 9.25541 180.305 10.0935 182.34 11.7696C184.435 13.4458 185.483 15.7804 185.483 18.7736V25.0591C185.483 25.9571 185.333 27.0047 185.034 28.2019C184.734 29.3393 184.405 30.2672 184.046 30.9855L182.34 34.2181L180.903 36.9119L181.352 39.067L182.609 45.4424C183.447 50.0518 184.255 53.7932 185.034 56.6666C185.812 59.54 186.77 62.144 187.907 64.4787L188.446 65.5562C189.044 66.7534 189.344 67.7113 189.344 68.4296C189.344 69.0282 189.164 69.5371 188.805 69.9561C188.446 70.435 187.967 70.6745 187.368 70.6745ZM176.324 34.6671C177.641 34.0086 178.748 32.2127 179.646 29.2795C180.604 26.2863 181.083 23.5326 181.083 21.0184C181.083 19.1028 180.843 17.3069 180.364 15.6308C180.065 14.673 179.556 13.9546 178.838 13.4757C178.179 12.937 177.341 12.6676 176.324 12.6676L176.144 13.1166L175.964 13.9247L176.144 24.5204C176.264 27.6332 176.324 31.0155 176.324 34.6671Z" fill="#A11275"/>
<path d="M208.642 70.854C207.086 70.854 205.649 70.3452 204.332 69.3275C203.015 68.3697 201.938 67.0528 201.1 65.3766C199.364 61.725 198.286 57.7441 197.867 53.434C197.328 49.3634 197.059 45.4424 197.059 41.671C197.059 40.9527 197.089 40.354 197.149 39.8751V38.2589C197.149 37.9595 197.119 37.8099 197.059 37.8099V36.1936L197.149 29.908C197.209 27.9924 197.448 24.9394 197.867 20.749C198.166 17.8756 198.855 15.092 199.932 12.3982C200.351 11.201 200.89 10.303 201.549 9.70438C202.207 9.0459 202.956 8.71665 203.794 8.71665C206.188 8.71665 208.343 9.16562 210.259 10.0636C212.174 10.9016 213.791 12.0989 215.108 13.6553C216.305 15.1519 217.323 17.0076 218.161 19.2225C218.999 21.3776 219.597 23.6823 219.956 26.1367C220.316 28.6509 220.495 31.3148 220.495 34.1283V34.8467C220.495 36.7024 220.525 38.3786 220.585 39.8751L220.675 44.9934C220.675 62.2338 216.664 70.854 208.642 70.854ZM208.283 67.0827C209.361 67.0827 210.349 66.6637 211.246 65.8256C212.144 64.9276 212.833 63.7304 213.312 62.2338C214.449 59.1808 215.138 55.8884 215.377 52.3565C215.676 49.3035 215.826 46.6695 215.826 44.4546C215.826 41.7608 215.616 38.2289 215.197 33.859C214.838 29.2495 214.659 25.8074 214.659 23.5326V21.9164C214.539 19.6416 213.761 17.6661 212.324 15.99C210.947 14.3138 209.241 13.4757 207.206 13.4757C205.17 13.4757 203.824 14.6431 203.165 16.9777C202.566 18.8334 202.267 21.2279 202.267 24.1612C202.267 25.2986 202.297 26.2564 202.357 27.0346V29.459L202.177 33.5896C202.058 34.8467 201.998 36.2235 201.998 37.7201C201.998 40.9527 202.088 44.1553 202.267 47.328C202.507 51.8177 203.105 56.1877 204.063 60.4379C205.021 64.8678 206.428 67.0827 208.283 67.0827Z" fill="#A11275"/>
<path d="M255.008 69.4173C254.289 69.4173 253.751 69.2378 253.391 68.8786C253.032 68.4595 252.763 67.7711 252.583 66.8133L252.044 65.1072V64.6583C252.044 62.6828 249.979 55.9483 245.849 44.4546C241.778 32.961 238.575 24.4605 236.241 18.9532V64.1195L236.6 64.7481C236.66 64.8678 236.78 65.0773 236.959 65.3766C237.139 65.6759 237.229 65.9752 237.229 66.2746C237.229 67.0528 236.959 67.7113 236.42 68.25C235.882 68.7888 235.223 69.0582 234.445 69.0582C232.529 69.0582 231.571 67.2324 231.571 63.5807L231.482 48.226C231.422 43.6166 231.392 38.4684 231.392 32.7814C231.392 30.8658 231.482 28.0822 231.661 24.4306C231.841 20.6592 231.931 17.8756 231.931 16.0798C231.931 13.2662 233.008 11.0513 235.163 9.43501V9.97377C235.522 9.85404 235.762 9.79418 235.882 9.79418C237.258 9.79418 238.994 12.1887 241.09 16.9777C242.766 20.8089 244.262 24.8496 245.579 29.0999C246.956 33.3501 248.752 39.3962 250.967 47.2382L251.865 50.4708C253.242 55.3197 254.289 58.7917 255.008 60.8869C256.205 48.0165 256.804 32.8114 256.804 15.2716V14.1043C256.744 13.7451 256.714 13.356 256.714 12.937C256.714 11.1411 257.432 10.2431 258.869 10.2431C259.707 10.2431 260.335 10.5724 260.754 11.2309C261.233 11.8894 261.473 12.7274 261.473 13.7451V20.4797C261.353 29.6985 260.994 39.6956 260.395 50.4708C259.797 61.2461 259.078 67.3221 258.24 68.699C256.504 69.1779 255.427 69.4173 255.008 69.4173Z" fill="#A11275"/>
<path d="M285.135 69.8663C283.459 69.8663 281.932 69.567 280.555 68.9684C279.179 68.3099 278.011 67.4718 277.054 66.4541C276.275 65.6161 275.557 64.3889 274.898 62.7726C274.24 61.1563 273.761 59.5999 273.462 58.1033C273.162 56.9659 272.923 55.3197 272.743 53.1646C272.564 51.0096 272.444 49.1538 272.384 47.5974V38.7976C272.384 35.3256 272.444 32.4821 272.564 30.2672C272.684 27.5734 273.073 24.7299 273.731 21.7368C274.27 19.043 275.198 16.6784 276.515 14.643C277.772 12.6077 279.538 11.201 281.813 10.4227C282.89 10.0037 284.147 9.79418 285.584 9.79418C288.158 9.79418 289.445 10.5425 289.445 12.039C289.445 12.7574 289.146 13.356 288.547 13.8349C288.008 14.2539 287.35 14.4635 286.572 14.4635C286.212 14.4635 285.883 14.4335 285.584 14.3737C285.344 14.3138 285.045 14.2839 284.686 14.2839C283.668 14.2839 282.77 14.8226 281.992 15.9002C281.214 16.9777 280.555 18.4743 280.017 20.3899C279.059 24.1013 278.4 28.1421 278.041 32.512C277.802 36.5827 277.682 39.6058 277.682 41.5812C277.682 43.6166 277.772 46.4002 277.951 49.9321C278.191 53.2245 278.7 56.0979 279.478 58.5523C279.897 59.989 280.376 61.1563 280.915 62.0542C281.513 62.8923 282.262 63.6107 283.159 64.2093C284.177 64.8678 285.225 65.197 286.302 65.197C289.176 65.197 290.612 60.408 290.612 50.83V46.6995C290.193 46.5199 289.505 46.4301 288.547 46.4301H286.751C284.656 46.4301 283.608 45.7417 283.608 44.3648C283.608 43.5268 283.878 42.8982 284.417 42.4792C285.015 42.0003 285.763 41.7608 286.661 41.7608V41.8506H287.919C293.306 41.8506 296 42.7785 296 44.6342C296 45.173 295.85 46.2505 295.551 47.8668C295.192 49.3035 295.012 50.381 295.012 51.0994C295.012 52.117 295.102 53.7034 295.282 55.8585L295.461 60.6175C295.461 63.4909 294.444 65.7657 292.408 67.4419C290.433 69.0582 288.008 69.8663 285.135 69.8663Z" fill="#A11275"/>
</svg>
