<svg width="840" height="945" viewBox="0 0 840 945" fill="none" xmlns="http://www.w3.org/2000/svg">
<g clip-path="url(#clip0_1105_2304)">
<path d="M840 422.408C840 597.635 732.693 747.8 580.206 810.773C556.227 820.676 587.418 938.09 561.444 943.439C533.943 949.103 449.175 842.408 420 842.408C188.04 842.408 0 654.368 0 422.408C0 190.449 188.04 2.4082 420 2.4082C651.96 2.4082 840 190.449 840 422.408Z" fill="#76DC9F"/>
<path d="M420.001 836.64C191.23 836.64 5.77441 651.183 5.77441 422.412C5.77441 193.641 191.23 8.18555 420.001 8.18555C648.772 8.18555 834.229 193.641 834.229 422.412C834.229 595.221 728.404 743.331 578.005 805.44C572.812 807.585 569.875 812.325 568.147 817.155C566.389 822.06 565.492 828.093 565.051 834.537C564.202 846.936 564.973 862.353 565.717 877.287L565.807 879.105C566.59 894.858 567.271 909.897 566.212 921.318C565.681 927.051 564.748 931.371 563.458 934.248C562.195 937.062 561.022 937.635 560.281 937.788C558.727 938.109 555.826 937.734 551.143 935.511C546.64 933.375 541.312 929.934 535.309 925.428C523.312 916.425 509.44 903.825 495.256 890.799C494.233 889.86 493.207 888.918 492.181 887.976C479.107 875.958 465.892 863.817 454.135 854.475C447.79 849.435 441.706 845.076 436.159 841.956C430.771 838.923 425.179 836.64 420.001 836.64Z" stroke="black" stroke-opacity="0.1" stroke-width="11.5464"/>
</g>
<defs>
<clipPath id="clip0_1105_2304">
<rect width="840" height="945" fill="white"/>
</clipPath>
</defs>
</svg>
