<svg width="280" height="315" viewBox="0 0 280 315" fill="none" xmlns="http://www.w3.org/2000/svg">
<path d="M280 140.803C280 199.212 244.231 249.267 193.402 270.258C185.409 273.559 195.806 312.697 187.148 314.48C177.981 316.368 149.725 280.803 140 280.803C62.6801 280.803 0 218.123 0 140.803C0 63.4834 62.6801 0.803223 140 0.803223C217.32 0.803223 280 63.4834 280 140.803Z" fill="#76DC9F"/>
<path d="M140 278.879C63.743 278.879 1.9244 217.06 1.9244 140.803C1.9244 64.5462 63.743 2.72762 140 2.72762C216.257 2.72762 278.076 64.5462 278.076 140.803C278.076 198.406 242.801 247.776 192.668 268.479C190.937 269.194 189.958 270.774 189.382 272.384C188.796 274.019 188.497 276.03 188.35 278.178C188.067 282.311 188.324 287.45 188.572 292.428L188.602 293.034C188.863 298.285 189.09 303.298 188.737 307.105C188.56 309.016 188.249 310.456 187.819 311.415C187.398 312.353 187.007 312.544 186.76 312.595C186.242 312.702 185.275 312.577 183.714 311.836C182.213 311.124 180.437 309.977 178.436 308.475C174.437 305.474 169.813 301.274 165.085 296.932C164.744 296.619 164.402 296.305 164.06 295.991C159.702 291.985 155.297 287.938 151.378 284.824C149.263 283.144 147.235 281.691 145.386 280.651C143.59 279.64 141.726 278.879 140 278.879Z" stroke="black" stroke-opacity="0.1" stroke-width="3.8488"/>
</svg>
