<svg width="200" height="227" viewBox="0 0 200 227" fill="none" xmlns="http://www.w3.org/2000/svg">
<rect y="0.423828" width="200" height="226.415" rx="14.1509" fill="#BABFFC"/>
<rect y="0.423828" width="200" height="226.415" rx="14.1509" fill="black" fill-opacity="0.03"/>
<line x1="10.1411" y1="43.2592" x2="189.858" y2="43.2593" stroke="white" stroke-opacity="0.5" stroke-width="1.41509" stroke-linecap="round"/>
<path d="M83.5102 31.0637C83.3404 30.9882 83.1895 30.8373 83.1329 30.6486C83.0574 30.4599 83.0952 30.1958 83.0763 29.9882C83.0763 29.0448 83.0952 28.1014 83.0952 27.158C83.114 26.0259 83.1329 24.8939 83.1518 23.7429C83.2084 19.9882 83.265 16.8184 83.2838 16.6863L83.3216 16.4599L82.7933 16.4976C81.4159 16.5731 79.548 16.5731 79.3404 16.4976C79.0763 16.4222 78.831 16.0825 78.831 15.8184C78.831 15.4599 79.0385 15.2146 79.4725 15.0825C79.7178 15.0259 87.8687 14.875 88.3027 14.9316C88.7367 15.0071 89.2084 15.3467 89.114 15.8561C89.0385 16.2901 88.6612 16.3844 88.2838 16.4222C87.7744 16.4599 87.2461 16.441 86.7367 16.4599L84.831 16.4976L84.7933 17.4788C84.7744 18.0259 84.7178 21.1958 84.6801 24.4976C84.6235 29.1392 84.5857 30.5731 84.5102 30.7241C84.3404 31.1392 83.8687 31.2335 83.5102 31.0637ZM94.4411 20.0259C95.9317 21.4033 96.5921 24.0448 96.0826 26.5731C96.0826 26.6108 96.0638 26.6297 96.0638 26.6675C95.6109 28.8184 93.9505 31.4788 91.3656 30.8939C90.5355 30.7052 89.8751 30.1769 89.3845 29.5165C87.3845 26.8561 87.7807 21.9882 90.177 19.9693C91.5166 18.8373 93.1581 18.8561 94.4411 20.0259ZM94.6298 26.0259C94.7619 25.2524 94.7241 23.9882 94.5355 23.2335C94.2524 22.1392 93.6298 21.1769 92.9505 20.8561C91.6864 20.2146 90.309 21.4788 89.7807 23.7429C89.4034 25.4033 89.5543 27.7807 90.9505 28.9505C92.9694 30.6486 94.3468 27.6297 94.6298 26.0259ZM110.716 20.5354C111.415 23.5731 110.377 27.0825 107.849 28.9693C106.792 29.7618 105.811 30.2712 104.698 30.592C103.603 30.9127 102.301 31.0637 102.018 30.9127C101.924 30.875 101.792 30.7429 101.735 30.6486C101.603 30.4599 101.584 30.3467 101.547 28.5542C101.528 27.5354 101.547 25.5731 101.566 24.2335C101.716 18.875 101.83 15.7807 101.886 15.6297C102.075 15.1203 103.15 14.7995 104.49 14.8561C105.396 14.8939 106.018 15.0637 106.83 15.4599C108.566 16.309 109.811 17.8373 110.452 19.6675C110.566 19.9505 110.641 20.2335 110.716 20.5354ZM109.245 23.8373C109.566 22.158 109.301 20.3278 108.377 18.875C107.509 17.4976 106.018 16.4222 104.339 16.3844C104.113 16.3656 103.773 16.3844 103.603 16.4222L103.32 16.4599V16.9505C103.32 17.2146 103.264 18.6863 103.226 20.2146C103.113 23.4788 103.037 29.1392 103.094 29.2712C103.132 29.4033 103.169 29.4033 103.641 29.2901C104.773 29.0071 105.622 28.6297 106.509 28.0448C107.188 27.592 107.811 27.0259 108.245 26.3467C108.735 25.592 109.075 24.7429 109.245 23.8373ZM118.358 20.0259C119.848 21.4033 120.509 24.0448 119.999 26.5731C119.999 26.6108 119.98 26.6297 119.98 26.6675C119.527 28.8184 117.867 31.4788 115.282 30.8939C114.452 30.7052 113.792 30.1769 113.301 29.5165C111.301 26.8561 111.697 21.9882 114.094 19.9693C115.433 18.8373 117.075 18.8561 118.358 20.0259ZM118.546 26.0259C118.678 25.2524 118.641 23.9882 118.452 23.2335C118.169 22.1392 117.546 21.1769 116.867 20.8561C115.603 20.2146 114.226 21.4788 113.697 23.7429C113.32 25.4033 113.471 27.7807 114.867 28.9505C116.886 30.6486 118.263 27.6297 118.546 26.0259Z" fill="white"/>
<circle cx="16.0374" cy="61.7444" r="6.60377" fill="white" fill-opacity="0.4"/>
<circle cx="16.0374" cy="90.0462" r="6.60377" fill="white" fill-opacity="0.4"/>
<circle cx="16.0374" cy="118.348" r="6.60377" fill="white" fill-opacity="0.4"/>
<circle cx="16.0374" cy="146.65" r="6.60377" fill="white" fill-opacity="0.4"/>
<circle cx="16.0374" cy="174.952" r="6.60377" fill="white" fill-opacity="0.4"/>
<circle cx="16.0374" cy="203.254" r="6.60377" fill="white" fill-opacity="0.4"/>
</svg>
