<svg width="600" height="681" viewBox="0 0 600 681" fill="none" xmlns="http://www.w3.org/2000/svg">
<path d="M557.547 1.27148H42.4527C19.0067 1.27148 0 20.2782 0 43.7242V638.064C0 661.51 19.0067 680.516 42.4527 680.516H557.547C580.993 680.516 600 661.51 600 638.064V43.7242C600 20.2782 580.993 1.27148 557.547 1.27148Z" fill="#BABFFC"/>
<path d="M557.547 1.27148H42.4527C19.0067 1.27148 0 20.2782 0 43.7242V638.064C0 661.51 19.0067 680.516 42.4527 680.516H557.547C580.993 680.516 600 661.51 600 638.064V43.7242C600 20.2782 580.993 1.27148 557.547 1.27148Z" fill="black" fill-opacity="0.03"/>
<path d="M30.4219 129.776L569.573 129.777" stroke="white" stroke-opacity="0.5" stroke-width="4.24527" stroke-linecap="round"/>
<path d="M250.531 93.191C250.021 92.9645 249.569 92.5118 249.399 91.9457C249.172 91.3796 249.286 90.5873 249.229 89.9645C249.229 87.1343 249.286 84.3041 249.286 81.4739C249.342 78.0776 249.399 74.6816 249.456 71.2286C249.625 59.9645 249.795 50.4551 249.852 50.0588L249.965 49.3796L248.38 49.4927C244.248 49.7192 238.644 49.7192 238.021 49.4927C237.229 49.2665 236.493 48.2474 236.493 47.4551C236.493 46.3796 237.116 45.6437 238.418 45.2474C239.154 45.0776 263.606 44.6249 264.908 44.7947C266.21 45.0212 267.625 46.04 267.342 47.5682C267.116 48.8702 265.984 49.1531 264.852 49.2665C263.323 49.3796 261.738 49.3229 260.21 49.3796L254.493 49.4927L254.38 52.4363C254.323 54.0776 254.154 63.5873 254.04 73.4927C253.871 87.4175 253.757 91.7192 253.531 92.1722C253.021 93.4175 251.606 93.7004 250.531 93.191ZM283.323 60.0776C287.795 64.2098 289.776 72.1343 288.248 79.7192C288.248 79.8323 288.192 79.889 288.192 80.0024C286.833 86.4551 281.852 94.4363 274.097 92.6816C271.607 92.1155 269.625 90.5306 268.154 88.5494C262.154 80.5682 263.342 65.9645 270.531 59.9078C274.55 56.5118 279.474 56.5682 283.323 60.0776ZM283.89 78.0776C284.286 75.7571 284.172 71.9645 283.607 69.7004C282.757 66.4175 280.89 63.5306 278.852 62.5682C275.059 60.6437 270.927 64.4363 269.342 71.2286C268.21 76.2098 268.663 83.342 272.852 86.8514C278.908 91.9457 283.041 82.889 283.89 78.0776ZM332.148 61.6061C334.245 70.7192 331.131 81.2474 323.547 86.9078C320.376 89.2853 317.433 90.8135 314.094 91.7759C310.809 92.738 306.903 93.191 306.054 92.738C305.772 92.6249 305.376 92.2286 305.205 91.9457C304.809 91.3796 304.752 91.04 304.641 85.6625C304.584 82.6061 304.641 76.7192 304.698 72.7004C305.148 56.6249 305.49 47.342 305.658 46.889C306.225 45.3608 309.45 44.3984 313.47 44.5682C316.188 44.6816 318.054 45.191 320.49 46.3796C325.698 48.9269 329.433 53.5118 331.356 59.0024C331.698 59.8514 331.923 60.7004 332.148 61.6061ZM327.735 71.5118C328.698 66.4739 327.903 60.9833 325.131 56.6249C322.527 52.4927 318.054 49.2665 313.017 49.1531C312.339 49.0967 311.319 49.1531 310.809 49.2665L309.96 49.3796V50.8514C309.96 51.6437 309.792 56.0588 309.678 60.6437C309.339 70.4363 309.111 87.4175 309.282 87.8135C309.396 88.2098 309.507 88.2098 310.923 87.8702C314.319 87.0212 316.866 85.889 319.527 84.1343C321.564 82.7759 323.433 81.0776 324.735 79.04C326.205 76.7759 327.225 74.2286 327.735 71.5118ZM355.074 60.0776C359.544 64.2098 361.527 72.1343 359.997 79.7192C359.997 79.8323 359.94 79.889 359.94 80.0024C358.581 86.4551 353.601 94.4363 345.846 92.6816C343.356 92.1155 341.376 90.5306 339.903 88.5494C333.903 80.5682 335.091 65.9645 342.282 59.9078C346.299 56.5118 351.225 56.5682 355.074 60.0776ZM355.638 78.0776C356.034 75.7571 355.923 71.9645 355.356 69.7004C354.507 66.4175 352.638 63.5306 350.601 62.5682C346.809 60.6437 342.678 64.4363 341.091 71.2286C339.96 76.2098 340.413 83.342 344.601 86.8514C350.658 91.9457 354.789 82.889 355.638 78.0776Z" fill="white"/>
<path d="M48.1121 205.044C59.0536 205.044 67.9234 196.175 67.9234 185.233C67.9234 174.292 59.0536 165.422 48.1121 165.422C37.1706 165.422 28.3008 174.292 28.3008 185.233C28.3008 196.175 37.1706 205.044 48.1121 205.044Z" fill="white" fill-opacity="0.4"/>
<path d="M48.1121 289.95C59.0536 289.95 67.9234 281.08 67.9234 270.138C67.9234 259.197 59.0536 250.327 48.1121 250.327C37.1706 250.327 28.3008 259.197 28.3008 270.138C28.3008 281.08 37.1706 289.95 48.1121 289.95Z" fill="white" fill-opacity="0.4"/>
<path d="M48.1121 374.855C59.0536 374.855 67.9234 365.985 67.9234 355.044C67.9234 344.102 59.0536 335.232 48.1121 335.232C37.1706 335.232 28.3008 344.102 28.3008 355.044C28.3008 365.985 37.1706 374.855 48.1121 374.855Z" fill="white" fill-opacity="0.4"/>
<path d="M48.1121 459.76C59.0536 459.76 67.9234 450.89 67.9234 439.949C67.9234 429.007 59.0536 420.138 48.1121 420.138C37.1706 420.138 28.3008 429.007 28.3008 439.949C28.3008 450.89 37.1706 459.76 48.1121 459.76Z" fill="white" fill-opacity="0.4"/>
<path d="M48.1121 544.669C59.0536 544.669 67.9234 535.799 67.9234 524.857C67.9234 513.916 59.0536 505.046 48.1121 505.046C37.1706 505.046 28.3008 513.916 28.3008 524.857C28.3008 535.799 37.1706 544.669 48.1121 544.669Z" fill="white" fill-opacity="0.4"/>
<path d="M48.1121 629.574C59.0536 629.574 67.9234 620.704 67.9234 609.762C67.9234 598.821 59.0536 589.951 48.1121 589.951C37.1706 589.951 28.3008 598.821 28.3008 609.762C28.3008 620.704 37.1706 629.574 48.1121 629.574Z" fill="white" fill-opacity="0.4"/>
</svg>
