<svg width="296" height="138" viewBox="0 0 296 138" fill="none" xmlns="http://www.w3.org/2000/svg">
<path d="M12.8406 133.801C11.8751 133.801 11.1028 133.005 10.5235 131.414C10.0086 129.709 9.75114 127.663 9.75114 125.276C9.75114 121.526 9.87987 116.923 10.1373 111.467L10.3304 107.034L10.5235 97.9985C10.5235 94.0205 10.2982 85.1551 9.84768 71.4025C9.39714 57.6499 9.17186 48.7846 9.17186 44.8066C9.17186 44.4656 9.17186 43.8405 9.17186 42.9312C9.23623 41.9083 9.26841 40.3739 9.26841 38.3281C9.33277 36.0549 9.36496 33.2703 9.36496 29.9742C9.36496 21.6772 9.04313 16.3921 8.3995 14.1189C8.01331 14.1189 7.17658 14.2894 5.8893 14.6304L3.18602 14.9714C2.34928 14.9714 1.6091 14.5736 0.965459 13.778C0.32182 12.8687 0 11.7321 0 10.3682C0 9.00433 0.772367 7.81092 2.3171 6.788C4.56984 5.4241 8.3995 4.458 13.8061 3.88971C15.9944 3.6624 17.3139 3.54875 17.7644 3.54875C18.5368 3.54875 19.2448 4.00338 19.8885 4.91264C20.5321 5.8219 20.8539 6.95848 20.8539 8.32238C20.8539 9.68628 20.5643 10.8229 19.985 11.7321C19.4701 12.5277 18.7943 12.9255 17.9575 12.9255L16.2197 12.755C15.7048 12.6414 15.1255 12.5845 14.4819 12.5845H13.5164C13.967 20.3133 14.1923 27.3033 14.1923 33.5544L14.0957 44.4656C14.0313 47.7617 13.9992 51.4556 13.9992 55.5472C13.9992 61.0028 14.1279 67.5382 14.3853 75.1532C14.7072 84.5868 14.8681 91.1222 14.8681 94.7592C14.8681 99.0782 14.9968 104.193 15.2543 110.103C15.5117 116.127 15.6404 121.242 15.6404 125.447C15.6404 131.016 14.7072 133.801 12.8406 133.801Z" fill="#C69C3C"/>
<path d="M47.9562 132.607C45.7678 132.607 44.6736 123.231 44.6736 104.477L44.7702 94.7592L44.8667 86.9168V84.7005C44.9311 83.7912 44.9632 82.7115 44.9632 81.4613C44.9632 81.2339 44.8667 80.9498 44.6736 80.6088C44.4805 80.2678 44.384 79.9837 44.384 79.7564V79.5859C44.0622 79.8132 43.4829 79.9269 42.6461 79.9269C41.8094 79.9269 40.7796 79.6996 39.5567 79.2449C39.1705 79.1313 38.1407 78.8471 36.4672 78.3925V97.9985C36.4672 100.954 36.5638 105.614 36.7568 111.978C36.9499 118.23 37.0465 122.89 37.0465 125.958C37.0465 127.663 36.789 129.141 36.2741 130.391C35.7592 131.641 35.0834 132.266 34.2466 132.266C33.0237 132.266 32.1548 130.164 31.6399 125.958C31.125 121.639 30.8675 116.013 30.8675 109.08L31.0606 95.2707C31.125 91.4063 31.1572 87.3146 31.1572 82.9956V77.7105C31.1572 75.892 31.125 74.6986 31.0606 74.1303V73.2779L31.3503 63.3896C31.3503 59.0706 31.2537 52.649 31.0606 44.1246C30.8675 35.6003 30.771 29.1786 30.771 24.8596C30.771 23.4957 31.0285 22.3023 31.5434 21.2794C32.0583 20.2565 32.7019 19.745 33.4743 19.745C35.5339 19.745 36.5638 23.1547 36.5638 29.9742L36.3707 51.1146C36.2419 57.4794 36.1776 64.583 36.1776 72.4254C37.143 72.9937 38.8809 73.2779 41.391 73.2779H44.9632C45.092 72.5959 45.1563 71.914 45.1563 71.232C45.1563 65.7765 44.9632 57.7067 44.5771 47.0229C44.1265 37.021 43.9012 28.8945 43.9012 22.6433C43.9012 21.393 44.1587 20.3701 44.6736 19.5745C45.2529 18.6653 45.9287 18.2106 46.7011 18.2106C47.1516 18.2106 47.7953 18.4948 48.632 19.0631L49.5009 19.745C49.5009 35.8844 49.8227 57.4226 50.4664 84.3595L51.3353 127.493C51.3353 129.084 50.9813 130.334 50.2733 131.243C49.6296 132.153 48.8573 132.607 47.9562 132.607Z" fill="#C69C3C"/>
<path d="M67.7534 132.437C62.1537 132.437 59.3539 130.732 59.3539 127.322C59.3539 124.594 60.3515 123.231 62.3468 123.231H63.4088L64.3743 123.401C64.8892 123.401 65.2432 123.117 65.4363 122.549C65.6294 121.98 65.7259 120.957 65.7259 119.48C65.7259 117.548 65.6615 114.536 65.5328 110.444C65.3397 107.716 65.1144 102.829 64.857 95.7821C64.2777 78.3925 63.9881 65.265 63.9881 56.3997C63.9881 53.2173 64.0203 50.319 64.0846 47.7048L64.1812 39.01C64.1812 35.2593 64.0846 32.1337 63.8915 29.6332C62.8617 30.0879 62.1215 30.3152 61.671 30.3152C60.1262 30.3152 59.3539 28.9513 59.3539 26.2235C59.3539 24.8596 59.8366 23.6662 60.8021 22.6433C61.7675 21.6204 62.9904 20.8816 64.4708 20.4269C67.0454 19.5177 69.3303 19.0631 71.3256 19.0631C72.0979 19.0631 72.7416 19.5745 73.2565 20.5974C73.8358 21.5067 74.1254 22.5864 74.1254 23.8367C74.1254 25.0869 73.9001 26.1667 73.4496 27.0759C73.0634 27.9852 72.5485 28.4398 71.9048 28.4398C71.5187 28.4398 71.1968 28.383 70.9394 28.2693H70.167C69.5234 28.2693 69.0406 28.5535 68.7188 29.1218C68.4614 29.5764 68.3326 30.4857 68.3326 31.8496C68.3326 42.8744 68.7188 59.4684 69.4912 81.6317C69.6199 85.7234 69.8774 91.7473 70.2636 99.7034C70.5854 104.932 70.7463 110.274 70.7463 115.729V122.208C71.1325 122.094 71.7761 122.037 72.6772 122.037C75.3805 122.037 76.7321 124.026 76.7321 128.004V129.027L74.3185 131.925C74.2541 131.925 74.0288 131.982 73.6427 132.096C73.3208 132.096 72.6772 132.096 71.7117 132.096C69.6521 132.323 68.3326 132.437 67.7534 132.437Z" fill="#C69C3C"/>
<path d="M86.4433 134.994C85.2847 134.653 84.2871 133.914 83.4504 132.778C82.678 131.641 82.2275 130.164 82.0987 128.345L83.1607 125.447C83.5469 125.447 84.1584 125.674 84.9951 126.129C85.9606 126.47 86.7008 126.64 87.2157 126.64C88.3742 126.64 89.404 125.731 90.3051 123.912C91.2706 122.094 91.9786 119.707 92.4291 116.752C93.2659 111.296 93.6842 106.409 93.6842 102.09C93.6842 94.5887 92.3326 86.6895 89.6293 78.3925L88.5673 75.1532C87.3444 71.4025 86.3146 68.0496 85.4778 65.0945C84.6411 62.1394 83.9331 58.957 83.3538 55.5472C82.5815 51.1146 82.1953 46.6819 82.1953 42.2493C82.1953 37.2483 82.8389 32.0201 84.1262 26.5645C84.7698 23.9503 85.6709 21.8477 86.8295 20.2565C88.0524 18.5516 89.404 17.6992 90.8844 17.6992C92.043 17.6992 93.105 18.3811 94.0704 19.745C95.1002 20.9952 95.6152 22.5296 95.6152 24.3481C95.6152 25.3711 95.3899 26.1667 94.9393 26.735C94.4888 27.3032 93.9417 27.5874 93.2981 27.5874C92.5901 27.5874 91.9142 27.2464 91.2706 26.5645C89.8546 26.6781 88.7282 28.8945 87.8915 33.2135C87.1835 37.1915 86.8295 40.4876 86.8295 43.1017C86.8295 46.3978 87.1191 49.7507 87.6984 53.1604C88.2777 56.4565 89.0179 59.4684 89.919 62.1962L92.043 69.0157L95.4221 80.2678C96.3232 83.4503 97.0312 87.1441 97.5461 91.3495C98.1254 95.5548 98.415 99.817 98.415 104.136C98.415 111.069 97.5139 117.661 95.7117 123.912C94.8106 127.095 93.5233 129.652 91.8499 131.584C90.2408 133.517 88.4386 134.483 86.4433 134.483V134.994Z" fill="#C69C3C"/>
<path d="M153.899 137.04C153.255 137.04 152.74 136.472 152.354 135.335C151.968 134.199 151.775 132.55 151.775 130.391L151.678 105.159C151.614 102.999 151.582 99.4192 151.582 94.4183C151.453 83.8481 151.389 71.914 151.389 58.616V49.9212C150.809 55.3768 149.812 63.0487 148.396 72.9369C146.98 83.1661 145.982 91.5768 145.403 98.169V99.1919L145.113 102.431C144.984 104.932 144.663 107.489 144.148 110.103C143.504 112.831 142.506 114.195 141.155 114.195C138.838 114.195 137.679 108.853 137.679 98.169C137.679 92.2588 137.325 85.9507 136.617 79.2449C135.973 72.4254 134.911 64.0716 133.431 54.1834L130.535 35.0888L130.342 55.5472C130.342 61.6848 130.502 73.3915 130.824 90.6675L131.017 102.261L131.21 125.617C131.21 128.004 130.728 130.164 129.762 132.096C128.153 132.096 127.027 131.243 126.383 129.539C125.804 127.72 125.514 125.106 125.514 121.696L125.707 107.716C125.9 101.579 125.997 96.9756 125.997 93.9068L125.611 27.9284C125.611 23.0411 125.675 15.7101 125.804 5.93556L128.411 3.20777C128.926 3.32143 129.44 4.00338 129.955 5.25361C130.47 6.39019 131.05 8.26555 131.693 10.8797C133.302 17.9265 135.394 32.0201 137.969 53.1604C138.355 56.1155 138.612 58.5592 138.741 60.4914C139.513 67.0835 140.06 72.0845 140.382 75.4942L141.83 88.6217L142.506 82.9956L144.341 69.0157C145.371 60.8323 146.207 53.6719 146.851 47.5344C147.559 41.3968 148.235 34.7478 148.878 27.5874C149.586 19.063 150.037 11.9594 150.23 6.27653V5.25361C150.359 3.77606 150.745 2.63948 151.389 1.84388C152.032 0.934613 152.805 0.47998 153.706 0.47998C154.285 0.47998 154.8 0.934613 155.25 1.84388C155.701 2.75314 155.926 3.71923 155.926 4.74215C155.926 18.3811 156.216 38.7827 156.795 65.9469C157.117 79.2449 157.342 92.2588 157.471 104.988C157.6 110.785 157.664 118.116 157.664 126.981C157.664 129.595 157.278 131.925 156.505 133.971C155.733 136.017 154.864 137.04 153.899 137.04Z" fill="#C69C3C"/>
<path d="M181.233 135.847C179.56 135.847 178.015 134.88 176.599 132.948C175.183 131.13 174.025 128.629 173.123 125.447C171.257 118.514 170.098 110.955 169.648 102.772C169.069 95.0434 168.779 87.5988 168.779 80.4383C168.779 79.0744 168.811 77.9379 168.875 77.0286V73.9598C168.875 73.3915 168.843 73.1074 168.779 73.1074V70.0386L168.875 58.1046C168.94 54.4675 169.197 48.6709 169.648 40.7149C169.97 35.2593 170.71 29.9742 171.868 24.8596C172.319 22.5864 172.898 20.8816 173.606 19.745C174.314 18.4948 175.119 17.8696 176.02 17.8696C178.594 17.8696 180.911 18.7221 182.971 20.4269C185.031 22.0182 186.769 24.2913 188.185 27.2464C189.472 30.0879 190.566 33.6113 191.467 37.8166C192.368 41.9083 193.012 46.2841 193.398 50.9441C193.784 55.7177 193.977 60.7755 193.977 66.1174V67.4813C193.977 71.0047 194.01 74.1871 194.074 77.0286L194.17 86.7463C194.17 119.48 189.858 135.847 181.233 135.847ZM180.847 128.686C182.006 128.686 183.068 127.891 184.033 126.299C184.999 124.594 185.739 122.321 186.254 119.48C187.477 113.683 188.217 107.432 188.474 100.726C188.796 94.9297 188.957 89.9288 188.957 85.7234C188.957 80.6088 188.732 73.903 188.281 65.606C187.895 56.8543 187.702 50.319 187.702 46V42.9312C187.573 38.6122 186.736 34.8615 185.192 31.6791C183.711 28.4967 181.877 26.9055 179.689 26.9055C177.5 26.9055 176.052 29.1218 175.344 33.5544C174.7 37.0778 174.379 41.6242 174.379 47.1934C174.379 49.3529 174.411 51.1714 174.475 52.649V57.2521L174.282 65.0945C174.153 67.4813 174.089 70.0955 174.089 72.9369C174.089 79.0744 174.185 85.1551 174.379 91.179C174.636 99.7033 175.28 108 176.309 116.07C177.339 124.481 178.852 128.686 180.847 128.686Z" fill="#C69C3C"/>
<path d="M231.085 133.119C230.313 133.119 229.733 132.778 229.347 132.096C228.961 131.3 228.671 129.993 228.478 128.175L227.899 124.935V124.083C227.899 120.332 225.678 107.546 221.237 85.7234C216.86 63.9011 213.417 47.7617 210.907 37.3052V123.06L211.293 124.253C211.357 124.481 211.486 124.879 211.679 125.447C211.872 126.015 211.969 126.583 211.969 127.152C211.969 128.629 211.679 129.88 211.1 130.902C210.521 131.925 209.813 132.437 208.976 132.437C206.916 132.437 205.886 128.97 205.886 122.037L205.79 92.8839C205.726 84.1322 205.693 74.3576 205.693 63.5601C205.693 59.9231 205.79 54.638 205.983 47.7048C206.176 40.5444 206.273 35.2593 206.273 31.8496C206.273 26.5076 207.431 22.3023 209.748 19.2335V20.2565C210.134 20.0291 210.392 19.9155 210.521 19.9155C212.001 19.9155 213.868 24.4618 216.12 33.5544C217.922 40.8285 219.532 48.5005 220.948 56.5702C222.428 64.6399 224.359 76.1193 226.74 91.0085L227.706 97.146C229.186 106.352 230.313 112.944 231.085 116.923C232.372 92.4861 233.016 63.617 233.016 30.3152V28.0989C232.951 27.4169 232.919 26.6781 232.919 25.8825C232.919 22.4728 233.692 20.7679 235.236 20.7679C236.138 20.7679 236.813 21.393 237.264 22.6433C237.779 23.8935 238.036 25.4847 238.036 27.4169V40.2034C237.908 57.7067 237.521 76.6876 236.878 97.146C236.234 117.604 235.462 129.141 234.561 131.755C232.694 132.664 231.535 133.119 231.085 133.119Z" fill="#C69C3C"/>
<path d="M256.333 129.88L256.237 123.231C256.172 121.298 256.14 119.139 256.14 116.752L256.237 110.955C256.044 109.705 255.561 97.2597 254.788 73.6189C254.016 49.978 253.566 34.8047 253.437 28.0989C249.704 27.8715 247.322 27.1896 246.292 26.053C245.584 25.1438 245.23 24.1208 245.23 22.9843C245.23 22.075 245.552 21.2794 246.196 20.5974C246.904 19.8018 247.612 19.404 248.32 19.404C250.122 19.404 252.31 19.6313 254.885 20.086C257.331 20.6543 259.519 20.9384 261.45 20.9384H262.995C264.99 20.9384 265.988 22.3023 265.988 25.0301C265.988 26.394 265.666 27.5306 265.022 28.4398C264.379 29.2354 263.639 29.6332 262.802 29.6332C262.223 29.6332 261.386 29.4628 260.292 29.1218L258.361 28.4398L258.168 30.1447C258.168 40.2603 258.715 56.3997 259.809 78.563C260.839 99.3624 261.354 115.502 261.354 126.981C261.354 128.345 261 129.539 260.292 130.561C259.648 131.584 258.908 132.096 258.071 132.096L256.333 129.88Z" fill="#C69C3C"/>
<path d="M292.621 132.607C290.433 132.607 289.338 123.231 289.338 104.477L289.435 94.7592L289.531 86.9168V84.7005C289.596 83.7912 289.628 82.7115 289.628 81.4613C289.628 81.2339 289.531 80.9498 289.338 80.6088C289.145 80.2678 289.049 79.9837 289.049 79.7564V79.5859C288.727 79.8132 288.148 79.9269 287.311 79.9269C286.474 79.9269 285.444 79.6996 284.221 79.2449C283.835 79.1313 282.805 78.8471 281.132 78.3925V97.9985C281.132 100.954 281.228 105.614 281.422 111.978C281.615 118.23 281.711 122.89 281.711 125.958C281.711 127.663 281.454 129.141 280.939 130.391C280.424 131.641 279.748 132.266 278.911 132.266C277.688 132.266 276.82 130.164 276.305 125.958C275.79 121.639 275.532 116.013 275.532 109.08L275.725 95.2707C275.79 91.4063 275.822 87.3146 275.822 82.9956V77.7105C275.822 75.892 275.79 74.6986 275.725 74.1303V73.2779L276.015 63.3896C276.015 59.0706 275.918 52.649 275.725 44.1246C275.532 35.6003 275.436 29.1786 275.436 24.8596C275.436 23.4957 275.693 22.3023 276.208 21.2794C276.723 20.2565 277.367 19.745 278.139 19.745C280.199 19.745 281.228 23.1547 281.228 29.9742L281.035 51.1146C280.907 57.4794 280.842 64.583 280.842 72.4254C281.808 72.9937 283.546 73.2779 286.056 73.2779H289.628C289.757 72.5959 289.821 71.914 289.821 71.232C289.821 65.7765 289.628 57.7067 289.242 47.0229C288.791 37.021 288.566 28.8945 288.566 22.6433C288.566 21.393 288.823 20.3701 289.338 19.5745C289.918 18.6653 290.593 18.2106 291.366 18.2106C291.816 18.2106 292.46 18.4948 293.297 19.0631L294.166 19.745C294.166 35.8844 294.487 57.4226 295.131 84.3595L296 127.493C296 129.084 295.646 130.334 294.938 131.243C294.294 132.153 293.522 132.607 292.621 132.607Z" fill="#C69C3C"/>
</svg>
