<svg width="888" height="414" viewBox="0 0 888 414" fill="none" xmlns="http://www.w3.org/2000/svg">
<path d="M38.5218 401.403C35.6253 401.403 33.3084 399.015 31.5705 394.242C30.0258 389.127 29.2534 382.989 29.2534 375.828C29.2534 364.578 29.6396 350.769 30.4119 334.401L30.9912 321.102L31.5705 293.996C31.5705 282.062 30.8946 255.466 29.543 214.208C28.1914 172.95 27.5156 146.354 27.5156 134.42C27.5156 133.397 27.5156 131.522 27.5156 128.794C27.7087 125.725 27.8052 121.122 27.8052 114.985C27.9983 108.165 28.0949 99.8111 28.0949 89.9228C28.0949 65.0318 27.1294 49.1765 25.1985 42.3569C24.0399 42.3569 21.5297 42.8684 17.6679 43.8914L9.55806 44.9144C7.04784 44.9144 4.8273 43.721 2.89638 41.3342C0.96546 38.6063 0 35.1965 0 31.1048C0 27.0132 2.3171 23.433 6.9513 20.3642C13.7095 16.2725 25.1985 13.3742 41.4183 11.6694C47.9832 10.9874 51.9417 10.6465 53.2932 10.6465C55.6104 10.6465 57.7344 12.0104 59.6655 14.7382C61.5963 17.4659 62.5617 20.8757 62.5617 24.9674C62.5617 29.0591 61.6929 32.4689 59.955 35.1965C58.4103 37.5833 56.3829 38.7767 53.8725 38.7767L48.6591 38.2652C47.1144 37.9244 45.3765 37.7537 43.4457 37.7537H40.5492C41.901 60.9401 42.5769 81.9101 42.5769 100.663L42.2871 133.397C42.0939 143.285 41.9976 154.367 41.9976 166.642C41.9976 183.009 42.3837 202.615 43.1559 225.46C44.1216 253.761 44.6043 273.367 44.6043 284.278C44.6043 297.235 44.9904 312.579 45.7629 330.309C46.5351 348.381 46.9212 363.726 46.9212 376.341C46.9212 393.048 44.1216 401.403 38.5218 401.403Z" fill="#C69C3C"/>
<path d="M143.87 397.822C137.305 397.822 134.022 369.694 134.022 313.432L134.312 284.279L134.602 260.751V254.103C134.795 251.375 134.891 248.136 134.891 244.385C134.891 243.703 134.602 242.85 134.022 241.827C133.443 240.804 133.153 239.952 133.153 239.27V238.759C132.188 239.441 130.45 239.782 127.94 239.782C125.43 239.782 122.34 239.1 118.672 237.736C117.513 237.395 114.424 236.542 109.403 235.179V293.996C109.403 302.863 109.693 316.843 110.272 335.935C110.851 354.691 111.141 368.671 111.141 377.875C111.141 382.99 110.368 387.424 108.824 391.174C107.279 394.924 105.252 396.799 102.741 396.799C99.0726 396.799 96.4659 390.493 94.9212 377.875C93.3765 364.918 92.604 348.04 92.604 327.241L93.1833 285.813C93.3765 274.22 93.4731 261.945 93.4731 248.988V233.133C93.4731 227.677 93.3765 224.097 93.1833 222.392V219.835L94.0524 190.17C94.0524 177.213 93.7626 157.948 93.1833 132.375C92.604 106.802 92.3145 87.5368 92.3145 74.5798C92.3145 70.4881 93.087 66.9079 94.6317 63.8392C96.1764 60.7705 98.1072 59.236 100.424 59.236C106.603 59.236 109.693 69.4651 109.693 89.9236L109.114 153.345C108.727 172.439 108.534 193.75 108.534 217.277C111.43 218.982 116.644 219.835 124.174 219.835H134.891C135.277 217.789 135.47 215.743 135.47 213.697C135.47 197.331 134.891 173.121 133.733 141.07C132.381 111.064 131.705 86.6845 131.705 67.9309C131.705 64.18 132.478 61.1113 134.022 58.7245C135.76 55.9969 137.788 54.6328 140.105 54.6328C141.456 54.6328 143.387 55.4854 145.897 57.1903L148.504 59.236C148.504 107.654 149.47 172.269 151.401 253.079L154.007 382.48C154.007 387.253 152.945 391.003 150.821 393.73C148.89 396.46 146.573 397.822 143.87 397.822Z" fill="#C69C3C"/>
<path d="M203.259 397.312C186.46 397.312 178.061 392.197 178.061 381.967C178.061 373.783 181.053 369.694 187.039 369.694H190.225L193.122 370.204C194.666 370.204 195.728 369.352 196.308 367.648C196.887 365.941 197.177 362.872 197.177 358.441C197.177 352.645 196.983 343.609 196.597 331.333C196.018 323.149 195.342 308.488 194.57 287.347C192.832 235.179 191.963 195.796 191.963 169.2C191.963 159.653 192.06 150.958 192.253 143.116L192.542 117.031C192.542 105.779 192.253 96.4022 191.673 88.9007C188.584 90.2648 186.363 90.9467 185.012 90.9467C180.377 90.9467 178.061 86.855 178.061 78.6716C178.061 74.5799 179.509 70.9997 182.405 67.931C185.301 64.8623 188.97 62.6459 193.411 61.2818C201.135 58.5542 207.99 57.1904 213.976 57.1904C216.293 57.1904 218.224 58.7246 219.768 61.7933C221.506 64.5212 222.375 67.7603 222.375 71.5112C222.375 75.2618 221.699 78.5012 220.348 81.2288C219.189 83.9567 217.644 85.3205 215.713 85.3205C214.555 85.3205 213.589 85.1501 212.817 84.809H210.5C208.569 84.809 207.121 85.6616 206.155 87.3665C205.383 88.7303 204.997 91.4582 204.997 95.5499C204.997 128.624 206.155 178.406 208.472 244.896C208.859 257.171 209.631 275.243 210.79 299.111C211.755 314.797 212.238 330.823 212.238 347.188V366.625C213.396 366.283 215.327 366.112 218.03 366.112C226.14 366.112 230.195 372.079 230.195 384.013V387.082L222.954 395.776C222.761 395.776 222.085 395.947 220.927 396.289C219.961 396.289 218.03 396.289 215.134 396.289C208.955 396.97 204.997 397.312 203.259 397.312Z" fill="#C69C3C"/>
<path d="M259.333 404.982C255.857 403.959 252.864 401.742 250.354 398.334C248.037 394.923 246.685 390.492 246.299 385.035L249.485 376.341C250.643 376.341 252.478 377.022 254.988 378.387C257.885 379.41 260.105 379.92 261.65 379.92C265.125 379.92 268.215 377.193 270.918 371.736C273.815 366.282 275.939 359.121 277.29 350.256C279.8 333.888 281.055 319.227 281.055 306.27C281.055 283.766 277.001 260.069 268.891 235.178L265.705 225.46C262.036 214.208 258.947 204.149 256.436 195.284C253.926 186.418 251.802 176.871 250.064 166.642C247.747 153.344 246.589 140.046 246.589 126.748C246.589 111.745 248.519 96.0604 252.381 79.6936C254.312 71.851 257.015 65.5432 260.491 60.7696C264.16 55.6549 268.215 53.0977 272.656 53.0977C276.132 53.0977 279.318 55.1434 282.214 59.2351C285.303 62.9857 286.848 67.5889 286.848 73.0444C286.848 76.1134 286.172 78.5002 284.821 80.2051C283.469 81.9097 281.828 82.7623 279.897 82.7623C277.773 82.7623 275.745 81.7393 273.815 79.6936C269.567 80.0344 266.187 86.6836 263.677 99.6406C261.553 111.575 260.491 121.463 260.491 129.305C260.491 139.193 261.36 149.252 263.098 159.481C264.836 169.37 267.056 178.405 269.76 186.589L276.132 207.047L286.269 240.803C288.972 250.351 291.096 261.432 292.641 274.049C294.379 286.664 295.248 299.451 295.248 312.408C295.248 333.207 292.544 352.983 287.138 371.736C284.435 381.285 280.573 388.956 275.552 394.752C270.725 400.551 265.319 403.449 259.333 403.449V404.982Z" fill="#C69C3C"/>
<path d="M461.696 411.119C459.764 411.119 458.219 409.415 457.061 406.004C455.903 402.596 455.324 397.649 455.324 391.172L455.033 315.476C454.841 308.996 454.745 298.256 454.745 283.253C454.358 251.543 454.166 215.741 454.166 175.847V149.762C452.426 166.129 449.435 189.145 445.187 218.809C440.939 249.497 437.945 274.729 436.208 294.506V297.574L435.338 307.292C434.951 314.795 433.988 322.466 432.443 330.308C430.511 338.492 427.517 342.584 423.464 342.584C416.513 342.584 413.036 326.558 413.036 294.506C413.036 276.775 411.974 257.851 409.85 237.733C407.918 217.275 404.732 192.213 400.292 162.549L391.604 105.265L391.025 166.64C391.025 185.053 391.505 220.173 392.471 272.001L393.05 306.782L393.629 376.85C393.629 384.011 392.183 390.491 389.285 396.286C384.458 396.286 381.08 393.728 379.148 388.616C377.411 383.159 376.541 375.317 376.541 365.087L377.12 323.147C377.699 304.736 377.99 290.925 377.99 281.719L376.832 83.7837C376.832 69.1218 377.024 47.1288 377.411 17.8052L385.232 9.62185C386.777 9.96283 388.319 12.0087 389.864 15.7594C391.409 19.1691 393.149 24.7952 395.078 32.6376C399.905 53.778 406.181 96.0588 413.906 159.48C415.064 168.345 415.835 175.676 416.222 181.473C418.538 201.249 420.179 216.252 421.145 226.481L425.489 265.864L427.517 248.985L433.022 207.046C436.112 182.495 438.62 161.014 440.552 142.602C442.676 124.189 444.704 104.242 446.633 82.7607C448.757 57.1875 450.11 35.8767 450.689 18.8281V15.7594C451.076 11.3267 452.234 7.91698 454.166 5.53018C456.095 2.80238 458.414 1.43848 461.117 1.43848C462.854 1.43848 464.399 2.80238 465.749 5.53018C467.102 8.25796 467.777 11.1562 467.777 14.225C467.777 55.1418 468.647 116.347 470.384 197.839C471.35 237.733 472.025 276.775 472.412 314.963C472.799 332.354 472.991 354.347 472.991 380.942C472.991 388.784 471.833 395.774 469.514 401.911C467.198 408.049 464.591 411.119 461.696 411.119Z" fill="#C69C3C"/>
<path d="M543.7 407.54C538.681 407.54 534.046 404.639 529.798 398.843C525.55 393.389 522.076 385.886 519.37 376.34C513.772 355.541 510.295 332.864 508.945 308.315C507.208 285.129 506.338 262.795 506.338 241.314C506.338 237.222 506.434 233.812 506.626 231.084V221.878C506.626 220.173 506.53 219.321 506.338 219.321V210.114L506.626 174.312C506.821 163.401 507.592 146.011 508.945 122.143C509.911 105.777 512.131 89.9212 515.605 74.5774C516.958 67.7578 518.695 62.6434 520.819 59.2336C522.943 55.483 525.358 53.6074 528.061 53.6074C535.783 53.6074 542.734 56.1649 548.914 61.2793C555.094 66.0532 560.308 72.8725 564.556 81.7378C568.417 90.2623 571.699 100.833 574.402 113.448C577.105 125.724 579.037 138.851 580.195 152.831C581.353 167.152 581.932 182.325 581.932 198.351V202.443C581.932 213.013 582.031 222.56 582.223 231.084L582.511 260.238C582.511 358.439 569.575 407.54 543.7 407.54ZM542.542 386.057C546.019 386.057 549.205 383.672 552.1 378.896C554.998 373.781 557.218 366.962 558.763 358.439C562.432 341.048 564.652 322.295 565.423 302.177C566.389 284.788 566.872 269.785 566.872 257.169C566.872 241.825 566.197 221.708 564.844 196.817C563.686 170.562 563.107 150.956 563.107 137.999V128.792C562.72 115.835 560.209 104.583 555.577 95.0359C551.134 85.4887 545.632 80.7151 539.068 80.7151C532.501 80.7151 528.157 87.364 526.033 100.662C524.101 111.232 523.138 124.871 523.138 141.579C523.138 148.057 523.234 153.513 523.426 157.946V171.755L522.847 195.282C522.46 202.443 522.268 210.285 522.268 218.809C522.268 237.222 522.556 255.464 523.138 273.536C523.909 299.109 525.841 323.999 528.928 348.209C532.018 373.442 536.557 386.057 542.542 386.057Z" fill="#C69C3C"/>
<path d="M693.256 399.357C690.94 399.357 689.2 398.334 688.042 396.288C686.884 393.9 686.014 389.979 685.435 384.525L683.698 374.805V372.249C683.698 360.996 677.035 322.638 663.712 257.17C650.581 191.703 640.252 143.285 632.722 111.915V369.18L633.88 372.759C634.072 373.443 634.459 374.637 635.038 376.341C635.617 378.045 635.908 379.749 635.908 381.456C635.908 385.887 635.038 389.64 633.301 392.706C631.564 395.775 629.44 397.311 626.929 397.311C620.749 397.311 617.659 386.91 617.659 366.111L617.371 278.651C617.179 252.396 617.08 223.072 617.08 190.68C617.08 179.769 617.371 163.914 617.95 143.114C618.529 121.633 618.82 105.778 618.82 95.5485C618.82 79.5225 622.294 66.9066 629.245 57.7002V60.7692C630.403 60.087 631.177 59.7462 631.564 59.7462C636.004 59.7462 641.605 73.3851 648.361 100.663C653.767 122.485 658.597 145.501 662.845 169.71C667.285 193.919 673.078 228.358 680.221 273.025L683.119 291.438C687.559 319.056 690.94 338.832 693.256 350.769C697.117 277.458 699.049 190.851 699.049 90.9453V84.2964C698.854 82.2504 698.758 80.034 698.758 77.6472C698.758 67.4181 701.077 62.3034 705.709 62.3034C708.415 62.3034 710.44 64.1787 711.793 67.9296C713.338 71.6802 714.109 76.4538 714.109 82.2504V120.61C713.725 173.12 712.564 230.063 710.635 291.438C708.703 352.812 706.387 387.423 703.684 395.265C698.083 397.992 694.606 399.357 693.256 399.357Z" fill="#C69C3C"/>
<path d="M769 389.641L768.712 369.694C768.517 363.895 768.421 357.418 768.421 350.257L768.712 332.866C768.133 329.116 766.684 291.78 764.365 220.858C762.049 149.935 760.699 104.415 760.312 84.2976C749.113 83.6154 741.967 81.5697 738.877 78.1599C736.753 75.4323 735.691 72.3633 735.691 68.9538C735.691 66.2259 736.657 63.8391 738.589 61.7931C740.713 59.4063 742.837 58.2129 744.961 58.2129C750.367 58.2129 756.931 58.8948 764.656 60.2589C771.994 61.9638 778.558 62.8161 784.351 62.8161H788.986C794.971 62.8161 797.965 66.9078 797.965 75.0912C797.965 79.1829 796.999 82.5927 795.067 85.3203C793.138 87.7071 790.918 88.9005 788.407 88.9005C786.67 88.9005 784.159 88.3893 780.877 87.3663L775.084 85.3203L774.505 90.435C774.505 120.782 776.146 169.2 779.428 235.69C782.518 298.088 784.063 346.507 784.063 380.944C784.063 385.036 783.001 388.618 780.877 391.684C778.945 394.753 776.725 396.289 774.214 396.289L769 389.641Z" fill="#C69C3C"/>
<path d="M877.862 397.822C871.298 397.822 868.013 369.694 868.013 313.432L868.304 284.279L868.592 260.751V254.103C868.787 251.375 868.883 248.136 868.883 244.385C868.883 243.703 868.592 242.85 868.013 241.827C867.434 240.804 867.146 239.952 867.146 239.27V238.759C866.18 239.441 864.443 239.782 861.932 239.782C859.421 239.782 856.331 239.1 852.662 237.736C851.504 237.395 848.414 236.542 843.395 235.179V293.996C843.395 302.863 843.683 316.843 844.265 335.935C844.844 354.691 845.132 368.671 845.132 377.875C845.132 382.99 844.361 387.424 842.816 391.174C841.271 394.924 839.243 396.799 836.732 396.799C833.063 396.799 830.459 390.493 828.914 377.875C827.369 364.918 826.595 348.04 826.595 327.241L827.174 285.813C827.369 274.22 827.465 261.945 827.465 248.988V233.133C827.465 227.677 827.369 224.097 827.174 222.392V219.835L828.044 190.17C828.044 177.213 827.753 157.948 827.174 132.375C826.595 106.802 826.307 87.5368 826.307 74.5798C826.307 70.4881 827.078 66.9079 828.623 63.8392C830.168 60.7705 832.1 59.236 834.416 59.236C840.596 59.236 843.683 69.4651 843.683 89.9236L843.104 153.345C842.72 172.439 842.525 193.75 842.525 217.277C845.423 218.982 850.637 219.835 858.167 219.835H868.883C869.27 217.789 869.462 215.743 869.462 213.697C869.462 197.331 868.883 173.121 867.725 141.07C866.372 111.064 865.697 86.6845 865.697 67.9309C865.697 64.18 866.468 61.1113 868.013 58.7245C869.753 55.9969 871.778 54.6328 874.097 54.6328C875.447 54.6328 877.379 55.4854 879.89 57.1903L882.497 59.236C882.497 107.654 883.46 172.269 885.392 253.079L887.999 382.48C887.999 387.253 886.937 391.003 884.813 393.73C882.881 396.46 880.565 397.822 877.862 397.822Z" fill="#C69C3C"/>
</svg>
