<svg width="876" height="759" viewBox="0 0 876 759" fill="none" xmlns="http://www.w3.org/2000/svg">
<g clip-path="url(#clip0_1105_2340)">
<path d="M226.018 197.323C206.836 220.77 152.936 190.841 123.75 174.892C121.977 173.923 120.063 175.679 120.946 177.496C134.247 204.857 169.136 256.765 154.303 290.144C138.505 325.694 56.152 346.451 4.17032 357.611C1.89194 358.1 1.90844 361.403 4.18655 361.895C100.826 382.694 150.366 409.406 158.521 442.031C164.708 466.781 127.067 552.497 101.795 600.74C100.658 602.909 103.588 605.147 105.4 603.497C158.427 555.212 253.993 480.56 280.858 507.428C306.926 533.501 308.261 580.127 305.123 605.834C304.865 607.949 307.547 609.269 309.026 607.739C351.032 564.323 384.926 537.122 403.196 541.181C417.503 544.361 427.316 577.121 433.697 595.016C434.219 596.486 436.076 596.897 437.183 595.799C454.748 578.306 487.199 547.64 506.549 568.607C526.106 589.796 505.922 697.949 498.818 756.638C498.575 758.648 500.906 759.773 502.235 758.243C539.633 715.19 608.567 568.298 628.886 560.168C644.18 554.051 668.135 571.151 681.911 582.263C683.387 583.451 685.592 582.32 685.454 580.43C683.312 551.588 680.948 500.123 711.149 484.223C741.05 468.482 805.081 502.292 840.949 520.607C842.914 521.612 844.88 519.341 843.638 517.517C801.797 456.119 772.91 418.088 789.191 397.73C800.255 383.9 843.649 372.515 873.613 365.813C875.794 365.324 875.89 362.252 873.742 361.643C843.475 353.078 798.599 339.359 795.518 307.019C791.3 262.719 877.781 193.103 875.672 186.775C873.563 180.446 765.989 233.185 734.351 214.199C719.921 205.54 723.902 156.816 727.352 130.498C727.595 128.636 725.513 127.358 723.977 128.434C701.672 144.049 661.115 171.516 637.325 157.241C613.334 142.844 621.557 75.3351 622.481 33.168C622.526 31.0773 619.877 30.2382 618.671 31.9458C583.523 81.6714 540.743 142.171 496.004 134.035C450.569 125.773 428.921 56.1606 417.758 11.105C417.23 8.96816 414.218 8.88542 413.612 11.0017C398.72 62.9847 375.311 148.893 333.59 142.474C291.712 136.03 239.456 49.6266 201.771 1.41946C200.399 -0.335625 197.706 0.924855 198.161 3.10559C211.999 69.4137 244.22 175.071 226.018 197.323Z" fill="#BABFFC"/>
<path d="M128.134 182.167C142.075 189.742 160.108 199.189 177.274 204.945C187.245 208.288 197.245 210.501 206.179 210.237C215.194 209.971 223.519 207.151 229.341 200.035C232.299 196.419 233.962 191.482 234.852 185.991C235.751 180.438 235.924 173.901 235.578 166.704C234.885 152.307 232.08 134.69 228.313 115.889C224.541 97.0586 219.767 76.8668 215.086 57.2951C214.663 55.5248 214.24 53.7596 213.819 52.001C210.471 38.0162 207.222 24.4487 204.462 11.9707C210.799 20.3736 217.495 29.6318 224.469 39.2732C225.936 41.3012 227.415 43.346 228.906 45.4037C239.759 60.3845 251.192 75.9887 262.776 90.3029C274.348 104.601 286.171 117.741 297.835 127.747C309.421 137.685 321.283 144.916 332.941 146.71C345.094 148.58 355.654 143.603 364.573 135.04C373.414 126.551 380.983 114.251 387.538 100.478C399.4 75.5489 408.445 44.6492 415.549 19.8297C421.078 41.0825 428.896 66.5072 440.224 88.3397C452.863 112.702 470.476 133.749 495.238 138.252C519.817 142.722 543.091 128.237 563.944 107.745C583.288 88.7329 601.531 63.5714 617.977 40.3562C617.794 45.3365 617.548 50.6222 617.293 56.0864C616.546 72.185 615.724 89.8301 616.273 105.763C616.693 117.872 617.902 129.383 620.632 138.891C623.338 148.314 627.748 156.492 635.119 160.915C648.991 169.239 666.928 165.051 682.945 157.966C697.441 151.554 711.697 142.166 722.503 134.686C720.964 147.489 719.518 164.114 719.86 179.065C720.052 187.486 720.814 195.584 722.533 202.239C724.201 208.688 727.024 214.8 732.145 217.874C736.903 220.729 742.798 222.078 749.146 222.489C755.527 222.903 762.658 222.387 770.119 221.273C785.035 219.045 801.778 214.345 817.402 209.313C828.277 205.81 838.759 202.096 847.753 198.909C851.662 197.523 855.292 196.237 858.553 195.111C861.553 194.074 864.217 193.181 866.506 192.463C864.784 194.359 862.711 196.557 860.344 199.036C858.964 200.481 857.494 202.012 855.946 203.622C848.86 210.995 840.193 220.013 831.583 229.824C821.095 241.773 810.538 255.066 802.855 268.271C795.238 281.358 790.066 294.986 791.251 307.424C792.994 325.727 806.548 338.219 822.355 346.994C835.552 354.323 851.074 359.486 864.604 363.473C851.317 366.59 836.335 370.496 822.94 375.032C814.846 377.774 807.232 380.783 800.884 384.029C794.632 387.23 789.187 390.869 785.842 395.048C780.856 401.285 779.506 408.764 780.703 417.014C781.879 425.123 785.536 434.216 790.828 444.233C799.6 460.85 813.436 481.025 829.792 504.875C831.595 507.5 833.425 510.173 835.285 512.888C818.242 504.185 796.495 493.292 775.276 485.609C763.003 481.163 750.724 477.722 739.495 476.429C728.323 475.139 717.715 475.916 709.153 480.425C692.203 489.347 684.916 507.953 681.937 526.802C679.255 543.776 679.906 561.965 680.836 575.936C674.344 570.902 666.241 565.166 657.916 560.927C648.175 555.968 636.82 552.371 627.295 556.184C625.291 556.985 623.368 558.461 621.589 560.132C619.759 561.854 617.818 564.038 615.796 566.564C611.752 571.622 607.147 578.348 602.164 586.19C592.192 601.883 580.447 622.451 568.234 643.991C567.079 646.031 565.918 648.077 564.757 650.129C553.6 669.818 542.14 690.044 531.271 708.056C521.395 724.427 512.11 738.788 504.079 749.192C505.195 740.609 506.518 731.156 507.913 721.211C511.138 698.195 514.732 672.545 516.955 648.959C518.704 630.38 519.64 612.794 518.878 598.442C518.494 591.266 517.684 584.768 516.283 579.296C514.897 573.884 512.839 569.093 509.704 565.694C503.986 559.499 497.11 557.021 489.877 557.261C482.857 557.492 475.735 560.267 469.081 564.047C456.973 570.926 445.213 581.858 436.6 590.333C436.303 589.481 435.997 588.596 435.685 587.693C432.868 579.563 429.403 569.558 425.311 560.768C422.725 555.218 419.791 549.92 416.455 545.741C413.17 541.625 409.102 538.097 404.128 536.993C398.332 535.703 391.822 536.984 385.039 539.798C378.199 542.636 370.63 547.226 362.479 553.193C347.221 564.362 329.449 580.721 309.976 600.614C311.047 588.065 311.005 572.084 308.17 556.019C304.888 537.431 297.79 518.291 283.895 504.392C275.395 495.893 262.215 496.136 248.362 500.195C234.23 504.335 217.714 512.903 200.656 523.649C169.795 543.086 136.343 570.182 110.557 593.09C122.234 570.014 135.598 540.956 145.96 514.118C151.889 498.758 156.873 484.034 159.987 471.521C161.544 465.266 162.653 459.485 163.167 454.409C163.675 449.387 163.632 444.776 162.685 440.99C158.164 422.9 142.406 407.288 116.529 393.725C92.241 380.996 58.3449 369.701 14.4258 359.759C38.8917 354.308 68.3571 346.889 94.3302 337.031C109.019 331.457 122.741 325.049 133.86 317.687C144.924 310.364 153.8 301.841 158.225 291.882C166.433 273.412 160.699 250.554 152.14 229.916C147.794 219.438 142.573 209.198 137.645 199.929C136.112 197.044 134.616 194.269 133.184 191.613C131.382 188.271 129.681 185.116 128.134 182.167Z" stroke="black" stroke-opacity="0.1" stroke-width="8.5797"/>
</g>
<defs>
<clipPath id="clip0_1105_2340">
<rect width="876" height="759" fill="white"/>
</clipPath>
</defs>
</svg>
