<svg width="296" height="137" viewBox="0 0 296 137" fill="none" xmlns="http://www.w3.org/2000/svg">
<path d="M9.91741 132.293C7.88307 132.293 6.10302 131.782 4.57726 130.761C3.15323 129.739 2.44121 128.32 2.44121 126.504C4.67898 124.006 5.79787 117.366 5.79787 106.582C5.79787 100.111 5.34014 90.6893 4.42469 78.3161C3.40752 66.5104 2.89893 57.2021 2.89893 50.3911L3.20408 41.026C3.3058 38.3016 3.35666 35.1799 3.35666 31.6609C3.35666 28.4824 2.84808 24.4526 1.83091 19.5714C0.610302 14.4632 0 10.8874 0 8.84415C0 4.87108 3.9161 2.88455 11.7483 2.88455H14.0369C19.5297 2.88455 24.3104 4.75757 28.379 8.5036C31.634 11.6821 34.3803 16.2795 36.6181 22.2958C38.1439 26.3824 39.4662 32.0582 40.5851 39.3232C41.1954 45.6802 41.5005 50.6749 41.5005 54.3074V67.7591C41.2971 68.2131 41.1954 68.6672 41.1954 69.1213C41.1954 70.0294 41.2462 70.7105 41.348 71.1645C41.4497 71.6186 41.5005 72.1862 41.5005 72.8673C41.5005 76.4998 40.9919 80.8702 39.9748 85.9784C39.0593 90.9731 37.6861 96.0814 35.8552 101.303C31.278 113.79 26.1413 122.644 20.4451 127.866C17.0885 130.817 13.5792 132.293 9.91741 132.293ZM13.1215 122.417C16.885 119.806 20.1908 116.06 23.0389 111.179C25.887 106.184 28.0739 100.679 29.5996 94.6624C32.346 83.5378 33.7192 72.2997 33.7192 60.9481C33.7192 54.8182 33.2106 48.1208 32.1934 40.8557C31.0745 33.8177 28.6842 27.4608 25.0224 21.785C23.2932 19.0606 21.1063 16.9606 18.4616 15.4849C15.817 13.8956 12.8163 13.101 9.45968 13.101V13.2713C9.45968 23.4877 10.07 38.9259 11.2906 59.5859C12.5112 80.1323 13.1215 95.684 13.1215 106.241V122.417Z" fill="#E06E51"/>
<path d="M90.1578 133.485C87.8183 133.485 86.0891 133.088 84.9702 132.293C83.8513 131.498 83.2919 130.023 83.2919 127.866C83.2919 124.46 82.7833 118.671 81.7661 110.498L81.1559 106.922L66.0509 104.368C65.4406 106.979 64.576 112.257 63.4571 120.204C62.8468 125.766 61.8805 129.455 60.5582 131.271C59.8461 132.293 58.829 132.804 57.5066 132.804C56.286 132.804 55.1672 132.407 54.15 131.612C53.1328 130.704 52.6242 129.625 52.6242 128.377L52.9294 127.525L53.082 126.844C59.7953 97.6706 64.8811 68.8942 68.3395 40.5152C68.3395 40.0611 68.3904 39.3233 68.4921 38.3016C68.5938 37.1664 68.6955 35.5772 68.7972 33.5339C69.1024 29.3338 69.4075 25.9851 69.7127 23.4877C70.1196 20.9904 70.7299 19.1174 71.5436 17.8687H76.7312C78.1552 17.8687 79.3758 18.266 80.393 19.0606C81.4101 19.7417 81.9187 20.7634 81.9187 22.1255C81.9187 30.7528 82.9868 43.5801 85.1228 60.6075C87.1571 78.089 88.1743 90.3488 88.1743 97.3868C88.1743 98.0679 88.4286 99.8274 88.9372 102.665C89.4458 105.276 89.7001 106.979 89.7001 107.774C89.7001 108.568 90.2087 111.974 91.2258 117.99C92.1413 123.439 92.599 126.958 92.599 128.547V128.717C92.599 131.215 91.7853 132.804 90.1578 133.485ZM80.0878 100.792C79.7827 99.0895 79.6301 96.9895 79.6301 94.4921C79.6301 84.2757 78.8164 71.2213 77.1889 55.329L75.6631 37.6205C71.2893 64.2968 68.2886 84.4459 66.6612 98.0679C68.1869 99.2031 72.6625 100.111 80.0878 100.792Z" fill="#E06E51"/>
<path d="M118.205 134.336C116.476 134.336 115.052 133.088 113.933 130.59C115.052 128.206 115.612 118.558 115.612 101.644C115.612 97.6706 115.357 93.357 114.849 88.7028L114.391 83.7648C114.086 80.6999 113.933 78.3728 113.933 76.7836V72.3565C112.916 69.5186 111.034 64.2401 108.288 56.521C105.643 48.8019 103.507 42.3314 101.88 37.1097C99.9473 31.0933 98.9809 27.0067 98.9809 24.8499V23.9986L102.49 21.1039C104.219 21.3309 106.05 23.8283 107.983 28.596C109.61 32.7961 111.39 38.8124 113.323 46.645C115.357 54.4777 116.375 58.621 116.375 59.0751C116.781 57.8264 117.595 53.5695 118.816 46.3045C120.036 39.0395 121.41 32.6258 122.935 27.0635C124.664 21.5012 126.445 18.7201 128.275 18.7201C129.293 18.7201 130.157 19.0606 130.869 19.7417C131.683 20.4228 132.09 21.2742 132.09 22.2958C132.09 28.0851 130.666 36.2583 127.818 46.8153C124.766 58.2805 123.24 66.5671 123.24 71.6754V122.928C123.24 130.534 121.562 134.336 118.205 134.336Z" fill="#E06E51"/>
<path d="M196.602 136.72C193.855 136.72 191.363 135.699 189.126 133.655C186.888 131.612 184.955 128.831 183.328 125.312C180.378 119.182 178.191 110.782 176.767 100.111C175.75 92.7326 174.987 84.2189 174.478 74.57L174.326 65.5455V56.3507C174.224 53.3993 174.173 49.8235 174.173 45.6234C174.173 38.8124 174.428 32.7961 174.936 27.5743C175.343 22.1255 176.36 16.7335 177.988 11.3983C179.615 6.7441 181.955 3.45213 185.006 1.52235C186.837 0.614222 188.668 0.160156 190.499 0.160156C195.89 0.160156 200.162 2.544 203.315 7.31168C206.774 12.6469 209.062 18.6065 210.181 25.1905C211.809 33.1366 212.724 40.7422 212.927 48.0072C213.334 56.0669 213.538 63.6725 213.538 70.824V80.5296C213.538 82.4594 213.283 86.0919 212.775 91.4272C212.368 95.6273 212.165 99.2031 212.165 102.154V102.836C211.554 106.014 211.249 109.76 211.249 114.074C211.249 117.252 210.639 120.544 209.418 123.95C208.198 127.355 206.468 130.25 204.231 132.634C201.993 135.358 199.45 136.72 196.602 136.72ZM196.907 127.355C198.941 127.355 200.671 125.255 202.095 121.055C203.315 117.309 204.18 112.768 204.688 107.433C205.299 101.984 205.807 95.8543 206.214 89.0434C206.418 86.0919 206.519 82.2891 206.519 77.635L206.367 61.9697C206.163 55.8399 205.553 48.1775 204.536 38.9827C203.722 31.1501 202.196 24.2256 199.958 18.2092C198.941 15.3713 197.67 13.1578 196.144 11.5685C194.618 9.97931 192.991 9.1847 191.262 9.1847C188.719 9.1847 186.837 11.3983 185.616 15.8254C184.091 20.4796 183.073 25.5878 182.565 31.1501C181.955 37.1664 181.599 42.899 181.497 48.3478L181.344 53.9668C181.243 55.5561 181.192 57.7129 181.192 60.4373V61.1184C181.192 68.7239 181.904 78.089 183.328 89.2136C184.955 104.311 187.346 115.039 190.499 121.395C192.533 125.369 194.669 127.355 196.907 127.355Z" fill="#E06E51"/>
<path d="M234.207 133.485C232.681 133.485 230.85 132.634 228.714 130.931C229.528 121.509 230.189 107.036 230.698 87.5109C231.206 67.1915 231.562 54.9885 231.766 50.9019V46.8153C232.173 35.6907 232.376 27.9716 232.376 23.658C232.376 22.0688 232.935 20.8201 234.054 19.912C235.275 19.0038 236.648 18.5498 238.174 18.5498C241.734 18.5498 245.548 18.8903 249.617 19.5714C252.262 20.0255 254.347 20.7634 255.873 21.785C257.5 22.8066 258.314 24.0553 258.314 25.531C258.314 28.7095 255.72 30.2987 250.533 30.2987C248.6 29.1635 245.955 28.596 242.599 28.596H240.768V30.6393C240.768 35.0664 240.564 40.6854 240.157 47.4964C239.649 53.8533 239.394 59.5859 239.394 64.6941V69.2915H242.141C247.125 69.2915 249.617 70.7672 249.617 73.7187C249.617 75.1944 249.058 76.3863 247.939 77.2944C246.922 78.2025 245.65 78.6566 244.124 78.6566C241.683 78.6566 239.7 78.3728 238.174 77.8052V125.993C238.174 130.988 236.852 133.485 234.207 133.485ZM271.893 133.485C270.367 133.485 268.536 132.634 266.4 130.931C267.214 121.509 267.875 107.036 268.384 87.5109C268.892 67.1915 269.248 54.9885 269.452 50.9019V46.8153C269.859 35.6907 270.062 27.9716 270.062 23.658C270.062 22.0688 270.622 20.8201 271.74 19.912C272.961 19.0038 274.334 18.5498 275.86 18.5498C279.42 18.5498 283.234 18.8903 287.303 19.5714C289.948 20.0255 292.033 20.7634 293.559 21.785C295.186 22.8066 296 24.0553 296 25.531C296 28.7095 293.406 30.2987 288.219 30.2987C286.286 29.1635 283.641 28.596 280.285 28.596H278.454V30.6393C278.454 35.0664 278.25 40.6854 277.844 47.4964C277.335 53.8533 277.081 59.5859 277.081 64.6941V69.2915H279.827C284.811 69.2915 287.303 70.7672 287.303 73.7187C287.303 75.1944 286.744 76.3863 285.625 77.2944C284.608 78.2025 283.336 78.6566 281.81 78.6566C279.369 78.6566 277.386 78.3728 275.86 77.8052V125.993C275.86 130.988 274.538 133.485 271.893 133.485Z" fill="#E06E51"/>
</svg>
