<svg width="888" height="411" viewBox="0 0 888 411" fill="none" xmlns="http://www.w3.org/2000/svg">
<g clip-path="url(#clip0_1105_2143)">
<path d="M29.7522 396.879C23.6492 396.879 18.3091 395.346 13.7318 392.283C9.45969 389.217 7.32363 384.96 7.32363 379.512C14.0369 372.018 17.3936 352.098 17.3936 319.746C17.3936 300.333 16.0204 272.068 13.2741 234.948C10.2226 199.531 8.69679 171.606 8.69679 151.173L9.61224 123.078C9.9174 114.904 10.07 105.539 10.07 94.9824C10.07 85.4469 8.54424 73.3575 5.49273 58.7139C1.83091 43.3893 0 32.6619 0 26.5321C0 14.6129 11.7483 8.65332 35.2449 8.65332H42.1107C58.5891 8.65332 72.9312 14.2724 85.137 25.5105C94.902 35.046 103.141 48.8382 109.854 66.8871C114.432 79.1469 118.399 96.1743 121.755 117.969C123.586 137.04 124.501 152.024 124.501 162.922V203.277C123.891 204.639 123.586 206.001 123.586 207.364C123.586 210.088 123.739 212.131 124.044 213.493C124.349 214.855 124.501 216.558 124.501 218.602C124.501 229.499 122.976 242.61 119.924 257.935C117.178 272.919 113.058 288.244 107.566 303.909C93.834 341.37 78.4239 367.932 61.3353 383.598C51.2655 392.451 40.7376 396.879 29.7522 396.879ZM39.3645 367.251C50.655 359.418 60.5724 348.18 69.1167 333.537C77.661 318.552 84.2217 302.037 88.7988 283.987C97.038 250.613 101.158 216.899 101.158 182.844C101.158 164.454 99.6318 144.362 96.5802 122.567C93.2235 101.453 86.0526 82.3821 75.0672 65.3547C69.8796 57.1815 63.3189 50.8815 55.3848 46.4544C47.451 41.6865 38.4489 39.3027 28.379 39.3027V39.8136C28.379 70.4628 30.21 116.777 33.8718 178.757C37.5336 240.397 39.3645 287.052 39.3645 318.723V367.251Z" fill="#E06E51"/>
<path d="M270.476 400.456C263.457 400.456 258.27 399.265 254.913 396.88C251.556 394.495 249.878 390.07 249.878 383.599C249.878 373.381 248.352 356.014 245.301 331.495L243.47 320.767L198.155 313.105C196.324 320.938 193.73 336.772 190.374 360.613C188.543 377.299 185.644 388.366 181.677 393.814C179.541 396.88 176.489 398.413 172.522 398.413C168.86 398.413 165.504 397.222 162.452 394.837C159.401 392.113 157.875 388.876 157.875 385.132L158.791 382.576L159.248 380.533C179.388 293.013 194.646 206.684 205.021 121.547C205.021 120.185 205.174 117.971 205.479 114.906C205.784 111.501 206.089 106.733 206.394 100.603C207.31 88.0027 208.225 77.9566 209.141 70.4644C210.361 62.9725 212.192 57.3535 214.633 53.6074H230.196C234.468 53.6074 238.13 54.7993 241.181 57.1831C244.233 59.2264 245.759 62.2915 245.759 66.3778C245.759 92.2597 248.963 130.742 255.371 181.824C261.474 234.268 264.525 271.048 264.525 292.162C264.525 294.205 265.288 299.484 266.814 307.996C268.34 315.829 269.103 320.938 269.103 323.323C269.103 325.705 270.629 335.923 273.68 353.971C276.426 370.318 277.799 380.875 277.799 385.642V386.152C277.799 393.646 275.358 398.413 270.476 400.456ZM240.266 302.377C239.351 297.27 238.893 290.97 238.893 283.478C238.893 252.828 236.452 213.665 231.569 165.988L226.992 112.863C213.87 192.892 204.868 253.339 199.986 294.205C204.563 297.611 217.99 300.334 240.266 302.377Z" fill="#E06E51"/>
<path d="M354.614 403.007C349.427 403.007 345.155 399.263 341.798 391.769C345.155 384.617 346.835 355.673 346.835 304.931C346.835 293.011 346.07 280.07 344.546 266.107L343.172 251.293C342.257 242.099 341.798 235.117 341.798 230.35V217.068C338.747 208.555 333.101 192.719 324.863 169.562C316.928 146.405 310.52 126.993 305.639 111.328C299.841 93.2788 296.941 81.019 296.941 74.5486V71.9947L307.469 63.3106C312.656 63.9916 318.149 71.4838 323.948 85.7869C328.829 98.3872 334.169 116.436 339.968 139.934C346.07 163.432 349.124 175.862 349.124 177.224C350.342 173.478 352.784 160.707 356.447 138.912C360.107 117.117 364.229 97.8763 368.804 81.1894C373.991 64.5025 379.334 56.1592 384.824 56.1592C387.878 56.1592 390.47 57.1807 392.606 59.224C395.048 61.2673 396.269 63.8215 396.269 66.8863C396.269 84.2542 391.997 108.774 383.453 140.445C374.297 174.84 369.719 199.7 369.719 215.025V368.783C369.719 391.601 364.685 403.007 354.614 403.007Z" fill="#E06E51"/>
<path d="M589.808 410.16C581.567 410.16 574.091 407.097 567.38 400.965C560.666 394.836 554.867 386.493 549.986 375.936C541.136 357.546 534.575 332.346 530.303 300.333C527.252 278.198 524.963 252.657 523.436 223.71L522.98 196.637V169.052C522.674 160.198 522.521 149.471 522.521 136.87C522.521 116.437 523.286 98.3883 524.81 82.7229C526.031 66.3765 529.082 50.2005 533.966 34.1949C538.847 20.2323 545.867 10.3564 555.02 4.56705C560.513 1.84267 566.006 0.480469 571.499 0.480469C587.672 0.480469 600.488 7.632 609.947 21.935C620.324 37.9407 627.188 55.8195 630.545 75.5715C635.429 99.4098 638.174 122.227 638.783 144.022C640.004 168.201 640.616 191.017 640.616 212.472V241.589C640.616 247.378 639.851 258.276 638.327 274.282C637.106 286.882 636.497 297.609 636.497 306.462V308.508C634.664 318.042 633.749 329.28 633.749 342.222C633.749 351.756 631.919 361.632 628.256 371.85C624.596 382.065 619.406 390.75 612.695 397.902C605.981 406.074 598.352 410.16 589.808 410.16ZM590.723 382.065C596.825 382.065 602.015 375.765 606.287 363.165C609.947 351.927 612.542 338.304 614.066 322.299C615.899 305.952 617.423 287.563 618.644 267.13C619.256 258.276 619.559 246.867 619.559 232.905L619.103 185.909C618.491 167.52 616.661 144.533 613.61 116.948C611.168 93.4503 606.59 72.6768 599.876 54.6276C596.825 46.1139 593.012 39.4734 588.434 34.7055C583.856 29.9379 578.975 27.5541 573.788 27.5541C566.159 27.5541 560.513 34.1949 556.85 47.4762C552.275 61.4388 549.221 76.7634 547.697 93.4503C545.867 111.499 544.799 128.697 544.493 145.043L544.034 161.9C543.731 166.668 543.578 173.139 543.578 181.312V183.355C543.578 206.172 545.714 234.267 549.986 267.641C554.867 312.933 562.04 345.117 571.499 364.185C577.601 376.107 584.009 382.065 590.723 382.065Z" fill="#E06E51"/>
<path d="M702.624 400.455C698.046 400.455 692.553 397.902 686.145 392.793C688.587 364.527 690.57 321.108 692.097 262.533C693.621 201.575 694.689 164.966 695.301 152.706V140.446C696.522 107.072 697.131 83.9148 697.131 70.974C697.131 66.2064 698.808 62.4603 702.165 59.736C705.828 57.0114 709.947 55.6494 714.525 55.6494C725.205 55.6494 736.647 56.6709 748.854 58.7142C756.789 60.0765 763.044 62.2902 767.622 65.355C772.503 68.4198 774.945 72.1659 774.945 76.593C774.945 86.1285 767.163 90.8961 751.602 90.8961C745.803 87.4905 737.868 85.788 727.8 85.788H722.307V91.9179C722.307 105.199 721.695 122.056 720.474 142.489C718.95 161.56 718.185 178.758 718.185 194.082V207.875H726.426C741.378 207.875 748.854 212.302 748.854 221.156C748.854 225.583 747.177 229.159 743.82 231.883C740.769 234.608 736.952 235.97 732.374 235.97C725.051 235.97 719.103 235.118 714.525 233.416V377.979C714.525 392.964 710.559 400.455 702.624 400.455ZM815.682 400.455C811.104 400.455 805.61 397.902 799.202 392.793C801.645 364.527 803.628 321.108 805.155 262.533C806.679 201.575 807.747 164.966 808.359 152.706V140.446C809.58 107.072 810.189 83.9148 810.189 70.974C810.189 66.2064 811.868 62.4603 815.222 59.736C818.885 57.0114 823.004 55.6494 827.582 55.6494C838.262 55.6494 849.705 56.6709 861.912 58.7142C869.847 60.0765 876.101 62.2902 880.679 65.355C885.56 68.4198 888.003 72.1659 888.003 76.593C888.003 86.1285 880.221 90.8961 864.66 90.8961C858.861 87.4905 850.926 85.788 840.858 85.788H835.365V91.9179C835.365 105.199 834.753 122.056 833.535 142.489C832.008 161.56 831.245 178.758 831.245 194.082V207.875H839.484C854.436 207.875 861.912 212.302 861.912 221.156C861.912 225.583 860.235 229.159 856.878 231.883C853.827 234.608 850.011 235.97 845.433 235.97C838.11 235.97 832.16 235.118 827.582 233.416V377.979C827.582 392.964 823.617 400.455 815.682 400.455Z" fill="#E06E51"/>
</g>
<defs>
<clipPath id="clip0_1105_2143">
<rect width="888" height="411" fill="white"/>
</clipPath>
</defs>
</svg>
