<svg width="296" height="137" viewBox="0 0 296 137" fill="none" xmlns="http://www.w3.org/2000/svg">
<path d="M34.1603 88.3197C36.9222 88.3197 38.5004 86.8011 37.7113 81.6125C35.8701 69.3371 37.7113 60.9847 41.1308 47.5704C42.4459 42.6349 38.895 37.3197 32.8452 36.4339C17.3262 34.2825 3.25384 54.4041 0.228951 72.8805C-0.691668 78.3222 1.14957 85.0294 6.0157 86.8011C10.3558 88.4463 14.4328 85.409 17.9838 81.9922C22.3238 77.816 26.7954 69.9699 28.5051 67.945L28.3736 75.285C28.3736 78.1957 28.3736 80.7267 29.1627 84.5232C29.6888 87.5604 31.53 88.3197 34.1603 88.3197ZM9.17211 77.5629C8.51453 77.5629 8.77756 74.0195 9.17211 72.3743C11.5394 62.7565 15.4849 54.5307 22.4553 48.4562C25.2172 46.0518 28.1106 44.9128 31.267 44.9128C32.0561 44.9128 32.7137 45.5455 32.0561 46.1783C26.5324 51.4934 13.2491 77.5629 9.17211 77.5629Z" fill="#186F81"/>
<path d="M74.3542 87.8135C77.2476 87.8135 78.5628 86.0418 78.5628 82.6249C78.5628 77.1832 79.8779 71.7416 81.4561 66.2999C83.6919 58.7068 86.8483 51.3669 90.1363 43.3942C91.7145 39.7242 93.0296 35.8011 89.3472 34.156C87.5059 33.2701 85.2701 33.7763 83.8235 35.4215C81.4561 38.0791 76.1955 46.9376 71.3293 55.0369C65.8056 64.022 57.3885 77.3098 53.5745 77.3098C51.7333 77.3098 57.3885 57.3148 60.1504 50.6076C61.2025 47.6969 64.885 40.4835 64.622 37.9525C64.3589 34.4091 60.0189 33.1436 57.7831 35.2949C54.6267 38.3322 49.8921 51.9996 47.6563 59.8458C44.7629 70.4761 42.001 82.2453 49.1029 86.1684C53.443 88.3197 57.9146 86.2949 61.9916 82.6249C64.3589 80.6001 66.2002 77.816 68.962 74.3991L70.9348 71.9947L70.5402 75.4115C70.0142 79.7143 69.4881 83.8904 70.9348 85.7887C71.8554 87.0542 73.0391 87.8135 74.3542 87.8135Z" fill="#186F81"/>
<path d="M95.5994 136.915C100.597 136.915 107.173 133.625 110.855 128.943C118.615 119.704 123.349 101.987 129.531 78.955C131.898 67.8185 134.002 61.9972 134.002 54.151C134.002 49.089 131.635 44.4066 127.69 41.6225C120.456 36.4339 110.198 39.7242 102.701 45.7987C92.5745 54.0245 83.6313 69.8433 85.4726 80.347C86.1301 84.1435 88.892 86.6746 93.1005 86.6746C100.202 86.6746 108.62 79.8408 114.932 72.1212C116.774 69.8433 118.746 67.1857 123.744 60.8582C124.796 59.4661 124.665 60.7316 124.139 62.7565C121.508 72.8805 120.062 80.8532 118.089 88.1932C117.563 90.218 116.642 91.3569 114.801 92.3693C100.597 100.215 82.4477 115.022 84.0259 127.297C84.815 133.498 89.155 136.915 95.5994 136.915ZM94.4157 77.6895C87.5768 74.3991 110.066 47.5704 119.272 47.5704C119.272 47.5704 122.034 47.5704 122.034 48.2031C122.034 49.5952 119.93 51.8731 117.563 54.7838C105.332 69.8433 97.4406 79.0815 94.4157 77.6895ZM95.8624 128.436C93.7581 128.436 92.969 127.677 92.8375 125.779C92.3114 120.717 108.751 103.253 113.486 103.253C110.198 112.997 108.357 117.3 105.595 121.476C103.227 125.146 99.0188 128.436 95.8624 128.436Z" fill="#186F81"/>
<path d="M167.02 87.8135C169.913 87.8135 171.228 86.0418 171.228 82.6249C171.228 77.1832 172.544 71.7416 174.122 66.2999C176.358 58.7068 179.514 51.3669 182.802 43.3942C184.38 39.7242 185.695 35.8011 182.013 34.156C180.172 33.2701 177.936 33.7763 176.489 35.4215C174.122 38.0791 168.861 46.9376 163.995 55.0369C158.471 64.022 150.054 77.3098 146.24 77.3098C144.399 77.3098 150.054 57.3148 152.816 50.6076C153.868 47.6969 157.551 40.4835 157.288 37.9525C157.025 34.4091 152.684 33.1436 150.449 35.2949C147.292 38.3322 142.558 51.9996 140.322 59.8458C137.428 70.4761 134.667 82.2453 141.769 86.1684C146.109 88.3197 150.58 86.2949 154.657 82.6249C157.025 80.6001 158.866 77.816 161.628 74.3991L163.6 71.9947L163.206 75.4115C162.68 79.7143 162.154 83.8904 163.6 85.7887C164.521 87.0542 165.705 87.8135 167.02 87.8135Z" fill="#186F81"/>
<path d="M194.578 87.4339C206.809 87.4339 215.884 80.9798 221.933 71.3619C226.668 63.7689 231.139 51.3669 231.139 44.1535C231.139 39.3446 230.087 35.1684 226.142 34.156C224.695 33.7763 222.985 33.9029 221.67 34.7887C220.75 35.4215 203.126 49.9748 203.126 49.9748C201.022 51.4934 198.786 52.6324 196.287 53.3917C187.607 55.9227 179.585 61.2378 176.691 68.5778C172.746 79.0815 181.295 87.4339 194.578 87.4339ZM216.015 51.4934C215.752 51.4934 215.489 51.3669 215.884 50.9872C218.119 48.8359 218.908 48.3297 220.618 46.6845C222.328 45.0393 222.065 45.9252 221.802 47.6969C221.144 52.5058 219.303 51.4934 216.015 51.4934ZM193.526 78.8284C187.87 79.0815 183.267 75.7912 185.109 71.2354C186.818 67.1857 191.947 63.6423 197.603 61.8706C202.206 60.352 217.593 59.0865 217.593 60.6051C217.593 61.6175 215.357 65.5406 214.437 66.9326C209.571 74.6522 202.863 78.3222 193.526 78.8284Z" fill="#186F81"/>
<path d="M242.473 93.1286C245.892 93.1286 248.654 89.7118 246.024 86.548C243.919 83.8904 243.656 80.8532 243.788 77.816C244.051 73.0071 244.708 67.8185 245.234 61.6175C245.366 60.0989 246.155 59.213 247.339 58.4537C251.416 55.9227 254.967 53.012 257.86 50.3545C264.567 44.1535 269.697 37.5729 273.642 30.486C274.563 28.8408 275.878 28.2081 277.851 28.2081C281.27 28.2081 284.69 28.0815 287.977 28.0815C293.238 28.0815 296 27.1957 296 23.7788C296 19.4761 290.871 19.7292 285.61 19.7292H280.218C279.034 19.7292 279.034 19.3495 279.166 18.5902C280.876 10.9972 281.533 9.35203 279.955 5.5555C278.245 1.25277 274.168 -0.645485 269.565 0.873128C263.384 2.89793 256.676 10.9972 251.81 18.4637C251.284 19.3495 250.627 19.8557 249.574 19.8557H230.505C226.428 19.8557 223.271 21.1212 223.534 24.4116C223.797 27.3222 226.559 28.4612 229.715 28.4612H243.393C246.681 28.4612 246.155 28.3346 245.103 30.9922C241.157 40.357 238.133 50.1014 236.554 60.9847C234.976 71.8681 233.924 81.8656 237.212 89.3321C238.001 91.1038 239.579 93.1286 242.473 93.1286ZM262.595 19.7292C261.937 19.7292 261.806 19.6026 262.069 19.0964C264.173 15.1734 267.198 12.0096 270.617 9.85823C271.012 9.60513 271.801 9.35203 271.801 10.491C271.801 13.2751 270.749 15.8061 269.697 18.7168C269.434 19.4761 268.908 19.7292 268.25 19.7292H262.595ZM248.654 46.8111C249.311 44.1535 253.388 33.7763 254.835 30.9922C255.756 29.094 256.808 28.3346 258.386 28.3346C262.463 28.2081 265.488 28.3346 263.515 30.6126C260.622 34.0294 255.756 42.0021 248.654 46.8111Z" fill="#186F81"/>
</svg>
