<svg width="888" height="411" viewBox="0 0 888 411" fill="none" xmlns="http://www.w3.org/2000/svg">
<path d="M102.481 264.96C110.767 264.96 115.501 260.404 113.134 244.838C107.61 208.012 113.134 182.955 123.392 142.712C127.338 127.905 116.685 111.96 98.5356 109.302C51.9786 102.848 9.76152 163.213 0.686854 218.642C-2.075 234.967 3.44871 255.089 18.0471 260.404C31.0674 265.339 43.2984 256.227 53.9514 245.977C66.9714 233.448 80.3862 209.91 85.5153 203.835L85.1208 225.855C85.1208 234.588 85.1208 242.181 87.4881 253.57C89.0664 262.682 94.59 264.96 102.481 264.96ZM27.5163 232.689C25.5436 232.689 26.3327 222.059 27.5163 217.123C34.6182 188.27 46.4547 163.593 67.3659 145.369C75.6516 138.156 84.3318 134.739 93.801 134.739C96.1683 134.739 98.1411 136.637 96.1683 138.535C79.5972 154.481 39.7473 232.689 27.5163 232.689Z" fill="#186F81"/>
<path d="M223.062 263.44C231.743 263.44 235.688 258.125 235.688 247.875C235.688 231.549 239.633 215.225 244.368 198.9C251.075 176.12 260.545 154.101 270.409 130.182C275.143 119.172 279.089 107.403 268.041 102.468C262.517 99.8102 255.81 101.329 251.47 106.264C244.368 114.237 228.586 140.813 213.988 165.111C197.417 192.066 172.165 231.929 160.723 231.929C155.2 231.929 172.165 171.944 180.451 151.823C183.607 143.091 194.655 121.45 193.866 113.857C193.076 103.227 180.056 99.4307 173.349 105.885C163.88 114.996 149.676 155.999 142.969 179.537C134.288 211.428 126.003 246.736 147.308 258.505C160.329 264.959 173.744 258.885 185.975 247.875C193.076 241.8 198.6 233.448 206.886 223.197L212.804 215.984L211.62 226.234C210.042 239.143 208.464 251.671 212.804 257.366C215.566 261.162 219.117 263.44 223.062 263.44Z" fill="#186F81"/>
<path d="M286.798 410.745C301.791 410.745 321.519 400.875 332.565 386.829C355.845 359.112 370.047 305.961 388.593 236.865C395.694 203.455 402.006 185.991 402.006 162.453C402.006 147.267 394.905 133.219 383.07 124.867C361.368 109.301 330.594 119.172 308.103 137.396C277.724 162.073 250.894 209.53 256.418 241.041C258.39 252.43 266.676 260.023 279.302 260.023C300.606 260.023 325.86 239.522 344.796 216.363C350.322 209.53 356.238 201.557 371.232 182.574C374.388 178.398 373.995 182.194 372.417 188.269C364.524 218.641 360.186 242.559 354.267 264.579C352.689 270.654 349.926 274.07 344.403 277.108C301.791 300.645 247.343 345.066 252.078 381.891C254.445 400.494 267.465 410.745 286.798 410.745ZM283.247 233.068C262.731 223.197 330.198 142.711 357.816 142.711C357.816 142.711 366.102 142.711 366.102 144.609C366.102 148.785 359.79 155.619 352.689 164.351C315.996 209.53 292.322 237.244 283.247 233.068ZM287.587 385.308C281.274 385.308 278.907 383.031 278.513 377.337C276.934 362.151 326.253 309.759 340.458 309.759C330.594 338.991 325.071 351.9 316.785 364.428C309.681 375.438 297.057 385.308 287.587 385.308Z" fill="#186F81"/>
<path d="M501.06 263.44C509.739 263.44 513.684 258.125 513.684 247.875C513.684 231.549 517.632 215.225 522.366 198.9C529.074 176.12 538.542 154.101 548.406 130.182C553.14 119.172 557.085 107.403 546.039 102.468C540.516 99.8102 533.808 101.329 529.467 106.264C522.366 114.237 506.583 140.813 491.985 165.111C475.413 192.066 450.162 231.929 438.72 231.929C433.197 231.929 450.162 171.944 458.448 151.823C461.604 143.091 472.653 121.45 471.864 113.857C471.075 103.227 458.052 99.4307 451.347 105.885C441.876 114.996 427.674 155.999 420.966 179.537C412.284 211.428 404.001 246.736 425.307 258.505C438.327 264.959 451.74 258.885 463.971 247.875C471.075 241.8 476.598 233.448 484.884 223.197L490.8 215.984L489.618 226.234C488.04 239.143 486.462 251.671 490.8 257.366C493.563 261.162 497.115 263.44 501.06 263.44Z" fill="#186F81"/>
<path d="M583.734 262.301C620.427 262.301 647.652 242.939 665.799 214.085C680.004 191.306 693.417 154.1 693.417 132.46C693.417 118.034 690.261 105.505 678.426 102.468C674.085 101.329 668.955 101.708 665.01 104.366C662.25 106.264 609.378 149.924 609.378 149.924C603.066 154.48 596.358 157.897 588.861 160.175C562.821 167.768 538.755 183.713 530.073 205.733C518.238 237.244 543.885 262.301 583.734 262.301ZM648.045 154.48C647.256 154.48 646.467 154.1 647.652 152.961C654.357 146.507 656.724 144.989 661.854 140.053C666.984 135.118 666.195 137.775 665.406 143.09C663.432 157.517 657.909 154.48 648.045 154.48ZM580.578 236.485C563.61 237.244 549.801 227.373 555.327 213.706C560.454 201.557 575.841 190.927 592.809 185.612C606.618 181.056 652.779 177.259 652.779 181.815C652.779 184.852 646.071 196.622 643.311 200.798C628.713 223.956 608.589 234.966 580.578 236.485Z" fill="#186F81"/>
<path d="M727.419 279.387C737.676 279.387 745.962 269.136 738.072 259.645C731.757 251.672 730.968 242.56 731.364 233.449C732.153 219.022 734.124 203.456 735.702 184.853C736.098 180.297 738.465 177.64 742.017 175.362C754.248 167.769 764.901 159.037 773.58 151.064C793.701 132.461 809.091 112.719 820.926 91.4587C823.689 86.5231 827.634 84.625 833.553 84.625C843.81 84.625 854.07 84.2452 863.931 84.2452C879.714 84.2452 888 81.5878 888 71.3371C888 58.429 872.613 59.1883 856.83 59.1883H840.654C837.102 59.1883 837.102 58.0492 837.498 55.7713C842.628 32.9923 844.599 28.0568 839.865 16.6672C834.735 3.75904 822.504 -1.93572 808.695 2.62012C790.152 8.69452 770.028 32.9923 755.43 55.3918C753.852 58.0492 751.881 59.5678 748.722 59.5678H691.515C679.284 59.5678 669.813 63.3643 670.602 73.2355C671.391 81.9673 679.677 85.3843 689.145 85.3843H730.179C740.043 85.3843 738.465 85.0045 735.309 92.9773C723.471 121.072 714.399 150.305 709.662 182.955C704.928 215.605 701.772 245.598 711.636 267.997C714.003 273.312 718.737 279.387 727.419 279.387ZM787.785 59.1883C785.811 59.1883 785.418 58.8085 786.207 57.2899C792.519 45.5209 801.594 36.0295 811.851 29.5754C813.036 28.8161 815.403 28.0568 815.403 31.4737C815.403 39.826 812.247 47.419 809.091 56.1511C808.302 58.429 806.724 59.1883 804.75 59.1883H787.785ZM745.962 140.434C747.933 132.461 760.164 101.33 764.505 92.9773C767.268 87.2827 770.424 85.0045 775.158 85.0045C787.389 84.625 796.464 85.0045 790.545 91.8385C781.866 102.089 767.268 126.007 745.962 140.434Z" fill="#186F81"/>
</svg>
