<svg width="600" height="903" viewBox="0 0 600 903" fill="none" xmlns="http://www.w3.org/2000/svg">
<path d="M572.308 1.09277H27.6923C12.3983 1.09277 0 13.491 0 28.7851V873.4C0 888.695 12.3983 901.093 27.6923 901.093H572.308C587.602 901.093 600 888.695 600 873.4V28.7851C600 13.491 587.602 1.09277 572.308 1.09277Z" fill="#BABFFC"/>
<path d="M572.308 1.09277H27.6923C12.3983 1.09277 0 13.491 0 28.7851V873.4C0 888.695 12.3983 901.093 27.6923 901.093H572.308C587.602 901.093 600 888.695 600 873.4V28.7851C600 13.491 587.602 1.09277 572.308 1.09277Z" fill="black" fill-opacity="0.04"/>
<path d="M558.459 144.223H41.5376C33.8905 144.223 27.6914 150.422 27.6914 158.069V222.684C27.6914 230.331 33.8905 236.53 41.5376 236.53H558.459C566.106 236.53 572.305 230.331 572.305 222.684V158.069C572.305 150.422 566.106 144.223 558.459 144.223Z" fill="white" fill-opacity="0.2"/>
<path d="M58.9554 208.487C58.5816 208.279 58.2909 207.905 58.2078 207.407C58.1661 207.033 58.1661 206.659 58.1247 206.243C58.0416 204.914 57.9999 203.543 57.9585 202.214C57.9171 200.345 57.8754 198.517 57.8754 196.648C57.834 194.613 57.834 192.577 57.834 190.542C57.7923 188.631 57.7923 186.72 57.834 184.81C57.834 183.314 57.8754 181.86 57.9171 180.407C57.9171 180.033 57.9585 179.659 57.9999 179.243C58.2909 175.007 58.4985 174.259 59.5371 173.76C60.6171 173.22 61.7799 173.927 62.4861 175.505C62.9847 176.543 64.8123 182.608 65.4771 185.35C67.263 192.91 68.5923 198.019 68.7999 198.019C69.1323 198.019 71.2509 191.123 73.6599 182.068C74.7399 178.08 75.7371 175.131 76.2354 174.383C76.6923 173.719 77.3985 173.262 77.9385 173.262C78.7692 173.262 79.6416 173.968 80.0154 174.965C80.6385 176.71 80.7216 178.62 80.5971 194.073C80.5971 196.69 80.5554 199.307 80.5554 201.923C80.514 203.294 80.514 204.707 80.514 206.077C80.514 206.493 80.5554 206.95 80.514 207.323C80.3478 208.86 78.1461 209.027 77.4399 207.822C77.2323 207.407 77.2323 206.576 77.2323 194.654C77.2323 183.522 77.2323 182.027 77.0661 182.608C73.0371 196.939 72.6216 198.268 71.7492 199.847C70.2954 202.463 68.2185 203.17 66.8061 201.508C65.6847 200.262 65.1447 198.476 62.154 186.18C61.4061 183.107 61.3647 182.94 61.2816 183.522C61.1154 184.477 61.1154 191.747 61.2816 199.93C61.4892 208.237 61.4892 207.947 60.5754 208.528C60.0354 208.86 59.4123 208.777 58.9554 208.487Z" fill="white"/>
<path d="M558.459 250.327H41.5376C33.8905 250.327 27.6914 256.526 27.6914 264.173V328.789C27.6914 336.436 33.8905 342.635 41.5376 342.635H558.459C566.106 342.635 572.305 336.436 572.305 328.789V264.173C572.305 256.526 566.106 250.327 558.459 250.327Z" fill="white" fill-opacity="0.2"/>
<path d="M64.7705 317.202C64.3967 317.034 64.0643 316.701 63.9395 316.287C63.7736 315.873 63.8567 315.291 63.815 314.832C63.815 312.756 63.8567 310.68 63.8567 308.601C63.8981 306.111 63.9395 303.618 63.9812 301.083C64.1057 292.818 64.2305 285.839 64.2719 285.549L64.355 285.05L63.1918 285.134C60.1594 285.299 56.0473 285.299 55.5904 285.134C55.0087 284.967 54.4688 284.219 54.4688 283.638C54.4688 282.849 54.9257 282.309 55.8812 282.018C56.4212 281.894 74.3656 281.561 75.3211 281.686C76.2766 281.852 77.3149 282.599 77.1073 283.721C76.9411 284.677 76.1105 284.884 75.2795 284.967C74.1581 285.05 72.9949 285.009 71.8735 285.05L67.6781 285.134L67.595 287.294C67.5536 288.498 67.4288 295.477 67.3457 302.745C67.2212 312.963 67.138 316.122 66.9718 316.452C66.598 317.367 65.5595 317.574 64.7705 317.202Z" fill="white"/>
<path d="M558.459 356.514H41.5376C33.8905 356.514 27.6914 362.713 27.6914 370.36V434.976C27.6914 442.623 33.8905 448.822 41.5376 448.822H558.459C566.106 448.822 572.305 442.623 572.305 434.976V370.36C572.305 362.713 566.106 356.514 558.459 356.514Z" fill="white" fill-opacity="0.2"/>
<path d="M78.8945 421.316C77.1083 420.818 75.5297 419.321 74.4083 417.203C73.2035 414.794 72.0404 411.68 71.2928 408.731C70.9604 407.441 70.8359 407.027 70.7528 407.276C70.7114 407.483 70.5035 408.563 70.2545 409.685C69.6728 412.511 69.0914 414.254 67.8866 416.663C66.3083 419.861 65.1035 420.941 63.2345 420.941C59.7452 420.983 58.3328 416.789 57.8345 413.963C56.1728 405.242 56.6714 396.56 58.2914 387.338C58.499 386.342 59.1635 385.178 60.4514 385.469C61.5314 385.718 61.9883 386.672 61.6145 387.92C60.6176 391.034 59.3714 403.412 60.7004 411.638C60.9497 413.132 61.3652 414.671 61.9052 416.081C62.1128 416.54 62.3204 417.038 62.7776 417.245C64.8128 418.367 66.6404 410.432 66.9314 409.187C67.6376 405.947 68.0528 402.665 68.5097 399.425C69.0914 395.147 69.2159 394.772 70.0052 394.442C70.9604 394.025 71.8745 394.358 72.2897 395.273C72.4976 395.687 72.7466 397.016 73.1204 399.758C74.0345 406.154 74.699 409.022 76.1945 412.841C76.859 414.587 78.3545 418.907 80.9714 417.869C82.8404 417.122 83.879 412.301 84.0452 403.373C84.1283 398.513 84.0035 396.269 83.339 391.7C83.0483 389.912 82.8821 388.292 82.9235 388.043C82.9652 387.836 83.1728 387.461 83.4221 387.254C83.7545 386.921 83.9621 386.84 84.5021 386.84C85.0421 386.84 85.2497 386.921 85.5821 387.212C85.7897 387.461 86.039 387.794 86.1221 387.962C86.3714 388.625 87.2021 394.982 87.4097 397.514C87.4928 399.053 87.5345 401.252 87.4514 403.454C87.2021 414.962 85.7066 419.696 82.0514 421.109C81.0959 421.481 79.8083 421.565 78.8945 421.316Z" fill="white"/>
<path d="M558.459 462.651H41.5376C33.8905 462.651 27.6914 468.85 27.6914 476.497V541.112C27.6914 548.759 33.8905 554.959 41.5376 554.959H558.459C566.106 554.959 572.305 548.759 572.305 541.112V476.497C572.305 468.85 566.106 462.651 558.459 462.651Z" fill="white" fill-opacity="0.2"/>
<path d="M64.7705 527.248C64.3967 527.08 64.0643 526.75 63.9395 526.333C63.7736 525.919 63.8567 525.337 63.815 524.881C63.815 522.802 63.8567 520.726 63.8567 518.65C63.8981 516.157 63.9395 513.664 63.9812 511.129C64.1057 502.864 64.2305 495.886 64.2719 495.595L64.355 495.097L63.1918 495.181C60.1594 495.346 56.0473 495.346 55.5904 495.181C55.0087 495.013 54.4688 494.266 54.4688 493.684C54.4688 492.895 54.9257 492.355 55.8812 492.064C56.4212 491.938 74.3656 491.608 75.3211 491.731C76.2766 491.899 77.3149 492.646 77.1073 493.768C76.9411 494.722 76.1105 494.929 75.2795 495.013C74.1581 495.097 72.9949 495.055 71.8735 495.097L67.6781 495.181L67.595 497.338C67.5536 498.544 67.4288 505.522 67.3457 512.791C67.2212 523.009 67.138 526.168 66.9718 526.501C66.598 527.413 65.5595 527.62 64.7705 527.248Z" fill="white"/>
<path d="M558.459 568.84H41.5376C33.8905 568.84 27.6914 575.039 27.6914 582.686V647.301C27.6914 654.948 33.8905 661.147 41.5376 661.147H558.459C566.106 661.147 572.305 654.948 572.305 647.301V582.686C572.305 575.039 566.106 568.84 558.459 568.84Z" fill="white" fill-opacity="0.2"/>
<path d="M58.8724 632.853C58.54 632.562 58.3741 632.274 58.2493 631.734C57.7924 629.655 57.8341 610.881 58.291 602.904C58.4986 599.25 58.5817 599.001 59.5372 598.503C60.0772 598.212 60.2848 598.212 66.8479 598.17C71.6248 598.128 73.7431 598.17 73.9924 598.293C75.1972 598.794 75.4462 600.162 74.5324 601.077C74.2831 601.326 73.9093 601.452 73.5355 601.452L70.4617 601.494C68.4262 601.533 65.6848 601.575 64.3141 601.617L61.8217 601.743L61.7386 602.157C61.6555 602.613 61.4062 608.97 61.4062 610.299V611.13H65.7262C69.3817 611.13 70.0879 611.172 70.5031 611.337C71.7079 611.919 71.7493 613.497 70.5862 614.244C70.2541 614.454 69.7555 614.493 65.8093 614.535L61.3648 614.577L61.3231 615.324C61.1572 616.446 61.3648 628.992 61.531 630.57C61.6555 631.734 61.6555 631.983 61.4479 632.355C60.991 633.354 59.7031 633.603 58.8724 632.853Z" fill="white"/>
<path d="M558.459 674.941H41.5376C33.8905 674.941 27.6914 681.141 27.6914 688.788V753.403C27.6914 761.05 33.8905 767.249 41.5376 767.249H558.459C566.106 767.249 572.305 761.05 572.305 753.403V688.788C572.305 681.141 566.106 674.941 558.459 674.941Z" fill="white" fill-opacity="0.2"/>
<path d="M60.6175 739.372C58.9144 738.997 57.9589 738.58 57.6265 738.001C56.9203 736.879 57.6682 735.55 58.9558 735.55C59.1634 735.55 59.662 735.673 60.0775 735.799C61.3234 736.255 62.6944 736.42 64.0234 736.339C66.8065 736.171 67.9696 734.8 67.2634 732.475C66.9313 731.437 65.8927 730.066 64.0234 728.239C60.4096 724.75 58.7482 723.004 58.042 721.966C55.4251 718.144 55.1344 714.199 57.1696 709.921C59.4544 705.226 65.8096 702.028 70.3789 705.766C71.7496 706.888 73.0789 708.841 73.0789 709.795C73.0789 710.752 72.3727 711.499 71.4175 711.499C70.7113 711.499 70.2544 711.124 69.7558 710.212C69.2158 709.171 68.2189 708.133 67.4296 707.8C64.4389 706.432 61.822 708.55 60.4513 711.082C59.2465 713.242 58.7482 715.942 59.7451 718.312C60.7834 720.802 63.1927 722.671 65.062 724.54C68.8003 728.281 69.7144 729.361 70.3375 731.02C71.1682 733.306 70.9603 735.424 69.7558 737.17C69.1327 738.04 68.0113 738.79 66.7234 739.204C65.1451 739.702 62.4865 739.786 60.6175 739.372Z" fill="white"/>
<path d="M558.459 781.134H41.5376C33.8905 781.134 27.6914 787.333 27.6914 794.98V859.595C27.6914 867.242 33.8905 873.441 41.5376 873.441H558.459C566.106 873.441 572.305 867.242 572.305 859.595V794.98C572.305 787.333 566.106 781.134 558.459 781.134Z" fill="white" fill-opacity="0.2"/>
<path d="M60.6175 845.5C58.9144 845.128 57.9589 844.711 57.6265 844.132C56.9203 843.01 57.6682 841.681 58.9558 841.681C59.1634 841.681 59.662 841.804 60.0775 841.93C61.3234 842.386 62.6944 842.551 64.0234 842.47C66.8065 842.302 67.9696 840.931 67.2634 838.606C66.9313 837.568 65.8927 836.197 64.0234 834.37C60.4096 830.881 58.7482 829.135 58.042 828.097C55.4251 824.275 55.1344 820.33 57.1696 816.052C59.4544 811.357 65.8096 808.159 70.3789 811.897C71.7496 813.019 73.0789 814.972 73.0789 815.926C73.0789 816.88 72.3727 817.63 71.4175 817.63C70.7113 817.63 70.2544 817.255 69.7558 816.34C69.2158 815.302 68.2189 814.264 67.4296 813.931C64.4389 812.56 61.822 814.681 60.4513 817.213C59.2465 819.373 58.7482 822.073 59.7451 824.44C60.7834 826.933 63.1927 828.802 65.062 830.671C68.8003 834.412 69.7144 835.492 70.3375 837.151C71.1682 839.437 70.9603 841.555 69.7558 843.301C69.1327 844.171 68.0113 844.921 66.7234 845.335C65.1451 845.833 62.4865 845.917 60.6175 845.5Z" fill="white"/>
<path d="M205.537 85.7536C205.039 85.4767 204.651 84.9781 204.54 84.3136C204.485 83.815 204.485 83.3167 204.429 82.7629C204.319 80.9905 204.263 79.1629 204.208 77.3905C204.152 74.8981 204.097 72.4612 204.097 69.9688C204.042 67.255 204.042 64.5412 204.042 61.8274C203.986 59.2798 203.986 56.7319 204.042 54.1843C204.042 52.1905 204.097 50.2519 204.152 48.3136C204.152 47.815 204.208 47.3167 204.263 46.7629C204.651 41.1136 204.928 40.1167 206.312 39.4519C207.752 38.7319 209.303 39.6736 210.245 41.7781C210.909 43.1629 213.346 51.2488 214.232 54.9043C216.614 64.9843 218.386 71.7967 218.663 71.7967C219.106 71.7967 221.931 62.6029 225.143 50.5288C226.583 45.2119 227.912 41.2798 228.577 40.2829C229.186 39.3967 230.128 38.7874 230.848 38.7874C231.955 38.7874 233.119 39.7288 233.617 41.0581C234.448 43.3843 234.559 45.9319 234.392 66.535C234.392 70.0243 234.337 73.5136 234.337 77.0029C234.282 78.8305 234.282 80.7136 234.282 82.5412C234.282 83.095 234.337 83.7043 234.282 84.2029C234.06 86.2519 231.125 86.4736 230.183 84.8674C229.906 84.3136 229.906 83.2057 229.906 67.3105C229.906 52.4674 229.906 50.4736 229.685 51.2488C224.312 70.3567 223.759 72.1288 222.595 74.2336C220.657 77.7229 217.888 78.6643 216.005 76.4488C214.509 74.7874 213.789 72.4057 209.802 56.0119C208.805 51.9136 208.749 51.6919 208.639 52.4674C208.417 53.7412 208.417 63.4336 208.639 74.3443C208.915 85.4212 208.915 85.0336 207.697 85.8088C206.977 86.2519 206.146 86.1412 205.537 85.7536ZM258.744 78.2212C259.52 78.6088 259.963 79.3288 259.963 80.215C259.963 81.1567 259.575 81.7657 258.412 82.8181C255.864 85.1443 251.323 86.2519 248.387 85.255C245.729 84.3136 243.569 82.4305 242.129 79.9936C239.304 75.2305 239.249 68.8057 240.689 63.5443C241.963 58.6705 244.067 55.2367 247.335 52.7998C247.667 52.5781 248 52.3567 248.332 52.135C251.434 50.4181 255.31 50.8057 256.972 54.1843C258.357 56.9536 257.858 60.4429 256.584 63.2119C254.923 66.9781 250.215 69.9688 245.95 69.9688H244.4V70.0243C244.4 71.1874 244.455 72.3505 244.621 73.5136C244.677 73.9012 244.787 74.2888 244.843 74.6767C245.452 77.1136 246.726 79.4398 248.997 80.6029C251.267 81.7657 254.147 80.7136 255.864 79.0519C256.972 77.9998 257.747 77.7781 258.744 78.2212ZM246.449 60.8857C245.563 62.7688 244.898 64.8736 245.064 65.3167C245.452 66.2581 247.889 65.1505 248.443 64.8736C251.544 63.5998 254.147 60.1105 253.206 56.6212C252.929 55.6798 252.43 55.4029 251.434 55.6798C249.772 56.1229 247.723 58.2274 246.449 60.8857ZM283.366 71.2429C283.532 82.4305 283.477 83.5936 283.2 84.1474C282.424 85.6429 280.264 85.5874 279.378 84.0919C279.101 83.6488 279.046 82.9288 278.935 79.4398L278.88 75.3412L277.883 77.335C275.944 81.1567 273.95 83.5381 271.624 84.5905C264.978 87.7474 262.209 79.7719 261.71 74.7319C261.157 68.5843 263.095 60.7198 266.307 56.3998C268.8 53.0212 271.015 51.6919 274.172 51.6919C276.055 51.6919 277.384 52.0798 279.046 53.1874C281.926 55.0705 283.255 58.3381 283.31 61.6612C283.31 63.0457 283.31 64.4305 283.31 65.815C283.366 67.5874 283.366 69.415 283.366 71.2429ZM276.055 70.0243C277.827 65.2612 278.713 62.2705 278.713 60.9412C278.713 57.5074 275.058 55.0705 272.344 56.6767C268.744 58.7812 265.92 66.535 266.197 73.4029C266.252 74.8981 266.584 80.4367 268.744 80.6581C269.187 80.7136 269.686 80.5474 270.073 80.2705C273.286 78.2767 274.837 73.3474 276.055 70.0243ZM291.102 84.8119C290.714 84.5905 290.382 84.2581 290.216 83.7598C289.883 82.1536 289.994 80.4367 289.994 78.8305C289.939 74.2888 289.994 69.8029 289.994 65.2612C289.994 64.5967 289.994 63.9319 289.994 63.2674C289.994 40.6705 290.105 35.2429 290.493 34.5229C290.991 33.5812 292.376 33.1936 293.483 33.7474C293.76 33.8581 294.093 34.3012 294.314 34.6888C294.591 35.3536 294.646 36.5167 294.536 59.335C294.48 64.4857 294.48 69.6367 294.425 74.7874C294.425 77.1688 294.425 79.6057 294.259 81.9874C294.203 82.6519 294.259 83.7043 293.871 84.2581C293.317 85.0336 292.043 85.1998 291.102 84.8119ZM332.645 50.7505C333.92 55.735 333.308 61.1074 330.263 65.3167C327.383 69.3598 322.841 71.4643 318.134 72.5719L316.805 72.9043V76.5598C316.805 78.6088 316.916 81.1567 317.027 82.3198C317.192 84.5905 317.081 85.0888 316.139 85.8088C315.641 86.1967 314.48 86.3074 313.76 85.975C312.872 85.5319 312.65 84.8674 312.428 81.2674C312.041 75.2305 312.596 46.5412 313.148 42.4981C313.37 41.2243 314.036 39.8398 314.81 39.3412C315.476 38.8981 319.907 38.9536 321.569 39.3967C326.996 40.8919 331.148 45.1567 332.645 50.7505ZM328.547 58.0612C329.6 52.4119 326.885 45.8767 321.125 43.9936C320.294 43.6612 319.352 43.495 318.689 43.495H317.579L317.468 45.2119C317.081 51.3598 316.694 68.3074 316.97 68.3074C317.081 68.3074 317.801 68.0857 318.578 67.8643C320.738 67.1443 322.898 66.2029 324.668 64.7629C326.774 63.0457 328.049 60.6643 328.547 58.0612ZM339.131 84.8119C338.744 84.5905 338.411 84.2581 338.243 83.7598C337.913 82.1536 338.024 80.4367 338.024 78.8305C337.967 74.2888 338.024 69.8029 338.024 65.2612C338.024 64.5967 338.024 63.9319 338.024 63.2674C338.024 40.6705 338.132 35.2429 338.522 34.5229C339.02 33.5812 340.403 33.1936 341.513 33.7474C341.789 33.8581 342.122 34.3012 342.344 34.6888C342.62 35.3536 342.674 36.5167 342.563 59.335C342.509 64.4857 342.509 69.6367 342.452 74.7874C342.452 77.1688 342.452 79.6057 342.287 81.9874C342.233 82.6519 342.287 83.7043 341.9 84.2581C341.345 85.0336 340.073 85.1998 339.131 84.8119ZM369.308 71.2429C369.476 82.4305 369.419 83.5936 369.143 84.1474C368.366 85.6429 366.206 85.5874 365.321 84.0919C365.045 83.6488 364.988 82.9288 364.877 79.4398L364.823 75.3412L363.827 77.335C361.886 81.1567 359.894 83.5381 357.566 84.5905C350.921 87.7474 348.152 79.7719 347.654 74.7319C347.099 68.5843 349.037 60.7198 352.25 56.3998C354.743 53.0212 356.957 51.6919 360.116 51.6919C361.997 51.6919 363.326 52.0798 364.988 53.1874C367.868 55.0705 369.197 58.3381 369.254 61.6612C369.254 63.0457 369.254 64.4305 369.254 65.815C369.308 67.5874 369.308 69.415 369.308 71.2429ZM361.997 70.0243C363.77 65.2612 364.658 62.2705 364.658 60.9412C364.658 57.5074 361.001 55.0705 358.286 56.6767C354.686 58.7812 351.863 66.535 352.139 73.4029C352.196 74.8981 352.526 80.4367 354.686 80.6581C355.13 80.7136 355.628 80.5474 356.018 80.2705C359.228 78.2767 360.779 73.3474 361.997 70.0243ZM376.88 85.0888C376.16 84.9229 375.827 84.6457 375.44 83.9257C375.161 83.3167 375.161 79.1074 375.605 62.3812C375.827 53.7967 375.827 53.6305 376.88 52.9657C378.098 52.2457 379.538 52.7443 380.09 54.0181C380.312 54.5719 380.369 55.0705 380.258 56.2336L380.147 57.7843L381.032 56.6212C382.805 54.2398 385.463 52.2457 388.4 51.5812C392.774 50.5843 396.041 54.0736 397.316 57.8398C398.369 61.0519 398.258 64.4857 398.312 67.8088C398.423 74.3998 398.036 82.8181 397.538 83.9257C397.259 84.6457 396.32 85.255 395.543 85.255C394.769 85.255 393.827 84.6457 393.551 83.8705C393.329 83.3719 393.329 82.8181 393.44 80.6581C393.716 76.8367 394.049 72.9598 394.049 69.0829C394.049 65.5936 394.103 61.1074 392.498 57.895C390.836 54.5719 387.734 56.1229 385.685 58.1719C383.636 60.2212 382.031 63.7105 380.645 69.3043C380.09 71.6305 379.814 75.2857 379.76 80.4919C379.76 81.7657 379.703 83.095 379.592 83.4274C379.259 84.6457 378.098 85.3105 376.88 85.0888Z" fill="white"/>
</svg>
