<svg width="888" height="489" viewBox="0 0 888 489" fill="none" xmlns="http://www.w3.org/2000/svg">
<path d="M118.574 486.324C113.137 486.324 108.955 484.233 106.027 480.051C103.517 476.286 102.263 471.477 102.263 465.621C102.263 378.207 100.59 304.386 97.2435 244.157C87.2055 242.484 80.0952 241.648 75.9129 241.648C58.7643 241.648 46.4259 243.112 38.8974 246.039C38.8974 269.461 40.7796 304.803 44.544 352.065C47.8899 402.258 49.563 437.808 49.563 458.721C49.563 462.903 48.3081 466.878 45.7986 470.64C43.2891 473.988 40.1523 475.659 36.3879 475.659C30.9507 475.659 25.9316 466.041 21.3309 446.799C14.6388 418.359 9.20154 358.758 5.01903 267.997C2.09126 206.515 0.627378 140.431 0.627378 69.7461C0.209126 56.7804 0 38.3772 0 14.5368C0 7.00827 3.55515 3.24399 10.6654 3.24399C14.848 3.24399 19.0305 4.28964 23.213 6.38088C27.8138 8.47215 31.1598 10.7726 33.2511 13.2821C31.578 26.6661 30.7416 42.3507 30.7416 60.3354C30.7416 77.9019 31.578 99.2328 33.2511 124.328C34.5057 153.188 35.1333 174.937 35.1333 189.575V200.868C34.7148 204.214 34.5057 208.188 34.5057 212.788C34.5057 216.971 34.9242 222.408 35.7606 229.1C38.2701 229.1 42.4527 228.891 48.3081 228.473C54.1638 228.055 60.0192 227.427 65.8746 226.591C79.677 225.336 89.9241 224.708 96.6162 224.708C96.6162 188.321 96.198 154.651 95.3616 123.701L94.1067 18.9285V1.98926C99.5439 1.98926 104.354 3.03489 108.536 5.12616C112.719 6.79917 115.856 9.09954 117.947 12.0273C121.711 16.6281 124.012 24.5749 124.848 35.8677V50.2974C124.848 86.2671 126.94 155.069 131.122 256.705C134.886 348.72 136.768 417.732 136.768 463.74C136.768 469.596 134.886 474.822 131.122 479.424C127.776 484.026 123.593 486.324 118.574 486.324Z" fill="#A11275"/>
<path d="M245.355 485.07C239.918 485.07 234.899 483.189 230.298 479.424C226.116 475.659 223.815 471.06 223.397 465.621V436.761C222.979 432.999 222.77 428.607 222.77 423.588C222.77 414.804 222.142 401.421 220.887 383.436L219.633 343.284C219.633 322.788 220.26 292.256 221.515 251.686C223.188 215.298 224.024 184.765 224.024 160.089C224.024 154.233 223.397 145.449 222.142 133.739C220.887 121.609 220.26 112.826 220.26 107.389C220.26 77.6926 229.044 62.8447 246.61 62.8447C260.412 62.8447 276.306 65.5633 294.291 71.0008C312.694 76.438 321.895 82.921 321.895 90.4495C321.895 94.6318 320.014 98.6053 316.249 102.37C312.904 105.716 308.719 108.434 303.7 110.526C286.135 104.252 270.241 100.069 256.021 97.978C256.439 104.252 256.648 113.244 256.648 124.955C256.648 141.685 256.439 156.742 256.021 170.127C254.766 190.203 254.139 205.26 254.139 215.298L256.021 225.336L266.059 224.708C269.405 224.29 273.587 224.081 278.606 224.081C298.682 224.081 308.719 229.937 308.719 241.647C308.719 246.248 306.838 250.222 303.073 253.568C299.31 256.496 294.5 257.959 288.644 257.959C281.116 257.959 275.26 257.541 271.078 256.705H255.393C256.23 267.579 256.648 283.473 256.648 304.386C256.648 325.299 256.439 344.121 256.021 360.849C254.766 386.364 254.139 405.393 254.139 417.942C254.139 441.363 254.557 453.075 255.393 453.075L276.097 452.448C283.207 452.028 291.781 451.818 301.819 451.818C317.713 451.818 325.66 456.837 325.66 466.878C325.66 472.731 322.942 477.123 317.503 480.051C312.484 483.396 306.211 485.07 298.682 485.07H245.355Z" fill="#A11275"/>
<path d="M491.399 486.954C476.342 481.935 457.73 479.424 435.56 479.424C428.87 483.607 421.76 485.698 414.23 485.698C409.211 485.698 404.819 483.397 401.054 478.797C397.709 474.616 396.035 470.014 396.035 464.995C396.035 429.862 397.499 383.017 400.427 324.463C402.938 262.143 404.192 215.508 404.192 184.557V180.165C401.684 153.815 400.427 134.158 400.427 121.192C400.427 81.4577 407.747 61.5908 422.387 61.5908C426.569 61.5908 430.124 63.2636 433.052 66.6098C436.397 69.5375 438.071 73.0925 438.071 77.2751C438.071 82.2941 437.444 90.2411 436.19 101.116C434.933 111.572 434.306 119.519 434.306 124.956C434.306 152.979 434.516 178.283 434.933 200.869C435.353 223.036 435.56 248.131 435.56 276.154C433.469 282.428 432.425 291.211 432.425 302.503V310.033L431.171 359.596C430.334 374.236 429.914 390.964 429.914 409.786C429.914 438.646 436.817 453.076 450.617 453.076C451.454 453.076 452.711 453.076 454.382 453.076C456.473 452.655 459.191 452.448 462.539 452.448C466.304 452.028 471.113 451.819 476.969 451.819C499.553 451.819 510.848 458.095 510.848 470.641C510.848 474.823 508.964 478.378 505.199 481.305C501.437 484.233 496.835 486.117 491.399 486.954Z" fill="#A11275"/>
<path d="M659.27 486.954C644.213 481.935 625.601 479.424 603.434 479.424C596.741 483.607 589.631 485.698 582.104 485.698C577.085 485.698 572.693 483.397 568.928 478.797C565.583 474.616 563.909 470.014 563.909 464.995C563.909 429.862 565.373 383.017 568.301 324.463C570.809 262.143 572.066 215.508 572.066 184.557V180.165C569.555 153.815 568.301 134.158 568.301 121.192C568.301 81.4577 575.621 61.5908 590.258 61.5908C594.44 61.5908 597.998 63.2636 600.923 66.6098C604.271 69.5375 605.942 73.0925 605.942 77.2751C605.942 82.2941 605.315 90.2411 604.061 101.116C602.807 111.572 602.18 119.519 602.18 124.956C602.18 152.979 602.387 178.283 602.807 200.869C603.224 223.036 603.434 248.131 603.434 276.154C601.343 282.428 600.296 291.211 600.296 302.503V310.033L599.042 359.596C598.205 374.236 597.788 390.964 597.788 409.786C597.788 438.646 604.688 453.076 618.491 453.076C619.328 453.076 620.582 453.076 622.256 453.076C624.347 452.655 627.065 452.448 630.41 452.448C634.175 452.028 638.984 451.819 644.84 451.819C667.427 451.819 678.719 458.095 678.719 470.641C678.719 474.823 676.838 478.378 673.073 481.305C669.308 484.233 664.709 486.117 659.27 486.954Z" fill="#A11275"/>
<path d="M803.931 488.835C793.056 488.835 783.018 485.28 773.817 478.17C764.616 471.477 757.086 462.276 751.233 450.564C739.101 425.052 731.574 397.239 728.646 367.122C724.881 338.682 723 311.286 723 284.937C723 279.918 723.21 275.736 723.627 272.39V261.097C723.627 259.006 723.417 257.96 723 257.96V246.667L723.627 202.751C724.044 189.367 725.718 168.036 728.646 138.758C730.737 118.682 735.546 99.2332 743.076 80.4118C746.004 72.0469 749.769 65.773 754.368 61.5907C758.97 56.9899 764.196 54.6895 770.052 54.6895C786.783 54.6895 801.84 57.8263 815.223 64.1002C828.609 69.9556 839.901 78.3208 849.102 89.1952C857.466 99.6514 864.579 112.617 870.432 128.093C876.288 143.15 880.47 159.252 882.981 176.401C885.489 193.967 886.746 212.579 886.746 232.238V237.257C886.746 250.222 886.953 261.933 887.373 272.39L888 308.151C888 428.607 859.977 488.835 803.931 488.835ZM801.423 462.486C808.95 462.486 815.85 459.558 822.126 453.702C828.399 447.429 833.208 439.062 836.556 428.607C844.503 407.277 849.312 384.273 850.986 359.595C853.077 338.265 854.121 319.86 854.121 304.386C854.121 285.565 852.657 260.888 849.729 230.355C847.221 198.15 845.967 174.1 845.967 158.207V146.914C845.13 131.02 839.691 117.218 829.653 105.507C820.035 93.796 808.113 87.9406 793.893 87.9406C779.673 87.9406 770.262 96.0964 765.66 112.408C761.478 125.374 759.387 142.104 759.387 162.599C759.387 170.545 759.597 177.237 760.014 182.675V199.614L758.76 228.473C757.923 237.257 757.506 246.876 757.506 257.333C757.506 279.918 758.133 302.295 759.387 324.462C761.061 355.83 765.243 386.364 771.936 416.058C778.626 447.009 788.457 462.486 801.423 462.486Z" fill="#A11275"/>
</svg>
