<svg width="296" height="163" viewBox="0 0 296 163" fill="none" xmlns="http://www.w3.org/2000/svg">
<path d="M39.5248 162.108C37.7124 162.108 36.3182 161.411 35.3423 160.017C34.5058 158.762 34.0876 157.159 34.0876 155.207C34.0876 126.069 33.5299 101.462 32.4145 81.3858C29.0685 80.8281 26.6984 80.5492 25.3043 80.5492C19.5881 80.5492 15.4753 81.0372 12.9658 82.0131C12.9658 89.8205 13.5932 101.601 14.848 117.355C15.9633 134.086 16.521 145.936 16.521 152.907C16.521 154.301 16.1027 155.626 15.2662 156.88C14.4297 157.996 13.3841 158.553 12.1293 158.553C10.3169 158.553 8.64388 155.347 7.11029 148.933C4.87961 139.453 3.06718 119.586 1.67301 89.3325C0.697087 68.8382 0.209126 46.8102 0.209126 23.2487C0.0697086 18.9268 0 12.7924 0 4.8456C0 2.33609 1.18505 1.08133 3.55514 1.08133C4.94932 1.08133 6.34349 1.42988 7.73766 2.12696C9.27126 2.82405 10.3866 3.59085 11.0837 4.42736C10.526 8.88871 10.2472 14.1169 10.2472 20.1118C10.2472 25.9673 10.526 33.0776 11.0837 41.4427C11.5019 51.0625 11.7111 58.3122 11.7111 63.1918V66.9561C11.5716 68.0714 11.5019 69.3959 11.5019 70.9294C11.5019 72.3236 11.6414 74.136 11.9202 76.3667C12.7567 76.3667 14.1509 76.297 16.1027 76.1576C18.0546 76.0182 20.0064 75.8091 21.9582 75.5302C26.559 75.112 29.9747 74.9028 32.2054 74.9028C32.2054 62.7735 32.066 51.5504 31.7872 41.2335L31.3689 6.30949V0.663086C33.1813 0.663086 34.7846 1.01163 36.1788 1.70872C37.573 2.26639 38.6186 3.03318 39.3157 4.0091C40.5705 5.54269 41.3373 8.19163 41.6161 11.9559V16.7658C41.6161 28.7557 42.3132 51.6898 43.7074 85.5683C44.9621 116.24 45.5895 139.244 45.5895 154.58C45.5895 156.532 44.9621 158.274 43.7074 159.808C42.592 161.342 41.1978 162.108 39.5248 162.108Z" fill="#A11275"/>
<path d="M81.7846 161.69C79.9722 161.69 78.2992 161.063 76.7656 159.808C75.3714 158.553 74.6046 157.02 74.4652 155.207V145.587C74.3258 144.333 74.2561 142.869 74.2561 141.196C74.2561 138.268 74.047 133.807 73.6287 127.812L73.2105 114.428C73.2105 107.596 73.4196 97.4187 73.8378 83.8953C74.3955 71.7659 74.6743 61.5885 74.6743 53.3629C74.6743 51.411 74.4652 48.4832 74.047 44.5796C73.6287 40.5365 73.4196 37.6087 73.4196 35.7963C73.4196 25.8976 76.3474 20.9483 82.2029 20.9483C86.8037 20.9483 92.1015 21.8545 98.0965 23.667C104.231 25.4794 107.298 27.6404 107.298 30.1499C107.298 31.544 106.671 32.8685 105.416 34.1233C104.301 35.2386 102.906 36.1448 101.233 36.8419C95.3778 34.7506 90.08 33.3565 85.3398 32.6594C85.4792 34.7506 85.5489 37.7481 85.5489 41.6518C85.5489 47.2285 85.4792 52.2475 85.3398 56.7089C84.9215 63.4009 84.7124 68.4199 84.7124 71.7659L85.3398 75.112L88.6858 74.9028C89.8011 74.7634 91.1953 74.6937 92.8683 74.6937C99.5603 74.6937 102.906 76.6456 102.906 80.5492C102.906 82.0828 102.279 83.4073 101.024 84.5226C99.7695 85.4986 98.1662 85.9865 96.2143 85.9865C93.7048 85.9865 91.753 85.8471 90.3588 85.5683H85.1306C85.4095 89.1931 85.5489 94.491 85.5489 101.462C85.5489 108.433 85.4792 114.707 85.3398 120.283C84.9215 128.788 84.7124 135.131 84.7124 139.314C84.7124 147.121 84.8518 151.025 85.1306 151.025L92.0318 150.816C94.4019 150.676 97.26 150.606 100.606 150.606C105.904 150.606 108.553 152.279 108.553 155.626C108.553 157.577 107.647 159.041 105.834 160.017C104.161 161.132 102.07 161.69 99.5603 161.69H81.7846Z" fill="#A11275"/>
<path d="M163.8 162.318C158.781 160.645 152.577 159.808 145.187 159.808C142.957 161.202 140.587 161.899 138.077 161.899C136.404 161.899 134.94 161.132 133.685 159.599C132.57 158.205 132.012 156.671 132.012 154.998C132.012 143.287 132.5 127.672 133.476 108.154C134.313 87.3807 134.731 71.8357 134.731 61.5188V60.0549C133.895 51.2716 133.476 44.719 133.476 40.397C133.476 27.1524 135.916 20.5301 140.796 20.5301C142.19 20.5301 143.375 21.0877 144.351 22.2031C145.466 23.179 146.024 24.364 146.024 25.7582C146.024 27.4312 145.815 30.0802 145.397 33.705C144.978 37.1904 144.769 39.8394 144.769 41.6518C144.769 50.9928 144.839 59.4275 144.978 66.9561C145.118 74.3452 145.187 82.7102 145.187 92.0512C144.49 94.1424 144.142 97.0702 144.142 100.834V103.344L143.724 119.865C143.445 124.745 143.305 130.321 143.305 136.595C143.305 146.215 145.606 151.025 150.206 151.025C150.485 151.025 150.904 151.025 151.461 151.025C152.158 150.885 153.064 150.816 154.18 150.816C155.435 150.676 157.038 150.606 158.99 150.606C166.518 150.606 170.283 152.698 170.283 156.88C170.283 158.274 169.655 159.459 168.4 160.435C167.146 161.411 165.612 162.039 163.8 162.318Z" fill="#A11275"/>
<path d="M219.757 162.318C214.738 160.645 208.534 159.808 201.145 159.808C198.914 161.202 196.544 161.899 194.035 161.899C192.362 161.899 190.898 161.132 189.643 159.599C188.528 158.205 187.97 156.671 187.97 154.998C187.97 143.287 188.458 127.672 189.434 108.154C190.27 87.3807 190.689 71.8357 190.689 61.5188V60.0549C189.852 51.2716 189.434 44.719 189.434 40.397C189.434 27.1524 191.874 20.5301 196.753 20.5301C198.147 20.5301 199.333 21.0877 200.308 22.2031C201.424 23.179 201.981 24.364 201.981 25.7582C201.981 27.4312 201.772 30.0802 201.354 33.705C200.936 37.1904 200.727 39.8394 200.727 41.6518C200.727 50.9928 200.796 59.4275 200.936 66.9561C201.075 74.3452 201.145 82.7102 201.145 92.0512C200.448 94.1424 200.099 97.0702 200.099 100.834V103.344L199.681 119.865C199.402 124.745 199.263 130.321 199.263 136.595C199.263 146.215 201.563 151.025 206.164 151.025C206.443 151.025 206.861 151.025 207.419 151.025C208.116 150.885 209.022 150.816 210.137 150.816C211.392 150.676 212.995 150.606 214.947 150.606C222.476 150.606 226.24 152.698 226.24 156.88C226.24 158.274 225.613 159.459 224.358 160.435C223.103 161.411 221.57 162.039 219.757 162.318Z" fill="#A11275"/>
<path d="M267.977 162.945C264.352 162.945 261.006 161.76 257.939 159.39C254.872 157.159 252.362 154.092 250.411 150.188C246.367 141.684 243.858 132.413 242.882 122.374C241.627 112.894 241 103.762 241 94.9789C241 93.3059 241.07 91.9118 241.209 90.7964V87.0322C241.209 86.3351 241.139 85.9865 241 85.9865V82.2223L241.209 67.5834C241.348 63.1221 241.906 56.0118 242.882 46.2526C243.579 39.5605 245.182 33.0776 247.692 26.8038C248.668 24.0155 249.923 21.9242 251.456 20.5301C252.99 18.9965 254.732 18.2297 256.684 18.2297C262.261 18.2297 267.28 19.2753 271.741 21.3666C276.203 23.3184 279.967 26.1068 283.034 29.7316C285.822 33.217 288.193 37.539 290.144 42.6974C292.096 47.7164 293.49 53.084 294.327 58.8001C295.163 64.6557 295.582 70.8597 295.582 77.4124V79.0854C295.582 83.4073 295.651 87.311 295.791 90.7964L296 102.717C296 142.869 286.659 162.945 267.977 162.945ZM267.141 154.162C269.65 154.162 271.95 153.186 274.042 151.234C276.133 149.143 277.736 146.354 278.852 142.869C281.501 135.759 283.104 128.091 283.662 119.865C284.359 112.755 284.707 106.62 284.707 101.462C284.707 95.1881 284.219 86.9624 283.243 76.785C282.407 66.0498 281.989 58.0333 281.989 52.7355V48.9712C281.71 43.6733 279.897 39.0726 276.551 35.1689C273.345 31.2652 269.371 29.3134 264.631 29.3134C259.891 29.3134 256.754 32.032 255.22 37.4693C253.826 41.7912 253.129 47.3679 253.129 54.1994C253.129 56.8483 253.199 59.079 253.338 60.8914V66.5378L252.92 76.1576C252.641 79.0854 252.502 82.292 252.502 85.7774C252.502 93.3059 252.711 100.765 253.129 108.154C253.687 118.61 255.081 128.788 257.312 138.686C259.542 149.003 262.819 154.162 267.141 154.162Z" fill="#A11275"/>
</svg>
