<svg width="600" height="795" viewBox="0 0 600 795" fill="none" xmlns="http://www.w3.org/2000/svg">
<path d="M557.547 2.5166H42.4527C19.0067 2.5166 0 21.5233 0 44.9693V752.517C0 775.963 19.0067 794.97 42.4527 794.97H557.547C580.993 794.97 600 775.963 600 752.517V44.9693C600 21.5233 580.993 2.5166 557.547 2.5166Z" fill="#BABFFC"/>
<path d="M557.547 2.5166H42.4527C19.0067 2.5166 0 21.5233 0 44.9693V752.517C0 775.963 19.0067 794.97 42.4527 794.97H557.547C580.993 794.97 600 775.963 600 752.517V44.9693C600 21.5233 580.993 2.5166 557.547 2.5166Z" fill="black" fill-opacity="0.05"/>
<path d="M30.4219 130.705H569.573" stroke="white" stroke-opacity="0.5" stroke-width="4.24527" stroke-linecap="round"/>
<path d="M151.987 94.2462C151.704 94.1331 151.308 93.7368 151.138 93.3972C150.799 92.8311 150.799 91.4727 150.855 70.1898C150.912 45.7935 150.855 46.9254 151.874 46.1898C152.44 45.8499 153.799 45.8499 154.365 46.2462C155.327 46.869 155.383 47.0388 155.383 56.5482V65.3217C155.383 65.3217 171.742 64.8123 171.799 64.6425C171.912 64.5294 171.968 60.6801 171.968 56.0388C171.968 46.9254 171.968 46.869 172.931 46.1898C173.157 46.0197 173.723 45.9066 174.233 45.9066C175.308 45.9066 176.157 46.6425 176.327 47.6046C176.383 47.9445 176.44 58.3596 176.383 70.7556L176.327 92.3217C176.327 92.9445 176.101 93.5103 175.648 93.9066C175.138 94.416 174.799 94.5858 174.289 94.5858C173.383 94.5858 172.591 94.1331 172.195 93.3972C171.912 92.8311 171.855 91.869 171.799 81.1143L171.742 69.3972L167.157 69.5103C161.95 69.567 157.365 69.7368 156.176 69.9066L155.383 69.9633L155.327 81.6237L155.27 92.3217C155.27 92.9445 155.044 93.5103 154.591 93.9066C153.799 94.6425 152.893 94.7556 151.987 94.2462ZM204.445 78.7368C204.615 90.1707 204.558 91.3596 204.275 91.9254C203.483 93.4539 201.275 93.3972 200.369 91.869C200.086 91.416 200.03 90.6801 199.917 87.1143L199.86 82.9254L198.841 84.9633C196.86 88.869 194.822 91.3029 192.445 92.3784C185.653 95.6046 182.822 87.4539 182.313 82.3029C181.747 76.0197 183.728 67.9821 187.011 63.567C189.558 60.1143 191.822 58.7556 195.049 58.7556C196.973 58.7556 198.332 59.1519 200.03 60.2841C202.973 62.2086 204.332 65.5482 204.388 68.9445C204.388 70.3596 204.388 71.7747 204.388 73.1898C204.445 75.0009 204.445 76.869 204.445 78.7368ZM196.973 77.4915C198.784 72.6237 199.69 69.567 199.69 68.2086C199.69 64.6992 195.954 62.2086 193.181 63.8499C189.502 66.0009 186.615 73.9254 186.898 80.9445C186.954 82.4727 187.294 88.1331 189.502 88.3596C189.954 88.416 190.464 88.2462 190.86 87.9633C194.143 85.9254 195.728 80.8878 196.973 77.4915ZM234.653 67.416C235.502 70.869 235.502 74.6613 235.276 78.1707C235.049 82.2462 233.804 86.718 231.144 89.8878C229.502 91.869 226.955 93.2841 224.351 93.2274C221.691 93.1143 219.427 91.6992 217.446 90.0576L215.861 88.7556V89.718C215.861 90.2274 215.691 90.9066 215.578 91.1898C214.785 92.718 212.408 92.6613 211.615 91.1331C211.049 90.1143 210.936 83.718 210.88 62.3784C210.88 42.9066 210.88 42.2274 211.276 41.5482C212.068 39.8499 214.049 39.6237 215.182 41.0952C215.521 41.6046 215.521 41.718 215.464 53.6046C215.464 60.1707 215.464 65.5482 215.521 65.4915C215.578 65.4348 216.031 64.7556 216.54 63.9633C218.464 61.0764 221.521 58.869 224.182 58.3596C229.729 57.3405 233.464 62.718 234.653 67.416ZM230.804 75.2841C230.748 71.718 230.068 60.5103 223.955 63.2841C220.219 65.0388 216.653 72.1143 215.917 79.4727C215.804 80.6613 215.804 80.7747 216.483 81.7935C217.842 83.9445 219.144 85.4727 220.502 86.6046C222.823 88.4727 224.464 88.9821 225.936 88.3596C228.37 87.3405 229.502 84.1707 230.068 81.8499C230.578 79.6992 230.804 77.4915 230.804 75.2841ZM241.919 93.1707C241.466 92.9445 241.014 92.6046 240.9 92.0952C240.787 91.8123 240.73 91.416 240.73 91.0764C240.617 89.6613 240.674 88.1898 240.674 86.718C240.787 76.4727 241.127 62.2086 241.297 60.9066C241.466 59.7747 241.523 59.5482 242.146 58.9821C243.165 58.0197 244.693 58.2462 245.485 59.4348C245.825 60.0009 245.881 62.0952 245.655 65.6613C245.599 66.5103 245.485 72.6801 245.429 79.3029C245.372 82.4727 245.372 85.6992 245.202 88.869C245.202 89.9445 245.259 91.2462 244.863 92.265C244.523 93.1143 243.334 93.4539 242.485 93.3405C242.315 93.2841 242.089 93.2274 241.919 93.1707ZM242.599 54.3972C242.542 54.3405 242.429 54.2841 242.315 54.2274C240.957 53.3217 241.07 51.3405 242.429 50.4348C243.051 50.0388 244.127 50.0952 244.75 50.4348C245.315 50.7747 245.655 51.3405 245.768 51.9633C245.995 53.3784 245.089 54.6237 243.617 54.6237C243.278 54.6237 242.938 54.567 242.599 54.3972ZM258.164 92.6613C257.767 92.4348 257.428 92.0952 257.314 91.5858C256.975 90.3972 257.088 89.0388 257.032 87.7935C256.975 84.3972 256.975 80.9445 256.975 77.5482L256.918 63.9633H253.975C252.277 63.9633 249.503 64.3029 249.164 62.0388C249.05 61.2462 249.334 60.5103 249.899 60.0009C250.862 59.0952 252.73 59.3217 253.975 59.3217H256.805V53.4915C256.805 51.9066 256.805 50.265 256.862 48.6237C256.918 48.0009 256.918 47.2086 257.314 46.6992C257.711 46.0764 258.56 45.7368 259.296 45.7935C261.73 45.9633 261.447 48.7935 261.447 50.4915C261.503 51.5103 261.503 52.4727 261.503 53.4915V59.3217L264.503 59.3784C265.749 59.3784 267.447 59.0952 268.296 60.3405C268.862 61.1898 268.749 62.6046 267.899 63.2274C266.994 63.9066 265.409 63.7368 264.39 63.7935L261.56 63.9066V77.7747C261.56 81.1143 261.616 84.4539 261.56 87.7935C261.56 89.0388 261.616 90.5103 261.334 91.7556C260.994 93.1143 259.239 93.3405 258.164 92.6613ZM291.805 94.0197C291.295 93.7935 290.842 93.3405 290.672 92.7747C290.446 92.2086 290.559 91.416 290.503 90.7935C290.503 87.9633 290.559 85.1331 290.559 82.3029C290.616 78.9066 290.672 75.5103 290.729 72.0576C290.899 60.7935 291.069 51.2841 291.125 50.8878L291.238 50.2086L289.654 50.3217C285.521 50.5482 279.918 50.5482 279.295 50.3217C278.503 50.0952 277.767 49.0764 277.767 48.2841C277.767 47.2086 278.389 46.4727 279.691 46.0764C280.427 45.9066 304.881 45.4539 306.183 45.6237C307.482 45.8499 308.898 46.869 308.616 48.3972C308.388 49.6992 307.257 49.9821 306.126 50.0952C304.596 50.2086 303.012 50.1519 301.482 50.2086L295.767 50.3217L295.654 53.265C295.597 54.9066 295.427 64.416 295.314 74.3217C295.144 88.2462 295.031 92.5482 294.805 93.0009C294.295 94.2462 292.88 94.5294 291.805 94.0197ZM308.634 92.7747C308.067 92.4915 307.671 91.8123 307.446 90.9066C307.389 90.567 307.446 88.3596 307.56 85.9821C307.671 83.5482 307.785 76.869 307.899 71.0388C308.067 59.6613 308.067 59.6046 309.087 58.8123C310.218 57.9633 311.691 58.1898 312.369 59.3784C312.711 59.9445 312.768 60.1707 312.654 63.0576C312.597 65.6046 312.597 66.0576 312.822 65.7747C314.577 63.2274 315.483 62.0388 316.617 60.9633C318.483 59.265 321.03 58.1331 323.634 58.1898C324.936 58.1898 326.181 58.4727 327.315 59.0952C328.332 59.6613 329.634 60.4539 329.805 61.6992C329.862 62.0388 329.862 62.3784 329.748 62.718C329.409 63.6237 328.785 64.1898 327.822 64.3029C327.144 64.3596 326.862 64.3029 325.899 63.6237C323.748 62.1519 320.973 63.0009 319.332 64.8123C317.748 66.567 316.56 68.4915 315.654 70.6992C315.483 71.1519 315.315 71.6613 315.087 72.1143C313.164 77.4348 312.201 82.416 312.201 87.7368C312.201 91.1331 312.03 91.9254 311.238 92.6046C310.617 93.1143 309.426 93.2274 308.634 92.7747ZM354.081 78.7368C354.249 90.1707 354.192 91.3596 353.91 91.9254C353.118 93.4539 350.91 93.3972 350.004 91.869C349.722 91.416 349.665 90.6801 349.551 87.1143L349.494 82.9254L348.477 84.9633C346.494 88.869 344.457 91.3029 342.081 92.3784C335.286 95.6046 332.457 87.4539 331.947 82.3029C331.383 76.0197 333.363 67.9821 336.645 63.567C339.192 60.1143 341.457 58.7556 344.685 58.7556C346.608 58.7556 347.967 59.1519 349.665 60.2841C352.608 62.2086 353.967 65.5482 354.024 68.9445C354.024 70.3596 354.024 71.7747 354.024 73.1898C354.081 75.0009 354.081 76.869 354.081 78.7368ZM346.608 77.4915C348.42 72.6237 349.326 69.567 349.326 68.2086C349.326 64.6992 345.588 62.2086 342.816 63.8499C339.135 66.0009 336.249 73.9254 336.534 80.9445C336.588 82.4727 336.93 88.1331 339.135 88.3596C339.588 88.416 340.098 88.2462 340.494 87.9633C343.779 85.9254 345.363 80.8878 346.608 77.4915ZM367.815 93.0009C365.214 92.3784 362.892 90.7935 361.365 88.5294C358.476 84.1707 357.966 78.6237 358.872 73.5294C359.61 69.4539 361.194 65.1519 363.966 61.9254C365.664 59.9445 368.043 58.5294 370.704 58.3029C373.476 58.1331 376.137 59.3784 378.006 61.3596C379.137 62.5482 380.778 64.6425 379.251 66.1707C378.345 67.0197 377.043 66.4539 376.08 65.6613C375.174 64.8123 374.268 63.8499 373.137 63.2274C371.496 62.3784 369.402 63.0009 368.043 64.2462C363.57 68.265 362.835 75.9633 363.798 81.4539C364.365 84.8499 366.402 88.8123 370.365 88.869C372.117 88.869 373.023 88.4727 374.721 86.9445C376.08 85.6992 376.761 85.4727 377.721 85.869C379.137 86.4348 379.59 88.0197 378.684 89.3784C378.063 90.2841 376.023 91.869 374.61 92.4915C372.459 93.4539 370.023 93.6237 367.815 93.0009ZM385.323 92.6613C384.588 92.3217 384.021 91.6425 383.85 90.7935C383.34 87.4539 383.907 50.6613 384.588 43.6992C384.813 41.3217 384.87 40.9821 385.323 40.416C386.001 39.5103 387.078 39.2274 387.984 39.6801C388.38 39.9066 388.833 40.3029 389.058 40.6425C389.397 41.265 389.397 41.3784 389.058 45.2841C388.776 48.9633 388.437 61.5294 388.437 68.718C388.437 71.1519 388.437 71.4915 388.662 71.265C389.286 70.6425 392.907 65.3784 394.719 62.5482C395.793 60.9066 396.87 59.3217 397.209 59.0388C398.739 57.7368 400.887 58.6992 400.887 60.7368C400.887 61.3029 400.491 62.0388 398.85 64.6992C397.662 66.5103 396.021 68.9445 395.172 70.1898C394.323 71.3784 393.642 72.4539 393.642 72.567C393.642 72.9633 394.152 73.6425 394.38 74.0388C394.944 75.1143 395.511 76.1331 396.135 77.2086C397.437 79.5858 398.739 81.9066 400.152 84.2274C400.944 85.5858 401.85 86.8878 402.642 88.2462C403.038 88.869 403.38 89.4348 403.38 90.1707C403.437 91.6992 402.021 92.7747 400.548 92.3217C399.588 92.0388 399.078 91.0764 398.568 90.2841C396.474 87.3405 394.662 84.1143 392.907 80.9445C391.662 78.6237 390.531 76.6992 390.474 76.5858C390.417 76.5294 389.85 77.0388 389.286 77.7747L388.152 79.1331L388.38 85.0197C388.437 86.6046 388.491 88.2462 388.437 89.8878C388.437 91.0197 388.323 92.2086 387.078 92.718C386.511 92.9445 385.887 92.8878 385.323 92.6613ZM423.939 85.869C424.731 86.265 425.184 87.0009 425.184 87.9066C425.184 88.869 424.788 89.4915 423.597 90.567C420.993 92.9445 416.352 94.0764 413.352 93.0576C410.637 92.0952 408.429 90.1707 406.956 87.6801C404.07 82.8123 404.013 76.2462 405.486 70.869C406.788 65.8878 408.939 62.3784 412.278 59.8878C412.617 59.6613 412.956 59.4348 413.295 59.2086C416.466 57.4539 420.429 57.8499 422.127 61.3029C423.54 64.1331 423.033 67.6992 421.731 70.5294C420.033 74.3784 415.221 77.4348 410.862 77.4348H409.278V77.4915C409.278 78.6801 409.335 79.869 409.503 81.0576C409.56 81.4539 409.674 81.8499 409.731 82.2462C410.352 84.7368 411.654 87.1143 413.976 88.3029C416.295 89.4915 419.241 88.416 420.993 86.718C422.127 85.6425 422.919 85.416 423.939 85.869ZM411.372 68.1519C410.466 70.0764 409.788 72.2274 409.956 72.6801C410.352 73.6425 412.842 72.5103 413.409 72.2274C416.58 70.9254 419.241 67.3596 418.278 63.7935C417.993 62.8311 417.486 62.5482 416.466 62.8311C414.768 63.2841 412.674 65.4348 411.372 68.1519ZM429.912 92.7747C429.345 92.4915 428.949 91.8123 428.724 90.9066C428.667 90.567 428.724 88.3596 428.838 85.9821C428.949 83.5482 429.063 76.869 429.177 71.0388C429.345 59.6613 429.345 59.6046 430.365 58.8123C431.496 57.9633 432.969 58.1898 433.647 59.3784C433.989 59.9445 434.046 60.1707 433.932 63.0576C433.875 65.6046 433.875 66.0576 434.1 65.7747C435.855 63.2274 436.761 62.0388 437.895 60.9633C439.761 59.265 442.308 58.1331 444.912 58.1898C446.214 58.1898 447.459 58.4727 448.593 59.0952C449.61 59.6613 450.912 60.4539 451.083 61.6992C451.14 62.0388 451.14 62.3784 451.026 62.718C450.687 63.6237 450.063 64.1898 449.1 64.3029C448.422 64.3596 448.14 64.3029 447.177 63.6237C445.026 62.1519 442.251 63.0009 440.61 64.8123C439.026 66.567 437.838 68.4915 436.932 70.6992C436.761 71.1519 436.593 71.6613 436.365 72.1143C434.442 77.4348 433.479 82.416 433.479 87.7368C433.479 91.1331 433.308 91.9254 432.516 92.6046C431.895 93.1143 430.704 93.2274 429.912 92.7747Z" fill="white"/>
<path d="M549.06 183.454H50.9475C47.8213 183.454 45.2871 185.988 45.2871 189.114V262.699C45.2871 265.826 47.8213 268.36 50.9475 268.36H549.06C552.186 268.36 554.72 265.826 554.72 262.699V189.114C554.72 185.988 552.186 183.454 549.06 183.454Z" fill="white" fill-opacity="0.4"/>
<path d="M73.589 336.283C89.2197 336.283 101.891 323.612 101.891 307.982C101.891 292.351 89.2197 279.68 73.589 279.68C57.9583 279.68 45.2871 292.351 45.2871 307.982C45.2871 323.612 57.9583 336.283 73.589 336.283Z" fill="white" fill-opacity="0.4"/>
<path d="M149.061 336.283C164.691 336.283 177.363 323.612 177.363 307.982C177.363 292.351 164.691 279.68 149.061 279.68C133.43 279.68 120.759 292.351 120.759 307.982C120.759 323.612 133.43 336.283 149.061 336.283Z" fill="white" fill-opacity="0.4"/>
<path d="M224.532 336.283C240.163 336.283 252.834 323.612 252.834 307.982C252.834 292.351 240.163 279.68 224.532 279.68C208.902 279.68 196.23 292.351 196.23 307.982C196.23 323.612 208.902 336.283 224.532 336.283Z" fill="white" fill-opacity="0.4"/>
<path d="M300.004 336.283C315.635 336.283 328.306 323.612 328.306 307.982C328.306 292.351 315.635 279.68 300.004 279.68C284.373 279.68 271.702 292.351 271.702 307.982C271.702 323.612 284.373 336.283 300.004 336.283Z" fill="white" fill-opacity="0.4"/>
<path d="M375.476 336.283C391.106 336.283 403.778 323.612 403.778 307.982C403.778 292.351 391.106 279.68 375.476 279.68C359.845 279.68 347.174 292.351 347.174 307.982C347.174 323.612 359.845 336.283 375.476 336.283Z" fill="white" fill-opacity="0.4"/>
<path d="M450.947 336.283C466.578 336.283 479.249 323.612 479.249 307.982C479.249 292.351 466.578 279.68 450.947 279.68C435.317 279.68 422.646 292.351 422.646 307.982C422.646 323.612 435.317 336.283 450.947 336.283Z" fill="white" fill-opacity="0.4"/>
<path d="M526.419 336.283C542.05 336.283 554.721 323.612 554.721 307.982C554.721 292.351 542.05 279.68 526.419 279.68C510.788 279.68 498.117 292.351 498.117 307.982C498.117 323.612 510.788 336.283 526.419 336.283Z" fill="white" fill-opacity="0.4"/>
<path d="M549.06 387.228H50.9475C47.8213 387.228 45.2871 389.762 45.2871 392.888V466.473C45.2871 469.599 47.8213 472.134 50.9475 472.134H549.06C552.186 472.134 554.72 469.599 554.72 466.473V392.888C554.72 389.762 552.186 387.228 549.06 387.228Z" fill="white" fill-opacity="0.4"/>
<path d="M73.589 540.058C89.2197 540.058 101.891 527.387 101.891 511.756C101.891 496.125 89.2197 483.454 73.589 483.454C57.9583 483.454 45.2871 496.125 45.2871 511.756C45.2871 527.387 57.9583 540.058 73.589 540.058Z" fill="white" fill-opacity="0.4"/>
<path d="M149.061 540.058C164.691 540.058 177.363 527.387 177.363 511.756C177.363 496.125 164.691 483.454 149.061 483.454C133.43 483.454 120.759 496.125 120.759 511.756C120.759 527.387 133.43 540.058 149.061 540.058Z" fill="white" fill-opacity="0.4"/>
<path d="M224.532 540.058C240.163 540.058 252.834 527.387 252.834 511.756C252.834 496.125 240.163 483.454 224.532 483.454C208.902 483.454 196.23 496.125 196.23 511.756C196.23 527.387 208.902 540.058 224.532 540.058Z" fill="white" fill-opacity="0.4"/>
<path d="M300.004 540.058C315.635 540.058 328.306 527.387 328.306 511.756C328.306 496.125 315.635 483.454 300.004 483.454C284.373 483.454 271.702 496.125 271.702 511.756C271.702 527.387 284.373 540.058 300.004 540.058Z" fill="white" fill-opacity="0.4"/>
<path d="M375.476 540.058C391.106 540.058 403.778 527.387 403.778 511.756C403.778 496.125 391.106 483.454 375.476 483.454C359.845 483.454 347.174 496.125 347.174 511.756C347.174 527.387 359.845 540.058 375.476 540.058Z" fill="white" fill-opacity="0.4"/>
<path d="M450.947 540.058C466.578 540.058 479.249 527.387 479.249 511.756C479.249 496.125 466.578 483.454 450.947 483.454C435.317 483.454 422.646 496.125 422.646 511.756C422.646 527.387 435.317 540.058 450.947 540.058Z" fill="white" fill-opacity="0.4"/>
<path d="M526.419 540.058C542.05 540.058 554.721 527.387 554.721 511.756C554.721 496.125 542.05 483.454 526.419 483.454C510.788 483.454 498.117 496.125 498.117 511.756C498.117 527.387 510.788 540.058 526.419 540.058Z" fill="white" fill-opacity="0.4"/>
<path d="M549.06 591H50.9475C47.8213 591 45.2871 593.534 45.2871 596.66V670.245C45.2871 673.371 47.8213 675.906 50.9475 675.906H549.06C552.186 675.906 554.72 673.371 554.72 670.245V596.66C554.72 593.534 552.186 591 549.06 591Z" fill="white" fill-opacity="0.4"/>
<path d="M73.589 743.832C89.2197 743.832 101.891 731.161 101.891 715.53C101.891 699.899 89.2197 687.228 73.589 687.228C57.9583 687.228 45.2871 699.899 45.2871 715.53C45.2871 731.161 57.9583 743.832 73.589 743.832Z" fill="white" fill-opacity="0.4"/>
<path d="M149.061 743.832C164.691 743.832 177.363 731.161 177.363 715.53C177.363 699.899 164.691 687.228 149.061 687.228C133.43 687.228 120.759 699.899 120.759 715.53C120.759 731.161 133.43 743.832 149.061 743.832Z" fill="white" fill-opacity="0.4"/>
<path d="M224.532 743.832C240.163 743.832 252.834 731.161 252.834 715.53C252.834 699.899 240.163 687.228 224.532 687.228C208.902 687.228 196.23 699.899 196.23 715.53C196.23 731.161 208.902 743.832 224.532 743.832Z" fill="white" fill-opacity="0.4"/>
<path d="M300.004 743.832C315.635 743.832 328.306 731.161 328.306 715.53C328.306 699.9 315.635 687.229 300.004 687.229C284.373 687.229 271.702 699.9 271.702 715.53C271.702 731.161 284.373 743.832 300.004 743.832Z" fill="white" fill-opacity="0.4"/>
<path d="M375.476 743.832C391.106 743.832 403.778 731.161 403.778 715.53C403.778 699.9 391.106 687.229 375.476 687.229C359.845 687.229 347.174 699.9 347.174 715.53C347.174 731.161 359.845 743.832 375.476 743.832Z" fill="white" fill-opacity="0.4"/>
<path d="M450.948 743.832C466.579 743.832 479.25 731.161 479.25 715.53C479.25 699.899 466.579 687.228 450.948 687.228C435.318 687.228 422.646 699.899 422.646 715.53C422.646 731.161 435.318 743.832 450.948 743.832Z" fill="white" fill-opacity="0.4"/>
<path d="M526.419 743.832C542.05 743.832 554.721 731.161 554.721 715.53C554.721 699.899 542.05 687.228 526.419 687.228C510.788 687.228 498.117 699.899 498.117 715.53C498.117 731.161 510.788 743.832 526.419 743.832Z" fill="white" fill-opacity="0.4"/>
</svg>
