<svg width="200" height="265" viewBox="0 0 200 265" fill="none" xmlns="http://www.w3.org/2000/svg">
<rect y="0.838867" width="200" height="264.151" rx="14.1509" fill="#BABFFC"/>
<rect y="0.838867" width="200" height="264.151" rx="14.1509" fill="black" fill-opacity="0.05"/>
<line x1="10.1411" y1="43.5688" x2="189.858" y2="43.5688" stroke="white" stroke-opacity="0.5" stroke-width="1.41509" stroke-linecap="round"/>
<path d="M50.6624 31.4155C50.568 31.3778 50.436 31.2457 50.3793 31.1325C50.2661 30.9438 50.2661 30.491 50.285 23.3967C50.3039 15.2646 50.285 15.6419 50.6246 15.3967C50.8133 15.2834 51.2661 15.2834 51.4548 15.4155C51.7756 15.6231 51.7944 15.6797 51.7944 18.8495V21.774C51.7944 21.774 57.2473 21.6042 57.2661 21.5476C57.3039 21.5099 57.3227 20.2268 57.3227 18.6797C57.3227 15.6419 57.3227 15.6231 57.6435 15.3967C57.719 15.34 57.9077 15.3023 58.0775 15.3023C58.436 15.3023 58.719 15.5476 58.7756 15.8683C58.7944 15.9816 58.8133 19.4533 58.7944 23.5853L58.7756 30.774C58.7756 30.9816 58.7001 31.1702 58.5492 31.3023C58.3793 31.4721 58.2661 31.5287 58.0963 31.5287C57.7944 31.5287 57.5303 31.3778 57.3982 31.1325C57.3039 30.9438 57.285 30.6231 57.2661 27.0382L57.2473 23.1325L55.719 23.1702C53.9831 23.1891 52.4548 23.2457 52.0586 23.3023L51.7944 23.3212L51.7756 27.208L51.7567 30.774C51.7567 30.9816 51.6812 31.1702 51.5303 31.3023C51.2661 31.5476 50.9643 31.5853 50.6624 31.4155ZM68.1482 26.2457C68.2048 30.057 68.186 30.4533 68.0916 30.6419C67.8275 31.1514 67.0916 31.1325 66.7897 30.6231C66.6954 30.4721 66.6765 30.2268 66.6388 29.0382L66.6199 27.6419L66.2803 28.3212C65.6199 29.6231 64.9407 30.4344 64.1482 30.7929C61.8841 31.8683 60.9407 29.1514 60.7709 27.4344C60.5822 25.34 61.2426 22.6608 62.3369 21.1891C63.186 20.0382 63.9407 19.5853 65.0161 19.5853C65.6576 19.5853 66.1105 19.7174 66.6765 20.0948C67.6576 20.7363 68.1105 21.8495 68.1293 22.9816C68.1293 23.4533 68.1293 23.925 68.1293 24.3967C68.1482 25.0004 68.1482 25.6231 68.1482 26.2457ZM65.6576 25.8306C66.2614 24.208 66.5633 23.1891 66.5633 22.7363C66.5633 21.5665 65.318 20.7363 64.3935 21.2834C63.1671 22.0004 62.2048 24.6419 62.2992 26.9816C62.318 27.491 62.4312 29.3778 63.1671 29.4533C63.318 29.4721 63.4878 29.4155 63.6199 29.3212C64.7143 28.6419 65.2426 26.9627 65.6576 25.8306ZM78.2176 22.4721C78.5007 23.6231 78.5007 24.8872 78.4252 26.057C78.3497 27.4155 77.9346 28.9061 77.0478 29.9627C76.5007 30.6231 75.6516 31.0948 74.7837 31.0759C73.8969 31.0382 73.1422 30.5665 72.4818 30.0193L71.9535 29.5853V29.9061C71.9535 30.0759 71.8969 30.3023 71.8592 30.3967C71.595 30.9061 70.8025 30.8872 70.5384 30.3778C70.3497 30.0382 70.312 27.9061 70.2931 20.7929C70.2931 14.3023 70.2931 14.0759 70.4252 13.8495C70.6893 13.2834 71.3497 13.208 71.7271 13.6985C71.8403 13.8683 71.8403 13.9061 71.8214 17.8683C71.8214 20.057 71.8214 21.8495 71.8403 21.8306C71.8592 21.8117 72.0101 21.5853 72.1799 21.3212C72.8214 20.3589 73.8403 19.6231 74.7271 19.4533C76.5761 19.1136 77.8214 20.9061 78.2176 22.4721ZM76.9346 25.0948C76.9158 23.9061 76.6893 20.1702 74.6516 21.0948C73.4063 21.6797 72.2176 24.0382 71.9724 26.491C71.9346 26.8872 71.9346 26.925 72.161 27.2646C72.6139 27.9816 73.0478 28.491 73.5007 28.8683C74.2742 29.491 74.8214 29.6608 75.312 29.4533C76.1233 29.1136 76.5007 28.057 76.6893 27.2834C76.8592 26.5665 76.9346 25.8306 76.9346 25.0948ZM80.6397 31.057C80.4887 30.9816 80.3378 30.8683 80.3 30.6985C80.2623 30.6042 80.2434 30.4721 80.2434 30.3589C80.2057 29.8872 80.2246 29.3967 80.2246 28.9061C80.2623 25.491 80.3755 20.7363 80.4321 20.3023C80.4887 19.925 80.5076 19.8495 80.7151 19.6608C81.0548 19.34 81.5642 19.4155 81.8283 19.8117C81.9416 20.0004 81.9604 20.6985 81.8849 21.8872C81.8661 22.1702 81.8283 24.2268 81.8095 26.4344C81.7906 27.491 81.7906 28.5665 81.734 29.6231C81.734 29.9816 81.7529 30.4155 81.6208 30.7551C81.5076 31.0382 81.1114 31.1514 80.8283 31.1136C80.7717 31.0948 80.6963 31.0759 80.6397 31.057ZM80.8661 18.1325C80.8472 18.1136 80.8095 18.0948 80.7717 18.0759C80.3189 17.774 80.3566 17.1136 80.8095 16.8117C81.017 16.6797 81.3755 16.6985 81.5831 16.8117C81.7717 16.925 81.8849 17.1136 81.9227 17.3212C81.9982 17.7929 81.6963 18.208 81.2057 18.208C81.0925 18.208 80.9793 18.1891 80.8661 18.1325ZM86.0545 30.8872C85.9224 30.8117 85.8092 30.6985 85.7714 30.5287C85.6582 30.1325 85.696 29.6797 85.6771 29.2646C85.6582 28.1325 85.6582 26.9816 85.6582 25.8495L85.6394 21.3212H84.6582C84.0922 21.3212 83.1677 21.4344 83.0545 20.6797C83.0167 20.4155 83.1111 20.1702 83.2997 20.0004C83.6205 19.6985 84.2431 19.774 84.6582 19.774H85.6016V17.8306C85.6016 17.3023 85.6016 16.7551 85.6205 16.208C85.6394 16.0004 85.6394 15.7363 85.7714 15.5665C85.9035 15.3589 86.1865 15.2457 86.4318 15.2646C87.2431 15.3212 87.1488 16.2646 87.1488 16.8306C87.1677 17.1702 87.1677 17.491 87.1677 17.8306V19.774L88.1677 19.7929C88.5828 19.7929 89.1488 19.6985 89.4318 20.1136C89.6205 20.3967 89.5828 20.8683 89.2997 21.0759C88.9979 21.3023 88.4696 21.2457 88.1299 21.2646L87.1865 21.3023V25.925C87.1865 27.0382 87.2054 28.1514 87.1865 29.2646C87.1865 29.6797 87.2054 30.1702 87.1111 30.5853C86.9979 31.0382 86.413 31.1136 86.0545 30.8872ZM97.2681 31.34C97.0982 31.2646 96.9473 31.1136 96.8907 30.925C96.8152 30.7363 96.853 30.4721 96.8341 30.2646C96.8341 29.3212 96.853 28.3778 96.853 27.4344C96.8718 26.3023 96.8907 25.1702 96.9096 24.0193C96.9662 20.2646 97.0228 17.0948 97.0416 16.9627L97.0794 16.7363L96.5511 16.774C95.1737 16.8495 93.3058 16.8495 93.0982 16.774C92.8341 16.6985 92.5888 16.3589 92.5888 16.0948C92.5888 15.7363 92.7964 15.491 93.2303 15.3589C93.4756 15.3023 101.627 15.1514 102.061 15.208C102.494 15.2834 102.966 15.6231 102.872 16.1325C102.796 16.5665 102.419 16.6608 102.042 16.6985C101.532 16.7363 101.004 16.7174 100.494 16.7363L98.5888 16.774L98.5511 17.7551C98.5322 18.3023 98.4756 21.4721 98.4379 24.774C98.3813 29.4155 98.3435 30.8495 98.2681 31.0004C98.0982 31.4155 97.6265 31.5099 97.2681 31.34ZM102.878 30.925C102.689 30.8306 102.557 30.6042 102.482 30.3023C102.463 30.1891 102.482 29.4533 102.52 28.6608C102.557 27.8495 102.595 25.6231 102.633 23.6797C102.689 19.8872 102.689 19.8683 103.029 19.6042C103.406 19.3212 103.897 19.3967 104.123 19.7929C104.237 19.9816 104.256 20.057 104.218 21.0193C104.199 21.8683 104.199 22.0193 104.274 21.925C104.859 21.0759 105.161 20.6797 105.539 20.3212C106.161 19.7551 107.01 19.3778 107.878 19.3967C108.312 19.3967 108.727 19.491 109.105 19.6985C109.444 19.8872 109.878 20.1514 109.935 20.5665C109.954 20.6797 109.954 20.7929 109.916 20.9061C109.803 21.208 109.595 21.3967 109.274 21.4344C109.048 21.4533 108.954 21.4344 108.633 21.208C107.916 20.7174 106.991 21.0004 106.444 21.6042C105.916 22.1891 105.52 22.8306 105.218 23.5665C105.161 23.7174 105.105 23.8872 105.029 24.0382C104.388 25.8117 104.067 27.4721 104.067 29.2457C104.067 30.3778 104.01 30.6419 103.746 30.8683C103.539 31.0382 103.142 31.0759 102.878 30.925ZM118.027 26.2457C118.083 30.057 118.064 30.4533 117.97 30.6419C117.706 31.1514 116.97 31.1325 116.668 30.6231C116.574 30.4721 116.555 30.2268 116.517 29.0382L116.498 27.6419L116.159 28.3212C115.498 29.6231 114.819 30.4344 114.027 30.7929C111.762 31.8683 110.819 29.1514 110.649 27.4344C110.461 25.34 111.121 22.6608 112.215 21.1891C113.064 20.0382 113.819 19.5853 114.895 19.5853C115.536 19.5853 115.989 19.7174 116.555 20.0948C117.536 20.7363 117.989 21.8495 118.008 22.9816C118.008 23.4533 118.008 23.925 118.008 24.3967C118.027 25.0004 118.027 25.6231 118.027 26.2457ZM115.536 25.8306C116.14 24.208 116.442 23.1891 116.442 22.7363C116.442 21.5665 115.196 20.7363 114.272 21.2834C113.045 22.0004 112.083 24.6419 112.178 26.9816C112.196 27.491 112.31 29.3778 113.045 29.4533C113.196 29.4721 113.366 29.4155 113.498 29.3212C114.593 28.6419 115.121 26.9627 115.536 25.8306ZM122.605 31.0004C121.738 30.7929 120.964 30.2646 120.455 29.5099C119.492 28.057 119.322 26.208 119.624 24.5099C119.87 23.1514 120.398 21.7174 121.322 20.6419C121.888 19.9816 122.681 19.5099 123.568 19.4344C124.492 19.3778 125.379 19.7929 126.002 20.4533C126.379 20.8495 126.926 21.5476 126.417 22.057C126.115 22.34 125.681 22.1514 125.36 21.8872C125.058 21.6042 124.756 21.2834 124.379 21.0759C123.832 20.7929 123.134 21.0004 122.681 21.4155C121.19 22.7551 120.945 25.3212 121.266 27.1514C121.455 28.2834 122.134 29.6042 123.455 29.6231C124.039 29.6231 124.341 29.491 124.907 28.9816C125.36 28.5665 125.587 28.491 125.907 28.6231C126.379 28.8117 126.53 29.34 126.228 29.7929C126.021 30.0948 125.341 30.6231 124.87 30.8306C124.153 31.1514 123.341 31.208 122.605 31.0004ZM128.441 30.8872C128.196 30.774 128.007 30.5476 127.95 30.2646C127.78 29.1514 127.969 16.8872 128.196 14.5665C128.271 13.774 128.29 13.6608 128.441 13.4721C128.667 13.1702 129.026 13.0759 129.328 13.2268C129.46 13.3023 129.611 13.4344 129.686 13.5476C129.799 13.7551 129.799 13.7929 129.686 15.0948C129.592 16.3212 129.479 20.5099 129.479 22.9061C129.479 23.7174 129.479 23.8306 129.554 23.7551C129.762 23.5476 130.969 21.7929 131.573 20.8495C131.931 20.3023 132.29 19.774 132.403 19.6797C132.913 19.2457 133.629 19.5665 133.629 20.2457C133.629 20.4344 133.497 20.6797 132.95 21.5665C132.554 22.1702 132.007 22.9816 131.724 23.3967C131.441 23.7929 131.214 24.1514 131.214 24.1891C131.214 24.3212 131.384 24.5476 131.46 24.6797C131.648 25.0382 131.837 25.3778 132.045 25.7363C132.479 26.5287 132.913 27.3023 133.384 28.0759C133.648 28.5287 133.95 28.9627 134.214 29.4155C134.346 29.6231 134.46 29.8117 134.46 30.057C134.479 30.5665 134.007 30.925 133.516 30.774C133.196 30.6797 133.026 30.3589 132.856 30.0948C132.158 29.1136 131.554 28.0382 130.969 26.9816C130.554 26.208 130.177 25.5665 130.158 25.5287C130.139 25.5099 129.95 25.6797 129.762 25.925L129.384 26.3778L129.46 28.34C129.479 28.8683 129.497 29.4155 129.479 29.9627C129.479 30.34 129.441 30.7363 129.026 30.9061C128.837 30.9816 128.629 30.9627 128.441 30.8872ZM141.313 28.6231C141.577 28.7551 141.728 29.0004 141.728 29.3023C141.728 29.6231 141.596 29.8306 141.199 30.1891C140.331 30.9816 138.784 31.3589 137.784 31.0193C136.879 30.6985 136.143 30.057 135.652 29.2268C134.69 27.6042 134.671 25.4155 135.162 23.6231C135.596 21.9627 136.313 20.7929 137.426 19.9627C137.539 19.8872 137.652 19.8117 137.765 19.7363C138.822 19.1514 140.143 19.2834 140.709 20.4344C141.18 21.3778 141.011 22.5665 140.577 23.5099C140.011 24.7929 138.407 25.8117 136.954 25.8117H136.426V25.8306C136.426 26.2268 136.445 26.6231 136.501 27.0193C136.52 27.1514 136.558 27.2834 136.577 27.4155C136.784 28.2457 137.218 29.0382 137.992 29.4344C138.765 29.8306 139.747 29.4721 140.331 28.9061C140.709 28.5476 140.973 28.4721 141.313 28.6231ZM137.124 22.7174C136.822 23.3589 136.596 24.0759 136.652 24.2268C136.784 24.5476 137.614 24.1702 137.803 24.0759C138.86 23.6419 139.747 22.4533 139.426 21.2646C139.331 20.9438 139.162 20.8495 138.822 20.9438C138.256 21.0948 137.558 21.8117 137.124 22.7174ZM143.304 30.925C143.115 30.8306 142.983 30.6042 142.908 30.3023C142.889 30.1891 142.908 29.4533 142.946 28.6608C142.983 27.8495 143.021 25.6231 143.059 23.6797C143.115 19.8872 143.115 19.8683 143.455 19.6042C143.832 19.3212 144.323 19.3967 144.549 19.7929C144.663 19.9816 144.682 20.057 144.644 21.0193C144.625 21.8683 144.625 22.0193 144.7 21.925C145.285 21.0759 145.587 20.6797 145.965 20.3212C146.587 19.7551 147.436 19.3778 148.304 19.3967C148.738 19.3967 149.153 19.491 149.531 19.6985C149.87 19.8872 150.304 20.1514 150.361 20.5665C150.38 20.6797 150.38 20.7929 150.342 20.9061C150.229 21.208 150.021 21.3967 149.7 21.4344C149.474 21.4533 149.38 21.4344 149.059 21.208C148.342 20.7174 147.417 21.0004 146.87 21.6042C146.342 22.1891 145.946 22.8306 145.644 23.5665C145.587 23.7174 145.531 23.8872 145.455 24.0382C144.814 25.8117 144.493 27.4721 144.493 29.2457C144.493 30.3778 144.436 30.6419 144.172 30.8683C143.965 31.0382 143.568 31.0759 143.304 30.925Z" fill="white"/>
<rect x="15.0957" y="61.1514" width="169.811" height="28.3019" rx="1.88679" fill="white" fill-opacity="0.4"/>
<circle cx="24.5297" cy="102.661" r="9.43396" fill="white" fill-opacity="0.4"/>
<circle cx="49.6869" cy="102.661" r="9.43396" fill="white" fill-opacity="0.4"/>
<circle cx="74.8441" cy="102.661" r="9.43396" fill="white" fill-opacity="0.4"/>
<circle cx="100.001" cy="102.661" r="9.43396" fill="white" fill-opacity="0.4"/>
<circle cx="125.159" cy="102.661" r="9.43396" fill="white" fill-opacity="0.4"/>
<circle cx="150.316" cy="102.661" r="9.43396" fill="white" fill-opacity="0.4"/>
<circle cx="175.473" cy="102.661" r="9.43396" fill="white" fill-opacity="0.4"/>
<rect x="15.0957" y="129.076" width="169.811" height="28.3019" rx="1.88679" fill="white" fill-opacity="0.4"/>
<circle cx="24.5297" cy="170.585" r="9.43396" fill="white" fill-opacity="0.4"/>
<circle cx="49.6869" cy="170.585" r="9.43396" fill="white" fill-opacity="0.4"/>
<circle cx="74.8441" cy="170.585" r="9.43396" fill="white" fill-opacity="0.4"/>
<circle cx="100.001" cy="170.585" r="9.43396" fill="white" fill-opacity="0.4"/>
<circle cx="125.159" cy="170.585" r="9.43396" fill="white" fill-opacity="0.4"/>
<circle cx="150.316" cy="170.585" r="9.43396" fill="white" fill-opacity="0.4"/>
<circle cx="175.473" cy="170.585" r="9.43396" fill="white" fill-opacity="0.4"/>
<rect x="15.0957" y="197" width="169.811" height="28.3019" rx="1.88679" fill="white" fill-opacity="0.4"/>
<circle cx="24.5297" cy="238.51" r="9.43396" fill="white" fill-opacity="0.4"/>
<circle cx="49.6869" cy="238.51" r="9.43396" fill="white" fill-opacity="0.4"/>
<circle cx="74.8441" cy="238.51" r="9.43396" fill="white" fill-opacity="0.4"/>
<circle cx="100.001" cy="238.51" r="9.43396" fill="white" fill-opacity="0.4"/>
<circle cx="125.159" cy="238.51" r="9.43396" fill="white" fill-opacity="0.4"/>
<circle cx="150.316" cy="238.51" r="9.43396" fill="white" fill-opacity="0.4"/>
<circle cx="175.473" cy="238.51" r="9.43396" fill="white" fill-opacity="0.4"/>
</svg>
