<svg width="296" height="283" viewBox="0 0 296 283" fill="none" xmlns="http://www.w3.org/2000/svg">
<path d="M75.2113 225.465H157.799C158.073 225.465 158.334 225.564 158.505 225.778C163.802 232.391 158.17 264.522 154.767 274.084C151.999 281.863 158.226 282.512 161.685 281.863C190.936 277.238 216.563 239.127 225.999 220.144C226.161 219.818 226.476 219.614 226.839 219.588L252.772 217.686C275.949 213.408 302.894 208.405 294.397 163.816C284.02 109.363 252.772 60.6792 190.51 24.181C131.434 -10.4494 104.126 -2.84995 81.0923 18.9308C55.7267 42.9163 10.6435 105.472 1.4195 158.37C-7.80447 211.268 29.2078 225.465 75.2113 225.465Z" fill="#E7B545"/>
<path d="M161.365 279.84L161.336 279.845L161.308 279.85C159.752 280.142 157.977 280.038 156.996 279.41C156.599 279.155 156.32 278.813 156.195 278.238C156.056 277.596 156.08 276.505 156.697 274.771C158.47 269.787 160.753 259.195 161.933 249.062C162.525 243.981 162.851 238.929 162.681 234.689C162.596 232.57 162.386 230.601 162.003 228.908C161.627 227.247 161.047 225.674 160.104 224.497C159.464 223.698 158.554 223.417 157.799 223.417H75.2113C52.3158 223.417 32.1205 219.863 18.8168 210.103C12.2144 205.259 7.28449 198.87 4.53429 190.529C1.77523 182.161 1.17253 171.711 3.4375 158.722C7.98554 132.64 21.4138 104.033 36.9456 78.8848C52.4704 53.7482 69.9753 32.2621 82.4997 20.4192C93.7855 9.74747 105.906 2.7319 122.321 2.44986C138.859 2.1657 160.065 8.70819 189.474 25.9482C251.247 62.1597 282.123 110.35 292.385 164.2C296.555 186.084 291.939 197.607 284.128 204.314C276.081 211.222 264.209 213.491 252.51 215.651L226.689 217.545C225.632 217.622 224.661 218.234 224.165 219.232C219.514 228.587 210.848 242.699 199.751 255.017C188.604 267.389 175.284 277.639 161.365 279.84Z" stroke="black" stroke-opacity="0.1" stroke-width="4.09689"/>
</svg>
