<svg width="888" height="849" viewBox="0 0 888 849" fill="none" xmlns="http://www.w3.org/2000/svg">
<g clip-path="url(#clip0_1105_2280)">
<path d="M225.634 676.395H473.397C474.219 676.395 475.002 676.692 475.515 677.334C491.406 697.173 474.51 793.566 464.301 822.252C455.997 845.589 474.678 847.536 485.055 845.589C572.808 831.714 649.689 717.381 677.997 660.432C678.483 659.454 679.428 658.842 680.517 658.764L758.316 653.058C827.847 640.224 908.682 625.215 883.191 491.448C852.06 328.089 758.316 182.038 571.53 72.543C394.302 -31.3482 312.378 -8.54985 243.277 56.7924C167.18 128.749 31.9305 316.416 4.25851 475.11C-23.4134 633.804 87.6234 676.395 225.634 676.395Z" fill="#E7B545"/>
<path d="M484.096 839.521L484.009 839.536L483.925 839.551C479.257 840.427 473.932 840.115 470.989 838.231C469.798 837.466 468.961 836.44 468.586 834.715C468.169 832.789 468.241 829.516 470.092 824.314C475.411 809.362 482.26 777.586 485.8 747.187C487.576 731.944 488.554 716.788 488.044 704.068C487.789 697.711 487.159 691.804 486.01 686.725C484.882 681.742 483.142 677.023 480.313 673.492C478.393 671.095 475.663 670.252 473.398 670.252H225.635C156.949 670.252 96.3628 659.59 56.4517 630.31C36.6445 615.778 21.8547 596.611 13.6041 571.588C5.32694 546.484 3.51884 515.134 10.3138 476.167C23.9579 397.921 64.2427 312.1 110.838 236.656C157.412 161.246 209.927 96.7875 247.5 61.2588C281.358 29.2436 317.719 8.19685 366.964 7.35073C416.578 6.49825 480.196 26.1257 568.423 77.8458C753.742 186.48 846.37 331.051 877.156 492.601C889.666 558.253 875.818 592.822 852.385 612.943C828.244 633.667 792.628 640.474 757.531 646.954L680.068 652.636C676.897 652.867 673.984 654.703 672.496 657.697C658.543 685.762 632.545 728.098 599.254 765.052C565.813 802.168 525.853 832.918 484.096 839.521Z" stroke="black" stroke-opacity="0.1" stroke-width="12.2907"/>
</g>
<defs>
<clipPath id="clip0_1105_2280">
<rect width="888" height="849" fill="white"/>
</clipPath>
</defs>
</svg>
