<svg width="296" height="119" viewBox="0 0 296 119" fill="none" xmlns="http://www.w3.org/2000/svg">
<path d="M0 21.89C0 21.3493 0.289948 20.8733 0.787212 20.6612C7.12308 17.9586 50.2933 0 78.7234 0C121.149 0 144.344 16.9185 187.362 21C223.286 24.4085 276.692 17.4612 291.853 15.3085C293.161 15.1228 293.937 16.7337 292.996 17.6612L244.991 64.9732C244.427 65.5296 244.455 66.4488 245.053 66.9691L293.791 109.378C294.664 110.138 294.254 111.563 293.108 111.729C279.9 113.637 224.359 121.111 187.362 117.6C144.344 113.519 121.149 96.6002 78.7234 96.6002C51.6047 96.6002 11.0741 112.94 1.89395 116.793C0.988912 117.173 0 116.5 0 115.519V21.89Z" fill="#76DC9F"/>
<path d="M70.8156 7.16079C72.618 6.99284 74.3878 6.87481 76.1136 6.81373L76.1489 7.8131C77.0346 7.78175 77.9077 7.76562 78.7666 7.76562C79.728 7.76562 80.6779 7.77564 81.6167 7.79524L81.6376 6.79546C83.5894 6.83621 85.4941 6.91807 87.3568 7.03719L87.293 8.03516C89.2196 8.15836 91.1008 8.32173 92.9423 8.52093L93.0499 7.52673C94.9839 7.73594 96.8746 7.98437 98.7283 8.2671L98.5775 9.25567C100.48 9.54581 102.343 9.87241 104.175 10.2301L104.367 9.24864C106.263 9.61885 108.125 10.022 109.961 10.4522L109.732 11.4259C111.595 11.8625 113.432 12.3274 115.25 12.8145L115.509 11.8485C117.362 12.3448 119.195 12.8637 121.017 13.3984L120.735 14.358C122.563 14.8946 124.381 15.4476 126.198 16.0107L126.494 15.0555C128.314 15.6195 130.131 16.193 131.954 16.7692L131.653 17.7227L132.138 17.876C133.788 18.3976 135.446 18.9217 137.116 19.4425L137.414 18.4879C139.221 19.0515 141.042 19.6114 142.886 20.1611L142.6 21.1194C144.414 21.6602 146.25 22.1917 148.117 22.7077L148.383 21.7438C150.197 22.2452 152.039 22.7316 153.916 23.1977L153.675 24.1682C155.507 24.623 157.373 25.0587 159.279 25.4699L159.49 24.4924C161.324 24.8881 163.195 25.2611 165.11 25.6066L164.932 26.5907C166.782 26.9246 168.672 27.2331 170.608 27.5122L170.75 26.5224C172.6 26.789 174.491 27.0286 176.429 27.2374L176.322 28.2317C177.269 28.3338 178.227 28.4286 179.197 28.5156C180.092 28.596 180.998 28.6701 181.913 28.7383L181.988 27.7411C183.757 27.8729 185.565 27.9824 187.405 28.0713L187.357 29.0701C189.148 29.1567 190.969 29.2238 192.812 29.2732L192.839 28.2735C194.628 28.3214 196.439 28.3524 198.266 28.3681L198.258 29.368C200.061 29.3835 201.879 29.384 203.707 29.371L203.7 28.371C205.502 28.3581 207.314 28.3321 209.131 28.2942L209.152 29.294C210.964 29.2563 212.78 29.2067 214.595 29.1468L214.562 28.1473C216.374 28.0875 218.185 28.0172 219.99 27.9378L220.034 28.9369C221.854 28.8568 223.667 28.7675 225.47 28.6704L225.416 27.6718C227.237 27.5736 229.046 27.4674 230.838 27.3544L230.901 28.3524C232.731 28.237 234.543 28.1147 236.331 27.9868L236.26 26.9894C238.091 26.8585 239.897 26.7218 241.671 26.5809L241.75 27.5777C243.596 27.4312 245.408 27.2801 247.178 27.1262L247.092 26.13C248.943 25.9691 250.749 25.8052 252.502 25.6403L252.596 26.6359C254.463 26.4603 256.27 26.2835 258.006 26.1081L257.906 25.1131C259.795 24.9223 261.6 24.7331 263.31 24.5486L263.417 25.5428C265.35 25.3343 267.16 25.1318 268.829 24.9399L268.715 23.9464C270.728 23.7151 272.536 23.4991 274.107 23.3066L274.228 24.2992C275.218 24.1778 276.115 24.0657 276.909 23.965C277.011 23.952 277.081 23.9726 277.133 24.0018L277.621 23.1287C278.133 23.4148 278.422 24.0224 278.319 24.599L277.335 24.424C277.325 24.4813 277.297 24.5475 277.222 24.6178L275.052 26.6638L275.738 27.3914L271.398 31.4835L270.712 30.7559L266.372 34.848L267.058 35.5756L262.718 39.6677L262.032 38.9401L257.692 43.0322L258.378 43.7598L254.038 47.8519L253.352 47.1243L249.012 51.2164L249.698 51.944L245.358 56.0361L244.672 55.3085L240.332 59.4006L241.018 60.1282L236.677 64.2203L235.991 63.4927L233.821 65.5387C232.786 66.5145 232.843 68.1772 233.942 69.0804L236.239 70.9685L236.874 70.196L241.468 73.9722L240.833 74.7447L245.428 78.5209L246.063 77.7484L250.657 81.5246L250.022 82.2971L254.617 86.0733L255.252 85.3008L259.846 89.077L259.211 89.8495L263.805 93.6257L264.44 92.8532L269.035 96.6294L268.4 97.4019L272.994 101.178L273.629 100.406L278.224 104.182L277.589 104.954L279.886 106.842C279.959 106.903 279.995 106.965 280.013 107.021L280.966 106.718C281.131 107.238 280.965 107.82 280.55 108.162L279.914 107.391C279.878 107.42 279.823 107.45 279.732 107.458C278.951 107.528 278.039 107.608 277.006 107.696L277.091 108.693C275.528 108.827 273.689 108.979 271.614 109.144L271.535 108.147C269.852 108.28 268.014 108.421 266.04 108.566L266.113 109.563C264.383 109.69 262.549 109.82 260.625 109.95L260.558 108.952C258.801 109.071 256.969 109.19 255.073 109.308L255.135 110.306C253.36 110.416 251.528 110.524 249.649 110.63L249.593 109.631C247.803 109.732 245.97 109.829 244.101 109.922L244.151 110.921C242.348 111.011 240.512 111.097 238.65 111.178L238.606 110.179C236.8 110.258 234.968 110.331 233.118 110.399L233.154 111.398C231.336 111.464 229.499 111.525 227.65 111.579L227.621 110.579C225.8 110.632 223.968 110.678 222.13 110.716L222.15 111.716C220.32 111.754 218.484 111.785 216.647 111.807L216.635 110.807C214.802 110.828 212.969 110.842 211.141 110.845L211.143 111.845C209.302 111.848 207.466 111.842 205.641 111.825L205.65 110.825C203.807 110.808 201.974 110.779 200.157 110.738L200.135 111.738C198.284 111.697 196.45 111.643 194.639 111.575L194.676 110.576C192.821 110.506 190.99 110.423 189.19 110.323L189.135 111.322C187.27 111.219 185.439 111.099 183.647 110.961L183.724 109.964C182.805 109.893 181.897 109.818 181.001 109.737C180.126 109.659 179.261 109.574 178.403 109.483L178.298 110.477C176.534 110.29 174.807 110.077 173.111 109.84L173.248 108.85C171.501 108.607 169.788 108.339 168.106 108.05L167.936 109.035C166.193 108.735 164.482 108.413 162.8 108.07L163 107.09C161.276 106.739 159.582 106.367 157.913 105.978L157.686 106.952C155.967 106.551 154.276 106.131 152.608 105.698L152.86 104.73C151.163 104.289 149.489 103.833 147.833 103.367L147.562 104.329C145.868 103.852 144.195 103.363 142.536 102.868L142.822 101.91C141.144 101.409 139.481 100.901 137.826 100.391L137.531 101.346C136.157 100.922 134.788 100.497 133.424 100.072C133.128 99.9803 132.832 99.8882 132.536 99.7963L132.833 98.8414C131.164 98.3225 129.498 97.8056 127.829 97.2958L127.537 98.2521C125.87 97.7428 124.202 97.2408 122.526 96.7509L122.806 95.7911C121.132 95.3017 119.45 94.8239 117.754 94.3628L117.491 95.3277C115.818 94.8727 114.131 94.4342 112.427 94.0167L112.665 93.0454C110.976 92.6318 109.269 92.2387 107.538 91.8704L107.33 92.8485C105.642 92.4893 103.931 92.1541 102.194 91.8471L102.368 90.8623C100.661 90.5607 98.9279 90.2861 97.1641 90.0424L97.0272 91.033C95.3263 90.7979 93.5968 90.5919 91.8345 90.4185L91.9325 89.4233C90.2122 89.254 88.4608 89.1155 86.6746 89.0111L86.6162 90.0094C84.9084 89.9095 83.1684 89.8411 81.3929 89.8069L81.4121 88.8071C80.5389 88.7903 79.6572 88.7817 78.7666 88.7817C77.8974 88.7817 77.0158 88.7975 76.1235 88.828L76.1577 89.8275C74.4598 89.8856 72.7191 89.998 70.9466 90.1581L70.8567 89.1621C69.1368 89.3174 67.3889 89.5171 65.6227 89.755L65.7562 90.7461C64.0506 90.9758 62.3264 91.2418 60.5924 91.5385L60.4237 90.5528C58.7081 90.8463 56.9839 91.1697 55.2595 91.5176L55.4573 92.4979C53.7534 92.8417 52.0485 93.2098 50.3511 93.5972L50.1286 92.6223C48.4175 93.0128 46.7143 93.4228 45.0275 93.847L45.2714 94.8168C43.5674 95.2453 41.8798 95.6886 40.2173 96.1413L39.9546 95.1765C38.2428 95.6426 36.5578 96.1186 34.9091 96.5988L35.1887 97.5589C33.4788 98.057 31.8077 98.5596 30.186 99.0604L29.891 98.1049C28.1676 98.6371 26.5001 99.1672 24.9012 99.6874L25.2106 100.638C23.4683 101.205 21.8074 101.761 20.2446 102.294L19.9215 101.348C18.1398 101.956 16.4852 102.537 14.982 103.074L15.3187 104.016C13.4223 104.694 11.7676 105.304 10.404 105.816L10.0525 104.88C9.09275 105.24 8.27639 105.552 7.62045 105.806C7.55633 105.831 7.49732 105.836 7.44351 105.83L7.32573 106.823C6.87791 106.769 6.47814 106.495 6.26715 106.097L7.15096 105.629C7.1256 105.581 7.10938 105.524 7.10938 105.455V102.606H6.10938V96.9084H7.10938V91.2104H6.10938V85.5125H7.10938V79.8145H6.10938V74.1166H7.10938V68.4186H6.10938V62.7206H7.10938V57.0227H6.10938V51.3247H7.10938V45.6267H6.10938V39.9288H7.10938V34.2308H6.10938V28.5328H7.10938V25.6839C7.10938 25.6392 7.11541 25.6 7.12491 25.5665L6.16287 25.2936C6.23591 25.0361 6.38167 24.8093 6.58722 24.6415L7.21979 25.416C7.24025 25.3992 7.26574 25.3835 7.29806 25.3706C7.85298 25.1486 8.68255 24.8203 9.75216 24.4069L9.39167 23.4741C10.7057 22.9663 12.3797 22.3309 14.3503 21.607L14.6951 22.5457C16.1957 21.9944 17.8689 21.3916 19.6864 20.7546L19.3557 19.8109C20.9281 19.2598 22.6083 18.6832 24.378 18.0922L24.6947 19.0408C26.3046 18.5032 27.9887 17.9537 29.7332 17.4009L29.4311 16.4476C31.0736 15.9271 32.7696 15.4035 34.5077 14.8839L34.7942 15.842C36.4541 15.3458 38.1523 14.8533 39.8787 14.3706L39.6095 13.4076C41.2952 12.9363 43.0079 12.4743 44.7385 12.0273L44.9886 12.9955C46.6867 12.5569 48.4015 12.1329 50.1243 11.7288L49.896 10.7553C51.6192 10.3511 53.3508 9.96676 55.0821 9.60755L55.2853 10.5867C57.0177 10.2273 58.749 9.89331 60.4702 9.59022L60.2968 8.60538C62.0573 8.29538 63.8082 8.01732 65.5403 7.77691L65.6778 8.76741C67.4462 8.52198 69.193 8.31633 70.9084 8.15648L70.8156 7.16079Z" stroke="white" stroke-width="2" stroke-dasharray="5.44 5.44"/>
</svg>
