<svg width="888" height="411" viewBox="0 0 888 411" fill="none" xmlns="http://www.w3.org/2000/svg">
<g clip-path="url(#clip0_1105_1629)">
<path d="M120.075 406.479C112.591 406.479 107.059 405.099 103.48 402.339C99.9 399.582 98.1105 394.458 98.1105 386.97C98.1105 375.147 96.4833 355.047 93.2292 326.67L91.2768 314.256L42.9537 305.388C41.0013 314.454 38.2353 332.778 34.656 360.366C32.7033 379.677 29.6121 392.487 25.3818 398.793C23.1039 402.339 19.8499 404.112 15.6196 404.112C11.7147 404.112 8.13519 402.735 4.88112 399.975C1.62704 396.822 0 393.078 0 388.743L0.976221 385.788L1.46433 383.421C22.9412 282.135 39.2115 182.228 50.2755 83.6996C50.2755 82.1231 50.4381 79.5614 50.7636 76.0145C51.0891 72.0734 51.4143 66.5558 51.7398 59.4617C52.716 44.8796 53.6922 33.2534 54.6684 24.5828C55.9701 15.9123 57.9225 9.40946 60.5259 5.07422H77.1216C81.6774 5.07422 85.5822 6.45362 88.8363 9.21239C92.0904 11.5771 93.7173 15.1241 93.7173 19.8534C93.7173 49.8059 97.134 94.3406 103.968 153.458C110.476 214.151 113.73 256.715 113.73 281.15C113.73 283.515 114.543 289.624 116.171 299.476C117.797 308.541 118.611 314.454 118.611 317.211C118.611 319.971 120.238 331.794 123.492 352.683C126.421 371.598 127.885 383.817 127.885 389.334V389.925C127.885 398.595 125.282 404.112 120.075 406.479ZM87.8601 292.974C86.8839 287.062 86.3958 279.771 86.3958 271.1C86.3958 235.63 83.7924 190.307 78.5859 135.131L73.7049 73.6499C59.7123 166.266 50.1126 236.221 44.9061 283.515C49.7874 287.456 64.1052 290.609 87.8601 292.974Z" fill="#5A8551"/>
<path d="M222.007 410.026C214.197 410.026 207.201 407.857 201.018 403.522C194.836 399.583 189.792 393.67 185.887 385.789C178.077 369.235 173.033 350.515 170.755 329.626C168.477 311.497 167.339 289.821 167.339 264.598C166.362 222.034 165.874 170.011 165.874 108.53L165.386 63.0097C165.061 60.6448 164.898 56.7037 164.898 51.1861C164.247 36.2098 163.922 27.1454 163.922 23.9925C166.85 15.7161 170.267 11.5779 174.172 11.5779C178.077 11.5779 181.494 15.1249 184.422 22.2189C187.676 29.313 189.304 36.9982 189.304 45.2746V206.073C189.304 221.837 190.442 242.725 192.72 268.736C194.998 301.054 196.137 321.943 196.137 331.402C196.137 360.565 206.387 375.148 226.888 375.148C250.317 375.148 262.032 269.13 262.032 57.0979V18.672C261.707 17.4896 261.544 15.9132 261.544 13.9426C261.544 9.21322 262.358 5.86327 263.984 3.89269C265.937 1.52804 269.516 0.345703 274.723 0.345703C278.953 0.345703 282.207 1.92216 284.485 5.07505C287.089 7.83385 288.716 11.1838 289.366 15.1249C289.692 17.4896 289.854 22.0219 289.854 28.7218C289.854 35.0275 289.366 45.0775 288.39 58.8715C287.089 70.3006 286.438 80.1535 286.438 88.4299C286.438 97.4944 286.112 105.574 285.461 112.668L284.485 137.497V142.226C284.811 143.803 284.973 145.576 284.973 147.547C284.973 322.534 263.985 410.026 222.007 410.026Z" fill="#5A8551"/>
<path d="M409.602 405.888C400.491 405.888 392.193 403.917 384.708 399.975C377.223 395.64 370.878 390.123 365.673 383.421C361.44 377.904 357.537 369.825 353.958 359.184C350.376 348.543 347.775 338.295 346.146 328.443C344.52 320.955 343.218 310.116 342.243 295.929C341.265 281.741 340.614 269.524 340.29 259.276V201.342C340.29 178.483 340.614 159.763 341.265 145.181C341.916 127.446 344.031 108.726 347.61 89.0199C350.541 71.2848 355.584 55.7175 362.742 42.3177C369.576 28.9178 379.176 19.6562 391.542 14.5327C397.398 11.7739 404.232 10.3945 412.041 10.3945C426.036 10.3945 433.032 15.321 433.032 25.1737C433.032 29.9031 431.403 33.8442 428.151 36.9972C425.22 39.756 421.641 41.1354 417.411 41.1354C415.458 41.1354 413.67 40.9383 412.041 40.5441C410.739 40.1502 409.113 39.9531 407.16 39.9531C401.628 39.9531 396.747 43.5 392.517 50.5941C388.287 57.6879 384.708 67.5408 381.78 80.1525C376.572 104.587 372.993 131.19 371.04 159.96C369.738 186.76 369.087 206.662 369.087 219.668C369.087 233.068 369.576 251.394 370.554 274.647C371.853 296.323 374.619 315.24 378.852 331.401C381.129 340.857 383.733 348.543 386.661 354.456C389.913 359.973 393.981 364.701 398.862 368.643C404.394 372.978 410.091 375.147 415.947 375.147C431.568 375.147 439.377 343.617 439.377 280.559V253.365C437.097 252.183 433.356 251.591 428.151 251.591H418.389C406.998 251.591 401.304 247.059 401.304 237.994C401.304 232.477 402.768 228.339 405.696 225.58C408.951 222.427 413.019 220.851 417.9 220.851V221.442H424.734C454.02 221.442 468.663 227.551 468.663 239.768C468.663 243.315 467.85 250.409 466.221 261.05C464.271 270.509 463.293 277.603 463.293 282.332C463.293 289.032 463.782 299.476 464.757 313.665L465.735 344.997C465.735 363.915 460.203 378.891 449.139 389.925C438.399 400.566 425.22 405.888 409.602 405.888Z" fill="#5A8551"/>
<path d="M567.116 410.026C559.307 410.026 552.308 407.857 546.128 403.522C539.945 399.583 534.899 393.67 530.996 385.789C523.184 369.235 518.141 350.515 515.864 329.626C513.587 311.497 512.447 289.821 512.447 264.598C511.472 222.034 510.983 170.011 510.983 108.53L510.494 63.0097C510.17 60.6448 510.008 56.7037 510.008 51.1861C509.357 36.2098 509.03 27.1454 509.03 23.9925C511.958 15.7161 515.375 11.5779 519.281 11.5779C523.187 11.5779 526.601 15.1249 529.532 22.2189C532.784 29.313 534.413 36.9982 534.413 45.2746V206.073C534.413 221.837 535.55 242.725 537.83 268.736C540.107 301.054 541.247 321.943 541.247 331.402C541.247 360.565 551.495 375.148 571.997 375.148C595.427 375.148 607.142 269.13 607.142 57.0979V18.672C606.815 17.4896 606.653 15.9132 606.653 13.9426C606.653 9.21322 607.466 5.86327 609.092 3.89269C611.045 1.52804 614.624 0.345703 619.832 0.345703C624.062 0.345703 627.317 1.92216 629.594 5.07505C632.198 7.83385 633.824 11.1838 634.475 15.1249C634.799 17.4896 634.964 22.0219 634.964 28.7218C634.964 35.0275 634.475 45.0775 633.5 58.8715C632.198 70.3006 631.547 80.1535 631.547 88.4299C631.547 97.4944 631.22 105.574 630.569 112.668L629.594 137.497V142.226C629.918 143.803 630.083 145.576 630.083 147.547C630.083 322.534 609.092 410.026 567.116 410.026Z" fill="#5A8551"/>
<path d="M700.044 409.434C694.185 408.252 689.142 405.69 684.912 401.748C681.006 397.806 678.729 392.685 678.078 386.379L683.448 376.329C685.401 376.329 688.491 377.118 692.721 378.693C697.602 379.875 701.346 380.466 703.947 380.466C709.806 380.466 715.011 377.313 719.568 371.007C724.449 364.701 728.028 356.427 730.305 346.179C734.535 327.261 736.65 310.314 736.65 295.339C736.65 269.327 729.819 241.936 716.151 213.166L710.781 201.934C704.598 188.928 699.393 177.302 695.163 167.055C690.93 156.808 687.351 145.773 684.423 133.949C680.517 118.579 678.567 103.209 678.567 87.8382C678.567 70.4973 681.819 52.368 688.329 33.4506C691.581 24.3861 696.138 17.0951 701.994 11.5775C708.177 5.66581 715.011 2.70996 722.496 2.70996C728.352 2.70996 733.722 5.07463 738.603 9.80398C743.811 14.1392 746.412 19.4598 746.412 25.7655C746.412 29.3125 745.275 32.0712 742.998 34.0419C740.718 36.0123 737.952 36.9978 734.7 36.9978C731.118 36.9978 727.704 35.8155 724.449 33.4506C717.288 33.8448 711.594 41.5299 707.364 56.5062C703.785 70.3002 701.994 81.7296 701.994 90.7941C701.994 102.224 703.461 113.85 706.389 125.673C709.317 137.102 713.058 147.546 717.615 157.005L728.352 180.652L745.437 219.669C749.994 230.704 753.573 243.513 756.177 258.095C759.105 272.677 760.569 287.456 760.569 302.433C760.569 326.472 756.012 349.332 746.901 371.007C742.347 382.044 735.837 390.912 727.377 397.611C719.241 404.31 710.13 407.661 700.044 407.661V409.434Z" fill="#5A8551"/>
<path d="M839.19 391.698L838.701 368.643C838.374 361.944 838.212 354.456 838.212 346.179L838.701 326.079C837.726 321.744 835.284 278.588 831.378 196.613C827.475 114.637 825.195 62.0233 824.547 38.7706C805.671 37.9825 793.632 35.6179 788.424 31.6768C784.845 28.5238 783.057 24.9768 783.057 21.0356C783.057 17.8828 784.683 15.124 787.938 12.7593C791.517 10.0005 795.096 8.62109 798.675 8.62109C807.786 8.62109 818.85 9.40931 831.867 10.9858C844.233 12.9563 855.297 13.9416 865.059 13.9416H872.868C882.957 13.9416 888 18.6709 888 28.1296C888 32.8591 886.374 36.8002 883.119 39.9532C879.864 42.712 876.123 44.0914 871.893 44.0914C868.965 44.0914 864.732 43.5001 859.2 42.3178L849.438 39.9532L848.463 45.8647C848.463 80.9407 851.229 136.905 856.761 213.757C861.966 285.879 864.57 341.844 864.57 381.648C864.57 386.379 862.782 390.516 859.2 394.062C855.948 397.611 852.204 399.384 847.974 399.384L839.19 391.698Z" fill="#5A8551"/>
</g>
<defs>
<clipPath id="clip0_1105_1629">
<rect width="888" height="411" fill="white"/>
</clipPath>
</defs>
</svg>
