<svg width="296" height="137" viewBox="0 0 296 137" fill="none" xmlns="http://www.w3.org/2000/svg">
<path d="M40.0251 135.493C37.5303 135.493 35.6864 135.033 34.4932 134.113C33.3 133.194 32.7035 131.486 32.7035 128.99C32.7035 125.049 32.1611 118.349 31.0764 108.89L30.4256 104.752L14.3179 101.796C13.6671 104.818 12.7451 110.926 11.552 120.122C10.9011 126.559 9.87069 130.829 8.46059 132.931C7.70131 134.113 6.61662 134.704 5.20652 134.704C3.90489 134.704 2.71173 134.245 1.62704 133.325C0.542346 132.274 0 131.026 0 129.581L0.325407 128.596L0.488111 127.807C7.64707 94.0452 13.0705 60.7426 16.7585 27.8999C16.7585 27.3744 16.8127 26.5205 16.9212 25.3382C17.0297 24.0245 17.1381 22.1853 17.2466 19.8206C17.572 14.9599 17.8974 11.0845 18.2228 8.1943C18.6567 5.30414 19.3075 3.13652 20.1753 1.69144H25.7072C27.2258 1.69144 28.5274 2.15124 29.6121 3.07083C30.6968 3.85906 31.2391 5.0414 31.2391 6.61785C31.2391 16.602 32.378 31.4469 34.6559 51.1526C36.8253 71.3837 37.91 85.5717 37.91 93.7167C37.91 94.505 38.1811 96.5412 38.7235 99.8255C39.2658 102.847 39.537 104.818 39.537 105.737C39.537 106.657 40.0794 110.598 41.164 117.561C42.1403 123.866 42.6284 127.939 42.6284 129.778V129.975C42.6284 132.865 41.7606 134.704 40.0251 135.493ZM29.2867 97.6579C28.9613 95.6873 28.7986 93.2569 28.7986 90.3668C28.7986 78.5434 27.9308 63.4357 26.1953 45.0438L24.5683 24.55C19.9041 55.4221 16.7042 78.7404 14.9687 94.5049C16.5958 95.8187 21.3684 96.8696 29.2867 97.6579Z" fill="#5A8551"/>
<path d="M74.0022 136.675C71.399 136.675 69.0669 135.952 67.006 134.507C64.9451 133.194 63.2638 131.223 61.9622 128.596C59.3589 123.078 57.6776 116.838 56.9183 109.875C56.159 103.832 55.7794 96.6069 55.7794 88.1992C55.454 74.0111 55.2913 56.6701 55.2913 36.1763L55.1286 21.003C55.0201 20.2147 54.9659 18.901 54.9659 17.0618C54.749 12.0697 54.6405 9.04821 54.6405 7.99724C55.6167 5.23845 56.7556 3.85906 58.0573 3.85906C59.3589 3.85906 60.4978 5.0414 61.474 7.40607C62.5587 9.77075 63.1011 12.3325 63.1011 15.0913V68.6906C63.1011 73.9454 63.4807 80.9081 64.24 89.5785C64.9993 100.351 65.3789 107.314 65.3789 110.467C65.3789 120.188 68.7957 125.049 75.6293 125.049C83.439 125.049 87.3439 89.7099 87.3439 19.0324V6.22374C87.2355 5.82962 87.1812 5.30414 87.1812 4.64728C87.1812 3.07083 87.4524 1.95418 87.9947 1.29732C88.6456 0.509102 89.8387 0.11499 91.5742 0.11499C92.9843 0.11499 94.069 0.640475 94.8283 1.69144C95.6961 2.61104 96.2384 3.72769 96.4553 5.04139C96.5638 5.82962 96.618 7.34039 96.618 9.57369C96.618 11.6756 96.4553 15.0256 96.1299 19.6236C95.6961 23.4333 95.4791 26.7176 95.4791 29.4764C95.4791 32.4979 95.3707 35.191 95.1537 37.5557L94.8283 45.8321V47.4085C94.9368 47.934 94.991 48.5252 94.991 49.182C94.991 107.511 87.9948 136.675 74.0022 136.675Z" fill="#5A8551"/>
<path d="M136.534 135.296C133.497 135.296 130.731 134.639 128.236 133.325C125.741 131.88 123.626 130.041 121.891 127.807C120.48 125.968 119.179 123.275 117.986 119.728C116.792 116.181 115.925 112.765 115.382 109.481C114.84 106.985 114.406 103.372 114.081 98.6431C113.755 93.9138 113.538 89.8413 113.43 86.4256V67.1141C113.43 59.4946 113.538 53.2545 113.755 48.3938C113.972 42.4821 114.677 36.242 115.87 29.6734C116.847 23.7617 118.528 18.5726 120.914 14.106C123.192 9.63938 126.392 6.55216 130.514 4.84434C132.466 3.92475 134.744 3.46495 137.347 3.46495C142.012 3.46495 144.344 5.10709 144.344 8.39135C144.344 9.96781 143.801 11.2815 142.717 12.3325C141.74 13.2521 140.547 13.7119 139.137 13.7119C138.486 13.7119 137.89 13.6462 137.347 13.5148C136.913 13.3835 136.371 13.3178 135.72 13.3178C133.876 13.3178 132.249 14.5001 130.839 16.8648C129.429 19.2294 128.236 22.5137 127.26 26.7176C125.524 34.8626 124.331 43.7301 123.68 53.3202C123.246 62.2534 123.029 68.8876 123.029 73.2229C123.029 77.6895 123.192 83.7982 123.518 91.5491C123.951 98.7745 124.873 105.08 126.284 110.467C127.043 113.619 127.911 116.181 128.887 118.152C129.971 119.991 131.327 121.567 132.954 122.881C134.798 124.326 136.697 125.049 138.649 125.049C143.856 125.049 146.459 114.539 146.459 93.5197V84.4551C145.699 84.061 144.452 83.8639 142.717 83.8639H139.463C135.666 83.8639 133.768 82.3531 133.768 79.3316C133.768 77.4924 134.256 76.113 135.232 75.1934C136.317 74.1425 137.673 73.617 139.3 73.617V73.814H141.578C151.34 73.814 156.221 75.8503 156.221 79.9228C156.221 81.1051 155.95 83.4698 155.407 87.0168C154.757 90.1697 154.431 92.5344 154.431 94.1108C154.431 96.3441 154.594 99.8255 154.919 104.555L155.245 114.999C155.245 121.305 153.401 126.297 149.713 129.975C146.133 133.522 141.74 135.296 136.534 135.296Z" fill="#5A8551"/>
<path d="M189.039 136.675C186.436 136.675 184.103 135.952 182.043 134.507C179.982 133.194 178.3 131.223 176.999 128.596C174.395 123.078 172.714 116.838 171.955 109.875C171.196 103.832 170.816 96.6069 170.816 88.1992C170.491 74.0111 170.328 56.6701 170.328 36.1763L170.165 21.003C170.057 20.2147 170.003 18.901 170.003 17.0618C169.786 12.0697 169.677 9.04821 169.677 7.99724C170.653 5.23845 171.792 3.85906 173.094 3.85906C174.396 3.85906 175.534 5.0414 176.511 7.40607C177.595 9.77075 178.138 12.3325 178.138 15.0913V68.6906C178.138 73.9454 178.517 80.9081 179.277 89.5785C180.036 100.351 180.416 107.314 180.416 110.467C180.416 120.188 183.832 125.049 190.666 125.049C198.476 125.049 202.381 89.7099 202.381 19.0324V6.22374C202.272 5.82962 202.218 5.30414 202.218 4.64728C202.218 3.07083 202.489 1.95418 203.031 1.29732C203.682 0.509102 204.875 0.11499 206.611 0.11499C208.021 0.11499 209.106 0.640475 209.865 1.69144C210.733 2.61104 211.275 3.72769 211.492 5.04139C211.6 5.82962 211.655 7.34039 211.655 9.57369C211.655 11.6756 211.492 15.0256 211.167 19.6236C210.733 23.4333 210.516 26.7176 210.516 29.4764C210.516 32.4979 210.407 35.191 210.19 37.5557L209.865 45.8321V47.4085C209.973 47.934 210.028 48.5252 210.028 49.182C210.028 107.511 203.031 136.675 189.039 136.675Z" fill="#5A8551"/>
<path d="M233.348 136.478C231.395 136.084 229.714 135.23 228.304 133.916C227.002 132.602 226.243 130.895 226.026 128.793L227.816 125.443C228.467 125.443 229.497 125.706 230.907 126.231C232.534 126.625 233.782 126.822 234.649 126.822C236.602 126.822 238.337 125.771 239.856 123.669C241.483 121.567 242.676 118.809 243.435 115.393C244.845 109.087 245.55 103.438 245.55 98.4461C245.55 89.7756 243.273 80.6453 238.717 71.0552L236.927 67.3112C234.866 62.9759 233.131 59.1005 231.721 55.6849C230.31 52.2692 229.117 48.5908 228.141 44.6497C226.839 39.5262 226.189 34.4028 226.189 29.2793C226.189 23.499 227.273 17.4559 229.443 11.1501C230.527 8.12861 232.046 5.69825 233.998 3.85906C236.059 1.8885 238.337 0.903217 240.832 0.903217C242.784 0.903217 244.574 1.69144 246.201 3.26789C247.937 4.71297 248.804 6.48648 248.804 8.58841C248.804 9.77074 248.425 10.6903 247.666 11.3472C246.906 12.004 245.984 12.3325 244.9 12.3325C243.706 12.3325 242.568 11.9384 241.483 11.1501C239.096 11.2815 237.198 13.8432 235.788 18.8353C234.595 23.4333 233.998 27.2431 233.998 30.2646C233.998 34.0744 234.487 37.9498 235.463 41.8909C236.439 45.7007 237.686 49.182 239.205 52.3349L242.784 60.2172L248.479 73.2229C249.998 76.9013 251.191 81.1708 252.059 86.0315C253.035 90.8922 253.523 95.8187 253.523 100.811C253.523 108.824 252.004 116.444 248.967 123.669C247.449 127.348 245.279 130.304 242.459 132.537C239.747 134.77 236.71 135.887 233.348 135.887V136.478Z" fill="#5A8551"/>
<path d="M279.73 130.566L279.567 122.881C279.458 120.648 279.404 118.152 279.404 115.393L279.567 108.693C279.242 107.248 278.428 92.8628 277.126 65.5377C275.825 38.2125 275.065 20.6745 274.849 12.9236C268.557 12.6609 264.544 11.8727 262.808 10.559C261.615 9.50801 261.019 8.32567 261.019 7.01196C261.019 5.961 261.561 5.0414 262.646 4.25318C263.839 3.33358 265.032 2.87378 266.225 2.87378C269.262 2.87378 272.95 3.13652 277.289 3.662C281.411 4.31886 285.099 4.64728 288.353 4.64728H290.956C294.319 4.64728 296 6.22373 296 9.37663C296 10.9531 295.458 12.2668 294.373 13.3178C293.288 14.2374 292.041 14.6972 290.631 14.6972C289.655 14.6972 288.244 14.5001 286.4 14.106L283.146 13.3178L282.821 15.2883C282.821 26.9803 283.743 45.635 285.587 71.2523C287.322 95.2932 288.19 113.948 288.19 127.216C288.19 128.793 287.594 130.172 286.4 131.354C285.316 132.537 284.068 133.128 282.658 133.128L279.73 130.566Z" fill="#5A8551"/>
</svg>
