<svg width="296" height="137" viewBox="0 0 296 137" fill="none" xmlns="http://www.w3.org/2000/svg">
<path d="M13.5941 136.675C10.7509 136.675 8.44076 136.248 6.66376 135.394C4.88676 134.54 3.99825 133.313 3.99825 131.712C3.99825 130.538 5.06446 129.311 7.19686 128.03C9.32926 126.749 11.7282 125.789 14.3937 125.148C17.0592 123.12 19.4582 119.972 21.5906 115.703C23.9007 111.434 25.0557 107.058 25.0557 102.575L25.3223 94.7304C25.5 92.4891 25.5888 89.9276 25.5888 87.0459L25.3223 80.4821L23.9895 64.3126C22.7456 43.1802 20.7909 24.556 18.1254 8.43986C17.5923 8.65332 16.4373 8.81342 14.6603 8.92015C11.8171 9.45379 9.15156 9.72062 6.66376 9.72062C4.88676 9.72062 3.28745 9.34706 1.86585 8.59996C0.621951 7.74612 0 6.78556 0 5.71827C0 1.98275 10.5732 0.11499 31.7195 0.11499H35.1846C37.6725 0.11499 39.6272 0.221718 41.0488 0.435174C42.4704 0.541901 43.8031 0.915455 45.047 1.55583C46.4686 2.19621 47.1794 3.15677 47.1794 4.43752C47.1794 7.21248 43.4477 8.59996 35.9843 8.59996C35.9843 8.59996 35.8954 8.59996 35.7178 8.59996C35.7178 8.59996 35.7178 8.54659 35.7178 8.43986H31.7195V9.72062C31.7195 12.4956 32.2526 16.6046 33.3188 22.0478C34.2073 28.2381 34.6515 32.4006 34.6515 34.5351C34.6515 42.1129 35.54 52.4657 37.3171 65.5933C38.7387 77.9739 39.4495 88.38 39.4495 96.8116V109.619C39.4495 116.023 37.1394 121.68 32.5191 126.589C28.0766 131.605 21.7683 134.967 13.5941 136.675Z" fill="#6B488B"/>
<path d="M110.772 123.867C106.508 123.867 102.687 123.28 99.3108 122.106C95.9345 121.039 93.1802 119.438 91.0478 117.304C86.783 112.821 84.0286 107.751 82.7847 102.095C81.5408 97.1852 80.9189 91.3151 80.9189 84.4844C80.3858 72.9577 80.1192 58.8694 80.1192 42.2196L79.8527 29.8924C79.675 29.2521 79.5861 28.1848 79.5861 26.6906C79.2307 22.6348 79.053 20.1801 79.053 19.3262C80.6523 17.0849 82.5182 15.9643 84.6506 15.9643C86.783 15.9643 88.6488 16.9248 90.2481 18.846C92.0251 20.7671 92.9136 22.8483 92.9136 25.0896V68.6351C92.9136 72.9043 93.5356 78.5609 94.7795 85.6051C96.0234 94.3569 96.6453 100.014 96.6453 102.575C96.6453 110.473 102.243 114.422 113.438 114.422C126.232 114.422 132.63 85.7118 132.63 28.2915V17.8854C132.452 17.5652 132.363 17.1383 132.363 16.6046C132.363 15.3239 132.807 14.4167 133.696 13.883C134.762 13.2427 136.717 12.9225 139.56 12.9225C141.87 12.9225 143.647 13.3494 144.891 14.2032C146.313 14.9503 147.201 15.8575 147.556 16.9248C147.734 17.5652 147.823 18.7926 147.823 20.607C147.823 22.3147 147.556 25.0363 147.023 28.7718C146.313 31.8669 145.957 34.5352 145.957 36.7765C145.957 39.2312 145.779 41.4192 145.424 43.3403L144.891 50.0642V51.345C145.069 51.7719 145.157 52.2522 145.157 52.7858C145.157 100.174 133.696 123.867 110.772 123.867Z" fill="#6B488B"/>
<path d="M219.612 124.028C213.215 122.747 205.308 122.106 195.89 122.106C193.046 123.174 190.025 123.707 186.827 123.707C184.694 123.707 182.829 123.12 181.229 121.946C179.808 120.879 179.097 119.705 179.097 118.424C179.097 109.459 179.719 97.5054 180.963 82.5633C182.029 66.6606 182.562 54.7603 182.562 46.8624V45.7417C181.496 39.0178 180.963 34.0015 180.963 30.6929C180.963 20.5536 184.072 15.484 190.292 15.484C192.069 15.484 193.579 15.9109 194.823 16.7647C196.245 17.5118 196.956 18.419 196.956 19.4863C196.956 20.7671 196.689 22.7949 196.156 25.5699C195.623 28.2381 195.356 30.266 195.356 31.6535C195.356 38.8043 195.445 45.2614 195.623 51.0248C195.801 56.6815 195.89 63.0852 195.89 70.2361C195.001 71.837 194.557 74.0783 194.557 76.96V78.8811L194.024 91.5285C193.668 95.2641 193.491 99.5332 193.491 104.336C193.491 111.7 196.423 115.383 202.287 115.383C202.642 115.383 203.175 115.383 203.886 115.383C204.775 115.276 205.93 115.222 207.351 115.222C208.95 115.116 210.994 115.062 213.482 115.062C223.078 115.062 227.876 116.663 227.876 119.865C227.876 120.932 227.076 121.84 225.477 122.587C223.877 123.334 221.923 123.814 219.612 124.028Z" fill="#6B488B"/>
<path d="M271.744 123.707C268.723 123.707 266.235 122.533 264.281 120.185C266.235 117.944 267.213 108.872 267.213 92.9694C267.213 89.2339 266.768 85.1781 265.88 80.8023L265.08 76.1595C264.547 73.2778 264.281 71.0899 264.281 69.5957V65.4332C262.504 62.765 259.216 57.8021 254.418 50.5445C249.798 43.2869 246.066 37.2034 243.223 32.2938C239.847 26.6372 238.159 22.7949 238.159 20.7671V19.9666L244.289 17.245C247.31 17.4585 250.509 19.8065 253.885 24.2891C256.728 28.2381 259.838 33.8948 263.214 41.2591C266.768 48.6234 268.545 52.519 268.545 52.9459C269.256 51.7719 270.678 47.7696 272.81 40.9389C274.943 34.1082 277.341 28.078 280.007 22.8483C283.028 17.6186 286.138 15.0037 289.336 15.0037C291.113 15.0037 292.624 15.3239 293.868 15.9643C295.289 16.6046 296 17.4051 296 18.3657C296 23.8089 293.512 31.4934 288.537 41.4192C283.206 52.1988 280.54 59.9901 280.54 64.7929V112.981C280.54 120.132 277.608 123.707 271.744 123.707Z" fill="#6B488B"/>
</svg>
