<svg width="888" height="411" viewBox="0 0 888 411" fill="none" xmlns="http://www.w3.org/2000/svg">
<g clip-path="url(#clip0_1105_1695)">
<path d="M40.7823 410.026C32.2527 410.026 25.3223 408.745 19.9913 406.183C14.6603 403.621 11.9948 399.94 11.9948 395.137C11.9948 391.615 15.1934 387.934 21.5906 384.091C27.9878 380.248 35.1846 377.368 43.1811 375.445C51.1776 369.361 58.3746 359.917 64.7718 347.11C71.7021 334.303 75.1671 321.175 75.1671 307.726L75.9669 284.192C76.5 277.468 76.7664 269.784 76.7664 261.138L75.9669 241.447L71.9685 192.939C68.2368 129.541 62.3727 73.6687 54.3762 25.3203C52.7769 25.9607 49.3119 26.441 43.9809 26.7612C35.4513 28.3621 27.4547 29.1626 19.9913 29.1626C14.6603 29.1626 9.86235 28.0419 5.59755 25.8006C1.86585 23.2391 0 20.3574 0 17.1555C0 5.94898 31.7196 0.345703 95.1585 0.345703H105.554C113.018 0.345703 118.882 0.665887 123.146 1.30626C127.411 1.62644 131.409 2.7471 135.141 4.66822C139.406 6.58936 141.538 9.47104 141.538 13.3133C141.538 21.6382 130.343 25.8006 107.953 25.8006C107.953 25.8006 107.686 25.8006 107.153 25.8006C107.153 25.8006 107.153 25.6405 107.153 25.3203H95.1585V29.1626C95.1585 37.4875 96.7578 49.8145 99.9564 66.1441C102.622 84.715 103.954 97.2025 103.954 103.606C103.954 126.339 106.62 157.398 111.951 196.781C116.216 233.922 118.349 265.141 118.349 290.436V328.858C118.349 348.07 111.418 365.041 97.5573 379.768C84.2298 394.816 65.3049 404.902 40.7823 410.026Z" fill="#6B488B"/>
<path d="M332.317 371.602C319.525 371.602 308.062 369.841 297.933 366.319C287.804 363.118 279.541 358.315 273.144 351.913C260.35 338.464 252.086 323.254 248.355 306.286C244.623 291.557 242.757 273.946 242.757 253.454C241.158 218.874 240.358 176.609 240.358 126.66L239.559 89.6783C239.026 87.7574 238.759 84.5555 238.759 80.0729C237.693 67.9055 237.16 60.5414 237.16 57.9797C241.958 51.2558 247.555 47.894 253.952 47.894C260.35 47.894 265.947 50.7755 270.745 56.5391C276.076 62.3024 278.741 68.546 278.741 75.2699V205.906C278.741 218.714 280.607 235.684 284.339 256.816C288.071 283.072 289.937 300.043 289.937 307.726C289.937 331.42 306.73 343.267 340.315 343.267C378.697 343.267 397.891 257.136 397.891 84.8756V53.6573C397.357 52.6967 397.09 51.416 397.09 49.8149C397.09 45.9728 398.422 43.2512 401.089 41.6501C404.287 39.7292 410.152 38.7686 418.681 38.7686C425.611 38.7686 430.942 40.0493 434.674 42.6107C438.94 44.852 441.604 47.5736 442.669 50.7755C443.203 52.6967 443.47 56.3789 443.47 61.8221C443.47 66.9452 442.669 75.11 441.07 86.3165C438.94 95.6018 437.872 103.607 437.872 110.331C437.872 117.695 437.338 124.259 436.273 130.022L434.674 150.194V154.036C435.208 155.317 435.472 156.758 435.472 158.358C435.472 300.523 401.089 371.602 332.317 371.602Z" fill="#6B488B"/>
<path d="M658.837 372.085C639.646 368.242 615.924 366.319 587.671 366.319C579.139 369.523 570.075 371.122 560.481 371.122C554.082 371.122 548.488 369.361 543.688 365.839C539.425 362.638 537.292 359.116 537.292 355.273C537.292 328.378 539.157 292.517 542.889 247.691C546.087 199.983 547.686 164.282 547.686 140.588V137.226C544.488 117.055 542.889 102.006 542.889 92.0798C542.889 61.6619 552.217 46.4531 570.877 46.4531C576.208 46.4531 580.737 47.7338 584.469 50.2952C588.735 52.5365 590.868 55.2581 590.868 58.46C590.868 62.3024 590.068 68.3858 588.469 76.7108C586.87 84.7154 586.069 90.7991 586.069 94.9616C586.069 116.414 586.336 135.785 586.87 153.076C587.404 170.046 587.671 189.257 587.671 210.709C585.004 215.512 583.672 222.236 583.672 230.881V236.644L582.073 274.587C581.005 285.793 580.473 298.601 580.473 313.009C580.473 335.101 589.27 346.15 606.862 346.15C607.927 346.15 609.526 346.15 611.659 346.15C614.326 345.829 617.79 345.667 622.053 345.667C626.85 345.349 632.982 345.187 640.446 345.187C669.234 345.187 683.629 349.99 683.629 359.596C683.629 362.797 681.229 365.521 676.432 367.762C671.632 370.003 665.77 371.443 658.837 372.085Z" fill="#6B488B"/>
<path d="M815.232 371.121C806.169 371.121 798.705 367.599 792.843 360.555C798.705 353.832 801.639 326.616 801.639 278.908C801.639 267.701 800.304 255.534 797.64 242.407L795.24 228.478C793.641 219.833 792.843 213.269 792.843 208.787V196.299C787.512 188.295 777.648 173.406 763.254 151.633C749.394 129.86 738.198 111.61 729.669 96.881C719.541 79.9112 714.477 68.3843 714.477 62.3009V59.8994L732.867 51.7346C741.93 52.3751 751.527 59.4191 761.655 72.8669C770.184 84.7139 779.514 101.684 789.642 123.777C800.304 145.87 805.635 157.557 805.635 158.837C807.768 155.315 812.034 143.308 818.43 122.816C824.829 102.324 832.023 84.2336 840.021 68.5445C849.084 52.8554 858.414 45.0107 868.008 45.0107C873.339 45.0107 877.872 45.9713 881.604 47.8925C885.867 49.8134 888 52.2149 888 55.0967C888 71.4263 880.536 94.4798 865.611 124.257C849.618 156.596 841.62 179.97 841.62 194.378V338.943C841.62 360.396 832.824 371.121 815.232 371.121Z" fill="#6B488B"/>
</g>
<defs>
<clipPath id="clip0_1105_1695">
<rect width="888" height="411" fill="white"/>
</clipPath>
</defs>
</svg>
