<svg width="888" height="411" viewBox="0 0 888 411" fill="none" xmlns="http://www.w3.org/2000/svg">
<g clip-path="url(#clip0_1105_1516)">
<path d="M123.349 409.665C120.552 409.665 118.315 407.958 116.637 404.55C114.958 401.139 114.119 396.195 114.119 389.718L113.7 314.025C113.42 307.545 113.28 296.806 113.28 281.804C112.721 250.094 112.441 214.294 112.441 174.401V148.318C109.924 164.684 105.588 187.699 99.4347 217.362C93.2814 248.049 88.9458 273.28 86.4285 293.056V296.124L85.17 305.841C84.6105 313.344 83.2119 321.015 80.9742 328.857C78.1773 337.038 73.842 341.13 67.968 341.13C57.8988 341.13 52.8642 325.107 52.8642 293.056C52.8642 275.326 51.3258 256.402 48.249 236.286C45.4518 215.828 40.8369 190.767 34.4037 161.104L21.8169 103.822L20.9778 165.195C20.9778 183.607 21.6771 218.726 23.0756 270.552L23.9147 305.331L24.7538 375.396C24.7538 382.557 22.656 389.037 18.4605 394.833C11.4679 394.833 6.57303 392.274 3.77601 387.162C1.25867 381.705 0 373.863 0 363.633L0.839112 321.696C1.67822 303.285 2.09778 289.475 2.09778 280.27L0.419556 82.3419C0.419556 67.6806 0.699261 45.6888 1.25867 16.3661L12.5867 8.18304C14.8243 8.52402 17.0619 10.5698 19.2996 14.3203C21.5372 17.7299 24.0545 23.3558 26.8516 31.1979C33.8442 52.3374 42.9345 94.6164 54.1227 158.035C55.8009 166.9 56.9199 174.231 57.4791 180.027C60.8355 199.803 63.213 214.805 64.6116 225.034L70.905 264.415L73.842 247.537L81.8133 205.599C86.2887 181.05 89.9247 159.569 92.7219 141.158C95.7987 122.746 98.7354 102.799 101.533 81.3192C104.609 55.7469 106.567 34.437 107.406 17.389V14.3203C107.966 9.88785 109.644 6.47826 112.441 4.09152C115.238 1.36384 118.594 0 122.51 0C125.028 0 127.265 1.36384 129.223 4.09152C131.181 6.81921 132.16 9.71736 132.16 12.786C132.16 53.7012 133.419 114.904 135.936 196.393C137.335 236.286 138.313 275.326 138.873 313.512C139.432 330.903 139.712 352.893 139.712 379.488C139.712 387.33 138.034 394.32 134.677 400.458C131.321 406.596 127.545 409.665 123.349 409.665Z" fill="#B83A48"/>
<path d="M242.136 406.082C234.864 406.082 228.151 403.184 221.998 397.388C215.844 391.934 210.809 384.431 206.894 374.885C198.782 354.086 193.748 331.412 191.789 306.863C189.272 283.678 188.014 261.345 188.014 239.865C188.014 235.773 188.153 232.364 188.433 229.636V220.43C188.433 218.725 188.293 217.873 188.014 217.873V208.667L188.433 172.866C188.713 161.955 189.832 144.566 191.789 120.699C193.188 104.333 196.405 88.4783 201.439 73.1351C203.397 66.3158 205.915 61.2014 208.991 57.7919C212.068 54.0413 215.564 52.166 219.48 52.166C230.669 52.166 240.738 54.7232 249.688 59.8376C258.639 64.6109 266.191 71.4302 272.344 80.2952C277.938 88.8191 282.693 99.389 286.609 112.005C290.525 124.279 293.322 137.406 295 151.385C296.678 165.706 297.518 180.879 297.518 196.904V200.995C297.518 211.565 297.658 221.112 297.937 229.636L298.357 258.788C298.357 356.984 279.617 406.082 242.136 406.082ZM240.458 384.602C245.493 384.602 250.108 382.217 254.303 377.441C258.499 372.329 261.716 365.51 263.953 356.984C269.267 339.596 272.484 320.843 273.603 300.725C275.002 283.337 275.701 268.335 275.701 255.719C275.701 240.376 274.722 220.26 272.764 195.37C271.086 169.115 270.247 149.51 270.247 136.554V127.348C269.687 114.391 266.051 103.14 259.338 93.5927C252.905 84.0458 244.933 79.2722 235.423 79.2722C225.914 79.2722 219.62 85.9211 216.543 99.2186C213.746 109.788 212.348 123.427 212.348 140.134C212.348 146.612 212.488 152.068 212.767 156.5V170.309L211.928 193.835C211.369 200.995 211.089 208.837 211.089 217.361C211.089 235.773 211.509 254.014 212.348 272.086C213.467 297.658 216.264 322.547 220.739 346.757C225.214 371.987 231.787 384.602 240.458 384.602Z" fill="#B83A48"/>
<path d="M458.775 397.902C455.418 397.902 452.901 396.879 451.224 394.833C449.544 392.445 448.287 388.524 447.447 383.07L444.93 373.353V370.794C444.93 359.544 435.279 321.186 415.98 255.721C396.96 190.256 381.996 141.84 371.088 110.471V367.725L372.765 371.307C373.044 371.988 373.605 373.182 374.445 374.886C375.282 376.59 375.702 378.297 375.702 380.001C375.702 384.432 374.445 388.182 371.928 391.251C369.408 394.32 366.333 395.856 362.697 395.856C353.745 395.856 349.272 385.455 349.272 364.656L348.852 277.201C348.57 250.947 348.432 221.625 348.432 189.233C348.432 178.323 348.852 162.468 349.689 141.669C350.529 120.189 350.949 104.334 350.949 94.1056C350.949 78.0805 355.983 65.4649 366.054 56.2588V59.3275C367.731 58.6456 368.85 58.3045 369.408 58.3045C375.843 58.3045 383.955 71.9431 393.744 99.22C401.574 121.041 408.567 144.056 414.72 168.264C421.155 192.473 429.546 226.91 439.896 271.575L444.09 289.987C450.522 317.604 455.418 337.38 458.775 349.314C464.37 276.008 467.166 189.404 467.166 89.5024V82.8538C466.887 80.8081 466.746 78.5917 466.746 76.2052C466.746 65.9764 470.103 60.8617 476.817 60.8617C480.732 60.8617 483.669 62.737 485.625 66.4876C487.863 70.2382 488.982 75.0118 488.982 80.8081V119.166C488.424 171.674 486.744 228.614 483.948 289.987C481.152 351.36 477.795 385.968 473.88 393.81C465.768 396.537 460.734 397.902 458.775 397.902Z" fill="#B83A48"/>
<path d="M558.426 399.435C551.154 399.435 547.518 377.103 547.518 332.436L548.355 251.629C548.637 227.761 548.775 200.996 548.775 171.332C548.775 160.422 547.938 143.544 546.258 120.7C544.86 95.8094 544.161 80.6366 544.161 75.1814C544.161 70.7489 545.7 66.8279 548.775 63.4184C551.853 60.0086 555.21 58.3037 558.846 58.3037C568.635 58.3037 578.004 61.0316 586.956 66.4868C596.187 71.6012 604.296 78.932 611.289 88.4789C626.115 109.277 635.904 132.122 640.659 157.012C643.176 169.627 644.436 182.073 644.436 194.347C644.436 198.78 644.295 202.871 644.016 206.622L643.596 220.431V248.56C643.596 270.381 643.035 287.6 641.916 300.216C640.239 317.265 637.023 332.436 632.268 345.735C626.673 360.054 618.561 372.84 607.932 384.093C602.898 389.205 596.466 394.32 588.633 399.435H558.426ZM576.885 373.353C582.48 373.353 587.655 371.646 592.41 368.238C597.165 364.488 601.221 359.544 604.578 353.406C607.374 347.949 609.891 341.13 612.129 332.949C614.646 324.423 616.464 316.242 617.583 308.4C620.1 293.055 621.639 277.371 622.197 261.346C622.479 257.254 622.617 251.287 622.617 243.445C622.617 140.475 606.255 86.774 573.531 82.3415C571.572 97.6847 570.594 115.415 570.594 135.532C570.594 157.012 571.713 194.518 573.948 248.048C575.907 295.442 576.885 333.117 576.885 361.077V373.353Z" fill="#B83A48"/>
<path d="M772.695 400.968C766.26 400.968 761.505 399.777 758.43 397.389C755.352 395.004 753.813 390.57 753.813 384.093C753.813 373.863 752.415 356.475 749.619 331.926L747.939 321.186L706.404 313.512C704.727 321.354 702.348 337.209 699.273 361.077C697.593 377.784 694.938 388.866 691.299 394.32C689.343 397.389 686.544 398.925 682.908 398.925C679.554 398.925 676.476 397.731 673.68 395.343C670.881 392.616 669.483 389.376 669.483 385.626L670.323 383.07L670.743 381.024C689.202 293.396 703.188 206.963 712.698 121.723C712.698 120.359 712.839 118.143 713.118 115.074C713.397 111.664 713.676 106.891 713.955 100.754C714.795 88.1382 715.635 78.0801 716.475 70.5789C717.594 63.0777 719.271 57.4518 721.509 53.7012H735.774C739.689 53.7012 743.046 54.8946 745.842 57.2814C748.641 59.3271 750.039 62.3958 750.039 66.4872C750.039 92.4003 752.976 130.929 758.85 182.073C764.442 234.581 767.241 271.405 767.241 292.544C767.241 294.59 767.94 299.875 769.338 308.4C770.736 316.242 771.435 321.354 771.435 323.742C771.435 326.13 772.833 336.357 775.632 354.429C778.149 370.794 779.406 381.363 779.406 386.139V386.649C779.406 394.149 777.168 398.925 772.695 400.968ZM745.005 302.772C744.165 297.658 743.745 291.351 743.745 283.849C743.745 253.163 741.507 213.953 737.031 166.218L732.837 113.028C720.81 193.154 712.557 253.675 708.084 294.59C712.278 298 724.584 300.726 745.005 302.772Z" fill="#B83A48"/>
<path d="M849.819 403.527C845.064 403.527 841.149 399.777 838.074 392.274C841.149 385.116 842.688 356.133 842.688 305.331C842.688 293.397 841.989 280.44 840.591 266.461L839.331 251.629C838.491 242.423 838.074 235.433 838.074 230.66V217.363C835.275 208.839 830.1 192.984 822.549 169.799C815.277 146.613 809.403 127.178 804.927 111.494C799.614 93.4237 796.956 81.1489 796.956 74.6707V72.1135L806.607 63.4192C811.362 64.1011 816.396 71.602 821.709 85.9225C826.185 98.5381 831.081 116.609 836.394 140.135C841.989 163.661 844.785 176.106 844.785 177.47C845.904 173.72 848.142 160.934 851.499 139.112C854.856 117.291 858.63 98.0266 862.827 81.3196C867.582 64.6123 872.478 56.2588 877.512 56.2588C880.308 56.2588 882.687 57.2818 884.643 59.3275C886.881 61.3732 888 63.9304 888 66.9991C888 84.388 884.085 108.937 876.252 140.647C867.861 175.084 863.667 199.974 863.667 215.317V369.261C863.667 392.106 859.05 403.527 849.819 403.527Z" fill="#B83A48"/>
</g>
<defs>
<clipPath id="clip0_1105_1516">
<rect width="888" height="411" fill="white"/>
</clipPath>
</defs>
</svg>
