<svg width="296" height="137" viewBox="0 0 296 137" fill="none" xmlns="http://www.w3.org/2000/svg">
<path d="M41.1165 136.555C40.1841 136.555 39.4383 135.986 38.8789 134.85C38.3194 133.713 38.0397 132.065 38.0397 129.906L37.8999 104.675C37.8067 102.515 37.76 98.9354 37.76 93.9346C37.5736 83.3648 37.4803 71.4312 37.4803 58.1338V49.4393C36.6412 54.8946 35.1961 62.5662 33.1449 72.4541C31.0938 82.6829 29.6486 91.0933 28.8095 97.6852V98.7081L28.39 101.947C28.2035 104.448 27.7373 107.005 26.9914 109.619C26.0591 112.346 24.614 113.71 22.656 113.71C19.2996 113.71 17.6214 108.369 17.6214 97.6852C17.6214 91.7752 17.1086 85.4674 16.083 78.7619C15.1506 71.9427 13.6123 63.5891 11.4679 53.7013L7.2723 34.6075L6.9926 55.0651C6.9926 61.2024 7.22569 72.9087 7.69186 90.184L7.97156 101.777L8.25127 125.132C8.25127 127.519 7.55201 129.679 6.15349 131.611C3.82262 131.611 2.19101 130.758 1.25867 129.054C0.419556 127.235 0 124.621 0 121.211L0.279704 107.232C0.559408 101.095 0.69926 96.4918 0.69926 93.4232L0.139852 27.4473C0.139852 22.5602 0.233087 15.2296 0.419556 5.45537L4.19556 2.72768C4.94144 2.84134 5.68731 3.52326 6.43319 4.77345C7.17907 5.90998 8.01818 7.78526 8.95053 10.3993C11.2814 17.4458 14.3115 31.5388 18.0409 52.6784C18.6003 55.6334 18.9733 58.0769 19.1597 60.009C20.2785 66.601 21.071 71.6017 21.5372 75.0113L23.635 88.1383L24.614 82.5124L27.2711 68.5331C28.7629 60.35 29.9749 53.1898 30.9073 47.0525C31.9329 40.9153 32.9118 34.2665 33.8442 27.1064C34.8698 18.5823 35.5224 11.479 35.8021 5.79632V4.77345C35.9886 3.29595 36.548 2.15942 37.4803 1.36384C38.4127 0.454615 39.5315 0 40.8368 0C41.6759 0 42.4218 0.454615 43.0744 1.36384C43.7271 2.27307 44.0534 3.23912 44.0534 4.262C44.0534 17.9004 44.4729 38.3012 45.312 65.4644C45.7782 78.7619 46.1045 91.7752 46.291 104.504C46.4775 110.301 46.5707 117.631 46.5707 126.496C46.5707 129.11 46.0113 131.44 44.8925 133.486C43.7737 135.532 42.515 136.555 41.1165 136.555Z" fill="#B83A48"/>
<path d="M80.7121 135.361C78.288 135.361 76.0503 134.395 73.9992 132.463C71.948 130.645 70.2698 128.144 68.9645 124.962C66.2607 118.029 64.5825 110.471 63.9298 102.288C63.0907 94.5597 62.6712 87.1154 62.6712 79.9552C62.6712 78.5914 62.7178 77.4549 62.811 76.5456V73.477C62.811 72.9087 62.7644 72.6246 62.6712 72.6246V69.5559L62.811 57.6223C62.9043 53.9854 63.2772 48.1891 63.9298 40.2333C64.396 34.778 65.4682 29.4931 67.1464 24.3787C67.7991 22.1056 68.6382 20.4008 69.6638 19.2643C70.6894 18.0141 71.8548 17.389 73.1601 17.389C76.8895 17.389 80.2459 18.2414 83.2294 19.9462C86.2129 21.5373 88.7303 23.8104 90.7814 26.7654C92.6461 29.6067 94.2311 33.13 95.5364 37.3352C96.8417 41.4267 97.774 45.8024 98.3334 50.4621C98.8928 55.2356 99.1725 60.2932 99.1725 65.6349V66.9987C99.1725 70.522 99.2192 73.7043 99.3124 76.5456L99.4522 86.263C99.4522 118.995 93.2055 135.361 80.7121 135.361ZM80.1527 128.201C81.8309 128.201 83.3693 127.406 84.7678 125.814C86.1663 124.11 87.2385 121.837 87.9844 118.995C89.7558 113.199 90.828 106.948 91.201 100.242C91.6672 94.4461 91.9002 89.4453 91.9002 85.2401C91.9002 80.1257 91.5739 73.4202 90.9213 65.1235C90.3619 56.3721 90.0822 49.8371 90.0822 45.5182V42.4496C89.8957 38.1308 88.6836 34.3802 86.446 31.1979C84.3016 28.0156 81.6444 26.4244 78.4744 26.4244C75.3045 26.4244 73.2067 28.6407 72.1811 33.0732C71.2488 36.5964 70.7826 41.1426 70.7826 46.7116C70.7826 48.871 70.8292 50.6895 70.9224 52.167V56.7699L70.6427 64.612C70.4563 66.9987 70.363 69.6128 70.363 72.4541C70.363 78.5914 70.5029 84.6718 70.7826 90.6955C71.1555 99.2195 72.0879 107.516 73.5796 115.586C75.0714 123.996 77.2624 128.201 80.1527 128.201Z" fill="#B83A48"/>
<path d="M152.925 132.634C151.806 132.634 150.967 132.293 150.408 131.611C149.848 130.815 149.429 129.508 149.149 127.69L148.31 124.451V123.598C148.31 119.848 145.093 107.062 138.66 85.2401C132.32 63.4186 127.332 47.2799 123.696 36.8237V122.575L124.255 123.769C124.348 123.996 124.535 124.394 124.815 124.962C125.094 125.53 125.234 126.099 125.234 126.667C125.234 128.144 124.815 129.394 123.976 130.417C123.136 131.44 122.111 131.952 120.899 131.952C117.915 131.952 116.424 128.485 116.424 121.552L116.284 92.4003C116.19 83.649 116.144 73.8748 116.144 63.0777C116.144 59.4408 116.284 54.1559 116.563 47.223C116.843 40.0628 116.983 34.778 116.983 31.3684C116.983 26.0267 118.661 21.8215 122.018 18.7528V19.7757C122.577 19.5484 122.95 19.4347 123.136 19.4347C125.281 19.4347 127.985 23.9809 131.248 33.0732C133.858 40.347 136.189 48.0186 138.24 56.088C140.385 64.1574 143.182 75.6364 146.632 90.525L148.03 96.6623C150.174 105.868 151.806 112.46 152.925 116.438C154.79 92.0025 155.722 63.1345 155.722 29.834V27.6178C155.629 26.9359 155.582 26.1971 155.582 25.4016C155.582 21.992 156.701 20.2871 158.939 20.2871C160.244 20.2871 161.223 20.9122 161.875 22.1624C162.621 23.4126 162.994 25.0038 162.994 26.9359V39.7219C162.808 57.2245 162.248 76.2047 161.316 96.6623C160.384 117.12 159.265 128.656 157.96 131.27C155.256 132.179 153.578 132.634 152.925 132.634Z" fill="#B83A48"/>
<path d="M186.142 133.145C183.718 133.145 182.506 125.701 182.506 110.812L182.785 83.8763C182.879 75.9205 182.925 66.9987 182.925 57.1109C182.925 53.474 182.646 47.8481 182.086 40.2333C181.62 31.9366 181.387 26.879 181.387 25.0606C181.387 23.5831 181.9 22.2761 182.925 21.1396C183.951 20.003 185.07 19.4347 186.282 19.4347C189.545 19.4347 192.668 20.344 195.652 22.1624C198.729 23.8672 201.432 26.3108 203.763 29.4931C208.705 36.4259 211.968 44.0407 213.553 52.3374C214.392 56.5426 214.812 60.691 214.812 64.7825C214.812 66.26 214.765 67.6238 214.672 68.874L214.532 73.477V82.8534C214.532 90.1272 214.345 95.8667 213.972 100.072C213.413 105.755 212.341 110.812 210.756 115.245C208.891 120.018 206.187 124.28 202.644 128.031C200.966 129.735 198.822 131.44 196.211 133.145H186.142ZM192.295 124.451C194.16 124.451 195.885 123.882 197.47 122.746C199.055 121.496 200.407 119.848 201.526 117.802C202.458 115.983 203.297 113.71 204.043 110.983C204.882 108.141 205.488 105.414 205.861 102.8C206.7 97.6852 207.213 92.4571 207.399 87.1154C207.493 85.7516 207.539 83.7626 207.539 81.1486C207.539 46.8252 202.085 28.9248 191.177 27.4473C190.524 32.5617 190.198 38.4717 190.198 45.1773C190.198 52.3374 190.571 64.8393 191.316 82.6829C191.969 98.4807 192.295 111.039 192.295 120.359V124.451Z" fill="#B83A48"/>
<path d="M257.565 133.656C255.42 133.656 253.835 133.259 252.81 132.463C251.784 131.668 251.271 130.19 251.271 128.031C251.271 124.621 250.805 118.825 249.873 110.642L249.313 107.062L235.468 104.504C234.909 107.118 234.116 112.403 233.091 120.359C232.531 125.928 231.646 129.622 230.433 131.44C229.781 132.463 228.848 132.975 227.636 132.975C226.518 132.975 225.492 132.577 224.56 131.781C223.627 130.872 223.161 129.792 223.161 128.542L223.441 127.69L223.581 127.008C229.734 97.7988 234.396 68.9877 237.566 40.5743C237.566 40.1197 237.613 39.3809 237.706 38.3581C237.799 37.2215 237.892 35.6304 237.985 33.5846C238.265 29.3794 238.545 26.0267 238.825 23.5263C239.198 21.0259 239.757 19.1506 240.503 17.9004H245.258C246.563 17.9004 247.682 18.2982 248.614 19.0938C249.547 19.7757 250.013 20.7986 250.013 22.1624C250.013 30.8001 250.992 43.6429 252.95 60.691C254.814 78.1936 255.747 90.4682 255.747 97.5147C255.747 98.1966 255.98 99.9582 256.446 102.8C256.912 105.414 257.145 107.118 257.145 107.914C257.145 108.71 257.611 112.119 258.544 118.143C259.383 123.598 259.802 127.121 259.802 128.713V128.883C259.802 131.383 259.056 132.975 257.565 133.656ZM248.335 100.924C248.055 99.2195 247.915 97.1169 247.915 94.6165C247.915 84.3877 247.169 71.3176 245.677 55.4061L244.279 37.6761C240.27 64.3847 237.519 84.5582 236.028 98.1966C237.426 99.3332 241.528 100.242 248.335 100.924Z" fill="#B83A48"/>
<path d="M283.273 134.509C281.688 134.509 280.383 133.259 279.358 130.758C280.383 128.372 280.896 118.711 280.896 101.777C280.896 97.7988 280.663 93.48 280.197 88.8202L279.777 83.8763C279.497 80.8076 279.358 78.4777 279.358 76.8866V72.4541C278.425 69.6128 276.7 64.3279 274.183 56.5994C271.759 48.871 269.801 42.3927 268.309 37.1647C266.538 31.1411 265.652 27.0495 265.652 24.8901V24.0377L268.869 21.1396C270.454 21.3669 272.132 23.8672 273.903 28.6407C275.395 32.8459 277.027 38.8695 278.798 46.7116C280.663 54.5537 281.595 58.702 281.595 59.1566C281.968 57.9065 282.714 53.6444 283.833 46.3706C284.952 39.0968 286.21 32.6754 287.609 27.1064C289.194 21.5373 290.826 18.7528 292.504 18.7528C293.436 18.7528 294.229 19.0938 294.881 19.7757C295.627 20.4576 296 21.31 296 22.3329C296 28.1292 294.695 36.3123 292.084 46.8821C289.287 58.3611 287.889 66.6578 287.889 71.7722V123.087C287.889 130.702 286.35 134.509 283.273 134.509Z" fill="#B83A48"/>
</svg>
