<svg width="296" height="138" viewBox="0 0 296 138" fill="none" xmlns="http://www.w3.org/2000/svg">
<path d="M16.8101 131.001L16.664 123.316C16.5665 121.083 16.5178 118.587 16.5178 115.828L16.664 109.128C16.3716 107.683 15.6407 93.2989 14.4713 65.9748C13.3019 38.6507 12.6198 21.1134 12.4249 13.3628C6.77278 13.1001 3.16713 12.3119 1.60793 10.9983C0.535975 9.94734 0 8.76505 0 7.45139C0 6.40047 0.48725 5.48091 1.46175 4.69271C2.5337 3.77315 3.60565 3.31337 4.6776 3.31337C7.40621 3.31337 10.7195 3.5761 14.6175 4.10156C18.3206 4.75839 21.6339 5.08681 24.5574 5.08681H26.8962C29.9172 5.08681 31.4276 6.66319 31.4276 9.81597C31.4276 11.3924 30.9404 12.706 29.9659 13.7569C28.9914 14.6765 27.8707 15.1363 26.6039 15.1363C25.7268 15.1363 24.46 14.9392 22.8033 14.5451L19.8798 13.7569L19.5875 15.7274C19.5875 27.419 20.4158 46.0729 22.0724 71.6892C23.6316 95.7292 24.4112 114.383 24.4112 127.651C24.4112 129.227 23.8753 130.607 22.8033 131.789C21.8288 132.971 20.7081 133.562 19.4413 133.562L16.8101 131.001Z" fill="#6B488B"/>
<path d="M61.6653 137.109C59.3265 137.109 57.2314 136.387 55.3798 134.942C53.5283 133.628 52.0178 131.658 50.8484 129.03C48.5096 123.513 46.9991 117.273 46.317 110.311C45.6348 104.268 45.2937 97.0428 45.2937 88.6354C45.0014 74.4479 44.8552 57.1076 44.8552 36.6146L44.709 21.4418C44.6116 20.6536 44.5628 19.34 44.5628 17.5009C44.3679 12.509 44.2705 9.48755 44.2705 8.43663C45.1476 5.67795 46.1708 4.29861 47.3402 4.29861C48.5096 4.29861 49.5328 5.4809 50.4099 7.84549C51.3844 10.2101 51.8716 12.7717 51.8716 15.5304V69.1276C51.8716 74.3822 52.2127 81.3446 52.8948 90.0147C53.577 100.787 53.9181 107.749 53.9181 110.902C53.9181 120.623 56.9877 125.483 63.1271 125.483C70.1435 125.483 73.6517 90.1461 73.6517 19.4714V6.6632C73.5542 6.2691 73.5055 5.74363 73.5055 5.08681C73.5055 3.51041 73.7491 2.3938 74.2364 1.73698C74.8211 0.948784 75.893 0.554688 77.4522 0.554688C78.7191 0.554688 79.6936 1.08015 80.3758 2.13108C81.1554 3.05064 81.6426 4.16724 81.8375 5.4809C81.935 6.2691 81.9837 7.7798 81.9837 10.013C81.9837 12.1149 81.8375 15.4647 81.5452 20.0625C81.1553 23.8721 80.9605 27.1562 80.9605 29.9149C80.9605 32.9363 80.863 35.6293 80.6681 37.9939L80.3758 46.27V47.8463C80.4732 48.3718 80.5219 48.963 80.5219 49.6198C80.5219 107.946 74.2364 137.109 61.6653 137.109Z" fill="#6B488B"/>
<path d="M105.566 136.715C104.299 136.715 103.13 136.124 102.058 134.942C101.083 133.76 100.547 132.315 100.45 130.607V121.543C100.352 120.36 100.304 118.981 100.304 117.405C100.304 114.646 100.157 110.442 99.865 104.793L99.5727 92.1823C99.5727 85.7454 99.7188 76.1557 100.011 63.4132C100.401 51.9844 100.596 42.3947 100.596 34.6441C100.596 32.805 100.45 30.0463 100.157 26.368C99.865 22.5584 99.7188 19.7998 99.7188 18.092C99.7188 8.76504 101.765 4.10156 105.858 4.10156C109.074 4.10156 112.777 4.95544 116.967 6.6632C121.255 8.37095 123.399 10.4071 123.399 12.7717C123.399 14.0854 122.961 15.3333 122.084 16.5156C121.304 17.5665 120.33 18.4204 119.16 19.0772C115.067 17.1068 111.364 15.7931 108.051 15.1363C108.148 17.1068 108.197 19.9311 108.197 23.6094C108.197 28.864 108.148 33.5932 108.051 37.7969C107.758 44.1024 107.612 48.8316 107.612 51.9844L108.051 55.1371L110.39 54.9401C111.169 54.8087 112.144 54.743 113.313 54.743C117.991 54.743 120.33 56.5822 120.33 60.2604C120.33 61.7054 119.891 62.9534 119.014 64.0043C118.137 64.9239 117.016 65.3837 115.652 65.3837C113.898 65.3837 112.534 65.2523 111.559 64.9896H107.905C108.1 68.4051 108.197 73.397 108.197 79.9653C108.197 86.5336 108.148 92.445 108.051 97.6996C107.758 105.713 107.612 111.69 107.612 115.631C107.612 122.988 107.71 126.666 107.905 126.666L112.728 126.469C114.385 126.337 116.383 126.272 118.722 126.272C122.425 126.272 124.276 127.848 124.276 131.001C124.276 132.84 123.643 134.219 122.376 135.139C121.207 136.19 119.745 136.715 117.991 136.715H105.566Z" fill="#6B488B"/>
<path d="M143.013 136.912C141.259 136.518 139.748 135.664 138.481 134.351C137.312 133.037 136.63 131.329 136.435 129.227L138.043 125.878C138.628 125.878 139.553 126.14 140.82 126.666C142.282 127.06 143.403 127.257 144.182 127.257C145.936 127.257 147.496 126.206 148.86 124.104C150.322 122.002 151.394 119.244 152.076 115.828C153.343 109.523 153.976 103.874 153.976 98.8819C153.976 90.2118 151.93 81.0819 147.837 71.4922L146.229 67.7483C144.377 63.4132 142.818 59.5379 141.551 56.1224C140.284 52.7069 139.212 49.0286 138.335 45.0877C137.166 39.9644 136.581 34.8411 136.581 29.7179C136.581 23.9378 137.556 17.895 139.505 11.5894C140.479 8.568 141.844 6.13773 143.598 4.29861C145.449 2.32813 147.496 1.34288 149.737 1.34288C151.491 1.34288 153.099 2.13108 154.561 3.70746C156.12 5.15249 156.9 6.92593 156.9 9.02777C156.9 10.2101 156.558 11.1296 155.876 11.7865C155.194 12.4433 154.366 12.7717 153.391 12.7717C152.319 12.7717 151.296 12.3776 150.322 11.5894C148.178 11.7208 146.472 14.2824 145.206 19.2743C144.134 23.8721 143.598 27.6817 143.598 30.7031C143.598 34.5127 144.036 38.388 144.913 42.329C145.79 46.1386 146.911 49.6198 148.275 52.7726L151.491 60.6545L156.607 73.6597C157.972 77.338 159.043 81.6073 159.823 86.4679C160.7 91.3284 161.139 96.2546 161.139 101.247C161.139 109.26 159.774 116.879 157.046 124.104C155.681 127.782 153.732 130.738 151.199 132.971C148.762 135.205 146.034 136.321 143.013 136.321V136.912Z" fill="#6B488B"/>
<path d="M181.175 135.336C178.641 135.336 177.374 126.731 177.374 109.523L177.667 78.3889C177.764 69.1933 177.813 58.8811 177.813 47.4523C177.813 43.2485 177.521 36.7459 176.936 27.9444C176.449 18.3547 176.205 12.509 176.205 10.4071C176.205 8.69936 176.741 7.18866 177.813 5.875C178.885 4.56135 180.054 3.90452 181.321 3.90452C184.732 3.90452 187.996 4.95544 191.115 7.05729C194.331 9.02777 197.157 11.8521 199.593 15.5304C204.758 23.5437 208.169 32.3452 209.825 41.9349C210.702 46.7954 211.141 51.5903 211.141 56.3194C211.141 58.0272 211.092 59.6036 210.995 61.0486L210.848 66.3689V77.2066C210.848 85.614 210.654 92.248 210.264 97.1085C209.679 103.677 208.558 109.523 206.902 114.646C204.953 120.163 202.127 125.089 198.424 129.424C196.669 131.395 194.428 133.365 191.7 135.336H181.175ZM187.607 125.286C189.556 125.286 191.358 124.63 193.015 123.316C194.672 121.871 196.085 119.966 197.254 117.602C198.229 115.5 199.106 112.872 199.885 109.72C200.762 106.435 201.396 103.283 201.786 100.261C202.663 94.3498 203.199 88.307 203.394 82.1328C203.491 80.5564 203.54 78.2575 203.54 75.2361C203.54 35.5637 197.839 14.8736 186.437 13.1658C185.755 19.0773 185.414 25.9083 185.414 33.6588C185.414 41.9349 185.804 56.3851 186.583 77.0095C187.266 95.2694 187.607 109.785 187.607 120.557V125.286Z" fill="#6B488B"/>
<path d="M255.827 135.927C253.586 135.927 251.929 135.467 250.857 134.548C249.785 133.628 249.249 131.92 249.249 129.424C249.249 125.483 248.762 118.784 247.787 109.326L247.203 105.187L232.731 102.232C232.147 105.253 231.318 111.362 230.246 120.557C229.662 126.994 228.736 131.264 227.469 133.365C226.787 134.548 225.812 135.139 224.546 135.139C223.376 135.139 222.304 134.679 221.33 133.76C220.355 132.709 219.868 131.461 219.868 130.016L220.16 129.03L220.306 128.242C226.738 94.4812 231.611 61.18 234.924 28.3385C234.924 27.8131 234.973 26.9592 235.07 25.7769C235.168 24.4633 235.265 22.6241 235.362 20.2595C235.655 15.399 235.947 11.5237 236.24 8.63368C236.629 5.74363 237.214 3.5761 237.994 2.13108H242.964C244.328 2.13108 245.497 2.59086 246.472 3.51041C247.446 4.29861 247.934 5.48091 247.934 7.05729C247.934 17.0411 248.957 31.8854 251.003 51.5903C252.952 71.8206 253.927 86.0081 253.927 94.1528C253.927 94.941 254.17 96.9771 254.658 100.261C255.145 103.283 255.388 105.253 255.388 106.173C255.388 107.092 255.876 111.033 256.85 117.996C257.727 124.301 258.166 128.374 258.166 130.213V130.41C258.166 133.3 257.386 135.139 255.827 135.927ZM246.179 98.0937C245.887 96.1233 245.741 93.693 245.741 90.8029C245.741 78.98 244.961 63.873 243.402 45.4818L241.94 24.9887C237.75 55.8597 234.875 79.1771 233.316 94.941C234.778 96.2546 239.066 97.3055 246.179 98.0937Z" fill="#6B488B"/>
<path d="M282.698 136.912C281.041 136.912 279.677 135.467 278.605 132.577C279.677 129.819 280.213 118.652 280.213 99.079C280.213 94.4812 279.969 89.4893 279.482 84.1033L279.044 78.3889C278.751 74.842 278.605 72.149 278.605 70.3099V65.1866C277.631 61.9025 275.828 55.794 273.197 46.8611C270.663 37.9282 268.617 30.4404 267.057 24.3976C265.206 17.4352 264.28 12.706 264.28 10.2101V9.22483L267.642 5.875C269.299 6.13773 271.053 9.02777 272.904 14.5451C274.464 19.4057 276.169 26.368 278.02 35.4323C279.969 44.4965 280.944 49.2914 280.944 49.8168C281.334 48.3718 282.113 43.4456 283.283 35.0382C284.452 26.6308 285.768 19.2086 287.229 12.7717C288.886 6.33478 290.592 3.11632 292.346 3.11632C293.32 3.11632 294.148 3.51042 294.831 4.29861C295.61 5.0868 296 6.07204 296 7.25434C296 13.954 294.636 23.4123 291.907 35.6293C288.984 48.8973 287.522 58.487 287.522 64.3984V123.71C287.522 132.512 285.914 136.912 282.698 136.912Z" fill="#6B488B"/>
</svg>
