<svg width="888" height="414" viewBox="0 0 888 414" fill="none" xmlns="http://www.w3.org/2000/svg">
<path d="M50.4303 393.003L49.992 369.948C49.6995 363.249 49.5534 355.761 49.5534 347.484L49.992 327.384C49.1148 323.049 46.9221 279.897 43.4139 197.925C39.9057 115.952 37.8594 63.3405 37.2747 40.0887C20.3183 39.3006 9.50139 36.936 4.82379 32.9952C1.60793 29.8423 0 26.2955 0 22.3545C0 19.2017 1.46175 16.443 4.38525 14.0784C7.6011 11.3198 10.817 9.94043 14.0328 9.94043C22.2186 9.94043 32.1585 10.7286 43.8525 12.305C54.9618 14.2755 64.9017 15.2607 73.6722 15.2607H80.6886C89.7516 15.2607 94.2828 19.9899 94.2828 29.4482C94.2828 34.1775 92.8212 38.1183 89.8977 41.271C86.9742 44.0298 83.6121 45.4092 79.8117 45.4092C77.1804 45.4092 73.38 44.8179 68.4099 43.6356L59.6394 41.271L58.7625 47.1825C58.7625 82.2573 61.2474 138.219 66.2172 215.068C70.8948 287.188 73.2336 343.149 73.2336 382.953C73.2336 387.681 71.6259 391.821 68.4099 395.367C65.4864 398.913 62.1243 400.686 58.3239 400.686L50.4303 393.003Z" fill="#6B488B"/>
<path d="M184.996 411.327C177.979 411.327 171.694 409.161 166.139 404.826C160.585 400.884 156.053 394.974 152.545 387.09C145.529 370.539 140.997 351.819 138.951 330.933C136.904 312.804 135.881 291.128 135.881 265.906C135.004 223.344 134.566 171.323 134.566 109.844L134.127 64.3254C133.835 61.9608 133.688 58.02 133.688 52.5027C133.104 37.527 132.811 28.4627 132.811 25.3099C135.443 17.0338 138.512 12.8958 142.021 12.8958C145.529 12.8958 148.598 16.4427 151.23 23.5365C154.153 30.6303 155.615 38.3151 155.615 46.5912V207.383C155.615 223.147 156.638 244.034 158.684 270.044C160.731 302.361 161.754 323.247 161.754 332.706C161.754 361.869 170.963 376.449 189.381 376.449C210.43 376.449 220.955 270.438 220.955 58.4142V19.9896C220.663 18.8073 220.516 17.2309 220.516 15.2604C220.516 10.5312 221.247 7.1814 222.709 5.21094C224.463 2.84635 227.679 1.66406 232.357 1.66406C236.157 1.66406 239.081 3.24045 241.127 6.39324C243.466 9.15192 244.928 12.5017 245.512 16.4427C245.805 18.8073 245.951 23.3394 245.951 30.039C245.951 36.3447 245.512 46.3941 244.636 60.1875C243.466 71.6163 242.882 81.4686 242.882 89.7447C242.882 98.8089 242.589 106.888 242.004 113.982L241.127 138.81V143.539C241.42 145.115 241.566 146.889 241.566 148.859C241.566 323.838 222.709 411.327 184.996 411.327Z" fill="#6B488B"/>
<path d="M316.698 410.145C312.897 410.145 309.39 408.372 306.174 404.826C303.249 401.28 301.641 396.945 301.35 391.821V364.629C301.056 361.08 300.912 356.943 300.912 352.215C300.912 343.938 300.471 331.326 299.595 314.379L298.718 276.547C298.718 257.236 299.156 228.467 300.033 190.24C301.203 155.953 301.788 127.184 301.788 103.932C301.788 98.415 301.35 90.1389 300.471 79.104C299.595 67.6752 299.156 59.3994 299.156 54.276C299.156 26.2951 305.295 12.3047 317.574 12.3047C327.222 12.3047 338.331 14.8663 350.901 19.9896C363.765 25.1129 370.197 31.2213 370.197 38.3151C370.197 42.2562 368.883 45.9999 366.252 49.5468C363.912 52.6995 360.99 55.2612 357.48 57.2316C345.201 51.3204 334.092 47.3793 324.153 45.4089C324.444 51.3204 324.591 59.7933 324.591 70.8282C324.591 86.592 324.444 100.78 324.153 113.391C323.274 132.307 322.836 146.495 322.836 155.953L324.153 165.411L331.17 164.82C333.507 164.426 336.432 164.229 339.939 164.229C353.973 164.229 360.99 169.747 360.99 180.781C360.99 185.116 359.673 188.86 357.042 192.013C354.411 194.772 351.048 196.151 346.956 196.151C341.694 196.151 337.602 195.757 334.677 194.969H323.715C324.3 205.215 324.591 220.191 324.591 239.896C324.591 259.601 324.444 277.335 324.153 293.099C323.274 317.139 322.836 335.07 322.836 346.893C322.836 368.964 323.13 379.998 323.715 379.998L338.184 379.407C343.155 379.011 349.149 378.816 356.166 378.816C367.275 378.816 372.828 383.544 372.828 393.003C372.828 398.52 370.929 402.657 367.128 405.417C363.621 408.57 359.235 410.145 353.973 410.145H316.698Z" fill="#6B488B"/>
<path d="M429.039 410.736C423.777 409.554 419.244 406.992 415.443 403.053C411.936 399.111 409.89 393.987 409.305 387.681L414.129 377.634C415.884 377.634 418.659 378.42 422.46 379.998C426.846 381.18 430.209 381.771 432.546 381.771C437.808 381.771 442.488 378.618 446.58 372.312C450.966 366.006 454.182 357.732 456.228 347.484C460.029 328.569 461.928 311.622 461.928 296.645C461.928 270.635 455.79 243.245 443.511 214.476L438.687 203.245C433.131 190.239 428.454 178.613 424.653 168.367C420.852 158.12 417.636 147.085 415.005 135.263C411.498 119.893 409.743 104.523 409.743 89.1534C409.743 71.8131 412.668 53.6847 418.515 34.7679C421.437 25.7037 425.532 18.4129 430.794 12.8955C436.347 6.98407 442.488 4.02832 449.211 4.02832C454.473 4.02832 459.297 6.39292 463.683 11.1221C468.36 15.4571 470.7 20.7775 470.7 27.083C470.7 30.63 469.674 33.3885 467.628 35.3592C465.582 37.3296 463.098 38.3148 460.173 38.3148C456.957 38.3148 453.888 37.1325 450.966 34.7679C444.534 35.1621 439.416 42.8469 435.618 57.8226C432.402 71.616 430.794 83.0448 430.794 92.109C430.794 103.538 432.108 115.164 434.739 126.987C437.37 138.415 440.733 148.859 444.825 158.317L454.473 181.963L469.821 220.979C473.916 232.014 477.129 244.822 479.469 259.403C482.1 273.985 483.417 288.763 483.417 303.741C483.417 327.78 479.322 350.637 471.138 372.312C467.043 383.346 461.196 392.214 453.597 398.913C446.286 405.615 438.102 408.963 429.039 408.963V410.736Z" fill="#6B488B"/>
<path d="M543.525 406.008C535.923 406.008 532.122 380.193 532.122 328.569L533.001 235.167C533.292 207.58 533.439 176.644 533.439 142.357C533.439 129.746 532.563 110.238 530.808 83.8335C529.347 55.0644 528.615 37.5273 528.615 31.2216C528.615 26.0984 530.223 21.5663 533.439 17.6253C536.655 13.6844 540.162 11.7139 543.963 11.7139C554.196 11.7139 563.988 14.8666 573.345 21.1722C582.993 27.0836 591.471 35.5566 598.779 46.5915C614.274 70.6314 624.507 97.0359 629.475 125.805C632.106 140.387 633.423 154.771 633.423 168.958C633.423 174.082 633.276 178.811 632.985 183.146L632.544 199.107V231.62C632.544 256.842 631.962 276.744 630.792 291.326C629.037 311.031 625.674 328.569 620.706 343.938C614.859 360.489 606.381 375.267 595.272 388.272C590.007 394.185 583.284 400.095 575.1 406.008H543.525ZM562.821 375.858C568.668 375.858 574.074 373.89 579.045 369.948C584.016 365.613 588.255 359.898 591.762 352.806C594.687 346.5 597.318 338.616 599.655 329.16C602.286 319.305 604.188 309.849 605.358 300.783C607.989 283.05 609.597 264.921 610.182 246.399C610.473 241.67 610.62 234.773 610.62 225.709C610.62 106.691 593.517 44.6211 559.311 39.4977C557.265 57.2322 556.242 77.7252 556.242 100.977C556.242 125.805 557.412 169.156 559.749 231.029C561.798 285.809 562.821 329.355 562.821 361.671V375.858Z" fill="#6B488B"/>
<path d="M767.481 407.781C760.758 407.781 755.787 406.401 752.571 403.644C749.355 400.884 747.747 395.76 747.747 388.272C747.747 376.449 746.286 356.352 743.361 327.978L741.609 315.561L698.193 306.696C696.441 315.759 693.954 334.086 690.738 361.671C688.986 380.982 686.208 393.792 682.407 400.095C680.361 403.644 677.436 405.417 673.638 405.417C670.128 405.417 666.912 404.037 663.99 401.28C661.065 398.127 659.604 394.383 659.604 390.048L660.48 387.09L660.918 384.726C680.214 283.444 694.833 183.54 704.772 85.0158C704.772 83.4396 704.919 80.8779 705.21 77.331C705.504 73.3902 705.795 67.8726 706.086 60.7788C706.965 46.1973 707.841 34.5714 708.72 25.9014C709.887 17.2312 711.642 10.7286 713.982 6.39355H728.892C732.984 6.39355 736.491 7.7729 739.416 10.5315C742.338 12.8961 743.802 16.443 743.802 21.1722C743.802 51.1236 746.871 95.6565 753.009 154.771C758.856 215.462 761.781 258.025 761.781 282.459C761.781 284.823 762.51 290.932 763.974 300.783C765.435 309.849 766.164 315.759 766.164 318.519C766.164 321.276 767.628 333.099 770.55 353.988C773.181 372.903 774.498 385.122 774.498 390.639V391.23C774.498 399.9 772.158 405.417 767.481 407.781ZM738.537 294.281C737.661 288.37 737.223 281.079 737.223 272.409C737.223 236.94 734.883 191.619 730.206 136.446L725.82 74.9664C713.25 167.579 704.625 237.532 699.948 284.823C704.334 288.764 717.198 291.917 738.537 294.281Z" fill="#6B488B"/>
<path d="M848.094 410.736C843.123 410.736 839.031 406.401 835.815 397.731C839.031 389.457 840.639 355.956 840.639 297.237C840.639 283.443 839.907 268.468 838.446 252.31L837.132 235.166C836.253 224.526 835.815 216.447 835.815 210.929V195.559C832.893 185.707 827.484 167.382 819.591 140.583C811.989 113.784 805.851 91.3209 801.171 73.1925C795.618 52.3053 792.84 38.1177 792.84 30.63V27.6742L802.926 17.6247C807.897 18.4129 813.159 27.083 818.712 43.635C823.392 58.2168 828.507 79.1037 834.06 106.297C839.907 133.489 842.832 147.874 842.832 149.45C844.002 145.115 846.339 130.336 849.849 105.114C853.356 79.8921 857.304 57.6255 861.687 38.3148C866.658 19.004 871.776 9.34863 877.038 9.34863C879.96 9.34863 882.444 10.5309 884.493 12.8955C886.83 15.2601 888 18.2158 888 21.7627C888 41.8617 883.908 70.2366 875.721 106.888C866.952 146.692 862.566 175.461 862.566 193.195V371.13C862.566 397.536 857.742 410.736 848.094 410.736Z" fill="#6B488B"/>
</svg>
