<svg width="870" height="852" viewBox="0 0 870 852" fill="none" xmlns="http://www.w3.org/2000/svg">
<g clip-path="url(#clip0_1105_2265)">
<path d="M68.6463 229.079C76.2717 172.716 124.796 130.931 181.667 131.756L403.08 134.967C412.302 135.101 421.005 130.7 426.363 123.192L511.452 3.94065C514.239 0.032601 520.329 1.19414 521.481 5.85432L551.388 126.642C552.921 132.838 558.441 137.221 564.822 137.314L746.445 139.949C806.736 140.823 855.597 189.112 857.181 249.387L869.955 735.24C871.62 798.639 820.536 850.866 757.116 850.599L113.091 847.89C45.2133 847.605 -6.92697 787.68 2.17336 720.417L68.6463 229.079Z" fill="#E7B545"/>
<path d="M851.563 249.537L864.337 735.389C865.921 795.62 817.39 845.234 757.141 844.979L113.115 842.273C48.6315 842 -0.901569 785.072 7.74375 721.172L74.2167 229.834C81.4608 176.29 127.559 136.594 181.586 137.377L403 140.589C414.067 140.75 424.51 135.468 430.939 126.458L516.028 7.20703L545.935 127.994C548.08 136.669 555.808 142.806 564.742 142.936L746.365 145.57C803.641 146.401 850.057 192.275 851.563 249.537Z" stroke="black" stroke-opacity="0.1" stroke-width="11.2405"/>
</g>
<defs>
<clipPath id="clip0_1105_2265">
<rect width="870" height="852" fill="white"/>
</clipPath>
</defs>
</svg>
