<svg width="290" height="284" viewBox="0 0 290 284" fill="none" xmlns="http://www.w3.org/2000/svg">
<path d="M22.882 76.3605C25.4238 57.5728 41.5987 43.6444 60.5556 43.9194L134.36 44.99C137.434 45.0346 140.335 43.5676 142.121 41.0647L170.484 1.31441C171.413 0.0117278 173.443 0.398906 173.827 1.9523L183.796 42.2147C184.307 44.2801 186.147 45.7413 188.274 45.7722L248.815 46.6504C268.912 46.9419 285.199 63.0381 285.727 83.13L289.985 245.081C290.54 266.214 273.512 283.623 252.372 283.534L37.6968 282.631C15.071 282.536 -2.30909 262.561 0.724353 240.14L22.882 76.3605Z" fill="#E7B545"/>
<path d="M283.854 83.1793L288.112 245.13C288.64 265.207 272.463 281.745 252.38 281.66L37.7047 280.758C16.2101 280.667 -0.300913 261.691 2.58086 240.391L24.7385 76.6116C27.1532 58.7634 42.5194 45.5314 60.5284 45.7926L134.333 46.8633C138.022 46.9168 141.503 45.1563 143.646 42.1528L172.009 2.40255L181.978 42.665C182.693 45.5565 185.269 47.6022 188.247 47.6454L248.788 48.5236C267.88 48.8005 283.352 64.092 283.854 83.1793Z" stroke="black" stroke-opacity="0.1" stroke-width="3.74684"/>
</svg>
