<svg width="296" height="137" viewBox="0 0 296 137" fill="none" xmlns="http://www.w3.org/2000/svg">
<path d="M73.1643 125.219C78.0004 125.219 82.8365 121.535 87.8286 116.274C92.5087 111.362 101.401 99.6108 108.265 89.9639C110.761 86.4559 110.137 81.5448 107.329 79.9662C105.145 78.563 102.649 79.44 100.153 82.7726C98.9048 84.702 84.3965 103.47 82.5245 105.574C81.1204 107.153 77.2204 111.889 76.5963 111.012C76.2843 110.485 78.9364 98.5584 79.4044 96.9798C80.6524 92.4195 85.1765 75.9321 85.9565 72.7749C87.6726 65.5836 90.0126 58.0415 84.7085 53.8319C80.4964 50.1486 74.2563 53.8319 68.7962 58.2169C65.2081 61.1987 54.7559 73.8273 54.4439 73.8273C53.9759 73.8273 54.7559 71.1963 54.9119 70.3193C56.3159 63.6542 56.0039 58.2169 52.2599 55.7613C44.1477 50.6748 31.0434 64.5312 20.9032 78.0368C22.9313 71.5471 22.4633 72.7749 25.7393 63.128C26.9873 59.2693 25.7393 55.7613 22.9313 54.7089C17.0032 52.2534 15.5991 59.6201 10.919 73.8273C7.33096 84.5266 3.74289 96.2782 0.778828 108.205C-0.469196 113.643 -0.6252 117.677 3.43088 119.782C7.64297 121.886 10.295 117.326 13.4151 111.187C17.1592 103.996 21.3712 96.8044 25.8953 89.9639C30.4194 83.1234 41.6516 69.4423 44.1477 69.4423C45.5517 69.4423 41.4956 80.8432 39.7796 86.2805C38.9996 88.7361 34.1635 105.925 32.6035 110.836C31.1994 115.747 31.6674 119.782 35.2555 121.185C37.4396 122.062 39.4676 121.36 40.8716 119.255C44.7717 113.467 50.2318 98.9092 59.592 85.5789C63.1801 80.4924 68.6402 74.7043 74.1003 68.5654C75.8163 66.636 77.3764 65.4082 76.2843 68.9162C74.7243 74.0027 73.9443 76.4583 72.0722 83.825C67.2362 102.417 66.1441 106.977 65.5201 113.292C64.8961 119.782 67.7042 125.219 73.1643 125.219Z" fill="#186F81"/>
<path d="M136.098 122.763C139.374 122.763 141.246 120.659 140.31 113.467C138.126 96.4536 140.31 84.8774 144.366 66.2852C145.926 59.4447 141.714 52.078 134.537 50.8502C116.129 47.8684 99.4368 75.7567 95.8487 101.365C94.7567 108.907 96.9407 118.203 102.713 120.659C107.861 122.939 112.697 118.729 116.909 113.993C122.057 108.205 127.361 97.3306 129.389 94.5242L129.233 104.697C129.233 108.731 129.233 112.239 130.169 117.501C130.793 121.711 132.977 122.763 136.098 122.763ZM106.457 107.854C105.677 107.854 105.989 102.943 106.457 100.663C109.265 87.3329 113.945 75.9321 122.213 67.513C125.489 64.1804 128.921 62.6018 132.665 62.6018C133.601 62.6018 134.381 63.4788 133.601 64.3558C127.049 71.7225 111.293 107.854 106.457 107.854Z" fill="#186F81"/>
<path d="M170.202 136.795C173.167 136.795 175.975 133.638 174.883 129.253C173.947 125.57 174.571 122.062 175.351 118.729C178.783 103.996 181.591 102.768 185.491 89.7885C186.115 87.6837 187.207 85.0528 187.207 82.2464C187.207 76.2829 182.995 71.7225 177.691 72.7749C177.223 72.7749 173.323 73.8273 173.323 73.8273C173.323 73.6519 177.847 65.9344 178.939 59.6201C180.031 53.4811 181.123 46.816 176.131 42.9573C173.947 41.3787 171.45 41.0279 168.642 41.9049C161.31 44.1851 153.198 56.6383 150.546 67.3376C148.674 74.5289 148.518 81.3694 152.73 86.1051C158.814 92.9457 164.274 90.1393 174.571 85.9297C175.195 85.579 175.507 86.2805 175.351 86.9821C175.507 86.1051 167.55 107.153 166.614 110.31C164.43 117.852 162.246 127.499 165.21 133.112C166.458 135.392 168.174 136.795 170.202 136.795ZM160.374 72.4241C161.622 65.759 163.182 61.7248 168.33 55.9367C168.954 55.2351 168.954 55.4105 168.798 56.2875C167.238 63.6542 164.43 69.0916 160.374 72.4241Z" fill="#186F81"/>
<path d="M210.624 122.412C218.268 122.412 227.472 114.87 234.336 107.153C236.52 103.996 237.768 101.891 235.74 98.7338C234.18 96.4536 231.372 96.1028 228.876 97.506C225.132 99.9616 217.176 110.135 210.468 110.661C203.916 111.187 203.604 103.82 205.164 94.6996C207.504 81.5448 211.872 71.1963 219.204 62.9526C220.608 61.3741 223.728 58.2169 224.82 58.7431C225.912 59.0939 226.38 63.6542 226.848 65.0574C227.784 67.513 229.812 69.0916 231.84 68.7408C234.336 68.39 236.676 65.9344 236.676 61.374C236.676 57.1645 235.116 53.6565 233.088 50.8502C229.968 46.4652 225.132 45.2375 220.452 47.5176C205.788 54.7089 193.931 79.9662 193.931 101.365C193.931 114.52 199.235 122.412 210.624 122.412Z" fill="#186F81"/>
<path d="M238.584 121.535C244.668 124.868 244.356 116.449 255.9 96.1028C261.048 87.1575 266.04 80.317 271.344 74.5289C275.712 69.9685 283.513 62.9526 285.229 64.882C286.321 66.1098 284.449 72.0733 280.08 85.7543C277.896 92.9457 274.932 100.137 273.84 107.854C273.06 112.941 272.592 119.431 277.74 119.782C281.016 120.132 283.045 117.326 283.669 112.415C284.917 102.768 291.625 85.0528 294.277 75.7567C296.617 67.1622 297.085 58.5677 292.405 54.3581C288.973 51.0256 281.484 52.4288 277.896 54.7089L274.62 56.6383C275.556 54.5335 279.144 48.0438 282.889 39.8001C285.853 33.3104 288.193 26.2945 290.221 18.577C291.937 11.9119 291.781 3.49277 286.165 0.861795C279.924 -2.29537 272.592 7.00073 266.82 16.9984C256.056 35.9414 249.504 62.4264 240.768 94.1734C239.052 100.312 237.648 106.451 235.776 112.59C234.684 116.274 234.684 119.431 238.584 121.535ZM263.076 54.5335C264.948 35.9414 276.024 14.7182 279.612 14.7182C283.045 14.7182 273.528 44.3605 263.076 54.5335Z" fill="#186F81"/>
</svg>
