<svg width="888" height="411" viewBox="0 0 888 411" fill="none" xmlns="http://www.w3.org/2000/svg">
<g clip-path="url(#clip0_1105_1721)">
<path d="M219.493 375.658C234.001 375.658 248.509 364.606 263.486 348.823C277.526 334.087 304.203 298.833 324.795 269.892C332.283 259.368 330.411 244.635 321.987 239.899C315.435 235.69 307.947 238.321 300.459 248.318C296.714 254.107 253.189 310.411 247.573 316.723C243.361 321.46 231.661 335.668 229.789 333.037C228.853 331.456 236.809 295.676 238.213 290.94C241.957 277.259 255.529 227.797 257.87 218.325C263.018 196.751 270.038 174.125 254.126 161.496C241.489 150.446 222.769 161.496 206.389 174.651C195.624 183.597 164.268 221.483 163.332 221.483C161.928 221.483 164.268 213.59 164.736 210.959C168.948 190.963 168.012 174.651 156.78 167.285C132.443 152.025 93.1302 193.594 62.7096 234.111C68.7939 214.642 67.3899 218.325 77.2179 189.385C80.9619 177.809 77.2179 167.285 68.7939 164.127C51.0096 156.761 46.7973 178.861 32.757 221.483C21.9929 253.58 11.2287 288.835 2.33648 324.616C-1.40759 340.93 -1.8756 353.032 10.2926 359.347C22.9289 365.659 30.885 351.979 40.2453 333.562C51.4776 311.989 64.1136 290.414 77.6859 269.892C91.2582 249.371 124.955 208.328 132.443 208.328C136.655 208.328 124.487 242.53 119.339 258.842C116.999 266.209 102.491 317.776 97.8105 332.509C93.5982 347.242 95.0022 359.347 105.767 363.556C112.319 366.187 118.403 364.081 122.615 357.766C134.315 340.402 150.695 296.728 178.776 256.737C189.54 241.478 205.921 224.114 222.301 205.697C227.449 199.909 232.129 196.225 228.853 206.749C224.173 222.009 221.833 229.376 216.217 251.476C201.709 307.252 198.432 320.932 196.56 339.877C194.688 359.347 203.113 375.658 219.493 375.658Z" fill="#186F81"/>
<path d="M408.294 368.289C418.122 368.289 423.738 361.977 420.93 340.401C414.378 289.361 420.93 254.632 433.098 198.855C437.778 178.334 425.142 156.234 403.611 152.55C348.387 143.605 298.31 227.27 287.546 304.095C284.27 326.721 290.822 354.609 308.139 361.977C323.583 368.817 338.091 356.187 350.727 341.979C366.171 324.615 382.083 291.992 388.167 283.572L387.699 314.091C387.699 326.193 387.699 336.717 390.507 352.503C392.379 365.133 398.931 368.289 408.294 368.289ZM319.371 323.562C317.031 323.562 317.967 308.829 319.371 301.989C327.795 261.998 341.835 227.796 366.639 202.539C376.467 192.541 386.763 187.805 397.995 187.805C400.803 187.805 403.143 190.436 400.803 193.067C381.147 215.167 333.879 323.562 319.371 323.562Z" fill="#186F81"/>
<path d="M510.606 410.386C519.501 410.386 527.925 400.915 524.649 387.76C521.841 376.711 523.713 366.187 526.053 356.188C536.349 311.989 544.773 308.305 556.473 269.367C558.345 263.053 561.621 255.16 561.621 246.741C561.621 228.85 548.985 215.169 533.073 218.326C531.669 218.326 519.969 221.483 519.969 221.483C519.969 220.957 533.541 197.805 536.817 178.862C540.093 160.445 543.369 140.449 528.393 128.873C521.841 124.138 514.35 123.085 505.926 125.716C483.93 132.557 459.594 169.916 451.638 202.014C446.022 223.588 445.554 244.11 458.19 258.317C476.442 278.839 492.822 270.419 523.713 257.791C525.585 256.738 526.521 258.843 526.053 260.948C526.521 258.317 502.65 321.46 499.842 330.931C493.29 353.557 486.738 382.498 495.63 399.337C499.374 406.177 504.522 410.386 510.606 410.386ZM481.122 217.274C484.866 197.278 489.546 185.176 504.99 167.812C506.862 165.707 506.862 166.233 506.394 168.864C501.714 190.964 493.29 207.276 481.122 217.274Z" fill="#186F81"/>
<path d="M631.872 367.237C654.804 367.237 682.416 344.611 703.008 321.46C709.56 311.989 713.304 305.674 707.22 296.202C702.54 289.361 694.116 288.309 686.628 292.519C675.396 299.885 651.528 330.406 631.404 331.984C611.748 333.562 610.812 311.461 615.492 284.099C622.512 244.635 635.616 213.589 657.612 188.858C661.824 184.123 671.184 174.651 674.46 176.23C677.736 177.282 679.14 190.963 680.544 195.173C683.352 202.54 689.436 207.275 695.52 206.223C703.008 205.171 710.028 197.804 710.028 184.123C710.028 171.494 705.348 160.97 699.264 152.551C689.904 139.396 675.396 135.713 661.356 142.553C617.364 164.127 581.793 239.899 581.793 304.096C581.793 343.561 597.705 367.237 631.872 367.237Z" fill="#186F81"/>
<path d="M715.752 364.606C734.004 374.605 733.068 349.348 767.7 288.309C783.144 261.473 798.12 240.952 814.032 223.587C827.136 209.906 850.539 188.859 855.687 194.647C858.963 198.33 853.347 216.221 840.24 257.264C833.688 278.838 824.796 300.412 821.52 323.563C819.18 338.824 817.776 358.294 833.22 359.347C843.048 360.397 849.135 351.979 851.007 337.246C854.751 308.305 874.875 255.159 882.831 227.271C889.851 201.487 891.255 175.704 877.215 163.075C866.919 153.078 844.452 157.287 833.688 164.127L823.86 169.916C826.668 163.601 837.432 144.132 848.667 119.401C857.559 99.9319 864.579 78.8842 870.663 55.7317C875.811 35.7364 875.343 10.479 858.495 2.58612C839.772 -6.88537 817.776 21.0029 800.46 50.9959C768.168 107.825 748.512 187.28 722.304 282.521C717.156 300.937 712.944 319.354 707.328 337.771C704.052 348.823 704.052 358.294 715.752 364.606ZM789.228 163.601C794.844 107.825 828.072 44.1553 838.836 44.1553C849.135 44.1553 820.584 133.082 789.228 163.601Z" fill="#186F81"/>
</g>
<defs>
<clipPath id="clip0_1105_1721">
<rect width="888" height="411" fill="white"/>
</clipPath>
</defs>
</svg>
