<svg width="888" height="414" viewBox="0 0 888 414" fill="none" xmlns="http://www.w3.org/2000/svg">
<g clip-path="url(#clip0_1105_2116)">
<path d="M41.1345 389.053C38.0418 389.053 35.5674 386.689 33.7119 381.964C32.0622 376.9 31.2375 370.822 31.2375 363.733C31.2375 352.591 31.65 338.92 32.4747 322.714L33.0933 309.547L33.7119 282.709C33.7119 270.893 32.9901 244.56 31.5468 203.71C30.1035 162.861 29.3818 136.528 29.3818 124.712C29.3818 123.699 29.3818 121.842 29.3818 119.141C29.588 116.103 29.6911 111.545 29.6911 105.468C29.8973 98.7162 30.0003 90.4452 30.0003 80.6547C30.0003 56.0097 28.9694 40.3113 26.9075 33.5592C25.6704 33.5592 22.99 34.0656 18.8662 35.0784L10.2063 36.0912C7.52586 36.0912 5.15469 34.9095 3.09282 32.5464C1.03094 29.8455 0 26.4694 0 22.4182C0 18.367 2.47426 14.8222 7.42278 11.7838C14.6394 7.73252 26.9076 4.8629 44.2275 3.17489C51.2379 2.49971 55.4646 2.16211 56.9079 2.16211C59.3823 2.16211 61.6503 3.51251 63.7122 6.21335C65.7741 8.91413 66.8049 12.2902 66.8049 16.3414C66.8049 20.3926 65.877 23.7686 64.0215 26.4694C62.3718 28.8327 60.207 30.0144 57.5265 30.0144L51.9594 29.5079C50.31 29.1703 48.4542 29.0014 46.3923 29.0014H43.2996C44.7429 51.9585 45.4644 72.7209 45.4644 91.2891L45.1551 123.699C44.949 133.489 44.8458 144.461 44.8458 156.615C44.8458 172.82 45.2583 192.232 46.083 214.851C47.1141 242.872 47.6295 262.285 47.6295 273.088C47.6295 285.916 48.0417 301.108 48.8667 318.664C49.6914 336.556 50.1036 351.748 50.1036 364.24C50.1036 380.782 47.1141 389.053 41.1345 389.053Z" fill="#5A8551"/>
<path d="M135.376 395.13C130.015 395.13 125.066 392.259 120.53 386.52C115.994 381.12 112.283 373.692 109.396 364.239C103.417 343.644 99.7052 321.195 98.2619 296.887C96.4064 273.93 95.4785 251.817 95.4785 230.548C95.4785 226.497 95.5814 223.121 95.7878 220.42V211.305C95.7878 209.617 95.6846 208.773 95.4785 208.773V199.658L95.7878 164.209C95.9939 153.406 96.8186 136.188 98.2619 112.556C99.293 96.3513 101.664 80.6529 105.376 65.4606C106.819 58.7088 108.675 53.6445 110.943 50.2686C113.211 46.5549 115.788 44.6982 118.675 44.6982C126.922 44.6982 134.345 47.2302 140.943 52.2942C147.541 57.0207 153.108 63.7728 157.644 72.5505C161.768 80.9904 165.273 91.4562 168.16 103.947C171.046 116.101 173.108 129.099 174.346 142.94C175.582 157.12 176.201 172.143 176.201 188.01V192.062C176.201 202.527 176.304 211.98 176.51 220.42L176.82 249.285C176.82 346.515 163.005 395.13 135.376 395.13ZM134.139 373.86C137.85 373.86 141.252 371.496 144.345 366.771C147.438 361.707 149.809 354.954 151.459 346.515C155.376 329.298 157.747 310.728 158.572 290.81C159.603 273.592 160.118 258.738 160.118 246.247C160.118 231.055 159.397 211.136 157.954 186.491C156.716 160.496 156.098 141.084 156.098 128.255V119.139C155.686 106.311 153.005 95.1696 148.057 85.7169C143.314 76.2639 137.438 71.5377 130.427 71.5377C123.417 71.5377 118.778 78.1209 116.51 91.2873C114.448 101.753 113.417 115.257 113.417 131.8C113.417 138.214 113.52 143.616 113.726 148.004V161.677L113.107 184.972C112.695 192.062 112.489 199.826 112.489 208.266C112.489 226.497 112.798 244.559 113.417 262.451C114.241 287.772 116.303 312.417 119.602 336.387C122.902 361.368 127.747 373.86 134.139 373.86Z" fill="#5A8551"/>
<path d="M335.282 411.84C328.892 411.84 325.694 401.376 325.694 380.445V315.624C325.694 298.743 324.974 276.63 323.531 249.285C321.881 218.563 321.056 197.463 321.056 185.985L321.674 154.587C322.088 145.472 322.292 135.175 322.292 123.697C321.467 128.086 318.065 151.38 312.086 193.581C306.107 234.43 299.921 272.242 293.53 307.014C287.344 340.437 282.293 357.15 278.375 357.15C274.457 357.15 271.262 355.293 268.787 351.579C266.519 347.526 265.385 342.126 265.385 335.373C265.385 320.52 261.674 288.953 254.251 240.676C247.034 192.399 240.436 152.899 234.457 122.178L232.601 179.401C230.952 227.678 229.817 267.853 229.199 299.925C228.787 330.984 228.581 352.254 228.581 363.732C228.581 366.432 228.683 368.964 228.89 371.328V378.417C228.89 384.156 228.168 388.377 226.725 391.077C225.281 394.116 222.601 395.637 218.684 395.637C216.622 395.637 214.663 394.284 212.807 391.584C210.951 389.22 210.023 386.52 210.023 383.481C210.023 349.047 211.57 297.393 214.663 228.522C217.756 159.651 219.302 107.998 219.302 73.5628C218.065 70.5247 217.446 67.3174 217.446 63.9412C217.446 59.89 218.58 56.8516 220.848 54.826C223.323 52.4629 226.209 51.2812 229.508 51.2812C232.189 51.2812 237.137 67.1485 244.354 98.8831C251.57 130.618 258.787 166.572 266.004 206.747C273.22 246.922 277.859 275.955 279.921 293.848C281.571 284.733 282.911 276.293 283.942 268.528L285.798 256.374C292.396 209.11 298.994 166.404 305.591 128.255C309.509 104.96 313.325 86.7295 317.036 73.5628C320.747 59.3836 324.149 52.294 327.242 52.294C330.128 52.294 332.705 53.6443 334.973 56.3452C337.448 58.7086 338.684 61.9156 338.684 65.9668C338.684 90.2743 339.302 126.735 340.541 175.35C341.984 220.589 342.704 255.699 342.704 280.682L342.395 307.521L341.777 334.362C341.777 338.412 342.086 344.49 342.704 352.593L343.634 370.317C343.838 373.353 343.943 375.717 343.943 377.406C344.15 379.092 344.252 380.106 344.252 380.445C345.284 384.834 345.797 388.041 345.797 390.066C345.797 395.805 344.768 400.869 342.704 405.258C340.643 409.647 338.168 411.84 335.282 411.84Z" fill="#5A8551"/>
<path d="M420.194 395.13C414.833 395.13 409.886 392.259 405.35 386.52C400.814 381.12 397.103 373.692 394.214 364.239C388.235 343.644 384.524 321.195 383.081 296.887C381.227 273.93 380.297 251.817 380.297 230.548C380.297 226.497 380.402 223.121 380.606 220.42V211.305C380.606 209.617 380.504 208.773 380.297 208.773V199.658L380.606 164.209C380.813 153.406 381.638 136.188 383.081 112.556C384.113 96.3513 386.483 80.6529 390.194 65.4606C391.637 58.7088 393.494 53.6445 395.762 50.2686C398.03 46.5549 400.607 44.6982 403.493 44.6982C411.74 44.6982 419.165 47.2302 425.762 52.2942C432.359 57.0207 437.927 63.7728 442.463 72.5505C446.588 80.9904 450.092 91.4562 452.978 103.947C455.867 116.101 457.928 129.099 459.164 142.94C460.403 157.12 461.021 172.143 461.021 188.01V192.062C461.021 202.527 461.123 211.98 461.33 220.42L461.639 249.285C461.639 346.515 447.824 395.13 420.194 395.13ZM418.958 373.86C422.669 373.86 426.071 371.496 429.164 366.771C432.257 361.707 434.627 354.954 436.277 346.515C440.195 329.298 442.568 310.728 443.39 290.81C444.422 273.592 444.938 258.738 444.938 246.247C444.938 231.055 444.215 211.136 442.772 186.491C441.536 160.496 440.918 141.084 440.918 128.255V119.139C440.504 106.311 437.825 95.1696 432.875 85.7169C428.132 76.2639 422.258 71.5377 415.247 71.5377C408.236 71.5377 403.598 78.1209 401.33 91.2873C399.266 101.753 398.237 115.257 398.237 131.8C398.237 138.214 398.339 143.616 398.546 148.004V161.677L397.928 184.972C397.514 192.062 397.307 199.826 397.307 208.266C397.307 226.497 397.619 244.559 398.237 262.451C399.062 287.772 401.123 312.417 404.423 336.387C407.72 361.368 412.565 373.86 418.958 373.86Z" fill="#5A8551"/>
<path d="M549.586 394.115C545.05 394.115 540.925 386.012 537.214 369.809C532.885 352.253 529.69 334.19 527.626 315.623L525.463 298.406C519.481 250.129 515.668 222.614 514.018 215.862H510.307C510.307 225.653 510.205 234.599 509.998 242.702V270.554C509.998 315.791 511.957 351.071 515.875 376.391L512.473 390.065H503.812L499.792 382.469L500.101 348.539C500.101 318.155 499.174 272.073 497.317 210.292C495.667 144.459 494.842 98.3766 494.842 72.0438C494.842 55.8387 498.244 47.7363 505.048 47.7363C516.184 47.7363 525.256 52.4628 532.267 61.9155C539.482 71.3685 543.091 84.5349 543.091 101.415V136.863C543.091 141.927 542.575 147.835 541.546 154.587C540.514 161.002 539.38 166.235 538.141 170.286L532.267 188.516L527.317 203.708L528.865 215.862L533.194 251.817C536.08 277.812 538.864 298.912 541.546 315.116C544.225 331.322 547.525 346.007 551.443 359.174L553.297 365.252C555.358 372.002 556.39 377.405 556.39 381.455C556.39 384.83 555.772 387.701 554.533 390.065C553.297 392.765 551.647 394.115 549.586 394.115ZM511.543 191.048C516.079 187.335 519.895 177.207 522.988 160.664C526.288 143.784 527.935 128.255 527.935 114.075C527.935 103.272 527.11 93.1437 525.463 83.691C524.431 78.2892 522.679 74.238 520.204 71.5374C517.936 68.4987 515.05 66.9795 511.543 66.9795L510.925 69.5115L510.307 74.0694L510.925 133.825C511.339 151.38 511.543 170.455 511.543 191.048Z" fill="#5A8551"/>
<path d="M640.799 394.115C636.263 394.115 632.138 386.012 628.427 369.809C624.098 352.253 620.9 334.19 618.839 315.623L616.673 298.406C610.694 250.129 606.881 222.614 605.231 215.862H601.52C601.52 225.653 601.415 234.599 601.211 242.702V270.554C601.211 315.791 603.17 351.071 607.085 376.391L603.683 390.065H595.025L591.005 382.469L591.314 348.539C591.314 318.155 590.384 272.073 588.53 210.292C586.88 144.459 586.055 98.3766 586.055 72.0438C586.055 55.8387 589.457 47.7363 596.261 47.7363C607.394 47.7363 616.469 52.4628 623.477 61.9155C630.695 71.3685 634.304 84.5349 634.304 101.415V136.863C634.304 141.927 633.788 147.835 632.756 154.587C631.727 161.002 630.593 166.235 629.354 170.286L623.477 188.516L618.53 203.708L620.075 215.862L624.407 251.817C627.293 277.812 630.077 298.912 632.756 315.116C635.438 331.322 638.735 346.007 642.653 359.174L644.51 365.252C646.571 372.002 647.603 377.405 647.603 381.455C647.603 384.83 646.985 387.701 645.746 390.065C644.51 392.765 642.86 394.115 640.799 394.115ZM602.756 191.048C607.292 187.335 611.108 177.207 614.201 160.664C617.498 143.784 619.148 128.255 619.148 114.075C619.148 103.272 618.323 93.1437 616.673 83.691C615.644 78.2892 613.889 74.238 611.417 71.5374C609.149 68.4987 606.26 66.9795 602.756 66.9795L602.138 69.5115L601.52 74.0694L602.138 133.825C602.549 151.38 602.756 170.455 602.756 191.048Z" fill="#5A8551"/>
<path d="M714.077 395.13C708.716 395.13 703.766 392.259 699.23 386.52C694.694 381.12 690.983 373.692 688.097 364.239C682.118 343.644 678.407 321.195 676.964 296.887C675.107 273.93 674.18 251.817 674.18 230.548C674.18 226.497 674.282 223.121 674.489 220.42V211.305C674.489 209.617 674.384 208.773 674.18 208.773V199.658L674.489 164.209C674.696 153.406 675.521 136.188 676.964 112.556C677.993 96.3513 680.366 80.6529 684.077 65.4606C685.52 58.7088 687.374 53.6445 689.642 50.2686C691.91 46.5549 694.49 44.6982 697.376 44.6982C705.623 44.6982 713.045 47.2302 719.645 52.2942C726.242 57.0207 731.81 63.7728 736.346 72.5505C740.468 80.9904 743.975 91.4562 746.861 103.947C749.747 116.101 751.808 129.099 753.047 142.94C754.283 157.12 754.901 172.143 754.901 188.01V192.062C754.901 202.527 755.006 211.98 755.21 220.42L755.522 249.285C755.522 346.515 741.707 395.13 714.077 395.13ZM712.841 373.86C716.552 373.86 719.954 371.496 723.047 366.771C726.14 361.707 728.51 354.954 730.16 346.515C734.078 329.298 736.448 310.728 737.273 290.81C738.305 273.592 738.818 258.738 738.818 246.247C738.818 231.055 738.098 211.136 736.655 186.491C735.416 160.496 734.798 141.084 734.798 128.255V119.139C734.387 106.311 731.705 95.1696 726.758 85.7169C722.015 76.2639 716.138 71.5377 709.127 71.5377C702.119 71.5377 697.478 78.1209 695.21 91.2873C693.149 101.753 692.117 115.257 692.117 131.8C692.117 138.214 692.222 143.616 692.426 148.004V161.677L691.808 184.972C691.397 192.062 691.19 199.826 691.19 208.266C691.19 226.497 691.499 244.559 692.117 262.451C692.942 287.772 695.003 312.417 698.303 336.387C701.603 361.368 706.448 373.86 712.841 373.86Z" fill="#5A8551"/>
<path d="M811.918 396.141C807.793 396.141 804.187 386.013 801.094 365.757C798.412 347.865 796.144 325.752 794.29 299.419C792.64 272.749 790.885 239.157 789.031 198.645C787.999 172.312 786.556 144.123 784.702 114.076C783.256 89.0933 781.504 73.0574 779.443 65.9675C781.3 59.8907 784.288 56.8523 788.413 56.8523C795.01 56.8523 798.31 67.9931 798.31 90.275C798.31 116.608 800.473 155.094 804.805 205.735C809.134 256.038 811.609 292.667 812.227 315.624L813.772 298.407C815.836 275.787 817.588 254.518 819.031 234.6C820.681 214.344 822.022 192.568 823.051 169.274C824.494 143.278 825.217 117.621 825.217 92.3006L833.566 86.2238C836.248 86.2238 838.414 87.4052 840.061 89.7686C841.918 91.7942 842.845 94.8326 842.845 98.8838V102.935C846.145 121.841 848.824 142.603 850.888 165.222C853.156 187.504 855.115 213.837 856.765 244.221C858.001 267.516 859.444 289.291 861.094 309.546C865.012 264.309 866.971 208.605 866.971 142.434C866.971 131.969 867.796 119.14 869.443 103.948C870.886 88.418 871.609 75.758 871.609 65.9675C870.991 62.9291 870.682 60.0596 870.682 57.3587C870.682 49.2563 873.775 45.2051 879.961 45.2051C882.433 45.2051 884.392 46.2179 885.835 48.2435C887.278 50.2691 888.001 53.1386 888.001 56.8523V64.4483C888.001 69.5123 887.692 73.9013 887.074 77.615V80.147C884.392 93.6509 883.054 109.181 883.054 126.736V163.703C883.054 184.972 881.506 216.707 878.413 258.907C875.113 300.093 873.466 330.816 873.466 351.072V360.189C873.466 367.953 872.95 374.535 871.918 379.938C870.682 386.688 867.691 390.066 862.948 390.066C859.651 390.066 857.074 388.377 855.217 385.002C853.567 381.288 852.742 376.731 852.742 371.328C852.742 343.983 850.99 308.535 847.486 264.984C845.629 245.403 843.67 225.653 841.609 205.735L836.659 152.562C835.834 162.353 835.423 171.975 835.423 181.428C835.423 200.333 834.598 225.316 832.948 256.375C831.298 287.434 828.721 317.649 825.217 347.022C821.299 379.767 816.865 396.141 811.918 396.141Z" fill="#5A8551"/>
</g>
<defs>
<clipPath id="clip0_1105_2116">
<rect width="888" height="414" fill="white"/>
</clipPath>
</defs>
</svg>
