<svg width="296" height="138" viewBox="0 0 296 138" fill="none" xmlns="http://www.w3.org/2000/svg">
<path d="M13.7115 129.684C12.6806 129.684 11.8558 128.896 11.2373 127.321C10.6874 125.633 10.4125 123.607 10.4125 121.244C10.4125 117.53 10.55 112.973 10.8249 107.571L11.0311 103.182L11.2373 94.236C11.2373 90.2973 10.9967 81.5196 10.5156 67.903C10.0345 54.2864 9.79394 45.5087 9.79394 41.5701C9.79394 41.2325 9.79394 40.6135 9.79394 39.7132C9.86267 38.7004 9.89703 37.1812 9.89703 35.1556C9.96576 32.9049 10.0001 30.1479 10.0001 26.8844C10.0001 18.6694 9.65648 13.4366 8.96918 11.1859C8.55681 11.1859 7.66333 11.3547 6.28874 11.6923L3.4021 12.0299C2.50862 12.0299 1.71823 11.636 1.03094 10.8483C0.343647 9.948 0 8.82266 0 7.47226C0 6.12185 0.824753 4.94024 2.47426 3.92743C4.87979 2.57702 8.96919 1.62048 14.7425 1.05781C17.0793 0.832747 18.4882 0.720215 18.9693 0.720215C19.7941 0.720215 20.5501 1.17035 21.2374 2.07063C21.9247 2.97089 22.2683 4.09623 22.2683 5.44664C22.2683 6.79705 21.959 7.92239 21.3405 8.82266C20.7906 9.6104 20.069 10.0043 19.1755 10.0043L17.3198 9.83547C16.77 9.72293 16.1514 9.66666 15.4641 9.66666H14.4332C14.9143 17.319 15.1548 24.2398 15.1548 30.4292L15.0517 41.2325C14.983 44.4959 14.9486 48.1533 14.9486 52.2045C14.9486 57.6061 15.0861 64.0769 15.361 71.6166C15.7047 80.957 15.8765 87.4277 15.8765 91.0287C15.8765 95.305 16.0139 100.369 16.2889 106.221C16.5638 112.185 16.7012 117.249 16.7012 121.413C16.7012 126.927 15.7047 129.684 13.7115 129.684Z" fill="#5A8551"/>
<path d="M45.1262 131.71C43.3392 131.71 41.6897 130.753 40.1777 128.84C38.6656 127.04 37.4285 124.564 36.4663 121.413C34.4732 114.548 33.236 107.065 32.7549 98.9624C32.1364 91.3101 31.8271 83.9391 31.8271 76.8495C31.8271 75.4991 31.8614 74.3737 31.9302 73.4734V70.435C31.9302 69.8724 31.8958 69.591 31.8271 69.591V66.5526L31.9302 54.7365C31.9989 51.1354 32.2738 45.3962 32.7549 37.5188C33.0986 32.1172 33.889 26.8844 35.1261 21.8203C35.6072 19.5697 36.2258 17.8816 36.9818 16.7563C37.7378 15.5184 38.5969 14.8995 39.5591 14.8995C42.3083 14.8995 44.7826 15.7435 46.9819 17.4315C49.1812 19.007 51.0369 21.2577 52.549 24.1836C53.9236 26.9969 55.092 30.4855 56.0542 34.6492C57.0164 38.7004 57.7037 43.033 58.1161 47.6469C58.5284 52.3733 58.7346 57.3811 58.7346 62.6702V64.0206C58.7346 67.5091 58.769 70.6601 58.8377 73.4734L58.9408 83.0951C58.9408 115.505 54.3359 131.71 45.1262 131.71ZM44.7138 124.62C45.951 124.62 47.085 123.832 48.1159 122.257C49.1469 120.569 49.9373 118.318 50.4871 115.505C51.793 109.766 52.5834 103.576 52.8583 96.9368C53.2019 91.1975 53.3737 86.246 53.3737 82.0823C53.3737 77.0183 53.1332 70.3788 52.6521 62.1638C52.2397 53.4987 52.0335 47.028 52.0335 42.7517V39.7132C51.8961 35.437 51.0026 31.7233 49.3531 28.5724C47.7723 25.4214 45.8135 23.846 43.4767 23.846C41.1399 23.846 39.5935 26.0404 38.8375 30.4292C38.1502 33.9177 37.8065 38.4191 37.8065 43.9333C37.8065 46.0714 37.8409 47.872 37.9096 49.3349V53.8925L37.7034 61.6574C37.566 64.0206 37.4972 66.6089 37.4972 69.4222C37.4972 75.4991 37.6003 81.5196 37.8065 87.4839C38.0814 95.924 38.7687 104.139 39.8684 112.129C40.9681 120.456 42.5832 124.62 44.7138 124.62Z" fill="#5A8551"/>
<path d="M111.761 137.28C109.631 137.28 108.565 133.792 108.565 126.815V105.208C108.565 99.5813 108.325 92.2103 107.844 83.0951C107.294 72.8545 107.019 65.8211 107.019 61.995L107.225 51.5293C107.363 48.4909 107.431 45.0586 107.431 41.2325C107.156 42.6954 106.022 50.4602 104.029 64.527C102.036 78.1436 99.9741 90.7474 97.8435 102.338C95.7817 113.479 94.0978 119.05 92.7919 119.05C91.4861 119.05 90.4208 118.431 89.596 117.193C88.84 115.842 88.462 114.042 88.462 111.791C88.462 106.84 87.2248 96.3178 84.7506 80.2255C82.3451 64.1331 80.1457 50.9666 78.1526 40.726L77.534 59.8006C76.9842 75.8929 76.6061 89.2845 76.4 99.9752C76.2625 110.328 76.1938 117.418 76.1938 121.244C76.1938 122.144 76.2281 122.988 76.2969 123.776V126.139C76.2969 128.052 76.0563 129.459 75.5752 130.359C75.0941 131.372 74.2006 131.879 72.8948 131.879C72.2075 131.879 71.5545 131.428 70.936 130.528C70.3174 129.74 70.0081 128.84 70.0081 127.827C70.0081 116.349 70.5236 99.1312 71.5545 76.1743C72.5855 53.2173 73.1009 35.9996 73.1009 24.5211C72.6886 23.5084 72.4824 22.4393 72.4824 21.3139C72.4824 19.9635 72.8604 18.9507 73.6164 18.2755C74.4412 17.4878 75.4034 17.0939 76.5031 17.0939C77.3965 17.0939 79.046 22.383 81.4516 32.9612C83.8571 43.5394 86.2626 55.5243 88.6682 68.9158C91.0737 82.3074 92.6201 91.9853 93.3074 97.9496C93.8572 94.9112 94.304 92.0978 94.6476 89.5095L95.2662 85.4583C97.4655 69.7036 99.6649 55.468 101.864 42.7517C103.17 34.9868 104.442 28.91 105.679 24.5211C106.916 19.7947 108.05 17.4315 109.081 17.4315C110.043 17.4315 110.902 17.8816 111.658 18.7819C112.483 19.5697 112.895 20.6387 112.895 21.9891C112.895 30.0916 113.101 42.2453 113.514 58.4502C113.995 73.5297 114.235 85.2332 114.235 93.5608L114.132 102.507L113.926 111.454C113.926 112.804 114.029 114.83 114.235 117.531L114.545 123.439C114.613 124.451 114.648 125.239 114.648 125.802C114.717 126.364 114.751 126.702 114.751 126.815C115.095 128.278 115.266 129.347 115.266 130.022C115.266 131.935 114.923 133.623 114.235 135.086C113.548 136.549 112.723 137.28 111.761 137.28Z" fill="#5A8551"/>
<path d="M140.065 131.71C138.278 131.71 136.629 130.753 135.117 128.84C133.605 127.04 132.368 124.564 131.405 121.413C129.412 114.548 128.175 107.065 127.694 98.9624C127.076 91.3101 126.766 83.9391 126.766 76.8495C126.766 75.4991 126.801 74.3737 126.869 73.4734V70.435C126.869 69.8724 126.835 69.591 126.766 69.591V66.5526L126.869 54.7365C126.938 51.1354 127.213 45.3962 127.694 37.5188C128.038 32.1172 128.828 26.8844 130.065 21.8203C130.546 19.5697 131.165 17.8816 131.921 16.7563C132.677 15.5184 133.536 14.8995 134.498 14.8995C137.247 14.8995 139.722 15.7435 141.921 17.4315C144.12 19.007 145.976 21.2577 147.488 24.1836C148.863 26.9969 150.031 30.4855 150.993 34.6492C151.956 38.7004 152.643 43.033 153.055 47.6469C153.468 52.3733 153.674 57.3811 153.674 62.6702V64.0206C153.674 67.5091 153.708 70.6601 153.777 73.4734L153.88 83.0951C153.88 115.505 149.275 131.71 140.065 131.71ZM139.653 124.62C140.89 124.62 142.024 123.832 143.055 122.257C144.086 120.569 144.876 118.318 145.426 115.505C146.732 109.766 147.523 103.576 147.797 96.9368C148.141 91.1975 148.313 86.246 148.313 82.0823C148.313 77.0183 148.072 70.3788 147.591 62.1638C147.179 53.4987 146.973 47.028 146.973 42.7517V39.7132C146.835 35.437 145.942 31.7233 144.292 28.5724C142.711 25.4214 140.753 23.846 138.416 23.846C136.079 23.846 134.533 26.0404 133.777 30.4292C133.089 33.9177 132.746 38.4191 132.746 43.9333C132.746 46.0714 132.78 47.872 132.849 49.3349V53.8925L132.643 61.6574C132.505 64.0206 132.436 66.6089 132.436 69.4222C132.436 75.4991 132.54 81.5196 132.746 87.4839C133.021 95.924 133.708 104.139 134.808 112.129C135.907 120.456 137.522 124.62 139.653 124.62Z" fill="#5A8551"/>
<path d="M183.195 131.372C181.683 131.372 180.308 128.671 179.071 123.27C177.628 117.418 176.563 111.397 175.875 105.208L175.154 99.4688C173.16 83.3764 171.889 74.2049 171.339 71.9542H170.102C170.102 75.2177 170.068 78.1999 169.999 80.9007V90.1847C169.999 105.264 170.652 117.024 171.958 125.464L170.824 130.022H167.937L166.597 127.49L166.7 116.18C166.7 106.052 166.391 90.6911 165.772 70.0974C165.222 48.1533 164.947 32.7924 164.947 24.0148C164.947 18.6131 166.081 15.9123 168.349 15.9123C172.061 15.9123 175.085 17.4878 177.422 20.6387C179.827 23.7897 181.03 28.1785 181.03 33.8052V45.6213C181.03 47.3093 180.858 49.2786 180.515 51.5293C180.171 53.6675 179.793 55.4117 179.38 56.7621L177.422 62.839L175.772 67.903L176.288 71.9542L177.731 83.9391C178.693 92.6042 179.621 99.6376 180.515 105.039C181.408 110.441 182.508 115.336 183.814 119.725L184.432 121.751C185.119 124.001 185.463 125.802 185.463 127.152C185.463 128.277 185.257 129.234 184.844 130.022C184.432 130.922 183.882 131.372 183.195 131.372ZM170.514 63.683C172.026 62.4451 173.298 59.0691 174.329 53.5549C175.429 47.9282 175.978 42.7517 175.978 38.0252C175.978 34.4241 175.703 31.0481 175.154 27.8972C174.81 26.0966 174.226 24.7462 173.401 23.846C172.645 22.8331 171.683 22.3267 170.514 22.3267L170.308 23.1707L170.102 24.69L170.308 44.6085C170.446 50.4602 170.514 56.8184 170.514 63.683Z" fill="#5A8551"/>
<path d="M213.6 131.372C212.088 131.372 210.713 128.671 209.476 123.27C208.033 117.418 206.967 111.397 206.28 105.208L205.558 99.4688C203.565 83.3764 202.294 74.2049 201.744 71.9542H200.507C200.507 75.2177 200.472 78.1999 200.404 80.9007V90.1847C200.404 105.264 201.057 117.024 202.362 125.464L201.228 130.022H198.342L197.002 127.49L197.105 116.18C197.105 106.052 196.795 90.6911 196.177 70.0974C195.627 48.1533 195.352 32.7924 195.352 24.0148C195.352 18.6131 196.486 15.9123 198.754 15.9123C202.465 15.9123 205.49 17.4878 207.826 20.6387C210.232 23.7897 211.435 28.1785 211.435 33.8052V45.6213C211.435 47.3093 211.263 49.2786 210.919 51.5293C210.576 53.6675 210.198 55.4117 209.785 56.7621L207.826 62.839L206.177 67.903L206.692 71.9542L208.136 83.9391C209.098 92.6042 210.026 99.6376 210.919 105.039C211.813 110.441 212.912 115.336 214.218 119.725L214.837 121.751C215.524 124.001 215.868 125.802 215.868 127.152C215.868 128.277 215.662 129.234 215.249 130.022C214.837 130.922 214.287 131.372 213.6 131.372ZM200.919 63.683C202.431 62.4451 203.703 59.0691 204.734 53.5549C205.833 47.9282 206.383 42.7517 206.383 38.0252C206.383 34.4241 206.108 31.0481 205.558 27.8972C205.215 26.0966 204.63 24.7462 203.806 23.846C203.05 22.8331 202.087 22.3267 200.919 22.3267L200.713 23.1707L200.507 24.69L200.713 44.6085C200.85 50.4602 200.919 56.8184 200.919 63.683Z" fill="#5A8551"/>
<path d="M238.025 131.71C236.238 131.71 234.588 130.753 233.076 128.84C231.564 127.04 230.327 124.564 229.365 121.413C227.372 114.548 226.135 107.065 225.654 98.9624C225.035 91.3101 224.726 83.9391 224.726 76.8495C224.726 75.4991 224.76 74.3737 224.829 73.4734V70.435C224.829 69.8724 224.794 69.591 224.726 69.591V66.5526L224.829 54.7365C224.898 51.1354 225.173 45.3962 225.654 37.5188C225.997 32.1172 226.788 26.8844 228.025 21.8203C228.506 19.5697 229.124 17.8816 229.88 16.7563C230.636 15.5184 231.496 14.8995 232.458 14.8995C235.207 14.8995 237.681 15.7435 239.881 17.4315C242.08 19.007 243.936 21.2577 245.448 24.1836C246.822 26.9969 247.991 30.4855 248.953 34.6492C249.915 38.7004 250.602 43.033 251.015 47.6469C251.427 52.3733 251.633 57.3811 251.633 62.6702V64.0206C251.633 67.5091 251.668 70.6601 251.736 73.4734L251.84 83.0951C251.84 115.505 247.235 131.71 238.025 131.71ZM237.613 124.62C238.85 124.62 239.984 123.832 241.015 122.257C242.046 120.569 242.836 118.318 243.386 115.505C244.692 109.766 245.482 103.576 245.757 96.9368C246.101 91.1975 246.272 86.246 246.272 82.0823C246.272 77.0183 246.032 70.3788 245.551 62.1638C245.138 53.4987 244.932 47.028 244.932 42.7517V39.7132C244.795 35.437 243.901 31.7233 242.252 28.5724C240.671 25.4214 238.712 23.846 236.375 23.846C234.039 23.846 232.492 26.0404 231.736 30.4292C231.049 33.9177 230.705 38.4191 230.705 43.9333C230.705 46.0714 230.74 47.872 230.808 49.3349V53.8925L230.602 61.6574C230.465 64.0206 230.396 66.6089 230.396 69.4222C230.396 75.4991 230.499 81.5196 230.705 87.4839C230.98 95.924 231.667 104.139 232.767 112.129C233.867 120.456 235.482 124.62 237.613 124.62Z" fill="#5A8551"/>
<path d="M270.639 132.047C269.264 132.047 268.062 128.671 267.031 121.919C266.137 115.955 265.381 108.584 264.763 99.8064C264.213 90.9162 263.628 79.7191 263.01 66.215C262.666 57.4373 262.185 48.0408 261.567 38.0252C261.085 29.6977 260.501 24.3524 259.814 21.9891C260.433 19.9635 261.429 18.9507 262.804 18.9507C265.003 18.9507 266.103 22.6643 266.103 30.0916C266.103 38.8692 266.824 51.6981 268.268 68.5782C269.711 85.3458 270.536 97.5557 270.742 105.208L271.257 99.4688C271.945 91.929 272.529 84.8394 273.01 78.1999C273.56 71.4478 274.007 64.1894 274.35 56.4245C274.831 47.7594 275.072 39.2068 275.072 30.7668L277.855 28.7412C278.749 28.7412 279.471 29.135 280.02 29.9228C280.639 30.598 280.948 31.6108 280.948 32.9612V34.3116C282.048 40.6135 282.941 47.5344 283.629 55.0741C284.385 62.5014 285.038 71.279 285.588 81.4071C286 89.1719 286.481 96.4304 287.031 103.182C288.337 88.1029 288.99 69.5348 288.99 47.4781C288.99 43.9895 289.265 39.7132 289.814 34.6492C290.295 29.4726 290.536 25.2526 290.536 21.9891C290.33 20.9763 290.227 20.0198 290.227 19.1195C290.227 16.4187 291.258 15.0683 293.32 15.0683C294.144 15.0683 294.797 15.4059 295.278 16.0811C295.759 16.7563 296 17.7128 296 18.9507V21.4827C296 23.1707 295.897 24.6337 295.691 25.8716V26.7156C294.797 31.2169 294.351 36.3935 294.351 42.2453V54.5677C294.351 61.6574 293.835 72.2356 292.804 86.3023C291.704 100.031 291.155 110.272 291.155 117.024V120.063C291.155 122.651 290.983 124.845 290.639 126.646C290.227 128.896 289.23 130.022 287.649 130.022C286.55 130.022 285.691 129.459 285.072 128.334C284.522 127.096 284.247 125.577 284.247 123.776C284.247 114.661 283.663 102.845 282.495 88.3279C281.876 81.801 281.223 75.2177 280.536 68.5782L278.886 50.8541C278.611 54.1176 278.474 57.3248 278.474 60.4758C278.474 66.7777 278.199 75.1052 277.649 85.4583C277.099 95.8114 276.24 105.883 275.072 115.674C273.766 126.589 272.288 132.047 270.639 132.047Z" fill="#5A8551"/>
</svg>
