<svg width="156" height="954" viewBox="0 0 156 954" fill="none" xmlns="http://www.w3.org/2000/svg">
<path d="M143 0H13C5.82029 0 0 5.82029 0 13V938.6C0 945.78 5.82029 951.6 13 951.6H143C150.18 951.6 156 945.78 156 938.6V13C156 5.82029 150.18 0 143 0Z" fill="#9AE6EA"/>
<path d="M79.3204 132.438C104.449 132.438 124.821 112.067 124.821 86.9376C124.821 61.8086 104.449 41.4375 79.3204 41.4375C54.1914 41.4375 33.8203 61.8086 33.8203 86.9376C33.8203 112.067 54.1914 132.438 79.3204 132.438Z" fill="white" fill-opacity="0.4"/>
<path d="M79.3204 262.44C104.449 262.44 124.821 242.069 124.821 216.94C124.821 191.811 104.449 171.439 79.3204 171.439C54.1914 171.439 33.8203 191.811 33.8203 216.94C33.8203 242.069 54.1914 262.44 79.3204 262.44Z" fill="white" fill-opacity="0.4"/>
<path d="M79.3204 392.436C104.449 392.436 124.821 372.065 124.821 346.936C124.821 321.807 104.449 301.436 79.3204 301.436C54.1914 301.436 33.8203 321.807 33.8203 346.936C33.8203 372.065 54.1914 392.436 79.3204 392.436Z" fill="white" fill-opacity="0.4"/>
<path d="M79.3204 522.438C104.449 522.438 124.821 502.067 124.821 476.938C124.821 451.809 104.449 431.438 79.3204 431.438C54.1914 431.438 33.8203 451.809 33.8203 476.938C33.8203 502.067 54.1914 522.438 79.3204 522.438Z" fill="white" fill-opacity="0.4"/>
<path d="M79.3204 652.44C104.449 652.44 124.821 632.069 124.821 606.94C124.821 581.811 104.449 561.439 79.3204 561.439C54.1914 561.439 33.8203 581.811 33.8203 606.94C33.8203 632.069 54.1914 652.44 79.3204 652.44Z" fill="white" fill-opacity="0.4"/>
<path d="M79.3204 782.436C104.449 782.436 124.821 762.065 124.821 736.936C124.821 711.807 104.449 691.436 79.3204 691.436C54.1914 691.436 33.8203 711.807 33.8203 736.936C33.8203 762.065 54.1914 782.436 79.3204 782.436Z" fill="white" fill-opacity="0.4"/>
<path d="M79.3204 912.438C104.449 912.438 124.821 892.067 124.821 866.938C124.821 841.809 104.449 821.438 79.3204 821.438C54.1914 821.438 33.8203 841.809 33.8203 866.938C33.8203 892.067 54.1914 912.438 79.3204 912.438Z" fill="white" fill-opacity="0.4"/>
</svg>
