<svg width="336" height="137" viewBox="0 0 336 137" fill="none" xmlns="http://www.w3.org/2000/svg">
<path d="M22.4759 89.3888C37.0567 89.3888 47.8747 82.7407 55.0867 72.8338C60.7309 65.0125 66.0616 52.2377 66.0616 44.8075C66.0616 39.8541 64.8073 35.5524 60.1038 34.5095C58.3792 34.1185 56.341 34.2488 54.7732 35.1613C53.6757 35.8131 32.6668 50.8038 32.6668 50.8038C30.1582 52.3681 27.4929 53.5413 24.514 54.3234C14.1664 56.9305 4.6026 62.4054 1.15337 69.966C-3.55012 80.7854 6.64078 89.3888 22.4759 89.3888ZM48.0315 52.3681C47.7179 52.3681 47.4044 52.2377 47.8747 51.8467C50.54 49.6307 51.4807 49.1092 53.5189 47.4146C55.5571 45.72 55.2435 46.6325 54.93 48.4575C54.146 53.4109 51.9511 52.3681 48.0315 52.3681ZM21.2216 80.5247C14.4799 80.7854 8.99253 77.3962 11.1875 72.7034C13.2257 68.5321 19.3402 64.8821 26.0819 63.0572C31.5693 61.4929 49.9129 60.1894 49.9129 61.7536C49.9129 62.7965 47.2476 66.8375 46.1501 68.2714C40.3491 76.223 32.3532 80.0033 21.2216 80.5247Z" fill="#E06E51"/>
<path d="M103.873 89.7799C107.322 89.7799 108.89 87.9549 108.89 84.4353C108.89 78.8301 110.458 73.2248 112.34 67.6196C115.005 59.7983 118.768 52.2377 122.687 44.0254C124.569 40.2451 126.136 36.2041 121.746 34.5095C119.552 33.597 116.886 34.1185 115.162 35.8131C112.34 38.5505 106.068 47.6753 100.267 56.018C93.6823 65.2732 83.6482 78.9604 79.1015 78.9604C76.9065 78.9604 83.6482 58.3644 86.9407 51.4556C88.1949 48.4575 92.5848 41.0273 92.2713 38.4202C91.9577 34.7702 86.7839 33.4667 84.1186 35.6827C80.3558 38.8112 74.7116 52.8895 72.0463 60.9715C68.597 71.9213 65.3046 84.0443 73.7709 88.0853C78.9447 90.3013 84.2753 88.2156 89.1356 84.4353C91.9577 82.3496 94.1527 79.4818 97.4451 75.9623L99.7969 73.4855L99.3265 77.0051C98.6994 81.4372 98.0722 85.7389 99.7969 87.6942C100.894 88.9977 102.305 89.7799 103.873 89.7799Z" fill="#E06E51"/>
<path d="M122.458 87.6942C126.064 87.6942 127.318 85.2174 128.886 82.6104C134.374 73.4855 141.115 64.4911 151.463 54.7145C153.658 52.6288 156.01 50.8038 158.675 49.1092C163.222 46.1111 166.044 44.4165 164.79 47.936C164.006 49.8914 163.065 51.977 162.124 53.802C157.891 62.0143 153.972 70.8784 150.836 79.8729C149.268 84.305 149.738 86.7817 153.972 87.4335C158.361 88.0852 159.772 85.8692 160.87 82.3496C162.751 76.0926 166.985 66.9678 173.726 53.1502C176.235 47.936 178.43 40.8969 173.413 37.638C171.374 36.3345 168.552 35.9434 164.946 36.7256C155.853 38.8112 148.327 44.2861 141.272 51.1949L138.92 53.4109C139.547 51.7163 140.331 50.0217 141.115 48.3271C143.31 43.3736 143.624 42.7219 143.624 41.288C143.624 39.3326 142.213 37.8987 140.175 37.247C134.374 35.5524 131.865 43.1129 128.259 51.977C124.026 62.0143 119.95 71.0088 117.911 79.6122C116.814 83.9139 117.128 87.6942 122.458 87.6942Z" fill="#E06E51"/>
<path d="M211.114 88.737C215.034 88.737 216.758 86.1299 215.974 81.9586C215.19 77.3962 215.661 72.7034 215.974 68.7928C216.131 66.4464 217.072 64.4911 218.64 62.6661L226.792 53.1502C238.551 39.3326 247.017 27.34 252.034 13.001C253.445 8.82968 253.445 3.6155 249.369 1.39947C242.627 -2.1201 234.632 4.39762 228.987 10.5243C220.991 19.1277 219.267 24.8633 213.623 36.4648C212.682 38.1595 212.682 38.1595 210.644 37.8987C205 37.1166 199.669 38.2898 194.809 41.8094C182.736 50.4128 173.016 67.8803 175.054 79.7426C175.995 85.9996 182.893 89.6495 190.575 86.6514C194.965 84.8264 197.16 83.1318 205 77.3962C205.783 82.7407 205.627 88.737 211.114 88.737ZM222.089 43.2433C226.636 31.1203 234.631 14.826 241.06 12.4796C241.06 15.0867 235.886 24.4722 231.809 30.2078C228.36 34.9006 223.657 41.288 222.716 42.4612L222.089 43.2433ZM185.872 78.439C184.618 78.0479 185.088 74.1373 185.872 71.7909C187.91 64.8821 191.359 58.7555 196.063 53.4109C198.258 50.9342 201.08 48.3271 205 46.8932C207.508 45.9807 209.076 48.4575 208.449 52.3681C207.508 57.843 207.665 60.9715 203.118 65.1429C193.711 74.1373 187.597 79.2211 185.872 78.439Z" fill="#E06E51"/>
<path d="M271.32 90.3013C274.612 90.3013 276.494 88.737 275.553 83.3925C273.358 70.7481 275.553 62.1447 279.629 48.3271C281.197 43.2433 276.964 37.7684 269.752 36.8559C251.252 34.6399 234.476 55.3663 230.87 74.398C229.772 80.0033 231.967 86.9121 237.768 88.737C242.942 90.4316 247.803 87.3031 252.036 83.7835C257.209 79.4818 262.54 71.3999 264.578 69.3142L264.422 76.8748C264.422 79.8729 264.422 82.48 265.362 86.3906C265.989 89.5191 268.184 90.3013 271.32 90.3013ZM241.531 79.2211C240.747 79.2211 241.061 75.5712 241.531 73.8766C244.353 63.9697 249.057 55.4966 257.366 49.2396C260.659 46.7629 264.108 45.5897 267.871 45.5897C268.811 45.5897 269.595 46.2414 268.811 46.8932C262.227 52.3681 246.391 79.2211 241.531 79.2211Z" fill="#E06E51"/>
<path d="M290.074 136.968C295.875 136.968 301.362 134.231 304.655 130.19C313.435 119.501 317.041 109.594 331.935 59.4072C335.227 47.545 338.677 40.6362 332.876 38.0291C327.702 35.8131 322.371 42.8522 316.413 51.3253C314.689 53.6716 306.693 64.8821 304.028 68.0107C301.205 71.3999 299.167 74.007 296.032 76.6141C294.777 77.6569 295.405 74.007 295.561 73.0945C297.756 60.4501 302.146 52.6288 305.752 41.4183C306.536 39.0719 305.125 36.7256 302.617 35.9434C300.108 35.1613 297.599 36.3345 296.032 38.5505C295.405 39.3326 289.76 54.8448 288.036 60.059C284.9 69.7053 281.608 84.305 290.701 87.1728C295.875 88.737 300.422 85.7389 304.498 81.9586C307.634 79.2211 310.456 75.9623 313.748 71.5302C315.63 68.9231 317.668 66.5767 319.549 64.1C317.511 71.9213 312.807 87.8245 312.024 89.7799C311.71 90.6923 311.553 91.2138 310.612 91.4745C294.307 95.9065 275.65 114.417 278.472 128.495C279.413 133.058 283.489 136.968 290.074 136.968ZM288.663 125.106C288.82 118.979 296.502 107.117 306.85 102.815C310.142 101.381 300.735 118.719 297.129 123.933C294.464 127.713 288.663 130.32 288.663 125.106Z" fill="#E06E51"/>
</svg>
