<svg width="1008" height="411" viewBox="0 0 1008 411" fill="none" xmlns="http://www.w3.org/2000/svg">
<g clip-path="url(#clip0_1105_1555)">
<path d="M67.4277 268.167C111.17 268.167 143.624 248.222 165.26 218.502C182.193 195.038 198.185 156.713 198.185 134.423C198.185 119.563 194.422 106.657 180.311 103.529C175.138 102.356 169.023 102.747 164.32 105.484C161.027 107.44 98.0004 152.412 98.0004 152.412C90.4746 157.105 82.4787 160.624 73.542 162.97C42.4992 170.792 13.8078 187.216 3.46011 209.898C-10.6504 242.356 19.9223 268.167 67.4277 268.167ZM144.095 157.105C143.154 157.105 142.213 156.713 143.624 155.54C151.62 148.892 154.442 147.328 160.557 142.244C166.671 137.16 165.73 139.898 164.79 145.373C162.438 160.233 155.853 157.105 144.095 157.105ZM63.6648 241.574C43.4397 242.356 26.9776 232.189 33.5625 218.11C39.6771 205.597 58.0206 194.647 78.2457 189.172C94.7079 184.479 149.739 180.568 149.739 185.261C149.739 188.39 141.743 200.513 138.45 204.814C121.047 228.669 97.0596 240.01 63.6648 241.574Z" fill="#E06E51"/>
<path d="M311.619 269.339C321.966 269.339 326.67 263.864 326.67 253.306C326.67 236.49 331.374 219.674 337.02 202.858C345.015 179.395 356.304 156.713 368.061 132.076C373.707 120.735 378.408 108.612 365.238 103.528C358.656 100.791 350.658 102.355 345.486 107.439C337.02 115.651 318.204 143.026 300.801 168.054C281.047 195.819 250.945 236.881 237.305 236.881C230.72 236.881 250.945 175.093 260.822 154.366C264.585 145.372 277.754 123.082 276.814 115.26C275.873 104.31 260.352 100.4 252.356 107.048C241.067 116.433 224.135 158.668 216.139 182.914C205.791 215.764 195.914 252.133 221.313 264.256C236.834 270.904 252.826 264.646 267.407 253.306C275.873 247.048 282.458 238.445 292.335 227.887L299.391 220.456L297.979 231.015C296.098 244.311 294.217 257.216 299.391 263.082C302.682 266.993 306.915 269.339 311.619 269.339Z" fill="#E06E51"/>
<path d="M367.374 263.082C378.192 263.082 381.954 255.652 386.658 247.831C403.122 220.456 423.345 193.473 454.389 164.143C460.974 157.886 468.03 152.411 476.025 147.327C489.666 138.333 498.132 133.249 494.37 143.808C492.018 149.674 489.195 155.931 486.372 161.406C473.673 186.043 461.916 212.635 452.508 239.619C447.804 252.915 449.214 260.345 461.916 262.3C475.083 264.256 479.316 257.607 482.61 247.049C488.253 228.278 500.955 200.903 521.178 159.45C528.705 143.808 535.29 122.691 520.239 112.914C514.122 109.003 505.656 107.83 494.838 110.177C467.559 116.433 444.981 132.858 423.816 153.585L416.76 160.233C418.641 155.149 420.993 150.065 423.345 144.981C429.93 130.121 430.872 128.166 430.872 123.864C430.872 117.998 426.639 113.696 420.525 111.741C403.122 106.657 395.595 129.339 384.777 155.931C372.078 186.043 359.85 213.026 353.733 238.836C350.442 251.742 351.384 263.082 367.374 263.082Z" fill="#E06E51"/>
<path d="M633.342 266.211C645.102 266.211 650.274 258.39 647.922 245.876C645.57 232.189 646.983 218.11 647.922 206.378C648.393 199.339 651.216 193.473 655.92 187.998L680.376 159.451C715.653 117.998 741.051 82.02 756.102 39.003C760.335 26.489 760.335 10.8465 748.107 4.19842C727.881 -6.36029 703.896 13.1929 686.961 31.5729C662.973 57.3831 657.801 74.5899 640.869 109.394C638.046 114.479 638.046 114.479 631.932 113.696C615 111.35 599.007 114.869 584.427 125.428C548.208 151.238 519.048 203.641 525.162 239.228C527.985 257.999 548.679 268.948 571.725 259.954C584.895 254.479 591.48 249.395 615 232.189C617.349 248.222 616.881 266.211 633.342 266.211ZM666.267 129.73C679.908 93.3609 703.893 44.478 723.18 37.4388C723.18 45.2601 707.658 73.4166 695.427 90.6234C685.08 104.702 670.971 123.864 668.148 127.384L666.267 129.73ZM557.616 235.317C553.854 234.144 555.264 222.412 557.616 215.373C563.73 194.646 574.077 176.267 588.189 160.233C594.774 152.803 603.24 144.981 615 140.68C622.524 137.942 627.228 145.373 625.347 157.104C622.524 173.529 622.995 182.914 609.354 195.429C581.133 222.412 562.791 237.663 557.616 235.317Z" fill="#E06E51"/>
<path d="M813.96 270.904C823.836 270.904 829.482 266.211 826.659 250.177C820.074 212.244 826.659 186.434 838.887 144.981C843.591 129.73 830.892 113.305 809.256 110.567C753.756 103.919 703.428 166.099 692.61 223.194C689.316 240.01 695.901 260.736 713.304 266.211C728.826 271.295 743.409 261.909 756.108 251.35C771.627 238.445 787.62 214.199 793.734 207.942L793.266 230.624C793.266 239.618 793.266 247.44 796.086 259.172C797.967 268.557 804.552 270.904 813.96 270.904ZM724.593 237.663C722.241 237.663 723.183 226.713 724.593 221.63C733.059 191.909 747.171 166.49 772.098 147.719C781.977 140.288 792.324 136.769 803.613 136.769C806.433 136.769 808.785 138.724 806.433 140.679C786.681 157.104 739.173 237.663 724.593 237.663Z" fill="#E06E51"/>
<path d="M870.222 410.905C887.625 410.905 904.086 402.694 913.965 390.571C940.305 358.504 951.123 328.783 995.805 178.222C1005.68 142.636 1016.03 121.909 998.628 114.088C983.106 107.44 967.113 128.557 949.239 153.977C944.067 161.016 920.079 194.647 912.084 204.033C903.615 214.2 897.501 222.022 888.096 229.843C884.331 232.971 886.215 222.022 886.683 219.284C893.268 181.351 906.438 157.887 917.256 124.256C919.608 117.216 915.375 110.178 907.851 107.831C900.324 105.485 892.797 109.004 888.096 115.652C886.215 117.999 869.28 164.535 864.108 180.178C854.7 209.117 844.824 252.916 872.103 261.519C887.625 266.212 901.266 257.217 913.494 245.877C922.902 237.664 931.368 227.888 941.244 214.591C946.89 206.77 953.004 199.731 958.647 192.301C952.533 215.765 938.421 263.474 936.072 269.34C935.13 272.078 934.659 273.642 931.836 274.424C882.921 287.72 826.95 343.252 835.416 385.486C838.239 399.175 850.467 410.905 870.222 410.905ZM865.989 375.319C866.46 356.938 889.506 321.352 920.55 308.446C930.426 304.144 902.205 356.158 891.387 371.8C883.392 383.14 865.989 390.961 865.989 375.319Z" fill="#E06E51"/>
</g>
<defs>
<clipPath id="clip0_1105_1555">
<rect width="1008" height="411" fill="white"/>
</clipPath>
</defs>
</svg>
