<svg width="296" height="138" viewBox="0 0 296 138" fill="none" xmlns="http://www.w3.org/2000/svg">
<path d="M26.2698 135.048C24.2947 135.048 22.7145 134.227 21.5294 132.585C20.476 130.825 19.9493 128.713 19.9493 126.249C19.9493 122.378 20.2126 117.626 20.7393 111.995L21.1344 107.42L21.5294 98.0927C21.5294 93.9865 21.0685 84.8356 20.1468 70.6399C19.225 56.4442 18.7642 47.2933 18.7642 43.1871C18.7642 42.8351 18.7642 42.1899 18.7642 41.2513C18.8958 40.1955 18.9617 38.6116 18.9617 36.4999C19.0934 34.1535 19.1592 31.2792 19.1592 27.8769C19.1592 19.3126 18.5008 13.8572 17.184 11.5108C16.394 11.5108 14.6821 11.6868 12.0486 12.0388L6.51808 12.3907C4.80626 12.3907 3.29196 11.9801 1.97517 11.1589C0.658392 10.2203 0 9.04711 0 7.63928C0 6.23144 1.58014 4.99958 4.74042 3.9437C9.34916 2.53587 17.184 1.53865 28.245 0.952052C32.7221 0.717416 35.4215 0.600098 36.3432 0.600098C37.9234 0.600098 39.3718 1.06938 40.6886 2.00794C42.0054 2.94649 42.6638 4.11968 42.6638 5.52752C42.6638 6.93536 42.0712 8.10855 40.8861 9.0471C39.8327 9.86834 38.4501 10.279 36.7383 10.279L33.1829 10.103C32.1295 9.98566 30.9444 9.927 29.6276 9.927H27.6524C28.5742 17.9047 29.0351 25.1199 29.0351 31.5725L28.8376 42.8351C28.7059 46.2374 28.64 50.0503 28.64 54.2738C28.64 59.9051 28.9034 66.651 29.4301 74.5114C30.0885 84.249 30.4177 90.9948 30.4177 94.7491C30.4177 99.2072 30.681 104.487 31.2078 110.587C31.7345 116.805 31.9978 122.085 31.9978 126.425C31.9978 132.174 30.0885 135.048 26.2698 135.048Z" fill="#6B488B"/>
<path d="M86.4571 137.16C83.0335 137.16 79.8732 136.163 76.9763 134.168C74.0793 132.291 71.7091 129.71 69.8656 126.425C66.047 119.269 63.6768 111.467 62.755 103.02C61.5699 95.0424 60.9774 87.3579 60.9774 79.9668C60.9774 78.559 61.0432 77.3858 61.1749 76.4472V73.2796C61.1749 72.693 61.109 72.3997 60.9774 72.3997V69.232L61.1749 56.9135C61.3065 53.1593 61.8333 47.176 62.755 38.9636C63.4134 33.3323 64.9277 27.8769 67.2979 22.5975C68.2197 20.2511 69.4048 18.4913 70.8532 17.3181C72.3017 16.0276 73.9477 15.3824 75.7912 15.3824C81.0583 15.3824 85.7987 16.2623 90.0124 18.0221C94.2261 19.6645 97.7814 22.0109 100.678 25.0612C103.312 27.9942 105.55 31.6311 107.394 35.9719C109.237 40.1955 110.554 44.7123 111.344 49.5224C112.134 54.4498 112.529 59.6705 112.529 65.1845V66.5924C112.529 70.2293 112.595 73.5142 112.727 76.4472L112.924 86.478C112.924 120.266 104.102 137.16 86.4571 137.16ZM85.667 129.769C88.0372 129.769 90.2099 128.948 92.1851 127.305C94.1603 125.545 95.6746 123.199 96.728 120.266C99.2299 114.283 100.744 107.83 101.271 100.908C101.929 94.925 102.259 89.763 102.259 85.4222C102.259 80.1428 101.798 73.2209 100.876 64.6566C100.086 55.623 99.6908 48.8771 99.6908 44.419V41.2513C99.4274 36.7932 97.7156 32.9216 94.5553 29.6367C91.5267 26.3517 87.7739 24.7093 83.2968 24.7093C78.8198 24.7093 75.857 26.997 74.4085 31.5725C73.0918 35.2094 72.4334 39.9022 72.4334 45.6508C72.4334 47.8799 72.4992 49.757 72.6309 51.2822V56.0336L72.2358 64.1286C71.9725 66.5924 71.8408 69.2907 71.8408 72.2237C71.8408 78.559 72.0383 84.8356 72.4334 91.0535C72.9601 99.8525 74.2769 108.417 76.3837 116.746C78.4906 125.428 81.585 129.769 85.667 129.769Z" fill="#6B488B"/>
<path d="M140.844 134.872C137.42 134.872 135.708 127.188 135.708 111.819L136.103 84.0143C136.235 75.8019 136.301 66.5924 136.301 56.3856C136.301 52.6313 135.906 46.824 135.116 38.9636C134.457 30.3993 134.128 25.1785 134.128 23.3014C134.128 21.7763 134.852 20.4271 136.301 19.2539C137.749 18.0807 139.33 17.4941 141.041 17.4941C145.65 17.4941 150.061 18.4327 154.275 20.3098C158.62 22.0696 162.439 24.5919 165.731 27.8769C172.71 35.0334 177.319 42.8938 179.557 51.4581C180.742 55.799 181.335 60.0811 181.335 64.3046C181.335 65.8298 181.269 67.2376 181.137 68.5281L180.94 73.2796V82.9584C180.94 90.4669 180.677 96.3915 180.15 100.732C179.36 106.598 177.845 111.819 175.607 116.395C172.973 121.322 169.155 125.721 164.151 129.593C161.781 131.353 158.752 133.113 155.065 134.872H140.844ZM149.535 125.897C152.168 125.897 154.604 125.311 156.843 124.138C159.081 122.847 160.991 121.146 162.571 119.034C163.888 117.157 165.073 114.811 166.126 111.995C167.311 109.062 168.167 106.246 168.694 103.548C169.879 98.2687 170.603 92.8719 170.867 87.3579C170.998 85.9501 171.064 83.897 171.064 81.1986C171.064 45.7681 163.361 27.2903 147.954 25.7651C147.033 31.0445 146.572 37.1451 146.572 44.067C146.572 51.4581 147.099 64.3633 148.152 82.7825C149.074 99.0899 149.535 112.054 149.535 121.674V125.897Z" fill="#6B488B"/>
<path d="M241.717 135.4C238.688 135.4 236.45 134.99 235.001 134.168C233.553 133.347 232.828 131.822 232.828 129.593C232.828 126.073 232.17 120.09 230.853 111.643L230.063 107.948L210.509 105.308C209.719 108.006 208.6 113.462 207.151 121.674C206.361 127.423 205.11 131.235 203.398 133.113C202.476 134.168 201.16 134.696 199.448 134.696C197.868 134.696 196.419 134.286 195.103 133.465C193.786 132.526 193.127 131.411 193.127 130.121L193.522 129.241L193.72 128.537C202.411 98.386 208.995 68.6455 213.472 39.3156C213.472 38.8463 213.537 38.0837 213.669 37.0278C213.801 35.8546 213.933 34.2122 214.064 32.1004C214.459 27.7596 214.854 24.2987 215.249 21.7176C215.776 19.1366 216.566 17.2008 217.62 15.9103H224.335C226.179 15.9103 227.759 16.3209 229.076 17.1422C230.392 17.8461 231.051 18.902 231.051 20.3098C231.051 29.2261 232.433 42.4832 235.199 60.0811C237.832 78.1483 239.149 90.8189 239.149 98.0927C239.149 98.7966 239.478 100.615 240.137 103.548C240.795 106.246 241.124 108.006 241.124 108.827C241.124 109.649 241.782 113.168 243.099 119.386C244.284 125.018 244.877 128.654 244.877 130.297V130.473C244.877 133.054 243.823 134.696 241.717 135.4ZM228.68 101.612C228.285 99.8525 228.088 97.682 228.088 95.101C228.088 84.5423 227.035 71.0505 224.928 54.6258L222.952 36.3239C217.29 63.894 213.406 84.7182 211.299 98.7966C213.274 99.9698 219.068 100.908 228.68 101.612Z" fill="#6B488B"/>
<path d="M278.026 136.28C275.787 136.28 273.944 134.99 272.495 132.409C273.944 129.945 274.668 119.973 274.668 102.492C274.668 98.386 274.339 93.9278 273.681 89.1177L273.088 84.0143C272.693 80.8467 272.495 78.4416 272.495 76.7992V72.2237C271.179 69.2907 268.743 63.8354 265.187 55.8576C261.764 47.8799 258.998 41.1927 256.892 35.796C254.39 29.578 253.139 25.3545 253.139 23.1255V22.2456L257.682 19.2539C259.92 19.4885 262.29 22.0696 264.792 26.997C266.899 31.3378 269.203 37.5558 271.705 45.6508C274.339 53.7459 275.656 58.028 275.656 58.4973C276.182 57.2068 277.236 52.8073 278.816 45.2989C280.396 37.7904 282.174 31.1618 284.149 25.4132C286.387 19.6645 288.692 16.7902 291.062 16.7902C292.379 16.7902 293.498 17.1422 294.42 17.8461C295.473 18.55 296 19.4299 296 20.4858C296 26.4691 294.156 34.9161 290.47 45.8268C286.519 57.6761 284.544 66.2404 284.544 71.5198V124.49C284.544 132.35 282.371 136.28 278.026 136.28Z" fill="#6B488B"/>
</svg>
