<svg width="888" height="414" viewBox="0 0 888 414" fill="none" xmlns="http://www.w3.org/2000/svg">
<path d="M78.8094 405.145C72.8841 405.145 68.1435 402.682 64.5882 397.756C61.428 392.476 59.8479 386.14 59.8479 378.748C59.8479 367.135 60.6378 352.879 62.2179 335.986L63.4032 322.261L64.5882 294.28C64.5882 281.961 63.2055 254.508 60.4404 211.921C57.675 169.334 56.2926 141.881 56.2926 129.563C56.2926 128.507 56.2926 126.571 56.2926 123.755C56.6874 120.588 56.8851 115.836 56.8851 109.501C57.2802 102.462 57.4776 93.8391 57.4776 83.6322C57.4776 57.9393 55.5024 41.5731 51.552 34.5339C49.182 34.5339 44.0463 35.0619 36.1458 36.1179L19.5542 37.1736C14.4188 37.1736 9.87588 35.9418 5.92551 33.4782C1.97518 30.6624 0 27.1428 0 22.9193C0 18.6958 4.74042 15.0002 14.2213 11.8326C28.0475 7.60907 51.552 4.61741 84.735 2.85762C98.1663 2.15371 106.265 1.80176 109.03 1.80176C113.77 1.80176 118.115 3.2096 122.066 6.02528C126.016 8.84093 127.991 12.3605 127.991 16.584C127.991 20.8075 126.214 24.3271 122.658 27.1428C119.498 29.6065 115.35 30.8385 110.215 30.8385L99.5487 30.3105C96.3885 29.9584 92.8332 29.7825 88.8828 29.7825H82.9572C85.7226 53.7156 87.1053 75.3612 87.1053 94.719L86.5128 128.507C86.1177 138.714 85.92 150.152 85.92 162.823C85.92 179.717 86.7102 199.954 88.2903 223.536C90.2655 252.748 91.2531 272.986 91.2531 284.249C91.2531 297.623 92.043 313.462 93.6234 331.762C95.2035 350.416 95.9934 366.256 95.9934 379.276C95.9934 396.523 90.2655 405.145 78.8094 405.145Z" fill="#6B488B"/>
<path d="M259.369 411.481C249.098 411.481 239.617 408.49 230.926 402.505C222.235 396.874 215.125 389.131 209.594 379.276C198.138 357.808 191.028 334.402 188.262 309.061C184.707 285.128 182.93 262.075 182.93 239.902C182.93 235.678 183.127 232.159 183.522 229.343V219.84C183.522 218.08 183.324 217.2 182.93 217.2V207.697L183.522 170.742C183.917 159.479 185.497 141.529 188.262 116.892C190.238 99.9981 194.781 83.6319 201.891 67.7937C204.657 60.7545 208.212 55.4751 212.557 51.9555C216.903 48.084 221.841 46.1484 227.371 46.1484C243.172 46.1484 257.394 48.7881 270.035 54.0675C282.676 58.9947 293.342 66.0339 302.031 75.1848C309.933 83.9838 316.647 94.8945 322.179 107.917C327.708 120.588 331.66 134.138 334.029 148.568C336.4 163.351 337.584 179.013 337.584 195.555V199.778C337.584 210.689 337.782 220.544 338.178 229.343L338.77 259.435C338.77 360.799 312.303 411.481 259.369 411.481ZM256.998 389.308C264.109 389.308 270.627 386.845 276.553 381.916C282.478 376.636 287.021 369.598 290.181 360.799C297.687 342.85 302.229 323.491 303.811 302.725C305.785 284.776 306.774 269.29 306.774 256.268C306.774 240.43 305.391 219.664 302.625 193.971C300.255 166.87 299.07 146.633 299.07 133.258V123.755C298.28 110.381 293.144 98.766 283.663 88.9113C274.578 79.0563 263.319 74.1291 249.888 74.1291C236.457 74.1291 227.568 80.9922 223.223 94.7187C219.273 105.629 217.298 119.708 217.298 136.954C217.298 143.641 217.495 149.272 217.89 153.848V168.102L216.705 192.387C215.915 199.778 215.52 207.873 215.52 216.672C215.52 235.678 216.112 254.508 217.298 273.162C218.878 299.559 222.828 325.252 229.149 350.239C235.469 376.285 244.752 389.308 256.998 389.308Z" fill="#6B488B"/>
<path d="M422.535 404.616C412.263 404.616 407.127 381.564 407.127 335.457L408.312 252.043C408.708 227.406 408.906 199.777 408.906 169.157C408.906 157.894 407.721 140.472 405.351 116.891C403.374 91.198 402.387 75.5356 402.387 69.9043C402.387 65.329 404.559 61.2814 408.906 57.7618C413.25 54.2422 417.993 52.4824 423.126 52.4824C436.953 52.4824 450.186 55.2982 462.828 60.9295C475.863 66.2089 487.32 73.7758 497.196 83.6308C518.133 105.1 531.96 128.682 538.674 154.374C542.229 167.397 544.008 180.243 544.008 192.914C544.008 197.49 543.81 201.713 543.414 205.584L542.823 219.839V248.875C542.823 271.401 542.034 289.175 540.453 302.196C538.083 319.794 533.538 335.457 526.824 349.185C518.922 363.966 507.468 377.163 492.456 388.779C485.346 394.059 476.259 399.339 465.198 404.616H422.535ZM448.608 377.691C456.507 377.691 463.815 375.933 470.532 372.414C477.246 368.541 482.976 363.438 487.716 357.102C491.667 351.471 495.222 344.433 498.381 335.985C501.936 327.186 504.504 318.738 506.085 310.644C509.64 294.806 511.812 278.616 512.604 262.074C512.997 257.85 513.195 251.691 513.195 243.596C513.195 137.304 490.086 81.871 443.865 77.2954C441.102 93.1336 439.719 111.435 439.719 132.201C439.719 154.374 441.3 193.09 444.459 248.348C447.225 297.27 448.608 336.162 448.608 365.022V377.691Z" fill="#6B488B"/>
<path d="M725.151 406.2C716.064 406.2 709.35 404.97 705.003 402.504C700.659 400.041 698.484 395.466 698.484 388.779C698.484 378.219 696.51 360.27 692.559 334.929L690.189 323.844L631.527 315.924C629.157 324.018 625.8 340.386 621.453 365.022C619.083 382.269 615.33 393.705 610.194 399.339C607.428 402.504 603.48 404.088 598.344 404.088C593.604 404.088 589.257 402.858 585.309 400.395C581.358 397.578 579.381 394.233 579.381 390.363L580.566 387.723L581.16 385.611C607.233 295.158 626.985 205.936 640.416 117.946C640.416 116.538 640.611 114.251 641.007 111.083C641.403 107.563 641.799 102.636 642.192 96.3008C643.377 83.2784 644.562 72.8957 645.747 65.1524C647.328 57.4094 649.698 51.602 652.86 47.7305H673.005C678.537 47.7305 683.277 48.9623 687.228 51.4262C691.176 53.5379 693.153 56.7056 693.153 60.929C693.153 87.6779 697.299 127.449 705.597 180.243C713.496 234.444 717.447 272.456 717.447 294.278C717.447 296.389 718.434 301.845 720.411 310.644C722.385 318.738 723.372 324.018 723.372 326.481C723.372 328.947 725.346 339.504 729.297 358.158C732.852 375.054 734.631 385.962 734.631 390.891V391.419C734.631 399.162 731.469 404.088 725.151 406.2ZM686.04 304.836C684.855 299.557 684.264 293.046 684.264 285.303C684.264 253.626 681.105 213.151 674.784 163.877L668.856 108.971C651.87 191.682 640.218 254.154 633.897 296.389C639.822 299.909 657.204 302.724 686.04 304.836Z" fill="#6B488B"/>
<path d="M834.077 408.84C827.36 408.84 821.831 404.97 817.484 397.227C821.831 389.835 824.003 359.919 824.003 307.476C824.003 295.158 823.016 281.783 821.042 267.353L819.263 252.042C818.078 242.54 817.484 235.324 817.484 230.397V216.671C813.536 207.872 806.228 191.506 795.56 167.572C785.291 143.639 776.993 123.578 770.675 107.388C763.169 88.7335 759.416 76.063 759.416 69.376V66.7363L773.045 57.7612C779.759 58.465 786.869 66.2083 794.375 80.9905C800.696 94.0129 807.608 112.667 815.114 136.952C823.016 161.237 826.967 174.084 826.967 175.491C828.545 171.62 831.707 158.421 836.447 135.896C841.187 113.371 846.521 93.4849 852.446 76.2391C859.16 58.993 866.075 50.3701 873.185 50.3701C877.136 50.3701 880.493 51.4261 883.259 53.5378C886.418 55.6495 887.999 58.2892 887.999 61.4569C887.999 79.4068 882.467 104.748 871.409 137.48C859.556 173.028 853.631 198.721 853.631 214.559V373.47C853.631 397.049 847.112 408.84 834.077 408.84Z" fill="#6B488B"/>
</svg>
