<svg width="3300" height="2200" viewBox="0 0 3300 2200" fill="none" xmlns="http://www.w3.org/2000/svg">
<g id="custom.arrow.down.right.and.arrow.up.left 1" clip-path="url(#clip0_19388_43119)">
<g id="Notes">
<path id="artboard" d="M3300 0H0V2200H3300V0Z" fill="white"/>
<path id="Vector" d="M263 292H3036" stroke="black" stroke-width="0.5"/>
<text id="Weight/Scale Variations" fill="black" xml:space="preserve" style="white-space: pre" font-family="Inter" font-size="13" font-weight="bold" letter-spacing="0em"><tspan x="263" y="321.727">Weight/Scale Variations</tspan></text>
<text id="Ultralight" fill="black" xml:space="preserve" style="white-space: pre" font-family="Inter" font-size="13" letter-spacing="0em"><tspan x="532.161" y="321.727">Ultralight</tspan></text>
<text id="Thin" fill="black" xml:space="preserve" style="white-space: pre" font-family="Inter" font-size="13" letter-spacing="0em"><tspan x="843.567" y="321.727">Thin</tspan></text>
<text id="Light" fill="black" xml:space="preserve" style="white-space: pre" font-family="Inter" font-size="13" letter-spacing="0em"><tspan x="1138.27" y="321.727">Light</tspan></text>
<text id="Regular" fill="black" xml:space="preserve" style="white-space: pre" font-family="Inter" font-size="13" letter-spacing="0em"><tspan x="1427.08" y="321.727">Regular</tspan></text>
<text id="Medium" fill="black" xml:space="preserve" style="white-space: pre" font-family="Inter" font-size="13" letter-spacing="0em"><tspan x="1721.99" y="321.727">Medium</tspan></text>
<text id="Semibold" fill="black" xml:space="preserve" style="white-space: pre" font-family="Inter" font-size="13" letter-spacing="0em"><tspan x="2014.65" y="321.727">Semibold</tspan></text>
<text id="Bold" fill="black" xml:space="preserve" style="white-space: pre" font-family="Inter" font-size="13" letter-spacing="0em"><tspan x="2326.29" y="321.727">Bold</tspan></text>
<text id="Heavy" fill="black" xml:space="preserve" style="white-space: pre" font-family="Inter" font-size="13" letter-spacing="0em"><tspan x="2617.82" y="321.727">Heavy</tspan></text>
<text id="Black" fill="black" xml:space="preserve" style="white-space: pre" font-family="Inter" font-size="13" letter-spacing="0em"><tspan x="2916.8" y="321.727">Black</tspan></text>
<path id="Vector_2" d="M263 1903H3036" stroke="black" stroke-width="0.5"/>
<g id="Group">
<path id="Vector_3" d="M272.248 1933.83C276.555 1933.83 280.139 1930.26 280.139 1925.95C280.139 1921.64 276.545 1918.07 272.238 1918.07C267.941 1918.07 264.367 1921.64 264.367 1925.95C264.367 1930.26 267.951 1933.83 272.248 1933.83ZM272.248 1932.35C268.703 1932.35 265.871 1929.5 265.871 1925.95C265.871 1922.39 268.693 1919.55 272.238 1919.55C275.793 1919.55 278.644 1922.39 278.644 1925.95C278.644 1929.5 275.803 1932.35 272.248 1932.35ZM268.654 1925.95C268.654 1926.38 268.957 1926.67 269.406 1926.67H271.506V1928.79C271.506 1929.23 271.799 1929.53 272.229 1929.53C272.678 1929.53 272.971 1929.23 272.971 1928.79V1926.67H275.09C275.529 1926.67 275.832 1926.38 275.832 1925.95C275.832 1925.51 275.529 1925.21 275.09 1925.21H272.971V1923.1C272.971 1922.65 272.678 1922.35 272.229 1922.35C271.799 1922.35 271.506 1922.65 271.506 1923.1V1925.21H269.406C268.957 1925.21 268.654 1925.51 268.654 1925.95Z" fill="black"/>
</g>
<g id="Group_2">
<path id="Vector_4" d="M293.576 1935.91C299.025 1935.91 303.537 1931.39 303.537 1925.95C303.537 1920.5 299.015 1915.99 293.566 1915.99C288.127 1915.99 283.615 1920.5 283.615 1925.95C283.615 1931.39 288.136 1935.91 293.576 1935.91ZM293.576 1934.25C288.967 1934.25 285.285 1930.56 285.285 1925.95C285.285 1921.34 288.957 1917.65 293.566 1917.65C298.176 1917.65 301.877 1921.34 301.877 1925.95C301.877 1930.56 298.185 1934.25 293.576 1934.25ZM289.045 1925.95C289.045 1926.43 289.377 1926.75 289.875 1926.75H292.746V1929.63C292.746 1930.12 293.078 1930.46 293.556 1930.46C294.045 1930.46 294.386 1930.13 294.386 1929.63V1926.75H297.267C297.756 1926.75 298.097 1926.43 298.097 1925.95C298.097 1925.46 297.756 1925.12 297.267 1925.12H294.386V1922.25C294.386 1921.75 294.045 1921.41 293.556 1921.41C293.078 1921.41 292.746 1921.75 292.746 1922.25V1925.12H289.875C289.377 1925.12 289.045 1925.46 289.045 1925.95Z" fill="black"/>
</g>
<g id="Group_3">
<path id="Vector_5" d="M320.617 1938.66C327.58 1938.66 333.341 1932.9 333.341 1925.95C333.341 1918.99 327.57 1913.22 320.607 1913.22C313.654 1913.22 307.902 1918.99 307.902 1925.95C307.902 1932.9 313.664 1938.66 320.617 1938.66ZM320.617 1936.85C314.582 1936.85 309.728 1931.98 309.728 1925.95C309.728 1919.9 314.572 1915.05 320.607 1915.05C326.652 1915.05 331.515 1919.9 331.515 1925.95C331.515 1931.98 326.662 1936.85 320.617 1936.85ZM314.845 1925.95C314.845 1926.47 315.216 1926.83 315.763 1926.83H319.708V1930.78C319.708 1931.32 320.08 1931.7 320.597 1931.7C321.134 1931.7 321.505 1931.33 321.505 1930.78V1926.83H325.46C325.998 1926.83 326.378 1926.47 326.378 1925.95C326.378 1925.4 326.007 1925.03 325.46 1925.03H321.505V1921.09C321.505 1920.54 321.134 1920.16 320.597 1920.16C320.08 1920.16 319.708 1920.54 319.708 1921.09V1925.03H315.763C315.216 1925.03 314.845 1925.4 314.845 1925.95Z" fill="black"/>
</g>
<text id="Design Variations" fill="black" xml:space="preserve" style="white-space: pre" font-family="Inter" font-size="13" font-weight="bold" letter-spacing="0em"><tspan x="263" y="1952.73">Design Variations</tspan></text>
<text id="Symbols are supported in up to nine weights and three scales." fill="black" xml:space="preserve" style="white-space: pre" font-family="Inter" font-size="13" letter-spacing="0em"><tspan x="263" y="1970.73">Symbols are supported in up to nine weights and three scales.</tspan></text>
<text id="For optimal layout with text and other symbols, vertically align" fill="black" xml:space="preserve" style="white-space: pre" font-family="Inter" font-size="13" letter-spacing="0em"><tspan x="263" y="1988.73">For optimal layout with text and other symbols, vertically align</tspan></text>
<text id="symbols with the adjacent text." fill="black" xml:space="preserve" style="white-space: pre" font-family="Inter" font-size="13" letter-spacing="0em"><tspan x="263" y="2006.73">symbols with the adjacent text.</tspan></text>
<path id="Vector_6" d="M776 1919V1933" stroke="#00AEEF" stroke-width="0.5"/>
<g id="Group_4">
<path id="Vector_7" d="M779.311 1933.16C779.828 1933.16 780.082 1932.96 780.268 1932.41L781.527 1928.97H787.289L788.549 1932.41C788.734 1932.96 788.988 1933.16 789.496 1933.16C790.014 1933.16 790.346 1932.84 790.346 1932.36C790.346 1932.19 790.316 1932.03 790.238 1931.83L785.658 1919.63C785.434 1919.04 785.033 1918.73 784.408 1918.73C783.803 1918.73 783.393 1919.03 783.178 1919.62L778.598 1931.84C778.52 1932.04 778.49 1932.2 778.49 1932.37C778.49 1932.85 778.803 1933.16 779.311 1933.16ZM782.006 1927.48L784.379 1920.91H784.428L786.801 1927.48H782.006Z" fill="black"/>
</g>
<path id="Vector_8" d="M793.197 1919V1933" stroke="#00AEEF" stroke-width="0.5"/>
<text id="Margins" fill="black" xml:space="preserve" style="white-space: pre" font-family="Inter" font-size="13" font-weight="bold" letter-spacing="0em"><tspan x="776" y="1952.73">Margins</tspan></text>
<text id="Leading and trailing margins on the left and right side of each symbol" fill="black" xml:space="preserve" style="white-space: pre" font-family="Inter" font-size="13" letter-spacing="0em"><tspan x="776" y="1970.73">Leading and trailing margins on the left and right side of each symbol</tspan></text>
<text id="can be adjusted by modifying the x-location of the margin guidelines." fill="black" xml:space="preserve" style="white-space: pre" font-family="Inter" font-size="13" letter-spacing="0em"><tspan x="776" y="1988.73">can be adjusted by modifying the x-location of the margin guidelines.</tspan></text>
<text id="Modifications are automatically applied proportionally to all" fill="black" xml:space="preserve" style="white-space: pre" font-family="Inter" font-size="13" letter-spacing="0em"><tspan x="776" y="2006.73">Modifications are automatically applied proportionally to all</tspan></text>
<text id="scales and weights." fill="black" xml:space="preserve" style="white-space: pre" font-family="Inter" font-size="13" letter-spacing="0em"><tspan x="776" y="2024.73">scales and weights.</tspan></text>
<g id="Group_5">
<path id="Vector_9" d="M1291.84 1934.87L1293.54 1936.57C1294.4 1937.44 1295.39 1937.38 1296.31 1936.36L1307.01 1924.57L1306.04 1923.6L1295.43 1935.28C1295.07 1935.68 1294.74 1935.77 1294.27 1935.3L1293.1 1934.14C1292.63 1933.68 1292.74 1933.34 1293.14 1932.98L1304.62 1922.18L1303.64 1921.21L1292.05 1932.1C1291.06 1933.02 1290.98 1934 1291.84 1934.87ZM1298.26 1916.67C1297.84 1917.08 1297.81 1917.66 1298.04 1918.05C1298.28 1918.41 1298.74 1918.64 1299.38 1918.48C1300.85 1918.14 1302.37 1918.08 1303.79 1919.02L1303.21 1920.47C1302.87 1921.3 1303.04 1921.89 1303.58 1922.43L1305.88 1924.75C1306.36 1925.24 1306.77 1925.26 1307.34 1925.16L1308.4 1924.96L1309.07 1925.64L1309.03 1926.19C1308.99 1926.69 1309.12 1927.07 1309.61 1927.55L1310.37 1928.29C1310.85 1928.77 1311.46 1928.8 1311.93 1928.33L1314.84 1925.41C1315.31 1924.94 1315.29 1924.35 1314.81 1923.87L1314.04 1923.11C1313.56 1922.63 1313.19 1922.47 1312.71 1922.51L1312.13 1922.56L1311.49 1921.93L1311.73 1920.8C1311.86 1920.24 1311.71 1919.8 1311.12 1919.21L1308.92 1917.02C1305.58 1913.7 1301.15 1913.78 1298.26 1916.67ZM1299.75 1917.04C1302.18 1915.27 1305.47 1915.57 1307.7 1917.8L1310.13 1920.21C1310.37 1920.44 1310.41 1920.63 1310.34 1920.97L1310.02 1922.45L1311.52 1923.94L1312.51 1923.88C1312.76 1923.87 1312.84 1923.89 1313.03 1924.08L1313.61 1924.66L1311.17 1927.1L1310.59 1926.53C1310.4 1926.33 1310.37 1926.25 1310.38 1925.99L1310.45 1925.01L1308.95 1923.53L1307.43 1923.78C1307.11 1923.85 1306.96 1923.82 1306.71 1923.59L1304.71 1921.58C1304.46 1921.35 1304.43 1921.18 1304.59 1920.81L1305.46 1918.72C1303.9 1917.27 1301.87 1916.64 1299.84 1917.24C1299.68 1917.28 1299.63 1917.15 1299.75 1917.04Z" fill="black"/>
</g>
<text id="Exporting" fill="black" xml:space="preserve" style="white-space: pre" font-family="Inter" font-size="13" font-weight="bold" letter-spacing="0em"><tspan x="1289" y="1952.73">Exporting</tspan></text>
<text id="Symbols should be outlined when exporting to ensure the" fill="black" xml:space="preserve" style="white-space: pre" font-family="Inter" font-size="13" letter-spacing="0em"><tspan x="1289" y="1970.73">Symbols should be outlined when exporting to ensure the</tspan></text>
<text id="design is preserved when submitting to Xcode." fill="black" xml:space="preserve" style="white-space: pre" font-family="Inter" font-size="13" letter-spacing="0em"><tspan x="1289" y="1988.73">design is preserved when submitting to Xcode.</tspan></text>
<text id="template-version" fill="black" xml:space="preserve" style="white-space: pre" font-family="Inter" font-size="13" letter-spacing="0em"><tspan x="2945.98" y="1932.73">Template v.4.0</tspan></text>
<text id="Requires Xcode 14 or greater" fill="black" xml:space="preserve" style="white-space: pre" font-family="Inter" font-size="13" letter-spacing="0em"><tspan x="2857.94" y="1950.73">Requires Xcode 14 or greater</tspan></text>
<text id="descriptive-name" fill="black" xml:space="preserve" style="white-space: pre" font-family="Inter" font-size="13" letter-spacing="0em"><tspan x="2676.77" y="1968.73">Generated from custom.arrow.down.right.and.arrow.up.left</tspan></text>
<text id="Typeset at 100 points" fill="black" xml:space="preserve" style="white-space: pre" font-family="Inter" font-size="13" letter-spacing="0em"><tspan x="2903.6" y="1986.73">Typeset at 100 points</tspan></text>
<text id="Small" fill="black" xml:space="preserve" style="white-space: pre" font-family="Inter" font-size="13" letter-spacing="0em"><tspan x="263" y="725.727">Small</tspan></text>
<text id="Medium_2" fill="black" xml:space="preserve" style="white-space: pre" font-family="Inter" font-size="13" letter-spacing="0em"><tspan x="263" y="1155.73">Medium</tspan></text>
<text id="Large" fill="black" xml:space="preserve" style="white-space: pre" font-family="Inter" font-size="13" letter-spacing="0em"><tspan x="263" y="1585.73">Large</tspan></text>
</g>
<g id="Guides">
<g id="H-reference">
<path id="Vector_10" d="M339.994 696H342.638L368.328 628.868H369.03V625.541H367.123L339.994 696ZM350.688 671.52H385.981L385.231 669.272H351.438L350.688 671.52ZM394.12 696H396.764L369.638 625.541H368.433V628.868L394.12 696Z" fill="#27AAE1"/>
</g>
<path id="Baseline-S" d="M263 696H3036" stroke="#27AAE1" stroke-width="0.5"/>
<path id="Capline-S" d="M263 625.541H3036" stroke="#27AAE1" stroke-width="0.5"/>
<g id="H-reference_2">
<path id="Vector_11" d="M339.994 1126H342.638L368.328 1058.87H369.03V1055.54H367.123L339.994 1126ZM350.688 1101.52H385.981L385.231 1099.27H351.438L350.688 1101.52ZM394.12 1126H396.764L369.638 1055.54H368.433V1058.87L394.12 1126Z" fill="#27AAE1"/>
</g>
<path id="Baseline-M" d="M263 1126H3036" stroke="#27AAE1" stroke-width="0.5"/>
<path id="Capline-M" d="M263 1055.54H3036" stroke="#27AAE1" stroke-width="0.5"/>
<g id="H-reference_3">
<path id="Vector_12" d="M339.994 1556H342.638L368.328 1488.87H369.03V1485.54H367.123L339.994 1556ZM350.688 1531.52H385.981L385.231 1529.27H351.438L350.688 1531.52ZM394.12 1556H396.764L369.638 1485.54H368.433V1488.87L394.12 1556Z" fill="#27AAE1"/>
</g>
<path id="Baseline-L" d="M263 1556H3036" stroke="#27AAE1" stroke-width="0.5"/>
<path id="Capline-L" d="M263 1485.54H3036" stroke="#27AAE1" stroke-width="0.5"/>
<path id="left-margin-Regular-M" d="M1389.8 1030.78V1150.12" stroke="#00AEEF" stroke-width="0.5"/>
<path id="right-margin-Regular-M" d="M1509.88 1030.78V1150.12" stroke="#00AEEF" stroke-width="0.5"/>
</g>
<g id="Symbols">
<g id="Black-L">
<path id="Vector_13" d="M2931.3 1574.52V1539.96C2931.3 1530.07 2925.56 1524.34 2915.68 1524.34H2882.89C2876.87 1524.34 2872.65 1528.93 2872.65 1534.97C2872.65 1540.98 2876.85 1545.58 2882.89 1545.58H2884.42L2896.89 1544.09L2888.09 1552.33L2874.06 1566.25C2872.01 1568.28 2870.98 1570.98 2870.98 1573.84C2870.98 1580.35 2875.65 1584.77 2882.16 1584.77C2884.94 1584.77 2887.39 1583.53 2889.39 1581.56L2903.37 1567.49L2911.56 1558.69L2910.08 1571.45V1574.52C2910.08 1580.56 2914.63 1584.78 2920.67 1584.79C2926.77 1584.79 2931.3 1580.56 2931.3 1574.52ZM2994.2 1506.94C2994.2 1500.93 2989.99 1496.36 2983.96 1496.36H2982.31L2969.86 1497.85L2978.65 1489.61L2992.74 1475.61C2994.78 1473.6 2995.82 1470.88 2995.82 1468.02C2995.82 1461.53 2991.15 1457.09 2984.64 1457.09C2981.86 1457.09 2979.41 1458.33 2977.42 1460.3L2963.36 1474.42L2955.18 1483.23L2956.67 1470.46V1467.3C2956.67 1461.27 2952.1 1457.06 2946.07 1457.06C2939.97 1457.06 2935.46 1461.26 2935.46 1467.3V1501.98C2935.46 1511.86 2941.19 1517.59 2951.07 1517.59H2983.96C2989.97 1517.59 2994.2 1512.98 2994.2 1506.94Z" fill="black"/>
</g>
<g id="Heavy-L">
<path id="Vector_14" d="M2633.48 1573.87V1539.03C2633.48 1530.08 2628.28 1524.87 2619.32 1524.87H2585.86C2580.54 1524.87 2576.73 1528.91 2576.73 1534.26C2576.73 1539.58 2580.5 1543.63 2585.86 1543.63H2588.61L2603.28 1542.21L2592.29 1552.59L2576.9 1567.86C2575.08 1569.65 2574.19 1572.03 2574.19 1574.55C2574.19 1580.3 2578.26 1584.26 2584.01 1584.26C2586.51 1584.26 2588.71 1583.17 2590.49 1581.42L2605.83 1566.01L2616.15 1555.02L2614.75 1569.92V1573.87C2614.75 1579.21 2618.73 1583.01 2624.09 1583.02C2629.49 1583.02 2633.48 1579.22 2633.48 1573.87ZM2696.75 1507.86C2696.75 1502.54 2692.98 1498.52 2687.63 1498.52H2684.55L2669.91 1499.95L2680.88 1489.57L2696.46 1474.1C2698.26 1472.33 2699.18 1469.93 2699.18 1467.41C2699.18 1461.68 2695.11 1457.7 2689.35 1457.7C2686.86 1457.7 2684.65 1458.79 2682.87 1460.54L2667.34 1476.12L2657.02 1487.11L2658.45 1472.21V1467.97C2658.45 1462.63 2654.44 1458.85 2649.08 1458.85C2643.68 1458.85 2639.71 1462.61 2639.71 1467.97V1503.12C2639.71 1512.08 2644.91 1517.29 2653.88 1517.29H2687.63C2692.95 1517.29 2696.75 1513.22 2696.75 1507.86Z" fill="black"/>
</g>
<g id="Bold-L">
<path id="Vector_15" d="M2335.41 1573.42V1537.97C2335.41 1530.24 2330.9 1525.73 2323.17 1525.73H2288.64C2284.19 1525.73 2280.93 1529.07 2280.93 1533.56C2280.93 1538.02 2284.14 1541.38 2288.64 1541.38H2293.39L2310.44 1540.06L2296.73 1553.13L2279.7 1570.03C2278.17 1571.54 2277.44 1573.5 2277.44 1575.6C2277.44 1580.42 2280.77 1583.76 2285.58 1583.76C2287.7 1583.76 2289.59 1582.87 2291.1 1581.39L2308.08 1564.34L2321.09 1550.65L2319.78 1567.87V1573.42C2319.78 1577.89 2323.06 1581.13 2327.56 1581.15C2332.09 1581.15 2335.41 1577.91 2335.41 1573.42ZM2399.28 1508.98C2399.28 1504.52 2396.07 1501.2 2391.58 1501.2H2386.17L2369.16 1502.52L2382.83 1489.45L2400.25 1472.14C2401.76 1470.67 2402.53 1468.68 2402.53 1466.58C2402.53 1461.81 2399.19 1458.43 2394.37 1458.43C2392.26 1458.43 2390.37 1459.32 2388.87 1460.78L2371.48 1478.2L2358.48 1491.9L2359.81 1474.69V1468.52C2359.81 1464.05 2356.5 1460.83 2352.01 1460.82C2347.48 1460.82 2344.19 1464.01 2344.19 1468.52V1504.61C2344.19 1512.34 2348.69 1516.86 2356.44 1516.86H2391.58C2396.02 1516.86 2399.28 1513.47 2399.28 1508.98Z" fill="black"/>
</g>
<g id="Semibold-L">
<path id="Vector_16" d="M2037.74 1573.11V1537.24C2037.74 1530.35 2033.72 1526.33 2026.83 1526.33H1991.56C1987.72 1526.33 1984.84 1529.18 1984.84 1533.08C1984.84 1536.94 1987.66 1539.83 1991.56 1539.83H1997.69L2016.38 1538.59L2000.8 1553.51L1982.64 1571.53C1981.31 1572.84 1980.69 1574.52 1980.69 1576.33C1980.69 1580.49 1983.51 1583.42 1987.67 1583.42C1989.53 1583.42 1991.21 1582.66 1992.52 1581.37L2010.63 1563.19L2025.5 1547.63L2024.26 1566.45V1573.11C2024.26 1576.97 2027.05 1579.84 2030.97 1579.86C2034.89 1579.86 2037.74 1577.01 2037.74 1573.11ZM2102.03 1509.75C2102.03 1505.89 2099.21 1503.04 2095.31 1503.04H2088.29L2069.64 1504.28L2085.18 1489.36L2103.87 1470.79C2105.18 1469.53 2105.84 1467.82 2105.84 1466.01C2105.84 1461.89 2103.02 1458.92 2098.84 1458.92C2097 1458.92 2095.32 1459.68 2094.01 1460.95L2075.35 1479.63L2060.5 1495.19L2061.76 1476.4V1468.89C2061.76 1465.03 2058.93 1462.19 2055.03 1462.17C2051.11 1462.17 2048.28 1464.97 2048.28 1468.89V1505.63C2048.28 1512.52 2052.31 1516.56 2059.21 1516.56H2095.31C2099.14 1516.56 2102.03 1513.65 2102.03 1509.75Z" fill="black"/>
</g>
<g id="Medium-L">
<path id="Vector_17" d="M1740.32 1572.87V1536.68C1740.32 1530.44 1736.66 1526.78 1730.41 1526.78H1694.58C1691.2 1526.78 1688.6 1529.27 1688.6 1532.72C1688.6 1536.12 1691.13 1538.66 1694.58 1538.66H1701.76L1721.69 1537.47L1704.69 1553.8L1685.67 1572.67C1684.49 1573.82 1683.95 1575.29 1683.95 1576.88C1683.95 1580.55 1686.39 1583.16 1690.06 1583.16C1691.72 1583.16 1693.23 1582.5 1694.4 1581.36L1713.38 1562.32L1729.65 1545.35L1728.46 1565.38V1572.87C1728.46 1576.28 1730.88 1578.86 1734.35 1578.88C1737.81 1578.88 1740.32 1576.32 1740.32 1572.87ZM1804.92 1510.33C1804.92 1506.93 1802.39 1504.44 1798.94 1504.44H1790.7L1770.81 1505.63L1787.76 1489.3L1807.42 1469.77C1808.58 1468.66 1809.16 1467.17 1809.16 1465.58C1809.16 1461.96 1806.72 1459.3 1803.03 1459.3C1801.39 1459.3 1799.88 1459.96 1798.71 1461.08L1779.08 1480.72L1762.83 1497.7L1764.04 1477.69V1469.18C1764.04 1465.78 1761.58 1463.22 1758.13 1463.2C1754.66 1463.2 1752.19 1465.71 1752.19 1469.18V1506.41C1752.19 1512.66 1755.85 1516.34 1762.11 1516.34H1798.94C1802.32 1516.34 1804.92 1513.78 1804.92 1510.33Z" fill="black"/>
</g>
<g id="Regular-L">
<path id="Vector_18" d="M1442.67 1572.57V1535.96C1442.67 1530.55 1439.49 1527.37 1434.08 1527.37H1397.52C1394.74 1527.37 1392.51 1529.38 1392.51 1532.24C1392.51 1535.06 1394.66 1537.12 1397.52 1537.12H1406.06L1427.61 1536.01L1408.76 1554.17L1388.62 1574.15C1387.64 1575.11 1387.21 1576.3 1387.21 1577.6C1387.21 1580.62 1389.15 1582.82 1392.17 1582.82C1393.58 1582.82 1394.87 1582.29 1395.85 1581.34L1415.95 1561.19L1434.06 1542.37L1432.94 1563.98V1572.57C1432.94 1575.38 1434.87 1577.58 1437.76 1577.61C1440.63 1577.61 1442.67 1575.43 1442.67 1572.57ZM1507.68 1511.09C1507.68 1508.28 1505.53 1506.26 1502.67 1506.26H1492.84L1471.34 1507.38L1490.13 1489.22L1511.05 1468.44C1512 1467.53 1512.48 1466.32 1512.48 1465.02C1512.48 1462.05 1510.55 1459.79 1507.5 1459.79C1506.12 1459.79 1504.82 1460.33 1503.84 1461.25L1482.95 1482.14L1464.87 1500.96L1466.01 1479.38V1469.55C1466.01 1466.75 1464.03 1464.57 1461.16 1464.54C1458.3 1464.54 1456.28 1466.66 1456.28 1469.55V1507.43C1456.28 1512.84 1459.47 1516.05 1464.9 1516.05H1502.67C1505.45 1516.05 1507.68 1513.95 1507.68 1511.09Z" fill="black"/>
</g>
<g id="Light-L">
<path id="Vector_19" d="M1144.88 1574.52V1535.67C1144.88 1531.64 1142.45 1529.2 1138.41 1529.2H1099.6C1097.51 1529.2 1095.79 1530.66 1095.79 1532.84C1095.79 1534.98 1097.43 1536.53 1099.6 1536.53H1112.64L1133.59 1535.65L1112.89 1555.91L1091.83 1576.81C1091.11 1577.53 1090.78 1578.44 1090.78 1579.42C1090.78 1581.69 1092.22 1583.3 1094.5 1583.3C1095.54 1583.3 1096.52 1582.9 1097.23 1582.18L1118.32 1561.06L1138.48 1540.41L1137.54 1561.44V1574.52C1137.54 1576.6 1138.98 1578.27 1141.2 1578.31C1143.38 1578.31 1144.88 1576.69 1144.88 1574.52ZM1211.25 1511.63C1211.25 1509.48 1209.62 1507.96 1207.44 1507.96H1192.38L1171.48 1508.85L1192.14 1488.59L1214.39 1466.45C1215.12 1465.76 1215.48 1464.87 1215.48 1463.89C1215.48 1461.65 1214.04 1460.01 1211.72 1460.01C1210.72 1460.01 1209.75 1460.4 1209.03 1461.08L1186.71 1483.41L1166.59 1504.06L1167.52 1483.07V1468.01C1167.52 1465.93 1166.05 1464.25 1163.87 1464.2C1161.7 1464.2 1160.18 1465.79 1160.18 1468.01V1508.82C1160.18 1512.86 1162.62 1515.34 1166.7 1515.34H1207.44C1209.54 1515.34 1211.25 1513.8 1211.25 1511.63Z" fill="black"/>
</g>
<g id="Thin-L">
<path id="Vector_20" d="M846.761 1577.09V1535.29C846.761 1533.08 845.307 1531.62 843.091 1531.62H801.303C800.114 1531.62 799.082 1532.35 799.082 1533.62C799.082 1534.88 800.034 1535.75 801.303 1535.75H820.301L840.435 1535.16L817.288 1558.2L795.015 1580.31C794.655 1580.74 794.452 1581.27 794.452 1581.81C794.452 1583.11 795.235 1583.93 796.529 1583.93C797.091 1583.93 797.637 1583.71 797.996 1583.29L820.397 1560.88L843.29 1537.8L842.571 1558.08V1577.09C842.571 1578.21 843.353 1579.17 844.694 1579.24C845.962 1579.24 846.761 1578.36 846.761 1577.09ZM914.921 1512.33C914.921 1511.07 913.97 1510.21 912.701 1510.21H890.726L870.601 1510.79L893.739 1487.75L917.757 1463.83C918.18 1463.41 918.391 1462.95 918.391 1462.4C918.391 1461.11 917.609 1460.28 916.243 1460.28C915.753 1460.28 915.207 1460.5 914.848 1460.85L890.631 1485.07L867.809 1508.14L868.465 1487.94V1465.96C868.465 1464.84 867.674 1463.81 866.406 1463.74C865.137 1463.74 864.274 1464.62 864.274 1465.96V1510.66C864.274 1512.88 865.729 1514.41 868.017 1514.41H912.701C913.89 1514.41 914.921 1513.6 914.921 1512.33Z" fill="black"/>
</g>
<g id="Ultralight-L">
<path id="Vector_21" d="M549.326 1578.41V1535.1C549.326 1533.81 548.375 1532.86 547.09 1532.86H503.777C503.054 1532.86 502.371 1533.22 502.371 1534.02C502.371 1534.83 502.974 1535.35 503.777 1535.35H525.827L545.547 1534.92L521.146 1559.38L498.252 1582.11C498.073 1582.38 497.935 1582.71 497.935 1583.04C497.935 1583.83 498.381 1584.25 499.171 1584.25C499.488 1584.25 499.813 1584.12 499.992 1583.86L523.065 1560.79L547.354 1536.47L546.751 1556.36V1578.41C546.751 1579.04 547.197 1579.64 548.086 1579.72C548.889 1579.72 549.326 1579.21 549.326 1578.41ZM618.404 1512.69C618.404 1511.89 617.802 1511.36 616.998 1511.36H591.48L571.756 1511.79L596.161 1487.33L621.084 1462.48C621.352 1462.21 621.486 1461.96 621.486 1461.64C621.486 1460.84 621.04 1460.42 620.165 1460.42C619.933 1460.42 619.608 1460.55 619.429 1460.74L594.243 1485.92L570.038 1510.24L570.551 1490.43V1464.92C570.551 1464.28 570.11 1463.6 569.307 1463.51C568.503 1463.51 567.977 1464.03 567.977 1464.92V1511.61C567.977 1512.89 568.927 1513.93 570.297 1513.93H616.998C617.721 1513.93 618.404 1513.5 618.404 1512.69Z" fill="black"/>
</g>
<g id="Black-M">
<path id="Vector_22" d="M2932.56 1133.22V1106.37C2932.56 1098.11 2927.76 1093.31 2919.5 1093.31H2894.36C2889.2 1093.31 2885.63 1097.27 2885.63 1102.44C2885.63 1107.6 2889.19 1111.56 2894.36 1111.56H2895.11L2902.8 1110.38L2897.61 1115.21L2887.78 1124.97C2886.04 1126.71 2885.14 1129.05 2885.14 1131.51C2885.14 1137.09 2889.2 1140.84 2894.79 1140.84C2897.15 1140.84 2899.21 1139.76 2900.9 1138.08L2910.71 1128.2L2915.49 1123.01L2914.31 1130.98V1133.22C2914.31 1138.39 2918.26 1141.96 2923.43 1141.96C2928.66 1141.96 2932.56 1138.39 2932.56 1133.22ZM2981.16 1079.32C2981.16 1074.16 2977.59 1070.2 2972.42 1070.2H2971.67L2963.99 1071.38L2969.17 1066.55L2979 1056.79C2980.74 1055.05 2981.64 1052.71 2981.64 1050.25C2981.64 1044.67 2977.58 1040.92 2972 1040.92C2969.64 1040.92 2967.58 1042 2965.89 1043.68L2956.07 1053.56L2951.29 1058.75L2952.48 1050.77V1048.54C2952.48 1043.37 2948.52 1039.8 2943.35 1039.8C2938.12 1039.8 2934.23 1043.37 2934.23 1048.54V1075.39C2934.23 1083.66 2939.03 1088.45 2947.29 1088.45H2972.42C2977.59 1088.45 2981.16 1084.49 2981.16 1079.32Z" fill="black"/>
</g>
<g id="Heavy-M">
<path id="Vector_23" d="M2634.88 1132.41V1105.51C2634.88 1098.02 2630.53 1093.67 2623.04 1093.67H2597.46C2592.91 1093.67 2589.71 1097.14 2589.71 1101.7C2589.71 1106.26 2592.89 1109.73 2597.46 1109.73H2598.99L2608.88 1108.59L2601.72 1115.32L2590.65 1126.3C2589.1 1127.84 2588.33 1129.88 2588.33 1132.04C2588.33 1136.96 2591.85 1140.31 2596.77 1140.31C2598.88 1140.31 2600.74 1139.37 2602.24 1137.88L2613.28 1126.78L2619.96 1119.62L2618.84 1129.74V1132.41C2618.84 1136.98 2622.27 1140.18 2626.84 1140.18C2631.45 1140.18 2634.88 1136.98 2634.88 1132.41ZM2683.71 1080.18C2683.71 1075.63 2680.53 1072.18 2675.96 1072.18H2674.29L2664.41 1073.32L2671.56 1066.59L2682.71 1055.51C2684.25 1053.99 2685.04 1051.94 2685.04 1049.77C2685.04 1044.87 2681.52 1041.51 2676.59 1041.51C2674.49 1041.51 2672.63 1042.45 2671.13 1043.94L2660 1055.11L2653.32 1062.27L2654.46 1052.15V1049.35C2654.46 1044.79 2651 1041.6 2646.44 1041.6C2641.83 1041.6 2638.42 1044.78 2638.42 1049.35V1076.4C2638.42 1083.89 2642.76 1088.24 2650.25 1088.24H2675.96C2680.51 1088.24 2683.71 1084.75 2683.71 1080.18Z" fill="black"/>
</g>
<g id="Bold-M">
<path id="Vector_24" d="M2337.08 1131.51V1104.54C2337.08 1097.92 2333.24 1094.07 2326.62 1094.07H2300.53C2296.68 1094.07 2293.88 1096.99 2293.88 1100.88C2293.88 1104.74 2296.64 1107.67 2300.53 1107.67H2302.93L2315.3 1106.58L2305.93 1115.43L2293.47 1127.79C2292.14 1129.1 2291.5 1130.81 2291.5 1132.64C2291.5 1136.81 2294.43 1139.71 2298.6 1139.71C2300.43 1139.71 2302.05 1138.93 2303.36 1137.65L2315.76 1125.18L2324.58 1115.82L2323.51 1128.34V1131.51C2323.51 1135.39 2326.37 1138.18 2330.27 1138.18C2334.19 1138.18 2337.08 1135.4 2337.08 1131.51ZM2386.18 1081.14C2386.18 1077.28 2383.42 1074.38 2379.53 1074.38H2376.83L2364.5 1075.47L2373.83 1066.62L2386.47 1054.07C2387.78 1052.8 2388.44 1051.06 2388.44 1049.24C2388.44 1045.09 2385.52 1042.17 2381.34 1042.17C2379.52 1042.17 2377.89 1042.95 2376.59 1044.22L2364 1056.84L2355.19 1066.21L2356.28 1053.69V1050.26C2356.28 1046.38 2353.39 1043.61 2349.5 1043.6C2345.58 1043.6 2342.71 1046.36 2342.71 1050.26V1077.52C2342.71 1084.14 2346.55 1087.99 2353.18 1087.99H2379.53C2383.38 1087.99 2386.18 1085.04 2386.18 1081.14Z" fill="black"/>
</g>
<g id="Semibold-M">
<path id="Vector_25" d="M2039.63 1130.88V1103.87C2039.63 1097.85 2036.13 1094.35 2030.11 1094.35H2003.68C2000.3 1094.35 1997.79 1096.89 1997.79 1100.31C1997.79 1103.7 2000.25 1106.25 2003.68 1106.25H2006.68L2020.75 1105.2L2009.86 1115.51L1996.44 1128.82C1995.27 1129.97 1994.72 1131.45 1994.72 1133.05C1994.72 1136.71 1997.23 1139.29 2000.89 1139.29C2002.52 1139.29 2003.99 1138.62 2005.15 1137.49L2018.5 1124.08L2028.79 1113.2L2027.76 1127.37V1130.88C2027.76 1134.29 2030.23 1136.8 2033.66 1136.81C2037.1 1136.81 2039.63 1134.31 2039.63 1130.88ZM2088.91 1081.81C2088.91 1078.42 2086.44 1075.91 2083.01 1075.91H2079.61L2065.58 1076.96L2076.43 1066.64L2090.09 1053.09C2091.24 1051.97 2091.82 1050.46 2091.82 1048.86C2091.82 1045.24 2089.31 1042.62 2085.64 1042.62C2084.02 1042.62 2082.55 1043.29 2081.39 1044.42L2067.79 1058.04L2057.51 1068.92L2058.57 1054.75V1050.88C2058.57 1047.47 2056.06 1044.99 2052.64 1044.99C2049.2 1044.99 2046.7 1047.45 2046.7 1050.88V1078.29C2046.7 1084.31 2050.2 1087.81 2056.22 1087.81H2083.01C2086.39 1087.81 2088.91 1085.23 2088.91 1081.81Z" fill="black"/>
</g>
<g id="Medium-M">
<path id="Vector_26" d="M1742.35 1130.41V1103.36C1742.35 1097.8 1739.11 1094.56 1733.55 1094.56H1706.85C1703.83 1094.56 1701.53 1096.81 1701.53 1099.88C1701.53 1102.91 1703.78 1105.18 1706.85 1105.18H1710.31L1725.67 1104.15L1713.62 1115.58L1699.48 1129.6C1698.42 1130.63 1697.95 1131.94 1697.95 1133.36C1697.95 1136.63 1700.14 1138.98 1703.41 1138.98C1704.9 1138.98 1706.25 1138.39 1707.3 1137.37L1721.37 1123.25L1732.77 1111.21L1731.76 1126.64V1130.41C1731.76 1133.46 1733.94 1135.75 1737.02 1135.76C1740.1 1135.76 1742.35 1133.48 1742.35 1130.41ZM1791.76 1082.31C1791.76 1079.28 1789.52 1077.06 1786.44 1077.06H1782.51L1767.19 1078.09L1779.19 1066.66L1793.62 1052.33C1794.65 1051.35 1795.17 1050 1795.17 1048.58C1795.17 1045.35 1792.98 1042.96 1789.69 1042.96C1788.22 1042.96 1786.87 1043.56 1785.82 1044.56L1771.44 1058.95L1760.05 1070.98L1761.09 1055.56V1051.35C1761.09 1048.3 1758.88 1046.04 1755.81 1046.04C1752.72 1046.04 1750.51 1048.27 1750.51 1051.35V1078.88C1750.51 1084.44 1753.74 1087.68 1759.32 1087.68H1786.44C1789.46 1087.68 1791.76 1085.38 1791.76 1082.31Z" fill="black"/>
</g>
<g id="Regular-M">
<path id="Vector_27" d="M1444.89 1129.79V1102.7C1444.89 1097.73 1442 1094.84 1437.03 1094.84H1409.99C1407.44 1094.84 1405.42 1096.71 1405.42 1099.32C1405.42 1101.88 1407.38 1103.78 1409.99 1103.78H1414.04L1431.08 1102.78L1417.53 1115.66L1402.45 1130.62C1401.54 1131.49 1401.15 1132.57 1401.15 1133.77C1401.15 1136.53 1402.94 1138.57 1405.7 1138.57C1407 1138.57 1408.19 1138.09 1409.1 1137.22L1424.1 1122.16L1436.95 1108.62L1435.99 1125.69V1129.79C1435.99 1132.38 1437.77 1134.39 1440.39 1134.4C1443 1134.4 1444.89 1132.4 1444.89 1129.79ZM1494.49 1082.97C1494.49 1080.41 1492.53 1078.56 1489.92 1078.56H1485.28L1468.29 1079.56L1481.78 1066.68L1497.23 1051.36C1498.1 1050.54 1498.53 1049.41 1498.53 1048.22C1498.53 1045.5 1496.75 1043.41 1493.97 1043.41C1492.69 1043.41 1491.5 1043.9 1490.59 1044.76L1475.21 1060.13L1462.37 1073.66L1463.38 1056.61V1051.97C1463.38 1049.38 1461.54 1047.41 1458.93 1047.4C1456.32 1047.4 1454.48 1049.35 1454.48 1051.97V1079.64C1454.48 1084.61 1457.37 1087.51 1462.35 1087.51H1489.92C1492.47 1087.51 1494.49 1085.58 1494.49 1082.97Z" fill="black"/>
</g>
<g id="Light-M">
<path id="Vector_28" d="M1147.22 1131.54V1102.44C1147.22 1098.7 1145 1096.48 1141.26 1096.48H1112.2C1110.27 1096.48 1108.71 1097.86 1108.71 1099.85C1108.71 1101.81 1110.2 1103.25 1112.2 1103.25H1120.29L1136.78 1102.46L1121.58 1117.21L1105.67 1133C1105 1133.66 1104.7 1134.49 1104.7 1135.39C1104.7 1137.49 1106.04 1139 1108.14 1139C1109.11 1139 1110.01 1138.63 1110.68 1137.97L1126.57 1122.04L1141.27 1106.86L1140.46 1123.42V1131.54C1140.46 1133.48 1141.8 1135.01 1143.82 1135.03C1145.82 1135.03 1147.22 1133.53 1147.22 1131.54ZM1198.03 1083.45C1198.03 1081.49 1196.54 1080.09 1194.54 1080.09H1185.22L1168.75 1080.88L1183.93 1066.12L1200.57 1049.58C1201.23 1048.95 1201.56 1048.11 1201.56 1047.21C1201.56 1045.14 1200.23 1043.6 1198.1 1043.6C1197.16 1043.6 1196.26 1043.97 1195.59 1044.6L1178.93 1061.26L1164.26 1076.44L1165.08 1059.91V1050.59C1165.08 1048.65 1163.7 1047.12 1161.71 1047.1C1159.72 1047.1 1158.32 1048.56 1158.32 1050.59V1080.89C1158.32 1084.63 1160.54 1086.88 1164.31 1086.88H1194.54C1196.47 1086.88 1198.03 1085.44 1198.03 1083.45Z" fill="black"/>
</g>
<g id="Thin-M">
<path id="Vector_29" d="M849.245 1133.84V1102.1C849.245 1099.99 847.904 1098.65 845.793 1098.65H814.064C812.947 1098.65 811.999 1099.37 811.999 1100.55C811.999 1101.72 812.884 1102.54 814.064 1102.54H827.491L843.265 1102.03L825.863 1119.27L808.87 1136.14C808.515 1136.53 808.33 1137.03 808.33 1137.54C808.33 1138.76 809.078 1139.57 810.294 1139.57C810.834 1139.57 811.35 1139.36 811.705 1138.96L828.775 1121.88L845.92 1104.53L845.313 1120.41V1133.84C845.313 1134.92 846.062 1135.82 847.292 1135.87C848.472 1135.87 849.245 1135.02 849.245 1133.84ZM901.662 1084.08C901.662 1082.91 900.777 1082.1 899.597 1082.1H884.072L868.311 1082.62L885.7 1065.37L903.925 1047.22C904.318 1046.84 904.515 1046.39 904.515 1045.87C904.515 1044.67 903.766 1043.85 902.5 1043.85C902.011 1043.85 901.495 1044.06 901.14 1044.4L882.789 1062.75L865.694 1080.1L866.262 1064.28V1048.75C866.262 1047.67 865.502 1046.74 864.322 1046.69C863.142 1046.69 862.331 1047.52 862.331 1048.75V1082.54C862.331 1084.65 863.672 1086.04 865.833 1086.04H899.597C900.715 1086.04 901.662 1085.26 901.662 1084.08Z" fill="black"/>
</g>
<g id="Ultralight-M">
<path id="Vector_30" d="M551.884 1135.03V1101.93C551.884 1100.65 550.995 1099.76 549.719 1099.76H516.622C515.922 1099.76 515.287 1100.15 515.287 1100.91C515.287 1101.68 515.859 1102.19 516.622 1102.19H532.784L548.187 1101.81L529.661 1120.33L512.111 1137.75C511.918 1138.01 511.792 1138.32 511.792 1138.64C511.792 1139.41 512.239 1139.86 513.003 1139.86C513.322 1139.86 513.641 1139.73 513.834 1139.47L531.507 1121.8L549.903 1103.34L549.401 1118.86V1135.03C549.401 1135.67 549.848 1136.24 550.673 1136.3C551.436 1136.3 551.884 1135.79 551.884 1135.03ZM605.124 1084.4C605.124 1083.64 604.552 1083.13 603.789 1083.13H585.089L569.686 1083.51L588.212 1064.99L607.248 1046.02C607.502 1045.76 607.629 1045.51 607.629 1045.19C607.629 1044.43 607.182 1043.98 606.356 1043.98C606.098 1043.98 605.78 1044.1 605.587 1044.3L586.366 1063.52L568.031 1081.98L568.472 1066.52V1047.81C568.472 1047.18 568.025 1046.54 567.262 1046.48C566.499 1046.48 565.99 1046.99 565.99 1047.81V1083.39C565.99 1084.66 566.878 1085.62 568.217 1085.62H603.789C604.49 1085.62 605.124 1085.17 605.124 1084.4Z" fill="black"/>
</g>
<g id="Black-S">
<path id="Vector_31" d="M2932.98 694.389V673.246C2932.98 666.605 2929.12 662.748 2922.48 662.748H2902.81C2898.61 662.748 2895.73 665.971 2895.73 670.17C2895.73 674.369 2898.61 677.592 2902.81 677.592H2903.39L2908.71 676.664L2905.15 679.984L2897.78 687.309C2896.36 688.725 2895.63 690.629 2895.63 692.631C2895.63 697.172 2898.95 700.199 2903.49 700.199C2905.39 700.199 2907.05 699.32 2908.42 697.953L2915.79 690.531L2919.07 686.967L2918.14 692.533V694.389C2918.14 698.588 2921.36 701.469 2925.56 701.469C2929.81 701.469 2932.98 698.588 2932.98 694.389ZM2971.07 651.566C2971.07 647.367 2968.19 644.145 2963.99 644.145H2963.4L2958.08 645.072L2961.64 641.752L2969.02 634.428C2970.43 633.012 2971.16 631.107 2971.16 629.105C2971.16 624.564 2967.84 621.537 2963.3 621.537C2961.4 621.537 2959.74 622.416 2958.37 623.783L2951 631.205L2947.73 634.77L2948.65 629.203V627.348C2948.65 623.148 2945.43 620.268 2941.23 620.268C2936.98 620.268 2933.81 623.148 2933.81 627.348V648.49C2933.81 655.131 2937.67 658.988 2944.31 658.988H2963.99C2968.19 658.988 2971.07 655.766 2971.07 651.566Z" fill="black"/>
</g>
<g id="Heavy-S">
<path id="Vector_32" d="M2635.57 693.472V672.537C2635.57 666.403 2632.01 662.845 2625.88 662.845H2606.07C2602.32 662.845 2599.69 665.711 2599.69 669.472C2599.69 673.222 2602.31 676.087 2606.07 676.087H2606.81L2614.09 675.171L2609.05 679.874L2600.72 688.143C2599.44 689.41 2598.8 691.095 2598.8 692.878C2598.8 696.935 2601.72 699.686 2605.78 699.686C2607.51 699.686 2609.03 698.91 2610.27 697.682L2618.58 689.326L2623.24 684.287L2622.34 691.755V693.472C2622.34 697.233 2625.18 699.86 2628.94 699.86C2632.74 699.86 2635.57 697.233 2635.57 693.472ZM2673.7 652.24C2673.7 648.49 2671.08 645.636 2667.32 645.636H2666.55L2659.28 646.552L2664.31 641.849L2672.66 633.557C2673.93 632.302 2674.58 630.605 2674.58 628.822C2674.58 624.777 2671.66 622.015 2667.61 622.015C2665.88 622.015 2664.35 622.79 2663.11 624.019L2654.78 632.386L2650.12 637.425L2651.03 629.957V628.217C2651.03 624.456 2648.18 621.84 2644.42 621.84C2640.62 621.84 2637.8 624.456 2637.8 628.217V649.187C2637.8 655.32 2641.36 658.878 2647.49 658.878H2667.32C2671.07 658.878 2673.7 656.001 2673.7 652.24Z" fill="black"/>
</g>
<g id="Bold-S">
<path id="Vector_33" d="M2338.07 692.448V671.745C2338.07 666.179 2334.84 662.956 2329.28 662.956H2309.33C2306.08 662.956 2303.74 665.422 2303.74 668.693C2303.74 671.94 2306.06 674.406 2309.33 674.406H2310.23L2319.71 673.503L2313.02 679.753L2303.62 689.079C2302.49 690.178 2301.96 691.618 2301.96 693.156C2301.96 696.672 2304.42 699.113 2307.94 699.113C2309.48 699.113 2310.84 698.454 2311.94 697.38L2321.29 687.98L2327.52 681.291L2326.64 690.886V692.448C2326.64 695.72 2329.06 698.063 2332.33 698.063C2335.62 698.063 2338.07 695.72 2338.07 692.448ZM2376.25 652.995C2376.25 649.748 2373.93 647.307 2370.66 647.307H2369.68L2360.23 648.21L2366.9 641.96L2376.35 632.585C2377.45 631.511 2378.01 630.046 2378.01 628.508C2378.01 625.017 2375.54 622.551 2372.03 622.551C2370.49 622.551 2369.12 623.21 2368.02 624.284L2358.62 633.708L2352.4 640.397L2353.3 630.803V629.191C2353.3 625.92 2350.86 623.601 2347.59 623.601C2344.29 623.601 2341.87 625.92 2341.87 629.191V649.968C2341.87 655.534 2345.1 658.757 2350.66 658.757H2370.66C2373.91 658.757 2376.25 656.267 2376.25 652.995Z" fill="black"/>
</g>
<g id="Semibold-S">
<path id="Vector_34" d="M2040.81 691.742V671.198C2040.81 666.023 2037.81 663.031 2032.64 663.031H2012.59C2009.69 663.031 2007.55 665.222 2007.55 668.156C2007.55 671.056 2009.66 673.246 2012.59 673.246H2013.61L2024.6 672.352L2016.77 679.668L2006.63 689.723C2005.62 690.706 2005.15 691.978 2005.15 693.347C2005.15 696.49 2007.3 698.718 2010.45 698.718C2011.85 698.718 2013.11 698.138 2014.11 697.171L2024.18 687.052L2031.48 679.225L2030.62 690.286V691.742C2030.62 694.675 2032.75 696.824 2035.68 696.824C2038.63 696.824 2040.81 694.675 2040.81 691.742ZM2079.02 653.515C2079.02 650.614 2076.91 648.457 2073.98 648.457H2072.86L2061.91 649.352L2069.7 642.035L2079.9 631.914C2080.89 630.964 2081.39 629.659 2081.39 628.29C2081.39 625.181 2079.23 622.919 2076.09 622.919C2074.68 622.919 2073.42 623.499 2072.42 624.466L2062.29 634.619L2054.99 642.446L2055.88 631.385V629.862C2055.88 626.928 2053.72 624.813 2050.79 624.813C2047.84 624.813 2045.7 626.928 2045.7 629.862V650.505C2045.7 655.681 2048.69 658.672 2053.87 658.672H2073.98C2076.88 658.672 2079.02 656.449 2079.02 653.515Z" fill="black"/>
</g>
<g id="Medium-S">
<path id="Vector_35" d="M1743.68 691.205V670.783C1743.68 665.904 1740.86 663.088 1735.98 663.088H1715.86C1713.22 663.088 1711.22 665.069 1711.22 667.747C1711.22 670.385 1713.18 672.366 1715.86 672.366H1716.97L1729.1 671.479L1720.41 679.604L1709.71 690.211C1708.78 691.106 1708.36 692.25 1708.36 693.491C1708.36 696.351 1710.28 698.417 1713.14 698.417C1714.45 698.417 1715.63 697.898 1716.55 697.012L1727.17 686.347L1735.29 677.657L1734.44 689.83V691.205C1734.44 693.883 1736.34 695.883 1739.02 695.883C1741.7 695.883 1743.68 693.883 1743.68 691.205ZM1781.92 653.908C1781.92 651.27 1779.96 649.329 1777.28 649.329H1776.06L1763.97 650.217L1772.62 642.092L1783.39 631.404C1784.29 630.549 1784.74 629.365 1784.74 628.124C1784.74 625.305 1782.82 623.198 1779.96 623.198C1778.66 623.198 1777.48 623.717 1776.55 624.604L1765.86 635.309L1757.74 643.998L1758.63 631.825V630.37C1758.63 627.692 1756.69 625.732 1754.01 625.732C1751.32 625.732 1749.39 627.692 1749.39 630.37V650.912C1749.39 655.791 1752.21 658.607 1757.09 658.607H1777.28C1779.92 658.607 1781.92 656.586 1781.92 653.908Z" fill="black"/>
</g>
<g id="Regular-S">
<path id="Vector_36" d="M1446.43 690.507V670.243C1446.43 665.751 1443.84 663.163 1439.35 663.163H1419.13C1416.84 663.163 1415.03 664.872 1415.03 667.216C1415.03 669.511 1416.79 671.22 1419.13 671.22H1420.35L1433.98 670.341L1424.16 679.52L1412.74 690.849C1411.91 691.63 1411.57 692.606 1411.57 693.681C1411.57 696.171 1413.18 698.026 1415.67 698.026C1416.84 698.026 1417.91 697.587 1418.74 696.806L1430.07 685.429L1439.25 675.614L1438.42 689.237V690.507C1438.42 692.851 1440.03 694.657 1442.38 694.657C1444.72 694.657 1446.43 692.851 1446.43 690.507ZM1484.71 654.423C1484.71 652.128 1482.95 650.468 1480.61 650.468H1479.24L1465.67 651.347L1475.43 642.167L1486.96 630.741C1487.74 630.009 1488.13 628.983 1488.13 627.909C1488.13 625.468 1486.52 623.563 1484.03 623.563C1482.85 623.563 1481.78 624.003 1480.95 624.784L1469.52 636.21L1460.35 646.024L1461.22 632.401V631.034C1461.22 628.69 1459.56 626.933 1457.22 626.933C1454.88 626.933 1453.22 628.69 1453.22 631.034V651.444C1453.22 655.936 1455.8 658.524 1460.3 658.524H1480.61C1482.9 658.524 1484.71 656.767 1484.71 654.423Z" fill="black"/>
</g>
<g id="Light-S">
<path id="Vector_37" d="M1148.87 692.051V670.017C1148.87 666.614 1146.87 664.617 1143.47 664.617H1121.47C1119.72 664.617 1118.32 665.887 1118.32 667.685C1118.32 669.451 1119.67 670.751 1121.47 670.751H1126.26L1139.4 670.054L1128.12 680.898L1115.96 692.953C1115.34 693.553 1115.08 694.302 1115.08 695.119C1115.08 697.019 1116.3 698.405 1118.2 698.405C1119.08 698.405 1119.9 698.072 1120.52 697.472L1132.63 685.323L1143.45 674.056L1142.75 687.225V692.051C1142.75 693.82 1143.97 695.203 1145.78 695.218C1147.58 695.218 1148.87 693.85 1148.87 692.051ZM1188.22 654.847C1188.22 653.082 1186.87 651.815 1185.08 651.815H1179.56L1166.46 652.513L1177.7 641.668L1190.29 629.167C1190.89 628.602 1191.19 627.833 1191.19 627.017C1191.19 625.15 1189.97 623.73 1188.05 623.73C1187.19 623.73 1186.37 624.064 1185.75 624.648L1173.19 637.209L1162.39 648.477L1163.1 635.323V629.809C1163.1 628.04 1161.85 626.676 1160.05 626.661C1158.25 626.661 1156.99 627.995 1156.99 629.809V652.55C1156.99 655.952 1158.98 657.965 1162.4 657.965H1185.08C1186.83 657.965 1188.22 656.646 1188.22 654.847Z" fill="black"/>
</g>
<g id="Thin-S">
<path id="Vector_38" d="M851.036 694.093V669.716C851.036 667.755 849.819 666.538 847.858 666.538H823.494C822.465 666.538 821.608 667.227 821.608 668.306C821.608 669.37 822.416 670.13 823.494 670.13H833.012L845.51 669.673L832.285 682.72L819.172 695.735C818.834 696.095 818.668 696.544 818.668 697.02C818.668 698.14 819.366 698.905 820.485 698.905C820.989 698.905 821.465 698.712 821.803 698.353L834.959 685.183L847.936 671.993L847.422 684.562V694.093C847.422 695.101 848.119 695.923 849.233 695.958C850.311 695.958 851.036 695.171 851.036 694.093ZM891.813 655.407C891.813 654.343 891.004 653.597 889.926 653.597H878.926L866.442 654.054L879.653 641.007L893.637 627.085C893.996 626.739 894.176 626.311 894.176 625.835C894.176 624.729 893.479 623.95 892.324 623.95C891.856 623.95 891.379 624.143 891.041 624.468L876.979 638.53L864.037 651.72L864.53 639.186V628.186C864.53 627.179 863.819 626.335 862.741 626.3C861.662 626.3 860.916 627.073 860.916 628.186V654.011C860.916 655.972 862.133 657.224 864.129 657.224H889.926C890.955 657.224 891.813 656.485 891.813 655.407Z" fill="black"/>
</g>
<g id="Ultralight-S">
<path id="Vector_39" d="M553.75 695.138V669.562C553.75 668.339 552.933 667.522 551.71 667.522H526.137C525.477 667.522 524.896 667.914 524.896 668.623C524.896 669.329 525.428 669.812 526.137 669.812H538.075L550.245 669.478L536.025 683.652L522.42 697.16C522.226 697.396 522.111 697.692 522.111 697.994C522.111 698.713 522.542 699.161 523.261 699.161C523.57 699.161 523.872 699.04 524.066 698.803L537.756 685.11L551.84 670.937L551.418 683.197V695.138C551.418 695.756 551.849 696.291 552.604 696.337C553.313 696.337 553.75 695.847 553.75 695.138ZM595.255 655.694C595.255 654.988 594.724 654.509 594.015 654.509H580.205L568.039 654.843L582.254 640.668L596.957 626.018C597.193 625.785 597.311 625.532 597.311 625.23C597.311 624.514 596.88 624.062 596.116 624.062C595.852 624.062 595.55 624.184 595.355 624.375L580.524 639.207L566.485 653.38L566.865 641.165V627.355C566.865 626.737 566.431 626.16 565.722 626.115C565.013 626.115 564.533 626.601 564.533 627.355V654.759C564.533 655.981 565.35 656.844 566.618 656.844H594.015C594.675 656.844 595.255 656.403 595.255 655.694Z" fill="black"/>
</g>
</g>
</g>
<defs>
<clipPath id="clip0_19388_43119">
<rect width="3300" height="2200" fill="white"/>
</clipPath>
</defs>
</svg>
