<svg width="156" height="954" viewBox="0 0 156 954" fill="none" xmlns="http://www.w3.org/2000/svg">
<path d="M143 0H13C5.82029 0 0 5.82029 0 13V938.6C0 945.78 5.82029 951.6 13 951.6H143C150.18 951.6 156 945.78 156 938.6V13C156 5.82029 150.18 0 143 0Z" fill="#76DC9F"/>
<path d="M79.2188 73.4461C79.2188 73.4461 85.4369 52.4062 103.634 52.4062C121.83 52.4062 127.801 74.3987 123.252 89.0762C115.291 111.929 79.2188 133.154 79.2188 133.154V73.4461Z" fill="white" fill-opacity="0.4"/>
<path d="M79.3121 73.4461C79.3121 73.4461 73.094 52.4062 54.8972 52.4062C36.7004 52.4062 30.7297 74.3987 35.2789 89.0762C43.2401 111.929 79.3121 133.154 79.3121 133.154V73.4461Z" fill="white" fill-opacity="0.4"/>
<path d="M79.2188 200.993C79.2188 200.993 85.4368 179.953 103.634 179.953C121.83 179.953 127.801 201.946 123.252 216.623C115.29 239.476 79.2188 260.701 79.2188 260.701V200.993Z" fill="white" fill-opacity="0.4"/>
<path d="M79.3122 200.993C79.3122 200.993 73.0938 179.953 54.8973 179.953C36.7005 179.953 30.7299 201.946 35.2788 216.623C43.2402 239.476 79.3122 260.701 79.3122 260.701V200.993Z" fill="white" fill-opacity="0.4"/>
<path d="M79.2188 328.542C79.2188 328.542 85.4368 307.5 103.634 307.5C121.83 307.5 127.801 329.493 123.252 344.172C115.29 367.026 79.2188 388.248 79.2188 388.248V328.542Z" fill="white" fill-opacity="0.4"/>
<path d="M79.3122 328.542C79.3122 328.542 73.0938 307.5 54.8973 307.5C36.7005 307.5 30.7299 329.493 35.2788 344.172C43.2402 367.026 79.3122 388.248 79.3122 388.248V328.542Z" fill="white" fill-opacity="0.4"/>
<path d="M79.2188 456.092C79.2188 456.092 85.4368 435.053 103.634 435.053C121.83 435.053 127.801 457.043 123.252 471.722C115.29 494.576 79.2188 515.801 79.2188 515.801V456.092Z" fill="white" fill-opacity="0.4"/>
<path d="M79.3122 456.092C79.3122 456.092 73.0938 435.053 54.8973 435.053C36.7005 435.053 30.7299 457.043 35.2788 471.722C43.2402 494.576 79.3122 515.801 79.3122 515.801V456.092Z" fill="white" fill-opacity="0.4"/>
<path d="M79.2188 583.639C79.2188 583.639 85.4368 562.6 103.634 562.6C121.83 562.6 127.801 584.593 123.252 599.269C115.29 622.123 79.2188 643.348 79.2188 643.348V583.639Z" fill="white" fill-opacity="0.4"/>
<path d="M79.3122 583.639C79.3122 583.639 73.0938 562.6 54.8973 562.6C36.7005 562.6 30.7299 584.593 35.2788 599.269C43.2402 622.123 79.3122 643.348 79.3122 643.348V583.639Z" fill="white" fill-opacity="0.4"/>
<path d="M79.2188 711.188C79.2188 711.188 85.4368 690.146 103.634 690.146C121.83 690.146 127.801 712.139 123.252 726.818C115.29 749.669 79.2188 770.894 79.2188 770.894V711.188Z" fill="white" fill-opacity="0.4"/>
<path d="M79.3122 711.188C79.3122 711.188 73.0938 690.146 54.8973 690.146C36.7005 690.146 30.7299 712.139 35.2788 726.818C43.2402 749.669 79.3122 770.894 79.3122 770.894V711.188Z" fill="white" fill-opacity="0.4"/>
<path d="M79.2188 838.735C79.2188 838.735 85.4369 817.693 103.634 817.693C121.83 817.693 127.801 839.686 123.252 854.365C115.291 877.216 79.2188 898.441 79.2188 898.441V838.735Z" fill="white" fill-opacity="0.4"/>
<path d="M79.3121 838.735C79.3121 838.735 73.094 817.693 54.8972 817.693C36.7004 817.693 30.7297 839.686 35.2789 854.365C43.2401 877.216 79.3121 898.441 79.3121 898.441V838.735Z" fill="white" fill-opacity="0.4"/>
</svg>
