<svg width="312" height="79" viewBox="0 0 312 79" fill="none" xmlns="http://www.w3.org/2000/svg">
<path d="M2.46741 4.54643C1.40079 2.88249 2.59566 0.697266 4.57211 0.697266H285.633C286.485 0.697266 287.278 1.13098 287.738 1.8481L311.135 38.3481C311.662 39.1703 311.662 40.2242 311.135 41.0464L287.738 77.5464C287.278 78.2636 286.485 78.6973 285.633 78.6973H4.57211C2.59566 78.6973 1.40079 76.512 2.46741 74.8481L24.1352 41.0464C24.6622 40.2242 24.6622 39.1703 24.1352 38.3481L2.46741 4.54643Z" fill="#F4ABAB"/>
<path d="M27.1017 46.0414L29.5617 42.3104L30.3966 42.8608L31.6266 40.9953C32.1771 40.1604 32.1771 39.0779 31.6266 38.243L30.3966 36.3775L29.5617 36.9279L27.1017 33.1968L27.9366 32.6464L25.4765 28.9153L24.6417 29.4658L22.1816 25.7347L23.0165 25.1842L20.5565 21.4531L19.7216 22.0036L17.2616 18.2725L18.0965 17.7221L15.6364 13.991L14.8016 14.5414L12.3415 10.8104L13.1764 10.2599L11.9464 8.39437C11.7272 8.06193 11.9656 7.61914 12.3638 7.61914H14.3426V6.61914H18.3003V7.61914H22.2581V6.61914H26.2159V7.61914H30.1736V6.61914H34.1314V7.61914H38.0891V6.61914H42.0469V7.61914H46.0047V6.61914H49.9624V7.61914H53.9202V6.61914H57.878V7.61914H61.8357V6.61914H65.7935V7.61914H69.7513V6.61914H73.709V7.61914H77.6668V6.61914H81.6245V7.61914H85.5823V6.61914H89.5401V7.61914H93.4978V6.61914H97.4556V7.61914H101.413V6.61914H105.371V7.61914H109.329V6.61914H113.287V7.61914H117.244V6.61914H121.202V7.61914H125.16V6.61914H129.118V7.61914H133.075V6.61914H137.033V7.61914H140.991V6.61914H144.949V7.61914H148.907V6.61914H152.864V7.61914H156.822V6.61914H160.78V7.61914H164.738V6.61914H168.695V7.61914H172.653V6.61914H176.611V7.61914H180.569V6.61914H184.526V7.61914H188.484V6.61914H192.442V7.61914H196.4V6.61914H200.357V7.61914H204.315V6.61914H208.273V7.61914H212.231V6.61914H216.189V7.61914H220.146V6.61914H224.104V7.61914H228.062V6.61914H232.02V7.61914H235.977V6.61914H239.935V7.61914H243.893V6.61914H247.851V7.61914H251.808V6.61914H255.766V7.61914H259.724V6.61914H263.682V7.61914H267.639V6.61914H271.597V7.61914H275.555V6.61914H279.513V7.61914H281.492C281.663 7.61914 281.823 7.70744 281.915 7.85292L282.906 9.42791L283.752 8.89546L285.733 12.0455L284.887 12.5779L286.868 15.7279L287.715 15.1955L289.696 18.3455L288.85 18.8779L290.831 22.0279L291.678 21.4955L293.659 24.6455L292.813 25.1779L294.794 28.3279L295.641 27.7955L297.622 30.9455L296.776 31.4779L298.757 34.6279L299.604 34.0955L301.585 37.2455L300.739 37.7779L301.729 39.3529C301.832 39.5156 301.832 39.7226 301.729 39.8854L300.739 41.4604L301.585 41.9928L299.604 45.1428L298.757 44.6104L296.776 47.7604L297.622 48.2928L295.641 51.4428L294.794 50.9104L292.813 54.0604L293.659 54.5928L291.678 57.7428L290.831 57.2104L288.85 60.3604L289.696 60.8928L287.715 64.0428L286.868 63.5104L284.887 66.6604L285.733 67.1928L283.752 70.3428L282.906 69.8104L281.915 71.3854C281.823 71.5309 281.663 71.6191 281.492 71.6191H279.513V72.6191H275.555V71.6191H271.597V72.6191H267.64V71.6191H263.682V72.6191H259.724V71.6191H255.766V72.6191H251.808V71.6191H247.851V72.6191H243.893V71.6191H239.935V72.6191H235.977V71.6191H232.02V72.6191H228.062V71.6191H224.104V72.6191H220.146V71.6191H216.189V72.6191H212.231V71.6191H208.273V72.6191H204.315V71.6191H200.358V72.6191H196.4V71.6191H192.442V72.6191H188.484V71.6191H184.526V72.6191H180.569V71.6191H176.611V72.6191H172.653V71.6191H168.695V72.6191H164.738V71.6191H160.78V72.6191H156.822V71.6191H152.864V72.6191H148.907V71.6191H144.949V72.6191H140.991V71.6191H137.033V72.6191H133.076V71.6191H129.118V72.6191H125.16V71.6191H121.202V72.6191H117.245V71.6191H113.287V72.6191H109.329V71.6191H105.371V72.6191H101.413V71.6191H97.4557V72.6191H93.4979V71.6191H89.5402V72.6191H85.5824V71.6191H81.6246V72.6191H77.6669V71.6191H73.7091V72.6191H69.7514V71.6191H65.7936V72.6191H61.8358V71.6191H57.8781V72.6191H53.9203V71.6191H49.9626V72.6191H46.0048V71.6191H42.047V72.6191H38.0893V71.6191H34.1315V72.6191H30.1737V71.6191H26.216V72.6191H22.2582V71.6191H18.3005V72.6191H14.3427V71.6191H12.3638C11.9656 71.6191 11.7272 71.1764 11.9464 70.8439L13.1764 68.9784L12.3415 68.4279L14.8016 64.6968L15.6364 65.2473L18.0965 61.5162L17.2616 60.9658L19.7216 57.2347L20.5565 57.7851L23.0165 54.0541L22.1816 53.5036L24.6417 49.7725L25.4765 50.323L27.9366 46.5919L27.1017 46.0414Z" stroke="white" stroke-width="2" stroke-dasharray="4 4"/>
</svg>
