<svg width="296" height="138" viewBox="0 0 296 138" fill="none" xmlns="http://www.w3.org/2000/svg">
<path d="M54.5608 135.128C51.1599 135.128 48.6463 134.665 47.0198 133.74C45.3934 132.815 44.5801 131.098 44.5801 128.587C44.5801 124.623 43.8408 117.885 42.3622 108.372L41.475 104.21L19.5177 101.237C18.6305 104.276 17.3737 110.42 15.7472 119.669C14.86 126.143 13.4554 130.437 11.5332 132.551C10.4981 133.74 9.01953 134.335 7.09733 134.335C5.323 134.335 3.69653 133.872 2.21792 132.948C0.739306 131.891 0 130.635 0 129.182L0.443583 128.191L0.665375 127.398C10.4242 93.4412 17.8173 59.9466 22.8445 26.9145C22.8445 26.386 22.9185 25.5272 23.0663 24.338C23.2142 23.0168 23.3621 21.167 23.5099 18.7886C23.9535 13.8999 24.3971 10.0021 24.8407 7.09528C25.4321 4.18846 26.3193 2.00834 27.5022 0.554932H35.0431C37.1131 0.554932 38.8875 1.01738 40.3661 1.94227C41.8447 2.73505 42.584 3.9242 42.584 5.50974C42.584 15.5515 44.1365 30.482 47.2416 50.3013C50.1988 70.649 51.6775 84.9189 51.6775 93.1109C51.6775 93.9036 52.0471 95.9516 52.7864 99.2548C53.5257 102.294 53.8954 104.276 53.8954 105.201C53.8954 106.126 54.6347 110.089 56.1133 117.092C57.444 123.434 58.1094 127.53 58.1094 129.38V129.578C58.1094 132.485 56.9265 134.335 54.5608 135.128ZM39.9225 97.0747C39.4789 95.0928 39.2571 92.6484 39.2571 89.7416C39.2571 77.85 38.0742 62.6553 35.7085 44.1573L33.4905 23.5453C27.1325 54.5954 22.7706 78.0482 20.4048 93.9036C22.6227 95.2249 29.1286 96.2819 39.9225 97.0747Z" fill="#C69C3C"/>
<path d="M82.0248 134.731C80.1026 127.728 79.1415 118.017 79.1415 105.597L79.5851 87.9578C79.8808 82.6727 80.0287 76.793 80.0287 70.3187C79.1415 68.4689 78.6979 66.8173 78.6979 65.3639V64.7693C80.1765 62.2589 80.9158 56.5774 80.9158 47.7248L81.1376 38.6079C81.2855 35.7011 81.3594 32.4639 81.3594 28.8965C81.3594 21.1009 80.768 14.9569 79.5851 10.4646C80.0287 8.61476 80.768 7.02922 81.803 5.70793C82.838 4.25452 84.0948 3.52782 85.5735 3.52782H95.3323C99.4724 3.52782 103.095 4.38665 106.2 6.10432C109.305 7.68986 111.671 10.0021 113.297 13.0411C116.255 18.4583 117.733 24.8665 117.733 32.2657C117.733 37.5509 117.659 41.7129 117.511 44.7519C117.216 48.5836 116.476 52.085 115.294 55.2561C114.85 56.9737 114.185 58.4272 113.297 59.6163C112.558 60.6733 111.449 61.9946 109.971 63.5802C107.9 65.8263 104.5 67.9404 99.7681 69.9223C97.8459 70.8472 95.3323 71.7061 92.2272 72.4988V93.7054L92.6708 106.39L93.1144 112.534C93.7058 119.933 94.0015 126.209 94.0015 131.362C94.0015 132.948 93.2622 134.269 91.7836 135.326C90.305 136.515 88.6046 137.11 86.6824 137.11L82.0248 134.731ZM92.449 64.3729C101.173 63.1838 105.535 52.0189 105.535 30.8784C105.535 27.0467 105.313 24.0738 104.869 21.9597C104.426 20.3742 103.834 19.119 103.095 18.1941C102.356 17.137 101.247 16.2782 99.7681 15.6176C98.1416 14.8248 96.3673 14.4284 94.4451 14.4284C94.4451 14.2963 93.6319 14.2302 92.0054 14.2302V25.5272C92.0054 33.3228 92.0793 40.2595 92.2272 46.3374C92.2272 53.2081 92.3011 57.7004 92.449 59.8145V64.3729Z" fill="#C69C3C"/>
<path d="M178.338 136.713C175.085 136.713 172.128 133.542 169.466 127.2C166.361 120.329 164.069 113.26 162.591 105.993L161.038 99.2548C156.75 80.3605 154.015 69.592 152.832 66.9494H150.17C150.17 70.7812 150.096 74.2826 149.948 77.4536V88.3542C149.948 106.059 151.353 119.867 154.163 129.776L151.723 135.128H145.513L142.629 132.155L142.851 118.876C142.851 106.984 142.186 88.9488 140.855 64.7693C139.672 39.0043 139.081 20.9688 139.081 10.6628C139.081 4.32059 141.52 1.1495 146.4 1.1495C154.384 1.1495 160.89 2.9993 165.917 6.69889C171.093 10.3985 173.68 15.5515 173.68 22.1579V36.0314C173.68 38.0133 173.311 40.3256 172.571 42.9681C171.832 45.4786 171.019 47.5266 170.132 49.1121L165.917 56.247L162.369 62.1928L163.478 66.9494L166.583 81.0211C168.653 91.195 170.649 99.453 172.571 105.795C174.493 112.137 176.859 117.885 179.669 123.038L180.999 125.416C182.478 128.059 183.217 130.173 183.217 131.758C183.217 133.08 182.774 134.203 181.886 135.128C180.999 136.185 179.816 136.713 178.338 136.713ZM151.057 57.238C154.31 55.7846 157.046 51.8207 159.264 45.3464C161.63 38.74 162.812 32.6621 162.812 27.1127C162.812 22.8846 162.221 18.9208 161.038 15.2212C160.299 13.1071 159.042 11.5216 157.268 10.4646C155.641 9.27541 153.571 8.68083 151.057 8.68083L150.614 9.67179L150.17 11.4555L150.614 34.8422C150.91 41.7129 151.057 49.1782 151.057 57.238Z" fill="#C69C3C"/>
<path d="M216.025 133.146C203.161 133.146 196.729 131.164 196.729 127.2C196.729 124.029 199.021 122.443 203.605 122.443H206.044L208.262 122.642C209.445 122.642 210.258 122.311 210.702 121.651C211.146 120.99 211.367 119.801 211.367 118.083C211.367 115.837 211.22 112.336 210.924 107.579C210.48 104.408 209.963 98.7263 209.371 90.5344C208.041 70.3187 207.375 55.0579 207.375 44.7519C207.375 41.0523 207.449 37.683 207.597 34.644L207.819 24.5362C207.819 20.176 207.597 16.5425 207.153 13.6356C204.788 14.1642 203.087 14.4284 202.052 14.4284C198.504 14.4284 196.729 12.8429 196.729 9.67179C196.729 8.08625 197.838 6.6989 200.056 5.50974C202.274 4.32058 205.083 3.46175 208.484 2.93324C214.399 1.87621 219.648 1.3477 224.231 1.3477C226.006 1.3477 227.484 1.94228 228.667 3.13144C229.998 4.18846 230.663 5.44368 230.663 6.89709C230.663 8.3505 230.146 9.60572 229.111 10.6628C228.224 11.7198 227.041 12.2483 225.562 12.2483C224.675 12.2483 223.936 12.1822 223.344 12.0501H221.57C220.091 12.0501 218.982 12.3804 218.243 13.0411C217.652 13.5696 217.356 14.6266 217.356 16.2121C217.356 29.0286 218.243 48.3193 220.017 74.0844C220.313 78.841 220.904 85.8438 221.792 95.0928C222.531 101.171 222.901 107.381 222.901 113.723V121.254C223.788 121.122 225.266 121.056 227.336 121.056C233.547 121.056 236.652 123.368 236.652 127.993V129.182L231.107 132.551C230.959 132.551 230.442 132.617 229.554 132.749C228.815 132.749 227.336 132.749 225.119 132.749C220.387 133.014 217.356 133.146 216.025 133.146Z" fill="#C69C3C"/>
<path d="M289.124 136.515C283.801 134.929 277.222 134.137 269.385 134.137C267.019 135.458 264.506 136.119 261.844 136.119C260.07 136.119 258.517 135.392 257.186 133.939C256.004 132.617 255.412 131.164 255.412 129.578C255.412 118.479 255.93 103.681 256.965 85.1832C257.852 65.496 258.295 50.7637 258.295 40.9862V39.5989C257.408 31.2748 256.965 25.0647 256.965 20.9688C256.965 8.41656 259.552 2.14046 264.727 2.14046C266.206 2.14046 267.463 2.66898 268.498 3.72601C269.681 4.65091 270.272 5.774 270.272 7.09528C270.272 8.68083 270.05 11.1913 269.607 14.6266C269.163 17.9298 268.941 20.4403 268.941 22.1579C268.941 31.0105 269.015 39.0043 269.163 46.1392C269.311 53.142 269.385 61.0697 269.385 69.9223C268.646 71.9043 268.276 74.6789 268.276 78.2464V80.6247L267.832 96.2819C267.537 100.906 267.389 106.192 267.389 112.137C267.389 121.254 269.829 125.813 274.708 125.813C275.004 125.813 275.447 125.813 276.039 125.813C276.778 125.68 277.739 125.614 278.922 125.614C280.253 125.482 281.953 125.416 284.023 125.416C292.008 125.416 296 127.398 296 131.362C296 132.683 295.335 133.806 294.004 134.731C292.673 135.656 291.047 136.251 289.124 136.515Z" fill="#C69C3C"/>
</svg>
