<svg width="888" height="414" viewBox="0 0 888 414" fill="none" xmlns="http://www.w3.org/2000/svg">
<path d="M163.682 405.383C153.48 405.383 145.939 403.994 141.059 401.219C136.18 398.444 133.74 393.293 133.74 385.76C133.74 373.868 131.522 353.654 127.087 325.115L124.425 312.629L58.5531 303.71C55.8915 312.827 52.1211 331.259 47.2416 359.006C44.58 378.428 40.3662 391.31 34.5996 397.652C31.4943 401.219 27.0586 403.004 21.292 403.004C15.969 403.004 11.0896 401.615 6.65376 398.843C2.21792 395.672 0 391.904 0 387.545L1.33075 384.572L1.99612 382.193C31.2726 280.323 53.4519 179.839 68.5335 80.7428C68.5335 79.1573 68.7555 76.5809 69.1989 73.0133C69.6426 69.0497 70.0863 63.5003 70.5297 56.3651C71.8605 41.699 73.1913 30.0056 74.5221 21.2851C76.2963 12.5646 78.9579 6.02429 82.5066 1.66406H105.129C111.339 1.66406 116.662 3.05141 121.098 5.82608C125.534 8.20442 127.752 11.7719 127.752 16.5285C127.752 46.6538 132.41 91.4453 141.725 150.903C150.596 211.946 155.033 254.756 155.033 279.332C155.033 281.71 156.141 287.854 158.359 297.764C160.577 306.881 161.686 312.827 161.686 315.602C161.686 318.377 163.904 330.266 168.34 351.275C172.332 370.301 174.328 382.589 174.328 388.139V388.733C174.328 397.454 170.779 403.004 163.682 405.383ZM119.768 291.223C118.437 285.278 117.771 277.944 117.771 269.224C117.771 233.549 114.223 187.965 107.126 132.471L100.472 70.6352C81.3975 163.785 68.3118 234.144 61.2144 281.71C67.8681 285.674 87.3858 288.845 119.768 291.223Z" fill="#C69C3C"/>
<path d="M246.074 404.192C240.307 383.183 237.424 354.05 237.424 316.79L238.755 263.872C239.642 248.017 240.086 230.378 240.086 210.955C237.424 205.405 236.093 200.45 236.093 196.09V194.306C240.529 186.775 242.747 169.731 242.747 143.173L243.412 115.822C243.856 107.102 244.078 97.3903 244.078 86.6881C244.078 63.3013 242.304 44.8693 238.755 31.3924C240.086 25.8428 242.304 21.0862 245.409 17.1224C248.514 12.7621 252.284 10.582 256.72 10.582H285.996C298.417 10.582 309.285 13.1585 318.6 18.3115C327.915 23.0682 335.013 30.0049 339.891 39.1219C348.765 55.3735 353.199 74.5981 353.199 96.7957C353.199 112.651 352.977 125.137 352.533 134.254C351.648 145.749 349.428 156.254 345.882 165.767C344.55 170.92 342.555 175.28 339.891 178.847C337.674 182.018 334.347 185.982 329.913 190.739C323.7 197.477 313.5 203.82 299.304 209.765C293.537 212.54 285.996 215.117 276.681 217.495V281.115L278.012 319.169L279.343 337.601C281.117 359.798 282.004 378.626 282.004 394.085C282.004 398.843 279.786 402.806 275.35 405.977C270.915 409.544 265.813 411.329 260.047 411.329L246.074 404.192ZM277.347 193.117C303.519 189.55 316.605 156.055 316.605 92.6338C316.605 81.1387 315.939 72.22 314.607 65.8777C313.278 61.1212 311.502 57.3556 309.285 54.5809C307.068 51.4096 303.741 48.8332 299.304 46.8514C294.424 44.473 289.101 43.2838 283.335 43.2838C283.335 42.8875 280.895 42.6892 276.016 42.6892V76.5802C276.016 99.967 276.237 120.777 276.681 139.011C276.681 159.623 276.903 173.1 277.347 179.442V193.117Z" fill="#C69C3C"/>
<path d="M535.014 410.139C525.255 410.139 516.384 400.626 508.398 381.6C499.083 360.987 492.207 339.78 487.773 317.979L483.114 297.764C470.25 241.081 462.045 208.776 458.496 200.848H450.51C450.51 212.343 450.288 222.848 449.844 232.361V265.062C449.844 318.177 454.059 359.601 462.489 389.328L455.169 405.384H436.539L427.887 396.465L428.553 356.628C428.553 320.952 426.558 266.846 422.565 194.308C419.016 117.013 417.243 62.9061 417.243 31.9881C417.243 12.9615 424.56 3.44824 439.2 3.44824C463.152 3.44824 482.67 8.99764 497.751 20.0964C513.279 31.1952 521.04 46.6542 521.04 66.4734V108.094C521.04 114.04 519.933 120.977 517.713 128.904C515.496 136.436 513.057 142.58 510.396 147.336L497.751 168.741L487.107 186.578L490.434 200.848L499.749 243.063C505.959 273.585 511.947 298.359 517.713 317.385C523.479 336.411 530.577 353.655 539.007 369.114L542.997 376.248C547.434 384.177 549.651 390.519 549.651 395.274C549.651 399.24 548.322 402.609 545.658 405.384C542.997 408.555 539.448 410.139 535.014 410.139ZM453.171 171.714C462.93 167.354 471.138 155.462 477.792 136.039C484.89 116.22 488.436 97.986 488.436 81.3378C488.436 68.6535 486.663 56.7621 483.114 45.6633C480.897 39.321 477.126 34.5645 471.804 31.3935C466.923 27.826 460.713 26.0422 453.171 26.0422L451.842 29.0151L450.51 34.3662L451.842 104.526C452.73 125.138 453.171 147.534 453.171 171.714Z" fill="#C69C3C"/>
<path d="M648.075 399.438C609.483 399.438 590.187 393.492 590.187 381.6C590.187 372.087 597.063 367.329 610.815 367.329H618.132L624.786 367.926C628.335 367.926 630.774 366.933 632.106 364.953C633.438 362.97 634.101 359.403 634.101 354.249C634.101 347.511 633.66 337.008 632.772 322.737C631.44 313.224 629.889 296.179 628.113 271.603C624.123 210.956 622.125 165.174 622.125 134.256C622.125 123.157 622.347 113.049 622.791 103.932L623.457 73.6085C623.457 60.5279 622.791 49.6274 621.459 40.9067C614.364 42.4925 609.261 43.2851 606.156 43.2851C595.512 43.2851 590.187 38.5286 590.187 29.0152C590.187 24.2586 593.514 20.0966 600.168 16.5291C606.822 12.9616 615.249 10.3851 625.452 8.79959C643.197 5.6285 658.944 4.04297 672.693 4.04297C678.018 4.04297 682.452 5.82671 686.001 9.39419C689.994 12.5652 691.989 16.3309 691.989 20.6911C691.989 25.0514 690.438 28.817 687.333 31.9883C684.672 35.1593 681.123 36.7448 676.686 36.7448C674.025 36.7448 671.808 36.5465 670.032 36.1502H664.71C660.273 36.1502 656.946 37.1411 654.729 39.1232C652.956 40.7087 652.068 43.8797 652.068 48.6362C652.068 87.0857 654.729 144.958 660.051 222.253C660.939 236.523 662.712 257.531 665.376 285.278C667.593 303.513 668.703 322.143 668.703 341.169V363.762C671.364 363.366 675.798 363.168 682.008 363.168C700.641 363.168 709.956 370.104 709.956 383.979V387.546L693.321 397.653C692.877 397.653 691.326 397.851 688.662 398.247C686.445 398.247 682.008 398.247 675.357 398.247C661.161 399.042 652.068 399.438 648.075 399.438Z" fill="#C69C3C"/>
<path d="M867.372 409.546C851.403 404.788 831.666 402.411 808.155 402.411C801.057 406.374 793.518 408.358 785.532 408.358C780.21 408.358 775.551 406.176 771.558 401.818C768.012 397.852 766.236 393.493 766.236 388.734C766.236 355.438 767.79 311.043 770.895 255.55C773.556 196.488 774.885 152.292 774.885 122.959V118.797C772.224 93.8249 770.895 75.1946 770.895 62.9069C770.895 25.2502 778.656 6.42188 794.181 6.42188C798.618 6.42188 802.389 8.00744 805.494 11.1785C809.043 13.9532 810.816 17.3225 810.816 21.2863C810.816 26.043 810.15 33.5744 808.821 43.8803C807.489 53.7899 806.823 61.3214 806.823 66.4742C806.823 93.032 807.045 117.013 807.489 138.418C807.933 159.426 808.155 183.21 808.155 209.767C805.938 215.713 804.828 224.037 804.828 234.74V241.875L803.496 288.846C802.611 302.719 802.167 318.577 802.167 336.411C802.167 363.763 809.487 377.44 824.124 377.44C825.012 377.44 826.341 377.44 828.117 377.44C830.334 377.041 833.217 376.842 836.766 376.842C840.759 376.447 845.859 376.249 852.069 376.249C876.024 376.249 888 382.194 888 394.086C888 398.049 886.005 401.419 882.012 404.194C878.019 406.969 873.141 408.754 867.372 409.546Z" fill="#C69C3C"/>
</svg>
