<svg width="600" height="900" viewBox="0 0 600 900" fill="none" xmlns="http://www.w3.org/2000/svg">
<g clip-path="url(#clip0_1105_1361)">
<path d="M572.308 0H27.6923C12.3983 0 0 12.3983 0 27.6923V872.308C0 887.602 12.3983 900 27.6923 900H572.308C587.602 900 600 887.602 600 872.308V27.6923C600 12.3983 587.602 0 572.308 0Z" fill="#FFBBA6"/>
<path d="M572.308 0H27.6923C12.3983 0 0 12.3983 0 27.6923V872.308C0 887.602 12.3983 900 27.6923 900H572.308C587.602 900 600 887.602 600 872.308V27.6923C600 12.3983 587.602 0 572.308 0Z" fill="black" fill-opacity="0.05"/>
<path d="M558.453 143.438H41.5317C33.8847 143.438 27.6855 149.637 27.6855 157.284V221.899C27.6855 229.546 33.8847 235.745 41.5317 235.745H558.453C566.1 235.745 572.3 229.546 572.3 221.899V157.284C572.3 149.637 566.1 143.438 558.453 143.438Z" fill="white" fill-opacity="0.2"/>
<path d="M58.9554 207.549C58.5816 207.341 58.2909 206.967 58.2078 206.469C58.1661 206.095 58.1661 205.721 58.1247 205.306C58.0416 203.977 57.9999 202.606 57.9585 201.277C57.9171 199.407 57.8754 197.58 57.8754 195.71C57.834 193.675 57.834 191.64 57.834 189.604C57.7923 187.694 57.7923 185.783 57.834 183.872C57.834 182.377 57.8754 180.923 57.9171 179.469C57.9171 179.095 57.9585 178.721 57.9999 178.306C58.2909 174.069 58.4985 173.321 59.5371 172.823C60.6171 172.283 61.7799 172.989 62.4861 174.567C62.9847 175.606 64.8123 181.67 65.4771 184.412C67.263 191.972 68.5923 197.081 68.7999 197.081C69.1323 197.081 71.2509 190.186 73.6599 181.13C74.7399 177.143 75.7371 174.194 76.2354 173.446C76.6923 172.781 77.3985 172.324 77.9385 172.324C78.7692 172.324 79.6416 173.03 80.0154 174.027C80.6385 175.772 80.7216 177.683 80.5971 193.135C80.5971 195.752 80.5554 198.369 80.5554 200.986C80.514 202.357 80.514 203.769 80.514 205.14C80.514 205.555 80.5554 206.012 80.514 206.386C80.3478 207.923 78.1461 208.089 77.4399 206.884C77.2323 206.469 77.2323 205.638 77.2323 193.717C77.2323 182.584 77.2323 181.089 77.0661 181.67C73.0371 196.001 72.6216 197.33 71.7492 198.909C70.2954 201.526 68.2185 202.232 66.8061 200.57C65.6847 199.324 65.1447 197.538 62.154 185.243C61.4061 182.169 61.3647 182.003 61.2816 182.584C61.1154 183.54 61.1154 190.809 61.2816 198.992C61.4892 207.3 61.4892 207.009 60.5754 207.59C60.0354 207.923 59.4123 207.84 58.9554 207.549Z" fill="white"/>
<path d="M558.453 249.592H41.5317C33.8847 249.592 27.6855 255.791 27.6855 263.438V328.053C27.6855 335.7 33.8847 341.899 41.5317 341.899H558.453C566.1 341.899 572.3 335.7 572.3 328.053V263.438C572.3 255.791 566.1 249.592 558.453 249.592Z" fill="white" fill-opacity="0.2"/>
<path d="M64.7705 315.91C64.3967 315.745 64.0643 315.412 63.9395 314.998C63.7736 314.581 63.8567 313.999 63.815 313.543C63.815 311.467 63.8567 309.391 63.8567 307.312C63.8981 304.819 63.9395 302.329 63.9812 299.794C64.1057 291.528 64.2305 284.55 64.2719 284.259L64.355 283.76L63.1918 283.843C60.1594 284.01 56.0473 284.01 55.5904 283.843C55.0087 283.677 54.4688 282.93 54.4688 282.348C54.4688 281.559 54.9257 281.019 55.8812 280.728C56.4212 280.603 74.3656 280.271 75.3211 280.396C76.2766 280.562 77.3149 281.31 77.1073 282.431C76.9411 283.386 76.1105 283.594 75.2795 283.677C74.1581 283.76 72.9949 283.719 71.8735 283.76L67.6781 283.843L67.595 286.003C67.5536 287.208 67.4288 294.186 67.3457 301.456C67.2212 311.674 67.138 314.83 66.9718 315.163C66.598 316.078 65.5595 316.285 64.7705 315.91Z" fill="white"/>
<path d="M558.453 355.746H41.5317C33.8847 355.746 27.6855 361.945 27.6855 369.592V434.208C27.6855 441.855 33.8847 448.054 41.5317 448.054H558.453C566.1 448.054 572.3 441.855 572.3 434.208V369.592C572.3 361.945 566.1 355.746 558.453 355.746Z" fill="white" fill-opacity="0.2"/>
<path d="M78.8945 420.396C77.1083 419.898 75.5297 418.401 74.4083 416.283C73.2035 413.874 72.0404 410.76 71.2928 407.811C70.9604 406.521 70.8359 406.107 70.7528 406.356C70.7114 406.563 70.5035 407.643 70.2545 408.765C69.6728 411.591 69.0914 413.334 67.8866 415.743C66.3083 418.941 65.1035 420.021 63.2345 420.021C59.7452 420.063 58.3328 415.869 57.8345 413.043C56.1728 404.319 56.6714 395.64 58.2914 386.418C58.499 385.419 59.1635 384.258 60.4514 384.549C61.5314 384.798 61.9883 385.752 61.6145 387C60.6176 390.114 59.3714 402.492 60.7004 410.718C60.9497 412.212 61.3652 413.751 61.9052 415.161C62.1128 415.62 62.3204 416.118 62.7776 416.325C64.8128 417.447 66.6404 409.512 66.9314 408.267C67.6376 405.027 68.0528 401.745 68.5097 398.505C69.0914 394.227 69.2159 393.852 70.0052 393.519C70.9604 393.105 71.8745 393.438 72.2897 394.35C72.4976 394.767 72.7466 396.096 73.1204 398.838C74.0345 405.234 74.699 408.099 76.1945 411.921C76.859 413.667 78.3545 417.987 80.9714 416.949C82.8404 416.199 83.879 411.381 84.0452 402.45C84.1283 397.59 84.0035 395.349 83.339 390.78C83.0483 388.992 82.8821 387.372 82.9235 387.123C82.9652 386.916 83.1728 386.541 83.4221 386.334C83.7545 386.001 83.9621 385.92 84.5021 385.92C85.0421 385.92 85.2497 386.001 85.5821 386.292C85.7897 386.541 86.039 386.874 86.1221 387.039C86.3714 387.705 87.2021 394.059 87.4097 396.594C87.4928 398.13 87.5345 400.332 87.4514 402.534C87.2021 414.039 85.7066 418.776 82.0514 420.189C81.0959 420.561 79.8083 420.645 78.8945 420.396Z" fill="white"/>
<path d="M558.453 461.898H41.5317C33.8847 461.898 27.6855 468.098 27.6855 475.745V540.36C27.6855 548.007 33.8847 554.206 41.5317 554.206H558.453C566.1 554.206 572.3 548.007 572.3 540.36V475.745C572.3 468.098 566.1 461.898 558.453 461.898Z" fill="white" fill-opacity="0.2"/>
<path d="M64.7705 526.341C64.3967 526.176 64.0643 525.843 63.9395 525.429C63.7736 525.012 63.8567 524.433 63.815 523.974C63.815 521.898 63.8567 519.822 63.8567 517.743C63.8981 515.253 63.9395 512.76 63.9812 510.225C64.1057 501.96 64.2305 494.982 64.2719 494.691L64.355 494.193L63.1918 494.274C60.1594 494.442 56.0473 494.442 55.5904 494.274C55.0087 494.109 54.4688 493.362 54.4688 492.78C54.4688 491.991 54.9257 491.451 55.8812 491.16C56.4212 491.034 74.3656 490.701 75.3211 490.827C76.2766 490.992 77.3149 491.742 77.1073 492.861C76.9411 493.818 76.1105 494.025 75.2795 494.109C74.1581 494.193 72.9949 494.151 71.8735 494.193L67.6781 494.274L67.595 496.434C67.5536 497.64 67.4288 504.618 67.3457 511.887C67.2212 522.105 67.138 525.261 66.9718 525.594C66.598 526.509 65.5595 526.716 64.7705 526.341Z" fill="white"/>
<path d="M558.453 568.052H41.5317C33.8847 568.052 27.6855 574.251 27.6855 581.898V646.513C27.6855 654.16 33.8847 660.359 41.5317 660.359H558.453C566.1 660.359 572.3 654.16 572.3 646.513V581.898C572.3 574.251 566.1 568.052 558.453 568.052Z" fill="white" fill-opacity="0.2"/>
<path d="M58.8714 631.913C58.539 631.622 58.3731 631.334 58.2483 630.794C57.7914 628.715 57.8331 609.941 58.29 601.964C58.4976 598.31 58.5807 598.061 59.5362 597.563C60.0762 597.272 60.2838 597.272 66.8469 597.23C71.6238 597.188 73.7421 597.23 73.9914 597.353C75.1962 597.854 75.4452 599.222 74.5314 600.137C74.2821 600.386 73.9083 600.512 73.5345 600.512L70.4607 600.554C68.4252 600.593 65.6838 600.635 64.3131 600.677L61.8207 600.803L61.7376 601.217C61.6545 601.673 61.4052 608.03 61.4052 609.359V610.19H65.7252C69.3807 610.19 70.0869 610.232 70.5021 610.397C71.7069 610.979 71.7483 612.557 70.5852 613.304C70.2531 613.514 69.7545 613.553 65.8083 613.595L61.3638 613.637L61.3221 614.384C61.1562 615.506 61.3638 628.052 61.53 629.63C61.6545 630.794 61.6545 631.043 61.4469 631.415C60.99 632.414 59.7021 632.663 58.8714 631.913Z" fill="white"/>
<path d="M558.453 674.206H41.5317C33.8847 674.206 27.6855 680.405 27.6855 688.052V752.667C27.6855 760.315 33.8847 766.514 41.5317 766.514H558.453C566.1 766.514 572.3 760.315 572.3 752.667V688.052C572.3 680.405 566.1 674.206 558.453 674.206Z" fill="white" fill-opacity="0.2"/>
<path d="M60.6165 738.483C58.9134 738.111 57.9579 737.694 57.6255 737.112C56.9193 735.99 57.6672 734.661 58.9548 734.661C59.1624 734.661 59.661 734.787 60.0765 734.91C61.3224 735.369 62.6934 735.534 64.0224 735.45C66.8055 735.285 67.9686 733.914 67.2624 731.589C66.9303 730.551 65.8917 729.18 64.0224 727.35C60.4086 723.861 58.7472 722.118 58.041 721.08C55.4241 717.258 55.1334 713.31 57.1686 709.032C59.4534 704.34 65.8086 701.139 70.3779 704.88C71.7486 705.999 73.0779 707.952 73.0779 708.909C73.0779 709.863 72.3717 710.61 71.4165 710.61C70.7103 710.61 70.2534 710.238 69.7548 709.323C69.2148 708.285 68.2179 707.247 67.4286 706.914C64.4379 705.543 61.821 707.661 60.4503 710.196C59.2455 712.356 58.7472 715.056 59.7441 717.423C60.7824 719.916 63.1917 721.785 65.061 723.654C68.7993 727.392 69.7134 728.472 70.3365 730.134C71.1672 732.42 70.9593 734.538 69.7548 736.281C69.1317 737.154 68.0103 737.901 66.7224 738.318C65.1441 738.816 62.4855 738.9 60.6165 738.483Z" fill="white"/>
<path d="M558.453 780.36H41.5317C33.8847 780.36 27.6855 786.559 27.6855 794.207V858.822C27.6855 866.469 33.8847 872.668 41.5317 872.668H558.453C566.1 872.668 572.3 866.469 572.3 858.822V794.207C572.3 786.559 566.1 780.36 558.453 780.36Z" fill="white" fill-opacity="0.2"/>
<path d="M60.6165 844.638C58.9134 844.263 57.9579 843.849 57.6255 843.267C56.9193 842.145 57.6672 840.816 58.9548 840.816C59.1624 840.816 59.661 840.942 60.0765 841.065C61.3224 841.521 62.6934 841.689 64.0224 841.605C66.8055 841.44 67.9686 840.069 67.2624 837.741C66.9303 836.703 65.8917 835.332 64.0224 833.505C60.4086 830.016 58.7472 828.273 58.041 827.232C55.4241 823.413 55.1334 819.465 57.1686 815.187C59.4534 810.492 65.8086 807.294 70.3779 811.032C71.7486 812.154 73.0779 814.107 73.0779 815.061C73.0779 816.018 72.3717 816.765 71.4165 816.765C70.7103 816.765 70.2534 816.393 69.7548 815.478C69.2148 814.44 68.2179 813.402 67.4286 813.069C64.4379 811.698 61.821 813.816 60.4503 816.351C59.2455 818.511 58.7472 821.211 59.7441 823.578C60.7824 826.071 63.1917 827.94 65.061 829.809C68.7993 833.547 69.7134 834.627 70.3365 836.289C71.1672 838.572 70.9593 840.693 69.7548 842.436C69.1317 843.309 68.0103 844.056 66.7224 844.473C65.1441 844.971 62.4855 845.052 60.6165 844.638Z" fill="white"/>
<path d="M204.423 85.8276C202.042 85.1631 199.937 83.1693 198.442 80.3448C196.835 77.1324 195.285 72.9786 194.288 69.0462C193.845 67.3293 193.678 66.7755 193.568 67.1076C193.512 67.3848 193.235 68.8248 192.903 70.32C192.128 74.0862 191.352 76.4124 189.746 79.6248C187.642 83.8893 186.035 85.3293 183.543 85.3293C178.891 85.3848 177.008 79.7907 176.343 76.0248C174.128 64.3938 174.792 52.8186 176.952 40.5231C177.229 39.1938 178.115 37.6431 179.832 38.0307C181.272 38.3631 181.882 39.6369 181.383 41.2986C180.054 45.4524 178.392 61.9569 180.165 72.9231C180.497 74.9169 181.051 76.9662 181.771 78.8493C182.048 79.4586 182.325 80.1231 182.934 80.4C185.648 81.8955 188.085 71.3169 188.472 69.6555C189.414 65.3355 189.968 60.96 190.577 56.64C191.352 50.9355 191.518 50.4369 192.571 49.9938C193.845 49.44 195.063 49.8831 195.617 51.1017C195.894 51.6555 196.226 53.4276 196.725 57.0831C197.943 65.6124 198.829 69.4338 200.823 74.5293C201.709 76.8555 203.703 82.6155 207.192 81.2307C209.685 80.2338 211.069 73.8093 211.291 61.9017C211.402 55.4217 211.235 52.4307 210.349 46.3386C209.962 43.9569 209.74 41.7969 209.795 41.4648C209.851 41.1876 210.128 40.6893 210.46 40.4124C210.903 39.9693 211.18 39.8586 211.9 39.8586C212.62 39.8586 212.897 39.9693 213.34 40.3569C213.617 40.6893 213.949 41.1324 214.06 41.3538C214.392 42.24 215.5 50.7138 215.777 54.0924C215.888 56.1417 215.943 59.0769 215.832 62.0124C215.5 77.3538 213.506 83.6676 208.632 85.5507C207.358 86.0493 205.642 86.16 204.423 85.8276ZM239.159 77.5755C239.934 77.9631 240.377 78.6831 240.377 79.5693C240.377 80.5107 239.989 81.12 238.826 82.1724C236.279 84.4986 231.737 85.6062 228.802 84.6093C226.143 83.6676 223.983 81.7848 222.543 79.3476C219.719 74.5848 219.663 68.16 221.103 62.8986C222.377 58.0248 224.482 54.5907 227.749 52.1538C228.082 51.9324 228.414 51.7107 228.746 51.4893C231.848 49.7724 235.725 50.16 237.386 53.5386C238.771 56.3076 238.273 59.7969 236.999 62.5662C235.337 66.3324 230.629 69.3231 226.365 69.3231H224.814V69.3786C224.814 70.5417 224.869 71.7048 225.036 72.8676C225.091 73.2555 225.202 73.6431 225.257 74.0307C225.866 76.4676 227.14 78.7938 229.411 79.9569C231.682 81.12 234.562 80.0676 236.279 78.4062C237.386 77.3538 238.162 77.1324 239.159 77.5755ZM226.863 60.24C225.977 62.1231 225.313 64.2276 225.479 64.6707C225.866 65.6124 228.303 64.5048 228.857 64.2276C231.959 62.9538 234.562 59.4648 233.62 55.9755C233.343 55.0338 232.845 54.7569 231.848 55.0338C230.186 55.4769 228.137 57.5817 226.863 60.24ZM260.956 77.5755C261.731 77.9631 262.174 78.6831 262.174 79.5693C262.174 80.5107 261.786 81.12 260.623 82.1724C258.076 84.4986 253.534 85.6062 250.599 84.6093C247.94 83.6676 245.78 81.7848 244.34 79.3476C241.516 74.5848 241.46 68.16 242.9 62.8986C244.174 58.0248 246.279 54.5907 249.546 52.1538C249.879 51.9324 250.211 51.7107 250.543 51.4893C253.645 49.7724 257.522 50.16 259.183 53.5386C260.568 56.3076 260.069 59.7969 258.796 62.5662C257.134 66.3324 252.426 69.3231 248.162 69.3231H246.611V69.3786C246.611 70.5417 246.666 71.7048 246.832 72.8676C246.888 73.2555 246.999 73.6431 247.054 74.0307C247.663 76.4676 248.937 78.7938 251.208 79.9569C253.479 81.12 256.359 80.0676 258.076 78.4062C259.183 77.3538 259.959 77.1324 260.956 77.5755ZM248.66 60.24C247.774 62.1231 247.109 64.2276 247.276 64.6707C247.663 65.6124 250.1 64.5048 250.654 64.2276C253.756 62.9538 256.359 59.4648 255.417 55.9755C255.14 55.0338 254.642 54.7569 253.645 55.0338C251.983 55.4769 249.934 57.5817 248.66 60.24ZM267.577 84.2217C266.857 83.8893 266.303 83.2248 266.137 82.3938C265.639 79.1262 266.192 43.1262 266.857 36.3138C267.079 33.9876 267.134 33.6555 267.577 33.1017C268.242 32.2155 269.294 31.9386 270.18 32.3817C270.568 32.6031 271.011 32.9907 271.232 33.3231C271.565 33.9324 271.565 34.0431 271.232 37.8648C270.955 41.4648 270.623 53.76 270.623 60.7938C270.623 63.1755 270.623 63.5076 270.845 63.2862C271.454 62.6769 274.999 57.5262 276.771 54.7569C277.823 53.1507 278.875 51.6 279.208 51.3231C280.703 50.0493 282.808 50.9907 282.808 52.9848C282.808 53.5386 282.42 54.2586 280.814 56.8617C279.651 58.6338 278.045 61.0155 277.214 62.2338C276.383 63.3969 275.719 64.4493 275.719 64.56C275.719 64.9476 276.217 65.6124 276.439 66C276.992 67.0524 277.546 68.0493 278.155 69.1017C279.43 71.4276 280.703 73.6986 282.088 75.9693C282.863 77.2986 283.75 78.5724 284.525 79.9017C284.912 80.5107 285.245 81.0648 285.245 81.7848C285.3 83.28 283.915 84.3324 282.475 83.8893C281.534 83.6124 281.035 82.6707 280.537 81.8955C278.488 79.0155 276.715 75.8586 274.999 72.7569C273.78 70.4862 272.672 68.6031 272.617 68.4924C272.562 68.4369 272.008 68.9355 271.454 69.6555L270.346 70.9848L270.568 76.7448C270.623 78.2955 270.679 79.9017 270.623 81.5076C270.623 82.6155 270.512 83.7786 269.294 84.2769C268.74 84.4986 268.131 84.4431 267.577 84.2217ZM289.798 84.1662C289.41 83.9448 289.078 83.6124 288.911 83.1138C288.579 81.5076 288.69 79.7907 288.69 78.1848C288.634 73.6431 288.69 69.1569 288.69 64.6155C288.69 63.9507 288.69 63.2862 288.69 62.6217C288.69 40.0248 288.801 34.5969 289.188 33.8769C289.687 32.9355 291.071 32.5476 292.179 33.1017C292.456 33.2124 292.788 33.6555 293.01 34.0431C293.287 34.7076 293.342 35.8707 293.231 58.6893C293.176 63.84 293.176 68.9907 293.121 74.1417C293.121 76.5231 293.121 78.96 292.954 81.3417C292.899 82.0062 292.954 83.0586 292.567 83.6124C292.013 84.3876 290.739 84.5538 289.798 84.1662ZM306.352 103.994C304.246 103.495 300.259 102.055 300.646 99.4524C300.814 98.4 301.699 97.6248 302.752 97.68C304.357 97.68 305.632 99.0648 307.126 99.5076C309.73 100.339 312.775 100.006 314.77 98.0676C316.099 96.7938 317.041 94.2462 317.485 90.7017C317.761 88.7631 318.259 72.48 318.094 72.2586C318.037 72.2586 317.704 73.0338 317.317 74.0862C316.321 76.7448 314.659 80.1231 313.663 81.5076C311.281 84.6648 307.072 85.9938 303.805 83.1693C301.864 81.4524 300.868 78.9048 300.313 76.3569C299.207 71.3169 299.318 66.1662 299.539 61.0155C299.65 58.8555 299.761 56.6955 299.927 54.5355C299.982 53.7048 300.037 52.8186 300.37 52.0431C300.757 51.2676 301.534 50.6031 302.365 50.6586C303.25 50.7138 303.97 51.4893 304.246 52.32C304.525 53.1507 304.468 54.0924 304.414 54.9786C303.913 61.0155 303.415 67.3848 304.357 73.4217C304.633 75.1938 305.353 79.7355 307.513 80.2338C309.508 80.7324 310.894 77.4648 311.557 76.1355C313.33 72.5355 314.494 68.7693 315.655 63.1755C317.095 56.1969 317.983 52.4307 318.259 51.8769C318.703 51.1569 319.699 50.6586 320.473 50.7693C321.25 50.88 322.081 51.6555 322.303 52.4862C322.579 53.5938 322.744 69.8217 322.525 79.2369C322.303 90.5355 321.913 93.8031 320.641 97.0155C319.366 100.062 317.815 101.889 315.214 103.163C312.553 104.492 309.454 104.769 306.574 104.049C306.517 104.049 306.406 104.049 306.352 103.994ZM360.493 50.1048C361.768 55.0893 361.159 60.4617 358.111 64.6707C355.231 68.7138 350.689 70.8186 345.982 71.9262L344.653 72.2586V75.9138C344.653 77.9631 344.764 80.5107 344.875 81.6738C345.04 83.9448 344.929 84.4431 343.99 85.1631C343.489 85.5507 342.328 85.6617 341.608 85.3293C340.72 84.8862 340.498 84.2217 340.279 80.6217C339.889 74.5848 340.444 45.8955 340.999 41.8524C341.218 40.5786 341.884 39.1938 342.658 38.6955C343.324 38.2524 347.755 38.3076 349.417 38.7507C354.844 40.2462 358.999 44.5107 360.493 50.1048ZM356.395 57.4155C357.448 51.7662 354.733 45.2307 348.973 43.3476C348.142 43.0155 347.2 42.8493 346.537 42.8493H345.43L345.319 44.5662C344.929 50.7138 344.542 67.6617 344.818 67.6617C344.929 67.6617 345.649 67.44 346.426 67.2186C348.586 66.4986 350.746 65.5569 352.519 64.1169C354.622 62.4 355.897 60.0186 356.395 57.4155ZM366.979 84.1662C366.592 83.9448 366.259 83.6124 366.094 83.1138C365.761 81.5076 365.872 79.7907 365.872 78.1848C365.815 73.6431 365.872 69.1569 365.872 64.6155C365.872 63.9507 365.872 63.2862 365.872 62.6217C365.872 40.0248 365.983 34.5969 366.37 33.8769C366.868 32.9355 368.254 32.5476 369.361 33.1017C369.637 33.2124 369.97 33.6555 370.192 34.0431C370.468 34.7076 370.525 35.8707 370.414 58.6893C370.357 63.84 370.357 68.9907 370.303 74.1417C370.303 76.5231 370.303 78.96 370.135 81.3417C370.081 82.0062 370.135 83.0586 369.748 83.6124C369.193 84.3876 367.921 84.5538 366.979 84.1662ZM397.159 70.5969C397.324 81.7848 397.267 82.9476 396.991 83.5017C396.217 84.9969 394.057 84.9417 393.169 83.4462C392.893 83.0031 392.839 82.2831 392.728 78.7938L392.671 74.6955L391.675 76.6893C389.737 80.5107 387.742 82.8924 385.417 83.9448C378.769 87.1017 376 79.1262 375.502 74.0862C374.947 67.9386 376.888 60.0738 380.098 55.7538C382.591 52.3755 384.808 51.0462 387.964 51.0462C389.848 51.0462 391.177 51.4338 392.839 52.5417C395.719 54.4248 397.048 57.6924 397.102 61.0155C397.102 62.4 397.102 63.7848 397.102 65.1693C397.159 66.9417 397.159 68.7693 397.159 70.5969ZM389.848 69.3786C391.618 64.6155 392.506 61.6248 392.506 60.2955C392.506 56.8617 388.849 54.4248 386.137 56.0307C382.537 58.1355 379.711 65.8893 379.987 72.7569C380.044 74.2524 380.377 79.7907 382.537 80.0124C382.978 80.0676 383.479 79.9017 383.866 79.6248C387.079 77.6307 388.627 72.7017 389.848 69.3786ZM404.728 84.4431C404.008 84.2769 403.675 84 403.288 83.28C403.012 82.6707 403.012 78.4617 403.453 61.7355C403.675 53.1507 403.675 52.9848 404.728 52.32C405.946 51.6 407.386 52.0986 407.941 53.3724C408.16 53.9262 408.217 54.4248 408.106 55.5876L407.995 57.1386L408.88 55.9755C410.653 53.5938 413.311 51.6 416.248 50.9355C420.622 49.9386 423.892 53.4276 425.164 57.1938C426.217 60.4062 426.106 63.84 426.16 67.1631C426.271 73.7538 425.884 82.1724 425.386 83.28C425.11 84 424.168 84.6093 423.391 84.6093C422.617 84.6093 421.675 84 421.399 83.2248C421.177 82.7262 421.177 82.1724 421.288 80.0124C421.564 76.1907 421.897 72.3138 421.897 68.4369C421.897 64.9476 421.951 60.4617 420.346 57.2493C418.684 53.9262 415.582 55.4769 413.533 57.5262C411.484 59.5755 409.879 63.0648 408.493 68.6586C407.941 70.9848 407.662 74.64 407.608 79.8462C407.608 81.12 407.551 82.4493 407.44 82.7817C407.11 84 405.946 84.6648 404.728 84.4431Z" fill="white"/>
</g>
<defs>
<clipPath id="clip0_1105_1361">
<rect width="600" height="900" fill="white"/>
</clipPath>
</defs>
</svg>
