<svg width="200" height="300" viewBox="0 0 200 300" fill="none" xmlns="http://www.w3.org/2000/svg">
<rect width="200" height="300" rx="9.23077" fill="#FFBBA6"/>
<rect width="200" height="300" rx="9.23077" fill="black" fill-opacity="0.05"/>
<rect x="9.22852" y="47.8125" width="181.538" height="30.7692" rx="4.61539" fill="white" fill-opacity="0.2"/>
<path d="M19.6517 69.1829C19.5271 69.1137 19.4302 68.989 19.4025 68.8229C19.3886 68.6983 19.3886 68.5737 19.3748 68.4352C19.3471 67.9921 19.3332 67.5352 19.3194 67.0921C19.3056 66.469 19.2917 65.8598 19.2917 65.2367C19.2779 64.5583 19.2779 63.8798 19.2779 63.2013C19.264 62.5644 19.264 61.9275 19.2779 61.2906C19.2779 60.7921 19.2917 60.3075 19.3056 59.8229C19.3056 59.6983 19.3194 59.5737 19.3332 59.4352C19.4302 58.0229 19.4994 57.7737 19.8456 57.6075C20.2056 57.4275 20.5932 57.6629 20.8286 58.189C20.9948 58.5352 21.604 60.5567 21.8256 61.4706C22.4209 63.9906 22.864 65.6937 22.9332 65.6937C23.044 65.6937 23.7502 63.3952 24.5532 60.3767C24.9132 59.0475 25.2456 58.0644 25.4117 57.8152C25.564 57.5937 25.7994 57.4413 25.9794 57.4413C26.2563 57.4413 26.5471 57.6767 26.6717 58.009C26.8794 58.5906 26.9071 59.2275 26.8656 64.3783C26.8656 65.2506 26.8517 66.1229 26.8517 66.9952C26.8379 67.4521 26.8379 67.9229 26.8379 68.3798C26.8379 68.5183 26.8517 68.6706 26.8379 68.7952C26.7825 69.3075 26.0486 69.3629 25.8132 68.9613C25.744 68.8229 25.744 68.546 25.744 64.5721C25.744 60.8613 25.744 60.3629 25.6886 60.5567C24.3456 65.3337 24.2071 65.7767 23.9163 66.3029C23.4317 67.1752 22.7394 67.4106 22.2686 66.8567C21.8948 66.4413 21.7148 65.846 20.7179 61.7475C20.4686 60.7229 20.4548 60.6675 20.4271 60.8613C20.3717 61.1798 20.3717 63.6029 20.4271 66.3306C20.4963 69.0998 20.4963 69.0029 20.1917 69.1967C20.0117 69.3075 19.804 69.2798 19.6517 69.1829Z" fill="white"/>
<rect x="9.22852" y="83.1973" width="181.538" height="30.7692" rx="4.61539" fill="white" fill-opacity="0.2"/>
<path d="M21.5902 105.303C21.4656 105.248 21.3548 105.137 21.3132 104.999C21.2579 104.86 21.2856 104.666 21.2717 104.514C21.2717 103.822 21.2856 103.13 21.2856 102.437C21.2994 101.606 21.3132 100.776 21.3271 99.9311C21.3686 97.1757 21.4102 94.8496 21.424 94.7526L21.4517 94.5865L21.064 94.6142C20.0532 94.6696 18.6825 94.6696 18.5302 94.6142C18.3363 94.5588 18.1563 94.3096 18.1563 94.1157C18.1563 93.8526 18.3086 93.6726 18.6271 93.5757C18.8071 93.5342 24.7886 93.4234 25.1071 93.465C25.4256 93.5203 25.7717 93.7696 25.7025 94.1434C25.6471 94.4619 25.3702 94.5311 25.0932 94.5588C24.7194 94.5865 24.3317 94.5726 23.9579 94.5865L22.5594 94.6142L22.5317 95.3342C22.5179 95.7357 22.4763 98.0619 22.4486 100.485C22.4071 103.891 22.3794 104.943 22.324 105.054C22.1994 105.359 21.8532 105.428 21.5902 105.303Z" fill="white"/>
<rect x="9.22852" y="118.582" width="181.538" height="30.7692" rx="4.61539" fill="white" fill-opacity="0.2"/>
<path d="M26.2979 140.132C25.7025 139.966 25.1763 139.467 24.8025 138.761C24.4009 137.958 24.0132 136.92 23.764 135.937C23.6532 135.507 23.6117 135.369 23.584 135.452C23.5702 135.521 23.5009 135.881 23.4179 136.255C23.224 137.197 23.0302 137.778 22.6286 138.581C22.1025 139.647 21.7009 140.007 21.0779 140.007C19.9148 140.021 19.444 138.623 19.2779 137.681C18.724 134.773 18.8902 131.88 19.4302 128.806C19.4994 128.473 19.7209 128.086 20.1502 128.183C20.5102 128.266 20.6625 128.584 20.5379 129C20.2056 130.038 19.7902 134.164 20.2332 136.906C20.3163 137.404 20.4548 137.917 20.6348 138.387C20.704 138.54 20.7732 138.706 20.9256 138.775C21.604 139.149 22.2132 136.504 22.3102 136.089C22.5456 135.009 22.684 133.915 22.8363 132.835C23.0302 131.409 23.0717 131.284 23.3348 131.173C23.6532 131.035 23.9579 131.146 24.0963 131.45C24.1656 131.589 24.2486 132.032 24.3732 132.946C24.6779 135.078 24.8994 136.033 25.3979 137.307C25.6194 137.889 26.1179 139.329 26.9902 138.983C27.6132 138.733 27.9594 137.127 28.0148 134.15C28.0425 132.53 28.0009 131.783 27.7794 130.26C27.6825 129.664 27.6271 129.124 27.6409 129.041C27.6548 128.972 27.724 128.847 27.8071 128.778C27.9179 128.667 27.9871 128.64 28.1671 128.64C28.3471 128.64 28.4163 128.667 28.5271 128.764C28.5963 128.847 28.6794 128.958 28.7071 129.013C28.7902 129.235 29.0671 131.353 29.1363 132.198C29.164 132.71 29.1779 133.444 29.1502 134.178C29.0671 138.013 28.5686 139.592 27.3502 140.063C27.0317 140.187 26.6025 140.215 26.2979 140.132Z" fill="white"/>
<rect x="9.22852" y="153.966" width="181.538" height="30.7692" rx="4.61539" fill="white" fill-opacity="0.2"/>
<path d="M21.5902 175.447C21.4656 175.392 21.3548 175.281 21.3132 175.143C21.2579 175.004 21.2856 174.811 21.2717 174.658C21.2717 173.966 21.2856 173.274 21.2856 172.581C21.2994 171.751 21.3132 170.92 21.3271 170.075C21.3686 167.32 21.4102 164.994 21.424 164.897L21.4517 164.731L21.064 164.758C20.0532 164.814 18.6825 164.814 18.5302 164.758C18.3363 164.703 18.1563 164.454 18.1563 164.26C18.1563 163.997 18.3086 163.817 18.6271 163.72C18.8071 163.678 24.7886 163.567 25.1071 163.609C25.4256 163.664 25.7717 163.914 25.7025 164.287C25.6471 164.606 25.3702 164.675 25.0932 164.703C24.7194 164.731 24.3317 164.717 23.9579 164.731L22.5594 164.758L22.5317 165.478C22.5179 165.88 22.4763 168.206 22.4486 170.629C22.4071 174.035 22.3794 175.087 22.324 175.198C22.1994 175.503 21.8532 175.572 21.5902 175.447Z" fill="white"/>
<rect x="9.22852" y="189.351" width="181.538" height="30.7692" rx="4.61539" fill="white" fill-opacity="0.2"/>
<path d="M19.624 210.638C19.5132 210.541 19.4579 210.445 19.4163 210.265C19.264 209.572 19.2779 203.314 19.4302 200.655C19.4994 199.437 19.5271 199.354 19.8456 199.188C20.0256 199.091 20.0948 199.091 22.2825 199.077C23.8748 199.063 24.5809 199.077 24.664 199.118C25.0656 199.285 25.1486 199.741 24.844 200.046C24.7609 200.129 24.6363 200.171 24.5117 200.171L23.4871 200.185C22.8086 200.198 21.8948 200.212 21.4379 200.226L20.6071 200.268L20.5794 200.406C20.5517 200.558 20.4686 202.677 20.4686 203.12V203.397H21.9086C23.1271 203.397 23.3625 203.411 23.5009 203.466C23.9025 203.66 23.9163 204.186 23.5286 204.435C23.4179 204.505 23.2517 204.518 21.9363 204.532L20.4548 204.546L20.4409 204.795C20.3856 205.169 20.4548 209.351 20.5102 209.877C20.5517 210.265 20.5517 210.348 20.4825 210.472C20.3302 210.805 19.9009 210.888 19.624 210.638Z" fill="white"/>
<rect x="9.22852" y="224.735" width="181.538" height="30.7692" rx="4.61539" fill="white" fill-opacity="0.2"/>
<path d="M20.2056 246.161C19.6379 246.037 19.3194 245.898 19.2086 245.704C18.9732 245.33 19.2225 244.887 19.6517 244.887C19.7209 244.887 19.8871 244.929 20.0256 244.97C20.4409 245.123 20.8979 245.178 21.3409 245.15C22.2686 245.095 22.6563 244.638 22.4209 243.863C22.3102 243.517 21.964 243.06 21.3409 242.45C20.1363 241.287 19.5825 240.706 19.3471 240.36C18.4748 239.086 18.3779 237.77 19.0563 236.344C19.8179 234.78 21.9363 233.713 23.4594 234.96C23.9163 235.333 24.3594 235.984 24.3594 236.303C24.3594 236.621 24.124 236.87 23.8056 236.87C23.5702 236.87 23.4179 236.746 23.2517 236.441C23.0717 236.095 22.7394 235.749 22.4763 235.638C21.4794 235.181 20.6071 235.887 20.1502 236.732C19.7486 237.452 19.5825 238.352 19.9148 239.141C20.2609 239.972 21.064 240.595 21.6871 241.218C22.9332 242.464 23.2379 242.824 23.4456 243.378C23.7225 244.14 23.6532 244.846 23.2517 245.427C23.044 245.718 22.6702 245.967 22.2409 246.106C21.7148 246.272 20.8286 246.3 20.2056 246.161Z" fill="white"/>
<rect x="9.22852" y="260.12" width="181.538" height="30.7692" rx="4.61539" fill="white" fill-opacity="0.2"/>
<path d="M20.2056 281.546C19.6379 281.421 19.3194 281.283 19.2086 281.089C18.9732 280.715 19.2225 280.272 19.6517 280.272C19.7209 280.272 19.8871 280.314 20.0256 280.355C20.4409 280.507 20.8979 280.563 21.3409 280.535C22.2686 280.48 22.6563 280.023 22.4209 279.247C22.3102 278.901 21.964 278.444 21.3409 277.835C20.1363 276.672 19.5825 276.091 19.3471 275.744C18.4748 274.471 18.3779 273.155 19.0563 271.729C19.8179 270.164 21.9363 269.098 23.4594 270.344C23.9163 270.718 24.3594 271.369 24.3594 271.687C24.3594 272.006 24.124 272.255 23.8056 272.255C23.5702 272.255 23.4179 272.131 23.2517 271.826C23.0717 271.48 22.7394 271.134 22.4763 271.023C21.4794 270.566 20.6071 271.272 20.1502 272.117C19.7486 272.837 19.5825 273.737 19.9148 274.526C20.2609 275.357 21.064 275.98 21.6871 276.603C22.9332 277.849 23.2379 278.209 23.4456 278.763C23.7225 279.524 23.6532 280.231 23.2517 280.812C23.044 281.103 22.6702 281.352 22.2409 281.491C21.7148 281.657 20.8286 281.684 20.2056 281.546Z" fill="white"/>
<path d="M68.1406 28.6088C67.3468 28.3873 66.6453 27.7227 66.1468 26.7812C65.6114 25.7104 65.0945 24.3258 64.7622 23.015C64.6145 22.4427 64.5591 22.2581 64.5222 22.3688C64.5037 22.4612 64.4114 22.9412 64.3006 23.4396C64.0422 24.695 63.7837 25.4704 63.2483 26.5412C62.5468 27.9627 62.0114 28.4427 61.1806 28.4427C59.6299 28.4612 59.0022 26.5965 58.7806 25.3412C58.0422 21.4642 58.2637 17.6058 58.9837 13.5073C59.076 13.0642 59.3714 12.5473 59.9437 12.6765C60.4237 12.7873 60.6268 13.2119 60.4606 13.7658C60.0176 15.1504 59.4637 20.6519 60.0545 24.3073C60.1653 24.9719 60.3499 25.655 60.5899 26.2827C60.6822 26.4858 60.7745 26.7073 60.9776 26.7996C61.8822 27.2981 62.6945 23.7719 62.8237 23.2181C63.1376 21.7781 63.3222 20.3196 63.5253 18.8796C63.7837 16.9781 63.8391 16.8119 64.1899 16.6642C64.6145 16.4796 65.0206 16.6273 65.2053 17.0335C65.2976 17.2181 65.4083 17.8088 65.5745 19.0273C65.9806 21.8704 66.276 23.1442 66.9406 24.8427C67.236 25.6181 67.9006 27.5381 69.0637 27.0765C69.8945 26.7442 70.356 24.6027 70.4299 20.6335C70.4668 18.4735 70.4114 17.4765 70.116 15.4458C69.9868 14.6519 69.9129 13.9319 69.9314 13.8212C69.9499 13.7288 70.0422 13.5627 70.1529 13.4704C70.3006 13.3227 70.3929 13.2858 70.6329 13.2858C70.8729 13.2858 70.9653 13.3227 71.1129 13.4519C71.2053 13.5627 71.316 13.7104 71.3529 13.7842C71.4637 14.0796 71.8329 16.9042 71.9253 18.0304C71.9622 18.7135 71.9806 19.6919 71.9437 20.6704C71.8329 25.7842 71.1683 27.8888 69.5437 28.5165C69.1191 28.6827 68.5468 28.7196 68.1406 28.6088ZM79.7192 25.8581C79.9777 25.9873 80.1254 26.2273 80.1254 26.5227C80.1254 26.8365 79.9961 27.0396 79.6084 27.3904C78.7592 28.1658 77.2454 28.535 76.2669 28.2027C75.3807 27.8888 74.6607 27.2612 74.1807 26.4488C73.2392 24.8612 73.2207 22.7196 73.7007 20.9658C74.1254 19.3412 74.8269 18.1965 75.9161 17.3842C76.0269 17.3104 76.1377 17.2365 76.2484 17.1627C77.2823 16.5904 78.5746 16.7196 79.1284 17.8458C79.59 18.7688 79.4238 19.9319 78.9992 20.855C78.4454 22.1104 76.8761 23.1073 75.4546 23.1073H74.9377V23.1258C74.9377 23.5135 74.9561 23.9012 75.0115 24.2888C75.03 24.4181 75.0669 24.5473 75.0854 24.6765C75.2884 25.4888 75.713 26.2642 76.47 26.6519C77.2269 27.0396 78.1869 26.6888 78.7592 26.135C79.1284 25.7842 79.3869 25.7104 79.7192 25.8581ZM75.6207 20.0796C75.3254 20.7073 75.1038 21.4088 75.1592 21.5565C75.2884 21.8704 76.1007 21.5012 76.2854 21.4088C77.3192 20.9842 78.1869 19.8212 77.873 18.6581C77.7807 18.3442 77.6146 18.2519 77.2823 18.3442C76.7284 18.4919 76.0454 19.1935 75.6207 20.0796ZM86.9848 25.8581C87.2433 25.9873 87.391 26.2273 87.391 26.5227C87.391 26.8365 87.2617 27.0396 86.8741 27.3904C86.0248 28.1658 84.511 28.535 83.5325 28.2027C82.6464 27.8888 81.9264 27.2612 81.4464 26.4488C80.5048 24.8612 80.4864 22.7196 80.9664 20.9658C81.391 19.3412 82.0925 18.1965 83.1817 17.3842C83.2925 17.3104 83.4033 17.2365 83.5141 17.1627C84.5479 16.5904 85.8402 16.7196 86.3941 17.8458C86.8556 18.7688 86.6894 19.9319 86.2648 20.855C85.711 22.1104 84.1417 23.1073 82.7202 23.1073H82.2033V23.1258C82.2033 23.5135 82.2217 23.9012 82.2771 24.2888C82.2956 24.4181 82.3325 24.5473 82.351 24.6765C82.5541 25.4888 82.9787 26.2642 83.7356 26.6519C84.4925 27.0396 85.4525 26.6888 86.0248 26.135C86.3941 25.7842 86.6525 25.7104 86.9848 25.8581ZM82.8864 20.0796C82.591 20.7073 82.3694 21.4088 82.4248 21.5565C82.5541 21.8704 83.3664 21.5012 83.551 21.4088C84.5848 20.9842 85.4525 19.8212 85.1387 18.6581C85.0464 18.3442 84.8802 18.2519 84.5479 18.3442C83.9941 18.4919 83.311 19.1935 82.8864 20.0796ZM89.192 28.0735C88.952 27.9627 88.7674 27.7412 88.712 27.4642C88.5458 26.375 88.7304 14.375 88.952 12.1042C89.0258 11.3288 89.0443 11.2181 89.192 11.0335C89.4135 10.7381 89.7643 10.6458 90.0597 10.7935C90.1889 10.8673 90.3366 10.9965 90.4104 11.1073C90.5212 11.3104 90.5212 11.3473 90.4104 12.6212C90.3181 13.8212 90.2074 17.9196 90.2074 20.2642C90.2074 21.0581 90.2074 21.1688 90.2812 21.095C90.4843 20.8919 91.6658 19.175 92.2566 18.2519C92.6074 17.7165 92.9581 17.1996 93.0689 17.1073C93.5674 16.6827 94.2689 16.9965 94.2689 17.6612C94.2689 17.8458 94.1397 18.0858 93.6043 18.9535C93.2166 19.5442 92.6812 20.3381 92.4043 20.7442C92.1274 21.1319 91.9058 21.4827 91.9058 21.5196C91.9058 21.6488 92.072 21.8704 92.1458 21.9996C92.3304 22.3504 92.5151 22.6827 92.7181 23.0335C93.1428 23.8088 93.5674 24.5658 94.0289 25.3227C94.2874 25.7658 94.5828 26.1904 94.8412 26.6335C94.9704 26.8365 95.0812 27.0212 95.0812 27.2612C95.0997 27.7596 94.6381 28.1104 94.1581 27.9627C93.8443 27.8704 93.6781 27.5565 93.512 27.2981C92.8289 26.3381 92.2381 25.2858 91.6658 24.2519C91.2597 23.495 90.8904 22.8673 90.872 22.8304C90.8535 22.8119 90.6689 22.9781 90.4843 23.2181L90.1151 23.6612L90.1889 25.5812C90.2074 26.0981 90.2258 26.6335 90.2074 27.1688C90.2074 27.5381 90.1704 27.9258 89.7643 28.0919C89.5797 28.1658 89.3766 28.1473 89.192 28.0735ZM96.5988 28.055C96.4696 27.9812 96.3588 27.8704 96.3034 27.7042C96.1927 27.1688 96.2296 26.5965 96.2296 26.0612C96.2111 24.5473 96.2296 23.0519 96.2296 21.5381C96.2296 21.3165 96.2296 21.095 96.2296 20.8735C96.2296 13.3412 96.2665 11.5319 96.3957 11.2919C96.5619 10.9781 97.0234 10.8488 97.3927 11.0335C97.485 11.0704 97.5957 11.2181 97.6696 11.3473C97.7619 11.5688 97.7804 11.9565 97.7434 19.5627C97.725 21.2796 97.725 22.9965 97.7065 24.7135C97.7065 25.5073 97.7065 26.3196 97.6511 27.1135C97.6327 27.335 97.6511 27.6858 97.5219 27.8704C97.3373 28.1288 96.9127 28.1842 96.5988 28.055ZM102.117 34.6642C101.415 34.4981 100.086 34.0181 100.215 33.1504C100.271 32.7996 100.566 32.5412 100.917 32.5596C101.452 32.5596 101.877 33.0212 102.375 33.1688C103.243 33.4458 104.258 33.335 104.923 32.6888C105.366 32.2642 105.68 31.415 105.828 30.2335C105.92 29.5873 106.086 24.1596 106.031 24.0858C106.012 24.0858 105.901 24.3442 105.772 24.695C105.44 25.5812 104.886 26.7073 104.554 27.1688C103.76 28.2212 102.357 28.6642 101.268 27.7227C100.621 27.1504 100.289 26.3012 100.104 25.4519C99.7353 23.7719 99.7722 22.055 99.846 20.3381C99.8829 19.6181 99.9199 18.8981 99.9753 18.1781C99.9937 17.9012 100.012 17.6058 100.123 17.3473C100.252 17.0888 100.511 16.8673 100.788 16.8858C101.083 16.9042 101.323 17.1627 101.415 17.4396C101.508 17.7165 101.489 18.0304 101.471 18.3258C101.304 20.3381 101.138 22.4612 101.452 24.4735C101.544 25.0642 101.784 26.5781 102.504 26.7442C103.169 26.9104 103.631 25.8212 103.852 25.3781C104.443 24.1781 104.831 22.9227 105.218 21.0581C105.698 18.7319 105.994 17.4765 106.086 17.2919C106.234 17.0519 106.566 16.8858 106.824 16.9227C107.083 16.9596 107.36 17.2181 107.434 17.495C107.526 17.8642 107.581 23.2735 107.508 26.4119C107.434 30.1781 107.304 31.2673 106.88 32.3381C106.455 33.3535 105.938 33.9627 105.071 34.3873C104.184 34.8304 103.151 34.9227 102.191 34.6827C102.172 34.6827 102.135 34.6827 102.117 34.6642ZM120.164 16.7012C120.589 18.3627 120.386 20.1535 119.37 21.5565C118.41 22.9042 116.896 23.6058 115.327 23.975L114.884 24.0858V25.3042C114.884 25.9873 114.921 26.8365 114.958 27.2242C115.013 27.9812 114.976 28.1473 114.663 28.3873C114.496 28.5165 114.109 28.5535 113.869 28.4427C113.573 28.295 113.499 28.0735 113.426 26.8735C113.296 24.8612 113.481 15.2981 113.666 13.9504C113.739 13.5258 113.961 13.0642 114.219 12.8981C114.441 12.7504 115.918 12.7688 116.472 12.9165C118.281 13.415 119.666 14.8365 120.164 16.7012ZM118.798 19.1381C119.149 17.255 118.244 15.0765 116.324 14.4488C116.047 14.3381 115.733 14.2827 115.512 14.2827H115.143L115.106 14.855C114.976 16.9042 114.847 22.5535 114.939 22.5535C114.976 22.5535 115.216 22.4796 115.475 22.4058C116.195 22.1658 116.915 21.8519 117.506 21.3719C118.207 20.7996 118.632 20.0058 118.798 19.1381ZM122.326 28.055C122.197 27.9812 122.086 27.8704 122.031 27.7042C121.92 27.1688 121.957 26.5965 121.957 26.0612C121.938 24.5473 121.957 23.0519 121.957 21.5381C121.957 21.3165 121.957 21.095 121.957 20.8735C121.957 13.3412 121.994 11.5319 122.123 11.2919C122.289 10.9781 122.751 10.8488 123.12 11.0335C123.212 11.0704 123.323 11.2181 123.397 11.3473C123.489 11.5688 123.508 11.9565 123.471 19.5627C123.452 21.2796 123.452 22.9965 123.434 24.7135C123.434 25.5073 123.434 26.3196 123.378 27.1135C123.36 27.335 123.378 27.6858 123.249 27.8704C123.064 28.1288 122.64 28.1842 122.326 28.055ZM132.386 23.5319C132.441 27.2612 132.422 27.6488 132.33 27.8335C132.072 28.3319 131.352 28.3135 131.056 27.815C130.964 27.6673 130.946 27.4273 130.909 26.2642L130.89 24.8981L130.558 25.5627C129.912 26.8365 129.247 27.6304 128.472 27.9812C126.256 29.0335 125.333 26.375 125.167 24.695C124.982 22.6458 125.629 20.0242 126.699 18.5842C127.53 17.4581 128.269 17.015 129.321 17.015C129.949 17.015 130.392 17.1442 130.946 17.5135C131.906 18.1412 132.349 19.2304 132.367 20.3381C132.367 20.7996 132.367 21.2612 132.367 21.7227C132.386 22.3135 132.386 22.9227 132.386 23.5319ZM129.949 23.1258C130.539 21.5381 130.835 20.5412 130.835 20.0981C130.835 18.9535 129.616 18.1412 128.712 18.6765C127.512 19.3781 126.57 21.9627 126.662 24.2519C126.681 24.7504 126.792 26.5965 127.512 26.6704C127.659 26.6888 127.826 26.6335 127.955 26.5412C129.026 25.8765 129.542 24.2335 129.949 23.1258ZM134.909 28.1473C134.669 28.0919 134.558 27.9996 134.429 27.7596C134.337 27.5565 134.337 26.1535 134.484 20.5781C134.558 17.7165 134.558 17.6612 134.909 17.4396C135.315 17.1996 135.795 17.3658 135.98 17.7904C136.053 17.975 136.072 18.1412 136.035 18.5288L135.998 19.0458L136.293 18.6581C136.884 17.8642 137.77 17.1996 138.749 16.9781C140.207 16.6458 141.297 17.8088 141.721 19.0642C142.072 20.135 142.035 21.2796 142.053 22.3873C142.09 24.5842 141.961 27.3904 141.795 27.7596C141.703 27.9996 141.389 28.2027 141.13 28.2027C140.872 28.2027 140.558 27.9996 140.466 27.7412C140.392 27.575 140.392 27.3904 140.429 26.6704C140.521 25.3965 140.632 24.1042 140.632 22.8119C140.632 21.6488 140.65 20.1535 140.115 19.0827C139.561 17.975 138.527 18.4919 137.844 19.175C137.161 19.8581 136.626 21.0212 136.164 22.8858C135.98 23.6612 135.887 24.8796 135.869 26.615C135.869 27.0396 135.85 27.4827 135.813 27.5935C135.703 27.9996 135.315 28.2212 134.909 28.1473Z" fill="white"/>
</svg>
