<svg width="888" height="414" viewBox="0 0 888 414" fill="none" xmlns="http://www.w3.org/2000/svg">
<path d="M40.2597 364.174C59.3298 364.174 82.2144 346.942 96.1992 324.787C116.117 292.782 122.898 261.271 116.541 228.775C113.151 211.542 107.218 188.893 86.8758 181.016C85.6047 180.523 84.3333 179.539 83.4855 178.062C67.8057 159.844 47.04 174.615 30.0888 198.741C11.0184 225.821 0 258.317 0 307.06C0 335.125 14.4087 364.174 40.2597 364.174ZM42.3786 330.694C32.6313 332.173 28.3936 321.832 28.3936 311.491C28.3936 274.565 47.8878 204.649 67.8057 204.649C79.6716 204.649 90.2661 233.699 90.2661 257.332C90.2661 288.843 65.2629 327.739 42.3786 330.694Z" fill="#A11275"/>
<path d="M173.653 372.051C194.418 372.051 219.421 350.88 238.068 329.217C244.001 320.355 247.391 314.445 241.882 305.583C237.644 299.183 230.016 298.198 223.235 302.136C213.065 309.03 191.452 337.588 173.229 339.064C155.43 340.543 154.582 319.86 158.82 294.259C165.177 257.332 177.043 228.282 196.961 205.141C200.775 200.71 209.25 191.847 212.217 193.324C215.183 194.309 216.455 207.111 217.726 211.05C220.269 217.943 225.778 222.374 231.287 221.389C238.068 220.405 244.425 213.511 244.425 200.71C244.425 188.893 240.187 179.046 234.677 171.168C226.202 158.859 213.065 155.412 200.351 161.813C160.515 182 128.308 252.9 128.308 312.969C128.308 349.896 142.716 372.051 173.653 372.051Z" fill="#A11275"/>
<path d="M285.204 391.748C296.223 391.748 305.121 378.455 296.647 366.146C289.866 355.805 289.018 343.988 289.442 332.174C290.29 313.463 292.409 293.276 294.104 269.15C294.527 263.242 297.07 259.795 300.885 256.841C314.022 246.994 325.464 235.669 334.788 225.33C356.4 201.204 372.927 175.601 385.641 148.029C388.608 141.628 392.844 139.166 399.201 139.166C410.22 139.166 421.239 138.674 431.835 138.674C448.785 138.674 457.683 135.227 457.683 121.933C457.683 105.193 441.156 106.178 424.206 106.178H406.83C403.017 106.178 403.017 104.701 403.44 101.747C408.948 72.2048 411.069 65.804 405.984 51.0332C400.473 34.2929 387.336 26.9074 372.504 32.8157C352.587 40.6934 330.972 72.2048 315.294 101.254C313.599 104.701 311.478 106.67 308.088 106.67H246.64C233.503 106.67 223.332 111.594 224.179 124.395C225.027 135.72 233.926 140.151 244.097 140.151H288.171C298.766 140.151 297.07 139.659 293.68 149.998C280.967 186.433 271.22 224.345 266.134 266.689C261.049 309.032 257.658 347.927 268.253 376.979C270.796 383.87 275.881 391.748 285.204 391.748ZM350.043 106.178C347.925 106.178 347.499 105.685 348.348 103.716C355.128 88.4528 364.875 76.1438 375.894 67.7735C377.166 66.7889 379.707 65.804 379.707 70.2353C379.707 81.0674 376.317 90.9146 372.927 102.239C372.081 105.193 370.386 106.178 368.265 106.178H350.043ZM305.121 211.544C307.242 201.204 320.379 160.83 325.041 149.998C328.005 142.613 331.398 139.659 336.483 139.659C349.62 139.166 359.367 139.659 353.01 148.521C343.686 161.815 328.005 192.834 305.121 211.544Z" fill="#A11275"/>
<path d="M392.655 364.174C411.726 364.174 434.61 346.942 448.596 324.787C468.513 292.782 475.293 261.271 468.936 228.775C465.546 211.542 459.612 188.893 439.272 181.016C438 180.523 436.728 179.539 435.882 178.062C420.201 159.844 399.435 174.615 382.485 198.741C363.414 225.821 352.395 258.317 352.395 307.06C352.395 335.125 366.804 364.174 392.655 364.174ZM394.773 330.694C385.026 332.173 380.79 321.832 380.79 311.491C380.79 274.565 400.284 204.649 420.201 204.649C432.066 204.649 442.662 233.699 442.662 257.332C442.662 288.843 417.657 327.739 394.773 330.694Z" fill="#A11275"/>
<path d="M486.213 374.514C490.875 374.514 496.806 370.083 498.501 367.128C500.196 364.173 502.317 363.681 506.13 365.16C521.385 371.067 536.22 367.128 547.236 362.697C592.581 344.973 632.418 299.675 643.437 242.068C651.063 200.71 645.132 164.767 612.075 164.767C601.482 164.767 589.191 171.66 589.191 171.66C589.191 171.66 589.191 170.675 590.463 168.214C592.581 163.782 601.482 146.55 606.144 134.733C618.432 101.252 631.995 51.0311 625.215 26.9053C619.704 7.70311 605.718 -1.65182 590.886 4.74889C569.274 14.5962 549.78 45.1227 536.643 74.1722C509.097 135.718 501.045 189.878 485.787 274.564C475.194 331.185 464.175 374.514 486.213 374.514ZM527.742 204.649C527.742 185.939 550.626 114.054 562.917 87.4661C570.969 69.7409 590.886 38.2295 597.243 38.2295C601.482 38.2295 597.669 64.8173 593.007 83.5271C584.106 119.47 548.508 187.416 527.742 204.649ZM533.253 333.156C526.473 335.616 514.182 336.108 512.91 331.677C509.097 320.847 555.288 251.423 574.782 227.297C584.529 215.481 601.059 197.755 612.075 197.755C626.061 197.755 613.347 256.839 599.787 278.011C582.411 305.091 559.95 324.294 533.253 333.156Z" fill="#A11275"/>
<path d="M695.796 368.112C720.375 368.112 761.484 334.632 763.602 310.998C763.602 303.12 760.635 295.735 751.314 295.735C735.21 296.228 716.139 336.108 697.068 335.616C683.931 335.616 677.151 317.892 678.846 297.212C679.269 292.289 680.964 290.319 684.78 288.842C708.51 279.487 729.276 264.224 749.193 235.175C755.55 225.82 760.212 215.48 762.33 204.648C767.841 178.553 751.737 156.396 728.853 157.381C686.475 159.843 649.182 248.961 650.451 312.477C651.3 340.542 669.099 368.112 695.796 368.112ZM691.56 250.438C690.711 250.93 689.016 251.423 689.865 248.961C698.763 228.281 705.969 212.033 716.562 199.724C724.614 190.37 734.361 187.415 734.361 195.785C734.361 211.541 711.054 239.114 691.56 250.438Z" fill="#A11275"/>
<path d="M841.806 412.425C849.858 412.425 857.487 403.563 854.52 391.254C851.979 380.916 853.674 371.067 855.792 361.713C865.116 320.355 872.745 316.908 883.338 280.472C885.033 274.564 888 267.179 888 259.301C888 242.56 876.558 229.759 862.149 232.713C860.877 232.713 850.284 235.667 850.284 235.667C850.284 235.175 862.572 213.511 865.539 195.786C868.506 178.553 871.473 159.843 857.91 149.011C851.979 144.58 845.199 143.595 837.57 146.057C817.653 152.458 795.615 187.416 788.412 217.45C783.324 237.637 782.901 256.839 794.343 270.133C810.87 289.335 825.705 281.457 853.674 269.64C855.369 268.656 856.215 270.625 855.792 272.594C856.215 270.133 834.603 329.217 832.059 338.079C826.128 359.25 820.194 386.331 828.246 402.087C831.636 408.486 836.298 412.425 841.806 412.425ZM815.109 231.728C818.499 213.019 822.738 201.694 836.721 185.446C838.416 183.477 838.416 183.969 837.993 186.431C833.757 207.11 826.128 222.374 815.109 231.728Z" fill="#A11275"/>
</svg>
