<svg width="296" height="138" viewBox="0 0 296 138" fill="none" xmlns="http://www.w3.org/2000/svg">
<path d="M13.4199 121.391C19.7766 121.391 27.4048 115.647 32.0664 108.262C38.7057 97.5938 40.9659 87.0901 38.847 76.2581C37.7169 70.5138 35.7392 62.9642 28.9586 60.3383C28.5349 60.1742 28.1111 59.8459 27.8285 59.3536C22.6019 53.2811 15.68 58.2047 10.0296 66.2467C3.6728 75.2733 0 86.1053 0 102.353C0 111.708 4.8029 121.391 13.4199 121.391ZM14.1262 110.231C10.8771 110.724 9.46453 107.277 9.46453 103.83C9.46453 91.5213 15.9626 68.2161 22.6019 68.2161C26.5572 68.2161 30.0887 77.8993 30.0887 85.7771C30.0887 96.2808 21.7543 109.246 14.1262 110.231Z" fill="#A11275"/>
<path d="M57.8842 124.017C64.806 124.017 73.1404 116.96 79.3559 109.739C81.3336 106.785 82.4637 104.815 80.6273 101.861C79.2147 99.7274 76.672 99.3991 74.4118 100.712C71.0215 103.01 63.8172 112.529 57.7429 113.021C51.8099 113.514 51.5274 106.62 52.94 98.0862C55.0589 85.7771 59.0143 76.0939 65.6536 68.3802C66.9249 66.9031 69.7501 63.949 70.739 64.4413C71.7278 64.7696 72.1516 69.0367 72.5754 70.3497C73.423 72.6474 75.2594 74.1245 77.0958 73.7962C79.3559 73.468 81.4749 71.1703 81.4749 66.9031C81.4749 62.9642 80.0622 59.6818 78.2258 57.0559C75.4006 52.9528 71.0215 51.804 66.7836 53.9376C53.5051 60.6665 42.7692 84.3 42.7692 104.323C42.7692 116.632 47.5721 124.017 57.8842 124.017Z" fill="#A11275"/>
<path d="M95.068 130.582C98.7408 130.582 101.707 126.151 98.8821 122.048C96.6219 118.601 96.3393 114.662 96.4806 110.724C96.7631 104.487 97.4694 97.7579 98.0345 89.716C98.1757 87.7465 99.0233 86.5977 100.295 85.613C104.674 82.3305 108.488 78.5557 111.596 75.1092C118.8 67.0673 124.309 58.533 128.547 49.3422C129.536 47.2086 130.948 46.388 133.067 46.388C136.74 46.388 140.413 46.2239 143.945 46.2239C149.595 46.2239 152.561 45.075 152.561 40.6437C152.561 35.0636 147.052 35.3919 141.402 35.3919H135.61C134.339 35.3919 134.339 34.8995 134.48 33.9148C136.316 24.0675 137.023 21.9339 135.328 17.0103C133.491 11.4302 129.112 8.96834 124.168 10.9378C117.529 13.5637 110.324 24.0675 105.098 33.7506C104.533 34.8995 103.826 35.556 102.696 35.556H82.2132C77.8341 35.556 74.4438 37.1972 74.7263 41.4643C75.0088 45.2391 77.9753 46.7162 81.3656 46.7162H96.0568C99.5884 46.7162 99.0233 46.5521 97.8932 49.9986C93.6554 62.1436 90.4064 74.781 88.7112 88.8954C87.0161 103.01 85.886 115.975 89.4175 125.659C90.2651 127.956 91.9602 130.582 95.068 130.582ZM116.681 35.3919C115.975 35.3919 115.833 35.2277 116.116 34.5713C118.376 29.4835 121.625 25.3805 125.298 22.5904C125.722 22.2622 126.569 21.9339 126.569 23.411C126.569 27.0217 125.439 30.3041 124.309 34.0789C124.027 35.0636 123.462 35.3919 122.755 35.3919H116.681ZM101.707 70.5138C102.414 67.0673 106.793 53.6093 108.347 49.9986C109.335 47.5368 110.466 46.5521 112.161 46.5521C116.54 46.388 119.789 46.5521 117.67 49.5063C114.562 53.9376 109.335 64.2772 101.707 70.5138Z" fill="#A11275"/>
<path d="M130.885 121.391C137.242 121.391 144.87 115.647 149.532 108.262C156.171 97.5938 158.431 87.0901 156.312 76.2581C155.182 70.5138 153.204 62.9642 146.424 60.3383C146 60.1742 145.576 59.8459 145.294 59.3536C140.067 53.2811 133.145 58.2047 127.495 66.2467C121.138 75.2733 117.465 86.1053 117.465 102.353C117.465 111.708 122.268 121.391 130.885 121.391ZM131.591 110.231C128.342 110.724 126.93 107.277 126.93 103.83C126.93 91.5213 133.428 68.2161 140.067 68.2161C144.022 68.2161 147.554 77.8993 147.554 85.7771C147.554 96.2808 139.219 109.246 131.591 110.231Z" fill="#A11275"/>
<path d="M162.071 124.838C163.625 124.838 165.602 123.361 166.167 122.376C166.732 121.391 167.439 121.227 168.71 121.72C173.795 123.689 178.74 122.376 182.412 120.899C197.527 114.991 210.806 99.8915 214.479 80.6893C217.021 66.9031 215.044 54.9223 204.025 54.9223C200.494 54.9223 196.397 57.22 196.397 57.22C196.397 57.22 196.397 56.8917 196.821 56.0711C197.527 54.594 200.494 48.8498 202.048 44.9109C206.144 33.7506 210.665 17.0103 208.405 8.96834C206.568 2.56762 201.906 -0.550691 196.962 1.58288C189.758 4.86531 183.26 15.0408 178.881 24.724C169.699 45.2391 167.015 63.2925 161.929 91.5213C158.398 110.395 154.725 124.838 162.071 124.838ZM175.914 68.2161C175.914 61.9795 183.542 38.0178 187.639 29.1553C190.323 23.2469 196.962 12.7431 199.081 12.7431C200.494 12.7431 199.223 21.6057 197.669 27.8423C194.702 39.8231 182.836 62.4719 175.914 68.2161ZM177.751 111.052C175.491 111.872 171.394 112.036 170.97 110.559C169.699 106.949 185.096 83.8076 191.594 75.7657C194.843 71.8268 200.353 65.9184 204.025 65.9184C208.687 65.9184 204.449 85.613 199.929 92.6702C194.137 101.697 186.65 108.098 177.751 111.052Z" fill="#A11275"/>
<path d="M231.932 122.704C240.125 122.704 253.828 111.544 254.534 103.666C254.534 101.04 253.545 98.5785 250.438 98.5785C245.07 98.7427 238.713 112.036 232.356 111.872C227.977 111.872 225.717 105.964 226.282 99.0709C226.423 97.4297 226.988 96.7732 228.26 96.2808C236.17 93.1625 243.092 88.0748 249.731 78.3916C251.85 75.2733 253.404 71.8268 254.11 68.2161C255.947 59.5177 250.579 52.1322 242.951 52.4605C228.825 53.2811 216.394 82.987 216.817 104.159C217.1 113.514 223.033 122.704 231.932 122.704ZM230.52 83.4794C230.237 83.6435 229.672 83.8076 229.955 82.987C232.921 76.0939 235.323 70.6779 238.854 66.5749C241.538 63.4566 244.787 62.4719 244.787 65.2619C244.787 70.5138 237.018 79.7046 230.52 83.4794Z" fill="#A11275"/>
<path d="M280.602 137.475C283.286 137.475 285.829 134.521 284.84 130.418C283.993 126.972 284.558 123.689 285.264 120.571C288.372 106.785 290.915 105.636 294.446 93.4908C295.011 91.5213 296 89.0595 296 86.4336C296 80.8534 292.186 76.5863 287.383 77.571C286.959 77.571 283.428 78.5558 283.428 78.5558C283.428 78.3916 287.524 71.1703 288.513 65.2619C289.502 59.5177 290.491 53.2811 285.97 49.6704C283.993 48.1933 281.733 47.8651 279.19 48.6857C272.551 50.8193 265.205 62.4719 262.804 72.4833C261.108 79.2122 260.967 85.613 264.781 90.0442C270.29 96.445 275.235 93.819 284.558 89.8801C285.123 89.5519 285.405 90.2084 285.264 90.8648C285.405 90.0442 278.201 109.739 277.353 112.693C275.376 119.75 273.398 128.777 276.082 134.029C277.212 136.162 278.766 137.475 280.602 137.475ZM271.703 77.2428C272.833 71.0062 274.246 67.2314 278.907 61.8154C279.472 61.1589 279.472 61.323 279.331 62.1436C277.919 69.0367 275.376 74.1245 271.703 77.2428Z" fill="#A11275"/>
</svg>
