<svg width="888" height="411" viewBox="0 0 888 411" fill="none" xmlns="http://www.w3.org/2000/svg">
<g clip-path="url(#clip0_1105_2105)">
<path d="M79.0737 404.193C73.1283 404.193 68.3721 401.733 64.8048 396.813C61.6338 391.539 60.0486 385.212 60.0486 377.832C60.0486 366.231 60.8412 351.996 62.4267 335.124L63.6156 321.414L64.8048 293.469C64.8048 281.167 63.4176 253.749 60.6429 211.217C57.8685 168.685 56.4813 141.267 56.4813 128.965C56.4813 127.91 56.4813 125.977 56.4813 123.165C56.8776 120.001 57.0759 115.256 57.0759 108.929C57.4722 101.899 57.6702 93.2869 57.6702 83.0932C57.6702 57.4333 55.6884 41.0884 51.7248 34.0582C49.3467 34.0582 44.1942 34.5856 36.267 35.6401L19.6198 36.6946C14.4671 36.6946 9.909 35.4643 5.9454 33.0037C1.9818 30.1915 0 26.6766 0 22.4585C0 18.2404 4.75632 14.5496 14.2689 11.3861C28.1415 7.16799 51.7248 4.1802 85.0191 2.42267C98.4954 1.71966 106.621 1.36816 109.395 1.36816C114.152 1.36816 118.511 2.77419 122.475 5.58624C126.439 8.39826 128.42 11.9133 128.42 16.1314C128.42 20.3495 126.637 23.8645 123.07 26.6766C119.899 29.1371 115.737 30.3673 110.584 30.3673L99.8826 29.8401C96.7116 29.4886 93.1446 29.3129 89.181 29.3129H83.2356C86.01 53.2153 87.3972 74.833 87.3972 94.1656L86.8026 127.91C86.4063 138.104 86.2083 149.528 86.2083 162.182C86.2083 179.054 87.0009 199.266 88.5864 222.817C90.5682 251.992 91.5591 272.203 91.5591 283.452C91.5591 296.809 92.3517 312.627 93.9372 330.906C95.5227 349.536 96.3153 365.352 96.3153 378.357C96.3153 395.583 90.5682 404.193 79.0737 404.193Z" fill="#A11275"/>
<path d="M260.241 410.521C249.935 410.521 240.423 407.533 231.703 401.557C222.983 395.935 215.848 388.201 210.299 378.358C198.805 356.917 191.67 333.541 188.896 308.233C185.328 284.331 183.545 261.308 183.545 239.163C183.545 234.945 183.743 231.43 184.14 228.618V219.127C184.14 217.37 183.941 216.491 183.545 216.491V207L184.14 170.092C184.536 158.844 186.121 140.917 188.896 116.312C190.878 99.4396 195.436 83.0944 202.57 67.2766C205.345 60.2467 208.912 54.9739 213.272 51.4588C217.632 47.5924 222.586 45.6592 228.135 45.6592C243.99 45.6592 258.259 48.2953 270.942 53.5681C283.626 58.489 294.327 65.5192 303.048 74.6584C310.974 83.446 317.712 94.3426 323.262 107.348C328.812 120.002 332.775 133.535 335.154 147.947C337.53 162.71 338.721 178.352 338.721 194.873V199.091C338.721 209.988 338.919 219.83 339.315 228.618L339.909 258.671C339.909 359.905 313.353 410.521 260.241 410.521ZM257.862 388.378C264.997 388.378 271.537 385.915 277.482 380.995C283.428 375.724 287.986 368.692 291.156 359.905C298.687 341.977 303.246 322.645 304.83 301.906C306.813 283.98 307.803 268.514 307.803 255.508C307.803 239.69 306.417 218.951 303.642 193.292C301.263 166.226 300.075 146.014 300.075 132.657V123.166C299.282 109.809 294.129 98.2093 284.617 88.3672C275.5 78.5248 264.204 73.6039 250.728 73.6039C237.252 73.6039 228.333 80.4583 223.974 94.1668C220.01 105.064 218.028 119.124 218.028 136.348C218.028 143.026 218.226 148.65 218.623 153.22V167.456L217.434 191.71C216.641 199.091 216.245 207.176 216.245 215.963C216.245 234.945 216.839 253.751 218.028 272.38C219.614 298.743 223.577 324.403 229.919 349.36C236.261 375.37 245.575 388.378 257.862 388.378Z" fill="#A11275"/>
<path d="M543.223 401.556C535.297 401.556 528.361 399.975 522.415 396.813C516.865 393.648 514.093 389.256 514.093 383.631C522.811 375.897 527.17 355.335 527.17 321.942C527.17 301.905 525.388 272.731 521.821 234.416C517.858 197.86 515.875 169.036 515.875 147.946L517.063 118.947C517.462 110.511 517.66 100.844 517.66 89.9475C517.66 80.1054 515.677 67.6269 511.714 52.5123C506.956 36.6945 504.58 25.622 504.58 19.2949C504.58 6.99216 519.838 0.84082 550.357 0.84082H559.276C580.681 0.84082 599.308 6.64065 615.163 18.2404C627.847 28.0825 638.548 42.3186 647.269 60.9483C653.215 73.6026 658.366 91.1778 662.725 113.674C665.104 133.358 666.295 148.825 666.295 160.073V201.726C665.5 203.132 665.104 204.538 665.104 205.944C665.104 208.757 665.302 210.866 665.698 212.272C666.094 213.677 666.295 215.435 666.295 217.544C666.295 228.792 664.312 242.325 660.349 258.143C656.782 273.609 651.43 289.427 644.296 305.595C626.461 344.262 606.442 371.679 584.248 387.849C571.168 396.987 557.494 401.556 543.223 401.556ZM555.709 370.977C570.376 362.892 583.255 351.291 594.355 336.177C605.452 320.712 613.975 303.663 619.921 285.033C630.622 250.586 635.971 215.787 635.971 180.636C635.971 161.655 633.991 140.916 630.028 118.42C625.666 96.6261 616.351 76.9419 602.083 59.3664C595.345 50.9304 586.825 44.4276 576.517 39.858C566.212 34.9368 554.521 32.4762 541.441 32.4762V33.0036C541.441 64.6392 543.82 112.444 548.575 176.418C553.33 240.04 555.709 288.197 555.709 320.886V370.977Z" fill="#A11275"/>
<path d="M808.332 410.521C798.027 410.521 788.514 407.533 779.793 401.557C771.075 395.935 763.938 388.201 758.391 378.358C746.895 356.917 739.761 333.541 736.986 308.233C733.419 284.331 731.637 261.308 731.637 239.163C731.637 234.945 731.835 231.43 732.231 228.618V219.127C732.231 217.37 732.033 216.491 731.637 216.491V207L732.231 170.092C732.627 158.844 734.211 140.917 736.986 116.312C738.969 99.4396 743.526 83.0944 750.66 67.2766C753.435 60.2467 757.002 54.9739 761.364 51.4588C765.723 47.5924 770.679 45.6592 776.226 45.6592C792.081 45.6592 806.349 48.2953 819.033 53.5681C831.717 58.489 842.418 65.5192 851.139 74.6584C859.065 83.446 865.803 94.3426 871.353 107.348C876.903 120.002 880.866 133.535 883.245 147.947C885.621 162.71 886.812 178.352 886.812 194.873V199.091C886.812 209.988 887.01 219.83 887.406 228.618L888 258.671C888 359.905 861.444 410.521 808.332 410.521ZM805.953 388.378C813.087 388.378 819.627 385.915 825.573 380.995C831.519 375.724 836.076 368.692 839.247 359.905C846.78 341.977 851.337 322.645 852.921 301.906C854.904 283.98 855.894 268.514 855.894 255.508C855.894 239.69 854.508 218.951 851.733 193.292C849.354 166.226 848.166 146.014 848.166 132.657V123.166C847.374 109.809 842.22 98.2093 832.707 88.3672C823.593 78.5248 812.295 73.6039 798.819 73.6039C785.343 73.6039 776.424 80.4583 772.065 94.1668C768.102 105.064 766.119 119.124 766.119 136.348C766.119 143.026 766.317 148.65 766.713 153.22V167.456L765.525 191.71C764.733 199.091 764.337 207.176 764.337 215.963C764.337 234.945 764.931 253.751 766.119 272.38C767.706 298.743 771.669 324.403 778.011 349.36C784.353 375.37 793.665 388.378 805.953 388.378Z" fill="#A11275"/>
</g>
<defs>
<clipPath id="clip0_1105_2105">
<rect width="888" height="411" fill="white"/>
</clipPath>
</defs>
</svg>
