<svg width="296" height="137" viewBox="0 0 296 137" fill="none" xmlns="http://www.w3.org/2000/svg">
<path d="M26.3579 134.731C24.3761 134.731 22.7907 133.911 21.6016 132.271C20.5446 130.513 20.0162 128.404 20.0162 125.944C20.0162 122.077 20.2804 117.332 20.8089 111.708L21.2052 107.138L21.6016 97.8231C21.6016 93.7222 21.1392 84.5831 20.2143 70.4057C19.2895 56.2283 18.8271 47.0891 18.8271 42.9882C18.8271 42.6367 18.8271 41.9923 18.8271 41.0549C18.9592 40.0004 19.0253 38.4186 19.0253 36.3096C19.1574 33.9662 19.2234 31.0956 19.2234 27.6977C19.2234 19.1444 18.5628 13.6961 17.2416 11.3527C16.4489 11.3527 14.7314 11.5285 12.089 11.88L6.53993 12.2315C4.82237 12.2315 3.303 11.8214 1.9818 11.0012C0.660599 10.0638 0 8.89216 0 7.48614C0 6.08012 1.58544 4.84985 4.75631 3.79533C9.38051 2.3893 17.2416 1.39337 28.3397 0.807525C32.8318 0.573191 35.5402 0.456024 36.4651 0.456024C38.0505 0.456024 39.5038 0.924699 40.825 1.86205C42.1462 2.79939 42.8068 3.97108 42.8068 5.3771C42.8068 6.78313 42.2123 7.95481 41.0232 8.89216C39.9662 9.71234 38.579 10.1224 36.8614 10.1224L33.2942 9.94668C32.2372 9.82951 31.0482 9.77092 29.727 9.77092H27.7452C28.67 17.7384 29.1324 24.9443 29.1324 31.3885L28.9342 42.6367C28.8021 46.0346 28.7361 49.8426 28.7361 54.0606C28.7361 59.6847 29.0003 66.4219 29.5288 74.2722C30.1894 83.9972 30.5197 90.7344 30.5197 94.4838C30.5197 98.9362 30.7839 104.209 31.3124 110.302C31.8409 116.512 32.1051 121.784 32.1051 126.119C32.1051 131.861 30.1894 134.731 26.3579 134.731Z" fill="#A11275"/>
<path d="M86.747 136.84C83.3119 136.84 80.141 135.844 77.2344 133.852C74.3277 131.978 71.9496 129.4 70.0999 126.119C66.2684 118.972 63.8903 111.18 62.9654 102.744C61.7763 94.7767 61.1818 87.1022 61.1818 79.7206C61.1818 78.3146 61.2479 77.1429 61.38 76.2055V73.042C61.38 72.4561 61.3139 72.1632 61.1818 72.1632V68.9996L61.38 56.697C61.5121 52.9476 62.0406 46.972 62.9654 38.7701C63.626 33.1461 65.1454 27.6977 67.5236 22.4251C68.4484 20.0818 69.6375 18.3242 71.0908 17.1525C72.5441 15.8637 74.1956 15.2193 76.0453 15.2193C81.3301 15.2193 86.0864 16.098 90.3142 17.8556C94.5421 19.4959 98.1093 21.8393 101.016 24.8857C103.658 27.8149 105.904 31.4471 107.754 35.7823C109.604 40.0004 110.925 44.5114 111.718 49.3153C112.51 54.2364 112.907 59.4504 112.907 64.9573V66.3633C112.907 69.9956 112.973 73.2763 113.105 76.2055L113.303 86.2234C113.303 119.968 104.451 136.84 86.747 136.84ZM85.9543 129.459C88.3324 129.459 90.5124 128.638 92.4942 126.998C94.476 125.241 95.9954 122.897 97.0523 119.968C99.5626 113.992 101.082 107.548 101.61 100.635C102.271 94.6596 102.601 89.5042 102.601 85.1689C102.601 79.8963 102.139 72.9834 101.214 64.4301C100.421 55.4081 100.025 48.6709 100.025 44.2185V41.0549C99.7608 36.6025 98.0432 32.736 94.8724 29.4553C91.8336 26.1745 88.0682 24.5342 83.5761 24.5342C79.084 24.5342 76.1113 26.819 74.658 31.3885C73.3368 35.0208 72.6762 39.7075 72.6762 45.4488C72.6762 47.675 72.7423 49.5497 72.8744 51.0729V55.8182L72.478 63.9028C72.2138 66.3633 72.0817 69.0582 72.0817 71.9874C72.0817 78.3146 72.2799 84.5831 72.6762 90.793C73.2047 99.5807 74.5259 108.134 76.6398 116.453C78.7537 125.123 81.8585 129.459 85.9543 129.459Z" fill="#A11275"/>
<path d="M181.074 133.852C178.432 133.852 176.12 133.325 174.138 132.271C172.288 131.216 171.364 129.752 171.364 127.877C174.27 125.299 175.723 118.445 175.723 107.314C175.723 100.635 175.129 90.9102 173.94 78.1388C172.619 65.9533 171.958 56.3454 171.958 49.3153L172.354 39.6489C172.487 36.8369 172.553 33.6147 172.553 29.9825C172.553 26.7018 171.892 22.5423 170.571 17.5041C168.985 12.2315 168.193 8.54065 168.193 6.43162C168.193 2.33072 173.279 0.280273 183.452 0.280273H186.425C193.56 0.280273 199.769 2.21355 205.054 6.08012C209.282 9.36084 212.849 14.1062 215.756 20.3161C217.738 24.5342 219.455 30.3926 220.908 37.8914C221.701 44.4528 222.098 49.6082 222.098 53.3576V67.2421C221.833 67.7108 221.701 68.1795 221.701 68.6481C221.701 69.5855 221.767 70.2885 221.899 70.7572C222.031 71.2258 222.098 71.8117 222.098 72.5147C222.098 76.2641 221.437 80.7751 220.116 86.0477C218.927 91.2031 217.143 96.4757 214.765 101.865C208.82 114.754 202.147 123.893 194.749 129.283C190.389 132.329 185.831 133.852 181.074 133.852ZM185.236 123.659C190.125 120.964 194.418 117.097 198.118 112.059C201.817 106.904 204.658 101.221 206.64 95.0111C210.207 83.5286 211.99 71.9289 211.99 60.212C211.99 53.8849 211.33 46.972 210.009 39.4732C208.555 32.2087 205.45 25.6473 200.694 19.7888C198.448 16.9768 195.608 14.8092 192.172 13.286C188.737 11.6456 184.84 10.8254 180.48 10.8254V11.0012C180.48 21.5464 181.273 37.4813 182.858 58.806C184.443 80.0135 185.236 96.0656 185.236 106.962V123.659Z" fill="#A11275"/>
<path d="M269.444 136.84C266.009 136.84 262.838 135.844 259.931 133.852C257.025 131.978 254.646 129.4 252.797 126.119C248.965 118.972 246.587 111.18 245.662 102.744C244.473 94.7767 243.879 87.1022 243.879 79.7206C243.879 78.3146 243.945 77.1429 244.077 76.2055V73.042C244.077 72.4561 244.011 72.1632 243.879 72.1632V68.9996L244.077 56.697C244.209 52.9476 244.737 46.972 245.662 38.7701C246.323 33.1461 247.842 27.6977 250.22 22.4251C251.145 20.0818 252.334 18.3242 253.788 17.1525C255.241 15.8637 256.893 15.2193 258.742 15.2193C264.027 15.2193 268.783 16.098 273.011 17.8556C277.239 19.4959 280.806 21.8393 283.713 24.8857C286.355 27.8149 288.601 31.4471 290.451 35.7823C292.301 40.0004 293.622 44.5114 294.415 49.3153C295.207 54.2364 295.604 59.4504 295.604 64.9573V66.3633C295.604 69.9956 295.67 73.2763 295.802 76.2055L296 86.2234C296 119.968 287.148 136.84 269.444 136.84ZM268.651 129.459C271.029 129.459 273.209 128.638 275.191 126.998C277.173 125.241 278.692 122.897 279.749 119.968C282.26 113.992 283.779 107.548 284.307 100.635C284.968 94.6596 285.298 89.5042 285.298 85.1689C285.298 79.8963 284.836 72.9834 283.911 64.4301C283.118 55.4081 282.722 48.6709 282.722 44.2185V41.0549C282.458 36.6025 280.74 32.736 277.569 29.4553C274.531 26.1745 270.765 24.5342 266.273 24.5342C261.781 24.5342 258.808 26.819 257.355 31.3885C256.034 35.0208 255.373 39.7075 255.373 45.4488C255.373 47.675 255.439 49.5497 255.571 51.0729V55.8182L255.175 63.9028C254.911 66.3633 254.779 69.0582 254.779 71.9874C254.779 78.3146 254.977 84.5831 255.373 90.793C255.902 99.5807 257.223 108.134 259.337 116.453C261.451 125.123 264.555 129.459 268.651 129.459Z" fill="#A11275"/>
</svg>
