<svg width="296" height="137" viewBox="0 0 296 137" fill="none" xmlns="http://www.w3.org/2000/svg">
<path d="M8.57939 127.625C2.8598 127.625 0 125.939 0 122.567C0 119.869 0.997604 118.521 2.99281 118.521H4.18994C4.45596 118.633 4.75525 118.689 5.08778 118.689C5.61984 118.689 5.98562 118.408 6.18515 117.846C6.45117 117.284 6.58419 116.273 6.58419 114.812C6.58419 105.258 6.25165 92.2201 5.58658 75.6981C4.98802 58.5016 4.68874 45.52 4.68874 36.7532C4.68874 33.6061 4.72199 30.74 4.7885 28.155L4.88826 19.5567C4.88826 15.8477 4.7885 12.7568 4.58898 10.2841C3.8574 10.7337 3.09257 10.9585 2.29449 10.9585C0.76483 10.9585 0 9.60978 0 6.9123C0 5.56355 0.465549 4.3834 1.39665 3.37185C2.39425 2.36029 3.65788 1.62972 5.18754 1.18014C7.98083 0.393381 10.3418 0 12.2705 0C13.0686 0 13.7337 0.449578 14.2657 1.34873C14.8643 2.2479 15.1636 3.31565 15.1636 4.552C15.1636 5.78834 14.9308 6.8561 14.4653 7.75526C14.0662 8.65442 13.5342 9.10399 12.8691 9.10399C12.4701 9.10399 12.1375 9.0478 11.8715 8.9354H11.0734C10.4083 8.9354 9.90953 9.21639 9.577 9.77836C9.31097 10.2279 9.17796 11.1271 9.17796 12.4759C9.17796 24.3897 9.61025 40.7994 10.4748 61.7049C11.2729 83.6219 11.672 100.088 11.672 111.103V117.509C12.1375 117.397 12.8026 117.34 13.6672 117.34C16.4605 117.34 17.8571 119.307 17.8571 123.241V124.253L15.3631 127.119C15.2966 127.119 15.0971 127.175 14.7645 127.287C14.432 127.287 13.7669 127.287 12.7693 127.287C10.5081 127.512 9.11145 127.625 8.57939 127.625Z" fill="#B83A48"/>
<path d="M68.2197 136.56C66.158 136.56 65.1272 133.076 65.1272 126.107V104.527C65.1272 98.9077 64.8944 91.5458 64.4288 82.4418C63.8968 72.2138 63.6308 65.1891 63.6308 61.3677L63.8303 50.915C63.9633 47.8803 64.0298 44.4522 64.0298 40.6308C63.7638 42.092 62.6664 49.8472 60.7377 63.8966C58.809 77.4964 56.8138 90.0846 54.7521 101.661C52.7569 112.788 51.1275 118.352 49.8638 118.352C48.6002 118.352 47.5693 117.734 46.7713 116.497C46.0397 115.149 45.6739 113.35 45.6739 111.103C45.6739 106.157 44.4768 95.6482 42.0825 79.5757C39.7548 63.5032 37.6266 50.353 35.6979 40.125L35.0993 59.176C34.5672 75.2485 34.2015 88.6235 34.0019 99.301C33.8689 109.641 33.8024 116.722 33.8024 120.544C33.8024 121.443 33.8357 122.286 33.9022 123.073V125.433C33.9022 127.344 33.6694 128.749 33.2038 129.648C32.7383 130.659 31.8737 131.165 30.6101 131.165C29.945 131.165 29.3132 130.715 28.7146 129.816C28.1161 129.03 27.8168 128.13 27.8168 127.119C27.8168 115.655 28.3156 98.4581 29.3132 75.5295C30.3108 52.6009 30.8096 35.4044 30.8096 23.9401C30.4106 22.9286 30.211 21.8608 30.211 20.7369C30.211 19.3881 30.5768 18.3766 31.3084 17.7022C32.1065 16.9155 33.0376 16.5221 34.1017 16.5221C34.9663 16.5221 36.5624 21.8046 38.8902 32.3698C41.2179 42.9349 43.5457 54.905 45.8734 68.28C48.2012 81.655 49.6976 91.321 50.3626 97.2779C50.8947 94.2433 51.327 91.4334 51.6595 88.8483L52.2581 84.8021C54.3863 69.0668 56.5145 54.8488 58.6427 42.1481C59.9064 34.3929 61.1368 28.3236 62.3339 23.9401C63.531 19.2195 64.6284 16.8593 65.626 16.8593C66.5571 16.8593 67.3884 17.3088 68.12 18.208C68.9181 18.9948 69.3171 20.0625 69.3171 21.4113C69.3171 29.5037 69.5166 41.6424 69.9157 57.8273C70.3812 72.8882 70.614 84.5773 70.614 92.8945L70.5142 101.83L70.3147 110.765C70.3147 112.114 70.4145 114.137 70.614 116.835L70.9133 122.735C70.9798 123.747 71.013 124.534 71.013 125.096C71.0795 125.658 71.1128 125.995 71.1128 126.107C71.4453 127.568 71.6116 128.636 71.6116 129.311C71.6116 131.221 71.2791 132.907 70.614 134.368C69.9489 135.829 69.1508 136.56 68.2197 136.56Z" fill="#B83A48"/>
<path d="M86.1314 128.973C85.2668 123.016 84.8345 114.755 84.8345 104.19L85.034 89.1855C85.1671 84.6897 85.2336 79.6881 85.2336 74.1807C84.8345 72.6072 84.635 71.2023 84.635 69.9659V69.4601C85.3001 67.3246 85.6326 62.4917 85.6326 54.9612L85.7324 47.2059C85.7989 44.7332 85.8321 41.9796 85.8321 38.9449C85.8321 32.3136 85.5661 27.0872 85.034 23.2658C85.2336 21.6922 85.5661 20.3435 86.0316 19.2195C86.4972 17.9832 87.0625 17.365 87.7276 17.365H92.117C93.9792 17.365 95.6086 18.0956 97.0053 19.5567C98.4019 20.9055 99.466 22.8724 100.198 25.4575C101.528 30.0657 102.193 35.5168 102.193 41.811C102.193 46.3068 102.16 49.8472 102.093 52.4323C101.96 55.6918 101.628 58.6702 101.095 61.3677C100.896 62.8288 100.597 64.0652 100.198 65.0767C99.8651 65.9759 99.3663 67.0998 98.7012 68.4486C97.7701 70.3593 96.2405 72.1576 94.1122 73.8436C93.2477 74.6303 92.117 75.3609 90.7204 76.0353V94.0747L90.9199 104.865L91.1194 110.091C91.3855 116.385 91.5185 121.724 91.5185 126.107C91.5185 127.456 91.1859 128.58 90.5209 129.479C89.8558 130.491 89.091 130.996 88.2264 130.996L86.1314 128.973ZM90.8202 69.123C94.7441 68.1114 96.706 58.614 96.706 40.6308C96.706 37.3714 96.6063 34.8425 96.4067 33.0441C96.2072 31.6954 95.9412 30.6277 95.6087 29.8409C95.2761 28.9417 94.7773 28.2112 94.1122 27.6492C93.3807 26.9748 92.5826 26.6376 91.718 26.6376C91.718 26.5252 91.3522 26.469 90.6206 26.469V36.0788C90.6206 42.7101 90.6539 48.6109 90.7204 53.781C90.7204 59.6256 90.7536 63.447 90.8202 65.2453V69.123Z" fill="#B83A48"/>
<path d="M123.666 130.996C121.937 130.996 120.341 130.041 118.878 128.13C117.415 126.332 116.217 123.859 115.286 120.712C113.358 113.856 112.161 106.382 111.695 98.2895C111.096 90.6466 110.797 83.2847 110.797 76.2038C110.797 74.8551 110.83 73.7312 110.897 72.832V69.7973C110.897 69.2354 110.864 68.9544 110.797 68.9544V65.9197L110.897 54.1182C110.963 50.5216 111.229 44.7894 111.695 36.9218C112.028 31.5268 112.792 26.3004 113.99 21.2427C114.455 18.9948 115.054 17.3088 115.785 16.1849C116.517 14.9485 117.348 14.3304 118.279 14.3304C120.939 14.3304 123.334 15.1733 125.462 16.8593C127.59 18.4328 129.386 20.6807 130.849 23.603C132.179 26.4128 133.31 29.8971 134.241 34.0557C135.172 38.1019 135.837 42.4291 136.236 47.0373C136.635 51.7579 136.835 56.7595 136.835 62.0421V63.3908C136.835 66.8751 136.868 70.0221 136.934 72.832L137.034 82.4418C137.034 114.812 132.578 130.996 123.666 130.996ZM123.267 123.916C124.464 123.916 125.562 123.129 126.559 121.555C127.557 119.869 128.322 117.621 128.854 114.812C130.117 109.079 130.882 102.898 131.148 96.2664C131.481 90.5342 131.647 85.5888 131.647 81.4302C131.647 76.3724 131.414 69.7411 130.949 61.5363C130.55 52.8819 130.35 46.4192 130.35 42.1481V39.1135C130.217 34.8425 129.353 31.1334 127.756 27.9864C126.227 24.8393 124.331 23.2658 122.07 23.2658C119.809 23.2658 118.312 25.4575 117.581 29.8409C116.916 33.3251 116.583 37.8209 116.583 43.3283C116.583 45.4638 116.617 47.2621 116.683 48.7233V53.2753L116.484 61.0305C116.35 63.3908 116.284 65.9759 116.284 68.7858C116.284 74.8551 116.384 80.8682 116.583 86.8252C116.849 95.2548 117.514 103.46 118.578 111.44C119.643 119.757 121.206 123.916 123.267 123.916Z" fill="#B83A48"/>
<path d="M165.401 130.659C163.938 130.659 162.608 127.962 161.411 122.567C160.014 116.722 158.983 110.709 158.318 104.527L157.62 98.7953C155.691 82.7228 154.461 73.5626 153.929 71.3147H152.732C152.732 74.5741 152.698 77.5526 152.632 80.2501V89.5227C152.632 104.584 153.264 116.329 154.527 124.759L153.43 129.311H150.637L149.34 126.782L149.44 115.486C149.44 105.37 149.14 90.0284 148.542 69.4601C148.01 47.5431 147.744 32.2012 147.744 23.4344C147.744 18.0394 148.841 15.3419 151.036 15.3419C154.627 15.3419 157.553 16.9154 159.815 20.0625C162.142 23.2096 163.306 27.593 163.306 33.2127V45.0142C163.306 46.7001 163.14 48.6671 162.807 50.915C162.475 53.0505 162.109 54.7926 161.71 56.1413L159.815 62.2107L158.218 67.2684L158.717 71.3147L160.114 83.2847C161.045 91.9392 161.943 98.9638 162.807 104.359C163.672 109.754 164.736 114.643 166 119.026L166.598 121.049C167.263 123.297 167.596 125.096 167.596 126.444C167.596 127.568 167.396 128.524 166.997 129.311C166.598 130.21 166.066 130.659 165.401 130.659ZM153.131 63.0536C154.594 61.8173 155.824 58.4454 156.822 52.9381C157.886 47.3183 158.418 42.1481 158.418 37.4276C158.418 33.8309 158.152 30.4591 157.62 27.312C157.287 25.5137 156.722 24.1649 155.924 23.2658C155.192 22.2542 154.261 21.7484 153.131 21.7484L152.931 22.5914L152.732 24.1087L152.931 44.0027C153.064 49.8472 153.131 56.1975 153.131 63.0536Z" fill="#B83A48"/>
<path d="M182.951 125.096L182.851 118.521C182.785 116.61 182.752 114.474 182.752 112.114L182.851 106.382C182.652 105.146 182.153 92.8383 181.355 69.4601C180.557 46.082 180.091 31.0772 179.958 24.4459C176.101 24.2211 173.64 23.5468 172.576 22.4228C171.845 21.5237 171.479 20.5121 171.479 19.3881C171.479 18.489 171.811 17.7022 172.476 17.0279C173.208 16.2411 173.94 15.8477 174.671 15.8477C176.533 15.8477 178.795 16.0725 181.455 16.5221C183.982 17.084 186.243 17.365 188.239 17.365H189.835C191.896 17.365 192.927 18.7138 192.927 21.4113C192.927 22.76 192.595 23.884 191.93 24.7831C191.265 25.5699 190.5 25.9633 189.635 25.9633C189.037 25.9633 188.172 25.7947 187.041 25.4575L185.046 24.7831L184.847 26.469C184.847 36.4722 185.412 52.4323 186.543 74.3493C187.607 94.9176 188.139 110.878 188.139 122.23C188.139 123.578 187.773 124.759 187.041 125.77C186.376 126.782 185.611 127.287 184.747 127.287L182.951 125.096Z" fill="#B83A48"/>
<path d="M222.542 129.311C221.012 129.311 219.882 128.917 219.15 128.13C218.419 127.344 218.053 125.882 218.053 123.747C218.053 120.375 217.72 114.643 217.055 106.551L216.656 103.01L206.78 100.481C206.381 103.066 205.816 108.293 205.084 116.16C204.685 121.668 204.053 125.32 203.189 127.119C202.723 128.13 202.058 128.636 201.193 128.636C200.395 128.636 199.664 128.243 198.999 127.456C198.334 126.557 198.001 125.489 198.001 124.253L198.201 123.41L198.3 122.735C202.69 93.8499 206.015 65.3577 208.276 37.259C208.276 36.8094 208.31 36.0788 208.376 35.0673C208.443 33.9433 208.509 32.3698 208.576 30.3467C208.775 26.188 208.975 22.8724 209.174 20.3997C209.44 17.927 209.839 16.0725 210.371 14.8361H213.763C214.694 14.8361 215.492 15.2295 216.157 16.0163C216.822 16.6907 217.155 17.7022 217.155 19.051C217.155 27.593 217.853 40.2936 219.25 57.1529C220.58 74.4617 221.245 86.6004 221.245 93.5689C221.245 94.2433 221.411 95.9854 221.744 98.7953C222.077 101.38 222.243 103.066 222.243 103.853C222.243 104.64 222.575 108.012 223.24 113.969C223.839 119.364 224.138 122.848 224.138 124.421V124.59C224.138 127.063 223.606 128.636 222.542 129.311ZM215.958 96.9407C215.758 95.2548 215.659 93.1755 215.659 90.7028C215.659 80.5873 215.127 67.6618 214.062 51.9265L213.065 34.3929C210.205 60.8057 208.243 80.7558 207.179 94.2433C208.177 95.3672 211.103 96.2664 215.958 96.9407Z" fill="#B83A48"/>
<path d="M259.935 128.299C259.137 128.299 258.538 127.962 258.139 127.287C257.74 126.501 257.441 125.208 257.242 123.41L256.643 120.207V119.364C256.643 115.655 254.348 103.01 249.76 81.4302C245.237 59.8504 241.679 43.8903 239.085 33.5499V118.352L239.484 119.532C239.551 119.757 239.684 120.15 239.883 120.712C240.083 121.274 240.182 121.836 240.182 122.398C240.182 123.859 239.883 125.096 239.285 126.107C238.686 127.119 237.955 127.625 237.09 127.625C234.962 127.625 233.898 124.197 233.898 117.34L233.798 88.5111C233.731 79.8567 233.698 70.1907 233.698 59.5132C233.698 55.9165 233.798 50.6902 233.997 43.8341C234.197 36.7532 234.297 31.5268 234.297 28.155C234.297 22.8724 235.494 18.7138 237.888 15.6791V16.6907C238.287 16.4659 238.553 16.3535 238.686 16.3535C240.216 16.3535 242.144 20.8493 244.472 29.8409C246.334 37.0342 247.997 44.6208 249.46 52.6009C250.99 60.5809 252.985 71.9328 255.446 86.6566L256.443 92.7259C257.973 101.83 259.137 108.349 259.935 112.283C261.265 88.1177 261.93 59.5694 261.93 26.6376V24.4459C261.864 23.7716 261.831 23.041 261.831 22.2542C261.831 18.8824 262.629 17.1964 264.225 17.1964C265.156 17.1964 265.854 17.8146 266.32 19.051C266.852 20.2873 267.118 21.8608 267.118 23.7716V36.416C266.985 53.7248 266.586 72.4948 265.921 92.7259C265.256 112.957 264.458 124.365 263.526 126.95C261.598 127.849 260.401 128.299 259.935 128.299Z" fill="#B83A48"/>
<path d="M286.024 125.096L285.924 118.521C285.858 116.61 285.824 114.474 285.824 112.114L285.924 106.382C285.725 105.146 285.226 92.8383 284.428 69.4601C283.63 46.082 283.164 31.0772 283.031 24.4459C279.174 24.2211 276.713 23.5468 275.649 22.4228C274.917 21.5237 274.552 20.5121 274.552 19.3881C274.552 18.489 274.884 17.7022 275.549 17.0279C276.281 16.2411 277.012 15.8477 277.744 15.8477C279.606 15.8477 281.867 16.0725 284.528 16.5221C287.055 17.084 289.316 17.365 291.311 17.365H292.907C294.969 17.365 296 18.7138 296 21.4113C296 22.76 295.667 23.884 295.002 24.7831C294.337 25.5699 293.573 25.9633 292.708 25.9633C292.109 25.9633 291.245 25.7947 290.114 25.4575L288.119 24.7831L287.919 26.469C287.919 36.4722 288.485 52.4323 289.615 74.3493C290.679 94.9176 291.212 110.878 291.212 122.23C291.212 123.578 290.846 124.759 290.114 125.77C289.449 126.782 288.684 127.287 287.82 127.287L286.024 125.096Z" fill="#B83A48"/>
</svg>
