<svg width="888" height="411" viewBox="0 0 888 411" fill="none" xmlns="http://www.w3.org/2000/svg">
<g clip-path="url(#clip0_1105_2009)">
<path d="M25.7382 382.875C8.5794 382.875 0 377.817 0 367.701C0 359.607 2.99281 355.563 8.97843 355.563H12.5698C13.3679 355.899 14.2657 356.067 15.2633 356.067C16.8595 356.067 17.9569 355.224 18.5555 353.538C19.3535 351.852 19.7526 348.819 19.7526 344.436C19.7526 315.774 18.7549 276.66 16.7597 227.094C14.9641 175.505 14.0662 136.56 14.0662 110.26C14.0662 100.818 14.166 92.22 14.3655 84.465L14.6648 58.6701C14.6648 47.5431 14.3655 38.2704 13.7669 30.8523C11.5722 32.2011 9.27771 32.8755 6.88347 32.8755C2.29449 32.8755 0 28.8293 0 20.7369C0 16.6907 1.39665 13.1502 4.18995 10.1156C7.18275 7.08087 10.9736 4.88916 15.5626 3.54042C23.9425 1.18014 31.0254 0 36.8115 0C39.2058 0 41.2011 1.34873 42.7971 4.04619C44.5929 6.7437 45.4908 9.94695 45.4908 13.656C45.4908 17.365 44.7924 20.5683 43.3959 23.2658C42.1986 25.9633 40.6026 27.312 38.6073 27.312C37.4103 27.312 36.4125 27.1434 35.6145 26.8062H33.2202C31.2249 26.8062 29.7286 27.6492 28.731 29.3351C27.9329 30.6837 27.5339 33.3813 27.5339 37.4277C27.5339 73.1691 28.8307 122.398 31.4244 185.115C33.8187 250.866 35.016 300.264 35.016 333.309V352.527C36.4125 352.191 38.4078 352.02 41.0016 352.02C49.3815 352.02 53.5713 357.921 53.5713 369.723V372.759L46.0893 381.357C45.8898 381.357 45.2913 381.525 44.2935 381.861C43.296 381.861 41.3007 381.861 38.3079 381.861C31.5243 382.536 27.3343 382.875 25.7382 382.875Z" fill="#B83A48"/>
<path d="M204.658 409.681C198.473 409.681 195.38 399.229 195.38 378.322V313.582C195.38 296.724 194.682 274.638 193.285 247.326C191.689 216.642 190.891 195.568 190.891 184.104L191.49 152.746C191.889 143.642 192.088 133.358 192.088 121.893C191.29 126.277 187.998 149.543 182.212 191.691C176.426 232.49 170.44 270.255 164.255 304.984C158.27 338.365 153.381 355.057 149.59 355.057C145.799 355.057 142.707 353.203 140.313 349.492C138.118 345.448 137.021 340.051 137.021 333.31C137.021 318.472 133.429 286.946 126.246 238.728C119.263 190.511 112.879 151.06 107.093 120.376L105.297 177.529C103.7 225.747 102.603 265.872 102.005 297.904C101.606 328.924 101.406 350.167 101.406 361.633C101.406 364.33 101.506 366.859 101.705 369.22V376.3C101.705 382.033 101.007 386.248 99.6102 388.945C98.2137 391.978 95.6199 393.496 91.8291 393.496C89.8338 393.496 87.9384 392.146 86.1426 389.449C84.3471 387.091 83.4492 384.391 83.4492 381.358C83.4492 346.966 84.9456 295.375 87.9384 226.59C90.9312 157.804 92.4276 106.214 92.4276 71.8214C91.2306 68.7869 90.6318 65.5835 90.6318 62.2118C90.6318 58.1654 91.7292 55.1309 93.924 53.1077C96.3183 50.7476 99.1116 49.5674 102.304 49.5674C104.898 49.5674 109.686 65.4149 116.669 97.1105C123.653 128.806 130.636 164.716 137.619 204.841C144.602 244.966 149.092 273.964 151.087 291.835C152.683 282.731 153.98 274.301 154.977 266.546L156.773 254.407C163.158 207.201 169.542 164.547 175.927 126.445C179.718 103.18 183.409 84.9719 187.001 71.8214C190.592 57.6596 193.884 50.579 196.877 50.579C199.67 50.579 202.164 51.9275 204.359 54.6251C206.753 56.9855 207.95 60.1886 207.95 64.235C207.95 88.5122 208.549 124.928 209.746 173.483C211.142 218.666 211.841 253.733 211.841 278.685L211.541 305.491L210.943 332.296C210.943 336.343 211.242 342.412 211.841 350.506L212.739 368.206C212.938 371.242 213.038 373.603 213.038 375.289C213.237 376.975 213.337 377.986 213.337 378.322C214.335 382.705 214.834 385.909 214.834 387.934C214.834 393.664 213.836 398.722 211.841 403.105C209.846 407.488 207.451 409.681 204.658 409.681Z" fill="#B83A48"/>
<path d="M258.393 386.919C255.8 369.048 254.503 344.265 254.503 312.57L255.101 267.556C255.501 254.069 255.7 239.064 255.7 222.542C254.503 217.821 253.904 213.607 253.904 209.897V208.38C255.9 201.974 256.897 187.475 256.897 164.883L257.196 141.617C257.396 134.199 257.496 125.939 257.496 116.834C257.496 96.9405 256.698 81.2613 255.101 69.7971C255.7 65.0763 256.698 61.0302 258.094 57.6582C259.491 53.9493 261.187 52.0947 263.182 52.0947H276.35C281.937 52.0947 286.825 54.2865 291.015 58.6698C295.205 62.7162 298.397 68.6169 300.593 76.3722C304.583 90.1968 306.578 106.55 306.578 125.433C306.578 138.92 306.479 149.541 306.278 157.297C305.879 167.075 304.883 176.01 303.284 184.103C302.687 188.486 301.79 192.195 300.593 195.23C299.595 197.927 298.098 201.299 296.103 205.346C293.31 211.078 288.721 216.473 282.336 221.531C279.742 223.891 276.35 226.082 272.16 228.106V282.224L272.759 314.595L273.357 330.273C274.156 349.155 274.555 365.172 274.555 378.321C274.555 382.368 273.557 385.74 271.562 388.437C269.567 391.473 267.272 392.988 264.678 392.988L258.393 386.919ZM272.46 207.369C284.232 204.334 290.117 175.842 290.117 121.892C290.117 112.114 289.818 104.527 289.219 99.132C288.621 95.0859 287.823 91.8828 286.825 89.5224C285.828 86.8248 284.331 84.6333 282.336 82.9473C280.141 80.9241 277.747 79.9125 275.153 79.9125C275.153 79.5753 274.056 79.4067 271.861 79.4067V108.236C271.861 128.13 271.961 145.832 272.16 161.343C272.16 178.877 272.26 190.341 272.46 195.736V207.369Z" fill="#B83A48"/>
<path d="M370.998 392.987C365.811 392.987 361.023 390.122 356.634 384.389C352.245 378.995 348.651 371.576 345.858 362.135C340.074 341.567 336.483 319.145 335.085 294.868C333.288 271.939 332.391 249.853 332.391 228.61C332.391 224.564 332.49 221.193 332.691 218.495V209.391C332.691 207.705 332.592 206.862 332.391 206.862V197.758L332.691 162.354C332.889 151.564 333.687 134.367 335.085 110.764C336.084 94.5794 338.376 78.9002 341.97 63.7271C343.365 56.9834 345.162 51.9254 347.355 48.5537C349.551 44.8445 352.044 42.9902 354.837 42.9902C362.817 42.9902 370.002 45.5189 376.386 50.5769C382.77 55.2974 388.158 62.0411 392.547 70.808C396.537 79.2374 399.93 89.6903 402.723 102.166C405.516 114.305 407.511 127.286 408.708 141.111C409.905 155.273 410.505 170.278 410.505 186.125V190.171C410.505 200.624 410.604 210.065 410.802 218.495L411.102 247.324C411.102 344.435 397.734 392.987 370.998 392.987ZM369.801 371.747C373.392 371.747 376.686 369.386 379.677 364.664C382.671 359.606 384.966 352.862 386.562 344.435C390.351 327.236 392.646 308.693 393.444 288.798C394.443 271.602 394.941 256.765 394.941 244.29C394.941 229.116 394.242 209.222 392.847 184.608C391.65 158.645 391.05 139.257 391.05 126.443V117.34C390.651 104.527 388.059 93.3992 383.268 83.9582C378.681 74.5169 372.993 69.7964 366.21 69.7964C359.427 69.7964 354.936 76.3715 352.743 89.5217C350.748 99.9743 349.749 113.462 349.749 129.984C349.749 136.39 349.851 141.785 350.049 146.169V159.825L349.452 183.091C349.05 190.171 348.852 197.927 348.852 206.356C348.852 224.564 349.152 242.604 349.749 260.475C350.547 285.763 352.542 310.379 355.734 334.319C358.929 359.27 363.618 371.747 369.801 371.747Z" fill="#B83A48"/>
<path d="M496.203 391.977C491.814 391.977 487.824 383.886 484.233 367.701C480.042 350.166 476.949 332.127 474.954 313.581L472.86 296.386C467.073 248.168 463.383 220.688 461.787 213.944H458.196C458.196 223.722 458.094 232.658 457.896 240.75V268.568C457.896 313.752 459.792 348.987 463.581 374.277L460.29 387.933H451.911L448.02 380.346L448.32 346.458C448.32 316.11 447.42 270.085 445.626 208.38C444.03 142.629 443.232 96.6033 443.232 70.3029C443.232 54.1179 446.523 46.0254 453.108 46.0254C463.881 46.0254 472.659 50.7459 479.445 60.1872C486.426 69.6285 489.918 82.7787 489.918 99.6378V135.042C489.918 140.1 489.42 146.001 488.421 152.745C487.425 159.151 486.327 164.378 485.13 168.424L479.445 186.632L474.654 201.805L476.151 213.944L480.342 249.854C483.135 275.817 485.829 296.891 488.421 313.077C491.016 329.262 494.208 343.929 498 357.078L499.794 363.147C501.789 369.891 502.788 375.288 502.788 379.332C502.788 382.704 502.188 385.572 500.991 387.933C499.794 390.63 498.198 391.977 496.203 391.977ZM459.393 189.161C463.782 185.452 467.472 175.336 470.466 158.814C473.658 141.955 475.254 126.444 475.254 112.283C475.254 101.492 474.456 91.377 472.86 81.9357C471.861 76.5408 470.166 72.4944 467.772 69.7971C465.576 66.7623 462.783 65.2449 459.393 65.2449L458.793 67.7739L458.196 72.3258L458.793 132.008C459.192 149.541 459.393 168.592 459.393 189.161Z" fill="#B83A48"/>
<path d="M548.852 375.288L548.552 355.563C548.354 349.83 548.255 343.422 548.255 336.342L548.552 319.146C547.955 315.438 546.458 278.515 544.064 208.38C541.67 138.246 540.272 93.2315 539.873 73.3376C528.302 72.6632 520.919 70.6403 517.727 67.2683C515.534 64.571 514.436 61.5362 514.436 58.1642C514.436 55.4669 515.432 53.1065 517.427 51.0836C519.623 48.7232 521.819 47.543 524.012 47.543C529.598 47.543 536.384 48.2174 544.364 49.5662C551.945 51.2519 558.728 52.0949 564.716 52.0949H569.504C575.687 52.0949 578.78 56.1413 578.78 64.2338C578.78 68.2799 577.784 71.6519 575.789 74.3492C573.794 76.7096 571.499 77.8898 568.904 77.8898C567.11 77.8898 564.515 77.384 561.122 76.3724L555.137 74.3492L554.54 79.4069C554.54 109.416 556.235 157.297 559.628 223.048C562.82 284.753 564.416 332.634 564.416 366.69C564.416 370.734 563.318 374.277 561.122 377.31C559.127 380.346 556.832 381.861 554.24 381.861L548.852 375.288Z" fill="#B83A48"/>
<path d="M667.629 387.933C663.039 387.933 659.649 386.751 657.453 384.39C655.26 382.032 654.162 377.646 654.162 371.241C654.162 361.125 653.163 343.929 651.168 319.653L649.971 309.03L620.343 301.443C619.146 309.198 617.451 324.879 615.255 348.48C614.058 365.004 612.162 375.96 609.57 381.357C608.172 384.39 606.177 385.908 603.582 385.908C601.188 385.908 598.995 384.729 597 382.368C595.005 379.671 594.006 376.467 594.006 372.759L594.606 370.23L594.903 368.205C608.073 281.549 618.048 196.073 624.831 111.777C624.831 110.428 624.933 108.236 625.131 105.201C625.332 101.829 625.53 97.1089 625.731 91.0396C626.328 78.5635 626.928 68.6167 627.525 61.1986C628.323 53.7805 629.52 48.217 631.116 44.5078H641.292C644.085 44.5078 646.479 45.688 648.474 48.0484C650.469 50.0716 651.468 53.1061 651.468 57.1525C651.468 82.7785 653.562 120.88 657.753 171.458C661.743 223.385 663.738 259.801 663.738 280.706C663.738 282.729 664.236 287.956 665.235 296.385C666.234 304.14 666.732 309.198 666.732 311.559C666.732 313.919 667.728 324.036 669.723 341.907C671.52 358.092 672.417 368.544 672.417 373.263V373.77C672.417 381.189 670.821 385.908 667.629 387.933ZM647.877 290.822C647.277 285.764 646.98 279.526 646.98 272.108C646.98 241.761 645.384 202.985 642.189 155.779L639.198 103.178C630.618 182.417 624.732 242.267 621.54 282.729C624.534 286.101 633.312 288.799 647.877 290.822Z" fill="#B83A48"/>
<path d="M779.803 384.896C777.409 384.896 775.612 383.885 774.415 381.86C773.218 379.502 772.321 375.623 771.724 370.229L769.927 360.62V358.091C769.927 346.964 763.042 309.029 749.278 244.289C735.709 179.55 725.035 131.67 717.253 100.649V355.055L718.45 358.595C718.651 359.27 719.05 360.449 719.647 362.135C720.247 363.821 720.544 365.507 720.544 367.193C720.544 371.576 719.647 375.287 717.853 378.32C716.056 381.356 713.863 382.874 711.268 382.874C704.884 382.874 701.692 372.59 701.692 352.019L701.392 265.532C701.191 239.569 701.092 210.571 701.092 178.538C701.092 167.748 701.392 152.069 701.989 131.501C702.589 110.258 702.889 94.5792 702.889 84.4638C702.889 68.616 706.48 56.1402 713.662 47.0361V50.0709C714.859 49.3965 715.657 49.0593 716.056 49.0593C720.646 49.0593 726.43 62.5467 733.414 89.5215C739 111.101 743.989 133.861 748.378 157.802C752.968 181.742 758.953 215.797 766.336 259.969L769.327 278.177C773.917 305.489 777.409 325.046 779.803 336.848C783.793 264.352 785.788 178.707 785.788 79.9116V73.3365C785.59 71.3136 785.491 69.1218 785.491 66.7614C785.491 56.646 787.885 51.588 792.673 51.588C795.466 51.588 797.56 53.4426 798.958 57.1518C800.554 60.8607 801.352 65.5812 801.352 71.3136V109.247C800.953 161.173 799.756 217.483 797.761 278.177C795.766 338.87 793.372 373.094 790.576 380.849C784.792 383.546 781.201 384.896 779.803 384.896Z" fill="#B83A48"/>
<path d="M858.074 375.288L857.774 355.563C857.576 349.83 857.474 343.422 857.474 336.342L857.774 319.146C857.177 315.438 855.68 278.515 853.286 208.38C850.892 138.246 849.494 93.2315 849.095 73.3376C837.524 72.6632 830.141 70.6403 826.949 67.2683C824.753 64.571 823.658 61.5362 823.658 58.1642C823.658 55.4669 824.654 53.1065 826.649 51.0836C828.845 48.7232 831.038 47.543 833.234 47.543C838.82 47.543 845.603 48.2174 853.586 49.5662C861.167 51.2519 867.95 52.0949 873.935 52.0949H878.723C884.909 52.0949 888.002 56.1413 888.002 64.2338C888.002 68.2799 887.003 71.6519 885.008 74.3492C883.013 76.7096 880.721 77.8898 878.126 77.8898C876.329 77.8898 873.737 77.384 870.344 76.3724L864.359 74.3492L863.759 79.4069C863.759 109.416 865.457 157.297 868.847 223.048C872.039 284.753 873.638 332.634 873.638 366.69C873.638 370.734 872.54 374.277 870.344 377.31C868.349 380.346 866.054 381.861 863.462 381.861L858.074 375.288Z" fill="#B83A48"/>
</g>
<defs>
<clipPath id="clip0_1105_2009">
<rect width="888" height="411" fill="white"/>
</clipPath>
</defs>
</svg>
