<svg width="296" height="81" viewBox="0 0 296 81" fill="none" xmlns="http://www.w3.org/2000/svg">
<path d="M25.7176 72.212C28.8951 72.212 32.2711 70.2261 35.1507 67.7437C37.931 65.2613 45.974 54.4381 46.669 52.4522C47.1655 50.9627 46.5697 49.374 45.2789 48.6789C42.1014 46.9909 40.8106 49.7712 37.7324 54.2395C34.4556 58.5092 31.0796 63.3747 27.207 65.162C25.6183 65.8571 24.3275 65.4599 23.4338 63.9705C21.7458 61.2895 22.143 55.6296 22.7387 48.9768C22.9373 47.4874 29.6894 41.5296 34.5549 35.4726C37.6331 31.6 40.2148 27.5289 42.2007 23.3585C42.8958 21.8691 43.7894 21.3726 45.2789 21.4719C50.1444 21.6705 55.8042 22.0676 55.5064 17.9965C55.3078 15.0176 52.031 14.8191 47.4634 14.8191C46.2718 14.8191 46.1725 14.6205 46.3711 13.4289C47.4634 8.36483 48.2578 6.47821 46.669 3.00286C45.4775 0.42116 42.5979 -0.671093 39.7183 0.42116C35.7465 1.9106 30.5831 8.16623 27.9021 12.9324C27.1078 14.3226 26.3134 14.8191 24.7247 14.7198C22.9373 14.6205 20.4549 14.7198 12.5113 14.7198C5.75916 14.7198 0 13.9254 0 17.9965C0 19.2874 0.595775 20.3796 2.08521 21.0747C3.97183 21.8691 23.2352 20.7768 23.2352 21.9684C23.2352 22.6634 20.5542 28.7205 18.5683 36.1676C16.2845 45.005 15.3908 52.9486 15.6887 60.3958C15.9866 66.7508 19.7599 72.212 25.7176 72.212ZM38.2289 14.7198C35.6472 14.8191 34.9521 14.8191 34.9521 14.4219C35.5479 13.2303 40.7113 6.37891 40.7113 8.06694C40.7113 9.65567 39.8176 14.4219 38.2289 14.7198ZM25.7176 35.6712C27.0085 30.905 28.2 27.3303 30.2852 22.6634C30.7817 21.6705 31.2782 21.4719 33.2641 21.4719C33.7606 21.4719 35.4486 21.4719 35.4486 21.6705C35.4486 23.4578 25.7176 35.6712 25.7176 35.6712Z" fill="#186F81"/>
<path d="M63.6928 72.7085C65.778 72.7085 66.9696 71.517 66.3738 67.4458C64.9837 57.8141 66.3738 51.2606 68.9555 40.7353C69.9485 36.8627 67.2675 32.6923 62.6999 31.9972C50.983 30.3092 40.3583 46.0972 38.0745 60.5944C37.3794 64.8641 38.7696 70.1268 42.4435 71.517C45.7203 72.8078 48.7985 70.4247 51.4794 67.7437C54.7562 64.467 58.1323 58.3106 59.4231 56.7219L59.3238 62.481C59.3238 64.7648 59.3238 66.7507 59.9196 69.7296C60.3168 72.1127 61.7069 72.7085 63.6928 72.7085ZM44.8266 64.2684C44.3301 64.2684 44.5287 61.4881 44.8266 60.1972C46.6139 52.6507 49.5928 46.1965 54.8555 41.4303C56.9407 39.5437 59.1252 38.65 61.5083 38.65C62.1041 38.65 62.6006 39.1465 62.1041 39.643C57.9337 43.8134 47.9048 64.2684 44.8266 64.2684Z" fill="#186F81"/>
<path d="M73.0879 72.7085C74.0809 72.7085 75.0738 72.5099 75.8682 71.3184C76.9604 69.7296 78.3506 61.6867 78.9464 59.3036C79.2443 58.112 79.4428 58.0127 80.7337 58.3106C84.8048 59.105 91.3583 64.3677 96.621 68.836C98.6069 70.4247 100.295 71.9141 102.38 70.0275C103.572 68.9353 103.77 67.3465 102.976 66.0557C101.784 64.2684 97.7133 60.793 95.8267 59.5022L87.5851 53.743C87.4858 53.5444 88.8759 52.6508 91.9541 50.5655C98.5076 46.1965 105.359 40.636 107.941 35.5719C108.636 34.1817 108.239 32.4937 107.047 31.6C105.756 30.7064 103.969 30.8057 102.678 32.0965C99.8978 34.8768 98.309 38.0543 93.3443 41.5296C90.4647 43.5155 87.3865 45.5014 84.5069 47.4874L83.0175 48.4803C82.3224 48.8775 81.6274 49.0761 82.7196 48.0831C89.7696 41.6289 95.6281 34.1817 100.593 26.8338C105.26 19.9824 108.537 12.7338 108.537 5.98173C108.537 1.51341 104.962 -1.16757 99.7985 0.619751C92.252 3.30074 84.0105 19.0888 80.7337 28.6212C77.0597 39.5437 69.0168 67.5451 70.5062 70.8219C71.0027 71.9141 71.9957 72.7085 73.0879 72.7085ZM85.4006 35.9691C85.4006 32.593 92.5499 17.9965 96.0252 12.9324C97.2168 11.1451 100.791 7.17328 101.586 7.17328C103.075 7.17328 98.4083 17.7979 95.7274 22.0676C93.8407 24.9472 85.4006 36.4655 85.4006 35.9691Z" fill="#186F81"/>
<path d="M120.144 71.7155C125.903 71.7155 135.534 64.9634 136.031 60.1972C136.031 58.6085 135.336 57.1191 133.151 57.1191C129.378 57.2184 124.91 65.2613 120.442 65.162C117.363 65.162 115.775 61.5874 116.172 57.4169C116.271 56.424 116.668 56.0268 117.562 55.7289C123.123 53.8423 127.988 50.7641 132.655 44.9057C134.144 43.0191 135.237 40.9338 135.733 38.7493C137.024 33.4867 133.251 29.0184 127.889 29.2169C117.959 29.7134 109.221 47.686 109.519 60.4951C109.718 66.155 113.888 71.7155 120.144 71.7155ZM119.151 47.9838C118.952 48.0831 118.555 48.1824 118.754 47.686C120.839 43.5155 122.527 40.2388 125.009 37.7564C126.896 35.8698 129.18 35.274 129.18 36.962C129.18 40.1395 123.718 45.7 119.151 47.9838Z" fill="#186F81"/>
<path d="M186.963 73.0064C191.232 73.0064 195.502 70.7226 199.077 67.9423C203.247 64.6655 212.283 56.6226 214.964 52.9486C215.659 51.9557 215.461 50.7641 214.766 49.7712C213.673 48.0831 211.39 47.686 209.404 49.4733C208.709 50.0691 207.914 50.9627 207.219 51.6578C203.049 55.8282 199.077 59.5022 195.105 62.5803C192.225 64.8641 187.856 67.5451 184.977 65.8571C183.388 64.9634 182.494 62.0838 182.792 59.5022C183.487 52.3529 185.97 45.7993 190.637 40.3381C191.828 38.9479 193.814 37.0613 195.999 37.0613C196.992 37.2599 196.992 38.0543 197.19 38.9479C197.488 40.4374 199.176 41.7282 200.666 41.7282C201.956 41.7282 203.148 40.8346 203.644 39.2458C204.935 34.5789 200.07 30.4085 195.403 30.4085C191.232 30.4085 187.459 33.4867 184.48 37.4585C181.303 41.6289 178.92 46.3951 177.43 52.055C174.551 63.0768 177.033 73.0064 186.963 73.0064Z" fill="#186F81"/>
<path d="M231.982 72.7085C234.067 72.7085 235.259 71.517 234.663 67.4458C233.273 57.8141 234.663 51.2606 237.244 40.7353C238.237 36.8627 235.556 32.6923 230.989 31.9972C219.272 30.3092 208.647 46.0972 206.363 60.5944C205.668 64.8641 207.059 70.1268 210.732 71.517C214.009 72.8078 217.087 70.4247 219.768 67.7437C223.045 64.467 226.421 58.3106 227.712 56.7219L227.613 62.481C227.613 64.7648 227.613 66.7507 228.209 69.7296C228.606 72.1127 229.996 72.7085 231.982 72.7085ZM213.116 64.2684C212.619 64.2684 212.818 61.4881 213.116 60.1972C214.903 52.6507 217.882 46.1965 223.144 41.4303C225.23 39.5437 227.414 38.65 229.797 38.65C230.393 38.65 230.889 39.1465 230.393 39.643C226.223 43.8134 216.194 64.2684 213.116 64.2684Z" fill="#186F81"/>
<path d="M253.689 80.6522C255.576 80.6522 257.363 78.8648 256.668 76.3824C256.073 74.2972 256.47 72.3113 256.966 70.4247C259.151 62.0839 260.938 61.3888 263.421 54.0409C263.818 52.8493 264.513 51.3599 264.513 49.7712C264.513 46.3951 261.832 43.8134 258.456 44.4092C258.158 44.4092 255.675 45.005 255.675 45.005C255.675 44.9057 258.555 40.5367 259.25 36.962C259.945 33.4867 260.64 29.7134 257.463 27.5289C256.073 26.6353 254.484 26.4367 252.697 26.9331C248.03 28.224 242.866 35.274 241.178 41.331C239.987 45.4022 239.887 49.2747 242.568 51.9557C246.441 55.8282 249.916 54.2395 256.47 51.8564C256.867 51.6578 257.066 52.055 256.966 52.4522C257.066 51.9557 252.001 63.8712 251.406 65.6585C250.016 69.9282 248.625 75.3895 250.512 78.5669C251.306 79.8578 252.399 80.6522 253.689 80.6522ZM247.434 44.2106C248.228 40.4374 249.221 38.1536 252.498 34.8768C252.895 34.4796 252.895 34.5789 252.796 35.0754C251.803 39.2458 250.016 42.324 247.434 44.2106Z" fill="#186F81"/>
<path d="M280.113 71.7155C285.872 71.7155 295.504 64.9634 296 60.1972C296 58.6085 295.305 57.1191 293.12 57.1191C289.347 57.2184 284.879 65.2613 280.411 65.162C277.332 65.162 275.744 61.5874 276.141 57.4169C276.24 56.424 276.637 56.0268 277.531 55.7289C283.092 53.8423 287.957 50.7641 292.624 44.9057C294.113 43.0191 295.206 40.9338 295.702 38.7493C296.993 33.4867 293.22 29.0184 287.858 29.2169C277.928 29.7134 269.19 47.686 269.488 60.4951C269.687 66.155 273.857 71.7155 280.113 71.7155ZM279.12 47.9838C278.921 48.0831 278.524 48.1824 278.723 47.686C280.808 43.5155 282.496 40.2388 284.978 37.7564C286.865 35.8698 289.149 35.274 289.149 36.962C289.149 40.1395 283.687 45.7 279.12 47.9838Z" fill="#186F81"/>
</svg>
