<svg width="888" height="243" viewBox="0 0 888 243" fill="none" xmlns="http://www.w3.org/2000/svg">
<path d="M77.1528 216.636C86.6853 216.636 96.8133 210.678 105.452 203.231C113.793 195.784 137.922 163.314 140.007 157.357C141.496 152.888 139.709 148.122 135.837 146.037C126.304 140.973 122.432 149.314 113.197 162.718C103.367 175.528 93.2388 190.124 81.621 195.486C76.8549 197.571 72.9825 196.38 70.3014 191.911C65.2374 183.868 66.429 166.889 68.2161 146.93C68.8119 142.462 89.0682 124.589 103.665 106.418C112.899 94.8 120.644 82.5867 126.602 70.0755C128.687 65.6073 131.368 64.1178 135.837 64.4157C150.433 65.0115 167.413 66.2028 166.519 53.9895C165.923 45.0528 156.093 44.4573 142.39 44.4573C138.815 44.4573 138.518 43.8615 139.113 40.2867C142.39 25.0945 144.773 19.4346 140.007 9.00858C136.432 1.26348 127.794 -2.01328 119.155 1.26348C107.24 5.7318 91.7493 24.4987 83.7063 38.7972C81.3234 42.9678 78.9402 44.4573 74.1741 44.1594C68.8119 43.8615 61.3647 44.1594 37.5339 44.1594C17.2775 44.1594 0 41.7762 0 53.9895C0 57.8622 1.78733 61.1388 6.25563 63.2241C11.9155 65.6073 69.7056 62.3304 69.7056 65.9052C69.7056 67.9902 61.6626 86.1615 55.7049 108.503C48.8535 135.015 46.1724 158.846 47.0661 181.187C47.9598 200.252 59.2797 216.636 77.1528 216.636ZM114.687 44.1594C106.942 44.4573 104.856 44.4573 104.856 43.2657C106.644 39.6909 122.134 19.1367 122.134 24.2008C122.134 28.967 119.453 43.2657 114.687 44.1594ZM77.1528 107.014C81.0255 92.715 84.6 81.9909 90.8556 67.9902C92.3451 65.0115 93.8346 64.4157 99.7923 64.4157C101.282 64.4157 106.346 64.4157 106.346 65.0115C106.346 70.3734 77.1528 107.014 77.1528 107.014Z" fill="#186F81"/>
<path d="M191.078 218.127C197.333 218.127 200.908 214.552 199.121 202.338C194.95 173.443 199.121 153.783 206.866 122.207C209.845 110.589 201.802 98.0779 188.099 95.9926C152.948 90.9286 121.074 138.293 114.223 181.784C112.137 194.593 116.308 210.381 127.33 214.552C137.16 218.424 146.395 211.275 154.437 203.232C164.268 193.402 174.396 174.933 178.268 170.167L177.971 187.444C177.971 194.295 177.971 200.253 179.758 209.19C180.95 216.339 185.12 218.127 191.078 218.127ZM134.479 192.806C132.989 192.806 133.585 184.465 134.479 180.593C139.841 157.953 148.778 138.59 164.566 124.292C170.821 118.632 177.375 115.951 184.524 115.951C186.312 115.951 187.801 117.44 186.311 118.93C173.8 131.441 143.714 192.806 134.479 192.806Z" fill="#186F81"/>
<path d="M219.263 218.125C222.242 218.125 225.221 217.529 227.604 213.954C230.881 209.188 235.051 185.059 236.839 177.91C237.732 174.335 238.328 174.037 242.201 174.931C254.414 177.314 274.074 193.102 289.862 206.507C295.82 211.273 300.884 215.741 307.139 210.081C310.715 206.805 311.309 202.038 308.927 198.166C305.351 192.804 293.139 182.378 287.48 178.506L262.755 161.228C262.457 160.632 266.627 157.951 275.862 151.695C295.522 138.588 316.076 121.907 323.822 106.715C325.907 102.544 324.716 97.4801 321.14 94.799C317.267 92.1182 311.906 92.4161 308.033 96.2885C299.693 104.629 294.926 114.162 280.032 124.588C271.394 130.545 262.159 136.503 253.52 142.461L249.052 145.44C246.967 146.632 244.882 147.227 248.158 144.248C269.308 124.886 286.884 102.544 301.778 80.5004C315.779 59.9462 325.61 38.2004 325.61 17.9442C325.61 4.53922 314.885 -3.50372 299.395 1.85824C276.755 9.90121 252.031 57.2654 242.201 85.8626C231.179 118.63 207.05 202.634 211.518 212.465C213.008 215.741 215.987 218.125 219.263 218.125ZM256.201 107.906C256.201 97.778 277.649 53.9885 288.075 38.7962C291.65 33.4343 302.372 21.5188 304.757 21.5188C309.224 21.5188 295.224 53.3927 287.182 66.2018C281.522 74.8406 256.201 109.395 256.201 107.906Z" fill="#186F81"/>
<path d="M360.432 215.148C377.709 215.148 406.602 194.891 408.093 180.593C408.093 175.827 406.008 171.359 399.453 171.359C388.134 171.656 374.73 195.785 361.326 195.487C352.089 195.487 347.325 184.763 348.516 172.252C348.813 169.273 350.004 168.082 352.686 167.188C369.369 161.528 383.964 152.294 397.965 134.718C402.432 129.059 405.711 122.803 407.199 116.249C411.072 100.461 399.753 87.0564 383.667 87.6519C353.877 89.1414 327.663 143.059 328.557 181.487C329.154 198.466 341.664 215.148 360.432 215.148ZM357.453 143.953C356.856 144.251 355.665 144.548 356.262 143.059C362.517 130.548 367.581 120.718 375.027 113.27C380.688 107.611 387.54 105.823 387.54 110.887C387.54 120.42 371.154 137.101 357.453 143.953Z" fill="#186F81"/>
<path d="M560.888 219.018C573.695 219.018 586.505 212.167 597.23 203.826C609.74 193.996 636.848 169.867 644.891 158.845C646.976 155.866 646.382 152.291 644.297 149.313C641.018 144.248 634.169 143.057 628.211 148.419C626.126 150.206 623.741 152.887 621.656 154.973C609.146 167.484 597.23 178.506 585.314 187.74C576.674 194.591 563.567 202.634 554.93 197.57C550.163 194.889 547.481 186.251 548.375 178.506C550.46 157.058 557.909 137.397 571.91 121.013C575.483 116.843 581.441 111.183 587.996 111.183C590.975 111.779 590.975 114.162 591.569 116.843C592.463 121.311 597.527 125.184 601.997 125.184C605.867 125.184 609.443 122.503 610.931 117.737C614.804 103.736 600.209 91.2246 586.208 91.2246C573.695 91.2246 562.376 100.459 553.439 112.375C543.908 124.886 536.759 139.184 532.289 156.164C523.652 189.23 531.098 219.018 560.888 219.018Z" fill="#186F81"/>
<path d="M695.947 218.127C702.202 218.127 705.778 214.552 703.99 202.338C699.82 173.443 703.99 153.783 711.733 122.207C714.712 110.589 706.669 98.0779 692.968 95.9926C657.817 90.9286 625.942 138.293 619.09 181.784C617.005 194.593 621.178 210.381 632.197 214.552C642.028 218.424 651.262 211.275 659.305 203.232C669.136 193.402 679.264 174.933 683.137 170.167L682.84 187.444C682.84 194.295 682.84 200.253 684.628 209.19C685.819 216.339 689.989 218.127 695.947 218.127ZM639.349 192.806C637.858 192.806 638.455 184.465 639.349 180.593C644.71 157.953 653.647 138.59 669.433 124.292C675.691 118.632 682.243 115.951 689.392 115.951C691.18 115.951 692.668 117.44 691.18 118.93C678.67 131.441 648.583 192.806 639.349 192.806Z" fill="#186F81"/>
<path d="M761.067 241.957C766.728 241.957 772.089 236.595 770.004 229.148C768.219 222.892 769.41 216.934 770.898 211.274C777.453 186.252 782.814 184.167 790.263 162.123C791.454 158.548 793.539 154.08 793.539 149.314C793.539 139.186 785.496 131.441 775.368 133.228C774.474 133.228 767.025 135.015 767.025 135.015C767.025 134.717 775.665 121.611 777.75 110.886C779.835 100.46 781.92 89.1406 772.389 82.5871C768.219 79.9063 763.452 79.3105 758.091 80.7997C744.09 84.6724 728.598 105.822 723.534 123.993C719.961 136.207 719.661 147.824 727.704 155.867C739.323 167.485 749.748 162.719 769.41 155.57C770.601 154.974 771.198 156.165 770.898 157.357C771.198 155.868 756.003 191.614 754.218 196.976C750.048 209.785 745.875 226.169 751.536 235.701C753.918 239.574 757.197 241.957 761.067 241.957ZM742.302 132.632C744.684 121.313 747.663 114.461 757.494 104.631C758.685 103.439 758.685 103.737 758.388 105.227C755.409 117.738 750.048 126.972 742.302 132.632Z" fill="#186F81"/>
<path d="M840.339 215.148C857.616 215.148 886.512 194.891 888 180.593C888 175.827 885.915 171.359 879.36 171.359C868.041 171.656 854.637 195.785 841.233 195.487C831.996 195.487 827.232 184.763 828.423 172.252C828.72 169.273 829.911 168.082 832.593 167.188C849.276 161.528 863.871 152.294 877.872 134.718C882.339 129.059 885.618 122.803 887.106 116.249C890.979 100.461 879.66 87.0564 863.574 87.6519C833.784 89.1414 807.57 143.059 808.464 181.487C809.061 198.466 821.571 215.148 840.339 215.148ZM837.36 143.953C836.763 144.251 835.572 144.548 836.169 143.059C842.424 130.548 847.488 120.718 854.934 113.27C860.595 107.611 867.447 105.823 867.447 110.887C867.447 120.42 851.061 137.101 837.36 143.953Z" fill="#186F81"/>
</svg>
