<svg width="296" height="137" viewBox="0 0 296 137" fill="none" xmlns="http://www.w3.org/2000/svg">
<path d="M8.22736 132.943C15.6969 132.943 19.2693 120.644 19.2693 111.175C19.3776 105.271 17.9703 99.6141 14.6144 93.9569L13.5318 91.7432C13.0988 90.8823 13.0988 90.7593 13.9649 90.6363C16.996 90.0214 20.1354 88.9145 23.5995 87.3158C33.126 82.8883 49.7972 73.6646 53.1531 68.2533C54.1274 66.7775 54.1274 65.3017 53.3696 63.9489C52.1788 61.6122 49.6889 61.3662 47.0908 63.7029C32.8012 71.6968 25.4399 79.1988 12.7741 82.3964C12.0163 82.3964 11.6915 82.3964 11.7998 81.4125C12.4493 75.8783 14.8309 70.713 16.7795 64.6868C17.1043 63.7029 17.862 63.211 18.8363 62.842C21.651 61.7352 24.3573 60.0134 26.8472 57.9227C38.5387 48.207 50.0137 34.0639 53.0448 19.4289C54.2356 13.6486 53.9109 6.5156 49.9054 4.30189C43.3019 0.612392 29.6618 20.1668 24.3573 29.7595C15.6969 45.5014 9.20165 61.9812 4.87146 78.7069C1.62382 91.3742 0 103.181 0 115.971C0 124.949 1.40731 132.943 8.22736 132.943ZM22.3005 51.5276C30.3113 32.7111 32.9094 28.2837 45.3587 14.1406C46.1165 13.2797 46.333 13.7716 46.333 14.8785C46.333 19.3059 42.4359 28.1607 39.1882 32.8341C35.0745 38.8603 30.0948 44.5175 24.0326 50.0518C23.4913 50.5437 22.95 51.0356 22.3005 51.5276ZM8.33562 123.965C7.25307 123.719 6.82005 117.078 7.25307 109.945C7.46958 106.624 8.11911 99.2451 8.55213 98.7532C9.52642 99.3681 11.5833 104.533 11.7998 107.485C12.2328 112.896 10.7172 124.703 8.33562 123.965Z" fill="#6B488B"/>
<path d="M59.0458 91.4972C65.3246 91.4972 75.8253 83.1343 76.3665 77.2311C76.3665 75.2634 75.6088 73.4186 73.2271 73.4186C69.1135 73.5416 64.242 83.5033 59.3705 83.3803C56.0146 83.3803 54.2826 78.9529 54.7156 73.7876C54.8238 72.5577 55.2569 72.0658 56.2312 71.6968C62.2934 69.3602 67.5979 65.5477 72.6859 58.2916C74.3097 55.955 75.5005 53.3723 76.0418 50.6667C77.4491 44.1485 73.3354 38.6143 67.4897 38.8603C56.6642 39.4752 47.1378 61.7352 47.4625 77.6001C47.679 84.6101 52.2257 91.4972 59.0458 91.4972ZM57.9632 62.1041C57.7467 62.2271 57.3137 62.3501 57.5302 61.7352C59.8036 56.5699 61.6439 52.5114 64.3503 49.4368C66.4071 47.1002 68.897 46.3622 68.897 48.453C68.897 52.3884 62.9429 59.2755 57.9632 62.1041Z" fill="#6B488B"/>
<path d="M83.5697 93.096C84.7605 93.096 86.2761 91.9891 86.7091 91.2512C87.1421 90.5133 87.6834 90.3903 88.6577 90.7593C92.5549 92.2351 96.3438 91.2512 99.1584 90.1444C110.742 85.717 120.918 74.4025 123.732 60.0134C125.681 49.6828 124.165 40.705 115.721 40.705C113.015 40.705 109.876 42.4268 109.876 42.4268C109.876 42.4268 109.876 42.1808 110.2 41.5659C110.742 40.459 113.015 36.1546 114.206 33.203C117.345 24.8401 120.809 12.2958 119.077 6.26963C117.67 1.47328 114.098 -0.863414 110.309 0.73537C104.788 3.19504 99.8079 10.82 96.452 18.076C89.4155 33.449 87.3586 46.9772 83.4615 68.1303C80.7551 82.2734 77.9405 93.096 83.5697 93.096ZM94.1787 50.6667C94.1787 45.9933 100.024 28.0377 103.164 21.3966C105.221 16.9692 110.309 9.09825 111.932 9.09825C113.015 9.09825 112.041 15.7394 110.85 20.4127C108.577 29.3905 99.4832 46.3622 94.1787 50.6667ZM95.586 82.7654C93.8539 83.3803 90.7145 83.5033 90.3898 82.3964C89.4155 79.6908 101.215 62.3501 106.195 56.3239C108.685 53.3723 112.907 48.9449 115.721 48.9449C119.294 48.9449 116.046 63.7029 112.582 68.9912C108.144 75.7553 102.406 80.5517 95.586 82.7654Z" fill="#6B488B"/>
<path d="M142.246 102.566C144.303 102.566 146.252 100.352 145.494 97.2774C144.844 94.6948 145.277 92.2351 145.819 89.8984C148.2 79.5678 150.149 78.7069 152.855 69.6061C153.288 68.1303 154.046 66.2856 154.046 64.3178C154.046 60.1364 151.123 56.9388 147.443 57.6767C147.118 57.6767 144.411 58.4146 144.411 58.4146C144.411 58.2916 147.551 52.8804 148.309 48.453C149.066 44.1485 149.824 39.4752 146.36 36.7695C144.844 35.6627 143.112 35.4167 141.164 36.0316C136.076 37.6304 130.447 46.3623 128.606 53.8642C127.307 58.9066 127.199 63.7029 130.122 67.0235C134.344 71.8198 138.133 69.8521 145.277 66.9005C145.71 66.6545 145.927 67.1465 145.819 67.6384C145.927 67.0235 140.406 81.7815 139.756 83.9952C138.241 89.2835 136.725 96.0476 138.782 99.9831C139.648 101.582 140.839 102.566 142.246 102.566ZM135.426 57.4308C136.292 52.7574 137.375 49.9288 140.947 45.8703C141.38 45.3784 141.38 45.5014 141.272 46.1163C140.189 51.2816 138.241 55.0941 135.426 57.4308Z" fill="#6B488B"/>
<path d="M182.312 92.2351C184.694 92.2351 185.776 90.5133 185.776 87.1928C185.776 81.9045 186.859 76.6162 188.158 71.3279C189.998 63.9489 192.596 56.8158 195.303 49.0679C196.602 45.5014 197.684 41.6889 194.653 40.0901C193.137 39.2292 191.297 39.7211 190.106 41.3199C188.158 43.9026 183.828 52.5114 179.822 60.3824C175.275 69.1142 168.347 82.0275 165.208 82.0275C163.692 82.0275 168.347 62.5961 170.62 56.0779C171.487 53.2493 174.518 46.2393 174.301 43.7796C174.085 40.3361 170.512 39.1062 168.672 41.1969C166.074 44.1485 162.177 57.4308 160.336 65.0557C157.955 75.3863 155.681 86.8238 161.527 90.6363C165.099 92.727 168.78 90.7593 172.136 87.1928C174.085 85.225 175.6 82.5194 177.874 79.1988L179.497 76.8622L179.173 80.1827C178.74 84.3641 178.307 88.4226 179.497 90.2674C180.255 91.4972 181.229 92.2351 182.312 92.2351Z" fill="#6B488B"/>
<path d="M220.693 92.727C222.966 92.727 224.265 91.2512 223.615 86.2089C222.1 74.2795 223.615 66.1626 226.43 53.1263C227.513 48.33 224.59 43.1647 219.61 42.3038C206.836 40.2131 195.253 59.7675 192.763 77.723C192.005 83.0113 193.521 89.5295 197.526 91.2512C201.098 92.85 204.454 89.8984 207.377 86.5779C210.95 82.5194 214.63 74.8944 216.038 72.9267L215.929 80.0597C215.929 82.8883 215.929 85.348 216.579 89.0375C217.012 91.9891 218.527 92.727 220.693 92.727ZM200.124 82.2734C199.583 82.2734 199.799 78.8299 200.124 77.2311C202.073 67.8844 205.32 59.8904 211.058 53.9872C213.331 51.6505 215.713 50.5437 218.311 50.5437C218.96 50.5437 219.502 51.1586 218.96 51.7735C214.414 56.9388 203.48 82.2734 200.124 82.2734Z" fill="#6B488B"/>
<path d="M244.359 102.566C246.416 102.566 248.364 100.352 247.607 97.2774C246.957 94.6948 247.39 92.2351 247.931 89.8984C250.313 79.5678 252.261 78.7069 254.968 69.6061C255.401 68.1303 256.159 66.2856 256.159 64.3178C256.159 60.1364 253.236 56.9388 249.555 57.6767C249.23 57.6767 246.524 58.4146 246.524 58.4146C246.524 58.2916 249.663 52.8804 250.421 48.453C251.179 44.1485 251.937 39.4752 248.473 36.7695C246.957 35.6627 245.225 35.4167 243.276 36.0316C238.188 37.6304 232.559 46.3623 230.719 53.8642C229.42 58.9066 229.311 63.7029 232.234 67.0235C236.456 71.8198 240.245 69.8521 247.39 66.9005C247.823 66.6545 248.04 67.1465 247.931 67.6384C248.04 67.0235 242.519 81.7815 241.869 83.9952C240.353 89.2835 238.838 96.0476 240.895 99.9831C241.761 101.582 242.952 102.566 244.359 102.566ZM237.539 57.4308C238.405 52.7574 239.487 49.9288 243.06 45.8703C243.493 45.3784 243.493 45.5014 243.385 46.1163C242.302 51.2816 240.353 55.0941 237.539 57.4308Z" fill="#6B488B"/>
<path d="M264.289 136.755C268.295 136.755 272.084 134.172 274.357 130.36C280.419 120.275 282.909 110.929 293.193 63.5799C295.467 52.3884 297.848 45.8703 293.843 43.4106C290.27 41.3199 286.59 47.961 282.476 55.955C281.285 58.1687 275.764 68.7452 273.924 71.6968C271.975 74.8944 270.568 77.3541 268.403 79.8138C267.537 80.7976 267.97 77.3541 268.078 76.4932C269.594 64.5638 272.625 57.1848 275.115 46.6082C275.656 44.3945 274.682 42.1808 272.95 41.4429C271.217 40.705 269.485 41.8119 268.403 43.9026C267.97 44.6405 264.073 59.2755 262.882 64.1949C260.717 73.2956 258.443 87.0698 264.722 89.7754C268.295 91.2512 271.434 88.4226 274.249 84.8561C276.414 82.2734 278.362 79.1988 280.636 75.0174C281.935 72.5577 283.342 70.344 284.641 68.0073C283.234 75.3864 279.986 90.3903 279.445 92.2351C279.228 93.096 279.12 93.5879 278.471 93.8339C267.212 98.0153 254.33 115.479 256.278 128.761C256.928 133.066 259.742 136.755 264.289 136.755ZM263.315 125.564C263.423 119.783 268.728 108.592 275.872 104.533C278.146 103.181 271.651 119.537 269.161 124.457C267.32 128.023 263.315 130.483 263.315 125.564Z" fill="#6B488B"/>
</svg>
