<svg width="888" height="411" viewBox="0 0 888 411" fill="none" xmlns="http://www.w3.org/2000/svg">
<g clip-path="url(#clip0_1105_1670)">
<path d="M24.6821 398.83C47.0907 398.83 57.8079 361.933 57.8079 333.526C58.1328 315.814 53.9109 298.843 43.8432 281.871L40.5954 275.23C39.2964 272.648 39.2964 272.279 41.8947 271.91C50.988 270.065 60.4062 266.744 70.7985 261.948C99.378 248.666 149.392 220.995 159.459 204.761C162.382 200.333 162.382 195.906 160.109 191.847C156.536 184.837 149.067 184.099 141.272 191.109C98.4036 215.091 76.3197 237.597 38.3223 247.19C36.0489 247.19 35.0745 247.19 35.3994 244.238C37.3479 227.636 44.4927 212.14 50.3385 194.061C51.3129 191.109 53.586 189.634 56.5089 188.527C64.953 185.206 73.0719 180.041 80.5416 173.769C115.616 144.622 150.041 102.192 159.134 58.2875C162.707 40.9466 161.733 19.5476 149.716 12.9064C129.906 1.83795 88.9854 60.5012 73.0719 89.2793C47.0907 136.505 27.605 185.944 14.6144 236.121C4.87146 274.123 0 309.544 0 347.914C0 374.848 4.22193 398.83 24.6821 398.83ZM66.9015 154.584C90.9339 98.1341 98.7282 84.8519 136.076 42.4226C138.35 39.8399 138.999 41.3156 138.999 44.6363C138.999 57.9185 127.308 84.4829 117.565 98.5031C105.224 116.582 90.2844 133.553 72.0978 150.156C70.4739 151.632 68.85 153.108 66.9015 154.584ZM25.0069 371.896C21.7592 371.158 20.4602 351.235 21.7592 329.836C22.4087 319.873 24.3573 297.736 25.6564 296.26C28.5793 298.105 34.7499 313.6 35.3994 322.456C36.6984 338.689 32.1516 374.11 25.0069 371.896Z" fill="#6B488B"/>
<path d="M177.137 274.492C195.974 274.492 227.476 249.403 229.099 231.694C229.099 225.791 226.826 220.256 219.681 220.256C207.34 220.625 192.726 250.51 178.111 250.141C168.044 250.141 162.848 236.859 164.147 221.363C164.471 217.674 165.771 216.198 168.694 215.091C186.88 208.081 202.794 196.644 218.058 174.875C222.929 167.865 226.501 160.117 228.125 152.001C232.347 132.446 220.006 115.843 202.469 116.581C169.993 118.426 141.413 185.206 142.387 232.801C143.037 253.831 156.677 274.492 177.137 274.492ZM173.89 186.313C173.24 186.682 171.941 187.051 172.591 185.206C179.411 169.71 184.932 157.535 193.051 148.311C199.221 141.301 206.691 139.087 206.691 145.359C206.691 157.166 188.829 177.827 173.89 186.313Z" fill="#6B488B"/>
<path d="M250.709 279.289C254.282 279.289 258.829 275.968 260.128 273.754C261.427 271.541 263.05 271.172 265.973 272.279C277.665 276.706 289.032 273.754 297.475 270.434C332.226 257.152 362.754 223.208 371.196 180.041C377.043 149.049 372.495 122.116 347.163 122.116C339.045 122.116 329.628 127.281 329.628 127.281C329.628 127.281 329.628 126.543 330.6 124.698C332.226 121.378 339.045 108.465 342.618 99.6097C352.035 74.521 362.427 36.8881 357.231 18.8096C353.01 4.42057 342.294 -2.58951 330.927 2.20684C314.364 9.58585 299.424 32.4607 289.356 54.2287C268.247 100.348 262.076 140.932 250.385 204.392C242.266 246.821 233.822 279.289 250.709 279.289ZM282.536 152.001C282.536 137.981 300.072 84.1138 309.492 64.1905C315.663 50.9083 330.927 27.2955 335.796 27.2955C339.045 27.2955 336.123 47.2189 332.55 61.2388C325.731 88.1722 298.45 139.087 282.536 152.001ZM286.758 248.297C281.562 250.142 272.144 250.511 271.17 247.19C268.247 239.073 303.645 187.051 318.585 168.972C326.055 160.118 338.721 146.835 347.163 146.835C357.882 146.835 348.138 191.109 337.746 206.974C324.432 227.267 307.218 241.656 286.758 248.297Z" fill="#6B488B"/>
<path d="M426.738 307.698C432.909 307.698 438.756 301.056 436.482 291.832C434.532 284.084 435.831 276.705 437.457 269.695C444.6 238.703 450.447 236.121 458.565 208.818C459.864 204.391 462.138 198.857 462.138 192.953C462.138 180.409 453.369 170.816 442.329 173.03C441.354 173.03 433.233 175.244 433.233 175.244C433.233 174.875 442.653 158.641 444.927 145.359C447.198 132.445 449.472 118.425 439.08 110.308C434.532 106.988 429.336 106.25 423.492 108.095C408.228 112.891 391.341 139.087 385.818 161.592C381.921 176.72 381.597 191.109 390.366 201.07C403.032 215.459 414.399 209.556 435.831 200.701C437.13 199.963 437.781 201.439 437.457 202.915C437.781 201.07 421.218 245.344 419.268 251.985C414.723 267.85 410.175 288.143 416.346 299.949C418.944 304.746 422.517 307.698 426.738 307.698ZM406.278 172.292C408.876 158.272 412.125 149.786 422.841 137.611C424.14 136.135 424.14 136.504 423.816 138.349C420.567 153.845 414.723 165.282 406.278 172.292Z" fill="#6B488B"/>
<path d="M546.936 276.705C554.082 276.705 557.328 271.54 557.328 261.578C557.328 245.713 560.577 229.849 564.474 213.984C569.994 191.847 577.788 170.447 585.909 147.204C589.806 136.504 593.052 125.067 583.959 120.27C579.411 117.688 573.891 119.163 570.318 123.96C564.474 131.708 551.484 157.534 539.466 181.147C525.825 207.343 505.041 246.082 495.624 246.082C491.076 246.082 505.041 187.788 511.86 168.234C514.461 159.748 523.554 138.718 522.903 131.339C522.255 121.008 511.536 117.319 506.016 123.591C498.222 132.445 486.531 172.292 481.008 195.167C473.865 226.159 467.043 260.471 484.581 271.909C495.297 278.181 506.34 272.278 516.408 261.578C522.255 255.675 526.8 247.558 533.622 237.596L538.491 230.587L537.519 240.548C536.22 253.092 534.921 265.268 538.491 270.802C540.765 274.492 543.687 276.705 546.936 276.705Z" fill="#6B488B"/>
<path d="M662.079 278.181C668.898 278.181 672.795 273.754 670.845 258.627C666.3 222.839 670.845 198.488 679.29 159.379C682.539 144.99 673.77 129.494 658.83 126.912C620.508 120.64 585.759 179.303 578.289 233.169C576.015 249.034 580.563 268.589 592.578 273.754C603.294 278.55 613.362 269.696 622.131 259.734C632.85 247.559 643.89 224.684 648.114 218.78L647.787 240.179C647.787 248.665 647.787 256.044 649.737 267.113C651.036 275.968 655.581 278.181 662.079 278.181ZM600.372 246.821C598.749 246.821 599.397 236.49 600.372 231.694C606.219 203.654 615.96 179.672 633.174 161.962C639.993 154.952 647.139 151.631 654.933 151.631C656.88 151.631 658.506 153.476 656.88 155.321C643.242 170.817 610.44 246.821 600.372 246.821Z" fill="#6B488B"/>
<path d="M733.077 307.698C739.248 307.698 745.092 301.056 742.821 291.832C740.871 284.084 742.17 276.705 743.793 269.695C750.939 238.703 756.783 236.121 764.904 208.818C766.203 204.391 768.477 198.857 768.477 192.953C768.477 180.409 759.708 170.816 748.665 173.03C747.69 173.03 739.572 175.244 739.572 175.244C739.572 174.875 748.989 158.641 751.263 145.359C753.537 132.445 755.811 118.425 745.419 110.308C740.871 106.988 735.675 106.25 729.828 108.095C714.564 112.891 697.677 139.087 692.157 161.592C688.26 176.72 687.933 191.109 696.702 201.07C709.368 215.459 720.735 209.556 742.17 200.701C743.469 199.963 744.12 201.439 743.793 202.915C744.12 201.07 727.557 245.344 725.607 251.985C721.059 267.85 716.514 288.143 722.685 299.949C725.283 304.746 728.856 307.698 733.077 307.698ZM712.617 172.292C715.215 158.272 718.461 149.786 729.18 137.611C730.479 136.135 730.479 136.504 730.155 138.349C726.906 153.845 721.059 165.282 712.617 172.292Z" fill="#6B488B"/>
<path d="M792.867 410.264C804.885 410.264 816.252 402.515 823.071 391.079C841.257 360.824 848.727 332.786 879.579 190.739C886.401 157.164 893.544 137.61 881.529 130.231C870.81 123.959 859.77 143.882 847.428 167.864C843.855 174.505 827.292 206.235 821.772 215.09C815.925 224.682 811.704 232.062 805.209 239.441C802.611 242.392 803.91 232.062 804.234 229.479C808.782 193.691 817.875 171.554 825.345 139.824C826.968 133.183 824.046 126.542 818.85 124.328C813.651 122.114 808.455 125.435 805.209 131.707C803.91 133.921 792.219 177.826 788.646 192.584C782.151 219.886 775.329 261.209 794.166 269.325C804.885 273.753 814.302 265.267 822.747 254.568C829.242 246.819 835.086 237.596 841.908 225.051C845.805 217.672 850.026 211.031 853.923 204.021C849.702 226.158 839.958 271.17 838.335 276.705C837.684 279.287 837.36 280.763 835.413 281.501C801.636 294.045 762.99 346.436 768.834 386.282C770.784 399.197 779.226 410.264 792.867 410.264ZM789.945 376.691C790.269 359.348 806.184 325.775 827.616 313.598C834.438 309.542 814.953 358.61 807.483 373.37C801.96 384.068 789.945 391.448 789.945 376.691Z" fill="#6B488B"/>
</g>
<defs>
<clipPath id="clip0_1105_1670">
<rect width="888" height="411" fill="white"/>
</clipPath>
</defs>
</svg>
