<svg width="297" height="297" viewBox="0 0 297 297" fill="none" xmlns="http://www.w3.org/2000/svg">
<path fill-rule="evenodd" clip-rule="evenodd" d="M41.9721 45.7404C25.4233 62.2892 23.9995 86.7598 34.9444 104.747C15.4205 110.343 0.0332031 128.155 0.0332031 150.953C0.0332031 174.36 16.3344 192.672 36.7971 197.649C26.9385 215.413 28.6496 238.897 44.7746 255.022C61.3251 271.573 85.7992 272.995 103.788 262.046C109.373 281.585 127.192 296.989 150.002 296.989C173.409 296.989 191.721 280.688 196.698 260.225C214.462 270.083 237.946 268.372 254.071 252.247C270.63 235.688 272.045 211.197 261.078 193.207C280.615 187.62 296.018 169.802 296.018 146.993C296.018 123.59 279.721 105.279 259.263 100.299C269.116 82.5366 267.402 59.0573 251.28 42.9352C234.73 26.3847 210.256 24.9623 192.267 35.9111C186.682 16.3722 168.863 0.968262 146.053 0.968262C122.634 0.968262 104.315 17.2869 99.3492 37.7648C81.5849 27.9041 58.0981 29.6144 41.9721 45.7404Z" fill="#EA876A"/>
</svg>
