<svg width="891" height="891" viewBox="0 0 891 891" fill="none" xmlns="http://www.w3.org/2000/svg">
<path fill-rule="evenodd" clip-rule="evenodd" d="M125.916 137.223C76.2699 186.869 71.9985 260.281 104.833 314.242C46.2615 331.03 0.0996094 384.466 0.0996094 452.86C0.0996094 523.081 49.0032 578.017 110.391 592.948C80.8155 646.24 85.9488 716.692 134.324 765.067C183.975 814.72 257.398 818.986 311.364 786.139C328.119 844.756 381.576 890.969 450.006 890.969C520.227 890.969 575.163 842.065 590.094 780.676C643.386 810.25 713.838 805.117 762.213 756.742C811.89 707.065 816.135 633.592 783.234 579.622C841.845 562.861 888.054 509.407 888.054 440.98C888.054 370.771 839.163 315.838 777.789 300.898C807.348 247.611 802.206 177.173 753.84 128.807C704.19 79.1556 630.768 74.8884 576.801 107.735C560.046 49.1181 506.589 2.90625 438.159 2.90625C367.902 2.90625 312.945 51.8622 298.048 113.296C244.755 83.7138 174.294 88.8447 125.916 137.223Z" fill="#EA876A"/>
</svg>
