<svg width="312" height="78" viewBox="0 0 312 78" fill="none" xmlns="http://www.w3.org/2000/svg">
<path d="M0 3.38781C0 2.02887 1.10163 0.927246 2.46057 0.927246H281.262C282.026 0.927246 282.746 1.28207 283.212 1.88758L310.846 37.8119C311.526 38.6963 311.526 39.9279 310.846 40.8123L283.212 76.7366C282.746 77.3421 282.026 77.697 281.262 77.697H2.46057C1.10163 77.697 0 76.5953 0 75.2364V3.38781Z" fill="#BABFFC"/>
<path d="M300.517 33.2448L302.976 36.4435L302.183 37.0529L303.412 38.6523C303.68 39.0003 303.68 39.4846 303.412 39.8326L302.183 41.432L302.976 42.0414L300.517 45.2401L299.724 44.6307L297.266 47.8295L298.058 48.4389L295.6 51.6376L294.807 51.0282L292.348 54.227L293.141 54.8364L290.682 58.0351L289.89 57.4257L287.431 60.6244L288.224 61.2338L285.765 64.4326L284.972 63.8232L282.514 67.0219L283.307 67.6313L280.848 70.8301L280.055 70.2206L278.826 71.82C278.643 72.0585 278.359 72.1983 278.058 72.1983H276.071V73.1983H272.098V72.1983H268.125V73.1983H264.152V72.1983H260.179V73.1983H256.206V72.1983H252.233V73.1983H248.26V72.1983H244.287V73.1983H240.314V72.1983H236.341V73.1983H232.368V72.1983H228.395V73.1983H224.422V72.1983H220.449V73.1983H216.476V72.1983H212.503V73.1983H208.529V72.1983H204.556V73.1983H200.583V72.1983H196.61V73.1983H192.637V72.1983H188.664V73.1983H184.691V72.1983H180.718V73.1983H176.745V72.1983H172.772V73.1983H168.799V72.1983H164.826V73.1983H160.853V72.1983H156.88V73.1983H152.907V72.1983H148.934V73.1983H144.961V72.1983H140.988V73.1983H137.015V72.1983H133.041V73.1983H129.068V72.1983H125.095V73.1983H121.122V72.1983H117.149V73.1983H113.176V72.1983H109.203V73.1983H105.23V72.1983H101.257V73.1983H97.284V72.1983H93.311V73.1983H89.3379V72.1983H85.3649V73.1983H81.3918V72.1983H77.4188V73.1983H73.4457V72.1983H69.4727V73.1983H65.4996V72.1983H61.5266V73.1983H57.5535V72.1983H53.5804V73.1983H49.6074V72.1983H45.6343V73.1983H41.6613V72.1983H37.6882V73.1983H33.7152V72.1983H29.7421V73.1983H25.7691V72.1983H21.796V73.1983H17.823V72.1983H13.8499V73.1983H9.87685V72.1983H7.89032C7.35546 72.1983 6.92188 71.7647 6.92188 71.2298V69.2306H5.92188V65.2322H6.92188V61.2338H5.92188V57.2354H6.92188V53.2369H5.92188V49.2385H6.92188V45.2401H5.92188V41.2417H6.92188V37.2432H5.92188V33.2448H6.92188V29.2464H5.92188V25.248H6.92188V21.2496H5.92188V17.2511H6.92188V13.2527H5.92188V9.25429H6.92188V7.25507C6.92188 6.72021 7.35547 6.28662 7.89033 6.28662H9.87694V5.28662H13.85V6.28662H17.823V5.28662H21.7961V6.28662H25.7691V5.28662H29.7422V6.28662H33.7153V5.28662H37.6883V6.28662H41.6614V5.28662H45.6344V6.28662H49.6075V5.28662H53.5805V6.28662H57.5536V5.28662H61.5266V6.28662H65.4997V5.28662H69.4727V6.28662H73.4458V5.28662H77.4188V6.28662H81.3919V5.28662H85.365V6.28662H89.338V5.28662H93.3111V6.28662H97.2841V5.28662H101.257V6.28662H105.23V5.28662H109.203V6.28662H113.176V5.28662H117.149V6.28662H121.122V5.28662H125.095V6.28662H129.069V5.28662H133.042V6.28662H137.015V5.28662H140.988V6.28662H144.961V5.28662H148.934V6.28662H152.907V5.28662H156.88V6.28662H160.853V5.28662H164.826V6.28662H168.799V5.28662H172.772V6.28662H176.745V5.28662H180.718V6.28662H184.691V5.28662H188.664V6.28662H192.637V5.28662H196.61V6.28662H200.583V5.28662H204.557V6.28662H208.53V5.28662H212.503V6.28662H216.476V5.28662H220.449V6.28662H224.422V5.28662H228.395V6.28662H232.368V5.28662H236.341V6.28662H240.314V5.28662H244.287V6.28662H248.26V5.28662H252.233V6.28662H256.206V5.28662H260.179V6.28662H264.152V5.28662H268.125V6.28662H272.098V5.28662H276.072V6.28662H278.058C278.359 6.28662 278.643 6.4264 278.826 6.66489L280.055 8.26426L280.848 7.65485L283.307 10.8536L282.514 11.463L284.972 14.6617L285.765 14.0523L288.224 17.2511L287.431 17.8605L289.89 21.0592L290.683 20.4498L293.141 23.6485L292.348 24.258L294.807 27.4567L295.6 26.8473L298.058 30.046L297.266 30.6554L299.724 33.8542L300.517 33.2448Z" stroke="white" stroke-width="2" stroke-dasharray="3.94 3.94"/>
</svg>
