<svg width="296" height="189" viewBox="0 0 296 189" fill="none" xmlns="http://www.w3.org/2000/svg">
<rect y="0.375977" width="296" height="188.364" rx="8.9697" fill="#E7B545"/>
<rect y="0.375977" width="296" height="188.364" rx="8.9697" fill="black" fill-opacity="0.05"/>
<path fill-rule="evenodd" clip-rule="evenodd" d="M15.2485 56.1924C12.7716 56.1924 10.7637 58.2003 10.7637 60.6772V87.5863C10.7637 90.0632 12.7716 92.0712 15.2485 92.0712H280.752C283.228 92.0712 285.236 90.0632 285.236 87.5863V60.6772C285.236 58.2003 283.228 56.1924 280.752 56.1924H15.2485ZM30.497 83.0517C35.4509 83.0517 39.4667 79.0358 39.4667 74.082C39.4667 69.1282 35.4509 65.1123 30.497 65.1123C25.5432 65.1123 21.5273 69.1282 21.5273 74.082C21.5273 79.0358 25.5432 83.0517 30.497 83.0517Z" fill="white" fill-opacity="0.3"/>
<path fill-rule="evenodd" clip-rule="evenodd" d="M15.2485 98.6006C12.7716 98.6006 10.7637 100.609 10.7637 103.085V129.995C10.7637 132.471 12.7716 134.479 15.2485 134.479H280.752C283.228 134.479 285.236 132.471 285.236 129.995V103.085C285.236 100.609 283.228 98.6006 280.752 98.6006H15.2485ZM30.497 125.46C35.4509 125.46 39.4667 121.444 39.4667 116.49C39.4667 111.536 35.4509 107.521 30.497 107.521C25.5432 107.521 21.5273 111.536 21.5273 116.49C21.5273 121.444 25.5432 125.46 30.497 125.46Z" fill="white" fill-opacity="0.3"/>
<path fill-rule="evenodd" clip-rule="evenodd" d="M15.2485 141.995C12.7716 141.995 10.7637 144.003 10.7637 146.479V173.389C10.7637 175.865 12.7716 177.873 15.2485 177.873H280.752C283.228 177.873 285.236 175.865 285.236 173.389V146.479C285.236 144.003 283.228 141.995 280.752 141.995H15.2485ZM30.497 168.854C35.4509 168.854 39.4667 164.838 39.4667 159.884C39.4667 154.93 35.4509 150.915 30.497 150.915C25.5432 150.915 21.5273 154.93 21.5273 159.884C21.5273 164.838 25.5432 168.854 30.497 168.854Z" fill="white" fill-opacity="0.3"/>
<path d="M15.5212 33.6678C15.2198 33.6248 14.9184 33.5387 14.6386 33.431C12.9379 32.7206 11.9907 30.8478 11.5171 29.1686C11.1512 27.9416 11.022 26.65 11.022 25.3798C11.022 22.9257 11.4956 20.9452 12.5935 18.814C13.6914 16.6398 15.2413 15.4773 17.0066 15.4773C18.8149 15.4773 20.4294 17.0488 21.0107 18.6633C21.2475 19.3092 21.2905 19.8258 21.1183 20.0841C20.8384 20.4501 20.1926 20.5577 19.8482 20.2348C19.6329 20.0411 19.5468 19.7182 19.4392 19.4598C19.31 19.1585 19.1808 18.8571 18.9656 18.5772C18.5565 17.9745 17.8031 17.2641 17.0281 17.2641C16.2316 17.2425 15.4136 17.7161 14.7893 18.5772C14.3157 19.2015 13.7129 20.407 13.39 21.3973C12.9164 22.8396 12.6796 24.3896 12.7442 25.918C12.8088 27.3604 13.0886 28.9964 13.8205 30.2665C14.5094 31.4505 15.9087 32.4838 17.2649 31.795C18.0399 31.429 18.8364 30.4818 19.5037 29.1041C19.7621 28.5874 20.3433 27.059 20.4725 26.5208L20.5155 26.327H18.492C16.3177 26.327 16.1885 26.3055 15.9517 25.9611C15.8011 25.7458 15.8011 25.3153 15.9517 25.0354C16.1455 24.6479 16.2747 24.6264 19.1163 24.6264C21.5488 24.6264 21.6995 24.6264 21.9148 24.7556C22.044 24.8417 22.1947 25.0139 22.2808 25.1646C22.4099 25.4229 22.4099 25.5951 22.3669 29.1041C22.3238 33.1942 22.3453 33.0866 21.8502 33.3665C21.4197 33.6033 20.903 33.388 20.6877 32.8713C20.6232 32.7206 20.5801 32.3332 20.5801 31.7304V30.8262L20.3003 31.2998C20.128 31.5366 19.6975 32.0533 19.31 32.4193C18.3197 33.4095 16.8774 33.9046 15.5212 33.6678ZM31.1907 21.182C32.8914 22.7535 33.6448 25.7673 33.0636 28.652C33.0636 28.695 33.042 28.7166 33.042 28.7596C32.5254 31.2137 30.631 34.2491 27.6818 33.5817C26.7346 33.3665 25.9811 32.7637 25.4214 32.0102C23.1395 28.9749 23.5916 23.4209 26.3255 21.1174C27.854 19.8258 29.7268 19.8473 31.1907 21.182ZM31.406 28.0277C31.5567 27.1451 31.5136 25.7028 31.2983 24.8417C30.9754 23.5931 30.265 22.4952 29.49 22.1292C28.0477 21.3973 26.4762 22.8396 25.8735 25.4229C25.4429 27.3173 25.6151 30.0297 27.2082 31.3644C29.5116 33.3019 31.0831 29.8575 31.406 28.0277ZM42.824 27.9631C42.8886 32.3116 42.8671 32.7637 42.7594 32.979C42.458 33.5602 41.6185 33.5387 41.274 32.9574C41.1664 32.7852 41.1449 32.5054 41.1018 31.1492L41.0803 29.5561L40.6928 30.3311C39.9393 31.8165 39.1644 32.7422 38.2602 33.1512C35.6769 34.3782 34.6006 31.2783 34.4068 29.3193C34.1916 26.9298 34.945 23.8729 36.1936 22.1938C37.1623 20.8806 38.0234 20.364 39.2505 20.364C39.9824 20.364 40.4991 20.5147 41.1449 20.9452C42.2643 21.6772 42.7809 22.9473 42.8025 24.2389C42.8025 24.7771 42.8025 25.3153 42.8025 25.8534C42.824 26.5423 42.824 27.2527 42.824 27.9631ZM39.9824 27.4895C40.6713 25.6382 41.0157 24.4757 41.0157 23.959C41.0157 22.6244 39.5949 21.6772 38.5401 22.3014C37.1408 23.1195 36.0429 26.1333 36.1505 28.8027C36.1721 29.3839 36.3012 31.5366 37.1408 31.6228C37.313 31.6443 37.5068 31.5797 37.6575 31.4721C38.906 30.6971 39.5088 28.7812 39.9824 27.4895ZM45.8309 33.2373C45.6802 33.1512 45.5511 33.022 45.4865 32.8283C45.3573 32.204 45.4004 31.5366 45.4004 30.9124C45.3788 29.1471 45.4004 27.4034 45.4004 25.6382C45.4004 25.3798 45.4004 25.1215 45.4004 24.8632C45.4004 16.0801 45.4434 13.9704 45.5941 13.6905C45.7879 13.3246 46.326 13.1739 46.7566 13.3892C46.8642 13.4322 46.9934 13.6044 47.0795 13.7551C47.1871 14.0134 47.2087 14.4655 47.1656 23.3348C47.1441 25.3368 47.1441 27.3388 47.1226 29.3409C47.1226 30.2665 47.1226 31.2137 47.058 32.1394C47.0364 32.3977 47.058 32.8068 46.9073 33.022C46.692 33.3234 46.1969 33.388 45.8309 33.2373ZM52.0284 33.4741C50.8659 33.3019 49.7681 32.7637 49.0577 31.9026C48.9285 31.7519 48.7993 31.5797 48.7563 31.386C48.6917 31.02 48.8854 30.654 49.2514 30.4818C49.6389 30.2881 49.9618 30.3957 50.5 30.8908C51.3611 31.6873 52.6958 32.0102 53.8152 31.6443C55.0638 31.2568 55.5158 30.1374 54.8485 28.9964C54.6332 28.6305 54.3534 28.3076 54.052 28.0062C53.6214 27.5972 53.0833 27.1881 52.2867 26.65C51.5333 26.1548 50.6722 25.6166 50.1555 24.8632C49.3806 23.7438 49.5528 22.2369 50.5215 21.3112C51.2965 20.5577 52.4159 20.2348 53.4923 20.3425C54.5041 20.4286 55.4943 20.8806 56.1617 21.6341C56.2693 21.7417 56.3554 21.8709 56.4415 21.9785C56.5707 22.1723 56.6998 22.3876 56.7429 22.6244C56.7859 22.8612 56.7644 23.1195 56.6137 23.3132C56.3985 23.5931 55.9679 23.6792 55.6235 23.5285C55.2145 23.3778 54.9992 22.9688 54.6978 22.7105C54.3318 22.366 53.8367 22.1292 53.3416 22.0646C52.6742 21.9785 51.8347 22.1292 51.5333 22.8181C51.0166 23.9806 52.6527 24.7986 53.3846 25.3153C55.1283 26.4993 55.9679 27.3388 56.5276 28.4152C57.2595 29.8575 57.0443 31.2998 55.9249 32.3977C54.9346 33.3665 53.4277 33.6894 52.0284 33.4741Z" fill="white"/>
</svg>
