<svg width="888" height="291" viewBox="0 0 888 291" fill="none" xmlns="http://www.w3.org/2000/svg">
<g clip-path="url(#clip0_1105_1953)">
<path d="M85.6005 270.262C81.8118 270.262 78.9702 269.551 77.076 268.131C75.4185 266.71 74.5896 264.342 74.5896 261.027V214.497C71.5113 212.366 65.7099 210.472 57.1854 208.814C48.6609 207.157 40.6098 206.091 33.0327 205.618C30.4278 210.59 28.5335 216.628 27.3496 223.732L25.9288 230.836C25.692 232.494 24.9816 236.164 23.7976 241.847C22.6137 247.53 21.3113 252.502 19.8906 256.765C18.4698 260.79 17.0491 263.987 15.6283 266.355C6.63018 266.355 1.42076 263.987 0 259.251C2.60472 255.463 5.56464 244.333 8.87973 225.863L20.601 160.864C25.8104 130.081 30.5463 103.797 34.8084 82.0118C39.3075 60.2267 44.0433 41.9939 49.0161 27.3127C54.4623 10.974 59.6718 2.80469 64.6443 2.80469C69.6171 2.80469 73.4058 3.75187 76.0104 5.64619C76.0104 15.1179 78.2601 37.9682 82.7589 74.1977C87.495 109.717 89.8629 133.988 89.8629 147.011C89.8629 159.561 91.1652 177.558 93.7698 201C96.1377 224.916 97.3218 243.978 97.3218 258.186C97.3218 266.236 93.4146 270.262 85.6005 270.262ZM67.1307 193.896C69.0252 193.896 71.3931 193.541 74.2344 192.831C73.524 182.412 72.3402 169.507 70.6827 154.115C65.2365 100.6 62.5134 67.8041 62.5134 55.7279V52.8863C60.1452 55.2542 56.8302 66.0284 52.5681 85.2086C48.5424 104.152 44.7537 124.516 41.202 146.301C37.65 168.086 35.7558 182.53 35.5188 189.634C45.4641 192.475 56.0016 193.896 67.1307 193.896Z" fill="#6B488B"/>
<path d="M282.947 288.73C275.607 288.73 271.936 281.39 271.936 266.709V221.244C271.936 209.405 271.108 193.895 269.45 174.715C267.556 153.167 266.609 138.367 266.609 130.316L267.319 108.294C267.792 101.901 268.029 94.6788 268.029 86.6277C267.082 89.706 263.175 106.045 256.308 135.644C249.441 164.296 242.337 190.817 234.997 215.206C227.893 238.649 222.092 250.37 217.592 250.37C213.093 250.37 209.423 249.068 206.582 246.463C203.977 243.621 202.674 239.833 202.674 235.097C202.674 224.678 198.412 202.538 189.888 168.677C181.6 134.815 174.023 107.111 167.156 85.5621L165.024 125.699C163.13 159.56 161.828 187.738 161.118 210.234C160.644 232.019 160.407 246.936 160.407 254.987C160.407 256.882 160.525 258.658 160.762 260.315V265.288C160.762 269.313 159.933 272.273 158.276 274.168C156.618 276.299 153.54 277.364 149.041 277.364C146.673 277.364 144.423 276.417 142.292 274.523C140.161 272.865 139.096 270.971 139.096 268.84C139.096 244.687 140.872 208.458 144.423 160.152C147.975 111.846 149.751 75.6171 149.751 51.4641C148.331 49.3329 147.62 47.0835 147.62 44.7156C147.62 41.874 148.922 39.7428 151.527 38.322C154.369 36.6645 157.684 35.8359 161.473 35.8359C164.551 35.8359 170.234 46.965 178.522 69.2235C186.809 91.482 195.097 116.701 203.385 144.879C211.673 173.057 217.001 193.421 219.369 205.971C221.263 199.578 222.802 193.658 223.986 188.212L226.117 179.687C233.694 146.536 241.272 116.582 248.849 89.8245C253.348 73.4859 257.729 60.699 261.991 51.4641C266.253 41.5188 270.16 36.5463 273.712 36.5463C277.027 36.5463 279.987 37.4934 282.592 39.3876C285.434 41.0451 286.854 43.2948 286.854 46.1364C286.854 63.1854 287.565 88.7589 288.985 122.857C290.643 154.587 291.472 179.214 291.472 196.736L291.116 215.561L290.406 234.386C290.406 237.228 290.761 241.49 291.472 247.173L292.537 259.605C292.774 261.736 292.893 263.393 292.893 264.578C293.129 265.761 293.248 266.472 293.248 266.709C294.432 269.787 295.024 272.036 295.024 273.457C295.024 277.483 293.84 281.035 291.472 284.113C289.104 287.191 286.262 288.73 282.947 288.73Z" fill="#6B488B"/>
<path d="M408.879 273.458C403.431 273.458 399.405 272.63 396.801 270.972C394.197 269.315 392.895 266.236 392.895 261.737C392.895 254.633 391.71 242.557 389.343 225.508L387.921 218.049L352.758 212.721C351.336 218.167 349.326 229.178 346.719 245.754C345.3 257.357 343.05 265.052 339.972 268.841C338.313 270.972 335.946 272.038 332.868 272.038C330.027 272.038 327.42 271.209 325.053 269.551C322.686 267.657 321.501 265.407 321.501 262.803L322.212 261.027L322.566 259.606C338.196 198.75 350.034 138.723 358.086 79.5253C358.086 78.5782 358.203 77.0389 358.44 74.908C358.677 72.5401 358.914 69.2248 359.151 64.9627C359.862 56.2012 360.573 49.216 361.284 44.0065C362.229 38.797 363.651 34.8898 365.544 32.2852H377.622C380.937 32.2852 383.778 33.1141 386.145 34.7716C388.515 36.1924 389.697 38.3233 389.697 41.1649C389.697 59.1613 392.184 85.9186 397.158 121.438C401.892 157.904 404.259 183.477 404.259 198.158C404.259 199.579 404.853 203.249 406.035 209.169C407.22 214.616 407.811 218.167 407.811 219.825C407.811 221.483 408.996 228.586 411.363 241.136C413.496 252.502 414.561 259.843 414.561 263.158V263.513C414.561 268.723 412.668 272.038 408.879 273.458ZM385.434 205.262C384.726 201.71 384.369 197.33 384.369 192.12C384.369 170.809 382.476 143.578 378.687 110.427L375.135 73.4872C364.953 129.133 357.969 171.164 354.18 199.579C357.732 201.947 368.151 203.841 385.434 205.262Z" fill="#6B488B"/>
<path d="M450.374 270.971C447.767 270.971 445.52 270.26 443.624 268.84C441.731 267.182 440.783 265.169 440.783 262.801C440.783 248.594 443.507 229.887 448.952 206.682C454.634 183.476 462.806 154.824 473.459 120.726C484.115 85.4438 490.745 62.7116 493.352 52.5296C490.508 52.5296 485.891 52.8848 479.498 53.5952C473.105 54.3056 468.014 54.6608 464.225 54.6608C461.858 54.6608 459.725 53.7134 457.832 51.8192C455.939 49.688 454.991 47.3201 454.991 44.7155C454.991 37.8485 468.014 34.415 494.06 34.415C505.901 34.415 511.82 37.73 511.82 44.3603C511.82 51.9377 509.216 63.1853 504.008 78.1031C499.034 91.3637 495.956 101.427 494.771 108.294C492.404 125.107 486.248 152.575 476.303 190.698L460.673 252.146H467.066L474.527 251.435C476.657 251.199 479.144 251.08 481.985 251.08V250.725C491.456 250.725 496.193 253.685 496.193 259.605C496.193 262.21 495.008 264.341 492.641 265.998C490.274 267.419 487.313 268.129 483.761 268.129C479.972 268.129 476.54 268.011 473.459 267.774L462.806 267.064C461.384 267.064 459.371 267.774 456.767 269.195C453.689 270.379 451.556 270.971 450.374 270.971Z" fill="#6B488B"/>
<path d="M566.517 269.907C545.916 269.907 535.617 266.355 535.617 259.251C535.617 253.568 539.286 250.726 546.627 250.726H550.533L554.085 251.082C555.981 251.082 557.283 250.49 557.994 249.306C558.705 248.122 559.059 245.991 559.059 242.912C559.059 238.887 558.822 232.612 558.348 224.087C557.637 218.404 556.809 208.222 555.861 193.541C553.731 157.312 552.666 129.962 552.666 111.492C552.666 104.862 552.783 98.8241 553.02 93.3779L553.377 75.2633C553.377 67.4489 553.02 60.9371 552.309 55.7279C548.523 56.675 545.799 57.1484 544.14 57.1484C538.458 57.1484 535.617 54.3071 535.617 48.6239C535.617 45.7826 537.393 43.2962 540.945 41.165C544.497 39.0338 548.994 37.4948 554.442 36.5477C563.913 34.6532 572.319 33.7061 579.66 33.7061C582.501 33.7061 584.868 34.7717 586.764 36.9029C588.894 38.7971 589.959 41.0465 589.959 43.6514C589.959 46.256 589.131 48.5057 587.475 50.3999C586.053 52.2944 584.16 53.2415 581.79 53.2415C580.371 53.2415 579.186 53.123 578.238 52.8863H575.397C573.03 52.8863 571.254 53.4782 570.069 54.6623C569.124 55.6094 568.65 57.5036 568.65 60.3452C568.65 83.3141 570.069 117.886 572.91 164.06C573.384 172.585 574.332 185.135 575.754 201.71C576.936 212.603 577.53 223.732 577.53 235.098V248.595C578.949 248.358 581.319 248.24 584.634 248.24C594.579 248.24 599.55 252.384 599.55 260.672V262.803L590.67 268.841C590.433 268.841 589.605 268.959 588.186 269.196C587.001 269.196 584.634 269.196 581.082 269.196C573.504 269.67 568.65 269.907 566.517 269.907Z" fill="#6B488B"/>
<path d="M725.849 271.327C723.008 271.327 720.878 270.616 719.456 269.195C718.037 267.538 716.969 264.815 716.261 261.026L714.128 254.278V252.502C714.128 244.688 705.959 218.048 689.621 172.584C673.52 127.12 660.851 93.4953 651.614 71.7105V250.37L653.036 252.857C653.273 253.331 653.747 254.159 654.458 255.343C655.166 256.527 655.523 257.711 655.523 258.895C655.523 261.973 654.458 264.578 652.325 266.709C650.195 268.84 647.591 269.906 644.513 269.906C636.935 269.906 633.146 262.684 633.146 248.24L632.789 187.502C632.552 169.269 632.435 148.905 632.435 126.41C632.435 118.832 632.789 107.822 633.5 93.3772C634.211 78.4591 634.565 67.4481 634.565 60.3444C634.565 49.2153 638.828 40.4538 647.354 34.0605V36.1917C648.773 35.718 649.721 35.4813 650.195 35.4813C655.64 35.4813 662.507 44.9529 670.796 63.8964C677.426 79.0512 683.345 95.0347 688.556 111.847C694.001 128.659 701.105 152.575 709.865 183.595L713.417 196.382C718.865 215.562 723.008 229.296 725.849 237.584C730.586 186.673 732.953 126.528 732.953 57.1476V52.5303C732.716 51.1095 732.599 49.5705 732.599 47.9127C732.599 40.809 735.44 37.2573 741.122 37.2573C744.437 37.2573 746.924 38.5596 748.583 41.1642C750.476 43.7691 751.424 47.0841 751.424 51.1095V77.7486C750.95 114.215 749.528 153.759 747.161 196.382C744.794 239.005 741.953 263.039 738.638 268.485C731.771 270.38 727.508 271.327 725.849 271.327Z" fill="#6B488B"/>
<path d="M845.023 273.103C838.393 273.103 832.354 271.919 826.909 269.551C821.461 266.946 816.844 263.631 813.055 259.605C809.977 256.29 807.136 251.436 804.532 245.043C801.928 238.65 800.032 232.493 798.85 226.573C797.665 222.074 796.717 215.562 796.006 207.038C795.298 198.513 794.824 191.172 794.587 185.016V150.207C794.587 136.473 794.824 125.226 795.298 116.464C795.769 105.809 797.308 94.561 799.915 82.7215C802.045 72.0658 805.717 62.7124 810.925 54.6616C815.899 46.6105 822.883 41.0458 831.88 37.9675C836.143 36.31 841.117 35.4814 846.799 35.4814C856.981 35.4814 862.072 38.4412 862.072 44.3611C862.072 47.2027 860.887 49.5706 858.52 51.4648C856.39 53.1223 853.786 53.9512 850.705 53.9512C849.286 53.9512 847.984 53.8327 846.799 53.596C845.851 53.3593 844.669 53.2408 843.247 53.2408C839.221 53.2408 835.669 55.372 832.591 59.6341C829.513 63.8965 826.909 69.8161 824.776 77.3935C820.99 92.0746 818.383 108.058 816.964 125.344C816.016 141.446 815.542 153.404 815.542 161.218C815.542 169.269 815.899 180.28 816.607 194.251C817.555 207.274 819.568 218.64 822.646 228.349C824.305 234.032 826.198 238.65 828.328 242.201C830.698 245.517 833.656 248.358 837.208 250.726C841.234 253.331 845.377 254.633 849.64 254.633C861.007 254.633 866.689 235.689 866.689 197.803V181.464C865.033 180.754 862.309 180.399 858.52 180.399H851.416C843.13 180.399 838.984 177.675 838.984 172.229C838.984 168.914 840.052 166.428 842.182 164.77C844.549 162.876 847.51 161.929 851.062 161.929V162.284H856.033C877.345 162.284 888.001 165.954 888.001 173.295C888.001 175.426 887.41 179.688 886.225 186.081C884.803 191.764 884.095 196.027 884.095 198.868C884.095 202.894 884.449 209.169 885.16 217.693L885.871 236.518C885.871 247.884 881.845 256.882 873.793 263.513C865.978 269.906 856.39 273.103 845.023 273.103Z" fill="#6B488B"/>
</g>
<defs>
<clipPath id="clip0_1105_1953">
<rect width="888" height="291" fill="white"/>
</clipPath>
</defs>
</svg>
