<svg width="296" height="97" viewBox="0 0 296 97" fill="none" xmlns="http://www.w3.org/2000/svg">
<path d="M28.5335 90.0872C27.2706 90.0872 26.3234 89.8504 25.692 89.3769C25.1395 88.9033 24.8632 88.114 24.8632 87.0089V71.499C23.8371 70.7886 21.9033 70.1572 19.0618 69.6047C16.2203 69.0521 13.5366 68.697 11.0109 68.5391C10.1426 70.1966 9.51117 72.2094 9.11652 74.5773L8.64293 76.9452C8.564 77.4978 8.32721 78.7212 7.93255 80.6155C7.5379 82.5099 7.10378 84.1674 6.63019 85.5882C6.15661 86.93 5.68302 87.9956 5.20944 88.7849C2.21006 88.7849 0.473585 87.9956 0 86.4169C0.86824 85.1541 1.85488 81.4443 2.95991 75.2877L6.86699 53.6212C8.60347 43.3602 10.1821 34.5988 11.6028 27.3372C13.1025 20.0755 14.6811 13.9979 16.3387 9.10416C18.1541 3.65793 19.8906 0.934814 21.5481 0.934814C23.2057 0.934814 24.4686 1.25054 25.3368 1.88198C25.3368 5.03922 26.0867 12.656 27.5863 24.7325C29.165 36.5721 29.9543 44.6625 29.9543 49.0037C29.9543 53.187 30.3884 59.1858 31.2566 67C32.0459 74.972 32.4406 81.3259 32.4406 86.0618C32.4406 88.7454 31.1382 90.0872 28.5335 90.0872ZM22.3769 64.632C23.0084 64.632 23.7977 64.5136 24.7448 64.2768C24.508 60.8039 24.1134 56.5021 23.5609 51.3716C21.7455 33.5333 20.8378 22.6013 20.8378 18.5759V17.6287C20.0484 18.418 18.9434 22.0094 17.5227 28.4028C16.1808 34.7172 14.9179 41.5053 13.734 48.7669C12.55 56.0286 11.9186 60.8433 11.8396 63.2113C15.1547 64.1584 18.6672 64.632 22.3769 64.632Z" fill="#6B488B"/>
<path d="M94.3156 96.2438C91.8688 96.2438 90.6453 93.797 90.6453 88.9033V73.7485C90.6453 69.802 90.3691 64.632 89.8165 58.2386C89.1851 51.0559 88.8694 46.1227 88.8694 43.4391L89.1062 36.0985C89.264 33.9674 89.343 31.56 89.343 28.8763C89.0272 29.9024 87.7249 35.3487 85.4359 45.215C83.1469 54.7657 80.779 63.6059 78.3321 71.7358C75.9642 79.55 74.0304 83.457 72.5307 83.457C71.031 83.457 69.8076 83.0229 68.8604 82.1547C67.9922 81.2075 67.558 79.9446 67.558 78.366C67.558 74.893 66.1373 67.513 63.2958 56.2259C60.5332 44.9388 58.0074 35.7039 55.7184 28.5211L55.008 41.8999C54.3766 53.187 53.9425 62.5798 53.7057 70.0783C53.5478 77.3399 53.4689 82.3125 53.4689 84.9962C53.4689 85.6276 53.5083 86.2196 53.5873 86.7721V88.4297C53.5873 89.7715 53.311 90.7581 52.7585 91.3896C52.206 92.1 51.1799 92.4552 49.6802 92.4552C48.8909 92.4552 48.141 92.1394 47.4307 91.508C46.7203 90.9555 46.3651 90.324 46.3651 89.6136C46.3651 81.5627 46.9571 69.4863 48.141 53.3844C49.325 37.2825 49.917 25.2061 49.917 17.1551C49.4434 16.4447 49.2066 15.6949 49.2066 14.9056C49.2066 13.9584 49.6407 13.248 50.509 12.7744C51.4561 12.2219 52.5612 11.9457 53.8241 11.9457C54.8502 11.9457 56.7445 15.6554 59.5071 23.0749C62.2697 30.4944 65.0323 38.9006 67.7948 48.2933C70.5574 57.6861 72.3334 64.4742 73.1227 68.6575C73.7541 66.5264 74.2672 64.5531 74.6618 62.7377L75.3722 59.8962C77.898 48.8458 80.4238 38.8611 82.9496 29.9419C84.4493 24.4957 85.9095 20.2334 87.3302 17.1551C88.751 13.84 90.0533 12.1825 91.2373 12.1825C92.3423 12.1825 93.329 12.4982 94.1972 13.1296C95.1444 13.6821 95.618 14.432 95.618 15.3792C95.618 21.0622 95.8548 29.5867 96.3283 40.9528C96.8809 51.5295 97.1571 59.7383 97.1571 65.5792L97.0387 71.8542L96.8019 78.1292C96.8019 79.0764 96.9203 80.4971 97.1571 82.3915L97.5123 86.5353C97.5912 87.2457 97.6307 87.7982 97.6307 88.1929C97.7096 88.5875 97.7491 88.8243 97.7491 88.9033C98.1438 89.9294 98.3411 90.6792 98.3411 91.1528C98.3411 92.4946 97.9464 93.6786 97.1571 94.7047C96.3678 95.7308 95.4206 96.2438 94.3156 96.2438Z" fill="#6B488B"/>
<path d="M136.293 91.1528C134.477 91.1528 133.135 90.8765 132.267 90.324C131.399 89.7715 130.965 88.7454 130.965 87.2457C130.965 84.8778 130.57 80.8523 129.781 75.1693L129.307 72.683L117.586 70.907C117.112 72.7224 116.442 76.3927 115.573 81.9179C115.1 85.7855 114.35 88.3507 113.324 89.6136C112.771 90.324 111.982 90.6792 110.956 90.6792C110.009 90.6792 109.14 90.4029 108.351 89.8504C107.562 89.219 107.167 88.4691 107.167 87.6009L107.404 87.0089L107.522 86.5353C112.732 66.2501 116.678 46.2411 119.362 26.5084C119.362 26.1927 119.401 25.6796 119.48 24.9693C119.559 24.18 119.638 23.0749 119.717 21.6542C119.954 18.7337 120.191 16.4053 120.428 14.6688C120.743 12.9323 121.217 11.6299 121.848 10.7617H125.874C126.979 10.7617 127.926 11.038 128.715 11.5905C129.505 12.0641 129.899 12.7744 129.899 13.7216C129.899 19.7204 130.728 28.6395 132.386 40.4792C133.964 52.6345 134.753 61.1591 134.753 66.0528C134.753 66.5264 134.951 67.7498 135.345 69.7231C135.74 71.5385 135.937 72.7224 135.937 73.275C135.937 73.8275 136.332 76.1954 137.121 80.3787C137.832 84.1674 138.187 86.6143 138.187 87.7193V87.8377C138.187 89.5742 137.556 90.6792 136.293 91.1528ZM128.478 68.4207C128.242 67.2367 128.123 65.7765 128.123 64.04C128.123 56.9363 127.492 47.8592 126.229 36.8089L125.045 24.4957C121.651 43.0444 119.323 57.0547 118.06 66.5264C119.244 67.3157 122.717 67.9471 128.478 68.4207Z" fill="#6B488B"/>
<path d="M150.125 90.324C149.256 90.324 148.507 90.0872 147.875 89.6136C147.244 89.0611 146.928 88.3902 146.928 87.6009C146.928 82.8651 147.836 76.6295 149.651 68.8943C151.545 61.1591 154.269 51.6084 157.82 40.2424C161.372 28.4817 163.582 20.9043 164.451 17.5103C163.503 17.5103 161.964 17.6287 159.833 17.8655C157.702 18.1023 156.005 18.2207 154.742 18.2207C153.953 18.2207 153.242 17.9049 152.611 17.2735C151.98 16.5631 151.664 15.7738 151.664 14.9056C151.664 12.6166 156.005 11.4721 164.687 11.4721C168.634 11.4721 170.607 12.5771 170.607 14.7872C170.607 17.313 169.739 21.0622 168.003 26.0348C166.345 30.455 165.319 33.8095 164.924 36.0985C164.135 41.7026 162.083 50.8586 158.768 63.5665L153.558 84.049H155.689L158.176 83.8122C158.886 83.7333 159.715 83.6938 160.662 83.6938V83.5754C163.819 83.5754 165.398 84.5621 165.398 86.5353C165.398 87.4036 165.003 88.114 164.214 88.6665C163.425 89.1401 162.438 89.3769 161.254 89.3769C159.991 89.3769 158.847 89.3374 157.82 89.2584L154.269 89.0217C153.795 89.0217 153.124 89.2584 152.256 89.732C151.23 90.1267 150.519 90.324 150.125 90.324Z" fill="#6B488B"/>
<path d="M188.839 89.9688C181.972 89.9688 178.539 88.7849 178.539 86.4169C178.539 84.5226 179.762 83.5754 182.209 83.5754H183.511L184.695 83.6938C185.327 83.6938 185.761 83.4965 185.998 83.1018C186.235 82.7072 186.353 81.9968 186.353 80.9707C186.353 79.6289 186.274 77.5372 186.116 74.6957C185.879 72.8014 185.603 69.4073 185.287 64.5136C184.577 52.4372 184.222 43.3207 184.222 37.1641C184.222 34.954 184.261 32.9413 184.34 31.1259L184.459 25.0877C184.459 22.4829 184.34 20.3123 184.103 18.5759C182.841 18.8916 181.933 19.0494 181.38 19.0494C179.486 19.0494 178.539 18.1023 178.539 16.2079C178.539 15.2608 179.131 14.432 180.315 13.7216C181.499 13.0112 182.998 12.4982 184.814 12.1825C187.971 11.551 190.773 11.2353 193.22 11.2353C194.167 11.2353 194.956 11.5905 195.588 12.3009C196.298 12.9323 196.653 13.6821 196.653 14.5504C196.653 15.4186 196.377 16.1685 195.825 16.7999C195.351 17.4314 194.72 17.7471 193.93 17.7471C193.457 17.7471 193.062 17.7076 192.746 17.6287H191.799C191.01 17.6287 190.418 17.826 190.023 18.2207C189.708 18.5364 189.55 19.1678 189.55 20.115C189.55 27.7713 190.023 39.2952 190.97 54.6867C191.128 57.5282 191.444 61.7116 191.918 67.2367C192.312 70.8676 192.51 74.5773 192.51 78.366V82.8651C192.983 82.7861 193.773 82.7467 194.878 82.7467C198.193 82.7467 199.85 84.1279 199.85 86.8905V87.6009L196.89 89.6136C196.811 89.6136 196.535 89.6531 196.062 89.732C195.667 89.732 194.878 89.732 193.694 89.732C191.168 89.8899 189.55 89.9688 188.839 89.9688Z" fill="#6B488B"/>
<path d="M241.95 90.4424C241.003 90.4424 240.293 90.2056 239.819 89.732C239.346 89.1795 238.99 88.2718 238.754 87.0089L238.043 84.7594V84.1674C238.043 81.5627 235.32 72.683 229.874 57.5282C224.507 42.3735 220.284 31.1653 217.205 23.9037V83.457L217.679 84.2858C217.758 84.4437 217.916 84.7199 218.153 85.1146C218.389 85.5092 218.508 85.9039 218.508 86.2985C218.508 87.3246 218.153 88.1929 217.442 88.9033C216.732 89.6136 215.864 89.9688 214.838 89.9688C212.312 89.9688 211.049 87.5614 211.049 82.7467L210.93 62.5009C210.851 56.4232 210.812 49.6352 210.812 42.1367C210.812 39.6109 210.93 35.9407 211.167 31.1259C211.404 26.1532 211.522 22.4829 211.522 20.115C211.522 16.4053 212.943 13.4848 215.785 11.3537V12.0641C216.258 11.9062 216.574 11.8273 216.732 11.8273C218.547 11.8273 220.836 14.9845 223.599 21.299C225.809 26.3506 227.782 31.6784 229.519 37.2825C231.334 42.8866 233.702 50.8586 236.622 61.1985L237.806 65.4608C239.622 71.8542 241.003 76.4322 241.95 79.1948C243.529 62.2246 244.318 42.1762 244.318 19.0494V17.5103C244.239 17.0367 244.2 16.5237 244.2 15.9711C244.2 13.6032 245.147 12.4193 247.041 12.4193C248.146 12.4193 248.975 12.8534 249.528 13.7216C250.159 14.5899 250.475 15.6949 250.475 17.0367V25.9164C250.317 38.0718 249.843 51.2532 249.054 65.4608C248.265 79.6684 247.318 87.6798 246.213 89.4952C243.924 90.1267 242.503 90.4424 241.95 90.4424Z" fill="#6B488B"/>
<path d="M281.674 91.0344C279.464 91.0344 277.451 90.6397 275.636 89.8504C273.82 88.9822 272.281 87.8772 271.018 86.5353C269.992 85.4303 269.045 83.8122 268.177 81.6811C267.309 79.55 266.677 77.4978 266.283 75.5245C265.888 74.0248 265.572 71.8542 265.335 69.0127C265.099 66.1712 264.941 63.7243 264.862 61.6721V50.0693C264.862 45.4913 264.941 41.7421 265.099 38.8216C265.256 35.2697 265.769 31.5205 266.638 27.574C267.348 24.0221 268.572 20.9043 270.308 18.2207C271.966 15.537 274.294 13.6821 277.293 12.656C278.714 12.1035 280.372 11.8273 282.266 11.8273C285.66 11.8273 287.357 12.8139 287.357 14.7872C287.357 15.7344 286.962 16.5237 286.173 17.1551C285.463 17.7076 284.595 17.9839 283.568 17.9839C283.095 17.9839 282.661 17.9444 282.266 17.8655C281.95 17.7866 281.556 17.7471 281.082 17.7471C279.74 17.7471 278.556 18.4575 277.53 19.8782C276.504 21.299 275.636 23.2722 274.925 25.798C273.663 30.6917 272.794 36.0196 272.321 41.7815C272.005 47.1488 271.847 51.1348 271.847 53.7396C271.847 56.4232 271.966 60.0935 272.202 64.7504C272.518 69.0916 273.189 72.8803 274.215 76.1165C274.768 78.0108 275.399 79.55 276.109 80.7339C276.899 81.839 277.885 82.7861 279.069 83.5754C280.411 84.4437 281.792 84.8778 283.213 84.8778C287.002 84.8778 288.896 78.5633 288.896 65.9344V60.4882C288.344 60.2514 287.436 60.133 286.173 60.133H283.805C281.043 60.133 279.661 59.2253 279.661 57.4098C279.661 56.3048 280.017 55.476 280.727 54.9235C281.516 54.2921 282.503 53.9764 283.687 53.9764V54.0948H285.344C292.448 54.0948 296 55.3182 296 57.765C296 58.4754 295.803 59.8962 295.408 62.0273C294.934 63.9216 294.698 65.3424 294.698 66.2896C294.698 67.6314 294.816 69.7231 295.053 72.5646L295.29 78.8396C295.29 82.6283 293.948 85.6276 291.264 87.8377C288.659 89.9688 285.463 91.0344 281.674 91.0344Z" fill="#6B488B"/>
</svg>
