<svg width="293" height="248" viewBox="0 0 293 248" fill="none" xmlns="http://www.w3.org/2000/svg">
<path d="M1.64897 9.4602L21.9795 40.2145C22.5087 41.0149 22.1007 42.0986 21.1751 42.3515L4.01553 47.0391C2.92542 47.3369 2.61139 48.7321 3.46878 49.4683L24.0176 67.1108C24.7493 67.739 24.6481 68.9 23.8188 69.3923L0.884644 83.0055C0.00253558 83.5291 -0.0426697 84.7895 0.799663 85.375L21.9142 100.05C22.5461 100.489 22.709 101.354 22.2801 101.993L5.38238 127.165C4.75378 128.101 5.42484 129.36 6.55267 129.36H21.1238C22.0783 129.36 22.7568 130.289 22.4667 131.198L8.85253 173.868C8.47335 175.056 9.71117 176.115 10.8265 175.557L47.6028 157.138C48.3745 156.751 49.3091 157.143 49.575 157.964L54.419 172.924C54.6967 173.782 55.6974 174.162 56.4746 173.705L82.8196 158.207C83.9201 157.559 85.2455 158.592 84.8871 159.817L72.178 203.276C71.9141 204.178 72.5907 205.081 73.5308 205.081H91.4353C92.3548 205.081 93.0281 205.947 92.8012 206.838L82.9529 245.508C82.5636 247.036 84.5959 247.953 85.4838 246.649L122.573 192.189C123.23 191.225 122.498 189.927 121.334 189.988L107.968 190.693C106.883 190.75 106.144 189.609 106.64 188.641L122.346 158.052C122.771 157.223 123.87 157.028 124.555 157.66L152.727 183.639C153.421 184.279 154.534 184.069 154.949 183.222L165.115 162.431C165.515 161.613 166.574 161.383 167.277 161.961L197.356 186.694C198.076 187.286 199.162 187.029 199.54 186.177L207.936 167.254C208.287 166.462 209.263 166.171 209.99 166.642L238.87 185.333C239.678 185.856 240.76 185.434 241.001 184.502L244.053 172.653C244.261 171.849 245.114 171.397 245.896 171.678L290.945 187.888C292.227 188.349 293.353 186.903 292.591 185.773L270.349 152.784C269.881 152.09 270.117 151.144 270.855 150.751L283.675 143.93C284.457 143.514 284.666 142.488 284.109 141.799L261.138 113.376C260.61 112.722 260.767 111.755 261.475 111.302L281.262 98.6509C282.153 98.0811 282.123 96.7692 281.206 96.2416L261.496 84.9004C260.774 84.4847 260.568 83.5363 261.053 82.8585L280.018 56.3515C280.605 55.531 280.166 54.3774 279.181 54.1561L258.989 49.6155C258.086 49.4126 257.621 48.4102 258.048 47.5897L279.448 6.46829C280.057 5.29653 278.865 4.00498 277.648 4.5193L230.279 24.5435C229.221 24.9904 228.102 24.0539 228.355 22.9344L232.926 2.71102C233.198 1.50973 231.906 0.562428 230.842 1.18222L193.286 23.0536C192.408 23.565 191.293 23.0074 191.176 21.9981L189.238 5.30191C189.116 4.25108 187.923 3.70415 187.047 4.29757L156.48 25.0094C155.955 25.3656 155.256 25.3264 154.773 24.9136L133.201 6.45659C132.571 5.91772 131.615 6.03602 131.135 6.7121L119.507 23.1043C119.091 23.6919 118.298 23.8706 117.669 23.5188L86.8084 6.24439C86.0614 5.82628 85.1173 6.16505 84.8066 6.96265L78.1386 24.0776C77.8245 24.8839 76.8647 25.2194 76.1166 24.7843L48.9224 8.96788C48.056 8.46396 46.9552 8.99991 46.8176 9.99272L44.9083 23.7621C44.7797 24.6895 43.7993 25.2361 42.9428 24.8579L3.39419 7.39351C2.10698 6.82508 0.872995 8.28637 1.64897 9.4602Z" fill="#9AE6EA"/>
<path d="M120.657 23.9198L119.507 23.1043L120.657 23.9198L132.285 7.5276L153.857 25.9846L154.773 24.9136L153.857 25.9846C154.822 26.8102 156.22 26.8887 157.271 26.1763L187.838 5.46445L189.776 22.1607C190.01 24.1793 192.239 25.2943 193.995 24.2717L193.286 23.0536L193.995 24.2716L231.551 2.40026L226.98 22.6236C226.474 24.8627 228.713 26.7355 230.827 25.8418L278.197 5.8176L256.797 46.939C255.943 48.58 256.875 50.5849 258.679 50.9907L278.872 55.5313L259.907 82.0383C258.937 83.394 259.349 85.2907 260.793 86.122L280.503 97.4633L260.715 110.115C259.3 111.02 258.985 112.955 260.041 114.262L283.013 142.685L270.193 149.507C268.717 150.293 268.245 152.184 269.18 153.572L291.422 186.561L246.373 170.352C244.81 169.789 243.103 170.693 242.688 172.301L239.636 184.15L210.756 165.459C209.302 164.517 207.35 165.098 206.648 166.682L198.251 185.606L168.172 160.873C166.766 159.716 164.649 160.176 163.849 161.812L153.683 182.603L125.511 156.624C124.14 155.36 121.943 155.75 121.092 157.409L105.386 187.998C104.393 189.932 105.871 192.215 108.043 192.1L121.408 191.396L84.3188 245.856L94.1671 207.186C94.621 205.404 93.2744 203.671 91.4353 203.671L73.5309 203.671L86.24 160.213C86.9568 157.762 84.3059 155.697 82.1049 156.992L55.7599 172.49L50.916 157.53C50.3843 155.888 48.515 155.105 46.9716 155.878L10.1954 174.296L23.8095 131.626C24.3897 129.808 23.0327 127.951 21.1238 127.951H6.55267L23.4503 102.779C24.3082 101.501 23.9825 99.7712 22.7187 98.8928L1.60411 84.2176L24.5383 70.6043C26.1969 69.6198 26.3992 67.2978 24.9357 66.0413L4.38697 48.3988L21.5466 43.7112C23.3978 43.2055 24.2136 41.038 23.1553 39.4372L2.8248 8.68291L42.3734 26.1473C44.0864 26.9037 46.0473 25.8105 46.3045 23.9556L48.2137 10.1863L75.408 26.0028C76.9041 26.8729 78.8237 26.2019 79.452 24.5893L86.1199 7.47434L116.981 24.7487C118.238 25.4524 119.823 25.0949 120.657 23.9198Z" stroke="black" stroke-opacity="0.1" stroke-width="2.81905"/>
</svg>
