<svg width="879" height="744" viewBox="0 0 879 744" fill="none" xmlns="http://www.w3.org/2000/svg">
<g clip-path="url(#clip0_1105_2331)">
<path d="M4.94622 28.3795L65.9378 120.642C67.5254 123.044 66.3014 126.295 63.5246 127.053L12.0459 141.116C8.77557 142.01 7.83348 146.195 10.4056 148.404L72.0521 201.331C74.2472 203.216 73.9436 206.699 71.4557 208.176L2.65324 249.015C0.00691348 250.586 -0.128702 254.367 2.3983 256.124L65.7419 300.149C67.6376 301.466 68.1263 304.061 66.8396 305.978L16.1464 381.494C14.2606 384.302 16.2738 388.079 19.6573 388.079H63.3707C66.2342 388.079 68.2697 390.866 67.3994 393.593L26.5569 521.603C25.4194 525.167 29.1328 528.344 32.4788 526.67L142.808 471.413C145.123 470.252 147.927 471.428 148.724 473.891L163.256 518.771C164.089 521.345 167.092 522.485 169.423 521.114L248.458 474.62C251.76 472.676 255.736 475.775 254.661 479.45L216.533 609.827C215.742 612.533 217.771 615.242 220.592 615.242H274.305C277.064 615.242 279.084 617.84 278.403 620.513L248.858 736.523C247.69 741.107 253.787 743.858 256.451 739.946L367.718 576.566C369.689 573.674 367.493 569.78 364.001 569.963L323.903 572.078C320.648 572.249 318.431 568.826 319.919 565.922L367.037 474.155C368.312 471.668 371.609 471.083 373.664 472.979L458.18 550.916C460.262 552.836 463.601 552.206 464.846 549.665L495.344 487.292C496.544 484.838 499.721 484.148 501.83 485.882L592.067 560.081C594.227 561.857 597.485 561.086 598.619 558.53L623.807 501.761C624.86 499.385 627.788 498.512 629.969 499.925L716.609 555.998C719.033 557.567 722.279 556.301 723.002 553.505L732.158 517.958C732.782 515.546 735.341 514.19 737.687 515.033L872.834 563.663C876.68 565.046 880.058 560.708 877.772 557.318L811.046 458.351C809.642 456.269 810.35 453.431 812.564 452.252L851.024 431.789C853.37 430.541 853.997 427.463 852.326 425.396L783.413 340.127C781.829 338.165 782.3 335.264 784.424 333.905L843.785 295.952C846.458 294.242 846.368 290.307 843.617 288.724L784.487 254.7C782.321 253.453 781.703 250.608 783.158 248.574L840.053 169.053C841.814 166.592 840.497 163.131 837.542 162.467L776.966 148.845C774.257 148.237 772.862 145.229 774.143 142.768L838.343 19.4038C840.17 15.8885 836.594 12.0138 832.943 13.5568L690.836 73.6294C687.662 74.9701 684.305 72.1606 685.064 68.8021L698.777 8.13196C699.593 4.52809 695.717 1.68618 692.525 3.54556L579.857 69.1597C577.223 70.6939 573.878 69.0211 573.527 65.9932L567.713 15.9046C567.347 12.7521 563.768 11.1113 561.14 12.8916L469.439 75.0271C467.864 76.0957 465.767 75.9781 464.318 74.7397L399.602 19.3687C397.712 17.7521 394.844 18.107 393.404 20.1352L358.52 69.3118C357.272 71.0746 354.893 71.6107 353.006 70.5553L260.425 18.7321C258.184 17.4777 255.351 18.494 254.419 20.8868L234.415 72.2317C233.473 74.6506 230.593 75.6571 228.349 74.3518L146.767 26.9025C144.167 25.3908 140.865 26.9986 140.452 29.9771L134.724 71.2852C134.338 74.0674 131.397 75.7072 128.828 74.5726L10.1819 22.1794C6.32025 20.4741 2.61829 24.858 4.94622 28.3795Z" fill="#9AE6EA"/>
<path d="M361.972 71.7598L358.522 69.3133M361.972 71.7598L396.856 22.5832L461.572 77.9542M361.972 71.7598C359.47 75.2851 354.715 76.3576 350.944 74.2465L258.361 22.4234L238.357 73.7683C236.472 78.6061 230.713 80.6191 226.225 78.0088L144.642 30.5593L138.915 71.8672C138.143 77.4319 132.26 80.7115 127.121 78.4423L8.47555 26.0491L69.467 118.312C72.6419 123.114 70.1945 129.617 64.6409 131.134L13.1621 145.197L74.8082 198.124C79.1987 201.894 78.5918 208.86 73.616 211.813L4.81348 252.653L68.1572 296.679C71.9486 299.314 72.9257 304.503 70.352 308.337L19.6592 383.853H63.3725C69.0992 383.853 73.1702 389.424 71.4296 394.878L30.5873 522.888L140.916 467.634C145.546 465.315 151.154 467.664 152.749 472.59L167.281 517.47L246.316 470.976C252.919 467.091 260.872 473.286 258.721 480.639L220.594 611.013H274.307C279.824 611.013 283.864 616.212 282.502 621.558L252.958 737.568L364.225 574.188L324.13 576.3C317.614 576.645 313.18 569.796 316.159 563.994L363.277 472.227C365.83 467.25 372.421 466.08 376.534 469.872L461.05 547.809L491.548 485.436C493.948 480.528 500.299 479.148 504.517 482.619L594.754 556.818L619.945 500.046C622.051 495.294 627.907 493.551 632.269 496.377L718.909 552.45L728.065 516.903C729.31 512.079 734.431 509.367 739.12 511.056L874.267 559.683L807.541 460.716C804.736 456.552 806.152 450.879 810.58 448.521L849.04 428.055L780.124 342.786C776.956 338.865 777.901 333.06 782.146 330.345L841.51 292.39L782.38 258.366C778.048 255.872 776.812 250.182 779.722 246.115L836.617 166.594L776.038 152.972C770.626 151.755 767.83 145.74 770.392 140.817L834.592 17.4532L692.482 77.5258C686.14 80.2069 679.423 74.5885 680.941 67.8712L694.654 7.20117L581.986 72.8155M461.572 77.9542L464.32 74.7412M461.572 77.9542C464.467 80.431 468.661 80.6665 471.814 78.5293L563.515 16.3937L569.329 66.4825C570.031 72.5383 576.718 75.8833 581.986 72.8155M581.986 72.8155L579.859 69.1612" stroke="black" stroke-opacity="0.1" stroke-width="8.45715"/>
</g>
<defs>
<clipPath id="clip0_1105_2331">
<rect width="879" height="744" fill="white"/>
</clipPath>
</defs>
</svg>
