<svg width="888" height="348" viewBox="0 0 888 348" fill="none" xmlns="http://www.w3.org/2000/svg">
<path d="M843.6 1.03711H44.4C19.8786 1.03711 0 20.9157 0 45.4371V302.957C0 327.479 19.8786 347.357 44.4 347.357H843.6C868.121 347.357 888 327.479 888 302.957V45.4371C888 20.9157 868.121 1.03711 843.6 1.03711Z" fill="#F4ABAB"/>
<path d="M843.6 1.03711H44.4C19.8786 1.03711 0 20.9157 0 45.4371V302.957C0 327.479 19.8786 347.357 44.4 347.357H843.6C868.121 347.357 888 327.479 888 302.957V45.4371C888 20.9157 868.121 1.03711 843.6 1.03711Z" fill="black" fill-opacity="0.05"/>
<path d="M821.396 45.4365H66.5965C54.3358 45.4365 44.3965 55.3758 44.3965 67.6365V156.437C44.3965 168.697 54.3358 178.637 66.5965 178.637H821.396C833.657 178.637 843.596 168.697 843.596 156.437V67.6365C843.596 55.3758 833.657 45.4365 821.396 45.4365Z" fill="white" fill-opacity="0.4"/>
<path d="M88.7965 302.957C113.318 302.957 133.196 283.079 133.196 258.557C133.196 234.036 113.318 214.157 88.7965 214.157C64.275 214.157 44.3965 234.036 44.3965 258.557C44.3965 283.079 64.275 302.957 88.7965 302.957Z" fill="white" fill-opacity="0.4"/>
<path d="M207.197 302.957C231.718 302.957 251.597 283.079 251.597 258.557C251.597 234.036 231.718 214.157 207.197 214.157C182.675 214.157 162.797 234.036 162.797 258.557C162.797 283.079 182.675 302.957 207.197 302.957Z" fill="white" fill-opacity="0.4"/>
<path d="M325.597 302.957C350.119 302.957 369.997 283.079 369.997 258.557C369.997 234.036 350.119 214.157 325.597 214.157C301.076 214.157 281.197 234.036 281.197 258.557C281.197 283.079 301.076 302.957 325.597 302.957Z" fill="white" fill-opacity="0.4"/>
<path d="M443.998 302.957C468.519 302.957 488.398 283.079 488.398 258.557C488.398 234.036 468.519 214.157 443.998 214.157C419.476 214.157 399.598 234.036 399.598 258.557C399.598 283.079 419.476 302.957 443.998 302.957Z" fill="white" fill-opacity="0.4"/>
<path d="M562.404 302.957C586.925 302.957 606.804 283.079 606.804 258.557C606.804 234.036 586.925 214.157 562.404 214.157C537.882 214.157 518.004 234.036 518.004 258.557C518.004 283.079 537.882 302.957 562.404 302.957Z" fill="white" fill-opacity="0.4"/>
<path d="M680.799 302.957C705.321 302.957 725.199 283.079 725.199 258.557C725.199 234.036 705.321 214.157 680.799 214.157C656.278 214.157 636.399 234.036 636.399 258.557C636.399 283.079 656.278 302.957 680.799 302.957Z" fill="white" fill-opacity="0.4"/>
<path d="M799.199 302.957C823.72 302.957 843.599 283.079 843.599 258.557C843.599 234.036 823.72 214.157 799.199 214.157C774.677 214.157 754.799 234.036 754.799 258.557C754.799 283.079 774.677 302.957 799.199 302.957Z" fill="white" fill-opacity="0.4"/>
</svg>
