<svg width="888" height="414" viewBox="0 0 888 414" fill="none" xmlns="http://www.w3.org/2000/svg">
<g clip-path="url(#clip0_1105_2138)">
<path d="M41.0301 403.598C32.6136 403.598 25.2493 402.014 18.937 398.852C13.0454 395.687 10.0997 391.295 10.0997 385.67C19.3578 377.936 23.9868 357.374 23.9868 323.981C23.9868 303.944 22.0931 274.769 18.3057 236.456C14.0975 199.899 11.9934 171.075 11.9934 149.985L13.2559 120.986C13.6767 112.55 13.8871 102.883 13.8871 91.9866C13.8871 82.1445 11.783 69.666 7.57479 54.5511C2.52493 38.7333 0 27.661 0 21.3339C0 9.03124 16.2016 2.87988 48.6048 2.87988H58.0734C80.7978 2.87988 100.576 8.67973 117.409 20.2794C130.875 30.1215 142.238 44.3574 151.495 62.9874C157.808 75.6414 163.279 93.2169 167.908 115.713C170.433 135.398 171.695 150.864 171.695 162.112V203.765C170.853 205.172 170.433 206.577 170.433 207.983C170.433 210.796 170.643 212.905 171.064 214.311C171.484 215.717 171.695 217.474 171.695 219.583C171.695 230.831 169.591 244.364 165.383 260.182C161.595 275.648 155.914 291.466 148.339 307.637C129.403 346.301 108.151 373.718 84.585 389.888C70.698 399.026 56.1795 403.598 41.0301 403.598ZM54.2859 373.016C69.8562 364.931 83.5329 353.333 95.316 338.216C107.099 322.751 116.146 305.702 122.459 287.072C133.821 252.625 139.502 217.826 139.502 182.675C139.502 163.694 137.398 142.955 133.19 120.458C128.561 98.6652 118.672 78.981 103.522 61.4055C96.3681 52.9695 87.3204 46.4667 76.3791 41.8971C65.4378 36.9759 53.0235 34.5153 39.1365 34.5153V35.0427C39.1365 66.678 41.6613 114.483 46.7112 178.457C51.7611 242.08 54.2859 290.236 54.2859 322.925V373.016Z" fill="#E06E51"/>
<path d="M322.501 412.56C311.56 412.56 301.459 409.575 292.202 403.599C282.944 397.974 275.369 390.24 269.478 380.4C257.274 358.956 249.699 335.583 246.753 310.272C242.966 286.371 241.072 263.347 241.072 241.202C241.072 236.984 241.283 233.469 241.703 230.657V221.166C241.703 219.409 241.493 218.53 241.072 218.53V209.039L241.703 172.131C242.124 160.883 243.808 142.956 246.753 118.351C248.858 101.479 253.697 85.1337 261.272 69.3159C264.218 62.2857 268.005 57.0132 272.634 53.4981C277.263 49.6317 282.523 47.6982 288.415 47.6982C305.248 47.6982 320.398 50.3346 333.862 55.6071C347.329 60.5283 358.693 67.5585 367.951 76.6974C376.366 85.4853 383.521 96.382 389.413 109.388C395.302 122.042 399.511 135.575 402.037 149.987C404.56 164.75 405.823 180.392 405.823 196.913V201.131C405.823 212.027 406.033 221.87 406.456 230.657L407.086 260.711C407.086 361.944 378.892 412.56 322.501 412.56ZM319.975 390.417C327.55 390.417 334.495 387.957 340.807 383.034C347.119 377.763 351.958 370.731 355.324 361.944C363.322 344.019 368.161 324.684 369.844 303.945C371.947 286.019 373 270.553 373 257.547C373 241.73 371.527 220.991 368.581 195.331C366.055 168.265 364.795 148.053 364.795 134.696V125.205C363.952 111.848 358.48 100.248 348.382 90.4062C338.704 80.5641 326.71 75.6429 312.403 75.6429C298.094 75.6429 288.625 82.4973 283.996 96.2061C279.788 107.103 277.684 121.163 277.684 138.387C277.684 145.065 277.894 150.689 278.315 155.259V169.495L277.052 193.749C276.211 201.131 275.79 209.215 275.79 218.003C275.79 236.984 276.421 255.79 277.684 274.42C279.367 300.783 283.575 326.442 290.308 351.399C297.041 377.412 306.931 390.417 319.975 390.417Z" fill="#E06E51"/>
<path d="M648.44 404.124C643.391 404.124 639.602 403.072 637.079 400.963C634.553 398.503 632.66 394.458 631.397 388.836L627.608 378.817V376.179C627.608 364.581 613.091 325.035 584.054 257.548C555.437 190.059 532.925 140.145 516.512 107.806V373.017L519.038 376.708C519.458 377.413 520.301 378.643 521.561 380.401C522.824 382.156 523.457 383.914 523.457 385.672C523.457 390.241 521.561 394.107 517.775 397.272C513.986 400.434 509.357 402.016 503.888 402.016C490.421 402.016 483.689 391.296 483.689 369.852L483.056 279.693C482.636 252.627 482.426 222.397 482.426 189.004C482.426 177.756 483.056 161.411 484.319 139.969C485.582 117.824 486.212 101.479 486.212 90.9341C486.212 74.4134 493.787 61.4075 508.937 51.917V55.0805C511.463 54.3773 513.146 54.026 513.986 54.026C523.667 54.026 535.871 68.0861 550.598 96.2066C562.382 118.703 572.903 142.43 582.161 167.386C591.839 192.343 604.463 227.845 620.033 273.893L626.348 292.874C636.026 321.345 643.391 341.733 648.44 354.036C656.855 278.462 661.064 189.18 661.064 86.1887V79.3343C660.644 77.2253 660.434 74.9405 660.434 72.4799C660.434 61.9349 665.483 56.6621 675.584 56.6621C681.473 56.6621 685.892 58.5956 688.838 62.462C692.204 66.3287 693.887 71.2496 693.887 77.2253V116.77C693.047 170.901 690.521 229.603 686.315 292.874C682.106 356.146 677.057 391.822 671.165 399.906C658.961 402.721 651.386 404.124 648.44 404.124Z" fill="#E06E51"/>
<path d="M807.202 409.399C801.733 409.399 796.684 407.818 792.055 404.653C787.846 401.491 785.53 397.624 785.11 393.055V368.8C784.69 365.635 784.48 361.945 784.48 357.727C784.48 350.347 783.847 339.097 782.584 323.983L781.324 290.239C781.324 273.015 781.954 247.355 783.217 213.259C784.9 182.678 785.74 157.018 785.74 136.279C785.74 131.358 785.11 123.976 783.847 114.134C782.584 103.94 781.954 96.5588 781.954 91.9892C781.954 67.0322 790.792 54.5537 808.465 54.5537C822.352 54.5537 838.345 56.8385 856.438 61.4081C874.957 65.9777 884.215 71.426 884.215 77.7533C884.215 81.2681 882.319 84.6074 878.533 87.7712C875.167 90.5831 870.958 92.8679 865.909 94.6253C848.233 89.3528 832.243 85.8377 817.933 84.0803C818.356 89.3528 818.566 96.9101 818.566 106.753C818.566 120.813 818.356 133.467 817.933 144.715C816.673 161.587 816.04 174.241 816.04 182.678L817.933 191.114L828.034 190.587C831.4 190.235 835.609 190.059 840.658 190.059C860.857 190.059 870.958 194.98 870.958 204.823C870.958 208.689 869.065 212.029 865.276 214.84C861.49 217.301 856.651 218.531 850.759 218.531C843.184 218.531 837.292 218.18 833.083 217.477H817.303C818.146 226.616 818.566 239.973 818.566 257.548C818.566 275.124 818.356 290.941 817.933 305.002C816.673 326.443 816.04 342.436 816.04 352.981C816.04 372.667 816.46 382.51 817.303 382.51L838.135 381.982C845.287 381.631 853.915 381.454 864.013 381.454C880.006 381.454 888.001 385.672 888.001 394.108C888.001 399.028 885.265 402.721 879.796 405.181C874.744 407.992 868.432 409.399 860.857 409.399H807.202Z" fill="#E06E51"/>
</g>
<defs>
<clipPath id="clip0_1105_2138">
<rect width="888" height="414" fill="white"/>
</clipPath>
</defs>
</svg>
