<svg width="296" height="138" viewBox="0 0 296 138" fill="none" xmlns="http://www.w3.org/2000/svg">
<path d="M13.6767 134.533C10.8712 134.533 8.41642 134.005 6.31232 132.951C4.34848 131.896 3.36657 130.432 3.36657 128.557C6.45259 125.979 7.9956 119.125 7.9956 107.994C7.9956 101.315 7.36437 91.5903 6.10191 78.819C4.69917 66.6334 3.9978 57.0256 3.9978 49.9955L4.41862 40.3291C4.5589 37.517 4.62903 34.2949 4.62903 30.6627C4.62903 27.382 3.92766 23.2225 2.52493 18.1842C0.841642 12.9116 0 9.22083 0 7.11179C0 3.0109 5.40054 0.960449 16.2016 0.960449H19.3578C26.9326 0.960449 33.5254 2.89373 39.1364 6.76029C43.6251 10.041 47.4125 14.7863 50.4985 20.9963C52.6026 25.2143 54.4262 31.0728 55.9692 38.5716C56.8109 45.133 57.2317 50.2884 57.2317 54.0378V67.9223C56.9511 68.391 56.8109 68.8596 56.8109 69.3283C56.8109 70.2657 56.881 70.9687 57.0213 71.4374C57.1615 71.906 57.2317 72.4919 57.2317 73.1949C57.2317 76.9443 56.5303 81.4553 55.1276 86.7279C53.8651 91.8833 51.9714 97.1559 49.4465 102.546C43.1342 115.434 36.0503 124.573 28.195 129.963C23.566 133.009 18.7265 134.533 13.6767 134.533ZM18.0953 124.339C23.2854 121.644 27.8443 117.778 31.772 112.739C35.6997 107.584 38.7155 101.901 40.8197 95.6913C44.607 84.2087 46.5007 72.609 46.5007 60.8922C46.5007 54.5651 45.7994 47.6521 44.3966 40.1533C42.8536 32.8889 39.5572 26.3275 34.5073 20.469C32.1227 17.657 29.1068 15.4894 25.4597 13.9662C21.8126 12.3258 17.6745 11.5056 13.0455 11.5056V11.6814C13.0455 22.2265 13.8871 38.1615 15.5704 59.4862C17.2537 80.6937 18.0953 96.7458 18.0953 107.642V124.339Z" fill="#E06E51"/>
<path d="M107.5 137.52C103.853 137.52 100.486 136.525 97.4004 134.533C94.3143 132.658 91.7894 130.08 89.8256 126.8C85.7576 119.652 83.2327 111.861 82.2508 103.424C80.9883 95.4569 80.3571 87.7824 80.3571 80.4008C80.3571 78.9947 80.4273 77.823 80.5675 76.8857V73.7221C80.5675 73.1363 80.4974 72.8434 80.3571 72.8434V69.6798L80.5675 57.3771C80.7078 53.6277 81.2689 47.6521 82.2508 39.4503C82.9522 33.8262 84.5653 28.3779 87.0903 23.1053C88.0722 20.7619 89.3346 19.0044 90.8776 17.8327C92.4207 16.5439 94.1741 15.8994 96.1379 15.8994C101.749 15.8994 106.799 16.7782 111.287 18.5357C115.776 20.1761 119.564 22.5195 122.65 25.5658C125.455 28.4951 127.84 32.1273 129.804 36.4625C131.767 40.6806 133.17 45.1916 134.012 49.9955C134.853 54.9166 135.274 60.1306 135.274 65.6375V67.0435C135.274 70.6758 135.344 73.9565 135.485 76.8857L135.695 86.9036C135.695 120.648 126.297 137.52 107.5 137.52ZM106.658 130.139C109.183 130.139 111.498 129.319 113.602 127.678C115.706 125.921 117.319 123.577 118.441 120.648C121.107 114.673 122.72 108.228 123.281 101.315C123.982 95.3397 124.333 90.1843 124.333 85.8491C124.333 80.5765 123.842 73.6636 122.86 65.1102C122.018 56.0883 121.598 49.3511 121.598 44.8987V41.7351C121.317 37.2827 119.493 33.4161 116.127 30.1354C112.901 26.8547 108.903 25.2143 104.134 25.2143C99.3642 25.2143 96.208 27.4991 94.665 32.0687C93.2623 35.7009 92.5609 40.3877 92.5609 46.1289C92.5609 48.3551 92.6311 50.2298 92.7713 51.753V56.4984L92.3505 64.583C92.07 67.0435 91.9297 69.7384 91.9297 72.6676C91.9297 78.9947 92.1401 85.2632 92.5609 91.4732C93.122 100.261 94.5248 108.814 96.7691 117.133C99.0135 125.804 102.31 130.139 106.658 130.139Z" fill="#E06E51"/>
<path d="M216.146 134.708C214.463 134.708 213.2 134.357 212.359 133.654C211.517 132.834 210.886 131.486 210.465 129.612L209.202 126.272V125.393C209.202 121.527 204.363 108.345 194.684 85.8491C185.145 63.3527 177.641 46.7148 172.17 35.9353V124.339L173.012 125.569C173.152 125.804 173.433 126.214 173.853 126.8C174.274 127.385 174.485 127.971 174.485 128.557C174.485 130.08 173.853 131.369 172.591 132.424C171.328 133.478 169.785 134.005 167.962 134.005C163.473 134.005 161.229 130.432 161.229 123.284L161.018 93.2307C160.878 84.2087 160.808 74.1322 160.808 63.0012C160.808 59.2518 161.018 53.8035 161.439 46.6562C161.86 39.2746 162.07 33.8262 162.07 30.3112C162.07 24.8043 164.595 20.469 169.645 17.3055V18.36C170.487 18.1256 171.048 18.0085 171.328 18.0085C174.555 18.0085 178.623 22.6952 183.532 32.0687C187.46 39.5675 190.967 47.4764 194.053 55.7953C197.279 64.1143 201.487 75.9483 206.677 91.2974L208.782 97.6245C212.008 107.115 214.463 113.911 216.146 118.012C218.951 92.8206 220.354 63.0598 220.354 28.7294V26.4446C220.214 25.7416 220.144 24.98 220.144 24.1598C220.144 20.6448 221.827 18.8872 225.194 18.8872C227.157 18.8872 228.63 19.5317 229.612 20.8205C230.734 22.1094 231.295 23.7497 231.295 25.7416V38.9231C231.015 56.967 230.173 76.5342 228.771 97.6245C227.368 118.715 225.685 130.607 223.721 133.302C219.653 134.24 217.128 134.708 216.146 134.708Z" fill="#E06E51"/>
<path d="M269.067 136.466C267.244 136.466 265.561 135.939 264.018 134.884C262.615 133.83 261.843 132.541 261.703 131.018V122.933C261.563 121.878 261.493 120.648 261.493 119.242C261.493 116.782 261.282 113.032 260.861 107.994L260.441 96.7458C260.441 91.0045 260.651 82.4512 261.072 71.0858C261.633 60.8922 261.913 52.3389 261.913 45.4259C261.913 43.7856 261.703 41.325 261.282 38.0443C260.861 34.6464 260.651 32.1859 260.651 30.6627C260.651 22.3437 263.597 18.1842 269.488 18.1842C274.117 18.1842 279.448 18.9458 285.479 20.469C291.652 21.9922 294.738 23.8083 294.738 25.9174C294.738 27.089 294.106 28.2021 292.844 29.2567C291.722 30.194 290.319 30.9556 288.636 31.5414C282.744 29.7839 277.414 28.6122 272.644 28.0264C272.785 29.7839 272.855 32.303 272.855 35.5838C272.855 40.2705 272.785 44.4886 272.644 48.238C272.224 53.8621 272.013 58.0801 272.013 60.8922L272.644 63.7042L276.011 63.5285C277.133 63.4113 278.536 63.3527 280.219 63.3527C286.952 63.3527 290.319 64.9931 290.319 68.2738C290.319 69.5627 289.688 70.6758 288.425 71.6131C287.163 72.4333 285.55 72.8434 283.586 72.8434C281.061 72.8434 279.097 72.7262 277.694 72.4919H272.434C272.715 75.5383 272.855 79.9907 272.855 85.8491C272.855 91.7075 272.785 96.9801 272.644 101.667C272.224 108.814 272.013 114.145 272.013 117.66C272.013 124.222 272.153 127.503 272.434 127.503L279.378 127.327C281.762 127.21 284.638 127.151 288.004 127.151C293.335 127.151 296 128.557 296 131.369C296 133.009 295.088 134.24 293.265 135.06C291.581 135.997 289.477 136.466 286.952 136.466H269.067Z" fill="#E06E51"/>
</svg>
