<svg width="1008" height="414" viewBox="0 0 1008 414" fill="none" xmlns="http://www.w3.org/2000/svg">
<path d="M105.772 275.1C118.84 275.1 132.726 267.584 144.569 258.19C156.004 248.796 189.083 207.837 191.942 200.321C193.984 194.685 191.533 188.673 186.224 186.042C173.156 179.654 167.847 190.176 155.187 207.085C141.71 223.244 127.825 241.656 111.898 248.42C105.364 251.051 100.055 249.547 96.3792 243.911C89.4366 233.765 91.0704 212.346 93.5205 187.169C94.3374 181.533 122.108 158.987 142.119 136.065C154.779 121.41 165.397 106.003 173.564 90.2208C176.423 84.5844 180.099 82.7055 186.224 83.0811C206.235 83.8329 229.514 85.3359 228.288 69.9294C227.471 58.6563 213.995 57.9045 195.209 57.9045C190.308 57.9045 189.9 57.153 190.717 52.644C195.209 33.4797 198.476 26.34 191.942 13.1881C187.041 3.41804 175.198 -0.715438 163.355 3.41804C147.019 9.05456 125.783 32.7279 114.757 50.7651C111.49 56.0259 108.223 57.9045 101.688 57.5289C94.3374 57.153 84.1278 57.5289 51.4566 57.5289C23.6864 57.5289 0 54.5226 0 69.9294C0 74.8143 2.45032 78.9477 8.57613 81.5781C16.3355 84.5844 95.5626 80.4507 95.5626 84.96C95.5626 87.5904 84.5361 110.513 76.3683 138.695C66.9753 172.139 63.3 202.2 64.5252 230.383C65.7504 254.432 81.2691 275.1 105.772 275.1ZM157.229 57.5289C146.611 57.9045 143.752 57.9045 143.752 56.4015C146.203 51.8922 167.439 25.9642 167.439 32.3523C167.439 38.3646 163.763 56.4015 157.229 57.5289ZM105.772 136.816C111.081 118.779 115.982 105.252 124.558 87.5904C126.6 83.8329 128.642 83.0811 136.81 83.0811C138.851 83.0811 145.794 83.0811 145.794 83.8326C145.794 90.5967 105.772 136.816 105.772 136.816Z" fill="#B83A48"/>
<path d="M250.931 275.474C259.916 275.474 264 270.214 264 260.068C264 243.91 268.084 227.751 272.984 211.593C279.927 189.047 289.728 167.253 299.938 143.579C304.839 132.682 308.922 121.033 297.488 116.148C291.77 113.517 284.828 115.021 280.335 119.906C272.984 127.797 256.649 154.101 241.538 178.15C224.386 204.83 198.25 244.285 186.406 244.285C180.689 244.285 198.25 184.914 206.826 164.998C210.093 156.355 221.528 134.937 220.711 127.421C219.894 116.899 206.417 113.142 199.475 119.53C189.674 128.548 174.971 169.131 168.029 192.429C159.044 223.994 150.468 258.941 172.521 270.589C185.998 276.978 199.883 270.965 212.543 260.068C219.894 254.055 225.611 245.789 234.188 235.643L240.313 228.503L239.088 238.649C237.455 251.425 235.821 263.826 240.313 269.462C243.172 273.22 246.848 275.474 250.931 275.474Z" fill="#B83A48"/>
<path d="M342.222 273.221C365.907 273.221 405.522 247.669 407.565 229.631C407.565 223.619 404.706 217.983 395.721 217.983C380.202 218.358 361.824 248.796 343.446 248.42C330.786 248.42 324.252 234.892 325.887 219.11C326.295 215.352 327.927 213.849 331.605 212.722C354.474 205.582 374.484 193.933 393.678 171.763C399.804 164.623 404.298 156.732 406.338 148.465C411.648 128.549 396.129 111.64 374.076 112.391C333.237 114.27 297.299 182.284 298.524 230.759C299.341 252.178 316.494 273.221 342.222 273.221ZM338.139 183.412C337.32 183.787 335.688 184.163 336.504 182.284C345.081 166.502 352.023 154.102 362.232 144.707C369.993 137.568 379.386 135.313 379.386 141.701C379.386 153.726 356.925 174.769 338.139 183.412Z" fill="#B83A48"/>
<path d="M470.268 274.348C508.248 274.348 536.427 255.184 555.21 226.625C569.913 204.079 583.8 167.254 583.8 145.835C583.8 131.555 580.53 119.155 568.281 116.149C563.787 115.022 558.48 115.397 554.394 118.028C551.535 119.907 496.812 163.12 496.812 163.12C490.278 167.629 483.336 171.011 475.575 173.266C448.623 180.781 423.711 196.564 414.726 218.358C402.474 249.547 429.021 274.348 470.268 274.348ZM536.835 167.629C536.016 167.629 535.2 167.254 536.427 166.126C543.369 159.738 545.82 158.235 551.127 153.35C556.437 148.465 555.621 151.096 554.802 156.356C552.762 170.635 547.044 167.629 536.835 167.629ZM467.001 248.796C449.439 249.547 435.147 239.777 440.862 226.249C446.172 214.225 462.099 203.703 479.661 198.442C493.953 193.933 541.734 190.176 541.734 194.685C541.734 197.691 534.792 209.34 531.933 213.473C516.822 236.395 495.996 247.293 467.001 248.796Z" fill="#B83A48"/>
<path d="M682.698 272.471C692.907 272.471 697.401 264.956 695.358 252.931C693.315 239.779 694.542 226.251 695.358 214.978C695.766 208.214 698.217 202.578 702.3 197.317L723.537 169.886C754.167 130.054 776.22 95.4834 789.288 54.1488C792.963 42.1242 792.963 27.0932 782.346 20.7052C764.784 10.5594 743.955 29.3479 729.255 47.0091C708.426 71.8097 703.935 88.3437 689.232 121.787C686.781 126.672 686.781 126.672 681.474 125.921C666.771 123.666 652.887 127.048 640.227 137.194C608.781 161.995 583.461 212.348 588.768 246.543C591.219 264.58 609.189 275.101 629.199 266.459C640.635 261.198 646.353 256.313 666.771 239.779C668.814 255.186 668.406 272.471 682.698 272.471ZM711.285 141.327C723.129 106.381 743.955 59.4095 760.701 52.6457C760.701 60.161 747.222 87.2165 736.605 103.75C727.62 117.278 715.368 135.691 712.92 139.073L711.285 141.327ZM616.947 242.785C613.68 241.658 614.907 230.385 616.947 223.621C622.257 203.705 631.242 186.044 643.494 170.637C649.212 163.498 656.562 155.982 666.771 151.849C673.305 149.218 677.388 156.358 675.756 167.631C673.305 183.414 673.713 192.432 661.872 204.457C637.368 230.385 621.441 245.04 616.947 242.785Z" fill="#B83A48"/>
<path d="M839.523 276.98C848.097 276.98 852.999 272.471 850.548 257.065C844.83 220.615 850.548 195.814 861.168 155.982C865.251 141.327 854.223 125.545 835.437 122.914C787.248 116.527 743.55 176.274 734.157 231.136C731.301 247.294 737.016 267.21 752.127 272.471C765.603 277.356 778.263 268.338 789.291 258.192C802.767 245.791 816.651 222.494 821.961 216.481L821.553 238.276C821.553 246.919 821.553 254.434 824.004 265.707C825.636 274.726 831.354 276.98 839.523 276.98ZM761.928 245.04C759.888 245.04 760.704 234.518 761.928 229.633C769.281 201.075 781.53 176.65 803.175 158.613C811.752 151.473 820.737 148.091 830.538 148.091C832.989 148.091 835.029 149.97 832.989 151.849C815.835 167.631 774.588 245.04 761.928 245.04Z" fill="#B83A48"/>
<path d="M888.372 411.504C903.483 411.504 917.775 403.614 926.352 391.965C949.221 361.152 958.614 332.592 997.41 187.922C1005.99 153.727 1014.97 133.811 999.861 126.296C986.385 119.907 972.501 140.199 956.982 164.624C952.488 171.388 931.662 203.704 924.72 212.723C917.367 222.493 912.06 230.008 903.891 237.523C900.624 240.53 902.256 230.008 902.667 227.378C908.382 190.928 919.818 168.382 929.211 136.065C931.254 129.302 927.576 122.538 921.042 120.283C914.508 118.028 907.974 121.41 903.891 127.799C902.256 130.053 887.556 174.77 883.062 189.8C874.896 217.607 866.319 259.694 890.007 267.961C903.483 272.47 915.327 263.827 925.944 252.93C934.113 245.039 941.463 235.644 950.04 222.868C954.939 215.353 960.249 208.589 965.148 201.449C959.841 223.996 947.589 269.84 945.546 275.476C944.73 278.106 944.322 279.61 941.871 280.361C899.4 293.137 850.8 346.497 858.153 387.078C860.601 400.23 871.221 411.504 888.372 411.504ZM884.697 377.31C885.105 359.649 905.115 325.452 932.07 313.053C940.647 308.919 916.143 358.896 906.75 373.926C899.808 384.825 884.697 392.34 884.697 377.31Z" fill="#B83A48"/>
</svg>
