<svg width="336" height="138" viewBox="0 0 336 138" fill="none" xmlns="http://www.w3.org/2000/svg">
<path d="M35.2574 91.7C39.6135 91.7 44.2419 89.1949 48.1896 86.0634C52.0013 82.932 63.0277 69.279 63.9806 66.7739C64.6613 64.8951 63.8445 62.891 62.0748 62.0142C57.7187 59.8848 55.949 63.392 51.729 69.0285C47.2367 74.4146 42.6084 80.5521 37.2993 82.8068C35.1213 83.6836 33.3516 83.1825 32.1264 81.3037C29.8122 77.9218 30.3568 70.7821 31.1735 62.3899C31.4458 60.5111 40.7026 52.9957 47.3729 45.355C51.5929 40.47 55.1322 35.3345 57.8548 30.0737C58.8077 28.1949 60.0329 27.5686 62.0748 27.6938C68.7451 27.9444 76.5045 28.4454 76.0961 23.3099C75.8238 19.5522 71.3316 19.3016 65.0696 19.3016C63.4361 19.3016 63.3 19.0511 63.5722 17.5481C65.0696 11.16 66.1587 8.78009 63.9806 4.39611C62.3471 1.13943 58.3993 -0.238396 54.4516 1.13943C49.0064 3.01827 41.9277 10.9094 38.2522 16.9218C37.1632 18.6754 36.0742 19.3016 33.8961 19.1764C31.4458 19.0511 28.0426 19.1764 17.1522 19.1764C7.89548 19.1764 0 18.1743 0 23.3099C0 24.9382 0.816774 26.316 2.85871 27.1928C5.44516 28.1949 31.8542 26.817 31.8542 28.3201C31.8542 29.1969 28.1787 36.8376 25.4561 46.2318C22.3251 57.3797 21.1 67.4002 21.5084 76.7944C21.9168 84.8109 27.0897 91.7 35.2574 91.7ZM52.4096 19.1764C48.8703 19.3016 47.9174 19.3016 47.9174 18.8006C48.7342 17.2975 55.8129 8.65483 55.8129 10.7842C55.8129 12.7883 54.5877 18.8006 52.4096 19.1764ZM35.2574 45.6055C37.0271 39.5932 38.6606 35.084 41.5193 29.1969C42.2 27.9444 42.8806 27.6938 45.6032 27.6938C46.2838 27.6938 48.598 27.6938 48.598 27.9443C48.598 30.199 35.2574 45.6055 35.2574 45.6055Z" fill="#B83A48"/>
<path d="M83.6438 91.8252C86.6386 91.8252 87.9999 90.0717 87.9999 86.6897C87.9999 81.3037 89.3612 75.9176 90.9948 70.5316C93.3089 63.0162 96.576 55.7513 99.9793 47.8602C101.613 44.2277 102.974 40.3448 99.1625 38.7164C97.2567 37.8396 94.9425 38.3407 93.4451 39.969C90.9948 42.5994 85.5496 51.3673 80.5128 59.3838C74.7954 68.277 66.0832 81.4289 62.1354 81.4289C60.2296 81.4289 66.0832 61.6384 68.9419 54.9998C70.0309 52.1189 73.8425 44.9793 73.5703 42.4741C73.298 38.9669 68.8057 37.7144 66.4915 39.8437C63.2245 42.8499 58.3238 56.3776 56.0096 64.1435C53.0148 74.6651 50.1561 86.314 57.507 90.1969C61.9993 92.3263 66.6277 90.3222 70.8477 86.6897C73.298 84.6856 75.2038 81.93 78.0625 78.548L80.1044 76.1682L79.6961 79.5501C79.1515 83.8088 78.607 87.9423 80.1044 89.8211C81.0573 91.0737 82.2825 91.8252 83.6438 91.8252Z" fill="#B83A48"/>
<path d="M114.074 91.0737C121.969 91.0737 135.174 82.5563 135.855 76.5439C135.855 74.5398 134.902 72.661 131.907 72.661C126.734 72.7862 120.608 82.932 114.482 82.8068C110.262 82.8068 108.084 78.2975 108.629 73.0367C108.765 71.7842 109.309 71.2832 110.535 70.9074C118.158 68.5275 124.828 64.6446 131.226 57.2544C133.268 54.8745 134.766 52.2441 135.446 49.4885C137.216 42.8499 132.043 37.2133 124.692 37.4639C111.079 38.0901 99.0997 60.7616 99.5081 76.9197C99.7804 84.0593 105.498 91.0737 114.074 91.0737ZM112.713 61.1374C112.44 61.2626 111.896 61.3879 112.168 60.7616C115.027 55.5008 117.341 51.3673 120.744 48.2359C123.331 45.8561 126.462 45.1045 126.462 47.2339C126.462 51.2421 118.975 58.2565 112.713 61.1374Z" fill="#B83A48"/>
<path d="M156.756 91.4495C169.416 91.4495 178.809 85.0614 185.07 75.5419C189.971 68.0265 194.6 55.7513 194.6 48.6117C194.6 43.8519 193.51 39.7185 189.427 38.7164C187.929 38.3407 186.16 38.4659 184.798 39.3427C183.845 39.969 165.604 54.3735 165.604 54.3735C163.426 55.8766 161.112 57.0039 158.525 57.7554C149.541 60.2606 141.237 65.5213 138.242 72.7862C134.158 83.1825 143.007 91.4495 156.756 91.4495ZM178.945 55.8766C178.672 55.8766 178.4 55.7513 178.809 55.3756C181.123 53.2462 181.94 52.7452 183.709 51.1168C185.479 49.4885 185.207 50.3653 184.934 52.1189C184.254 56.8786 182.348 55.8766 178.945 55.8766ZM155.667 82.932C149.813 83.1825 145.049 79.9259 146.954 75.4166C148.724 71.4084 154.033 67.9012 159.887 66.1476C164.651 64.6445 180.578 63.392 180.578 64.8951C180.578 65.8971 178.264 69.7801 177.311 71.1579C172.274 78.7986 165.332 82.431 155.667 82.932Z" fill="#B83A48"/>
<path d="M227.566 90.8232C230.969 90.8232 232.467 88.3181 231.786 84.3098C231.105 79.9259 231.514 75.4166 231.786 71.6589C231.922 69.4043 232.739 67.5255 234.1 65.7719L241.179 56.6281C251.389 43.3509 258.74 31.8273 263.096 18.0491C264.321 14.0409 264.321 9.0306 260.782 6.90124C254.928 3.51931 247.985 9.78214 243.085 15.6692C236.142 23.9361 234.645 29.4474 229.744 40.5953C228.927 42.2236 228.927 42.2236 227.158 41.9731C222.257 41.2216 217.629 42.3489 213.409 45.7308C202.927 53.9977 194.487 70.7821 196.256 82.1805C197.073 88.1928 203.063 91.7 209.733 88.8191C213.545 87.0655 215.451 85.4372 222.257 79.9259C222.938 85.0614 222.802 90.8232 227.566 90.8232ZM237.095 47.1086C241.043 35.4598 247.985 19.8027 253.567 17.5481C253.567 20.0532 249.074 29.0717 245.535 34.583C242.54 39.0922 238.456 45.2298 237.64 46.3571L237.095 47.1086ZM205.649 80.9279C204.56 80.5521 204.969 76.7944 205.649 74.5398C207.419 67.9012 210.414 62.0142 214.498 56.8786C216.404 54.4988 218.854 51.9936 222.257 50.6158C224.435 49.739 225.796 52.1189 225.252 55.8766C224.435 61.1374 224.571 64.1435 220.624 68.1517C212.456 76.7944 207.147 81.6795 205.649 80.9279Z" fill="#B83A48"/>
<path d="M279.841 92.3263C282.699 92.3263 284.333 90.8232 283.516 85.6877C281.61 73.5378 283.516 65.2708 287.056 51.9936C288.417 47.1086 284.741 41.8478 278.479 40.971C262.416 38.8417 247.85 58.7575 244.719 77.045C243.767 82.431 245.672 89.0696 250.709 90.8232C255.201 92.4515 259.421 89.4454 263.097 86.0634C267.589 81.93 272.217 74.1641 273.987 72.16L273.851 79.4248C273.851 82.3057 273.851 84.8109 274.668 88.5686C275.212 91.5747 277.118 92.3263 279.841 92.3263ZM253.976 81.6795C253.296 81.6795 253.568 78.1723 253.976 76.5439C256.427 67.0244 260.51 58.8827 267.725 52.8704C270.584 50.4905 273.579 49.3632 276.846 49.3632C277.663 49.3632 278.343 49.9895 277.663 50.6158C271.945 55.8766 258.196 81.6795 253.976 81.6795Z" fill="#B83A48"/>
<path d="M296.124 137.168C301.161 137.168 305.925 134.538 308.784 130.655C316.407 120.384 319.538 110.864 332.47 62.6404C335.329 51.2421 338.324 44.6035 333.287 42.0984C328.795 39.969 324.167 46.7328 318.994 54.8745C317.496 57.1291 310.554 67.9012 308.24 70.9074C305.789 74.1641 304.02 76.6692 301.297 79.1743C300.208 80.1764 300.752 76.6692 300.889 75.7924C302.794 63.6425 306.606 56.1271 309.737 45.355C310.418 43.1004 309.192 40.8458 307.014 40.0942C304.836 39.3427 302.658 40.47 301.297 42.5994C300.752 43.3509 295.852 58.2565 294.354 63.2667C291.632 72.5357 288.773 86.5645 296.669 89.3201C301.161 90.8232 305.109 87.9423 308.648 84.3098C311.371 81.6795 313.821 78.548 316.68 74.2893C318.313 71.7842 320.083 69.5296 321.716 67.1497C319.947 74.6651 315.863 89.9464 315.182 91.8252C314.91 92.702 314.774 93.2031 313.957 93.4536C299.8 97.7123 283.6 115.499 286.051 129.026C286.867 133.41 290.407 137.168 296.124 137.168ZM294.899 125.77C295.035 119.883 301.705 108.484 310.69 104.351C313.549 102.973 305.381 119.632 302.25 124.642C299.936 128.275 294.899 130.78 294.899 125.77Z" fill="#B83A48"/>
</svg>
