<svg width="888" height="414" viewBox="0 0 888 414" fill="none" xmlns="http://www.w3.org/2000/svg">
<g clip-path="url(#clip0_1105_1731)">
<path d="M23.801 221.144C41.8725 221.144 47.6556 209.637 68.6187 178.776C105.484 127.515 119.942 102.407 170.542 65.7923C181.385 57.9464 190.783 51.6695 200.902 48.008C212.468 43.8236 188.614 104.499 164.759 172.499C158.977 188.191 157.531 200.221 176.325 205.975C182.831 208.068 196.565 209.637 207.408 196.56C223.311 173.545 279.695 107.115 299.935 89.3306C312.945 77.3 350.535 49.0541 355.596 49.0541C359.934 49.5773 352.704 62.1308 343.308 82.5308C331.017 111.3 316.56 149.484 309.333 176.683C304.995 195.514 315.837 213.298 338.247 211.206C350.535 210.16 357.042 202.837 356.319 192.898C355.596 182.96 358.488 174.068 362.1 163.606C370.776 137.976 385.233 103.977 403.305 61.6079C412.701 41.2082 415.593 15.5777 396.075 5.63932C364.269 -10.5759 293.429 37.5467 262.346 67.3616L247.166 80.9615C249.335 71.5463 251.503 61.6079 252.949 52.1927C257.286 28.1313 254.395 17.6699 234.877 10.347C213.191 1.97782 193.674 9.82387 171.265 19.7622C150.302 28.6544 130.785 42.2543 111.99 60.0386L91.7502 78.8693L101.87 57.4232C111.99 35.9774 114.882 30.7466 116.328 23.9468C117.773 16.1007 111.268 8.25466 101.147 5.63932C91.0275 3.02395 79.4616 5.63932 72.9558 12.9623C67.173 18.7161 58.4985 40.685 49.824 58.4693C27.4154 102.407 15.8495 137.453 6.45234 170.406C-0.776311 196.56 -8.72781 221.144 23.801 221.144Z" fill="#5A8551"/>
<path d="M589.785 224.807C604.965 224.807 613.641 218.53 609.303 197.084C599.184 146.346 609.303 111.824 628.098 56.3783C635.328 35.9786 615.81 14.0096 582.558 10.3482C497.259 1.45595 419.913 84.6242 403.287 160.992C398.226 183.484 408.348 211.207 435.093 218.53C458.949 225.33 481.356 212.776 500.874 198.653C524.73 181.392 549.306 148.962 558.702 140.592L557.979 170.931C557.979 182.961 557.979 193.423 562.317 209.115C565.209 221.668 575.328 224.807 589.785 224.807ZM452.442 180.346C448.827 180.346 450.273 165.7 452.442 158.9C465.453 119.147 487.14 85.1471 525.45 60.0398C540.633 50.1014 556.536 45.3938 573.882 45.3938C578.22 45.3938 581.835 48.0092 578.22 50.6246C547.86 72.5936 474.852 180.346 452.442 180.346Z" fill="#5A8551"/>
<path d="M676.254 412.065C702.999 412.065 728.298 401.082 743.478 384.867C783.96 341.973 800.586 302.22 869.259 100.838C884.439 53.2393 900.342 25.5165 873.594 15.0551C849.741 6.16289 825.162 34.4086 797.694 68.4082C789.744 77.8234 752.877 122.807 740.589 135.361C727.578 148.961 718.179 159.422 703.722 169.884C697.938 174.068 700.83 159.422 701.553 155.761C711.675 105.023 731.913 73.639 748.539 28.6549C752.154 19.2397 745.647 9.82439 734.082 6.68597C722.517 3.54755 710.952 8.25518 703.722 17.1474C700.83 20.2858 674.808 82.531 666.855 103.454C652.398 142.161 637.218 200.745 679.146 212.253C702.999 218.529 723.963 206.499 742.758 191.33C757.215 180.345 770.226 167.268 785.406 149.484C794.079 139.023 803.478 129.608 812.151 119.669C802.755 151.053 781.068 214.868 777.453 222.714C776.007 226.375 775.287 228.468 770.949 229.514C695.772 247.298 609.75 321.573 622.761 378.066C627.099 396.372 645.894 412.065 676.254 412.065ZM669.747 364.467C670.47 339.882 705.891 292.282 753.6 275.021C768.78 269.267 725.409 338.835 708.783 359.757C696.492 374.928 669.747 385.389 669.747 364.467Z" fill="#5A8551"/>
</g>
<defs>
<clipPath id="clip0_1105_1731">
<rect width="888" height="414" fill="white"/>
</clipPath>
</defs>
</svg>
