<svg width="296" height="138" viewBox="0 0 296 138" fill="none" xmlns="http://www.w3.org/2000/svg">
<path d="M7.93368 73.715C13.9575 73.715 15.8852 69.8791 22.8729 59.5921C35.1615 42.5051 39.9806 34.136 56.8475 21.931C60.4618 19.3157 63.5942 17.2234 66.9675 16.0029C70.8228 14.6081 62.8713 34.8334 54.9198 57.4998C52.9922 62.7305 52.5103 66.7407 58.7751 68.6586C60.9437 69.3561 65.5218 69.8791 69.1361 65.5202C74.4371 57.8485 93.2316 35.7052 99.9783 29.7771C104.315 25.7669 116.845 16.3516 118.532 16.3516C119.978 16.526 117.568 20.7105 114.436 27.5105C110.339 37.1001 105.52 49.8281 103.111 58.8947C101.665 65.1715 105.279 71.0996 112.749 70.4022C116.845 70.0535 119.014 67.6125 118.773 64.2997C118.532 60.9869 119.496 58.0229 120.7 54.5357C123.592 45.9923 128.411 34.6591 134.435 20.5362C137.567 13.7363 138.531 5.1928 132.025 1.88002C121.423 -3.52504 97.8097 12.5158 87.4487 22.4541L82.3886 26.9874C83.1115 23.849 83.8344 20.5362 84.3163 17.3978C85.762 9.37735 84.7982 5.89022 78.2924 3.44923C71.0638 0.659519 64.558 3.27487 57.0884 6.58765C50.1007 9.55171 43.595 14.085 37.3301 20.0131L30.5834 26.29L33.9568 19.1413C37.3301 11.9927 38.294 10.2491 38.7759 7.9825C39.2578 5.36715 37.0892 2.7518 33.7158 1.88002C30.3425 1.00823 26.4872 1.88002 24.3186 4.32101C22.391 6.23893 19.4995 13.5619 16.608 19.49C9.13846 34.136 5.28318 45.8179 2.15078 56.8024C-0.25877 65.5202 -2.90927 73.715 7.93368 73.715Z" fill="#5A8551"/>
<path d="M196.595 74.9355C201.655 74.9355 204.547 72.8432 203.101 65.6946C199.728 48.782 203.101 37.2744 209.366 18.7926C211.776 11.9927 205.27 4.66972 194.186 3.44923C165.753 0.485163 139.971 28.2079 134.429 53.6639C132.742 61.1613 136.116 70.4022 145.031 72.8432C152.983 75.1098 160.452 70.9253 166.958 66.2176C174.91 60.4639 183.102 49.6537 186.234 46.864L185.993 56.9767C185.993 60.9869 185.993 64.4741 187.439 69.7048C188.403 73.8893 191.776 74.9355 196.595 74.9355ZM150.814 60.1151C149.609 60.1151 150.091 55.2332 150.814 52.9665C155.151 39.7154 162.38 28.3822 175.15 20.0131C180.211 16.7003 185.512 15.1311 191.294 15.1311C192.74 15.1311 193.945 16.0029 192.74 16.8747C182.62 24.1977 158.284 60.1151 150.814 60.1151Z" fill="#5A8551"/>
<path d="M225.418 137.355C234.333 137.355 242.766 133.694 247.826 128.289C261.32 113.991 266.862 100.74 289.753 33.6129C294.813 17.7465 300.114 8.50557 291.198 5.01844C283.247 2.05437 275.054 11.4696 265.898 22.8028C263.248 25.9412 250.959 40.9359 246.863 45.1205C242.526 49.6537 239.393 53.1409 234.574 56.628C232.646 58.0229 233.61 53.1409 233.851 51.9204C237.225 35.0078 243.971 24.5464 249.513 9.55171C250.718 6.41329 248.549 3.27487 244.694 2.22873C240.839 1.18259 236.984 2.7518 234.574 5.71586C233.61 6.76201 224.936 27.5104 222.285 34.4847C217.466 47.3871 212.406 66.9151 226.382 70.7509C234.333 72.8432 241.321 68.833 247.586 63.7766C252.405 60.1151 256.742 55.7562 261.802 49.8281C264.693 46.341 267.826 43.2026 270.717 39.8898C267.585 50.3512 260.356 71.6227 259.151 74.238C258.669 75.4585 258.429 76.156 256.983 76.5047C231.924 82.4328 203.25 107.191 207.587 126.022C209.033 132.124 215.298 137.355 225.418 137.355ZM223.249 121.489C223.49 113.294 235.297 97.4275 251.2 91.6737C256.26 89.7558 241.803 112.945 236.261 119.919C232.164 124.976 223.249 128.463 223.249 121.489Z" fill="#5A8551"/>
</svg>
