<svg width="888" height="336" viewBox="0 0 888 336" fill="none" xmlns="http://www.w3.org/2000/svg">
<path d="M17.3548 333.049C12.7268 332.092 8.74164 330.022 5.39925 326.833C2.31397 323.647 0.514215 319.507 0 314.407L4.24227 306.283C5.78493 306.283 8.22744 306.922 11.5698 308.194C15.4264 309.151 18.3832 309.628 20.4401 309.628C25.068 309.628 29.1817 307.081 32.7813 301.981C36.6378 296.885 39.4659 290.194 41.2656 281.91C44.6082 266.616 46.2792 252.915 46.2792 240.808C46.2792 219.779 40.8801 197.635 30.0816 174.376L25.8393 165.295C20.9543 154.781 16.8405 145.381 13.4981 137.097C10.1558 128.813 7.32756 119.892 5.0136 110.334C1.92831 97.9073 0.385662 85.4813 0.385662 73.055C0.385662 59.036 2.95674 44.3795 8.09889 29.0856C10.67 21.7574 14.2695 15.863 18.8974 11.4023C23.7824 6.62302 29.1817 4.2334 35.0952 4.2334C39.723 4.2334 43.9653 6.14509 47.8221 9.9685C51.9357 13.4733 53.9925 17.7747 53.9925 22.8726C53.9925 25.7401 53.0928 27.9705 51.2928 29.5636C49.4931 31.1567 47.3079 31.9532 44.7366 31.9532C41.9085 31.9532 39.2088 30.9974 36.6378 29.0856C30.9816 29.4043 26.4821 35.6174 23.1397 47.7248C20.3115 58.8764 18.8974 68.1164 18.8974 75.4448C18.8974 84.6845 20.0544 94.0838 22.3684 103.642C24.6823 112.882 27.6391 121.326 31.2387 128.973L39.723 148.09L53.2212 179.633C56.8209 188.554 59.649 198.909 61.7058 210.698C64.0197 222.487 65.1768 234.435 65.1768 246.543C65.1768 265.979 61.5771 284.459 54.3783 301.981C50.7786 310.903 45.6366 318.073 38.9517 323.488C32.5242 328.906 25.3251 331.615 17.3548 331.615V333.049Z" fill="#E06E51"/>
<path d="M181.674 330.657C175.76 330.657 171.389 329.541 168.561 327.312C165.733 325.08 164.319 320.94 164.319 314.886C164.319 305.328 163.033 289.077 160.462 266.136L158.92 256.1L120.739 248.931C119.196 256.259 117.011 271.075 114.183 293.378C112.64 308.991 110.198 319.347 106.855 324.444C105.055 327.312 102.484 328.746 99.1419 328.746C96.0567 328.746 93.2286 327.63 90.6576 325.401C88.0863 322.851 86.8008 319.824 86.8008 316.32L87.5721 313.929L87.9579 312.018C104.927 230.133 117.782 149.363 126.524 69.7081C126.524 68.4334 126.652 66.3625 126.91 63.4948C127.167 60.3088 127.424 55.8481 127.681 50.113C128.452 38.3239 129.223 28.9248 129.995 21.9152C131.023 14.9056 132.566 9.64836 134.623 6.14355H147.735C151.335 6.14355 154.42 7.25874 156.991 9.48906C159.562 11.4008 160.848 14.2683 160.848 18.0917C160.848 42.3067 163.547 78.3106 168.947 126.104C174.089 175.171 176.66 209.582 176.66 229.336C176.66 231.248 177.303 236.186 178.588 244.152C179.874 251.48 180.517 256.259 180.517 258.49C180.517 260.72 181.802 270.279 184.373 287.165C186.687 302.46 187.844 312.336 187.844 316.797V317.274C187.844 324.285 185.787 328.746 181.674 330.657ZM156.22 238.895C155.449 234.115 155.063 228.221 155.063 221.211C155.063 192.536 153.006 155.894 148.892 111.288L145.036 61.5832C133.98 136.459 126.395 193.014 122.282 231.248C126.138 234.434 137.451 236.983 156.22 238.895Z" fill="#E06E51"/>
<path d="M242.542 318.708L242.156 300.069C241.899 294.654 241.77 288.6 241.77 281.909L242.156 265.659C241.385 262.154 239.456 227.265 236.371 160.993C233.286 94.72 231.486 52.1845 230.972 33.3859C216.06 32.7487 206.547 30.8371 202.433 27.6509C199.605 25.102 198.191 22.2344 198.191 19.0482C198.191 16.4993 199.476 14.2689 202.047 12.3572C204.875 10.1269 207.704 9.01172 210.532 9.01172C217.731 9.01172 226.472 9.64895 236.757 10.9234C246.527 12.5165 255.268 13.3131 262.982 13.3131H269.152C277.123 13.3131 281.108 17.1365 281.108 24.7833C281.108 28.6068 279.822 31.7929 277.251 34.342C274.68 36.5722 271.723 37.6873 268.381 37.6873C266.067 37.6873 262.725 37.2094 258.354 36.2536L250.641 34.342L249.869 39.1213C249.869 67.4782 252.055 112.722 256.426 174.853C260.539 233.16 262.596 278.404 262.596 310.584C262.596 314.406 261.182 317.754 258.354 320.619C255.783 323.487 252.826 324.921 249.484 324.921L242.542 318.708Z" fill="#E06E51"/>
<path d="M360.885 333.525C354.714 333.525 349.188 331.773 344.301 328.266C339.417 325.08 335.433 320.301 332.346 313.929C326.175 300.546 322.191 285.413 320.391 268.526C318.591 253.87 317.691 236.346 317.691 215.954C316.92 181.544 316.533 139.486 316.533 89.781L316.149 52.9806C315.891 51.069 315.762 47.8827 315.762 43.422C315.249 31.3146 314.991 23.9864 314.991 21.4374C317.307 14.7464 320.004 11.4009 323.091 11.4009C326.175 11.4009 328.875 14.2685 331.191 20.0036C333.762 25.7388 335.046 31.9518 335.046 38.6427V168.639C335.046 181.384 335.946 198.271 337.746 219.3C339.546 245.426 340.446 262.313 340.446 269.96C340.446 293.538 348.543 305.328 364.743 305.328C383.253 305.328 392.511 219.618 392.511 48.2013V17.1361C392.253 16.1802 392.124 14.9057 392.124 13.3126C392.124 9.48924 392.766 6.78096 394.053 5.18787C395.595 3.27618 398.424 2.32031 402.537 2.32031C405.879 2.32031 408.45 3.59478 410.25 6.14373C412.308 8.37408 413.592 11.0823 414.108 14.2685C414.363 16.1802 414.492 19.8443 414.492 25.2608C414.492 30.3588 414.108 38.4834 413.334 49.6353C412.308 58.875 411.792 66.8406 411.792 73.5315C411.792 80.8599 411.537 87.3915 411.021 93.1266L410.25 113.2V117.023C410.508 118.298 410.637 119.731 410.637 121.325C410.637 262.791 394.053 333.525 360.885 333.525Z" fill="#E06E51"/>
<path d="M526.461 334.478C520.803 334.478 515.661 326.831 511.035 311.54C505.635 294.97 501.651 277.924 499.08 260.4L496.38 244.151C488.922 198.588 484.167 172.621 482.109 166.248H477.483C477.483 175.488 477.354 183.932 477.096 191.578V217.865C477.096 260.559 479.538 293.855 484.425 317.753L480.18 330.656H469.383L464.37 323.486L464.754 291.465C464.754 262.79 463.599 219.298 461.283 160.991C459.228 98.8604 458.199 55.369 458.199 30.5168C458.199 15.223 462.441 7.57617 470.925 7.57617C484.809 7.57617 496.122 12.0368 504.864 20.9582C513.861 29.8795 518.361 42.3055 518.361 58.2365V91.6916C518.361 96.4708 517.719 102.047 516.435 108.419C515.148 114.473 513.735 119.411 512.19 123.235L504.864 140.44L498.693 154.778L500.622 166.248L506.022 200.181C509.619 224.715 513.09 244.629 516.435 259.922C519.777 275.216 523.89 289.076 528.774 301.502L531.09 307.238C533.661 313.61 534.945 318.707 534.945 322.532C534.945 325.718 534.174 328.427 532.632 330.656C531.09 333.206 529.032 334.478 526.461 334.478ZM479.025 142.83C484.68 139.325 489.438 129.766 493.293 114.154C497.409 98.2232 499.464 83.5667 499.464 70.1848C499.464 59.989 498.435 50.4305 496.38 41.5091C495.093 36.4112 492.909 32.5877 489.822 30.0389C486.996 27.1712 483.396 25.7375 479.025 25.7375L478.254 28.1271L477.483 32.4284L478.254 88.8239C478.767 105.392 479.025 123.394 479.025 142.83Z" fill="#E06E51"/>
<path d="M585.051 329.222C578.367 329.222 575.025 308.354 575.025 266.614L575.796 191.101C576.051 168.798 576.18 143.786 576.18 116.067C576.18 105.871 575.409 90.0991 573.867 68.7514C572.58 45.4924 571.938 31.3138 571.938 26.216C571.938 22.0739 573.354 18.4098 576.18 15.2236C579.009 12.0374 582.093 10.4443 585.438 10.4443C594.435 10.4443 603.048 12.9933 611.277 18.0912C619.761 22.8705 627.216 29.7207 633.645 38.6419C647.271 58.0777 656.271 79.4251 660.642 102.684C662.955 114.473 664.113 126.103 664.113 137.573C664.113 141.715 663.984 145.539 663.726 149.043L663.339 161.948V188.234C663.339 208.625 662.826 224.715 661.797 236.504C660.255 252.435 657.297 266.614 652.926 279.04C647.784 292.422 640.329 304.37 630.558 314.885C625.932 319.664 620.019 324.443 612.819 329.222H585.051ZM602.019 304.847C607.161 304.847 611.919 303.254 616.29 300.068C620.661 296.564 624.387 291.944 627.474 286.209C630.045 281.111 632.358 274.739 634.416 267.092C636.729 259.126 638.4 251.479 639.429 244.151C641.742 229.813 643.158 215.157 643.671 200.182C643.929 196.358 644.058 190.782 644.058 183.454C644.058 87.2314 629.016 37.0489 598.935 32.9068C597.135 47.2447 596.235 63.8128 596.235 82.6114C596.235 102.684 597.264 137.733 599.322 187.756C601.119 232.044 602.019 267.251 602.019 293.378V304.847Z" fill="#E06E51"/>
<path d="M782.01 330.657C776.097 330.657 771.726 329.541 768.897 327.312C766.068 325.08 764.655 320.94 764.655 314.886C764.655 305.328 763.368 289.077 760.797 266.136L759.255 256.1L721.074 248.931C719.532 256.259 717.348 271.075 714.519 293.378C712.977 308.991 710.535 319.347 707.19 324.444C705.39 327.312 702.819 328.746 699.477 328.746C696.393 328.746 693.564 327.63 690.993 325.401C688.422 322.851 687.138 319.824 687.138 316.32L687.909 313.929L688.293 312.018C705.264 230.133 718.119 149.363 726.861 69.7081C726.861 68.4334 726.987 66.3625 727.245 63.4948C727.503 60.3088 727.761 55.8481 728.016 50.113C728.787 38.3239 729.561 28.9248 730.332 21.9152C731.358 14.9056 732.903 9.64836 734.958 6.14355H748.071C751.671 6.14355 754.755 7.25874 757.326 9.48906C759.897 11.4008 761.184 14.2683 761.184 18.0917C761.184 42.3067 763.884 78.3106 769.284 126.104C774.426 175.171 776.997 209.582 776.997 229.336C776.997 231.248 777.639 236.186 778.923 244.152C780.21 251.48 780.852 256.259 780.852 258.49C780.852 260.72 782.139 270.279 784.71 287.165C787.023 302.46 788.181 312.336 788.181 316.797V317.274C788.181 324.285 786.123 328.746 782.01 330.657ZM756.555 238.895C755.784 234.115 755.4 228.221 755.4 221.211C755.4 192.536 753.342 155.894 749.229 111.288L745.371 61.5832C734.316 136.459 726.732 193.014 722.619 231.248C726.474 234.434 737.787 236.983 756.555 238.895Z" fill="#E06E51"/>
<path d="M852.906 333.049C848.535 333.049 844.935 329.542 842.106 322.534C844.935 315.841 846.348 288.759 846.348 241.285C846.348 230.133 845.706 218.026 844.419 204.963L843.264 191.103C842.493 182.5 842.106 175.968 842.106 171.508V159.082C839.535 151.116 834.78 136.3 827.838 114.634C821.151 92.9681 815.754 74.807 811.638 60.1505C806.754 43.2635 804.312 31.7933 804.312 25.7396V23.3499L813.183 15.2252C817.554 15.8624 822.18 22.872 827.067 36.254C831.18 48.0428 835.68 64.9298 840.564 86.9144C845.706 108.899 848.277 120.529 848.277 121.803C849.306 118.298 851.361 106.35 854.448 85.9586C857.532 65.567 861.003 47.5649 864.861 31.9526C869.232 16.3403 873.732 8.53418 878.358 8.53418C880.929 8.53418 883.116 9.49004 884.916 11.4017C886.971 13.3134 888 15.7031 888 18.5707C888 34.8203 884.4 57.7607 877.2 87.3923C869.487 119.573 865.632 142.832 865.632 157.17V301.027C865.632 322.375 861.39 333.049 852.906 333.049Z" fill="#E06E51"/>
</svg>
