<svg width="296" height="112" viewBox="0 0 296 112" fill="none" xmlns="http://www.w3.org/2000/svg">
<path d="M5.78492 111.016C4.24227 110.697 2.91388 110.007 1.79975 108.944C0.771322 107.882 0.171405 106.502 0 104.802L1.41409 102.094C1.92831 102.094 2.74248 102.307 3.85661 102.731C5.14215 103.05 6.12773 103.209 6.81335 103.209C8.35599 103.209 9.72723 102.36 10.9271 100.66C12.2126 98.9611 13.1553 96.7308 13.7552 93.9694C14.8694 88.8715 15.4264 84.3046 15.4264 80.2688C15.4264 73.2592 13.6267 65.8779 10.0272 58.1248L8.6131 55.0979C6.98475 51.5931 5.61351 48.46 4.49938 45.6987C3.38525 42.9373 2.44252 39.9635 1.6712 36.7774C0.642769 32.6353 0.128554 28.4933 0.128554 24.3512C0.128554 19.6782 0.985579 14.7927 2.69963 9.69476C3.55665 7.25202 4.75649 5.2872 6.29913 3.80031C7.92748 2.20722 9.72723 1.41068 11.6984 1.41068C13.241 1.41068 14.6551 2.04791 15.9407 3.32238C17.3119 4.49066 17.9975 5.92444 17.9975 7.62374C17.9975 8.57959 17.6976 9.32304 17.0976 9.85407C16.4977 10.3851 15.7693 10.6506 14.9122 10.6506C13.9695 10.6506 13.0696 10.332 12.2126 9.69476C10.3272 9.80097 8.82736 11.872 7.71322 15.9078C6.7705 19.625 6.29913 22.705 6.29913 25.1478C6.29913 28.2277 6.68479 31.3608 7.45612 34.547C8.22744 37.627 9.21302 40.4415 10.4129 42.9904L13.241 49.3628L17.7404 59.8772C18.9403 62.851 19.883 66.3027 20.5686 70.2323C21.3399 74.1619 21.7256 78.1447 21.7256 82.1805C21.7256 88.6591 20.5257 94.8191 18.1261 100.66C16.9262 103.634 15.2122 106.024 12.9839 107.829C10.8414 109.635 8.4417 110.538 5.78492 110.538V111.016Z" fill="#E06E51"/>
<path d="M60.5579 110.219C58.5867 110.219 57.1297 109.847 56.187 109.104C55.2443 108.36 54.7729 106.98 54.7729 104.962C54.7729 101.776 54.3444 96.3591 53.4874 88.7122L52.9732 85.3667L40.2464 82.9771C39.7321 85.4198 39.0037 90.3584 38.0609 97.7928C37.5467 102.997 36.7326 106.449 35.6184 108.148C35.0185 109.104 34.1615 109.582 33.0473 109.582C32.0189 109.582 31.0762 109.21 30.2192 108.467C29.3621 107.617 28.9336 106.608 28.9336 105.44L29.1907 104.643L29.3193 104.006C34.9757 76.7109 39.2608 49.7876 42.1747 23.2361C42.1747 22.8112 42.2175 22.1209 42.3032 21.165C42.3889 20.103 42.4746 18.6161 42.5603 16.7044C42.8174 12.7747 43.0745 9.64166 43.3316 7.30512C43.6745 4.96858 44.1887 3.21618 44.8743 2.04791H49.2451C50.445 2.04791 51.4734 2.41964 52.3304 3.16308C53.1874 3.80032 53.6159 4.75617 53.6159 6.03064C53.6159 14.1023 54.5158 26.1036 56.3156 42.0346C58.0296 58.3903 58.8866 69.8606 58.8866 76.4454C58.8866 77.0826 59.1009 78.7288 59.5294 81.384C59.9579 83.8267 60.1722 85.4198 60.1722 86.1633C60.1722 86.9067 60.6007 90.0929 61.4577 95.7218C62.2291 100.82 62.6147 104.112 62.6147 105.599V105.758C62.6147 108.095 61.9291 109.582 60.5579 110.219ZM52.0733 79.6316C51.8162 78.0385 51.6876 76.0737 51.6876 73.7371C51.6876 64.1786 51.002 51.9648 49.6308 37.096L48.3452 20.5278C44.66 45.4863 42.1318 64.3379 40.7606 77.0826C42.0461 78.1447 45.817 78.9943 52.0733 79.6316Z" fill="#E06E51"/>
<path d="M80.8472 106.236L80.7187 100.023C80.633 98.2177 80.5901 96.1997 80.5901 93.9694L80.7187 88.5529C80.4616 87.3846 79.8188 75.755 78.7904 53.6641C77.762 31.5732 77.162 17.3947 76.9906 11.1285C72.0199 10.9161 68.8489 10.2789 67.4777 9.21684C66.5349 8.36719 66.0636 7.41133 66.0636 6.34927C66.0636 5.49962 66.4921 4.75617 67.3491 4.11894C68.2918 3.37549 69.2346 3.00377 70.1773 3.00377C72.577 3.00377 75.4908 3.21618 78.9189 3.64101C82.1756 4.17204 85.0895 4.43755 87.6606 4.43755H89.7174C92.3742 4.43755 93.7026 5.71203 93.7026 8.26098C93.7026 9.53545 93.2741 10.5975 92.4171 11.4472C91.5601 12.1906 90.5745 12.5623 89.4603 12.5623C88.689 12.5623 87.5749 12.403 86.1179 12.0844L83.5469 11.4472L83.2898 13.0403C83.2898 22.4926 84.0182 37.5739 85.4752 58.2841C86.8464 77.7199 87.532 92.8011 87.532 103.528C87.532 104.802 87.0607 105.918 86.1179 106.873C85.2609 107.829 84.2753 108.307 83.1612 108.307L80.8472 106.236Z" fill="#E06E51"/>
<path d="M120.295 111.175C118.238 111.175 116.396 110.591 114.767 109.422C113.139 108.36 111.811 106.767 110.782 104.643C108.725 100.182 107.397 95.1377 106.797 89.5087C106.197 84.6233 105.897 78.7819 105.897 71.9847C105.64 60.5145 105.511 46.4952 105.511 29.927L105.383 17.6602C105.297 17.023 105.254 15.9609 105.254 14.474C105.083 10.4382 104.997 7.99546 104.997 7.14581C105.769 4.91548 106.668 3.80031 107.697 3.80031C108.725 3.80031 109.625 4.75617 110.397 6.66788C111.254 8.5796 111.682 10.6506 111.682 12.8809V56.2131C111.682 60.4613 111.982 66.0903 112.582 73.0999C113.182 81.8088 113.482 87.4377 113.482 89.9867C113.482 97.8459 116.181 101.776 121.581 101.776C127.751 101.776 130.837 73.2061 130.837 16.0671V5.71203C130.751 5.39341 130.708 4.96858 130.708 4.43755C130.708 3.16308 130.922 2.26032 131.351 1.72929C131.865 1.09206 132.808 0.773438 134.179 0.773438C135.293 0.773438 136.15 1.19826 136.75 2.04791C137.436 2.79136 137.864 3.69411 138.036 4.75617C138.121 5.39341 138.164 6.61478 138.164 8.42028C138.164 10.1196 138.036 12.8278 137.778 16.5451C137.436 19.625 137.264 22.2802 137.264 24.5105C137.264 26.9533 137.179 29.1305 137.007 31.0422L136.75 37.7332V39.0077C136.836 39.4325 136.879 39.9104 136.879 40.4415C136.879 87.597 131.351 111.175 120.295 111.175Z" fill="#E06E51"/>
<path d="M175.487 111.493C173.601 111.493 171.887 108.944 170.345 103.847C168.545 98.3239 167.217 92.6418 166.36 86.8005L165.46 81.384C162.974 66.1965 161.389 57.5407 160.703 55.4165H159.161C159.161 58.4965 159.118 61.311 159.032 63.8599V72.622C159.032 86.8536 159.846 97.9521 161.475 105.918L160.06 110.219H156.461L154.79 107.829L154.918 97.1556C154.918 87.597 154.533 73.0999 153.761 53.6641C153.076 32.9539 152.733 18.4568 152.733 10.1727C152.733 5.07479 154.147 2.52584 156.975 2.52584C161.603 2.52584 165.374 4.01272 168.288 6.9865C171.287 9.96028 172.787 14.1023 172.787 19.4126V30.5643C172.787 32.1574 172.573 34.016 172.145 36.1401C171.716 38.158 171.245 39.8042 170.73 41.0787L168.288 46.8138L166.231 51.5931L166.874 55.4165L168.674 66.7275C169.873 74.9054 171.03 81.5433 172.145 86.6412C173.259 91.7391 174.63 96.3591 176.258 100.501L177.03 102.413C177.887 104.537 178.315 106.236 178.315 107.511C178.315 108.573 178.058 109.476 177.544 110.219C177.03 111.069 176.344 111.493 175.487 111.493ZM159.675 47.6104C161.56 46.4421 163.146 43.2559 164.431 38.0518C165.803 32.7415 166.488 27.856 166.488 23.3954C166.488 19.9968 166.145 16.8106 165.46 13.8368C165.031 12.1375 164.303 10.863 163.274 10.0134C162.332 9.05753 161.132 8.5796 159.675 8.5796L159.418 9.37615L159.161 10.8099L159.418 29.6084C159.589 35.1312 159.675 41.1318 159.675 47.6104Z" fill="#E06E51"/>
<path d="M195.017 109.741C192.789 109.741 191.675 102.785 191.675 88.8715L191.932 63.7006C192.017 56.2662 192.06 47.929 192.06 38.6891C192.06 35.2905 191.803 30.0333 191.289 22.9174C190.86 15.1644 190.646 10.4382 190.646 8.73891C190.646 7.35822 191.118 6.13685 192.06 5.07479C193.003 4.01273 194.031 3.4817 195.146 3.4817C198.145 3.4817 201.016 4.33135 203.759 6.03064C206.587 7.62374 209.072 9.90717 211.215 12.8809C215.757 19.3595 218.757 26.4753 220.214 34.2284C220.985 38.158 221.371 42.0346 221.371 45.858C221.371 47.2387 221.328 48.5131 221.242 49.6814L221.113 53.9828V62.7448C221.113 69.542 220.942 74.9054 220.599 78.835C220.085 84.1453 219.099 88.8715 217.642 93.0136C215.928 97.4742 213.443 101.457 210.186 104.962C208.644 106.555 206.673 108.148 204.273 109.741H195.017ZM200.673 101.616C202.387 101.616 203.973 101.085 205.43 100.023C206.887 98.8549 208.129 97.3149 209.158 95.4032C210.015 93.7039 210.786 91.5798 211.472 89.0308C212.243 86.3757 212.8 83.8267 213.143 81.384C213.914 76.6047 214.386 71.7192 214.557 66.7275C214.643 65.453 214.686 63.5944 214.686 61.1517C214.686 29.0774 209.672 12.3499 199.645 10.9692C199.045 15.7485 198.745 21.2712 198.745 27.5374C198.745 34.2284 199.088 45.9111 199.774 62.5855C200.373 77.3481 200.673 89.0839 200.673 97.7928V101.616Z" fill="#E06E51"/>
<path d="M260.67 110.219C258.699 110.219 257.242 109.847 256.299 109.104C255.356 108.36 254.885 106.98 254.885 104.962C254.885 101.776 254.456 96.3591 253.599 88.7122L253.085 85.3667L240.358 82.9771C239.844 85.4198 239.116 90.3584 238.173 97.7928C237.659 102.997 236.845 106.449 235.73 108.148C235.13 109.104 234.273 109.582 233.159 109.582C232.131 109.582 231.188 109.21 230.331 108.467C229.474 107.617 229.046 106.608 229.046 105.44L229.303 104.643L229.431 104.006C235.088 76.7109 239.373 49.7876 242.287 23.2361C242.287 22.8112 242.329 22.1209 242.415 21.165C242.501 20.103 242.587 18.6161 242.672 16.7044C242.929 12.7747 243.187 9.64166 243.444 7.30512C243.786 4.96858 244.301 3.21618 244.986 2.04791H249.357C250.557 2.04791 251.585 2.41964 252.442 3.16308C253.299 3.80032 253.728 4.75617 253.728 6.03064C253.728 14.1023 254.628 26.1036 256.428 42.0346C258.142 58.3903 258.999 69.8606 258.999 76.4454C258.999 77.0826 259.213 78.7288 259.641 81.384C260.07 83.8267 260.284 85.4198 260.284 86.1633C260.284 86.9067 260.713 90.0929 261.57 95.7218C262.341 100.82 262.727 104.112 262.727 105.599V105.758C262.727 108.095 262.041 109.582 260.67 110.219ZM252.185 79.6316C251.928 78.0385 251.8 76.0737 251.8 73.7371C251.8 64.1786 251.114 51.9648 249.743 37.096L248.457 20.5278C244.772 45.4863 242.244 64.3379 240.873 77.0826C242.158 78.1447 245.929 78.9943 252.185 79.6316Z" fill="#E06E51"/>
<path d="M284.302 111.016C282.845 111.016 281.645 109.847 280.702 107.511C281.645 105.28 282.116 96.2528 282.116 80.4281C282.116 76.7109 281.902 72.6751 281.473 68.3206L281.088 63.7006C280.831 60.8331 280.702 58.6558 280.702 57.169V53.0269C279.845 50.3717 278.26 45.4332 275.946 38.2111C273.717 30.9891 271.918 24.9354 270.546 20.0499C268.918 14.4209 268.104 10.5975 268.104 8.5796V7.78305L271.061 5.07479C272.518 5.2872 274.06 7.62374 275.689 12.0844C277.06 16.014 278.56 21.643 280.188 28.9712C281.902 36.2994 282.759 40.176 282.759 40.6008C283.102 39.4325 283.787 35.4498 284.816 28.6526C285.844 21.8554 287.001 15.8547 288.287 10.6506C289.744 5.44651 291.244 2.84446 292.786 2.84446C293.643 2.84446 294.372 3.16308 294.972 3.80031C295.657 4.43755 296 5.2341 296 6.18995C296 11.6065 294.8 19.2533 292.4 29.1305C289.829 39.8573 288.544 47.6104 288.544 52.3897V100.342C288.544 107.458 287.13 111.016 284.302 111.016Z" fill="#E06E51"/>
</svg>
