<svg width="888" height="747" viewBox="0 0 888 747" fill="none" xmlns="http://www.w3.org/2000/svg">
<g clip-path="url(#clip0_1105_2307)">
<path d="M184.608 120.032C132.406 100.025 120.733 138.822 121.393 161.823C121.41 162.406 121.005 162.894 120.426 162.965C82.9401 167.555 8.07483 196.852 0.610495 278.96C-6.85947 361.13 56.0526 405.845 89.2311 418.307C89.7186 418.49 89.9931 418.997 89.9271 419.516C83.0883 472.979 122.209 483.101 143.811 481.472C144.445 481.424 144.986 481.904 145.042 482.537C146.229 495.8 158.819 526.403 201.452 551.981C244.538 577.832 292.151 563.543 311.733 552.623C312.333 552.29 313.089 552.599 313.338 553.238C331.944 600.821 370.368 585.026 388.545 570.239C389.139 569.756 390.027 569.987 390.321 570.695C403.686 603.02 450.225 630.506 507.426 635.144C553.35 638.867 597.942 605.057 615.117 587.108C615.465 586.742 616.014 586.679 616.458 586.916C656.55 608.324 681.099 585.338 688.95 570.218C689.232 569.678 689.862 569.444 690.417 569.699C714.111 580.493 773.052 589.607 827.52 542.567C882.378 495.188 871.602 411.896 859.155 375.41C859.002 374.96 859.173 374.468 859.548 374.174C895.347 346.208 878.619 315.14 864.759 301.982C864.204 301.457 864.306 300.539 864.954 300.131C880.116 290.587 901.755 257.252 876.162 192.659C850.134 126.97 783.21 120.124 751.821 124.996C751.173 125.097 750.597 124.612 750.543 123.958C748.731 101.236 739.332 89.6451 726.489 82.8231C714.402 76.4022 694.146 79.923 684.255 82.5276C683.652 82.6863 683.046 82.3557 682.869 81.7578C680.013 72.0219 661.362 22.4549 595.293 5.93766C540.981 -7.64067 496.377 21.1651 479.988 38.0427C479.541 38.5041 478.815 38.4903 478.362 38.0337C471.474 31.0893 454.515 19.5845 435.246 23.1976C416.568 26.6996 407.301 40.4241 404.412 48.2184C404.127 48.9801 403.158 49.2645 402.516 48.7677C387.579 37.221 331.242 12.7682 270.492 29.474C221.04 43.0734 193.913 94.3173 186.109 119.348C185.916 119.968 185.215 120.264 184.608 120.032Z" fill="#BABFFC"/>
<path d="M309.576 548.753L311.733 552.623M309.576 548.753C290.718 559.271 244.914 572.894 203.731 548.183C162.052 523.175 150.49 493.715 149.454 482.144C149.193 479.216 146.645 476.816 143.478 477.056C133.359 477.818 119.397 475.775 108.917 467.651C98.7701 459.788 91.0594 445.577 94.321 420.077C94.621 417.731 93.389 415.136 90.7889 414.161C58.5119 402.035 -2.18853 358.679 5.02212 279.361C8.62236 239.758 28.4101 212.981 51.9098 195.444C75.5273 177.818 102.854 169.58 120.964 167.362C123.895 167.003 125.901 164.482 125.821 161.696C125.506 150.724 128.2 136.664 136.423 127.815C140.432 123.501 145.845 120.311 153.231 119.274C160.701 118.225 170.442 119.347 183.023 124.168M309.576 548.753C312.741 546.989 316.332 548.726 317.463 551.624M183.023 124.168L184.608 120.032M183.023 124.168C185.75 125.214 189.301 123.994 190.338 120.666C194.094 108.62 202.586 90.0465 216.158 72.8709C229.724 55.7031 248.133 40.2174 271.667 33.7458C301.17 25.6323 329.673 27.498 352.68 32.8416C375.792 38.2092 392.976 46.9914 399.807 52.2729C402.849 54.624 407.259 53.2818 408.564 49.7586C411.081 42.9678 419.34 30.6879 436.062 27.552C453.237 24.3319 468.786 34.6704 475.218 41.1537C477.327 43.281 480.906 43.4583 483.165 41.1291C498.897 24.9309 541.965 -2.82769 594.219 10.2357C658.146 26.2174 675.99 74.0475 678.621 83.0061C679.491 85.9782 682.536 87.5616 685.383 86.8119C690.129 85.5624 697.353 84.0984 704.775 83.715C712.326 83.3253 719.436 84.0927 724.41 86.7357C730.284 89.8548 735.213 93.972 738.912 99.8016C742.623 105.653 745.263 113.497 746.127 124.311C746.373 127.364 749.142 129.895 752.499 129.374C767.55 127.038 791.325 127.508 814.395 136.495C837.327 145.429 859.545 162.753 872.043 194.292C897.108 257.551 875.418 288.31 862.593 296.383C859.575 298.283 858.993 302.621 861.708 305.198M861.708 305.198L864.759 301.982M861.708 305.198C868.155 311.315 875.085 321.47 876.372 333.017C877.617 344.177 873.693 357.503 856.821 370.682C855.114 372.017 854.136 374.423 854.961 376.841M854.961 376.841L859.155 375.41M854.961 376.841C861.021 394.598 866.712 423.926 864.162 454.535C861.615 485.114 850.899 516.524 824.625 539.216C771.726 584.9 714.711 575.897 692.253 565.667C689.463 564.395 686.34 565.631 685.017 568.178M685.017 568.178L688.95 570.218M685.017 568.178C681.471 575.009 674.085 583.682 663.117 588.164C652.359 592.565 637.581 593.171 618.546 583.007C616.512 581.921 613.761 582.116 611.916 584.045C603.624 592.712 588.549 605.357 569.955 615.35C551.337 625.355 529.584 632.495 507.783 630.728C479.766 628.457 454.458 620.594 434.604 609.44C414.687 598.25 400.596 583.949 394.413 569.003C393.006 565.595 388.677 564.419 385.749 566.804C377.055 573.875 363.894 580.832 351.15 580.697C344.904 580.631 338.742 578.87 333.075 574.529C327.372 570.161 321.903 562.973 317.463 551.624M317.463 551.624L313.338 553.238" stroke="black" stroke-opacity="0.1" stroke-width="8.85996"/>
<path d="M310.367 651.726C338.098 651.726 360.578 636.271 360.578 617.206C360.578 598.141 338.098 582.686 310.367 582.686C282.636 582.686 260.156 598.141 260.156 617.206C260.156 636.271 282.636 651.726 310.367 651.726Z" fill="#BABFFC"/>
<path d="M356.148 617.205C356.148 624.858 351.639 632.271 343.362 637.962C335.103 643.641 323.451 647.295 310.368 647.295C297.282 647.295 285.63 643.641 277.372 637.962C269.094 632.271 264.586 624.858 264.586 617.205C264.586 609.549 269.094 602.136 277.372 596.445C285.63 590.769 297.282 587.115 310.368 587.115C323.451 587.115 335.103 590.769 343.362 596.445C351.639 602.136 356.148 609.549 356.148 617.205Z" stroke="black" stroke-opacity="0.1" stroke-width="8.85996"/>
<path d="M264.867 703.373C284.903 706.141 302.777 696.578 304.789 682.015C306.801 667.451 292.189 653.401 272.153 650.633C252.117 647.865 234.244 657.427 232.232 671.991C230.22 686.555 244.831 700.605 264.867 703.373Z" fill="#BABFFC"/>
<path d="M300.399 681.409C299.636 686.938 295.816 691.906 289.497 695.287C283.184 698.665 274.666 700.255 265.474 698.983C256.282 697.714 248.514 693.874 243.352 688.912C238.187 683.944 235.857 678.127 236.62 672.598C237.385 667.066 241.205 662.098 247.524 658.717C253.837 655.339 262.355 653.752 271.547 655.021C280.739 656.29 288.507 660.13 293.668 665.092C298.834 670.06 301.164 675.877 300.399 681.409Z" stroke="black" stroke-opacity="0.1" stroke-width="8.85996"/>
<path d="M223.61 742.315C239.794 744.551 254.231 736.827 255.857 725.063C257.482 713.299 245.679 701.95 229.495 699.714C213.311 697.478 198.874 705.203 197.249 716.967C195.624 728.731 207.426 740.08 223.61 742.315Z" fill="#BABFFC"/>
<path d="M251.468 724.456C250.897 728.587 248.032 732.394 243.103 735.034C238.178 737.668 231.482 738.931 224.216 737.926C216.95 736.924 210.847 733.891 206.821 730.021C202.791 726.145 201.066 721.702 201.637 717.571C202.207 713.44 205.072 709.633 210.002 706.996C214.927 704.362 221.623 703.099 228.888 704.101C236.154 705.106 242.257 708.136 246.283 712.009C250.313 715.882 252.039 720.325 251.468 724.456Z" stroke="black" stroke-opacity="0.1" stroke-width="8.85996"/>
</g>
<defs>
<clipPath id="clip0_1105_2307">
<rect width="888" height="747" fill="white"/>
</clipPath>
</defs>
</svg>
