<svg width="888" height="591" viewBox="0 0 888 591" fill="none" xmlns="http://www.w3.org/2000/svg">
<path d="M825.17 2.68652H62.8302C28.13 2.68652 0 30.8166 0 65.5167V526.272C0 560.972 28.13 589.103 62.8302 589.103H825.17C859.87 589.103 888 560.972 888 526.272V65.5167C888 30.8166 859.87 2.68652 825.17 2.68652Z" fill="#E09787"/>
<path d="M825.17 2.68652H62.8302C28.13 2.68652 0 30.8166 0 65.5167V526.272C0 560.972 28.13 589.103 62.8302 589.103H825.17C859.87 589.103 888 560.972 888 526.272V65.5167C888 30.8166 859.87 2.68652 825.17 2.68652Z" fill="black" fill-opacity="0.03"/>
<path d="M45.0293 188.036H842.972" stroke="white" stroke-opacity="0.5" stroke-width="6.28302" stroke-linecap="round"/>
<path d="M325.545 139.996C324.789 139.577 324.204 138.823 324.036 137.818C323.952 137.064 323.952 136.31 323.868 135.472C323.7 132.792 323.619 130.027 323.535 127.346C323.451 123.576 323.367 119.89 323.367 116.121C323.283 112.016 323.283 107.911 323.283 103.806C323.199 99.952 323.199 96.0986 323.283 92.2451C323.283 89.2292 323.367 86.297 323.451 83.3651C323.451 82.6112 323.535 81.857 323.619 81.0194C324.204 72.4745 324.624 70.9667 326.718 69.9614C328.896 68.8721 331.242 70.2965 332.664 73.4798C333.669 75.5741 337.356 87.8051 338.697 93.3341C342.3 108.581 344.979 118.885 345.399 118.885C346.068 118.885 350.34 104.979 355.2 86.7161C357.378 78.6737 359.388 72.7259 360.393 71.2178C361.317 69.8774 362.739 68.9561 363.828 68.9561C365.505 68.9561 367.263 70.3802 368.019 72.3908C369.273 75.9092 369.441 79.7627 369.189 110.927C369.189 116.204 369.108 121.482 369.108 126.76C369.024 129.524 369.024 132.372 369.024 135.137C369.024 135.975 369.108 136.896 369.024 137.65C368.688 140.75 364.248 141.085 362.823 138.656C362.406 137.818 362.406 136.142 362.406 112.099C362.406 89.648 362.406 86.6321 362.07 87.8051C353.943 116.707 353.106 119.388 351.348 122.571C348.414 127.849 344.226 129.273 341.379 125.922C339.117 123.409 338.028 119.807 331.995 95.0096C330.486 88.8104 330.402 88.4753 330.237 89.648C329.901 91.5749 329.901 106.235 330.237 122.739C330.654 139.493 330.654 138.907 328.812 140.08C327.723 140.75 326.466 140.582 325.545 139.996ZM406.026 128.603C407.196 129.189 407.868 130.278 407.868 131.619C407.868 133.043 407.28 133.964 405.522 135.556C401.667 139.074 394.8 140.75 390.36 139.242C386.337 137.818 383.07 134.97 380.892 131.283C376.62 124.079 376.536 114.361 378.714 106.403C380.64 99.0308 383.826 93.8366 388.767 90.1508C389.271 89.8157 389.772 89.4806 390.276 89.1455C394.965 86.5484 400.83 87.1349 403.344 92.2451C405.438 96.4337 404.685 101.712 402.756 105.9C400.245 111.597 393.123 116.121 386.673 116.121H384.327V116.204C384.327 117.963 384.411 119.723 384.663 121.482C384.747 122.068 384.915 122.655 384.996 123.241C385.92 126.927 387.846 130.446 391.281 132.205C394.716 133.964 399.072 132.372 401.667 129.859C403.344 128.268 404.517 127.932 406.026 128.603ZM387.426 102.381C386.085 105.23 385.08 108.413 385.332 109.083C385.92 110.508 389.604 108.832 390.444 108.413C395.133 106.487 399.072 101.209 397.647 95.9312C397.227 94.5068 396.474 94.088 394.965 94.5068C392.454 95.177 389.355 98.3606 387.426 102.381ZM438.993 128.603C440.166 129.189 440.838 130.278 440.838 131.619C440.838 133.043 440.25 133.964 438.492 135.556C434.637 139.074 427.767 140.75 423.327 139.242C419.307 137.818 416.04 134.97 413.862 131.283C409.59 124.079 409.506 114.361 411.684 106.403C413.61 99.0308 416.793 93.8366 421.737 90.1508C422.238 89.8157 422.742 89.4806 423.246 89.1455C427.935 86.5484 433.8 87.1349 436.314 92.2451C438.408 96.4337 437.655 101.712 435.726 105.9C433.215 111.597 426.093 116.121 419.643 116.121H417.297V116.204C417.297 117.963 417.381 119.723 417.633 121.482C417.717 122.068 417.882 122.655 417.966 123.241C418.887 126.927 420.816 130.446 424.251 132.205C427.686 133.964 432.042 132.372 434.637 129.859C436.314 128.268 437.487 127.932 438.993 128.603ZM420.396 102.381C419.055 105.23 418.05 108.413 418.302 109.083C418.887 110.508 422.574 108.832 423.411 108.413C428.103 106.487 432.042 101.209 430.617 95.9312C430.197 94.5068 429.444 94.088 427.935 94.5068C425.424 95.177 422.322 98.3606 420.396 102.381ZM454.623 138.656C454.035 138.321 453.534 137.818 453.366 137.064C452.862 135.305 453.03 133.294 452.946 131.451C452.862 126.425 452.862 121.314 452.862 116.288L452.778 96.1823H448.422C445.911 96.1823 441.804 96.6851 441.303 93.3341C441.135 92.1614 441.555 91.0721 442.392 90.3182C443.817 88.9778 446.58 89.3129 448.422 89.3129H452.613V80.6843C452.613 78.3386 452.613 75.9092 452.697 73.4798C452.778 72.5582 452.778 71.3855 453.366 70.6316C453.951 69.71 455.208 69.2072 456.297 69.2912C459.9 69.5423 459.48 73.7312 459.48 76.2443C459.564 77.7521 459.564 79.1765 459.564 80.6843V89.3129L464.004 89.3966C465.849 89.3966 468.36 88.9778 469.617 90.821C470.457 92.0774 470.289 94.1717 469.032 95.0933C467.691 96.0986 465.345 95.8472 463.839 95.9312L459.648 96.0986V116.623C459.648 121.566 459.732 126.508 459.648 131.451C459.648 133.294 459.732 135.472 459.315 137.315C458.811 139.326 456.213 139.661 454.623 138.656ZM475.575 139.41C474.906 139.074 474.237 138.572 474.069 137.818C473.901 137.399 473.817 136.812 473.817 136.31C473.649 134.216 473.733 132.037 473.733 129.859C473.901 114.696 474.402 93.5855 474.654 91.6586C474.906 89.9831 474.99 89.648 475.911 88.8104C477.42 87.3863 479.682 87.7214 480.855 89.4806C481.356 90.3182 481.44 93.4178 481.104 98.6957C481.023 99.9521 480.855 109.083 480.771 118.885C480.687 123.576 480.687 128.352 480.435 133.043C480.435 134.634 480.519 136.561 479.934 138.069C479.43 139.326 477.672 139.828 476.415 139.661C476.163 139.577 475.827 139.493 475.575 139.41ZM476.583 82.0247C476.499 81.941 476.331 81.857 476.163 81.7733C474.153 80.4329 474.321 77.501 476.331 76.1606C477.252 75.5741 478.842 75.6578 479.766 76.1606C480.603 76.6631 481.104 77.501 481.272 78.4223C481.608 80.5166 480.267 82.3598 478.089 82.3598C477.588 82.3598 477.084 82.2761 476.583 82.0247ZM493.167 138.991C492.078 138.739 491.577 138.321 490.989 137.232C490.569 136.31 490.569 129.943 491.241 104.643C491.577 91.6586 491.577 91.4072 493.167 90.4019C495.009 89.3129 497.19 90.0668 498.027 91.9937C498.36 92.8316 498.444 93.5855 498.279 95.3447L498.111 97.6904L499.449 95.9312C502.131 92.3288 506.151 89.3129 510.591 88.3076C517.209 86.7998 522.153 92.0774 524.079 97.7741C525.672 102.633 525.504 107.827 525.588 112.853C525.756 122.822 525.168 135.556 524.415 137.232C523.995 138.321 522.573 139.242 521.4 139.242C520.227 139.242 518.802 138.321 518.382 137.148C518.049 136.394 518.049 135.556 518.217 132.289C518.634 126.508 519.138 120.644 519.138 114.78C519.138 109.502 519.222 102.717 516.792 97.8578C514.278 92.8316 509.586 95.177 506.487 98.2766C503.388 101.376 500.958 106.654 498.864 115.115C498.027 118.634 497.607 124.163 497.523 132.037C497.523 133.964 497.439 135.975 497.271 136.477C496.77 138.321 495.009 139.326 493.167 138.991ZM565.512 109.335C565.593 112.351 565.593 115.367 565.593 118.382C565.677 126.76 565.593 135.137 565.428 143.514C565.26 151.389 564.42 159.515 558.306 165.212C554.37 168.898 549.09 169.903 543.897 168.814C540.966 168.144 539.037 167.306 536.442 165.296C535.101 164.29 533.508 163.285 533.676 161.358C533.76 159.683 535.185 158.259 536.943 158.259C538.116 158.259 538.536 158.426 540.294 159.683C542.892 161.526 544.566 162.196 547.332 162.363C558.642 163.034 558.474 147.284 558.642 139.577C558.81 135.64 558.891 131.702 558.891 127.849C558.975 126.425 558.975 125.001 558.975 123.576C558.975 123.157 559.143 122.152 558.891 121.817C558.81 121.65 558.222 122.822 557.637 124.33C554.787 132.037 551.604 136.31 547.248 138.488C544.566 139.828 540.882 139.912 538.452 137.985C532.923 133.964 531.75 125.587 532.086 119.22C532.419 113.607 533.844 107.911 536.19 102.801C539.541 95.6798 546.159 86.0459 555.459 89.4806C559.647 91.0721 562.326 95.0933 564.255 98.9468C564.924 100.371 565.26 101.795 565.26 103.303L565.512 109.335ZM556.464 105.314L557.802 101.376L557.133 100.12C556.38 98.7794 555.459 97.3553 554.202 96.4337C549.762 93.2504 545.322 99.9521 543.477 103.219C541.05 107.492 539.709 112.434 539.205 117.293C538.536 123.744 539.793 130.613 542.055 132.205C542.808 132.792 544.149 132.624 545.238 131.786C548.169 129.692 550.767 124.33 553.782 114.11C554.619 111.513 555.792 107.492 556.464 105.314Z" fill="white"/>
</svg>
