<svg width="296" height="138" viewBox="0 0 296 138" fill="none" xmlns="http://www.w3.org/2000/svg">
<path d="M35.7593 137.4C28.3095 137.4 22.1464 135.53 17.2701 131.788C13.342 129.067 9.75254 124.419 6.50169 117.843C4.46991 113.535 2.84449 107.469 1.62542 99.6465C0.677259 93.2975 0.203178 87.2886 0.203178 81.6199C0.0677259 80.146 0 77.5951 0 73.9671V61.3825C0 56.5074 0.203178 50.6686 0.609533 43.8661C1.15134 38.084 2.23496 32.1885 3.86038 26.1796C5.62125 20.2841 8.19484 15.2956 11.5811 11.2141C14.9674 6.90589 19.5051 3.84476 25.1941 2.03076C28.5804 1.23714 31.7635 0.840332 34.7434 0.840332C40.4324 0.840332 43.2769 2.42758 43.2769 5.60207C43.2769 6.8492 42.7351 7.86957 41.6515 8.6632C40.7033 9.34344 39.4165 9.68357 37.7911 9.68357C37.2493 9.68357 36.3011 9.5135 34.9466 9.17338L32.1021 8.83326C29.5285 8.83326 27.2258 9.5135 25.1941 10.874C23.1623 12.1211 21.4691 13.9918 20.1146 16.4861C16.9992 21.928 14.8997 27.8802 13.8161 34.3426C12.3261 42.2788 11.5134 49.1947 11.378 55.0902C11.1071 60.1921 10.9716 65.5774 10.9716 71.2461V75.8378C10.8362 77.425 10.7684 79.4091 10.7684 81.79C10.7684 87.5721 11.1071 93.2408 11.7843 98.7962C12.3261 105.372 13.8161 111.041 16.2542 115.802C18.4215 121.131 21.9432 124.872 26.8195 127.027C29.1222 128.16 31.9667 128.727 35.353 128.727C41.3128 128.727 46.3246 126.346 50.3881 121.585C50.2527 117.616 49.914 113.762 49.3722 110.02C48.8304 106.166 48.0177 103.558 46.9341 102.197C46.7986 102.197 46.46 102.254 45.9182 102.368C45.5118 102.368 44.8346 102.424 43.8864 102.538L39.0102 102.878C34.4048 102.878 32.1021 101.234 32.1021 97.9459C32.1021 96.9255 32.7794 96.0185 34.1339 95.2249C35.4884 94.4313 37.317 93.8644 39.6197 93.5243C43.4123 92.7306 46.7986 92.3338 49.7786 92.3338C52.4876 92.3338 54.5871 93.1841 56.0771 94.8848C57.5671 96.5854 58.3121 98.7395 58.3121 101.347C58.3121 105.088 58.9893 110.19 60.3438 116.653C61.6984 123.002 62.3756 128.047 62.3756 131.788C62.3756 133.035 61.9015 134.112 60.9534 135.019C60.0052 135.926 58.8539 136.38 57.4993 136.38C54.113 136.38 51.8104 135.19 50.5913 132.809V132.639L46.1214 134.509C42.0578 136.437 38.6038 137.4 35.7593 137.4Z" fill="#186F81"/>
<path d="M102.624 136.21C99.1021 136.21 95.8513 135.246 92.8713 133.319C89.8914 131.505 87.4533 129.011 85.5569 125.836C81.6288 118.92 79.1907 111.381 78.2425 103.218C77.0235 95.5083 76.4139 88.0823 76.4139 80.9397C76.4139 79.5792 76.4817 78.4454 76.6171 77.5384V74.4773C76.6171 73.9104 76.5494 73.627 76.4139 73.627V70.5659L76.6171 58.6615C76.7526 55.0335 77.2944 49.2514 78.2425 41.3151C78.9198 35.8732 80.4775 30.6012 82.9156 25.4994C83.8638 23.2319 85.0829 21.5312 86.5728 20.3975C88.0628 19.1504 89.7559 18.5268 91.6523 18.5268C97.0703 18.5268 101.947 19.3771 106.281 21.0777C110.616 22.665 114.273 24.9325 117.253 27.8802C119.962 30.7146 122.264 34.2292 124.161 38.4241C126.057 42.5056 127.412 46.8705 128.224 51.5189C129.037 56.2806 129.443 61.3258 129.443 66.6544V68.0149C129.443 71.5295 129.511 74.704 129.647 77.5384L129.85 87.232C129.85 119.884 120.774 136.21 102.624 136.21ZM101.811 129.067C104.249 129.067 106.484 128.274 108.516 126.686C110.548 124.986 112.106 122.718 113.189 119.884C115.763 114.102 117.32 107.866 117.862 101.177C118.539 95.3949 118.878 90.4065 118.878 86.2116C118.878 81.1097 118.404 74.4206 117.456 66.1442C116.643 57.4144 116.237 50.8953 116.237 46.5871V43.526C115.966 39.2177 114.205 35.4763 110.954 32.3018C107.839 29.1274 103.978 27.5401 99.373 27.5401C94.7677 27.5401 91.72 29.7509 90.23 34.1725C88.8755 37.6872 88.1982 42.2221 88.1982 47.7775C88.1982 49.9316 88.266 51.7456 88.4014 53.2195V57.8112L87.9951 65.634C87.7242 68.0149 87.5887 70.6225 87.5887 73.4569C87.5887 79.5792 87.7919 85.6447 88.1982 91.6536C88.7401 100.157 90.0946 108.433 92.2618 116.483C94.429 124.872 97.6122 129.067 101.811 129.067Z" fill="#186F81"/>
<path d="M192.094 134.509C188.978 134.509 186.675 134.112 185.186 133.319C183.696 132.525 182.951 131.051 182.951 128.897C182.951 125.496 182.273 119.714 180.919 111.551L180.106 107.98L159.991 105.429C159.179 108.036 158.027 113.308 156.537 121.244C155.725 126.8 154.438 130.484 152.677 132.298C151.729 133.319 150.374 133.829 148.614 133.829C146.988 133.829 145.498 133.432 144.144 132.639C142.789 131.732 142.112 130.655 142.112 129.407L142.518 128.557L142.721 127.877C151.661 98.7395 158.434 69.999 163.039 41.6553C163.039 41.2018 163.107 40.4648 163.242 39.4445C163.378 38.3107 163.513 36.7235 163.649 34.6827C164.055 30.4879 164.461 27.1433 164.868 24.649C165.41 22.1548 166.222 20.2841 167.306 19.037H174.214C176.11 19.037 177.736 19.4338 179.09 20.2274C180.445 20.9077 181.122 21.9281 181.122 23.2885C181.122 31.905 182.544 44.7164 185.389 61.7226C188.098 79.1823 189.452 91.4268 189.452 98.4561C189.452 99.1363 189.791 100.894 190.468 103.728C191.145 106.336 191.484 108.036 191.484 108.83C191.484 109.623 192.161 113.025 193.516 119.034C194.735 124.476 195.344 127.99 195.344 129.577V129.748C195.344 132.242 194.261 133.829 192.094 134.509ZM178.684 101.857C178.277 100.157 178.074 98.0593 178.074 95.565C178.074 85.3613 176.991 72.3232 174.823 56.4507L172.792 38.7642C166.967 65.4073 162.971 85.5313 160.804 99.1363C162.836 100.27 168.796 101.177 178.684 101.857Z" fill="#186F81"/>
<path d="M244.072 135.7C239.196 134.339 233.168 133.659 225.989 133.659C223.822 134.793 221.519 135.36 219.081 135.36C217.456 135.36 216.034 134.736 214.815 133.489C213.731 132.355 213.189 131.108 213.189 129.748C213.189 120.224 213.663 107.526 214.611 91.6536C215.424 74.7607 215.83 62.1194 215.83 53.7297V52.5393C215.018 45.3966 214.611 40.068 214.611 36.5534C214.611 25.7828 216.982 20.3975 221.723 20.3975C223.077 20.3975 224.228 20.851 225.177 21.758C226.26 22.5516 226.802 23.5153 226.802 24.649C226.802 26.0095 226.599 28.1637 226.193 31.1114C225.786 33.9458 225.583 36.0999 225.583 37.5738C225.583 45.1699 225.651 52.0291 225.786 58.1513C225.922 64.1602 225.989 70.9627 225.989 78.5588C225.312 80.2594 224.973 82.6403 224.973 85.7014V87.7421L224.567 101.177C224.296 105.145 224.161 109.68 224.161 114.782C224.161 122.605 226.396 126.516 230.866 126.516C231.137 126.516 231.543 126.516 232.085 126.516C232.762 126.403 233.642 126.346 234.726 126.346C235.945 126.233 237.503 126.176 239.399 126.176C246.714 126.176 250.371 127.877 250.371 131.278C250.371 132.412 249.761 133.376 248.542 134.169C247.323 134.963 245.833 135.473 244.072 135.7Z" fill="#186F81"/>
<path d="M270.806 135.36C268.368 135.019 266.268 134.283 264.507 133.149C262.882 132.015 261.934 130.541 261.663 128.727L263.898 125.836C264.711 125.836 265.997 126.063 267.758 126.516C269.79 126.856 271.348 127.027 272.431 127.027C274.87 127.027 277.037 126.12 278.933 124.306C280.965 122.492 282.455 120.111 283.403 117.163C285.164 111.721 286.044 106.846 286.044 102.538C286.044 95.0548 283.2 87.1753 277.511 78.8989L275.276 75.6677C272.702 71.9264 270.535 68.5818 268.774 65.634C267.013 62.6863 265.523 59.5118 264.304 56.1106C262.679 51.6889 261.866 47.2673 261.866 42.8457C261.866 37.8572 263.221 32.642 265.93 27.2C267.284 24.5924 269.181 22.4949 271.619 20.9077C274.192 19.2071 277.037 18.3567 280.152 18.3567C282.59 18.3567 284.825 19.037 286.857 20.3975C289.024 21.6446 290.108 23.1752 290.108 24.9892C290.108 26.0095 289.634 26.8032 288.686 27.37C287.737 27.9369 286.586 28.2203 285.232 28.2203C283.742 28.2203 282.319 27.8802 280.965 27.2C277.985 27.3134 275.615 29.5242 273.854 33.8324C272.364 37.8005 271.619 41.0884 271.619 43.696C271.619 46.9839 272.228 50.3284 273.447 53.7297C274.666 57.0176 276.224 60.022 278.12 62.743L282.59 69.5455L289.702 80.7696C291.598 83.9441 293.088 87.6288 294.171 91.8236C295.39 96.0185 296 100.27 296 104.578C296 111.494 294.104 118.07 290.311 124.306C288.415 127.48 285.706 130.031 282.184 131.958C278.798 133.886 275.005 134.849 270.806 134.849V135.36Z" fill="#186F81"/>
</svg>
