<svg width="888" height="414" viewBox="0 0 888 414" fill="none" xmlns="http://www.w3.org/2000/svg">
<path d="M107.278 412.199C84.9285 412.199 66.4392 406.589 51.8103 395.363C40.026 387.2 29.2576 373.256 19.5051 353.528C13.4097 340.604 8.53347 322.406 4.87626 298.938C2.03178 279.891 0.609534 261.864 0.609534 244.858C0.203178 240.437 0 232.784 0 221.9V184.146C0 169.521 0.609534 152.004 1.8286 131.597C3.45402 114.251 6.70488 96.564 11.5811 78.5373C16.8638 60.8508 24.5845 45.8853 34.7433 33.6408C44.9022 20.7162 58.5153 11.5328 75.5823 6.09082C85.7412 3.70996 95.2905 2.51953 104.23 2.51953C121.297 2.51953 129.831 7.28127 129.831 16.8047C129.831 20.5461 128.205 23.6072 124.954 25.9881C122.11 28.0289 118.249 29.0492 113.373 29.0492C111.748 29.0492 108.903 28.539 104.84 27.5187L96.3063 26.4983C88.5855 26.4983 81.6774 28.539 75.5823 32.6205C69.4869 36.3618 64.4073 41.9739 60.3438 49.4568C50.9976 65.7825 44.6991 83.6391 41.4483 103.026C36.9783 126.835 34.5402 147.583 34.134 165.269C33.3213 180.575 32.9148 196.731 32.9148 213.737V227.512C32.5086 232.274 32.3052 238.226 32.3052 245.369C32.3052 262.715 33.3213 279.721 35.3529 296.387C36.9783 316.115 41.4483 333.122 48.7626 347.405C55.2645 363.392 65.8296 374.615 80.4585 381.08C87.3666 384.479 95.9001 386.18 106.059 386.18C123.938 386.18 138.974 379.037 151.164 364.754C150.758 352.847 149.742 341.285 148.117 330.059C146.491 318.497 144.053 310.673 140.802 306.59C140.396 306.59 139.38 306.761 137.755 307.103C136.535 307.103 134.504 307.271 131.659 307.613L117.031 308.633C103.214 308.633 96.3063 303.701 96.3063 293.836C96.3063 290.775 98.3382 288.054 102.402 285.673C106.465 283.292 111.951 281.592 118.859 280.571C130.237 278.19 140.396 277 149.336 277C157.463 277 163.761 279.551 168.231 284.653C172.701 289.755 174.936 296.217 174.936 304.04C174.936 315.263 176.968 330.569 181.031 349.958C185.095 369.005 187.127 384.14 187.127 395.363C187.127 399.104 185.704 402.335 182.86 405.056C180.016 407.777 176.562 409.139 172.498 409.139C162.339 409.139 155.431 405.569 151.774 398.426V397.916L138.364 403.526C126.173 409.31 115.811 412.199 107.278 412.199Z" fill="#186F81"/>
<path d="M307.872 408.629C297.307 408.629 287.554 405.737 278.614 399.956C269.675 394.514 262.36 387.032 256.671 377.507C244.887 356.759 237.573 334.142 234.728 309.653C231.071 286.524 229.242 264.246 229.242 242.818C229.242 238.736 229.446 235.335 229.852 232.614V223.431C229.852 221.73 229.649 220.88 229.242 220.88V211.696L229.852 175.983C230.258 165.099 231.884 147.753 234.728 123.944C236.76 107.618 241.433 91.8023 248.747 76.4969C251.592 69.6944 255.249 64.5923 259.719 61.1912C264.189 57.4499 269.268 55.5791 274.957 55.5791C291.211 55.5791 305.841 58.13 318.843 63.2318C331.848 67.9937 342.819 74.7962 351.759 83.6393C359.886 92.1425 366.792 102.686 372.484 115.271C378.172 127.515 382.236 140.61 384.672 154.555C387.111 168.841 388.329 183.976 388.329 199.962V204.043C388.329 214.587 388.534 224.111 388.941 232.614L389.551 261.695C389.551 359.651 362.322 408.629 307.872 408.629ZM305.433 387.2C312.747 387.2 319.452 384.821 325.548 380.057C331.644 374.957 336.318 368.153 339.567 359.651C347.289 342.305 351.96 323.597 353.586 303.53C355.617 286.183 356.634 271.218 356.634 258.633C356.634 243.328 355.212 223.26 352.368 198.431C349.929 172.242 348.711 152.685 348.711 139.76V130.577C347.898 117.652 342.615 106.428 332.862 96.9041C323.517 87.3809 311.934 82.619 298.119 82.619C284.304 82.619 275.16 89.2514 270.69 102.516C266.627 113.06 264.595 126.665 264.595 143.331C264.595 149.794 264.798 155.236 265.205 159.657V173.432L263.986 196.901C263.173 204.043 262.767 211.866 262.767 220.369C262.767 238.736 263.376 256.933 264.595 274.96C266.221 300.47 270.284 325.298 276.786 349.448C283.287 374.615 292.837 387.2 305.433 387.2Z" fill="#186F81"/>
<path d="M576.28 403.527C566.932 403.527 560.023 402.336 555.556 399.957C551.086 397.575 548.851 393.153 548.851 386.691C548.851 376.488 546.817 359.142 542.755 334.653L540.316 323.94L479.971 316.287C477.535 324.108 474.079 339.924 469.609 363.732C467.173 380.4 463.312 391.452 458.029 396.894C455.185 399.957 451.12 401.487 445.84 401.487C440.962 401.487 436.492 400.296 432.43 397.917C428.365 395.196 426.334 391.965 426.334 388.221L427.552 385.671L428.161 383.631C454.981 296.219 475.3 209.997 489.115 124.966C489.115 123.606 489.319 121.395 489.724 118.334C490.132 114.932 490.537 110.171 490.945 104.048C492.163 91.464 493.381 81.4302 494.602 73.9473C496.228 66.4647 498.664 60.8526 501.916 57.1113H522.64C528.328 57.1113 533.206 58.3017 537.268 60.6825C541.333 62.7234 543.364 65.7846 543.364 69.8658C543.364 95.7153 547.63 134.15 556.165 185.168C564.292 237.547 568.354 274.281 568.354 295.369C568.354 297.409 569.371 302.682 571.402 311.184C573.433 319.008 574.45 324.108 574.45 326.49C574.45 328.869 576.481 339.075 580.546 357.102C584.203 373.428 586.03 383.97 586.03 388.731V389.244C586.03 396.726 582.781 401.487 576.28 403.527ZM536.05 305.571C534.829 300.471 534.22 294.178 534.22 286.695C534.22 256.084 530.971 216.97 524.467 169.352L518.374 116.293C500.899 196.222 488.911 256.594 482.41 297.409C488.506 300.81 506.386 303.531 536.05 305.571Z" fill="#186F81"/>
<path d="M732.217 407.1C717.589 403.017 699.505 400.977 677.968 400.977C671.467 404.379 664.558 406.08 657.244 406.08C652.369 406.08 648.103 404.208 644.446 400.467C641.194 397.065 639.568 393.324 639.568 389.244C639.568 360.672 640.99 322.578 643.834 274.961C646.273 224.282 647.491 186.358 647.491 161.189V157.618C645.055 136.19 643.834 120.204 643.834 109.66C643.834 77.3483 650.947 61.1924 665.17 61.1924C669.232 61.1924 672.685 62.5529 675.532 65.2739C678.781 67.6547 680.407 70.5458 680.407 73.9469C680.407 78.0284 679.798 84.491 678.58 93.3341C677.359 101.837 676.75 108.3 676.75 112.721C676.75 135.51 676.954 156.087 677.359 174.454C677.767 192.48 677.968 212.888 677.968 235.676C675.937 240.778 674.92 247.921 674.92 257.104V263.226L673.702 303.531C672.889 315.435 672.484 329.04 672.484 344.346C672.484 367.815 679.189 379.548 692.599 379.548C693.412 379.548 694.63 379.548 696.256 379.548C698.287 379.209 700.927 379.038 704.179 379.038C707.836 378.699 712.51 378.528 718.198 378.528C740.143 378.528 751.114 383.631 751.114 393.834C751.114 397.236 749.284 400.128 745.627 402.507C741.97 404.889 737.5 406.419 732.217 407.1Z" fill="#186F81"/>
<path d="M812.415 406.079C805.101 405.056 798.801 402.848 793.518 399.446C788.643 396.044 785.799 391.622 784.986 386.18L791.691 377.507C794.13 377.507 797.988 378.188 803.271 379.547C809.367 380.567 814.041 381.08 817.29 381.08C824.607 381.08 831.108 378.359 836.796 372.917C842.892 367.475 847.362 360.332 850.206 351.488C855.489 335.162 858.129 320.537 858.129 307.613C858.129 285.164 849.597 261.525 832.53 236.696L825.825 227.002C818.103 215.778 811.602 205.745 806.319 196.901C801.036 188.058 796.566 178.535 792.909 168.331C788.034 155.066 785.595 141.801 785.595 128.536C785.595 113.571 789.66 97.9252 797.787 81.5992C801.849 73.7764 807.54 67.4839 814.854 62.7223C822.573 57.6205 831.108 55.0693 840.453 55.0693C847.767 55.0693 854.472 57.1102 860.568 61.1917C867.069 64.933 870.321 69.5248 870.321 74.9668C870.321 78.0277 868.899 80.4088 866.055 82.1092C863.208 83.8099 859.755 84.6601 855.693 84.6601C851.223 84.6601 846.954 83.6398 842.892 81.5992C833.952 81.9394 826.842 88.5718 821.559 101.496C817.089 113.401 814.854 123.264 814.854 131.087C814.854 140.951 816.681 150.984 820.338 161.188C823.995 171.052 828.669 180.065 834.357 188.228L847.767 208.636L869.103 242.308C874.791 251.832 879.261 262.886 882.51 275.47C886.167 288.055 887.997 300.809 887.997 313.733C887.997 334.481 882.309 354.209 870.93 372.917C865.242 382.439 857.115 390.092 846.549 395.873C836.391 401.657 825.012 404.546 812.415 404.546V406.079Z" fill="#186F81"/>
</svg>
