<svg width="888" height="297" viewBox="0 0 888 297" fill="none" xmlns="http://www.w3.org/2000/svg">
<g clip-path="url(#clip0_1105_1861)">
<path d="M48.2949 294.448C39.2013 294.448 34.6542 285.109 34.6542 266.43C34.6542 254.633 29.4931 212.482 19.1705 139.979C9.09369 67.2292 2.70353 27.5364 0 20.9004C3.19509 15.0018 7.49616 12.0525 12.9032 12.0525C18.5561 12.0525 23.8402 24.8328 28.7557 50.3935C33.4254 77.4286 37.3578 108.396 40.5528 143.297L43.1337 173.158C44.6082 189.871 45.4686 198.35 45.7143 198.596L49.401 167.628L51.6129 148.458C54.8079 120.439 56.8971 100.655 57.8802 89.1031C59.109 73.8649 59.7234 63.4195 59.7234 57.7666V50.7622C59.7234 48.0586 60.7065 45.478 62.6727 43.0201C64.6389 40.5625 66.8508 39.3334 69.3087 39.3334C78.1566 39.3334 82.5804 43.0201 82.5804 50.3935V55.9234C82.5804 69.9325 83.9322 85.0477 86.6358 101.269C89.5851 117.244 93.7632 136.415 99.1704 158.781C102.611 171.807 106.052 187.659 109.493 206.338C110.23 198.228 112.565 178.565 116.497 147.352C120.43 118.842 123.257 94.633 124.977 74.7253C126.943 54.5716 127.926 35.7697 127.926 18.3198C127.926 12.6669 128.786 8.73454 130.507 6.52255C132.473 4.0648 136.037 2.83594 141.198 2.83594C144.147 2.83594 146.728 3.81904 148.94 5.78521C151.398 7.50565 152.626 9.84052 152.626 12.7898C152.626 15.4934 151.398 18.3198 148.94 21.2691C148.94 38.965 147.588 59.7328 144.885 83.5732C142.181 107.168 138.863 129.656 134.931 151.038C130.998 171.93 127.68 194.418 124.977 218.504C122.273 242.344 120.922 263.358 120.922 281.545C120.922 285.478 119.938 288.55 117.972 290.762C116.252 293.22 113.548 294.448 109.861 294.448C107.158 294.448 103.963 289.41 100.276 279.333C95.6067 265.324 89.8308 237.429 82.9491 195.647L76.3134 152.513L72.9954 128.55C69.8001 150.916 67.3425 168.98 65.622 182.744C64.1475 196.261 62.6727 212.359 61.1982 231.039C59.4777 248.98 58.6173 266.676 58.6173 284.126C58.6173 286.584 57.5115 288.918 55.2996 291.131C53.3334 293.343 50.9985 294.448 48.2949 294.448Z" fill="#E06E51"/>
<path d="M237.102 296.291C230.712 296.291 224.814 294.201 219.407 290.023C213.999 286.091 209.576 280.684 206.135 273.802C199.007 258.81 194.583 242.466 192.863 224.77C190.651 208.057 189.545 191.959 189.545 176.475C189.545 173.526 189.668 171.068 189.913 169.102V162.466C189.913 161.237 189.791 160.623 189.545 160.623V153.987L189.913 128.18C190.159 120.315 191.142 107.781 192.863 90.5765C194.092 78.7793 196.918 67.3508 201.342 56.291C203.062 51.3755 205.275 47.6888 207.978 45.2309C210.681 42.5276 213.754 41.1758 217.194 41.1758C227.025 41.1758 235.874 43.019 243.738 46.7057C251.603 50.1467 258.239 55.0622 263.646 61.4522C268.562 67.5965 272.74 75.2156 276.181 84.3092C279.621 93.1574 282.079 102.62 283.554 112.696C285.029 123.019 285.766 133.956 285.766 145.507V148.457C285.766 156.076 285.889 162.957 286.134 169.102L286.503 190.116C286.503 260.899 270.036 296.291 237.102 296.291ZM235.628 280.807C240.052 280.807 244.107 279.086 247.794 275.646C251.48 271.959 254.307 267.043 256.273 260.899C260.943 248.364 263.769 234.847 264.752 220.346C265.981 207.811 266.595 196.997 266.595 187.904C266.595 176.844 265.735 162.343 264.015 144.401C262.54 125.477 261.803 111.345 261.803 102.005V95.3693C261.311 86.0297 258.116 77.9192 252.218 71.0375C246.565 64.1558 239.56 60.7148 231.204 60.7148C222.847 60.7148 217.317 65.5076 214.614 75.0929C212.156 82.7117 210.927 92.5427 210.927 104.586C210.927 109.256 211.05 113.188 211.296 116.383V126.337L210.559 143.295C210.067 148.457 209.821 154.11 209.821 160.254C209.821 173.526 210.19 186.675 210.927 199.701C211.91 218.134 214.368 236.076 218.301 253.526C222.233 271.713 228.009 280.807 235.628 280.807Z" fill="#E06E51"/>
<path d="M391.333 295.554C385.927 295.554 381.01 289.656 376.588 277.858C371.425 265.078 367.618 251.929 365.158 238.411L362.578 225.877C355.45 190.731 350.905 170.7 348.937 165.785H344.515C344.515 172.912 344.392 179.425 344.146 185.324V205.6C344.146 238.534 346.48 264.218 351.151 282.651L347.095 292.605H336.772L331.978 287.075L332.347 262.375C332.347 240.255 331.243 206.707 329.029 161.73C327.064 113.803 326.08 80.2551 326.08 61.0845C326.08 49.2873 330.136 43.3887 338.248 43.3887C351.517 43.3887 362.332 46.8297 370.69 53.7114C379.291 60.5931 383.593 70.1784 383.593 82.467V108.274C383.593 111.96 382.978 116.261 381.748 121.177C380.521 125.846 379.168 129.656 377.692 132.605L370.69 145.877L364.789 156.937L366.634 165.785L371.794 191.96C375.235 210.885 378.553 226.246 381.748 238.043C384.943 249.84 388.876 260.531 393.547 270.117L395.758 274.54C398.215 279.456 399.445 283.388 399.445 286.338C399.445 288.796 398.707 290.884 397.234 292.605C395.758 294.571 393.793 295.554 391.333 295.554ZM345.988 147.72C351.397 145.017 355.942 137.644 359.629 125.601C363.562 113.312 365.527 102.006 365.527 91.6836C365.527 83.8188 364.546 76.4454 362.578 69.5637C361.348 65.6313 359.26 62.682 356.311 60.7158C353.608 58.5039 350.167 57.3978 345.988 57.3978L345.25 59.2413L344.515 62.5593L345.25 106.061C345.742 118.842 345.988 132.728 345.988 147.72Z" fill="#E06E51"/>
<path d="M522.548 295.553C516.893 295.553 510.872 289.409 504.482 277.12C494.897 258.687 485.435 228.334 476.096 186.06C473.393 174.509 471.179 163.817 469.46 153.986C460.613 171.682 456.188 193.065 456.188 218.134V286.337C456.188 291.989 453.731 294.816 448.814 294.816C445.127 294.816 442.055 293.71 439.598 291.498C437.387 289.532 436.28 286.705 436.28 283.018V171.313C436.28 160.499 437.51 140.592 439.967 111.59C442.424 86.2752 443.654 66.3675 443.654 51.8667C445.619 47.1972 449.183 44.8623 454.346 44.8623C457.541 44.8623 460.244 45.9681 462.455 48.1803C464.666 50.3922 465.773 53.0958 465.773 56.2908V57.3966C462.578 62.8038 460.982 85.1694 460.982 124.493V137.765L474.62 110.853C482.978 93.4029 490.841 78.4104 498.215 65.8761C505.097 53.5872 510.137 47.4429 513.332 47.4429C517.262 47.4429 520.58 48.303 523.286 50.0235C526.235 51.744 527.708 54.2016 527.708 57.3966L518.861 72.1434C500.429 101.882 490.106 119.087 487.892 123.756C487.892 127.934 487.769 131.621 487.523 134.816L487.157 145.876C487.157 156.444 491.333 176.229 499.691 205.231C508.292 233.987 515.42 253.034 521.072 262.373L525.866 269.009C530.534 275.399 532.871 281.052 532.871 285.968C532.871 288.671 531.764 290.883 529.553 292.604C527.585 294.57 525.251 295.553 522.548 295.553Z" fill="#E06E51"/>
<path d="M607.566 296.291C601.176 296.291 595.278 294.201 589.869 290.023C584.463 286.091 580.038 280.684 576.597 273.802C569.469 258.81 565.047 242.466 563.325 224.77C561.114 208.057 560.007 191.959 560.007 176.475C560.007 173.526 560.13 171.068 560.376 169.102V162.466C560.376 161.237 560.253 160.623 560.007 160.623V153.987L560.376 128.18C560.622 120.315 561.606 107.781 563.325 90.5765C564.555 78.7793 567.381 67.3508 571.806 56.291C573.525 51.3755 575.739 47.6888 578.442 45.2309C581.145 42.5276 584.217 41.1758 587.658 41.1758C597.489 41.1758 606.336 43.019 614.202 46.7057C622.065 50.1467 628.701 55.0622 634.11 61.4522C639.024 67.5965 643.203 75.2156 646.644 84.3092C650.085 93.1574 652.542 102.62 654.018 112.696C655.491 123.019 656.229 133.956 656.229 145.507V148.457C656.229 156.076 656.352 162.957 656.598 169.102L656.967 190.116C656.967 260.899 640.5 296.291 607.566 296.291ZM606.09 280.807C610.515 280.807 614.571 279.086 618.258 275.646C621.942 271.959 624.771 267.043 626.736 260.899C631.407 248.364 634.233 234.847 635.214 220.346C636.444 207.811 637.059 196.997 637.059 187.904C637.059 176.844 636.198 162.343 634.479 144.401C633.003 125.477 632.265 111.345 632.265 102.005V95.3693C631.773 86.0297 628.578 77.9192 622.68 71.0375C617.028 64.1558 610.023 60.7148 601.668 60.7148C593.31 60.7148 587.781 65.5076 585.078 75.0929C582.618 82.7117 581.391 92.5427 581.391 104.586C581.391 109.256 581.514 113.188 581.76 116.383V126.337L581.022 143.295C580.53 148.457 580.284 154.11 580.284 160.254C580.284 173.526 580.653 186.675 581.391 199.701C582.372 218.134 584.832 236.076 588.765 253.526C592.695 271.713 598.473 280.807 606.09 280.807Z" fill="#E06E51"/>
<path d="M736.728 294.818C730.83 294.818 725.544 293.466 720.876 290.762C716.205 288.305 712.395 284.618 709.446 279.702C703.548 269.38 699.738 257.705 698.019 244.679C696.297 233.374 695.436 219.856 695.436 204.127C694.701 177.583 694.332 145.14 694.332 106.799L693.963 78.4123C693.717 76.9378 693.594 74.4799 693.594 71.0392C693.102 61.6996 692.856 56.047 692.856 54.0808C695.067 48.9193 697.65 46.3387 700.599 46.3387C703.548 46.3387 706.128 48.5506 708.339 52.9747C710.799 57.3985 712.026 62.1913 712.026 67.3525V167.629C712.026 177.46 712.887 190.486 714.606 206.707C716.328 226.861 717.189 239.887 717.189 245.786C717.189 263.973 724.929 273.067 740.415 273.067C758.109 273.067 766.959 206.953 766.959 74.7259V50.7628C766.713 50.0254 766.59 49.0423 766.59 47.8135C766.59 44.8642 767.202 42.775 768.432 41.5462C769.908 40.0714 772.611 39.334 776.544 39.334C779.739 39.334 782.196 40.3171 783.915 42.2836C785.883 44.0038 787.11 46.093 787.602 48.5506C787.848 50.0254 787.971 52.8517 787.971 57.0301C787.971 60.9625 787.602 67.2298 786.864 75.8317C785.883 82.9594 785.391 89.1037 785.391 94.2649C785.391 99.9178 785.145 104.956 784.653 109.38L783.915 124.864V127.813C784.161 128.796 784.284 129.902 784.284 131.131C784.284 240.256 768.432 294.818 736.728 294.818Z" fill="#E06E51"/>
<path d="M851.133 283.387L850.764 269.009C850.518 264.831 850.395 260.161 850.395 255L850.764 242.465C850.029 239.762 848.184 212.849 845.235 161.728C842.286 110.607 840.564 77.7956 840.075 63.2948C825.819 62.8034 816.726 61.3289 812.793 58.871C810.09 56.9048 808.737 54.6929 808.737 52.235C808.737 50.2688 809.967 48.5483 812.424 47.0738C815.127 45.3533 817.83 44.4932 820.536 44.4932C827.415 44.4932 835.773 44.9846 845.604 45.9677C854.943 47.1968 863.301 47.8112 870.672 47.8112H876.57C884.19 47.8112 888 50.7605 888 56.6591C888 59.6084 886.77 62.066 884.313 64.0322C881.856 65.7527 879.03 66.6128 875.835 66.6128C873.621 66.6128 870.426 66.2444 866.25 65.507L858.876 64.0322L858.138 67.7189C858.138 89.5928 860.226 124.493 864.405 172.419C868.338 217.396 870.303 252.296 870.303 277.119C870.303 280.069 868.953 282.649 866.25 284.862C863.79 287.073 860.964 288.18 857.769 288.18L851.133 283.387Z" fill="#E06E51"/>
</g>
<defs>
<clipPath id="clip0_1105_1861">
<rect width="888" height="297" fill="white"/>
</clipPath>
</defs>
</svg>
