<svg width="296" height="99" viewBox="0 0 296 99" fill="none" xmlns="http://www.w3.org/2000/svg">
<path d="M16.0983 98.1492C13.0671 98.1492 11.5514 95.0361 11.5514 88.8098C11.5514 84.8774 9.83102 70.8272 6.39016 46.6593C3.03123 22.4095 0.901177 9.17854 0 6.96656C1.06503 5.00036 2.49872 4.01726 4.30107 4.01726C6.18535 4.01726 7.94674 8.27737 9.58524 16.7976C11.1418 25.8093 12.4526 36.1319 13.5176 47.7653L14.3779 57.7192C14.8694 63.2901 15.1562 66.1165 15.2381 66.1984L16.467 55.8759L17.2043 49.4857C18.2693 40.1462 18.9657 33.5513 19.2934 29.7008C19.703 24.6214 19.9078 21.1396 19.9078 19.2553V16.9205C19.9078 16.0193 20.2355 15.1591 20.8909 14.3398C21.5463 13.5206 22.2836 13.1109 23.1029 13.1109C26.0522 13.1109 27.5268 14.3398 27.5268 16.7976V18.6409C27.5268 23.3106 27.9774 28.349 28.8786 33.7561C29.8617 39.0812 31.2544 45.4714 33.0568 52.9266C34.2037 57.2686 35.3507 62.5528 36.4976 68.7791C36.7434 66.0756 37.5217 59.5215 38.8325 49.1171C40.1433 39.6137 41.0855 31.5441 41.6589 24.9082C42.3143 18.1903 42.642 11.923 42.642 6.10635C42.642 4.22207 42.9288 2.91127 43.5023 2.17394C44.1577 1.35469 45.3456 0.945068 47.066 0.945068C48.0491 0.945068 48.9093 1.27277 49.6466 1.92816C50.4659 2.50164 50.8755 3.27993 50.8755 4.26303C50.8755 5.16421 50.4659 6.10635 49.6466 7.08945C49.6466 12.9881 49.196 19.9107 48.2949 27.8575C47.3937 35.7223 46.2877 43.2184 44.9769 50.3459C43.6661 57.3096 42.5601 64.8057 41.6589 72.8344C40.7578 80.7811 40.3072 87.7857 40.3072 93.8482C40.3072 95.159 39.9795 96.183 39.3241 96.9204C38.7506 97.7396 37.8494 98.1492 36.6205 98.1492C35.7194 98.1492 34.6543 96.4698 33.4255 93.1108C31.8689 88.4411 29.9436 79.1426 27.6497 65.2153L25.4378 50.8375L24.3318 42.8498C23.2667 50.305 22.4475 56.3265 21.874 60.9143C21.3825 65.4202 20.8909 70.7862 20.3994 77.0126C19.8259 82.9931 19.5391 88.8917 19.5391 94.7084C19.5391 95.5276 19.1705 96.3059 18.4332 97.0433C17.7778 97.7806 16.9995 98.1492 16.0983 98.1492Z" fill="#E06E51"/>
<path d="M79.0341 98.7637C76.904 98.7637 74.9378 98.0673 73.1355 96.6746C71.3331 95.3638 69.8585 93.5614 68.7115 91.2675C66.3357 86.2701 64.861 80.8221 64.2876 74.9235C63.5502 69.3526 63.1816 63.9865 63.1816 58.8252C63.1816 57.8421 63.2225 57.0228 63.3044 56.3674V54.1554C63.3044 53.7458 63.2635 53.541 63.1816 53.541V51.329L63.3044 42.7269C63.3864 40.1053 63.7141 35.9271 64.2876 30.1923C64.6972 26.2599 65.6393 22.4504 67.114 18.7638C67.6874 17.1253 68.4248 15.8964 69.3259 15.0771C70.2271 14.176 71.2512 13.7254 72.3981 13.7254C75.6751 13.7254 78.6245 14.3398 81.2461 15.5687C83.8677 16.7157 86.0796 18.3542 87.882 20.4842C89.5205 22.5323 90.9132 25.072 92.0602 28.1032C93.2071 31.0526 94.0264 34.2067 94.5179 37.5656C95.0095 41.0065 95.2553 44.6521 95.2553 48.5026V49.4857C95.2553 52.0254 95.2962 54.3193 95.3781 56.3674L95.501 63.372C95.501 86.9665 90.012 98.7637 79.0341 98.7637ZM78.5425 93.6024C80.0172 93.6024 81.3689 93.0289 82.5978 91.882C83.8267 90.6531 84.7688 89.0146 85.4242 86.9665C86.9808 82.7883 87.923 78.2824 88.2507 73.4488C88.6603 69.2706 88.8651 65.6659 88.8651 62.6347C88.8651 58.9481 88.5784 54.1145 88.0049 48.1339C87.5133 41.8257 87.2676 37.115 87.2676 34.0019V31.7899C87.1037 28.6767 86.0387 25.9732 84.0725 23.6793C82.1882 21.3854 79.8533 20.2384 77.0679 20.2384C74.2824 20.2384 72.4391 21.836 71.5379 25.0311C70.7187 27.5707 70.309 30.8477 70.309 34.8621C70.309 36.4187 70.35 37.7295 70.4319 38.7945V42.1124L70.1862 47.7653C70.0223 49.4857 69.9404 51.37 69.9404 53.4181C69.9404 57.8421 70.0633 62.2251 70.309 66.5671C70.6367 72.7115 71.456 78.692 72.7668 84.5087C74.0776 90.5712 76.0028 93.6024 78.5425 93.6024Z" fill="#E06E51"/>
<path d="M130.444 98.5179C128.642 98.5179 127.003 96.5517 125.529 92.6193C123.808 88.3592 122.539 83.9762 121.719 79.4703L120.859 75.2921C118.483 63.5768 116.968 56.8999 116.312 55.2614H114.838C114.838 57.6373 114.797 59.8083 114.715 61.7745V68.5333C114.715 79.5113 115.493 88.0725 117.05 94.2168L115.698 97.5348H112.257L110.659 95.6915L110.782 87.458C110.782 80.0848 110.414 68.902 109.676 53.9097C109.021 37.9343 108.693 26.7515 108.693 20.3613C108.693 16.4289 110.045 14.4627 112.749 14.4627C117.172 14.4627 120.777 15.6097 123.563 17.9036C126.43 20.1975 127.864 23.3926 127.864 27.4888V36.091C127.864 37.3198 127.659 38.7535 127.249 40.392C126.84 41.9486 126.389 43.2184 125.897 44.2015L123.563 48.6255L121.596 52.3121L122.211 55.2614L123.931 63.9865C125.078 70.2947 126.184 75.415 127.249 79.3474C128.314 83.2798 129.625 86.8436 131.182 90.0387L131.919 91.5133C132.738 93.1518 133.148 94.4626 133.148 95.4457C133.148 96.265 132.902 96.9613 132.411 97.5348C131.919 98.1902 131.264 98.5179 130.444 98.5179ZM115.329 49.2399C117.132 48.3388 118.647 45.881 119.876 41.8667C121.187 37.7704 121.842 34.0019 121.842 30.561C121.842 27.9394 121.515 25.4816 120.859 23.1877C120.449 21.8769 119.753 20.8938 118.77 20.2384C117.869 19.5011 116.722 19.1324 115.329 19.1324L115.083 19.7469L114.838 20.8529L115.083 35.3536C115.247 39.6137 115.329 44.2425 115.329 49.2399Z" fill="#E06E51"/>
<path d="M174.183 98.5179C172.298 98.5179 170.291 96.4698 168.161 92.3735C164.966 86.2291 161.812 76.1114 158.699 62.0203C157.798 58.1698 157.06 54.606 156.487 51.329C153.538 57.2276 152.063 64.3551 152.063 72.7115V95.4457C152.063 97.33 151.244 98.2721 149.605 98.2721C148.376 98.2721 147.352 97.9035 146.533 97.1661C145.796 96.5107 145.427 95.5686 145.427 94.3397V57.1047C145.427 53.5 145.837 46.8641 146.656 37.1969C147.475 28.7586 147.885 22.1227 147.885 17.2891C148.54 15.7326 149.728 14.9543 151.449 14.9543C152.514 14.9543 153.415 15.3229 154.152 16.0603C154.889 16.7976 155.258 17.6988 155.258 18.7638V19.1324C154.193 20.9348 153.661 28.39 153.661 41.498V45.922L158.207 36.9512C160.993 31.1345 163.614 26.137 166.072 21.9589C168.366 17.8626 170.046 15.8145 171.111 15.8145C172.421 15.8145 173.527 16.1012 174.429 16.6747C175.412 17.2482 175.903 18.0674 175.903 19.1324L172.954 24.048C166.81 33.9609 163.369 39.6957 162.631 41.2522C162.631 42.645 162.59 43.8738 162.508 44.9389L162.386 48.6255C162.386 52.1483 163.778 58.7433 166.564 68.4104C169.431 77.9957 171.807 84.3449 173.691 87.458L175.289 89.67C176.845 91.8 177.624 93.6843 177.624 95.3228C177.624 96.224 177.255 96.9613 176.518 97.5348C175.862 98.1902 175.084 98.5179 174.183 98.5179Z" fill="#E06E51"/>
<path d="M202.522 98.7637C200.392 98.7637 198.426 98.0673 196.623 96.6746C194.821 95.3638 193.346 93.5614 192.199 91.2675C189.823 86.2701 188.349 80.8221 187.775 74.9235C187.038 69.3526 186.669 63.9865 186.669 58.8252C186.669 57.8421 186.71 57.0228 186.792 56.3674V54.1554C186.792 53.7458 186.751 53.541 186.669 53.541V51.329L186.792 42.7269C186.874 40.1053 187.202 35.9271 187.775 30.1923C188.185 26.2599 189.127 22.4504 190.602 18.7638C191.175 17.1253 191.913 15.8964 192.814 15.0771C193.715 14.176 194.739 13.7254 195.886 13.7254C199.163 13.7254 202.112 14.3398 204.734 15.5687C207.355 16.7157 209.567 18.3542 211.37 20.4842C213.008 22.5323 214.401 25.072 215.548 28.1032C216.695 31.0526 217.514 34.2067 218.006 37.5656C218.497 41.0065 218.743 44.6521 218.743 48.5026V49.4857C218.743 52.0254 218.784 54.3193 218.866 56.3674L218.989 63.372C218.989 86.9665 213.5 98.7637 202.522 98.7637ZM202.03 93.6024C203.505 93.6024 204.857 93.0289 206.086 91.882C207.314 90.6531 208.257 89.0146 208.912 86.9665C210.469 82.7883 211.411 78.2824 211.738 73.4488C212.148 69.2706 212.353 65.6659 212.353 62.6347C212.353 58.9481 212.066 54.1145 211.493 48.1339C211.001 41.8257 210.755 37.115 210.755 34.0019V31.7899C210.591 28.6767 209.526 25.9732 207.56 23.6793C205.676 21.3854 203.341 20.2384 200.556 20.2384C197.77 20.2384 195.927 21.836 195.026 25.0311C194.206 27.5707 193.797 30.8477 193.797 34.8621C193.797 36.4187 193.838 37.7295 193.92 38.7945V42.1124L193.674 47.7653C193.51 49.4857 193.428 51.37 193.428 53.4181C193.428 57.8421 193.551 62.2251 193.797 66.5671C194.124 72.7115 194.944 78.692 196.255 84.5087C197.565 90.5712 199.491 93.6024 202.03 93.6024Z" fill="#E06E51"/>
<path d="M245.576 98.2721C243.61 98.2721 241.848 97.8215 240.292 96.9204C238.735 96.1011 237.465 94.8722 236.482 93.2337C234.516 89.7929 233.246 85.9014 232.673 81.5594C232.099 77.7908 231.812 73.285 231.812 68.0418C231.567 59.1938 231.444 48.3797 231.444 35.5994L231.321 26.137C231.239 25.6455 231.198 24.8262 231.198 23.6793C231.034 20.5661 230.952 18.6819 230.952 18.0265C231.689 16.306 232.55 15.4458 233.533 15.4458C234.516 15.4458 235.376 16.1831 236.113 17.6578C236.933 19.1324 237.342 20.73 237.342 22.4504V55.8759C237.342 59.1529 237.629 63.4949 238.202 68.902C238.776 75.6198 239.063 79.9619 239.063 81.9281C239.063 87.9905 241.643 91.0218 246.805 91.0218C252.703 91.0218 255.653 68.9839 255.653 24.9082V16.9205C255.571 16.6747 255.53 16.347 255.53 15.9374C255.53 14.9543 255.734 14.2579 256.144 13.8483C256.636 13.3567 257.537 13.1109 258.848 13.1109C259.913 13.1109 260.732 13.4386 261.305 14.0941C261.961 14.6675 262.37 15.3639 262.534 16.1831C262.616 16.6747 262.657 17.6168 262.657 19.0096C262.657 20.3204 262.534 22.4095 262.288 25.2768C261.961 27.6527 261.797 29.7008 261.797 31.4212C261.797 33.3055 261.715 34.985 261.551 36.4596L261.305 41.6209V42.604C261.387 42.9317 261.428 43.3004 261.428 43.71C261.428 80.0848 256.144 98.2721 245.576 98.2721Z" fill="#E06E51"/>
<path d="M283.711 94.4626L283.588 89.67C283.506 88.2773 283.465 86.7207 283.465 85.0003L283.588 80.8221C283.343 79.9209 282.728 70.9501 281.745 53.9097C280.762 36.8692 280.188 25.9322 280.025 21.0986C275.273 20.9348 272.242 20.4433 270.931 19.624C270.03 18.9686 269.579 18.2313 269.579 17.412C269.579 16.7566 269.989 16.1831 270.808 15.6916C271.709 15.1181 272.61 14.8314 273.512 14.8314C275.805 14.8314 278.591 14.9952 281.868 15.3229C284.981 15.7326 287.767 15.9374 290.224 15.9374H292.19C294.73 15.9374 296 16.9205 296 18.8867C296 19.8698 295.59 20.689 294.771 21.3444C293.952 21.9179 293.01 22.2046 291.945 22.2046C291.207 22.2046 290.142 22.0818 288.75 21.836L286.292 21.3444L286.046 22.5733C286.046 29.8646 286.742 41.498 288.135 57.4734C289.446 72.4657 290.101 84.0991 290.101 92.3735C290.101 93.3566 289.651 94.2168 288.75 94.9542C287.93 95.6915 286.988 96.0602 285.923 96.0602L283.711 94.4626Z" fill="#E06E51"/>
</svg>
