<svg width="296" height="280" viewBox="0 0 296 280" fill="none" xmlns="http://www.w3.org/2000/svg">
<path d="M5.01171 200.415C-10.1381 170.274 12.4483 138.491 27.8989 128.551C28.048 128.455 28.0618 128.252 27.9245 128.14C20.4794 122.063 1.32393 110.045 10.6537 85.4737C20.0242 60.7948 49.1961 59.4741 64.7485 63.922C64.9272 63.9731 65.0956 63.8258 65.0759 63.641L58.4979 2.0351C58.4019 1.136 59.418 0.54954 60.1485 1.08239L112.163 39.0226C112.267 39.0982 112.404 39.0935 112.494 39.0021C120.283 31.103 136.668 5.73948 180.176 11.7052C221.801 17.4126 236.99 46.0309 239.389 63.7783C239.409 63.9199 239.532 64.0163 239.674 63.9999C256.604 62.0401 286.25 63.3582 294.866 100.914C301.582 130.191 276.898 160.847 262.234 161.795C262.024 161.809 261.908 162.04 262.028 162.212C274.757 180.442 283.45 222.262 248.868 250.166C219.579 273.799 171.913 255.096 158.227 240.288C158.075 240.124 157.808 240.212 157.777 240.434C155.533 256.573 141.958 285.754 104.615 277.615C67.2966 269.481 65.444 238.918 69.2661 224.118C69.322 223.901 69.1068 223.719 68.9029 223.81C54.7951 230.113 19.0672 228.38 5.01171 200.415Z" fill="#76DC9F"/>
<path d="M113.978 40.4657L113.978 40.4657C114.934 39.4959 115.973 38.3277 117.13 37.0255C120.99 32.6836 126.174 26.8521 134.047 21.9209C144.138 15.5993 158.619 10.8534 179.893 13.7703C220.456 19.3322 235.031 47.0978 237.324 64.0576C237.494 65.3197 238.639 66.2182 239.914 66.0706C248.238 65.1069 259.435 64.9889 269.532 69.539C279.495 74.029 288.66 83.1862 292.834 101.38C296.033 115.323 291.77 129.741 284.801 140.872C281.325 146.422 277.222 151.078 273.15 154.38C269.032 157.721 265.147 159.518 262.099 159.715C260.342 159.829 259.227 161.842 260.319 163.406C266.429 172.156 271.649 186.726 271.106 202.49C270.566 218.172 264.33 235.011 247.559 248.544C233.588 259.817 215.08 261.106 198.118 257.601C181.115 254.087 166.221 245.867 159.758 238.874C158.359 237.36 155.975 238.26 155.712 240.147C154.634 247.903 150.821 258.763 142.888 266.651C135.07 274.425 123.071 279.504 105.059 275.578C87.0025 271.643 77.7812 262.379 73.4191 252.523C69.0025 242.543 69.4607 231.701 71.2844 224.639C71.7754 222.738 69.8562 221.101 68.0526 221.907C61.515 224.828 49.5507 225.995 37.4475 222.942C25.4204 219.908 13.5631 212.788 6.87419 199.479C-0.347907 185.11 1.37958 170.303 6.88903 157.745C12.4203 145.138 21.67 135.037 29.0267 130.304C30.3364 129.461 30.5054 127.556 29.2426 126.525L28.0059 128.04L29.2426 126.525C28.5682 125.974 27.823 125.392 27.0291 124.772C23.2284 121.802 18.3136 117.961 14.7334 112.587C10.5265 106.271 8.1932 97.8262 12.6025 86.2136C16.9981 74.6369 26.0078 68.5122 35.935 65.7853C45.9272 63.0406 56.716 63.7928 64.1753 65.9262L64.1754 65.9262C65.8382 66.4017 67.3184 65.0096 67.1487 63.4197L65.0759 63.641L67.1486 63.4197L60.8204 4.1526L110.934 40.7067C111.79 41.3304 113.093 41.3627 113.978 40.4657ZM58.9201 2.76649L58.9214 2.76742C58.9209 2.76711 58.9205 2.7668 58.9201 2.76649L59.5343 1.92445L58.9201 2.76649Z" stroke="black" stroke-opacity="0.1" stroke-width="4.16901"/>
</svg>
