<svg width="296" height="137" viewBox="0 0 296 137" fill="none" xmlns="http://www.w3.org/2000/svg">
<rect y="0.283691" width="296" height="136.16" rx="13.1556" fill="#F4ABAB"/>
<rect y="0.283691" width="296" height="136.16" rx="13.1556" fill="black" fill-opacity="0.05"/>
<path d="M19.1023 44.0176C18.0236 43.7808 17.4184 43.5177 17.2079 43.1494C16.7606 42.439 17.2342 41.597 18.0499 41.597C18.1814 41.597 18.4972 41.676 18.7603 41.7549C19.5496 42.0443 20.4179 42.1496 21.2598 42.0969C23.0227 41.9917 23.7594 41.1234 23.3121 39.65C23.1016 38.9922 22.4438 38.124 21.2598 36.9663C18.9708 34.7561 17.9183 33.6511 17.471 32.9933C15.8134 30.5727 15.6292 28.0731 16.9185 25.3631C18.3656 22.3899 22.3912 20.364 25.2854 22.732C26.1537 23.4424 26.9956 24.679 26.9956 25.2841C26.9956 25.8893 26.5484 26.3629 25.9432 26.3629C25.4959 26.3629 25.2065 26.1261 24.8908 25.5472C24.5487 24.8895 23.9172 24.2317 23.4173 24.0212C21.5229 23.1529 19.8653 24.4948 18.9971 26.0998C18.234 27.468 17.9183 29.1782 18.5498 30.6779C19.2076 32.2566 20.7336 33.4406 21.9176 34.6246C24.2856 36.9926 24.8644 37.6767 25.2591 38.7291C25.7853 40.1762 25.6538 41.5181 24.8908 42.6232C24.4961 43.1757 23.7857 43.6493 22.97 43.9124C21.9702 44.2281 20.2863 44.2808 19.1023 44.0176ZM28.9957 43.4651C28.8115 43.3599 28.6537 43.202 28.5747 42.9652C28.4169 42.2022 28.4695 41.3865 28.4695 40.6235C28.4432 38.466 28.4695 36.3348 28.4695 34.1773C28.4695 33.8616 28.4695 33.5458 28.4695 33.2301C28.4695 22.4952 28.5221 19.9167 28.7063 19.5746C28.9431 19.1273 29.6009 18.9432 30.1271 19.2063C30.2586 19.2589 30.4165 19.4694 30.5217 19.6536C30.6533 19.9693 30.6796 20.5218 30.627 31.362C30.6007 33.8089 30.6007 36.2559 30.5744 38.7028C30.5744 39.8342 30.5744 40.9919 30.4954 42.1232C30.4691 42.439 30.4954 42.9389 30.3113 43.202C30.0481 43.5704 29.443 43.6493 28.9957 43.4651ZM41.9905 40.3341C42.3589 40.5183 42.5694 40.8603 42.5694 41.2813C42.5694 41.7286 42.3852 42.018 41.8326 42.5179C40.6223 43.623 38.4648 44.1492 37.0703 43.6756C35.8074 43.2283 34.7813 42.3337 34.0972 41.176C32.7553 38.9133 32.729 35.8612 33.4131 33.3616C34.0182 31.0463 35.0181 29.415 36.5704 28.2573C36.7283 28.152 36.8862 28.0468 37.044 27.9416C38.5174 27.1259 40.3592 27.3101 41.1486 28.9151C41.8063 30.2306 41.5695 31.8882 40.9644 33.2038C40.175 34.9929 37.9386 36.4137 35.9126 36.4137H35.1759V36.44C35.1759 36.9926 35.2022 37.5451 35.2812 38.0976C35.3075 38.2818 35.3601 38.466 35.3864 38.6502C35.6758 39.8079 36.281 40.9129 37.3598 41.4655C38.4385 42.018 39.8067 41.5181 40.6223 40.7288C41.1486 40.2288 41.5169 40.1236 41.9905 40.3341ZM36.1494 32.0987C35.7285 32.9933 35.4127 33.9931 35.4917 34.2036C35.6758 34.6509 36.8335 34.1247 37.0966 33.9931C38.5701 33.388 39.8067 31.7304 39.3594 30.0728C39.2278 29.6255 38.991 29.4939 38.5174 29.6255C37.7281 29.836 36.7546 30.8358 36.1494 32.0987ZM52.3454 40.3341C52.7137 40.5183 52.9242 40.8603 52.9242 41.2813C52.9242 41.7286 52.74 42.018 52.1875 42.5179C50.9772 43.623 48.8197 44.1492 47.4252 43.6756C46.1623 43.2283 45.1361 42.3337 44.452 41.176C43.1102 38.9133 43.0839 35.8612 43.7679 33.3616C44.3731 31.0463 45.3729 29.415 46.9253 28.2573C47.0831 28.152 47.241 28.0468 47.3989 27.9416C48.8723 27.1259 50.7141 27.3101 51.5034 28.9151C52.1612 30.2306 51.9244 31.8882 51.3192 33.2038C50.5299 34.9929 48.2935 36.4137 46.2675 36.4137H45.5308V36.44C45.5308 36.9926 45.5571 37.5451 45.636 38.0976C45.6623 38.2818 45.715 38.466 45.7413 38.6502C46.0307 39.8079 46.6359 40.9129 47.7146 41.4655C48.7934 42.018 50.1615 41.5181 50.9772 40.7288C51.5034 40.2288 51.8718 40.1236 52.3454 40.3341ZM46.5043 32.0987C46.0833 32.9933 45.7676 33.9931 45.8465 34.2036C46.0307 34.6509 47.1884 34.1247 47.4515 33.9931C48.9249 33.388 50.1615 31.7304 49.7143 30.0728C49.5827 29.6255 49.3459 29.4939 48.8723 29.6255C48.083 29.836 47.1095 30.8358 46.5043 32.0987ZM66.2259 33.2301C66.489 34.8351 66.4364 36.861 66.0944 38.2555C65.6471 40.0184 64.7788 41.8338 63.2265 42.86C61.5162 43.965 59.1745 43.6756 57.5433 42.6495C57.2538 42.4653 56.9907 42.3337 56.9644 42.36C56.9381 42.3864 56.9118 44.8859 56.9118 47.9117C56.9118 52.7266 56.8855 53.437 56.7539 53.6738C56.4119 54.4368 55.2016 54.4632 54.9385 53.6212C54.8595 53.3844 54.8595 53.0687 54.8595 52.8319C54.7806 51.5163 54.8069 50.2008 54.8069 48.8852C54.7806 46.2804 54.8069 40.6761 54.8595 36.3874C54.9385 29.1782 54.9385 28.6256 55.0963 28.3362C55.3857 27.7574 56.0961 27.5995 56.6224 27.9679C56.9381 28.1784 57.0697 28.5993 57.0697 29.3887V30.0991L57.7801 29.4413C58.5694 28.6783 59.2798 28.1784 60.0165 27.8889C61.0953 27.468 62.3845 27.6521 63.3843 28.231C65.0419 29.1782 65.8839 31.4409 66.2259 33.2301ZM61.5689 41.2287C61.9898 41.0971 62.3845 40.8603 62.7265 40.492C64.0684 39.0712 64.4368 36.861 64.3052 34.9929C64.2 33.4406 63.7264 31.0726 62.3319 30.1254C61.5689 29.6255 60.569 29.9412 59.9113 30.4148C58.8325 31.2041 58.0432 32.4408 57.4643 33.6248L56.9907 34.5456V36.9663V39.4132L57.7274 40.071C58.7799 41.0182 60.2796 41.6496 61.5689 41.2287ZM84.9705 41.0182C85.9967 42.4653 86.1808 42.7547 86.1808 43.1231C86.1808 43.7282 85.5231 44.2808 84.9705 44.1492C84.5759 44.0703 84.3128 43.8335 83.6024 42.8073C83.234 42.2811 82.9446 41.8601 82.9183 41.8864C82.9183 41.8864 82.6815 42.2022 82.392 42.5705C81.287 43.9387 79.4978 44.5702 77.7876 43.9387C77.7613 43.9387 77.7087 43.9124 77.656 43.8861C76.4457 43.4125 75.5775 42.2811 74.946 41.176C74.2882 39.992 73.8409 38.7028 73.4989 37.3872C72.8674 34.8351 72.7885 32.1513 73.1305 29.5465C73.2884 28.3625 73.2884 28.2573 73.1568 28.0731C72.9727 27.81 72.9727 27.1785 73.1832 26.7312C73.2621 26.5471 73.5252 26.0735 73.762 25.7051C73.9988 25.3368 74.2882 24.7579 74.3935 24.4685C74.5776 23.9423 75.0512 23.3108 75.2617 23.3108C75.3144 23.3108 75.6038 23.1003 75.8932 22.8635C76.893 22.0216 77.7613 21.6269 78.8137 21.548C80.445 21.3901 81.9448 22.232 83.1551 23.9686C83.9444 25.1526 84.3128 26.1524 84.8127 28.573C85.4441 31.704 85.2336 35.9928 84.2864 38.9133L84.0233 39.7026L84.9705 41.0182ZM82.892 35.0719C83.0761 33.8352 83.0498 30.9147 82.8656 29.7833C82.6025 28.231 82.2605 26.5208 81.3922 25.2052C80.6292 24.0738 79.3926 23.2845 78.077 23.9423C77.6034 24.1528 77.0509 24.7053 76.5247 25.442C75.4985 26.8891 75.288 29.1256 75.1302 30.8358C74.946 33.1512 75.1039 35.4402 75.7353 37.6767C76.1826 39.1764 76.9193 41.2813 78.498 41.8864C79.5768 42.3074 80.4713 41.597 81.0502 40.7551C81.1291 40.6761 81.629 39.992 81.5764 39.9394L80.9449 39.0185C80.4713 38.3608 79.9977 37.6767 79.5504 36.9926C79.261 36.5716 78.8927 36.1506 78.919 35.6244C78.9716 34.6772 80.2608 34.1773 80.8134 35.0456C81.1028 35.5455 82.4184 37.3609 82.471 37.3609C82.5236 37.3609 82.7341 36.2822 82.892 35.0719ZM91.359 43.5967C89.9382 43.1757 89.0962 41.7286 88.7279 40.3867C87.8596 37.1768 87.9385 33.8089 88.149 30.52C88.1753 29.8886 88.1753 29.2308 88.3858 28.6256C88.4911 28.2836 88.8857 27.9416 89.2278 27.8626C89.5962 27.7837 90.0961 28.0468 90.3065 28.4678C90.4644 28.7572 90.4644 28.8361 90.3592 29.6255C90.2013 31.0463 90.0961 34.3352 90.2013 35.6507C90.2802 36.7821 90.3855 37.9135 90.5697 39.0185C90.7275 39.8605 91.0433 41.255 91.9642 41.5444C93.5428 42.0443 94.6479 39.992 95.1215 38.8344C95.674 37.4136 96.0687 35.9401 96.4107 34.4404C96.5949 33.5984 96.7791 32.7565 96.9633 31.8882C97.1211 30.9673 97.279 30.0464 97.5158 29.1519C97.6737 28.4415 98.3314 27.6784 99.1208 27.8363C99.3839 27.9152 99.6207 28.0468 99.7259 28.3099C99.9627 28.8624 99.8312 29.7307 99.8312 30.3096C99.8312 31.3094 99.8312 32.2829 99.8312 33.2827C99.8049 36.3874 99.8049 38.808 99.8838 40.3341C100.015 42.9915 99.989 43.1757 99.4365 43.4914C99.0682 43.7282 98.6998 43.7282 98.3578 43.4914C97.9105 43.2283 97.8315 42.9652 97.7789 41.0445C97.7526 40.071 97.7 39.0712 97.6737 38.7817L97.621 38.2555L97.3316 39.0975C96.937 40.1499 96.4897 41.0708 96.0161 41.676C95.1478 42.86 93.7007 43.8335 92.201 43.7545C91.9115 43.7282 91.6221 43.6756 91.359 43.5967ZM112.322 37.0189C112.401 42.3337 112.375 42.8863 112.243 43.1494C111.875 43.8598 110.849 43.8335 110.428 43.1231C110.296 42.9126 110.27 42.5705 110.217 40.9129L110.191 38.9659L109.717 39.9131C108.796 41.7286 107.849 42.86 106.744 43.3599C103.587 44.8596 102.271 41.0708 102.034 38.6765C101.771 35.756 102.692 32.0198 104.218 29.9675C105.402 28.3625 106.455 27.7311 107.954 27.7311C108.849 27.7311 109.48 27.9152 110.27 28.4415C111.638 29.336 112.269 30.8884 112.296 32.4671C112.296 33.1248 112.296 33.7826 112.296 34.4404C112.322 35.2824 112.322 36.1506 112.322 37.0189ZM108.849 36.44C109.691 34.1773 110.112 32.7565 110.112 32.125C110.112 30.4937 108.375 29.336 107.086 30.0991C105.376 31.0989 104.034 34.7824 104.166 38.045C104.192 38.7554 104.35 41.3865 105.376 41.4918C105.586 41.5181 105.823 41.4392 106.007 41.3076C107.533 40.3604 108.27 38.0187 108.849 36.44ZM115.997 43.4651C115.813 43.3599 115.655 43.202 115.576 42.9652C115.418 42.2022 115.471 41.3865 115.471 40.6235C115.445 38.466 115.471 36.3348 115.471 34.1773C115.471 33.8616 115.471 33.5458 115.471 33.2301C115.471 22.4952 115.523 19.9167 115.708 19.5746C115.944 19.1273 116.602 18.9432 117.128 19.2063C117.26 19.2589 117.418 19.4694 117.523 19.6536C117.655 19.9693 117.681 20.5218 117.628 31.362C117.602 33.8089 117.602 36.2559 117.576 38.7028C117.576 39.8342 117.576 40.9919 117.497 42.1232C117.471 42.439 117.497 42.9389 117.313 43.202C117.05 43.5704 116.444 43.6493 115.997 43.4651ZM121.493 43.7282C121.283 43.623 121.072 43.4651 121.02 43.2283C120.967 43.0968 120.941 42.9126 120.941 42.7547C120.888 42.0969 120.914 41.4128 120.914 40.7288C120.967 35.9664 121.125 29.336 121.204 28.7309C121.283 28.2047 121.309 28.0994 121.598 27.8363C122.072 27.389 122.782 27.4943 123.151 28.0468C123.309 28.3099 123.335 29.2834 123.23 30.941C123.203 31.3357 123.151 34.2036 123.125 37.282C123.098 38.7554 123.098 40.2552 123.019 41.7286C123.019 42.2285 123.046 42.8336 122.861 43.3072C122.704 43.7019 122.151 43.8598 121.756 43.8072C121.677 43.7808 121.572 43.7545 121.493 43.7282ZM121.809 25.7051C121.783 25.6788 121.73 25.6525 121.677 25.6262C121.046 25.2052 121.099 24.2843 121.73 23.8633C122.019 23.6792 122.519 23.7055 122.809 23.8633C123.072 24.0212 123.23 24.2843 123.282 24.5737C123.388 25.2315 122.967 25.8104 122.283 25.8104C122.125 25.8104 121.967 25.784 121.809 25.7051ZM129.044 43.4914C128.86 43.3862 128.702 43.2283 128.649 42.9915C128.492 42.439 128.544 41.8075 128.518 41.2287C128.492 39.65 128.492 38.045 128.492 36.4664L128.465 30.1517H127.097C126.308 30.1517 125.019 30.3096 124.861 29.2571C124.808 28.8888 124.94 28.5467 125.203 28.3099C125.65 27.8889 126.518 27.9942 127.097 27.9942H128.413V25.2841C128.413 24.5474 128.413 23.7844 128.439 23.0214C128.465 22.732 128.465 22.3636 128.649 22.1268C128.834 21.8374 129.228 21.6795 129.57 21.7058C130.702 21.7848 130.57 23.1003 130.57 23.8896C130.596 24.3632 130.596 24.8105 130.596 25.2841V27.9942L131.991 28.0205C132.57 28.0205 133.359 27.8889 133.754 28.4678C134.017 28.8624 133.964 29.5202 133.57 29.8096C133.149 30.1254 132.412 30.0464 131.938 30.0728L130.623 30.1254V36.5716C130.623 38.124 130.649 39.6763 130.623 41.2287C130.623 41.8075 130.649 42.4916 130.518 43.0704C130.36 43.7019 129.544 43.8072 129.044 43.4914ZM137.993 52.8845C136.993 52.6477 135.099 51.9636 135.283 50.727C135.362 50.2271 135.783 49.8587 136.283 49.885C137.046 49.885 137.651 50.5428 138.362 50.7533C139.598 51.148 141.045 50.9901 141.992 50.0692C142.624 49.464 143.071 48.2537 143.282 46.5698C143.413 45.6489 143.65 37.9135 143.571 37.8082C143.545 37.8082 143.387 38.1766 143.203 38.6765C142.729 39.9394 141.94 41.5444 141.466 42.2022C140.335 43.7019 138.335 44.3334 136.783 42.9915C135.862 42.1759 135.388 40.9656 135.125 39.7552C134.599 37.3609 134.652 34.914 134.757 32.4671C134.81 31.4409 134.862 30.4148 134.941 29.3887C134.967 28.994 134.994 28.573 135.152 28.2047C135.336 27.8363 135.704 27.5206 136.099 27.5469C136.52 27.5732 136.862 27.9416 136.993 28.3362C137.125 28.7309 137.099 29.1782 137.072 29.5992C136.835 32.4671 136.599 35.4928 137.046 38.3608C137.178 39.2027 137.52 41.3602 138.546 41.597C139.493 41.8338 140.151 40.2815 140.466 39.65C141.308 37.9398 141.861 36.1506 142.413 33.4932C143.098 30.178 143.519 28.3888 143.65 28.1257C143.861 27.7837 144.334 27.5469 144.703 27.5995C145.071 27.6521 145.466 28.0205 145.571 28.4152C145.702 28.9414 145.781 36.6505 145.676 41.1234C145.571 46.4909 145.387 48.0432 144.781 49.5693C144.176 51.0164 143.44 51.8847 142.203 52.4898C140.94 53.1213 139.467 53.2528 138.098 52.9108C138.072 52.9108 138.019 52.9108 137.993 52.8845Z" fill="white"/>
<circle cx="25.6538" cy="80.0932" r="9.37333" stroke="white" stroke-width="0.986667"/>
<path d="M21.5115 111.927C21.3694 111.848 21.2589 111.706 21.2273 111.517C21.2115 111.375 21.2115 111.233 21.1957 111.075C21.1642 110.569 21.1484 110.049 21.1326 109.543C21.1168 108.833 21.101 108.138 21.101 107.428C21.0852 106.654 21.0852 105.881 21.0852 105.107C21.0694 104.381 21.0694 103.655 21.0852 102.929C21.0852 102.36 21.101 101.808 21.1168 101.255C21.1168 101.113 21.1326 100.971 21.1484 100.813C21.2589 99.2031 21.3378 98.9189 21.7325 98.7295C22.1429 98.5242 22.585 98.7926 22.8533 99.3925C23.0428 99.7872 23.7374 102.092 23.99 103.134C24.6688 106.007 25.174 107.949 25.2529 107.949C25.3792 107.949 26.1843 105.328 27.0999 101.887C27.5104 100.371 27.8893 99.2504 28.0787 98.9663C28.2524 98.7137 28.5207 98.54 28.726 98.54C29.0417 98.54 29.3732 98.8084 29.5153 99.1873C29.7521 99.8503 29.7837 100.577 29.7363 106.449C29.7363 107.444 29.7205 108.438 29.7205 109.433C29.7047 109.954 29.7047 110.491 29.7047 111.012C29.7047 111.169 29.7205 111.343 29.7047 111.485C29.6416 112.069 28.8049 112.132 28.5365 111.675C28.4576 111.517 28.4576 111.201 28.4576 106.67C28.4576 102.439 28.4576 101.871 28.3944 102.092C26.8631 107.538 26.7053 108.044 26.3738 108.644C25.8212 109.638 25.0319 109.906 24.4951 109.275C24.0689 108.801 23.8637 108.123 22.727 103.45C22.4429 102.281 22.4271 102.218 22.3955 102.439C22.3324 102.802 22.3324 105.565 22.3955 108.675C22.4744 111.832 22.4744 111.722 22.1271 111.943C21.9219 112.069 21.6851 112.038 21.5115 111.927Z" fill="white"/>
<circle cx="66.436" cy="80.0932" r="9.37333" stroke="white" stroke-width="0.986667"/>
<path d="M66.0038 112.053C65.8617 111.99 65.7354 111.864 65.6881 111.706C65.6249 111.548 65.6565 111.327 65.6407 111.154C65.6407 110.364 65.6565 109.575 65.6565 108.786C65.6723 107.838 65.6881 106.891 65.7039 105.928C65.7512 102.787 65.7986 100.134 65.8144 100.024L65.846 99.8345L65.4039 99.8661C64.2515 99.9293 62.6886 99.9293 62.515 99.8661C62.294 99.803 62.0887 99.5188 62.0887 99.2978C62.0887 98.9978 62.2624 98.7926 62.6255 98.6821C62.8307 98.6348 69.6505 98.5085 70.0136 98.5558C70.3767 98.619 70.7714 98.9031 70.6925 99.3294C70.6293 99.6925 70.3136 99.7714 69.9978 99.803C69.5716 99.8345 69.1296 99.8188 68.7033 99.8345L67.1089 99.8661L67.0773 100.687C67.0615 101.145 67.0142 103.797 66.9826 106.56C66.9352 110.443 66.9037 111.643 66.8405 111.769C66.6984 112.117 66.3038 112.196 66.0038 112.053Z" fill="white"/>
<circle cx="107.218" cy="80.0932" r="9.37333" stroke="white" stroke-width="0.986667"/>
<path d="M109.154 112.132C108.475 111.943 107.875 111.375 107.449 110.569C106.991 109.654 106.549 108.47 106.265 107.349C106.138 106.86 106.091 106.702 106.059 106.796C106.044 106.875 105.965 107.286 105.87 107.712C105.649 108.786 105.428 109.449 104.97 110.364C104.37 111.58 103.912 111.99 103.202 111.99C101.876 112.006 101.339 110.412 101.15 109.338C100.518 106.023 100.708 102.724 101.323 99.2189C101.402 98.84 101.655 98.398 102.144 98.5085C102.555 98.6032 102.728 98.9663 102.586 99.4399C102.207 100.624 101.734 105.328 102.239 108.454C102.334 109.022 102.492 109.606 102.697 110.143C102.776 110.317 102.855 110.506 103.028 110.585C103.802 111.012 104.496 107.996 104.607 107.523C104.875 106.291 105.033 105.044 105.207 103.813C105.428 102.187 105.475 102.045 105.775 101.918C106.138 101.761 106.486 101.887 106.643 102.234C106.722 102.392 106.817 102.897 106.959 103.939C107.306 106.37 107.559 107.46 108.127 108.912C108.38 109.575 108.948 111.217 109.943 110.822C110.653 110.538 111.048 108.707 111.111 105.313C111.143 103.465 111.095 102.613 110.843 100.876C110.732 100.198 110.669 99.582 110.685 99.4872C110.701 99.4083 110.78 99.2662 110.874 99.1873C111.001 99.061 111.079 99.0294 111.285 99.0294C111.49 99.0294 111.569 99.061 111.695 99.1715C111.774 99.2662 111.869 99.3925 111.9 99.4557C111.995 99.7082 112.311 102.124 112.39 103.087C112.421 103.671 112.437 104.507 112.406 105.344C112.311 109.717 111.743 111.517 110.353 112.053C109.99 112.196 109.501 112.227 109.154 112.132Z" fill="white"/>
<circle cx="148" cy="80.0932" r="9.37333" stroke="white" stroke-width="0.986667"/>
<path d="M147.568 112.053C147.426 111.99 147.3 111.864 147.253 111.706C147.189 111.548 147.221 111.327 147.205 111.154C147.205 110.364 147.221 109.575 147.221 108.786C147.237 107.838 147.253 106.891 147.268 105.928C147.316 102.787 147.363 100.134 147.379 100.024L147.41 99.8345L146.968 99.8661C145.816 99.9293 144.253 99.9293 144.079 99.8661C143.858 99.803 143.653 99.5188 143.653 99.2978C143.653 98.9978 143.827 98.7926 144.19 98.6821C144.395 98.6348 151.215 98.5085 151.578 98.5558C151.941 98.619 152.336 98.9031 152.257 99.3294C152.194 99.6925 151.878 99.7714 151.562 99.803C151.136 99.8345 150.694 99.8188 150.268 99.8345L148.673 99.8661L148.642 100.687C148.626 101.145 148.579 103.797 148.547 106.56C148.5 110.443 148.468 111.643 148.405 111.769C148.263 112.117 147.868 112.196 147.568 112.053Z" fill="white"/>
<circle cx="188.783" cy="80.0932" r="9.37333" stroke="white" stroke-width="0.986667"/>
<path d="M186.609 111.832C186.483 111.722 186.419 111.611 186.372 111.406C186.198 110.617 186.214 103.481 186.388 100.45C186.467 99.061 186.498 98.9663 186.861 98.7768C187.067 98.6663 187.146 98.6663 189.64 98.6505C191.455 98.6348 192.26 98.6505 192.355 98.6979C192.813 98.8873 192.908 99.4083 192.56 99.7556C192.466 99.8503 192.324 99.8977 192.181 99.8977L191.013 99.9135C190.24 99.9293 189.198 99.945 188.677 99.9608L187.73 100.008L187.698 100.166C187.667 100.34 187.572 102.755 187.572 103.26V103.576H189.214C190.603 103.576 190.871 103.592 191.029 103.655C191.487 103.876 191.503 104.476 191.061 104.76C190.934 104.839 190.745 104.855 189.245 104.87L187.556 104.886L187.54 105.17C187.477 105.597 187.556 110.364 187.619 110.964C187.667 111.406 187.667 111.501 187.588 111.643C187.414 112.022 186.925 112.117 186.609 111.832Z" fill="white"/>
<circle cx="229.565" cy="80.0932" r="9.37333" stroke="white" stroke-width="0.986667"/>
<path d="M228.054 111.99C227.407 111.848 227.044 111.69 226.917 111.469C226.649 111.043 226.933 110.538 227.423 110.538C227.502 110.538 227.691 110.585 227.849 110.633C228.322 110.806 228.843 110.869 229.349 110.838C230.406 110.775 230.848 110.254 230.58 109.37C230.454 108.975 230.059 108.454 229.349 107.759C227.975 106.433 227.344 105.77 227.075 105.376C226.081 103.923 225.97 102.424 226.744 100.798C227.612 99.0136 230.027 97.7981 231.764 99.2189C232.285 99.6451 232.79 100.387 232.79 100.75C232.79 101.113 232.522 101.397 232.159 101.397C231.89 101.397 231.717 101.255 231.527 100.908C231.322 100.513 230.943 100.119 230.643 99.9924C229.506 99.4714 228.512 100.277 227.991 101.24C227.533 102.06 227.344 103.087 227.723 103.986C228.117 104.934 229.033 105.644 229.743 106.354C231.164 107.775 231.511 108.186 231.748 108.817C232.064 109.685 231.985 110.491 231.527 111.154C231.29 111.485 230.864 111.769 230.375 111.927C229.775 112.117 228.764 112.148 228.054 111.99Z" fill="white"/>
<circle cx="270.347" cy="80.0932" r="9.37333" stroke="white" stroke-width="0.986667"/>
<path d="M268.836 111.99C268.189 111.848 267.826 111.69 267.7 111.469C267.431 111.043 267.715 110.538 268.205 110.538C268.284 110.538 268.473 110.585 268.631 110.633C269.105 110.806 269.626 110.869 270.131 110.838C271.189 110.775 271.631 110.254 271.362 109.37C271.236 108.975 270.841 108.454 270.131 107.759C268.757 106.433 268.126 105.77 267.858 105.376C266.863 103.923 266.752 102.424 267.526 100.798C268.394 99.0136 270.81 97.7981 272.546 99.2189C273.067 99.6451 273.572 100.387 273.572 100.75C273.572 101.113 273.304 101.397 272.941 101.397C272.672 101.397 272.499 101.255 272.309 100.908C272.104 100.513 271.725 100.119 271.425 99.9924C270.289 99.4714 269.294 100.277 268.773 101.24C268.315 102.06 268.126 103.087 268.505 103.986C268.899 104.934 269.815 105.644 270.525 106.354C271.946 107.775 272.294 108.186 272.53 108.817C272.846 109.685 272.767 110.491 272.309 111.154C272.073 111.485 271.646 111.769 271.157 111.927C270.557 112.117 269.547 112.148 268.836 111.99Z" fill="white"/>
</svg>
