<svg width="888" height="411" viewBox="0 0 888 411" fill="none" xmlns="http://www.w3.org/2000/svg">
<path d="M848.533 0.849609H39.4668C17.6699 0.849609 0 18.5195 0 40.3164V369.863C0 391.66 17.6699 409.33 39.4668 409.33H848.533C870.33 409.33 888 391.66 888 369.863V40.3164C888 18.5195 870.33 0.849609 848.533 0.849609Z" fill="#F4ABAB"/>
<path d="M848.533 0.849609H39.4668C17.6699 0.849609 0 18.5195 0 40.3164V369.863C0 391.66 17.6699 409.33 39.4668 409.33H848.533C870.33 409.33 888 391.66 888 369.863V40.3164C888 18.5195 870.33 0.849609 848.533 0.849609Z" fill="black" fill-opacity="0.05"/>
<path d="M57.3065 132.053C54.0704 131.343 52.2548 130.553 51.6233 129.448C50.2814 127.317 51.7022 124.791 54.1493 124.791C54.5438 124.791 55.4912 125.028 56.2805 125.265C58.6484 126.133 61.2533 126.449 63.779 126.291C69.0677 125.975 71.2778 123.37 69.9359 118.95C69.3044 116.977 67.331 114.372 63.779 110.899C56.912 104.269 53.7545 100.954 52.4126 98.9802C47.4398 91.7184 46.8872 84.2196 50.7551 76.0896C55.0964 67.17 67.1732 61.0923 75.8558 68.1963C78.4607 70.3275 80.9864 74.0372 80.9864 75.8525C80.9864 77.6681 79.6448 79.089 77.8292 79.089C76.4873 79.089 75.6191 78.3785 74.672 76.6418C73.6457 74.6687 71.7512 72.6954 70.2515 72.0639C64.5683 69.459 59.5955 73.4847 56.9909 78.2997C54.7016 82.4043 53.7545 87.5349 55.649 92.034C57.6224 96.7701 62.2004 100.322 65.7524 103.874C72.8564 110.978 74.5928 113.03 75.7769 116.188C77.3555 120.529 76.961 124.555 74.672 127.87C73.4879 129.527 71.3567 130.948 68.9096 131.737C65.9102 132.685 60.8585 132.843 57.3065 132.053ZM86.9867 130.396C86.4341 130.08 85.9607 129.606 85.7237 128.896C85.2503 126.607 85.4081 124.16 85.4081 121.871C85.3292 115.398 85.4081 109.005 85.4081 102.532C85.4081 101.585 85.4081 100.638 85.4081 99.6905C85.4081 67.4858 85.5659 59.7504 86.1185 58.7241C86.8289 57.3822 88.8023 56.8299 90.3809 57.6192C90.7754 57.777 91.2491 58.4085 91.5647 58.9611C91.9595 59.9082 92.0384 61.5656 91.8806 94.0862C91.8017 101.427 91.8017 108.768 91.7228 116.109C91.7228 119.503 91.7228 122.976 91.4858 126.37C91.4069 127.317 91.4858 128.817 90.9335 129.606C90.1439 130.711 88.3286 130.948 86.9867 130.396ZM125.971 121.003C127.076 121.555 127.708 122.581 127.708 123.844C127.708 125.186 127.155 126.054 125.497 127.554C121.867 130.869 115.394 132.448 111.211 131.027C107.422 129.685 104.344 127.001 102.291 123.528C98.2655 116.74 98.1866 107.584 100.239 100.085C102.054 93.1391 105.054 88.2452 109.711 84.7721C110.185 84.4562 110.658 84.1407 111.132 83.8251C115.552 81.378 121.077 81.9306 123.445 86.7456C125.419 90.6921 124.708 95.6649 122.893 99.6117C120.525 104.979 113.815 109.241 107.737 109.241H105.527V109.32C105.527 110.978 105.606 112.636 105.843 114.293C105.922 114.846 106.08 115.398 106.159 115.951C107.027 119.424 108.843 122.739 112.079 124.397C115.315 126.054 119.42 124.555 121.867 122.187C123.445 120.687 124.55 120.371 125.971 121.003ZM108.448 96.2964C107.185 98.9802 106.238 101.98 106.475 102.611C107.027 103.953 110.5 102.374 111.289 101.98C115.71 100.164 119.42 95.1914 118.078 90.2186C117.683 88.8767 116.973 88.4819 115.552 88.8767C113.184 89.5082 110.263 92.5077 108.448 96.2964ZM157.036 121.003C158.141 121.555 158.772 122.581 158.772 123.844C158.772 125.186 158.22 126.054 156.562 127.554C152.931 130.869 146.459 132.448 142.275 131.027C138.487 129.685 135.408 127.001 133.356 123.528C129.33 116.74 129.251 107.584 131.303 100.085C133.119 93.1391 136.118 88.2452 140.776 84.7721C141.249 84.4562 141.723 84.1407 142.196 83.8251C146.617 81.378 152.142 81.9306 154.51 86.7456C156.483 90.6921 155.773 95.6649 153.957 99.6117C151.589 104.979 144.88 109.241 138.802 109.241H136.592V109.32C136.592 110.978 136.671 112.636 136.908 114.293C136.987 114.846 137.145 115.398 137.224 115.951C138.092 119.424 139.907 122.739 143.143 124.397C146.38 126.054 150.484 124.555 152.931 122.187C154.51 120.687 155.615 120.371 157.036 121.003ZM139.513 96.2964C138.25 98.9802 137.302 101.98 137.539 102.611C138.092 103.953 141.565 102.374 142.354 101.98C146.774 100.164 150.484 95.1914 149.142 90.2186C148.748 88.8767 148.037 88.4819 146.616 88.8767C144.249 89.5082 141.328 92.5077 139.513 96.2964ZM198.677 99.6905C199.467 104.506 199.309 110.583 198.283 114.767C196.941 120.055 194.336 125.502 189.679 128.58C184.548 131.895 177.523 131.027 172.63 127.949C171.761 127.396 170.972 127.001 170.893 127.08C170.814 127.159 170.735 134.658 170.735 143.735C170.735 158.18 170.656 160.311 170.261 161.022C169.235 163.311 165.604 163.39 164.815 160.864C164.578 160.153 164.578 159.206 164.578 158.496C164.341 154.549 164.42 150.603 164.42 146.656C164.341 138.841 164.42 122.029 164.578 109.162C164.815 87.5349 164.815 85.8771 165.288 85.0089C166.157 83.2725 168.288 82.7987 169.867 83.9039C170.814 84.5354 171.209 85.7982 171.209 88.1664V90.2976L173.34 88.3241C175.708 86.0351 177.839 84.5355 180.049 83.667C183.285 82.4043 187.153 82.9566 190.153 84.6933C195.125 87.5349 197.651 94.3229 198.677 99.6905ZM184.706 123.686C185.969 123.292 187.153 122.581 188.179 121.476C192.205 117.214 193.31 110.583 192.915 104.979C192.6 100.322 191.179 93.2181 186.995 90.3765C184.706 88.8768 181.707 89.8239 179.734 91.2447C176.497 93.6126 174.129 97.3227 172.392 100.875L170.972 103.637V110.899V118.24L173.182 120.213C176.339 123.055 180.838 124.949 184.706 123.686ZM254.911 123.055C257.99 127.396 258.542 128.264 258.542 129.37C258.542 131.185 256.569 132.843 254.911 132.448C253.727 132.211 252.938 131.501 250.807 128.422C249.702 126.844 248.833 125.581 248.755 125.659C248.755 125.659 248.044 126.607 247.176 127.712C243.861 131.816 238.493 133.711 233.362 131.816C233.283 131.816 233.126 131.737 232.968 131.659C229.337 130.238 226.732 126.844 224.838 123.528C222.864 119.976 221.522 116.109 220.496 112.162C218.602 104.506 218.365 96.4541 219.391 88.6397C219.865 85.0877 219.865 84.7721 219.47 84.2195C218.918 83.4302 218.918 81.5357 219.549 80.1938C219.786 79.6415 220.575 78.2207 221.286 77.1155C221.996 76.0106 222.864 74.274 223.18 73.4058C223.732 71.8272 225.153 69.9327 225.785 69.9327C225.943 69.9327 226.811 69.3012 227.679 68.5908C230.679 66.0651 233.283 64.881 236.441 64.6443C241.335 64.1706 245.834 66.6962 249.465 71.906C251.833 75.458 252.938 78.4575 254.438 85.7193C256.332 95.1123 255.7 107.979 252.859 116.74L252.07 119.108L254.911 123.055ZM248.676 105.216C249.228 101.506 249.149 92.7444 248.596 89.3502C247.807 84.6933 246.781 79.5627 244.176 75.6159C241.887 72.2217 238.177 69.8538 234.231 71.8272C232.81 72.4587 231.152 74.1161 229.574 76.3262C226.495 80.6675 225.864 87.3771 225.39 92.5077C224.838 99.4539 225.311 106.321 227.205 113.03C228.547 117.529 230.758 123.844 235.494 125.659C238.73 126.922 241.414 124.791 243.15 122.266C243.387 122.029 244.887 119.976 244.729 119.818L242.834 117.056C241.414 115.083 239.993 113.03 238.651 110.978C237.783 109.715 236.678 108.452 236.757 106.873C236.914 104.032 240.782 102.532 242.44 105.137C243.308 106.637 247.255 112.083 247.413 112.083C247.57 112.083 248.202 108.847 248.676 105.216ZM274.077 130.79C269.814 129.527 267.288 125.186 266.183 121.16C263.578 111.531 263.815 101.427 264.447 91.5603C264.526 89.6661 264.526 87.6927 265.157 85.8771C265.473 84.8511 266.657 83.8251 267.683 83.5881C268.788 83.3514 270.288 84.1407 270.919 85.4037C271.393 86.2719 271.393 86.5086 271.077 88.8767C270.604 93.1391 270.288 103.006 270.604 106.952C270.84 110.347 271.156 113.741 271.709 117.056C272.182 119.582 273.13 123.765 275.892 124.633C280.628 126.133 283.943 119.976 285.364 116.503C287.022 112.241 288.206 107.821 289.232 103.321C289.784 100.795 290.337 98.2698 290.89 95.6649C291.363 92.9022 291.837 90.1394 292.547 87.4559C293.021 85.3247 294.994 83.0355 297.362 83.5092C298.151 83.7459 298.862 84.1407 299.177 84.93C299.888 86.5875 299.493 89.1924 299.493 90.9291C299.493 93.9285 299.493 96.8489 299.493 99.8483C299.414 109.162 299.414 116.424 299.651 121.003C300.045 128.975 299.967 129.527 298.309 130.474C297.204 131.185 296.099 131.185 295.073 130.474C293.731 129.685 293.494 128.896 293.336 123.134C293.257 120.213 293.1 117.214 293.021 116.345L292.863 114.767L291.994 117.293C290.811 120.45 289.469 123.213 288.048 125.028C285.443 128.58 281.102 131.501 276.603 131.264C275.734 131.185 274.866 131.027 274.077 130.79ZM336.966 111.057C337.203 127.001 337.125 128.659 336.729 129.448C335.625 131.58 332.547 131.501 331.284 129.37C330.888 128.738 330.81 127.712 330.651 122.739L330.573 116.898L329.151 119.74C326.388 125.186 323.547 128.58 320.232 130.08C310.761 134.579 306.813 123.213 306.102 116.03C305.313 107.268 308.076 96.0597 312.654 89.9028C316.206 85.0878 319.365 83.1936 323.862 83.1936C326.547 83.1936 328.44 83.7458 330.81 85.3247C334.914 88.0082 336.807 92.6654 336.888 97.4015C336.888 99.3746 336.888 101.348 336.888 103.321C336.966 105.847 336.966 108.452 336.966 111.057ZM326.547 109.32C329.073 102.532 330.336 98.2698 330.336 96.3753C330.336 91.4814 325.125 88.0083 321.258 90.2976C316.128 93.297 312.102 104.347 312.498 114.135C312.576 116.266 313.05 124.16 316.128 124.476C316.758 124.555 317.469 124.318 318.021 123.923C322.599 121.081 324.81 114.056 326.547 109.32ZM347.991 130.396C347.439 130.08 346.965 129.606 346.728 128.896C346.254 126.607 346.413 124.16 346.413 121.871C346.335 115.398 346.413 109.005 346.413 102.532C346.413 101.585 346.413 100.638 346.413 99.6905C346.413 67.4858 346.569 59.7504 347.124 58.7241C347.832 57.3822 349.806 56.8299 351.384 57.6192C351.78 57.777 352.254 58.4085 352.569 58.9611C352.965 59.9082 353.043 61.5656 352.884 94.0862C352.806 101.427 352.806 108.768 352.728 116.109C352.728 119.503 352.728 122.976 352.491 126.37C352.413 127.317 352.491 128.817 351.939 129.606C351.15 130.711 349.332 130.948 347.991 130.396ZM364.479 131.185C363.849 130.869 363.216 130.396 363.06 129.685C362.901 129.291 362.823 128.738 362.823 128.264C362.664 126.291 362.742 124.239 362.742 122.187C362.901 107.899 363.375 88.0083 363.612 86.193C363.849 84.6144 363.927 84.2985 364.794 83.5092C366.216 82.1673 368.346 82.4832 369.453 84.1407C369.927 84.93 370.005 87.8505 369.69 92.8233C369.609 94.0074 369.453 102.611 369.375 111.846C369.294 116.266 369.294 120.766 369.057 125.186C369.057 126.686 369.138 128.501 368.583 129.922C368.112 131.106 366.453 131.58 365.268 131.422C365.031 131.343 364.716 131.264 364.479 131.185ZM365.427 77.1155C365.349 77.0366 365.19 76.9577 365.031 76.8788C363.138 75.6158 363.297 72.8532 365.19 71.5902C366.057 71.0379 367.557 71.1168 368.427 71.5902C369.216 72.0639 369.69 72.8532 369.846 73.7214C370.164 75.6948 368.901 77.4315 366.849 77.4315C366.375 77.4315 365.901 77.3522 365.427 77.1155ZM387.132 130.474C386.58 130.159 386.106 129.685 385.947 128.975C385.476 127.317 385.632 125.423 385.554 123.686C385.476 118.95 385.476 114.135 385.476 109.399L385.395 90.4553H381.291C378.924 90.4553 375.057 90.929 374.583 87.7715C374.424 86.6666 374.82 85.6404 375.609 84.93C376.95 83.667 379.554 83.9829 381.291 83.9829H385.239V75.8525C385.239 73.6424 385.239 71.3535 385.317 69.0645C385.395 68.1963 385.395 67.0911 385.947 66.3807C386.502 65.5125 387.684 65.0387 388.71 65.1176C392.106 65.3546 391.71 69.3012 391.71 71.6691C391.788 73.0899 391.788 74.4317 391.788 75.8525V83.9829L395.973 84.0618C397.71 84.0618 400.077 83.667 401.262 85.4037C402.051 86.5875 401.892 88.5609 400.71 89.4291C399.447 90.3765 397.236 90.1394 395.814 90.2186L391.869 90.3765V109.715C391.869 114.372 391.947 119.029 391.869 123.686C391.869 125.423 391.947 127.475 391.554 129.211C391.08 131.106 388.632 131.422 387.132 130.474ZM413.979 158.654C410.979 157.943 405.297 155.891 405.849 152.181C406.086 150.682 407.349 149.576 408.849 149.655C411.138 149.655 412.953 151.629 415.086 152.26C418.794 153.444 423.135 152.971 425.976 150.208C427.872 148.392 429.213 144.761 429.846 139.71C430.239 136.947 430.95 113.741 430.713 113.425C430.635 113.425 430.161 114.53 429.609 116.03C428.187 119.818 425.82 124.633 424.398 126.607C421.005 131.106 415.005 133 410.349 128.975C407.586 126.528 406.164 122.897 405.375 119.266C403.797 112.083 403.956 104.742 404.271 97.4015C404.43 94.3229 404.586 91.2447 404.823 88.1664C404.901 86.9823 404.982 85.7193 405.456 84.6144C406.008 83.5092 407.112 82.5621 408.297 82.641C409.56 82.7199 410.586 83.8251 410.979 85.0089C411.375 86.193 411.297 87.5348 411.216 88.7978C410.505 97.4015 409.797 106.479 411.138 115.083C411.534 117.608 412.56 124.081 415.638 124.791C418.479 125.502 420.453 120.845 421.398 118.95C423.924 113.82 425.583 108.452 427.239 100.48C429.294 90.5342 430.557 85.1667 430.95 84.3774C431.583 83.3514 433.002 82.641 434.109 82.7988C435.213 82.9566 436.398 84.0617 436.713 85.2458C437.106 86.8244 437.343 109.952 437.028 123.37C436.713 139.473 436.161 144.13 434.343 148.708C432.528 153.049 430.32 155.654 426.609 157.47C422.82 159.364 418.401 159.759 414.294 158.733C414.216 158.733 414.057 158.733 413.979 158.654Z" fill="white"/>
<path d="M76.9637 268.399C92.494 268.399 105.084 255.809 105.084 240.279C105.084 224.749 92.494 212.159 76.9637 212.159C61.4335 212.159 48.8438 224.749 48.8438 240.279C48.8438 255.809 61.4335 268.399 76.9637 268.399Z" stroke="white" stroke-width="2.96"/>
<path d="M64.5371 335.781C64.1108 335.544 63.7793 335.118 63.6845 334.551C63.6371 334.125 63.6371 333.699 63.5897 333.225C63.4952 331.707 63.4478 330.147 63.4004 328.629C63.353 326.499 63.3056 324.414 63.3056 322.284C63.2582 319.962 63.2582 317.643 63.2582 315.321C63.2108 313.143 63.2108 310.965 63.2582 308.787C63.2582 307.08 63.3056 305.424 63.353 303.765C63.353 303.339 63.4004 302.913 63.4478 302.439C63.7793 297.609 64.016 296.757 65.2001 296.189C66.4313 295.573 67.7576 296.378 68.5625 298.178C69.131 299.362 71.2148 306.276 71.9726 309.402C74.009 318.021 75.5246 323.847 75.7613 323.847C76.1402 323.847 78.5555 315.984 81.3023 305.661C82.5338 301.113 83.6705 297.751 84.2387 296.899C84.7598 296.141 85.5647 295.62 86.1806 295.62C87.1277 295.62 88.1222 296.425 88.5485 297.562C89.2589 299.551 89.3537 301.731 89.2115 319.347C89.2115 322.332 89.1641 325.314 89.1641 328.299C89.1167 329.862 89.1167 331.473 89.1167 333.036C89.1167 333.507 89.1641 334.029 89.1167 334.455C88.9274 336.207 86.4173 336.396 85.6121 335.025C85.3754 334.551 85.3754 333.603 85.3754 320.01C85.3754 307.317 85.3754 305.613 85.1858 306.276C80.5919 322.614 80.1185 324.132 79.124 325.932C77.4662 328.914 75.0983 329.718 73.4879 327.825C72.2093 326.403 71.5937 324.369 68.1836 310.35C67.3313 306.843 67.2839 306.654 67.1891 307.317C66.9998 308.406 66.9998 316.695 67.1891 326.025C67.4258 335.496 67.4258 335.166 66.3839 335.829C65.7683 336.207 65.0579 336.114 64.5371 335.781Z" fill="white"/>
<path d="M199.308 268.4C214.839 268.4 227.428 255.81 227.428 240.28C227.428 224.749 214.839 212.16 199.308 212.16C183.778 212.16 171.188 224.749 171.188 240.28C171.188 255.81 183.778 268.4 199.308 268.4Z" stroke="white" stroke-width="2.96"/>
<path d="M198.009 336.158C197.583 335.969 197.204 335.591 197.062 335.117C196.872 334.643 196.967 333.98 196.92 333.461C196.92 331.091 196.967 328.724 196.967 326.357C197.014 323.513 197.062 320.672 197.109 317.783C197.251 308.36 197.393 300.401 197.441 300.071L197.536 299.502L196.209 299.597C192.752 299.787 188.063 299.787 187.543 299.597C186.88 299.408 186.264 298.555 186.264 297.892C186.264 296.992 186.785 296.376 187.874 296.045C188.49 295.903 208.949 295.524 210.038 295.666C211.128 295.856 212.312 296.708 212.075 297.987C211.885 299.076 210.938 299.313 209.991 299.408C208.712 299.502 207.386 299.455 206.107 299.502L201.324 299.597L201.229 302.06C201.182 303.434 201.04 311.39 200.945 319.679C200.803 331.328 200.709 334.928 200.519 335.306C200.093 336.35 198.909 336.587 198.009 336.158Z" fill="white"/>
<path d="M321.651 268.399C337.181 268.399 349.771 255.809 349.771 240.279C349.771 224.749 337.181 212.159 321.651 212.159C306.121 212.159 293.531 224.749 293.531 240.279C293.531 255.809 306.121 268.399 321.651 268.399Z" stroke="white" stroke-width="2.96"/>
<path d="M327.464 336.396C325.427 335.829 323.627 334.125 322.349 331.707C320.975 328.962 319.649 325.41 318.797 322.047C318.416 320.58 318.275 320.106 318.179 320.388C318.134 320.625 317.897 321.858 317.612 323.136C316.949 326.358 316.286 328.347 314.912 331.092C313.112 334.74 311.738 335.97 309.608 335.97C305.63 336.018 304.019 331.236 303.452 328.014C301.556 318.069 302.126 308.172 303.971 297.657C304.208 296.52 304.967 295.194 306.434 295.525C307.667 295.809 308.186 296.899 307.76 298.32C306.623 301.872 305.204 315.984 306.719 325.362C307.004 327.066 307.478 328.818 308.093 330.429C308.33 330.951 308.567 331.518 309.086 331.755C311.408 333.036 313.49 323.988 313.823 322.569C314.627 318.873 315.101 315.132 315.623 311.439C316.286 306.561 316.427 306.135 317.327 305.754C318.416 305.283 319.46 305.661 319.931 306.702C320.168 307.176 320.453 308.691 320.879 311.817C321.92 319.11 322.679 322.38 324.383 326.736C325.142 328.725 326.846 333.651 329.831 332.466C331.961 331.614 333.146 326.121 333.335 315.939C333.431 310.395 333.287 307.839 332.531 302.628C332.198 300.594 332.009 298.746 332.057 298.461C332.105 298.225 332.342 297.798 332.624 297.562C333.005 297.183 333.239 297.088 333.857 297.088C334.472 297.088 334.709 297.183 335.087 297.514C335.324 297.798 335.609 298.177 335.702 298.367C335.987 299.124 336.935 306.372 337.172 309.261C337.265 311.013 337.313 313.521 337.22 316.032C336.935 329.151 335.231 334.551 331.061 336.159C329.972 336.588 328.505 336.681 327.464 336.396Z" fill="white"/>
<path d="M444.001 268.399C459.531 268.399 472.121 255.809 472.121 240.279C472.121 224.749 459.531 212.159 444.001 212.159C428.471 212.159 415.881 224.749 415.881 240.279C415.881 255.809 428.471 268.399 444.001 268.399Z" stroke="white" stroke-width="2.96"/>
<path d="M442.702 336.158C442.276 335.969 441.898 335.591 441.757 335.117C441.565 334.643 441.661 333.98 441.613 333.461C441.613 331.091 441.661 328.724 441.661 326.357C441.709 323.513 441.757 320.672 441.802 317.783C441.946 308.36 442.087 300.401 442.135 300.071L442.228 299.502L440.902 299.597C437.446 299.787 432.757 299.787 432.235 299.597C431.572 299.408 430.957 298.555 430.957 297.892C430.957 296.992 431.479 296.376 432.568 296.045C433.183 295.903 453.643 295.524 454.732 295.666C455.821 295.856 457.006 296.708 456.769 297.987C456.58 299.076 455.632 299.313 454.684 299.408C453.406 299.502 452.08 299.455 450.802 299.502L446.017 299.597L445.924 302.06C445.876 303.434 445.735 311.39 445.639 319.679C445.498 331.328 445.402 334.928 445.213 335.306C444.787 336.35 443.602 336.587 442.702 336.158Z" fill="white"/>
<path d="M566.35 268.399C581.881 268.399 594.47 255.809 594.47 240.279C594.47 224.749 581.881 212.159 566.35 212.159C550.82 212.159 538.23 224.749 538.23 240.279C538.23 255.809 550.82 268.399 566.35 268.399Z" stroke="white" stroke-width="2.96"/>
<path d="M559.829 335.496C559.451 335.166 559.259 334.833 559.118 334.218C558.596 331.851 558.644 310.443 559.166 301.35C559.403 297.183 559.496 296.899 560.585 296.33C561.203 295.999 561.44 295.999 568.922 295.951C574.367 295.904 576.782 295.951 577.067 296.093C578.441 296.662 578.726 298.225 577.682 299.267C577.4 299.551 576.974 299.693 576.545 299.693L573.041 299.74C570.722 299.788 567.596 299.835 566.033 299.882L563.192 300.024L563.096 300.498C563.003 301.02 562.718 308.265 562.718 309.78V310.728H567.644C571.811 310.728 572.615 310.776 573.089 310.965C574.463 311.628 574.511 313.428 573.185 314.28C572.804 314.517 572.237 314.565 567.737 314.61L562.67 314.658L562.622 315.51C562.433 316.791 562.67 331.092 562.859 332.892C563.003 334.218 563.003 334.503 562.766 334.929C562.244 336.066 560.777 336.351 559.829 335.496Z" fill="white"/>
<path d="M688.694 268.399C704.224 268.399 716.814 255.809 716.814 240.279C716.814 224.749 704.224 212.159 688.694 212.159C673.164 212.159 660.574 224.749 660.574 240.279C660.574 255.809 673.164 268.399 688.694 268.399Z" stroke="white" stroke-width="2.96"/>
<path d="M684.162 335.97C682.221 335.544 681.132 335.07 680.751 334.407C679.947 333.129 680.799 331.614 682.269 331.614C682.506 331.614 683.073 331.755 683.547 331.899C684.966 332.418 686.529 332.607 688.047 332.514C691.218 332.325 692.544 330.762 691.74 328.11C691.362 326.925 690.177 325.362 688.047 323.277C683.925 319.299 682.032 317.31 681.225 316.128C678.243 311.769 677.91 307.272 680.232 302.394C682.836 297.041 690.081 293.394 695.292 297.657C696.855 298.935 698.37 301.161 698.37 302.25C698.37 303.339 697.566 304.191 696.477 304.191C695.67 304.191 695.151 303.765 694.581 302.724C693.966 301.539 692.829 300.357 691.929 299.977C688.518 298.414 685.536 300.831 683.973 303.72C682.599 306.18 682.032 309.261 683.169 311.958C684.351 314.802 687.099 316.932 689.229 319.062C693.492 323.325 694.533 324.558 695.244 326.451C696.192 329.055 695.955 331.473 694.581 333.462C693.87 334.455 692.592 335.307 691.125 335.781C689.325 336.351 686.292 336.444 684.162 335.97Z" fill="white"/>
<path d="M811.044 268.399C826.574 268.399 839.164 255.809 839.164 240.279C839.164 224.749 826.574 212.159 811.044 212.159C795.514 212.159 782.924 224.749 782.924 240.279C782.924 255.809 795.514 268.399 811.044 268.399Z" stroke="white" stroke-width="2.96"/>
<path d="M806.506 335.969C804.565 335.543 803.476 335.069 803.098 334.406C802.291 333.128 803.143 331.613 804.613 331.613C804.85 331.613 805.417 331.754 805.891 331.898C807.313 332.417 808.876 332.606 810.391 332.513C813.565 332.324 814.891 330.761 814.084 328.109C813.706 326.924 812.521 325.361 810.391 323.276C806.269 319.298 804.376 317.309 803.572 316.127C800.587 311.768 800.254 307.271 802.576 302.393C805.18 297.04 812.428 293.394 817.636 297.656C819.199 298.935 820.714 301.16 820.714 302.249C820.714 303.338 819.91 304.19 818.821 304.19C818.014 304.19 817.495 303.764 816.925 302.723C816.31 301.538 815.173 300.356 814.273 299.977C810.865 298.414 807.88 300.83 806.317 303.719C804.943 306.179 804.376 309.26 805.513 311.957C806.695 314.801 809.443 316.931 811.573 319.061C815.836 323.324 816.88 324.557 817.588 326.45C818.536 329.054 818.299 331.472 816.925 333.461C816.217 334.454 814.936 335.306 813.469 335.78C811.669 336.35 808.639 336.443 806.506 335.969Z" fill="white"/>
</svg>
