<svg width="888" height="177" viewBox="0 0 888 177" fill="none" xmlns="http://www.w3.org/2000/svg">
<path d="M63.8121 176.012C62.3652 176.012 61.2075 175.288 60.3393 173.841C59.4711 172.394 59.037 170.296 59.037 167.547L58.8201 135.424C58.6755 132.674 58.6029 128.117 58.6029 121.75C58.3137 108.293 58.1688 93.0993 58.1688 76.1697V65.1003C56.8665 72.0459 54.6237 81.813 51.4404 94.4016C48.2571 107.425 46.0143 118.132 44.712 126.525V127.827L44.0607 131.951C43.7715 135.134 43.0479 138.39 41.8902 141.718C40.4433 145.191 38.2005 146.927 35.1618 146.927C29.9527 146.927 27.3481 140.126 27.3481 126.525C27.3481 119 26.5522 110.97 24.9605 102.433C23.5135 93.7506 21.126 83.1153 17.798 70.5264L11.2865 46.2171L10.8524 72.2628C10.8524 80.0766 11.2141 94.9806 11.9377 116.975L12.3718 131.734L12.8058 161.47C12.8058 164.508 11.7206 167.258 9.55011 169.718C5.93265 169.718 3.40041 168.632 1.95343 166.462C0.651144 164.147 0 160.819 0 156.478L0.434097 138.68C0.868194 130.866 1.08524 125.006 1.08524 121.099L0.217049 37.101C0.217049 30.879 0.361746 21.5459 0.651144 9.10179L6.51144 5.62902C7.66905 5.77371 8.82663 6.64191 9.98421 8.23359C11.1418 9.68058 12.4441 12.0681 13.8911 15.3962C17.5085 24.3675 22.2113 42.3102 27.9992 69.2241C28.8674 72.9864 29.4462 76.0974 29.7356 78.5571C31.4721 86.9496 32.7018 93.3165 33.4254 97.6575L36.681 114.37L38.2005 107.208L42.3243 89.4096C44.6397 78.9912 46.5207 69.8754 47.9676 62.0616C49.5594 54.2478 51.0786 45.783 52.5258 36.6669C54.1173 25.8145 55.1301 16.7708 55.5642 9.53589V8.23359C55.8537 6.3525 56.7219 4.90554 58.1688 3.89265C59.616 2.73505 61.3524 2.15625 63.378 2.15625C64.6803 2.15625 65.838 2.73505 66.8508 3.89265C67.8636 5.05023 68.3703 6.28017 68.3703 7.58244C68.3703 24.9463 69.0213 50.9196 70.3236 85.5027C71.0472 102.433 71.5536 119 71.8428 135.207C72.1323 142.586 72.2769 151.919 72.2769 163.206C72.2769 166.534 71.4087 169.5 69.6726 172.105C67.9362 174.71 65.9826 176.012 63.8121 176.012Z" fill="#B83A48"/>
<path d="M142.626 172.322C139.298 172.322 136.839 171.816 135.247 170.803C133.655 169.79 132.859 167.909 132.859 165.159C132.859 160.819 132.136 153.439 130.689 143.02L129.821 138.463L108.333 135.207C107.465 138.535 106.235 145.263 104.643 155.392C103.775 162.482 102.4 167.185 100.519 169.5C99.5062 170.803 98.0593 171.454 96.178 171.454C94.4416 171.454 92.8501 170.947 91.4029 169.934C89.956 168.777 89.2324 167.402 89.2324 165.811L89.6665 164.725L89.8837 163.857C99.4339 126.67 106.669 89.9883 111.588 53.8137C111.588 53.235 111.661 52.2945 111.806 50.9922C111.95 49.545 112.095 47.5194 112.24 44.9148C112.674 39.561 113.108 35.2923 113.542 32.109C114.121 28.9255 114.989 26.538 116.147 24.9463H123.526C125.552 24.9463 127.288 25.4527 128.735 26.4656C130.182 27.3338 130.906 28.6361 130.906 30.3726C130.906 41.3697 132.425 57.7206 135.464 79.4253C138.358 101.709 139.805 117.337 139.805 126.308C139.805 127.176 140.166 129.419 140.89 133.036C141.614 136.364 141.975 138.535 141.975 139.548C141.975 140.56 142.699 144.901 144.146 152.571C145.448 159.516 146.099 164.002 146.099 166.027V166.245C146.099 169.428 144.942 171.454 142.626 172.322ZM128.301 130.649C127.867 128.478 127.65 125.801 127.65 122.618C127.65 109.595 126.492 92.9547 124.177 72.6969L122.007 50.124C115.785 84.1281 111.516 109.812 109.201 127.176C111.372 128.623 117.738 129.781 128.301 130.649Z" fill="#B83A48"/>
<path d="M215.953 174.06C212.625 174.06 209.08 170.442 205.318 163.207C199.675 152.355 194.104 134.485 188.605 109.596C187.014 102.796 185.711 96.501 184.698 90.7131C179.489 101.131 176.885 113.72 176.885 128.479V168.633C176.885 171.961 175.438 173.626 172.544 173.626C170.373 173.626 168.565 172.974 167.117 171.672C165.815 170.515 165.164 168.85 165.164 166.68V100.914C165.164 94.5477 165.888 82.827 167.335 65.7525C168.781 50.8485 169.505 39.1281 169.505 30.5907C170.662 27.8414 172.761 26.4668 175.799 26.4668C177.68 26.4668 179.272 27.1179 180.574 28.4202C181.877 29.7225 182.528 31.3143 182.528 33.1953V33.8466C180.647 37.0299 179.706 50.1975 179.706 73.3491V81.1629L187.737 65.3184C192.657 55.0449 197.287 46.2183 201.628 38.8386C205.68 31.6038 208.646 27.9861 210.527 27.9861C212.842 27.9861 214.796 28.4926 216.387 29.5055C218.124 30.5184 218.992 31.9653 218.992 33.8466L213.783 42.5283C202.93 60.0369 196.853 70.1658 195.551 72.9153C195.551 75.375 195.478 77.5455 195.334 79.4265L195.117 85.938C195.117 92.16 197.577 103.808 202.496 120.883C207.561 137.812 211.757 149.027 215.085 154.525L217.907 158.432C220.656 162.194 222.031 165.522 222.031 168.416C222.031 170.008 221.38 171.31 220.077 172.323C218.92 173.481 217.545 174.06 215.953 174.06Z" fill="#B83A48"/>
<path d="M250.596 173.191C248.715 173.191 246.979 172.539 245.387 171.237C243.94 169.935 243.144 168.343 243 166.462V156.478C242.855 155.176 242.782 153.656 242.782 151.92C242.782 148.881 242.565 144.251 242.131 138.029L241.697 124.138C241.697 117.048 241.914 106.484 242.348 92.4487C242.927 79.8598 243.216 69.2968 243.216 60.7597C243.216 58.7338 243 55.6951 242.565 51.6436C242.131 47.4475 241.914 44.4088 241.914 42.5275C241.914 32.254 244.953 27.1172 251.03 27.1172C255.805 27.1172 261.304 28.0577 267.526 29.9388C273.893 31.8199 277.076 34.0627 277.076 36.6673C277.076 38.1142 276.425 39.4888 275.123 40.7911C273.965 41.9488 272.518 42.8893 270.782 43.6129C264.704 41.4424 259.206 39.9955 254.286 39.2719C254.431 41.4424 254.503 44.5534 254.503 48.6049C254.503 54.3928 254.431 59.602 254.286 64.2325C253.852 71.1781 253.635 76.387 253.635 79.8598L254.286 83.3326L257.759 83.1157C258.916 82.9708 260.363 82.8985 262.1 82.8985C269.045 82.8985 272.518 84.9244 272.518 88.9759C272.518 90.5677 271.867 91.9423 270.564 93.0997C269.262 94.1128 267.598 94.6192 265.572 94.6192C262.968 94.6192 260.942 94.4746 259.495 94.1851H254.069C254.358 97.9471 254.503 103.446 254.503 110.681C254.503 117.916 254.431 124.427 254.286 130.215C253.852 139.042 253.635 145.626 253.635 149.967C253.635 158.07 253.779 162.121 254.069 162.121L261.231 161.904C263.691 161.76 266.658 161.687 270.13 161.687C275.629 161.687 278.378 163.423 278.378 166.896C278.378 168.922 277.438 170.441 275.557 171.454C273.82 172.612 271.65 173.191 269.045 173.191H250.596Z" fill="#B83A48"/>
<path d="M355.387 170.15C342.943 170.15 336.721 167.98 336.721 163.639C336.721 160.166 338.89 158.43 343.231 158.43H345.838C346.417 158.574 347.068 158.647 347.791 158.647C348.949 158.647 349.744 158.285 350.179 157.561C350.755 156.838 351.046 155.536 351.046 153.654C351.046 141.355 350.323 124.57 348.874 103.299C347.572 81.1604 346.921 64.4477 346.921 53.1614C346.921 49.1096 346.993 45.4199 347.14 42.0917L347.356 31.0223C347.356 26.2472 347.14 22.268 346.705 19.0847C345.112 19.6635 343.45 19.9529 341.713 19.9529C338.386 19.9529 336.721 18.2165 336.721 14.7437C336.721 13.0073 337.735 11.488 339.76 10.1857C341.929 8.8834 344.68 7.94287 348.007 7.36405C354.085 6.35119 359.221 5.84473 363.418 5.84473C365.155 5.84473 366.601 6.42352 367.759 7.5811C369.061 8.73871 369.712 10.1133 369.712 11.705C369.712 13.2967 369.205 14.6714 368.194 15.8289C367.324 16.9865 366.166 17.5653 364.72 17.5653C363.853 17.5653 363.127 17.493 362.548 17.3483H360.814C359.365 17.3483 358.282 17.71 357.556 18.4335C356.98 19.0123 356.689 20.1699 356.689 21.9063C356.689 37.2443 357.631 58.3703 359.512 85.2845C361.246 113.501 362.116 134.699 362.116 148.879V157.127C363.127 156.983 364.576 156.91 366.457 156.91C372.535 156.91 375.571 159.442 375.571 164.507V165.809L370.147 169.499C370 169.499 369.568 169.571 368.845 169.716C368.119 169.716 366.673 169.716 364.504 169.716C359.584 170.005 356.545 170.15 355.387 170.15Z" fill="#B83A48"/>
<path d="M409.83 166.897L409.611 158.432C409.467 155.972 409.395 153.223 409.395 150.184L409.611 142.805C409.179 141.213 408.093 125.369 406.356 95.2712C404.619 65.174 403.608 45.8567 403.317 37.3196C394.926 37.0301 389.571 36.1619 387.255 34.715C385.665 33.5573 384.87 32.255 384.87 30.8081C384.87 29.6504 385.593 28.6375 387.039 27.7693C388.632 26.7565 390.222 26.25 391.815 26.25C395.865 26.25 400.785 26.5394 406.575 27.1182C412.071 27.8417 416.991 28.2034 421.332 28.2034H424.806C429.291 28.2034 431.535 29.9398 431.535 33.4127C431.535 35.1491 430.812 36.596 429.363 37.7537C427.917 38.7665 426.252 39.2729 424.371 39.2729C423.069 39.2729 421.188 39.0557 418.728 38.6216L414.387 37.7537L413.952 39.9239C413.952 52.8023 415.182 73.3493 417.642 101.566C419.958 128.046 421.116 148.593 421.116 163.207C421.116 164.944 420.321 166.463 418.728 167.765C417.282 169.068 415.617 169.719 413.736 169.719L409.83 166.897Z" fill="#B83A48"/>
<path d="M530.614 173.626C528.73 173.626 527.284 172.902 526.273 171.455C525.403 170.153 524.968 168.489 524.968 166.463C524.968 136.221 524.389 110.682 523.234 89.845C519.76 89.2663 517.3 88.9768 515.854 88.9768C509.92 88.9768 505.651 89.4832 503.047 90.4963C503.047 98.5993 503.698 110.826 505 127.177C506.158 144.541 506.737 156.841 506.737 164.076C506.737 165.522 506.302 166.897 505.435 168.199C504.568 169.357 503.482 169.936 502.18 169.936C500.299 169.936 498.562 166.608 496.969 159.952C494.656 150.112 492.775 129.492 491.326 98.0929C490.315 76.822 489.808 53.9596 489.808 29.5056C489.664 25.02 489.589 18.6532 489.589 10.4054C489.589 7.80082 490.819 6.49855 493.279 6.49855C494.728 6.49855 496.174 6.86029 497.62 7.58377C499.213 8.30728 500.371 9.10312 501.094 9.97132C500.515 14.6017 500.227 20.0279 500.227 26.2499C500.227 32.3272 500.515 39.7069 501.094 48.3889C501.529 58.3729 501.745 65.8975 501.745 70.9618V74.8687C501.601 76.0264 501.529 77.401 501.529 78.9925C501.529 80.4397 501.673 82.3207 501.961 84.6358C502.831 84.6358 504.277 84.5635 506.302 84.4189C508.33 84.274 510.355 84.0571 512.38 83.7676C517.156 83.3335 520.702 83.1166 523.015 83.1166C523.015 70.5277 522.871 58.8796 522.583 48.1717L522.148 11.9247V6.06445C524.029 6.06445 525.694 6.42619 527.14 7.1497C528.586 7.72849 529.672 8.52433 530.395 9.53722C531.697 11.1289 532.495 13.8782 532.783 17.7851V22.7772C532.783 35.2213 533.506 59.0242 534.955 94.186C536.257 126.02 536.908 149.895 536.908 165.812C536.908 167.838 536.257 169.647 534.955 171.238C533.797 172.83 532.348 173.626 530.614 173.626Z" fill="#B83A48"/>
<path d="M607.245 172.322C603.918 172.322 601.458 171.816 599.868 170.803C598.275 169.79 597.48 167.909 597.48 165.159C597.48 160.819 596.757 153.439 595.308 143.02L594.441 138.463L572.952 135.207C572.085 138.535 570.855 145.263 569.262 155.392C568.395 162.482 567.021 167.185 565.14 169.5C564.126 170.803 562.68 171.454 560.799 171.454C559.062 171.454 557.469 170.947 556.023 169.934C554.577 168.777 553.854 167.402 553.854 165.811L554.286 164.725L554.505 163.857C564.054 126.67 571.29 89.9883 576.21 53.8137C576.21 53.235 576.282 52.2945 576.426 50.9922C576.57 49.545 576.714 47.5194 576.861 44.9148C577.293 39.561 577.728 35.2923 578.163 32.109C578.742 28.9255 579.609 26.538 580.767 24.9463H588.147C590.172 24.9463 591.909 25.4527 593.355 26.4656C594.801 27.3338 595.527 28.6361 595.527 30.3726C595.527 41.3697 597.045 57.7206 600.084 79.4253C602.979 101.709 604.425 117.337 604.425 126.308C604.425 127.176 604.788 129.419 605.511 133.036C606.234 136.364 606.594 138.535 606.594 139.548C606.594 140.56 607.32 144.901 608.766 152.571C610.068 159.516 610.719 164.002 610.719 166.027V166.245C610.719 169.428 609.561 171.454 607.245 172.322ZM592.92 130.649C592.488 128.478 592.269 125.801 592.269 122.618C592.269 109.595 591.114 92.9547 588.798 72.6969L586.626 50.124C580.404 84.1281 576.135 109.812 573.822 127.176C575.991 128.623 582.357 129.781 592.92 130.649Z" fill="#B83A48"/>
<path d="M634.122 171.887C632.241 164.218 631.302 153.583 631.302 139.981L631.737 120.664C632.025 114.876 632.169 108.437 632.169 101.346C631.302 99.3207 630.867 97.5117 630.867 95.9202V95.2689C632.313 92.5197 633.039 86.2977 633.039 76.6029L633.255 66.6186C633.399 63.4353 633.471 59.8902 633.471 55.9833C633.471 47.4462 632.892 40.7175 631.737 35.7978C632.169 33.7719 632.892 32.0358 633.906 30.5886C634.92 28.997 636.15 28.2012 637.596 28.2012H647.145C651.198 28.2012 654.744 29.1417 657.78 31.0227C660.819 32.7591 663.135 35.2914 664.728 38.6193C667.62 44.5521 669.069 51.57 669.069 59.673C669.069 65.4612 668.997 70.0191 668.85 73.347C668.562 77.5434 667.839 81.378 666.681 84.8508C666.246 86.7318 665.595 88.3236 664.728 89.6259C664.002 90.7833 662.919 92.2302 661.47 93.9666C659.445 96.4266 656.118 98.7417 651.486 100.912C649.605 101.925 647.145 102.866 644.106 103.734V126.958L644.541 140.849L644.976 147.578C645.555 155.681 645.843 162.554 645.843 168.197C645.843 169.934 645.12 171.381 643.674 172.538C642.225 173.84 640.563 174.492 638.682 174.492L634.122 171.887ZM644.325 94.8348C652.863 93.5325 657.129 81.3057 657.129 58.1538C657.129 53.9574 656.913 50.7018 656.478 48.3867C656.046 46.6503 655.467 45.2757 654.744 44.2626C654.018 43.1052 652.935 42.1647 651.486 41.4411C649.896 40.5729 648.159 40.1388 646.278 40.1388C646.278 39.9942 645.483 39.9216 643.89 39.9216V52.2936C643.89 60.8307 643.962 68.4273 644.106 75.0834C644.106 82.608 644.181 87.5277 644.325 89.8428V94.8348Z" fill="#B83A48"/>
<path d="M695.168 171.887C693.287 164.218 692.345 153.583 692.345 139.981L692.78 120.664C693.068 114.876 693.215 108.437 693.215 101.346C692.345 99.3207 691.91 97.5117 691.91 95.9202V95.2689C693.359 92.5197 694.082 86.2977 694.082 76.6029L694.298 66.6186C694.442 63.4353 694.517 59.8902 694.517 55.9833C694.517 47.4462 693.938 40.7175 692.78 35.7978C693.212 33.7719 693.938 32.0358 694.949 30.5886C695.963 28.997 697.193 28.2012 698.639 28.2012H708.191C712.241 28.2012 715.787 29.1417 718.826 31.0227C721.865 32.7591 724.178 35.2914 725.771 38.6193C728.666 44.5521 730.112 51.57 730.112 59.673C730.112 65.4612 730.04 70.0191 729.896 73.347C729.605 77.5434 728.882 81.378 727.724 84.8508C727.289 86.7318 726.638 88.3236 725.771 89.6259C725.048 90.7833 723.962 92.2302 722.516 93.9666C720.488 96.4266 717.161 98.7417 712.532 100.912C710.651 101.925 708.191 102.866 705.152 103.734V126.958L705.584 140.849L706.019 147.578C706.598 155.681 706.889 162.554 706.889 168.197C706.889 169.934 706.163 171.381 704.717 172.538C703.271 173.84 701.606 174.492 699.725 174.492L695.168 171.887ZM705.368 94.8348C713.906 93.5325 718.175 81.3057 718.175 58.1538C718.175 53.9574 717.956 50.7018 717.524 48.3867C717.089 46.6503 716.51 45.2757 715.787 44.2626C715.064 43.1052 713.978 42.1647 712.532 41.4411C710.939 40.5729 709.202 40.1388 707.321 40.1388C707.321 39.9942 706.526 39.9216 704.933 39.9216V52.2936C704.933 60.8307 705.005 68.4273 705.152 75.0834C705.152 82.608 705.224 87.5277 705.368 89.8428V94.8348Z" fill="#B83A48"/>
<path d="M761.421 173.191C759.54 173.191 757.803 172.539 756.213 171.237C754.767 169.935 753.969 168.343 753.825 166.462V156.478C753.681 155.176 753.609 153.656 753.609 151.92C753.609 148.881 753.39 144.251 752.958 138.029L752.523 124.138C752.523 117.048 752.739 106.484 753.174 92.4487C753.753 79.8598 754.041 69.2968 754.041 60.7597C754.041 58.7338 753.825 55.6951 753.39 51.6436C752.958 47.4475 752.739 44.4088 752.739 42.5275C752.739 32.254 755.778 27.1172 761.856 27.1172C766.632 27.1172 772.131 28.0577 778.353 29.9388C784.719 31.8199 787.902 34.0627 787.902 36.6673C787.902 38.1142 787.251 39.4888 785.949 40.7911C784.791 41.9488 783.345 42.8893 781.608 43.6129C775.53 41.4424 770.031 39.9955 765.111 39.2719C765.255 41.4424 765.33 44.5534 765.33 48.6049C765.33 54.3928 765.255 59.602 765.111 64.2325C764.679 71.1781 764.46 76.387 764.46 79.8598L765.111 83.3326L768.585 83.1157C769.743 82.9708 771.189 82.8985 772.926 82.8985C779.871 82.8985 783.345 84.9244 783.345 88.9759C783.345 90.5677 782.694 91.9423 781.389 93.0997C780.087 94.1128 778.425 94.6192 776.397 94.6192C773.793 94.6192 771.768 94.4746 770.322 94.1851H764.895C765.183 97.9471 765.33 103.446 765.33 110.681C765.33 117.916 765.255 124.427 765.111 130.215C764.679 139.042 764.46 145.626 764.46 149.967C764.46 158.07 764.604 162.121 764.895 162.121L772.056 161.904C774.516 161.76 777.483 161.687 780.957 161.687C786.456 161.687 789.204 163.423 789.204 166.896C789.204 168.922 788.265 170.441 786.381 171.454C784.647 172.612 782.475 173.191 779.871 173.191H761.421Z" fill="#B83A48"/>
<path d="M872.372 171.019C870.635 171.019 869.333 170.584 868.466 169.716C867.596 168.703 866.945 167.039 866.51 164.724L865.208 160.6V159.515C865.208 154.74 860.216 138.461 850.232 110.679C840.392 82.8968 832.652 62.3495 827.009 49.0373V158.213L827.876 159.732C828.02 160.021 828.311 160.528 828.746 161.251C829.178 161.975 829.397 162.698 829.397 163.422C829.397 165.303 828.746 166.894 827.444 168.197C826.139 169.499 824.549 170.15 822.668 170.15C818.036 170.15 815.723 165.737 815.723 156.91L815.504 119.795C815.36 108.653 815.288 96.2093 815.288 82.4627C815.288 77.8325 815.504 71.1038 815.939 62.2772C816.374 53.1614 816.59 46.4327 816.59 42.0917C816.59 35.291 819.194 29.9371 824.405 26.0303V27.3326C825.272 27.0432 825.851 26.8985 826.139 26.8985C829.469 26.8985 833.666 32.6864 838.73 44.2622C842.78 53.5229 846.398 63.2903 849.581 73.5638C852.911 83.8373 857.249 98.4521 862.604 117.408L864.776 125.221C868.103 136.942 870.635 145.334 872.372 150.399C875.264 119.289 876.713 82.535 876.713 40.1384V37.3169C876.569 36.4487 876.494 35.5079 876.494 34.4951C876.494 30.1541 878.231 27.9837 881.705 27.9837C883.73 27.9837 885.251 28.7796 886.262 30.3713C887.42 31.9628 887.999 33.9887 887.999 36.4487V52.7273C887.711 75.0107 886.841 99.1754 885.395 125.221C883.946 151.267 882.212 165.954 880.184 169.282C875.99 170.44 873.383 171.019 872.372 171.019Z" fill="#B83A48"/>
</svg>
