<svg width="296" height="59" viewBox="0 0 296 59" fill="none" xmlns="http://www.w3.org/2000/svg">
<path d="M21.2707 58.6706C20.7884 58.6706 20.4025 58.4294 20.1131 57.9471C19.8237 57.4648 19.679 56.7654 19.679 55.849L19.6067 45.1413C19.5585 44.2248 19.5343 42.7055 19.5343 40.5833C19.4379 36.0976 19.3896 31.0331 19.3896 25.3899V21.7001C18.9555 24.0153 18.2079 27.271 17.1468 31.4672C16.0857 35.8082 15.3381 39.3774 14.904 42.175V42.609L14.6869 43.9837C14.5905 45.0448 14.3493 46.1301 13.9634 47.2394C13.4811 48.397 12.7335 48.9758 11.7206 48.9758C9.98422 48.9758 9.11602 46.7088 9.11602 42.175C9.11602 39.6668 8.85074 36.9899 8.32018 34.1442C7.83785 31.2502 7.04201 27.7051 5.93265 23.5088L3.76217 15.4057L3.61747 24.0876C3.61747 26.6922 3.73805 31.6602 3.97922 38.9916L4.12392 43.9113L4.26861 53.8232C4.26861 54.8361 3.90687 55.7525 3.18337 56.5725C1.97755 56.5725 1.13347 56.2107 0.651144 55.4872C0.217048 54.7155 0 53.6062 0 52.1592L0.144699 46.2265C0.289398 43.6219 0.361747 41.6685 0.361747 40.3662L0.0723495 12.367C0.0723495 10.293 0.120582 7.18196 0.217048 3.03393L2.17048 1.87634C2.55635 1.92457 2.94221 2.21397 3.32807 2.74453C3.71394 3.22686 4.14803 4.0227 4.63036 5.13206C5.83618 8.1225 7.40375 14.1034 9.33307 23.0747C9.62247 24.3288 9.8154 25.3658 9.91187 26.1857C10.4907 28.9832 10.9006 31.1055 11.1418 32.5525L12.227 38.1234L12.7335 35.7359L14.1081 29.8032C14.8799 26.3304 15.5069 23.2918 15.9892 20.6872C16.5198 18.0826 17.0262 15.261 17.5086 12.2223C18.0391 8.60483 18.3767 5.59027 18.5214 3.17863V2.74453C18.6179 2.1175 18.9073 1.63518 19.3896 1.29755C19.872 0.911682 20.4508 0.71875 21.126 0.71875C21.5601 0.71875 21.946 0.911682 22.2836 1.29755C22.6212 1.68341 22.7901 2.09339 22.7901 2.52748C22.7901 8.31543 23.0071 16.9732 23.4412 28.5009C23.6824 34.1442 23.8512 39.6668 23.9476 45.0689C24.0441 47.5288 24.0923 50.6398 24.0923 54.402C24.0923 55.5114 23.8029 56.5001 23.2242 57.3683C22.6454 58.2365 21.9942 58.6706 21.2707 58.6706Z" fill="#B83A48"/>
<path d="M47.5426 57.4407C46.4332 57.4407 45.6133 57.2719 45.0827 56.9342C44.5522 56.5966 44.2869 55.9696 44.2869 55.0531C44.2869 53.6062 44.0457 51.1463 43.5634 47.6735L43.274 46.1542L36.1114 45.0689C35.822 46.1783 35.412 48.4211 34.8814 51.7974C34.5921 54.1608 34.1338 55.7284 33.5068 56.5001C33.1692 56.9342 32.6869 57.1513 32.0598 57.1513C31.481 57.1513 30.9505 56.9825 30.4681 56.6448C29.9858 56.259 29.7446 55.8008 29.7446 55.2702L29.8893 54.9084L29.9617 54.619C33.1451 42.2232 35.5567 29.9961 37.1966 17.9379C37.1966 17.745 37.2207 17.4315 37.269 16.9974C37.3172 16.515 37.3654 15.8398 37.4137 14.9716C37.5584 13.187 37.7031 11.7641 37.8478 10.703C38.0407 9.64184 38.3301 8.846 38.716 8.31544H41.1758C41.8511 8.31544 42.4299 8.48425 42.9122 8.82188C43.3946 9.11128 43.6357 9.54538 43.6357 10.1242C43.6357 13.7899 44.1422 19.2402 45.1551 26.4751C46.1197 33.903 46.602 39.1122 46.602 42.1026C46.602 42.392 46.7226 43.1396 46.9638 44.3454C47.205 45.4548 47.3255 46.1783 47.3255 46.5159C47.3255 46.8535 47.5667 48.3005 48.049 50.8569C48.4831 53.1721 48.7002 54.6673 48.7002 55.3425V55.4149C48.7002 56.476 48.3143 57.1513 47.5426 57.4407ZM42.7675 43.5496C42.6228 42.8261 42.5505 41.9338 42.5505 40.8727C42.5505 36.5317 42.1646 30.9849 41.3929 24.2323L40.6694 16.708C38.5954 28.0427 37.1725 36.604 36.4008 42.392C37.1243 42.8743 39.2465 43.2602 42.7675 43.5496Z" fill="#B83A48"/>
<path d="M71.9843 58.0195C70.8749 58.0195 69.6932 56.8136 68.4391 54.402C66.558 50.7845 64.7011 44.8278 62.8682 36.5317C62.3377 34.2648 61.9036 32.1666 61.5659 30.2373C59.8296 33.7101 58.9614 37.9063 58.9614 42.8261V56.2107C58.9614 57.3201 58.479 57.8748 57.5144 57.8748C56.7909 57.8748 56.188 57.6577 55.7056 57.2236C55.2715 56.8378 55.0545 56.2831 55.0545 55.5596V33.6377C55.0545 31.5155 55.2957 27.6086 55.778 21.9171C56.2603 16.9491 56.5015 13.0423 56.5015 10.1965C56.8873 9.28009 57.5867 8.82188 58.5996 8.82188C59.2266 8.82188 59.7572 9.03893 60.1913 9.47303C60.6254 9.90712 60.8424 10.4377 60.8424 11.0647V11.2818C60.2154 12.3429 59.9019 16.7321 59.9019 24.4493V27.0539L62.5788 21.7724C64.2188 18.3479 65.7622 15.4057 67.2092 12.9458C68.5597 10.5342 69.5485 9.32833 70.1755 9.32833C70.9472 9.32833 71.5984 9.49714 72.1289 9.83477C72.7077 10.1724 72.9971 10.6547 72.9971 11.2818L71.2608 14.1757C67.6433 20.0119 65.6175 23.3882 65.1834 24.3047C65.1834 25.1246 65.1593 25.8481 65.1111 26.4751L65.0387 28.6456C65.0387 30.7196 65.8587 34.6024 67.4986 40.2939C69.1867 45.9371 70.5855 49.6752 71.6949 51.508L72.6354 52.8103C73.5518 54.0644 74.01 55.1737 74.01 56.1384C74.01 56.6689 73.793 57.103 73.3589 57.4407C72.973 57.8265 72.5148 58.0195 71.9843 58.0195Z" fill="#B83A48"/>
<path d="M83.5319 57.7301C82.9049 57.7301 82.3261 57.513 81.7955 57.0789C81.3132 56.6448 81.0479 56.1143 80.9997 55.4872V52.1592C80.9514 51.7251 80.9273 51.2186 80.9273 50.6398C80.9273 49.6269 80.855 48.0835 80.7103 46.0095L80.5656 41.3791C80.5656 39.0157 80.6379 35.4947 80.7826 30.8161C80.9755 26.6198 81.072 23.0988 81.072 20.2531C81.072 19.5778 80.9997 18.5649 80.855 17.2144C80.7103 15.8157 80.6379 14.8028 80.6379 14.1757C80.6379 10.7512 81.6508 9.03893 83.6766 9.03893C85.2683 9.03893 87.1011 9.35244 89.1751 9.97947C91.2974 10.6065 92.3585 11.3541 92.3585 12.2223C92.3585 12.7046 92.1415 13.1628 91.7074 13.5969C91.3215 13.9828 90.8392 14.2963 90.2604 14.5375C88.2346 13.814 86.4017 13.3317 84.7618 13.0905C84.8101 13.814 84.8342 14.851 84.8342 16.2015C84.8342 18.1308 84.8101 19.8672 84.7618 21.4107C84.6171 23.7259 84.5448 25.4622 84.5448 26.6198L84.7618 27.7774L85.9194 27.7051C86.3053 27.6568 86.7876 27.6327 87.3664 27.6327C89.6816 27.6327 90.8392 28.308 90.8392 29.6585C90.8392 30.1891 90.6221 30.6473 90.188 31.0331C89.7539 31.3708 89.1993 31.5396 88.524 31.5396C87.6558 31.5396 86.9805 31.4914 86.4982 31.3949H84.6895C84.7859 32.6489 84.8342 34.4818 84.8342 36.8934C84.8342 39.3051 84.8101 41.4756 84.7618 43.4049C84.6171 46.3471 84.5448 48.5417 84.5448 49.9887C84.5448 52.6897 84.593 54.0403 84.6895 54.0403L87.077 53.9679C87.897 53.9197 88.8857 53.8955 90.0433 53.8955C91.8762 53.8955 92.7926 54.4743 92.7926 55.6319C92.7926 56.3072 92.4791 56.8136 91.8521 57.1513C91.2733 57.5371 90.5498 57.7301 89.6816 57.7301H83.5319Z" fill="#B83A48"/>
<path d="M118.462 56.7172C114.314 56.7172 112.24 55.9937 112.24 54.5467C112.24 53.3891 112.963 52.8103 114.41 52.8103H115.279C115.472 52.8585 115.689 52.8827 115.93 52.8827C116.316 52.8827 116.581 52.7621 116.726 52.5209C116.918 52.2798 117.015 51.8457 117.015 51.2186C117.015 47.1188 116.774 41.5238 116.291 34.4336C115.857 27.0539 115.64 21.483 115.64 17.7209C115.64 16.3703 115.664 15.1404 115.713 14.031L115.785 10.3412C115.785 8.74953 115.713 7.42313 115.568 6.362C115.037 6.55494 114.483 6.6514 113.904 6.6514C112.795 6.6514 112.24 6.07261 112.24 4.91502C112.24 4.33622 112.578 3.82977 113.253 3.39568C113.976 2.96158 114.893 2.64807 116.002 2.45513C118.028 2.11751 119.74 1.94869 121.139 1.94869C121.718 1.94869 122.2 2.14162 122.586 2.52748C123.02 2.91335 123.237 3.37156 123.237 3.90213C123.237 4.43269 123.068 4.8909 122.731 5.27676C122.441 5.66262 122.055 5.85556 121.573 5.85556C121.284 5.85556 121.042 5.83144 120.849 5.78321H120.271C119.788 5.78321 119.427 5.90379 119.185 6.14495C118.993 6.33789 118.896 6.72375 118.896 7.30255C118.896 12.4152 119.21 19.4572 119.837 28.4286C120.415 37.834 120.705 44.9001 120.705 49.6269V52.3762C121.042 52.328 121.525 52.3039 122.152 52.3039C124.178 52.3039 125.19 53.1479 125.19 54.8361V55.2702L123.382 56.5001C123.333 56.5001 123.189 56.5242 122.948 56.5725C122.706 56.5725 122.224 56.5725 121.501 56.5725C119.861 56.6689 118.848 56.7172 118.462 56.7172Z" fill="#B83A48"/>
<path d="M136.61 55.6319L136.537 52.8103C136.489 51.9903 136.465 51.0739 136.465 50.061L136.537 47.6012C136.393 47.0706 136.031 41.7891 135.452 31.7566C134.873 21.7242 134.536 15.2851 134.439 12.4394C131.642 12.3429 129.857 12.0535 129.085 11.5712C128.555 11.1853 128.29 10.7512 128.29 10.2689C128.29 9.88301 128.531 9.54538 129.013 9.25598C129.544 8.91835 130.074 8.74953 130.605 8.74953C131.955 8.74953 133.595 8.846 135.525 9.03893C137.357 9.28009 138.997 9.40068 140.444 9.40068H141.602C143.097 9.40068 143.845 9.97947 143.845 11.1371C143.845 11.7159 143.604 12.1982 143.121 12.5841C142.639 12.9217 142.084 13.0905 141.457 13.0905C141.023 13.0905 140.396 13.0181 139.576 12.8734L138.129 12.5841L137.984 13.3075C137.984 17.6003 138.394 24.4493 139.214 33.8548C139.986 42.6814 140.372 49.5305 140.372 54.402C140.372 54.9808 140.107 55.4872 139.576 55.9213C139.094 56.3554 138.539 56.5725 137.912 56.5725L136.61 55.6319Z" fill="#B83A48"/>
<path d="M176.871 57.8748C176.243 57.8748 175.761 57.6336 175.424 57.1513C175.134 56.7172 174.989 56.1625 174.989 55.4872C174.989 45.4066 174.796 36.8934 174.411 29.9479C173.253 29.755 172.433 29.6585 171.951 29.6585C169.973 29.6585 168.55 29.8273 167.682 30.165C167.682 32.866 167.899 36.9417 168.333 42.392C168.719 48.18 168.912 52.2798 168.912 54.6914C168.912 55.1737 168.767 55.6319 168.478 56.066C168.189 56.4519 167.827 56.6448 167.393 56.6448C166.766 56.6448 166.187 55.5355 165.656 53.3168C164.885 50.0369 164.258 43.1637 163.775 32.6972C163.438 25.6069 163.269 17.9861 163.269 9.83477C163.221 8.33955 163.196 6.2173 163.196 3.46803C163.196 2.59983 163.606 2.16574 164.426 2.16574C164.909 2.16574 165.391 2.28632 165.873 2.52748C166.404 2.76865 166.79 3.03393 167.031 3.32333C166.838 4.86678 166.742 6.67552 166.742 8.74953C166.742 10.7753 166.838 13.2352 167.031 16.1292C167.176 19.4572 167.248 21.9654 167.248 23.6535V24.9558C167.2 25.3417 167.176 25.7999 167.176 26.3304C167.176 26.8128 167.224 27.4398 167.32 28.2115C167.61 28.2115 168.092 28.1874 168.767 28.1392C169.443 28.0909 170.118 28.0186 170.793 27.9221C172.385 27.7774 173.567 27.7051 174.338 27.7051C174.338 23.5088 174.29 19.6261 174.194 16.0568L174.049 3.97447V2.02104C174.676 2.02104 175.231 2.14162 175.713 2.38279C176.195 2.57572 176.557 2.841 176.798 3.17863C177.232 3.70919 177.498 4.62562 177.594 5.92791V7.59194C177.594 11.74 177.835 19.6743 178.318 31.3949C178.752 42.0061 178.969 49.9646 178.969 55.2702C178.969 55.9455 178.752 56.5484 178.318 57.0789C177.932 57.6095 177.449 57.8748 176.871 57.8748Z" fill="#B83A48"/>
<path d="M202.415 57.4407C201.306 57.4407 200.486 57.2719 199.956 56.9342C199.425 56.5966 199.16 55.9696 199.16 55.0531C199.16 53.6062 198.919 51.1463 198.436 47.6735L198.147 46.1542L190.984 45.0689C190.695 46.1783 190.285 48.4211 189.754 51.7974C189.465 54.1608 189.007 55.7284 188.38 56.5001C188.042 56.9342 187.56 57.1513 186.933 57.1513C186.354 57.1513 185.823 56.9825 185.341 56.6448C184.859 56.259 184.618 55.8008 184.618 55.2702L184.762 54.9084L184.835 54.619C188.018 42.2232 190.43 29.9961 192.07 17.9379C192.07 17.745 192.094 17.4315 192.142 16.9974C192.19 16.515 192.238 15.8398 192.287 14.9716C192.431 13.187 192.576 11.7641 192.721 10.703C192.914 9.64184 193.203 8.846 193.589 8.31544H196.049C196.724 8.31544 197.303 8.48425 197.785 8.82188C198.267 9.11128 198.509 9.54538 198.509 10.1242C198.509 13.7899 199.015 19.2402 200.028 26.4751C200.993 33.903 201.475 39.1122 201.475 42.1026C201.475 42.392 201.596 43.1396 201.837 44.3454C202.078 45.4548 202.198 46.1783 202.198 46.5159C202.198 46.8535 202.44 48.3005 202.922 50.8569C203.356 53.1721 203.573 54.6673 203.573 55.3425V55.4149C203.573 56.476 203.187 57.1513 202.415 57.4407ZM197.64 43.5496C197.496 42.8261 197.423 41.9338 197.423 40.8727C197.423 36.5317 197.038 30.9849 196.266 24.2323L195.542 16.708C193.468 28.0427 192.045 36.604 191.274 42.392C191.997 42.8743 194.119 43.2602 197.64 43.5496Z" fill="#B83A48"/>
<path d="M211.374 57.296C210.747 54.7396 210.434 51.1945 210.434 46.6606L210.579 40.2215C210.675 38.2922 210.723 36.1458 210.723 33.7824C210.434 33.1072 210.289 32.5042 210.289 31.9737V31.7566C210.771 30.8402 211.013 28.7662 211.013 25.5346L211.085 22.2065C211.133 21.1454 211.157 19.9637 211.157 18.6614C211.157 15.8157 210.964 13.5728 210.579 11.9329C210.723 11.2576 210.964 10.6789 211.302 10.1965C211.64 9.66596 212.05 9.40068 212.532 9.40068H215.715C217.066 9.40068 218.248 9.71419 219.26 10.3412C220.273 10.92 221.045 11.7641 221.576 12.8734C222.54 14.851 223.023 17.1903 223.023 19.8913C223.023 21.8207 222.999 23.34 222.95 24.4493C222.854 25.8481 222.613 27.1263 222.227 28.2839C222.082 28.9109 221.865 29.4415 221.576 29.8756C221.334 30.2614 220.973 30.7437 220.49 31.3225C219.815 32.1425 218.706 32.9142 217.162 33.6377C216.535 33.9754 215.715 34.2889 214.702 34.5783V42.3197L214.847 46.95L214.992 49.1928C215.185 51.8939 215.281 54.1849 215.281 56.066C215.281 56.6448 215.04 57.1272 214.558 57.513C214.075 57.9471 213.521 58.1642 212.894 58.1642L211.374 57.296ZM214.775 31.6119C217.621 31.1778 219.043 27.1022 219.043 19.3849C219.043 17.9861 218.971 16.9009 218.826 16.1292C218.682 15.5504 218.489 15.0922 218.248 14.7545C218.006 14.3687 217.645 14.0552 217.162 13.814C216.632 13.5246 216.053 13.3799 215.426 13.3799C215.426 13.3317 215.161 13.3075 214.63 13.3075V17.4315C214.63 20.2772 214.654 22.8094 214.702 25.0281C214.702 27.5363 214.727 29.1762 214.775 29.9479V31.6119Z" fill="#B83A48"/>
<path d="M231.723 57.296C231.096 54.7396 230.782 51.1945 230.782 46.6606L230.927 40.2215C231.023 38.2922 231.072 36.1458 231.072 33.7824C230.782 33.1072 230.637 32.5042 230.637 31.9737V31.7566C231.12 30.8402 231.361 28.7662 231.361 25.5346L231.433 22.2065C231.481 21.1454 231.506 19.9637 231.506 18.6614C231.506 15.8157 231.313 13.5728 230.927 11.9329C231.071 11.2576 231.313 10.6789 231.65 10.1965C231.988 9.66596 232.398 9.40068 232.88 9.40068H236.064C237.414 9.40068 238.596 9.71419 239.609 10.3412C240.622 10.92 241.393 11.7641 241.924 12.8734C242.889 14.851 243.371 17.1903 243.371 19.8913C243.371 21.8207 243.347 23.34 243.299 24.4493C243.202 25.8481 242.961 27.1263 242.575 28.2839C242.43 28.9109 242.213 29.4415 241.924 29.8756C241.683 30.2614 241.321 30.7437 240.839 31.3225C240.163 32.1425 239.054 32.9142 237.511 33.6377C236.884 33.9754 236.064 34.2889 235.051 34.5783V42.3197L235.195 46.95L235.34 49.1928C235.533 51.8939 235.63 54.1849 235.63 56.066C235.63 56.6448 235.388 57.1272 234.906 57.513C234.424 57.9471 233.869 58.1642 233.242 58.1642L231.723 57.296ZM235.123 31.6119C237.969 31.1778 239.392 27.1022 239.392 19.3849C239.392 17.9861 239.319 16.9009 239.175 16.1292C239.03 15.5504 238.837 15.0922 238.596 14.7545C238.355 14.3687 237.993 14.0552 237.511 13.814C236.98 13.5246 236.401 13.3799 235.774 13.3799C235.774 13.3317 235.509 13.3075 234.978 13.3075V17.4315C234.978 20.2772 235.002 22.8094 235.051 25.0281C235.051 27.5363 235.075 29.1762 235.123 29.9479V31.6119Z" fill="#B83A48"/>
<path d="M253.807 57.7301C253.18 57.7301 252.601 57.513 252.071 57.0789C251.589 56.6448 251.323 56.1143 251.275 55.4872V52.1592C251.227 51.7251 251.203 51.2186 251.203 50.6398C251.203 49.6269 251.13 48.0835 250.986 46.0095L250.841 41.3791C250.841 39.0157 250.913 35.4947 251.058 30.8161C251.251 26.6198 251.347 23.0988 251.347 20.2531C251.347 19.5778 251.275 18.5649 251.13 17.2144C250.986 15.8157 250.913 14.8028 250.913 14.1757C250.913 10.7512 251.926 9.03893 253.952 9.03893C255.544 9.03893 257.377 9.35244 259.451 9.97947C261.573 10.6065 262.634 11.3541 262.634 12.2223C262.634 12.7046 262.417 13.1628 261.983 13.5969C261.597 13.9828 261.115 14.2963 260.536 14.5375C258.51 13.814 256.677 13.3317 255.037 13.0905C255.085 13.814 255.11 14.851 255.11 16.2015C255.11 18.1308 255.085 19.8672 255.037 21.4107C254.893 23.7259 254.82 25.4622 254.82 26.6198L255.037 27.7774L256.195 27.7051C256.581 27.6568 257.063 27.6327 257.642 27.6327C259.957 27.6327 261.115 28.308 261.115 29.6585C261.115 30.1891 260.898 30.6473 260.463 31.0331C260.029 31.3708 259.475 31.5396 258.799 31.5396C257.931 31.5396 257.256 31.4914 256.774 31.3949H254.965C255.061 32.6489 255.11 34.4818 255.11 36.8934C255.11 39.3051 255.085 41.4756 255.037 43.4049C254.893 46.3471 254.82 48.5417 254.82 49.9887C254.82 52.6897 254.868 54.0403 254.965 54.0403L257.352 53.9679C258.172 53.9197 259.161 53.8955 260.319 53.8955C262.152 53.8955 263.068 54.4743 263.068 55.6319C263.068 56.3072 262.755 56.8136 262.127 57.1513C261.549 57.5371 260.825 57.7301 259.957 57.7301H253.807Z" fill="#B83A48"/>
<path d="M290.791 57.0066C290.212 57.0066 289.778 56.8619 289.489 56.5725C289.199 56.2348 288.982 55.6802 288.837 54.9084L288.403 53.5338V53.1721C288.403 51.5804 286.739 46.1542 283.411 36.8934C280.131 27.6327 277.551 20.7836 275.67 16.3462V52.738L275.959 53.2444C276.007 53.3409 276.104 53.5097 276.249 53.7509C276.393 53.992 276.466 54.2332 276.466 54.4743C276.466 55.1014 276.249 55.6319 275.815 56.066C275.38 56.5001 274.85 56.7172 274.223 56.7172C272.679 56.7172 271.908 55.2461 271.908 52.3039L271.835 39.9321C271.787 36.2182 271.763 32.0702 271.763 27.488C271.763 25.9446 271.835 23.7017 271.98 20.7595C272.125 17.7209 272.197 15.478 272.197 14.031C272.197 11.7641 273.065 9.97947 274.802 8.67718V9.11128C275.091 9.01481 275.284 8.96658 275.38 8.96658C276.49 8.96658 277.889 10.8959 279.577 14.7545C280.927 17.8414 282.133 21.0972 283.194 24.5217C284.304 27.9462 285.75 32.8178 287.535 39.1363L288.259 41.7409C289.368 45.6477 290.212 48.4452 290.791 50.1334C291.755 39.7633 292.238 27.5121 292.238 13.3799V12.4394C292.19 12.15 292.165 11.8364 292.165 11.4988C292.165 10.0518 292.744 9.32833 293.902 9.32833C294.577 9.32833 295.084 9.59361 295.421 10.1242C295.807 10.6547 296 11.33 296 12.15V17.5762C295.904 25.004 295.614 33.0589 295.132 41.7409C294.649 50.4228 294.071 55.3184 293.395 56.4278C291.997 56.8136 291.128 57.0066 290.791 57.0066Z" fill="#B83A48"/>
</svg>
