<svg width="888" height="411" viewBox="0 0 888 411" fill="none" xmlns="http://www.w3.org/2000/svg">
<path d="M848.533 0.307617H39.4668C17.6699 0.307617 0 17.9775 0 39.7744V369.321C0 391.118 17.6699 408.788 39.4668 408.788H848.533C870.33 408.788 888 391.118 888 369.321V39.7744C888 17.9775 870.33 0.307617 848.533 0.307617Z" fill="#9AE6EA"/>
<path d="M848.533 0.307617H39.4668C17.6699 0.307617 0 17.9775 0 39.7744V369.321C0 391.118 17.6699 408.788 39.4668 408.788H848.533C870.33 408.788 888 391.118 888 369.321V39.7744C888 17.9775 870.33 0.307617 848.533 0.307617Z" fill="black" fill-opacity="0.05"/>
<path d="M57.3065 131.508C54.0704 130.797 52.2548 130.008 51.6233 128.903C50.2814 126.772 51.7022 124.246 54.1493 124.246C54.5438 124.246 55.4912 124.483 56.2805 124.719C58.6484 125.588 61.2533 125.904 63.779 125.746C69.0677 125.43 71.2778 122.825 69.9359 118.405C69.3044 116.432 67.331 113.827 63.779 110.354C56.912 103.723 53.7545 100.408 52.4126 98.4347C47.4398 91.1729 46.8872 83.6744 50.7551 75.5441C55.0964 66.6248 67.1732 60.5468 75.8558 67.6508C78.4607 69.782 80.9864 73.4918 80.9864 75.3074C80.9864 77.1227 79.6448 78.5435 77.8292 78.5435C76.4873 78.5435 75.6191 77.8331 74.672 76.0967C73.6457 74.1233 71.7512 72.1499 70.2515 71.5187C64.5683 68.9138 59.5955 72.9395 56.9909 77.7542C54.7016 81.8588 53.7545 86.9894 55.649 91.4888C57.6224 96.2246 62.2004 99.7766 65.7524 103.329C72.8564 110.433 74.5928 112.485 75.7769 115.642C77.3555 119.984 76.961 124.009 74.672 127.324C73.4879 128.982 71.3567 130.403 68.9096 131.192C65.9102 132.139 60.8585 132.297 57.3065 131.508ZM86.9867 129.85C86.4341 129.534 85.9607 129.061 85.7237 128.351C85.2503 126.061 85.4081 123.615 85.4081 121.326C85.3292 114.853 85.4081 108.459 85.4081 101.987C85.4081 101.04 85.4081 100.092 85.4081 99.1451C85.4081 66.9404 85.5659 59.2049 86.1185 58.1789C86.8289 56.837 88.8023 56.2844 90.3809 57.0737C90.7754 57.2315 91.2491 57.863 91.5647 58.4156C91.9595 59.3627 92.0384 61.0205 91.8806 93.5411C91.8017 100.882 91.8017 108.222 91.7228 115.563C91.7228 118.957 91.7228 122.43 91.4858 125.825C91.4069 126.772 91.4858 128.271 90.9335 129.061C90.1439 130.166 88.3286 130.403 86.9867 129.85ZM125.971 120.457C127.076 121.01 127.708 122.036 127.708 123.299C127.708 124.641 127.155 125.509 125.497 127.009C121.867 130.324 115.394 131.903 111.211 130.482C107.422 129.14 104.344 126.456 102.291 122.983C98.2655 116.195 98.1866 107.039 100.239 99.5399C102.054 92.5937 105.054 87.6998 109.711 84.2267C110.185 83.9111 110.658 83.5955 111.132 83.2796C115.552 80.8328 121.077 81.3851 123.445 86.2001C125.419 90.1469 124.708 95.1197 122.893 99.0662C120.525 104.434 113.815 108.696 107.737 108.696H105.527V108.775C105.527 110.433 105.606 112.09 105.843 113.748C105.922 114.3 106.08 114.853 106.159 115.405C107.027 118.878 108.843 122.194 112.079 123.851C115.315 125.509 119.42 124.009 121.867 121.641C123.445 120.141 124.55 119.826 125.971 120.457ZM108.448 95.7512C107.185 98.4347 106.238 101.434 106.475 102.066C107.027 103.407 110.5 101.829 111.289 101.434C115.71 99.6188 119.42 94.646 118.078 89.6732C117.683 88.3313 116.973 87.9368 115.552 88.3313C113.184 88.9628 110.263 91.9622 108.448 95.7512ZM157.036 120.457C158.141 121.01 158.772 122.036 158.772 123.299C158.772 124.641 158.22 125.509 156.562 127.009C152.931 130.324 146.459 131.903 142.275 130.482C138.487 129.14 135.408 126.456 133.356 122.983C129.33 116.195 129.251 107.039 131.303 99.5399C133.119 92.5937 136.118 87.6998 140.776 84.2267C141.249 83.9111 141.723 83.5955 142.196 83.2796C146.617 80.8328 152.142 81.3851 154.51 86.2001C156.483 90.1469 155.773 95.1197 153.957 99.0662C151.589 104.434 144.88 108.696 138.802 108.696H136.592V108.775C136.592 110.433 136.671 112.09 136.908 113.748C136.987 114.3 137.145 114.853 137.224 115.405C138.092 118.878 139.907 122.194 143.143 123.851C146.38 125.509 150.484 124.009 152.931 121.641C154.51 120.141 155.615 119.826 157.036 120.457ZM139.513 95.7512C138.25 98.4347 137.302 101.434 137.539 102.066C138.092 103.407 141.565 101.829 142.354 101.434C146.774 99.6188 150.484 94.646 149.142 89.6732C148.748 88.3313 148.037 87.9368 146.616 88.3313C144.249 88.9628 141.328 91.9622 139.513 95.7512ZM198.677 99.1451C199.467 103.96 199.309 110.038 198.283 114.222C196.941 119.51 194.336 124.956 189.679 128.035C184.548 131.35 177.523 130.482 172.63 127.403C171.761 126.851 170.972 126.456 170.893 126.535C170.814 126.614 170.735 134.113 170.735 143.19C170.735 157.635 170.656 159.766 170.261 160.476C169.235 162.765 165.604 162.844 164.815 160.319C164.578 159.608 164.578 158.661 164.578 157.95C164.341 154.004 164.42 150.057 164.42 146.111C164.341 138.296 164.42 121.483 164.578 108.617C164.815 86.9894 164.815 85.3319 165.288 84.4637C166.157 82.727 168.288 82.2536 169.867 83.3585C170.814 83.99 171.209 85.253 171.209 87.6209V89.7521L173.34 87.7787C175.708 85.4897 177.839 83.99 180.049 83.1218C183.285 81.8588 187.153 82.4114 190.153 84.1478C195.125 86.9894 197.651 93.7778 198.677 99.1451ZM184.706 123.141C185.969 122.746 187.153 122.036 188.179 120.931C192.205 116.668 193.31 110.038 192.915 104.434C192.6 99.7766 191.179 92.6726 186.995 89.831C184.706 88.3313 181.707 89.2787 179.734 90.6995C176.497 93.0674 174.129 96.7772 172.392 100.329L170.972 103.092V110.354V117.695L173.182 119.668C176.339 122.509 180.838 124.404 184.706 123.141ZM254.911 122.509C257.99 126.851 258.542 127.719 258.542 128.824C258.542 130.64 256.569 132.297 254.911 131.903C253.727 131.666 252.938 130.955 250.807 127.877C249.702 126.298 248.833 125.035 248.755 125.114C248.755 125.114 248.044 126.061 247.176 127.167C243.861 131.271 238.493 133.165 233.362 131.271C233.283 131.271 233.126 131.192 232.968 131.113C229.337 129.692 226.732 126.298 224.838 122.983C222.864 119.431 221.522 115.563 220.496 111.617C218.602 103.96 218.365 95.909 219.391 88.0946C219.865 84.5426 219.865 84.2267 219.47 83.6744C218.918 82.8851 218.918 80.9906 219.549 79.6487C219.786 79.0961 220.575 77.6753 221.286 76.5704C221.996 75.4652 222.864 73.7288 223.18 72.8603C223.732 71.2817 225.153 69.3875 225.785 69.3875C225.943 69.3875 226.811 68.756 227.679 68.0456C230.679 65.5196 233.283 64.3355 236.441 64.0988C241.335 63.6251 245.834 66.1511 249.465 71.3606C251.833 74.9126 252.938 77.9123 254.438 85.1741C256.332 94.5671 255.7 107.433 252.859 116.195L252.07 118.563L254.911 122.509ZM248.676 104.67C249.228 100.961 249.149 92.1992 248.596 88.805C247.807 84.1478 246.781 79.0172 244.176 75.0707C241.887 71.6765 238.177 69.3083 234.231 71.2817C232.81 71.9132 231.152 73.5707 229.574 75.7811C226.495 80.1224 225.864 86.8316 225.39 91.9622C224.838 98.9084 225.311 105.776 227.205 112.485C228.547 116.984 230.758 123.299 235.494 125.114C238.73 126.377 241.414 124.246 243.15 121.72C243.387 121.483 244.887 119.431 244.729 119.273L242.834 116.511C241.414 114.537 239.993 112.485 238.651 110.433C237.783 109.17 236.678 107.907 236.757 106.328C236.914 103.487 240.782 101.987 242.44 104.592C243.308 106.091 247.255 111.538 247.413 111.538C247.57 111.538 248.202 108.301 248.676 104.67ZM274.077 130.245C269.814 128.982 267.288 124.641 266.183 120.615C263.578 110.985 263.815 100.882 264.447 91.0151C264.526 89.1206 264.526 87.1475 265.157 85.3319C265.473 84.3059 266.657 83.2796 267.683 83.0429C268.788 82.8059 270.288 83.5955 270.919 84.8582C271.393 85.7267 271.393 85.9634 271.077 88.3313C270.604 92.5937 270.288 102.46 270.604 106.407C270.84 109.801 271.156 113.195 271.709 116.511C272.182 119.036 273.13 123.22 275.892 124.088C280.628 125.588 283.943 119.431 285.364 115.958C287.022 111.696 288.206 107.275 289.232 102.776C289.784 100.25 290.337 97.7243 290.89 95.1197C291.363 92.357 291.837 89.5943 292.547 86.9105C293.021 84.7793 294.994 82.4903 297.362 82.964C298.151 83.2007 298.862 83.5955 299.177 84.3848C299.888 86.0423 299.493 88.6472 299.493 90.3836C299.493 93.383 299.493 96.3035 299.493 99.3032C299.414 108.617 299.414 115.879 299.651 120.457C300.045 128.43 299.967 128.982 298.309 129.929C297.204 130.64 296.099 130.64 295.073 129.929C293.731 129.14 293.494 128.351 293.336 122.588C293.257 119.668 293.1 116.668 293.021 115.8L292.863 114.222L291.994 116.747C290.811 119.905 289.469 122.667 288.048 124.483C285.443 128.035 281.102 130.955 276.603 130.719C275.734 130.64 274.866 130.482 274.077 130.245ZM336.966 110.511C337.203 126.456 337.125 128.114 336.729 128.903C335.625 131.034 332.547 130.955 331.284 128.824C330.888 128.193 330.81 127.167 330.651 122.194L330.573 116.353L329.151 119.194C326.388 124.641 323.547 128.035 320.232 129.534C310.761 134.034 306.813 122.667 306.102 115.484C305.313 106.723 308.076 95.5142 312.654 89.3576C316.206 84.5426 319.365 82.6481 323.862 82.6481C326.547 82.6481 328.44 83.2007 330.81 84.7793C334.914 87.4631 336.807 92.1203 336.888 96.8561C336.888 98.8295 336.888 100.803 336.888 102.776C336.966 105.302 336.966 107.907 336.966 110.511ZM326.547 108.775C329.073 101.987 330.336 97.7243 330.336 95.8301C330.336 90.9362 325.125 87.4631 321.258 89.7521C316.128 92.7515 312.102 103.802 312.498 113.59C312.576 115.721 313.05 123.615 316.128 123.93C316.758 124.009 317.469 123.772 318.021 123.378C322.599 120.536 324.81 113.511 326.547 108.775ZM347.991 129.85C347.439 129.534 346.965 129.061 346.728 128.351C346.254 126.061 346.413 123.615 346.413 121.326C346.335 114.853 346.413 108.459 346.413 101.987C346.413 101.04 346.413 100.092 346.413 99.1451C346.413 66.9404 346.569 59.2049 347.124 58.1789C347.832 56.837 349.806 56.2844 351.384 57.0737C351.78 57.2315 352.254 57.863 352.569 58.4156C352.965 59.3627 353.043 61.0205 352.884 93.5411C352.806 100.882 352.806 108.222 352.728 115.563C352.728 118.957 352.728 122.43 352.491 125.825C352.413 126.772 352.491 128.271 351.939 129.061C351.15 130.166 349.332 130.403 347.991 129.85ZM364.479 130.64C363.849 130.324 363.216 129.85 363.06 129.14C362.901 128.745 362.823 128.193 362.823 127.719C362.664 125.746 362.742 123.693 362.742 121.641C362.901 107.354 363.375 87.4631 363.612 85.6475C363.849 84.0689 363.927 83.7533 364.794 82.964C366.216 81.6221 368.346 81.9377 369.453 83.5955C369.927 84.3848 370.005 87.3053 369.69 92.2781C369.609 93.4619 369.453 102.066 369.375 111.301C369.294 115.721 369.294 120.22 369.057 124.641C369.057 126.14 369.138 127.956 368.583 129.377C368.112 130.561 366.453 131.034 365.268 130.876C365.031 130.797 364.716 130.719 364.479 130.64ZM365.427 76.5704C365.349 76.4915 365.19 76.4123 365.031 76.3334C363.138 75.0707 363.297 72.308 365.19 71.045C366.057 70.4924 367.557 70.5713 368.427 71.045C369.216 71.5187 369.69 72.308 369.846 73.1762C370.164 75.1496 368.901 76.886 366.849 76.886C366.375 76.886 365.901 76.8071 365.427 76.5704ZM387.132 129.929C386.58 129.613 386.106 129.14 385.947 128.43C385.476 126.772 385.632 124.878 385.554 123.141C385.476 118.405 385.476 113.59 385.476 108.854L385.395 89.9099H381.291C378.924 89.9099 375.057 90.3836 374.583 87.2264C374.424 86.1212 374.82 85.0952 375.609 84.3848C376.95 83.1218 379.554 83.4374 381.291 83.4374H385.239V75.3074C385.239 73.0973 385.239 70.8083 385.317 68.519C385.395 67.6508 385.395 66.5459 385.947 65.8355C386.502 64.967 387.684 64.4936 388.71 64.5725C392.106 64.8092 391.71 68.756 391.71 71.1239C391.788 72.5447 391.788 73.8866 391.788 75.3074V83.4374L395.973 83.5163C397.71 83.5163 400.077 83.1218 401.262 84.8582C402.051 86.0423 401.892 88.0157 400.71 88.8839C399.447 89.831 397.236 89.5943 395.814 89.6732L391.869 89.831V109.17C391.869 113.827 391.947 118.484 391.869 123.141C391.869 124.878 391.947 126.93 391.554 128.666C391.08 130.561 388.632 130.876 387.132 129.929ZM413.979 158.109C410.979 157.398 405.297 155.346 405.849 151.636C406.086 150.136 407.349 149.031 408.849 149.11C411.138 149.11 412.953 151.083 415.086 151.715C418.794 152.899 423.135 152.425 425.976 149.663C427.872 147.847 429.213 144.216 429.846 139.164C430.239 136.402 430.95 113.195 430.713 112.88C430.635 112.88 430.161 113.985 429.609 115.484C428.187 119.273 425.82 124.088 424.398 126.061C421.005 130.561 415.005 132.455 410.349 128.43C407.586 125.982 406.164 122.352 405.375 118.721C403.797 111.538 403.956 104.197 404.271 96.8561C404.43 93.7778 404.586 90.6995 404.823 87.6209C404.901 86.4371 404.982 85.1741 405.456 84.0689C406.008 82.964 407.112 82.0166 408.297 82.0955C409.56 82.1747 410.586 83.2796 410.979 84.4637C411.375 85.6475 411.297 86.9894 411.216 88.2524C410.505 96.8561 409.797 105.933 411.138 114.537C411.534 117.063 412.56 123.536 415.638 124.246C418.479 124.956 420.453 120.299 421.398 118.405C423.924 113.274 425.583 107.907 427.239 99.9347C429.294 89.9891 430.557 84.6215 430.95 83.8322C431.583 82.8059 433.002 82.0955 434.109 82.2536C435.213 82.4114 436.398 83.5163 436.713 84.7004C437.106 86.279 437.343 109.407 437.028 122.825C436.713 138.927 436.161 143.585 434.343 148.163C432.528 152.504 430.32 155.109 426.609 156.924C422.82 158.819 418.401 159.213 414.294 158.187C414.216 158.187 414.057 158.187 413.979 158.109Z" fill="white"/>
<path d="M76.9637 267.854C92.494 267.854 105.084 255.264 105.084 239.734C105.084 224.204 92.494 211.614 76.9637 211.614C61.4335 211.614 48.8438 224.204 48.8438 239.734C48.8438 255.264 61.4335 267.854 76.9637 267.854Z" stroke="white" stroke-width="2.96"/>
<path d="M64.5371 335.235C64.1108 335.001 63.7793 334.572 63.6845 334.005C63.6371 333.579 63.6371 333.153 63.5897 332.679C63.4952 331.164 63.4478 329.601 63.4004 328.086C63.353 325.953 63.3056 323.871 63.3056 321.738C63.2582 319.419 63.2582 317.097 63.2582 314.778C63.2108 312.597 63.2108 310.419 63.2582 308.241C63.2582 306.537 63.3056 304.878 63.353 303.222C63.353 302.796 63.4004 302.37 63.4478 301.896C63.7793 297.064 64.016 296.212 65.2001 295.643C66.4313 295.028 67.7576 295.833 68.5625 297.633C69.131 298.816 71.2148 305.73 71.9726 308.856C74.009 317.475 75.5246 323.301 75.7613 323.301C76.1402 323.301 78.5555 315.441 81.3023 305.115C82.5338 300.57 83.6705 297.206 84.2387 296.354C84.7598 295.596 85.5647 295.075 86.1806 295.075C87.1277 295.075 88.1222 295.88 88.5485 297.017C89.2589 299.006 89.3537 301.185 89.2115 318.804C89.2115 321.786 89.1641 324.771 89.1641 327.753C89.1167 329.316 89.1167 330.927 89.1167 332.49C89.1167 332.964 89.1641 333.483 89.1167 333.909C88.9274 335.664 86.4173 335.853 85.6121 334.479C85.3754 334.005 85.3754 333.057 85.3754 319.467C85.3754 306.774 85.3754 305.067 85.1858 305.73C80.5919 322.071 80.1185 323.586 79.124 325.386C77.4662 328.368 75.0983 329.175 73.4879 327.279C72.2093 325.86 71.5937 323.823 68.1836 309.804C67.3313 306.3 67.2839 306.111 67.1891 306.774C66.9998 307.863 66.9998 316.149 67.1891 325.479C67.4258 334.953 67.4258 334.62 66.3839 335.283C65.7683 335.664 65.0579 335.568 64.5371 335.235Z" fill="white"/>
<path d="M199.308 267.855C214.839 267.855 227.428 255.265 227.428 239.735C227.428 224.204 214.839 211.615 199.308 211.615C183.778 211.615 171.188 224.204 171.188 239.735C171.188 255.265 183.778 267.855 199.308 267.855Z" stroke="white" stroke-width="2.96"/>
<path d="M198.009 335.615C197.583 335.426 197.204 335.045 197.062 334.571C196.872 334.1 196.967 333.437 196.92 332.915C196.92 330.548 196.967 328.178 196.967 325.811C197.014 322.97 197.062 320.129 197.109 317.24C197.251 307.814 197.393 299.857 197.441 299.526L197.536 298.957L196.209 299.052C192.752 299.241 188.063 299.241 187.543 299.052C186.88 298.863 186.264 298.01 186.264 297.347C186.264 296.447 186.785 295.832 187.874 295.5C188.49 295.358 208.949 294.979 210.038 295.121C211.128 295.311 212.312 296.163 212.075 297.442C211.885 298.531 210.938 298.768 209.991 298.863C208.712 298.957 207.386 298.91 206.107 298.957L201.324 299.052L201.229 301.514C201.182 302.888 201.04 310.844 200.945 319.133C200.803 330.785 200.709 334.382 200.519 334.763C200.093 335.804 198.909 336.041 198.009 335.615Z" fill="white"/>
<path d="M321.651 267.854C337.181 267.854 349.771 255.264 349.771 239.734C349.771 224.204 337.181 211.614 321.651 211.614C306.121 211.614 293.531 224.204 293.531 239.734C293.531 255.264 306.121 267.854 321.651 267.854Z" stroke="white" stroke-width="2.96"/>
<path d="M327.464 335.853C325.427 335.283 323.627 333.579 322.349 331.164C320.975 328.416 319.649 324.864 318.797 321.501C318.416 320.034 318.275 319.56 318.179 319.845C318.134 320.082 317.897 321.312 317.612 322.59C316.949 325.812 316.286 327.801 314.912 330.549C313.112 334.194 311.738 335.427 309.608 335.427C305.63 335.472 304.019 330.69 303.452 327.468C301.556 317.523 302.126 307.626 303.971 297.112C304.208 295.975 304.967 294.649 306.434 294.98C307.667 295.265 308.186 296.354 307.76 297.775C306.623 301.326 305.204 315.441 306.719 324.816C307.004 326.523 307.478 328.275 308.093 329.886C308.33 330.405 308.567 330.975 309.086 331.212C311.408 332.49 313.49 323.445 313.823 322.023C314.627 318.33 315.101 314.589 315.623 310.893C316.286 306.015 316.427 305.589 317.327 305.211C318.416 304.737 319.46 305.115 319.931 306.156C320.168 306.63 320.453 308.148 320.879 311.271C321.92 318.567 322.679 321.834 324.383 326.19C325.142 328.179 326.846 333.105 329.831 331.92C331.961 331.068 333.146 325.575 333.335 315.393C333.431 309.852 333.287 307.293 332.531 302.085C332.198 300.048 332.009 298.201 332.057 297.917C332.105 297.68 332.342 297.254 332.624 297.017C333.005 296.638 333.239 296.543 333.857 296.543C334.472 296.543 334.709 296.638 335.087 296.97C335.324 297.254 335.609 297.633 335.702 297.822C335.987 298.58 336.935 305.826 337.172 308.715C337.265 310.467 337.313 312.978 337.22 315.486C336.935 328.605 335.231 334.005 331.061 335.616C329.972 336.042 328.505 336.135 327.464 335.853Z" fill="white"/>
<path d="M444.001 267.854C459.531 267.854 472.121 255.264 472.121 239.734C472.121 224.204 459.531 211.614 444.001 211.614C428.471 211.614 415.881 224.204 415.881 239.734C415.881 255.264 428.471 267.854 444.001 267.854Z" stroke="white" stroke-width="2.96"/>
<path d="M442.702 335.615C442.276 335.426 441.898 335.045 441.757 334.571C441.565 334.1 441.661 333.437 441.613 332.915C441.613 330.548 441.661 328.178 441.661 325.811C441.709 322.97 441.757 320.129 441.802 317.24C441.946 307.814 442.087 299.857 442.135 299.526L442.228 298.957L440.902 299.052C437.446 299.241 432.757 299.241 432.235 299.052C431.572 298.863 430.957 298.01 430.957 297.347C430.957 296.447 431.479 295.832 432.568 295.5C433.183 295.358 453.643 294.979 454.732 295.121C455.821 295.311 457.006 296.163 456.769 297.442C456.58 298.531 455.632 298.768 454.684 298.863C453.406 298.957 452.08 298.91 450.802 298.957L446.017 299.052L445.924 301.514C445.876 302.888 445.735 310.844 445.639 319.133C445.498 330.785 445.402 334.382 445.213 334.763C444.787 335.804 443.602 336.041 442.702 335.615Z" fill="white"/>
<path d="M566.35 267.854C581.881 267.854 594.47 255.264 594.47 239.734C594.47 224.204 581.881 211.614 566.35 211.614C550.82 211.614 538.23 224.204 538.23 239.734C538.23 255.264 550.82 267.854 566.35 267.854Z" stroke="white" stroke-width="2.96"/>
<path d="M559.829 334.953C559.451 334.62 559.259 334.29 559.118 333.675C558.596 331.305 558.644 309.9 559.166 300.807C559.403 296.638 559.496 296.354 560.585 295.785C561.203 295.454 561.44 295.454 568.922 295.406C574.367 295.359 576.782 295.406 577.067 295.549C578.441 296.117 578.726 297.68 577.682 298.722C577.4 299.006 576.974 299.148 576.545 299.148L573.041 299.195C570.722 299.243 567.596 299.29 566.033 299.337L563.192 299.48L563.096 299.953C563.003 300.474 562.718 307.719 562.718 309.237V310.182H567.644C571.811 310.182 572.615 310.23 573.089 310.419C574.463 311.082 574.511 312.882 573.185 313.734C572.804 313.971 572.237 314.019 567.737 314.067L562.67 314.115L562.622 314.967C562.433 316.245 562.67 330.549 562.859 332.349C563.003 333.675 563.003 333.957 562.766 334.383C562.244 335.52 560.777 335.805 559.829 334.953Z" fill="white"/>
<path d="M688.694 267.854C704.224 267.854 716.814 255.264 716.814 239.734C716.814 224.204 704.224 211.614 688.694 211.614C673.164 211.614 660.574 224.204 660.574 239.734C660.574 255.264 673.164 267.854 688.694 267.854Z" stroke="white" stroke-width="2.96"/>
<path d="M684.162 335.427C682.221 335.001 681.132 334.527 680.751 333.864C679.947 332.583 680.799 331.068 682.269 331.068C682.506 331.068 683.073 331.212 683.547 331.353C684.966 331.875 686.529 332.064 688.047 331.968C691.218 331.779 692.544 330.216 691.74 327.564C691.362 326.379 690.177 324.816 688.047 322.734C683.925 318.756 682.032 316.767 681.225 315.582C678.243 311.226 677.91 306.726 680.232 301.848C682.836 296.496 690.081 292.849 695.292 297.112C696.855 298.39 698.37 300.615 698.37 301.707C698.37 302.796 697.566 303.648 696.477 303.648C695.67 303.648 695.151 303.222 694.581 302.178C693.966 300.996 692.829 299.811 691.929 299.432C688.518 297.869 685.536 300.285 683.973 303.174C682.599 305.637 682.032 308.715 683.169 311.415C684.351 314.256 687.099 316.386 689.229 318.519C693.492 322.782 694.533 324.012 695.244 325.908C696.192 328.512 695.955 330.927 694.581 332.916C693.87 333.909 692.592 334.764 691.125 335.235C689.325 335.805 686.292 335.901 684.162 335.427Z" fill="white"/>
<path d="M811.044 267.854C826.574 267.854 839.164 255.264 839.164 239.734C839.164 224.204 826.574 211.614 811.044 211.614C795.514 211.614 782.924 224.204 782.924 239.734C782.924 255.264 795.514 267.854 811.044 267.854Z" stroke="white" stroke-width="2.96"/>
<path d="M806.506 335.426C804.565 335 803.476 334.526 803.098 333.863C802.291 332.582 803.143 331.067 804.613 331.067C804.85 331.067 805.417 331.211 805.891 331.352C807.313 331.874 808.876 332.063 810.391 331.967C813.565 331.778 814.891 330.215 814.084 327.563C813.706 326.378 812.521 324.815 810.391 322.733C806.269 318.755 804.376 316.766 803.572 315.581C800.587 311.225 800.254 306.725 802.576 301.847C805.18 296.495 812.428 292.849 817.636 297.111C819.199 298.39 820.714 300.614 820.714 301.706C820.714 302.795 819.91 303.647 818.821 303.647C818.014 303.647 817.495 303.221 816.925 302.177C816.31 300.995 815.173 299.811 814.273 299.432C810.865 297.869 807.88 300.284 806.317 303.173C804.943 305.636 804.376 308.714 805.513 311.414C806.695 314.255 809.443 316.385 811.573 318.518C815.836 322.781 816.88 324.011 817.588 325.907C818.536 328.511 818.299 330.926 816.925 332.915C816.217 333.908 814.936 334.763 813.469 335.234C811.669 335.804 808.639 335.9 806.506 335.426Z" fill="white"/>
</svg>
