<svg width="296" height="137" viewBox="0 0 296 137" fill="none" xmlns="http://www.w3.org/2000/svg">
<rect y="0.102051" width="296" height="136.16" rx="13.1556" fill="#9AE6EA"/>
<rect y="0.102051" width="296" height="136.16" rx="13.1556" fill="black" fill-opacity="0.05"/>
<path d="M19.1023 43.836C18.0236 43.5992 17.4184 43.3361 17.2079 42.9677C16.7606 42.2573 17.2342 41.4154 18.0499 41.4154C18.1814 41.4154 18.4972 41.4943 18.7603 41.5732C19.5496 41.8627 20.4179 41.9679 21.2598 41.9153C23.0227 41.81 23.7594 40.9418 23.3121 39.4684C23.1016 38.8106 22.4438 37.9423 21.2598 36.7846C18.9708 34.5745 17.9183 33.4694 17.471 32.8116C15.8134 30.391 15.6292 27.8915 16.9185 25.1814C18.3656 22.2083 22.3912 20.1823 25.2854 22.5503C26.1537 23.2607 26.9956 24.4973 26.9956 25.1025C26.9956 25.7076 26.5484 26.1812 25.9432 26.1812C25.4959 26.1812 25.2065 25.9444 24.8908 25.3656C24.5487 24.7078 23.9172 24.05 23.4173 23.8396C21.5229 22.9713 19.8653 24.3132 18.9971 25.9181C18.234 27.2863 17.9183 28.9965 18.5498 30.4963C19.2076 32.0749 20.7336 33.2589 21.9176 34.4429C24.2856 36.8109 24.8644 37.495 25.2591 38.5475C25.7853 39.9946 25.6538 41.3364 24.8908 42.4415C24.4961 42.994 23.7857 43.4676 22.97 43.7308C21.9702 44.0465 20.2863 44.0991 19.1023 43.836ZM28.9957 43.2835C28.8115 43.1782 28.6537 43.0204 28.5747 42.7836C28.4169 42.0205 28.4695 41.2049 28.4695 40.4419C28.4432 38.2844 28.4695 36.1532 28.4695 33.9956C28.4695 33.6799 28.4695 33.3642 28.4695 33.0484C28.4695 22.3135 28.5221 19.735 28.7063 19.393C28.9431 18.9457 29.6009 18.7615 30.1271 19.0246C30.2586 19.0772 30.4165 19.2877 30.5217 19.4719C30.6533 19.7876 30.6796 20.3402 30.627 31.1804C30.6007 33.6273 30.6007 36.0742 30.5744 38.5212C30.5744 39.6525 30.5744 40.8102 30.4954 41.9416C30.4691 42.2573 30.4954 42.7572 30.3113 43.0204C30.0481 43.3887 29.443 43.4676 28.9957 43.2835ZM41.9905 40.1524C42.3589 40.3366 42.5694 40.6787 42.5694 41.0996C42.5694 41.5469 42.3852 41.8364 41.8326 42.3363C40.6223 43.4413 38.4648 43.9676 37.0703 43.494C35.8074 43.0467 34.7813 42.1521 34.0972 40.9944C32.7553 38.7316 32.729 35.6796 33.4131 33.18C34.0182 30.8646 35.0181 29.2333 36.5704 28.0756C36.7283 27.9704 36.8862 27.8652 37.044 27.7599C38.5174 26.9443 40.3592 27.1284 41.1486 28.7334C41.8063 30.049 41.5695 31.7066 40.9644 33.0221C40.175 34.8113 37.9386 36.2321 35.9126 36.2321H35.1759V36.2584C35.1759 36.8109 35.2022 37.3635 35.2812 37.916C35.3075 38.1002 35.3601 38.2844 35.3864 38.4685C35.6758 39.6262 36.281 40.7313 37.3598 41.2838C38.4385 41.8364 39.8067 41.3364 40.6223 40.5471C41.1486 40.0472 41.5169 39.942 41.9905 40.1524ZM36.1494 31.9171C35.7285 32.8116 35.4127 33.8115 35.4917 34.022C35.6758 34.4692 36.8335 33.943 37.0966 33.8115C38.5701 33.2063 39.8067 31.5487 39.3594 29.8911C39.2278 29.4438 38.991 29.3123 38.5174 29.4438C37.7281 29.6543 36.7546 30.6541 36.1494 31.9171ZM52.3454 40.1524C52.7137 40.3366 52.9242 40.6787 52.9242 41.0996C52.9242 41.5469 52.74 41.8364 52.1875 42.3363C50.9772 43.4413 48.8197 43.9676 47.4252 43.494C46.1623 43.0467 45.1361 42.1521 44.452 40.9944C43.1102 38.7316 43.0839 35.6796 43.7679 33.18C44.3731 30.8646 45.3729 29.2333 46.9253 28.0756C47.0831 27.9704 47.241 27.8652 47.3989 27.7599C48.8723 26.9443 50.7141 27.1284 51.5034 28.7334C52.1612 30.049 51.9244 31.7066 51.3192 33.0221C50.5299 34.8113 48.2935 36.2321 46.2675 36.2321H45.5308V36.2584C45.5308 36.8109 45.5571 37.3635 45.636 37.916C45.6623 38.1002 45.715 38.2844 45.7413 38.4685C46.0307 39.6262 46.6359 40.7313 47.7146 41.2838C48.7934 41.8364 50.1615 41.3364 50.9772 40.5471C51.5034 40.0472 51.8718 39.942 52.3454 40.1524ZM46.5043 31.9171C46.0833 32.8116 45.7676 33.8115 45.8465 34.022C46.0307 34.4692 47.1884 33.943 47.4515 33.8115C48.9249 33.2063 50.1615 31.5487 49.7143 29.8911C49.5827 29.4438 49.3459 29.3123 48.8723 29.4438C48.083 29.6543 47.1095 30.6541 46.5043 31.9171ZM66.2259 33.0484C66.489 34.6534 66.4364 36.6794 66.0944 38.0739C65.6471 39.8367 64.7788 41.6522 63.2265 42.6783C61.5162 43.7834 59.1745 43.494 57.5433 42.4678C57.2538 42.2836 56.9907 42.1521 56.9644 42.1784C56.9381 42.2047 56.9118 44.7043 56.9118 47.73C56.9118 52.545 56.8855 53.2554 56.7539 53.4922C56.4119 54.2552 55.2016 54.2815 54.9385 53.4396C54.8595 53.2028 54.8595 52.887 54.8595 52.6502C54.7806 51.3347 54.8069 50.0191 54.8069 48.7036C54.7806 46.0988 54.8069 40.4945 54.8595 36.2058C54.9385 28.9965 54.9385 28.444 55.0963 28.1546C55.3857 27.5757 56.0961 27.4179 56.6224 27.7862C56.9381 27.9967 57.0697 28.4177 57.0697 29.207V29.9174L57.7801 29.2596C58.5694 28.4966 59.2798 27.9967 60.0165 27.7073C61.0953 27.2863 62.3845 27.4705 63.3843 28.0493C65.0419 28.9965 65.8839 31.2593 66.2259 33.0484ZM61.5689 41.047C61.9898 40.9155 62.3845 40.6787 62.7265 40.3103C64.0684 38.8895 64.4368 36.6794 64.3052 34.8113C64.2 33.2589 63.7264 30.8909 62.3319 29.9437C61.5689 29.4438 60.569 29.7596 59.9113 30.2332C58.8325 31.0225 58.0432 32.2591 57.4643 33.4431L56.9907 34.364V36.7846V39.2316L57.7274 39.8893C58.7799 40.8365 60.2796 41.468 61.5689 41.047ZM84.9705 40.8365C85.9967 42.2836 86.1808 42.5731 86.1808 42.9414C86.1808 43.5466 85.5231 44.0991 84.9705 43.9676C84.5759 43.8886 84.3128 43.6518 83.6024 42.6257C83.234 42.0995 82.9446 41.6785 82.9183 41.7048C82.9183 41.7048 82.6815 42.0205 82.392 42.3889C81.287 43.7571 79.4978 44.3885 77.7876 43.7571C77.7613 43.7571 77.7087 43.7308 77.656 43.7044C76.4457 43.2308 75.5775 42.0995 74.946 40.9944C74.2882 39.8104 73.8409 38.5212 73.4989 37.2056C72.8674 34.6534 72.7885 31.9697 73.1305 29.3649C73.2884 28.1809 73.2884 28.0756 73.1568 27.8915C72.9727 27.6284 72.9727 26.9969 73.1832 26.5496C73.2621 26.3654 73.5252 25.8918 73.762 25.5235C73.9988 25.1551 74.2882 24.5763 74.3935 24.2868C74.5776 23.7606 75.0512 23.1292 75.2617 23.1292C75.3144 23.1292 75.6038 22.9187 75.8932 22.6819C76.893 21.8399 77.7613 21.4452 78.8137 21.3663C80.445 21.2084 81.9448 22.0504 83.1551 23.7869C83.9444 24.9709 84.3128 25.9708 84.8127 28.3914C85.4441 31.5224 85.2336 35.8111 84.2864 38.7316L84.0233 39.521L84.9705 40.8365ZM82.892 34.8902C83.0761 33.6536 83.0498 30.7331 82.8656 29.6017C82.6025 28.0493 82.2605 26.3391 81.3922 25.0236C80.6292 23.8922 79.3926 23.1028 78.077 23.7606C77.6034 23.9711 77.0509 24.5236 76.5247 25.2604C75.4985 26.7075 75.288 28.9439 75.1302 30.6541C74.946 32.9695 75.1039 35.2586 75.7353 37.495C76.1826 38.9948 76.9193 41.0996 78.498 41.7048C79.5768 42.1258 80.4713 41.4154 81.0502 40.5734C81.1291 40.4945 81.629 39.8104 81.5764 39.7578L80.9449 38.8369C80.4713 38.1791 79.9977 37.495 79.5504 36.8109C79.261 36.39 78.8927 35.969 78.919 35.4428C78.9716 34.4956 80.2608 33.9956 80.8134 34.8639C81.1028 35.3638 82.4184 37.1793 82.471 37.1793C82.5236 37.1793 82.7341 36.1005 82.892 34.8902ZM91.359 43.415C89.9382 42.994 89.0962 41.5469 88.7279 40.2051C87.8596 36.9951 87.9385 33.6273 88.149 30.3384C88.1753 29.7069 88.1753 29.0492 88.3858 28.444C88.4911 28.102 88.8857 27.7599 89.2278 27.681C89.5962 27.602 90.0961 27.8652 90.3065 28.2861C90.4644 28.5756 90.4644 28.6545 90.3592 29.4438C90.2013 30.8646 90.0961 34.1535 90.2013 35.4691C90.2802 36.6004 90.3855 37.7318 90.5697 38.8369C90.7275 39.6788 91.0433 41.0733 91.9642 41.3628C93.5428 41.8627 94.6479 39.8104 95.1215 38.6527C95.674 37.2319 96.0687 35.7585 96.4107 34.2588C96.5949 33.4168 96.7791 32.5748 96.9633 31.7066C97.1211 30.7857 97.279 29.8648 97.5158 28.9702C97.6737 28.2598 98.3314 27.4968 99.1208 27.6547C99.3839 27.7336 99.6207 27.8652 99.7259 28.1283C99.9627 28.6808 99.8312 29.5491 99.8312 30.1279C99.8312 31.1277 99.8312 32.1012 99.8312 33.1011C99.8049 36.2058 99.8049 38.6264 99.8838 40.1524C100.015 42.8099 99.989 42.994 99.4365 43.3098C99.0682 43.5466 98.6998 43.5466 98.3578 43.3098C97.9105 43.0467 97.8315 42.7836 97.7789 40.8628C97.7526 39.8893 97.7 38.8895 97.6737 38.6001L97.621 38.0739L97.3316 38.9158C96.937 39.9683 96.4897 40.8892 96.0161 41.4943C95.1478 42.6783 93.7007 43.6518 92.201 43.5729C91.9115 43.5466 91.6221 43.494 91.359 43.415ZM112.322 36.8372C112.401 42.1521 112.375 42.7046 112.243 42.9677C111.875 43.6781 110.849 43.6518 110.428 42.9414C110.296 42.7309 110.27 42.3889 110.217 40.7313L110.191 38.7843L109.717 39.7315C108.796 41.5469 107.849 42.6783 106.744 43.1782C103.587 44.678 102.271 40.8892 102.034 38.4948C101.771 35.5743 102.692 31.8381 104.218 29.7859C105.402 28.1809 106.455 27.5494 107.954 27.5494C108.849 27.5494 109.48 27.7336 110.27 28.2598C111.638 29.1544 112.269 30.7068 112.296 32.2854C112.296 32.9432 112.296 33.601 112.296 34.2588C112.322 35.1007 112.322 35.969 112.322 36.8372ZM108.849 36.2584C109.691 33.9956 110.112 32.5748 110.112 31.9434C110.112 30.3121 108.375 29.1544 107.086 29.9174C105.376 30.9172 104.034 34.6008 104.166 37.8634C104.192 38.5738 104.35 41.2049 105.376 41.3101C105.586 41.3364 105.823 41.2575 106.007 41.126C107.533 40.1788 108.27 37.8371 108.849 36.2584ZM115.997 43.2835C115.813 43.1782 115.655 43.0204 115.576 42.7836C115.418 42.0205 115.471 41.2049 115.471 40.4419C115.445 38.2844 115.471 36.1532 115.471 33.9956C115.471 33.6799 115.471 33.3642 115.471 33.0484C115.471 22.3135 115.523 19.735 115.708 19.393C115.944 18.9457 116.602 18.7615 117.128 19.0246C117.26 19.0772 117.418 19.2877 117.523 19.4719C117.655 19.7876 117.681 20.3402 117.628 31.1804C117.602 33.6273 117.602 36.0742 117.576 38.5212C117.576 39.6525 117.576 40.8102 117.497 41.9416C117.471 42.2573 117.497 42.7572 117.313 43.0204C117.05 43.3887 116.444 43.4676 115.997 43.2835ZM121.493 43.5466C121.283 43.4413 121.072 43.2835 121.02 43.0467C120.967 42.9151 120.941 42.7309 120.941 42.5731C120.888 41.9153 120.914 41.2312 120.914 40.5471C120.967 35.7848 121.125 29.1544 121.204 28.5492C121.283 28.023 121.309 27.9178 121.598 27.6547C122.072 27.2074 122.782 27.3126 123.151 27.8652C123.309 28.1283 123.335 29.1018 123.23 30.7594C123.203 31.154 123.151 34.022 123.125 37.1004C123.098 38.5738 123.098 40.0735 123.019 41.5469C123.019 42.0468 123.046 42.652 122.861 43.1256C122.704 43.5203 122.151 43.6781 121.756 43.6255C121.677 43.5992 121.572 43.5729 121.493 43.5466ZM121.809 25.5235C121.783 25.4972 121.73 25.4708 121.677 25.4445C121.046 25.0236 121.099 24.1027 121.73 23.6817C122.019 23.4975 122.519 23.5238 122.809 23.6817C123.072 23.8396 123.23 24.1027 123.282 24.3921C123.388 25.0499 122.967 25.6287 122.283 25.6287C122.125 25.6287 121.967 25.6024 121.809 25.5235ZM129.044 43.3098C128.86 43.2045 128.702 43.0467 128.649 42.8099C128.492 42.2573 128.544 41.6259 128.518 41.047C128.492 39.4684 128.492 37.8634 128.492 36.2847L128.465 29.97H127.097C126.308 29.97 125.019 30.1279 124.861 29.0755C124.808 28.7071 124.94 28.3651 125.203 28.1283C125.65 27.7073 126.518 27.8125 127.097 27.8125H128.413V25.1025C128.413 24.3658 128.413 23.6028 128.439 22.8397C128.465 22.5503 128.465 22.182 128.649 21.9452C128.834 21.6557 129.228 21.4979 129.57 21.5242C130.702 21.6031 130.57 22.9187 130.57 23.708C130.596 24.1816 130.596 24.6289 130.596 25.1025V27.8125L131.991 27.8388C132.57 27.8388 133.359 27.7073 133.754 28.2861C134.017 28.6808 133.964 29.3386 133.57 29.628C133.149 29.9437 132.412 29.8648 131.938 29.8911L130.623 29.9437V36.39C130.623 37.9423 130.649 39.4947 130.623 41.047C130.623 41.6259 130.649 42.31 130.518 42.8888C130.36 43.5203 129.544 43.6255 129.044 43.3098ZM137.993 52.7029C136.993 52.466 135.099 51.782 135.283 50.5453C135.362 50.0454 135.783 49.6771 136.283 49.7034C137.046 49.7034 137.651 50.3612 138.362 50.5716C139.598 50.9663 141.045 50.8084 141.992 49.8876C142.624 49.2824 143.071 48.0721 143.282 46.3882C143.413 45.4673 143.65 37.7318 143.571 37.6266C143.545 37.6266 143.387 37.9949 143.203 38.4948C142.729 39.7578 141.94 41.3628 141.466 42.0205C140.335 43.5203 138.335 44.1517 136.783 42.8099C135.862 41.9942 135.388 40.7839 135.125 39.5736C134.599 37.1793 134.652 34.7324 134.757 32.2854C134.81 31.2593 134.862 30.2332 134.941 29.207C134.967 28.8124 134.994 28.3914 135.152 28.023C135.336 27.6547 135.704 27.3389 136.099 27.3652C136.52 27.3916 136.862 27.7599 136.993 28.1546C137.125 28.5492 137.099 28.9965 137.072 29.4175C136.835 32.2854 136.599 35.3112 137.046 38.1791C137.178 39.0211 137.52 41.1786 138.546 41.4154C139.493 41.6522 140.151 40.0998 140.466 39.4684C141.308 37.7581 141.861 35.969 142.413 33.3116C143.098 29.9964 143.519 28.2072 143.65 27.9441C143.861 27.602 144.334 27.3652 144.703 27.4179C145.071 27.4705 145.466 27.8388 145.571 28.2335C145.702 28.7597 145.781 36.4689 145.676 40.9418C145.571 46.3092 145.387 47.8616 144.781 49.3876C144.176 50.8348 143.44 51.703 142.203 52.3082C140.94 52.9397 139.467 53.0712 138.098 52.7292C138.072 52.7292 138.019 52.7292 137.993 52.7029Z" fill="white"/>
<circle cx="25.6538" cy="79.9116" r="9.37333" stroke="white" stroke-width="0.986667"/>
<path d="M21.5115 111.745C21.3694 111.667 21.2589 111.524 21.2273 111.335C21.2115 111.193 21.2115 111.051 21.1957 110.893C21.1642 110.388 21.1484 109.867 21.1326 109.362C21.1168 108.651 21.101 107.957 21.101 107.246C21.0852 106.473 21.0852 105.699 21.0852 104.926C21.0694 104.199 21.0694 103.473 21.0852 102.747C21.0852 102.179 21.101 101.626 21.1168 101.074C21.1168 100.932 21.1326 100.79 21.1484 100.632C21.2589 99.0214 21.3378 98.7373 21.7325 98.5478C22.1429 98.3426 22.585 98.611 22.8533 99.2109C23.0428 99.6055 23.7374 101.91 23.99 102.952C24.6688 105.825 25.174 107.767 25.2529 107.767C25.3792 107.767 26.1843 105.147 27.0999 101.705C27.5104 100.19 27.8893 99.0688 28.0787 98.7846C28.2524 98.532 28.5207 98.3584 28.726 98.3584C29.0417 98.3584 29.3732 98.6268 29.5153 99.0056C29.7521 99.6687 29.7837 100.395 29.7363 106.268C29.7363 107.262 29.7205 108.257 29.7205 109.251C29.7047 109.772 29.7047 110.309 29.7047 110.83C29.7047 110.988 29.7205 111.161 29.7047 111.303C29.6416 111.888 28.8049 111.951 28.5365 111.493C28.4576 111.335 28.4576 111.019 28.4576 106.489C28.4576 102.258 28.4576 101.689 28.3944 101.91C26.8631 107.357 26.7053 107.862 26.3738 108.462C25.8212 109.456 25.0319 109.725 24.4951 109.093C24.0689 108.62 23.8637 107.941 22.727 103.268C22.4429 102.1 22.4271 102.037 22.3955 102.258C22.3324 102.621 22.3324 105.383 22.3955 108.493C22.4744 111.651 22.4744 111.54 22.1271 111.761C21.9219 111.888 21.6851 111.856 21.5115 111.745Z" fill="white"/>
<circle cx="66.436" cy="79.9116" r="9.37333" stroke="white" stroke-width="0.986667"/>
<path d="M66.0038 111.872C65.8617 111.809 65.7354 111.682 65.6881 111.524C65.6249 111.367 65.6565 111.146 65.6407 110.972C65.6407 110.183 65.6565 109.393 65.6565 108.604C65.6723 107.657 65.6881 106.71 65.7039 105.747C65.7512 102.605 65.7986 99.9528 65.8144 99.8423L65.846 99.6529L65.4039 99.6845C64.2515 99.7476 62.6886 99.7476 62.515 99.6845C62.294 99.6213 62.0887 99.3372 62.0887 99.1162C62.0887 98.8162 62.2624 98.611 62.6255 98.5005C62.8307 98.4531 69.6505 98.3268 70.0136 98.3742C70.3767 98.4373 70.7714 98.7215 70.6925 99.1477C70.6293 99.5108 70.3136 99.5898 69.9978 99.6213C69.5716 99.6529 69.1296 99.6371 68.7033 99.6529L67.1089 99.6845L67.0773 100.505C67.0615 100.963 67.0142 103.615 66.9826 106.378C66.9352 110.262 66.9037 111.461 66.8405 111.588C66.6984 111.935 66.3038 112.014 66.0038 111.872Z" fill="white"/>
<circle cx="107.218" cy="79.9116" r="9.37333" stroke="white" stroke-width="0.986667"/>
<path d="M109.154 111.951C108.475 111.761 107.875 111.193 107.449 110.388C106.991 109.472 106.549 108.288 106.265 107.167C106.138 106.678 106.091 106.52 106.059 106.615C106.044 106.694 105.965 107.104 105.87 107.53C105.649 108.604 105.428 109.267 104.97 110.183C104.37 111.398 103.912 111.809 103.202 111.809C101.876 111.824 101.339 110.23 101.15 109.156C100.518 105.841 100.708 102.542 101.323 99.0372C101.402 98.6583 101.655 98.2163 102.144 98.3268C102.555 98.4215 102.728 98.7846 102.586 99.2582C102.207 100.442 101.734 105.147 102.239 108.272C102.334 108.841 102.492 109.425 102.697 109.962C102.776 110.135 102.855 110.325 103.028 110.404C103.802 110.83 104.496 107.815 104.607 107.341C104.875 106.11 105.033 104.863 105.207 103.631C105.428 102.005 105.475 101.863 105.775 101.737C106.138 101.579 106.486 101.705 106.643 102.052C106.722 102.21 106.817 102.716 106.959 103.757C107.306 106.189 107.559 107.278 108.127 108.73C108.38 109.393 108.948 111.035 109.943 110.64C110.653 110.356 111.048 108.525 111.111 105.131C111.143 103.284 111.095 102.431 110.843 100.695C110.732 100.016 110.669 99.4003 110.685 99.3056C110.701 99.2267 110.78 99.0846 110.874 99.0056C111.001 98.8794 111.079 98.8478 111.285 98.8478C111.49 98.8478 111.569 98.8794 111.695 98.9899C111.774 99.0846 111.869 99.2109 111.9 99.274C111.995 99.5266 112.311 101.942 112.39 102.905C112.421 103.489 112.437 104.326 112.406 105.162C112.311 109.535 111.743 111.335 110.353 111.872C109.99 112.014 109.501 112.045 109.154 111.951Z" fill="white"/>
<circle cx="148" cy="79.9116" r="9.37333" stroke="white" stroke-width="0.986667"/>
<path d="M147.568 111.872C147.426 111.809 147.3 111.682 147.253 111.524C147.189 111.367 147.221 111.146 147.205 110.972C147.205 110.183 147.221 109.393 147.221 108.604C147.237 107.657 147.253 106.71 147.268 105.747C147.316 102.605 147.363 99.9528 147.379 99.8423L147.41 99.6529L146.968 99.6845C145.816 99.7476 144.253 99.7476 144.079 99.6845C143.858 99.6213 143.653 99.3372 143.653 99.1162C143.653 98.8162 143.827 98.611 144.19 98.5005C144.395 98.4531 151.215 98.3268 151.578 98.3742C151.941 98.4373 152.336 98.7215 152.257 99.1477C152.194 99.5108 151.878 99.5898 151.562 99.6213C151.136 99.6529 150.694 99.6371 150.268 99.6529L148.673 99.6845L148.642 100.505C148.626 100.963 148.579 103.615 148.547 106.378C148.5 110.262 148.468 111.461 148.405 111.588C148.263 111.935 147.868 112.014 147.568 111.872Z" fill="white"/>
<circle cx="188.783" cy="79.9116" r="9.37333" stroke="white" stroke-width="0.986667"/>
<path d="M186.609 111.651C186.483 111.54 186.419 111.43 186.372 111.225C186.198 110.435 186.214 103.3 186.388 100.269C186.467 98.8794 186.498 98.7846 186.861 98.5952C187.067 98.4847 187.146 98.4847 189.64 98.4689C191.455 98.4531 192.26 98.4689 192.355 98.5163C192.813 98.7057 192.908 99.2267 192.56 99.574C192.466 99.6687 192.324 99.716 192.181 99.716L191.013 99.7318C190.24 99.7476 189.198 99.7634 188.677 99.7792L187.73 99.8266L187.698 99.9844C187.667 100.158 187.572 102.573 187.572 103.079V103.394H189.214C190.603 103.394 190.871 103.41 191.029 103.473C191.487 103.694 191.503 104.294 191.061 104.578C190.934 104.657 190.745 104.673 189.245 104.689L187.556 104.705L187.54 104.989C187.477 105.415 187.556 110.183 187.619 110.783C187.667 111.225 187.667 111.319 187.588 111.461C187.414 111.84 186.925 111.935 186.609 111.651Z" fill="white"/>
<circle cx="229.565" cy="79.9116" r="9.37333" stroke="white" stroke-width="0.986667"/>
<path d="M228.054 111.809C227.407 111.667 227.044 111.509 226.917 111.288C226.649 110.861 226.933 110.356 227.423 110.356C227.502 110.356 227.691 110.404 227.849 110.451C228.322 110.625 228.843 110.688 229.349 110.656C230.406 110.593 230.848 110.072 230.58 109.188C230.454 108.793 230.059 108.272 229.349 107.578C227.975 106.252 227.344 105.589 227.075 105.194C226.081 103.742 225.97 102.242 226.744 100.616C227.612 98.832 230.027 97.6164 231.764 99.0372C232.285 99.4635 232.79 100.205 232.79 100.569C232.79 100.932 232.522 101.216 232.159 101.216C231.89 101.216 231.717 101.074 231.527 100.726C231.322 100.332 230.943 99.9371 230.643 99.8108C229.506 99.2898 228.512 100.095 227.991 101.058C227.533 101.879 227.344 102.905 227.723 103.805C228.117 104.752 229.033 105.462 229.743 106.173C231.164 107.594 231.511 108.004 231.748 108.636C232.064 109.504 231.985 110.309 231.527 110.972C231.29 111.303 230.864 111.588 230.375 111.745C229.775 111.935 228.764 111.967 228.054 111.809Z" fill="white"/>
<circle cx="270.347" cy="79.9116" r="9.37333" stroke="white" stroke-width="0.986667"/>
<path d="M268.836 111.809C268.189 111.667 267.826 111.509 267.7 111.288C267.431 110.861 267.715 110.356 268.205 110.356C268.284 110.356 268.473 110.404 268.631 110.451C269.105 110.625 269.626 110.688 270.131 110.656C271.189 110.593 271.631 110.072 271.362 109.188C271.236 108.793 270.841 108.272 270.131 107.578C268.757 106.252 268.126 105.589 267.858 105.194C266.863 103.742 266.752 102.242 267.526 100.616C268.394 98.832 270.81 97.6164 272.546 99.0372C273.067 99.4635 273.572 100.205 273.572 100.569C273.572 100.932 273.304 101.216 272.941 101.216C272.672 101.216 272.499 101.074 272.309 100.726C272.104 100.332 271.725 99.9371 271.425 99.8108C270.289 99.2898 269.294 100.095 268.773 101.058C268.315 101.879 268.126 102.905 268.505 103.805C268.899 104.752 269.815 105.462 270.525 106.173C271.946 107.594 272.294 108.004 272.53 108.636C272.846 109.504 272.767 110.309 272.309 110.972C272.073 111.303 271.646 111.588 271.157 111.745C270.557 111.935 269.547 111.967 268.836 111.809Z" fill="white"/>
</svg>
