<svg width="888" height="231" viewBox="0 0 888 231" fill="none" xmlns="http://www.w3.org/2000/svg">
<path d="M37.7295 228.549C30.6252 228.549 27.0731 221.253 27.0731 206.661C27.0731 197.444 23.0409 164.515 14.9766 107.873C7.10427 51.0385 2.11208 20.0292 0 14.845C2.4961 10.2368 5.85624 7.9327 10.0804 7.9327C14.4966 7.9327 18.6248 17.9171 22.4649 37.8859C26.1131 59.0068 29.1852 83.1997 31.6812 110.465L33.6972 133.794C34.8495 146.85 35.5215 153.474 35.7135 153.666L38.5935 129.474L40.3215 114.497C42.8178 92.608 44.4498 77.1514 45.2178 68.1271C46.1778 56.2225 46.6578 48.0622 46.6578 43.6462V38.1739C46.6578 36.0619 47.4258 34.0456 48.9618 32.1256C50.4981 30.2056 52.2261 29.2455 54.1461 29.2455C61.0584 29.2455 64.5147 32.1256 64.5147 37.8859V42.2059C64.5147 53.1505 65.5707 64.9588 67.6827 77.6314C69.9867 90.112 73.251 105.089 77.475 122.561C80.1633 132.738 82.8513 145.122 85.5393 159.715C86.1153 153.378 87.9396 138.018 91.0116 113.633C94.0836 91.36 96.2919 72.4471 97.6359 56.8945C99.1719 41.1499 99.9399 26.4615 99.9399 12.8289C99.9399 8.41273 100.612 5.34061 101.956 3.61252C103.492 1.69246 106.276 0.732422 110.309 0.732422C112.613 0.732422 114.629 1.50045 116.356 3.03649C118.277 4.38055 119.237 6.20464 119.237 8.5087C119.237 10.6208 118.277 12.8289 116.356 15.133C116.356 28.9575 115.3 45.1822 113.188 63.8068C111.076 82.2397 108.484 99.8083 105.412 116.513C102.34 132.834 99.7479 150.402 97.6359 169.219C95.5239 187.844 94.4679 204.261 94.4679 218.469C94.4679 221.541 93.6996 223.941 92.1636 225.669C90.8196 227.589 88.7076 228.549 85.8273 228.549C83.7153 228.549 81.2193 224.613 78.339 216.741C74.691 205.797 70.1787 184.004 64.8027 151.362L59.6184 117.665L57.0264 98.9443C54.5301 116.417 52.6101 130.53 51.2661 141.282C50.1141 151.842 48.9618 164.419 47.8098 179.012C46.4658 193.028 45.7938 206.853 45.7938 220.485C45.7938 222.405 44.9298 224.229 43.2018 225.957C41.6658 227.685 39.8415 228.549 37.7295 228.549Z" fill="#E06E51"/>
<path d="M185.231 229.988C180.239 229.988 175.631 228.356 171.407 225.092C167.183 222.02 163.727 217.796 161.038 212.42C155.47 200.707 152.014 187.939 150.67 174.114C148.942 161.058 148.078 148.481 148.078 136.385C148.078 134.081 148.174 132.16 148.366 130.624V125.44C148.366 124.48 148.27 124 148.078 124V118.816L148.366 98.6553C148.558 92.511 149.326 82.7187 150.67 69.2781C151.63 60.0618 153.838 51.1335 157.294 42.4929C158.638 38.6529 160.366 35.7729 162.478 33.8526C164.591 31.7406 166.991 30.6846 169.679 30.6846C177.359 30.6846 184.271 32.1246 190.416 35.0046C196.56 37.6929 201.744 41.5329 205.968 46.5252C209.809 51.3255 213.073 57.2775 215.761 64.3818C218.449 71.2941 220.369 78.6864 221.521 86.5587C222.673 94.623 223.249 103.168 223.249 112.192V114.496C223.249 120.448 223.345 125.824 223.537 130.624L223.825 147.041C223.825 202.339 210.961 229.988 185.231 229.988ZM184.079 217.892C187.536 217.892 190.704 216.548 193.584 213.86C196.464 210.98 198.672 207.139 200.208 202.339C203.856 192.547 206.064 181.987 206.832 170.658C207.792 160.866 208.273 152.417 208.273 145.313C208.273 136.673 207.6 125.344 206.256 111.328C205.104 96.5433 204.528 85.5027 204.528 78.2064V73.0224C204.144 65.7261 201.648 59.3898 197.04 54.0135C192.624 48.6372 187.152 45.9492 180.623 45.9492C174.095 45.9492 169.775 49.6932 167.663 57.1815C165.743 63.1338 164.783 70.8141 164.783 80.2224C164.783 83.8707 164.879 86.9427 165.071 89.439V97.2153L164.495 110.464C164.111 114.496 163.919 118.912 163.919 123.712C163.919 134.081 164.207 144.353 164.783 154.529C165.551 168.93 167.471 182.947 170.543 196.579C173.615 210.788 178.127 217.892 184.079 217.892Z" fill="#E06E51"/>
<path d="M333.947 225.38C331.643 225.38 329.915 224.804 328.763 223.652C327.611 222.308 326.747 220.1 326.171 217.028L324.443 211.555V210.115C324.443 203.779 317.816 182.178 304.568 145.313C291.512 108.447 281.24 81.1824 273.752 63.5175V208.387L274.904 210.403C275.096 210.787 275.48 211.459 276.056 212.419C276.632 213.379 276.92 214.339 276.92 215.299C276.92 217.796 276.056 219.908 274.328 221.636C272.6 223.364 270.488 224.228 267.992 224.228C261.847 224.228 258.775 218.372 258.775 206.659L258.487 157.409C258.295 142.625 258.199 126.112 258.199 107.871C258.199 101.727 258.487 92.7987 259.063 81.0864C259.639 68.9898 259.927 60.0615 259.927 54.3012C259.927 45.2769 263.383 38.1726 270.296 32.9883V34.7163C271.448 34.3323 272.215 34.1403 272.6 34.1403C277.016 34.1403 282.584 41.8206 289.304 57.1812C294.68 69.4698 299.481 82.4304 303.704 96.063C308.12 109.695 313.88 129.088 320.984 154.241L323.867 164.61C328.283 180.162 331.643 191.299 333.947 198.019C337.787 156.737 339.707 107.967 339.707 51.7092V47.9649C339.515 46.8129 339.419 45.5649 339.419 44.2209C339.419 38.4606 341.723 35.5806 346.331 35.5806C349.019 35.5806 351.035 36.6366 352.379 38.7486C353.915 40.8606 354.683 43.5489 354.683 46.8129V68.4138C354.299 97.983 353.147 130.048 351.227 164.61C349.307 199.171 347.003 218.66 344.315 223.076C338.747 224.612 335.291 225.38 333.947 225.38Z" fill="#E06E51"/>
<path d="M402.353 226.243C397.361 226.243 394.865 213.667 394.865 188.514L395.441 143.008C395.633 129.568 395.729 114.495 395.729 97.7903C395.729 91.646 395.153 82.1418 394.001 69.2771C393.041 55.2605 392.561 46.7163 392.561 43.6442C392.561 41.148 393.617 38.9399 395.729 37.0199C397.841 35.0999 400.145 34.1396 402.641 34.1396C409.361 34.1396 415.793 35.6759 421.937 38.7479C428.273 41.6279 433.841 45.7562 438.644 51.1325C448.82 62.8448 455.54 75.7094 458.804 89.7261C460.532 96.8304 461.396 103.839 461.396 110.751C461.396 113.247 461.3 115.551 461.108 117.663L460.82 125.439V141.28C460.82 153.568 460.436 163.265 459.668 170.369C458.516 179.97 456.308 188.514 453.044 196.002C449.204 204.067 443.636 211.267 436.34 217.603C432.881 220.483 428.465 223.363 423.089 226.243H402.353ZM415.025 211.555C418.865 211.555 422.417 210.595 425.681 208.675C428.945 206.563 431.729 203.779 434.033 200.322C435.956 197.25 437.684 193.41 439.22 188.802C440.948 184.002 442.196 179.394 442.964 174.977C444.692 166.337 445.748 157.505 446.132 148.48C446.324 146.176 446.42 142.816 446.42 138.4C446.42 80.4138 435.185 50.1722 412.721 47.6762C411.377 56.3165 410.705 66.3011 410.705 77.6294C410.705 89.726 411.473 110.847 413.009 140.992C414.353 167.681 415.025 188.898 415.025 204.643V211.555Z" fill="#E06E51"/>
<path d="M505.953 228.261C503.457 228.261 501.153 227.397 499.041 225.669C497.121 223.941 496.065 221.829 495.873 219.333V206.085C495.681 204.357 495.585 202.341 495.585 200.036C495.585 196.004 495.297 189.86 494.721 181.604L494.145 163.171C494.145 153.762 494.433 139.746 495.009 121.121C495.777 104.417 496.161 90.4001 496.161 79.0715C496.161 76.3835 495.873 72.3512 495.297 66.9752C494.721 61.4069 494.433 57.3746 494.433 54.8786C494.433 41.246 498.465 34.4297 506.529 34.4297C512.865 34.4297 520.161 35.678 528.417 38.174C536.865 40.67 541.089 43.6463 541.089 47.1023C541.089 49.0223 540.225 50.8466 538.497 52.5746C536.961 54.1106 535.041 55.3586 532.737 56.3186C524.673 53.4386 517.377 51.5186 510.849 50.5586C511.041 53.4386 511.137 57.5666 511.137 62.9429C511.137 70.6232 511.041 77.5355 510.849 83.6798C510.273 92.8961 509.985 99.8084 509.985 104.417L510.849 109.025L515.457 108.737C516.993 108.545 518.913 108.449 521.217 108.449C530.433 108.449 535.041 111.137 535.041 116.513C535.041 118.625 534.177 120.449 532.449 121.985C530.721 123.329 528.513 124.001 525.825 124.001C522.369 124.001 519.681 123.809 517.761 123.425H510.561C510.945 128.418 511.137 135.714 511.137 145.314C511.137 154.914 511.041 163.555 510.849 171.235C510.273 182.948 509.985 191.684 509.985 197.444C509.985 208.197 510.177 213.573 510.561 213.573L520.065 213.285C523.329 213.093 527.265 212.997 531.873 212.997C539.169 212.997 542.817 215.301 542.817 219.909C542.817 222.597 541.569 224.613 539.073 225.957C536.769 227.493 533.889 228.261 530.433 228.261H505.953Z" fill="#E06E51"/>
<path d="M624.955 229.414C620.731 229.414 616.891 224.806 613.435 215.589C609.403 205.605 606.427 195.333 604.504 184.772L602.488 174.98C596.92 147.523 593.368 131.874 591.832 128.034H588.376C588.376 133.602 588.28 138.69 588.088 143.299V159.139C588.088 184.868 589.912 204.933 593.56 219.334L590.392 227.11H582.328L578.584 222.79L578.872 203.493C578.872 186.212 578.008 160.003 576.28 124.866C574.744 87.4242 573.976 61.2153 573.976 46.2387C573.976 37.0224 577.144 32.4141 583.48 32.4141C593.848 32.4141 602.296 35.1021 608.827 40.4784C615.547 45.8547 618.907 53.343 618.907 62.9433V83.1042C618.907 85.9842 618.427 89.3445 617.467 93.1845C616.507 96.8328 615.451 99.8088 614.299 102.113L608.827 112.481L604.216 121.122L605.656 128.034L609.691 148.483C612.379 163.267 614.971 175.268 617.467 184.484C619.963 193.7 623.035 202.053 626.683 209.541L628.411 212.997C630.331 216.837 631.291 219.91 631.291 222.214C631.291 224.134 630.715 225.766 629.563 227.11C628.411 228.646 626.875 229.414 624.955 229.414ZM589.528 113.921C593.752 111.809 597.304 106.049 600.184 96.6408C603.256 87.0402 604.792 78.2079 604.792 70.1436C604.792 63.9993 604.024 58.2393 602.488 52.863C601.528 49.7907 599.896 47.4867 597.592 45.9507C595.48 44.2227 592.792 43.3587 589.528 43.3587L588.952 44.7987L588.376 47.3907L588.952 81.3762C589.336 91.3605 589.528 102.209 589.528 113.921Z" fill="#E06E51"/>
<path d="M665.54 227.109C662.66 227.109 659.204 225.669 655.172 222.789C656.708 206.852 657.956 182.371 658.916 149.346C659.876 114.976 660.548 94.3356 660.932 87.4233V80.5113C661.7 61.6944 662.084 48.6378 662.084 41.3415C662.084 38.6535 663.14 36.5415 665.252 35.0052C667.556 33.4692 670.148 32.7012 673.028 32.7012C679.748 32.7012 686.948 33.2772 694.628 34.4292C699.62 35.1975 703.556 36.4455 706.436 38.1735C709.508 39.9015 711.044 42.0135 711.044 44.5098C711.044 49.8858 706.148 52.5741 696.356 52.5741C692.708 50.6541 687.716 49.6938 681.38 49.6938H677.924V53.1501C677.924 60.6384 677.54 70.1427 676.772 81.6633C675.812 92.4156 675.332 102.112 675.332 110.752V118.529H680.516C689.924 118.529 694.628 121.025 694.628 126.017C694.628 128.513 693.572 130.529 691.46 132.065C689.54 133.601 687.14 134.369 684.26 134.369C679.652 134.369 675.908 133.889 673.028 132.929V214.436C673.028 222.885 670.532 227.109 665.54 227.109Z" fill="#E06E51"/>
<path d="M761.47 228.836C756.862 228.836 752.734 227.78 749.086 225.668C745.438 223.748 742.462 220.868 740.158 217.028C735.547 208.963 732.571 199.843 731.227 189.667C729.883 180.834 729.211 170.274 729.211 157.985C728.635 137.248 728.347 111.904 728.347 81.9503L728.059 59.7734C727.867 58.6214 727.771 56.7011 727.771 54.0131C727.387 46.7168 727.195 42.3005 727.195 40.7645C728.923 36.7325 730.939 34.7162 733.243 34.7162C735.547 34.7162 737.566 36.4445 739.294 39.9005C741.214 43.3568 742.174 47.1008 742.174 51.1331V129.472C742.174 137.152 742.846 147.329 744.19 160.001C745.534 175.746 746.206 185.922 746.206 190.531C746.206 204.739 752.254 211.843 764.35 211.843C778.174 211.843 785.086 160.193 785.086 56.8931V38.1725C784.894 37.5965 784.798 36.8285 784.798 35.8685C784.798 33.5642 785.278 31.9322 786.238 30.9722C787.39 29.8202 789.502 29.2441 792.574 29.2441C795.07 29.2441 796.99 30.0122 798.334 31.5482C799.87 32.8922 800.83 34.5242 801.214 36.4445C801.406 37.5965 801.502 39.8045 801.502 43.0688C801.502 46.1408 801.214 51.0371 800.638 57.7571C799.87 63.3254 799.486 68.1257 799.486 72.1577C799.486 76.574 799.294 80.51 798.91 83.9663L798.334 96.0629V98.3669C798.526 99.1349 798.622 99.9989 798.622 100.959C798.622 186.211 786.238 228.836 761.47 228.836Z" fill="#E06E51"/>
<path d="M879.071 229.124C872.159 226.82 863.615 225.668 853.439 225.668C850.367 227.588 847.1 228.548 843.644 228.548C841.34 228.548 839.324 227.492 837.596 225.38C836.06 223.46 835.292 221.348 835.292 219.044C835.292 202.915 835.964 181.411 837.308 154.529C838.46 125.92 839.036 104.512 839.036 90.3029V88.2869C837.884 76.1903 837.308 67.166 837.308 61.2137C837.308 42.9731 840.668 33.8525 847.388 33.8525C849.308 33.8525 850.94 34.6205 852.284 36.1568C853.823 37.5008 854.591 39.1328 854.591 41.0528C854.591 43.3571 854.303 47.0051 853.727 51.9974C853.151 56.7974 852.863 60.4457 852.863 62.9417C852.863 75.8063 852.959 87.4226 853.151 97.7912C853.343 107.968 853.439 119.488 853.439 132.352C852.479 135.233 851.999 139.265 851.999 144.449V147.905L851.42 170.658C851.036 177.378 850.844 185.059 850.844 193.699C850.844 206.947 854.015 213.572 860.351 213.572C860.735 213.572 861.311 213.572 862.079 213.572C863.039 213.38 864.287 213.284 865.823 213.284C867.551 213.092 869.759 212.996 872.447 212.996C882.815 212.996 887.999 215.876 887.999 221.636C887.999 223.556 887.135 225.188 885.407 226.532C883.679 227.876 881.567 228.74 879.071 229.124Z" fill="#E06E51"/>
</svg>
