<svg width="296" height="77" viewBox="0 0 296 77" fill="none" xmlns="http://www.w3.org/2000/svg">
<path d="M12.5765 76.1829C10.2084 76.1829 9.02436 73.7508 9.02436 68.8866C9.02436 65.8145 7.6803 54.8381 4.9922 35.9573C2.36809 17.0126 0.704028 6.67615 0 4.94808C0.832033 3.41202 1.95208 2.64399 3.36013 2.64399C4.83219 2.64399 6.20825 5.97212 7.4883 12.6284C8.70435 19.6687 9.72839 27.733 10.5604 36.8213L11.2324 44.5977C11.6165 48.9498 11.8405 51.1579 11.9045 51.2219L12.8645 43.1576L13.4405 38.1654C14.2726 30.8691 14.8166 25.7169 15.0726 22.7088C15.3926 18.7406 15.5526 16.0205 15.5526 14.5485V12.7244C15.5526 12.0204 15.8086 11.3483 16.3206 10.7083C16.8327 10.0683 17.4087 9.74827 18.0487 9.74827C20.3528 9.74827 21.5049 10.7083 21.5049 12.6284V14.0684C21.5049 17.7166 21.8569 21.6527 22.5609 25.8769C23.3289 30.0371 24.417 35.0293 25.825 40.8535C26.7211 44.2456 27.6171 48.3738 28.5131 53.238C28.7051 51.1259 29.3132 46.0057 30.3372 37.8774C31.3612 30.4531 32.0973 24.1488 32.5453 18.9646C33.0573 13.7164 33.3133 8.82024 33.3133 4.27606C33.3133 2.804 33.5373 1.77996 33.9853 1.20393C34.4974 0.563909 35.4254 0.243896 36.7695 0.243896C37.5375 0.243896 38.2095 0.499905 38.7855 1.01192C39.4256 1.45994 39.7456 2.06797 39.7456 2.83599C39.7456 3.54002 39.4256 4.27605 38.7855 5.04408C38.7855 9.65227 38.4335 15.0605 37.7295 21.2687C37.0255 27.413 36.1614 33.2692 35.1374 38.8374C34.1134 44.2776 33.2493 50.1339 32.5453 56.4061C31.8413 62.6144 31.4893 68.0866 31.4893 72.8228C31.4893 73.8468 31.2332 74.6468 30.7212 75.2229C30.2732 75.8629 29.5692 76.1829 28.6091 76.1829C27.9051 76.1829 27.0731 74.8709 26.113 72.2467C24.897 68.5986 23.3929 61.3343 21.6009 50.4539L19.8728 39.2214L19.0088 32.9812C18.1767 38.8054 17.5367 43.5096 17.0887 47.0938C16.7047 50.6139 16.3206 54.8061 15.9366 59.6703C15.4886 64.3424 15.2646 68.9506 15.2646 73.4948C15.2646 74.1348 14.9766 74.7429 14.4006 75.3189C13.8886 75.8949 13.2805 76.1829 12.5765 76.1829Z" fill="#E06E51"/>
<path d="M61.7439 76.6629C60.0799 76.6629 58.5438 76.1189 57.1358 75.0309C55.7277 74.0068 54.5757 72.5988 53.6796 70.8067C51.8236 66.9025 50.6715 62.6464 50.2235 58.0382C49.6475 53.686 49.3595 49.4938 49.3595 45.4617C49.3595 44.6937 49.3915 44.0536 49.4555 43.5416V41.8135C49.4555 41.4935 49.4235 41.3335 49.3595 41.3335V39.6055L49.4555 32.8852C49.5195 30.8371 49.7755 27.573 50.2235 23.0928C50.5435 20.0207 51.2795 17.0446 52.4316 14.1644C52.8796 12.8844 53.4556 11.9244 54.1596 11.2843C54.8637 10.5803 55.6637 10.2283 56.5597 10.2283C59.1198 10.2283 61.4239 10.7083 63.472 11.6683C65.5201 12.5644 67.2482 13.8444 68.6562 15.5085C69.9363 17.1086 71.0243 19.0926 71.9203 21.4607C72.8164 23.7648 73.4564 26.2289 73.8404 28.853C74.2244 31.5411 74.4165 34.3893 74.4165 37.3974V38.1654C74.4165 40.1495 74.4485 41.9416 74.5125 43.5416L74.6085 49.0138C74.6085 67.4466 70.3203 76.6629 61.7439 76.6629ZM61.3599 72.6308C62.512 72.6308 63.568 72.1827 64.5281 71.2867C65.4881 70.3267 66.2241 69.0466 66.7361 67.4466C67.9522 64.1824 68.6882 60.6623 68.9442 56.8861C69.2642 53.622 69.4243 50.8059 69.4243 48.4378C69.4243 45.5577 69.2002 41.7815 68.7522 37.1094C68.3682 32.1812 68.1762 28.501 68.1762 26.0689V24.3409C68.0482 21.9088 67.2162 19.7967 65.6801 18.0046C64.208 16.2125 62.384 15.3165 60.2079 15.3165C58.0318 15.3165 56.5917 16.5645 55.8877 19.0606C55.2477 21.0447 54.9277 23.6048 54.9277 26.7409C54.9277 27.957 54.9597 28.981 55.0237 29.8131V32.4052L54.8317 36.8213C54.7037 38.1654 54.6397 39.6375 54.6397 41.2375C54.6397 44.6937 54.7357 48.1178 54.9277 51.5099C55.1837 56.3101 55.8237 60.9823 56.8478 65.5265C57.8718 70.2627 59.3759 72.6308 61.3599 72.6308Z" fill="#E06E51"/>
<path d="M111.316 75.1269C110.548 75.1269 109.972 74.9349 109.588 74.5508C109.204 74.1028 108.916 73.3668 108.724 72.3428L108.148 70.5187V70.0387C108.148 67.9266 105.939 60.7263 101.523 48.4378C97.1711 36.1493 93.747 27.061 91.2509 21.1727V69.4626L91.6349 70.1347C91.6989 70.2627 91.8269 70.4867 92.0189 70.8067C92.2109 71.1267 92.3069 71.4467 92.3069 71.7667C92.3069 72.5988 92.0189 73.3028 91.4429 73.8788C90.8669 74.4548 90.1628 74.7429 89.3308 74.7429C87.2827 74.7429 86.2587 72.7908 86.2587 68.8866L86.1627 52.47C86.0987 47.5418 86.0667 42.0376 86.0667 35.9573C86.0667 33.9092 86.1627 30.9331 86.3547 27.029C86.5467 22.9968 86.6427 20.0207 86.6427 18.1006C86.6427 15.0925 87.7947 12.7244 90.0988 10.9963V11.5723C90.4828 11.4443 90.7388 11.3803 90.8669 11.3803C92.3389 11.3803 94.195 13.9404 96.4351 19.0606C98.2271 23.1568 99.8272 27.477 101.235 32.0212C102.707 36.5653 104.627 43.0296 106.995 51.4139L107.956 54.8701C109.428 60.0543 110.548 63.7664 111.316 66.0065C112.596 52.246 113.236 35.9893 113.236 17.2366V15.9885C113.172 15.6045 113.14 15.1885 113.14 14.7405C113.14 12.8204 113.908 11.8604 115.444 11.8604C116.34 11.8604 117.012 12.2124 117.46 12.9164C117.972 13.6204 118.228 14.5165 118.228 15.6045V22.8048C118.1 32.6612 117.716 43.3496 117.076 54.8701C116.436 66.3905 115.668 72.8868 114.772 74.3588C112.916 74.8709 111.764 75.1269 111.316 75.1269Z" fill="#E06E51"/>
<path d="M134.118 75.4149C132.454 75.4149 131.622 71.2227 131.622 62.8384L131.814 47.6698C131.878 43.1896 131.91 38.1654 131.91 32.5972C131.91 30.5491 131.718 27.381 131.334 23.0928C131.014 18.4206 130.854 15.5725 130.854 14.5485C130.854 13.7164 131.206 12.9804 131.91 12.3404C132.614 11.7004 133.382 11.3803 134.214 11.3803C136.454 11.3803 138.598 11.8924 140.646 12.9164C142.758 13.8764 144.614 15.2525 146.215 17.0446C149.607 20.9487 151.847 25.2369 152.935 29.9091C153.511 32.2772 153.799 34.6133 153.799 36.9174C153.799 37.7494 153.767 38.5174 153.703 39.2214L153.607 41.8135V47.0938C153.607 51.1899 153.479 54.422 153.223 56.7901C152.839 59.9903 152.103 62.8384 151.015 65.3345C149.735 68.0226 147.879 70.4227 145.447 72.5348C144.294 73.4948 142.822 74.4548 141.03 75.4149H134.118ZM138.342 70.5187C139.622 70.5187 140.806 70.1987 141.894 69.5586C142.982 68.8546 143.91 67.9266 144.678 66.7745C145.319 65.7505 145.895 64.4704 146.407 62.9344C146.983 61.3343 147.399 59.7983 147.655 58.3262C148.231 55.4461 148.583 52.502 148.711 49.4939C148.775 48.7258 148.807 47.6058 148.807 46.1337C148.807 26.805 145.062 16.7245 137.574 15.8925C137.126 18.7726 136.902 22.1008 136.902 25.8769C136.902 29.9091 137.158 36.9493 137.67 46.9977C138.118 55.8941 138.342 62.9664 138.342 68.2146V70.5187Z" fill="#E06E51"/>
<path d="M168.651 76.0869C167.819 76.0869 167.051 75.7989 166.347 75.2229C165.707 74.6468 165.355 73.9428 165.291 73.1108V68.6946C165.227 68.1186 165.195 67.4466 165.195 66.6785C165.195 65.3345 165.099 63.2864 164.907 60.5343L164.715 54.39C164.715 51.2539 164.811 46.5817 165.003 40.3735C165.259 34.8053 165.387 30.1331 165.387 26.3569C165.387 25.4609 165.291 24.1168 165.099 22.3248C164.907 20.4687 164.811 19.1246 164.811 18.2926C164.811 13.7484 166.155 11.4763 168.843 11.4763C170.955 11.4763 173.387 11.8924 176.139 12.7244C178.955 13.5564 180.363 14.5485 180.363 15.7005C180.363 16.3405 180.075 16.9486 179.499 17.5246C178.987 18.0366 178.347 18.4526 177.579 18.7726C174.891 17.8126 172.459 17.1726 170.283 16.8526C170.347 17.8126 170.379 19.1886 170.379 20.9807C170.379 23.5408 170.347 25.8449 170.283 27.893C170.091 30.9651 169.995 33.2692 169.995 34.8053L170.283 36.3413L171.819 36.2453C172.331 36.1813 172.971 36.1493 173.739 36.1493C176.811 36.1493 178.347 37.0454 178.347 38.8374C178.347 39.5415 178.059 40.1495 177.483 40.6615C176.907 41.1095 176.171 41.3335 175.275 41.3335C174.123 41.3335 173.227 41.2695 172.587 41.1415H170.187C170.315 42.8056 170.379 45.2377 170.379 48.4378C170.379 51.6379 170.347 54.518 170.283 57.0782C170.091 60.9823 169.995 63.8944 169.995 65.8145C169.995 69.3986 170.059 71.1907 170.187 71.1907L173.355 71.0947C174.443 71.0307 175.755 70.9987 177.291 70.9987C179.723 70.9987 180.939 71.7667 180.939 73.3028C180.939 74.1988 180.523 74.8709 179.691 75.3189C178.923 75.8309 177.963 76.0869 176.811 76.0869H168.651Z" fill="#E06E51"/>
<path d="M208.318 76.4709C206.91 76.4709 205.63 74.9349 204.478 71.8627C203.134 68.5346 202.142 65.1105 201.501 61.5903L200.829 58.3262C198.973 49.1738 197.789 43.9576 197.277 42.6776H196.125C196.125 44.5337 196.093 46.2297 196.029 47.7658V53.046C196.029 61.6223 196.637 68.3106 197.853 73.1108L196.797 75.7029H194.109L192.861 74.2628L192.957 67.8306C192.957 62.0703 192.669 53.334 192.093 41.6215C191.581 29.141 191.325 20.4047 191.325 15.4125C191.325 12.3404 192.381 10.8043 194.493 10.8043C197.949 10.8043 200.765 11.7003 202.942 13.4924C205.182 15.2845 206.302 17.7806 206.302 20.9807V27.701C206.302 28.661 206.142 29.7811 205.822 31.0611C205.502 32.2772 205.15 33.2692 204.766 34.0372L202.942 37.4934L201.405 40.3735L201.885 42.6776L203.23 49.4939C204.126 54.422 204.99 58.4222 205.822 61.4943C206.654 64.5664 207.678 67.3506 208.894 69.8467L209.47 70.9987C210.11 72.2787 210.43 73.3028 210.43 74.0708C210.43 74.7108 210.238 75.2549 209.854 75.7029C209.47 76.2149 208.958 76.4709 208.318 76.4709ZM196.509 37.9734C197.917 37.2694 199.101 35.3493 200.061 32.2132C201.085 29.013 201.597 26.0689 201.597 23.3808C201.597 21.3327 201.341 19.4127 200.829 17.6206C200.509 16.5965 199.965 15.8285 199.197 15.3165C198.493 14.7405 197.597 14.4525 196.509 14.4525L196.317 14.9325L196.125 15.7965L196.317 27.125C196.445 30.4531 196.509 34.0692 196.509 37.9734Z" fill="#E06E51"/>
<path d="M221.847 75.7029C220.887 75.7029 219.735 75.2229 218.391 74.2628C218.903 68.9506 219.319 60.7903 219.639 49.7819C219.959 38.3254 220.183 31.4451 220.311 29.141V26.837C220.567 20.5647 220.695 16.2125 220.695 13.7804C220.695 12.8844 221.047 12.1804 221.751 11.6683C222.519 11.1563 223.383 10.9003 224.343 10.9003C226.583 10.9003 228.983 11.0923 231.543 11.4763C233.207 11.7324 234.519 12.1484 235.479 12.7244C236.503 13.3004 237.015 14.0044 237.015 14.8365C237.015 16.6285 235.383 17.5246 232.119 17.5246C230.903 16.8846 229.239 16.5645 227.127 16.5645H225.975V17.7166C225.975 20.2127 225.847 23.3808 225.591 27.221C225.271 30.8051 225.111 34.0372 225.111 36.9174V39.5095H226.839C229.975 39.5095 231.543 40.3415 231.543 42.0056C231.543 42.8376 231.191 43.5096 230.487 44.0216C229.847 44.5336 229.047 44.7897 228.087 44.7897C226.551 44.7897 225.303 44.6297 224.343 44.3096V71.4787C224.343 74.2948 223.511 75.7029 221.847 75.7029Z" fill="#E06E51"/>
<path d="M253.823 76.2789C252.287 76.2789 250.911 75.9269 249.695 75.2229C248.479 74.5828 247.487 73.6228 246.719 72.3428C245.182 69.6546 244.19 66.6145 243.742 63.2224C243.294 60.2783 243.07 56.7581 243.07 52.662C242.878 45.7497 242.782 37.3014 242.782 27.317L242.686 19.9247C242.622 19.5407 242.59 18.9006 242.59 18.0046C242.462 15.5725 242.398 14.1004 242.398 13.5884C242.974 12.2444 243.646 11.5723 244.414 11.5723C245.182 11.5723 245.855 12.1484 246.431 13.3004C247.071 14.4525 247.391 15.7005 247.391 17.0446V43.1576C247.391 45.7177 247.615 49.1098 248.063 53.334C248.511 58.5822 248.735 61.9743 248.735 63.5104C248.735 68.2466 250.751 70.6147 254.783 70.6147C259.391 70.6147 261.695 53.398 261.695 18.9646V12.7244C261.631 12.5324 261.599 12.2764 261.599 11.9564C261.599 11.1883 261.759 10.6443 262.079 10.3243C262.463 9.94028 263.167 9.74827 264.191 9.74827C265.023 9.74827 265.663 10.0043 266.111 10.5163C266.623 10.9643 266.943 11.5083 267.071 12.1484C267.135 12.5324 267.167 13.2684 267.167 14.3565C267.167 15.3805 267.071 17.0126 266.879 19.2526C266.623 21.1087 266.495 22.7088 266.495 24.0528C266.495 25.5249 266.431 26.8369 266.303 27.989L266.111 32.0212V32.7892C266.175 33.0452 266.207 33.3332 266.207 33.6532C266.207 62.0704 262.079 76.2789 253.823 76.2789Z" fill="#E06E51"/>
<path d="M293.024 76.3749C290.72 75.6069 287.872 75.2229 284.48 75.2229C283.456 75.8629 282.367 76.1829 281.215 76.1829C280.447 76.1829 279.775 75.8309 279.199 75.1269C278.687 74.4868 278.431 73.7828 278.431 73.0148C278.431 67.6386 278.655 60.4703 279.103 51.5099C279.487 41.9735 279.679 34.8373 279.679 30.1011V29.4291C279.295 25.3969 279.103 22.3888 279.103 20.4047C279.103 14.3245 280.223 11.2843 282.463 11.2843C283.103 11.2843 283.647 11.5403 284.095 12.0524C284.608 12.5004 284.864 13.0444 284.864 13.6844C284.864 14.4525 284.768 15.6685 284.576 17.3326C284.384 18.9326 284.288 20.1487 284.288 20.9807C284.288 25.2689 284.32 29.141 284.384 32.5972C284.448 35.9893 284.48 39.8295 284.48 44.1176C284.16 45.0777 284 46.4217 284 48.1498V49.3018L283.807 56.8861C283.679 59.1262 283.615 61.6863 283.615 64.5664C283.615 68.9826 284.672 71.1907 286.784 71.1907C286.912 71.1907 287.104 71.1907 287.36 71.1907C287.68 71.1267 288.096 71.0947 288.608 71.0947C289.184 71.0307 289.92 70.9987 290.816 70.9987C294.272 70.9987 296 71.9587 296 73.8788C296 74.5188 295.712 75.0629 295.136 75.5109C294.56 75.9589 293.856 76.2469 293.024 76.3749Z" fill="#E06E51"/>
</svg>
