<svg width="296" height="138" viewBox="0 0 296 138" fill="none" xmlns="http://www.w3.org/2000/svg">
<path d="M48.8157 93.0874C52.7624 93.0874 55.0177 91.5042 53.8901 86.095C51.2589 73.2975 53.8901 64.5899 58.7765 50.6049C60.6559 45.4596 55.5815 39.9184 46.9363 38.9948C24.7594 36.752 4.64979 57.7293 0.327175 76.9916C-0.988404 82.6647 1.64275 89.6572 8.59653 91.5042C14.7985 93.2194 20.6247 90.053 25.6991 86.4908C31.9011 82.137 38.291 73.9571 40.7343 71.8462L40.5463 79.4983C40.5463 82.5328 40.5463 85.1714 41.674 89.1294C42.4257 92.2958 45.0569 93.0874 48.8157 93.0874ZM13.1071 81.8731C12.1674 81.8731 12.5433 78.179 13.1071 76.4639C16.49 66.4369 22.1282 57.8613 32.089 51.5285C36.0358 49.0217 40.1704 47.8344 44.681 47.8344C45.8086 47.8344 46.7483 48.494 45.8086 49.1537C37.9152 54.6949 18.9332 81.8731 13.1071 81.8731Z" fill="#A11275"/>
<path d="M53.973 137.285C60.9268 138.341 68.6323 127.258 72.3911 118.946C74.4585 114.329 79.7208 102.587 81.9761 97.969C84.4193 92.6916 84.9831 91.3723 85.9228 89.5252C86.4866 88.3378 86.8625 88.7336 87.6143 89.1294C94.9439 93.2194 103.025 91.9 107.912 90.7126C124.638 86.4908 136.291 73.9571 140.613 61.4235C144.184 50.7369 136.479 40.3142 122.383 41.3696C113.174 42.0293 107.348 44.668 106.22 45.1957C105.469 45.4596 105.657 44.9318 105.657 44.536C105.657 43.2167 103.213 41.1058 99.8304 40.71C96.0716 40.1822 93.8163 41.8974 92.1248 45.5915C90.4334 49.0217 88.9298 51.9243 87.8022 54.5629C86.6746 57.2016 84.7952 59.4445 82.3519 61.4235C76.9017 65.7773 72.0152 70.6588 66.9409 76.3319C57.5439 86.8866 48.1469 103.774 44.576 113.801C40.4413 125.675 43.0725 135.702 53.973 137.285ZM101.522 82.6647C96.6354 83.5882 89.6816 81.0815 90.2454 78.7067C90.9972 76.3319 93.8163 70.9227 94.756 67.7563C95.6957 64.5899 98.3268 61.8193 102.649 59.0487C108.664 55.3545 118.812 50.0772 124.826 50.0772C129.713 50.0772 129.337 55.3545 128.021 59.4445C125.202 69.0756 112.986 80.5538 101.522 82.6647ZM56.2283 122.904C52.2816 122.904 71.6394 85.8311 74.4585 87.2824C75.3982 87.6782 59.9871 122.904 56.2283 122.904Z" fill="#A11275"/>
<path d="M170.548 103.642C174.119 103.642 177.502 101.267 176.186 97.969C175.058 95.1984 175.81 92.5597 176.75 90.053C180.885 78.9706 184.268 78.0471 188.966 68.284C189.718 66.7008 191.033 64.7218 191.033 62.6109C191.033 58.1251 185.959 54.6949 179.569 55.4865C179.005 55.4865 174.307 56.2781 174.307 56.2781C174.307 56.1461 179.757 50.3411 181.073 45.5915C182.388 40.9738 183.704 35.9604 177.69 33.0578C175.058 31.8704 172.051 31.6066 168.669 32.2662C159.835 33.9814 150.062 43.3486 146.867 51.3965C144.612 56.8058 144.424 61.9512 149.499 65.5134C156.828 70.6588 163.406 68.5479 175.81 65.3815C176.562 65.1176 176.938 65.6453 176.75 66.1731C176.938 65.5134 167.353 81.3454 166.225 83.7202C163.594 89.3933 160.963 96.6496 164.534 100.871C166.037 102.587 168.105 103.642 170.548 103.642ZM158.708 55.2226C160.211 50.2091 162.091 47.1747 168.293 42.8209C169.044 42.2932 169.044 42.4251 168.856 43.0848C166.977 48.626 163.594 52.7159 158.708 55.2226Z" fill="#A11275"/>
<path d="M224.882 23.8225C228.077 23.8225 230.896 21.8435 230.896 19.4687C230.896 17.3578 228.077 15.5107 224.882 15.5107C221.687 15.5107 219.056 17.4897 219.056 19.7326C219.056 21.9754 221.687 23.8225 224.882 23.8225ZM201.578 92.4278C205.9 92.4278 206.84 89.6572 207.78 86.7546C210.787 77.2555 213.794 67.7563 217.929 58.9167C219.808 54.8268 223.379 45.7234 223.379 43.8764C223.379 41.3696 220.936 39.5226 217.741 39.1268C211.539 38.599 210.975 42.689 208.907 47.8344L205.525 56.5419C202.142 65.2495 197.819 74.0891 195.752 82.9286C194.624 87.8101 194.436 92.4278 201.578 92.4278Z" fill="#A11275"/>
<path d="M233.96 94.9345C236.027 94.5387 237.155 93.0874 237.531 91.3723C237.907 89.5252 236.215 87.0185 236.215 84.6437C236.215 78.5748 237.343 72.3739 239.41 66.305C239.786 65.2495 240.35 64.8537 242.041 64.8537C245.612 64.8537 248.807 62.6109 258.204 56.9377C273.615 47.5705 283.388 35.0368 292.409 20.3922C296.168 14.0595 298.423 4.95606 291.658 1.92161C284.516 -1.50866 273.427 3.5048 265.91 8.78213C250.499 19.6007 241.102 32.0024 233.772 47.5705C228.886 57.9932 224.375 69.3395 223.811 81.3454C223.435 88.7336 224.751 96.3858 233.96 94.9345ZM244.485 53.5075C250.875 38.4671 259.144 27.2528 271.548 17.3578C273.991 15.5107 280.945 10.8931 282.636 10.8931C283.012 10.8931 283.576 11.1569 280.757 16.962C273.803 31.6066 263.842 40.1822 245.8 52.8478C245.048 53.3755 244.673 53.5075 244.485 53.5075Z" fill="#A11275"/>
</svg>
