<svg width="888" height="414" viewBox="0 0 888 414" fill="none" xmlns="http://www.w3.org/2000/svg">
<path d="M146.447 279.261C158.287 279.261 165.053 274.512 161.67 258.284C153.777 219.892 161.67 193.769 176.329 151.814C181.968 136.378 166.744 119.754 140.809 116.983C74.2782 110.255 13.9494 173.187 0.981526 230.974C-2.96521 247.993 4.92825 268.971 25.7896 274.512C44.3955 279.657 61.8741 270.158 77.0973 259.471C95.7033 246.41 114.873 221.87 122.203 215.538L121.639 238.494C121.639 247.597 121.639 255.513 125.022 267.387C127.277 276.887 135.171 279.261 146.447 279.261ZM39.3213 245.618C36.5022 245.618 37.6299 234.536 39.3213 229.391C49.47 199.31 66.3846 173.583 96.267 154.585C108.107 147.064 120.511 143.502 134.043 143.502C137.426 143.502 140.245 145.481 137.426 147.46C113.746 164.084 56.7996 245.618 39.3213 245.618Z" fill="#A11275"/>
<path d="M161.919 411.855C182.781 415.023 205.897 381.774 217.173 356.838C223.376 342.987 239.163 307.761 245.928 293.907C253.258 278.075 254.949 274.117 257.769 268.576C259.46 265.014 260.588 266.201 262.843 267.389C284.832 279.659 309.075 275.7 323.736 272.138C373.914 259.473 408.873 221.872 421.839 184.271C432.552 152.211 409.437 120.943 367.149 124.109C339.522 126.088 322.044 134.004 318.66 135.587C316.407 136.379 316.971 134.796 316.971 133.608C316.971 129.65 309.639 123.318 299.491 122.13C288.215 120.547 281.449 125.693 276.375 136.775C271.3 147.065 266.79 155.773 263.407 163.689C260.024 171.605 254.386 178.334 247.056 184.271C230.705 197.332 216.046 211.977 200.823 228.996C172.632 260.66 144.441 311.322 133.728 341.403C121.324 377.025 129.218 407.106 161.919 411.855ZM304.566 247.994C289.906 250.765 269.045 243.245 270.736 236.12C272.992 228.996 281.449 212.768 284.268 203.269C287.087 193.77 294.981 185.458 307.947 177.146C325.992 166.064 356.436 150.232 374.478 150.232C389.139 150.232 388.011 166.064 384.063 178.334C375.606 207.227 338.958 241.662 304.566 247.994ZM168.685 368.712C156.845 368.712 214.918 257.494 223.376 261.848C226.195 263.035 179.961 368.712 168.685 368.712Z" fill="#A11275"/>
<path d="M511.644 310.927C522.357 310.927 532.506 303.802 528.558 293.908C525.174 285.596 527.43 277.68 530.25 270.16C542.655 236.913 552.804 234.142 566.898 204.853C569.154 200.103 573.099 194.166 573.099 187.833C573.099 174.376 557.877 164.085 538.707 166.46C537.015 166.46 522.921 168.835 522.921 168.835C522.921 168.439 539.271 151.024 543.219 136.775C547.164 122.922 551.112 107.882 533.07 99.1741C525.174 95.6119 516.153 94.8205 506.007 96.7993C479.505 101.945 450.186 130.047 440.601 154.19C433.836 170.418 433.272 185.854 448.497 196.541C470.484 211.977 490.218 205.644 527.43 196.145C529.686 195.354 530.814 196.937 530.25 198.52C530.814 196.541 502.059 244.037 498.675 251.161C490.782 268.181 482.889 289.95 493.602 302.614C498.111 307.762 504.315 310.927 511.644 310.927ZM476.124 165.669C480.633 150.628 486.273 141.525 504.879 128.463C507.132 126.88 507.132 127.276 506.568 129.255C500.931 145.879 490.782 158.148 476.124 165.669Z" fill="#A11275"/>
<path d="M674.646 71.4676C684.231 71.4676 692.688 65.5306 692.688 58.4062C692.688 52.0735 684.231 46.5322 674.646 46.5322C665.061 46.5322 657.168 52.4692 657.168 59.1979C657.168 65.9263 665.061 71.4676 674.646 71.4676ZM604.734 277.284C617.7 277.284 620.52 268.972 623.34 260.264C632.361 231.767 641.382 203.269 653.787 176.75C659.424 164.481 670.137 137.17 670.137 131.629C670.137 124.109 662.808 118.568 653.223 117.381C634.617 115.797 632.925 128.067 626.721 143.503L616.575 169.626C606.426 195.749 593.457 222.267 587.256 248.786C583.872 263.43 583.308 277.284 604.734 277.284Z" fill="#A11275"/>
<path d="M701.88 284.803C708.081 283.615 711.465 279.261 712.593 274.116C713.721 268.575 708.645 261.055 708.645 253.93C708.645 235.724 712.029 217.121 718.23 198.914C719.358 195.748 721.05 194.56 726.123 194.56C736.836 194.56 746.421 187.832 774.612 170.812C820.845 142.711 850.164 105.11 877.227 61.1759C888.504 42.1778 895.269 14.8674 874.974 5.76409C853.548 -4.52672 820.281 10.5137 797.73 26.3457C751.497 58.8014 723.306 96.0065 701.316 142.711C686.658 173.979 673.125 208.018 671.433 244.035C670.305 266.2 674.253 289.157 701.88 284.803ZM733.455 160.522C752.625 115.401 777.432 81.7577 814.644 52.0727C821.973 46.5314 842.835 32.6786 847.908 32.6786C849.036 32.6786 850.728 33.47 842.271 50.8853C821.409 94.8191 791.526 120.546 737.4 158.543C735.144 160.126 734.019 160.522 733.455 160.522Z" fill="#A11275"/>
</svg>
