<svg width="888" height="414" viewBox="0 0 888 414" fill="none" xmlns="http://www.w3.org/2000/svg">
<path d="M20.6892 410.552C15.1721 409.37 10.4212 406.808 6.43662 402.866C2.75856 398.927 0.613014 393.803 0 387.497L5.05734 377.447C6.8964 377.447 9.8082 378.236 13.7928 379.811C18.3904 380.996 21.9152 381.587 24.3673 381.587C29.8844 381.587 34.7886 378.434 39.0795 372.128C43.677 365.822 47.0487 357.545 49.1943 347.3C53.1789 328.382 55.1712 311.438 55.1712 296.461C55.1712 270.45 48.7344 243.061 35.8611 214.292L30.804 203.06C24.9803 190.055 20.0762 178.429 16.0916 168.182C12.107 157.936 8.73543 146.901 5.97687 135.078C2.2988 119.708 0.459759 104.339 0.459759 88.9688C0.459759 71.6284 3.52482 53.5 9.65496 34.5833C12.72 25.5191 17.0111 18.2283 22.5282 12.7109C28.3518 6.7995 34.7886 3.84375 41.838 3.84375C47.3553 3.84375 52.4127 6.20835 57.0102 10.9375C61.9143 15.2726 64.3662 20.5929 64.3662 26.8984C64.3662 30.4453 63.2934 33.2038 61.1481 35.1745C59.0025 37.145 56.397 38.1301 53.3322 38.1301C49.9605 38.1301 46.7421 36.9478 43.677 34.5833C36.9339 34.9774 31.5702 42.6623 27.5856 57.638C24.214 71.4314 22.5282 82.8601 22.5282 91.9243C22.5282 103.353 23.9075 114.979 26.666 126.802C29.4246 138.231 32.9493 148.674 37.2405 158.133L47.3553 181.779L63.4467 220.794C67.7379 231.829 71.1093 244.637 73.5615 259.219C76.32 273.8 77.6994 288.579 77.6994 303.554C77.6994 327.596 73.4082 350.453 64.8261 372.128C60.5349 383.162 54.405 392.03 46.4358 398.729C38.7729 405.428 30.1908 408.779 20.6892 408.779V410.552Z" fill="#C69C3C"/>
<path d="M175.201 411.144C167.845 411.144 161.254 408.978 155.431 404.643C149.607 400.701 144.857 394.788 141.179 386.907C133.822 370.356 129.071 351.636 126.926 330.747C124.781 312.621 123.708 290.945 123.708 265.723C122.788 223.16 122.328 171.139 122.328 109.66L121.868 64.142C121.562 61.7774 121.409 57.8363 121.409 52.319C120.796 37.3433 120.489 28.2791 120.489 25.1263C123.248 16.8503 126.466 12.7122 130.144 12.7122C133.822 12.7122 137.041 16.2591 139.799 23.3529C142.864 30.4466 144.397 38.1314 144.397 46.4075V207.199C144.397 222.963 145.469 243.85 147.615 269.861C149.761 302.175 150.833 323.064 150.833 332.523C150.833 361.686 160.488 376.266 179.798 376.266C201.867 376.266 212.901 270.255 212.901 58.2305V19.806C212.594 18.6237 212.441 17.0473 212.441 15.0768C212.441 10.3476 213.207 6.9978 214.74 5.02734C216.579 2.66276 219.95 1.48047 224.854 1.48047C228.839 1.48047 231.904 3.05685 234.05 6.20964C236.502 8.96832 238.034 12.3181 238.647 16.2591C238.954 18.6237 239.107 23.1558 239.107 29.8555C239.107 36.161 238.647 46.2104 237.728 60.0038C236.502 71.4326 235.889 81.2852 235.889 89.561C235.889 98.6255 235.582 106.705 234.969 113.798L234.05 138.626V143.356C234.356 144.932 234.51 146.705 234.51 148.676C234.51 323.655 214.74 411.144 175.201 411.144Z" fill="#C69C3C"/>
<path d="M417.645 404.051C413.967 404.051 411.207 402.866 409.368 400.502C407.529 397.745 406.152 393.212 405.231 386.906L402.474 375.674V372.719C402.474 359.714 391.899 315.377 370.749 239.711C349.908 164.044 333.51 108.082 321.555 71.8255V369.173L323.394 373.31C323.7 374.099 324.315 375.476 325.233 377.447C326.154 379.418 326.613 381.389 326.613 383.36C326.613 388.484 325.233 392.819 322.473 396.365C319.716 399.911 316.344 401.684 312.36 401.684C302.553 401.684 297.647 389.666 297.647 365.624L297.188 264.539C296.881 234.194 296.728 200.301 296.728 162.862C296.728 150.251 297.188 131.925 298.107 107.886C299.027 83.0573 299.486 64.7317 299.486 52.9087C299.486 34.3861 305.004 19.8047 316.038 9.16406V12.7109C317.877 11.9227 319.104 11.5287 319.716 11.5287C326.766 11.5287 335.655 27.2926 346.383 58.8202C354.963 84.0424 362.628 110.644 369.369 138.625C376.419 166.606 385.614 206.41 396.954 258.036L401.553 279.318C408.603 311.24 413.967 334.097 417.645 347.891C423.774 263.16 426.84 163.059 426.84 47.5885V39.9037C426.534 37.5391 426.381 34.9774 426.381 32.2186C426.381 20.3958 430.059 14.4844 437.415 14.4844C441.705 14.4844 444.924 16.6519 447.069 20.987C449.52 25.3221 450.747 30.8395 450.747 37.5391V81.8749C450.135 142.566 448.296 208.38 445.23 279.318C442.164 350.255 438.486 390.257 434.196 399.32C425.307 402.473 419.79 404.051 417.645 404.051Z" fill="#C69C3C"/>
<path d="M526.845 405.824C518.877 405.824 514.89 380.009 514.89 328.382L515.811 234.981C516.117 207.395 516.27 176.458 516.27 142.172C516.27 129.561 515.352 110.053 513.513 83.6482C511.98 54.8791 511.212 37.3417 511.212 31.036C511.212 25.9128 512.898 21.3807 516.27 17.4398C519.642 13.4988 523.32 11.5283 527.304 11.5283C538.032 11.5283 548.301 14.6811 558.108 20.9866C568.224 26.8981 577.113 35.3713 584.775 46.4059C601.02 70.4458 611.748 96.8503 616.959 125.619C619.716 140.201 621.096 154.586 621.096 168.773C621.096 173.896 620.943 178.626 620.637 182.961L620.175 198.921V231.435C620.175 256.657 619.563 276.559 618.336 291.14C616.497 310.847 612.972 328.382 607.761 343.754C601.632 360.305 592.743 375.083 581.097 388.088C575.58 394.001 568.53 399.911 559.947 405.824H526.845ZM547.074 375.674C553.203 375.674 558.876 373.703 564.084 369.764C569.295 365.429 573.741 359.714 577.419 352.619C580.482 346.313 583.242 338.432 585.693 328.973C588.453 319.121 590.445 309.662 591.672 300.599C594.429 282.864 596.115 264.736 596.727 246.213C597.036 241.484 597.189 234.587 597.189 225.523C597.189 106.506 579.258 44.4355 543.396 39.3121C541.251 57.0466 540.177 77.5396 540.177 100.791C540.177 125.619 541.404 168.97 543.855 230.844C546 285.623 547.074 329.171 547.074 361.487V375.674Z" fill="#C69C3C"/>
<path d="M761.646 407.597C754.596 407.597 749.385 406.217 746.013 403.457C742.641 400.7 740.955 395.576 740.955 388.088C740.955 376.265 739.425 356.168 736.359 327.791L734.52 315.377L689.004 306.509C687.165 315.575 684.558 333.899 681.186 361.487C679.347 380.798 676.437 393.605 672.453 399.911C670.305 403.457 667.242 405.233 663.258 405.233C659.58 405.233 656.208 403.853 653.142 401.093C650.076 397.94 648.543 394.196 648.543 389.861L649.464 386.906L649.923 384.542C670.152 283.258 685.479 183.355 695.901 84.8305C695.901 83.254 696.054 80.6923 696.36 77.1454C696.666 73.2046 696.972 67.6873 697.278 60.5935C698.199 46.0117 699.117 34.3858 700.038 25.7158C701.265 17.0457 703.104 10.5431 705.555 6.20801H721.185C725.478 6.20801 729.156 7.58735 732.222 10.346C735.285 12.7106 736.818 16.2575 736.818 20.9866C736.818 50.938 740.037 95.4709 746.472 154.586C752.604 215.277 755.667 257.839 755.667 282.273C755.667 284.638 756.435 290.746 757.968 300.599C759.501 309.662 760.266 315.575 760.266 318.332C760.266 321.092 761.799 332.915 764.865 353.801C767.622 372.719 769.002 384.935 769.002 390.452V391.043C769.002 399.713 766.548 405.233 761.646 407.597ZM731.301 294.096C730.383 288.185 729.921 280.894 729.921 272.224C729.921 236.755 727.47 191.434 722.565 136.26L717.969 74.7808C704.787 167.394 695.745 237.346 690.843 284.638C695.439 288.578 708.927 291.732 731.301 294.096Z" fill="#C69C3C"/>
<path d="M846.162 410.552C840.951 410.552 836.661 406.217 833.289 397.547C836.661 389.27 838.347 355.772 838.347 297.052C838.347 283.259 837.579 268.283 836.046 252.125L834.669 234.982C833.748 224.341 833.289 216.262 833.289 210.745V195.375C830.223 185.523 824.553 167.197 816.279 140.398C808.308 113.6 801.873 91.1362 796.968 73.0078C791.145 52.1206 788.232 37.933 788.232 30.4453V27.4896L798.807 17.4401C804.018 18.2283 809.535 26.8984 815.358 43.4506C820.263 58.0321 825.627 78.9193 831.45 106.112C837.579 133.305 840.645 147.689 840.645 149.266C841.872 144.93 844.323 130.152 848.001 104.93C851.679 79.7074 855.816 57.4408 860.415 38.1301C865.626 18.8194 870.99 9.16406 876.507 9.16406C879.57 9.16406 882.177 10.3464 884.322 12.7109C886.773 15.0755 888 18.0312 888 21.5781C888 41.677 883.71 70.0519 875.127 106.703C865.932 146.507 861.333 175.276 861.333 193.011V370.946C861.333 397.349 856.278 410.552 846.162 410.552Z" fill="#C69C3C"/>
</svg>
