<svg width="296" height="138" viewBox="0 0 296 138" fill="none" xmlns="http://www.w3.org/2000/svg">
<path d="M6.89639 136.851C5.05735 136.457 3.47374 135.603 2.14554 134.289C0.919519 132.976 0.204338 131.268 0 129.166L1.68578 125.816C2.2988 125.816 3.2694 126.079 4.59759 126.604C6.13012 126.999 7.30507 127.196 8.12242 127.196C9.96145 127.196 11.5962 126.145 13.0265 124.043C14.559 121.941 15.6829 119.182 16.3981 115.767C17.7263 109.461 18.3904 103.813 18.3904 98.8207C18.3904 90.1505 16.2448 81.0206 11.9537 71.4309L10.268 67.687C8.32675 63.3519 6.69205 59.4766 5.36386 56.0611C4.03567 52.6456 2.91181 48.9674 1.99229 45.0264C0.766265 39.9031 0.153253 34.7799 0.153253 29.6566C0.153253 23.8765 1.17494 17.8337 3.21832 11.5281C4.24 8.50672 5.67037 6.07645 7.5094 4.23733C9.45061 2.26685 11.5962 1.2816 13.946 1.2816C15.7851 1.2816 17.4709 2.0698 19.0034 3.64618C20.6381 5.09121 21.4554 6.86465 21.4554 8.96649C21.4554 10.1488 21.0978 11.0683 20.3827 11.7252C19.6675 12.382 18.799 12.7104 17.7774 12.7104C16.6535 12.7104 15.5807 12.3163 14.559 11.5281C12.3113 11.6595 10.5234 14.2211 9.19519 19.213C8.07133 23.8108 7.5094 27.6204 7.5094 30.6418C7.5094 34.4514 7.96916 38.3267 8.88868 42.2677C9.8082 46.0773 10.9831 49.5585 12.4135 52.7113L15.7851 60.5932L21.1489 73.5984C22.5793 77.2767 23.7031 81.5461 24.5205 86.4066C25.44 91.2671 25.8998 96.1933 25.8998 101.185C25.8998 109.199 24.4694 116.818 21.6087 124.043C20.1783 127.721 18.135 130.677 15.4786 132.91C12.9243 135.143 10.0636 136.26 6.89639 136.26V136.851Z" fill="#C69C3C"/>
<path d="M58.4002 137.048C55.9482 137.048 53.7515 136.326 51.8103 134.881C49.8691 133.567 48.2855 131.596 47.0595 128.969C44.6074 123.452 43.0238 117.212 42.3086 110.249C41.5935 104.207 41.2359 96.9815 41.2359 88.5741C40.9294 74.3866 40.7761 57.0464 40.7761 36.5533L40.6228 21.3806C40.5207 20.5924 40.4696 19.2787 40.4696 17.4396C40.2653 12.4477 40.1631 9.42628 40.1631 8.37536C41.0826 5.61667 42.1554 4.23733 43.3814 4.23733C44.6074 4.23733 45.6802 5.41962 46.5997 7.78421C47.6214 10.1488 48.1323 12.7104 48.1323 15.4691V69.0663C48.1323 74.3209 48.4898 81.2833 49.205 89.9535C49.9202 100.725 50.2778 107.688 50.2778 110.841C50.2778 120.562 53.4961 125.422 59.9327 125.422C67.2889 125.422 70.967 90.0848 70.967 19.4101V6.60192C70.8648 6.20782 70.8137 5.68235 70.8137 5.02553C70.8137 3.44913 71.0691 2.33252 71.58 1.6757C72.193 0.887504 73.3168 0.493408 74.9515 0.493408C76.2797 0.493408 77.3014 1.01887 78.0166 2.0698C78.834 2.98936 79.3448 4.10596 79.5491 5.41962C79.6513 6.20782 79.7024 7.71852 79.7024 9.95174C79.7024 12.0536 79.5491 15.4034 79.2426 20.0012C78.834 23.8108 78.6296 27.095 78.6296 29.8536C78.6296 32.8751 78.5275 35.5681 78.3231 37.9326L78.0166 46.2087V47.7851C78.1188 48.3105 78.1699 48.9017 78.1699 49.5585C78.1699 107.885 71.58 137.048 58.4002 137.048Z" fill="#C69C3C"/>
<path d="M139.215 134.684C137.989 134.684 137.069 134.289 136.456 133.501C135.843 132.582 135.384 131.071 135.077 128.969L134.158 125.225V124.24C134.158 119.905 130.633 105.126 123.583 79.904C116.636 54.6818 111.17 36.0278 107.185 23.9422V123.058L107.798 124.437C107.9 124.7 108.105 125.159 108.411 125.816C108.718 126.473 108.871 127.13 108.871 127.787C108.871 129.495 108.411 130.94 107.491 132.122C106.572 133.304 105.448 133.895 104.12 133.895C100.851 133.895 99.2158 129.889 99.2158 121.875L99.0626 88.18C98.9604 78.0649 98.9093 66.7674 98.9093 54.2877C98.9093 50.084 99.0626 43.9755 99.3691 35.9622C99.6756 27.6861 99.8288 21.5776 99.8288 17.6366C99.8288 11.4624 101.668 6.60192 105.346 3.05504V4.23733C105.959 3.9746 106.368 3.84324 106.572 3.84324C108.922 3.84324 111.885 9.09787 115.461 19.6071C118.321 28.0145 120.876 36.8817 123.123 46.2087C125.473 55.5356 128.538 68.8036 132.318 86.0125L133.851 93.1062C136.201 103.747 137.989 111.366 139.215 115.964C141.258 87.7202 142.28 54.3534 142.28 15.8632V13.3016C142.178 12.5134 142.127 11.6595 142.127 10.7399C142.127 6.79896 143.353 4.82848 145.805 4.82848C147.235 4.82848 148.308 5.55099 149.023 6.99601C149.84 8.44104 150.249 10.2802 150.249 12.5134V27.292C150.045 47.5223 149.432 69.4604 148.41 93.1062C147.388 116.752 146.162 130.086 144.732 133.107C141.769 134.158 139.93 134.684 139.215 134.684Z" fill="#C69C3C"/>
<path d="M175.615 135.275C172.959 135.275 171.63 126.67 171.63 109.461L171.937 78.3276C172.039 69.132 172.09 58.8198 172.09 47.391C172.09 43.1873 171.784 36.6847 171.171 27.8832C170.66 18.2935 170.404 12.4477 170.404 10.3458C170.404 8.63808 170.966 7.12738 172.09 5.81372C173.214 4.50007 174.44 3.84324 175.768 3.84324C179.344 3.84324 182.767 4.89416 186.036 6.99601C189.408 8.96649 192.371 11.7909 194.925 15.4691C200.34 23.4824 203.916 32.2839 205.653 41.8736C206.572 46.7341 207.032 51.529 207.032 56.2582C207.032 57.9659 206.981 59.5423 206.879 60.9873L206.725 66.3076V77.1453C206.725 85.5527 206.521 92.1867 206.112 97.0472C205.499 103.616 204.324 109.461 202.587 114.585C200.544 120.102 197.581 125.028 193.699 129.363C191.86 131.334 189.51 133.304 186.649 135.275H175.615ZM182.358 125.225C184.401 125.225 186.292 124.568 188.028 123.255C189.765 121.81 191.247 119.905 192.473 117.54C193.494 115.438 194.414 112.811 195.231 109.658C196.151 106.374 196.815 103.221 197.224 100.2C198.143 94.2885 198.705 88.2457 198.909 82.0715C199.012 80.4951 199.063 78.1962 199.063 75.1748C199.063 35.5024 193.086 14.8123 181.132 13.1045C180.417 19.016 180.059 25.847 180.059 33.5976C180.059 41.8736 180.468 56.3238 181.285 76.9483C182 95.2081 182.358 109.724 182.358 120.496V125.225Z" fill="#C69C3C"/>
<path d="M253.882 135.866C251.532 135.866 249.795 135.406 248.671 134.486C247.547 133.567 246.985 131.859 246.985 129.363C246.985 125.422 246.475 118.723 245.453 109.264L244.84 105.126L229.668 102.17C229.055 105.192 228.186 111.3 227.062 120.496C226.449 126.933 225.479 131.202 224.151 133.304C223.435 134.486 222.414 135.078 221.086 135.078C219.86 135.078 218.736 134.618 217.714 133.698C216.692 132.647 216.181 131.399 216.181 129.954L216.488 128.969L216.641 128.181C223.384 94.4199 228.493 61.1187 231.967 28.2773C231.967 27.7518 232.018 26.8979 232.12 25.7156C232.222 24.402 232.324 22.5629 232.426 20.1983C232.733 15.3377 233.039 11.4624 233.346 8.5724C233.755 5.68235 234.368 3.51482 235.185 2.0698H240.395C241.826 2.0698 243.052 2.52958 244.074 3.44913C245.095 4.23733 245.606 5.41963 245.606 6.99601C245.606 16.9798 246.679 31.8241 248.824 51.529C250.868 71.7593 251.889 85.9468 251.889 94.0915C251.889 94.8797 252.145 96.9159 252.656 100.2C253.167 103.221 253.422 105.192 253.422 106.111C253.422 107.031 253.933 110.972 254.955 117.934C255.874 124.24 256.334 128.312 256.334 130.151V130.348C256.334 133.238 255.516 135.078 253.882 135.866ZM243.767 98.0325C243.461 96.062 243.307 93.6317 243.307 90.7417C243.307 78.9188 242.49 63.8117 240.855 45.4205L239.323 24.9274C234.929 55.7984 231.915 79.1158 230.281 94.8797C231.813 96.1933 236.309 97.2443 243.767 98.0325Z" fill="#C69C3C"/>
<path d="M282.054 136.851C280.317 136.851 278.887 135.406 277.763 132.516C278.887 129.757 279.449 118.591 279.449 99.0177C279.449 94.4199 279.193 89.428 278.682 84.042L278.223 78.3276C277.916 74.7807 277.763 72.0877 277.763 70.2486V65.1253C276.741 61.8412 274.851 55.7327 272.093 46.7998C269.436 37.867 267.291 30.3791 265.656 24.3363C263.715 17.3739 262.744 12.6447 262.744 10.1488V9.16355L266.269 5.81372C268.006 6.07645 269.845 8.96649 271.786 14.4839C273.421 19.3444 275.209 26.3068 277.15 35.371C279.193 44.4352 280.215 49.2301 280.215 49.7556C280.624 48.3105 281.441 43.3843 282.667 34.9769C283.893 26.5695 285.272 19.1473 286.805 12.7104C288.542 6.2735 290.33 3.05504 292.169 3.05504C293.19 3.05504 294.059 3.44914 294.774 4.23733C295.591 5.02552 296 6.01076 296 7.19306C296 13.8927 294.57 23.351 291.709 35.5681C288.644 48.836 287.111 58.4257 287.111 64.3372V123.649C287.111 132.45 285.426 136.851 282.054 136.851Z" fill="#C69C3C"/>
</svg>
