<svg width="296" height="181" viewBox="0 0 296 181" fill="none" xmlns="http://www.w3.org/2000/svg">
<path d="M268.144 0.0537109H33.8199C7.73027 0.0537109 0.402618 21.7738 0 32.6338L5.23403 92.5108C9.09917 122.802 32.6121 128.32 43.8854 127.292L220.864 124.653C220.973 124.652 221.077 124.701 221.145 124.787L264.338 179.691C265.261 180.863 267.134 179.976 266.81 178.519L254.952 125.077C254.903 124.858 255.07 124.651 255.294 124.651H268.144C286.181 125.003 290.69 107.48 290.69 98.6746L295.522 36.156C299.387 7.62639 278.88 0.200468 268.144 0.0537109Z" fill="#76DC9F"/>
<path d="M294.132 35.9677L294.126 36.0077L294.123 36.0479L289.292 98.5665L289.287 98.6205V98.6746C289.287 102.894 288.197 109.199 284.99 114.356C281.832 119.433 276.629 123.413 268.171 123.248L268.157 123.248H268.144H255.294C254.173 123.248 253.339 124.286 253.582 125.381L265.441 178.823L222.247 123.92C221.909 123.49 221.39 123.242 220.843 123.251L43.8645 125.89L43.8111 125.89L43.7581 125.895C38.3817 126.385 30.0102 125.308 22.5447 120.469C15.1431 115.67 8.51692 107.102 6.62911 92.3607L1.40521 32.5997C1.61542 27.3953 3.48726 19.5955 8.39541 13.1185C13.2826 6.66918 21.2288 1.45655 33.8199 1.45655H268.134C273.252 1.52862 280.697 3.34715 286.365 8.49934C291.96 13.5859 296.011 22.0914 294.132 35.9677Z" stroke="black" stroke-opacity="0.1" stroke-width="2.80569"/>
</svg>
