<svg width="296" height="137" viewBox="0 0 296 137" fill="none" xmlns="http://www.w3.org/2000/svg">
<path d="M6.65954 135.183C4.80967 135.183 2.58982 134.189 0 132.202C0.986599 121.203 1.78821 104.308 2.40484 81.5155C3.02146 57.7957 3.4531 43.5505 3.69975 38.78V34.0096C4.19305 21.0233 4.4397 12.0124 4.4397 6.97691C4.4397 5.12173 5.11798 3.66408 6.47456 2.60398C7.95446 1.54388 9.61934 1.01383 11.4692 1.01383C15.7856 1.01383 20.4103 1.41137 25.3433 2.20644C28.5497 2.7365 31.0779 3.59783 32.9278 4.79045C34.9009 5.98307 35.8875 7.44071 35.8875 9.16338C35.8875 12.8737 32.7428 14.7289 26.4532 14.7289C24.11 13.4038 20.9036 12.7412 16.8338 12.7412H14.614V15.1265C14.614 20.2945 14.3674 26.8539 13.8741 34.8046C13.2574 42.2254 12.9491 48.9173 12.9491 54.8804V60.2471H16.2789C22.3218 60.2471 25.3433 61.9698 25.3433 65.4152C25.3433 67.1378 24.665 68.5292 23.3084 69.5893C22.0752 70.6494 20.5336 71.1795 18.6837 71.1795C15.7239 71.1795 13.3191 70.8482 11.4692 70.1856V126.437C11.4692 132.268 9.86599 135.183 6.65954 135.183Z" fill="#5A8551"/>
<path d="M80.8525 136.773C78.1393 136.773 75.6728 133.593 73.453 127.232C70.8632 120.342 68.9516 113.252 67.7184 105.964L66.4235 99.206C62.847 80.2566 60.5655 69.4568 59.5789 66.8065H57.3591C57.3591 70.6494 57.2974 74.161 57.1741 77.3413V88.2736C57.1741 106.03 58.3457 119.878 60.6889 129.816L58.654 135.183H53.4744L51.0695 132.202L51.2545 118.884C51.2545 106.958 50.6995 88.87 49.5896 64.6201C48.603 38.78 48.1097 20.692 48.1097 10.356C48.1097 3.99537 50.1446 0.815051 54.2143 0.815051C60.8738 0.815051 66.3001 2.67023 70.4932 6.3806C74.8096 10.091 76.9677 15.259 76.9677 21.8846V35.7985C76.9677 37.7862 76.6594 40.1052 76.0428 42.7554C75.4262 45.2732 74.7479 47.3271 74.008 48.9173L70.4932 56.073L67.5334 62.0361L68.4583 66.8065L71.0482 80.9192C72.7747 91.1227 74.4396 99.4047 76.0428 105.765C77.646 112.126 79.6192 117.89 81.9624 123.058L83.0723 125.444C84.3056 128.094 84.9222 130.214 84.9222 131.804C84.9222 133.129 84.5522 134.256 83.8123 135.183C83.0723 136.243 82.0857 136.773 80.8525 136.773ZM58.099 57.0668C60.8122 55.6092 63.0937 51.6338 64.9436 45.1407C66.9168 38.515 67.9034 32.4194 67.9034 26.8539C67.9034 22.6134 67.4101 18.6381 66.4235 14.9277C65.8068 12.8075 64.7586 11.2173 63.2787 10.1572C61.9221 8.96461 60.1956 8.3683 58.099 8.3683L57.7291 9.36215L57.3591 11.1511L57.7291 34.6059C57.9757 41.4966 58.099 48.9835 58.099 57.0668Z" fill="#5A8551"/>
<path d="M112.286 133.196C101.557 133.196 96.192 131.208 96.192 127.232C96.192 124.052 98.1035 122.462 101.927 122.462H103.961L105.811 122.661C106.798 122.661 107.476 122.329 107.846 121.667C108.216 121.004 108.401 119.812 108.401 118.089C108.401 115.836 108.278 112.325 108.031 107.554C107.661 104.374 107.23 98.6759 106.736 90.4601C105.626 70.1856 105.071 54.8804 105.071 44.5444C105.071 40.834 105.133 37.4549 105.256 34.4071L105.441 24.2699C105.441 19.8969 105.256 16.2528 104.886 13.3375C102.913 13.8676 101.495 14.1326 100.632 14.1326C97.6719 14.1326 96.192 12.5425 96.192 9.36215C96.192 7.77199 97.1169 6.3806 98.9668 5.18798C100.817 3.99537 103.16 3.13403 105.996 2.60398C110.929 1.54388 115.307 1.01383 119.13 1.01383C120.61 1.01383 121.844 1.61014 122.83 2.80276C123.94 3.86285 124.495 5.12173 124.495 6.57938C124.495 8.03702 124.063 9.29589 123.2 10.356C122.46 11.4161 121.474 11.9462 120.24 11.9462C119.5 11.9462 118.884 11.8799 118.39 11.7474H116.911C115.677 11.7474 114.752 12.0787 114.136 12.7412C113.642 13.2713 113.396 14.3314 113.396 15.9215C113.396 28.7753 114.136 48.1222 115.616 73.9622C115.862 78.7327 116.356 85.7559 117.096 95.0318C117.712 101.127 118.02 107.356 118.02 113.716V121.269C118.76 121.137 119.994 121.071 121.72 121.071C126.9 121.071 129.49 123.39 129.49 128.028V129.22L124.865 132.599C124.742 132.599 124.31 132.666 123.57 132.798C122.953 132.798 121.72 132.798 119.87 132.798C115.924 133.063 113.396 133.196 112.286 133.196Z" fill="#5A8551"/>
<path d="M150.687 134.587C147.48 134.587 145.877 125.907 145.877 108.548L146.247 77.1426C146.37 67.8666 146.432 57.4644 146.432 45.9357C146.432 41.6953 146.062 35.1359 145.322 26.2576C144.705 16.5841 144.397 10.6873 144.397 8.56707C144.397 6.8444 145.075 5.3205 146.432 3.99537C147.789 2.67024 149.268 2.00768 150.872 2.00768C155.188 2.00768 159.319 3.06778 163.266 5.18798C167.336 7.17568 170.912 10.0247 173.995 13.7351C180.531 21.8184 184.848 30.6967 186.944 40.3702C188.054 45.2732 188.609 50.1099 188.609 54.8804C188.609 56.603 188.547 58.1932 188.424 59.6508L188.239 65.0176V75.9499C188.239 84.4308 187.992 91.1227 187.499 96.0257C186.759 102.651 185.341 108.548 183.244 113.716C180.778 119.282 177.202 124.251 172.515 128.624C170.295 130.612 167.459 132.599 164.006 134.587H150.687ZM158.826 124.45C161.293 124.45 163.574 123.787 165.671 122.462C167.767 121.004 169.555 119.083 171.035 116.698C172.269 114.577 173.378 111.927 174.365 108.747C175.475 105.434 176.277 102.254 176.77 99.206C177.88 93.2429 178.558 87.1473 178.805 80.9192C178.928 79.329 178.99 77.01 178.99 73.9622C178.99 33.9433 171.775 13.0725 157.346 11.3498C156.483 17.3129 156.051 24.2036 156.051 32.0219C156.051 40.3702 156.545 54.9466 157.531 75.7512C158.394 94.1705 158.826 108.813 158.826 119.679V124.45Z" fill="#5A8551"/>
<path d="M245.16 135.183C242.324 135.183 240.227 134.719 238.871 133.792C237.514 132.864 236.836 131.142 236.836 128.624C236.836 124.648 236.219 117.89 234.986 108.349L234.246 104.175L215.932 101.194C215.192 104.241 214.144 110.403 212.787 119.679C212.048 126.172 210.876 130.479 209.273 132.599C208.409 133.792 207.176 134.388 205.573 134.388C204.093 134.388 202.737 133.924 201.503 132.997C200.27 131.937 199.653 130.678 199.653 129.22L200.023 128.226L200.208 127.431C208.348 93.3754 214.514 59.7834 218.707 26.6551C218.707 26.125 218.769 25.2637 218.892 24.0711C219.015 22.746 219.139 20.8908 219.262 18.5055C219.632 13.6026 220.002 9.69343 220.372 6.77814C220.865 3.86285 221.605 1.67639 222.592 0.21875H228.881C230.608 0.21875 232.088 0.682544 233.321 1.61013C234.554 2.40521 235.171 3.59783 235.171 5.18798C235.171 15.259 236.466 30.2329 239.056 50.1099C241.522 70.5169 242.755 84.8283 242.755 93.0441C242.755 93.8392 243.064 95.8931 243.68 99.206C244.297 102.254 244.605 104.241 244.605 105.169C244.605 106.097 245.222 110.072 246.455 117.095C247.565 123.456 248.12 127.564 248.12 129.419V129.618C248.12 132.533 247.133 134.388 245.16 135.183ZM232.951 97.0195C232.581 95.0318 232.396 92.5803 232.396 89.665C232.396 77.7389 231.41 62.4999 229.436 43.948L227.586 23.276C222.283 54.4166 218.645 77.9376 216.672 93.8392C218.522 95.1643 223.948 96.2244 232.951 97.0195Z" fill="#5A8551"/>
<path d="M279.166 136.177C277.07 136.177 275.343 134.719 273.986 131.804C275.343 129.021 276.021 117.758 276.021 98.0134C276.021 93.3754 275.713 88.3399 275.096 82.9069L274.541 77.1426C274.171 73.5647 273.986 70.8482 273.986 68.993V63.825C272.753 60.5122 270.472 54.3503 267.142 45.3394C263.936 36.3285 261.346 28.7753 259.373 22.6797C257.029 15.6565 255.858 10.886 255.858 8.3683V7.37446L260.112 3.99537C262.209 4.26039 264.429 7.17568 266.772 12.7412C268.745 17.6442 270.903 24.6674 273.247 33.8108C275.713 42.9542 276.946 47.7909 276.946 48.321C277.44 46.8633 278.426 41.8941 279.906 33.4133C281.386 24.9324 283.051 17.4454 284.901 10.9523C286.997 4.45916 289.155 1.2126 291.375 1.2126C292.609 1.2126 293.657 1.61013 294.52 2.40521C295.507 3.20029 296 4.19413 296 5.38675C296 12.1449 294.273 21.6859 290.82 34.0096C287.121 47.3934 285.271 57.0668 285.271 63.0299V122.86C285.271 131.738 283.236 136.177 279.166 136.177Z" fill="#5A8551"/>
</svg>
