<svg width="888" height="411" viewBox="0 0 888 411" fill="none" xmlns="http://www.w3.org/2000/svg">
<g clip-path="url(#clip0_1105_1502)">
<path d="M19.9786 405.549C14.429 405.549 7.76946 402.567 0 396.606C2.9598 363.609 5.36463 312.924 7.21452 244.546C9.06438 173.387 10.3593 130.651 11.0992 116.34V102.028C12.5792 63.0694 13.3191 36.0367 13.3191 20.9303C13.3191 15.3647 15.3539 10.9918 19.4237 7.81147C23.8634 4.63117 28.858 3.04102 34.4076 3.04102C47.3568 3.04102 61.2309 4.23364 76.0299 6.61885C85.6491 8.20903 93.2337 10.793 98.7834 14.3709C104.703 17.9487 107.663 22.3217 107.663 27.4897C107.663 38.6206 98.2284 44.1862 79.3596 44.1862C72.33 40.2109 62.7108 38.2231 50.5014 38.2231H43.842V45.379C43.842 60.883 43.1022 80.5612 41.6223 104.413C39.7722 126.676 38.8473 146.751 38.8473 164.641V180.741H48.8367C66.9654 180.741 76.0299 185.909 76.0299 196.245C76.0299 201.413 73.995 205.587 69.9252 208.767C66.2256 211.948 61.6008 213.538 56.0511 213.538C47.1717 213.538 39.9573 212.544 34.4076 210.556V379.311C34.4076 396.803 29.598 405.549 19.9786 405.549Z" fill="#5A8551"/>
<path d="M242.558 410.32C234.418 410.32 227.019 400.78 220.359 381.697C212.59 361.027 206.855 339.757 203.155 317.893L199.271 297.619C188.541 240.771 181.697 208.372 178.737 200.421H172.077C172.077 211.949 171.892 222.484 171.522 232.025V264.822C171.522 318.091 175.037 359.635 182.067 389.449L175.962 405.55H160.423L153.209 396.607L153.764 356.653C153.764 320.875 152.099 266.611 148.769 193.861C145.809 116.341 144.329 62.0771 144.329 31.0691C144.329 11.9872 150.434 2.44629 162.643 2.44629C182.622 2.44629 198.9 8.01183 211.48 19.1429C224.429 30.2741 230.903 45.7781 230.903 65.6549V107.397C230.903 113.36 229.978 120.317 228.129 128.267C226.279 135.821 224.244 141.982 222.024 146.753L211.48 168.22L202.6 186.109L205.375 200.421L213.145 242.759C218.324 273.369 223.319 298.215 228.129 317.296C232.938 336.379 238.858 353.671 245.887 369.175L249.217 376.333C252.917 384.283 254.767 390.643 254.767 395.413C254.767 399.388 253.657 402.769 251.437 405.55C249.217 408.73 246.257 410.32 242.558 410.32ZM174.297 171.202C182.437 166.829 189.281 154.903 194.831 135.423C200.751 115.546 203.71 97.2593 203.71 80.5628C203.71 67.8413 202.23 55.9154 199.271 44.7842C197.421 38.4236 194.276 33.653 189.836 30.4727C185.766 26.895 180.587 25.106 174.297 25.106L173.187 28.0876L172.077 33.4544L173.187 103.819C173.927 124.491 174.297 146.952 174.297 171.202Z" fill="#5A8551"/>
<path d="M336.858 399.588C304.671 399.588 288.576 393.624 288.576 381.696C288.576 372.156 294.311 367.385 305.781 367.385H311.883L317.433 367.983C320.394 367.983 322.428 366.987 323.538 365.001C324.648 363.012 325.203 359.436 325.203 354.267C325.203 347.508 324.834 336.975 324.093 322.662C322.983 313.122 321.69 296.027 320.208 271.38C316.878 210.556 315.213 164.641 315.213 133.633C315.213 122.502 315.399 112.364 315.768 103.221L316.323 72.8092C316.323 59.6902 315.768 48.7579 314.658 40.012C308.739 41.6023 304.485 42.3973 301.896 42.3973C293.016 42.3973 288.576 37.627 288.576 28.086C288.576 23.3155 291.351 19.1413 296.9 15.5635C302.451 11.9856 309.48 9.40162 317.988 7.81147C332.787 4.63117 345.921 3.04102 357.39 3.04102C361.83 3.04102 365.532 4.82995 368.49 8.40781C371.82 11.5881 373.485 15.3647 373.485 19.7377C373.485 24.1106 372.189 27.8872 369.6 31.0675C367.38 34.2478 364.422 35.8381 360.72 35.8381C358.5 35.8381 356.652 35.6392 355.17 35.2417H350.733C347.031 35.2417 344.256 36.2356 342.408 38.2231C340.926 39.8134 340.188 42.9937 340.188 47.764C340.188 86.3254 342.408 144.366 346.848 221.886C347.586 236.198 349.068 257.267 351.288 285.095C353.136 303.381 354.06 322.068 354.06 341.148V363.807C356.28 363.411 359.982 363.213 365.16 363.213C380.7 363.213 388.47 370.17 388.47 384.084V387.66L374.595 397.797C374.226 397.797 372.93 397.998 370.71 398.394C368.859 398.394 365.16 398.394 359.61 398.394C347.772 399.189 340.188 399.588 336.858 399.588Z" fill="#5A8551"/>
<path d="M452.061 403.761C442.44 403.761 437.631 377.721 437.631 325.644L438.741 231.428C439.11 203.6 439.296 172.394 439.296 137.807C439.296 125.086 438.186 105.408 435.966 78.7732C434.115 49.7527 433.191 32.0623 433.191 25.7016C433.191 20.5336 435.225 15.9619 439.296 11.9865C443.367 8.01112 447.804 6.02344 452.616 6.02344C465.564 6.02344 477.957 9.20374 489.798 15.5643C502.008 21.5274 512.736 30.0745 521.985 41.2057C541.593 65.4556 554.544 92.0905 560.832 121.111C564.162 135.82 565.827 150.33 565.827 164.642C565.827 169.809 565.641 174.58 565.272 178.953L564.717 195.053V227.85C564.717 253.293 563.976 273.368 562.497 288.078C560.277 307.953 556.023 325.644 549.732 341.148C542.334 357.846 531.606 372.753 517.545 385.872C510.885 391.836 502.377 397.797 492.018 403.761H452.061ZM476.478 373.35C483.879 373.35 490.722 371.361 497.013 367.386C503.301 363.012 508.665 357.249 513.105 350.094C516.807 343.731 520.134 335.781 523.095 326.241C526.425 316.302 528.831 306.762 530.31 297.618C533.64 279.729 535.674 261.442 536.415 242.758C536.784 237.987 536.97 231.03 536.97 221.887C536.97 101.83 515.325 39.2179 472.038 34.0498C469.449 51.9391 468.153 72.6112 468.153 96.0661C468.153 121.111 469.635 164.84 472.593 227.254C475.182 282.512 476.478 326.439 476.478 359.037V373.35Z" fill="#5A8551"/>
<path d="M735.48 405.549C726.972 405.549 720.681 404.157 716.613 401.376C712.542 398.592 710.508 393.426 710.508 385.872C710.508 373.944 708.657 353.67 704.958 325.047L702.738 312.525L647.796 303.582C645.576 312.723 642.432 331.209 638.361 359.037C636.144 378.516 632.628 391.437 627.819 397.797C625.227 401.376 621.528 403.164 616.719 403.164C612.279 403.164 608.211 401.772 604.509 398.991C600.81 395.811 598.959 392.034 598.959 387.66L600.069 384.678L600.624 382.293C625.044 280.126 643.542 179.35 656.121 79.9653C656.121 78.375 656.307 75.7911 656.676 72.2133C657.045 68.238 657.417 62.6724 657.786 55.5165C658.896 40.8078 660.006 29.0803 661.116 20.3344C662.595 11.5885 664.815 5.02917 667.776 0.65625H686.643C691.824 0.65625 696.264 2.04763 699.963 4.83039C703.662 7.21563 705.513 10.7935 705.513 15.5639C705.513 45.777 709.398 90.6987 717.168 150.33C724.566 211.551 728.265 254.485 728.265 279.132C728.265 281.518 729.192 287.679 731.04 297.618C732.891 306.762 733.815 312.723 733.815 315.507C733.815 318.291 735.666 330.216 739.365 351.285C742.695 370.368 744.36 382.692 744.36 388.257V388.854C744.36 397.599 741.399 403.164 735.48 405.549ZM698.853 291.059C697.743 285.095 697.188 277.741 697.188 268.995C697.188 233.217 694.23 187.5 688.308 131.844L682.758 69.828C666.849 163.25 655.935 233.813 650.016 281.518C655.566 285.493 671.844 288.673 698.853 291.059Z" fill="#5A8551"/>
<path d="M837.498 408.532C831.21 408.532 826.029 404.158 821.958 395.413C826.029 387.064 828.063 353.275 828.063 294.041C828.063 280.127 827.139 265.021 825.288 248.722L823.623 231.429C822.513 220.695 821.958 212.545 821.958 206.98V191.476C818.259 181.537 811.416 163.052 801.426 136.019C791.808 108.986 784.038 86.3268 778.119 68.04C771.087 46.9704 767.574 32.6589 767.574 25.1058V22.1243L780.336 11.987C786.627 12.782 793.287 21.5279 800.316 38.2245C806.235 52.9335 812.709 74.0031 819.741 101.433C827.139 128.863 830.838 143.374 830.838 144.964C832.32 140.591 835.278 125.683 839.718 100.241C844.158 74.7981 849.153 52.3371 854.703 32.8578C860.991 13.3784 867.465 3.63867 874.125 3.63867C877.827 3.63867 880.971 4.83126 883.56 7.2165C886.521 9.60174 888 12.5833 888 16.1611C888 36.4356 882.819 65.0586 872.46 102.03C861.363 142.181 855.813 171.201 855.813 189.091V368.581C855.813 395.215 849.708 408.532 837.498 408.532Z" fill="#5A8551"/>
</g>
<defs>
<clipPath id="clip0_1105_1502">
<rect width="888" height="411" fill="white"/>
</clipPath>
</defs>
</svg>
