<svg width="296" height="211" viewBox="0 0 296 211" fill="none" xmlns="http://www.w3.org/2000/svg">
<path d="M9.77678 0.602509L0.398523 11.3104C0.141621 11.6038 0 11.9804 0 12.3703V166.85C0 167.37 0.251144 167.857 0.674242 168.159L9.83811 174.699C10.1108 174.893 10.4375 174.998 10.7726 174.998H224.753C225.318 174.998 225.841 175.294 226.132 175.778L246.287 209.338C246.907 210.37 248.398 210.381 249.033 209.358L269.885 175.758C270.178 175.286 270.695 174.998 271.251 174.998H285.227C285.562 174.998 285.889 174.893 286.162 174.699L295.326 168.159C295.749 167.857 296 167.37 296 166.85V12.3703C296 11.9804 295.858 11.6038 295.601 11.3104L286.223 0.602509C285.918 0.253737 285.477 0.0537109 285.013 0.0537109H10.9869C10.5233 0.0537109 10.0822 0.253738 9.77678 0.602509Z" fill="#FFBBA6"/>
<path d="M1.6087 12.3703L10.9869 1.66241L285.013 1.66241L294.391 12.3703L295.601 11.3104L294.391 12.3703V166.85L285.227 173.389H271.251C270.138 173.389 269.104 173.964 268.518 174.91L247.666 208.51L227.511 174.95C226.93 173.982 225.883 173.389 224.753 173.389L10.7726 173.389L1.60869 166.85L1.6087 12.3703Z" stroke="black" stroke-opacity="0.1" stroke-width="3.21739"/>
</svg>
