<svg width="888" height="633" viewBox="0 0 888 633" fill="none" xmlns="http://www.w3.org/2000/svg">
<g clip-path="url(#clip0_1105_2286)">
<path d="M29.3303 1.8046L1.19557 33.9283C0.424863 34.8085 0 35.9383 0 37.108V500.547C0 502.107 0.753432 503.568 2.02273 504.474L29.5143 524.094C30.3324 524.676 31.3125 524.991 32.3178 524.991H674.259C675.954 524.991 677.523 525.879 678.396 527.331L738.861 628.011C740.721 631.107 745.194 631.14 747.099 628.071L809.655 527.271C810.534 525.855 812.085 524.991 813.753 524.991H855.681C856.686 524.991 857.667 524.676 858.486 524.094L885.978 504.474C887.247 503.568 888 502.107 888 500.547V37.108C888 35.9383 887.574 34.8085 886.803 33.9283L858.669 1.8046C857.754 0.758282 856.431 0.158203 855.039 0.158203H32.9607C31.5699 0.158203 30.2466 0.758285 29.3303 1.8046Z" fill="#FFBBA6"/>
<path d="M883.172 37.11L855.038 4.98633H32.9598L4.82523 37.11L4.8252 500.549L32.3169 520.166H674.258C677.648 520.166 680.789 521.945 682.532 524.849L742.997 625.529L805.553 524.729C807.311 521.891 810.413 520.166 813.752 520.166H855.68L883.172 500.549V37.11ZM883.172 37.11L886.802 33.9303" stroke="black" stroke-opacity="0.1" stroke-width="9.65217"/>
</g>
<defs>
<clipPath id="clip0_1105_2286">
<rect width="888" height="633" fill="white"/>
</clipPath>
</defs>
</svg>
