<svg width="600" height="738" viewBox="0 0 600 738" fill="none" xmlns="http://www.w3.org/2000/svg">
<path d="M557.547 0.421875H42.4527C19.0067 0.421875 0 19.4286 0 42.8746V693.818C0 717.264 19.0067 736.271 42.4527 736.271H557.547C580.993 736.271 600 717.264 600 693.818V42.8746C600 19.4286 580.993 0.421875 557.547 0.421875Z" fill="#DFBF6E"/>
<path d="M30.4219 139.863H569.573" stroke="white" stroke-opacity="0.5" stroke-width="4.24527" stroke-linecap="round"/>
<path d="M206.772 89.0233C208.413 91.9102 208.583 92.6461 208.017 93.5518C207.224 94.8535 205.583 95.0233 204.508 94.0045C203.715 93.2122 198.621 83.7025 196.017 78.1555C195.394 76.8535 194.828 75.7216 194.772 75.6649C194.715 75.6082 194.036 75.7216 193.3 76.0612L191.941 76.5706L192.055 81.0988C192.111 83.6461 192.281 87.3253 192.394 89.3629C192.564 92.7025 192.564 93.0424 192.224 93.6649C191.658 94.9102 190.243 95.2498 189.055 94.5139C188.715 94.3441 188.319 93.8914 188.149 93.5518C187.696 92.4763 187.47 84.8347 187.357 70.1176C187.243 53.6461 187.413 49.5139 188.092 48.2686C189.904 44.929 196.639 46.7971 199.243 47.9857C202.809 49.6837 205.809 52.6837 207.111 56.4763C208.243 59.8726 207.79 63.3253 205.753 66.778C204.847 68.4196 201.96 71.3629 200.206 72.4951C199.47 73.0045 199.073 73.4575 199.073 73.6837C199.073 74.08 204.677 85.2874 206.772 89.0233ZM194.885 70.4008C199.3 68.2498 202.357 64.7971 203.036 61.3441C203.432 59.0233 202.47 56.4196 200.488 54.4384C198.394 52.4008 196.13 51.3253 193.639 51.1555L192.224 51.0424L192.111 52.231C192.055 52.8535 191.998 57.4951 191.998 62.5327V71.6461L192.394 71.5327C192.621 71.4196 193.753 70.9669 194.885 70.4008ZM230.272 86.5894C231.064 86.9857 231.517 87.7216 231.517 88.6273C231.517 89.5894 231.121 90.2122 229.932 91.2874C227.329 93.6649 222.687 94.7971 219.687 93.778C216.97 92.8159 214.762 90.8914 213.291 88.4008C210.404 83.5327 210.347 76.9669 211.819 71.5894C213.121 66.6082 215.272 63.0988 218.611 60.6082C218.951 60.382 219.291 60.1555 219.63 59.929C222.8 58.1743 226.762 58.5706 228.46 62.0233C229.876 64.8535 229.366 68.4196 228.064 71.2498C226.366 75.0988 221.555 78.1555 217.196 78.1555H215.611V78.2122C215.611 79.4008 215.668 80.5894 215.838 81.778C215.895 82.1743 216.008 82.5706 216.064 82.9669C216.687 85.4575 217.989 87.8347 220.31 89.0233C222.63 90.2122 225.574 89.1367 227.329 87.4384C228.46 86.3629 229.253 86.1367 230.272 86.5894ZM217.706 68.8726C216.8 70.7971 216.121 72.9478 216.291 73.4008C216.687 74.3629 219.178 73.231 219.744 72.9478C222.913 71.6461 225.574 68.08 224.611 64.5139C224.328 63.5518 223.819 63.2686 222.8 63.5518C221.102 64.0045 219.008 66.1555 217.706 68.8726ZM236.473 93.6082C235.737 93.4384 235.398 93.1555 235.001 92.4196C234.718 91.7971 234.718 87.4951 235.171 70.4008C235.398 61.6273 235.398 61.4575 236.473 60.778C237.662 60.0424 239.19 60.5518 239.756 61.8535C239.983 62.4196 239.983 62.929 239.926 64.1176L239.813 65.7025L240.718 64.5139C243.379 60.9478 247.171 58.9102 250.567 59.1367C252.775 59.3065 254.869 60.778 256.001 62.929L256.454 63.7216C256.454 63.7216 257.586 62.7592 257.586 62.7025C259.511 60.9478 261.945 59.2498 264.662 59.1931C268.398 59.1931 271.171 62.4196 272.36 65.6461C273.039 67.3441 273.379 69.4384 273.492 72.2122C273.605 74.7592 273.322 85.5139 272.983 90.0988L272.926 91.4008C272.869 92.0233 272.643 92.5894 272.19 92.9857C271.285 93.778 270.152 93.8347 269.247 93.0988C268.398 92.3629 268.285 91.7404 268.511 87.4384C268.624 85.3441 268.737 80.5327 268.737 76.7404C268.794 73.231 269.303 68.929 267.379 65.8159C266.36 64.1176 264.775 63.4951 263.02 64.4008C261.322 65.3065 259.68 66.7216 258.831 68.5327L258.379 69.4384L258.435 75.8914C258.492 82.9669 258.039 91.3441 257.586 92.4196C257.303 93.1555 256.341 93.778 255.549 93.778C254.756 93.778 253.794 93.1555 253.511 92.3629C253.285 91.8535 253.285 91.2874 253.398 89.08C254.303 76.3441 253.964 69.0424 252.379 65.8726C251.473 64.1176 250.907 63.7216 249.605 63.8347C248.19 63.9478 246.945 64.6273 245.473 66.0988C243.379 68.1931 241.737 71.7592 240.322 77.4763C239.756 79.8535 239.473 83.5894 239.416 88.9102C239.416 90.2122 239.36 91.5706 239.247 91.9102C238.907 93.1555 237.718 93.8347 236.473 93.6082ZM280.859 93.8914C280.406 93.6649 279.954 93.3253 279.841 92.8159C279.727 92.5327 279.671 92.1367 279.671 91.7971C279.557 90.382 279.614 88.9102 279.614 87.4384C279.727 77.1931 280.067 62.929 280.237 61.6273C280.406 60.4951 280.463 60.2686 281.086 59.7025C282.105 58.7404 283.633 58.9669 284.425 60.1555C284.765 60.7216 284.821 62.8159 284.595 66.382C284.539 67.231 284.425 73.4008 284.369 80.0233C284.312 83.1931 284.312 86.4196 284.142 89.5894C284.142 90.6649 284.199 91.9669 283.803 92.9857C283.463 93.8347 282.274 94.1743 281.425 94.0612C281.256 94.0045 281.029 93.9478 280.859 93.8914ZM281.538 55.1176C281.482 55.0612 281.369 55.0045 281.256 54.9478C279.897 54.0424 280.01 52.0612 281.369 51.1555C281.991 50.7592 283.067 50.8159 283.69 51.1555C284.256 51.4951 284.595 52.0612 284.708 52.6837C284.935 54.0988 284.029 55.3441 282.557 55.3441C282.218 55.3441 281.878 55.2874 281.538 55.1176ZM292.745 93.6082C292.009 93.4384 291.67 93.1555 291.274 92.4196C290.991 91.7971 290.991 87.4951 291.443 70.4008C291.67 61.6273 291.67 61.4575 292.745 60.778C293.991 60.0424 295.462 60.5518 296.028 61.8535C296.255 62.4196 296.311 62.929 296.198 64.1176L296.085 65.7025L296.991 64.5139C298.802 62.08 301.517 60.0424 304.517 59.3629C308.99 58.3441 312.329 61.9102 313.631 65.7592C314.708 69.0424 314.594 72.5518 314.651 75.9478C314.765 82.6837 314.369 91.2874 313.859 92.4196C313.574 93.1555 312.614 93.778 311.819 93.778C311.027 93.778 310.067 93.1555 309.782 92.3629C309.557 91.8535 309.557 91.2874 309.668 89.08C309.953 85.1743 310.292 81.2122 310.292 77.2498C310.292 73.6837 310.349 69.0988 308.708 65.8159C307.01 62.4196 303.839 64.0045 301.745 66.0988C299.651 68.1931 298.009 71.7592 296.594 77.4763C296.028 79.8535 295.745 83.5894 295.689 88.9102C295.689 90.2122 295.632 91.5706 295.519 91.9102C295.179 93.1555 293.991 93.8347 292.745 93.6082ZM341.399 43.1743C341.456 43.4575 341.399 45.778 341.285 48.382C340.889 59.9857 340.889 64.4575 341.003 77.7592C341.228 93.2122 341.228 92.7592 340.154 93.4384C339.023 94.1176 337.607 93.7216 336.983 92.5894C336.701 92.1367 336.587 91.4008 336.53 87.8347L336.419 83.6461L335.399 85.6837C333.419 89.5894 331.379 92.0233 329.06 93.0988C326.681 94.231 324.077 93.8914 322.211 92.0233C320.681 90.4384 319.889 88.231 319.379 86.08C318.701 83.0233 318.701 79.7404 319.097 76.6273C319.889 70.5706 322.55 62.08 329.003 59.8159C330.983 59.1367 334.211 59.4196 335.852 60.4951L336.248 60.778L336.362 58.5139C336.419 57.2686 336.587 53.3629 336.644 49.8535C336.815 44.2498 336.872 43.3441 337.154 42.778C337.607 41.8726 338.681 41.3065 339.587 41.4763C340.322 41.6461 341.228 42.4951 341.399 43.1743ZM333.587 78.2122C335.342 73.5139 336.305 70.2874 336.305 69.0424C336.305 67.7404 335.681 66.1555 334.889 65.4763C332.681 63.4951 330.191 63.6082 328.322 65.7025C325.946 68.4763 324.473 72.0988 323.681 77.2498C323.228 80.4196 323.456 83.7025 324.362 86.8159C324.758 88.3441 325.721 89.7025 327.419 88.7404C329.117 87.7216 330.134 85.8535 330.983 84.1555C332.003 82.231 332.795 80.2498 333.587 78.2122ZM365.534 86.5894C366.326 86.9857 366.779 87.7216 366.779 88.6273C366.779 89.5894 366.383 90.2122 365.195 91.2874C362.591 93.6649 357.95 94.7971 354.95 93.778C352.232 92.8159 350.024 90.8914 348.554 88.4008C345.668 83.5327 345.611 76.9669 347.081 71.5894C348.383 66.6082 350.534 63.0988 353.873 60.6082C354.215 60.382 354.554 60.1555 354.893 59.929C358.064 58.1743 362.024 58.5706 363.722 62.0233C365.138 64.8535 364.628 68.4196 363.326 71.2498C361.628 75.0988 356.819 78.1555 352.46 78.1555H350.873V78.2122C350.873 79.4008 350.93 80.5894 351.101 81.778C351.158 82.1743 351.272 82.5706 351.326 82.9669C351.95 85.4575 353.252 87.8347 355.571 89.0233C357.893 90.2122 360.836 89.1367 362.591 87.4384C363.722 86.3629 364.517 86.1367 365.534 86.5894ZM352.97 68.8726C352.064 70.7971 351.383 72.9478 351.554 73.4008C351.95 74.3629 354.44 73.231 355.007 72.9478C358.175 71.6461 360.836 68.08 359.873 64.5139C359.591 63.5518 359.081 63.2686 358.064 63.5518C356.366 64.0045 354.272 66.1555 352.97 68.8726ZM371.51 93.4951C370.943 93.2122 370.547 92.5327 370.322 91.6273C370.265 91.2874 370.322 89.08 370.433 86.7025C370.547 84.2686 370.661 77.5894 370.775 71.7592C370.943 60.382 370.943 60.3253 371.963 59.5327C373.094 58.6837 374.567 58.9102 375.245 60.0988C375.584 60.6649 375.641 60.8914 375.527 63.778C375.473 66.3253 375.473 66.778 375.698 66.4951C377.453 63.9478 378.359 62.7592 379.49 61.6837C381.359 59.9857 383.906 58.8535 386.51 58.9102C387.812 58.9102 389.057 59.1931 390.188 59.8159C391.208 60.382 392.51 61.1743 392.678 62.4196C392.735 62.7592 392.735 63.0988 392.624 63.4384C392.282 64.3441 391.661 64.9102 390.698 65.0233C390.02 65.08 389.735 65.0233 388.775 64.3441C386.624 62.8726 383.849 63.7216 382.208 65.5327C380.624 67.2874 379.433 69.2122 378.527 71.4196C378.359 71.8726 378.188 72.382 377.963 72.8347C376.037 78.1555 375.074 83.1367 375.074 88.4575C375.074 91.8535 374.906 92.6461 374.114 93.3253C373.49 93.8347 372.302 93.9478 371.51 93.4951ZM402.407 93.9478C399.35 93.4951 396.464 92.08 394.595 89.8159C394.256 89.4196 393.917 88.9669 393.803 88.4575C393.635 87.4951 394.142 86.5327 395.105 86.08C396.125 85.5706 396.974 85.8535 398.39 87.1555C400.652 89.2498 404.162 90.0988 407.105 89.1367C410.39 88.1176 411.578 85.1743 409.823 82.1743C409.256 81.2122 408.521 80.3629 407.729 79.5706C406.595 78.4951 405.182 77.4196 403.088 76.0045C401.105 74.7025 398.843 73.2874 397.484 71.3065C395.444 68.3629 395.897 64.4008 398.444 61.9669C400.484 59.9857 403.427 59.1367 406.256 59.4196C408.917 59.6461 411.521 60.8347 413.276 62.8159C413.558 63.0988 413.786 63.4384 414.011 63.7216C414.35 64.231 414.692 64.7971 414.803 65.4196C414.917 66.0424 414.86 66.7216 414.464 67.231C413.897 67.9669 412.766 68.1931 411.86 67.7971C410.786 67.4008 410.219 66.3253 409.427 65.6461C408.464 64.7404 407.162 64.1176 405.86 63.9478C404.105 63.7216 401.897 64.1176 401.105 65.929C399.746 68.9857 404.048 71.1367 405.974 72.4951C410.558 75.6082 412.766 77.8159 414.239 80.6461C416.162 84.4384 415.595 88.231 412.652 91.1176C410.048 93.6649 406.088 94.5139 402.407 93.9478Z" fill="white"/>
</svg>
