<svg width="200" height="246" viewBox="0 0 200 246" fill="none" xmlns="http://www.w3.org/2000/svg">
<rect y="0.141113" width="200" height="245.283" rx="14.1509" fill="#DFBF6E"/>
<line x1="10.1411" y1="46.6211" x2="189.858" y2="46.6211" stroke="white" stroke-opacity="0.5" stroke-width="1.41509" stroke-linecap="round"/>
<path d="M68.9241 29.6741C69.4713 30.6364 69.5279 30.8817 69.3392 31.1836C69.075 31.6175 68.5279 31.6741 68.1694 31.3345C67.9052 31.0704 66.2071 27.9005 65.3392 26.0515C65.1316 25.6175 64.943 25.2402 64.9241 25.2213C64.9052 25.2024 64.6788 25.2402 64.4335 25.3534L63.9807 25.5232L64.0184 27.0326C64.0373 27.8817 64.0939 29.1081 64.1316 29.7873C64.1882 30.9005 64.1882 31.0138 64.075 31.2213C63.8864 31.6364 63.4147 31.7496 63.0184 31.5043C62.9052 31.4477 62.7731 31.2968 62.7165 31.1836C62.5656 30.8251 62.4901 28.2779 62.4524 23.3722C62.4147 17.8817 62.4713 16.5043 62.6977 16.0892C63.3014 14.976 65.5467 15.5987 66.4147 15.9949C67.6033 16.5609 68.6033 17.5609 69.0373 18.8251C69.4147 19.9572 69.2637 21.1081 68.5845 22.259C68.2826 22.8062 67.3203 23.7873 66.7354 24.1647C66.4901 24.3345 66.358 24.4855 66.358 24.5609C66.358 24.693 68.226 28.4288 68.9241 29.6741ZM64.9618 23.4666C66.4335 22.7496 67.4524 21.5987 67.6788 20.4477C67.8109 19.6741 67.4901 18.8062 66.8297 18.1458C66.1316 17.4666 65.3769 17.1081 64.5467 17.0515L64.075 17.0138L64.0373 17.41C64.0184 17.6175 63.9996 19.1647 63.9996 20.8439V23.8817L64.1316 23.8439C64.2071 23.8062 64.5845 23.6553 64.9618 23.4666ZM76.7575 28.8628C77.0217 28.9949 77.1726 29.2402 77.1726 29.5421C77.1726 29.8628 77.0405 30.0704 76.6443 30.4288C75.7764 31.2213 74.2292 31.5987 73.2292 31.259C72.3236 30.9383 71.5877 30.2968 71.0971 29.4666C70.1349 27.8439 70.116 25.6553 70.6066 23.8628C71.0405 22.2024 71.7575 21.0326 72.8707 20.2024C72.9839 20.127 73.0971 20.0515 73.2103 19.976C74.267 19.3911 75.5877 19.5232 76.1537 20.6741C76.6254 21.6175 76.4556 22.8062 76.0217 23.7496C75.4556 25.0326 73.8519 26.0515 72.399 26.0515H71.8707V26.0704C71.8707 26.4666 71.8896 26.8628 71.9462 27.259C71.9651 27.3911 72.0028 27.5232 72.0217 27.6553C72.2292 28.4855 72.6632 29.2779 73.4368 29.6741C74.2103 30.0704 75.1915 29.7119 75.7764 29.1458C76.1537 28.7873 76.4179 28.7119 76.7575 28.8628ZM72.5688 22.9572C72.267 23.5987 72.0405 24.3156 72.0971 24.4666C72.2292 24.7873 73.0594 24.41 73.2481 24.3156C74.3047 23.8817 75.1915 22.693 74.8707 21.5043C74.7764 21.1836 74.6066 21.0892 74.267 21.1836C73.7009 21.3345 73.0028 22.0515 72.5688 22.9572ZM78.8246 31.2024C78.5793 31.1458 78.4661 31.0515 78.334 30.8062C78.2397 30.5987 78.2397 29.1647 78.3906 23.4666C78.4661 20.5421 78.4661 20.4855 78.8246 20.259C79.2208 20.0138 79.7302 20.1836 79.9189 20.6175C79.9944 20.8062 79.9944 20.976 79.9755 21.3722L79.9378 21.9005L80.2397 21.5043C81.1265 20.3156 82.3906 19.6364 83.5227 19.7119C84.2585 19.7685 84.9567 20.259 85.334 20.976L85.485 21.2402C85.485 21.2402 85.8623 20.9194 85.8623 20.9005C86.5038 20.3156 87.3152 19.7496 88.2208 19.7307C89.4661 19.7307 90.3906 20.8062 90.7869 21.8817C91.0133 22.4477 91.1265 23.1458 91.1642 24.0704C91.2019 24.9194 91.1076 28.5043 90.9944 30.0326L90.9755 30.4666C90.9567 30.6741 90.8812 30.8628 90.7302 30.9949C90.4284 31.259 90.051 31.2779 89.7491 31.0326C89.4661 30.7873 89.4284 30.5798 89.5038 29.1458C89.5416 28.4477 89.5793 26.8439 89.5793 25.5798C89.5982 24.41 89.768 22.976 89.1265 21.9383C88.7869 21.3722 88.2585 21.1647 87.6736 21.4666C87.1076 21.7685 86.5604 22.2402 86.2774 22.8439L86.1265 23.1458L86.1453 25.2968C86.1642 27.6553 86.0133 30.4477 85.8623 30.8062C85.768 31.0515 85.4472 31.259 85.1831 31.259C84.9189 31.259 84.5982 31.0515 84.5038 30.7873C84.4284 30.6175 84.4284 30.4288 84.4661 29.693C84.768 25.4477 84.6548 23.0138 84.1265 21.9572C83.8246 21.3722 83.6359 21.2402 83.2019 21.2779C82.7302 21.3156 82.3152 21.5421 81.8246 22.0326C81.1265 22.7307 80.5793 23.9194 80.1076 25.8251C79.9189 26.6175 79.8246 27.8628 79.8057 29.6364C79.8057 30.0704 79.7869 30.5232 79.7491 30.6364C79.6359 31.0515 79.2397 31.2779 78.8246 31.2024ZM93.62 31.2968C93.469 31.2213 93.3181 31.1081 93.2804 30.9383C93.2426 30.8439 93.2238 30.7119 93.2238 30.5987C93.186 30.127 93.2049 29.6364 93.2049 29.1458C93.2426 25.7307 93.3558 20.976 93.4124 20.5421C93.469 20.1647 93.4879 20.0892 93.6955 19.9005C94.0351 19.5798 94.5445 19.6553 94.8087 20.0515C94.9219 20.2402 94.9407 20.9383 94.8653 22.127C94.8464 22.41 94.8087 24.4666 94.7898 26.6741C94.7709 27.7307 94.7709 28.8062 94.7143 29.8628C94.7143 30.2213 94.7332 30.6553 94.6011 30.9949C94.4879 31.2779 94.0917 31.3911 93.8087 31.3534C93.7521 31.3345 93.6766 31.3156 93.62 31.2968ZM93.8464 18.3722C93.8275 18.3534 93.7898 18.3345 93.7521 18.3156C93.2992 18.0138 93.337 17.3534 93.7898 17.0515C93.9973 16.9194 94.3558 16.9383 94.5634 17.0515C94.7521 17.1647 94.8653 17.3534 94.903 17.5609C94.9785 18.0326 94.6766 18.4477 94.186 18.4477C94.0728 18.4477 93.9596 18.4288 93.8464 18.3722ZM97.582 31.2024C97.3367 31.1458 97.2235 31.0515 97.0914 30.8062C96.9971 30.5987 96.9971 29.1647 97.148 23.4666C97.2235 20.5421 97.2235 20.4855 97.582 20.259C97.9971 20.0138 98.4876 20.1836 98.6763 20.6175C98.7518 20.8062 98.7706 20.976 98.7329 21.3722L98.6952 21.9005L98.9971 21.5043C99.6008 20.693 100.506 20.0138 101.506 19.7873C102.997 19.4477 104.11 20.6364 104.544 21.9194C104.903 23.0138 104.865 24.1836 104.884 25.3156C104.922 27.5609 104.79 30.4288 104.62 30.8062C104.525 31.0515 104.205 31.259 103.94 31.259C103.676 31.259 103.356 31.0515 103.261 30.7873C103.186 30.6175 103.186 30.4288 103.223 29.693C103.318 28.3911 103.431 27.0704 103.431 25.7496C103.431 24.5609 103.45 23.0326 102.903 21.9383C102.337 20.8062 101.28 21.3345 100.582 22.0326C99.8838 22.7307 99.3367 23.9194 98.865 25.8251C98.6763 26.6175 98.582 27.8628 98.5631 29.6364C98.5631 30.0704 98.5442 30.5232 98.5065 30.6364C98.3933 31.0515 97.9971 31.2779 97.582 31.2024ZM113.8 14.3911C113.819 14.4855 113.8 15.259 113.762 16.127C113.63 19.9949 113.63 21.4855 113.668 25.9194C113.743 31.0704 113.743 30.9194 113.385 31.1458C113.008 31.3722 112.536 31.2402 112.328 30.8628C112.234 30.7119 112.196 30.4666 112.177 29.2779L112.14 27.8817L111.8 28.5609C111.14 29.8628 110.46 30.6741 109.687 31.0326C108.894 31.41 108.026 31.2968 107.404 30.6741C106.894 30.1458 106.63 29.41 106.46 28.693C106.234 27.6741 106.234 26.5798 106.366 25.5421C106.63 23.5232 107.517 20.693 109.668 19.9383C110.328 19.7119 111.404 19.8062 111.951 20.1647L112.083 20.259L112.121 19.5043C112.14 19.0892 112.196 17.7873 112.215 16.6175C112.272 14.7496 112.291 14.4477 112.385 14.259C112.536 13.9572 112.894 13.7685 113.196 13.8251C113.441 13.8817 113.743 14.1647 113.8 14.3911ZM111.196 26.0704C111.781 24.5043 112.102 23.4288 112.102 23.0138C112.102 22.5798 111.894 22.0515 111.63 21.8251C110.894 21.1647 110.064 21.2024 109.441 21.9005C108.649 22.8251 108.158 24.0326 107.894 25.7496C107.743 26.8062 107.819 27.9005 108.121 28.9383C108.253 29.4477 108.574 29.9005 109.14 29.5798C109.706 29.2402 110.045 28.6175 110.328 28.0515C110.668 27.41 110.932 26.7496 111.196 26.0704ZM121.845 28.8628C122.109 28.9949 122.26 29.2402 122.26 29.5421C122.26 29.8628 122.128 30.0704 121.732 30.4288C120.864 31.2213 119.317 31.5987 118.317 31.259C117.411 30.9383 116.675 30.2968 116.185 29.4666C115.223 27.8439 115.204 25.6553 115.694 23.8628C116.128 22.2024 116.845 21.0326 117.958 20.2024C118.072 20.127 118.185 20.0515 118.298 19.976C119.355 19.3911 120.675 19.5232 121.241 20.6741C121.713 21.6175 121.543 22.8062 121.109 23.7496C120.543 25.0326 118.94 26.0515 117.487 26.0515H116.958V26.0704C116.958 26.4666 116.977 26.8628 117.034 27.259C117.053 27.3911 117.091 27.5232 117.109 27.6553C117.317 28.4855 117.751 29.2779 118.524 29.6741C119.298 30.0704 120.279 29.7119 120.864 29.1458C121.241 28.7873 121.506 28.7119 121.845 28.8628ZM117.657 22.9572C117.355 23.5987 117.128 24.3156 117.185 24.4666C117.317 24.7873 118.147 24.41 118.336 24.3156C119.392 23.8817 120.279 22.693 119.958 21.5043C119.864 21.1836 119.694 21.0892 119.355 21.1836C118.789 21.3345 118.091 22.0515 117.657 22.9572ZM123.837 31.1647C123.648 31.0704 123.516 30.8439 123.441 30.5421C123.422 30.4288 123.441 29.693 123.478 28.9005C123.516 28.0892 123.554 25.8628 123.592 23.9194C123.648 20.127 123.648 20.1081 123.988 19.8439C124.365 19.5609 124.856 19.6364 125.082 20.0326C125.195 20.2213 125.214 20.2968 125.176 21.259C125.158 22.1081 125.158 22.259 125.233 22.1647C125.818 21.3156 126.12 20.9194 126.497 20.5609C127.12 19.9949 127.969 19.6175 128.837 19.6364C129.271 19.6364 129.686 19.7307 130.063 19.9383C130.403 20.127 130.837 20.3911 130.893 20.8062C130.912 20.9194 130.912 21.0326 130.875 21.1458C130.761 21.4477 130.554 21.6364 130.233 21.6741C130.007 21.693 129.912 21.6741 129.592 21.4477C128.875 20.9572 127.95 21.2402 127.403 21.8439C126.875 22.4288 126.478 23.0704 126.176 23.8062C126.12 23.9572 126.063 24.127 125.988 24.2779C125.346 26.0515 125.025 27.7119 125.025 29.4855C125.025 30.6175 124.969 30.8817 124.705 31.1081C124.497 31.2779 124.101 31.3156 123.837 31.1647ZM134.136 31.3156C133.117 31.1647 132.155 30.693 131.532 29.9383C131.419 29.8062 131.306 29.6553 131.268 29.4855C131.212 29.1647 131.381 28.8439 131.702 28.693C132.042 28.5232 132.325 28.6175 132.797 29.0515C133.551 29.7496 134.721 30.0326 135.702 29.7119C136.797 29.3722 137.193 28.3911 136.608 27.3911C136.419 27.0704 136.174 26.7873 135.91 26.5232C135.532 26.1647 135.061 25.8062 134.363 25.3345C133.702 24.9005 132.948 24.4288 132.495 23.7685C131.815 22.7873 131.966 21.4666 132.815 20.6553C133.495 19.9949 134.476 19.7119 135.419 19.8062C136.306 19.8817 137.174 20.2779 137.759 20.9383C137.853 21.0326 137.929 21.1458 138.004 21.2402C138.117 21.41 138.231 21.5987 138.268 21.8062C138.306 22.0138 138.287 22.2402 138.155 22.41C137.966 22.6553 137.589 22.7307 137.287 22.5987C136.929 22.4666 136.74 22.1081 136.476 21.8817C136.155 21.5798 135.721 21.3722 135.287 21.3156C134.702 21.2402 133.966 21.3722 133.702 21.976C133.249 22.9949 134.683 23.7119 135.325 24.1647C136.853 25.2024 137.589 25.9383 138.08 26.8817C138.721 28.1458 138.532 29.41 137.551 30.3722C136.683 31.2213 135.363 31.5043 134.136 31.3156Z" fill="white"/>
</svg>
