<svg width="888" height="411" viewBox="0 0 888 411" fill="none" xmlns="http://www.w3.org/2000/svg">
<g clip-path="url(#clip0_1105_1687)">
<path d="M144.533 27.9604C150.753 27.9604 156.242 21.4713 156.242 13.6843C156.242 6.76255 150.753 0.706055 144.533 0.706055C138.313 0.706055 133.19 7.19518 133.19 14.5495C133.19 21.9039 138.313 27.9604 144.533 27.9604ZM21.9576 410.386C43.9113 410.386 58.1814 387.025 68.7924 362.8C83.4282 329.92 96.2346 292.284 107.943 249.023C110.139 240.804 113.432 235.612 119.652 231.286C137.947 218.308 170.146 190.621 185.147 180.671C194.295 174.615 204.906 167.26 199.418 154.715C197.222 149.091 191.368 146.928 185.513 149.523C170.512 156.012 151.851 176.345 138.679 185.43L124.409 194.947C121.481 196.677 121.116 196.245 122.213 191.919C129.165 159.906 130.629 151.254 140.142 98.0428C141.972 88.5256 138.313 77.7103 128.434 78.1429C117.823 78.5755 115.261 93.7168 112.7 117.943C109.041 152.119 100.259 181.536 92.9415 209.656C90.7461 217.875 88.185 223.499 82.6965 228.691C58.9131 251.186 40.2525 278.008 24.5189 304.831C0.369704 345.496 -14.6321 410.386 21.9576 410.386ZM24.5189 374.047C24.5189 352.849 47.2044 310.021 72.8172 278.873C72.8172 289.256 54.5223 335.545 43.9113 358.474C38.0571 371.02 24.5189 390.919 24.5189 374.047Z" fill="#B83A48"/>
<path d="M261.85 255.08C269.534 255.08 273.925 249.888 271.73 232.152C266.607 190.188 271.729 161.636 281.243 115.78C284.902 98.908 275.023 80.7386 258.191 77.7104C215.016 70.3559 175.865 139.141 167.449 202.302C164.888 220.904 170.01 243.832 183.548 249.888C195.623 255.512 206.966 245.13 216.845 233.449C228.92 219.173 241.36 192.351 246.117 185.43L245.751 210.521C245.751 220.471 245.751 229.123 247.946 242.101C249.41 252.484 254.532 255.08 261.85 255.08ZM192.33 218.308C190.501 218.308 191.232 206.195 192.33 200.571C198.916 167.693 209.893 139.573 229.286 118.808C236.969 110.589 245.019 106.695 253.801 106.695C255.996 106.695 257.825 108.858 255.996 111.021C240.628 129.191 203.673 218.308 192.33 218.308Z" fill="#B83A48"/>
<path d="M297.202 246.428C305.619 246.428 308.544 238.208 312.204 229.556C325.011 199.274 340.743 169.424 364.893 136.978C370.014 130.056 375.504 124 381.723 118.376C392.334 108.426 398.922 102.802 395.994 114.482C394.164 120.972 391.968 127.893 389.775 133.95C379.896 161.204 370.746 190.621 363.429 220.471C359.769 235.18 360.867 243.399 370.746 245.563C380.991 247.726 384.285 240.371 386.847 228.691C391.236 207.926 401.118 177.643 416.85 131.787C422.706 114.482 427.827 91.1216 416.118 80.3063C411.363 75.9803 404.775 74.6825 396.36 77.2781C375.138 84.1997 357.576 102.369 341.109 125.298L335.622 132.652C337.086 127.028 338.913 121.404 340.743 115.78C345.867 99.341 346.599 97.178 346.599 92.4194C346.599 85.9301 343.305 81.1715 338.547 79.0085C325.011 73.3847 319.155 98.4758 310.74 127.893C300.861 161.204 291.348 191.054 286.591 219.606C284.03 233.882 284.762 246.428 297.202 246.428Z" fill="#B83A48"/>
<path d="M503.739 253.35C511.788 253.35 515.448 247.293 515.448 235.613C515.448 217.011 519.108 198.409 523.497 179.806C529.719 153.85 538.5 128.758 547.647 101.504C552.039 88.9586 555.696 75.5477 545.451 69.9236C540.33 66.8954 534.108 68.6258 530.085 74.2499C523.497 83.3345 508.863 113.617 495.324 141.304C479.955 172.019 456.537 217.443 445.926 217.443C440.805 217.443 456.54 149.091 464.223 126.163C467.151 116.213 477.396 91.5542 476.664 82.9019C475.932 70.7891 463.857 66.4628 457.635 73.8173C448.854 84.1997 435.681 130.921 429.462 157.743C421.413 194.082 413.73 234.315 433.488 247.726C445.563 255.08 458.001 248.158 469.344 235.613C475.932 228.691 481.053 219.174 488.736 207.493L494.226 199.274L493.128 210.954C491.664 225.663 490.2 239.939 494.226 246.428C496.788 250.754 500.079 253.35 503.739 253.35Z" fill="#B83A48"/>
<path d="M633.465 255.08C641.148 255.08 645.537 249.888 643.344 232.152C638.22 190.188 643.344 161.636 652.857 115.78C656.514 98.908 646.635 80.7386 629.805 77.7104C586.629 70.3559 547.479 139.141 539.064 202.302C536.502 220.904 541.623 243.832 555.162 249.888C567.237 255.512 578.58 245.13 588.459 233.449C600.534 219.173 612.975 192.351 617.73 185.43L617.364 210.521C617.364 220.471 617.364 229.123 619.56 242.101C621.024 252.484 626.145 255.08 633.465 255.08ZM563.943 218.308C562.113 218.308 562.845 206.195 563.943 200.571C570.531 167.693 581.508 139.573 600.9 118.808C608.583 110.589 616.632 106.695 625.413 106.695C627.609 106.695 629.439 108.858 627.609 111.021C612.243 129.191 575.286 218.308 563.943 218.308Z" fill="#B83A48"/>
<path d="M713.454 289.686C720.408 289.686 726.993 281.899 724.431 271.084C722.238 261.999 723.699 253.347 725.529 245.128C733.578 208.788 740.166 205.76 749.313 173.747C750.777 168.556 753.339 162.067 753.339 155.145C753.339 140.436 743.46 129.188 731.019 131.784C729.921 131.784 720.774 134.38 720.774 134.38C720.774 133.947 731.385 114.912 733.944 99.3385C736.506 84.1972 739.068 67.7581 727.359 58.2409C722.238 54.3472 716.382 53.482 709.797 55.6453C692.598 61.2691 673.572 91.9843 667.353 118.373C662.961 136.11 662.595 152.982 672.474 164.662C686.745 181.534 699.552 174.612 723.699 164.23C725.163 163.364 725.895 165.095 725.529 166.826C725.895 164.662 707.235 216.575 705.039 224.362C699.918 242.964 694.794 266.758 701.745 280.601C704.673 286.225 708.699 289.686 713.454 289.686ZM690.405 130.919C693.33 114.48 696.99 104.53 709.065 90.2539C710.529 88.5235 710.529 88.9561 710.163 91.1191C706.503 109.289 699.918 122.699 690.405 130.919Z" fill="#B83A48"/>
<path d="M780.82 409.954C794.359 409.954 807.163 400.87 814.849 387.457C835.339 351.985 843.754 319.105 878.515 152.552C886.198 113.185 894.247 90.2566 880.711 81.6043C868.636 74.2501 856.195 97.6108 842.29 125.73C838.267 133.517 819.604 170.722 813.385 181.104C806.797 192.352 802.042 201.004 794.725 209.656C791.797 213.117 793.261 201.004 793.627 197.976C798.748 156.013 808.993 130.056 817.408 92.8522C819.238 85.0651 815.947 77.2783 810.091 74.6827C804.238 72.0871 798.382 75.9805 794.725 83.3347C793.261 85.9303 780.088 137.411 776.062 154.715C768.745 186.728 761.062 235.18 782.284 244.698C794.359 249.889 804.97 239.939 814.483 227.393C821.8 218.309 828.385 207.493 836.071 192.785C840.46 184.133 845.218 176.346 849.607 168.126C844.852 194.082 833.875 246.861 832.045 253.35C831.313 256.378 830.947 258.108 828.751 258.974C790.699 273.682 747.157 335.113 753.742 381.835C755.938 396.976 765.451 409.954 780.82 409.954ZM777.526 370.585C777.892 350.254 795.82 310.885 819.97 296.611C827.653 291.852 805.702 349.39 797.284 366.694C791.065 379.24 777.526 387.892 777.526 370.585Z" fill="#B83A48"/>
</g>
<defs>
<clipPath id="clip0_1105_1687">
<rect width="888" height="411" fill="white"/>
</clipPath>
</defs>
</svg>
