<svg width="296" height="137" viewBox="0 0 296 137" fill="none" xmlns="http://www.w3.org/2000/svg">
<path d="M48.1777 9.31988C50.2511 9.31988 52.0806 7.15684 52.0806 4.56119C52.0806 2.25394 50.2511 0.235107 48.1777 0.235107C46.1042 0.235107 44.3967 2.39815 44.3967 4.84959C44.3967 7.30104 46.1042 9.31988 48.1777 9.31988ZM7.3192 136.795C14.6371 136.795 19.3938 129.008 22.9308 120.933C27.8094 109.973 32.0782 97.4278 35.9811 83.0075C36.7129 80.2676 37.8106 78.5372 39.884 77.0952C45.9823 72.7691 56.7153 63.5401 61.7158 60.2234C64.765 58.2046 68.302 55.7532 66.4725 51.5713C65.7407 49.6966 63.7893 48.9756 61.8378 49.8408C56.8372 52.0039 50.617 58.7814 46.2262 61.8097L41.4696 64.9821C40.4938 65.5589 40.3719 65.4147 40.7378 63.9727C43.0551 53.3017 43.543 50.4177 46.7141 32.6807C47.3239 29.5083 46.1043 25.9032 42.8112 26.0474C39.2742 26.1916 38.4204 31.2387 37.5667 39.3141C36.347 50.7061 33.4198 60.5119 30.9805 69.885C30.2487 72.6249 29.395 74.4995 27.5655 76.23C19.6377 83.7285 13.4175 92.6691 8.17296 101.61C0.123235 115.165 -4.87735 136.795 7.3192 136.795ZM8.17296 124.682C8.17296 117.616 15.7348 103.34 24.2724 92.9575C24.2724 96.4183 18.1741 111.848 14.6371 119.491C12.6857 123.673 8.17296 130.306 8.17296 124.682Z" fill="#B83A48"/>
<path d="M87.2833 85.0263C89.8446 85.0263 91.3082 83.2959 90.5764 77.3836C88.8689 63.3959 90.5764 53.8785 93.7475 38.593C94.9672 32.9691 91.6741 26.9126 86.0637 25.9032C71.6718 23.4517 58.6214 46.38 55.8162 67.4336C54.9625 73.6343 56.67 81.277 61.1827 83.2959C65.2076 85.1705 68.9885 81.7097 72.2816 77.8162C76.3064 73.0575 80.4533 64.1169 82.0388 61.8097L81.9169 70.1734C81.9169 73.4901 81.9169 76.3742 82.6487 80.7002C83.1365 84.1611 84.844 85.0263 87.2833 85.0263ZM64.1099 72.7691C63.5001 72.7691 63.744 68.7314 64.1099 66.8568C66.3053 55.8974 69.9642 46.5242 76.4284 39.6025C78.9897 36.8626 81.6729 35.5648 84.6001 35.5648C85.3319 35.5648 85.9417 36.2858 85.3319 37.0068C80.2093 43.0633 67.8908 72.7691 64.1099 72.7691Z" fill="#B83A48"/>
<path d="M99.0673 82.1423C101.873 82.1423 102.848 79.4024 104.068 76.5184C108.337 66.4242 113.581 56.4742 121.631 45.659C123.338 43.3517 125.168 41.3329 127.241 39.4583C130.778 36.1416 132.974 34.267 131.998 38.1604C131.388 40.3235 130.656 42.6307 129.925 44.6496C126.632 53.7343 123.582 63.5401 121.143 73.4901C119.923 78.393 120.289 81.1328 123.582 81.8539C126.997 82.5749 128.095 80.1234 128.949 76.23C130.412 69.3082 133.706 59.214 138.95 43.9285C140.902 38.1604 142.609 30.3735 138.706 26.7684C137.121 25.3264 134.925 24.8938 132.12 25.759C125.046 28.0662 119.192 34.1228 113.703 41.7655L111.874 44.2169C112.362 42.3423 112.971 40.4677 113.581 38.593C115.289 33.1133 115.533 32.3923 115.533 30.8061C115.533 28.643 114.435 27.0568 112.849 26.3358C108.337 24.4612 106.385 32.8249 103.58 42.6307C100.287 53.7343 97.1159 63.6843 95.5303 73.2017C94.6766 77.9604 94.9205 82.1423 99.0673 82.1423Z" fill="#B83A48"/>
<path d="M167.913 84.4495C170.596 84.4495 171.816 82.4307 171.816 78.5372C171.816 72.3365 173.036 66.1358 174.499 59.935C176.573 51.2829 179.5 42.9191 182.549 33.8343C184.013 29.6525 185.232 25.1822 181.817 23.3075C180.11 22.2981 178.036 22.8749 176.695 24.7496C174.499 27.7778 169.621 37.872 165.108 47.101C159.985 57.3394 152.179 72.4807 148.642 72.4807C146.935 72.4807 152.18 49.6966 154.741 42.0539C155.717 38.7372 159.132 30.5177 158.888 27.6336C158.644 23.596 154.619 22.1539 152.545 24.6054C149.618 28.0662 145.227 43.6401 143.154 52.5807C140.471 64.6937 137.91 78.1046 144.496 82.5749C148.521 85.0263 152.667 82.7191 156.448 78.5372C158.644 76.23 160.351 73.0575 162.912 69.164L164.742 66.4242L164.376 70.3176C163.888 75.2205 163.4 79.9792 164.742 82.1423C165.596 83.5843 166.693 84.4495 167.913 84.4495Z" fill="#B83A48"/>
<path d="M211.155 85.0263C213.716 85.0263 215.179 83.2959 214.448 77.3836C212.74 63.3959 214.448 53.8785 217.619 38.593C218.838 32.9691 215.545 26.9126 209.935 25.9032C195.543 23.4517 182.493 46.38 179.688 67.4336C178.834 73.6343 180.541 81.277 185.054 83.2959C189.079 85.1705 192.86 81.7097 196.153 77.8162C200.178 73.0575 204.325 64.1169 205.91 61.8097L205.788 70.1734C205.788 73.4901 205.788 76.3742 206.52 80.7002C207.008 84.1611 208.715 85.0263 211.155 85.0263ZM187.981 72.7691C187.371 72.7691 187.615 68.7314 187.981 66.8568C190.177 55.8974 193.836 46.5242 200.3 39.6025C202.861 36.8626 205.544 35.5648 208.471 35.5648C209.203 35.5648 209.813 36.2858 209.203 37.0068C204.081 43.0633 191.762 72.7691 187.981 72.7691Z" fill="#B83A48"/>
<path d="M237.818 96.5625C240.136 96.5625 242.331 93.9669 241.477 90.3618C240.746 87.3336 241.233 84.4495 241.843 81.7097C244.526 69.5966 246.722 68.5872 249.771 57.9162C250.259 56.1858 251.113 54.0227 251.113 51.7155C251.113 46.8126 247.82 43.0633 243.673 43.9285C243.307 43.9285 240.258 44.7938 240.258 44.7938C240.258 44.6496 243.795 38.3046 244.648 33.1133C245.502 28.0662 246.356 22.5865 242.453 19.4141C240.746 18.1162 238.794 17.8278 236.599 18.5489C230.866 20.4235 224.524 30.6619 222.451 39.4583C220.987 45.3706 220.865 50.9945 224.158 54.8879C228.915 60.5119 233.184 58.2046 241.233 54.7437C241.721 54.4553 241.965 55.0321 241.843 55.609C241.965 54.8879 235.745 72.1923 235.013 74.7879C233.306 80.9886 231.598 88.9198 233.915 93.5343C234.891 95.4089 236.233 96.5625 237.818 96.5625ZM230.135 43.6401C231.11 38.1604 232.33 34.8438 236.355 30.0851C236.843 29.5083 236.843 29.6525 236.721 30.3735C235.501 36.43 233.306 40.9003 230.135 43.6401Z" fill="#B83A48"/>
<path d="M260.273 136.651C264.786 136.651 269.054 133.623 271.616 129.152C278.446 117.328 281.251 106.368 292.838 50.8503C295.399 37.7278 298.082 30.0851 293.57 27.201C289.545 24.7496 285.398 32.5365 280.763 41.9097C279.422 44.5053 273.201 56.9068 271.128 60.3677C268.932 64.1169 267.347 67.001 264.908 69.885C263.932 71.0387 264.42 67.001 264.542 65.9916C266.249 52.0039 269.664 43.3517 272.469 30.9503C273.079 28.3546 271.982 25.759 270.03 24.8938C268.079 24.0286 266.127 25.3264 264.908 27.7778C264.42 28.643 260.029 45.8032 258.687 51.5713C256.248 62.2423 253.687 78.393 260.761 81.5655C264.786 83.2959 268.323 79.9792 271.494 75.7973C273.933 72.7691 276.128 69.164 278.69 64.2611C280.153 61.3771 281.739 58.7814 283.202 56.0416C281.617 64.6937 277.958 82.2865 277.348 84.4495C277.104 85.4589 276.982 86.0357 276.25 86.3241C263.566 91.227 249.052 111.704 251.247 127.278C251.979 132.325 255.15 136.651 260.273 136.651ZM259.175 123.528C259.297 116.751 265.273 103.628 273.323 98.8698C275.884 97.2836 268.567 116.463 265.761 122.231C263.688 126.413 259.175 129.297 259.175 123.528Z" fill="#B83A48"/>
</svg>
