<svg width="296" height="91" viewBox="0 0 296 91" fill="none" xmlns="http://www.w3.org/2000/svg">
<path d="M5.44918 90.6911C11.5028 90.6911 16.8202 83.3286 19.5197 75.8843C20.5832 73.0211 21.4831 70.4033 23.9372 62.8772C25.4915 58.2143 25.4916 58.2143 29.3364 55.0239C31.4634 53.2241 39.8893 47.4978 40.3802 47.0887C41.4436 46.2707 41.6891 44.6346 41.0346 43.5711C39.4803 40.9533 37.0261 42.8348 33.0995 45.4526C31.8724 46.2707 28.5184 49.2157 28.1911 48.8885C27.7003 48.3976 29.3364 42.5894 29.4182 39.808C29.5 38.0901 29.5818 36.2086 28.3547 34.7361C27.6185 33.8362 27.2095 32.9364 26.8004 32.0365C25.4915 29.2551 23.1192 27.8644 20.0106 28.1098C12.4027 28.7643 3.97668 40.0534 0.949868 49.5429C-1.01347 55.4329 0.949868 61.2411 6.59445 59.6868C8.63959 59.1142 12.1572 56.251 14.0388 54.3694C16.4929 51.9153 22.792 43.8983 23.2828 43.4075C23.2828 43.3257 23.5282 43.1621 23.2828 44.2255C22.5465 47.2523 21.8103 50.6064 20.9922 53.715C20.665 55.0239 20.0106 56.0873 19.0289 57.1508C16.902 59.5232 14.1206 62.0592 11.6664 64.7587C6.51265 70.4033 0.786257 78.1749 0.0500066 84.3921C-0.359022 87.5825 1.76792 90.6911 5.44918 90.6911ZM6.26723 53.715C5.28556 54.3694 5.8582 52.2425 6.26723 51.0154C8.55779 44.1437 13.7115 36.3722 19.2743 33.918C20.7468 33.2636 21.2377 33.6726 21.6467 34.2452C22.4647 35.3087 22.0557 35.8814 20.3378 38.1719C18.2927 40.9533 16.0021 43.8165 13.7933 46.5979C11.1756 49.7883 9.45765 51.4244 6.26723 53.715ZM5.7764 84.9647C4.63112 83.8194 8.55779 77.4386 11.1756 74.0846C12.7299 72.0394 16.0021 67.9492 16.6565 67.5401C15.184 72.0394 13.5479 77.0296 10.6029 81.2017C9.62126 82.6742 6.43084 85.6192 5.7764 84.9647Z" fill="#C69C3C"/>
<path d="M43.3833 60.9957C47.0646 60.9957 51.4821 58.1325 54.1817 54.4512C58.0265 49.1339 59.3354 43.8983 58.1083 38.4991C57.4539 35.6359 56.3086 31.8729 52.3819 30.564C52.1365 30.4822 51.8911 30.3186 51.7275 30.0732C48.7007 27.0464 44.6922 29.5005 41.42 33.509C37.7387 38.0083 35.6118 43.4075 35.6118 51.5062C35.6118 56.1692 38.3932 60.9957 43.3833 60.9957ZM43.7924 55.4329C41.9108 55.6783 41.0928 53.9604 41.0928 52.2425C41.0928 46.1071 44.8558 34.4907 48.7007 34.4907C50.9912 34.4907 53.0364 39.3172 53.0364 43.2439C53.0364 48.4794 48.2099 54.9421 43.7924 55.4329Z" fill="#C69C3C"/>
<path d="M68.7239 60.9957C72.4051 60.9957 76.8226 58.1325 79.5222 54.4512C83.3671 49.1339 84.676 43.8983 83.4489 38.4991C82.7945 35.6359 81.6492 31.8729 77.7225 30.564C77.4771 30.4822 77.2317 30.3186 77.0681 30.0732C74.0413 27.0464 70.0328 29.5005 66.7606 33.509C63.0793 38.0083 60.9524 43.4075 60.9524 51.5062C60.9524 56.1692 63.7338 60.9957 68.7239 60.9957ZM69.1329 55.4329C67.2514 55.6783 66.4333 53.9604 66.4333 52.2425C66.4333 46.1071 70.1964 34.4907 74.0413 34.4907C76.3318 34.4907 78.377 39.3172 78.377 43.2439C78.377 48.4794 73.5504 54.9421 69.1329 55.4329Z" fill="#C69C3C"/>
<path d="M103.636 61.4865C105.681 61.4865 106.581 59.8504 106.172 57.2326C105.763 54.3694 106.008 51.4244 106.172 48.9703C106.253 47.4978 106.744 46.2707 107.562 45.1254L111.816 39.1536C117.952 30.4822 122.369 22.9561 124.987 13.9575C125.723 11.3397 125.723 8.06745 123.596 6.67676C120.079 4.46801 115.907 8.55829 112.962 12.4032C108.789 17.8023 107.89 21.4018 104.945 28.6825C104.454 29.7459 104.454 29.7459 103.39 29.5823C100.445 29.0915 97.6639 29.8277 95.1279 32.0365C88.8289 37.4357 83.7569 48.3976 84.8204 55.8419C85.3113 59.7686 88.9107 62.0592 92.9192 60.1776C95.2097 59.0323 96.355 57.9689 100.445 54.3694C100.854 57.7235 100.773 61.4865 103.636 61.4865ZM109.362 32.9364C111.734 25.3284 115.907 15.1027 119.261 13.6302C119.261 15.2663 116.561 21.1563 114.434 24.7558C112.634 27.7008 110.18 31.7093 109.689 32.4455L109.362 32.9364ZM90.465 55.0239C89.8106 54.7785 90.056 52.3243 90.465 50.8518C91.5285 46.5161 93.3282 42.6712 95.7824 39.3172C96.9277 37.7629 98.4002 36.1268 100.445 35.2269C101.754 34.6543 102.572 36.2086 102.245 38.6628C101.754 42.0986 101.836 44.0619 99.4636 46.6797C94.5553 52.3243 91.3649 55.5147 90.465 55.0239Z" fill="#C69C3C"/>
<path d="M149.07 63.8589C151.606 63.8589 153.57 60.5048 155.369 56.0055C157.987 50.1155 163.305 38.3355 163.305 38.3355C163.305 38.3355 163.714 39.2354 164.613 40.6261C166.413 43.4075 168.213 45.5344 171.322 46.5979C173.939 47.4978 178.357 47.7432 178.357 44.7164C178.357 42.2622 176.23 41.7714 174.348 41.7714C171.567 41.7714 169.358 39.9716 168.131 35.7177C166.904 31.5457 166.004 29.0915 164.041 28.6007C162.977 28.3552 161.914 28.9279 161.178 29.9096C160.196 31.2184 158.642 34.7361 157.169 38.0083C156.842 38.8264 152.343 48.8066 152.015 49.4611L151.116 51.4244C150.788 48.234 151.606 37.7629 151.606 33.2636C151.606 31.0548 151.034 28.7643 148.498 28.7643C146.534 28.7643 146.125 30.4004 146.125 32.2819C146.044 37.1903 145.88 39.9716 145.798 41.7714C145.553 51.2608 144.489 63.8589 149.07 63.8589Z" fill="#C69C3C"/>
<path d="M183.231 19.5202C184.622 19.5202 185.849 18.2932 185.849 16.8207C185.849 15.5118 184.622 14.3665 183.231 14.3665C181.84 14.3665 180.695 15.5936 180.695 16.9843C180.695 18.375 181.84 19.5202 183.231 19.5202ZM173.087 62.0592C174.969 62.0592 175.378 60.3412 175.787 58.5415C177.096 52.6515 178.404 46.7615 180.204 41.2805C181.022 38.7446 182.577 33.1 182.577 31.9547C182.577 30.4004 181.513 29.2551 180.122 29.0097C177.423 28.6825 177.177 31.2184 176.277 34.4089L174.805 39.808C173.332 45.2072 171.451 50.6882 170.551 56.1692C170.06 59.196 169.978 62.0592 173.087 62.0592Z" fill="#C69C3C"/>
<path d="M183.992 62.7136C184.892 62.7136 186.037 61.9773 186.364 61.4865C186.691 60.9957 187.1 60.9139 187.837 61.1593C190.782 62.141 193.645 61.4865 195.772 60.7503C204.525 57.8053 212.215 50.2791 214.342 40.7079C215.814 33.8362 214.669 27.8644 208.288 27.8644C206.243 27.8644 203.871 29.0097 203.871 29.0097C203.871 29.0097 203.871 28.8461 204.116 28.437C204.525 27.7008 206.243 24.8376 207.143 22.8743C209.515 17.3115 212.133 8.96732 210.824 4.95884C209.761 1.76842 207.061 0.214115 204.198 1.27759C200.026 2.9137 196.263 7.98565 193.727 12.8122C188.409 23.0379 186.855 32.0365 183.91 46.1071C181.865 55.5147 179.738 62.7136 183.992 62.7136ZM192.009 34.4907C192.009 31.3821 196.426 19.4384 198.799 15.0209C200.353 12.0759 204.198 6.84037 205.425 6.84037C206.243 6.84037 205.507 11.2579 204.607 14.3665C202.889 20.3383 196.017 31.6275 192.009 34.4907ZM193.072 55.8419C191.763 56.251 189.391 56.3328 189.146 55.5965C188.409 53.7968 197.326 42.2622 201.089 38.2537C202.971 36.2904 206.161 33.3454 208.288 33.3454C210.988 33.3454 208.533 43.1621 205.916 46.6797C202.562 51.179 198.226 54.3694 193.072 55.8419Z" fill="#C69C3C"/>
<path d="M224.449 61.6501C229.194 61.6501 237.129 56.0873 237.538 52.1607C237.538 50.8518 236.965 49.6247 235.166 49.6247C232.057 49.7065 228.376 56.3328 224.695 56.251C222.159 56.251 220.85 53.306 221.177 49.8701C221.259 49.0521 221.586 48.7248 222.322 48.4794C226.903 46.9251 230.912 44.3891 234.757 39.5626C235.984 38.0083 236.884 36.2904 237.293 34.4907C238.356 30.155 235.248 26.4737 230.83 26.6373C222.649 27.0464 215.451 41.8532 215.696 52.4061C215.86 57.069 219.295 61.6501 224.449 61.6501ZM223.631 42.0986C223.468 42.1804 223.14 42.2622 223.304 41.8532C225.022 38.4173 226.413 35.7178 228.458 33.6726C230.012 32.1183 231.893 31.6275 231.893 33.0182C231.893 35.6359 227.394 40.2171 223.631 42.0986Z" fill="#C69C3C"/>
<path d="M252.634 69.0126C254.189 69.0126 255.661 67.5401 255.089 65.495C254.598 63.7771 254.925 62.141 255.334 60.5867C257.134 53.715 258.606 53.1423 260.651 47.0887C260.979 46.1071 261.551 44.88 261.551 43.5711C261.551 40.7897 259.342 38.6628 256.561 39.1536C256.316 39.1536 254.27 39.6444 254.27 39.6444C254.27 39.5626 256.643 35.9632 257.216 33.0182C257.788 30.155 258.361 27.0464 255.743 25.2466C254.598 24.5104 253.289 24.3468 251.816 24.7558C247.971 25.8193 243.718 31.6275 242.327 36.6176C241.345 39.9716 241.263 43.1621 243.472 45.3708C246.663 48.5612 249.526 47.2523 254.925 45.289C255.252 45.1254 255.416 45.4526 255.334 45.7798C255.416 45.3708 251.244 55.1875 250.753 56.66C249.608 60.1776 248.462 64.6769 250.017 67.2947C250.671 68.3582 251.571 69.0126 252.634 69.0126ZM247.481 38.99C248.135 35.8814 248.953 33.9998 251.653 31.3002C251.98 30.973 251.98 31.0548 251.898 31.4639C251.08 34.8997 249.608 37.4357 247.481 38.99Z" fill="#C69C3C"/>
<path d="M273.258 61.8955C280.866 61.8955 286.511 57.7235 290.274 51.5062C293.219 46.5979 296 38.5809 296 33.918C296 30.8094 295.346 28.1098 292.891 27.4554C291.992 27.21 290.928 27.2918 290.11 27.8644C289.537 28.2734 278.575 37.6811 278.575 37.6811C277.267 38.6628 275.876 39.399 274.322 39.8898C268.922 41.5259 263.932 44.9618 262.132 49.7065C259.678 56.4964 264.996 61.8955 273.258 61.8955ZM286.592 38.6628C286.429 38.6628 286.265 38.5809 286.511 38.3355C287.901 36.9448 288.392 36.6176 289.456 35.5541C290.519 34.4907 290.355 35.0633 290.192 36.2086C289.783 39.3172 288.637 38.6628 286.592 38.6628ZM272.604 56.3328C269.086 56.4964 266.223 54.3694 267.368 51.4244C268.431 48.8066 271.622 46.5161 275.14 45.3708C278.003 44.3891 287.574 43.5711 287.574 44.5528C287.574 45.2072 286.183 47.7432 285.611 48.643C282.584 53.6332 278.412 56.0055 272.604 56.3328Z" fill="#C69C3C"/>
</svg>
