<svg width="888" height="273" viewBox="0 0 888 273" fill="none" xmlns="http://www.w3.org/2000/svg">
<g clip-path="url(#clip0_1105_1977)">
<path d="M16.3475 272.073C34.5084 272.073 50.4606 249.986 58.5591 227.653C61.7496 219.063 64.4493 211.21 71.8116 188.631C76.4745 174.643 76.4748 174.643 88.0092 165.072C94.3902 159.672 119.668 142.493 121.141 141.266C124.331 138.812 125.067 133.904 123.104 130.713C118.441 122.86 111.078 128.504 99.2985 136.358C95.6172 138.812 85.5552 147.647 84.5733 146.665C83.1009 145.193 88.0092 127.768 88.2546 119.424C88.5 114.27 88.7454 108.626 85.0641 104.208C82.8555 101.508 81.6285 98.809 80.4012 96.1093C76.4745 87.7651 69.3576 83.593 60.0318 84.3292C37.2081 86.2927 11.93 120.16 2.8496 148.629C-3.04041 166.299 2.8496 183.723 19.7833 179.06C25.9188 177.342 36.4716 168.753 42.1164 163.108C49.4787 155.746 68.376 131.695 69.8484 130.222C69.8484 129.977 70.5846 129.486 69.8484 132.676C67.6395 141.757 65.4309 151.819 62.9766 161.145C61.995 165.072 60.0318 168.262 57.0867 171.452C50.706 178.569 42.3618 186.177 34.9992 194.276C19.538 211.21 2.35877 234.525 0.15002 253.176C-1.07707 262.747 5.30376 272.073 16.3475 272.073ZM18.8017 161.145C15.8567 163.108 17.5746 156.727 18.8017 153.046C25.6734 132.431 41.1345 109.116 57.8229 101.754C62.2404 99.7906 63.7131 101.018 64.9401 102.735C67.3941 105.926 66.1671 107.644 61.0134 114.516C54.8781 122.86 48.0063 131.449 41.3799 139.794C33.5268 149.365 28.3729 154.273 18.8017 161.145ZM17.3292 254.894C13.8934 251.458 25.6734 232.316 33.5268 222.254C38.1897 216.118 48.0063 203.847 49.9695 202.62C45.552 216.118 40.6437 231.089 31.8087 243.605C28.8638 248.022 19.2925 256.857 17.3292 254.894Z" fill="#C69C3C"/>
<path d="M130.148 182.988C141.192 182.988 154.445 174.398 162.544 163.354C174.078 147.402 178.005 131.696 174.323 115.498C172.36 106.908 168.924 95.6194 157.144 91.6927C156.408 91.4473 155.672 90.9565 155.181 90.2203C146.101 81.1399 134.075 88.5022 124.259 100.528C113.215 114.026 106.834 130.223 106.834 154.519C106.834 168.508 115.178 182.988 130.148 182.988ZM131.376 166.299C125.731 167.036 123.277 161.882 123.277 156.728C123.277 138.322 134.566 103.473 146.101 103.473C152.972 103.473 159.108 117.952 159.108 129.732C159.108 145.439 144.628 164.827 131.376 166.299Z" fill="#C69C3C"/>
<path d="M206.171 182.988C217.215 182.988 230.467 174.398 238.566 163.354C250.101 147.402 254.027 131.696 250.346 115.498C248.383 106.908 244.947 95.6194 233.167 91.6927C232.431 91.4473 231.694 90.9565 231.204 90.2203C222.123 81.1399 210.098 88.5022 200.281 100.528C189.237 114.026 182.856 130.223 182.856 154.519C182.856 168.508 191.201 182.988 206.171 182.988ZM207.398 166.299C201.753 167.036 199.299 161.882 199.299 156.728C199.299 138.322 210.588 103.473 222.123 103.473C228.995 103.473 235.13 117.952 235.13 129.732C235.13 145.439 220.65 164.827 207.398 166.299Z" fill="#C69C3C"/>
<path d="M310.908 184.46C317.043 184.46 319.743 179.551 318.516 171.698C317.289 163.108 318.024 154.273 318.516 146.911C318.759 142.493 320.232 138.812 322.686 135.376L335.448 117.461C353.856 91.4466 367.107 68.8683 374.961 41.8725C377.169 34.0191 377.169 24.2024 370.788 20.0303C360.237 13.4041 347.721 25.6749 338.886 37.2096C326.367 53.4069 323.67 64.2054 314.835 86.0475C313.362 89.2377 313.362 89.2377 310.17 88.7469C301.335 87.2745 292.992 89.4831 285.384 96.1095C266.487 112.307 251.271 145.193 254.461 167.526C255.934 179.306 266.732 186.178 278.757 180.533C285.629 177.097 289.065 173.907 301.335 163.108C302.562 173.171 302.319 184.46 310.908 184.46ZM328.086 98.8092C335.202 75.9852 347.721 45.3081 357.783 40.8906C357.783 45.7989 349.683 63.4689 343.302 74.2674C337.902 83.1024 330.54 95.1279 329.067 97.3365L328.086 98.8092ZM271.395 165.072C269.432 164.336 270.168 156.973 271.395 152.555C274.585 139.548 279.984 128.014 287.347 117.952C290.783 113.289 295.2 108.38 301.335 105.681C305.262 103.963 307.716 108.626 306.735 115.988C305.262 126.296 305.508 132.186 298.391 140.039C283.666 156.973 274.095 166.544 271.395 165.072Z" fill="#C69C3C"/>
<path d="M447.21 191.577C454.818 191.577 460.71 181.514 466.107 168.016C473.961 150.346 489.915 115.006 489.915 115.006C489.915 115.006 491.142 117.706 493.839 121.878C499.239 130.222 504.639 136.603 513.966 139.794C521.817 142.493 535.071 143.229 535.071 134.149C535.071 126.786 528.69 125.314 523.044 125.314C514.701 125.314 508.074 119.915 504.393 107.153C500.712 94.637 498.012 87.2744 492.123 85.802C488.931 85.0655 485.742 86.7836 483.534 89.7287C480.588 93.6551 475.926 104.208 471.507 114.025C470.526 116.479 457.029 146.42 456.045 148.383L453.348 154.273C452.364 144.702 454.818 113.289 454.818 99.7907C454.818 93.1643 453.102 86.2928 445.494 86.2928C439.602 86.2928 438.375 91.2011 438.375 96.8456C438.132 111.571 437.64 119.915 437.394 125.314C436.659 153.782 433.467 191.577 447.21 191.577Z" fill="#C69C3C"/>
<path d="M549.694 58.5597C553.867 58.5597 557.548 54.8787 557.548 50.4612C557.548 46.5345 553.867 43.0986 549.694 43.0986C545.521 43.0986 542.086 46.7799 542.086 50.952C542.086 55.1241 545.521 58.5597 549.694 58.5597ZM519.262 186.177C524.908 186.177 526.135 181.023 527.362 175.624C531.289 157.954 535.213 140.284 540.613 123.841C543.067 116.233 547.732 99.2991 547.732 95.8632C547.732 91.2003 544.54 87.7644 540.367 87.0282C532.27 86.0466 531.532 93.6543 528.832 103.226L524.416 119.423C519.997 135.621 514.354 152.064 511.654 168.507C510.181 177.587 509.935 186.177 519.262 186.177Z" fill="#C69C3C"/>
<path d="M551.975 188.142C554.675 188.142 558.11 185.933 559.091 184.461C560.072 182.989 561.299 182.743 563.51 183.479C572.345 186.424 580.934 184.461 587.315 182.252C613.574 173.417 636.644 150.839 643.025 122.125C647.441 101.51 644.006 83.5947 624.863 83.5947C618.728 83.5947 611.612 87.0306 611.612 87.0306C611.612 87.0306 611.612 86.5398 612.347 85.3125C613.574 83.1039 618.728 74.5143 621.428 68.6244C628.544 51.936 636.398 26.9034 632.471 14.878C629.282 5.30672 621.182 0.643806 612.593 3.83423C600.077 8.74256 588.788 23.9584 581.18 38.4381C565.226 69.1152 560.564 96.111 551.729 138.323C545.594 166.546 539.213 188.142 551.975 188.142ZM576.026 103.474C576.026 94.1478 589.277 58.3167 596.396 45.0642C601.058 36.2292 612.593 20.5226 616.274 20.5226C618.728 20.5226 616.52 33.7752 613.82 43.101C608.666 61.0164 588.05 94.884 576.026 103.474ZM579.215 167.527C575.288 168.754 568.172 169 567.437 166.791C565.226 161.392 591.977 126.788 603.266 114.763C608.912 108.873 618.482 100.038 624.863 100.038C632.963 100.038 625.598 129.488 617.747 140.041C607.685 153.538 594.677 163.11 579.215 167.527Z" fill="#C69C3C"/>
<path d="M673.346 184.95C687.581 184.95 711.386 168.261 712.613 156.481C712.613 152.555 710.894 148.873 705.497 148.873C696.17 149.119 685.127 168.998 674.084 168.752C666.476 168.752 662.549 159.917 663.53 149.61C663.776 147.156 664.757 146.174 666.965 145.438C680.708 140.775 692.735 133.167 704.27 118.687C707.951 114.024 710.651 108.871 711.878 103.471C715.067 90.4644 705.743 79.4205 692.489 79.9113C667.946 81.1386 646.352 125.559 647.087 157.218C647.579 171.206 657.884 184.95 673.346 184.95ZM670.892 126.295C670.403 126.541 669.419 126.786 669.911 125.559C675.065 115.251 679.238 107.153 685.373 101.017C690.035 96.3543 695.678 94.8819 695.678 99.054C695.678 106.907 682.181 120.651 670.892 126.295Z" fill="#C69C3C"/>
<path d="M757.902 207.039C762.567 207.039 766.983 202.622 765.267 196.486C763.794 191.333 764.775 186.424 766.002 181.761C771.402 161.146 775.818 159.428 781.953 141.267C782.937 138.323 784.653 134.641 784.653 130.715C784.653 122.37 778.026 115.99 769.683 117.462C768.948 117.462 762.81 118.934 762.81 118.934C762.81 118.689 769.929 107.891 771.648 99.0559C773.364 90.4662 775.083 81.1404 767.229 75.741C763.794 73.5324 759.867 73.0417 755.448 74.2687C743.913 77.4592 731.154 94.8837 726.981 109.854C724.035 119.916 723.789 129.488 730.416 136.114C739.989 145.685 748.578 141.758 764.775 135.868C765.756 135.377 766.248 136.359 766.002 137.341C766.248 136.114 753.732 165.564 752.259 169.981C748.824 180.534 745.386 194.032 750.051 201.885C752.013 205.076 754.713 207.039 757.902 207.039ZM742.443 116.971C744.405 107.645 746.859 102.001 754.959 93.9018C755.94 92.9202 755.94 93.1656 755.694 94.3929C753.24 104.7 748.824 112.308 742.443 116.971Z" fill="#C69C3C"/>
<path d="M819.774 185.686C842.598 185.686 859.533 173.17 870.822 154.518C879.657 139.793 888 115.742 888 101.754C888 92.4279 886.038 84.3291 878.673 82.3659C875.976 81.6297 872.784 81.8751 870.33 83.5929C868.611 84.8199 835.725 113.043 835.725 113.043C831.801 115.988 827.628 118.197 822.966 119.669C806.766 124.577 791.796 134.885 786.396 149.119C779.034 169.489 794.988 185.686 819.774 185.686ZM859.776 115.988C859.287 115.988 858.795 115.742 859.533 115.006C863.703 110.834 865.176 109.853 868.368 106.662C871.557 103.472 871.065 105.19 870.576 108.626C869.349 117.951 865.911 115.988 859.776 115.988ZM817.812 168.998C807.258 169.489 798.669 163.108 802.104 154.273C805.293 146.42 814.866 139.548 825.42 136.112C834.009 133.167 862.722 130.713 862.722 133.658C862.722 135.621 858.549 143.229 856.833 145.929C847.752 160.899 835.236 168.016 817.812 168.998Z" fill="#C69C3C"/>
</g>
<defs>
<clipPath id="clip0_1105_1977">
<rect width="888" height="273" fill="white"/>
</clipPath>
</defs>
</svg>
