<svg width="292" height="253" viewBox="0 0 292 253" fill="none" xmlns="http://www.w3.org/2000/svg">
<path d="M75.3397 65.7734C68.9458 73.5893 50.9791 63.613 41.2504 58.2964C40.6596 57.9735 40.0214 58.5589 40.3157 59.1644C44.7494 68.2848 56.379 85.5874 51.4347 96.7138C46.1688 108.564 18.7178 115.483 1.39058 119.203C0.63112 119.366 0.636622 120.467 1.39599 120.631C33.6091 127.564 50.1224 136.468 52.8409 147.343C54.903 155.593 42.3563 184.165 33.9322 200.246C33.553 200.969 34.5298 201.715 35.1339 201.165C52.8094 185.07 84.6647 160.186 93.6199 169.142C102.309 177.833 102.754 193.375 101.708 201.944C101.622 202.649 102.516 203.089 103.009 202.579C117.011 188.107 128.309 179.04 134.399 180.393C139.168 181.453 142.439 192.373 144.566 198.338C144.74 198.828 145.359 198.965 145.728 198.599C151.583 192.768 162.4 182.546 168.85 189.535C175.369 196.598 168.641 232.649 166.273 252.212C166.192 252.882 166.969 253.257 167.412 252.747C179.878 238.396 202.856 189.432 209.629 186.722C214.727 184.683 222.712 190.383 227.304 194.087C227.796 194.483 228.531 194.106 228.485 193.476C227.771 183.862 226.983 166.707 237.05 161.407C247.017 156.16 268.361 167.43 280.317 173.535C280.972 173.87 281.627 173.113 281.213 172.505C267.266 152.039 257.637 139.362 263.064 132.576C266.752 127.966 281.217 124.171 291.205 121.937C291.932 121.774 291.964 120.75 291.248 120.547C281.159 117.692 266.2 113.119 265.173 102.339C263.767 87.5723 292.594 64.367 291.891 62.2574C291.188 60.1479 255.33 77.7276 244.784 71.3989C239.974 68.5127 241.301 52.2711 242.451 43.4984C242.532 42.878 241.838 42.4518 241.326 42.8106C233.891 48.0156 220.372 57.1713 212.442 52.4128C204.445 47.614 207.186 25.1109 207.494 11.0552C207.509 10.3583 206.626 10.0786 206.224 10.6478C194.508 27.223 180.248 47.3896 165.335 44.6777C150.19 41.9236 142.974 18.7194 139.253 3.70088C139.077 2.9886 138.073 2.96102 137.871 3.66646C132.907 20.9941 125.104 49.6302 111.197 47.4904C97.2378 45.3425 79.8192 16.5414 67.2575 0.472367C66.8001 -0.112662 65.9024 0.307498 66.0541 1.03441C70.6668 23.1371 81.4073 58.3563 75.3397 65.7734Z" fill="#76DC9F"/>
<path d="M42.711 60.7227C47.358 63.2478 53.3688 66.3968 59.091 68.3154C62.4146 69.4297 65.7479 70.1674 68.7261 70.0794C71.7308 69.9907 74.5061 69.0507 76.4465 66.6788C77.4326 65.4733 77.987 63.8277 78.2835 61.9973C78.5833 60.1466 78.641 57.9675 78.5256 55.5683C78.2946 50.7694 77.3597 44.8972 76.1041 38.6301C74.8466 32.3533 73.2553 25.6227 71.695 19.0988C71.5538 18.5087 71.413 17.9203 71.2726 17.3341C70.1565 12.6725 69.0737 8.15 68.1535 3.99068C70.2659 6.79164 72.4981 9.87771 74.8226 13.0915C75.3116 13.7675 75.8046 14.4491 76.3015 15.135C79.9193 20.1286 83.7303 25.33 87.5917 30.1014C91.4488 34.8676 95.3901 39.2476 99.2779 42.5827C103.14 45.8955 107.094 48.3059 110.98 48.9037C115.031 49.5272 118.551 47.868 121.524 45.0138C124.471 42.1842 126.994 38.084 129.179 33.4931C133.133 25.1834 136.148 14.8835 138.516 6.61034C140.359 13.6946 142.965 22.1695 146.741 29.447C150.954 37.5678 156.825 44.5836 165.079 46.0845C173.272 47.5744 181.03 42.746 187.981 35.9153C194.429 29.5781 200.51 21.1909 205.992 13.4525C205.931 15.1126 205.849 16.8745 205.764 18.6959C205.515 24.0621 205.241 29.9438 205.424 35.2547C205.564 39.291 205.967 43.1281 206.877 46.2975C207.779 49.4384 209.249 52.1644 211.706 53.6389C216.33 56.4136 222.309 55.0176 227.648 52.6557C232.48 50.5184 237.232 47.389 240.834 44.8957C240.321 49.1633 239.839 54.7052 239.953 59.6887C240.017 62.4959 240.271 65.195 240.844 67.4134C241.4 69.563 242.341 71.6005 244.048 72.625C245.634 73.5768 247.599 74.0264 249.715 74.1636C251.842 74.3015 254.219 74.1295 256.706 73.7581C261.678 73.0155 267.259 71.4488 272.467 69.7714C276.092 68.6038 279.586 67.3658 282.584 66.3034C283.887 65.8414 285.097 65.4127 286.184 65.0373C287.184 64.6917 288.072 64.394 288.835 64.1547C288.261 64.7868 287.57 65.5193 286.781 66.3459C286.321 66.8273 285.831 67.3379 285.315 67.8746C282.953 70.332 280.064 73.338 277.194 76.6086C273.698 80.5914 270.179 85.0224 267.618 89.4241C265.079 93.7863 263.355 98.329 263.75 102.475C264.331 108.576 268.849 112.74 274.118 115.665C278.517 118.108 283.691 119.829 288.201 121.158C283.772 122.197 278.778 123.499 274.313 125.011C271.615 125.925 269.077 126.928 266.961 128.01C264.877 129.077 263.062 130.29 261.947 131.683C260.285 133.762 259.835 136.255 260.234 139.005C260.626 141.708 261.845 144.739 263.609 148.078C266.533 153.617 271.145 160.342 276.597 168.292C277.198 169.167 277.808 170.058 278.428 170.963C272.747 168.062 265.498 164.431 258.425 161.87C254.334 160.388 250.241 159.241 246.498 158.81C242.774 158.38 239.238 158.639 236.384 160.142C230.734 163.116 228.305 169.318 227.312 175.601C226.418 181.259 226.635 187.322 226.945 191.979C224.781 190.301 222.08 188.389 219.305 186.976C216.058 185.323 212.273 184.124 209.098 185.395C208.43 185.662 207.789 186.154 207.196 186.711C206.586 187.285 205.939 188.013 205.265 188.855C203.917 190.541 202.382 192.783 200.721 195.397C197.397 200.628 193.482 207.484 189.411 214.664C189.026 215.344 188.639 216.026 188.252 216.71C184.533 223.273 180.713 230.015 177.09 236.019C173.798 241.476 170.703 246.263 168.026 249.731C168.398 246.87 168.839 243.719 169.304 240.404C170.379 232.732 171.577 224.182 172.318 216.32C172.901 210.127 173.213 204.265 172.959 199.481C172.831 197.089 172.561 194.923 172.094 193.099C171.632 191.295 170.946 189.698 169.901 188.565C167.995 186.5 165.703 185.674 163.292 185.754C160.952 185.831 158.578 186.756 156.36 188.016C152.324 190.309 148.404 193.953 145.533 196.778C145.434 196.494 145.332 196.199 145.228 195.898C144.289 193.188 143.134 189.853 141.77 186.923C140.908 185.073 139.93 183.307 138.818 181.914C137.723 180.542 136.367 179.366 134.709 178.998C132.777 178.568 130.607 178.995 128.346 179.933C126.066 180.879 123.543 182.409 120.826 184.398C115.74 188.121 109.816 193.574 103.325 200.205C103.682 196.022 103.668 190.695 102.723 185.34C101.629 179.144 99.2628 172.764 94.6311 168.131C91.7979 165.298 87.4046 165.379 82.787 166.732C78.0762 168.112 72.5708 170.968 66.8848 174.55C56.5979 181.029 45.4473 190.061 36.852 197.697C40.7443 190.005 45.1988 180.319 48.6528 171.373C50.6294 166.253 52.2906 161.345 53.3286 157.174C53.8476 155.089 54.2173 153.162 54.3886 151.47C54.558 149.796 54.5437 148.259 54.2281 146.997C52.7208 140.967 47.4684 135.763 38.8427 131.242C30.7466 126.999 19.4479 123.234 4.8082 119.92C12.9635 118.103 22.7853 115.63 31.443 112.344C36.3393 110.486 40.9132 108.35 44.6197 105.896C48.3077 103.455 51.2663 100.614 52.7414 97.2945C55.4773 91.1378 53.5659 83.5184 50.7128 76.639C49.2644 73.1466 47.524 69.7331 45.8814 66.6433C45.3703 65.6817 44.8716 64.7568 44.3942 63.8714C43.7935 62.7573 43.2265 61.7058 42.711 60.7227Z" stroke="black" stroke-opacity="0.1" stroke-width="2.8599"/>
</svg>
