<svg width="888" height="567" viewBox="0 0 888 567" fill="none" xmlns="http://www.w3.org/2000/svg">
<path d="M861.091 0H26.9091C12.0476 0 0 12.0476 0 26.9091V538.183C0 553.044 12.0476 565.092 26.9091 565.092H861.091C875.952 565.092 888 553.044 888 538.183V26.9091C888 12.0476 875.952 0 861.091 0Z" fill="#BABFFC"/>
<path d="M861.091 0H26.9091C12.0476 0 0 12.0476 0 26.9091V538.183C0 553.044 12.0476 565.092 26.9091 565.092H861.091C875.952 565.092 888 553.044 888 538.183V26.9091C888 12.0476 875.952 0 861.091 0Z" fill="black" fill-opacity="0.05"/>
<path fill-rule="evenodd" clip-rule="evenodd" d="M45.7454 167.449C38.3147 167.449 32.291 173.473 32.291 180.904V261.631C32.291 269.062 38.3147 275.086 45.7454 275.086H842.256C849.684 275.086 855.708 269.062 855.708 261.631V180.904C855.708 173.473 849.684 167.449 842.256 167.449H45.7454ZM91.4909 248.027C106.353 248.027 118.4 235.98 118.4 221.118C118.4 206.257 106.353 194.209 91.4909 194.209C76.6295 194.209 64.5818 206.257 64.5818 221.118C64.5818 235.98 76.6295 248.027 91.4909 248.027Z" fill="white" fill-opacity="0.3"/>
<path fill-rule="evenodd" clip-rule="evenodd" d="M45.7454 294.674C38.3147 294.674 32.291 300.699 32.291 308.127V388.857C32.291 396.285 38.3147 402.309 45.7454 402.309H842.256C849.684 402.309 855.708 396.285 855.708 388.857V308.127C855.708 300.699 849.684 294.674 842.256 294.674H45.7454ZM91.4909 375.252C106.353 375.252 118.4 363.204 118.4 348.342C118.4 333.48 106.353 321.435 91.4909 321.435C76.6295 321.435 64.5818 333.48 64.5818 348.342C64.5818 363.204 76.6295 375.252 91.4909 375.252Z" fill="white" fill-opacity="0.3"/>
<path fill-rule="evenodd" clip-rule="evenodd" d="M45.7454 424.857C38.3147 424.857 32.291 430.881 32.291 438.309V519.039C32.291 526.47 38.3147 532.491 45.7454 532.491H842.256C849.684 532.491 855.708 526.47 855.708 519.039V438.312C855.708 430.881 849.684 424.857 842.256 424.857H45.7454ZM91.4909 505.434C106.353 505.434 118.4 493.386 118.4 478.524C118.4 463.662 106.353 451.617 91.4909 451.617C76.6295 451.617 64.5818 463.662 64.5818 478.524C64.5818 493.386 76.6295 505.434 91.4909 505.434Z" fill="white" fill-opacity="0.3"/>
<path d="M46.8891 100.199C46.308 99.9403 45.7914 99.4237 45.5976 98.7778C45.3393 98.1319 45.4683 97.228 45.4038 96.5176C45.4038 93.2884 45.4683 90.0592 45.4683 86.8303C45.5331 82.9552 45.5976 79.0804 45.6621 75.1408C45.8559 62.2891 46.0497 51.4393 46.1142 50.9872L46.2435 50.2123L44.4351 50.3416C39.7206 50.5999 33.327 50.5999 32.6166 50.3416C31.7124 50.083 30.873 48.9208 30.873 48.0166C30.873 46.7896 31.5834 45.9499 33.0687 45.4978C33.9084 45.304 61.8075 44.7874 63.2931 44.9812C64.7784 45.2395 66.393 46.402 66.0699 48.1456C65.8116 49.6312 64.5201 49.954 63.2283 50.083C61.4847 50.2123 59.6763 50.1478 57.9327 50.2123L51.4098 50.3416L51.2808 53.6998C51.2163 55.5727 51.0225 66.4222 50.8932 77.7241C50.6994 93.6112 50.5704 98.5195 50.3121 99.0361C49.7307 100.457 48.1164 100.78 46.8891 100.199ZM84.3039 62.4184C89.4057 67.1326 91.6662 76.1743 89.9223 84.8281C89.9223 84.9574 89.8578 85.0219 89.8578 85.1512C88.3077 92.5135 82.6245 101.619 73.7769 99.6175C70.9353 98.9716 68.6751 97.1632 66.9957 94.903C60.1503 85.7968 61.5063 69.1348 69.7083 62.2246C74.2935 58.3495 79.9122 58.4143 84.3039 62.4184ZM84.9495 82.9552C85.4016 80.3074 85.2726 75.9805 84.6267 73.3972C83.658 69.6514 81.5268 66.3577 79.2018 65.26C74.8749 63.064 70.1604 67.3912 68.352 75.1408C67.0605 80.824 67.5771 88.9615 72.3561 92.9656C79.2663 98.7778 83.9808 88.4446 84.9495 82.9552ZM124.564 73.4617C125.21 77.4013 125.081 82.3741 124.241 85.7968C123.143 90.124 121.012 94.5799 117.202 97.0987C113.004 99.811 107.256 99.1006 103.252 96.5821C102.542 96.13 101.896 95.8072 101.831 95.8717C101.767 95.9362 101.702 102.072 101.702 109.498C101.702 121.317 101.637 123.061 101.315 123.642C100.475 125.515 97.5042 125.579 96.8583 123.513C96.6645 122.931 96.6645 122.157 96.6645 121.575C96.471 118.346 96.5355 115.117 96.5355 111.888C96.471 105.494 96.5355 91.7383 96.6645 81.2116C96.8583 63.5161 96.8583 62.1598 97.2459 61.4494C97.9563 60.0286 99.6999 59.6413 100.992 60.5455C101.767 61.0621 102.089 62.0953 102.089 64.0327V65.7766L103.833 64.162C105.771 62.2891 107.514 61.0621 109.323 60.3517C111.971 59.3182 115.135 59.7703 117.589 61.1911C121.658 63.5161 123.725 69.0703 124.564 73.4617ZM113.133 93.0946C114.166 92.7718 115.135 92.1904 115.975 91.2862C119.268 87.799 120.173 82.3741 119.849 77.7886C119.591 73.9783 118.429 68.1661 115.006 65.8411C113.133 64.6141 110.679 65.389 109.064 66.5515C106.417 68.4889 104.479 71.5243 103.058 74.4304L101.896 76.6909V82.6324V88.6384L103.704 90.253C106.287 92.578 109.969 94.1278 113.133 93.0946ZM166.828 58.8664C168.313 64.6786 167.603 70.9432 164.051 75.8512C160.692 80.5657 155.397 83.02 149.907 84.3115L148.357 84.6991V88.9615C148.357 91.351 148.487 94.3216 148.616 95.6779C148.809 98.3257 148.68 98.9071 147.582 99.7465C147.001 100.199 145.645 100.328 144.805 99.9403C143.772 99.4237 143.514 98.6488 143.255 94.4509C142.803 87.4114 143.449 53.9581 144.095 49.2436C144.353 47.7583 145.128 46.1437 146.033 45.5623C146.807 45.0457 151.974 45.1102 153.911 45.6271C160.241 47.3707 165.084 52.3435 166.828 58.8664ZM162.049 67.3912C163.276 60.8038 160.111 53.1832 153.395 50.9872C152.426 50.5999 151.328 50.4061 150.553 50.4061H149.261L149.132 52.408C148.68 59.5768 148.228 79.3387 148.551 79.3387C148.68 79.3387 149.52 79.0804 150.424 78.8221C152.943 77.9824 155.461 76.8847 157.528 75.2056C159.982 73.2034 161.468 70.4263 162.049 67.3912ZM173.938 98.7778C173.293 98.455 172.841 97.6798 172.582 96.6466C172.517 96.259 172.582 93.7405 172.711 91.0279C172.841 88.2511 172.97 80.6302 173.099 73.9783C173.293 60.9976 173.293 60.9328 174.455 60.0286C175.747 59.0599 177.426 59.3182 178.201 60.6745C178.588 61.3204 178.653 61.5787 178.524 64.8724C178.459 67.7785 178.459 68.2951 178.717 67.9723C180.719 65.0662 181.753 63.7099 183.044 62.4829C185.176 60.5455 188.082 59.2537 191.053 59.3182C192.538 59.3182 193.959 59.6413 195.25 60.3517C196.413 60.9976 197.898 61.9015 198.092 63.3223C198.157 63.7099 198.157 64.0975 198.027 64.4848C197.64 65.5183 196.929 66.1639 195.832 66.2932C195.056 66.3577 194.734 66.2932 193.636 65.5183C191.182 63.8392 188.017 64.8079 186.144 66.8743C184.336 68.8765 182.98 71.0722 181.946 73.591C181.753 74.1076 181.559 74.6887 181.301 75.2056C179.105 81.2761 178.007 86.9593 178.007 93.0301C178.007 96.9049 177.813 97.8091 176.909 98.584C176.199 99.1654 174.842 99.2944 173.938 98.7778ZM204.089 99.2299C203.573 98.9716 203.056 98.584 202.927 98.0029C202.798 97.6798 202.733 97.228 202.733 96.8404C202.604 95.2258 202.669 93.5467 202.669 91.8676C202.798 80.1784 203.185 63.9037 203.379 62.4184C203.573 61.1266 203.637 60.8683 204.348 60.2224C205.51 59.1247 207.254 59.383 208.158 60.739C208.546 61.3849 208.61 63.7744 208.352 67.843C208.287 68.812 208.158 75.8512 208.094 83.4073C208.029 87.0238 208.029 90.7051 207.835 94.3216C207.835 95.5486 207.9 97.0342 207.448 98.1967C207.06 99.1654 205.704 99.5527 204.735 99.4237C204.542 99.3592 204.283 99.2944 204.089 99.2299ZM204.864 54.9913C204.8 54.9268 204.671 54.8623 204.542 54.7975C202.991 53.7643 203.121 51.5038 204.671 50.4706C205.381 50.0185 206.608 50.083 207.319 50.4706C207.964 50.8582 208.352 51.5038 208.481 52.2142C208.739 53.8288 207.706 55.2496 206.027 55.2496C205.64 55.2496 205.252 55.1851 204.864 54.9913ZM235.604 62.4184C240.706 67.1326 242.967 76.1743 241.223 84.8281C241.223 84.9574 241.158 85.0219 241.158 85.1512C239.609 92.5135 233.925 101.619 225.077 99.6175C222.236 98.9716 219.976 97.1632 218.297 94.903C211.451 85.7968 212.807 69.1348 221.009 62.2246C225.594 58.3495 231.213 58.4143 235.604 62.4184ZM236.25 82.9552C236.702 80.3074 236.573 75.9805 235.927 73.3972C234.959 69.6514 232.827 66.3577 230.502 65.26C226.175 63.064 221.461 67.3912 219.653 75.1408C218.361 80.824 218.878 88.9615 223.657 92.9656C230.567 98.7778 235.281 88.4446 236.25 82.9552ZM248.611 98.7778C247.965 98.455 247.513 97.6798 247.255 96.6466C247.19 96.259 247.255 93.7405 247.384 91.0279C247.513 88.2511 247.642 80.6302 247.772 73.9783C247.965 60.9976 247.965 60.9328 249.128 60.0286C250.419 59.0599 252.098 59.3182 252.873 60.6745C253.261 61.3204 253.325 61.5787 253.196 64.8724C253.132 67.7785 253.132 68.2951 253.39 67.9723C255.392 65.0662 256.425 63.7099 257.717 62.4829C259.848 60.5455 262.754 59.2537 265.725 59.3182C267.211 59.3182 268.631 59.6413 269.923 60.3517C271.085 60.9976 272.571 61.9015 272.765 63.3223C272.829 63.7099 272.829 64.0975 272.7 64.4848C272.312 65.5183 271.602 66.1639 270.504 66.2932C269.729 66.3577 269.406 66.2932 268.308 65.5183C265.854 63.8392 262.69 64.8079 260.817 66.8743C259.009 68.8765 257.653 71.0722 256.619 73.591C256.425 74.1076 256.232 74.6887 255.973 75.2056C253.778 81.2761 252.68 86.9593 252.68 93.0301C252.68 96.9049 252.486 97.8091 251.582 98.584C250.871 99.1654 249.515 99.2944 248.611 98.7778ZM278.762 99.2299C278.246 98.9716 277.729 98.584 277.6 98.0029C277.471 97.6798 277.406 97.228 277.406 96.8404C277.277 95.2258 277.341 93.5467 277.341 91.8676C277.471 80.1784 277.858 63.9037 278.052 62.4184C278.246 61.1266 278.31 60.8683 279.02 60.2224C280.183 59.1247 281.927 59.383 282.831 60.739C283.218 61.3849 283.283 63.7744 283.025 67.843C282.96 68.812 282.831 75.8512 282.766 83.4073C282.702 87.0238 282.702 90.7051 282.508 94.3216C282.508 95.5486 282.572 97.0342 282.12 98.1967C281.733 99.1654 280.377 99.5527 279.408 99.4237C279.214 99.3592 278.956 99.2944 278.762 99.2299ZM279.537 54.9913C279.473 54.9268 279.344 54.8623 279.214 54.7975C277.664 53.7643 277.793 51.5038 279.344 50.4706C280.054 50.0185 281.281 50.083 281.991 50.4706C282.637 50.8582 283.025 51.5038 283.154 52.2142C283.412 53.8288 282.379 55.2496 280.7 55.2496C280.312 55.2496 279.925 55.1851 279.537 54.9913ZM297.296 98.6488C296.844 98.3902 296.457 98.0029 296.327 97.4215C295.94 96.0655 296.069 94.5154 296.005 93.0946C295.94 89.2198 295.94 85.2802 295.94 81.4054L295.875 65.9056H292.517C290.58 65.9056 287.415 66.2932 287.028 63.7099C286.898 62.8057 287.222 61.9663 287.867 61.3849C288.965 60.3517 291.096 60.61 292.517 60.61H295.746V53.9581C295.746 52.1497 295.746 50.2768 295.811 48.4039C295.875 47.6935 295.875 46.7896 296.327 46.2082C296.78 45.4978 297.748 45.1102 298.588 45.175C301.365 45.3688 301.041 48.5977 301.041 50.5351C301.107 51.6976 301.107 52.7956 301.107 53.9581V60.61L304.53 60.6745C305.949 60.6745 307.887 60.3517 308.856 61.7725C309.501 62.7412 309.372 64.3558 308.403 65.0662C307.371 65.8411 305.562 65.6473 304.401 65.7118L301.17 65.8411V81.6637C301.17 85.474 301.236 89.2843 301.17 93.0946C301.17 94.5154 301.236 96.1945 300.912 97.6153C300.525 99.1654 298.523 99.4237 297.296 98.6488ZM313.449 99.2299C312.933 98.9716 312.417 98.584 312.288 98.0029C312.159 97.6798 312.093 97.228 312.093 96.8404C311.964 95.2258 312.03 93.5467 312.03 91.8676C312.159 80.1784 312.546 63.9037 312.741 62.4184C312.933 61.1266 312.999 60.8683 313.707 60.2224C314.871 59.1247 316.614 59.383 317.52 60.739C317.907 61.3849 317.97 63.7744 317.712 67.843C317.649 68.812 317.52 75.8512 317.454 83.4073C317.388 87.0238 317.388 90.7051 317.196 94.3216C317.196 95.5486 317.259 97.0342 316.809 98.1967C316.422 99.1654 315.063 99.5527 314.097 99.4237C313.902 99.3592 313.644 99.2944 313.449 99.2299ZM314.226 54.9913C314.16 54.9268 314.031 54.8623 313.902 54.7975C312.351 53.7643 312.48 51.5038 314.031 50.4706C314.742 50.0185 315.969 50.083 316.68 50.4706C317.325 50.8582 317.712 51.5038 317.841 52.2142C318.099 53.8288 317.067 55.2496 315.387 55.2496C315 55.2496 314.613 55.1851 314.226 54.9913ZM345.351 90.8989C346.257 91.351 346.773 92.1904 346.773 93.2239C346.773 94.3216 346.32 95.032 344.964 96.259C341.994 98.9716 336.699 100.263 333.276 99.1006C330.177 98.0029 327.657 95.8072 325.977 92.9656C322.683 87.4114 322.62 79.9198 324.3 73.7848C325.785 68.1016 328.239 64.0975 332.049 61.2559C332.436 60.9976 332.823 60.739 333.21 60.4807C336.828 58.4788 341.349 58.9309 343.287 62.8702C344.901 66.0994 344.319 70.168 342.834 73.3972C340.896 77.7886 335.406 81.2761 330.435 81.2761H328.626V81.3406C328.626 82.6969 328.689 84.0532 328.884 85.4095C328.95 85.8616 329.079 86.3134 329.142 86.7655C329.853 89.6071 331.338 92.3197 333.987 93.676C336.633 95.032 339.993 93.805 341.994 91.8676C343.287 90.6406 344.19 90.3823 345.351 90.8989ZM331.014 70.6846C329.982 72.8806 329.208 75.3346 329.4 75.8512C329.853 76.9492 332.694 75.6574 333.339 75.3346C336.957 73.8493 339.993 69.7807 338.895 65.7118C338.571 64.6141 337.989 64.291 336.828 64.6141C334.89 65.1307 332.502 67.5847 331.014 70.6846ZM360.492 99.2944C357.006 98.7778 353.712 97.1632 351.579 94.5799C351.192 94.1278 350.805 93.6112 350.676 93.0301C350.481 91.9321 351.063 90.8344 352.161 90.3175C353.325 89.7364 354.291 90.0592 355.908 91.5448C358.491 93.9343 362.493 94.903 365.853 93.805C369.597 92.6425 370.953 89.2843 368.952 85.8616C368.307 84.7636 367.467 83.7949 366.564 82.8907C365.271 81.6637 363.657 80.4367 361.266 78.8221C359.007 77.3368 356.424 75.7222 354.873 73.4617C352.548 70.1035 353.064 65.5828 355.971 62.8057C358.296 60.5455 361.656 59.5768 364.884 59.8996C367.92 60.1579 370.89 61.5142 372.891 63.7744C373.215 64.0975 373.473 64.4848 373.731 64.8079C374.118 65.389 374.505 66.0349 374.637 66.7453C374.766 67.4557 374.7 68.2306 374.247 68.812C373.602 69.6514 372.312 69.9097 371.277 69.4576C370.05 69.0055 369.405 67.7785 368.499 67.0036C367.401 65.9704 365.916 65.26 364.431 65.0662C362.43 64.8079 359.91 65.26 359.007 67.3264C357.456 70.8139 362.364 73.2679 364.56 74.818C369.792 78.37 372.312 80.8888 373.989 84.1177C376.185 88.4446 375.54 92.7718 372.183 96.0655C369.21 98.9716 364.689 99.9403 360.492 99.2944Z" fill="white"/>
</svg>
