<svg width="296" height="189" viewBox="0 0 296 189" fill="none" xmlns="http://www.w3.org/2000/svg">
<rect width="296" height="188.364" rx="8.9697" fill="#BABFFC"/>
<rect width="296" height="188.364" rx="8.9697" fill="black" fill-opacity="0.05"/>
<path fill-rule="evenodd" clip-rule="evenodd" d="M15.2485 55.8164C12.7716 55.8164 10.7637 57.8243 10.7637 60.3013V87.2103C10.7637 89.6873 12.7716 91.6952 15.2485 91.6952H280.752C283.228 91.6952 285.236 89.6873 285.236 87.2103V60.3013C285.236 57.8243 283.228 55.8164 280.752 55.8164H15.2485ZM30.497 82.6757C35.4509 82.6757 39.4667 78.6599 39.4667 73.706C39.4667 68.7522 35.4509 64.7363 30.497 64.7363C25.5432 64.7363 21.5273 68.7522 21.5273 73.706C21.5273 78.6599 25.5432 82.6757 30.497 82.6757Z" fill="white" fill-opacity="0.3"/>
<path fill-rule="evenodd" clip-rule="evenodd" d="M15.2485 98.2246C12.7716 98.2246 10.7637 100.233 10.7637 102.709V129.619C10.7637 132.095 12.7716 134.103 15.2485 134.103H280.752C283.228 134.103 285.236 132.095 285.236 129.619V102.709C285.236 100.233 283.228 98.2246 280.752 98.2246H15.2485ZM30.497 125.084C35.4509 125.084 39.4667 121.068 39.4667 116.114C39.4667 111.16 35.4509 107.145 30.497 107.145C25.5432 107.145 21.5273 111.16 21.5273 116.114C21.5273 121.068 25.5432 125.084 30.497 125.084Z" fill="white" fill-opacity="0.3"/>
<path fill-rule="evenodd" clip-rule="evenodd" d="M15.2485 141.619C12.7716 141.619 10.7637 143.627 10.7637 146.103V173.013C10.7637 175.49 12.7716 177.497 15.2485 177.497H280.752C283.228 177.497 285.236 175.49 285.236 173.013V146.104C285.236 143.627 283.228 141.619 280.752 141.619H15.2485ZM30.497 168.478C35.4509 168.478 39.4667 164.462 39.4667 159.508C39.4667 154.554 35.4509 150.539 30.497 150.539C25.5432 150.539 21.5273 154.554 21.5273 159.508C21.5273 164.462 25.5432 168.478 30.497 168.478Z" fill="white" fill-opacity="0.3"/>
<path d="M15.6288 33.3995C15.4351 33.3134 15.2629 33.1412 15.1983 32.9259C15.1122 32.7106 15.1552 32.4093 15.1337 32.1725C15.1337 31.0961 15.1552 30.0197 15.1552 28.9434C15.1768 27.6517 15.1983 26.3601 15.2198 25.0469C15.2844 20.763 15.349 17.1464 15.3705 16.9957L15.4136 16.7374L14.8108 16.7805C13.2393 16.8666 11.1081 16.8666 10.8713 16.7805C10.5699 16.6943 10.2901 16.3069 10.2901 16.0055C10.2901 15.5965 10.5269 15.3166 11.022 15.1659C11.3019 15.1013 20.6016 14.9291 21.0968 14.9937C21.5919 15.0798 22.1301 15.4673 22.0224 16.0485C21.9363 16.5437 21.5058 16.6513 21.0752 16.6943C20.494 16.7374 19.8912 16.7159 19.31 16.7374L17.1357 16.7805L17.0927 17.8999C17.0712 18.5242 17.0066 22.1407 16.9635 25.908C16.8989 31.2037 16.8559 32.8398 16.7698 33.012C16.576 33.4856 16.0379 33.5933 15.6288 33.3995ZM28.1004 20.8061C29.801 22.3775 30.5545 25.3914 29.9732 28.276C29.9732 28.3191 29.9517 28.3406 29.9517 28.3837C29.435 30.8378 27.5406 33.8731 24.5914 33.2058C23.6442 32.9905 22.8908 32.3877 22.331 31.6343C20.0492 28.5989 20.5012 23.0449 23.2352 20.7415C24.7636 19.4498 26.6365 19.4714 28.1004 20.8061ZM28.3156 27.6517C28.4663 26.7691 28.4233 25.3268 28.208 24.4657C27.8851 23.2171 27.1747 22.1192 26.3997 21.7533C24.9574 21.0213 23.3859 22.4637 22.7831 25.0469C22.3526 26.9413 22.5248 29.6538 24.1178 30.9885C26.4212 32.9259 27.9927 29.4815 28.3156 27.6517ZM41.5204 24.4872C41.7357 25.8004 41.6926 27.458 41.4128 28.5989C41.0468 30.0413 40.3364 31.5266 39.0663 32.3662C37.667 33.2703 35.7511 33.0335 34.4164 32.194C34.1796 32.0433 33.9644 31.9357 33.9428 31.9572C33.9213 31.9787 33.8998 34.0238 33.8998 36.4994C33.8998 40.4389 33.8782 41.0202 33.7706 41.2139C33.4908 41.8382 32.5005 41.8597 32.2852 41.1709C32.2206 40.9771 32.2206 40.7188 32.2206 40.525C32.1561 39.4487 32.1776 38.3723 32.1776 37.2959C32.1561 35.1647 32.1776 30.5794 32.2206 27.0705C32.2852 21.172 32.2852 20.7199 32.4144 20.4831C32.6512 20.0095 33.2324 19.8804 33.663 20.1818C33.9213 20.354 34.0289 20.6984 34.0289 21.3442V21.9255L34.6102 21.3873C35.256 20.763 35.8372 20.354 36.44 20.1172C37.3226 19.7727 38.3774 19.9234 39.1955 20.397C40.5517 21.172 41.2406 23.0234 41.5204 24.4872ZM37.7101 31.0315C38.0545 30.9239 38.3774 30.7301 38.6573 30.4287C39.7552 29.2663 40.0566 27.458 39.9489 25.9295C39.8628 24.6594 39.4753 22.722 38.3344 21.947C37.7101 21.538 36.8921 21.7963 36.3539 22.1838C35.4713 22.8296 34.8254 23.8414 34.3518 24.8101L33.9644 25.5636V27.5441V29.5461L34.5671 30.0843C35.4282 30.8593 36.6553 31.3759 37.7101 31.0315ZM55.6083 19.6221C56.1035 21.5595 55.8667 23.6477 54.6827 25.2837C53.5632 26.8552 51.798 27.6733 49.9682 28.1038L49.4515 28.233V29.6538C49.4515 30.4503 49.4946 31.4405 49.5376 31.8926C49.6022 32.7752 49.5592 32.969 49.1932 33.2488C48.9995 33.3995 48.5474 33.4426 48.2675 33.3134C47.9231 33.1412 47.837 32.8829 47.7509 31.4836C47.6002 29.1371 47.8155 17.986 48.0307 16.4145C48.1168 15.9194 48.3752 15.3812 48.6766 15.1874C48.9349 15.0152 50.6571 15.0367 51.3029 15.209C53.4126 15.7902 55.0271 17.4478 55.6083 19.6221ZM54.0153 22.4637C54.4243 20.2679 53.3695 17.7277 51.1307 16.9957C50.8078 16.8666 50.4418 16.802 50.1835 16.802H49.7529L49.7099 17.4693C49.5592 19.8589 49.4085 26.4462 49.5161 26.4462C49.5592 26.4462 49.839 26.3601 50.1404 26.274C50.98 25.9941 51.8195 25.6282 52.5084 25.0685C53.3264 24.4011 53.8216 23.4754 54.0153 22.4637ZM57.9785 32.9259C57.7633 32.8183 57.6126 32.5599 57.5265 32.2155C57.5049 32.0863 57.5265 31.2468 57.5695 30.3426C57.6126 29.417 57.6556 26.8767 57.6987 24.6594C57.7633 20.3325 57.7633 20.3109 58.1507 20.0095C58.5813 19.6866 59.141 19.7727 59.3993 20.2248C59.5285 20.4401 59.55 20.5262 59.507 21.6241C59.4854 22.5928 59.4854 22.765 59.5715 22.6574C60.2389 21.6887 60.5833 21.2366 61.0139 20.8276C61.7243 20.1818 62.693 19.7512 63.6833 19.7727C64.1784 19.7727 64.652 19.8804 65.0825 20.1172C65.47 20.3325 65.9651 20.6338 66.0297 21.1074C66.0513 21.2366 66.0513 21.3658 66.0082 21.4949C65.879 21.8394 65.6422 22.0546 65.2763 22.0977C65.0179 22.1192 64.9103 22.0977 64.5443 21.8394C63.7263 21.2797 62.6715 21.6026 62.0472 22.2914C61.4444 22.9588 60.9923 23.6907 60.6479 24.5303C60.5833 24.7025 60.5187 24.8962 60.4326 25.0685C59.7007 27.092 59.3347 28.9864 59.3347 31.01C59.3347 32.3016 59.2702 32.603 58.9688 32.8613C58.732 33.0551 58.2799 33.0981 57.9785 32.9259ZM68.0289 33.0766C67.8567 32.9905 67.6845 32.8613 67.6414 32.6676C67.5984 32.5599 67.5768 32.4093 67.5768 32.2801C67.5338 31.7419 67.5553 31.1822 67.5553 30.6225C67.5984 26.7261 67.7275 21.3012 67.7921 20.8061C67.8567 20.3755 67.8782 20.2894 68.115 20.0741C68.5025 19.7082 69.0837 19.7943 69.3851 20.2463C69.5143 20.4616 69.5358 21.2581 69.4497 22.6143C69.4282 22.9373 69.3851 25.2837 69.3636 27.8024C69.3421 29.0079 69.3421 30.235 69.2775 31.4405C69.2775 31.8495 69.299 32.3447 69.1483 32.7322C69.0192 33.0551 68.5671 33.1842 68.2442 33.1412C68.1796 33.1197 68.0935 33.0981 68.0289 33.0766ZM68.2872 18.3304C68.2657 18.3089 68.2226 18.2874 68.1796 18.2658C67.6629 17.9214 67.706 17.1679 68.2226 16.8235C68.4594 16.6728 68.8685 16.6943 69.1053 16.8235C69.3205 16.9527 69.4497 17.1679 69.4928 17.4047C69.5789 17.9429 69.2344 18.4165 68.6747 18.4165C68.5456 18.4165 68.4164 18.395 68.2872 18.3304ZM78.5339 20.8061C80.2345 22.3775 80.988 25.3914 80.4067 28.276C80.4067 28.3191 80.3852 28.3406 80.3852 28.3837C79.8686 30.8378 77.9742 33.8731 75.0249 33.2058C74.0777 32.9905 73.3243 32.3877 72.7646 31.6343C70.4827 28.5989 70.9347 23.0449 73.6687 20.7415C75.1971 19.4498 77.07 19.4714 78.5339 20.8061ZM78.7491 27.6517C78.8998 26.7691 78.8568 25.3268 78.6415 24.4657C78.3186 23.2171 77.6082 22.1192 76.8332 21.7533C75.3909 21.0213 73.8194 22.4637 73.2166 25.0469C72.7861 26.9413 72.9583 29.6538 74.5513 30.9885C76.8547 32.9259 78.4262 29.4815 78.7491 27.6517ZM82.8694 32.9259C82.6542 32.8183 82.5035 32.5599 82.4174 32.2155C82.3958 32.0863 82.4174 31.2468 82.4604 30.3426C82.5035 29.417 82.5465 26.8767 82.5896 24.6594C82.6542 20.3325 82.6542 20.3109 83.0417 20.0095C83.4722 19.6866 84.0319 19.7727 84.2902 20.2248C84.4194 20.4401 84.4409 20.5262 84.3979 21.6241C84.3763 22.5928 84.3763 22.765 84.4625 22.6574C85.1298 21.6887 85.4742 21.2366 85.9048 20.8276C86.6152 20.1818 87.5839 19.7512 88.5742 19.7727C89.0693 19.7727 89.5429 19.8804 89.9734 20.1172C90.3609 20.3325 90.856 20.6338 90.9206 21.1074C90.9422 21.2366 90.9422 21.3658 90.8991 21.4949C90.7699 21.8394 90.5331 22.0546 90.1672 22.0977C89.9088 22.1192 89.8012 22.0977 89.4352 21.8394C88.6172 21.2797 87.5624 21.6026 86.9381 22.2914C86.3353 22.9588 85.8833 23.6907 85.5388 24.5303C85.4742 24.7025 85.4097 24.8962 85.3235 25.0685C84.5916 27.092 84.2257 28.9864 84.2257 31.01C84.2257 32.3016 84.1611 32.603 83.8597 32.8613C83.6229 33.0551 83.1708 33.0981 82.8694 32.9259ZM92.9198 33.0766C92.7476 32.9905 92.5754 32.8613 92.5323 32.6676C92.4893 32.5599 92.4677 32.4093 92.4677 32.2801C92.4247 31.7419 92.4462 31.1822 92.4462 30.6225C92.4893 26.7261 92.6184 21.3012 92.683 20.8061C92.7476 20.3755 92.7691 20.2894 93.0059 20.0741C93.3934 19.7082 93.9746 19.7943 94.276 20.2463C94.4052 20.4616 94.4267 21.2581 94.3406 22.6143C94.3191 22.9373 94.276 25.2837 94.2545 27.8024C94.233 29.0079 94.233 30.235 94.1684 31.4405C94.1684 31.8495 94.1899 32.3447 94.0392 32.7322C93.9101 33.0551 93.458 33.1842 93.1351 33.1412C93.0705 33.1197 92.9844 33.0981 92.9198 33.0766ZM93.1781 18.3304C93.1566 18.3089 93.1136 18.2874 93.0705 18.2658C92.5538 17.9214 92.5969 17.1679 93.1136 16.8235C93.3504 16.6728 93.7594 16.6943 93.9962 16.8235C94.2114 16.9527 94.3406 17.1679 94.3837 17.4047C94.4698 17.9429 94.1253 18.4165 93.5656 18.4165C93.4365 18.4165 93.3073 18.395 93.1781 18.3304ZM99.0978 32.8829C98.9471 32.7967 98.818 32.6676 98.7749 32.4738C98.6457 32.0218 98.6888 31.5051 98.6673 31.0315C98.6457 29.7399 98.6457 28.4267 98.6457 27.1351L98.6242 21.9685H97.5048C96.859 21.9685 95.8041 22.0977 95.675 21.2366C95.6319 20.9352 95.7396 20.6554 95.9548 20.4616C96.3208 20.1172 97.0312 20.2033 97.5048 20.2033H98.5812V17.986C98.5812 17.3832 98.5812 16.7589 98.6027 16.1346C98.6242 15.8978 98.6242 15.5965 98.7749 15.4027C98.9256 15.1659 99.2485 15.0367 99.5284 15.0583C100.454 15.1229 100.346 16.1992 100.346 16.845C100.368 17.2325 100.368 17.5985 100.368 17.986V20.2033L101.509 20.2248C101.982 20.2248 102.628 20.1172 102.951 20.5908C103.166 20.9137 103.123 21.4519 102.8 21.6887C102.456 21.947 101.853 21.8824 101.466 21.9039L100.389 21.947V27.2212C100.389 28.4913 100.411 29.7614 100.389 31.0315C100.389 31.5051 100.411 32.0648 100.303 32.5384C100.174 33.0551 99.5068 33.1412 99.0978 32.8829ZM104.482 33.0766C104.31 32.9905 104.138 32.8613 104.095 32.6676C104.052 32.5599 104.03 32.4093 104.03 32.2801C103.987 31.7419 104.009 31.1822 104.009 30.6225C104.052 26.7261 104.181 21.3012 104.246 20.8061C104.31 20.3755 104.332 20.2894 104.568 20.0741C104.956 19.7082 105.537 19.7943 105.839 20.2463C105.968 20.4616 105.989 21.2581 105.903 22.6143C105.882 22.9373 105.839 25.2837 105.817 27.8024C105.795 29.0079 105.795 30.235 105.731 31.4405C105.731 31.8495 105.752 32.3447 105.602 32.7322C105.473 33.0551 105.02 33.1842 104.698 33.1412C104.633 33.1197 104.547 33.0981 104.482 33.0766ZM104.741 18.3304C104.719 18.3089 104.676 18.2874 104.633 18.2658C104.116 17.9214 104.159 17.1679 104.676 16.8235C104.913 16.6728 105.322 16.6943 105.559 16.8235C105.774 16.9527 105.903 17.1679 105.946 17.4047C106.032 17.9429 105.688 18.4165 105.128 18.4165C104.999 18.4165 104.87 18.395 104.741 18.3304ZM115.116 30.2996C115.418 30.4503 115.59 30.7301 115.59 31.0746C115.59 31.4405 115.439 31.6773 114.987 32.0863C113.997 32.9905 112.232 33.421 111.091 33.0335C110.058 32.6676 109.218 31.9357 108.658 30.9885C107.56 29.1371 107.539 26.6399 108.099 24.5949C108.594 22.7005 109.412 21.3658 110.682 20.4186C110.811 20.3325 110.94 20.2463 111.069 20.1602C112.275 19.4929 113.782 19.6436 114.428 20.9567C114.966 22.0331 114.772 23.3893 114.277 24.4657C113.631 25.9295 111.801 27.092 110.144 27.092H109.541V27.1135C109.541 27.5656 109.562 28.0177 109.627 28.4698C109.649 28.6205 109.692 28.7711 109.713 28.9218C109.95 29.869 110.445 30.7732 111.328 31.2253C112.21 31.6773 113.33 31.2683 113.997 30.6225C114.428 30.2135 114.729 30.1274 115.116 30.2996ZM110.337 23.5615C109.993 24.2935 109.735 25.1115 109.799 25.2837C109.95 25.6497 110.897 25.2191 111.112 25.1115C112.318 24.6164 113.33 23.2602 112.964 21.9039C112.856 21.538 112.662 21.4303 112.275 21.538C111.629 21.7102 110.833 22.5282 110.337 23.5615ZM120.163 33.0981C119.001 32.9259 117.903 32.3877 117.192 31.5266C117.063 31.3759 116.934 31.2037 116.891 31.01C116.826 30.644 117.02 30.2781 117.386 30.1058C117.774 29.9121 118.096 30.0197 118.635 30.5149C119.496 31.3114 120.83 31.6343 121.95 31.2683C123.198 30.8808 123.65 29.7614 122.983 28.6205C122.768 28.2545 122.488 27.9316 122.187 27.6302C121.756 27.2212 121.218 26.8122 120.421 26.274C119.668 25.7789 118.807 25.2407 118.29 24.4872C117.515 23.3678 117.687 21.8609 118.656 20.9352C119.431 20.1818 120.551 19.8589 121.627 19.9665C122.639 20.0526 123.629 20.5047 124.296 21.2581C124.404 21.3658 124.49 21.4949 124.576 21.6026C124.705 21.7963 124.834 22.0116 124.878 22.2484C124.921 22.4852 124.899 22.7435 124.748 22.9373C124.533 23.2171 124.103 23.3032 123.758 23.1525C123.349 23.0018 123.134 22.5928 122.832 22.3345C122.466 21.9901 121.971 21.7533 121.476 21.6887C120.809 21.6026 119.969 21.7533 119.668 22.4421C119.151 23.6046 120.787 24.4226 121.519 24.9393C123.263 26.1233 124.103 26.9629 124.662 28.0392C125.394 29.4815 125.179 30.9239 124.06 32.0218C123.069 32.9905 121.562 33.3134 120.163 33.0981Z" fill="white"/>
</svg>
