<svg width="888" height="414" viewBox="0 0 888 414" fill="none" xmlns="http://www.w3.org/2000/svg">
<path d="M43.1475 392.205L42.7722 369.216C42.5223 362.535 42.3972 355.071 42.3972 346.818L42.7722 326.775C42.0219 322.455 40.146 279.424 37.1445 197.687C34.1427 115.951 32.3919 63.4905 31.8915 40.3059C17.3841 39.5199 8.12925 37.1622 4.12716 33.2325C1.37572 30.0888 0 26.5521 0 22.6225C0 19.4788 1.25065 16.728 3.75195 14.3703C6.5034 11.6195 9.25482 10.2441 12.0063 10.2441C19.0099 10.2441 27.5144 11.0301 37.5195 12.6019C47.0244 14.5668 55.5288 15.5492 63.033 15.5492H69.036C76.7901 15.5492 80.667 20.2647 80.667 29.6958C80.667 34.4112 79.4163 38.3409 76.9152 41.4846C74.4138 44.2353 71.5374 45.6108 68.2857 45.6108C66.0345 45.6108 62.7828 45.0213 58.5306 43.8423L51.0267 41.4846L50.2761 47.379C50.2761 82.3527 52.4022 138.154 56.6544 214.781C60.6567 286.694 62.6577 342.495 62.6577 382.185C62.6577 386.901 61.2819 391.026 58.5306 394.563C56.0292 398.1 53.1528 399.867 49.9011 399.867L43.1475 392.205Z" fill="#A11275"/>
<path d="M184.168 401.636C175.664 401.636 171.412 369.215 171.412 304.376L171.787 270.778L172.162 243.663V236C172.412 232.857 172.537 229.124 172.537 224.801C172.537 224.015 172.162 223.033 171.412 221.854C170.661 220.675 170.286 219.692 170.286 218.907V218.317C169.035 219.103 166.784 219.496 163.532 219.496C160.281 219.496 156.279 218.71 151.526 217.138C150.026 216.745 146.024 215.763 139.52 214.191V281.977C139.52 292.194 139.895 308.306 140.646 330.311C141.396 351.926 141.771 368.036 141.771 378.647C141.771 384.542 140.771 389.648 138.77 393.971C136.769 398.294 134.142 400.457 130.891 400.457C126.138 400.457 122.761 393.185 120.76 378.647C118.759 363.713 117.759 344.261 117.759 320.291L118.509 272.546C118.759 259.185 118.884 245.039 118.884 230.106V211.833C118.884 205.546 118.759 201.42 118.509 199.455V196.508L119.635 162.32C119.635 147.387 119.259 125.185 118.509 95.7127C117.759 66.2404 117.383 44.038 117.383 29.1055C117.383 24.3899 118.384 20.2638 120.385 16.7272C122.386 13.1905 124.887 11.4221 127.889 11.4221C135.893 11.4221 139.895 23.211 139.895 46.789L139.145 119.88C138.644 141.886 138.395 166.446 138.395 193.561C142.146 195.525 148.9 196.508 158.655 196.508H172.537C173.038 194.15 173.288 191.792 173.288 189.434C173.288 170.572 172.537 142.672 171.036 105.733C169.286 71.1526 168.41 43.0558 168.41 21.4427C168.41 17.1201 169.411 13.5835 171.412 10.8327C173.663 7.68904 176.289 6.11719 179.291 6.11719C181.042 6.11719 183.543 7.0996 186.795 9.06442L190.172 11.4221C190.172 67.2229 191.422 141.689 193.923 234.822L197.3 383.951C197.3 389.453 195.924 393.776 193.173 396.92C190.672 400.064 187.67 401.636 184.168 401.636Z" fill="#A11275"/>
<path d="M282.49 410.478C276.487 410.478 271.109 408.315 266.356 403.992C261.604 400.065 257.727 394.17 254.725 386.31C248.722 369.807 244.845 351.141 243.094 330.312C241.344 312.237 240.468 290.624 240.468 265.474C239.718 223.034 239.342 171.163 239.342 109.861L238.967 64.4733C238.717 62.1156 238.592 58.1859 238.592 52.6845C238.092 37.7517 237.842 28.7137 237.842 25.57C240.093 17.3177 242.719 13.1916 245.721 13.1916C248.722 13.1916 251.349 16.7283 253.6 23.8016C256.101 30.8751 257.352 38.5377 257.352 46.7901V207.119C257.352 222.837 258.227 243.665 259.978 269.6C261.729 301.824 262.605 322.65 262.605 332.082C262.605 361.161 270.484 375.699 286.242 375.699C304.251 375.699 313.257 269.993 313.257 58.5789V20.265C313.005 19.0861 312.882 17.5142 312.882 15.5494C312.882 10.8338 313.506 7.49367 314.757 5.52885C316.257 3.17106 319.008 1.99219 323.01 1.99219C326.262 1.99219 328.764 3.56403 330.516 6.70776C332.517 9.45849 333.768 12.7987 334.266 16.7283C334.518 19.0861 334.641 23.6052 334.641 30.2856C334.641 36.573 334.266 46.5936 333.516 60.3471C332.517 71.7432 332.016 81.5673 332.016 89.8194C332.016 98.8575 331.767 106.913 331.266 113.987L330.516 138.743V143.459C330.765 145.031 330.891 146.799 330.891 148.764C330.891 323.241 314.757 410.478 282.49 410.478Z" fill="#A11275"/>
<path d="M443.571 411.657C438.069 411.657 433.068 402.225 428.565 383.364C423.312 362.928 419.433 341.904 416.934 320.292L414.306 300.252C407.052 244.058 402.426 212.031 400.425 204.172H395.922C395.922 215.568 395.796 225.981 395.547 235.413V267.832C395.547 320.49 397.923 361.554 402.675 391.026L398.55 406.941H388.044L383.166 398.1L383.541 358.605C383.541 323.241 382.416 269.601 380.163 197.688C378.162 121.06 377.163 67.421 377.163 36.77C377.163 17.9077 381.291 8.47656 389.544 8.47656C403.05 8.47656 414.057 13.978 422.562 24.981C431.316 35.984 435.693 51.3095 435.693 70.9577V112.219C435.693 118.113 435.069 124.99 433.818 132.849C432.567 140.316 431.19 146.406 429.69 151.122L422.562 172.342L416.559 190.026L418.434 204.172L423.687 246.023C427.188 276.281 430.566 300.84 433.818 319.704C437.07 338.565 441.072 355.659 445.824 370.986L448.074 378.057C450.576 385.917 451.827 392.206 451.827 396.922C451.827 400.852 451.077 404.19 449.574 406.941C448.074 410.085 446.073 411.657 443.571 411.657ZM397.422 175.289C402.927 170.967 407.553 159.178 411.306 139.923C415.308 120.275 417.309 102.198 417.309 85.6937C417.309 73.1189 416.307 61.3301 414.306 50.3273C413.055 44.0396 410.931 39.3242 407.928 36.1805C405.177 32.6438 401.676 30.8756 397.422 30.8756L396.672 33.8228L395.922 39.1277L396.672 108.682C397.173 129.116 397.422 151.319 397.422 175.289Z" fill="#A11275"/>
<path d="M495.321 409.887C490.818 408.708 486.939 406.155 483.69 402.225C480.687 398.295 478.935 393.186 478.437 386.901L482.562 376.878C484.065 376.878 486.441 377.664 489.693 379.236C493.443 380.415 496.32 381.006 498.321 381.006C502.824 381.006 506.826 377.862 510.327 371.574C514.08 365.286 516.831 357.033 518.583 346.818C521.835 327.954 523.458 311.058 523.458 296.125C523.458 270.189 518.208 242.878 507.702 214.192L503.574 202.993C498.822 190.025 494.82 178.432 491.568 168.215C488.316 157.998 485.565 146.995 483.312 135.206C480.312 119.881 478.812 104.555 478.812 89.2295C478.812 71.9393 481.311 53.8628 486.315 35.0006C488.817 25.9626 492.318 18.6928 496.821 13.1913C501.573 7.29684 506.826 4.34961 512.58 4.34961C517.08 4.34961 521.208 6.70737 524.961 11.4229C528.963 15.7455 530.964 21.0505 530.964 27.3379C530.964 30.8747 530.088 33.6254 528.336 35.5901C526.587 37.5548 524.46 38.5373 521.958 38.5373C519.207 38.5373 516.582 37.3586 514.08 35.0006C508.578 35.3936 504.198 43.0565 500.949 57.989C498.195 71.7428 496.821 83.1386 496.821 92.1767C496.821 103.573 497.946 115.165 500.196 126.954C502.449 138.35 505.326 148.764 508.827 158.195L517.08 181.772L530.214 220.676C533.715 231.679 536.466 244.45 538.467 258.99C540.717 273.529 541.845 288.265 541.845 303.198C541.845 327.168 538.341 349.962 531.339 371.574C527.838 382.578 522.834 391.419 516.33 398.1C510.078 404.778 503.073 408.12 495.321 408.12V409.887Z" fill="#A11275"/>
<path d="M593.271 405.17C586.77 405.17 583.518 379.433 583.518 327.953L584.268 234.822C584.517 207.314 584.643 176.467 584.643 142.279C584.643 129.704 583.893 110.253 582.39 83.924C581.142 55.2377 580.515 37.7507 580.515 31.4633C580.515 26.3549 581.892 21.8358 584.643 17.9062C587.394 13.9765 590.397 12.0117 593.646 12.0117C602.403 12.0117 610.782 15.1554 618.786 21.4428C627.039 27.3373 634.293 35.786 640.548 46.7891C653.805 70.7597 662.559 97.0883 666.81 125.775C669.063 140.314 670.188 154.657 670.188 168.804C670.188 173.913 670.062 178.628 669.813 182.951L669.438 198.866V231.285C669.438 256.435 668.937 276.279 667.935 290.819C666.435 310.466 663.558 327.953 659.307 343.28C654.303 359.783 647.049 374.519 637.545 387.488C633.042 393.383 627.291 399.278 620.286 405.17H593.271ZM609.78 375.11C614.784 375.11 619.41 373.145 623.664 369.215C627.915 364.892 631.542 359.195 634.545 352.121C637.044 345.833 639.297 337.976 641.298 328.544C643.548 318.719 645.174 309.287 646.176 300.251C648.426 282.567 649.803 264.49 650.301 246.021C650.553 241.306 650.676 234.429 650.676 225.391C650.676 106.716 636.045 44.8241 606.78 39.7157C605.028 57.3989 604.152 77.8331 604.152 101.018C604.152 125.775 605.154 169 607.155 230.696C608.904 285.318 609.78 328.739 609.78 360.962V375.11Z" fill="#A11275"/>
<path d="M784.887 406.942C779.133 406.942 774.879 405.565 772.128 402.817C769.377 400.066 768.003 394.957 768.003 387.49C768.003 375.7 766.752 355.66 764.25 327.367L762.75 314.989L725.604 306.148C724.104 315.184 721.977 333.457 719.226 360.964C717.726 380.221 715.35 392.992 712.098 399.28C710.346 402.817 707.847 404.584 704.595 404.584C701.592 404.584 698.841 403.21 696.339 400.459C693.837 397.315 692.589 393.58 692.589 389.257L693.339 386.311L693.714 383.953C710.223 282.962 722.727 183.346 731.232 85.1052C731.232 83.5332 731.358 80.979 731.607 77.4423C731.859 73.5126 732.108 68.0112 732.357 60.9378C733.11 46.3983 733.86 34.8057 734.61 26.1607C735.609 17.5155 737.112 11.0316 739.113 6.70898H751.869C755.37 6.70898 758.373 8.08433 760.872 10.8351C763.374 13.1929 764.625 16.7295 764.625 21.4451C764.625 51.3102 767.253 95.715 772.503 154.66C777.507 215.176 780.009 257.616 780.009 281.98C780.009 284.337 780.633 290.428 781.884 300.253C783.135 309.289 783.759 315.184 783.759 317.935C783.759 320.686 785.01 332.476 787.512 353.302C789.762 372.163 790.89 384.346 790.89 389.848V390.436C790.89 399.082 788.889 404.584 784.887 406.942ZM760.122 293.768C759.372 287.874 758.997 280.604 758.997 271.959C758.997 236.592 756.996 191.402 752.994 136.387L749.241 75.0846C738.486 167.431 731.109 237.182 727.107 284.337C730.857 288.267 741.864 291.411 760.122 293.768Z" fill="#A11275"/>
<path d="M853.857 409.888C849.606 409.888 846.102 405.565 843.351 396.922C846.102 388.669 847.479 355.267 847.479 296.716C847.479 282.962 846.855 268.029 845.604 251.918L844.476 234.824C843.726 224.214 843.351 216.158 843.351 210.657V195.331C840.849 185.507 836.223 167.234 829.47 140.513C822.966 113.792 817.713 91.3927 813.711 73.3162C808.959 52.4893 806.583 38.3425 806.583 30.8764V27.9291L815.211 17.9085C819.465 18.6944 823.968 27.3396 828.72 43.8439C832.722 58.3837 837.099 79.2106 841.851 106.325C846.855 133.439 849.354 147.783 849.354 149.354C850.356 145.032 852.357 130.296 855.357 105.146C858.36 79.9966 861.735 57.7942 865.488 38.539C869.739 19.2838 874.119 9.65625 878.619 9.65625C881.121 9.65625 883.248 10.8352 884.997 13.1929C886.998 15.5507 888 18.4979 888 22.0346C888 42.0757 884.499 70.369 877.494 106.915C869.991 146.604 866.238 175.29 866.238 192.974V370.396C866.238 396.724 862.113 409.888 853.857 409.888Z" fill="#A11275"/>
</svg>
