<svg width="296" height="138" viewBox="0 0 296 138" fill="none" xmlns="http://www.w3.org/2000/svg">
<path d="M14.3825 130.735L14.2574 123.072C14.1741 120.845 14.1324 118.357 14.1324 115.606L14.2574 108.925C14.0073 107.485 13.382 93.1414 12.3815 65.8959C11.3809 38.6505 10.7973 21.1636 10.6305 13.4354C5.79469 13.1734 2.70975 12.3875 1.37572 11.0776C0.458572 10.0297 0 8.8508 0 7.54092C0 6.49302 0.416884 5.5761 1.25065 4.79018C2.1678 3.87326 3.08494 3.4148 4.00209 3.4148C6.33664 3.4148 9.17145 3.67678 12.5065 4.20073C15.6748 4.85567 18.5096 5.18314 21.011 5.18314H23.012C25.5967 5.18314 26.889 6.75499 26.889 9.89869C26.889 11.4705 26.4721 12.7804 25.6384 13.8283C24.8046 14.7452 23.8458 15.2037 22.7619 15.2037C22.0115 15.2037 20.9276 15.0072 19.5102 14.6142L17.0089 13.8283L16.7587 15.7931C16.7587 27.451 17.4674 46.0513 18.8848 71.5939C20.2189 95.5646 20.8859 114.165 20.8859 127.395C20.8859 128.967 20.4273 130.342 19.5102 131.521C18.6764 132.7 17.7176 133.289 16.6337 133.289L14.3825 130.735Z" fill="#A11275"/>
<path d="M61.3894 133.879C58.5546 133.879 57.1372 123.072 57.1372 101.459L57.2623 90.2597L57.3873 81.2215V78.6672C57.4707 77.6193 57.5124 76.375 57.5124 74.9341C57.5124 74.6721 57.3873 74.3446 57.1372 73.9517C56.8871 73.5587 56.762 73.2312 56.762 72.9693V72.7728C56.3451 73.0348 55.5947 73.1658 54.5108 73.1658C53.4269 73.1658 52.0929 72.9038 50.5088 72.3798C50.0085 72.2488 48.6745 71.9214 46.5067 71.3974V93.9928C46.5067 97.3985 46.6317 102.769 46.8819 110.104C47.132 117.309 47.2571 122.679 47.2571 126.216C47.2571 128.181 46.9236 129.883 46.2565 131.324C45.5895 132.765 44.7141 133.486 43.6302 133.486C42.046 133.486 40.9204 131.062 40.2534 126.216C39.5864 121.238 39.2529 114.754 39.2529 106.764L39.503 90.8491C39.5864 86.3955 39.6281 81.6799 39.6281 76.7024V70.6115C39.6281 68.5157 39.5864 67.1403 39.503 66.4854V65.503L39.8782 54.107C39.8782 49.1295 39.7531 41.7287 39.503 31.9046C39.2529 22.0805 39.1278 14.6797 39.1278 9.70221C39.1278 8.13036 39.4613 6.75499 40.1283 5.5761C40.7954 4.39721 41.6291 3.80776 42.6296 3.80776C45.2977 3.80776 46.6317 7.73739 46.6317 15.5967L46.3816 39.9604C46.2148 47.2957 46.1315 55.4824 46.1315 64.5206C47.3821 65.1755 49.6333 65.503 52.885 65.503H57.5124C57.6792 64.717 57.7625 63.9311 57.7625 63.1452C57.7625 56.8578 57.5124 47.5577 57.0121 35.2448C56.4285 23.7179 56.1367 14.3523 56.1367 7.14795C56.1367 5.70709 56.4702 4.5282 57.1372 3.61128C57.8876 2.56339 58.7631 2.03944 59.7636 2.03944C60.3472 2.03944 61.181 2.36691 62.2649 3.02185L63.3905 3.80776C63.3905 22.408 63.8074 47.2302 64.6411 78.2743L65.7667 127.984C65.7667 129.818 65.3081 131.259 64.391 132.307C63.5572 133.355 62.5567 133.879 61.3894 133.879Z" fill="#A11275"/>
<path d="M94.1633 136.826C92.1623 136.826 90.3697 136.105 88.7855 134.664C87.2014 133.355 85.909 131.39 84.9085 128.77C82.9075 123.269 81.6151 117.047 81.0315 110.104C80.4479 104.079 80.156 96.8745 80.156 88.4913C79.9059 74.3446 79.7808 57.0543 79.7808 36.6202L79.6558 21.4911C79.5724 20.7052 79.5307 19.3953 79.5307 17.5615C79.364 12.5839 79.2806 9.57122 79.2806 8.52333C80.031 5.77258 80.9064 4.39721 81.907 4.39721C82.9075 4.39721 83.7829 5.5761 84.5333 7.93388C85.3671 10.2917 85.784 12.8459 85.784 15.5967V69.0396C85.784 74.2791 86.0758 81.2215 86.6594 89.8667C87.2431 100.608 87.5349 107.55 87.5349 110.694C87.5349 120.387 90.1613 125.233 95.414 125.233C101.417 125.233 104.419 89.9977 104.419 19.5263V6.75499C104.335 6.36203 104.294 5.83808 104.294 5.18314C104.294 3.61128 104.502 2.49789 104.919 1.84295C105.419 1.05702 106.336 0.664062 107.67 0.664062C108.754 0.664062 109.588 1.18801 110.172 2.23592C110.839 3.15283 111.256 4.26622 111.422 5.5761C111.506 6.36203 111.547 7.86839 111.547 10.0952C111.547 12.191 111.422 15.5312 111.172 20.1157C110.839 23.9144 110.672 27.1891 110.672 29.9398C110.672 32.9525 110.589 35.6378 110.422 37.9956L110.172 46.2478V47.8196C110.255 48.3436 110.297 48.933 110.297 49.588C110.297 107.747 104.919 136.826 94.1633 136.826Z" fill="#A11275"/>
<path d="M147.857 137.219C146.023 137.219 144.356 134.075 142.855 127.788C141.104 120.976 139.811 113.968 138.978 106.764L138.102 100.084C135.684 81.3525 134.142 70.677 133.475 68.0572H131.974C131.974 71.8559 131.932 75.327 131.849 78.4708V89.2772C131.849 106.83 132.641 120.518 134.225 130.342L132.85 135.647H129.348L127.722 132.7L127.847 119.535C127.847 107.747 127.472 89.8667 126.721 65.8959C126.054 40.3533 125.721 22.4735 125.721 12.2565C125.721 5.96906 127.097 2.82536 129.848 2.82536C134.35 2.82536 138.019 4.65918 140.854 8.32684C143.772 11.9945 145.231 17.103 145.231 23.6524V37.4061C145.231 39.3709 145.023 41.6632 144.606 44.283C144.189 46.7717 143.73 48.802 143.23 50.3739L140.854 57.4472L138.853 63.3417L139.478 68.0572L141.229 82.0074C142.396 92.0935 143.522 100.28 144.606 106.568C145.69 112.855 147.024 118.553 148.608 123.662L149.358 126.019C150.192 128.639 150.609 130.735 150.609 132.307C150.609 133.617 150.359 134.73 149.858 135.647C149.358 136.695 148.691 137.219 147.857 137.219ZM132.474 58.4296C134.309 56.9888 135.851 53.0591 137.102 46.6407C138.436 40.0914 139.103 34.0659 139.103 28.5644C139.103 24.3728 138.769 20.4432 138.102 16.7756C137.685 14.6797 136.977 13.1079 135.976 12.06C135.059 10.8811 133.892 10.2917 132.474 10.2917L132.224 11.2741L131.974 13.0424L132.224 36.2272C132.391 43.0386 132.474 50.4394 132.474 58.4296Z" fill="#A11275"/>
<path d="M165.107 136.629C163.606 136.236 162.313 135.385 161.23 134.075C160.229 132.765 159.645 131.062 159.479 128.967L160.854 125.626C161.355 125.626 162.147 125.888 163.231 126.412C164.481 126.805 165.44 127.002 166.107 127.002C167.608 127.002 168.942 125.954 170.109 123.858C171.36 121.762 172.277 119.011 172.861 115.606C173.945 109.318 174.486 103.686 174.486 98.7084C174.486 90.0632 172.736 80.9595 169.234 71.3974L167.858 67.6643C166.274 63.3417 164.94 59.4775 163.856 56.0719C162.772 52.6662 161.855 48.9985 161.104 45.0689C160.104 39.9604 159.604 34.8519 159.604 29.7433C159.604 23.9799 160.437 17.9544 162.105 11.667C162.939 8.65431 164.106 6.23104 165.607 4.39721C167.191 2.4324 168.942 1.44999 170.86 1.44999C172.36 1.44999 173.736 2.23591 174.987 3.80776C176.321 5.24863 176.988 7.01697 176.988 9.11277C176.988 10.2917 176.696 11.2086 176.112 11.8635C175.529 12.5184 174.82 12.8459 173.986 12.8459C173.069 12.8459 172.194 12.453 171.36 11.667C169.526 11.798 168.066 14.3523 166.983 19.3298C166.065 23.9144 165.607 27.713 165.607 30.7257C165.607 34.5244 165.982 38.3885 166.732 42.3181C167.483 46.1168 168.442 49.588 169.609 52.7317L172.36 60.5909L176.738 73.5587C177.905 77.2264 178.822 81.4835 179.489 86.33C180.239 91.1766 180.615 96.0886 180.615 101.066C180.615 109.056 179.447 116.654 177.113 123.858C175.946 127.526 174.278 130.473 172.11 132.7C170.026 134.926 167.691 136.04 165.107 136.04V136.629Z" fill="#A11275"/>
<path d="M197.757 135.057C195.59 135.057 194.506 126.478 194.506 109.318L194.756 78.2743C194.839 69.1051 194.881 58.8226 194.881 47.4267C194.881 43.2351 194.631 36.7512 194.13 27.975C193.714 18.4129 193.505 12.5839 193.505 10.4881C193.505 8.7853 193.964 7.27894 194.881 5.96907C195.798 4.65919 196.799 4.00425 197.882 4.00425C200.801 4.00425 203.594 5.05215 206.262 7.14795C209.013 9.11277 211.431 11.929 213.516 15.5967C217.935 23.5869 220.853 32.3631 222.27 41.9252C223.021 46.7717 223.396 51.5528 223.396 56.2683C223.396 57.9712 223.354 59.543 223.271 60.9839L223.146 66.2889V77.0954C223.146 85.4786 222.979 92.0935 222.645 96.94C222.145 103.489 221.186 109.318 219.769 114.427C218.101 119.928 215.683 124.84 212.515 129.163C211.014 131.128 209.097 133.093 206.762 135.057H197.757ZM203.26 125.037C204.928 125.037 206.47 124.382 207.888 123.072C209.305 121.631 210.514 119.732 211.515 117.374C212.348 115.278 213.099 112.659 213.766 109.515C214.516 106.24 215.058 103.096 215.392 100.084C216.142 94.1893 216.601 88.1638 216.767 82.0074C216.851 80.4356 216.892 78.1433 216.892 75.1306C216.892 35.5723 212.015 14.9417 202.26 13.2389C201.676 19.1333 201.384 25.9447 201.384 33.673C201.384 41.9252 201.718 56.3338 202.385 76.8989C202.968 95.1062 203.26 109.58 203.26 120.321V125.037Z" fill="#A11275"/>
<path d="M261.629 135.647C259.711 135.647 258.293 135.188 257.376 134.272C256.459 133.355 256.001 131.652 256.001 129.163C256.001 125.233 255.584 118.553 254.75 109.122L254.25 104.996L241.868 102.049C241.368 105.061 240.659 111.152 239.742 120.321C239.242 126.74 238.45 130.997 237.366 133.093C236.782 134.272 235.949 134.861 234.865 134.861C233.864 134.861 232.947 134.403 232.113 133.486C231.279 132.438 230.863 131.193 230.863 129.752L231.113 128.77L231.238 127.984C236.741 94.3203 240.909 61.1149 243.744 28.368C243.744 27.844 243.786 26.9926 243.869 25.8137C243.953 24.5038 244.036 22.67 244.119 20.3122C244.37 15.4657 244.62 11.6015 244.87 8.71981C245.203 5.83808 245.704 3.67678 246.371 2.23592H250.623C251.79 2.23592 252.791 2.69437 253.624 3.61128C254.458 4.39721 254.875 5.5761 254.875 7.14795C254.875 17.103 255.751 31.9046 257.501 51.5528C259.169 71.7249 260.003 85.8716 260.003 93.9928C260.003 94.7787 260.211 96.809 260.628 100.084C261.045 103.096 261.253 105.061 261.253 105.978C261.253 106.895 261.67 110.825 262.504 117.767C263.254 124.054 263.63 128.115 263.63 129.949V130.145C263.63 133.027 262.963 134.861 261.629 135.647ZM253.374 97.9224C253.124 95.9576 252.999 93.5343 252.999 90.6526C252.999 78.8637 252.332 63.8001 250.998 45.4619L249.747 25.0278C246.162 55.8099 243.703 79.0602 242.369 94.7787C243.619 96.0886 247.288 97.1365 253.374 97.9224Z" fill="#A11275"/>
<path d="M284.619 136.629C283.202 136.629 282.034 135.188 281.117 132.307C282.034 129.556 282.493 118.422 282.493 98.9048C282.493 94.3203 282.285 89.3427 281.868 83.9722L281.492 78.2743C281.242 74.7376 281.117 72.0524 281.117 70.2185V65.11C280.283 61.8353 278.741 55.7444 276.49 46.8372C274.322 37.9301 272.571 30.4638 271.237 24.4383C269.653 17.496 268.861 12.7804 268.861 10.2917V9.30926L271.737 5.96907C273.155 6.23104 274.656 9.11276 276.24 14.6142C277.574 19.4608 279.033 26.4031 280.617 35.4413C282.285 44.4794 283.118 49.2605 283.118 49.7844C283.452 48.3436 284.119 43.4316 285.119 35.0483C286.12 26.6651 287.245 19.2643 288.496 12.8459C289.913 6.42752 291.373 3.21832 292.873 3.21832C293.707 3.21832 294.416 3.61129 294.999 4.39721C295.666 5.18313 296 6.16554 296 7.34443C296 14.0248 294.833 23.4559 292.498 35.6378C289.997 48.8675 288.746 58.4296 288.746 64.3241V123.465C288.746 132.241 287.371 136.629 284.619 136.629Z" fill="#A11275"/>
</svg>
