<svg width="296" height="120" viewBox="0 0 296 120" fill="none" xmlns="http://www.w3.org/2000/svg">
<path d="M0 22.8475C0 22.3069 0.289948 21.8309 0.787212 21.6187C7.12308 18.9161 50.2933 0.95752 78.7234 0.95752C121.149 0.95752 144.344 17.876 187.362 21.9576C223.286 25.366 276.692 18.4188 291.853 16.266C293.161 16.0803 293.937 17.6912 292.996 18.6187L244.991 65.9307C244.427 66.4871 244.455 67.4063 245.053 67.9266L293.791 110.335C294.664 111.095 294.254 112.521 293.108 112.686C279.9 114.594 224.359 122.068 187.362 118.558C144.344 114.476 121.149 97.5577 78.7234 97.5577C51.6047 97.5577 11.0741 113.898 1.89395 117.751C0.988912 118.131 0 117.458 0 116.476V22.8475Z" fill="#FFBBA6"/>
<path d="M70.8156 8.11831C72.618 7.95036 74.3878 7.83233 76.1136 7.77125L76.1489 8.77062C77.0346 8.73927 77.9077 8.72314 78.7666 8.72314C79.728 8.72314 80.6779 8.73316 81.6167 8.75276L81.6376 7.75298C83.5894 7.79373 85.4941 7.87559 87.3568 7.99471L87.293 8.99268C89.2196 9.11588 91.1008 9.27925 92.9423 9.47845L93.0499 8.48425C94.9839 8.69346 96.8746 8.94189 98.7283 9.22462L98.5775 10.2132C100.48 10.5033 102.343 10.8299 104.175 11.1876L104.367 10.2062C106.263 10.5764 108.125 10.9795 109.961 11.4098L109.732 12.3834C111.595 12.82 113.432 13.285 115.25 13.772L115.509 12.8061C117.362 13.3024 119.195 13.8212 121.017 14.356L120.735 15.3155C122.563 15.8521 124.381 16.4052 126.198 16.9682L126.494 16.0131C128.314 16.5771 130.131 17.1505 131.954 17.7267L131.653 18.6803L132.138 18.8335C133.788 19.3551 135.446 19.8792 137.116 20.4L137.414 19.4454C139.221 20.009 141.042 20.5689 142.886 21.1187L142.6 22.077C144.414 22.6178 146.25 23.1492 148.117 23.6652L148.383 22.7013C150.197 23.2027 152.039 23.6891 153.916 24.1552L153.675 25.1257C155.507 25.5805 157.373 26.0162 159.279 26.4275L159.49 25.45C161.324 25.8456 163.195 26.2186 165.11 26.5641L164.932 27.5482C166.782 27.8821 168.672 28.1906 170.608 28.4697L170.75 27.4799C172.6 27.7466 174.491 27.9861 176.429 28.195L176.322 29.1892C177.269 29.2913 178.227 29.3861 179.197 29.4732C180.092 29.5535 180.998 29.6277 181.913 29.6959L181.988 28.6986C183.757 28.8304 185.565 28.9399 187.405 29.0288L187.357 30.0276C189.148 30.1142 190.969 30.1814 192.812 30.2307L192.839 29.231C194.628 29.2789 196.439 29.3099 198.266 29.3256L198.258 30.3256C200.061 30.341 201.879 30.3415 203.707 30.3285L203.7 29.3285C205.502 29.3157 207.314 29.2896 209.131 29.2518L209.152 30.2516C210.964 30.2138 212.78 30.1643 214.595 30.1043L214.562 29.1048C216.374 29.045 218.185 28.9747 219.99 28.8953L220.034 29.8944C221.854 29.8143 223.667 29.7251 225.47 29.6279L225.416 28.6293C227.237 28.5312 229.046 28.4249 230.838 28.3119L230.901 29.3099C232.731 29.1945 234.543 29.0722 236.331 28.9444L236.26 27.9469C238.091 27.816 239.897 27.6793 241.671 27.5384L241.75 28.5353C243.596 28.3887 245.408 28.2376 247.178 28.0837L247.092 27.0875C248.943 26.9266 250.749 26.7627 252.502 26.5978L252.596 27.5934C254.463 27.4178 256.27 27.241 258.006 27.0656L257.906 26.0707C259.795 25.8799 261.6 25.6906 263.31 25.5061L263.417 26.5004C265.35 26.2918 267.16 26.0893 268.829 25.8974L268.715 24.904C270.728 24.6726 272.536 24.4566 274.107 24.2641L274.228 25.2567C275.218 25.1353 276.115 25.0233 276.909 24.9225C277.011 24.9095 277.081 24.9301 277.133 24.9593L277.621 24.0862C278.133 24.3723 278.422 24.9799 278.319 25.5565L277.335 25.3815C277.325 25.4388 277.297 25.505 277.222 25.5753L275.052 27.6213L275.738 28.3489L271.398 32.441L270.712 31.7134L266.372 35.8055L267.058 36.5331L262.718 40.6252L262.032 39.8976L257.692 43.9897L258.378 44.7173L254.038 48.8094L253.352 48.0818L249.012 52.1739L249.698 52.9015L245.358 56.9936L244.672 56.266L240.332 60.3581L241.018 61.0857L236.677 65.1778L235.991 64.4502L233.821 66.4962C232.786 67.4721 232.843 69.1347 233.942 70.0379L236.239 71.926L236.874 71.1535L241.468 74.9297L240.833 75.7022L245.428 79.4784L246.063 78.7059L250.657 82.4821L250.022 83.2546L254.617 87.0308L255.252 86.2583L259.846 90.0345L259.211 90.8071L263.805 94.5833L264.44 93.8107L269.035 97.5869L268.4 98.3595L272.994 102.136L273.629 101.363L278.224 105.139L277.589 105.912L279.886 107.8C279.959 107.86 279.995 107.923 280.013 107.979L280.966 107.675C281.131 108.196 280.965 108.777 280.55 109.12L279.914 108.348C279.878 108.378 279.823 108.407 279.732 108.415C278.951 108.485 278.039 108.565 277.006 108.654L277.091 109.65C275.528 109.784 273.689 109.937 271.614 110.101L271.535 109.104C269.852 109.238 268.014 109.379 266.04 109.523L266.113 110.521C264.383 110.648 262.549 110.777 260.625 110.908L260.558 109.91C258.801 110.029 256.969 110.148 255.073 110.265L255.135 111.263C253.36 111.373 251.528 111.482 249.649 111.587L249.593 110.589C247.803 110.689 245.97 110.787 244.101 110.88L244.151 111.879C242.348 111.969 240.512 112.055 238.65 112.136L238.606 111.137C236.8 111.215 234.968 111.289 233.118 111.356L233.154 112.355C231.336 112.422 229.499 112.482 227.65 112.536L227.621 111.537C225.8 111.589 223.968 111.635 222.13 111.674L222.15 112.674C220.32 112.712 218.484 112.742 216.647 112.764L216.635 111.764C214.802 111.786 212.969 111.799 211.141 111.803L211.143 112.803C209.302 112.806 207.466 112.8 205.641 112.782L205.65 111.782C203.807 111.765 201.974 111.737 200.157 111.696L200.135 112.696C198.284 112.654 196.45 112.6 194.639 112.533L194.676 111.533C192.821 111.464 190.99 111.38 189.19 111.281L189.135 112.279C187.27 112.176 185.439 112.056 183.647 111.918L183.724 110.921C182.805 110.851 181.897 110.775 181.001 110.695C180.126 110.616 179.261 110.531 178.403 110.44L178.298 111.434C176.534 111.247 174.807 111.034 173.111 110.798L173.248 109.808C171.501 109.564 169.788 109.297 168.106 109.007L167.936 109.993C166.193 109.693 164.482 109.37 162.8 109.028L163 108.048C161.276 107.697 159.582 107.325 157.913 106.935L157.686 107.909C155.967 107.508 154.276 107.089 152.608 106.656L152.86 105.688C151.163 105.247 149.489 104.791 147.833 104.324L147.562 105.287C145.868 104.809 144.195 104.321 142.536 103.825L142.822 102.867C141.144 102.367 139.481 101.859 137.826 101.348L137.531 102.304C136.157 101.88 134.788 101.454 133.424 101.03C133.128 100.938 132.832 100.846 132.536 100.754L132.833 99.7989C131.164 99.2801 129.498 98.7631 127.829 98.2533L127.537 99.2096C125.87 98.7003 124.202 98.1983 122.526 97.7084L122.806 96.7486C121.132 96.2592 119.45 95.7814 117.754 95.3203L117.491 96.2853C115.818 95.8302 114.131 95.3917 112.427 94.9742L112.665 94.0029C110.976 93.5893 109.269 93.1962 107.538 92.8279L107.33 93.806C105.642 93.4468 103.931 93.1116 102.194 92.8046L102.368 91.8198C100.661 91.5182 98.9279 91.2436 97.1641 90.9999L97.0272 91.9905C95.3263 91.7555 93.5968 91.5495 91.8345 91.376L91.9325 90.3808C90.2122 90.2115 88.4608 90.073 86.6746 89.9686L86.6162 90.9669C84.9084 90.8671 83.1684 90.7986 81.3929 90.7644L81.4121 89.7646C80.5389 89.7478 79.6572 89.7392 78.7666 89.7392C77.8974 89.7392 77.0158 89.755 76.1235 89.7856L76.1577 90.785C74.4598 90.8431 72.7191 90.9555 70.9466 91.1156L70.8567 90.1196C69.1368 90.275 67.3889 90.4746 65.6227 90.7125L65.7562 91.7036C64.0506 91.9333 62.3264 92.1993 60.5924 92.496L60.4237 91.5103C58.7081 91.8038 56.9839 92.1272 55.2595 92.4752L55.4573 93.4554C53.7534 93.7992 52.0485 94.1674 50.3511 94.5548L50.1286 93.5798C48.4175 93.9704 46.7143 94.3803 45.0275 94.8045L45.2714 95.7743C43.5674 96.2028 41.8798 96.6461 40.2173 97.0988L39.9546 96.134C38.2428 96.6001 36.5578 97.0761 34.9091 97.5564L35.1887 98.5165C33.4788 99.0145 31.8077 99.5171 30.186 100.018L29.891 99.0624C28.1676 99.5946 26.5001 100.125 24.9012 100.645L25.2106 101.596C23.4683 102.163 21.8074 102.718 20.2446 103.252L19.9215 102.305C18.1398 102.914 16.4852 103.494 14.982 104.032L15.3187 104.973C13.4223 105.652 11.7676 106.262 10.404 106.773L10.0525 105.837C9.09275 106.198 8.27639 106.51 7.62045 106.763C7.55633 106.788 7.49732 106.793 7.44351 106.787L7.32573 107.78C6.87791 107.727 6.47814 107.453 6.26715 107.054L7.15096 106.587C7.1256 106.539 7.10938 106.482 7.10938 106.413V103.564H6.10938V97.8659H7.10938V92.168H6.10938V86.47H7.10938V80.772H6.10938V75.0741H7.10938V69.3761H6.10938V63.6781H7.10938V57.9802H6.10938V52.2822H7.10938V46.5843H6.10938V40.8863H7.10938V35.1883H6.10938V29.4904H7.10938V26.6414C7.10938 26.5967 7.11541 26.5575 7.12491 26.524L6.16287 26.2511C6.23591 25.9936 6.38167 25.7669 6.58722 25.599L7.21979 26.3735C7.24025 26.3568 7.26574 26.341 7.29806 26.3281C7.85298 26.1061 8.68255 25.7778 9.75216 25.3644L9.39167 24.4317C10.7057 23.9238 12.3797 23.2884 14.3503 22.5645L14.6951 23.5032C16.1957 22.9519 17.8689 22.3491 19.6864 21.7121L19.3557 20.7684C20.9281 20.2173 22.6083 19.6407 24.378 19.0498L24.6947 19.9983C26.3046 19.4607 27.9887 18.9113 29.7332 18.3584L29.4311 17.4051C31.0736 16.8846 32.7696 16.361 34.5077 15.8415L34.7942 16.7996C36.4541 16.3033 38.1523 15.8108 39.8787 15.3281L39.6095 14.3651C41.2952 13.8938 43.0079 13.4318 44.7385 12.9848L44.9886 13.953C46.6867 13.5144 48.4015 13.0904 50.1243 12.6864L49.896 11.7128C51.6192 11.3086 53.3508 10.9243 55.0821 10.5651L55.2853 11.5442C57.0177 11.1848 58.749 10.8508 60.4702 10.5477L60.2968 9.5629C62.0573 9.2529 63.8082 8.97484 65.5403 8.73443L65.6778 9.72493C67.4462 9.4795 69.193 9.27385 70.9084 9.114L70.8156 8.11831Z" stroke="white" stroke-width="2" stroke-dasharray="5.44 5.44"/>
</svg>
