<svg width="296" height="238" viewBox="0 0 296 238" fill="none" xmlns="http://www.w3.org/2000/svg">
<path d="M296 98.8723C296 143.823 251.099 181.768 189.625 193.78C182.225 206.061 160.025 242.099 151.7 237.478C147.075 231.01 149.85 199.593 148 197.745C66.2619 197.745 0 153.478 0 98.8723C0 44.2666 66.2619 0 148 0C229.738 0 296 44.2666 296 98.8723Z" fill="#9AE6EA"/>
<path d="M149.095 196.648L148.641 196.195H148C107.395 196.195 70.7038 185.197 44.2091 167.497C17.7038 149.79 1.54974 125.497 1.54974 98.8723C1.54974 72.2473 17.7038 47.9546 44.2091 30.2477C70.7038 12.5477 107.395 1.54974 148 1.54974C188.605 1.54974 225.296 12.5477 251.791 30.2477C278.296 47.9546 294.45 72.2473 294.45 98.8723C294.45 120.796 283.506 141.123 264.842 157.514C246.175 173.908 219.847 186.296 189.328 192.259L188.653 192.391L188.298 192.981C184.599 199.119 177.235 211.137 169.772 221.034C166.032 225.994 162.324 230.344 159.082 233.156C157.455 234.567 156.028 235.517 154.841 235.992C153.885 236.374 153.225 236.398 152.754 236.252C152.416 235.662 152.086 234.79 151.792 233.614C151.446 232.227 151.177 230.538 150.972 228.635C150.561 224.827 150.417 220.297 150.359 215.859C150.333 213.896 150.325 211.933 150.317 210.067C150.307 207.765 150.297 205.611 150.258 203.789C150.221 202.128 150.159 200.671 150.042 199.555C149.983 199.001 149.907 198.485 149.8 198.052C149.715 197.709 149.541 197.094 149.095 196.648Z" stroke="black" stroke-opacity="0.1" stroke-width="3.09948"/>
</svg>
