<svg width="76" height="55" viewBox="0 0 76 55" fill="none" xmlns="http://www.w3.org/2000/svg">
<path fill-rule="evenodd" clip-rule="evenodd" d="M0.210526 0H74.4888C74.6042 0 74.6981 0.0873896 74.6992 0.202814C74.8708 16.8587 75.3543 50.11 75.9574 54.2879C75.9765 54.4206 75.8721 54.5263 75.7381 54.5263H0.210525C0.094255 54.5263 0 54.4376 0 54.3213V0.193912C0 0.077642 0.0942558 0 0.210526 0ZM6.02742 6.33441C7.19012 6.33441 8.13268 5.39185 8.13268 4.22915C8.13268 3.06644 7.19012 2.12388 6.02742 2.12388C4.86471 2.12388 3.92215 3.06644 3.92215 4.22915C3.92215 5.39185 4.86471 6.33441 6.02742 6.33441ZM16.1907 4.22915C16.1907 5.39185 15.2482 6.33441 14.0855 6.33441C12.9227 6.33441 11.9802 5.39185 11.9802 4.22915C11.9802 3.06644 12.9227 2.12388 14.0855 2.12388C15.2482 2.12388 16.1907 3.06644 16.1907 4.22915ZM22.1647 6.33441C23.3274 6.33441 24.27 5.39185 24.27 4.22915C24.27 3.06644 23.3274 2.12388 22.1647 2.12388C21.002 2.12388 20.0594 3.06644 20.0594 4.22915C20.0594 5.39185 21.002 6.33441 22.1647 6.33441ZM32.328 4.22915C32.328 5.39185 31.3854 6.33441 30.2227 6.33441C29.06 6.33441 28.1175 5.39185 28.1175 4.22915C28.1175 3.06644 29.06 2.12388 30.2227 2.12388C31.3854 2.12388 32.328 3.06644 32.328 4.22915ZM38.3232 6.33441C39.4859 6.33441 40.4284 5.39185 40.4284 4.22915C40.4284 3.06644 39.4859 2.12388 38.3232 2.12388C37.1605 2.12388 36.2179 3.06644 36.2179 4.22915C36.2179 5.39185 37.1605 6.33441 38.3232 6.33441ZM48.4865 4.22915C48.4865 5.39185 47.5439 6.33441 46.3812 6.33441C45.2185 6.33441 44.2759 5.39185 44.2759 4.22915C44.2759 3.06644 45.2185 2.12388 46.3812 2.12388C47.5439 2.12388 48.4865 3.06644 48.4865 4.22915ZM54.4392 6.33441C55.6019 6.33441 56.5445 5.39185 56.5445 4.22915C56.5445 3.06644 55.6019 2.12388 54.4392 2.12388C53.2765 2.12388 52.334 3.06644 52.334 4.22915C52.334 5.39185 53.2765 6.33441 54.4392 6.33441ZM64.6025 4.22915C64.6025 5.39185 63.66 6.33441 62.4973 6.33441C61.3346 6.33441 60.392 5.39185 60.392 4.22915C60.392 3.06644 61.3346 2.12388 62.4973 2.12388C63.66 2.12388 64.6025 3.06644 64.6025 4.22915ZM70.5765 6.33441C71.7392 6.33441 72.6818 5.39185 72.6818 4.22915C72.6818 3.06644 71.7392 2.12388 70.5765 2.12388C69.4138 2.12388 68.4713 3.06644 68.4713 4.22915C68.4713 5.39185 69.4138 6.33441 70.5765 6.33441Z" fill="#F4ABAB"/>
</svg>
