<svg width="304" height="219" viewBox="0 0 304 219" fill="none" xmlns="http://www.w3.org/2000/svg">
<path fill-rule="evenodd" clip-rule="evenodd" d="M0.842105 0H302.955C303.417 0 303.792 0.349572 303.797 0.811272C304.068 28.669 303.734 68.1328 303.415 105.848L303.415 105.854V105.859V105.864V105.867V105.869V105.871V105.873C302.971 158.343 302.555 207.424 303.837 217.15C303.907 217.682 303.488 218.105 302.952 218.105H0.842102C0.37702 218.105 0 217.75 0 217.285V0.77565C0 0.310568 0.377023 0 0.842105 0ZM24.1095 25.3372C28.7603 25.3372 32.5306 21.567 32.5306 16.9162C32.5306 12.2654 28.7603 8.49512 24.1095 8.49512C19.4587 8.49512 15.6885 12.2654 15.6885 16.9162C15.6885 21.567 19.4587 25.3372 24.1095 25.3372ZM64.763 16.9162C64.763 21.567 60.9928 25.3372 56.3419 25.3372C51.6911 25.3372 47.9209 21.567 47.9209 16.9162C47.9209 12.2654 51.6911 8.49512 56.3419 8.49512C60.9928 8.49512 64.763 12.2654 64.763 16.9162ZM88.6584 25.3372C93.3092 25.3372 97.0794 21.567 97.0794 16.9162C97.0794 12.2654 93.3092 8.49512 88.6584 8.49512C84.0075 8.49512 80.2373 12.2654 80.2373 16.9162C80.2373 21.567 84.0075 25.3372 88.6584 25.3372ZM129.312 16.9162C129.312 21.567 125.542 25.3372 120.891 25.3372C116.24 25.3372 112.47 21.567 112.47 16.9162C112.47 12.2654 116.24 8.49512 120.891 8.49512C125.542 8.49512 129.312 12.2654 129.312 16.9162ZM153.292 25.3372C157.943 25.3372 161.713 21.567 161.713 16.9162C161.713 12.2654 157.943 8.49512 153.292 8.49512C148.641 8.49512 144.871 12.2654 144.871 16.9162C144.871 21.567 148.641 25.3372 153.292 25.3372ZM193.946 16.9162C193.946 21.567 190.175 25.3372 185.525 25.3372C180.874 25.3372 177.104 21.567 177.104 16.9162C177.104 12.2654 180.874 8.49512 185.525 8.49512C190.175 8.49512 193.946 12.2654 193.946 16.9162ZM217.757 25.3372C222.408 25.3372 226.178 21.567 226.178 16.9162C226.178 12.2654 222.408 8.49512 217.757 8.49512C213.106 8.49512 209.336 12.2654 209.336 16.9162C209.336 21.567 213.106 25.3372 217.757 25.3372ZM258.41 16.9162C258.41 21.567 254.64 25.3372 249.989 25.3372C245.339 25.3372 241.568 21.567 241.568 16.9162C241.568 12.2654 245.339 8.49512 249.989 8.49512C254.64 8.49512 258.41 12.2654 258.41 16.9162ZM282.306 25.3372C286.957 25.3372 290.727 21.567 290.727 16.9162C290.727 12.2654 286.957 8.49512 282.306 8.49512C277.655 8.49512 273.885 12.2654 273.885 16.9162C273.885 21.567 277.655 25.3372 282.306 25.3372Z" fill="#F4ABAB"/>
</svg>
