<svg width="912" height="657" viewBox="0 0 912 657" fill="none" xmlns="http://www.w3.org/2000/svg">
<path fill-rule="evenodd" clip-rule="evenodd" d="M2.52631 0H908.865C910.251 0 911.376 1.04872 911.391 2.43382C912.204 86.007 911.202 204.398 910.245 317.544V317.562V317.577V317.592V317.601V317.607V317.613V317.619C908.913 475.029 907.665 622.272 911.511 651.45C911.721 653.046 910.464 654.315 908.856 654.315H2.52631C1.13106 654.315 0 653.25 0 651.855V2.32695C0 0.931704 1.13107 0 2.52631 0ZM72.3285 76.0116C86.2809 76.0116 97.5918 64.701 97.5918 50.7486C97.5918 36.7962 86.2809 25.4854 72.3285 25.4854C58.3761 25.4854 47.0655 36.7962 47.0655 50.7486C47.0655 64.701 58.3761 76.0116 72.3285 76.0116ZM194.289 50.7486C194.289 64.701 182.978 76.0116 169.026 76.0116C155.073 76.0116 143.763 64.701 143.763 50.7486C143.763 36.7962 155.073 25.4854 169.026 25.4854C182.978 25.4854 194.289 36.7962 194.289 50.7486ZM265.975 76.0116C279.928 76.0116 291.238 64.701 291.238 50.7486C291.238 36.7962 279.928 25.4854 265.975 25.4854C252.023 25.4854 240.712 36.7962 240.712 50.7486C240.712 64.701 252.023 76.0116 265.975 76.0116ZM387.936 50.7486C387.936 64.701 376.626 76.0116 362.673 76.0116C348.72 76.0116 337.41 64.701 337.41 50.7486C337.41 36.7962 348.72 25.4854 362.673 25.4854C376.626 25.4854 387.936 36.7962 387.936 50.7486ZM459.876 76.0116C473.829 76.0116 485.139 64.701 485.139 50.7486C485.139 36.7962 473.829 25.4854 459.876 25.4854C445.923 25.4854 434.613 36.7962 434.613 50.7486C434.613 64.701 445.923 76.0116 459.876 76.0116ZM581.838 50.7486C581.838 64.701 570.525 76.0116 556.575 76.0116C542.622 76.0116 531.312 64.701 531.312 50.7486C531.312 36.7962 542.622 25.4854 556.575 25.4854C570.525 25.4854 581.838 36.7962 581.838 50.7486ZM653.271 76.0116C667.224 76.0116 678.534 64.701 678.534 50.7486C678.534 36.7962 667.224 25.4854 653.271 25.4854C639.318 25.4854 628.008 36.7962 628.008 50.7486C628.008 64.701 639.318 76.0116 653.271 76.0116ZM775.23 50.7486C775.23 64.701 763.92 76.0116 749.967 76.0116C736.017 76.0116 724.704 64.701 724.704 50.7486C724.704 36.7962 736.017 25.4854 749.967 25.4854C763.92 25.4854 775.23 36.7962 775.23 50.7486ZM846.918 76.0116C860.871 76.0116 872.181 64.701 872.181 50.7486C872.181 36.7962 860.871 25.4854 846.918 25.4854C832.965 25.4854 821.655 36.7962 821.655 50.7486C821.655 64.701 832.965 76.0116 846.918 76.0116Z" fill="#F4ABAB"/>
</svg>
