<svg width="888" height="522" viewBox="0 0 888 522" fill="none" xmlns="http://www.w3.org/2000/svg">
<g clip-path="url(#clip0_1105_1710)">
<path d="M232.68 37.3031C244.141 37.3031 254.254 28.9893 254.254 19.0126C254.254 10.1444 244.141 2.38477 232.68 2.38477C221.219 2.38477 211.781 10.6987 211.781 20.1211C211.781 29.5436 221.219 37.3031 232.68 37.3031ZM47.9574 520.064C103.914 520.064 138.971 470.18 155.825 413.093C180.769 329.399 209.084 231.295 229.309 132.082C232.68 113.791 231.332 99.9347 213.803 96.6092C197.623 93.8378 186.837 104.923 184.814 123.214C180.095 163.12 167.96 202.473 157.847 241.271L145.712 288.384C140.993 306.674 131.555 318.869 113.352 327.737C76.9467 345.473 47.2833 372.632 24.3615 406.994C-7.99863 455.216 -15.4145 520.064 47.9574 520.064ZM47.9574 480.713C41.2158 476.831 52.0026 444.686 60.0924 431.384C74.25 408.104 89.7561 395.357 121.442 369.305C121.442 385.379 101.891 435.818 88.4076 456.878C80.9919 469.073 56.7216 485.699 47.9574 480.713Z" fill="#E06E51"/>
<path d="M389.783 326.074C404.615 326.074 411.356 318.316 411.356 303.349C411.356 279.517 418.097 255.684 426.188 231.851C437.648 198.595 453.827 166.448 470.681 131.53C478.772 115.456 485.513 98.2742 466.637 91.0688C457.199 87.1889 445.739 89.4059 438.323 96.6113C426.188 108.251 399.221 147.049 374.276 182.522C345.962 221.874 302.813 280.072 283.263 280.072C273.825 280.072 302.813 192.499 316.973 163.123C322.364 150.375 341.243 118.782 339.893 107.697C338.546 92.1773 316.298 86.6345 304.835 96.0569C288.657 109.359 264.387 169.219 252.926 203.584C238.094 250.142 223.936 301.687 260.341 318.871C282.589 328.291 305.51 319.423 326.411 303.349C338.546 294.483 347.984 282.289 362.141 267.324L372.254 256.793L370.232 271.758C367.535 290.603 364.838 308.893 372.254 317.206C376.973 322.75 383.039 326.074 389.783 326.074Z" fill="#E06E51"/>
<path d="M469.697 317.205C485.204 317.205 490.598 306.675 497.339 295.589C520.934 256.791 549.923 218.547 594.419 176.978C603.857 168.109 613.97 160.35 625.43 153.144C644.981 140.396 657.116 133.191 651.722 148.156C648.353 156.47 644.309 165.338 640.262 173.098C622.061 208.016 605.207 245.706 591.722 283.95C584.981 302.796 587.003 313.326 605.207 316.098C624.083 318.87 630.149 309.447 634.868 294.481C642.959 267.876 661.163 229.078 690.152 170.326C700.937 148.156 710.375 118.226 688.802 104.369C680.039 98.8266 667.904 97.164 652.397 100.49C613.295 109.358 580.937 132.637 550.598 162.012L540.485 171.435C543.182 164.23 546.554 157.024 549.923 149.819C559.361 128.757 560.711 125.985 560.711 119.889C560.711 111.575 554.642 105.478 545.879 102.706C520.934 95.5011 510.149 127.648 494.642 165.338C476.438 208.016 458.912 246.26 450.146 282.842C445.427 301.131 446.777 317.205 469.697 317.205Z" fill="#E06E51"/>
<path d="M780.133 322.748C819.235 322.748 884.629 285.058 888.001 258.453C888.001 249.585 883.282 241.271 868.45 241.271C842.833 241.826 812.493 286.721 782.154 286.167C761.256 286.167 750.468 266.213 753.165 242.934C753.84 237.391 756.538 235.174 762.604 233.512C800.359 222.981 833.392 205.799 865.078 173.097C875.191 162.566 882.606 150.927 885.978 138.733C894.741 109.357 869.125 84.4154 832.72 85.5239C765.301 88.2953 705.975 188.616 707.997 260.116C709.344 291.709 737.662 322.748 780.133 322.748ZM773.392 190.279C772.045 190.833 769.348 191.388 770.695 188.616C784.852 165.338 796.315 147.047 813.169 133.191C825.976 122.659 841.482 119.334 841.482 128.756C841.482 146.493 804.402 177.531 773.392 190.279Z" fill="#E06E51"/>
</g>
<defs>
<clipPath id="clip0_1105_1710">
<rect width="888" height="522" fill="white"/>
</clipPath>
</defs>
</svg>
