<svg width="296" height="174" viewBox="0 0 296 174" fill="none" xmlns="http://www.w3.org/2000/svg">
<path d="M77.56 12.4346C81.3803 12.4346 84.7512 9.66335 84.7512 6.33778C84.7512 3.38172 81.3803 0.795166 77.56 0.795166C73.7397 0.795166 70.5936 3.56647 70.5936 6.70728C70.5936 9.8481 73.7397 12.4346 77.56 12.4346ZM15.9858 173.355C34.6379 173.355 46.3235 156.727 51.9416 137.698C60.2563 109.8 69.6947 77.0985 76.4364 44.0275C77.56 37.9307 77.1106 33.3118 71.2678 32.2033C65.8744 31.2795 62.2789 34.9746 61.6047 41.0715C60.0316 54.3737 55.9866 67.4913 52.6157 80.424L48.5707 96.1281C46.9977 102.225 43.8515 106.29 37.784 109.246C25.6489 115.158 15.7611 124.211 8.12051 135.665C-2.66621 151.739 -5.13817 173.355 15.9858 173.355ZM15.9858 160.238C13.7386 158.944 17.3342 148.229 20.0308 143.795C24.75 136.035 29.9187 131.786 40.4807 123.102C40.4807 128.46 33.9637 145.273 29.4692 152.293C26.9973 156.358 18.9072 161.9 15.9858 160.238Z" fill="#E06E51"/>
<path d="M129.928 108.691C134.872 108.691 137.119 106.105 137.119 101.116C137.119 93.172 139.366 85.2276 142.063 77.2832C145.883 66.198 151.276 55.4823 156.894 43.8428C159.591 38.4849 161.838 32.7576 155.546 30.3558C152.4 29.0625 148.58 29.8015 146.108 32.2033C142.063 36.0831 133.074 49.0159 124.759 60.8401C115.321 73.9576 100.938 93.3568 94.4213 93.3568C91.2752 93.3568 100.938 64.1657 105.658 54.3738C107.455 50.1244 113.748 39.5935 113.298 35.8984C112.849 30.7253 105.433 28.8777 101.612 32.0185C96.2191 36.4526 88.1291 56.406 84.3088 67.8608C79.3649 83.3801 74.6457 100.562 86.7807 106.29C94.1966 109.43 101.837 106.474 108.804 101.116C112.849 98.1604 115.995 94.0958 120.714 89.1075L124.085 85.5971L123.411 90.5855C122.512 96.8671 121.613 102.964 124.085 105.735C125.658 107.583 127.68 108.691 129.928 108.691Z" fill="#E06E51"/>
<path d="M156.566 105.735C161.735 105.735 163.533 102.225 165.78 98.5299C173.645 85.5971 183.308 72.8491 198.14 58.9926C201.286 56.0365 204.657 53.45 208.477 51.0482C214.994 46.7988 219.039 44.397 217.241 49.3854C216.118 52.1567 214.77 55.1128 213.421 57.6993C207.354 69.3388 201.736 81.9021 197.241 94.6501C194.994 100.932 195.668 104.442 201.736 105.366C208.028 106.29 210.05 103.149 211.623 98.1604C214.32 89.2922 220.388 76.3594 230.051 56.7755C233.646 49.3854 236.792 39.4087 229.601 34.7899C226.68 32.9423 222.635 32.3881 217.466 33.4966C204.432 36.4526 193.646 44.2123 183.533 54.0042L180.162 57.1451C181.061 54.7433 182.185 52.3415 183.308 49.9397C186.454 42.919 186.904 41.9952 186.904 39.963C186.904 37.1917 184.881 35.1594 181.96 34.2356C173.645 31.8338 170.05 42.5495 164.881 55.1128C158.813 69.3388 152.971 82.0868 150.049 94.2806C148.476 100.377 148.926 105.735 156.566 105.735Z" fill="#E06E51"/>
<path d="M260.044 107.583C273.078 107.583 294.876 95.0196 296 86.1514C296 83.1953 294.427 80.424 289.483 80.424C280.944 80.6088 270.831 95.5738 260.718 95.3891C253.752 95.3891 250.156 88.7379 251.055 80.9783C251.28 79.1307 252.179 78.3917 254.201 77.8375C266.786 74.3272 277.797 68.5998 288.359 57.6993C291.73 54.189 294.202 50.3092 295.326 46.2446C298.247 36.4526 289.708 28.1387 277.573 28.5082C255.1 29.432 235.325 62.8724 235.999 86.7057C236.448 97.2366 245.887 107.583 260.044 107.583ZM257.797 63.4267C257.348 63.6114 256.449 63.7962 256.898 62.8724C261.617 55.1128 265.438 49.0159 271.056 44.3971C275.325 40.8867 280.494 39.7782 280.494 42.919C280.494 48.8311 268.134 59.1773 257.797 63.4267Z" fill="#E06E51"/>
</svg>
