<svg width="200" height="301" viewBox="0 0 200 301" fill="none" xmlns="http://www.w3.org/2000/svg">
<rect y="0.36377" width="200" height="300" rx="9.23077" fill="#76DC9F"/>
<rect y="0.36377" width="200" height="300" rx="9.23077" fill="black" fill-opacity="0.05"/>
<rect x="9.23047" y="48.0747" width="181.538" height="30.7692" rx="4.61539" fill="white" fill-opacity="0.2"/>
<path d="M19.6517 69.4959C19.5271 69.4266 19.4302 69.302 19.4025 69.1359C19.3886 69.0113 19.3886 68.8866 19.3748 68.7482C19.3471 68.3051 19.3332 67.8482 19.3194 67.4051C19.3056 66.782 19.2917 66.1728 19.2917 65.5497C19.2779 64.8713 19.2779 64.1928 19.2779 63.5143C19.264 62.8774 19.264 62.2405 19.2779 61.6036C19.2779 61.1051 19.2917 60.6205 19.3056 60.1359C19.3056 60.0113 19.3194 59.8866 19.3332 59.7482C19.4302 58.3359 19.4994 58.0866 19.8456 57.9205C20.2056 57.7405 20.5932 57.9759 20.8286 58.502C20.9948 58.8482 21.604 60.8697 21.8256 61.7836C22.4209 64.3036 22.864 66.0066 22.9332 66.0066C23.044 66.0066 23.7502 63.7082 24.5532 60.6897C24.9132 59.3605 25.2456 58.3774 25.4117 58.1282C25.564 57.9066 25.7994 57.7543 25.9794 57.7543C26.2563 57.7543 26.5471 57.9897 26.6717 58.322C26.8794 58.9036 26.9071 59.5405 26.8656 64.6913C26.8656 65.5636 26.8517 66.4359 26.8517 67.3082C26.8379 67.7651 26.8379 68.2359 26.8379 68.6928C26.8379 68.8313 26.8517 68.9836 26.8379 69.1082C26.7825 69.6205 26.0486 69.6759 25.8132 69.2743C25.744 69.1359 25.744 68.8589 25.744 64.8851C25.744 61.1743 25.744 60.6759 25.6886 60.8697C24.3456 65.6466 24.2071 66.0897 23.9163 66.6159C23.4317 67.4882 22.7394 67.7236 22.2686 67.1697C21.8948 66.7543 21.7148 66.1589 20.7179 62.0605C20.4686 61.0359 20.4548 60.9805 20.4271 61.1743C20.3717 61.4928 20.3717 63.9159 20.4271 66.6436C20.4963 69.4128 20.4963 69.3159 20.1917 69.5097C20.0117 69.6205 19.804 69.5928 19.6517 69.4959Z" fill="white"/>
<rect x="9.23047" y="83.4419" width="181.538" height="30.7692" rx="4.61539" fill="white" fill-opacity="0.2"/>
<path d="M21.5902 105.734C21.4656 105.678 21.3548 105.567 21.3132 105.429C21.2579 105.291 21.2856 105.097 21.2717 104.944C21.2717 104.252 21.2856 103.56 21.2856 102.867C21.2994 102.037 21.3132 101.206 21.3271 100.361C21.3686 97.6059 21.4102 95.2797 21.424 95.1828L21.4517 95.0167L21.064 95.0444C20.0532 95.0997 18.6825 95.0997 18.5302 95.0444C18.3363 94.989 18.1563 94.7397 18.1563 94.5459C18.1563 94.2828 18.3086 94.1028 18.6271 94.0059C18.8071 93.9644 24.7886 93.8536 25.1071 93.8951C25.4256 93.9505 25.7717 94.1997 25.7025 94.5736C25.6471 94.8921 25.3702 94.9613 25.0932 94.989C24.7194 95.0167 24.3317 95.0028 23.9579 95.0167L22.5594 95.0444L22.5317 95.7644C22.5179 96.1659 22.4763 98.4921 22.4486 100.915C22.4071 104.321 22.3794 105.374 22.324 105.484C22.1994 105.789 21.8532 105.858 21.5902 105.734Z" fill="white"/>
<rect x="9.23047" y="118.838" width="181.538" height="30.7692" rx="4.61539" fill="white" fill-opacity="0.2"/>
<path d="M26.2979 140.439C25.7025 140.273 25.1763 139.774 24.8025 139.068C24.4009 138.265 24.0132 137.227 23.764 136.244C23.6532 135.814 23.6117 135.676 23.584 135.759C23.5702 135.828 23.5009 136.188 23.4179 136.562C23.224 137.504 23.0302 138.085 22.6286 138.888C22.1025 139.954 21.7009 140.314 21.0779 140.314C19.9148 140.328 19.444 138.93 19.2779 137.988C18.724 135.081 18.8902 132.187 19.4302 129.113C19.4994 128.781 19.7209 128.393 20.1502 128.49C20.5102 128.573 20.6625 128.891 20.5379 129.307C20.2056 130.345 19.7902 134.471 20.2332 137.213C20.3163 137.711 20.4548 138.224 20.6348 138.694C20.704 138.847 20.7732 139.013 20.9256 139.082C21.604 139.456 22.2132 136.811 22.3102 136.396C22.5456 135.316 22.684 134.222 22.8363 133.142C23.0302 131.716 23.0717 131.591 23.3348 131.481C23.6532 131.342 23.9579 131.453 24.0963 131.758C24.1656 131.896 24.2486 132.339 24.3732 133.253C24.6779 135.385 24.8994 136.341 25.3979 137.614C25.6194 138.196 26.1179 139.636 26.9902 139.29C27.6132 139.041 27.9594 137.434 28.0148 134.458C28.0425 132.838 28.0009 132.09 27.7794 130.567C27.6825 129.971 27.6271 129.431 27.6409 129.348C27.6548 129.279 27.724 129.154 27.8071 129.085C27.9179 128.974 27.9871 128.947 28.1671 128.947C28.3471 128.947 28.4163 128.974 28.5271 129.071C28.5963 129.154 28.6794 129.265 28.7071 129.321C28.7902 129.542 29.0671 131.661 29.1363 132.505C29.164 133.018 29.1779 133.751 29.1502 134.485C29.0671 138.321 28.5686 139.899 27.3502 140.37C27.0317 140.494 26.6025 140.522 26.2979 140.439Z" fill="white"/>
<rect x="9.23047" y="154.217" width="181.538" height="30.7692" rx="4.61539" fill="white" fill-opacity="0.2"/>
<path d="M21.5902 175.749C21.4656 175.693 21.3548 175.583 21.3132 175.444C21.2579 175.306 21.2856 175.112 21.2717 174.96C21.2717 174.267 21.2856 173.575 21.2856 172.883C21.2994 172.052 21.3132 171.221 21.3271 170.376C21.3686 167.621 21.4102 165.295 21.424 165.198L21.4517 165.032L21.064 165.06C20.0532 165.115 18.6825 165.115 18.5302 165.06C18.3363 165.004 18.1563 164.755 18.1563 164.561C18.1563 164.298 18.3086 164.118 18.6271 164.021C18.8071 163.979 24.7886 163.869 25.1071 163.91C25.4256 163.966 25.7717 164.215 25.7025 164.589C25.6471 164.907 25.3702 164.976 25.0932 165.004C24.7194 165.032 24.3317 165.018 23.9579 165.032L22.5594 165.06L22.5317 165.779C22.5179 166.181 22.4763 168.507 22.4486 170.93C22.4071 174.336 22.3794 175.389 22.324 175.5C22.1994 175.804 21.8532 175.873 21.5902 175.749Z" fill="white"/>
<rect x="9.23047" y="189.613" width="181.538" height="30.7692" rx="4.61539" fill="white" fill-opacity="0.2"/>
<path d="M19.624 210.951C19.5132 210.854 19.4579 210.758 19.4163 210.578C19.264 209.885 19.2779 203.627 19.4302 200.968C19.4994 199.75 19.5271 199.667 19.8456 199.501C20.0256 199.404 20.0948 199.404 22.2825 199.39C23.8748 199.376 24.5809 199.39 24.664 199.431C25.0656 199.598 25.1486 200.054 24.844 200.359C24.7609 200.442 24.6363 200.484 24.5117 200.484L23.4871 200.498C22.8086 200.511 21.8948 200.525 21.4379 200.539L20.6071 200.581L20.5794 200.719C20.5517 200.871 20.4686 202.99 20.4686 203.433V203.71H21.9086C23.1271 203.71 23.3625 203.724 23.5009 203.779C23.9025 203.973 23.9163 204.499 23.5286 204.748C23.4179 204.818 23.2517 204.831 21.9363 204.845L20.4548 204.859L20.4409 205.108C20.3856 205.482 20.4548 209.664 20.5102 210.19C20.5517 210.578 20.5517 210.661 20.4825 210.785C20.3302 211.118 19.9009 211.201 19.624 210.951Z" fill="white"/>
<rect x="9.23047" y="224.98" width="181.538" height="30.7692" rx="4.61539" fill="white" fill-opacity="0.2"/>
<path d="M20.2056 246.457C19.6379 246.332 19.3194 246.193 19.2086 246C18.9732 245.626 19.2225 245.183 19.6517 245.183C19.7209 245.183 19.8871 245.224 20.0256 245.266C20.4409 245.418 20.8979 245.473 21.3409 245.446C22.2686 245.39 22.6563 244.933 22.4209 244.158C22.3102 243.812 21.964 243.355 21.3409 242.746C20.1363 241.583 19.5825 241.001 19.3471 240.655C18.4748 239.381 18.3779 238.066 19.0563 236.64C19.8179 235.075 21.9363 234.009 23.4594 235.255C23.9163 235.629 24.3594 236.28 24.3594 236.598C24.3594 236.917 24.124 237.166 23.8056 237.166C23.5702 237.166 23.4179 237.041 23.2517 236.737C23.0717 236.39 22.7394 236.044 22.4763 235.933C21.4794 235.477 20.6071 236.183 20.1502 237.027C19.7486 237.747 19.5825 238.647 19.9148 239.437C20.2609 240.267 21.064 240.89 21.6871 241.513C22.9332 242.76 23.2379 243.12 23.4456 243.673C23.7225 244.435 23.6532 245.141 23.2517 245.723C23.044 246.013 22.6702 246.263 22.2409 246.401C21.7148 246.567 20.8286 246.595 20.2056 246.457Z" fill="white"/>
<rect x="9.23047" y="260.378" width="181.538" height="30.7692" rx="4.61539" fill="white" fill-opacity="0.2"/>
<path d="M20.2056 281.833C19.6379 281.709 19.3194 281.57 19.2086 281.377C18.9732 281.003 19.2225 280.56 19.6517 280.56C19.7209 280.56 19.8871 280.601 20.0256 280.643C20.4409 280.795 20.8979 280.85 21.3409 280.823C22.2686 280.767 22.6563 280.31 22.4209 279.535C22.3102 279.189 21.964 278.732 21.3409 278.123C20.1363 276.96 19.5825 276.378 19.3471 276.032C18.4748 274.758 18.3779 273.443 19.0563 272.017C19.8179 270.452 21.9363 269.386 23.4594 270.632C23.9163 271.006 24.3594 271.657 24.3594 271.975C24.3594 272.293 24.124 272.543 23.8056 272.543C23.5702 272.543 23.4179 272.418 23.2517 272.113C23.0717 271.767 22.7394 271.421 22.4763 271.31C21.4794 270.853 20.6071 271.56 20.1502 272.404C19.7486 273.124 19.5825 274.024 19.9148 274.813C20.2609 275.644 21.064 276.267 21.6871 276.89C22.9332 278.137 23.2379 278.497 23.4456 279.05C23.7225 279.812 23.6532 280.518 23.2517 281.1C23.044 281.39 22.6702 281.64 22.2409 281.778C21.7148 281.944 20.8286 281.972 20.2056 281.833Z" fill="white"/>
<path d="M68.1426 28.8242C67.3487 28.6026 66.6472 27.938 66.1487 26.9965C65.6134 25.9257 65.0964 24.5411 64.7641 23.2303C64.6164 22.658 64.5611 22.4734 64.5241 22.5842C64.5057 22.6765 64.4134 23.1565 64.3026 23.6549C64.0441 24.9103 63.7857 25.6857 63.2503 26.7565C62.5487 28.178 62.0134 28.658 61.1826 28.658C59.6318 28.6765 59.0041 26.8119 58.7826 25.5565C58.0441 21.6796 58.2657 17.8211 58.9857 13.7226C59.078 13.2796 59.3734 12.7626 59.9457 12.8919C60.4257 13.0026 60.6287 13.4273 60.4626 13.9811C60.0195 15.3657 59.4657 20.8673 60.0564 24.5226C60.1672 25.1873 60.3518 25.8703 60.5918 26.498C60.6841 26.7011 60.7764 26.9226 60.9795 27.0149C61.8841 27.5134 62.6964 23.9873 62.8257 23.4334C63.1395 21.9934 63.3241 20.5349 63.5272 19.0949C63.7857 17.1934 63.8411 17.0273 64.1918 16.8796C64.6164 16.6949 65.0226 16.8426 65.2072 17.2488C65.2995 17.4334 65.4103 18.0242 65.5764 19.2426C65.9826 22.0857 66.278 23.3596 66.9426 25.058C67.238 25.8334 67.9026 27.7534 69.0657 27.2919C69.8964 26.9596 70.358 24.818 70.4318 20.8488C70.4687 18.6888 70.4134 17.6919 70.118 15.6611C69.9887 14.8673 69.9149 14.1473 69.9334 14.0365C69.9518 13.9442 70.0441 13.778 70.1549 13.6857C70.3026 13.538 70.3949 13.5011 70.6349 13.5011C70.8749 13.5011 70.9672 13.538 71.1149 13.6673C71.2072 13.778 71.318 13.9257 71.3549 13.9996C71.4657 14.2949 71.8349 17.1196 71.9272 18.2457C71.9641 18.9288 71.9826 19.9073 71.9457 20.8857C71.8349 25.9996 71.1703 28.1042 69.5457 28.7319C69.1211 28.898 68.5487 28.9349 68.1426 28.8242ZM79.7212 26.0734C79.9796 26.2026 80.1273 26.4426 80.1273 26.738C80.1273 27.0519 79.9981 27.2549 79.6104 27.6057C78.7612 28.3811 77.2473 28.7503 76.2688 28.418C75.3827 28.1042 74.6627 27.4765 74.1827 26.6642C73.2411 25.0765 73.2227 22.9349 73.7027 21.1811C74.1273 19.5565 74.8288 18.4119 75.9181 17.5996C76.0288 17.5257 76.1396 17.4519 76.2504 17.378C77.2842 16.8057 78.5765 16.9349 79.1304 18.0611C79.5919 18.9842 79.4258 20.1473 79.0011 21.0703C78.4473 22.3257 76.8781 23.3226 75.4565 23.3226H74.9396V23.3411C74.9396 23.7288 74.9581 24.1165 75.0135 24.5042C75.0319 24.6334 75.0688 24.7626 75.0873 24.8919C75.2904 25.7042 75.715 26.4796 76.4719 26.8673C77.2288 27.2549 78.1888 26.9042 78.7612 26.3503C79.1304 25.9996 79.3888 25.9257 79.7212 26.0734ZM75.6227 20.2949C75.3273 20.9226 75.1058 21.6242 75.1611 21.7719C75.2904 22.0857 76.1027 21.7165 76.2873 21.6242C77.3211 21.1996 78.1888 20.0365 77.875 18.8734C77.7827 18.5596 77.6165 18.4673 77.2842 18.5596C76.7304 18.7073 76.0473 19.4088 75.6227 20.2949ZM86.9868 26.0734C87.2452 26.2026 87.3929 26.4426 87.3929 26.738C87.3929 27.0519 87.2637 27.2549 86.876 27.6057C86.0268 28.3811 84.5129 28.7503 83.5345 28.418C82.6483 28.1042 81.9283 27.4765 81.4483 26.6642C80.5068 25.0765 80.4883 22.9349 80.9683 21.1811C81.3929 19.5565 82.0945 18.4119 83.1837 17.5996C83.2945 17.5257 83.4052 17.4519 83.516 17.378C84.5499 16.8057 85.8422 16.9349 86.396 18.0611C86.8575 18.9842 86.6914 20.1473 86.2668 21.0703C85.7129 22.3257 84.1437 23.3226 82.7222 23.3226H82.2052V23.3411C82.2052 23.7288 82.2237 24.1165 82.2791 24.5042C82.2975 24.6334 82.3345 24.7626 82.3529 24.8919C82.556 25.7042 82.9806 26.4796 83.7375 26.8673C84.4945 27.2549 85.4545 26.9042 86.0268 26.3503C86.396 25.9996 86.6545 25.9257 86.9868 26.0734ZM82.8883 20.2949C82.5929 20.9226 82.3714 21.6242 82.4268 21.7719C82.556 22.0857 83.3683 21.7165 83.5529 21.6242C84.5868 21.1996 85.4545 20.0365 85.1406 18.8734C85.0483 18.5596 84.8822 18.4673 84.5499 18.5596C83.996 18.7073 83.3129 19.4088 82.8883 20.2949ZM89.1939 28.2888C88.9539 28.178 88.7693 27.9565 88.7139 27.6796C88.5478 26.5903 88.7324 14.5903 88.9539 12.3196C89.0278 11.5442 89.0462 11.4334 89.1939 11.2488C89.4155 10.9534 89.7662 10.8611 90.0616 11.0088C90.1909 11.0826 90.3386 11.2119 90.4124 11.3226C90.5232 11.5257 90.5232 11.5626 90.4124 12.8365C90.3201 14.0365 90.2093 18.1349 90.2093 20.4796C90.2093 21.2734 90.2093 21.3842 90.2832 21.3103C90.4862 21.1073 91.6678 19.3903 92.2586 18.4673C92.6093 17.9319 92.9601 17.4149 93.0709 17.3226C93.5693 16.898 94.2709 17.2119 94.2709 17.8765C94.2709 18.0611 94.1416 18.3011 93.6062 19.1688C93.2186 19.7596 92.6832 20.5534 92.4062 20.9596C92.1293 21.3473 91.9078 21.698 91.9078 21.7349C91.9078 21.8642 92.0739 22.0857 92.1478 22.2149C92.3324 22.5657 92.517 22.898 92.7201 23.2488C93.1447 24.0242 93.5693 24.7811 94.0309 25.538C94.2893 25.9811 94.5847 26.4057 94.8432 26.8488C94.9724 27.0519 95.0832 27.2365 95.0832 27.4765C95.1016 27.9749 94.6401 28.3257 94.1601 28.178C93.8462 28.0857 93.6801 27.7719 93.5139 27.5134C92.8309 26.5534 92.2401 25.5011 91.6678 24.4673C91.2616 23.7103 90.8924 23.0826 90.8739 23.0457C90.8555 23.0273 90.6709 23.1934 90.4862 23.4334L90.117 23.8765L90.1909 25.7965C90.2093 26.3134 90.2278 26.8488 90.2093 27.3842C90.2093 27.7534 90.1724 28.1411 89.7662 28.3073C89.5816 28.3811 89.3786 28.3626 89.1939 28.2888ZM96.6008 28.2703C96.4715 28.1965 96.3608 28.0857 96.3054 27.9196C96.1946 27.3842 96.2315 26.8119 96.2315 26.2765C96.2131 24.7626 96.2315 23.2673 96.2315 21.7534C96.2315 21.5319 96.2315 21.3103 96.2315 21.0888C96.2315 13.5565 96.2685 11.7473 96.3977 11.5073C96.5638 11.1934 97.0254 11.0642 97.3946 11.2488C97.4869 11.2857 97.5977 11.4334 97.6715 11.5626C97.7638 11.7842 97.7823 12.1719 97.7454 19.778C97.7269 21.4949 97.7269 23.2119 97.7085 24.9288C97.7085 25.7226 97.7085 26.5349 97.6531 27.3288C97.6346 27.5503 97.6531 27.9011 97.5238 28.0857C97.3392 28.3442 96.9146 28.3996 96.6008 28.2703ZM102.119 34.8796C101.417 34.7134 100.088 34.2334 100.217 33.3657C100.273 33.0149 100.568 32.7565 100.919 32.7749C101.454 32.7749 101.879 33.2365 102.377 33.3842C103.245 33.6611 104.26 33.5503 104.925 32.9042C105.368 32.4796 105.682 31.6303 105.83 30.4488C105.922 29.8026 106.088 24.3749 106.033 24.3011C106.014 24.3011 105.903 24.5596 105.774 24.9103C105.442 25.7965 104.888 26.9226 104.556 27.3842C103.762 28.4365 102.359 28.8796 101.27 27.938C100.623 27.3657 100.291 26.5165 100.106 25.6673C99.7372 23.9873 99.7741 22.2703 99.848 20.5534C99.8849 19.8334 99.9218 19.1134 99.9772 18.3934C99.9957 18.1165 100.014 17.8211 100.125 17.5626C100.254 17.3042 100.513 17.0826 100.79 17.1011C101.085 17.1196 101.325 17.378 101.417 17.6549C101.51 17.9319 101.491 18.2457 101.473 18.5411C101.306 20.5534 101.14 22.6765 101.454 24.6888C101.546 25.2796 101.786 26.7934 102.506 26.9596C103.171 27.1257 103.633 26.0365 103.854 25.5934C104.445 24.3934 104.833 23.138 105.22 21.2734C105.7 18.9473 105.996 17.6919 106.088 17.5073C106.236 17.2673 106.568 17.1011 106.826 17.138C107.085 17.1749 107.362 17.4334 107.436 17.7103C107.528 18.0796 107.583 23.4888 107.51 26.6273C107.436 30.3934 107.306 31.4826 106.882 32.5534C106.457 33.5688 105.94 34.178 105.073 34.6026C104.186 35.0457 103.153 35.138 102.193 34.898C102.174 34.898 102.137 34.898 102.119 34.8796ZM120.166 16.9165C120.591 18.578 120.388 20.3688 119.372 21.7719C118.412 23.1196 116.898 23.8211 115.329 24.1903L114.886 24.3011V25.5196C114.886 26.2026 114.923 27.0519 114.96 27.4396C115.015 28.1965 114.978 28.3626 114.665 28.6026C114.498 28.7319 114.111 28.7688 113.871 28.658C113.575 28.5103 113.501 28.2888 113.428 27.0888C113.298 25.0765 113.483 15.5134 113.668 14.1657C113.741 13.7411 113.963 13.2796 114.221 13.1134C114.443 12.9657 115.92 12.9842 116.474 13.1319C118.283 13.6303 119.668 15.0519 120.166 16.9165ZM118.8 19.3534C119.151 17.4703 118.246 15.2919 116.326 14.6642C116.049 14.5534 115.735 14.498 115.514 14.498H115.145L115.108 15.0703C114.978 17.1196 114.849 22.7688 114.941 22.7688C114.978 22.7688 115.218 22.6949 115.477 22.6211C116.197 22.3811 116.917 22.0673 117.508 21.5873C118.209 21.0149 118.634 20.2211 118.8 19.3534ZM122.328 28.2703C122.199 28.1965 122.088 28.0857 122.033 27.9196C121.922 27.3842 121.959 26.8119 121.959 26.2765C121.94 24.7626 121.959 23.2673 121.959 21.7534C121.959 21.5319 121.959 21.3103 121.959 21.0888C121.959 13.5565 121.996 11.7473 122.125 11.5073C122.291 11.1934 122.753 11.0642 123.122 11.2488C123.214 11.2857 123.325 11.4334 123.399 11.5626C123.491 11.7842 123.509 12.1719 123.473 19.778C123.454 21.4949 123.454 23.2119 123.436 24.9288C123.436 25.7226 123.436 26.5349 123.38 27.3288C123.362 27.5503 123.38 27.9011 123.251 28.0857C123.066 28.3442 122.642 28.3996 122.328 28.2703ZM132.387 23.7473C132.443 27.4765 132.424 27.8642 132.332 28.0488C132.074 28.5473 131.354 28.5288 131.058 28.0303C130.966 27.8826 130.947 27.6426 130.911 26.4796L130.892 25.1134L130.56 25.778C129.914 27.0519 129.249 27.8457 128.474 28.1965C126.258 29.2488 125.335 26.5903 125.169 24.9103C124.984 22.8611 125.631 20.2396 126.701 18.7996C127.532 17.6734 128.271 17.2303 129.323 17.2303C129.951 17.2303 130.394 17.3596 130.947 17.7288C131.907 18.3565 132.351 19.4457 132.369 20.5534C132.369 21.0149 132.369 21.4765 132.369 21.938C132.387 22.5288 132.387 23.138 132.387 23.7473ZM129.951 23.3411C130.541 21.7534 130.837 20.7565 130.837 20.3134C130.837 19.1688 129.618 18.3565 128.714 18.8919C127.514 19.5934 126.572 22.178 126.664 24.4673C126.683 24.9657 126.794 26.8119 127.514 26.8857C127.661 26.9042 127.827 26.8488 127.957 26.7565C129.027 26.0919 129.544 24.4488 129.951 23.3411ZM134.911 28.3626C134.671 28.3073 134.56 28.2149 134.431 27.9749C134.338 27.7719 134.338 26.3688 134.486 20.7934C134.56 17.9319 134.56 17.8765 134.911 17.6549C135.317 17.4149 135.797 17.5811 135.982 18.0057C136.055 18.1903 136.074 18.3565 136.037 18.7442L136 19.2611L136.295 18.8734C136.886 18.0796 137.772 17.4149 138.751 17.1934C140.209 16.8611 141.298 18.0242 141.723 19.2796C142.074 20.3503 142.037 21.4949 142.055 22.6026C142.092 24.7996 141.963 27.6057 141.797 27.9749C141.705 28.2149 141.391 28.418 141.132 28.418C140.874 28.418 140.56 28.2149 140.468 27.9565C140.394 27.7903 140.394 27.6057 140.431 26.8857C140.523 25.6119 140.634 24.3196 140.634 23.0273C140.634 21.8642 140.652 20.3688 140.117 19.298C139.563 18.1903 138.529 18.7073 137.846 19.3903C137.163 20.0734 136.628 21.2365 136.166 23.1011C135.982 23.8765 135.889 25.0949 135.871 26.8303C135.871 27.2549 135.852 27.698 135.815 27.8088C135.705 28.2149 135.317 28.4365 134.911 28.3626Z" fill="white"/>
</svg>
