<svg width="600" height="903" viewBox="0 0 600 903" fill="none" xmlns="http://www.w3.org/2000/svg">
<path d="M572.308 1.09277H27.6923C12.3983 1.09277 0 13.491 0 28.7851V873.4C0 888.695 12.3983 901.093 27.6923 901.093H572.308C587.602 901.093 600 888.695 600 873.4V28.7851C600 13.491 587.602 1.09277 572.308 1.09277Z" fill="#76DC9F"/>
<path d="M572.308 1.09277H27.6923C12.3983 1.09277 0 13.491 0 28.7851V873.4C0 888.695 12.3983 901.093 27.6923 901.093H572.308C587.602 901.093 600 888.695 600 873.4V28.7851C600 13.491 587.602 1.09277 572.308 1.09277Z" fill="black" fill-opacity="0.05"/>
<path d="M558.459 144.223H41.5376C33.8905 144.223 27.6914 150.422 27.6914 158.069V222.684C27.6914 230.331 33.8905 236.53 41.5376 236.53H558.459C566.106 236.53 572.305 230.331 572.305 222.684V158.069C572.305 150.422 566.106 144.223 558.459 144.223Z" fill="white" fill-opacity="0.2"/>
<path d="M58.9554 208.487C58.5816 208.279 58.2909 207.905 58.2078 207.407C58.1661 207.033 58.1661 206.659 58.1247 206.243C58.0416 204.914 57.9999 203.543 57.9585 202.214C57.9171 200.345 57.8754 198.517 57.8754 196.648C57.834 194.613 57.834 192.577 57.834 190.542C57.7923 188.631 57.7923 186.72 57.834 184.81C57.834 183.314 57.8754 181.86 57.9171 180.407C57.9171 180.033 57.9585 179.659 57.9999 179.243C58.2909 175.007 58.4985 174.259 59.5371 173.76C60.6171 173.22 61.7799 173.927 62.4861 175.505C62.9847 176.543 64.8123 182.608 65.4771 185.35C67.263 192.91 68.5923 198.019 68.7999 198.019C69.1323 198.019 71.2509 191.123 73.6599 182.068C74.7399 178.08 75.7371 175.131 76.2354 174.383C76.6923 173.719 77.3985 173.262 77.9385 173.262C78.7692 173.262 79.6416 173.968 80.0154 174.965C80.6385 176.71 80.7216 178.62 80.5971 194.073C80.5971 196.69 80.5554 199.307 80.5554 201.923C80.514 203.294 80.514 204.707 80.514 206.077C80.514 206.493 80.5554 206.95 80.514 207.323C80.3478 208.86 78.1461 209.027 77.4399 207.822C77.2323 207.407 77.2323 206.576 77.2323 194.654C77.2323 183.522 77.2323 182.027 77.0661 182.608C73.0371 196.939 72.6216 198.268 71.7492 199.847C70.2954 202.463 68.2185 203.17 66.8061 201.508C65.6847 200.262 65.1447 198.476 62.154 186.18C61.4061 183.107 61.3647 182.94 61.2816 183.522C61.1154 184.477 61.1154 191.747 61.2816 199.93C61.4892 208.237 61.4892 207.947 60.5754 208.528C60.0354 208.86 59.4123 208.777 58.9554 208.487Z" fill="white"/>
<path d="M558.459 250.327H41.5376C33.8905 250.327 27.6914 256.526 27.6914 264.173V328.789C27.6914 336.436 33.8905 342.635 41.5376 342.635H558.459C566.106 342.635 572.305 336.436 572.305 328.789V264.173C572.305 256.526 566.106 250.327 558.459 250.327Z" fill="white" fill-opacity="0.2"/>
<path d="M64.7705 317.202C64.3967 317.034 64.0643 316.701 63.9395 316.287C63.7736 315.873 63.8567 315.291 63.815 314.832C63.815 312.756 63.8567 310.68 63.8567 308.601C63.8981 306.111 63.9395 303.618 63.9812 301.083C64.1057 292.818 64.2305 285.839 64.2719 285.549L64.355 285.05L63.1918 285.134C60.1594 285.299 56.0473 285.299 55.5904 285.134C55.0087 284.967 54.4688 284.219 54.4688 283.638C54.4688 282.849 54.9257 282.309 55.8812 282.018C56.4212 281.894 74.3656 281.561 75.3211 281.686C76.2766 281.852 77.3149 282.599 77.1073 283.721C76.9411 284.677 76.1105 284.884 75.2795 284.967C74.1581 285.05 72.9949 285.009 71.8735 285.05L67.6781 285.134L67.595 287.294C67.5536 288.498 67.4288 295.477 67.3457 302.745C67.2212 312.963 67.138 316.122 66.9718 316.452C66.598 317.367 65.5595 317.574 64.7705 317.202Z" fill="white"/>
<path d="M558.459 356.514H41.5376C33.8905 356.514 27.6914 362.713 27.6914 370.36V434.975C27.6914 442.622 33.8905 448.821 41.5376 448.821H558.459C566.106 448.821 572.305 442.622 572.305 434.975V370.36C572.305 362.713 566.106 356.514 558.459 356.514Z" fill="white" fill-opacity="0.2"/>
<path d="M78.8945 421.316C77.1083 420.818 75.5297 419.321 74.4083 417.203C73.2035 414.794 72.0404 411.68 71.2928 408.731C70.9604 407.441 70.8359 407.027 70.7528 407.276C70.7114 407.483 70.5035 408.563 70.2545 409.685C69.6728 412.511 69.0914 414.254 67.8866 416.663C66.3083 419.861 65.1035 420.941 63.2345 420.941C59.7452 420.983 58.3328 416.789 57.8345 413.963C56.1728 405.242 56.6714 396.56 58.2914 387.338C58.499 386.342 59.1635 385.178 60.4514 385.469C61.5314 385.718 61.9883 386.672 61.6145 387.92C60.6176 391.034 59.3714 403.412 60.7004 411.638C60.9497 413.132 61.3652 414.671 61.9052 416.081C62.1128 416.54 62.3204 417.038 62.7776 417.245C64.8128 418.367 66.6404 410.432 66.9314 409.187C67.6376 405.947 68.0528 402.665 68.5097 399.425C69.0914 395.147 69.2159 394.772 70.0052 394.442C70.9604 394.025 71.8745 394.358 72.2897 395.273C72.4976 395.687 72.7466 397.016 73.1204 399.758C74.0345 406.154 74.699 409.022 76.1945 412.841C76.859 414.587 78.3545 418.907 80.9714 417.869C82.8404 417.122 83.879 412.301 84.0452 403.373C84.1283 398.513 84.0035 396.269 83.339 391.7C83.0483 389.912 82.8821 388.292 82.9235 388.043C82.9652 387.836 83.1728 387.461 83.4221 387.254C83.7545 386.921 83.9621 386.84 84.5021 386.84C85.0421 386.84 85.2497 386.921 85.5821 387.212C85.7897 387.461 86.039 387.794 86.1221 387.962C86.3714 388.625 87.2021 394.982 87.4097 397.514C87.4928 399.053 87.5345 401.252 87.4514 403.454C87.2021 414.962 85.7066 419.696 82.0514 421.109C81.0959 421.481 79.8083 421.565 78.8945 421.316Z" fill="white"/>
<path d="M558.459 462.651H41.5376C33.8905 462.651 27.6914 468.851 27.6914 476.498V541.113C27.6914 548.76 33.8905 554.959 41.5376 554.959H558.459C566.106 554.959 572.305 548.76 572.305 541.113V476.498C572.305 468.851 566.106 462.651 558.459 462.651Z" fill="white" fill-opacity="0.2"/>
<path d="M64.7705 527.248C64.3967 527.08 64.0643 526.75 63.9395 526.333C63.7736 525.919 63.8567 525.337 63.815 524.881C63.815 522.802 63.8567 520.726 63.8567 518.65C63.8981 516.157 63.9395 513.664 63.9812 511.129C64.1057 502.864 64.2305 495.886 64.2719 495.595L64.355 495.097L63.1918 495.181C60.1594 495.346 56.0473 495.346 55.5904 495.181C55.0087 495.013 54.4688 494.266 54.4688 493.684C54.4688 492.895 54.9257 492.355 55.8812 492.064C56.4212 491.938 74.3656 491.608 75.3211 491.731C76.2766 491.899 77.3149 492.646 77.1073 493.768C76.9411 494.722 76.1105 494.929 75.2795 495.013C74.1581 495.097 72.9949 495.055 71.8735 495.097L67.6781 495.181L67.595 497.338C67.5536 498.544 67.4288 505.522 67.3457 512.791C67.2212 523.009 67.138 526.168 66.9718 526.501C66.598 527.413 65.5595 527.62 64.7705 527.248Z" fill="white"/>
<path d="M558.459 568.84H41.5376C33.8905 568.84 27.6914 575.039 27.6914 582.686V647.301C27.6914 654.948 33.8905 661.147 41.5376 661.147H558.459C566.106 661.147 572.305 654.948 572.305 647.301V582.686C572.305 575.039 566.106 568.84 558.459 568.84Z" fill="white" fill-opacity="0.2"/>
<path d="M58.8724 632.853C58.54 632.562 58.3741 632.274 58.2493 631.734C57.7924 629.655 57.8341 610.881 58.291 602.904C58.4986 599.25 58.5817 599.001 59.5372 598.503C60.0772 598.212 60.2848 598.212 66.8479 598.17C71.6248 598.128 73.7431 598.17 73.9924 598.293C75.1972 598.794 75.4462 600.162 74.5324 601.077C74.2831 601.326 73.9093 601.452 73.5355 601.452L70.4617 601.494C68.4262 601.533 65.6848 601.575 64.3141 601.617L61.8217 601.743L61.7386 602.157C61.6555 602.613 61.4062 608.97 61.4062 610.299V611.13H65.7262C69.3817 611.13 70.0879 611.172 70.5031 611.337C71.7079 611.919 71.7493 613.497 70.5862 614.244C70.2541 614.454 69.7555 614.493 65.8093 614.535L61.3648 614.577L61.3231 615.324C61.1572 616.446 61.3648 628.992 61.531 630.57C61.6555 631.734 61.6555 631.983 61.4479 632.355C60.991 633.354 59.7031 633.603 58.8724 632.853Z" fill="white"/>
<path d="M558.459 674.941H41.5376C33.8905 674.941 27.6914 681.141 27.6914 688.788V753.403C27.6914 761.05 33.8905 767.249 41.5376 767.249H558.459C566.106 767.249 572.305 761.05 572.305 753.403V688.788C572.305 681.141 566.106 674.941 558.459 674.941Z" fill="white" fill-opacity="0.2"/>
<path d="M60.6175 739.372C58.9144 738.997 57.9589 738.58 57.6265 738.001C56.9203 736.879 57.6682 735.55 58.9558 735.55C59.1634 735.55 59.662 735.673 60.0775 735.799C61.3234 736.255 62.6944 736.42 64.0234 736.339C66.8065 736.171 67.9696 734.8 67.2634 732.475C66.9313 731.437 65.8927 730.066 64.0234 728.239C60.4096 724.75 58.7482 723.004 58.042 721.966C55.4251 718.144 55.1344 714.199 57.1696 709.921C59.4544 705.226 65.8096 702.028 70.3789 705.766C71.7496 706.888 73.0789 708.841 73.0789 709.795C73.0789 710.752 72.3727 711.499 71.4175 711.499C70.7113 711.499 70.2544 711.124 69.7558 710.212C69.2158 709.171 68.2189 708.133 67.4296 707.8C64.4389 706.432 61.822 708.55 60.4513 711.082C59.2465 713.242 58.7482 715.942 59.7451 718.312C60.7834 720.802 63.1927 722.671 65.062 724.54C68.8003 728.281 69.7144 729.361 70.3375 731.02C71.1682 733.306 70.9603 735.424 69.7558 737.17C69.1327 738.04 68.0113 738.79 66.7234 739.204C65.1451 739.702 62.4865 739.786 60.6175 739.372Z" fill="white"/>
<path d="M558.459 781.134H41.5376C33.8905 781.134 27.6914 787.333 27.6914 794.98V859.595C27.6914 867.242 33.8905 873.441 41.5376 873.441H558.459C566.106 873.441 572.305 867.242 572.305 859.595V794.98C572.305 787.333 566.106 781.134 558.459 781.134Z" fill="white" fill-opacity="0.2"/>
<path d="M60.6175 845.5C58.9144 845.128 57.9589 844.711 57.6265 844.132C56.9203 843.01 57.6682 841.681 58.9558 841.681C59.1634 841.681 59.662 841.804 60.0775 841.93C61.3234 842.386 62.6944 842.551 64.0234 842.47C66.8065 842.302 67.9696 840.931 67.2634 838.606C66.9313 837.568 65.8927 836.197 64.0234 834.37C60.4096 830.881 58.7482 829.135 58.042 828.097C55.4251 824.275 55.1344 820.33 57.1696 816.052C59.4544 811.357 65.8096 808.159 70.3789 811.897C71.7496 813.019 73.0789 814.972 73.0789 815.926C73.0789 816.88 72.3727 817.63 71.4175 817.63C70.7113 817.63 70.2544 817.255 69.7558 816.34C69.2158 815.302 68.2189 814.264 67.4296 813.931C64.4389 812.56 61.822 814.681 60.4513 817.213C59.2465 819.373 58.7482 822.073 59.7451 824.44C60.7834 826.933 63.1927 828.802 65.062 830.671C68.8003 834.412 69.7144 835.492 70.3375 837.151C71.1682 839.437 70.9603 841.555 69.7558 843.301C69.1327 844.171 68.0113 844.921 66.7234 845.335C65.1451 845.833 62.4865 845.917 60.6175 845.5Z" fill="white"/>
<path d="M204.429 86.4724C202.047 85.8076 199.943 83.8138 198.447 80.9893C196.841 77.7769 195.29 73.6231 194.293 69.6907C193.85 67.9738 193.684 67.42 193.573 67.7524C193.518 68.0293 193.241 69.4693 192.909 70.9645C192.133 74.7307 191.358 77.0569 189.752 80.2693C187.647 84.5338 186.041 85.9738 183.549 85.9738C178.897 86.0293 177.013 80.4355 176.349 76.6693C174.133 65.0386 174.798 53.4631 176.958 41.1676C177.235 39.8386 178.121 38.2876 179.838 38.6755C181.278 39.0076 181.887 40.2817 181.389 41.9431C180.06 46.0969 178.398 62.6017 180.17 73.5676C180.503 75.5617 181.057 77.6107 181.777 79.4938C182.053 80.1031 182.33 80.7676 182.94 81.0445C185.653 82.54 188.09 71.9617 188.478 70.3C189.42 65.98 189.973 61.6045 190.583 57.2845C191.358 51.58 191.524 51.0817 192.577 50.6386C193.85 50.0845 195.069 50.5276 195.623 51.7462C195.9 52.3 196.232 54.0724 196.73 57.7276C197.949 66.2569 198.835 70.0786 200.829 75.1738C201.715 77.5 203.709 83.26 207.198 81.8755C209.69 80.8786 211.075 74.4538 211.297 62.5462C211.407 56.0662 211.241 53.0755 210.355 46.9831C209.967 44.6017 209.746 42.4417 209.801 42.1093C209.857 41.8324 210.133 41.3338 210.466 41.0569C210.909 40.6138 211.186 40.5031 211.906 40.5031C212.626 40.5031 212.903 40.6138 213.346 41.0017C213.623 41.3338 213.955 41.7769 214.066 41.9986C214.398 42.8845 215.506 51.3586 215.783 54.7369C215.893 56.7862 215.949 59.7217 215.838 62.6569C215.506 77.9986 213.512 84.3124 208.638 86.1955C207.364 86.6938 205.647 86.8045 204.429 86.4724ZM239.165 78.22C239.94 78.6076 240.383 79.3276 240.383 80.2138C240.383 81.1555 239.995 81.7645 238.832 82.8169C236.285 85.1431 231.743 86.2507 228.808 85.2538C226.149 84.3124 223.989 82.4293 222.549 79.9924C219.724 75.2293 219.669 68.8045 221.109 63.5431C222.383 58.6693 224.488 55.2355 227.755 52.7986C228.088 52.5769 228.42 52.3555 228.752 52.1338C231.854 50.4169 235.731 50.8045 237.392 54.1831C238.777 56.9524 238.279 60.4417 237.004 63.2107C235.343 66.9769 230.635 69.9676 226.371 69.9676H224.82V70.0231C224.82 71.1862 224.875 72.3493 225.042 73.5124C225.097 73.9 225.208 74.2876 225.263 74.6755C225.872 77.1124 227.146 79.4386 229.417 80.6017C231.688 81.7645 234.568 80.7124 236.285 79.0507C237.392 77.9986 238.168 77.7769 239.165 78.22ZM226.869 60.8845C225.983 62.7676 225.319 64.8724 225.484 65.3155C225.872 66.2569 228.309 65.1493 228.863 64.8724C231.964 63.5986 234.568 60.1093 233.626 56.62C233.349 55.6786 232.851 55.4017 231.854 55.6786C230.192 56.1217 228.143 58.2262 226.869 60.8845ZM260.962 78.22C261.737 78.6076 262.18 79.3276 262.18 80.2138C262.18 81.1555 261.792 81.7645 260.629 82.8169C258.082 85.1431 253.54 86.2507 250.605 85.2538C247.946 84.3124 245.786 82.4293 244.346 79.9924C241.522 75.2293 241.466 68.8045 242.906 63.5431C244.18 58.6693 246.285 55.2355 249.552 52.7986C249.885 52.5769 250.217 52.3555 250.549 52.1338C253.651 50.4169 257.528 50.8045 259.189 54.1831C260.574 56.9524 260.075 60.4417 258.802 63.2107C257.14 66.9769 252.432 69.9676 248.168 69.9676H246.617V70.0231C246.617 71.1862 246.672 72.3493 246.838 73.5124C246.894 73.9 247.005 74.2876 247.06 74.6755C247.669 77.1124 248.943 79.4386 251.214 80.6017C253.485 81.7645 256.365 80.7124 258.082 79.0507C259.189 77.9986 259.965 77.7769 260.962 78.22ZM248.666 60.8845C247.78 62.7676 247.115 64.8724 247.282 65.3155C247.669 66.2569 250.106 65.1493 250.66 64.8724C253.762 63.5986 256.365 60.1093 255.423 56.62C255.146 55.6786 254.648 55.4017 253.651 55.6786C251.989 56.1217 249.94 58.2262 248.666 60.8845ZM267.583 84.8662C266.863 84.5338 266.309 83.8693 266.143 83.0386C265.645 79.7707 266.198 43.7707 266.863 36.9586C267.085 34.6324 267.14 34.3 267.583 33.7462C268.248 32.86 269.3 32.5831 270.186 33.0262C270.574 33.2476 271.017 33.6355 271.238 33.9676C271.571 34.5769 271.571 34.6876 271.238 38.5093C270.961 42.1093 270.629 54.4045 270.629 61.4386C270.629 63.82 270.629 64.1524 270.851 63.9307C271.46 63.3217 275.005 58.1707 276.777 55.4017C277.829 53.7955 278.881 52.2445 279.214 51.9676C280.709 50.6938 282.814 51.6355 282.814 53.6293C282.814 54.1831 282.426 54.9031 280.82 57.5062C279.657 59.2786 278.051 61.66 277.22 62.8786C276.389 64.0417 275.725 65.0938 275.725 65.2045C275.725 65.5924 276.223 66.2569 276.445 66.6445C276.998 67.6969 277.552 68.6938 278.161 69.7462C279.435 72.0724 280.709 74.3431 282.094 76.6138C282.869 77.9431 283.755 79.2169 284.531 80.5462C284.918 81.1555 285.251 81.7093 285.251 82.4293C285.306 83.9245 283.921 84.9769 282.481 84.5338C281.54 84.2569 281.041 83.3155 280.543 82.54C278.494 79.66 276.721 76.5031 275.005 73.4017C273.786 71.1307 272.678 69.2476 272.623 69.1369C272.568 69.0817 272.014 69.58 271.46 70.3L270.352 71.6293L270.574 77.3893C270.629 78.94 270.685 80.5462 270.629 82.1524C270.629 83.26 270.518 84.4231 269.3 84.9217C268.746 85.1431 268.137 85.0876 267.583 84.8662ZM289.804 84.8107C289.416 84.5893 289.084 84.2569 288.917 83.7586C288.585 82.1524 288.696 80.4355 288.696 78.8293C288.64 74.2876 288.696 69.8017 288.696 65.26C288.696 64.5955 288.696 63.9307 288.696 63.2662C288.696 40.6693 288.807 35.2417 289.194 34.5217C289.693 33.58 291.077 33.1924 292.185 33.7462C292.462 33.8569 292.794 34.3 293.016 34.6876C293.293 35.3524 293.348 36.5155 293.237 59.3338C293.182 64.4845 293.182 69.6355 293.127 74.7862C293.127 77.1676 293.127 79.6045 292.96 81.9862C292.905 82.6507 292.96 83.7031 292.573 84.2569C292.019 85.0324 290.745 85.1986 289.804 84.8107ZM306.358 104.639C304.252 104.14 300.265 102.7 300.652 100.097C300.82 99.0445 301.705 98.2693 302.758 98.3245C304.363 98.3245 305.638 99.7093 307.132 100.152C309.736 100.983 312.781 100.651 314.776 98.7124C316.105 97.4386 317.047 94.8907 317.491 91.3462C317.767 89.4076 318.265 73.1245 318.1 72.9031C318.043 72.9031 317.71 73.6786 317.323 74.7307C316.327 77.3893 314.665 80.7676 313.669 82.1524C311.287 85.3093 307.078 86.6386 303.811 83.8138C301.87 82.0969 300.874 79.5493 300.319 77.0017C299.213 71.9617 299.323 66.8107 299.545 61.66C299.656 59.5 299.767 57.34 299.933 55.18C299.988 54.3493 300.043 53.4631 300.376 52.6876C300.763 51.9124 301.54 51.2476 302.371 51.3031C303.256 51.3586 303.976 52.1338 304.252 52.9645C304.531 53.7955 304.474 54.7369 304.42 55.6231C303.919 61.66 303.421 68.0293 304.363 74.0662C304.639 75.8386 305.359 80.38 307.519 80.8786C309.514 81.3769 310.9 78.1093 311.563 76.78C313.336 73.18 314.5 69.4138 315.661 63.82C317.101 56.8417 317.989 53.0755 318.265 52.5217C318.709 51.8017 319.705 51.3031 320.479 51.4138C321.256 51.5245 322.087 52.3 322.309 53.1307C322.585 54.2386 322.75 70.4662 322.531 79.8817C322.309 91.18 321.919 94.4476 320.647 97.66C319.372 100.706 317.821 102.534 315.22 103.808C312.559 105.137 309.46 105.414 306.58 104.694C306.523 104.694 306.412 104.694 306.358 104.639ZM360.499 50.7493C361.774 55.7338 361.165 61.1062 358.117 65.3155C355.237 69.3586 350.695 71.4631 345.988 72.5707L344.659 72.9031V76.5586C344.659 78.6076 344.77 81.1555 344.881 82.3186C345.046 84.5893 344.935 85.0876 343.996 85.8076C343.495 86.1955 342.334 86.3062 341.614 85.9738C340.726 85.5307 340.504 84.8662 340.285 81.2662C339.895 75.2293 340.45 46.54 341.005 42.4969C341.224 41.2231 341.89 39.8386 342.664 39.34C343.33 38.8969 347.761 38.9524 349.423 39.3955C354.85 40.8907 359.005 45.1555 360.499 50.7493ZM356.401 58.06C357.454 52.4107 354.739 45.8755 348.979 43.9924C348.148 43.66 347.206 43.4938 346.543 43.4938H345.436L345.325 45.2107C344.935 51.3586 344.548 68.3062 344.824 68.3062C344.935 68.3062 345.655 68.0845 346.432 67.8631C348.592 67.1431 350.752 66.2017 352.525 64.7617C354.628 63.0445 355.903 60.6631 356.401 58.06ZM366.985 84.8107C366.598 84.5893 366.265 84.2569 366.1 83.7586C365.767 82.1524 365.878 80.4355 365.878 78.8293C365.821 74.2876 365.878 69.8017 365.878 65.26C365.878 64.5955 365.878 63.9307 365.878 63.2662C365.878 40.6693 365.989 35.2417 366.376 34.5217C366.874 33.58 368.26 33.1924 369.367 33.7462C369.643 33.8569 369.976 34.3 370.198 34.6876C370.474 35.3524 370.528 36.5155 370.42 59.3338C370.363 64.4845 370.363 69.6355 370.309 74.7862C370.309 77.1676 370.309 79.6045 370.141 81.9862C370.087 82.6507 370.141 83.7031 369.754 84.2569C369.199 85.0324 367.927 85.1986 366.985 84.8107ZM397.162 71.2417C397.33 82.4293 397.273 83.5924 396.997 84.1462C396.223 85.6417 394.063 85.5862 393.175 84.0907C392.899 83.6476 392.842 82.9276 392.734 79.4386L392.677 75.34L391.681 77.3338C389.743 81.1555 387.748 83.5369 385.423 84.5893C378.775 87.7462 376.006 79.7707 375.508 74.7307C374.953 68.5831 376.894 60.7186 380.104 56.3986C382.597 53.02 384.814 51.6907 387.97 51.6907C389.854 51.6907 391.183 52.0786 392.842 53.1862C395.722 55.0693 397.054 58.3369 397.108 61.66C397.108 63.0445 397.108 64.4293 397.108 65.8138C397.162 67.5862 397.162 69.4138 397.162 71.2417ZM389.854 70.0231C391.624 65.26 392.512 62.2693 392.512 60.94C392.512 57.5062 388.855 55.0693 386.143 56.6755C382.543 58.78 379.717 66.5338 379.993 73.4017C380.05 74.8969 380.383 80.4355 382.543 80.6569C382.984 80.7124 383.482 80.5462 383.872 80.2693C387.082 78.2755 388.633 73.3462 389.854 70.0231ZM404.734 85.0876C404.014 84.9217 403.681 84.6445 403.294 83.9245C403.015 83.3155 403.015 79.1062 403.459 62.38C403.681 53.7955 403.681 53.6293 404.734 52.9645C405.952 52.2445 407.392 52.7431 407.947 54.0169C408.166 54.5707 408.223 55.0693 408.112 56.2324L408.001 57.7831L408.886 56.62C410.659 54.2386 413.317 52.2445 416.254 51.58C420.628 50.5831 423.895 54.0724 425.17 57.8386C426.223 61.0507 426.112 64.4845 426.166 67.8076C426.277 74.3986 425.89 82.8169 425.392 83.9245C425.116 84.6445 424.174 85.2538 423.397 85.2538C422.623 85.2538 421.681 84.6445 421.405 83.8693C421.183 83.3707 421.183 82.8169 421.294 80.6569C421.57 76.8355 421.903 72.9586 421.903 69.0817C421.903 65.5924 421.957 61.1062 420.352 57.8938C418.69 54.5707 415.588 56.1217 413.539 58.1707C411.49 60.22 409.885 63.7093 408.499 69.3031C407.947 71.6293 407.668 75.2845 407.614 80.4907C407.614 81.7645 407.557 83.0938 407.446 83.4262C407.116 84.6445 405.952 85.3093 404.734 85.0876Z" fill="white"/>
</svg>
