<?xml version="1.0" encoding="UTF-8"?>
<!--Generator: Apple Native CoreSVG 149-->
<!DOCTYPE svg
PUBLIC "-//W3C//DTD SVG 1.1//EN"
       "http://www.w3.org/Graphics/SVG/1.1/DTD/svg11.dtd">
<svg version="1.1" xmlns="http://www.w3.org/2000/svg" xmlns:xlink="http://www.w3.org/1999/xlink" width="3300" height="2200">
 <!--glyph: "", point size: 100.0, font version: "17.0d9e1", template writer version: "59"-->
 <style>.hierarchical-0:secondary {fill:#4D4D4D}
.hierarchical-1:primary {fill:#212121}

.SFSymbolsPreview212121 {fill:#212121;opacity:1.0}
.SFSymbolsPreview4D4D4D {fill:#4D4D4D;opacity:1.0}
</style>
 <g id="Notes">
  <rect height="2200" id="artboard" style="fill:white;opacity:1" width="3300" x="0" y="0"/>
  <line style="fill:none;stroke:black;opacity:1;stroke-width:0.5;" x1="263" x2="3036" y1="292" y2="292"/>
  <text style="stroke:none;fill:black;font-family:sans-serif;font-size:13;font-weight:bold;" transform="matrix(1 0 0 1 263 322)">Weight/Scale Variations</text>
  <text style="stroke:none;fill:black;font-family:sans-serif;font-size:13;text-anchor:middle;" transform="matrix(1 0 0 1 559.711 322)">Ultralight</text>
  <text style="stroke:none;fill:black;font-family:sans-serif;font-size:13;text-anchor:middle;" transform="matrix(1 0 0 1 856.422 322)">Thin</text>
  <text style="stroke:none;fill:black;font-family:sans-serif;font-size:13;text-anchor:middle;" transform="matrix(1 0 0 1 1153.13 322)">Light</text>
  <text style="stroke:none;fill:black;font-family:sans-serif;font-size:13;text-anchor:middle;" transform="matrix(1 0 0 1 1449.84 322)">Regular</text>
  <text style="stroke:none;fill:black;font-family:sans-serif;font-size:13;text-anchor:middle;" transform="matrix(1 0 0 1 1746.56 322)">Medium</text>
  <text style="stroke:none;fill:black;font-family:sans-serif;font-size:13;text-anchor:middle;" transform="matrix(1 0 0 1 2043.27 322)">Semibold</text>
  <text style="stroke:none;fill:black;font-family:sans-serif;font-size:13;text-anchor:middle;" transform="matrix(1 0 0 1 2339.98 322)">Bold</text>
  <text style="stroke:none;fill:black;font-family:sans-serif;font-size:13;text-anchor:middle;" transform="matrix(1 0 0 1 2636.69 322)">Heavy</text>
  <text style="stroke:none;fill:black;font-family:sans-serif;font-size:13;text-anchor:middle;" transform="matrix(1 0 0 1 2933.4 322)">Black</text>
  <line style="fill:none;stroke:black;opacity:1;stroke-width:0.5;" x1="263" x2="3036" y1="1903" y2="1903"/>
  <g transform="matrix(1 0 0 1 263 1933)">
   <path d="M9.24805 0.830078Q10.8691 0.830078 12.2949 0.214844Q13.7207-0.400391 14.8096-1.49414Q15.8984-2.58789 16.5186-4.01367Q17.1387-5.43945 17.1387-7.05078Q17.1387-8.66211 16.5186-10.0879Q15.8984-11.5137 14.8047-12.6074Q13.7109-13.7012 12.2852-14.3164Q10.8594-14.9316 9.23828-14.9316Q7.62695-14.9316 6.20117-14.3164Q4.77539-13.7012 3.69141-12.6074Q2.60742-11.5137 1.9873-10.0879Q1.36719-8.66211 1.36719-7.05078Q1.36719-5.43945 1.9873-4.01367Q2.60742-2.58789 3.69629-1.49414Q4.78516-0.400391 6.21094 0.214844Q7.63672 0.830078 9.24805 0.830078ZM9.24805-0.654297Q7.91992-0.654297 6.7627-1.14746Q5.60547-1.64062 4.73145-2.51953Q3.85742-3.39844 3.36426-4.56055Q2.87109-5.72266 2.87109-7.05078Q2.87109-8.37891 3.35938-9.54102Q3.84766-10.7031 4.72168-11.582Q5.5957-12.4609 6.75293-12.9541Q7.91016-13.4473 9.23828-13.4473Q10.5762-13.4473 11.7334-12.9541Q12.8906-12.4609 13.7695-11.582Q14.6484-10.7031 15.1465-9.54102Q15.6445-8.37891 15.6445-7.05078Q15.6445-5.72266 15.1514-4.56055Q14.6582-3.39844 13.7842-2.51953Q12.9102-1.64062 11.748-1.14746Q10.5859-0.654297 9.24805-0.654297ZM5.83984-7.04102Q5.83984-6.71875 6.04492-6.51855Q6.25-6.31836 6.5918-6.31836L8.50586-6.31836L8.50586-4.39453Q8.50586-4.0625 8.70605-3.85742Q8.90625-3.65234 9.22852-3.65234Q9.56055-3.65234 9.76562-3.85742Q9.9707-4.0625 9.9707-4.39453L9.9707-6.31836L11.8945-6.31836Q12.2266-6.31836 12.4316-6.51855Q12.6367-6.71875 12.6367-7.04102Q12.6367-7.37305 12.4316-7.57812Q12.2266-7.7832 11.8945-7.7832L9.9707-7.7832L9.9707-9.69727Q9.9707-10.0391 9.76562-10.2441Q9.56055-10.4492 9.22852-10.4492Q8.90625-10.4492 8.70605-10.2441Q8.50586-10.0391 8.50586-9.69727L8.50586-7.7832L6.5918-7.7832Q6.25-7.7832 6.04492-7.57812Q5.83984-7.37305 5.83984-7.04102Z"/>
  </g>
  <g transform="matrix(1 0 0 1 281.867 1933)">
   <path d="M11.709 2.91016Q13.75 2.91016 15.5518 2.12891Q17.3535 1.34766 18.7305-0.0292969Q20.1074-1.40625 20.8887-3.20801Q21.6699-5.00977 21.6699-7.05078Q21.6699-9.0918 20.8887-10.8936Q20.1074-12.6953 18.7305-14.0723Q17.3535-15.4492 15.5469-16.2305Q13.7402-17.0117 11.6992-17.0117Q9.6582-17.0117 7.85645-16.2305Q6.05469-15.4492 4.68262-14.0723Q3.31055-12.6953 2.5293-10.8936Q1.74805-9.0918 1.74805-7.05078Q1.74805-5.00977 2.5293-3.20801Q3.31055-1.40625 4.6875-0.0292969Q6.06445 1.34766 7.86621 2.12891Q9.66797 2.91016 11.709 2.91016ZM11.709 1.25Q9.98047 1.25 8.47656 0.605469Q6.97266-0.0390625 5.83496-1.17676Q4.69727-2.31445 4.05762-3.81836Q3.41797-5.32227 3.41797-7.05078Q3.41797-8.7793 4.05762-10.2832Q4.69727-11.7871 5.83008-12.9297Q6.96289-14.0723 8.4668-14.7119Q9.9707-15.3516 11.6992-15.3516Q13.4277-15.3516 14.9316-14.7119Q16.4355-14.0723 17.5781-12.9297Q18.7207-11.7871 19.3652-10.2832Q20.0098-8.7793 20.0098-7.05078Q20.0098-5.32227 19.3701-3.81836Q18.7305-2.31445 17.5928-1.17676Q16.4551-0.0390625 14.9463 0.605469Q13.4375 1.25 11.709 1.25ZM7.39258-7.04102Q7.39258-6.68945 7.62695-6.46484Q7.86133-6.24023 8.23242-6.24023L10.8789-6.24023L10.8789-3.57422Q10.8789-3.21289 11.1035-2.9834Q11.3281-2.75391 11.6797-2.75391Q12.0508-2.75391 12.2852-2.9834Q12.5195-3.21289 12.5195-3.57422L12.5195-6.24023L15.1758-6.24023Q15.5371-6.24023 15.7715-6.46484Q16.0059-6.68945 16.0059-7.04102Q16.0059-7.41211 15.7715-7.6416Q15.5371-7.87109 15.1758-7.87109L12.5195-7.87109L12.5195-10.5176Q12.5195-10.8984 12.2852-11.1279Q12.0508-11.3574 11.6797-11.3574Q11.3281-11.3574 11.1035-11.1279Q10.8789-10.8984 10.8789-10.5176L10.8789-7.87109L8.23242-7.87109Q7.85156-7.87109 7.62207-7.6416Q7.39258-7.41211 7.39258-7.04102Z"/>
  </g>
  <g transform="matrix(1 0 0 1 305.646 1933)">
   <path d="M14.9707 5.66406Q17.0605 5.66406 18.96 5.01465Q20.8594 4.36523 22.4512 3.19336Q24.043 2.02148 25.2197 0.429688Q26.3965-1.16211 27.0459-3.06641Q27.6953-4.9707 27.6953-7.05078Q27.6953-9.14062 27.0459-11.04Q26.3965-12.9395 25.2197-14.5312Q24.043-16.123 22.4512-17.2998Q20.8594-18.4766 18.9551-19.126Q17.0508-19.7754 14.9609-19.7754Q12.8711-19.7754 10.9717-19.126Q9.07227-18.4766 7.48535-17.2998Q5.89844-16.123 4.72168-14.5312Q3.54492-12.9395 2.90039-11.04Q2.25586-9.14062 2.25586-7.05078Q2.25586-4.9707 2.90527-3.06641Q3.55469-1.16211 4.72656 0.429688Q5.89844 2.02148 7.49023 3.19336Q9.08203 4.36523 10.9814 5.01465Q12.8809 5.66406 14.9707 5.66406ZM14.9707 3.84766Q13.1641 3.84766 11.5283 3.2959Q9.89258 2.74414 8.53516 1.74805Q7.17773 0.751953 6.17676-0.610352Q5.17578-1.97266 4.62891-3.6084Q4.08203-5.24414 4.08203-7.05078Q4.08203-8.86719 4.62891-10.5029Q5.17578-12.1387 6.17188-13.501Q7.16797-14.8633 8.52539-15.8594Q9.88281-16.8555 11.5186-17.4023Q13.1543-17.9492 14.9609-17.9492Q16.7773-17.9492 18.4131-17.4023Q20.0488-16.8555 21.4111-15.8594Q22.7734-14.8633 23.7695-13.501Q24.7656-12.1387 25.3174-10.5029Q25.8691-8.86719 25.8691-7.05078Q25.8789-5.24414 25.332-3.6084Q24.7852-1.97266 23.7842-0.610352Q22.7832 0.751953 21.4209 1.74805Q20.0586 2.74414 18.4229 3.2959Q16.7871 3.84766 14.9707 3.84766ZM9.45312-7.04102Q9.45312-6.66016 9.71191-6.41113Q9.9707-6.16211 10.3711-6.16211L14.0625-6.16211L14.0625-2.46094Q14.0625-2.06055 14.3115-1.80664Q14.5605-1.55273 14.9414-1.55273Q15.3516-1.55273 15.6055-1.80664Q15.8594-2.06055 15.8594-2.46094L15.8594-6.16211L19.5605-6.16211Q19.9609-6.16211 20.2148-6.41113Q20.4688-6.66016 20.4688-7.04102Q20.4688-7.45117 20.2148-7.70508Q19.9609-7.95898 19.5605-7.95898L15.8594-7.95898L15.8594-11.6504Q15.8594-12.0605 15.6055-12.3145Q15.3516-12.5684 14.9414-12.5684Q14.5605-12.5684 14.3115-12.3096Q14.0625-12.0508 14.0625-11.6504L14.0625-7.95898L10.3711-7.95898Q9.96094-7.95898 9.70703-7.70508Q9.45312-7.45117 9.45312-7.04102Z"/>
  </g>
  <text style="stroke:none;fill:black;font-family:sans-serif;font-size:13;font-weight:bold;" transform="matrix(1 0 0 1 263 1953)">Design Variations</text>
  <text style="stroke:none;fill:black;font-family:sans-serif;font-size:13;" transform="matrix(1 0 0 1 263 1971)">Symbols are supported in up to nine weights and three scales.</text>
  <text style="stroke:none;fill:black;font-family:sans-serif;font-size:13;" transform="matrix(1 0 0 1 263 1989)">For optimal layout with text and other symbols, vertically align</text>
  <text style="stroke:none;fill:black;font-family:sans-serif;font-size:13;" transform="matrix(1 0 0 1 263 2007)">symbols with the adjacent text.</text>
  <line style="fill:none;stroke:#00AEEF;stroke-width:0.5;opacity:1.0;" x1="776" x2="776" y1="1919" y2="1933"/>
  <g transform="matrix(1 0 0 1 776 1933)">
   <path d="M3.31055 0.15625Q3.70117 0.15625 3.91602-0.00976562Q4.13086-0.175781 4.26758-0.585938L5.52734-4.0332L11.2891-4.0332L12.5488-0.585938Q12.6855-0.175781 12.9004-0.00976562Q13.1152 0.15625 13.4961 0.15625Q13.8867 0.15625 14.1162-0.0585938Q14.3457-0.273438 14.3457-0.644531Q14.3457-0.869141 14.2383-1.17188L9.6582-13.3691Q9.48242-13.8184 9.17969-14.043Q8.87695-14.2676 8.4082-14.2676Q7.5-14.2676 7.17773-13.3789L2.59766-1.16211Q2.49023-0.859375 2.49023-0.634766Q2.49023-0.263672 2.70996-0.0537109Q2.92969 0.15625 3.31055 0.15625ZM6.00586-5.51758L8.37891-12.0898L8.42773-12.0898L10.8008-5.51758Z"/>
  </g>
  <line style="fill:none;stroke:#00AEEF;stroke-width:0.5;opacity:1.0;" x1="793.197" x2="793.197" y1="1919" y2="1933"/>
  <text style="stroke:none;fill:black;font-family:sans-serif;font-size:13;font-weight:bold;" transform="matrix(1 0 0 1 776 1953)">Margins</text>
  <text style="stroke:none;fill:black;font-family:sans-serif;font-size:13;" transform="matrix(1 0 0 1 776 1971)">Leading and trailing margins on the left and right side of each symbol</text>
  <text style="stroke:none;fill:black;font-family:sans-serif;font-size:13;" transform="matrix(1 0 0 1 776 1989)">can be adjusted by modifying the x-location of the margin guidelines.</text>
  <text style="stroke:none;fill:black;font-family:sans-serif;font-size:13;" transform="matrix(1 0 0 1 776 2007)">Modifications are automatically applied proportionally to all</text>
  <text style="stroke:none;fill:black;font-family:sans-serif;font-size:13;" transform="matrix(1 0 0 1 776 2025)">scales and weights.</text>
  <g transform="matrix(1 0 0 1 1289 1933)">
   <path d="M2.8418 1.86523L4.54102 3.57422Q5.18555 4.22852 5.90332 4.17969Q6.62109 4.13086 7.31445 3.35938L18.0078-8.42773L17.041-9.4043L6.42578 2.27539Q6.16211 2.57812 5.89355 2.61719Q5.625 2.65625 5.27344 2.30469L4.10156 1.14258Q3.75 0.791016 3.79395 0.522461Q3.83789 0.253906 4.14062-0.0195312L15.6152-10.8203L14.6387-11.7871L3.04688-0.898438Q2.30469-0.214844 2.25098 0.498047Q2.19727 1.21094 2.8418 1.86523ZM9.25781-16.3281Q8.94531-16.0254 8.90625-15.6348Q8.86719-15.2441 9.04297-14.9512Q9.21875-14.6777 9.55566-14.541Q9.89258-14.4043 10.3809-14.5215Q11.4746-14.7754 12.5977-14.7314Q13.7207-14.6875 14.7949-13.9844L14.209-12.5293Q13.9551-11.9043 14.0674-11.4404Q14.1797-10.9766 14.5801-10.5664L16.875-8.25195Q17.2363-7.88086 17.5781-7.82227Q17.9199-7.76367 18.3398-7.8418L19.4043-8.03711L20.0684-7.36328L20.0293-6.80664Q20-6.43555 20.1221-6.12305Q20.2441-5.81055 20.6055-5.44922L21.3672-4.70703Q21.7285-4.3457 22.1533-4.33105Q22.5781-4.31641 22.9297-4.66797L25.8398-7.58789Q26.1914-7.93945 26.1816-8.35449Q26.1719-8.76953 25.8105-9.13086L25.0391-9.89258Q24.6875-10.2539 24.3799-10.3857Q24.0723-10.5176 23.7109-10.4883L23.1348-10.4395L22.4902-11.0742L22.7344-12.1973Q22.832-12.6172 22.6953-12.9834Q22.5586-13.3496 22.1191-13.7891L19.9219-15.9766Q18.6719-17.2168 17.2607-17.8369Q15.8496-18.457 14.4189-18.4814Q12.9883-18.5059 11.665-17.959Q10.3418-17.4121 9.25781-16.3281ZM10.752-15.957Q11.6602-16.6211 12.7002-16.9043Q13.7402-17.1875 14.8047-17.085Q15.8691-16.9824 16.8701-16.5137Q17.8711-16.0449 18.7012-15.2051L21.1328-12.793Q21.3086-12.6172 21.3525-12.4512Q21.3965-12.2852 21.3379-12.0312L21.0156-10.5469L22.5195-9.0625L23.5059-9.12109Q23.6914-9.13086 23.7891-9.09668Q23.8867-9.0625 24.0332-8.91602L24.6094-8.33984L22.168-5.89844L21.5918-6.47461Q21.4453-6.62109 21.4062-6.71875Q21.3672-6.81641 21.377-7.01172L21.4453-7.98828L19.9512-9.47266L18.4277-9.21875Q18.1836-9.16992 18.042-9.2041Q17.9004-9.23828 17.7148-9.41406L15.7129-11.416Q15.5176-11.5918 15.4932-11.7529Q15.4688-11.9141 15.5859-12.1875L16.4648-14.2773Q15.293-15.3711 13.8281-15.791Q12.3633-16.2109 10.8398-15.7617Q10.7227-15.7324 10.6885-15.8057Q10.6543-15.8789 10.752-15.957Z"/>
  </g>
  <text style="stroke:none;fill:black;font-family:sans-serif;font-size:13;font-weight:bold;" transform="matrix(1 0 0 1 1289 1953)">Exporting</text>
  <text style="stroke:none;fill:black;font-family:sans-serif;font-size:13;" transform="matrix(1 0 0 1 1289 1971)">Symbols should be outlined when exporting to ensure the</text>
  <text style="stroke:none;fill:black;font-family:sans-serif;font-size:13;" transform="matrix(1 0 0 1 1289 1989)">design is preserved when submitting to Xcode.</text>
  <text id="template-version" style="stroke:none;fill:black;font-family:sans-serif;font-size:13;text-anchor:end;" transform="matrix(1 0 0 1 3036 1933)">Template v.3.0</text>
  <text style="stroke:none;fill:black;font-family:sans-serif;font-size:13;text-anchor:end;" transform="matrix(1 0 0 1 3036 1951)">Requires Xcode 13 or greater</text>
  <text id="descriptive-name" style="stroke:none;fill:black;font-family:sans-serif;font-size:13;text-anchor:end;" transform="matrix(1 0 0 1 3036 1969)">Generated from custom.arrow.up.right.square</text>
  <text style="stroke:none;fill:black;font-family:sans-serif;font-size:13;text-anchor:end;" transform="matrix(1 0 0 1 3036 1987)">Typeset at 100 points</text>
  <text style="stroke:none;fill:black;font-family:sans-serif;font-size:13;" transform="matrix(1 0 0 1 263 726)">Small</text>
  <text style="stroke:none;fill:black;font-family:sans-serif;font-size:13;" transform="matrix(1 0 0 1 263 1156)">Medium</text>
  <text style="stroke:none;fill:black;font-family:sans-serif;font-size:13;" transform="matrix(1 0 0 1 263 1586)">Large</text>
 </g>
 <g id="Guides">
  <g id="H-reference" style="fill:#27AAE1;stroke:none;" transform="matrix(1 0 0 1 339 696)">
   <path d="M0.976562 0L3.66211 0L29.3457-67.1387L30.0293-67.1387L30.0293-70.459L28.125-70.459ZM11.6699-24.4629L46.9727-24.4629L46.2402-26.709L12.4512-26.709ZM55.127 0L57.7637 0L30.6152-70.459L29.4434-70.459L29.4434-67.1387Z"/>
  </g>
  <line id="Baseline-S" style="fill:none;stroke:#27AAE1;opacity:1;stroke-width:0.5;" x1="263" x2="3036" y1="696" y2="696"/>
  <line id="Capline-S" style="fill:none;stroke:#27AAE1;opacity:1;stroke-width:0.5;" x1="263" x2="3036" y1="625.541" y2="625.541"/>
  <g id="H-reference" style="fill:#27AAE1;stroke:none;" transform="matrix(1 0 0 1 339 1126)">
   <path d="M0.976562 0L3.66211 0L29.3457-67.1387L30.0293-67.1387L30.0293-70.459L28.125-70.459ZM11.6699-24.4629L46.9727-24.4629L46.2402-26.709L12.4512-26.709ZM55.127 0L57.7637 0L30.6152-70.459L29.4434-70.459L29.4434-67.1387Z"/>
  </g>
  <line id="Baseline-M" style="fill:none;stroke:#27AAE1;opacity:1;stroke-width:0.5;" x1="263" x2="3036" y1="1126" y2="1126"/>
  <line id="Capline-M" style="fill:none;stroke:#27AAE1;opacity:1;stroke-width:0.5;" x1="263" x2="3036" y1="1055.54" y2="1055.54"/>
  <g id="H-reference" style="fill:#27AAE1;stroke:none;" transform="matrix(1 0 0 1 339 1556)">
   <path d="M0.976562 0L3.66211 0L29.3457-67.1387L30.0293-67.1387L30.0293-70.459L28.125-70.459ZM11.6699-24.4629L46.9727-24.4629L46.2402-26.709L12.4512-26.709ZM55.127 0L57.7637 0L30.6152-70.459L29.4434-70.459L29.4434-67.1387Z"/>
  </g>
  <line id="Baseline-L" style="fill:none;stroke:#27AAE1;opacity:1;stroke-width:0.5;" x1="263" x2="3036" y1="1556" y2="1556"/>
  <line id="Capline-L" style="fill:none;stroke:#27AAE1;opacity:1;stroke-width:0.5;" x1="263" x2="3036" y1="1485.54" y2="1485.54"/>
  <line id="left-margin-Regular-M" style="fill:none;stroke:#00AEEF;stroke-width:0.5;opacity:1.0;" x1="1392.14" x2="1392.14" y1="1030.78" y2="1150.12"/>
  <line id="right-margin-Regular-M" style="fill:none;stroke:#00AEEF;stroke-width:0.5;opacity:1.0;" x1="1507.55" x2="1507.55" y1="1030.78" y2="1150.12"/>
 </g>
 <g id="Symbols">
  <g id="Black-L" transform="matrix(1 0 0 1 2855.31 1556)">
   <path class="hierarchical-0:secondary SFSymbolsPreview4D4D4D" d="M40.2677 26.8346L115.924 26.8346Q127.293 26.8346 133.494 20.6421Q139.696 14.4496 139.696 3.12482L139.696-72.678Q139.696-84.0027 133.494-90.1945Q127.293-96.3864 115.924-96.3864L40.2677-96.3864Q28.9197-96.3864 22.7076-90.1952Q16.4957-84.004 16.4957-72.678L16.4957 3.12482Q16.4957 14.4521 22.7076 20.6434Q28.9197 26.8346 40.2677 26.8346ZM42.9984 6.83337Q39.7903 6.83337 38.1334 5.28465Q36.4762 3.73593 36.4762 0.290449L36.4762-69.8424Q36.4762-73.3254 38.1334-74.8554Q39.7903-76.3853 42.9984-76.3853L113.193-76.3853Q116.457-76.3853 118.086-74.8554Q119.716-73.3254 119.716-69.8424L119.716 0.290449Q119.716 3.73593 118.086 5.28465Q116.457 6.83337 113.193 6.83337Z"/>
   <path class="hierarchical-1:primary SFSymbolsPreview212121" d="M97.3665-15.6479Q100.687-15.6479 102.576-17.8522Q104.465-20.0564 104.465-23.692L104.465-51.538Q104.465-56.3723 101.794-58.9421Q99.1228-61.5119 94.3765-61.5119L66.445-61.5119Q62.7524-61.5119 60.5208-59.6132Q58.2891-57.7144 58.2891-54.4151Q58.2891-51.0924 60.4831-49.193Q62.6771-47.2936 66.3112-47.2936L73.93-47.2936L80.2515-48.3262L72.3935-41.6515L54.3482-23.6061Q51.6831-20.9411 51.6831-17.4093Q51.6831-13.6804 54.1957-11.3714Q56.7085-9.06259 60.1842-9.06259Q63.8587-9.06259 66.6977-11.8237L84.4874-29.5757L91.1413-37.3937L90.2671-30.7935L90.2671-23.7659Q90.2671-20.0528 92.1561-17.8503Q94.0451-15.6479 97.3665-15.6479Z"/>
  </g>
  <g id="Heavy-L" transform="matrix(1 0 0 1 2559.51 1556)">
   <path class="hierarchical-0:secondary SFSymbolsPreview4D4D4D" d="M39.2445 25.9279L115.115 25.9279Q126.094 25.9279 131.979 20.0516Q137.864 14.1754 137.864 3.26833L137.864-72.8168Q137.864-83.7237 131.979-89.597Q126.094-95.4702 115.115-95.4702L39.2445-95.4702Q28.2957-95.4702 22.3956-89.6Q16.4957-83.7298 16.4957-72.8168L16.4957 3.26833Q16.4957 14.1875 22.3956 20.0577Q28.2957 25.9279 39.2445 25.9279ZM41.3688 8.40023Q37.7616 8.40023 35.8776 6.61295Q33.9936 4.82566 33.9936 0.995283L33.9936-70.5377Q33.9936-74.3828 35.8776-76.1627Q37.7616-77.9426 41.3688-77.9426L112.991-77.9426Q116.631-77.9426 118.498-76.1627Q120.366-74.3828 120.366-70.5377L120.366 0.995283Q120.366 4.82566 118.498 6.61295Q116.631 8.40023 112.991 8.40023Z"/>
   <path class="hierarchical-1:primary SFSymbolsPreview212121" d="M96.6022-16.5233Q99.6021-16.5233 101.319-18.5188Q103.037-20.5142 103.037-23.7791L103.037-52.1738Q103.037-56.4887 100.687-58.7147Q98.3377-60.9406 94.1925-60.9406L65.6667-60.9406Q62.3633-60.9406 60.3679-59.2115Q58.3724-57.4824 58.3724-54.5123Q58.3724-51.5005 60.353-49.7683Q62.3337-48.0362 65.5923-48.0362L74.3751-48.0362L81.3886-49.0479L73.1578-41.8616L53.6207-22.3244Q51.2517-19.9554 51.2517-16.8395Q51.2517-13.5273 53.4523-11.4798Q55.653-9.43232 58.7629-9.43232Q62.0486-9.43232 64.5454-11.8607L83.8683-31.1688L91.0248-39.3462L90.162-31.9429L90.162-23.8027Q90.162-20.4696 91.8792-18.4965Q93.5964-16.5233 96.6022-16.5233Z"/>
  </g>
  <g id="Bold-L" transform="matrix(1 0 0 1 2263.94 1556)">
   <path class="hierarchical-0:secondary SFSymbolsPreview4D4D4D" d="M37.9561 24.7984L114.121 24.7984Q124.586 24.7984 130.084 19.3048Q135.582 13.8111 135.582 3.44901L135.582-72.9893Q135.582-83.3513 130.084-88.8378Q124.586-94.3244 114.121-94.3244L37.9561-94.3244Q27.5286-94.3244 22.0121-88.8449Q16.4957-83.3655 16.4957-72.9893L16.4957 3.44901Q16.4957 13.8396 22.0121 19.319Q27.5286 24.7984 37.9561 24.7984ZM39.4019 10.3257Q35.2733 10.3257 33.1025 8.23554Q30.9315 6.14541 30.9315 1.81828L30.9315-71.3443Q30.9315-75.6635 33.1025-77.7576Q35.2733-79.8516 39.4019-79.8516L112.675-79.8516Q116.805-79.8516 118.975-77.7576Q121.146-75.6635 121.146-71.3443L121.146 1.81828Q121.146 6.14541 118.975 8.23554Q116.805 10.3257 112.675 10.3257Z"/>
   <path class="hierarchical-1:primary SFSymbolsPreview212121" d="M95.7185-17.5487Q98.2996-17.5487 99.7916-19.2717Q101.284-20.9947 101.284-23.7873L101.284-53.003Q101.284-56.6477 99.3341-58.4602Q97.3846-60.2728 93.9839-60.2728L64.5918-60.2728Q61.7842-60.2728 60.0875-58.7694Q58.3908-57.266 58.3908-54.7219Q58.3908-52.1124 60.0953-50.6019Q61.7998-49.0914 64.5781-49.0914L75.1175-49.0914L82.8737-50.0337L74.384-42.4161L52.6917-20.7238Q50.6913-18.7234 50.6913-16.1158Q50.6913-13.3302 52.5084-11.6082Q54.3255-9.88621 56.9714-9.88621Q59.7705-9.88621 61.8443-11.908L83.3686-33.4401L90.9491-41.87L90.1393-33.4992L90.1393-23.7574Q90.1393-20.9129 91.6312-19.2308Q93.1232-17.5487 95.7185-17.5487Z"/>
  </g>
  <g id="Semibold-L" transform="matrix(1 0 0 1 1968.02 1556)">
   <path class="hierarchical-0:secondary SFSymbolsPreview4D4D4D" d="M37.0679 24.0198L113.436 24.0198Q123.546 24.0198 128.777 18.7899Q134.008 13.56 134.008 3.57357L134.008-73.1082Q134.008-83.0945 128.777-88.3145Q123.546-93.5345 113.436-93.5345L37.0679-93.5345Q26.9998-93.5345 21.7477-88.3244Q16.4957-83.1144 16.4957-73.1082L16.4957 3.57357Q16.4957 13.5998 21.7477 18.8098Q26.9998 24.0198 37.0679 24.0198ZM38.0459 11.6531Q33.558 11.6531 31.1893 9.35416Q28.8205 7.05524 28.8205 2.38565L28.8205-71.9004Q28.8205-76.5465 31.1893-78.8571Q33.558-81.1677 38.0459-81.1677L112.458-81.1677Q116.925-81.1677 119.304-78.8571Q121.683-76.5465 121.683-71.9004L121.683 2.38565Q121.683 7.05524 119.304 9.35416Q116.925 11.6531 112.458 11.6531Z"/>
   <path class="hierarchical-1:primary SFSymbolsPreview212121" d="M95.1093-18.2556Q97.4017-18.2556 98.7384-19.7907Q100.075-21.3259 100.075-23.793L100.075-53.5747Q100.075-56.7573 98.4013-58.2848Q96.7276-59.8124 93.84-59.8124L63.8507-59.8124Q61.3849-59.8124 59.8942-58.4646Q58.4034-57.1169 58.4034-54.8664Q58.4034-52.5342 59.9176-51.1765Q61.4318-49.8189 63.8789-49.8189L75.6294-49.8189L83.8974-50.7133L75.2293-42.7984L52.0512-19.6203Q50.305-17.874 50.305-15.6169Q50.305-13.1944 51.8577-11.6967Q53.4104-10.1991 55.7364-10.1991Q58.2-10.1991 59.9821-11.9405L83.024-35.0059L90.897-43.6099L90.1236-34.5721L90.1236-23.7262Q90.1236-21.2185 91.4603-19.7371Q92.797-18.2556 95.1093-18.2556Z"/>
  </g>
  <g id="Medium-L" transform="matrix(1 0 0 1 1671.9 1556)">
   <path class="hierarchical-0:secondary SFSymbolsPreview4D4D4D" d="M36.3944 23.4294L112.916 23.4294Q122.758 23.4294 127.786 18.3995Q132.815 13.3696 132.815 3.66802L132.815-73.1984Q132.815-82.8998 127.786-87.9177Q122.758-92.9355 112.916-92.9355L36.3944-92.9355Q26.5988-92.9355 21.5472-87.9297Q16.4957-82.924 16.4957-73.1984L16.4957 3.66802Q16.4957 13.4179 21.5472 18.4237Q26.5988 23.4294 36.3944 23.4294ZM37.0178 12.6595Q32.2573 12.6595 29.7386 10.2023Q27.2199 7.74511 27.2199 2.81586L27.2199-72.322Q27.2199-77.216 29.7386-79.6908Q32.2573-82.1656 37.0178-82.1656L112.293-82.1656Q117.016-82.1656 119.553-79.6908Q122.091-77.216 122.091-72.322L122.091 2.81586Q122.091 7.74511 119.553 10.2023Q117.016 12.6595 112.293 12.6595Z"/>
   <path class="hierarchical-1:primary SFSymbolsPreview212121" d="M94.6473-18.7916Q96.7209-18.7916 97.9399-20.1843Q99.1589-21.577 99.1589-23.7973L99.1589-54.0081Q99.1589-56.8404 97.6941-58.1518Q96.2294-59.4633 93.731-59.4633L63.2888-59.4633Q61.0822-59.4633 59.7476-58.2335Q58.413-57.0037 58.413-54.9759Q58.413-52.8541 59.7828-51.6122Q61.1527-50.3705 63.3487-50.3705L76.0175-50.3705L84.6737-51.2286L75.8703-43.0883L51.5656-18.7835Q50.0121-17.2299 50.0121-15.2386Q50.0121-13.0914 51.3643-11.7639Q52.7165-10.4364 54.8-10.4364Q57.0091-10.4364 58.5701-11.9652L82.7628-36.1932L90.8574-44.9292L90.1118-35.3856L90.1118-23.7026Q90.1118-21.4503 91.3307-20.1209Q92.5496-18.7916 94.6473-18.7916Z"/>
  </g>
  <g id="Regular-L" transform="matrix(1 0 0 1 1375.97 1556)">
   <path class="hierarchical-0:secondary SFSymbolsPreview4D4D4D" d="M35.5159 22.6594L112.239 22.6594Q121.729 22.6594 126.494 17.8903Q131.259 13.1212 131.259 3.79121L131.259-73.316Q131.259-82.6458 126.494-87.4001Q121.729-92.1543 112.239-92.1543L35.5159-92.1543Q26.0758-92.1543 21.2857-87.4149Q16.4957-82.6756 16.4957-73.316L16.4957 3.79121Q16.4957 13.1807 21.2857 17.92Q26.0758 22.6594 35.5159 22.6594ZM35.6767 13.9723Q30.5608 13.9723 27.8464 11.3086Q25.1321 8.64494 25.1321 3.37699L25.1321-72.872Q25.1321-78.0892 27.8464-80.7783Q30.5608-83.4673 35.6767-83.4673L112.078-83.4673Q117.134-83.4673 119.878-80.7783Q122.622-78.0892 122.622-72.872L122.622 3.37699Q122.622 8.64494 119.878 11.3086Q117.134 13.9723 112.078 13.9723Z"/>
   <path class="hierarchical-1:primary SFSymbolsPreview212121" d="M94.0448-19.4907Q95.8329-19.4907 96.8983-20.6976Q97.9637-21.9046 97.9637-23.8029L97.9637-54.5735Q97.9637-56.9488 96.7716-57.9784Q95.5795-59.008 93.5887-59.008L62.5559-59.008Q60.6873-59.008 59.5564-57.9321Q58.4255-56.8562 58.4255-55.1188Q58.4255-53.2713 59.6071-52.1806Q60.7887-51.0899 62.6572-51.0899L76.5237-51.0899L85.6862-51.9008L76.7064-43.4664L50.9323-17.6922Q49.63-16.3899 49.63-14.7451Q49.63-12.957 50.7207-11.8514Q51.8114-10.7458 53.5785-10.7458Q55.4559-10.7458 56.7284-11.9974L82.4221-37.7418L90.8059-46.65L90.0963-36.4468L90.0963-23.6717Q90.0963-21.7525 91.1616-20.6216Q92.227-19.4907 94.0448-19.4907Z"/>
  </g>
  <g id="Light-L" transform="matrix(1 0 0 1 1080.09 1556)">
   <path class="hierarchical-0:secondary SFSymbolsPreview4D4D4D" d="M34.4898 21.8385L111.602 21.8385Q120.539 21.8385 125.068 17.2746Q129.596 12.7108 129.596 3.93486L129.596-73.4391Q129.596-82.2149 125.068-86.7536Q120.539-91.2924 111.602-91.2924L34.4898-91.2924Q25.5833-91.2924 21.0395-86.7788Q16.4957-82.2652 16.4957-73.4391L16.4957 3.93486Q16.4957 12.8113 21.0395 17.3249Q25.5833 21.8385 34.4898 21.8385ZM34.6506 15.2037Q29.0012 15.2037 26.0507 12.2834Q23.1004 9.36321 23.1004 3.62328L23.1004-73.0772Q23.1004-78.7869 26.0507-81.7223Q29.0012-84.6575 34.6506-84.6575L111.442-84.6575Q116.99-84.6575 119.991-81.7223Q122.992-78.7869 122.992-73.0772L122.992 3.62328Q122.992 9.36321 119.991 12.2834Q116.99 15.2037 111.442 15.2037Z"/>
   <path class="hierarchical-1:primary SFSymbolsPreview212121" d="M93.8396-19.8191Q95.1967-19.8191 96.0261-20.7489Q96.8555-21.6789 96.8555-23.1667L96.8555-55.4149Q96.8555-57.154 95.9507-57.9784Q95.0459-58.8027 93.5682-58.8027L61.0988-58.8027Q59.6612-58.8027 58.7766-57.9834Q57.8919-57.1641 57.8919-55.8371Q57.8919-54.3795 58.8067-53.535Q59.7216-52.6906 61.1591-52.6906L78.2681-52.6906L87.2048-53.1732L79.3537-45.7443L50.1114-16.5019Q49.0759-15.4664 49.0759-14.1294Q49.0759-12.7723 49.9203-11.9027Q50.7648-11.0332 52.142-11.0332Q53.6499-11.0332 54.6351-12.0384L83.7971-41.2305L91.1958-49.0716L90.7736-38.3758L90.7736-23.0561Q90.7736-21.5884 91.6028-20.7037Q92.4322-19.8191 93.8396-19.8191Z"/>
  </g>
  <g id="Thin-L" transform="matrix(1 0 0 1 784.476 1556)">
   <path class="hierarchical-0:secondary SFSymbolsPreview4D4D4D" d="M33.1327 20.7528L110.761 20.7528Q118.965 20.7528 123.181 16.4604Q127.398 12.168 127.398 4.12486L127.398-73.602Q127.398-81.6449 123.181-85.8987Q118.965-90.1524 110.761-90.1524L33.1327-90.1524Q24.9319-90.1524 20.7138-85.9373Q16.4957-81.7224 16.4957-73.602L16.4957 4.12486Q16.4957 12.3228 20.7138 16.5378Q24.9319 20.7528 33.1327 20.7528ZM33.2935 16.8322Q26.9384 16.8322 23.6758 13.5727Q20.4134 10.3132 20.4134 3.94902L20.4134-73.3486Q20.4134-79.7097 23.6758-82.9708Q26.9384-86.2317 33.2935-86.2317L110.6-86.2317Q116.801-86.2317 120.14-82.9708Q123.48-79.7097 123.48-73.3486L123.48 3.94902Q123.48 10.3132 120.14 13.5727Q116.801 16.8322 110.6 16.8322Z"/>
   <path class="hierarchical-1:primary SFSymbolsPreview212121" d="M93.5682-20.2533Q94.3553-20.2533 94.8726-20.8168Q95.3898-21.3803 95.3898-22.3253L95.3898-56.5277Q95.3898-57.4254 94.865-57.9784Q94.3402-58.5313 93.5411-58.5313L59.1717-58.5313Q58.3041-58.5313 57.7452-58.0512Q57.1862-57.5713 57.1862-56.7871Q57.1862-55.8451 57.7482-55.3263Q58.3102-54.8077 59.1778-54.8077L80.5751-54.8077L89.2133-54.856L82.8551-48.757L49.0257-14.9277Q48.343-14.245 48.343-13.3151Q48.343-12.5281 48.8618-11.9706Q49.3806-11.4131 50.2421-11.4131Q51.2614-11.4131 51.8666-12.0927L85.6156-45.8447L91.7115-52.2743L91.6693-40.9271L91.6693-22.2419Q91.6693-21.3712 92.1864-20.8123Q92.7037-20.2533 93.5682-20.2533Z"/>
  </g>
  <g id="Ultralight-L" transform="matrix(1 0 0 1 488.328 1556)">
   <path class="hierarchical-0:secondary SFSymbolsPreview4D4D4D" d="M32.4376 20.1967L110.33 20.1967Q118.159 20.1967 122.215 16.0433Q126.272 11.8899 126.272 4.22217L126.272-73.6854Q126.272-81.3529 122.215-85.4607Q118.159-89.5685 110.33-89.5685L32.4376-89.5685Q24.5983-89.5685 20.547-85.5064Q16.4957-81.4444 16.4957-73.6854L16.4957 4.22217Q16.4957 12.0725 20.547 16.1346Q24.5983 20.1967 32.4376 20.1967ZM32.5983 17.6663Q25.8819 17.6663 22.4594 14.233Q19.0371 10.7998 19.0371 4.11586L19.0371-73.4877Q19.0371-80.1824 22.4594-83.6103Q25.8819-87.038 32.5983-87.038L110.169-87.038Q116.703-87.038 120.217-83.6103Q123.731-80.1824 123.731-73.4877L123.731 4.11586Q123.731 10.7998 120.217 14.233Q116.703 17.6663 110.169 17.6663Z"/>
   <path class="hierarchical-1:primary SFSymbolsPreview212121" d="M93.4292-20.4757Q93.9243-20.4757 94.2817-20.8516Q94.6391-21.2274 94.6391-21.8943L94.6391-57.0976Q94.6391-57.5645 94.309-57.9784Q93.9787-58.3923 93.5272-58.3923L58.1847-58.3923Q57.609-58.3923 57.2169-58.0859Q56.8247-57.7798 56.8247-57.2736Q56.8247-56.5958 57.206-56.2439Q57.5873-55.8921 58.1629-55.8921L81.7568-55.8921L90.242-55.7179L84.6484-50.3002L48.4697-14.1214Q47.9677-13.6194 47.9677-12.898Q47.9677-12.403 48.3196-12.0054Q48.6716-11.6078 49.269-11.6078Q50.038-11.6078 50.4486-12.1205L86.547-48.208L91.9757-53.9148L92.1281-42.2339L92.1281-21.8248Q92.1281-21.26 92.4853-20.8679Q92.8427-20.4757 93.4292-20.4757Z"/>
  </g>
  <g id="Black-M" transform="matrix(1 0 0 1 2872.22 1126)">
   <path class="hierarchical-0:secondary SFSymbolsPreview4D4D4D" d="M31.9373 13.5221L90.4203 13.5221Q99.4883 13.5221 104.533 8.48049Q109.578 3.43887 109.578-5.61878L109.578-64.14Q109.578-73.1976 104.533-78.2393Q99.4883-83.2811 90.4203-83.2811L31.9373-83.2811Q22.8748-83.2811 17.8273-78.2392Q12.7799-73.1973 12.7799-64.14L12.7799-5.61878Q12.7799 3.43826 17.8273 8.48018Q22.8748 13.5221 31.9373 13.5221ZM34.5742-3.82152Q32.3595-3.82152 31.2388-4.85111Q30.118-5.88069 30.118-8.2832L30.118-61.4759Q30.118-63.9298 31.2388-64.9337Q32.3595-65.9375 34.5742-65.9375L87.7834-65.9375Q90.0557-65.9375 91.1476-64.9337Q92.2396-63.9298 92.2396-61.4759L92.2396-8.2832Q92.2396-5.88069 91.1476-4.85111Q90.0557-3.82152 87.7834-3.82152Z"/>
   <path class="hierarchical-1:primary SFSymbolsPreview212121" d="M76.0629-19.351Q78.852-19.351 80.4311-21.2007Q82.0103-23.0504 82.0103-26.1299L82.0103-47.4321Q82.0103-51.5376 79.7037-53.7962Q77.397-56.0548 73.2727-56.0548L51.9492-56.0548Q48.8123-56.0548 46.9137-54.4728Q45.0152-52.8908 45.0152-50.1072Q45.0152-47.3187 46.8622-45.7367Q48.7092-44.1549 51.7889-44.1549L57.1306-44.1549L61.4027-44.9283L55.7882-40.333L42.6199-27.1647Q40.3368-24.8817 40.3368-21.8299Q40.3368-18.6411 42.5182-16.6596Q44.6997-14.6782 47.6542-14.6782Q50.785-14.6782 53.2396-17.0698L66.1743-29.953L70.764-35.5563L70.1159-31.0664L70.1159-26.2333Q70.1159-23.091 71.695-21.221Q73.2741-19.351 76.0629-19.351Z"/>
  </g>
  <g id="Heavy-M" transform="matrix(1 0 0 1 2576.33 1126)">
   <path class="hierarchical-0:secondary SFSymbolsPreview4D4D4D" d="M31.0318 12.7114L89.6882 12.7114Q98.426 12.7114 103.183 7.96008Q107.94 3.20871 107.94-5.49175L107.94-64.2643Q107.94-72.9646 103.183-77.7148Q98.426-82.4649 89.6882-82.4649L31.0318-82.4649Q22.3103-82.4649 17.545-77.716Q12.7799-72.9671 12.7799-64.2643L12.7799-5.49175Q12.7799 3.2136 17.545 7.96252Q22.3103 12.7114 31.0318 12.7114ZM33.0758-2.4034Q30.5201-2.4034 29.1994-3.64253Q27.8785-4.88167 27.8785-7.6169L27.8785-62.1367Q27.8785-64.8992 29.1994-66.1247Q30.5201-67.3501 33.0758-67.3501L87.6443-67.3501Q90.2386-67.3501 91.54-66.1247Q92.8415-64.8992 92.8415-62.1367L92.8415-7.6169Q92.8415-4.88167 91.54-3.64253Q90.2386-2.4034 87.6443-2.4034Z"/>
   <path class="hierarchical-1:primary SFSymbolsPreview212121" d="M75.3347-20.1765Q77.8505-20.1765 79.2835-21.8477Q80.7165-23.5187 80.7165-26.2738L80.7165-47.976Q80.7165-51.6324 78.6976-53.5739Q76.6788-55.5153 73.0948-55.5153L51.3228-55.5153Q48.5266-55.5153 46.8362-54.0754Q45.1458-52.6355 45.1458-50.136Q45.1458-47.6154 46.8088-46.1742Q48.4719-44.7331 51.2244-44.7331L57.4047-44.7331L62.3742-45.5164L56.291-40.3283L41.9844-26.0216Q39.9662-24.0034 39.9662-21.3296Q39.9662-18.5085 41.8653-16.7608Q43.7645-15.0131 46.3972-15.0131Q49.1821-15.0131 51.3287-17.1023L65.4423-31.1884L70.6141-37.2416L69.9506-32.012L69.9506-26.326Q69.9506-23.5137 71.3836-21.8451Q72.8165-20.1765 75.3347-20.1765Z"/>
  </g>
  <g id="Bold-M" transform="matrix(1 0 0 1 2280.54 1126)">
   <path class="hierarchical-0:secondary SFSymbolsPreview4D4D4D" d="M30.0189 11.8046L88.8693 11.8046Q97.2377 11.8046 101.673 7.37792Q106.108 2.95125 106.108-5.34964L106.108-64.4033Q106.108-72.7041 101.673-77.128Q97.2377-81.5519 88.8693-81.5519L30.0189-81.5519Q21.6787-81.5519 17.2293-77.1308Q12.7799-72.7096 12.7799-64.4033L12.7799-5.34964Q12.7799 2.96229 17.2293 7.38344Q21.6787 11.8046 30.0189 11.8046ZM31.3996-0.817032Q28.4625-0.817032 26.918-2.29057Q25.3733-3.76412 25.3733-6.87155L25.3733-62.8759Q25.3733-65.9835 26.918-67.457Q28.4625-68.9303 31.3996-68.9303L87.4886-68.9303Q90.4432-68.9303 91.979-67.457Q93.5149-65.9835 93.5149-62.8759L93.5149-6.87155Q93.5149-3.76412 91.979-2.29057Q90.4432-0.817032 87.4886-0.817032Z"/>
   <path class="hierarchical-1:primary SFSymbolsPreview212121" d="M74.5201-21.1Q76.7302-21.1 77.9997-22.5713Q79.2692-24.0426 79.2692-26.4347L79.2692-48.5844Q79.2692-51.7385 77.5722-53.3252Q75.8753-54.9118 72.8958-54.9118L50.6221-54.9118Q48.207-54.9118 46.7495-53.6309Q45.292-52.35 45.292-50.1683Q45.292-47.9473 46.7492-46.6636Q48.2064-45.38 50.5929-45.38L57.7113-45.38L63.461-46.1744L56.8536-40.323L41.2735-24.7429Q39.5515-23.0209 39.5515-20.7701Q39.5515-18.3602 41.1349-16.874Q42.7183-15.3878 44.9912-15.3878Q47.389-15.3878 49.1912-17.1386L64.6233-32.5705L70.4464-39.127L69.7657-33.0699L69.7657-26.4297Q69.7657-23.9865 71.0352-22.5433Q72.3047-21.1 74.5201-21.1Z"/>
  </g>
  <g id="Semibold-M" transform="matrix(1 0 0 1 1984.46 1126)">
   <path class="hierarchical-0:secondary SFSymbolsPreview4D4D4D" d="M29.3205 11.1794L88.3048 11.1794Q96.4185 11.1794 100.632 6.97659Q104.845 2.77375 104.845-5.25167L104.845-64.4991Q104.845-72.5245 100.632-76.7235Q96.4185-80.9226 88.3048-80.9226L29.3205-80.9226Q21.2434-80.9226 17.0116-76.7273Q12.7799-72.5321 12.7799-64.4991L12.7799-5.25167Q12.7799 2.78903 17.0116 6.98423Q21.2434 11.1794 29.3205 11.1794ZM30.2441 0.276602Q27.044 0.276602 25.3452-1.35854Q23.6463-2.99369 23.6463-6.3577L23.6463-63.3855Q23.6463-66.7311 25.3452-68.3754Q27.044-70.0197 30.2441-70.0197L87.3814-70.0197Q90.5842-70.0197 92.2816-68.3754Q93.9791-66.7311 93.9791-63.3855L93.9791-6.3577Q93.9791-2.99369 92.2816-1.35854Q90.5842 0.276602 87.3814 0.276602Z"/>
   <path class="hierarchical-1:primary SFSymbolsPreview212121" d="M73.9586-21.7367Q75.9578-21.7367 77.1146-23.0702Q78.2714-24.4038 78.2714-26.5456L78.2714-49.0039Q78.2714-51.8117 76.7964-53.1537Q75.3214-54.4957 72.7585-54.4957L50.139-54.4957Q47.9867-54.4957 46.6897-53.3245Q45.3927-52.1532 45.3927-50.1905Q45.3927-48.1761 46.708-47.001Q48.0234-45.826 50.1575-45.826L57.9227-45.826L64.2102-46.628L57.2414-40.3194L40.7834-23.8613Q39.2657-22.3435 39.2657-20.3843Q39.2657-18.258 40.6313-16.952Q41.9971-15.6461 44.0218-15.6461Q46.1529-15.6461 47.7175-17.1636L64.0588-33.5232L70.3308-40.4267L69.6382-33.7992L69.6382-26.5012Q69.6382-24.3125 70.795-23.0246Q71.9518-21.7367 73.9586-21.7367Z"/>
  </g>
  <g id="Medium-M" transform="matrix(1 0 0 1 1688.22 1126)">
   <path class="hierarchical-0:secondary SFSymbolsPreview4D4D4D" d="M28.791 10.7054L87.8768 10.7054Q95.7973 10.7054 99.8426 6.67228Q103.888 2.63917 103.888-5.17739L103.888-64.5718Q103.888-72.3883 99.8426-76.4168Q95.7973-80.4453 87.8768-80.4453L28.791-80.4453Q20.9132-80.4453 16.8466-76.4214Q12.7799-72.3975 12.7799-64.5718L12.7799-5.17739Q12.7799 2.65766 16.8466 6.68153Q20.9132 10.7054 28.791 10.7054ZM29.3679 1.10584Q25.9684 1.10584 24.1526-0.651832Q22.3367-2.40951 22.3367-5.96809L22.3367-63.7719Q22.3367-67.2979 24.1526-69.0718Q25.9684-70.8457 29.3679-70.8457L87.3-70.8457Q90.6911-70.8457 92.5111-69.0718Q94.3311-67.2979 94.3311-63.7719L94.3311-5.96809Q94.3311-2.40951 92.5111-0.651832Q90.6911 1.10584 87.3 1.10584Z"/>
   <path class="hierarchical-1:primary SFSymbolsPreview212121" d="M73.5328-22.2194Q75.3722-22.2194 76.4435-23.4485Q77.5149-24.6777 77.5149-26.6297L77.5149-49.3219Q77.5149-51.8671 76.2081-53.0237Q74.9014-54.1802 72.6545-54.1802L49.7727-54.1802Q47.8196-54.1802 46.6444-53.0921Q45.4691-52.004 45.4691-50.2074Q45.4691-48.3496 46.6769-47.2568Q47.8847-46.1641 49.8274-46.1641L58.083-46.1641L64.7783-46.9719L57.5355-40.3166L40.4118-23.1929Q39.0489-21.8299 39.0489-20.0918Q39.0489-18.1805 40.2495-17.0112Q41.4502-15.8419 43.2868-15.8419Q45.2156-15.8419 46.6001-17.1826L63.6307-34.2456L70.2432-41.4122L69.5415-34.3521L69.5415-26.5554Q69.5415-24.5596 70.6129-23.3895Q71.6842-22.2194 73.5328-22.2194Z"/>
  </g>
  <g id="Regular-M" transform="matrix(1 0 0 1 1392.14 1126)">
   <path class="hierarchical-0:secondary SFSymbolsPreview4D4D4D" d="M28.1004 10.0871L87.3184 10.0871Q94.9871 10.0871 98.813 6.27536Q102.639 2.46362 102.639-5.08049L102.639-64.6666Q102.639-72.2106 98.813-76.0167Q94.9871-79.8228 87.3184-79.8228L28.1004-79.8228Q20.4826-79.8228 16.6313-76.0224Q12.7799-72.222 12.7799-64.6666L12.7799-5.08049Q12.7799 2.48631 16.6313 6.28671Q20.4826 10.0871 28.1004 10.0871ZM28.225 2.18746Q24.5655 2.18746 22.5971 0.26996Q20.6287-1.64755 20.6287-5.45989L20.6287-64.2759Q20.6287-68.0372 22.5971-69.9802Q24.5655-71.9232 28.225-71.9232L87.1939-71.9232Q90.8306-71.9232 92.8104-69.9802Q94.7903-68.0372 94.7903-64.2759L94.7903-5.45989Q94.7903-1.64755 92.8104 0.26996Q90.8306 2.18746 87.1939 2.18746Z"/>
   <path class="hierarchical-1:primary SFSymbolsPreview212121" d="M72.9774-22.849Q74.6083-22.849 75.5682-23.9419Q76.5281-25.0349 76.5281-26.7395L76.5281-49.7368Q76.5281-51.9395 75.4408-52.8541Q74.3536-53.7687 72.5188-53.7687L49.295-53.7687Q47.6017-53.7687 46.5853-52.7891Q45.5688-51.8093 45.5688-50.2294Q45.5688-48.5758 46.6362-47.5905Q47.7037-46.6052 49.3968-46.6052L58.2921-46.6052L65.5193-47.4205L57.919-40.313L39.9271-22.321Q38.7662-21.16 38.7662-19.7103Q38.7662-18.0794 39.7515-17.0884Q40.7369-16.0974 42.3281-16.0974Q43.9931-16.0974 45.1427-17.2074L63.0723-35.1879L70.1289-42.6976L69.4155-35.0734L69.4155-26.6261Q69.4155-24.882 70.3753-23.8655Q71.3352-22.849 72.9774-22.849Z"/>
  </g>
  <g id="Light-M" transform="matrix(1 0 0 1 1096.17 1126)">
   <path class="hierarchical-0:secondary SFSymbolsPreview4D4D4D" d="M27.1804 9.35115L86.7481 9.35115Q93.92 9.35115 97.5343 5.72339Q101.149 2.09564 101.149-4.9517L101.149-64.777Q101.149-71.8242 97.5343-75.4372Q93.92-79.0501 86.7481-79.0501L27.1804-79.0501Q20.0411-79.0501 16.4105-75.452Q12.7799-71.854 12.7799-64.777L12.7799-4.9517Q12.7799 2.15513 16.4105 5.75314Q20.0411 9.35115 27.1804 9.35115ZM27.305 3.29139Q23.1672 3.29139 20.9871 1.14391Q18.8071-1.00358 18.8071-5.23908L18.8071-64.4599Q18.8071-68.6628 20.9871-70.8266Q23.1672-72.9903 27.305-72.9903L86.6235-72.9903Q90.7018-72.9903 92.9116-70.8266Q95.1214-68.6628 95.1214-64.4599L95.1214-5.23908Q95.1214-1.00358 92.9116 1.14391Q90.7018 3.29139 86.6235 3.29139Z"/>
   <path class="hierarchical-1:primary SFSymbolsPreview212121" d="M72.7934-23.1434Q74.0379-23.1434 74.7862-23.9879Q75.5345-24.8325 75.5345-26.1691L75.5345-50.4911Q75.5345-52.1235 74.7048-52.8541Q73.8752-53.5847 72.5004-53.5847L47.9886-53.5847Q46.6818-53.5847 45.8861-52.835Q45.0904-52.0853 45.0904-50.8733Q45.0904-49.5694 45.9186-48.8048Q46.7469-48.0403 48.0537-48.0403L59.856-48.0403L66.8808-48.5612L60.2925-42.3553L39.1912-21.2538Q38.2694-20.3321 38.2694-19.1583Q38.2694-17.9138 39.034-17.1344Q39.7985-16.355 41.0402-16.355Q42.374-16.355 43.266-17.2441L64.3051-38.3158L70.4785-44.8687L70.0226-36.8029L70.0226-26.0742Q70.0226-24.7348 70.7709-23.9391Q71.5192-23.1434 72.7934-23.1434Z"/>
  </g>
  <g id="Thin-M" transform="matrix(1 0 0 1 800.444 1126)">
   <path class="hierarchical-0:secondary SFSymbolsPreview4D4D4D" d="M25.9637 8.37778L85.9938 8.37778Q92.5086 8.37778 95.8431 4.99337Q99.1775 1.60896 99.1775-4.78136L99.1775-64.923Q99.1775-71.3132 95.8431-74.6706Q92.5086-78.028 85.9938-78.028L25.9637-78.028Q19.4571-78.028 16.1185-74.6976Q12.7799-71.3674 12.7799-64.923L12.7799-4.78136Q12.7799 1.71712 16.1185 5.04745Q19.4571 8.37778 25.9637 8.37778ZM26.0883 4.75144Q21.3178 4.75144 18.8579 2.29978Q16.3981-0.151882 16.3981-4.94704L16.3981-64.7032Q16.3981-69.4901 18.8579-71.9459Q21.3178-74.4016 26.0883-74.4016L85.8691-74.4016Q90.5315-74.4016 93.0455-71.9459Q95.5595-69.4901 95.5595-64.7032L95.5595-4.94704Q95.5595-0.151882 93.0455 2.29978Q90.5315 4.75144 85.8691 4.75144Z"/>
   <path class="hierarchical-1:primary SFSymbolsPreview212121" d="M72.5501-23.5327Q73.2836-23.5327 73.752-24.0488Q74.2205-24.5648 74.2205-25.4147L74.2205-51.4888Q74.2205-52.3668 73.7315-52.8541Q73.2424-53.3414 72.4761-53.3414L46.2609-53.3414Q45.4651-53.3414 44.9614-52.8958Q44.4577-52.4504 44.4577-51.7251Q44.4577-50.8834 44.9696-50.4108Q45.4815-49.9384 46.2774-49.9384L61.9244-49.9384L68.6815-50.07L63.4317-45.0563L38.2178-19.8425Q37.6124-19.237 37.6124-18.4283Q37.6124-17.6948 38.0849-17.1952Q38.5575-16.6956 39.3369-16.6956Q40.2326-16.6956 40.7839-17.2928L65.9355-42.4526L70.9409-47.7401L70.8257-39.0903L70.8257-25.3442Q70.8257-24.5401 71.2941-24.0364Q71.7625-23.5327 72.5501-23.5327Z"/>
  </g>
  <g id="Ultralight-M" transform="matrix(1 0 0 1 504.238 1126)">
   <path class="hierarchical-0:secondary SFSymbolsPreview4D4D4D" d="M25.3405 7.87923L85.6074 7.87923Q91.7857 7.87923 94.9769 4.61945Q98.1679 1.35968 98.1679-4.69411L98.1679-64.9978Q98.1679-71.0515 94.9769-74.278Q91.7857-77.5045 85.6074-77.5045L25.3405-77.5045Q19.158-77.5045 15.9689-74.3113Q12.7799-71.1181 12.7799-64.9978L12.7799-4.69411Q12.7799 1.49277 15.9689 4.686Q19.158 7.87923 25.3405 7.87923ZM25.4651 5.49927Q20.3706 5.49927 17.7673 2.89181Q15.1641 0.284354 15.1641-4.79746L15.1641-64.8279Q15.1641-69.9139 17.7673-72.5193Q20.3706-75.1245 25.4651-75.1245L85.4827-75.1245Q90.4442-75.1245 93.114-72.5193Q95.7838-69.9139 95.7838-64.8279L95.7838-4.79746Q95.7838 0.284354 93.114 2.89181Q90.4442 5.49927 85.4827 5.49927Z"/>
   <path class="hierarchical-1:primary SFSymbolsPreview212121" d="M72.4255-23.7321Q72.8972-23.7321 73.2223-24.0799Q73.5474-24.4277 73.5474-25.0283L73.5474-51.9998Q73.5474-52.4915 73.2329-52.8541Q72.9184-53.2167 72.4636-53.2167L45.376-53.2167Q44.8419-53.2167 44.4877-52.927Q44.1336-52.6373 44.1336-52.1613Q44.1336-51.5565 44.4835-51.2334Q44.8334-50.9106 45.3675-50.9106L62.9839-50.9106L69.6038-50.8428L65.0395-46.4398L37.7193-19.1196Q37.2758-18.6761 37.2758-18.0544Q37.2758-17.5827 37.5988-17.2264Q37.9219-16.8701 38.4644-16.8701Q39.1357-16.8701 39.5126-17.3177L66.7705-44.5714L71.1777-49.2108L71.237-40.2619L71.237-24.9703Q71.237-24.4404 71.562-24.0863Q71.8872-23.7321 72.4255-23.7321Z"/>
  </g>
  <g id="Black-S" transform="matrix(1 0 0 1 2885.25 696)">
   <path class="hierarchical-0:secondary SFSymbolsPreview4D4D4D" d="M25.25 3.17969L71.0508 3.17969Q78.2285 3.17969 82.2568-0.84863Q86.2852-4.87695 86.2852-12.0547L86.2852-57.8555Q86.2852-65.0332 82.2568-69.0615Q78.2285-73.0898 71.0508-73.0898L25.25-73.0898Q18.0723-73.0898 14.0439-69.0615Q10.0156-65.0332 10.0156-57.8555L10.0156-12.0547Q10.0156-4.87695 14.0439-0.84863Q18.0723 3.17969 25.25 3.17969ZM27.4961-10.9805Q25.8359-10.9805 25.0059-11.7373Q24.1758-12.4941 24.1758-14.3008L24.1758-55.6094Q24.1758-57.4648 25.0059-58.1973Q25.8359-58.9297 27.4961-58.9297L68.8047-58.9297Q70.5137-58.9297 71.3193-58.1973Q72.125-57.4648 72.125-55.6094L72.125-14.3008Q72.125-12.4941 71.3193-11.7373Q70.5137-10.9805 68.8047-10.9805Z"/>
   <path class="hierarchical-1:primary SFSymbolsPreview212121" d="M59.8203-22.5527Q62.0664-22.5527 63.3359-24.042Q64.6055-25.5312 64.6055-28.0215L64.6055-44.6719Q64.6055-47.9922 62.7256-49.8477Q60.8457-51.7031 57.4766-51.7031L40.8262-51.7031Q38.2871-51.7031 36.749-50.4336Q35.2109-49.1641 35.2109-46.918Q35.2109-44.6719 36.7002-43.4023Q38.1895-42.1328 40.6797-42.1328L44.7812-42.1328L47.9062-42.7188L43.707-39.3496L33.5508-29.1934Q31.6953-27.3379 31.6953-24.8477Q31.6953-22.2598 33.4775-20.6484Q35.2598-19.0371 37.6523-19.0371Q40.1914-19.0371 42.1934-20.9902L52.1543-30.9023L55.5234-35.1016L55.0352-31.7812L55.0352-28.1191Q55.0352-25.5801 56.3047-24.0664Q57.5742-22.5527 59.8203-22.5527Z"/>
  </g>
  <g id="Heavy-S" transform="matrix(1 0 0 1 2589.14 696)">
   <path class="hierarchical-0:secondary SFSymbolsPreview4D4D4D" d="M24.5931 2.58042L70.4976 2.58042Q77.4564 2.58042 81.2657-1.22318Q85.0751-5.02677 85.0751-11.9625L85.0751-57.9477Q85.0751-64.8834 81.2657-68.687Q77.4564-72.4905 70.4976-72.4905L24.5931-72.4905Q17.6459-72.4905 13.8307-68.687Q10.0156-64.8834 10.0156-57.9477L10.0156-11.9625Q10.0156-5.02677 13.8307-1.22318Q17.6459 2.58042 24.5931 2.58042ZM26.3321-9.90872Q24.4414-9.90872 23.4674-10.8153Q22.4932-11.722 22.4932-13.7592L22.4932-56.151Q22.4932-58.2139 23.4674-59.1077Q24.4414-60.0015 26.3321-60.0015L68.7586-60.0015Q70.6866-60.0015 71.642-59.1077Q72.5975-58.2139 72.5975-56.151L72.5975-13.7592Q72.5975-11.722 71.642-10.8153Q70.6866-9.90872 68.7586-9.90872Z"/>
   <path class="hierarchical-1:primary SFSymbolsPreview212121" d="M59.221-23.2211Q61.2827-23.2211 62.4543-24.5894Q63.6259-25.9576 63.6259-28.2174L63.6259-45.0407Q63.6259-48.0498 61.9592-49.6575Q60.2925-51.2652 57.3268-51.2652L40.4574-51.2652Q38.1603-51.2652 36.7721-50.0879Q35.3838-48.9105 35.3838-46.8604Q35.3838-44.7987 36.7463-43.6213Q38.1088-42.444 40.3685-42.444L44.8158-42.444L48.5631-43.076L43.8338-39.0845L33.1013-28.3521Q31.4418-26.6925 31.4418-24.4904Q31.4418-22.1676 33.0108-20.7291Q34.5798-19.2906 36.7419-19.2906Q39.0274-19.2906 40.7989-21.0133L51.3706-31.5592L55.3505-36.2656L54.8162-32.369L54.8162-28.2689Q54.8162-25.9604 55.9878-24.5908Q57.1593-23.2211 59.221-23.2211Z"/>
  </g>
  <g id="Bold-S" transform="matrix(1 0 0 1 2293.11 696)">
   <path class="hierarchical-0:secondary SFSymbolsPreview4D4D4D" d="M23.8584 1.91016L69.8789 1.91016Q76.5928 1.91016 80.1572-1.64209Q83.7217-5.19434 83.7217-11.8594L83.7217-58.0508Q83.7217-64.7158 80.1572-68.268Q76.5928-71.8203 69.8789-71.8203L23.8584-71.8203Q17.169-71.8203 13.5923-68.268Q10.0156-64.7158 10.0156-58.0508L10.0156-11.8594Q10.0156-5.19434 13.5923-1.64209Q17.169 1.91016 23.8584 1.91016ZM25.0303-8.70998Q22.8818-8.70998 21.7466-9.78417Q20.6114-10.8584 20.6114-13.1533L20.6114-56.7569Q20.6114-59.0517 21.7466-60.126Q22.8818-61.2002 25.0303-61.2002L68.7071-61.2002Q70.8799-61.2002 72.0029-60.126Q73.126-59.0517 73.126-56.7569L73.126-13.1533Q73.126-10.8584 72.0029-9.78417Q70.8799-8.70998 68.7071-8.70998Z"/>
   <path class="hierarchical-1:primary SFSymbolsPreview212121" d="M58.5508-23.9688Q60.4063-23.9688 61.4683-25.2017Q62.5303-26.4346 62.5303-28.4366L62.5303-45.4532Q62.5303-48.1142 61.1021-49.4449Q59.6739-50.7754 57.1592-50.7754L40.045-50.7754Q38.0186-50.7754 36.7979-49.7012Q35.5772-48.6269 35.5772-46.7959Q35.5772-44.9404 36.7979-43.8662Q38.0186-42.792 40.0205-42.792L44.8545-42.792L49.2979-43.4756L43.9756-38.7881L32.5987-27.4111Q31.1582-25.9707 31.1582-24.0908Q31.1582-22.0645 32.4888-20.8193Q33.8194-19.5742 35.7236-19.5742Q37.7256-19.5742 39.2393-21.0391L50.4942-32.2939L55.1572-37.5674L54.5713-33.0264L54.5713-28.4365Q54.5713-26.3858 55.6333-25.1773Q56.6953-23.9688 58.5508-23.9688Z"/>
  </g>
  <g id="Semibold-S" transform="matrix(1 0 0 1 1996.87 696)">
   <path class="hierarchical-0:secondary SFSymbolsPreview4D4D4D" d="M23.3519 1.44805L69.4523 1.44805Q75.9973 1.44805 79.3929-1.93091Q82.7886-5.30986 82.7886-11.7883L82.7886-58.1219Q82.7886-64.6003 79.3929-67.9792Q75.9973-71.3582 69.4523-71.3582L23.3519-71.3582Q16.8401-71.3582 13.4278-67.9792Q10.0156-64.6003 10.0156-58.1219L10.0156-11.7883Q10.0156-5.30986 13.4278-1.93091Q16.8401 1.44805 23.3519 1.44805ZM24.1327-7.8835Q21.8065-7.8835 20.5602-9.07324Q19.3139-10.263 19.3139-12.7357L19.3139-57.1745Q19.3139-59.6294 20.5602-60.828Q21.8065-62.0267 24.1327-62.0267L68.6715-62.0267Q71.0132-62.0267 72.2517-60.828Q73.4904-59.6294 73.4904-57.1745L73.4904-12.7357Q73.4904-10.263 72.2517-9.07324Q71.0132-7.8835 68.6715-7.8835Z"/>
   <path class="hierarchical-1:primary SFSymbolsPreview212121" d="M58.0886-24.4842Q59.802-24.4842 60.7884-25.6238Q61.7749-26.7634 61.7749-28.5876L61.7749-45.7375Q61.7749-48.1587 60.5111-49.2982Q59.2473-50.4377 57.0437-50.4377L39.7606-50.4377Q37.9208-50.4377 36.8156-49.4346Q35.7105-48.4314 35.7105-46.7515Q35.7105-45.0382 36.8334-44.0351Q37.9564-43.0319 39.7806-43.0319L44.8811-43.0319L49.8044-43.7511L44.0733-38.5837L32.2521-26.7624Q30.9627-25.473 30.9627-23.8154Q30.9627-21.9933 32.1288-20.8815Q33.295-19.7697 35.0216-19.7697Q36.828-19.7697 38.164-21.0568L49.8899-32.8004L55.0239-38.465L54.4024-33.4796L54.4024-28.552Q54.4024-26.679 55.3889-25.5816Q56.3754-24.4842 58.0886-24.4842Z"/>
  </g>
  <g id="Medium-S" transform="matrix(1 0 0 1 1700.51 696)">
   <path class="hierarchical-0:secondary SFSymbolsPreview4D4D4D" d="M22.9678 1.09766L69.1289 1.09766Q75.5459 1.09766 78.8135-2.1499Q82.0811-5.39746 82.0811-11.7344L82.0811-58.1758Q82.0811-64.5127 78.8135-67.7602Q75.5459-71.0078 69.1289-71.0078L22.9678-71.0078Q16.5908-71.0078 13.3032-67.7602Q10.0156-64.5127 10.0156-58.1758L10.0156-11.7344Q10.0156-5.39746 13.3032-2.1499Q16.5908 1.09766 22.9678 1.09766ZM23.4522-7.25684Q20.9912-7.25684 19.6606-8.53417Q18.3301-9.81152 18.3301-12.419L18.3301-57.4912Q18.3301-60.0674 19.6606-61.3604Q20.9912-62.6533 23.4522-62.6533L68.6446-62.6533Q71.1143-62.6533 72.4404-61.3604Q73.7666-60.0674 73.7666-57.4912L73.7666-12.419Q73.7666-9.81152 72.4404-8.53417Q71.1143-7.25684 68.6446-7.25684Z"/>
   <path class="hierarchical-1:primary SFSymbolsPreview212121" d="M57.7382-24.875Q59.3438-24.875 60.273-25.9438Q61.2022-27.0127 61.2022-28.7022L61.2022-45.9532Q61.2022-48.1924 60.063-49.187Q58.9239-50.1817 56.9561-50.1817L39.5449-50.1817Q37.8467-50.1817 36.8291-49.2325Q35.8115-48.2832 35.8115-46.7178Q35.8115-45.1123 36.8603-44.1631Q37.9092-43.2139 39.5986-43.2139L44.9013-43.2139L50.1885-43.96L44.1474-38.4287L31.9893-26.2705Q30.8145-25.0957 30.8145-23.6065Q30.8145-21.9394 31.8559-20.9287Q32.8975-19.9179 34.4892-19.9179Q36.1475-19.9179 37.3487-21.0703L49.4317-33.1845L54.9228-39.1455L54.2744-33.8232L54.2744-28.6396Q54.2744-26.9014 55.2036-25.8882Q56.1328-24.875 57.7382-24.875Z"/>
  </g>
  <g id="Regular-S" transform="matrix(1 0 0 1 1404.26 696)">
   <path class="hierarchical-0:secondary SFSymbolsPreview4D4D4D" d="M22.4668 0.640625L68.707 0.640625Q74.957 0.640625 78.0576-2.43555Q81.1582-5.51172 81.1582-11.6641L81.1582-58.2461Q81.1582-64.3984 78.0576-67.4746Q74.957-70.5508 68.707-70.5508L22.4668-70.5508Q16.2656-70.5508 13.1406-67.4746Q10.0156-64.3984 10.0156-58.2461L10.0156-11.6641Q10.0156-5.51172 13.1406-2.43555Q16.2656 0.640625 22.4668 0.640625ZM22.5645-6.43945Q19.9277-6.43945 18.4873-7.83105Q17.0469-9.22266 17.0469-12.0059L17.0469-57.9043Q17.0469-60.6387 18.4873-62.0547Q19.9277-63.4707 22.5645-63.4707L68.6094-63.4707Q71.2461-63.4707 72.6865-62.0547Q74.127-60.6387 74.127-57.9043L74.127-12.0059Q74.127-9.22266 72.6865-7.83105Q71.2461-6.43945 68.6094-6.43945Z"/>
   <path class="hierarchical-1:primary SFSymbolsPreview212121" d="M57.2812-25.3848Q58.7461-25.3848 59.6006-26.3613Q60.4551-27.3379 60.4551-28.8516L60.4551-46.2344Q60.4551-48.2363 59.4785-49.042Q58.502-49.8477 56.8418-49.8477L39.2637-49.8477Q37.75-49.8477 36.8467-48.9688Q35.9434-48.0898 35.9434-46.6738Q35.9434-45.209 36.8955-44.3301Q37.8477-43.4512 39.3613-43.4512L44.9277-43.4512L50.6895-44.2324L44.2441-38.2266L31.6465-25.6289Q30.6211-24.6035 30.6211-23.334Q30.6211-21.8691 31.5-20.9902Q32.3789-20.1113 33.7949-20.1113Q35.2598-20.1113 36.2852-21.0879L48.834-33.6855L54.791-40.0332L54.1074-34.2715L54.1074-28.7539Q54.1074-27.1914 54.9619-26.2881Q55.8164-25.3848 57.2812-25.3848Z"/>
  </g>
  <g id="Light-S" transform="matrix(1 0 0 1 1108.21 696)">
   <path class="hierarchical-0:secondary SFSymbolsPreview4D4D4D" d="M21.653-0.0104167L68.2025-0.0104167Q74.013-0.0104167 76.9264-2.92383Q79.8398-5.83724 79.8398-11.5502L79.8398-58.3438Q79.8398-64.0566 76.9264-66.9619Q74.013-69.8672 68.2025-69.8672L21.653-69.8672Q15.875-69.8672 12.9453-66.97Q10.0156-64.0729 10.0156-58.3438L10.0156-11.5502Q10.0156-5.80469 12.9453-2.90755Q15.875-0.0104167 21.653-0.0104167ZM21.7507-5.46289Q18.6907-5.46289 17.0631-7.05794Q15.4356-8.653 15.4356-11.8106L15.4356-58.0671Q15.4356-61.1921 17.0631-62.8034Q18.6907-64.4147 21.7507-64.4147L68.1048-64.4147Q71.1322-64.4147 72.776-62.8034Q74.42-61.1921 74.42-58.0671L74.42-11.8106Q74.42-8.653 72.776-7.05794Q71.1322-5.46289 68.1048-5.46289Z"/>
   <path class="hierarchical-1:primary SFSymbolsPreview212121" d="M57.1185-25.6452Q58.2415-25.6452 58.9089-26.402Q59.5762-27.1589 59.5762-28.347L59.5762-46.9017Q59.5762-48.3991 58.8275-49.042Q58.0788-49.6849 56.8255-49.6849L38.1081-49.6849Q36.9362-49.6849 36.2282-49.0095Q35.5202-48.334 35.5202-47.2435Q35.5202-46.0879 36.2607-45.4043Q37.0013-44.7207 38.1732-44.7207L46.3112-44.7207L51.8939-45.2415L46.3437-40.0332L30.9955-24.6849Q30.1816-23.8711 30.1816-22.8457Q30.1816-21.7226 30.8652-21.0309Q31.5488-20.3392 32.6556-20.3392Q33.8275-20.3392 34.625-21.1204L49.9245-36.4524L55.1003-41.9538L54.6445-35.8014L54.6445-28.2656Q54.6445-27.0612 55.3118-26.3532Q55.9792-25.6452 57.1185-25.6452Z"/>
  </g>
  <g id="Thin-S" transform="matrix(1 0 0 1 812.367 696)">
   <path class="hierarchical-0:secondary SFSymbolsPreview4D4D4D" d="M20.5767-0.871472L67.5352-0.871472Q72.7645-0.871472 75.4304-3.56962Q78.0962-6.26777 78.0962-11.3995L78.0962-58.4729Q78.0962-63.6045 75.4304-66.2838Q72.7645-68.9631 67.5352-68.9631L20.5767-68.9631Q15.3584-68.9631 12.687-66.3027Q10.0156-63.6424 10.0156-58.4729L10.0156-11.3995Q10.0156-6.19216 12.687-3.53182Q15.3584-0.871472 20.5767-0.871472ZM20.6743-4.17131Q17.0547-4.17131 15.1796-6.03544Q13.3044-7.89957 13.3044-11.5522L13.3044-58.2823Q13.3044-61.9239 15.1796-63.7936Q17.0547-65.6632 20.6743-65.6632L67.4375-65.6632Q70.9815-65.6632 72.8944-63.7936Q74.8074-61.9239 74.8074-58.2823L74.8074-11.5522Q74.8074-7.89957 72.8944-6.03544Q70.9815-4.17131 67.4375-4.17131Z"/>
   <path class="hierarchical-1:primary SFSymbolsPreview212121" d="M56.9032-25.9896Q57.5742-25.9896 57.994-26.4558Q58.4138-26.9221 58.4138-27.6797L58.4138-47.7843Q58.4138-48.6143 57.9664-49.042Q57.5191-49.4697 56.804-49.4697L36.5797-49.4697Q35.8599-49.4697 35.4102-49.0633Q34.9605-48.6569 34.9605-47.9969Q34.9605-47.2503 35.4212-46.825Q35.8819-46.3998 36.6018-46.3998L48.1409-46.3998L53.4868-46.5762L49.1207-42.4227L30.1344-23.4364Q29.6004-22.9024 29.6004-22.1999Q29.6004-21.5289 30.0257-21.0847Q30.451-20.6405 31.1488-20.6405Q31.9332-20.6405 32.4293-21.1635L51.3668-40.1119L55.5093-44.4939L55.3549-37.8249L55.3549-27.6199Q55.3549-26.889 55.7746-26.4393Q56.1944-25.9896 56.9032-25.9896Z"/>
  </g>
  <g id="Ultralight-S" transform="matrix(1 0 0 1 516.102 696)">
   <path class="hierarchical-0:secondary SFSymbolsPreview4D4D4D" d="M20.0254-1.3125L67.1934-1.3125Q72.125-1.3125 74.6641-3.90039Q77.2031-6.48828 77.2031-11.3223L77.2031-58.5391Q77.2031-63.373 74.6641-65.9365Q72.125-68.5 67.1934-68.5L20.0254-68.5Q15.0938-68.5 12.5547-65.9609Q10.0156-63.4219 10.0156-58.5391L10.0156-11.3223Q10.0156-6.39062 12.5547-3.85156Q15.0938-1.3125 20.0254-1.3125ZM20.123-3.50977Q16.2168-3.50977 14.2148-5.51172Q12.2129-7.51367 12.2129-11.4199L12.2129-58.3926Q12.2129-62.2988 14.2148-64.3008Q16.2168-66.3027 20.123-66.3027L67.0957-66.3027Q70.9043-66.3027 72.9551-64.3008Q75.0059-62.2988 75.0059-58.3926L75.0059-11.4199Q75.0059-7.51367 72.9551-5.51172Q70.9043-3.50977 67.0957-3.50977Z"/>
   <path class="hierarchical-1:primary SFSymbolsPreview212121" d="M56.793-26.166Q57.2324-26.166 57.5254-26.4834Q57.8184-26.8008 57.8184-27.3379L57.8184-48.2363Q57.8184-48.7246 57.5254-49.042Q57.2324-49.3594 56.793-49.3594L35.7969-49.3594Q35.3086-49.3594 34.9912-49.0908Q34.6738-48.8223 34.6738-48.3828Q34.6738-47.8457 34.9912-47.5527Q35.3086-47.2598 35.7969-47.2598L49.0781-47.2598L54.3027-47.2598L50.543-43.6465L29.6934-22.7969Q29.3027-22.4062 29.3027-21.8691Q29.3027-21.4297 29.5957-21.1123Q29.8887-20.7949 30.377-20.7949Q30.9629-20.7949 31.3047-21.1855L52.1055-41.9863L55.7188-45.7949L55.7188-38.8613L55.7188-27.2891Q55.7188-26.8008 56.0117-26.4834Q56.3047-26.166 56.793-26.166Z"/>
  </g>
 </g>
</svg>
