<svg width="296" height="138" viewBox="0 0 296 138" fill="none" xmlns="http://www.w3.org/2000/svg">
<path d="M3.9901 128.594C1.95593 128.594 0.938847 120.392 0.938847 103.987L1.17356 74.3085C1.2518 65.5426 1.29091 55.7123 1.29091 44.8175C1.29091 40.8103 1.0562 34.6115 0.586779 26.2213C0.195593 17.0798 0 11.5072 0 9.50355C0 7.87559 0.430305 6.43549 1.29091 5.18322C2.15152 3.93095 3.09037 3.30481 4.10746 3.30481C6.84576 3.30481 9.46671 4.30663 11.9703 6.31026C14.5521 8.18866 16.821 10.881 18.7769 14.3874C22.9235 22.0262 25.6618 30.4164 26.9919 39.558C27.696 44.1914 28.0481 48.7622 28.0481 53.2704C28.0481 54.8983 28.0089 56.401 27.9307 57.7785L27.8134 62.8502V73.1815C27.8134 81.196 27.6569 87.5199 27.3439 92.1533C26.8745 98.4147 25.9748 103.987 24.6447 108.871C23.08 114.131 20.8111 118.827 17.8381 122.959C16.4298 124.838 14.6304 126.716 12.4397 128.594H3.9901ZM9.15376 119.015C10.7185 119.015 12.1659 118.388 13.4959 117.136C14.826 115.759 15.9604 113.943 16.8993 111.689C17.6816 109.685 18.3858 107.181 19.0117 104.175C19.7158 101.044 20.2243 98.039 20.5373 95.1588C21.2414 89.5236 21.6717 83.7631 21.8282 77.8775C21.9064 76.3747 21.9456 74.1833 21.9456 71.303C21.9456 33.4845 17.3687 13.7613 8.21491 12.1333C7.66725 17.7685 7.39342 24.2803 7.39342 31.6687C7.39342 39.558 7.70637 53.333 8.33227 72.9936C8.87993 90.4002 9.15376 104.238 9.15376 114.506V119.015Z" fill="#A11275"/>
<path d="M46.2034 129.909C45.1863 129.909 44.2475 129.346 43.3868 128.219C42.6045 127.092 42.1742 125.714 42.0959 124.086V115.446C42.0177 114.319 41.9786 113.004 41.9786 111.501C41.9786 108.871 41.8612 104.864 41.6265 99.4791L41.3918 87.4573C41.3918 81.3212 41.5092 72.1796 41.7439 60.0326C42.0568 49.1379 42.2133 39.9963 42.2133 32.6079C42.2133 30.8547 42.0959 28.225 41.8612 24.7186C41.6265 21.087 41.5092 18.4573 41.5092 16.8293C41.5092 7.93821 43.1521 3.49265 46.4381 3.49265C49.0199 3.49265 51.9929 4.30663 55.3571 5.93458C58.7996 7.56253 60.5208 9.50355 60.5208 11.7576C60.5208 13.0099 60.1687 14.1996 59.4646 15.3266C58.8387 16.3284 58.0563 17.1424 57.1175 17.7685C53.8315 15.8901 50.8585 14.6378 48.1984 14.0117C48.2767 15.8901 48.3158 18.5825 48.3158 22.0888C48.3158 27.0979 48.2767 31.6061 48.1984 35.6134C47.9637 41.6243 47.8464 46.1324 47.8464 49.1379L48.1984 52.1433L50.0761 51.9555C50.702 51.8303 51.4844 51.7676 52.4233 51.7676C56.1786 51.7676 58.0563 53.5208 58.0563 57.0272C58.0563 58.4047 57.7043 59.5943 57.0001 60.5961C56.296 61.4727 55.3963 61.911 54.3009 61.911C52.8927 61.911 51.7974 61.7858 51.015 61.5353H48.0811C48.2376 64.7912 48.3158 69.5499 48.3158 75.8112C48.3158 82.0726 48.2767 87.7078 48.1984 92.7169C47.9637 100.356 47.8464 106.054 47.8464 109.81C47.8464 116.823 47.9246 120.329 48.0811 120.329L51.9538 120.142C53.2839 120.016 54.8877 119.954 56.7654 119.954C59.7384 119.954 61.2249 121.456 61.2249 124.462C61.2249 126.215 60.7164 127.53 59.6993 128.407C58.7605 129.408 57.5869 129.909 56.1786 129.909H46.2034Z" fill="#A11275"/>
<path d="M89.8809 130.097C88.1597 130.097 86.3211 129.659 84.3651 128.782C82.4875 128.031 81.0401 127.154 80.023 126.152C74.7811 120.768 72.1601 106.054 72.1601 82.01V66.607C72.1601 61.598 72.1992 57.1524 72.2775 53.2704C72.3557 49.2631 72.5122 44.9428 72.7469 40.3094C72.9816 35.4255 73.3337 31.4809 73.8031 28.4754C74.2725 25.3448 75.0549 21.8384 76.1502 17.9564C77.0891 14.3248 78.2235 11.5072 79.5536 9.50355C80.9618 7.49991 82.7613 5.80935 84.9519 4.43185C86.9079 3.05436 89.3332 2.36561 92.228 2.36561C93.4015 2.36561 94.3013 2.80391 94.9272 3.68049C95.5531 4.55708 95.866 5.68413 95.866 7.06162C95.866 8.31389 95.5922 9.44093 95.0445 10.4427C94.5751 11.4446 93.9883 12.0081 93.2842 12.1333H87.7685C86.2037 12.1333 84.8346 13.6986 83.661 16.8293C82.4875 19.96 81.666 24.0299 81.1965 29.0389C80.1794 38.3057 79.6709 45.8194 79.6709 51.5798V52.519L79.4362 70.5517C79.2797 75.9364 79.2015 82.01 79.2015 88.7722C79.2015 93.5308 79.3188 97.4129 79.5536 100.418C79.9447 104.926 80.6098 108.683 81.5486 111.689C82.4875 115.07 84.0913 117.512 86.3602 119.015C87.5338 119.766 88.8247 120.142 90.2329 120.142C91.0936 120.142 91.9542 119.641 92.8148 118.639C93.8319 118.639 94.6533 119.015 95.2792 119.766C95.9834 120.392 96.3354 121.394 96.3354 122.771C96.3354 127.655 94.1839 130.097 89.8809 130.097Z" fill="#A11275"/>
<path d="M112.331 129.909C111.314 129.909 110.375 129.346 109.514 128.219C108.732 127.092 108.301 125.714 108.223 124.086V115.446C108.145 114.319 108.106 113.004 108.106 111.501C108.106 108.871 107.989 104.864 107.754 99.4791L107.519 87.4573C107.519 81.3212 107.636 72.1796 107.871 60.0326C108.184 49.1379 108.341 39.9963 108.341 32.6079C108.341 30.8547 108.223 28.225 107.989 24.7186C107.754 21.087 107.636 18.4573 107.636 16.8293C107.636 7.93821 109.279 3.49265 112.565 3.49265C115.147 3.49265 118.12 4.30663 121.484 5.93458C124.927 7.56253 126.648 9.50355 126.648 11.7576C126.648 13.0099 126.296 14.1996 125.592 15.3266C124.966 16.3284 124.184 17.1424 123.245 17.7685C119.959 15.8901 116.986 14.6378 114.326 14.0117C114.404 15.8901 114.443 18.5825 114.443 22.0888C114.443 27.0979 114.404 31.6061 114.326 35.6134C114.091 41.6243 113.974 46.1324 113.974 49.1379L114.326 52.1433L116.203 51.9555C116.829 51.8303 117.612 51.7676 118.551 51.7676C122.306 51.7676 124.184 53.5208 124.184 57.0272C124.184 58.4047 123.832 59.5943 123.127 60.5961C122.423 61.4727 121.524 61.911 120.428 61.911C119.02 61.911 117.925 61.7858 117.142 61.5353H114.208C114.365 64.7912 114.443 69.5499 114.443 75.8112C114.443 82.0726 114.404 87.7078 114.326 92.7169C114.091 100.356 113.974 106.054 113.974 109.81C113.974 116.823 114.052 120.329 114.208 120.329L118.081 120.142C119.411 120.016 121.015 119.954 122.893 119.954C125.866 119.954 127.352 121.456 127.352 124.462C127.352 126.215 126.844 127.53 125.827 128.407C124.888 129.408 123.714 129.909 122.306 129.909H112.331Z" fill="#A11275"/>
<path d="M187.577 137.235C185.152 137.235 183.939 133.353 183.939 125.589V101.545C183.939 95.284 183.665 87.0816 183.117 76.9383C182.491 65.5426 182.179 57.7159 182.179 53.4582L182.413 41.8121C182.57 38.431 182.648 34.6116 182.648 30.3538C182.335 31.9818 181.044 40.6224 178.775 56.2758C176.506 71.4283 174.159 85.4537 171.734 98.3521C169.387 110.75 167.47 116.948 165.983 116.948C164.497 116.948 163.284 116.26 162.345 114.882C161.485 113.379 161.054 111.376 161.054 108.871C161.054 103.361 159.646 91.6524 156.83 73.745C154.091 55.8375 151.588 41.186 149.319 29.7903L148.615 51.0163C147.989 68.9237 147.559 83.8257 147.324 95.7223C147.167 107.243 147.089 115.132 147.089 119.39C147.089 120.392 147.128 121.331 147.206 122.208V124.838C147.206 126.966 146.933 128.532 146.385 129.534C145.837 130.661 144.82 131.224 143.334 131.224C142.551 131.224 141.808 130.723 141.104 129.721C140.4 128.845 140.048 127.843 140.048 126.716C140.048 113.943 140.635 94.7831 141.808 69.2368C142.982 43.6905 143.568 24.5308 143.568 11.7576C143.099 10.6306 142.864 9.44093 142.864 8.18866C142.864 6.68594 143.295 5.5589 144.155 4.80753C145.094 3.93094 146.189 3.49265 147.441 3.49265C148.458 3.49265 150.336 9.37832 153.074 21.1496C155.813 32.921 158.551 46.2577 161.289 61.1597C164.028 76.0617 165.788 86.8312 166.57 93.4682C167.196 90.0871 167.705 86.9564 168.096 84.0762L168.8 79.568C171.304 62.0363 173.807 46.195 176.311 32.0444C177.797 23.4037 179.245 16.6415 180.653 11.7576C182.061 6.49809 183.352 3.86833 184.526 3.86833C185.621 3.86833 186.599 4.36924 187.46 5.37105C188.398 6.24765 188.868 7.4373 188.868 8.94002C188.868 17.9564 189.103 31.4809 189.572 49.5136C190.12 66.294 190.393 79.3176 190.393 88.5844L190.276 98.5399L190.041 108.495C190.041 109.998 190.159 112.252 190.393 115.258L190.746 121.832C190.824 122.959 190.863 123.836 190.863 124.462C190.941 125.088 190.98 125.464 190.98 125.589C191.371 127.217 191.567 128.407 191.567 129.158C191.567 131.287 191.176 133.165 190.393 134.793C189.611 136.421 188.672 137.235 187.577 137.235Z" fill="#A11275"/>
<path d="M209.469 129.346C207.748 129.346 206.692 128.156 206.301 125.777C205.988 124.274 205.831 122.145 205.831 119.39C205.831 114.005 205.988 107.368 206.301 99.4791C206.692 91.9655 206.887 85.2659 206.887 79.3802C206.887 72.7432 207.005 62.7876 207.24 49.5136L207.474 19.8348C207.474 18.7077 207.357 17.0172 207.122 14.7631L206.77 10.0671V9.12786C206.77 6.24764 207.044 4.11878 207.592 2.74129C208.139 1.3638 209.156 0.675049 210.643 0.675049C212.677 0.675049 214.907 1.61425 217.332 3.49265C219.757 5.37105 221.518 7.75037 222.613 10.6306C224.882 16.6415 226.016 24.1551 226.016 33.1714C226.016 39.9337 225.664 45.6315 224.96 50.2649C224.256 54.7731 223.043 58.9682 221.322 62.8502C223.435 66.1061 224.843 70.3012 225.547 75.4355C226.329 80.4446 226.721 86.7686 226.721 94.4074C226.721 102.046 225.899 108.683 224.256 114.319C222.378 120.705 219.64 125.088 216.041 127.467C213.851 128.72 211.66 129.346 209.469 129.346ZM213.225 57.4029C217.293 57.2776 219.327 49.7014 219.327 34.6742C219.327 18.5199 217.723 10.0671 214.516 9.31571C213.655 12.1959 213.225 18.9582 213.225 29.6025V57.4029ZM212.521 119.766C215.024 118.889 216.98 116.51 218.388 112.628C219.797 108.746 220.501 104.3 220.501 99.2913C220.501 94.0317 220.305 89.3983 219.914 85.3911C219.601 82.2604 219.171 79.6933 218.623 77.6896C218.154 75.5608 217.489 73.6198 216.628 71.8666C215.689 69.9882 214.594 68.8611 213.342 68.4854C213.029 75.6234 212.873 85.078 212.873 96.8493C212.873 97.6007 212.794 99.98 212.638 103.987L212.403 110.374C212.403 110.624 212.442 110.812 212.521 110.937V119.766Z" fill="#A11275"/>
<path d="M244.929 129.909C243.912 129.909 242.973 129.346 242.113 128.219C241.33 127.092 240.9 125.714 240.822 124.086V115.446C240.743 114.319 240.704 113.004 240.704 111.501C240.704 108.871 240.587 104.864 240.352 99.4791L240.118 87.4573C240.118 81.3212 240.235 72.1796 240.47 60.0326C240.783 49.1379 240.939 39.9963 240.939 32.6079C240.939 30.8547 240.822 28.225 240.587 24.7186C240.352 21.087 240.235 18.4573 240.235 16.8293C240.235 7.93821 241.878 3.49265 245.164 3.49265C247.746 3.49265 250.719 4.30663 254.083 5.93458C257.525 7.56253 259.247 9.50355 259.247 11.7576C259.247 13.0099 258.894 14.1996 258.19 15.3266C257.564 16.3284 256.782 17.1424 255.843 17.7685C252.557 15.8901 249.584 14.6378 246.924 14.0117C247.002 15.8901 247.042 18.5825 247.042 22.0888C247.042 27.0979 247.002 31.6061 246.924 35.6134C246.689 41.6243 246.572 46.1324 246.572 49.1379L246.924 52.1433L248.802 51.9555C249.428 51.8303 250.21 51.7676 251.149 51.7676C254.904 51.7676 256.782 53.5208 256.782 57.0272C256.782 58.4047 256.43 59.5943 255.726 60.5961C255.022 61.4727 254.122 61.911 253.027 61.911C251.618 61.911 250.523 61.7858 249.741 61.5353H246.807C246.963 64.7912 247.042 69.5499 247.042 75.8112C247.042 82.0726 247.002 87.7078 246.924 92.7169C246.689 100.356 246.572 106.054 246.572 109.81C246.572 116.823 246.65 120.329 246.807 120.329L250.68 120.142C252.01 120.016 253.613 119.954 255.491 119.954C258.464 119.954 259.951 121.456 259.951 124.462C259.951 126.215 259.442 127.53 258.425 128.407C257.486 129.408 256.313 129.909 254.904 129.909H244.929Z" fill="#A11275"/>
<path d="M293.418 130.661C291.697 130.661 290.132 127.655 288.724 121.644C287.081 115.132 285.868 108.433 285.086 101.545L284.264 95.1588C281.996 77.2513 280.548 67.0453 279.922 64.5408H278.514C278.514 68.1724 278.475 71.4909 278.397 74.4963V84.8276C278.397 101.608 279.14 114.694 280.626 124.086L279.335 129.158H276.05L274.524 126.34L274.641 113.755C274.641 102.485 274.289 85.3911 273.585 62.4746C272.959 38.0553 272.646 20.9618 272.646 11.1941C272.646 5.18321 273.937 2.17776 276.519 2.17776C280.744 2.17776 284.186 3.93094 286.846 7.4373C289.585 10.9437 290.954 15.8275 290.954 22.0888V35.2377C290.954 37.1161 290.758 39.3076 290.367 41.8121C289.976 44.1914 289.545 46.1324 289.076 47.6352L286.846 54.3974L284.969 60.0326L285.555 64.5408L287.198 77.8775C288.294 87.5199 289.35 95.3466 290.367 101.358C291.384 107.368 292.636 112.816 294.122 117.7L294.826 119.954C295.609 122.458 296 124.462 296 125.965C296 127.217 295.765 128.281 295.296 129.158C294.826 130.16 294.201 130.661 293.418 130.661ZM278.983 55.3366C280.705 53.9591 282.152 50.2023 283.326 44.0662C284.577 37.8048 285.203 32.0444 285.203 26.7849C285.203 22.7776 284.89 19.0208 284.264 15.5144C283.873 13.5108 283.208 12.0081 282.269 11.0063C281.409 9.87923 280.313 9.31571 278.983 9.31571L278.749 10.2549L278.514 11.9455L278.749 34.1106C278.905 40.6224 278.983 47.6978 278.983 55.3366Z" fill="#A11275"/>
</svg>
