<svg width="888" height="414" viewBox="0 0 888 414" fill="none" xmlns="http://www.w3.org/2000/svg">
<path d="M11.9703 385.782C5.86779 385.782 2.81654 361.176 2.81654 311.961L3.52068 222.925C3.7554 196.627 3.87273 167.137 3.87273 134.452C3.87273 122.431 3.1686 103.834 1.76034 78.6635C0.586779 51.239 0 34.5212 0 28.5103C0 23.6264 1.29092 19.3061 3.87273 15.5493C6.45456 11.7925 9.27111 9.91406 12.3224 9.91406C20.5373 9.91406 28.4001 12.9195 35.9109 18.9304C43.6563 24.5656 50.463 32.6426 56.3307 43.1618C68.7705 66.0782 76.9854 91.2488 80.9757 118.674C83.088 132.574 84.1443 146.286 84.1443 159.811C84.1443 164.695 84.0267 169.203 83.7921 173.335L83.4402 188.55V219.544C83.4402 243.588 82.9707 262.559 82.0317 276.46C80.6235 295.244 77.9244 311.961 73.9341 326.613C69.24 342.393 62.4333 356.481 53.5143 368.877C49.2894 374.514 43.8912 380.148 37.3191 385.782H11.9703ZM27.4613 357.045C32.1555 357.045 36.4977 355.164 40.4877 351.408C44.478 347.277 47.8812 341.829 50.6979 335.067C53.0448 329.055 55.1574 321.543 57.0351 312.525C59.1474 303.132 60.6729 294.117 61.6119 285.476C63.7242 268.57 65.0151 251.289 65.4846 233.632C65.7192 229.124 65.8368 222.55 65.8368 213.909C65.8368 100.453 52.1061 41.2835 24.6447 36.3995C23.0018 53.3051 22.1803 72.8405 22.1803 95.0057C22.1803 118.674 23.1191 159.999 24.9968 218.98C26.6398 271.2 27.4613 312.714 27.4613 343.518V357.045Z" fill="#A11275"/>
<path d="M138.61 389.726C135.558 389.726 132.742 388.037 130.16 384.656C127.813 381.275 126.522 377.141 126.287 372.257V346.337C126.053 342.956 125.935 339.011 125.935 334.502C125.935 326.612 125.583 314.591 124.879 298.436L124.175 262.37C124.175 243.962 124.527 216.537 125.231 180.096C126.17 147.412 126.639 119.988 126.639 97.8223C126.639 92.5627 126.287 84.6736 125.583 74.1544C124.879 63.2596 124.527 55.3705 124.527 50.4865C124.527 23.8132 129.456 10.4766 139.314 10.4766C147.059 10.4766 155.978 12.9185 166.071 17.8024C176.398 22.6862 181.562 28.5093 181.562 35.2714C181.562 39.0283 180.506 42.5974 178.393 45.9784C176.516 48.9838 174.168 51.4258 171.352 53.3041C161.494 47.6689 152.575 43.912 144.595 42.0337C144.83 47.6689 144.947 55.7461 144.947 66.265C144.947 81.2923 144.83 94.8169 144.595 106.839C143.891 124.872 143.539 138.396 143.539 147.412L144.595 156.429L150.228 155.865C152.105 155.49 154.453 155.301 157.269 155.301C168.535 155.301 174.168 160.561 174.168 171.08C174.168 175.213 173.112 178.782 171 181.787C168.887 184.417 166.188 185.732 162.902 185.732C158.678 185.732 155.392 185.356 153.044 184.605H144.243C144.712 194.372 144.947 208.648 144.947 227.432C144.947 246.216 144.83 263.122 144.595 278.149C143.891 301.067 143.539 318.161 143.539 329.429C143.539 350.468 143.773 360.986 144.243 360.986L155.861 360.425C159.851 360.047 164.663 359.861 170.296 359.861C179.215 359.861 183.674 364.367 183.674 373.385C183.674 378.644 182.149 382.589 179.097 385.22C176.281 388.223 172.76 389.726 168.535 389.726H138.61Z" fill="#A11275"/>
<path d="M269.643 390.29C264.479 390.29 258.963 388.976 253.095 386.345C247.463 384.092 243.12 381.461 240.069 378.455C224.343 362.303 216.48 318.161 216.48 246.029V199.82C216.48 184.793 216.598 171.456 216.833 159.81C217.067 147.788 217.537 134.827 218.241 120.927C218.945 106.275 220.001 94.4416 221.409 85.4251C222.818 76.0333 225.165 65.5141 228.451 53.8681C231.267 42.9733 234.671 34.5205 238.661 28.5095C242.886 22.4986 248.284 17.4269 254.856 13.2944C260.724 9.16195 268 7.0957 276.684 7.0957C280.205 7.0957 282.904 8.4106 284.782 11.0403C286.659 13.6701 287.598 17.0513 287.598 21.1837C287.598 24.9405 286.777 28.3217 285.134 31.327C283.725 34.3327 281.965 36.0232 279.853 36.3988H263.306C258.611 36.3988 254.504 41.0947 250.983 50.4868C247.463 59.8789 244.998 72.0886 243.59 87.1156C240.538 114.916 239.013 137.457 239.013 154.738V157.556L238.309 211.654C237.839 227.808 237.605 246.029 237.605 266.315C237.605 280.591 237.957 292.238 238.661 301.253C239.834 314.777 241.83 326.048 244.646 335.066C247.463 345.209 252.274 352.535 259.081 357.044C262.602 359.297 266.474 360.425 270.699 360.425C273.281 360.425 275.863 358.922 278.445 355.916C281.496 355.916 283.96 357.044 285.838 359.297C287.95 361.175 289.006 364.181 289.006 368.312C289.006 382.964 282.552 390.29 269.643 390.29Z" fill="#A11275"/>
<path d="M336.993 389.726C333.942 389.726 331.125 388.037 328.542 384.656C326.196 381.275 324.903 377.141 324.669 372.257V346.337C324.435 342.956 324.318 339.011 324.318 334.502C324.318 326.612 323.967 314.591 323.262 298.436L322.557 262.37C322.557 243.962 322.908 216.537 323.613 180.096C324.552 147.412 325.023 119.988 325.023 97.8223C325.023 92.5627 324.669 84.6736 323.967 74.1544C323.262 63.2596 322.908 55.3705 322.908 50.4865C322.908 23.8132 327.837 10.4766 337.695 10.4766C345.441 10.4766 354.36 12.9185 364.452 17.8024C374.781 22.6862 379.944 28.5093 379.944 35.2714C379.944 39.0283 378.888 42.5974 376.776 45.9784C374.898 48.9838 372.552 51.4258 369.735 53.3041C359.877 47.6689 350.958 43.912 342.978 42.0337C343.212 47.6689 343.329 55.7461 343.329 66.265C343.329 81.2923 343.212 94.8169 342.978 106.839C342.273 124.872 341.922 138.396 341.922 147.412L342.978 156.429L348.609 155.865C350.487 155.49 352.836 155.301 355.653 155.301C366.918 155.301 372.552 160.561 372.552 171.08C372.552 175.213 371.496 178.782 369.381 181.787C367.269 184.417 364.572 185.732 361.284 185.732C357.06 185.732 353.775 185.356 351.426 184.605H342.624C343.095 194.372 343.329 208.648 343.329 227.432C343.329 246.216 343.212 263.122 342.978 278.149C342.273 301.067 341.922 318.161 341.922 329.429C341.922 350.468 342.156 360.986 342.624 360.986L354.243 360.425C358.233 360.047 363.045 359.861 368.679 359.861C377.598 359.861 382.056 364.367 382.056 373.385C382.056 378.644 380.532 382.589 377.481 385.22C374.664 388.223 371.142 389.726 366.918 389.726H336.993Z" fill="#A11275"/>
<path d="M562.731 411.704C555.456 411.704 551.817 400.058 551.817 376.766V304.634C551.817 285.851 550.995 261.243 549.351 230.814C547.473 196.626 546.537 173.146 546.537 160.373L547.239 125.435C547.71 115.292 547.944 103.833 547.944 91.06C547.005 95.944 543.132 121.866 536.325 168.826C529.518 214.284 522.477 256.36 515.202 295.055C508.161 332.249 502.41 350.843 497.949 350.843C493.491 350.843 489.852 348.779 487.035 344.645C484.455 340.136 483.162 334.127 483.162 326.612C483.162 310.082 478.938 274.956 470.49 221.234C462.273 167.511 454.764 123.557 447.957 89.3695L445.845 153.048C443.967 206.77 442.677 251.476 441.972 287.165C441.501 321.728 441.267 345.395 441.267 358.169C441.267 361.175 441.384 363.992 441.618 366.623V374.513C441.618 380.897 440.799 385.595 439.155 388.601C437.511 391.982 434.46 393.671 430.002 393.671C427.653 393.671 425.424 392.168 423.312 389.162C421.2 386.534 420.144 383.528 420.144 380.147C420.144 341.828 421.905 284.348 425.424 207.709C428.946 131.07 430.704 73.591 430.704 35.2714C429.297 31.8904 428.592 28.3214 428.592 24.5646C428.592 20.0564 429.885 16.6753 432.465 14.4212C435.282 11.7914 438.567 10.4766 442.323 10.4766C445.374 10.4766 451.008 28.1336 459.222 63.4474C467.439 98.7616 475.653 138.772 483.867 183.478C492.084 228.184 497.364 260.492 499.71 280.403C501.588 270.26 503.115 260.868 504.288 252.227L506.4 238.703C513.912 186.108 521.421 138.584 528.933 96.1318C533.391 70.2097 537.735 49.9231 541.959 35.2714C546.183 19.4929 550.056 11.6036 553.578 11.6036C556.863 11.6036 559.797 13.1063 562.38 16.1118C565.194 18.7416 566.604 22.3105 566.604 26.8187C566.604 53.8678 567.309 94.4413 568.716 148.539C570.36 198.881 571.179 237.951 571.179 265.752L570.828 295.618L570.123 325.484C570.123 329.993 570.477 336.755 571.179 345.773L572.238 365.495C572.472 368.876 572.589 371.507 572.589 373.385C572.823 375.263 572.94 376.391 572.94 376.766C574.113 381.65 574.701 385.22 574.701 387.473C574.701 393.86 573.528 399.494 571.179 404.378C568.833 409.262 566.016 411.704 562.731 411.704Z" fill="#A11275"/>
<path d="M628.407 388.037C623.244 388.037 620.076 384.467 618.903 377.33C617.964 372.821 617.493 366.434 617.493 358.169C617.493 342.014 617.964 322.103 618.903 298.437C620.076 275.896 620.661 255.797 620.661 238.14C620.661 218.229 621.015 188.362 621.72 148.54L622.422 59.5037C622.422 56.1224 622.071 51.0509 621.366 44.2886L620.31 30.2006V27.3828C620.31 18.7422 621.132 12.3556 622.776 8.22314C624.417 4.09067 627.468 2.02441 631.929 2.02441C638.031 2.02441 644.721 4.84202 651.996 10.4772C659.271 16.1124 664.554 23.2504 667.839 31.8911C674.646 49.9238 678.048 72.4646 678.048 99.5135C678.048 119.8 676.992 136.894 674.88 150.794C672.768 164.319 669.129 176.904 663.966 188.55C670.305 198.318 674.529 210.903 676.641 226.306C678.987 241.333 680.163 260.305 680.163 283.221C680.163 306.137 677.697 326.048 672.768 342.956C667.134 362.114 658.92 375.263 648.123 382.4C641.553 386.159 634.98 388.037 628.407 388.037ZM639.675 172.208C651.879 171.832 657.981 149.103 657.981 104.022C657.981 55.559 653.169 30.2006 643.548 27.9464C640.965 36.587 639.675 56.8739 639.675 88.8068V172.208ZM637.563 359.297C645.072 356.666 650.94 349.529 655.164 337.883C659.391 326.237 661.503 312.899 661.503 297.873C661.503 282.094 660.915 268.194 659.742 256.173C658.803 246.78 657.513 239.079 655.869 233.068C654.462 226.682 652.467 220.859 649.884 215.599C647.067 209.964 643.782 206.583 640.026 205.455C639.087 226.869 638.619 255.233 638.619 290.547C638.619 292.801 638.382 299.939 637.914 311.96L637.209 331.121C637.209 331.871 637.326 332.435 637.563 332.81V359.297Z" fill="#A11275"/>
<path d="M734.788 389.726C731.737 389.726 728.92 388.037 726.34 384.656C723.991 381.275 722.701 377.141 722.467 372.257V346.337C722.23 342.956 722.112 339.011 722.112 334.502C722.112 326.612 721.762 314.591 721.057 298.436L720.354 262.37C720.354 243.962 720.706 216.537 721.411 180.096C722.35 147.412 722.817 119.988 722.817 97.8223C722.817 92.5627 722.467 84.6736 721.762 74.1544C721.057 63.2596 720.706 55.3705 720.706 50.4865C720.706 23.8132 725.635 10.4766 735.493 10.4766C743.239 10.4766 752.157 12.9185 762.249 17.8024C772.575 22.6862 777.742 28.5093 777.742 35.2714C777.742 39.0283 776.683 42.5974 774.571 45.9784C772.693 48.9838 770.347 51.4258 767.53 53.3041C757.672 47.6689 748.752 43.912 740.772 42.0337C741.006 47.6689 741.127 55.7461 741.127 66.265C741.127 81.2923 741.006 94.8169 740.772 106.839C740.067 124.872 739.717 138.396 739.717 147.412L740.772 156.429L746.407 155.865C748.285 155.49 750.631 155.301 753.448 155.301C764.713 155.301 770.347 160.561 770.347 171.08C770.347 175.213 769.29 178.782 767.178 181.787C765.066 184.417 762.366 185.732 759.081 185.732C754.854 185.732 751.569 185.356 749.223 184.605H740.422C740.89 194.372 741.127 208.648 741.127 227.432C741.127 246.216 741.006 263.122 740.772 278.149C740.067 301.067 739.717 318.161 739.717 329.429C739.717 350.468 739.951 360.986 740.422 360.986L752.04 360.425C756.03 360.047 760.839 359.861 766.473 359.861C775.392 359.861 779.853 364.367 779.853 373.385C779.853 378.644 778.326 382.589 775.275 385.22C772.458 388.223 768.94 389.726 764.713 389.726H734.788Z" fill="#A11275"/>
<path d="M880.254 391.983C875.091 391.983 870.396 382.965 866.172 364.932C861.243 345.396 857.604 325.299 855.258 304.635L852.792 285.476C845.988 231.754 841.644 201.136 839.766 193.622H835.542C835.542 204.517 835.425 214.473 835.191 223.489V254.483C835.191 304.824 837.42 344.082 841.878 372.258L838.004 387.474H828.149L823.571 379.02L823.922 341.265C823.922 307.455 822.866 256.173 820.754 187.424C818.876 114.166 817.938 62.8853 817.938 33.5822C817.938 15.5496 821.811 6.5332 829.557 6.5332C842.232 6.5332 852.558 11.7927 860.538 22.3118C868.755 32.831 872.862 47.4824 872.862 66.2663V105.713C872.862 111.348 872.274 117.923 871.101 125.436C869.928 132.574 868.634 138.397 867.227 142.906L860.538 163.192L854.906 180.098L856.664 193.622L861.594 233.632C864.882 262.56 868.05 286.04 871.101 304.074C874.152 322.104 877.908 338.448 882.366 353.1L884.477 359.862C886.826 367.374 888 373.386 888 377.895C888 381.651 887.294 384.843 885.887 387.474C884.477 390.48 882.603 391.983 880.254 391.983ZM836.949 166.01C842.115 161.877 846.455 150.607 849.977 132.199C853.73 113.414 855.609 96.1331 855.609 80.3546C855.609 68.3327 854.67 57.0623 852.792 46.5431C851.619 40.5323 849.624 36.0242 846.807 33.0188C844.227 29.6376 840.939 27.9471 836.949 27.9471L836.246 30.7646L835.542 35.8364L836.246 102.332C836.714 121.867 836.949 143.093 836.949 166.01Z" fill="#A11275"/>
</svg>
